<?xml version="1.0" encoding="UTF-8" standalone="no"?>
<!DOCTYPE svg PUBLIC "-//W3C//DTD SVG 1.1//EN"
 "http://www.w3.org/Graphics/SVG/1.1/DTD/svg11.dtd">
<!-- Generated by graphviz version 2.38.0 (20140413.2041)
 -->
<!-- Title: getFreeExplicitConnection Pages: 1 -->
<svg width="638pt" height="28pt"
 viewBox="0.00 0.00 638.00 28.00" xmlns="http://www.w3.org/2000/svg" xmlns:xlink="http://www.w3.org/1999/xlink">
<g id="graph0" class="graph" transform="scale(1 1) rotate(0) translate(4 24)">
<title>getFreeExplicitConnection</title>
<!-- Node1 -->
<g id="node1" class="node"><title>Node1</title>
<polygon fill="#bfbfbf" stroke="black" points="0,-0.5 0,-19.5 131,-19.5 131,-0.5 0,-0.5"/>
<text text-anchor="middle" x="65.5" y="-7.5" font-family="Helvetica,sans-Serif" font-size="10.00">getFreeExplicitConnection</text>
</g>
<!-- Node2 -->
<g id="node2" class="node"><title>Node2</title>
<g id="a_node2"><a xlink:href="../../d2/d11/cipclass3connection_8h.html#a459e8982744d10e7c6cc3f2da6fb8acb" target="_top" xlink:title="Check if Class3 connection is available and if yes setup all data. ">
<polygon fill="none" stroke="black" points="167,-0.5 167,-19.5 303,-19.5 303,-0.5 167,-0.5"/>
<text text-anchor="middle" x="235" y="-7.5" font-family="Helvetica,sans-Serif" font-size="10.00">establishClass3Connection</text>
</a>
</g>
</g>
<!-- Node1&#45;&gt;Node2 -->
<g id="edge1" class="edge"><title>Node1&#45;&gt;Node2</title>
<path fill="none" stroke="midnightblue" d="M141.506,-10C149.974,-10 158.562,-10 166.92,-10"/>
<polygon fill="midnightblue" stroke="midnightblue" points="141.26,-6.5001 131.26,-10 141.26,-13.5001 141.26,-6.5001"/>
</g>
<!-- Node3 -->
<g id="node3" class="node"><title>Node3</title>
<g id="a_node3"><a xlink:href="../../d2/da3/cipconnectionmanager_8h.html#abbdafd9e83df08856ba6de13890cf40f" target="_top" xlink:title="Connection_Manager_Init">
<polygon fill="none" stroke="black" points="339,-0.5 339,-19.5 467,-19.5 467,-0.5 339,-0.5"/>
<text text-anchor="middle" x="403" y="-7.5" font-family="Helvetica,sans-Serif" font-size="10.00">Connection_Manager_Init</text>
</a>
</g>
</g>
<!-- Node2&#45;&gt;Node3 -->
<g id="edge2" class="edge"><title>Node2&#45;&gt;Node3</title>
<path fill="none" stroke="midnightblue" d="M313.07,-10C321.666,-10 330.347,-10 338.742,-10"/>
<polygon fill="midnightblue" stroke="midnightblue" points="313.04,-6.5001 303.04,-10 313.04,-13.5001 313.04,-6.5001"/>
</g>
<!-- Node4 -->
<g id="node4" class="node"><title>Node4</title>
<g id="a_node4"><a xlink:href="../../d2/dc9/group__CIP__API.html#ga8fe857c3e88bf986fda82fbac6702c9f" target="_top" xlink:title="Initialize and setup the CIP&#45;stack. ">
<polygon fill="none" stroke="black" points="503,-0.5 503,-19.5 556,-19.5 556,-0.5 503,-0.5"/>
<text text-anchor="middle" x="529.5" y="-7.5" font-family="Helvetica,sans-Serif" font-size="10.00">CIP_Init</text>
</a>
</g>
</g>
<!-- Node3&#45;&gt;Node4 -->
<g id="edge3" class="edge"><title>Node3&#45;&gt;Node4</title>
<path fill="none" stroke="midnightblue" d="M477.345,-10C486.478,-10 495.282,-10 502.936,-10"/>
<polygon fill="midnightblue" stroke="midnightblue" points="477.344,-6.5001 467.344,-10 477.344,-13.5001 477.344,-6.5001"/>
</g>
<!-- Node5 -->
<g id="node5" class="node"><title>Node5</title>
<g id="a_node5"><a xlink:href="../../d0/d17/LM3S8962_2sample__application_2main_8c.html#a840291bc02cba5474a4cb46a9b9566fe" target="_top" xlink:title="main">
<polygon fill="none" stroke="black" points="592,-0.5 592,-19.5 630,-19.5 630,-0.5 592,-0.5"/>
<text text-anchor="middle" x="611" y="-7.5" font-family="Helvetica,sans-Serif" font-size="10.00">main</text>
</a>
</g>
</g>
<!-- Node4&#45;&gt;Node5 -->
<g id="edge4" class="edge"><title>Node4&#45;&gt;Node5</title>
<path fill="none" stroke="midnightblue" d="M566.231,-10C575.063,-10 584.162,-10 591.761,-10"/>
<polygon fill="midnightblue" stroke="midnightblue" points="566.092,-6.5001 556.092,-10 566.092,-13.5001 566.092,-6.5001"/>
</g>
</g>
</svg>
