<?xml version="1.0" encoding="UTF-8" standalone="no"?>
<!DOCTYPE svg PUBLIC "-//W3C//DTD SVG 1.1//EN"
 "http://www.w3.org/Graphics/SVG/1.1/DTD/svg11.dtd">
<!-- Generated by graphviz version 2.36.0 (20140111.2315)
 -->
<!-- Title: EstablishClass3Connection Pages: 1 -->
<!--zoomable 640 -->
<svg id="main" version="1.1" xmlns="http://www.w3.org/2000/svg" xmlns:xlink="http://www.w3.org/1999/xlink" xml:space="preserve" onload="init(evt)">
<style type="text/css"><![CDATA[
.edge:hover path { stroke: red; }
.edge:hover polygon { stroke: red; fill: red; }
]]></style>
<script type="text/javascript"><![CDATA[
var edges = document.getElementsByTagName('g');
if (edges && edges.length) {
  for (var i=0;i<edges.length;i++) {
    if (edges[i].id.substr(0,4)=='edge') {
      edges[i].setAttribute('class','edge');
    }
  }
}
]]></script>
        <defs>
                <circle id="rim" cx="0" cy="0" r="7"/>
                <circle id="rim2" cx="0" cy="0" r="3.5"/>
                <g id="zoomPlus">
                        <use xlink:href="#rim" fill="#404040">
                                <set attributeName="fill" to="#808080" begin="zoomplus.mouseover" end="zoomplus.mouseout"/>
                        </use>
                        <path d="M-4,0h8M0,-4v8" fill="none" stroke="white" stroke-width="1.5" pointer-events="none"/>
                </g>
                <g id="zoomMin">
                        <use xlink:href="#rim" fill="#404040">
                                <set attributeName="fill" to="#808080" begin="zoomminus.mouseover" end="zoomminus.mouseout"/>
                        </use>
                        <path d="M-4,0h8" fill="none" stroke="white" stroke-width="1.5" pointer-events="none"/>
                </g>
                <g id="dirArrow">
                        <path fill="none" stroke="white" stroke-width="1.5" d="M0,-3.0v7 M-2.5,-0.5L0,-3.0L2.5,-0.5"/>
                </g>
               <g id="resetDef">
                       <use xlink:href="#rim2" fill="#404040">
                               <set attributeName="fill" to="#808080" begin="reset.mouseover" end="reset.mouseout"/>
                       </use>
               </g>
        </defs>

<script type="text/javascript">
var viewWidth = 1014;
var viewHeight = 640;
var sectionId = 'dynsection-3';
</script>
<script xlink:href="../../svgpan.js"/>
<svg id="graph" class="graph">
<g id="viewport">
<title>EstablishClass3Connection</title>
<!-- Node1 -->
<g id="node1" class="node"><title>Node1</title>
<polygon fill="#bfbfbf" stroke="black" points="0.5,-254.5 0.5,-273.5 137.5,-273.5 137.5,-254.5 0.5,-254.5"/>
<text text-anchor="middle" x="69" y="-261.5" font-family="Helvetica,sans-Serif" font-size="10.00">EstablishClass3Connection</text>
</g>
<!-- Node2 -->
<g id="node2" class="node"><title>Node2</title>
<g id="a_node2"><a xlink:href="../../d5/d35/cipconnectionmanager_8c.html#aac2c0397cf54cb8356126c0d71d744ff" target="_top" xlink:title="Insert the given connection object to the list of currently active and managed connections. ">
<polygon fill="none" stroke="black" points="201.5,-574.5 201.5,-593.5 332.5,-593.5 332.5,-574.5 201.5,-574.5"/>
<text text-anchor="middle" x="267" y="-581.5" font-family="Helvetica,sans-Serif" font-size="10.00">AddNewActiveConnection</text>
</a>
</g>
</g>
<!-- Node1&#45;&gt;Node2 -->
<g id="edge1" class="edge"><title>Node1&#45;&gt;Node2</title>
<path fill="none" stroke="midnightblue" d="M74.1688,-273.607C87.1941,-303.252 128.957,-395.546 174,-466 198.194,-503.843 231.676,-544.398 250.862,-566.737"/>
<polygon fill="midnightblue" stroke="midnightblue" points="248.274,-569.095 257.466,-574.363 253.566,-564.512 248.274,-569.095"/>
</g>
<!-- Node6 -->
<g id="node6" class="node"><title>Node6</title>
<g id="a_node6"><a xlink:href="../../d5/d35/cipconnectionmanager_8c.html#a9367d6d6edfd5bd276ead18619f4d74e" target="_top" xlink:title="Close the given connection. ">
<polygon fill="none" stroke="black" points="221,-437.5 221,-456.5 313,-456.5 313,-437.5 221,-437.5"/>
<text text-anchor="middle" x="267" y="-444.5" font-family="Helvetica,sans-Serif" font-size="10.00">CloseConnection</text>
</a>
</g>
</g>
<!-- Node1&#45;&gt;Node6 -->
<g id="edge5" class="edge"><title>Node1&#45;&gt;Node6</title>
<path fill="none" stroke="midnightblue" d="M80.2618,-273.581C111.801,-303.029 207.61,-392.482 247.873,-430.075"/>
<polygon fill="midnightblue" stroke="midnightblue" points="245.666,-432.804 255.364,-437.07 250.444,-427.687 245.666,-432.804"/>
</g>
<!-- Node15 -->
<g id="node15" class="node"><title>Node15</title>
<g id="a_node15"><a xlink:href="../../df/d91/cipconnectionobject_8c.html#afaa08a457cbae921463403f0f00dd38e" target="_top" xlink:title="Copy the given connection data from source to destination. ">
<polygon fill="none" stroke="black" points="196.5,-273.5 196.5,-292.5 337.5,-292.5 337.5,-273.5 196.5,-273.5"/>
<text text-anchor="middle" x="267" y="-280.5" font-family="Helvetica,sans-Serif" font-size="10.00">ConnectionObjectDeepCopy</text>
</a>
</g>
</g>
<!-- Node1&#45;&gt;Node15 -->
<g id="edge15" class="edge"><title>Node1&#45;&gt;Node15</title>
<path fill="none" stroke="midnightblue" d="M137.727,-270.565C153.248,-272.07 169.893,-273.683 185.88,-275.233"/>
<polygon fill="midnightblue" stroke="midnightblue" points="185.982,-278.759 196.273,-276.241 186.657,-271.792 185.982,-278.759"/>
</g>
<!-- Node16 -->
<g id="node16" class="node"><title>Node16</title>
<g id="a_node16"><a xlink:href="../../df/d91/cipconnectionobject_8c.html#a65b85bb4b72c902af06e054e24d6292c" target="_top" xlink:title="Generate the ConnectionIDs and set the general configuration parameter in the given connection object...">
<polygon fill="none" stroke="black" points="174,-235.5 174,-254.5 360,-254.5 360,-235.5 174,-235.5"/>
<text text-anchor="middle" x="267" y="-242.5" font-family="Helvetica,sans-Serif" font-size="10.00">ConnectionObjectGeneralConfiguration</text>
</a>
</g>
</g>
<!-- Node1&#45;&gt;Node16 -->
<g id="edge16" class="edge"><title>Node1&#45;&gt;Node16</title>
<path fill="none" stroke="midnightblue" d="M137.727,-257.435C146.168,-256.616 154.942,-255.766 163.761,-254.911"/>
<polygon fill="midnightblue" stroke="midnightblue" points="164.107,-258.394 173.723,-253.945 163.432,-251.427 164.107,-258.394"/>
</g>
<!-- Node26 -->
<g id="node26" class="node"><title>Node26</title>
<g id="a_node26"><a xlink:href="../../df/d91/cipconnectionobject_8c.html#a49bbc4004eb23be25b6d3620ece5a7a7" target="_top" xlink:title="ConnectionObjectSetInstanceType">
<polygon fill="none" stroke="black" points="182.5,-197.5 182.5,-216.5 351.5,-216.5 351.5,-197.5 182.5,-197.5"/>
<text text-anchor="middle" x="267" y="-204.5" font-family="Helvetica,sans-Serif" font-size="10.00">ConnectionObjectSetInstanceType</text>
</a>
</g>
</g>
<!-- Node1&#45;&gt;Node26 -->
<g id="edge27" class="edge"><title>Node1&#45;&gt;Node26</title>
<path fill="none" stroke="midnightblue" d="M93.2204,-254.402C114.087,-246.045 145.71,-234.043 174,-226 183.413,-223.324 193.467,-220.859 203.345,-218.652"/>
<polygon fill="midnightblue" stroke="midnightblue" points="204.1,-222.07 213.134,-216.534 202.619,-215.228 204.1,-222.07"/>
</g>
<!-- Node27 -->
<g id="node27" class="node"><title>Node27</title>
<g id="a_node27"><a xlink:href="../../dc/d93/cipclass3connection_8c.html#a5557c2c7143958acb9d125e2e11296f3" target="_top" xlink:title="Searches and returns a free explicit connection slot. ">
<polygon fill="none" stroke="black" points="200,-80.5 200,-99.5 334,-99.5 334,-80.5 200,-80.5"/>
<text text-anchor="middle" x="267" y="-87.5" font-family="Helvetica,sans-Serif" font-size="10.00">GetFreeExplicitConnection</text>
</a>
</g>
</g>
<!-- Node1&#45;&gt;Node27 -->
<g id="edge28" class="edge"><title>Node1&#45;&gt;Node27</title>
<path fill="none" stroke="midnightblue" d="M80.817,-254.397C112.801,-226.003 207.197,-142.203 247.462,-106.457"/>
<polygon fill="midnightblue" stroke="midnightblue" points="249.82,-109.044 254.975,-99.7877 245.173,-103.809 249.82,-109.044"/>
</g>
<!-- Node3 -->
<g id="node3" class="node"><title>Node3</title>
<g id="a_node3"><a xlink:href="../../d9/ddc/doublylinkedlist_8c.html#abca57475d14f9dffff53bea22eaf7b2f" target="_top" xlink:title="DoublyLinkedListInsertAtHead">
<polygon fill="none" stroke="black" points="424.5,-612.5 424.5,-631.5 573.5,-631.5 573.5,-612.5 424.5,-612.5"/>
<text text-anchor="middle" x="499" y="-619.5" font-family="Helvetica,sans-Serif" font-size="10.00">DoublyLinkedListInsertAtHead</text>
</a>
</g>
</g>
<!-- Node2&#45;&gt;Node3 -->
<g id="edge2" class="edge"><title>Node2&#45;&gt;Node3</title>
<path fill="none" stroke="midnightblue" d="M325.742,-593.54C357.458,-598.78 396.974,-605.309 430.156,-610.791"/>
<polygon fill="midnightblue" stroke="midnightblue" points="429.798,-614.279 440.234,-612.456 430.939,-607.373 429.798,-614.279"/>
</g>
<!-- Node5 -->
<g id="node5" class="node"><title>Node5</title>
<g id="a_node5"><a xlink:href="../../df/d91/cipconnectionobject_8c.html#ace0a978d1b7fe59261b1024b5ba1cd15" target="_top" xlink:title="ConnectionObjectSetState">
<polygon fill="none" stroke="black" points="662.5,-527.5 662.5,-546.5 795.5,-546.5 795.5,-527.5 662.5,-527.5"/>
<text text-anchor="middle" x="729" y="-534.5" font-family="Helvetica,sans-Serif" font-size="10.00">ConnectionObjectSetState</text>
</a>
</g>
</g>
<!-- Node2&#45;&gt;Node5 -->
<g id="edge4" class="edge"><title>Node2&#45;&gt;Node5</title>
<path fill="none" stroke="midnightblue" d="M332.623,-583.023C400.11,-581.327 508.9,-576.688 602,-564 628.378,-560.405 657.459,-554.318 681.03,-548.833"/>
<polygon fill="midnightblue" stroke="midnightblue" points="681.845,-552.237 690.771,-546.528 680.233,-545.425 681.845,-552.237"/>
</g>
<!-- Node4 -->
<g id="node4" class="node"><title>Node4</title>
<g id="a_node4"><a xlink:href="../../d9/ddc/doublylinkedlist_8c.html#a973d3b25eae020e7b5e5927c8785106c" target="_top" xlink:title="DoublyLinkedListNodeCreate">
<polygon fill="none" stroke="black" points="657,-612.5 657,-631.5 801,-631.5 801,-612.5 657,-612.5"/>
<text text-anchor="middle" x="729" y="-619.5" font-family="Helvetica,sans-Serif" font-size="10.00">DoublyLinkedListNodeCreate</text>
</a>
</g>
</g>
<!-- Node3&#45;&gt;Node4 -->
<g id="edge3" class="edge"><title>Node3&#45;&gt;Node4</title>
<path fill="none" stroke="midnightblue" d="M573.71,-622C597.048,-622 622.97,-622 646.803,-622"/>
<polygon fill="midnightblue" stroke="midnightblue" points="646.875,-625.5 656.875,-622 646.875,-618.5 646.875,-625.5"/>
</g>
<!-- Node7 -->
<g id="node7" class="node"><title>Node7</title>
<g id="a_node7"><a xlink:href="../../df/d91/cipconnectionobject_8c.html#a0f3d8e6f21712dbef3fb2e1da42f35ba" target="_top" xlink:title="ConnectionObjectGetTransport\lClassTriggerTransportClass">
<polygon fill="none" stroke="black" points="423,-525 423,-555 575,-555 575,-525 423,-525"/>
<text text-anchor="start" x="431" y="-543" font-family="Helvetica,sans-Serif" font-size="10.00">ConnectionObjectGetTransport</text>
<text text-anchor="middle" x="499" y="-532" font-family="Helvetica,sans-Serif" font-size="10.00">ClassTriggerTransportClass</text>
</a>
</g>
</g>
<!-- Node6&#45;&gt;Node7 -->
<g id="edge6" class="edge"><title>Node6&#45;&gt;Node7</title>
<path fill="none" stroke="midnightblue" d="M283.176,-456.67C306.566,-471.196 353.209,-498.681 396,-515 402.734,-517.568 409.821,-519.94 416.991,-522.113"/>
<polygon fill="midnightblue" stroke="midnightblue" points="416.215,-525.532 426.794,-524.955 418.164,-518.809 416.215,-525.532"/>
</g>
<!-- Node8 -->
<g id="node8" class="node"><title>Node8</title>
<g id="a_node8"><a xlink:href="../../db/d4f/generic__networkhandler_8c.html#aab6e6c554aa10d27efe297ebef3ac1c9" target="_top" xlink:title="CloseUdpSocket">
<polygon fill="none" stroke="black" points="453.5,-437.5 453.5,-456.5 544.5,-456.5 544.5,-437.5 453.5,-437.5"/>
<text text-anchor="middle" x="499" y="-444.5" font-family="Helvetica,sans-Serif" font-size="10.00">CloseUdpSocket</text>
</a>
</g>
</g>
<!-- Node6&#45;&gt;Node8 -->
<g id="edge7" class="edge"><title>Node6&#45;&gt;Node8</title>
<path fill="none" stroke="midnightblue" d="M313.166,-447C350.474,-447 403.563,-447 443.28,-447"/>
<polygon fill="midnightblue" stroke="midnightblue" points="443.329,-450.5 453.329,-447 443.329,-443.5 443.329,-450.5"/>
</g>
<!-- Node11 -->
<g id="node11" class="node"><title>Node11</title>
<g id="a_node11"><a xlink:href="../../d5/d35/cipconnectionmanager_8c.html#a144782b4e2a5afc89ec32854511bbea7" target="_top" xlink:title="Removes connection from the list of active connections. ">
<polygon fill="none" stroke="black" points="420,-399.5 420,-418.5 578,-418.5 578,-399.5 420,-399.5"/>
<text text-anchor="middle" x="499" y="-406.5" font-family="Helvetica,sans-Serif" font-size="10.00">RemoveFromActiveConnections</text>
</a>
</g>
</g>
<!-- Node6&#45;&gt;Node11 -->
<g id="edge10" class="edge"><title>Node6&#45;&gt;Node11</title>
<path fill="none" stroke="midnightblue" d="M313.166,-439.538C346.552,-434.022 392.575,-426.418 430.344,-420.178"/>
<polygon fill="midnightblue" stroke="midnightblue" points="430.961,-423.623 440.257,-418.54 429.82,-416.717 430.961,-423.623"/>
</g>
<!-- Node14 -->
<g id="node14" class="node"><title>Node14</title>
<g id="a_node14"><a xlink:href="../../df/d91/cipconnectionobject_8c.html#a8f507fa4e57499d8b96c8adb2ad8a549" target="_top" xlink:title="ConnectionObjectInitialize\lEmpty">
<polygon fill="none" stroke="black" points="433.5,-476 433.5,-506 564.5,-506 564.5,-476 433.5,-476"/>
<text text-anchor="start" x="441.5" y="-494" font-family="Helvetica,sans-Serif" font-size="10.00">ConnectionObjectInitialize</text>
<text text-anchor="middle" x="499" y="-483" font-family="Helvetica,sans-Serif" font-size="10.00">Empty</text>
</a>
</g>
</g>
<!-- Node6&#45;&gt;Node14 -->
<g id="edge13" class="edge"><title>Node6&#45;&gt;Node14</title>
<path fill="none" stroke="midnightblue" d="M313.166,-455.64C344.497,-461.634 386.956,-469.757 423.28,-476.706"/>
<polygon fill="midnightblue" stroke="midnightblue" points="422.868,-480.19 433.348,-478.632 424.183,-473.315 422.868,-480.19"/>
</g>
<!-- Node9 -->
<g id="node9" class="node"><title>Node9</title>
<g id="a_node9"><a xlink:href="../../d5/dc5/group__CIP__CALLBACK__API.html#gaf4d26c1bca26c2e6e73481d57762df36" target="_top" xlink:title="Close the given socket and clean up the stack. ">
<polygon fill="none" stroke="black" points="692.5,-437.5 692.5,-456.5 765.5,-456.5 765.5,-437.5 692.5,-437.5"/>
<text text-anchor="middle" x="729" y="-444.5" font-family="Helvetica,sans-Serif" font-size="10.00">CloseSocket</text>
</a>
</g>
</g>
<!-- Node8&#45;&gt;Node9 -->
<g id="edge8" class="edge"><title>Node8&#45;&gt;Node9</title>
<path fill="none" stroke="midnightblue" d="M544.502,-447C584.201,-447 642.083,-447 682.178,-447"/>
<polygon fill="midnightblue" stroke="midnightblue" points="682.221,-450.5 692.221,-447 682.221,-443.5 682.221,-450.5"/>
</g>
<!-- Node10 -->
<g id="node10" class="node"><title>Node10</title>
<g id="a_node10"><a xlink:href="../../d2/d5e/POSIX_2networkhandler_8c.html#a2812ba0ecd1fd9a5549fbca397d76e3e" target="_top" xlink:title="Platform dependent code to close a socket. ">
<polygon fill="none" stroke="black" points="876,-437.5 876,-456.5 986,-456.5 986,-437.5 876,-437.5"/>
<text text-anchor="middle" x="931" y="-444.5" font-family="Helvetica,sans-Serif" font-size="10.00">CloseSocketPlatform</text>
</a>
</g>
</g>
<!-- Node9&#45;&gt;Node10 -->
<g id="edge9" class="edge"><title>Node9&#45;&gt;Node10</title>
<path fill="none" stroke="midnightblue" d="M765.756,-447C793.452,-447 832.55,-447 865.651,-447"/>
<polygon fill="midnightblue" stroke="midnightblue" points="865.712,-450.5 875.712,-447 865.712,-443.5 865.712,-450.5"/>
</g>
<!-- Node12 -->
<g id="node12" class="node"><title>Node12</title>
<g id="a_node12"><a xlink:href="../../d9/ddc/doublylinkedlist_8c.html#a341e2f6faf7227650ed6e38e90cd047e" target="_top" xlink:title="DoublyLinkedListRemoveNode">
<polygon fill="none" stroke="black" points="653,-399.5 653,-418.5 805,-418.5 805,-399.5 653,-399.5"/>
<text text-anchor="middle" x="729" y="-406.5" font-family="Helvetica,sans-Serif" font-size="10.00">DoublyLinkedListRemoveNode</text>
</a>
</g>
</g>
<!-- Node11&#45;&gt;Node12 -->
<g id="edge11" class="edge"><title>Node11&#45;&gt;Node12</title>
<path fill="none" stroke="midnightblue" d="M578.146,-409C598.862,-409 621.337,-409 642.425,-409"/>
<polygon fill="midnightblue" stroke="midnightblue" points="642.653,-412.5 652.652,-409 642.652,-405.5 642.653,-412.5"/>
</g>
<!-- Node13 -->
<g id="node13" class="node"><title>Node13</title>
<g id="a_node13"><a xlink:href="../../d9/ddc/doublylinkedlist_8c.html#a87710acb9f42fba14822fb824814105c" target="_top" xlink:title="DoublyLinkedListNodeDestroy">
<polygon fill="none" stroke="black" points="856.5,-399.5 856.5,-418.5 1005.5,-418.5 1005.5,-399.5 856.5,-399.5"/>
<text text-anchor="middle" x="931" y="-406.5" font-family="Helvetica,sans-Serif" font-size="10.00">DoublyLinkedListNodeDestroy</text>
</a>
</g>
</g>
<!-- Node12&#45;&gt;Node13 -->
<g id="edge12" class="edge"><title>Node12&#45;&gt;Node13</title>
<path fill="none" stroke="midnightblue" d="M805.042,-409C818.379,-409 832.349,-409 845.918,-409"/>
<polygon fill="midnightblue" stroke="midnightblue" points="846.199,-412.5 856.199,-409 846.199,-405.5 846.199,-412.5"/>
</g>
<!-- Node14&#45;&gt;Node5 -->
<g id="edge14" class="edge"><title>Node14&#45;&gt;Node5</title>
<path fill="none" stroke="midnightblue" d="M564.726,-504.059C598.108,-510.794 638.47,-518.937 670.711,-525.442"/>
<polygon fill="midnightblue" stroke="midnightblue" points="670.38,-528.945 680.875,-527.492 671.765,-522.084 670.38,-528.945"/>
</g>
<!-- Node17 -->
<g id="node17" class="node"><title>Node17</title>
<g id="a_node17"><a xlink:href="../../df/d91/cipconnectionobject_8c.html#aa896ebb7d03c6e75027402b3e0d6dc6e" target="_top" xlink:title="ConnectionObjectGetOToTConnectionType">
<polygon fill="none" stroke="black" points="396,-361.5 396,-380.5 602,-380.5 602,-361.5 396,-361.5"/>
<text text-anchor="middle" x="499" y="-368.5" font-family="Helvetica,sans-Serif" font-size="10.00">ConnectionObjectGetOToTConnectionType</text>
</a>
</g>
</g>
<!-- Node16&#45;&gt;Node17 -->
<g id="edge17" class="edge"><title>Node16&#45;&gt;Node17</title>
<path fill="none" stroke="midnightblue" d="M345.03,-254.688C350.405,-257.193 355.476,-260.258 360,-264 392.246,-290.671 363.621,-324.491 396,-351 398.583,-353.115 401.326,-355.028 404.191,-356.759"/>
<polygon fill="midnightblue" stroke="midnightblue" points="402.634,-359.894 413.119,-361.419 405.873,-353.689 402.634,-359.894"/>
</g>
<!-- Node19 -->
<g id="node19" class="node"><title>Node19</title>
<g id="a_node19"><a xlink:href="../../df/d91/cipconnectionobject_8c.html#ac3ccaa3dc2b635564c622af574f70dc4" target="_top" xlink:title="ConnectionObjectSetCipConsumed\lConnectionID">
<polygon fill="none" stroke="black" points="413,-312 413,-342 585,-342 585,-312 413,-312"/>
<text text-anchor="start" x="421" y="-330" font-family="Helvetica,sans-Serif" font-size="10.00">ConnectionObjectSetCipConsumed</text>
<text text-anchor="middle" x="499" y="-319" font-family="Helvetica,sans-Serif" font-size="10.00">ConnectionID</text>
</a>
</g>
</g>
<!-- Node16&#45;&gt;Node19 -->
<g id="edge19" class="edge"><title>Node16&#45;&gt;Node19</title>
<path fill="none" stroke="midnightblue" d="M337.483,-254.553C345.338,-257.017 353.018,-260.112 360,-264 380.326,-275.317 375.885,-290.312 396,-302 399.873,-304.251 403.943,-306.3 408.135,-308.165"/>
<polygon fill="midnightblue" stroke="midnightblue" points="406.898,-311.44 417.48,-311.962 409.533,-304.955 406.898,-311.44"/>
</g>
<!-- Node20 -->
<g id="node20" class="node"><title>Node20</title>
<g id="a_node20"><a xlink:href="../../d5/d35/cipconnectionmanager_8c.html#ad93407280191a97626d71b0347724eda" target="_top" xlink:title="Generate a new connection Id utilizing the Incarnation Id as described in the EIP specs...">
<polygon fill="none" stroke="black" points="454,-273.5 454,-292.5 544,-292.5 544,-273.5 454,-273.5"/>
<text text-anchor="middle" x="499" y="-280.5" font-family="Helvetica,sans-Serif" font-size="10.00">GetConnectionId</text>
</a>
</g>
</g>
<!-- Node16&#45;&gt;Node20 -->
<g id="edge20" class="edge"><title>Node16&#45;&gt;Node20</title>
<path fill="none" stroke="midnightblue" d="M325.742,-254.54C361.833,-260.503 408.026,-268.135 443.49,-273.994"/>
<polygon fill="midnightblue" stroke="midnightblue" points="443.222,-277.497 453.659,-275.674 444.363,-270.591 443.222,-277.497"/>
</g>
<!-- Node21 -->
<g id="node21" class="node"><title>Node21</title>
<g id="a_node21"><a xlink:href="../../df/d91/cipconnectionobject_8c.html#ad61ad2b2c18480a141e5df346e32be02" target="_top" xlink:title="ConnectionObjectGetTToOConnectionType">
<polygon fill="none" stroke="black" points="396,-235.5 396,-254.5 602,-254.5 602,-235.5 396,-235.5"/>
<text text-anchor="middle" x="499" y="-242.5" font-family="Helvetica,sans-Serif" font-size="10.00">ConnectionObjectGetTToOConnectionType</text>
</a>
</g>
</g>
<!-- Node16&#45;&gt;Node21 -->
<g id="edge21" class="edge"><title>Node16&#45;&gt;Node21</title>
<path fill="none" stroke="midnightblue" d="M360.225,-245C368.668,-245 377.283,-245 385.876,-245"/>
<polygon fill="midnightblue" stroke="midnightblue" points="385.942,-248.5 395.942,-245 385.941,-241.5 385.942,-248.5"/>
</g>
<!-- Node22 -->
<g id="node22" class="node"><title>Node22</title>
<g id="a_node22"><a xlink:href="../../df/d91/cipconnectionobject_8c.html#af7cb76f073d6f32b45e37c06109770b7" target="_top" xlink:title="ConnectionObjectSetCipProduced\lConnectionID">
<polygon fill="none" stroke="black" points="416,-186 416,-216 582,-216 582,-186 416,-186"/>
<text text-anchor="start" x="424" y="-204" font-family="Helvetica,sans-Serif" font-size="10.00">ConnectionObjectSetCipProduced</text>
<text text-anchor="middle" x="499" y="-193" font-family="Helvetica,sans-Serif" font-size="10.00">ConnectionID</text>
</a>
</g>
</g>
<!-- Node16&#45;&gt;Node22 -->
<g id="edge23" class="edge"><title>Node16&#45;&gt;Node22</title>
<path fill="none" stroke="midnightblue" d="M317.907,-235.453C344.611,-230.344 378.298,-223.899 409.293,-217.97"/>
<polygon fill="midnightblue" stroke="midnightblue" points="410.085,-221.382 419.249,-216.065 408.77,-214.507 410.085,-221.382"/>
</g>
<!-- Node23 -->
<g id="node23" class="node"><title>Node23</title>
<g id="a_node23"><a xlink:href="../../df/d91/cipconnectionobject_8c.html#af58aabbdd4f37e3e5601a52f0a698936" target="_top" xlink:title="ConnectionObjectResetSequence\lCounts">
<polygon fill="none" stroke="black" points="417,-137 417,-167 581,-167 581,-137 417,-137"/>
<text text-anchor="start" x="425" y="-155" font-family="Helvetica,sans-Serif" font-size="10.00">ConnectionObjectResetSequence</text>
<text text-anchor="middle" x="499" y="-144" font-family="Helvetica,sans-Serif" font-size="10.00">Counts</text>
</a>
</g>
</g>
<!-- Node16&#45;&gt;Node23 -->
<g id="edge24" class="edge"><title>Node16&#45;&gt;Node23</title>
<path fill="none" stroke="midnightblue" d="M340.864,-235.352C347.612,-232.885 354.116,-229.815 360,-226 382.976,-211.103 373.23,-191.211 396,-176 399.717,-173.517 403.66,-171.29 407.751,-169.292"/>
<polygon fill="midnightblue" stroke="midnightblue" points="409.162,-172.495 416.915,-165.274 406.351,-166.084 409.162,-172.495"/>
</g>
<!-- Node24 -->
<g id="node24" class="node"><title>Node24</title>
<g id="a_node24"><a xlink:href="../../df/d91/cipconnectionobject_8c.html#a9bf4e569cc43263943c0c8c8b138f5c4" target="_top" xlink:title="ConnectionObjectSetWatchdog\lTimeoutAction">
<polygon fill="none" stroke="black" points="422,-88 422,-118 576,-118 576,-88 422,-88"/>
<text text-anchor="start" x="430" y="-106" font-family="Helvetica,sans-Serif" font-size="10.00">ConnectionObjectSetWatchdog</text>
<text text-anchor="middle" x="499" y="-95" font-family="Helvetica,sans-Serif" font-size="10.00">TimeoutAction</text>
</a>
</g>
</g>
<!-- Node16&#45;&gt;Node24 -->
<g id="edge25" class="edge"><title>Node16&#45;&gt;Node24</title>
<path fill="none" stroke="midnightblue" d="M345.656,-235.315C350.824,-232.801 355.682,-229.733 360,-226 395.419,-195.381 361.005,-158.102 396,-127 400.908,-122.638 406.46,-119.029 412.376,-116.047"/>
<polygon fill="midnightblue" stroke="midnightblue" points="414.178,-119.079 421.933,-111.86 411.369,-112.668 414.178,-119.079"/>
</g>
<!-- Node25 -->
<g id="node25" class="node"><title>Node25</title>
<g id="a_node25"><a xlink:href="../../df/d91/cipconnectionobject_8c.html#a6636b4aeeb4208417d057d48ed87a490" target="_top" xlink:title="ConnectionObjectResetProduction\lInhibitTimer">
<polygon fill="none" stroke="black" points="415.5,-39 415.5,-69 582.5,-69 582.5,-39 415.5,-39"/>
<text text-anchor="start" x="423.5" y="-57" font-family="Helvetica,sans-Serif" font-size="10.00">ConnectionObjectResetProduction</text>
<text text-anchor="middle" x="499" y="-46" font-family="Helvetica,sans-Serif" font-size="10.00">InhibitTimer</text>
</a>
</g>
</g>
<!-- Node16&#45;&gt;Node25 -->
<g id="edge26" class="edge"><title>Node16&#45;&gt;Node25</title>
<path fill="none" stroke="midnightblue" d="M346.994,-235.376C351.726,-232.829 356.128,-229.739 360,-226 408.697,-178.976 347.952,-125.688 396,-78 399.123,-74.9003 402.567,-72.1721 406.242,-69.7729"/>
<polygon fill="midnightblue" stroke="midnightblue" points="408.187,-72.6952 415.197,-64.7517 404.763,-66.5895 408.187,-72.6952"/>
</g>
<!-- Node18 -->
<g id="node18" class="node"><title>Node18</title>
<g id="a_node18"><a xlink:href="../../df/d91/cipconnectionobject_8c.html#a0da85deed56477da3ec500cec51aa46e" target="_top" xlink:title="ConnectionObjectGetConnectionType">
<polygon fill="none" stroke="black" points="638,-298.5 638,-317.5 820,-317.5 820,-298.5 638,-298.5"/>
<text text-anchor="middle" x="729" y="-305.5" font-family="Helvetica,sans-Serif" font-size="10.00">ConnectionObjectGetConnectionType</text>
</a>
</g>
</g>
<!-- Node17&#45;&gt;Node18 -->
<g id="edge18" class="edge"><title>Node17&#45;&gt;Node18</title>
<path fill="none" stroke="midnightblue" d="M555.898,-361.454C570.959,-358.498 587.182,-354.962 602,-351 633.54,-342.567 668.634,-330.35 693.759,-321.091"/>
<polygon fill="midnightblue" stroke="midnightblue" points="695.054,-324.343 703.205,-317.576 692.612,-317.783 695.054,-324.343"/>
</g>
<!-- Node21&#45;&gt;Node18 -->
<g id="edge22" class="edge"><title>Node21&#45;&gt;Node18</title>
<path fill="none" stroke="midnightblue" d="M559.67,-254.543C573.649,-257.212 588.422,-260.387 602,-264 634.023,-272.521 669.59,-285.254 694.748,-294.833"/>
<polygon fill="midnightblue" stroke="midnightblue" points="693.593,-298.139 704.183,-298.464 696.107,-291.606 693.593,-298.139"/>
</g>
<!-- Node28 -->
<g id="node28" class="node"><title>Node28</title>
<g id="a_node28"><a xlink:href="../../df/d91/cipconnectionobject_8c.html#a9c381240583828bec2cda2d54dc94d3b" target="_top" xlink:title="ConnectionObjectGetState">
<polygon fill="none" stroke="black" points="432,-0.5 432,-19.5 566,-19.5 566,-0.5 432,-0.5"/>
<text text-anchor="middle" x="499" y="-7.5" font-family="Helvetica,sans-Serif" font-size="10.00">ConnectionObjectGetState</text>
</a>
</g>
</g>
<!-- Node27&#45;&gt;Node28 -->
<g id="edge29" class="edge"><title>Node27&#45;&gt;Node28</title>
<path fill="none" stroke="midnightblue" d="M284.401,-80.4628C308.212,-67.0216 354.097,-42.6284 396,-29 404.617,-26.1974 413.786,-23.7627 422.958,-21.6593"/>
<polygon fill="midnightblue" stroke="midnightblue" points="423.854,-25.0463 432.884,-19.5053 422.37,-18.2055 423.854,-25.0463"/>
</g>
</g>
</svg>
        <g id="navigator" transform="translate(0 0)" fill="#404254">
                <rect fill="#f2f5e9" fill-opacity="0.5" stroke="#606060" stroke-width=".5" x="0" y="0" width="60" height="60"/>
                <use id="zoomplus" xlink:href="#zoomPlus" x="17" y="9" onmousedown="handleZoom(evt,'in')"/>
                <use id="zoomminus" xlink:href="#zoomMin" x="42" y="9" onmousedown="handleZoom(evt,'out')"/>
                <use id="reset" xlink:href="#resetDef" x="30" y="36" onmousedown="handleReset()"/>
                <g id="arrowUp" xlink:href="#dirArrow" transform="translate(30 24)" onmousedown="handlePan(0,-1)">
                  <use xlink:href="#rim" fill="#404040">
                        <set attributeName="fill" to="#808080" begin="arrowUp.mouseover" end="arrowUp.mouseout"/>
                  </use>
                  <path fill="none" stroke="white" stroke-width="1.5" d="M0,-3.0v7 M-2.5,-0.5L0,-3.0L2.5,-0.5"/>
                </g>
                <g id="arrowRight" xlink:href="#dirArrow" transform="rotate(90) translate(36 -43)" onmousedown="handlePan(1,0)">
                  <use xlink:href="#rim" fill="#404040">
                        <set attributeName="fill" to="#808080" begin="arrowRight.mouseover" end="arrowRight.mouseout"/>
                  </use>
                  <path fill="none" stroke="white" stroke-width="1.5" d="M0,-3.0v7 M-2.5,-0.5L0,-3.0L2.5,-0.5"/>
                </g>
                <g id="arrowDown" xlink:href="#dirArrow" transform="rotate(180) translate(-30 -48)" onmousedown="handlePan(0,1)">
                  <use xlink:href="#rim" fill="#404040">
                        <set attributeName="fill" to="#808080" begin="arrowDown.mouseover" end="arrowDown.mouseout"/>
                  </use>
                  <path fill="none" stroke="white" stroke-width="1.5" d="M0,-3.0v7 M-2.5,-0.5L0,-3.0L2.5,-0.5"/>
                </g>
                <g id="arrowLeft" xlink:href="#dirArrow" transform="rotate(270) translate(-36 17)" onmousedown="handlePan(-1,0)">
                  <use xlink:href="#rim" fill="#404040">
                        <set attributeName="fill" to="#808080" begin="arrowLeft.mouseover" end="arrowLeft.mouseout"/>
                  </use>
                  <path fill="none" stroke="white" stroke-width="1.5" d="M0,-3.0v7 M-2.5,-0.5L0,-3.0L2.5,-0.5"/>
                </g>
        </g>
        <svg viewBox="0 0 15 15" width="100%" height="30px" preserveAspectRatio="xMaxYMin meet">
         <g id="arrow_out" transform="scale(0.3 0.3)">
          <a xlink:href="cipclass3connection_8c_a45bd741b44137164c07a6ce09a7a9a9d_cgraph_org.svg" target="_base">
           <rect id="button" ry="5" rx="5" y="6" x="6" height="38" width="38"
                fill="#f2f5e9" fill-opacity="0.5" stroke="#606060" stroke-width="1.0"/>
           <path id="arrow"
             d="M 11.500037,31.436501 C 11.940474,20.09759 22.043105,11.32322 32.158766,21.979434 L 37.068811,17.246167 C 37.068811,17.246167 37.088388,32 37.088388,32 L 22.160133,31.978069 C 22.160133,31.978069 26.997745,27.140456 26.997745,27.140456 C 18.528582,18.264221 13.291696,25.230495 11.500037,31.436501 z"
             style="fill:#404040;"/>
          </a>
         </g>
        </svg>
</svg>
