<?xml version="1.0" encoding="UTF-8" standalone="no"?>
<!DOCTYPE svg PUBLIC "-//W3C//DTD SVG 1.1//EN"
 "http://www.w3.org/Graphics/SVG/1.1/DTD/svg11.dtd">
<!-- Generated by graphviz version 2.36.0 (20140111.2315)
 -->
<!-- Title: Class3ConnectionTimeoutHandler Pages: 1 -->
<svg width="940pt" height="313pt"
 viewBox="0.00 0.00 940.00 313.00" xmlns="http://www.w3.org/2000/svg" xmlns:xlink="http://www.w3.org/1999/xlink">
<g id="graph0" class="graph" transform="scale(1 1) rotate(0) translate(4 309)">
<title>Class3ConnectionTimeoutHandler</title>
<!-- Node1 -->
<g id="node1" class="node"><title>Node1</title>
<polygon fill="#bfbfbf" stroke="black" points="0,-143.5 0,-162.5 166,-162.5 166,-143.5 0,-143.5"/>
<text text-anchor="middle" x="83" y="-150.5" font-family="Helvetica,sans-Serif" font-size="10.00">Class3ConnectionTimeoutHandler</text>
</g>
<!-- Node2 -->
<g id="node2" class="node"><title>Node2</title>
<g id="a_node2"><a xlink:href="../../d5/d35/cipconnectionmanager_8c.html#ac36c68122b200d1bc99fbe9fb35a3440" target="_top" xlink:title="CheckForTimedOutConnections\lAndCloseTCPConnections">
<polygon fill="none" stroke="black" points="202.5,-242 202.5,-272 359.5,-272 359.5,-242 202.5,-242"/>
<text text-anchor="start" x="210.5" y="-260" font-family="Helvetica,sans-Serif" font-size="10.00">CheckForTimedOutConnections</text>
<text text-anchor="middle" x="281" y="-249" font-family="Helvetica,sans-Serif" font-size="10.00">AndCloseTCPConnections</text>
</a>
</g>
</g>
<!-- Node1&#45;&gt;Node2 -->
<g id="edge1" class="edge"><title>Node1&#45;&gt;Node2</title>
<path fill="none" stroke="midnightblue" d="M102.088,-162.598C133.961,-179.51 200.728,-214.937 242.794,-237.258"/>
<polygon fill="midnightblue" stroke="midnightblue" points="241.157,-240.351 251.631,-241.947 244.438,-234.168 241.157,-240.351"/>
</g>
<!-- Node5 -->
<g id="node5" class="node"><title>Node5</title>
<g id="a_node5"><a xlink:href="../../d5/d35/cipconnectionmanager_8c.html#a9367d6d6edfd5bd276ead18619f4d74e" target="_top" xlink:title="Close the given connection. ">
<polygon fill="none" stroke="black" points="235,-143.5 235,-162.5 327,-162.5 327,-143.5 235,-143.5"/>
<text text-anchor="middle" x="281" y="-150.5" font-family="Helvetica,sans-Serif" font-size="10.00">CloseConnection</text>
</a>
</g>
</g>
<!-- Node1&#45;&gt;Node5 -->
<g id="edge4" class="edge"><title>Node1&#45;&gt;Node5</title>
<path fill="none" stroke="midnightblue" d="M166.27,-153C185.978,-153 206.557,-153 224.707,-153"/>
<polygon fill="midnightblue" stroke="midnightblue" points="224.803,-156.5 234.803,-153 224.803,-149.5 224.803,-156.5"/>
</g>
<!-- Node15 -->
<g id="node15" class="node"><title>Node15</title>
<g id="a_node15"><a xlink:href="../../d2/dbd/encap_8c.html#ad083888333d3ceec1576126a88eeaca7" target="_top" xlink:title="CloseSessionBySessionHandle">
<polygon fill="none" stroke="black" points="203.5,-80.5 203.5,-99.5 358.5,-99.5 358.5,-80.5 203.5,-80.5"/>
<text text-anchor="middle" x="281" y="-87.5" font-family="Helvetica,sans-Serif" font-size="10.00">CloseSessionBySessionHandle</text>
</a>
</g>
</g>
<!-- Node1&#45;&gt;Node15 -->
<g id="edge14" class="edge"><title>Node1&#45;&gt;Node15</title>
<path fill="none" stroke="midnightblue" d="M113.768,-143.432C147.684,-132.53 203.244,-114.672 240.695,-102.634"/>
<polygon fill="midnightblue" stroke="midnightblue" points="241.824,-105.947 250.273,-99.555 239.682,-99.283 241.824,-105.947"/>
</g>
<!-- Node3 -->
<g id="node3" class="node"><title>Node3</title>
<g id="a_node3"><a xlink:href="../../df/d91/cipconnectionobject_8c.html#a308afe67f0cfd50cc772ad276257d6f2" target="_top" xlink:title="ConnectionObjectEqualOriginator">
<polygon fill="none" stroke="black" points="396.5,-247.5 396.5,-266.5 557.5,-266.5 557.5,-247.5 396.5,-247.5"/>
<text text-anchor="middle" x="477" y="-254.5" font-family="Helvetica,sans-Serif" font-size="10.00">ConnectionObjectEqualOriginator</text>
</a>
</g>
</g>
<!-- Node2&#45;&gt;Node3 -->
<g id="edge2" class="edge"><title>Node2&#45;&gt;Node3</title>
<path fill="none" stroke="midnightblue" d="M359.51,-257C368.329,-257 377.371,-257 386.33,-257"/>
<polygon fill="midnightblue" stroke="midnightblue" points="386.392,-260.5 396.392,-257 386.392,-253.5 386.392,-260.5"/>
</g>
<!-- Node4 -->
<g id="node4" class="node"><title>Node4</title>
<g id="a_node4"><a xlink:href="../../df/d91/cipconnectionobject_8c.html#a9c381240583828bec2cda2d54dc94d3b" target="_top" xlink:title="ConnectionObjectGetState">
<polygon fill="none" stroke="black" points="410,-285.5 410,-304.5 544,-304.5 544,-285.5 410,-285.5"/>
<text text-anchor="middle" x="477" y="-292.5" font-family="Helvetica,sans-Serif" font-size="10.00">ConnectionObjectGetState</text>
</a>
</g>
</g>
<!-- Node2&#45;&gt;Node4 -->
<g id="edge3" class="edge"><title>Node2&#45;&gt;Node4</title>
<path fill="none" stroke="midnightblue" d="M358.674,-272.019C378.244,-275.852 398.97,-279.912 417.469,-283.535"/>
<polygon fill="midnightblue" stroke="midnightblue" points="417.009,-287.011 427.495,-285.499 418.355,-280.142 417.009,-287.011"/>
</g>
<!-- Node6 -->
<g id="node6" class="node"><title>Node6</title>
<g id="a_node6"><a xlink:href="../../df/d91/cipconnectionobject_8c.html#a0f3d8e6f21712dbef3fb2e1da42f35ba" target="_top" xlink:title="ConnectionObjectGetTransport\lClassTriggerTransportClass">
<polygon fill="none" stroke="black" points="401,-72 401,-102 553,-102 553,-72 401,-72"/>
<text text-anchor="start" x="409" y="-90" font-family="Helvetica,sans-Serif" font-size="10.00">ConnectionObjectGetTransport</text>
<text text-anchor="middle" x="477" y="-79" font-family="Helvetica,sans-Serif" font-size="10.00">ClassTriggerTransportClass</text>
</a>
</g>
</g>
<!-- Node5&#45;&gt;Node6 -->
<g id="edge5" class="edge"><title>Node5&#45;&gt;Node6</title>
<path fill="none" stroke="midnightblue" d="M307.699,-143.406C330.733,-134.89 365.495,-122.247 396,-112 402.828,-109.706 410.006,-107.365 417.145,-105.08"/>
<polygon fill="midnightblue" stroke="midnightblue" points="418.345,-108.372 426.817,-102.009 416.226,-101.7 418.345,-108.372"/>
</g>
<!-- Node7 -->
<g id="node7" class="node"><title>Node7</title>
<g id="a_node7"><a xlink:href="../../db/d4f/generic__networkhandler_8c.html#aab6e6c554aa10d27efe297ebef3ac1c9" target="_top" xlink:title="CloseUdpSocket">
<polygon fill="none" stroke="black" points="431.5,-121.5 431.5,-140.5 522.5,-140.5 522.5,-121.5 431.5,-121.5"/>
<text text-anchor="middle" x="477" y="-128.5" font-family="Helvetica,sans-Serif" font-size="10.00">CloseUdpSocket</text>
</a>
</g>
</g>
<!-- Node5&#45;&gt;Node7 -->
<g id="edge6" class="edge"><title>Node5&#45;&gt;Node7</title>
<path fill="none" stroke="midnightblue" d="M327.484,-147.842C355.535,-144.661 391.683,-140.562 421.293,-137.204"/>
<polygon fill="midnightblue" stroke="midnightblue" points="421.928,-140.654 431.47,-136.05 421.139,-133.699 421.928,-140.654"/>
</g>
<!-- Node10 -->
<g id="node10" class="node"><title>Node10</title>
<g id="a_node10"><a xlink:href="../../d5/d35/cipconnectionmanager_8c.html#a144782b4e2a5afc89ec32854511bbea7" target="_top" xlink:title="Removes connection from the list of active connections. ">
<polygon fill="none" stroke="black" points="398,-209.5 398,-228.5 556,-228.5 556,-209.5 398,-209.5"/>
<text text-anchor="middle" x="477" y="-216.5" font-family="Helvetica,sans-Serif" font-size="10.00">RemoveFromActiveConnections</text>
</a>
</g>
</g>
<!-- Node5&#45;&gt;Node10 -->
<g id="edge9" class="edge"><title>Node5&#45;&gt;Node10</title>
<path fill="none" stroke="midnightblue" d="M303.105,-162.544C325.746,-172.538 362.916,-188.247 396,-199 404.799,-201.86 414.253,-204.55 423.472,-206.975"/>
<polygon fill="midnightblue" stroke="midnightblue" points="422.785,-210.412 433.34,-209.496 424.518,-203.629 422.785,-210.412"/>
</g>
<!-- Node13 -->
<g id="node13" class="node"><title>Node13</title>
<g id="a_node13"><a xlink:href="../../df/d91/cipconnectionobject_8c.html#a8f507fa4e57499d8b96c8adb2ad8a549" target="_top" xlink:title="ConnectionObjectInitialize\lEmpty">
<polygon fill="none" stroke="black" points="411.5,-160 411.5,-190 542.5,-190 542.5,-160 411.5,-160"/>
<text text-anchor="start" x="419.5" y="-178" font-family="Helvetica,sans-Serif" font-size="10.00">ConnectionObjectInitialize</text>
<text text-anchor="middle" x="477" y="-167" font-family="Helvetica,sans-Serif" font-size="10.00">Empty</text>
</a>
</g>
</g>
<!-- Node5&#45;&gt;Node13 -->
<g id="edge12" class="edge"><title>Node5&#45;&gt;Node13</title>
<path fill="none" stroke="midnightblue" d="M327.484,-158.158C349.435,-160.647 376.343,-163.699 401.197,-166.517"/>
<polygon fill="midnightblue" stroke="midnightblue" points="401.004,-170.018 411.334,-167.667 401.793,-163.062 401.004,-170.018"/>
</g>
<!-- Node8 -->
<g id="node8" class="node"><title>Node8</title>
<g id="a_node8"><a xlink:href="../../d5/dc5/group__CIP__CALLBACK__API.html#gae04e2a3e9937e910cbcdbff0b8d6ad2b" target="_top" xlink:title="Close the given socket and clean up the stack. ">
<polygon fill="none" stroke="black" points="633.5,-110.5 633.5,-129.5 706.5,-129.5 706.5,-110.5 633.5,-110.5"/>
<text text-anchor="middle" x="670" y="-117.5" font-family="Helvetica,sans-Serif" font-size="10.00">CloseSocket</text>
</a>
</g>
</g>
<!-- Node7&#45;&gt;Node8 -->
<g id="edge7" class="edge"><title>Node7&#45;&gt;Node8</title>
<path fill="none" stroke="midnightblue" d="M522.781,-128.421C552.962,-126.683 592.665,-124.396 623.082,-122.645"/>
<polygon fill="midnightblue" stroke="midnightblue" points="623.64,-126.118 633.422,-122.049 623.238,-119.13 623.64,-126.118"/>
</g>
<!-- Node9 -->
<g id="node9" class="node"><title>Node9</title>
<g id="a_node9"><a xlink:href="../../d3/de3/MINGW_2networkhandler_8c.html#a2812ba0ecd1fd9a5549fbca397d76e3e" target="_top" xlink:title="Platform dependent code to close a socket. ">
<polygon fill="none" stroke="black" points="802,-110.5 802,-129.5 912,-129.5 912,-110.5 802,-110.5"/>
<text text-anchor="middle" x="857" y="-117.5" font-family="Helvetica,sans-Serif" font-size="10.00">CloseSocketPlatform</text>
</a>
</g>
</g>
<!-- Node8&#45;&gt;Node9 -->
<g id="edge8" class="edge"><title>Node8&#45;&gt;Node9</title>
<path fill="none" stroke="midnightblue" d="M706.67,-120C730.703,-120 763.092,-120 791.564,-120"/>
<polygon fill="midnightblue" stroke="midnightblue" points="791.853,-123.5 801.853,-120 791.853,-116.5 791.853,-123.5"/>
</g>
<!-- Node11 -->
<g id="node11" class="node"><title>Node11</title>
<g id="a_node11"><a xlink:href="../../d9/ddc/doublylinkedlist_8c.html#a341e2f6faf7227650ed6e38e90cd047e" target="_top" xlink:title="DoublyLinkedListRemoveNode">
<polygon fill="none" stroke="black" points="594,-209.5 594,-228.5 746,-228.5 746,-209.5 594,-209.5"/>
<text text-anchor="middle" x="670" y="-216.5" font-family="Helvetica,sans-Serif" font-size="10.00">DoublyLinkedListRemoveNode</text>
</a>
</g>
</g>
<!-- Node10&#45;&gt;Node11 -->
<g id="edge10" class="edge"><title>Node10&#45;&gt;Node11</title>
<path fill="none" stroke="midnightblue" d="M556.238,-219C565.295,-219 574.567,-219 583.712,-219"/>
<polygon fill="midnightblue" stroke="midnightblue" points="583.965,-222.5 593.965,-219 583.965,-215.5 583.965,-222.5"/>
</g>
<!-- Node12 -->
<g id="node12" class="node"><title>Node12</title>
<g id="a_node12"><a xlink:href="../../d9/ddc/doublylinkedlist_8c.html#a87710acb9f42fba14822fb824814105c" target="_top" xlink:title="DoublyLinkedListNodeDestroy">
<polygon fill="none" stroke="black" points="782.5,-209.5 782.5,-228.5 931.5,-228.5 931.5,-209.5 782.5,-209.5"/>
<text text-anchor="middle" x="857" y="-216.5" font-family="Helvetica,sans-Serif" font-size="10.00">DoublyLinkedListNodeDestroy</text>
</a>
</g>
</g>
<!-- Node11&#45;&gt;Node12 -->
<g id="edge11" class="edge"><title>Node11&#45;&gt;Node12</title>
<path fill="none" stroke="midnightblue" d="M746.247,-219C754.803,-219 763.563,-219 772.221,-219"/>
<polygon fill="midnightblue" stroke="midnightblue" points="772.318,-222.5 782.318,-219 772.318,-215.5 772.318,-222.5"/>
</g>
<!-- Node14 -->
<g id="node14" class="node"><title>Node14</title>
<g id="a_node14"><a xlink:href="../../df/d91/cipconnectionobject_8c.html#ace0a978d1b7fe59261b1024b5ba1cd15" target="_top" xlink:title="ConnectionObjectSetState">
<polygon fill="none" stroke="black" points="603.5,-165.5 603.5,-184.5 736.5,-184.5 736.5,-165.5 603.5,-165.5"/>
<text text-anchor="middle" x="670" y="-172.5" font-family="Helvetica,sans-Serif" font-size="10.00">ConnectionObjectSetState</text>
</a>
</g>
</g>
<!-- Node13&#45;&gt;Node14 -->
<g id="edge13" class="edge"><title>Node13&#45;&gt;Node14</title>
<path fill="none" stroke="midnightblue" d="M542.664,-175C558.886,-175 576.437,-175 593.149,-175"/>
<polygon fill="midnightblue" stroke="midnightblue" points="593.427,-178.5 603.427,-175 593.427,-171.5 593.427,-178.5"/>
</g>
<!-- Node16 -->
<g id="node16" class="node"><title>Node16</title>
<g id="a_node16"><a xlink:href="../../db/d4f/generic__networkhandler_8c.html#a1bfa5ef8e4802716459a56567ee16592" target="_top" xlink:title="CloseTcpSocket">
<polygon fill="none" stroke="black" points="432.5,-33.5 432.5,-52.5 521.5,-52.5 521.5,-33.5 432.5,-33.5"/>
<text text-anchor="middle" x="477" y="-40.5" font-family="Helvetica,sans-Serif" font-size="10.00">CloseTcpSocket</text>
</a>
</g>
</g>
<!-- Node15&#45;&gt;Node16 -->
<g id="edge15" class="edge"><title>Node15&#45;&gt;Node16</title>
<path fill="none" stroke="midnightblue" d="M320.503,-80.4653C342.588,-75.0157 370.841,-68.0772 396,-62 405.679,-59.6621 416.022,-57.1877 425.949,-54.8248"/>
<polygon fill="midnightblue" stroke="midnightblue" points="426.778,-58.2254 435.698,-52.5081 425.16,-51.415 426.778,-58.2254"/>
</g>
<!-- Node16&#45;&gt;Node8 -->
<g id="edge19" class="edge"><title>Node16&#45;&gt;Node8</title>
<path fill="none" stroke="midnightblue" d="M521.766,-51.327C533.697,-54.1525 546.499,-57.7058 558,-62 589.369,-73.7123 623.166,-92.3221 645.117,-105.292"/>
<polygon fill="midnightblue" stroke="midnightblue" points="643.381,-108.332 653.758,-110.469 646.979,-102.328 643.381,-108.332"/>
</g>
<!-- Node17 -->
<g id="node17" class="node"><title>Node17</title>
<g id="a_node17"><a xlink:href="../../db/d4f/generic__networkhandler_8c.html#aea539a75995234e379a1c25019ba378f" target="_top" xlink:title="RemoveSocketTimerFromList">
<polygon fill="none" stroke="black" points="596.5,-33.5 596.5,-52.5 743.5,-52.5 743.5,-33.5 596.5,-33.5"/>
<text text-anchor="middle" x="670" y="-40.5" font-family="Helvetica,sans-Serif" font-size="10.00">RemoveSocketTimerFromList</text>
</a>
</g>
</g>
<!-- Node16&#45;&gt;Node17 -->
<g id="edge16" class="edge"><title>Node16&#45;&gt;Node17</title>
<path fill="none" stroke="midnightblue" d="M521.819,-43C540.921,-43 563.97,-43 586.101,-43"/>
<polygon fill="midnightblue" stroke="midnightblue" points="586.187,-46.5001 596.187,-43 586.187,-39.5001 586.187,-46.5001"/>
</g>
<!-- Node18 -->
<g id="node18" class="node"><title>Node18</title>
<g id="a_node18"><a xlink:href="../../d4/df6/socket__timer_8c.html#abe7542fdec4d4e4893a8c712192529ca" target="_top" xlink:title="Get the Socket Timer entry with the spezified socket value. ">
<polygon fill="none" stroke="black" points="786,-39 786,-69 928,-69 928,-39 786,-39"/>
<text text-anchor="start" x="794" y="-57" font-family="Helvetica,sans-Serif" font-size="10.00">SocketTimerArrayGetSocket</text>
<text text-anchor="middle" x="857" y="-46" font-family="Helvetica,sans-Serif" font-size="10.00">Timer</text>
</a>
</g>
</g>
<!-- Node17&#45;&gt;Node18 -->
<g id="edge17" class="edge"><title>Node17&#45;&gt;Node18</title>
<path fill="none" stroke="midnightblue" d="M743.586,-47.3159C754.095,-47.9408 764.965,-48.5871 775.617,-49.2204"/>
<polygon fill="midnightblue" stroke="midnightblue" points="775.553,-52.7228 785.743,-49.8226 775.968,-45.7351 775.553,-52.7228"/>
</g>
<!-- Node19 -->
<g id="node19" class="node"><title>Node19</title>
<g id="a_node19"><a xlink:href="../../d4/df6/socket__timer_8c.html#a6130830815ae46fe4e6d45cf89bc3506" target="_top" xlink:title="Clears a Socket Timer entry. ">
<polygon fill="none" stroke="black" points="809.5,-0.5 809.5,-19.5 904.5,-19.5 904.5,-0.5 809.5,-0.5"/>
<text text-anchor="middle" x="857" y="-7.5" font-family="Helvetica,sans-Serif" font-size="10.00">SocketTimerClear</text>
</a>
</g>
</g>
<!-- Node17&#45;&gt;Node19 -->
<g id="edge18" class="edge"><title>Node17&#45;&gt;Node19</title>
<path fill="none" stroke="midnightblue" d="M724.51,-33.455C747.947,-29.2744 775.471,-24.3646 799.264,-20.1204"/>
<polygon fill="midnightblue" stroke="midnightblue" points="799.98,-23.548 809.21,-18.3463 798.751,-16.6568 799.98,-23.548"/>
</g>
</g>
</svg>
