<?xml version="1.0" encoding="UTF-8" standalone="no"?>
<!DOCTYPE svg PUBLIC "-//W3C//DTD SVG 1.1//EN"
 "http://www.w3.org/Graphics/SVG/1.1/DTD/svg11.dtd">
<!-- Generated by graphviz version 2.26.3 (20100126.1600)
 -->
<!-- Title: G Pages: 1 -->
<!--zoomable 494 -->
<svg id="main" version="1.1" xmlns="http://www.w3.org/2000/svg" xmlns:xlink="http://www.w3.org/1999/xlink" xml:space="preserve" onload="init(evt)">
        <defs>
                <circle id="rim" cx="0" cy="0" r="7"/>
                <circle id="rim2" cx="0" cy="0" r="3.5"/>
                <g id="zoomPlus">
                        <use xlink:href="#rim" fill="#404040">
                                <set attributeName="fill" to="#808080" begin="zoomplus.mouseover" end="zoomplus.mouseout"/>
                        </use>
                        <path d="M-4,0h8M0,-4v8" fill="none" stroke="white" stroke-width="1.5" pointer-events="none"/>
                </g>
                <g id="zoomMin">
                        <use xlink:href="#rim" fill="#404040">
                                <set attributeName="fill" to="#808080" begin="zoomminus.mouseover" end="zoomminus.mouseout"/>
                        </use>
                        <path d="M-4,0h8" fill="none" stroke="white" stroke-width="1.5" pointer-events="none"/>
                </g>
                <g id="dirArrow">
                        <path fill="none" stroke="white" stroke-width="1.5" d="M0,-3.0v7 M-2.5,-0.5L0,-3.0L2.5,-0.5"/>
                </g>
               <g id="resetDef">
                       <use xlink:href="#rim2" fill="#404040">
                               <set attributeName="fill" to="#808080" begin="reset.mouseover" end="reset.mouseout"/>
                       </use>
               </g>
        </defs>

<script type="text/javascript">
var viewWidth = 1538;
var viewHeight = 494;
var sectionId = 'dynsection-0';
</script>
<script xlink:href="../../svgpan.js"/>
<svg id="graph" class="graph">
<g id="viewport">
<title>G</title>
<!-- Node1 -->
<g id="node1" class="node"><title>Node1</title>
<polygon fill="#bfbfbf" stroke="black" points="558.5,-464.5 558.5,-485.5 713.5,-485.5 713.5,-464.5 558.5,-464.5"/>
<text text-anchor="middle" x="636" y="-472.5" font-family="Helvetica,sans-Serif" font-size="10.00">src/cip/cipconnectionmanager.c</text>
</g>
<!-- Node2 -->
<g id="node3" class="node"><title>Node2</title>
<polygon fill="none" stroke="#bfbfbf" points="1143.5,-348.5 1143.5,-369.5 1192.5,-369.5 1192.5,-348.5 1143.5,-348.5"/>
<text text-anchor="middle" x="1168" y="-356.5" font-family="Helvetica,sans-Serif" font-size="10.00">string.h</text>
</g>
<!-- Node1&#45;&gt;Node2 -->
<g id="edge2" class="edge"><title>Node1&#45;&gt;Node2</title>
<path fill="none" stroke="midnightblue" d="M713.783,-471.107C788.883,-465.935 905.274,-454.178 1003,-428 1052.2,-414.822 1106.09,-390.203 1138.46,-374.215"/>
<polygon fill="midnightblue" stroke="midnightblue" points="1140.41,-377.155 1147.79,-369.552 1137.28,-370.893 1140.41,-377.155"/>
</g>
<!-- Node3 -->
<g id="node5" class="node"><title>Node3</title>
<polygon fill="none" stroke="#bfbfbf" points="329,-0.5 329,-21.5 385,-21.5 385,-0.5 329,-0.5"/>
<text text-anchor="middle" x="357" y="-8.5" font-family="Helvetica,sans-Serif" font-size="10.00">stdbool.h</text>
</g>
<!-- Node1&#45;&gt;Node3 -->
<g id="edge4" class="edge"><title>Node1&#45;&gt;Node3</title>
<path fill="none" stroke="midnightblue" d="M558.366,-471.917C411.421,-465.608 103.396,-449.947 60,-428 23.7348,-409.659 0,-399.639 0,-359 0,-359 0,-359 0,-127 0,-60.4844 226.994,-26.29 318.974,-15.1644"/>
<polygon fill="midnightblue" stroke="midnightblue" points="319.467,-18.6306 328.987,-13.9803 318.645,-11.6791 319.467,-18.6306"/>
</g>
<!-- Node4 -->
<g id="node7" class="node"><title>Node4</title>
<a xlink:href="../../d2/da3/cipconnectionmanager_8h.html" target="_top" xlink:title="cipconnectionmanager.h">
<polygon fill="none" stroke="black" points="524,-290.5 524,-311.5 646,-311.5 646,-290.5 524,-290.5"/>
<text text-anchor="middle" x="585" y="-298.5" font-family="Helvetica,sans-Serif" font-size="10.00">cipconnectionmanager.h</text>
</a>
</g>
<!-- Node1&#45;&gt;Node4 -->
<g id="edge6" class="edge"><title>Node1&#45;&gt;Node4</title>
<path fill="none" stroke="midnightblue" d="M623.029,-464.409C603.012,-447.126 565.402,-410.68 551,-370 544.726,-352.277 555.634,-333.18 566.725,-319.58"/>
<polygon fill="midnightblue" stroke="midnightblue" points="569.52,-321.702 573.502,-311.883 564.266,-317.076 569.52,-321.702"/>
</g>
<!-- Node5 -->
<g id="node9" class="node"><title>Node5</title>
<polygon fill="none" stroke="#bfbfbf" points="63,-116.5 63,-137.5 165,-137.5 165,-116.5 63,-116.5"/>
<text text-anchor="middle" x="114" y="-124.5" font-family="Helvetica,sans-Serif" font-size="10.00">opener_user_conf.h</text>
</g>
<!-- Node1&#45;&gt;Node5 -->
<g id="edge64" class="edge"><title>Node1&#45;&gt;Node5</title>
<path fill="none" stroke="midnightblue" d="M558.403,-471.121C420.848,-463.806 144.903,-446.99 105,-428 66.4028,-409.631 38,-401.745 38,-359 38,-359 38,-359 38,-243 38,-202.51 70.7975,-165.158 93.3017,-144.295"/>
<polygon fill="midnightblue" stroke="midnightblue" points="95.6399,-146.899 100.762,-137.625 90.9742,-141.681 95.6399,-146.899"/>
</g>
<!-- Node6 -->
<g id="node11" class="node"><title>Node6</title>
<a xlink:href="../../d4/d38/opener__api_8h.html" target="_top" xlink:title="opener_api.h">
<polygon fill="none" stroke="black" points="492,-174.5 492,-195.5 564,-195.5 564,-174.5 492,-174.5"/>
<text text-anchor="middle" x="528" y="-182.5" font-family="Helvetica,sans-Serif" font-size="10.00">opener_api.h</text>
</a>
</g>
<!-- Node1&#45;&gt;Node6 -->
<g id="edge84" class="edge"><title>Node1&#45;&gt;Node6</title>
<path fill="none" stroke="midnightblue" d="M558.455,-464.685C502.97,-452.583 432.997,-426.412 403,-370 367.939,-304.064 456.443,-232.595 502.388,-201.264"/>
<polygon fill="midnightblue" stroke="midnightblue" points="504.583,-204.007 510.96,-195.546 500.699,-198.183 504.583,-204.007"/>
</g>
<!-- Node13 -->
<g id="node28" class="node"><title>Node13</title>
<a xlink:href="../../d6/d52/ciperror_8h.html" target="_top" xlink:title="ciperror.h">
<polygon fill="none" stroke="black" points="617.5,-116.5 617.5,-137.5 674.5,-137.5 674.5,-116.5 617.5,-116.5"/>
<text text-anchor="middle" x="646" y="-124.5" font-family="Helvetica,sans-Serif" font-size="10.00">ciperror.h</text>
</a>
</g>
<!-- Node1&#45;&gt;Node13 -->
<g id="edge78" class="edge"><title>Node1&#45;&gt;Node13</title>
<path fill="none" stroke="midnightblue" d="M637.675,-464.358C641.664,-438.401 651.646,-369.738 655,-312 658.451,-252.586 652.208,-182.386 648.484,-148.049"/>
<polygon fill="midnightblue" stroke="midnightblue" points="651.932,-147.392 647.335,-137.847 644.976,-148.176 651.932,-147.392"/>
</g>
<!-- Node14 -->
<g id="node33" class="node"><title>Node14</title>
<a xlink:href="../../d1/d6c/cipconnectionobject_8h.html" target="_top" xlink:title="cipconnectionobject.h">
<polygon fill="none" stroke="black" points="243.5,-232.5 243.5,-253.5 354.5,-253.5 354.5,-232.5 243.5,-232.5"/>
<text text-anchor="middle" x="299" y="-240.5" font-family="Helvetica,sans-Serif" font-size="10.00">cipconnectionobject.h</text>
</a>
</g>
<!-- Node1&#45;&gt;Node14 -->
<g id="edge100" class="edge"><title>Node1&#45;&gt;Node14</title>
<path fill="none" stroke="midnightblue" d="M558.308,-470.778C496.36,-465.552 408.167,-453.902 335,-428 286.566,-410.854 260.645,-414.521 235,-370 213.11,-331.998 252.408,-285.59 278.522,-260.737"/>
<polygon fill="midnightblue" stroke="midnightblue" points="281.129,-263.094 286.121,-253.748 276.391,-257.941 281.129,-263.094"/>
</g>
<!-- Node16 -->
<g id="node41" class="node"><title>Node16</title>
<a xlink:href="../../d0/d23/cipelectronickey_8h.html" target="_top" xlink:title="cipelectronickey.h">
<polygon fill="none" stroke="black" points="309.5,-116.5 309.5,-137.5 404.5,-137.5 404.5,-116.5 309.5,-116.5"/>
<text text-anchor="middle" x="357" y="-124.5" font-family="Helvetica,sans-Serif" font-size="10.00">cipelectronickey.h</text>
</a>
</g>
<!-- Node1&#45;&gt;Node16 -->
<g id="edge164" class="edge"><title>Node1&#45;&gt;Node16</title>
<path fill="none" stroke="midnightblue" d="M558.399,-472.934C451.476,-469.009 265.222,-457.982 205,-428 167.285,-409.223 140,-401.131 140,-359 140,-359 140,-359 140,-301 140,-236.763 159.47,-214.904 209,-174 234.586,-152.87 269.782,-141.194 299.432,-134.765"/>
<polygon fill="midnightblue" stroke="midnightblue" points="300.144,-138.192 309.252,-132.78 298.757,-131.331 300.144,-138.192"/>
</g>
<!-- Node17 -->
<g id="node45" class="node"><title>Node17</title>
<a xlink:href="../../d1/d02/cipepath_8h.html" target="_top" xlink:title="cipepath.h">
<polygon fill="none" stroke="black" points="218,-174.5 218,-195.5 280,-195.5 280,-174.5 218,-174.5"/>
<text text-anchor="middle" x="249" y="-182.5" font-family="Helvetica,sans-Serif" font-size="10.00">cipepath.h</text>
</a>
</g>
<!-- Node1&#45;&gt;Node17 -->
<g id="edge162" class="edge"><title>Node1&#45;&gt;Node17</title>
<path fill="none" stroke="midnightblue" d="M558.423,-470.013C465.878,-463.221 317.235,-449.4 266,-428 220.139,-408.845 178,-408.7 178,-359 178,-359 178,-359 178,-301 178,-261.255 208.697,-223.625 229.722,-202.512"/>
<polygon fill="midnightblue" stroke="midnightblue" points="232.206,-204.978 236.956,-195.508 227.337,-199.949 232.206,-204.978"/>
</g>
<!-- Node18 -->
<g id="node51" class="node"><title>Node18</title>
<a xlink:href="../../db/d14/cipcommon_8h.html" target="_top" xlink:title="cipcommon.h">
<polygon fill="none" stroke="black" points="1203.5,-174.5 1203.5,-195.5 1278.5,-195.5 1278.5,-174.5 1203.5,-174.5"/>
<text text-anchor="middle" x="1241" y="-182.5" font-family="Helvetica,sans-Serif" font-size="10.00">cipcommon.h</text>
</a>
</g>
<!-- Node1&#45;&gt;Node18 -->
<g id="edge66" class="edge"><title>Node1&#45;&gt;Node18</title>
<path fill="none" stroke="midnightblue" d="M713.532,-473.348C845.618,-469.727 1108.4,-458.791 1195,-428 1246.22,-409.788 1296,-413.364 1296,-359 1296,-359 1296,-359 1296,-301 1296,-263.781 1272.6,-225.759 1256.32,-203.819"/>
<polygon fill="midnightblue" stroke="midnightblue" points="1258.95,-201.501 1250.08,-195.711 1253.41,-205.77 1258.95,-201.501"/>
</g>
<!-- Node19 -->
<g id="node55" class="node"><title>Node19</title>
<a xlink:href="../../d2/d75/cipmessagerouter_8h.html" target="_top" xlink:title="cipmessagerouter.h">
<polygon fill="none" stroke="black" points="1334,-174.5 1334,-195.5 1436,-195.5 1436,-174.5 1334,-174.5"/>
<text text-anchor="middle" x="1385" y="-182.5" font-family="Helvetica,sans-Serif" font-size="10.00">cipmessagerouter.h</text>
</a>
</g>
<!-- Node1&#45;&gt;Node19 -->
<g id="edge72" class="edge"><title>Node1&#45;&gt;Node19</title>
<path fill="none" stroke="midnightblue" d="M713.653,-472.321C883.823,-466.087 1279.02,-449.486 1336,-428 1383.16,-410.218 1426,-409.403 1426,-359 1426,-359 1426,-359 1426,-301 1426,-265.462 1408.68,-227.12 1396.56,-204.63"/>
<polygon fill="midnightblue" stroke="midnightblue" points="1399.52,-202.766 1391.59,-195.747 1393.41,-206.183 1399.52,-202.766"/>
</g>
<!-- Node20 -->
<g id="node60" class="node"><title>Node20</title>
<a xlink:href="../../d0/dec/endianconv_8h.html" target="_top" xlink:title="Responsible for Endianess conversion.">
<polygon fill="none" stroke="black" points="1324,-348.5 1324,-369.5 1398,-369.5 1398,-348.5 1324,-348.5"/>
<text text-anchor="middle" x="1361" y="-356.5" font-family="Helvetica,sans-Serif" font-size="10.00">endianconv.h</text>
</a>
</g>
<!-- Node1&#45;&gt;Node20 -->
<g id="edge80" class="edge"><title>Node1&#45;&gt;Node20</title>
<path fill="none" stroke="midnightblue" d="M713.754,-473.223C879.946,-468.904 1258.84,-456.077 1310,-428 1329.68,-417.198 1343.87,-395.198 1352.2,-378.93"/>
<polygon fill="midnightblue" stroke="midnightblue" points="1355.47,-380.223 1356.64,-369.693 1349.15,-377.195 1355.47,-380.223"/>
</g>
<!-- Node21 -->
<g id="node64" class="node"><title>Node21</title>
<a xlink:href="../../d7/df9/encap_8h.html" target="_top" xlink:title="This file contains the public interface of the encapsulation layer.">
<polygon fill="none" stroke="black" points="1432.5,-116.5 1432.5,-137.5 1483.5,-137.5 1483.5,-116.5 1432.5,-116.5"/>
<text text-anchor="middle" x="1458" y="-124.5" font-family="Helvetica,sans-Serif" font-size="10.00">encap.h</text>
</a>
</g>
<!-- Node1&#45;&gt;Node21 -->
<g id="edge86" class="edge"><title>Node1&#45;&gt;Node21</title>
<path fill="none" stroke="midnightblue" d="M713.56,-472.797C891.647,-467.353 1319.23,-451.948 1380,-428 1424.95,-410.287 1464,-407.314 1464,-359 1464,-359 1464,-359 1464,-243 1464,-209.553 1461.48,-170.754 1459.71,-147.577"/>
<polygon fill="midnightblue" stroke="midnightblue" points="1463.19,-147.238 1458.91,-137.547 1456.21,-147.792 1463.19,-147.238"/>
</g>
<!-- Node22 -->
<g id="node67" class="node"><title>Node22</title>
<a xlink:href="../../dc/d72/cipidentity_8h.html" target="_top" xlink:title="cipidentity.h">
<polygon fill="none" stroke="black" points="981.5,-174.5 981.5,-195.5 1050.5,-195.5 1050.5,-174.5 981.5,-174.5"/>
<text text-anchor="middle" x="1016" y="-182.5" font-family="Helvetica,sans-Serif" font-size="10.00">cipidentity.h</text>
</a>
</g>
<!-- Node1&#45;&gt;Node22 -->
<g id="edge90" class="edge"><title>Node1&#45;&gt;Node22</title>
<path fill="none" stroke="midnightblue" d="M713.877,-471.804C797.283,-467.062 933.033,-455.531 1047,-428 1127.46,-408.562 1220,-441.779 1220,-359 1220,-359 1220,-359 1220,-301 1220,-263.854 1116.5,-220.771 1056.94,-199.056"/>
<polygon fill="midnightblue" stroke="midnightblue" points="1058.02,-195.726 1047.43,-195.633 1055.65,-202.312 1058.02,-195.726"/>
</g>
<!-- Node23 -->
<g id="node71" class="node"><title>Node23</title>
<a xlink:href="../../d1/d1b/trace_8h.html" target="_top" xlink:title="Tracing infrastructure for OpENer.">
<polygon fill="none" stroke="black" points="65.5,-232.5 65.5,-253.5 112.5,-253.5 112.5,-232.5 65.5,-232.5"/>
<text text-anchor="middle" x="89" y="-240.5" font-family="Helvetica,sans-Serif" font-size="10.00">trace.h</text>
</a>
</g>
<!-- Node1&#45;&gt;Node23 -->
<g id="edge96" class="edge"><title>Node1&#45;&gt;Node23</title>
<path fill="none" stroke="midnightblue" d="M558.311,-472.88C423.469,-468.471 157.419,-456.267 126,-428 79.2383,-385.929 81.813,-302.869 86.0182,-263.994"/>
<polygon fill="midnightblue" stroke="midnightblue" points="89.5183,-264.207 87.2653,-253.854 82.5706,-263.352 89.5183,-264.207"/>
</g>
<!-- Node24 -->
<g id="node75" class="node"><title>Node24</title>
<a xlink:href="../../d2/d11/cipclass3connection_8h.html" target="_top" xlink:title="CIP Class 3 connection * Explicit Connection Object State Transition Diagram.">
<polygon fill="none" stroke="black" points="243.5,-348.5 243.5,-369.5 356.5,-369.5 356.5,-348.5 243.5,-348.5"/>
<text text-anchor="middle" x="300" y="-356.5" font-family="Helvetica,sans-Serif" font-size="10.00">cipclass3connection.h</text>
</a>
</g>
<!-- Node1&#45;&gt;Node24 -->
<g id="edge102" class="edge"><title>Node1&#45;&gt;Node24</title>
<path fill="none" stroke="midnightblue" d="M558.248,-466.45C491.828,-458.208 402.087,-444.564 370,-428 346.843,-416.046 326.403,-393.799 313.68,-377.793"/>
<polygon fill="midnightblue" stroke="midnightblue" points="316.299,-375.456 307.437,-369.649 310.743,-379.715 316.299,-375.456"/>
</g>
<!-- Node25 -->
<g id="node80" class="node"><title>Node25</title>
<a xlink:href="../../de/d45/cipioconnection_8h.html" target="_top" xlink:title="cipioconnection.h">
<polygon fill="none" stroke="black" points="412,-348.5 412,-369.5 504,-369.5 504,-348.5 412,-348.5"/>
<text text-anchor="middle" x="458" y="-356.5" font-family="Helvetica,sans-Serif" font-size="10.00">cipioconnection.h</text>
</a>
</g>
<!-- Node1&#45;&gt;Node25 -->
<g id="edge110" class="edge"><title>Node1&#45;&gt;Node25</title>
<path fill="none" stroke="midnightblue" d="M596.474,-464.456C572.371,-456.812 541.74,-444.843 518,-428 498.735,-414.332 481.595,-393.242 470.618,-377.975"/>
<polygon fill="midnightblue" stroke="midnightblue" points="473.484,-375.966 464.898,-369.76 467.739,-379.966 473.484,-375.966"/>
</g>
<!-- Node26 -->
<g id="node85" class="node"><title>Node26</title>
<a xlink:href="../../de/df4/cipassembly_8h.html" target="_top" xlink:title="cipassembly.h">
<polygon fill="none" stroke="black" points="1068,-174.5 1068,-195.5 1148,-195.5 1148,-174.5 1068,-174.5"/>
<text text-anchor="middle" x="1108" y="-182.5" font-family="Helvetica,sans-Serif" font-size="10.00">cipassembly.h</text>
</a>
</g>
<!-- Node1&#45;&gt;Node26 -->
<g id="edge118" class="edge"><title>Node1&#45;&gt;Node26</title>
<path fill="none" stroke="midnightblue" d="M713.754,-471.664C834.04,-465.833 1059.37,-452.061 1136,-428 1195.43,-409.34 1258,-421.294 1258,-359 1258,-359 1258,-359 1258,-301 1258,-247.788 1198.2,-215.527 1154.11,-198.973"/>
<polygon fill="midnightblue" stroke="midnightblue" points="1155.29,-195.676 1144.69,-195.581 1152.92,-202.262 1155.29,-195.676"/>
</g>
<!-- Node27 -->
<g id="node89" class="node"><title>Node27</title>
<a xlink:href="../../d0/dff/cpf_8h.html" target="_top" xlink:title="cpf.h">
<polygon fill="none" stroke="black" points="1492,-174.5 1492,-195.5 1530,-195.5 1530,-174.5 1492,-174.5"/>
<text text-anchor="middle" x="1511" y="-182.5" font-family="Helvetica,sans-Serif" font-size="10.00">cpf.h</text>
</a>
</g>
<!-- Node1&#45;&gt;Node27 -->
<g id="edge124" class="edge"><title>Node1&#45;&gt;Node27</title>
<path fill="none" stroke="midnightblue" d="M713.699,-472.883C916.271,-467.068 1447.06,-449.823 1478,-428 1505.18,-408.825 1507,-392.265 1507,-359 1507,-359 1507,-359 1507,-301 1507,-267.578 1508.68,-228.771 1509.86,-205.587"/>
<polygon fill="midnightblue" stroke="midnightblue" points="1513.36,-205.723 1510.39,-195.552 1506.37,-205.353 1513.36,-205.723"/>
</g>
<!-- Node28 -->
<g id="node94" class="node"><title>Node28</title>
<a xlink:href="../../d1/dc0/appcontype_8h.html" target="_top" xlink:title="appcontype.h">
<polygon fill="none" stroke="black" points="559.5,-348.5 559.5,-369.5 634.5,-369.5 634.5,-348.5 559.5,-348.5"/>
<text text-anchor="middle" x="597" y="-356.5" font-family="Helvetica,sans-Serif" font-size="10.00">appcontype.h</text>
</a>
</g>
<!-- Node1&#45;&gt;Node28 -->
<g id="edge132" class="edge"><title>Node1&#45;&gt;Node28</title>
<path fill="none" stroke="midnightblue" d="M632.401,-464.295C625.9,-444.959 612.103,-403.923 603.784,-379.177"/>
<polygon fill="midnightblue" stroke="midnightblue" points="607.095,-378.042 600.59,-369.679 600.46,-380.273 607.095,-378.042"/>
</g>
<!-- Node29 -->
<g id="node97" class="node"><title>Node29</title>
<a xlink:href="../../da/dc2/generic__networkhandler_8h.html" target="_top" xlink:title="generic_networkhandler.h">
<polygon fill="none" stroke="black" points="866,-406.5 866,-427.5 994,-427.5 994,-406.5 866,-406.5"/>
<text text-anchor="middle" x="930" y="-414.5" font-family="Helvetica,sans-Serif" font-size="10.00">generic_networkhandler.h</text>
</a>
</g>
<!-- Node1&#45;&gt;Node29 -->
<g id="edge136" class="edge"><title>Node1&#45;&gt;Node29</title>
<path fill="none" stroke="midnightblue" d="M689.241,-464.497C739.142,-454.652 813.783,-439.927 866.709,-429.486"/>
<polygon fill="midnightblue" stroke="midnightblue" points="867.526,-432.892 876.659,-427.523 866.171,-426.025 867.526,-432.892"/>
</g>
<!-- Node34 -->
<g id="node117" class="node"><title>Node34</title>
<a xlink:href="../../d0/d3c/cipqos_8h.html" target="_top" xlink:title="Public interface of the QoS Object.">
<polygon fill="none" stroke="black" points="765.5,-348.5 765.5,-369.5 818.5,-369.5 818.5,-348.5 765.5,-348.5"/>
<text text-anchor="middle" x="792" y="-356.5" font-family="Helvetica,sans-Serif" font-size="10.00">cipqos.h</text>
</a>
</g>
<!-- Node1&#45;&gt;Node34 -->
<g id="edge166" class="edge"><title>Node1&#45;&gt;Node34</title>
<path fill="none" stroke="midnightblue" d="M650.396,-464.295C677.677,-444.009 737.077,-399.84 769.604,-375.653"/>
<polygon fill="midnightblue" stroke="midnightblue" points="771.702,-378.455 777.638,-369.679 767.525,-372.838 771.702,-378.455"/>
</g>
<!-- Node4&#45;&gt;Node5 -->
<g id="edge8" class="edge"><title>Node4&#45;&gt;Node5</title>
<path fill="none" stroke="midnightblue" d="M523.956,-297.283C437.637,-291.273 284.857,-277.641 235,-254 184.596,-230.099 144.373,-175.38 125.568,-146.182"/>
<polygon fill="midnightblue" stroke="midnightblue" points="128.507,-144.282 120.229,-137.671 122.577,-148.002 128.507,-144.282"/>
</g>
<!-- Node4&#45;&gt;Node6 -->
<g id="edge10" class="edge"><title>Node4&#45;&gt;Node6</title>
<path fill="none" stroke="midnightblue" d="M579.74,-290.295C570.196,-270.872 549.894,-229.556 537.752,-204.846"/>
<polygon fill="midnightblue" stroke="midnightblue" points="540.799,-203.111 533.248,-195.679 534.516,-206.198 540.799,-203.111"/>
</g>
<!-- Node8 -->
<g id="node16" class="node"><title>Node8</title>
<a xlink:href="../../d7/d69/typedefs_8h.html" target="_top" xlink:title="typedefs.h">
<polygon fill="none" stroke="black" points="948,-58.5 948,-79.5 1010,-79.5 1010,-58.5 948,-58.5"/>
<text text-anchor="middle" x="979" y="-66.5" font-family="Helvetica,sans-Serif" font-size="10.00">typedefs.h</text>
</a>
</g>
<!-- Node4&#45;&gt;Node8 -->
<g id="edge34" class="edge"><title>Node4&#45;&gt;Node8</title>
<path fill="none" stroke="midnightblue" d="M594.775,-290.156C607.704,-276.07 631.491,-251.034 654,-232 721.895,-174.586 736.952,-154.711 817,-116 856.064,-97.1089 904.178,-84.3408 937.78,-76.9363"/>
<polygon fill="midnightblue" stroke="midnightblue" points="938.67,-80.3252 947.716,-74.8097 937.205,-73.4802 938.67,-80.3252"/>
</g>
<!-- Node11 -->
<g id="node23" class="node"><title>Node11</title>
<a xlink:href="../../df/d28/ciptypes_8h.html" target="_top" xlink:title="ciptypes.h">
<polygon fill="none" stroke="black" points="826,-116.5 826,-137.5 888,-137.5 888,-116.5 826,-116.5"/>
<text text-anchor="middle" x="857" y="-124.5" font-family="Helvetica,sans-Serif" font-size="10.00">ciptypes.h</text>
</a>
</g>
<!-- Node4&#45;&gt;Node11 -->
<g id="edge36" class="edge"><title>Node4&#45;&gt;Node11</title>
<path fill="none" stroke="midnightblue" d="M601.605,-290.377C647.604,-260.952 776.891,-178.246 831.813,-143.113"/>
<polygon fill="midnightblue" stroke="midnightblue" points="833.729,-146.042 840.266,-137.705 829.956,-140.145 833.729,-146.042"/>
</g>
<!-- Node4&#45;&gt;Node14 -->
<g id="edge38" class="edge"><title>Node4&#45;&gt;Node14</title>
<path fill="none" stroke="midnightblue" d="M533.208,-290.497C484.765,-280.673 412.357,-265.988 360.89,-255.551"/>
<polygon fill="midnightblue" stroke="midnightblue" points="361.386,-252.08 350.89,-253.523 359.994,-258.941 361.386,-252.08"/>
</g>
<!-- Node6&#45;&gt;Node3 -->
<g id="edge14" class="edge"><title>Node6&#45;&gt;Node3</title>
<path fill="none" stroke="midnightblue" d="M517.561,-174.377C489.247,-145.567 410.735,-65.6779 375.059,-29.3755"/>
<polygon fill="midnightblue" stroke="midnightblue" points="377.245,-26.6068 367.739,-21.9277 372.252,-31.5133 377.245,-26.6068"/>
</g>
<!-- Node6&#45;&gt;Node5 -->
<g id="edge32" class="edge"><title>Node6&#45;&gt;Node5</title>
<path fill="none" stroke="midnightblue" d="M491.984,-179.954C421.117,-170.026 262.856,-147.854 175.262,-135.583"/>
<polygon fill="midnightblue" stroke="midnightblue" points="175.589,-132.094 165.2,-134.173 174.618,-139.027 175.589,-132.094"/>
</g>
<!-- Node7 -->
<g id="node13" class="node"><title>Node7</title>
<polygon fill="none" stroke="#bfbfbf" points="510,-116.5 510,-137.5 562,-137.5 562,-116.5 510,-116.5"/>
<text text-anchor="middle" x="536" y="-124.5" font-family="Helvetica,sans-Serif" font-size="10.00">assert.h</text>
</g>
<!-- Node6&#45;&gt;Node7 -->
<g id="edge12" class="edge"><title>Node6&#45;&gt;Node7</title>
<path fill="none" stroke="midnightblue" d="M529.467,-174.362C530.494,-166.922 531.898,-156.743 533.141,-147.728"/>
<polygon fill="midnightblue" stroke="midnightblue" points="536.643,-147.955 534.542,-137.571 529.708,-146.999 536.643,-147.955"/>
</g>
<!-- Node6&#45;&gt;Node8 -->
<g id="edge16" class="edge"><title>Node6&#45;&gt;Node8</title>
<path fill="none" stroke="midnightblue" d="M536.682,-174.442C550.28,-158.729 578.246,-129.585 609,-116 623.915,-109.412 844.469,-84.0886 937.789,-73.5955"/>
<polygon fill="midnightblue" stroke="midnightblue" points="938.183,-77.0734 947.73,-72.4797 937.402,-70.1171 938.183,-77.0734"/>
</g>
<!-- Node6&#45;&gt;Node11 -->
<g id="edge24" class="edge"><title>Node6&#45;&gt;Node11</title>
<path fill="none" stroke="midnightblue" d="M564.15,-178.627C625.786,-167.761 750.833,-145.716 815.772,-134.268"/>
<polygon fill="midnightblue" stroke="midnightblue" points="816.419,-137.708 825.66,-132.525 815.204,-130.814 816.419,-137.708"/>
</g>
<!-- Node6&#45;&gt;Node13 -->
<g id="edge30" class="edge"><title>Node6&#45;&gt;Node13</title>
<path fill="none" stroke="midnightblue" d="M549.369,-174.497C567.799,-165.438 594.637,-152.246 615.355,-142.063"/>
<polygon fill="midnightblue" stroke="midnightblue" points="616.961,-145.174 624.391,-137.621 613.873,-138.891 616.961,-145.174"/>
</g>
<!-- Node8&#45;&gt;Node3 -->
<g id="edge22" class="edge"><title>Node8&#45;&gt;Node3</title>
<path fill="none" stroke="midnightblue" d="M947.683,-65.3047C928.454,-63.0804 903.315,-60.2528 881,-58 699.329,-39.659 481.851,-21.302 395.276,-14.1385"/>
<polygon fill="midnightblue" stroke="midnightblue" points="395.392,-10.6363 385.138,-13.3014 394.816,-17.6125 395.392,-10.6363"/>
</g>
<!-- Node9 -->
<g id="node18" class="node"><title>Node9</title>
<polygon fill="none" stroke="#bfbfbf" points="985.5,-0.5 985.5,-21.5 1044.5,-21.5 1044.5,-0.5 985.5,-0.5"/>
<text text-anchor="middle" x="1015" y="-8.5" font-family="Helvetica,sans-Serif" font-size="10.00">inttypes.h</text>
</g>
<!-- Node8&#45;&gt;Node9 -->
<g id="edge18" class="edge"><title>Node8&#45;&gt;Node9</title>
<path fill="none" stroke="midnightblue" d="M985.603,-58.3619C990.475,-50.5131 997.238,-39.6159 1003.05,-30.2527"/>
<polygon fill="midnightblue" stroke="midnightblue" points="1006.14,-31.9129 1008.44,-21.5707 1000.19,-28.2213 1006.14,-31.9129"/>
</g>
<!-- Node10 -->
<g id="node20" class="node"><title>Node10</title>
<polygon fill="none" stroke="#bfbfbf" points="916,-0.5 916,-21.5 968,-21.5 968,-0.5 916,-0.5"/>
<text text-anchor="middle" x="942" y="-8.5" font-family="Helvetica,sans-Serif" font-size="10.00">stddef.h</text>
</g>
<!-- Node8&#45;&gt;Node10 -->
<g id="edge20" class="edge"><title>Node8&#45;&gt;Node10</title>
<path fill="none" stroke="midnightblue" d="M972.214,-58.3619C967.207,-50.5131 960.255,-39.6159 954.282,-30.2527"/>
<polygon fill="midnightblue" stroke="midnightblue" points="957.072,-28.1189 948.743,-21.5707 951.171,-31.8837 957.072,-28.1189"/>
</g>
<!-- Node11&#45;&gt;Node8 -->
<g id="edge26" class="edge"><title>Node11&#45;&gt;Node8</title>
<path fill="none" stroke="midnightblue" d="M879.093,-116.497C898.234,-107.397 926.146,-94.1273 947.605,-83.9253"/>
<polygon fill="midnightblue" stroke="midnightblue" points="949.13,-87.0758 956.659,-79.6212 946.125,-80.7539 949.13,-87.0758"/>
</g>
<!-- Node12 -->
<g id="node26" class="node"><title>Node12</title>
<polygon fill="none" stroke="#bfbfbf" points="781.5,-58.5 781.5,-79.5 872.5,-79.5 872.5,-58.5 781.5,-58.5"/>
<text text-anchor="middle" x="827" y="-66.5" font-family="Helvetica,sans-Serif" font-size="10.00">networkhandler.h</text>
</g>
<!-- Node11&#45;&gt;Node12 -->
<g id="edge28" class="edge"><title>Node11&#45;&gt;Node12</title>
<path fill="none" stroke="midnightblue" d="M851.498,-116.362C847.48,-108.595 841.919,-97.8426 837.11,-88.5458"/>
<polygon fill="midnightblue" stroke="midnightblue" points="840.171,-86.8448 832.468,-79.5707 833.953,-90.0608 840.171,-86.8448"/>
</g>
<!-- Node14&#45;&gt;Node5 -->
<g id="edge44" class="edge"><title>Node14&#45;&gt;Node5</title>
<path fill="none" stroke="midnightblue" d="M276.676,-232.481C258.152,-223.486 231.326,-209.834 209,-196 182.704,-179.707 154.2,-158.483 135.347,-143.9"/>
<polygon fill="midnightblue" stroke="midnightblue" points="137.445,-141.098 127.406,-137.709 133.14,-146.618 137.445,-141.098"/>
</g>
<!-- Node14&#45;&gt;Node6 -->
<g id="edge46" class="edge"><title>Node14&#45;&gt;Node6</title>
<path fill="none" stroke="midnightblue" d="M340.47,-232.497C380.359,-222.394 440.543,-207.151 481.913,-196.673"/>
<polygon fill="midnightblue" stroke="midnightblue" points="482.906,-200.032 491.741,-194.184 481.188,-193.246 482.906,-200.032"/>
</g>
<!-- Node14&#45;&gt;Node8 -->
<g id="edge40" class="edge"><title>Node14&#45;&gt;Node8</title>
<path fill="none" stroke="midnightblue" d="M333.76,-232.418C357.419,-224.366 388.873,-211.955 414,-196 458.345,-167.842 453.014,-137.37 501,-116 578.486,-81.4917 796.628,-88.7311 881,-80 899.475,-78.0882 919.89,-75.8213 937.284,-73.8437"/>
<polygon fill="midnightblue" stroke="midnightblue" points="938.141,-77.2685 947.679,-72.6554 937.346,-70.3138 938.141,-77.2685"/>
</g>
<!-- Node14&#45;&gt;Node11 -->
<g id="edge42" class="edge"><title>Node14&#45;&gt;Node11</title>
<path fill="none" stroke="midnightblue" d="M354.575,-234.611C410.08,-225.963 497.735,-211.579 573,-196 660.002,-177.991 760.854,-152.337 815.907,-137.921"/>
<polygon fill="midnightblue" stroke="midnightblue" points="816.857,-141.291 825.64,-135.365 815.078,-134.52 816.857,-141.291"/>
</g>
<!-- Node15 -->
<g id="node39" class="node"><title>Node15</title>
<a xlink:href="../../d9/d31/doublylinkedlist_8h.html" target="_top" xlink:title="doublylinkedlist.h">
<polygon fill="none" stroke="black" points="298,-174.5 298,-195.5 390,-195.5 390,-174.5 298,-174.5"/>
<text text-anchor="middle" x="344" y="-182.5" font-family="Helvetica,sans-Serif" font-size="10.00">doublylinkedlist.h</text>
</a>
</g>
<!-- Node14&#45;&gt;Node15 -->
<g id="edge48" class="edge"><title>Node14&#45;&gt;Node15</title>
<path fill="none" stroke="midnightblue" d="M307.254,-232.362C313.47,-224.35 322.151,-213.161 329.515,-203.67"/>
<polygon fill="midnightblue" stroke="midnightblue" points="332.434,-205.617 335.799,-195.571 326.903,-201.326 332.434,-205.617"/>
</g>
<!-- Node14&#45;&gt;Node16 -->
<g id="edge50" class="edge"><title>Node14&#45;&gt;Node16</title>
<path fill="none" stroke="midnightblue" d="M347.133,-232.426C366.719,-225.501 387.432,-214.219 399,-196 410.074,-178.559 394.494,-158.341 379.269,-144.318"/>
<polygon fill="midnightblue" stroke="midnightblue" points="381.34,-141.482 371.483,-137.597 376.766,-146.781 381.34,-141.482"/>
</g>
<!-- Node14&#45;&gt;Node17 -->
<g id="edge56" class="edge"><title>Node14&#45;&gt;Node17</title>
<path fill="none" stroke="midnightblue" d="M289.829,-232.362C282.852,-224.268 273.079,-212.932 264.844,-203.38"/>
<polygon fill="midnightblue" stroke="midnightblue" points="267.293,-200.859 258.113,-195.571 261.991,-205.43 267.293,-200.859"/>
</g>
<!-- Node16&#45;&gt;Node3 -->
<g id="edge52" class="edge"><title>Node16&#45;&gt;Node3</title>
<path fill="none" stroke="midnightblue" d="M357,-116.295C357,-97.1314 357,-56.654 357,-31.8434"/>
<polygon fill="midnightblue" stroke="midnightblue" points="360.5,-31.6792 357,-21.6792 353.5,-31.6792 360.5,-31.6792"/>
</g>
<!-- Node16&#45;&gt;Node8 -->
<g id="edge54" class="edge"><title>Node16&#45;&gt;Node8</title>
<path fill="none" stroke="midnightblue" d="M404.843,-119.302C413.214,-118.095 421.851,-116.938 430,-116 629.763,-93.0051 680.838,-99.2173 881,-80 899.488,-78.225 919.906,-75.979 937.297,-73.9799"/>
<polygon fill="midnightblue" stroke="midnightblue" points="938.161,-77.4033 947.691,-72.7736 937.354,-70.4499 938.161,-77.4033"/>
</g>
<!-- Node17&#45;&gt;Node3 -->
<g id="edge58" class="edge"><title>Node17&#45;&gt;Node3</title>
<path fill="none" stroke="midnightblue" d="M255.593,-174.377C273.25,-145.93 321.817,-67.6838 344.73,-30.7689"/>
<polygon fill="midnightblue" stroke="midnightblue" points="347.917,-32.2699 350.217,-21.9277 341.97,-28.5783 347.917,-32.2699"/>
</g>
<!-- Node17&#45;&gt;Node11 -->
<g id="edge60" class="edge"><title>Node17&#45;&gt;Node11</title>
<path fill="none" stroke="midnightblue" d="M280.317,-175.796C283.237,-175.117 286.163,-174.503 289,-174 340.477,-164.874 694.069,-138.784 815.872,-129.959"/>
<polygon fill="midnightblue" stroke="midnightblue" points="816.197,-133.445 825.919,-129.232 815.692,-126.463 816.197,-133.445"/>
</g>
<!-- Node17&#45;&gt;Node16 -->
<g id="edge62" class="edge"><title>Node17&#45;&gt;Node16</title>
<path fill="none" stroke="midnightblue" d="M268.558,-174.497C285.198,-165.56 309.327,-152.602 328.18,-142.477"/>
<polygon fill="midnightblue" stroke="midnightblue" points="330.069,-145.436 337.223,-137.621 326.757,-139.269 330.069,-145.436"/>
</g>
<!-- Node18&#45;&gt;Node8 -->
<g id="edge68" class="edge"><title>Node18&#45;&gt;Node8</title>
<path fill="none" stroke="midnightblue" d="M1236.25,-174.489C1228.74,-159.107 1212.6,-130.702 1190,-116 1162.42,-98.0617 1073.66,-82.6506 1020.45,-74.7179"/>
<polygon fill="midnightblue" stroke="midnightblue" points="1020.71,-71.219 1010.31,-73.2325 1019.7,-78.1451 1020.71,-71.219"/>
</g>
<!-- Node18&#45;&gt;Node11 -->
<g id="edge70" class="edge"><title>Node18&#45;&gt;Node11</title>
<path fill="none" stroke="midnightblue" d="M1203.48,-179.333C1131.2,-168.416 973.188,-144.549 898.144,-133.214"/>
<polygon fill="midnightblue" stroke="midnightblue" points="898.534,-129.734 888.123,-131.701 897.488,-136.655 898.534,-129.734"/>
</g>
<!-- Node19&#45;&gt;Node8 -->
<g id="edge74" class="edge"><title>Node19&#45;&gt;Node8</title>
<path fill="none" stroke="midnightblue" d="M1378.52,-174.478C1368.24,-158.811 1346.62,-129.728 1320,-116 1268.47,-89.4268 1099.15,-76.1348 1020.2,-71.2571"/>
<polygon fill="midnightblue" stroke="midnightblue" points="1020.33,-67.7584 1010.14,-70.6506 1019.91,-74.7457 1020.33,-67.7584"/>
</g>
<!-- Node19&#45;&gt;Node11 -->
<g id="edge76" class="edge"><title>Node19&#45;&gt;Node11</title>
<path fill="none" stroke="midnightblue" d="M1333.89,-179.234C1318.79,-177.539 1302.23,-175.687 1287,-174 1144.25,-158.187 974.791,-139.769 898.208,-131.464"/>
<polygon fill="midnightblue" stroke="midnightblue" points="898.35,-127.959 888.031,-130.36 897.595,-134.918 898.35,-127.959"/>
</g>
<!-- Node20&#45;&gt;Node8 -->
<g id="edge82" class="edge"><title>Node20&#45;&gt;Node8</title>
<path fill="none" stroke="midnightblue" d="M1358.78,-348.461C1352.1,-318.653 1329.98,-232.137 1287,-174 1262.57,-140.957 1252.22,-133.404 1215,-116 1151.18,-86.1629 1069.04,-75.2405 1020.41,-71.2606"/>
<polygon fill="midnightblue" stroke="midnightblue" points="1020.5,-67.7575 1010.26,-70.4919 1019.97,-74.7375 1020.5,-67.7575"/>
</g>
<!-- Node21&#45;&gt;Node8 -->
<g id="edge88" class="edge"><title>Node21&#45;&gt;Node8</title>
<path fill="none" stroke="midnightblue" d="M1432.4,-123.294C1416.95,-121.093 1396.86,-118.292 1379,-116 1248.12,-99.2005 1092.83,-81.628 1020.24,-73.5517"/>
<polygon fill="midnightblue" stroke="midnightblue" points="1020.47,-70.0557 1010.15,-72.4302 1019.7,-77.0129 1020.47,-70.0557"/>
</g>
<!-- Node22&#45;&gt;Node8 -->
<g id="edge92" class="edge"><title>Node22&#45;&gt;Node8</title>
<path fill="none" stroke="midnightblue" d="M1012.59,-174.295C1006.45,-155.045 993.446,-114.289 985.542,-89.5091"/>
<polygon fill="midnightblue" stroke="midnightblue" points="988.78,-88.1427 982.406,-79.6792 982.111,-90.2699 988.78,-88.1427"/>
</g>
<!-- Node22&#45;&gt;Node11 -->
<g id="edge94" class="edge"><title>Node22&#45;&gt;Node11</title>
<path fill="none" stroke="midnightblue" d="M987.206,-174.497C961.509,-165.123 923.682,-151.324 895.413,-141.012"/>
<polygon fill="midnightblue" stroke="midnightblue" points="896.442,-137.662 885.848,-137.523 894.043,-144.238 896.442,-137.662"/>
</g>
<!-- Node23&#45;&gt;Node5 -->
<g id="edge98" class="edge"><title>Node23&#45;&gt;Node5</title>
<path fill="none" stroke="midnightblue" d="M90.2801,-232.159C91.9957,-218.498 95.3695,-194.344 100,-174 101.997,-165.226 104.731,-155.686 107.254,-147.508"/>
<polygon fill="midnightblue" stroke="midnightblue" points="110.671,-148.311 110.368,-137.72 104,-146.189 110.671,-148.311"/>
</g>
<!-- Node24&#45;&gt;Node4 -->
<g id="edge106" class="edge"><title>Node24&#45;&gt;Node4</title>
<path fill="none" stroke="midnightblue" d="M351.611,-348.497C399.884,-338.673 472.04,-323.988 523.326,-313.551"/>
<polygon fill="midnightblue" stroke="midnightblue" points="524.191,-316.947 533.292,-311.523 522.795,-310.088 524.191,-316.947"/>
</g>
<!-- Node24&#45;&gt;Node6 -->
<g id="edge104" class="edge"><title>Node24&#45;&gt;Node6</title>
<path fill="none" stroke="midnightblue" d="M306.294,-348.228C320.872,-324.146 359.302,-265.444 406,-232 428.788,-215.68 457.978,-204.169 482.092,-196.624"/>
<polygon fill="midnightblue" stroke="midnightblue" points="483.168,-199.956 491.74,-193.729 481.156,-193.251 483.168,-199.956"/>
</g>
<!-- Node24&#45;&gt;Node14 -->
<g id="edge108" class="edge"><title>Node24&#45;&gt;Node14</title>
<path fill="none" stroke="midnightblue" d="M299.908,-348.295C299.743,-329.131 299.394,-288.654 299.18,-263.843"/>
<polygon fill="midnightblue" stroke="midnightblue" points="302.678,-263.649 299.092,-253.679 295.678,-263.709 302.678,-263.649"/>
</g>
<!-- Node25&#45;&gt;Node4 -->
<g id="edge114" class="edge"><title>Node25&#45;&gt;Node4</title>
<path fill="none" stroke="midnightblue" d="M480.999,-348.497C501.013,-339.356 530.241,-326.008 552.619,-315.788"/>
<polygon fill="midnightblue" stroke="midnightblue" points="554.101,-318.959 561.743,-311.621 551.193,-312.592 554.101,-318.959"/>
</g>
<!-- Node25&#45;&gt;Node6 -->
<g id="edge112" class="edge"><title>Node25&#45;&gt;Node6</title>
<path fill="none" stroke="midnightblue" d="M462.273,-348.377C473.669,-320.051 504.929,-242.349 519.857,-205.242"/>
<polygon fill="midnightblue" stroke="midnightblue" points="523.119,-206.511 523.604,-195.928 516.624,-203.899 523.119,-206.511"/>
</g>
<!-- Node25&#45;&gt;Node14 -->
<g id="edge116" class="edge"><title>Node25&#45;&gt;Node14</title>
<path fill="none" stroke="midnightblue" d="M443.327,-348.295C415.521,-328.009 354.979,-283.84 321.827,-259.653"/>
<polygon fill="midnightblue" stroke="midnightblue" points="323.779,-256.746 313.638,-253.679 319.654,-262.401 323.779,-256.746"/>
</g>
<!-- Node26&#45;&gt;Node8 -->
<g id="edge120" class="edge"><title>Node26&#45;&gt;Node8</title>
<path fill="none" stroke="midnightblue" d="M1096.1,-174.295C1073.82,-154.268 1025.67,-110.964 998.561,-86.5893"/>
<polygon fill="midnightblue" stroke="midnightblue" points="1000.65,-83.7632 990.876,-79.6792 995.972,-88.9682 1000.65,-83.7632"/>
</g>
<!-- Node26&#45;&gt;Node11 -->
<g id="edge122" class="edge"><title>Node26&#45;&gt;Node11</title>
<path fill="none" stroke="midnightblue" d="M1067.95,-175.746C1021.4,-164.989 944.984,-147.331 898.023,-136.479"/>
<polygon fill="midnightblue" stroke="midnightblue" points="898.716,-133.047 888.185,-134.206 897.14,-139.868 898.716,-133.047"/>
</g>
<!-- Node27&#45;&gt;Node8 -->
<g id="edge126" class="edge"><title>Node27&#45;&gt;Node8</title>
<path fill="none" stroke="midnightblue" d="M1511.5,-174.419C1511.6,-158.949 1509.25,-130.432 1492,-116 1456.12,-85.9814 1136.25,-73.6369 1020.54,-70.1276"/>
<polygon fill="midnightblue" stroke="midnightblue" points="1020.41,-66.6224 1010.31,-69.8245 1020.2,-73.6194 1020.41,-66.6224"/>
</g>
<!-- Node27&#45;&gt;Node11 -->
<g id="edge128" class="edge"><title>Node27&#45;&gt;Node11</title>
<path fill="none" stroke="midnightblue" d="M1491.71,-181.339C1478.59,-178.958 1460.8,-175.944 1445,-174 1240.49,-148.831 994.223,-134.192 898.173,-129.079"/>
<polygon fill="midnightblue" stroke="midnightblue" points="898.185,-125.574 888.014,-128.544 897.816,-132.565 898.185,-125.574"/>
</g>
<!-- Node27&#45;&gt;Node21 -->
<g id="edge130" class="edge"><title>Node27&#45;&gt;Node21</title>
<path fill="none" stroke="midnightblue" d="M1501.28,-174.362C1493.81,-166.186 1483.31,-154.702 1474.53,-145.091"/>
<polygon fill="midnightblue" stroke="midnightblue" points="1476.99,-142.592 1467.66,-137.571 1471.82,-147.314 1476.99,-142.592"/>
</g>
<!-- Node28&#45;&gt;Node4 -->
<g id="edge134" class="edge"><title>Node28&#45;&gt;Node4</title>
<path fill="none" stroke="midnightblue" d="M594.799,-348.362C593.243,-340.84 591.107,-330.519 589.227,-321.431"/>
<polygon fill="midnightblue" stroke="midnightblue" points="592.641,-320.654 587.187,-311.571 585.786,-322.072 592.641,-320.654"/>
</g>
<!-- Node29&#45;&gt;Node2 -->
<g id="edge140" class="edge"><title>Node29&#45;&gt;Node2</title>
<path fill="none" stroke="midnightblue" d="M977.853,-406.475C1018.48,-397.368 1078.25,-383.563 1130,-370 1131.06,-369.721 1132.14,-369.435 1133.23,-369.142"/>
<polygon fill="midnightblue" stroke="midnightblue" points="1134.41,-372.446 1143.11,-366.401 1132.54,-365.701 1134.41,-372.446"/>
</g>
<!-- Node29&#45;&gt;Node4 -->
<g id="edge152" class="edge"><title>Node29&#45;&gt;Node4</title>
<path fill="none" stroke="midnightblue" d="M866.243,-406.487C824.976,-398.704 770.472,-386.572 724,-370 683.367,-355.51 639.185,-332.153 611.789,-316.689"/>
<polygon fill="midnightblue" stroke="midnightblue" points="613.252,-313.494 602.833,-311.576 609.782,-319.573 613.252,-313.494"/>
</g>
<!-- Node29&#45;&gt;Node6 -->
<g id="edge146" class="edge"><title>Node29&#45;&gt;Node6</title>
<path fill="none" stroke="midnightblue" d="M867.266,-406.493C833.366,-399.23 791.505,-387.631 757,-370 745.228,-363.985 602.863,-246.819 548.718,-202.123"/>
<polygon fill="midnightblue" stroke="midnightblue" points="550.759,-199.269 540.819,-195.6 546.301,-204.666 550.759,-199.269"/>
</g>
<!-- Node29&#45;&gt;Node8 -->
<g id="edge148" class="edge"><title>Node29&#45;&gt;Node8</title>
<path fill="none" stroke="midnightblue" d="M975.119,-406.41C1008.19,-397.628 1048.99,-384.304 1059,-370 1064.61,-361.99 1061.98,-357.313 1059,-348 1058.02,-344.946 993.671,-256.736 992,-254 976.873,-229.232 969.346,-224.077 962,-196 952.997,-161.592 953.21,-150.913 960,-116 961.792,-106.787 965.388,-97.0938 968.974,-88.9193"/>
<polygon fill="midnightblue" stroke="midnightblue" points="972.156,-90.3768 973.221,-79.8357 965.815,-87.4117 972.156,-90.3768"/>
</g>
<!-- Node29&#45;&gt;Node12 -->
<g id="edge154" class="edge"><title>Node29&#45;&gt;Node12</title>
<path fill="none" stroke="midnightblue" d="M907.641,-406.357C893.252,-398.351 875.366,-386.017 865,-370 807.791,-281.602 827.722,-242.748 817,-138 816.004,-128.273 815.977,-125.724 817,-116 817.922,-107.232 819.788,-97.6925 821.66,-89.5135"/>
<polygon fill="midnightblue" stroke="midnightblue" points="825.078,-90.2687 824.047,-79.7243 818.277,-88.6106 825.078,-90.2687"/>
</g>
<!-- Node29&#45;&gt;Node20 -->
<g id="edge150" class="edge"><title>Node29&#45;&gt;Node20</title>
<path fill="none" stroke="midnightblue" d="M994.06,-408.379C1081.47,-396.616 1236.1,-375.807 1313.74,-365.359"/>
<polygon fill="midnightblue" stroke="midnightblue" points="1314.28,-368.819 1323.72,-364.017 1313.34,-361.882 1314.28,-368.819"/>
</g>
<!-- Node29&#45;&gt;Node28 -->
<g id="edge156" class="edge"><title>Node29&#45;&gt;Node28</title>
<path fill="none" stroke="midnightblue" d="M869.696,-406.497C805.161,-395.256 704.094,-377.653 644.819,-367.329"/>
<polygon fill="midnightblue" stroke="midnightblue" points="645.064,-363.819 634.611,-365.551 643.862,-370.715 645.064,-363.819"/>
</g>
<!-- Node30 -->
<g id="node99" class="node"><title>Node30</title>
<polygon fill="none" stroke="#bfbfbf" points="1004,-348.5 1004,-369.5 1050,-369.5 1050,-348.5 1004,-348.5"/>
<text text-anchor="middle" x="1027" y="-356.5" font-family="Helvetica,sans-Serif" font-size="10.00">stdio.h</text>
</g>
<!-- Node29&#45;&gt;Node30 -->
<g id="edge138" class="edge"><title>Node29&#45;&gt;Node30</title>
<path fill="none" stroke="midnightblue" d="M947.791,-406.362C962.559,-397.532 983.778,-384.844 1000.54,-374.822"/>
<polygon fill="midnightblue" stroke="midnightblue" points="1002.53,-377.707 1009.32,-369.571 998.943,-371.699 1002.53,-377.707"/>
</g>
<!-- Node31 -->
<g id="node102" class="node"><title>Node31</title>
<polygon fill="none" stroke="#bfbfbf" points="874,-348.5 874,-369.5 922,-369.5 922,-348.5 874,-348.5"/>
<text text-anchor="middle" x="898" y="-356.5" font-family="Helvetica,sans-Serif" font-size="10.00">stdlib.h</text>
</g>
<!-- Node29&#45;&gt;Node31 -->
<g id="edge142" class="edge"><title>Node29&#45;&gt;Node31</title>
<path fill="none" stroke="midnightblue" d="M924.131,-406.362C919.845,-398.595 913.913,-387.843 908.784,-378.546"/>
<polygon fill="midnightblue" stroke="midnightblue" points="911.727,-376.636 903.832,-369.571 905.598,-380.017 911.727,-376.636"/>
</g>
<!-- Node32 -->
<g id="node104" class="node"><title>Node32</title>
<polygon fill="none" stroke="#bfbfbf" points="939.5,-348.5 939.5,-369.5 986.5,-369.5 986.5,-348.5 939.5,-348.5"/>
<text text-anchor="middle" x="963" y="-356.5" font-family="Helvetica,sans-Serif" font-size="10.00">errno.h</text>
</g>
<!-- Node29&#45;&gt;Node32 -->
<g id="edge144" class="edge"><title>Node29&#45;&gt;Node32</title>
<path fill="none" stroke="midnightblue" d="M936.053,-406.362C940.472,-398.595 946.59,-387.843 951.879,-378.546"/>
<polygon fill="midnightblue" stroke="midnightblue" points="955.082,-379.993 956.986,-369.571 948.998,-376.531 955.082,-379.993"/>
</g>
<!-- Node33 -->
<g id="node112" class="node"><title>Node33</title>
<a xlink:href="../../d1/d84/socket__timer_8h.html" target="_top" xlink:title="socket_timer.h">
<polygon fill="none" stroke="black" points="1042.5,-290.5 1042.5,-311.5 1123.5,-311.5 1123.5,-290.5 1042.5,-290.5"/>
<text text-anchor="middle" x="1083" y="-298.5" font-family="Helvetica,sans-Serif" font-size="10.00">socket_timer.h</text>
</a>
</g>
<!-- Node29&#45;&gt;Node33 -->
<g id="edge158" class="edge"><title>Node29&#45;&gt;Node33</title>
<path fill="none" stroke="midnightblue" d="M994.227,-406.459C1034.07,-398.462 1079.91,-386.098 1092,-370 1102.49,-356.03 1098.26,-335.823 1092.59,-320.884"/>
<polygon fill="midnightblue" stroke="midnightblue" points="1095.74,-319.35 1088.59,-311.525 1089.3,-322.096 1095.74,-319.35"/>
</g>
<!-- Node33&#45;&gt;Node8 -->
<g id="edge160" class="edge"><title>Node33&#45;&gt;Node8</title>
<path fill="none" stroke="midnightblue" d="M1064.61,-290.284C1038.48,-273.851 991.695,-239.69 973,-196 958.032,-161.019 965.941,-115.566 972.706,-89.6036"/>
<polygon fill="midnightblue" stroke="midnightblue" points="976.137,-90.3309 975.465,-79.7574 969.396,-88.4421 976.137,-90.3309"/>
</g>
<!-- Node34&#45;&gt;Node4 -->
<g id="edge172" class="edge"><title>Node34&#45;&gt;Node4</title>
<path fill="none" stroke="midnightblue" d="M765.362,-351.536C731.871,-342.152 673.782,-325.876 632.583,-314.332"/>
<polygon fill="midnightblue" stroke="midnightblue" points="633.334,-310.908 622.76,-311.58 631.445,-317.648 633.334,-310.908"/>
</g>
<!-- Node34&#45;&gt;Node8 -->
<g id="edge168" class="edge"><title>Node34&#45;&gt;Node8</title>
<path fill="none" stroke="midnightblue" d="M818.725,-351.191C896.087,-327.991 1117.25,-257.282 1157,-196 1195.43,-136.745 1083.99,-96.5406 1020.22,-78.9928"/>
<polygon fill="midnightblue" stroke="midnightblue" points="1020.99,-75.5755 1010.42,-76.3715 1019.18,-82.3376 1020.99,-75.5755"/>
</g>
<!-- Node34&#45;&gt;Node11 -->
<g id="edge170" class="edge"><title>Node34&#45;&gt;Node11</title>
<path fill="none" stroke="midnightblue" d="M793.337,-348.308C796.244,-326.261 803.866,-274.273 816,-232 824.73,-201.587 838.787,-167.707 847.96,-146.871"/>
<polygon fill="midnightblue" stroke="midnightblue" points="851.26,-148.065 852.142,-137.506 844.868,-145.21 851.26,-148.065"/>
</g>
</g>
</svg>
        <g id="navigator" transform="translate(0 0)" fill="#404254">
                <rect fill="#f2f5e9" fill-opacity="0.5" stroke="#606060" stroke-width=".5" x="0" y="0" width="60" height="60"/>
                <use id="zoomplus" xlink:href="#zoomPlus" x="17" y="9" onmousedown="handleZoom(evt,'in')"/>
                <use id="zoomminus" xlink:href="#zoomMin" x="42" y="9" onmousedown="handleZoom(evt,'out')"/>
                <use id="reset" xlink:href="#resetDef" x="30" y="36" onmousedown="handleReset()"/>
                <g id="arrowUp" xlink:href="#dirArrow" transform="translate(30 24)" onmousedown="handlePan(0,-1)">
                  <use xlink:href="#rim" fill="#404040">
                        <set attributeName="fill" to="#808080" begin="arrowUp.mouseover" end="arrowUp.mouseout"/>
                  </use>
                  <path fill="none" stroke="white" stroke-width="1.5" d="M0,-3.0v7 M-2.5,-0.5L0,-3.0L2.5,-0.5"/>
                </g>
                <g id="arrowRight" xlink:href="#dirArrow" transform="rotate(90) translate(36 -43)" onmousedown="handlePan(1,0)">
                  <use xlink:href="#rim" fill="#404040">
                        <set attributeName="fill" to="#808080" begin="arrowRight.mouseover" end="arrowRight.mouseout"/>
                  </use>
                  <path fill="none" stroke="white" stroke-width="1.5" d="M0,-3.0v7 M-2.5,-0.5L0,-3.0L2.5,-0.5"/>
                </g>
                <g id="arrowDown" xlink:href="#dirArrow" transform="rotate(180) translate(-30 -48)" onmousedown="handlePan(0,1)">
                  <use xlink:href="#rim" fill="#404040">
                        <set attributeName="fill" to="#808080" begin="arrowDown.mouseover" end="arrowDown.mouseout"/>
                  </use>
                  <path fill="none" stroke="white" stroke-width="1.5" d="M0,-3.0v7 M-2.5,-0.5L0,-3.0L2.5,-0.5"/>
                </g>
                <g id="arrowLeft" xlink:href="#dirArrow" transform="rotate(270) translate(-36 17)" onmousedown="handlePan(-1,0)">
                  <use xlink:href="#rim" fill="#404040">
                        <set attributeName="fill" to="#808080" begin="arrowLeft.mouseover" end="arrowLeft.mouseout"/>
                  </use>
                  <path fill="none" stroke="white" stroke-width="1.5" d="M0,-3.0v7 M-2.5,-0.5L0,-3.0L2.5,-0.5"/>
                </g>
        </g>
</svg>
