<?xml version="1.0" encoding="UTF-8" standalone="no"?>
<!DOCTYPE svg PUBLIC "-//W3C//DTD SVG 1.1//EN"
 "http://www.w3.org/Graphics/SVG/1.1/DTD/svg11.dtd">
<!-- Generated by graphviz version 2.36.0 (20140111.2315)
 -->
<!-- Title: src/cip/cipconnectionmanager.c Pages: 1 -->
<svg width="1551pt" height="476pt"
 viewBox="0.00 0.00 1551.11 476.00" xmlns="http://www.w3.org/2000/svg" xmlns:xlink="http://www.w3.org/1999/xlink">
<g id="graph0" class="graph" transform="scale(1 1) rotate(0) translate(4 472)">
<title>src/cip/cipconnectionmanager.c</title>
<!-- Node1 -->
<g id="node1" class="node"><title>Node1</title>
<polygon fill="#bfbfbf" stroke="black" points="593.612,-448.5 593.612,-467.5 748.612,-467.5 748.612,-448.5 593.612,-448.5"/>
<text text-anchor="middle" x="671.112" y="-455.5" font-family="Helvetica,sans-Serif" font-size="10.00">src/cip/cipconnectionmanager.c</text>
</g>
<!-- Node2 -->
<g id="node2" class="node"><title>Node2</title>
<polygon fill="none" stroke="#bfbfbf" points="1015.61,-336.5 1015.61,-355.5 1064.61,-355.5 1064.61,-336.5 1015.61,-336.5"/>
<text text-anchor="middle" x="1040.11" y="-343.5" font-family="Helvetica,sans-Serif" font-size="10.00">string.h</text>
</g>
<!-- Node1&#45;&gt;Node2 -->
<g id="edge1" class="edge"><title>Node1&#45;&gt;Node2</title>
<path fill="none" stroke="midnightblue" d="M748.798,-454.082C833.037,-449.597 960.865,-438.539 1001.11,-412 1017.56,-401.157 1028.1,-380.774 1034.03,-365.713"/>
<polygon fill="midnightblue" stroke="midnightblue" points="1037.46,-366.494 1037.54,-355.9 1030.87,-364.134 1037.46,-366.494"/>
</g>
<!-- Node3 -->
<g id="node3" class="node"><title>Node3</title>
<polygon fill="none" stroke="#bfbfbf" points="153.112,-0.5 153.112,-19.5 209.112,-19.5 209.112,-0.5 153.112,-0.5"/>
<text text-anchor="middle" x="181.112" y="-7.5" font-family="Helvetica,sans-Serif" font-size="10.00">stdbool.h</text>
</g>
<!-- Node1&#45;&gt;Node3 -->
<g id="edge2" class="edge"><title>Node1&#45;&gt;Node3</title>
<path fill="none" stroke="midnightblue" d="M593.35,-456.538C430.262,-454.871 63.8526,-447.207 20.1116,-412 -3.33483,-393.128 1.11161,-377.098 1.11161,-347 1.11161,-347 1.11161,-347 1.11161,-121 1.11161,-55.0781 90.1009,-27.4765 142.938,-16.8981"/>
<polygon fill="midnightblue" stroke="midnightblue" points="143.808,-20.2958 152.987,-15.0031 142.511,-13.417 143.808,-20.2958"/>
</g>
<!-- Node4 -->
<g id="node4" class="node"><title>Node4</title>
<g id="a_node4"><a xlink:href="../../d2/da3/cipconnectionmanager_8h.html" target="_top" xlink:title="cipconnectionmanager.h">
<polygon fill="none" stroke="black" points="527.112,-280.5 527.112,-299.5 649.112,-299.5 649.112,-280.5 527.112,-280.5"/>
<text text-anchor="middle" x="588.112" y="-287.5" font-family="Helvetica,sans-Serif" font-size="10.00">cipconnectionmanager.h</text>
</a>
</g>
</g>
<!-- Node1&#45;&gt;Node4 -->
<g id="edge3" class="edge"><title>Node1&#45;&gt;Node4</title>
<path fill="none" stroke="midnightblue" d="M654.159,-448.337C627.413,-433.587 576.383,-400.784 556.112,-356 548.466,-339.109 560.235,-320.119 571.595,-307.047"/>
<polygon fill="midnightblue" stroke="midnightblue" points="574.154,-309.435 578.438,-299.745 569.047,-304.648 574.154,-309.435"/>
</g>
<!-- Node5 -->
<g id="node5" class="node"><title>Node5</title>
<polygon fill="none" stroke="#bfbfbf" points="320.112,-0.5 320.112,-19.5 422.112,-19.5 422.112,-0.5 320.112,-0.5"/>
<text text-anchor="middle" x="371.112" y="-7.5" font-family="Helvetica,sans-Serif" font-size="10.00">opener_user_conf.h</text>
</g>
<!-- Node1&#45;&gt;Node5 -->
<g id="edge35" class="edge"><title>Node1&#45;&gt;Node5</title>
<path fill="none" stroke="midnightblue" d="M593.327,-456.849C470.594,-455.49 238.417,-448.049 165.112,-412 129.832,-394.651 105.112,-386.315 105.112,-347 105.112,-347 105.112,-347 105.112,-177 105.112,-80.9472 231.486,-38.4416 310.023,-21.3002"/>
<polygon fill="midnightblue" stroke="midnightblue" points="310.759,-24.7221 319.824,-19.2378 309.318,-17.8721 310.759,-24.7221"/>
</g>
<!-- Node6 -->
<g id="node6" class="node"><title>Node6</title>
<g id="a_node6"><a xlink:href="../../d4/d38/opener__api_8h.html" target="_top" xlink:title="opener_api.h">
<polygon fill="none" stroke="black" points="475.112,-168.5 475.112,-187.5 547.112,-187.5 547.112,-168.5 475.112,-168.5"/>
<text text-anchor="middle" x="511.112" y="-175.5" font-family="Helvetica,sans-Serif" font-size="10.00">opener_api.h</text>
</a>
</g>
</g>
<!-- Node1&#45;&gt;Node6 -->
<g id="edge45" class="edge"><title>Node1&#45;&gt;Node6</title>
<path fill="none" stroke="midnightblue" d="M625.921,-448.5C574.96,-435.993 499.112,-407.258 499.112,-347 499.112,-347 499.112,-347 499.112,-289 499.112,-256.758 504.269,-219.512 507.822,-197.681"/>
<polygon fill="midnightblue" stroke="midnightblue" points="511.323,-197.967 509.543,-187.523 504.422,-196.798 511.323,-197.967"/>
</g>
<!-- Node14 -->
<g id="node14" class="node"><title>Node14</title>
<g id="a_node14"><a xlink:href="../../d6/d52/ciperror_8h.html" target="_top" xlink:title="ciperror.h">
<polygon fill="none" stroke="black" points="545.612,-112.5 545.612,-131.5 602.612,-131.5 602.612,-112.5 545.612,-112.5"/>
<text text-anchor="middle" x="574.112" y="-119.5" font-family="Helvetica,sans-Serif" font-size="10.00">ciperror.h</text>
</a>
</g>
</g>
<!-- Node1&#45;&gt;Node14 -->
<g id="edge42" class="edge"><title>Node1&#45;&gt;Node14</title>
<path fill="none" stroke="midnightblue" d="M671.727,-448.303C673.31,-422.194 676.222,-342.44 658.112,-280 642.174,-225.051 605.376,-167.495 586.211,-139.821"/>
<polygon fill="midnightblue" stroke="midnightblue" points="589.062,-137.79 580.443,-131.629 583.338,-141.82 589.062,-137.79"/>
</g>
<!-- Node15 -->
<g id="node15" class="node"><title>Node15</title>
<g id="a_node15"><a xlink:href="../../d1/d6c/cipconnectionobject_8h.html" target="_top" xlink:title="cipconnectionobject.h">
<polygon fill="none" stroke="black" points="243.612,-224.5 243.612,-243.5 354.612,-243.5 354.612,-224.5 243.612,-224.5"/>
<text text-anchor="middle" x="299.112" y="-231.5" font-family="Helvetica,sans-Serif" font-size="10.00">cipconnectionobject.h</text>
</a>
</g>
</g>
<!-- Node1&#45;&gt;Node15 -->
<g id="edge54" class="edge"><title>Node1&#45;&gt;Node15</title>
<path fill="none" stroke="midnightblue" d="M593.181,-450.898C479.843,-440.142 278.589,-413.291 238.112,-356 213.368,-320.978 254.784,-274.487 280.691,-250.613"/>
<polygon fill="midnightblue" stroke="midnightblue" points="283.314,-252.964 288.454,-243.699 278.658,-247.736 283.314,-252.964"/>
</g>
<!-- Node17 -->
<g id="node17" class="node"><title>Node17</title>
<g id="a_node17"><a xlink:href="../../d0/d23/cipelectronickey_8h.html" target="_top" xlink:title="cipelectronickey.h">
<polygon fill="none" stroke="black" points="171.612,-112.5 171.612,-131.5 266.612,-131.5 266.612,-112.5 171.612,-112.5"/>
<text text-anchor="middle" x="219.112" y="-119.5" font-family="Helvetica,sans-Serif" font-size="10.00">cipelectronickey.h</text>
</a>
</g>
</g>
<!-- Node1&#45;&gt;Node17 -->
<g id="edge86" class="edge"><title>Node1&#45;&gt;Node17</title>
<path fill="none" stroke="midnightblue" d="M593.263,-455.487C480.296,-452.268 277.206,-442.327 211.112,-412 173.112,-394.564 143.112,-388.808 143.112,-347 143.112,-347 143.112,-347 143.112,-233 143.112,-202.902 145.28,-192.952 162.112,-168 170.512,-155.546 183.441,-144.937 194.862,-137.153"/>
<polygon fill="midnightblue" stroke="midnightblue" points="197.072,-139.893 203.584,-131.535 193.282,-134.008 197.072,-139.893"/>
</g>
<!-- Node18 -->
<g id="node18" class="node"><title>Node18</title>
<g id="a_node18"><a xlink:href="../../d1/d02/cipepath_8h.html" target="_top" xlink:title="cipepath.h">
<polygon fill="none" stroke="black" points="171.112,-168.5 171.112,-187.5 233.112,-187.5 233.112,-168.5 171.112,-168.5"/>
<text text-anchor="middle" x="202.112" y="-175.5" font-family="Helvetica,sans-Serif" font-size="10.00">cipepath.h</text>
</a>
</g>
</g>
<!-- Node1&#45;&gt;Node18 -->
<g id="edge85" class="edge"><title>Node1&#45;&gt;Node18</title>
<path fill="none" stroke="midnightblue" d="M593.47,-455.468C455.303,-450.62 181.112,-430.481 181.112,-347 181.112,-347 181.112,-347 181.112,-289 181.112,-256.384 190.129,-219.278 196.346,-197.573"/>
<polygon fill="midnightblue" stroke="midnightblue" points="199.777,-198.315 199.279,-187.732 193.069,-196.316 199.777,-198.315"/>
</g>
<!-- Node19 -->
<g id="node19" class="node"><title>Node19</title>
<g id="a_node19"><a xlink:href="../../db/d14/cipcommon_8h.html" target="_top" xlink:title="cipcommon.h">
<polygon fill="none" stroke="black" points="1005.61,-168.5 1005.61,-187.5 1080.61,-187.5 1080.61,-168.5 1005.61,-168.5"/>
<text text-anchor="middle" x="1043.11" y="-175.5" font-family="Helvetica,sans-Serif" font-size="10.00">cipcommon.h</text>
</a>
</g>
</g>
<!-- Node1&#45;&gt;Node19 -->
<g id="edge36" class="edge"><title>Node1&#45;&gt;Node19</title>
<path fill="none" stroke="midnightblue" d="M749.025,-453.692C790.526,-448.749 840.769,-437.411 879.112,-412 963.093,-356.343 1017.25,-241.765 1035.88,-197.249"/>
<polygon fill="midnightblue" stroke="midnightblue" points="1039.14,-198.542 1039.68,-187.96 1032.66,-195.895 1039.14,-198.542"/>
</g>
<!-- Node20 -->
<g id="node20" class="node"><title>Node20</title>
<g id="a_node20"><a xlink:href="../../d2/d75/cipmessagerouter_8h.html" target="_top" xlink:title="cipmessagerouter.h">
<polygon fill="none" stroke="black" points="1098.11,-168.5 1098.11,-187.5 1200.11,-187.5 1200.11,-168.5 1098.11,-168.5"/>
<text text-anchor="middle" x="1149.11" y="-175.5" font-family="Helvetica,sans-Serif" font-size="10.00">cipmessagerouter.h</text>
</a>
</g>
</g>
<!-- Node1&#45;&gt;Node20 -->
<g id="edge39" class="edge"><title>Node1&#45;&gt;Node20</title>
<path fill="none" stroke="midnightblue" d="M748.816,-453.267C796.438,-448.342 857.394,-437.165 906.112,-412 960.978,-383.659 1090.83,-243.351 1134.5,-195.23"/>
<polygon fill="midnightblue" stroke="midnightblue" points="1137.28,-197.368 1141.4,-187.603 1132.09,-192.672 1137.28,-197.368"/>
</g>
<!-- Node21 -->
<g id="node21" class="node"><title>Node21</title>
<g id="a_node21"><a xlink:href="../../d0/dec/endianconv_8h.html" target="_top" xlink:title="Responsible for Endianess conversion. ">
<polygon fill="none" stroke="black" points="1469.11,-336.5 1469.11,-355.5 1543.11,-355.5 1543.11,-336.5 1469.11,-336.5"/>
<text text-anchor="middle" x="1506.11" y="-343.5" font-family="Helvetica,sans-Serif" font-size="10.00">endianconv.h</text>
</a>
</g>
</g>
<!-- Node1&#45;&gt;Node21 -->
<g id="edge43" class="edge"><title>Node1&#45;&gt;Node21</title>
<path fill="none" stroke="midnightblue" d="M748.749,-456.151C934.486,-453.608 1393.63,-444.117 1455.11,-412 1474.72,-401.757 1489.21,-380.266 1497.63,-364.797"/>
<polygon fill="midnightblue" stroke="midnightblue" points="1500.86,-366.177 1502.29,-355.679 1494.62,-362.996 1500.86,-366.177"/>
</g>
<!-- Node22 -->
<g id="node22" class="node"><title>Node22</title>
<g id="a_node22"><a xlink:href="../../d7/df9/encap_8h.html" target="_top" xlink:title="This file contains the public interface of the encapsulation layer. ">
<polygon fill="none" stroke="black" points="799.612,-280.5 799.612,-299.5 850.612,-299.5 850.612,-280.5 799.612,-280.5"/>
<text text-anchor="middle" x="825.112" y="-287.5" font-family="Helvetica,sans-Serif" font-size="10.00">encap.h</text>
</a>
</g>
</g>
<!-- Node1&#45;&gt;Node22 -->
<g id="edge46" class="edge"><title>Node1&#45;&gt;Node22</title>
<path fill="none" stroke="midnightblue" d="M687.266,-448.427C714.12,-433.351 767.875,-399.517 797.112,-356 806.952,-341.353 814.563,-322.684 819.35,-309.115"/>
<polygon fill="midnightblue" stroke="midnightblue" points="822.713,-310.095 822.571,-299.501 816.076,-307.87 822.713,-310.095"/>
</g>
<!-- Node23 -->
<g id="node23" class="node"><title>Node23</title>
<g id="a_node23"><a xlink:href="../../dc/d72/cipidentity_8h.html" target="_top" xlink:title="cipidentity.h">
<polygon fill="none" stroke="black" points="1366.61,-168.5 1366.61,-187.5 1435.61,-187.5 1435.61,-168.5 1366.61,-168.5"/>
<text text-anchor="middle" x="1401.11" y="-175.5" font-family="Helvetica,sans-Serif" font-size="10.00">cipidentity.h</text>
</a>
</g>
</g>
<!-- Node1&#45;&gt;Node23 -->
<g id="edge49" class="edge"><title>Node1&#45;&gt;Node23</title>
<path fill="none" stroke="midnightblue" d="M748.824,-453.962C944.333,-445.288 1441.11,-416.418 1441.11,-347 1441.11,-347 1441.11,-347 1441.11,-289 1441.11,-254.617 1423.64,-217.631 1411.79,-196.503"/>
<polygon fill="midnightblue" stroke="midnightblue" points="1414.73,-194.607 1406.67,-187.731 1408.69,-198.133 1414.73,-194.607"/>
</g>
<!-- Node24 -->
<g id="node24" class="node"><title>Node24</title>
<g id="a_node24"><a xlink:href="../../d1/d1b/trace_8h.html" target="_top" xlink:title="Tracing infrastructure for OpENer. ">
<polygon fill="none" stroke="black" points="29.6116,-392.5 29.6116,-411.5 76.6116,-411.5 76.6116,-392.5 29.6116,-392.5"/>
<text text-anchor="middle" x="53.1116" y="-399.5" font-family="Helvetica,sans-Serif" font-size="10.00">trace.h</text>
</a>
</g>
</g>
<!-- Node1&#45;&gt;Node24 -->
<g id="edge52" class="edge"><title>Node1&#45;&gt;Node24</title>
<path fill="none" stroke="midnightblue" d="M593.27,-454.793C481.534,-450.759 269.48,-439.87 91.1116,-412 89.6463,-411.771 88.154,-411.516 86.6499,-411.24"/>
<polygon fill="midnightblue" stroke="midnightblue" points="87.2172,-407.783 76.7161,-409.189 85.802,-414.638 87.2172,-407.783"/>
</g>
<!-- Node25 -->
<g id="node25" class="node"><title>Node25</title>
<g id="a_node25"><a xlink:href="../../d2/d11/cipclass3connection_8h.html" target="_top" xlink:title="CIP Class 3 connection. ">
<polygon fill="none" stroke="black" points="357.612,-336.5 357.612,-355.5 470.612,-355.5 470.612,-336.5 357.612,-336.5"/>
<text text-anchor="middle" x="414.112" y="-343.5" font-family="Helvetica,sans-Serif" font-size="10.00">cipclass3connection.h</text>
</a>
</g>
</g>
<!-- Node1&#45;&gt;Node25 -->
<g id="edge55" class="edge"><title>Node1&#45;&gt;Node25</title>
<path fill="none" stroke="midnightblue" d="M600.092,-448.42C564.088,-441.982 520.594,-430.896 485.112,-412 462.177,-399.786 440.91,-378.431 427.746,-363.544"/>
<polygon fill="midnightblue" stroke="midnightblue" points="430.143,-360.963 420.98,-355.645 424.827,-365.517 430.143,-360.963"/>
</g>
<!-- Node26 -->
<g id="node26" class="node"><title>Node26</title>
<g id="a_node26"><a xlink:href="../../de/d45/cipioconnection_8h.html" target="_top" xlink:title="cipioconnection.h">
<polygon fill="none" stroke="black" points="247.112,-336.5 247.112,-355.5 339.112,-355.5 339.112,-336.5 247.112,-336.5"/>
<text text-anchor="middle" x="293.112" y="-343.5" font-family="Helvetica,sans-Serif" font-size="10.00">cipioconnection.h</text>
</a>
</g>
</g>
<!-- Node1&#45;&gt;Node26 -->
<g id="edge59" class="edge"><title>Node1&#45;&gt;Node26</title>
<path fill="none" stroke="midnightblue" d="M615.767,-448.448C571.282,-440.89 507.471,-428.501 453.112,-412 405.219,-397.461 351.752,-374.245 320.345,-359.85"/>
<polygon fill="midnightblue" stroke="midnightblue" points="321.504,-356.529 310.959,-355.508 318.566,-362.883 321.504,-356.529"/>
</g>
<!-- Node27 -->
<g id="node27" class="node"><title>Node27</title>
<g id="a_node27"><a xlink:href="../../de/df4/cipassembly_8h.html" target="_top" xlink:title="cipassembly.h">
<polygon fill="none" stroke="black" points="869.112,-168.5 869.112,-187.5 949.112,-187.5 949.112,-168.5 869.112,-168.5"/>
<text text-anchor="middle" x="909.112" y="-175.5" font-family="Helvetica,sans-Serif" font-size="10.00">cipassembly.h</text>
</a>
</g>
</g>
<!-- Node1&#45;&gt;Node27 -->
<g id="edge63" class="edge"><title>Node1&#45;&gt;Node27</title>
<path fill="none" stroke="midnightblue" d="M748.849,-450.563C783.509,-444.653 823.361,-433.395 854.112,-412 923.622,-363.639 917.329,-244.681 911.862,-198.123"/>
<polygon fill="midnightblue" stroke="midnightblue" points="915.297,-197.398 910.537,-187.933 908.356,-198.301 915.297,-197.398"/>
</g>
<!-- Node28 -->
<g id="node28" class="node"><title>Node28</title>
<g id="a_node28"><a xlink:href="../../d0/dff/cpf_8h.html" target="_top" xlink:title="cpf.h">
<polygon fill="none" stroke="black" points="845.112,-336.5 845.112,-355.5 883.112,-355.5 883.112,-336.5 845.112,-336.5"/>
<text text-anchor="middle" x="864.112" y="-343.5" font-family="Helvetica,sans-Serif" font-size="10.00">cpf.h</text>
</a>
</g>
</g>
<!-- Node1&#45;&gt;Node28 -->
<g id="edge66" class="edge"><title>Node1&#45;&gt;Node28</title>
<path fill="none" stroke="midnightblue" d="M748.412,-448.481C776.87,-442.15 807.809,-431.138 831.112,-412 845.608,-400.095 854.38,-380.186 859.197,-365.533"/>
<polygon fill="midnightblue" stroke="midnightblue" points="862.663,-366.153 862.139,-355.571 855.95,-364.17 862.663,-366.153"/>
</g>
<!-- Node29 -->
<g id="node29" class="node"><title>Node29</title>
<g id="a_node29"><a xlink:href="../../d1/dc0/appcontype_8h.html" target="_top" xlink:title="appcontype.h">
<polygon fill="none" stroke="black" points="565.612,-336.5 565.612,-355.5 640.612,-355.5 640.612,-336.5 565.612,-336.5"/>
<text text-anchor="middle" x="603.112" y="-343.5" font-family="Helvetica,sans-Serif" font-size="10.00">appcontype.h</text>
</a>
</g>
</g>
<!-- Node1&#45;&gt;Node29 -->
<g id="edge70" class="edge"><title>Node1&#45;&gt;Node29</title>
<path fill="none" stroke="midnightblue" d="M665.776,-448.368C654.603,-430.296 628.566,-388.176 613.811,-364.307"/>
<polygon fill="midnightblue" stroke="midnightblue" points="616.658,-362.257 608.423,-355.591 610.704,-365.938 616.658,-362.257"/>
</g>
<!-- Node30 -->
<g id="node30" class="node"><title>Node30</title>
<g id="a_node30"><a xlink:href="../../da/dc2/generic__networkhandler_8h.html" target="_top" xlink:title="generic_networkhandler.h">
<polygon fill="none" stroke="black" points="1113.11,-392.5 1113.11,-411.5 1241.11,-411.5 1241.11,-392.5 1113.11,-392.5"/>
<text text-anchor="middle" x="1177.11" y="-399.5" font-family="Helvetica,sans-Serif" font-size="10.00">generic_networkhandler.h</text>
</a>
</g>
</g>
<!-- Node1&#45;&gt;Node30 -->
<g id="edge72" class="edge"><title>Node1&#45;&gt;Node30</title>
<path fill="none" stroke="midnightblue" d="M748.789,-448.71C845.149,-438.427 1008.26,-421.02 1102.96,-410.914"/>
<polygon fill="midnightblue" stroke="midnightblue" points="1103.46,-414.38 1113.03,-409.839 1102.72,-407.42 1103.46,-414.38"/>
</g>
<!-- Node35 -->
<g id="node35" class="node"><title>Node35</title>
<g id="a_node35"><a xlink:href="../../d0/d3c/cipqos_8h.html" target="_top" xlink:title="Public interface of the QoS Object. ">
<polygon fill="none" stroke="black" points="735.612,-336.5 735.612,-355.5 788.612,-355.5 788.612,-336.5 735.612,-336.5"/>
<text text-anchor="middle" x="762.112" y="-343.5" font-family="Helvetica,sans-Serif" font-size="10.00">cipqos.h</text>
</a>
</g>
</g>
<!-- Node1&#45;&gt;Node35 -->
<g id="edge87" class="edge"><title>Node1&#45;&gt;Node35</title>
<path fill="none" stroke="midnightblue" d="M682.255,-448.468C692.961,-439.943 709.219,-426.109 721.112,-412 733.567,-397.224 745.053,-378.36 752.679,-364.764"/>
<polygon fill="midnightblue" stroke="midnightblue" points="755.783,-366.383 757.509,-355.93 749.641,-363.025 755.783,-366.383"/>
</g>
<!-- Node4&#45;&gt;Node5 -->
<g id="edge4" class="edge"><title>Node4&#45;&gt;Node5</title>
<path fill="none" stroke="midnightblue" d="M590.717,-280.318C599.98,-248.706 629.798,-140.137 611.112,-112 571.594,-52.4956 489.424,-27.9687 432.311,-17.9105"/>
<polygon fill="midnightblue" stroke="midnightblue" points="432.747,-14.4351 422.309,-16.2509 431.601,-21.3407 432.747,-14.4351"/>
</g>
<!-- Node4&#45;&gt;Node6 -->
<g id="edge5" class="edge"><title>Node4&#45;&gt;Node6</title>
<path fill="none" stroke="midnightblue" d="M582.07,-280.368C569.362,-262.215 539.673,-219.802 523.005,-195.99"/>
<polygon fill="midnightblue" stroke="midnightblue" points="525.728,-193.777 517.126,-187.591 519.993,-197.791 525.728,-193.777"/>
</g>
<!-- Node8 -->
<g id="node8" class="node"><title>Node8</title>
<g id="a_node8"><a xlink:href="../../d7/d69/typedefs_8h.html" target="_top" xlink:title="typedefs.h">
<polygon fill="none" stroke="black" points="919.112,-56.5 919.112,-75.5 981.112,-75.5 981.112,-56.5 919.112,-56.5"/>
<text text-anchor="middle" x="950.112" y="-63.5" font-family="Helvetica,sans-Serif" font-size="10.00">typedefs.h</text>
</a>
</g>
</g>
<!-- Node4&#45;&gt;Node8 -->
<g id="edge20" class="edge"><title>Node4&#45;&gt;Node8</title>
<path fill="none" stroke="midnightblue" d="M592.015,-280.141C605.531,-250.609 653.465,-154.973 725.112,-112 782.439,-77.6159 861.289,-68.9738 908.812,-67.1"/>
<polygon fill="midnightblue" stroke="midnightblue" points="909.148,-70.5914 919.034,-66.7828 908.931,-63.5948 909.148,-70.5914"/>
</g>
<!-- Node11 -->
<g id="node11" class="node"><title>Node11</title>
<g id="a_node11"><a xlink:href="../../df/d28/ciptypes_8h.html" target="_top" xlink:title="ciptypes.h">
<polygon fill="none" stroke="black" points="734.112,-112.5 734.112,-131.5 796.112,-131.5 796.112,-112.5 734.112,-112.5"/>
<text text-anchor="middle" x="765.112" y="-119.5" font-family="Helvetica,sans-Serif" font-size="10.00">ciptypes.h</text>
</a>
</g>
</g>
<!-- Node4&#45;&gt;Node11 -->
<g id="edge21" class="edge"><title>Node4&#45;&gt;Node11</title>
<path fill="none" stroke="midnightblue" d="M597.628,-280.075C626.334,-253.153 712.317,-172.514 748.634,-138.453"/>
<polygon fill="midnightblue" stroke="midnightblue" points="751.076,-140.962 755.976,-131.568 746.287,-135.856 751.076,-140.962"/>
</g>
<!-- Node4&#45;&gt;Node15 -->
<g id="edge22" class="edge"><title>Node4&#45;&gt;Node15</title>
<path fill="none" stroke="midnightblue" d="M542.319,-280.444C491.375,-270.925 409.077,-255.547 354.537,-245.356"/>
<polygon fill="midnightblue" stroke="midnightblue" points="355.163,-241.913 344.69,-243.516 353.877,-248.794 355.163,-241.913"/>
</g>
<!-- Node6&#45;&gt;Node3 -->
<g id="edge7" class="edge"><title>Node6&#45;&gt;Node3</title>
<path fill="none" stroke="midnightblue" d="M490.807,-168.428C470.281,-159.652 437.733,-145.432 410.112,-132 334.33,-95.1483 246.782,-47.4086 205.304,-24.47"/>
<polygon fill="midnightblue" stroke="midnightblue" points="206.92,-21.3643 196.477,-19.578 203.527,-27.4869 206.92,-21.3643"/>
</g>
<!-- Node6&#45;&gt;Node5 -->
<g id="edge19" class="edge"><title>Node6&#45;&gt;Node5</title>
<path fill="none" stroke="midnightblue" d="M486.283,-168.395C468.222,-161.081 444.211,-149.036 428.112,-132 399.77,-102.008 383.31,-55.3504 375.892,-29.6158"/>
<polygon fill="midnightblue" stroke="midnightblue" points="379.193,-28.4139 373.184,-19.6874 372.439,-30.256 379.193,-28.4139"/>
</g>
<!-- Node7 -->
<g id="node7" class="node"><title>Node7</title>
<polygon fill="none" stroke="#bfbfbf" points="437.112,-112.5 437.112,-131.5 489.112,-131.5 489.112,-112.5 437.112,-112.5"/>
<text text-anchor="middle" x="463.112" y="-119.5" font-family="Helvetica,sans-Serif" font-size="10.00">assert.h</text>
</g>
<!-- Node6&#45;&gt;Node7 -->
<g id="edge6" class="edge"><title>Node6&#45;&gt;Node7</title>
<path fill="none" stroke="midnightblue" d="M503.185,-168.083C496.266,-160.298 486.046,-148.801 477.66,-139.367"/>
<polygon fill="midnightblue" stroke="midnightblue" points="480.15,-136.9 470.89,-131.751 474.918,-141.55 480.15,-136.9"/>
</g>
<!-- Node6&#45;&gt;Node8 -->
<g id="edge8" class="edge"><title>Node6&#45;&gt;Node8</title>
<path fill="none" stroke="midnightblue" d="M511.7,-168.155C513.168,-153.814 518.29,-125.716 536.112,-112 565.272,-89.5574 809.871,-74.3509 908.816,-69.0646"/>
<polygon fill="midnightblue" stroke="midnightblue" points="909.232,-72.5476 919.034,-68.5264 908.864,-65.5573 909.232,-72.5476"/>
</g>
<!-- Node6&#45;&gt;Node11 -->
<g id="edge12" class="edge"><title>Node6&#45;&gt;Node11</title>
<path fill="none" stroke="midnightblue" d="M547.234,-169.32C593.906,-159.398 674.963,-142.165 723.962,-131.748"/>
<polygon fill="midnightblue" stroke="midnightblue" points="724.854,-135.137 733.907,-129.634 723.398,-128.29 724.854,-135.137"/>
</g>
<!-- Node6&#45;&gt;Node14 -->
<g id="edge18" class="edge"><title>Node6&#45;&gt;Node14</title>
<path fill="none" stroke="midnightblue" d="M521.234,-168.324C530.638,-160.263 544.856,-148.077 556.181,-138.369"/>
<polygon fill="midnightblue" stroke="midnightblue" points="558.491,-140.999 563.805,-131.834 553.935,-135.684 558.491,-140.999"/>
</g>
<!-- Node8&#45;&gt;Node3 -->
<g id="edge11" class="edge"><title>Node8&#45;&gt;Node3</title>
<path fill="none" stroke="midnightblue" d="M919.013,-62.8163C797.269,-54.2672 353.163,-23.0816 219.456,-13.6926"/>
<polygon fill="midnightblue" stroke="midnightblue" points="219.509,-10.1878 209.289,-12.9786 219.019,-17.1706 219.509,-10.1878"/>
</g>
<!-- Node9 -->
<g id="node9" class="node"><title>Node9</title>
<polygon fill="none" stroke="#bfbfbf" points="883.612,-0.5 883.612,-19.5 942.612,-19.5 942.612,-0.5 883.612,-0.5"/>
<text text-anchor="middle" x="913.112" y="-7.5" font-family="Helvetica,sans-Serif" font-size="10.00">inttypes.h</text>
</g>
<!-- Node8&#45;&gt;Node9 -->
<g id="edge9" class="edge"><title>Node8&#45;&gt;Node9</title>
<path fill="none" stroke="midnightblue" d="M944.002,-56.083C938.829,-48.5341 931.265,-37.4948 924.917,-28.2298"/>
<polygon fill="midnightblue" stroke="midnightblue" points="927.647,-26.0221 919.108,-19.7511 921.873,-29.9787 927.647,-26.0221"/>
</g>
<!-- Node10 -->
<g id="node10" class="node"><title>Node10</title>
<polygon fill="none" stroke="#bfbfbf" points="961.112,-0.5 961.112,-19.5 1013.11,-19.5 1013.11,-0.5 961.112,-0.5"/>
<text text-anchor="middle" x="987.112" y="-7.5" font-family="Helvetica,sans-Serif" font-size="10.00">stddef.h</text>
</g>
<!-- Node8&#45;&gt;Node10 -->
<g id="edge10" class="edge"><title>Node8&#45;&gt;Node10</title>
<path fill="none" stroke="midnightblue" d="M956.221,-56.083C961.394,-48.5341 968.958,-37.4948 975.306,-28.2298"/>
<polygon fill="midnightblue" stroke="midnightblue" points="978.35,-29.9787 981.116,-19.7511 972.576,-26.0221 978.35,-29.9787"/>
</g>
<!-- Node11&#45;&gt;Node5 -->
<g id="edge17" class="edge"><title>Node11&#45;&gt;Node5</title>
<path fill="none" stroke="midnightblue" d="M766.106,-112.319C767.187,-98.2154 766.992,-70.45 751.112,-56 728.012,-34.9817 533.82,-20.5613 432.346,-14.3863"/>
<polygon fill="midnightblue" stroke="midnightblue" points="432.422,-10.8847 422.23,-13.7794 432.003,-17.8721 432.422,-10.8847"/>
</g>
<!-- Node11&#45;&gt;Node8 -->
<g id="edge13" class="edge"><title>Node11&#45;&gt;Node8</title>
<path fill="none" stroke="midnightblue" d="M794.425,-112.444C825.954,-103.241 876.243,-88.5617 911.097,-78.3879"/>
<polygon fill="midnightblue" stroke="midnightblue" points="912.316,-81.6783 920.935,-75.5164 910.355,-74.9587 912.316,-81.6783"/>
</g>
<!-- Node12 -->
<g id="node12" class="node"><title>Node12</title>
<polygon fill="none" stroke="#bfbfbf" points="1248.61,-56.5 1248.61,-75.5 1339.61,-75.5 1339.61,-56.5 1248.61,-56.5"/>
<text text-anchor="middle" x="1294.11" y="-63.5" font-family="Helvetica,sans-Serif" font-size="10.00">networkhandler.h</text>
</g>
<!-- Node11&#45;&gt;Node12 -->
<g id="edge14" class="edge"><title>Node11&#45;&gt;Node12</title>
<path fill="none" stroke="midnightblue" d="M796.228,-117.824C882.887,-108.978 1127.88,-83.9691 1238.58,-72.6682"/>
<polygon fill="midnightblue" stroke="midnightblue" points="1238.96,-76.1483 1248.55,-71.6508 1238.25,-69.1845 1238.96,-76.1483"/>
</g>
<!-- Node13 -->
<g id="node13" class="node"><title>Node13</title>
<g id="a_node13"><a xlink:href="../../d8/d2c/enipmessage_8h.html" target="_top" xlink:title="enipmessage.h">
<polygon fill="none" stroke="black" points="659.612,-56.5 659.612,-75.5 742.612,-75.5 742.612,-56.5 659.612,-56.5"/>
<text text-anchor="middle" x="701.112" y="-63.5" font-family="Helvetica,sans-Serif" font-size="10.00">enipmessage.h</text>
</a>
</g>
</g>
<!-- Node11&#45;&gt;Node13 -->
<g id="edge15" class="edge"><title>Node11&#45;&gt;Node13</title>
<path fill="none" stroke="midnightblue" d="M754.829,-112.324C745.275,-104.263 730.832,-92.0765 719.327,-82.3695"/>
<polygon fill="midnightblue" stroke="midnightblue" points="721.481,-79.6076 711.581,-75.8339 716.967,-84.9577 721.481,-79.6076"/>
</g>
<!-- Node13&#45;&gt;Node5 -->
<g id="edge16" class="edge"><title>Node13&#45;&gt;Node5</title>
<path fill="none" stroke="midnightblue" d="M659.317,-58.1609C601.909,-48.7668 498.271,-31.8078 432.172,-20.9917"/>
<polygon fill="midnightblue" stroke="midnightblue" points="432.735,-17.5373 422.301,-19.3764 431.604,-24.4454 432.735,-17.5373"/>
</g>
<!-- Node15&#45;&gt;Node5 -->
<g id="edge25" class="edge"><title>Node15&#45;&gt;Node5</title>
<path fill="none" stroke="midnightblue" d="M301.578,-224.134C305.097,-211.589 311.828,-187.962 318.112,-168 333.967,-117.633 354.332,-58.7806 364.589,-29.5039"/>
<polygon fill="midnightblue" stroke="midnightblue" points="367.982,-30.4056 367.995,-19.8108 361.378,-28.0851 367.982,-30.4056"/>
</g>
<!-- Node15&#45;&gt;Node6 -->
<g id="edge26" class="edge"><title>Node15&#45;&gt;Node6</title>
<path fill="none" stroke="midnightblue" d="M332.704,-224.444C369.299,-215.122 427.95,-200.183 467.937,-189.997"/>
<polygon fill="midnightblue" stroke="midnightblue" points="468.85,-193.377 477.677,-187.516 467.122,-186.593 468.85,-193.377"/>
</g>
<!-- Node15&#45;&gt;Node8 -->
<g id="edge23" class="edge"><title>Node15&#45;&gt;Node8</title>
<path fill="none" stroke="midnightblue" d="M354.701,-228.245C381.518,-222.825 411.424,-211.496 428.112,-188 447.671,-160.462 405.276,-136.889 428.112,-112 444.322,-94.3319 788.053,-75.2358 908.701,-69.0539"/>
<polygon fill="midnightblue" stroke="midnightblue" points="909.191,-72.5336 919,-68.5299 908.835,-65.5427 909.191,-72.5336"/>
</g>
<!-- Node15&#45;&gt;Node11 -->
<g id="edge24" class="edge"><title>Node15&#45;&gt;Node11</title>
<path fill="none" stroke="midnightblue" d="M354.681,-225.373C407.021,-217.695 487.431,-204.62 556.112,-188 619.063,-172.766 690.836,-149.004 731.779,-134.822"/>
<polygon fill="midnightblue" stroke="midnightblue" points="732.964,-138.116 741.255,-131.52 730.66,-131.506 732.964,-138.116"/>
</g>
<!-- Node16 -->
<g id="node16" class="node"><title>Node16</title>
<g id="a_node16"><a xlink:href="../../d9/d31/doublylinkedlist_8h.html" target="_top" xlink:title="doublylinkedlist.h">
<polygon fill="none" stroke="black" points="327.112,-168.5 327.112,-187.5 419.112,-187.5 419.112,-168.5 327.112,-168.5"/>
<text text-anchor="middle" x="373.112" y="-175.5" font-family="Helvetica,sans-Serif" font-size="10.00">doublylinkedlist.h</text>
</a>
</g>
</g>
<!-- Node15&#45;&gt;Node16 -->
<g id="edge27" class="edge"><title>Node15&#45;&gt;Node16</title>
<path fill="none" stroke="midnightblue" d="M311.001,-224.324C322.262,-216.107 339.398,-203.602 352.821,-193.807"/>
<polygon fill="midnightblue" stroke="midnightblue" points="354.991,-196.556 361.006,-187.834 350.865,-190.901 354.991,-196.556"/>
</g>
<!-- Node15&#45;&gt;Node17 -->
<g id="edge28" class="edge"><title>Node15&#45;&gt;Node17</title>
<path fill="none" stroke="midnightblue" d="M292.834,-224.368C279.632,-206.215 248.785,-163.802 231.468,-139.99"/>
<polygon fill="midnightblue" stroke="midnightblue" points="234.072,-137.62 225.36,-131.591 228.411,-141.737 234.072,-137.62"/>
</g>
<!-- Node15&#45;&gt;Node18 -->
<g id="edge31" class="edge"><title>Node15&#45;&gt;Node18</title>
<path fill="none" stroke="midnightblue" d="M283.527,-224.324C268.113,-215.743 244.299,-202.486 226.402,-192.522"/>
<polygon fill="midnightblue" stroke="midnightblue" points="228.097,-189.461 217.658,-187.655 224.693,-195.577 228.097,-189.461"/>
</g>
<!-- Node17&#45;&gt;Node3 -->
<g id="edge29" class="edge"><title>Node17&#45;&gt;Node3</title>
<path fill="none" stroke="midnightblue" d="M216.13,-112.368C209.97,-94.5366 195.723,-53.2953 187.424,-29.2717"/>
<polygon fill="midnightblue" stroke="midnightblue" points="190.653,-27.9005 184.08,-19.5914 184.037,-30.1862 190.653,-27.9005"/>
</g>
<!-- Node17&#45;&gt;Node8 -->
<g id="edge30" class="edge"><title>Node17&#45;&gt;Node8</title>
<path fill="none" stroke="midnightblue" d="M266.793,-117.478C401.382,-107.535 782.624,-79.3726 908.91,-70.0436"/>
<polygon fill="midnightblue" stroke="midnightblue" points="909.23,-73.5296 918.945,-69.3023 908.714,-66.5487 909.23,-73.5296"/>
</g>
<!-- Node18&#45;&gt;Node3 -->
<g id="edge32" class="edge"><title>Node18&#45;&gt;Node3</title>
<path fill="none" stroke="midnightblue" d="M190.846,-168.427C181.145,-160.275 167.832,-147.046 162.112,-132 148.814,-97.0256 162.773,-52.9643 172.802,-28.8313"/>
<polygon fill="midnightblue" stroke="midnightblue" points="176.074,-30.0839 176.894,-19.5209 169.666,-27.2669 176.074,-30.0839"/>
</g>
<!-- Node18&#45;&gt;Node11 -->
<g id="edge33" class="edge"><title>Node18&#45;&gt;Node11</title>
<path fill="none" stroke="midnightblue" d="M233.183,-174.02C328.332,-164.894 615.769,-137.324 723.626,-126.979"/>
<polygon fill="midnightblue" stroke="midnightblue" points="724.17,-130.443 733.79,-126.004 723.502,-123.475 724.17,-130.443"/>
</g>
<!-- Node18&#45;&gt;Node17 -->
<g id="edge34" class="edge"><title>Node18&#45;&gt;Node17</title>
<path fill="none" stroke="midnightblue" d="M204.919,-168.083C207.196,-160.849 210.483,-150.409 213.32,-141.397"/>
<polygon fill="midnightblue" stroke="midnightblue" points="216.692,-142.341 216.357,-131.751 210.015,-140.239 216.692,-142.341"/>
</g>
<!-- Node19&#45;&gt;Node8 -->
<g id="edge37" class="edge"><title>Node19&#45;&gt;Node8</title>
<path fill="none" stroke="midnightblue" d="M1036.55,-168.445C1026.85,-155.88 1008,-131.781 991.112,-112 982.789,-102.255 973.153,-91.6467 965.314,-83.1785"/>
<polygon fill="midnightblue" stroke="midnightblue" points="967.829,-80.7433 958.451,-75.8134 962.708,-85.5155 967.829,-80.7433"/>
</g>
<!-- Node19&#45;&gt;Node11 -->
<g id="edge38" class="edge"><title>Node19&#45;&gt;Node11</title>
<path fill="none" stroke="midnightblue" d="M1005.33,-169.661C953.308,-159.556 859.973,-141.426 806.243,-130.99"/>
<polygon fill="midnightblue" stroke="midnightblue" points="806.853,-127.543 796.369,-129.072 805.518,-134.414 806.853,-127.543"/>
</g>
<!-- Node20&#45;&gt;Node8 -->
<g id="edge40" class="edge"><title>Node20&#45;&gt;Node8</title>
<path fill="none" stroke="midnightblue" d="M1133.5,-168.368C1098.98,-149.292 1016,-103.422 974.544,-80.5054"/>
<polygon fill="midnightblue" stroke="midnightblue" points="976.099,-77.366 965.654,-75.5914 972.713,-83.4924 976.099,-77.366"/>
</g>
<!-- Node20&#45;&gt;Node11 -->
<g id="edge41" class="edge"><title>Node20&#45;&gt;Node11</title>
<path fill="none" stroke="midnightblue" d="M1098.05,-169.303C1095.03,-168.859 1092.03,-168.422 1089.11,-168 987.628,-153.342 868.126,-136.976 806.504,-128.602"/>
<polygon fill="midnightblue" stroke="midnightblue" points="806.785,-125.108 796.405,-127.231 805.843,-132.045 806.785,-125.108"/>
</g>
<!-- Node21&#45;&gt;Node8 -->
<g id="edge44" class="edge"><title>Node21&#45;&gt;Node8</title>
<path fill="none" stroke="midnightblue" d="M1502.47,-336.338C1495.1,-317.996 1479.11,-273.738 1479.11,-235 1479.11,-235 1479.11,-235 1479.11,-177 1479.11,-77.5345 1116.09,-67.3762 991.499,-66.8189"/>
<polygon fill="midnightblue" stroke="midnightblue" points="991.237,-63.3183 981.228,-66.7927 991.219,-70.3183 991.237,-63.3183"/>
</g>
<!-- Node22&#45;&gt;Node8 -->
<g id="edge47" class="edge"><title>Node22&#45;&gt;Node8</title>
<path fill="none" stroke="midnightblue" d="M846.146,-280.41C877.328,-266.375 934.654,-235.268 958.112,-188 974.579,-154.817 964.629,-110.084 956.798,-85.3566"/>
<polygon fill="midnightblue" stroke="midnightblue" points="960.081,-84.1399 953.553,-75.7953 953.452,-86.3897 960.081,-84.1399"/>
</g>
<!-- Node22&#45;&gt;Node15 -->
<g id="edge48" class="edge"><title>Node22&#45;&gt;Node15</title>
<path fill="none" stroke="midnightblue" d="M799.385,-286.359C720.8,-278.291 482.147,-253.791 365.168,-241.781"/>
<polygon fill="midnightblue" stroke="midnightblue" points="365.222,-238.269 354.917,-240.729 364.507,-245.232 365.222,-238.269"/>
</g>
<!-- Node23&#45;&gt;Node8 -->
<g id="edge50" class="edge"><title>Node23&#45;&gt;Node8</title>
<path fill="none" stroke="midnightblue" d="M1397.46,-168.463C1390.8,-154.045 1375.19,-125.159 1352.11,-112 1291.23,-77.2877 1080.91,-69.3489 991.188,-67.5356"/>
<polygon fill="midnightblue" stroke="midnightblue" points="991.179,-64.0349 981.115,-67.3478 991.048,-71.0337 991.179,-64.0349"/>
</g>
<!-- Node23&#45;&gt;Node11 -->
<g id="edge51" class="edge"><title>Node23&#45;&gt;Node11</title>
<path fill="none" stroke="midnightblue" d="M1366.47,-174.058C1257.76,-164.829 923.728,-136.467 806.386,-126.504"/>
<polygon fill="midnightblue" stroke="midnightblue" points="806.627,-123.012 796.366,-125.654 806.034,-129.987 806.627,-123.012"/>
</g>
<!-- Node24&#45;&gt;Node5 -->
<g id="edge53" class="edge"><title>Node24&#45;&gt;Node5</title>
<path fill="none" stroke="midnightblue" d="M54.9419,-392.489C58.7367,-374.075 67.1116,-329.118 67.1116,-291 67.1116,-291 67.1116,-291 67.1116,-177 67.1116,-67.4202 221.147,-29.7324 309.925,-17.111"/>
<polygon fill="midnightblue" stroke="midnightblue" points="310.447,-20.5724 319.886,-15.7607 309.506,-13.6358 310.447,-20.5724"/>
</g>
<!-- Node25&#45;&gt;Node4 -->
<g id="edge57" class="edge"><title>Node25&#45;&gt;Node4</title>
<path fill="none" stroke="midnightblue" d="M441.682,-336.444C471.209,-327.28 518.229,-312.688 550.994,-302.519"/>
<polygon fill="midnightblue" stroke="midnightblue" points="552.157,-305.823 560.67,-299.516 550.082,-299.138 552.157,-305.823"/>
</g>
<!-- Node25&#45;&gt;Node6 -->
<g id="edge56" class="edge"><title>Node25&#45;&gt;Node6</title>
<path fill="none" stroke="midnightblue" d="M419.327,-336.075C434.794,-309.606 480.604,-231.209 501.055,-196.21"/>
<polygon fill="midnightblue" stroke="midnightblue" points="504.082,-197.968 506.105,-187.568 498.038,-194.436 504.082,-197.968"/>
</g>
<!-- Node25&#45;&gt;Node15 -->
<g id="edge58" class="edge"><title>Node25&#45;&gt;Node15</title>
<path fill="none" stroke="midnightblue" d="M405.088,-336.368C385.774,-317.894 340.19,-274.293 315.571,-250.744"/>
<polygon fill="midnightblue" stroke="midnightblue" points="317.739,-247.974 308.094,-243.591 312.901,-253.033 317.739,-247.974"/>
</g>
<!-- Node26&#45;&gt;Node4 -->
<g id="edge61" class="edge"><title>Node26&#45;&gt;Node4</title>
<path fill="none" stroke="midnightblue" d="M339.205,-336.562C391.073,-327.068 475.367,-311.638 531.274,-301.404"/>
<polygon fill="midnightblue" stroke="midnightblue" points="532.162,-304.8 541.368,-299.556 530.901,-297.914 532.162,-304.8"/>
</g>
<!-- Node26&#45;&gt;Node6 -->
<g id="edge60" class="edge"><title>Node26&#45;&gt;Node6</title>
<path fill="none" stroke="midnightblue" d="M304.525,-336.309C339.842,-309.416 447.613,-227.352 491.851,-193.666"/>
<polygon fill="midnightblue" stroke="midnightblue" points="493.975,-196.448 499.811,-187.605 489.734,-190.879 493.975,-196.448"/>
</g>
<!-- Node26&#45;&gt;Node15 -->
<g id="edge62" class="edge"><title>Node26&#45;&gt;Node15</title>
<path fill="none" stroke="midnightblue" d="M293.582,-336.368C294.551,-318.617 296.784,-277.666 298.097,-253.597"/>
<polygon fill="midnightblue" stroke="midnightblue" points="301.593,-253.767 298.643,-243.591 294.603,-253.386 301.593,-253.767"/>
</g>
<!-- Node27&#45;&gt;Node8 -->
<g id="edge64" class="edge"><title>Node27&#45;&gt;Node8</title>
<path fill="none" stroke="midnightblue" d="M912.329,-168.368C918.975,-150.537 934.347,-109.295 943.301,-85.2717"/>
<polygon fill="midnightblue" stroke="midnightblue" points="946.696,-86.1841 946.909,-75.5914 940.137,-83.7393 946.696,-86.1841"/>
</g>
<!-- Node27&#45;&gt;Node11 -->
<g id="edge65" class="edge"><title>Node27&#45;&gt;Node11</title>
<path fill="none" stroke="midnightblue" d="M886.294,-168.444C862.28,-159.438 824.283,-145.189 797.242,-135.049"/>
<polygon fill="midnightblue" stroke="midnightblue" points="798.414,-131.751 787.822,-131.516 795.956,-138.305 798.414,-131.751"/>
</g>
<!-- Node28&#45;&gt;Node8 -->
<g id="edge67" class="edge"><title>Node28&#45;&gt;Node8</title>
<path fill="none" stroke="midnightblue" d="M883.14,-343.204C943.685,-336.345 1132.32,-305.9 1208.11,-188 1261.21,-105.404 1076.9,-78.1497 991.386,-70.0718"/>
<polygon fill="midnightblue" stroke="midnightblue" points="991.499,-66.5679 981.225,-69.1584 990.872,-73.5398 991.499,-66.5679"/>
</g>
<!-- Node28&#45;&gt;Node11 -->
<g id="edge68" class="edge"><title>Node28&#45;&gt;Node11</title>
<path fill="none" stroke="midnightblue" d="M864.685,-336.348C865.252,-323.661 865.29,-299.413 859.112,-280 841.366,-224.244 800.499,-167.45 778.966,-139.972"/>
<polygon fill="midnightblue" stroke="midnightblue" points="781.437,-137.457 772.466,-131.821 775.964,-141.822 781.437,-137.457"/>
</g>
<!-- Node28&#45;&gt;Node22 -->
<g id="edge69" class="edge"><title>Node28&#45;&gt;Node22</title>
<path fill="none" stroke="midnightblue" d="M857.672,-336.083C852.163,-328.455 844.08,-317.264 837.347,-307.941"/>
<polygon fill="midnightblue" stroke="midnightblue" points="840.124,-305.809 831.432,-299.751 834.449,-309.907 840.124,-305.809"/>
</g>
<!-- Node29&#45;&gt;Node4 -->
<g id="edge71" class="edge"><title>Node29&#45;&gt;Node4</title>
<path fill="none" stroke="midnightblue" d="M600.635,-336.083C598.625,-328.849 595.725,-318.409 593.222,-309.397"/>
<polygon fill="midnightblue" stroke="midnightblue" points="596.591,-308.449 590.542,-299.751 589.847,-310.323 596.591,-308.449"/>
</g>
<!-- Node30&#45;&gt;Node2 -->
<g id="edge74" class="edge"><title>Node30&#45;&gt;Node2</title>
<path fill="none" stroke="midnightblue" d="M1155.4,-392.444C1132.76,-383.517 1097.04,-369.439 1071.36,-359.317"/>
<polygon fill="midnightblue" stroke="midnightblue" points="1072.3,-355.927 1061.72,-355.516 1069.74,-362.44 1072.3,-355.927"/>
</g>
<!-- Node30&#45;&gt;Node4 -->
<g id="edge80" class="edge"><title>Node30&#45;&gt;Node4</title>
<path fill="none" stroke="midnightblue" d="M1112.75,-401.391C1024.09,-400.405 860.16,-393.073 726.112,-356 683.374,-344.18 637.507,-320.016 610.887,-304.711"/>
<polygon fill="midnightblue" stroke="midnightblue" points="612.392,-301.537 601.992,-299.513 608.86,-307.58 612.392,-301.537"/>
</g>
<!-- Node30&#45;&gt;Node6 -->
<g id="edge77" class="edge"><title>Node30&#45;&gt;Node6</title>
<path fill="none" stroke="midnightblue" d="M1165.87,-392.443C1147.41,-378.765 1109.15,-351.9 1073.11,-336 890.049,-255.234 654.93,-205.639 557.049,-187.193"/>
<polygon fill="midnightblue" stroke="midnightblue" points="557.653,-183.746 547.181,-185.352 556.369,-190.627 557.653,-183.746"/>
</g>
<!-- Node30&#45;&gt;Node8 -->
<g id="edge78" class="edge"><title>Node30&#45;&gt;Node8</title>
<path fill="none" stroke="midnightblue" d="M1217.81,-392.439C1252.13,-384.294 1297.35,-371.071 1308.11,-356 1321.9,-336.691 1340.82,-216.28 1206.11,-112 1173.24,-86.5534 1055.08,-74.4261 991.428,-69.6268"/>
<polygon fill="midnightblue" stroke="midnightblue" points="991.555,-66.1269 981.328,-68.8924 991.048,-73.1085 991.555,-66.1269"/>
</g>
<!-- Node30&#45;&gt;Node12 -->
<g id="edge81" class="edge"><title>Node30&#45;&gt;Node12</title>
<path fill="none" stroke="midnightblue" d="M1234.64,-392.428C1281.33,-384.5 1342.53,-371.605 1362.11,-356 1427.09,-304.217 1426.2,-269.132 1444.11,-188 1448.08,-170.025 1450.25,-122.579 1442.11,-112 1420.61,-84.0518 1382.24,-72.9345 1349.95,-68.7353"/>
<polygon fill="midnightblue" stroke="midnightblue" points="1350.04,-65.2234 1339.71,-67.6025 1349.27,-72.181 1350.04,-65.2234"/>
</g>
<!-- Node30&#45;&gt;Node21 -->
<g id="edge79" class="edge"><title>Node30&#45;&gt;Node21</title>
<path fill="none" stroke="midnightblue" d="M1229.24,-392.444C1292.45,-382.07 1398.04,-364.738 1458.93,-354.744"/>
<polygon fill="midnightblue" stroke="midnightblue" points="1459.73,-358.16 1469.03,-353.086 1458.59,-351.252 1459.73,-358.16"/>
</g>
<!-- Node30&#45;&gt;Node29 -->
<g id="edge82" class="edge"><title>Node30&#45;&gt;Node29</title>
<path fill="none" stroke="midnightblue" d="M1113.04,-397.245C1014.4,-391.065 819.517,-377.274 655.112,-356 653.808,-355.831 652.488,-355.653 651.156,-355.468"/>
<polygon fill="midnightblue" stroke="midnightblue" points="651.237,-351.941 640.828,-353.917 650.198,-358.863 651.237,-351.941"/>
</g>
<!-- Node31 -->
<g id="node31" class="node"><title>Node31</title>
<polygon fill="none" stroke="#bfbfbf" points="1187.11,-336.5 1187.11,-355.5 1233.11,-355.5 1233.11,-336.5 1187.11,-336.5"/>
<text text-anchor="middle" x="1210.11" y="-343.5" font-family="Helvetica,sans-Serif" font-size="10.00">stdio.h</text>
</g>
<!-- Node30&#45;&gt;Node31 -->
<g id="edge73" class="edge"><title>Node30&#45;&gt;Node31</title>
<path fill="none" stroke="midnightblue" d="M1182.56,-392.083C1187.13,-384.613 1193.78,-373.724 1199.41,-364.52"/>
<polygon fill="midnightblue" stroke="midnightblue" points="1202.54,-366.109 1204.76,-355.751 1196.56,-362.459 1202.54,-366.109"/>
</g>
<!-- Node32 -->
<g id="node32" class="node"><title>Node32</title>
<polygon fill="none" stroke="#bfbfbf" points="1251.11,-336.5 1251.11,-355.5 1299.11,-355.5 1299.11,-336.5 1251.11,-336.5"/>
<text text-anchor="middle" x="1275.11" y="-343.5" font-family="Helvetica,sans-Serif" font-size="10.00">stdlib.h</text>
</g>
<!-- Node30&#45;&gt;Node32 -->
<g id="edge75" class="edge"><title>Node30&#45;&gt;Node32</title>
<path fill="none" stroke="midnightblue" d="M1192.86,-392.324C1208.43,-383.743 1232.49,-370.486 1250.57,-360.522"/>
<polygon fill="midnightblue" stroke="midnightblue" points="1252.34,-363.546 1259.41,-355.655 1248.96,-357.415 1252.34,-363.546"/>
</g>
<!-- Node33 -->
<g id="node33" class="node"><title>Node33</title>
<polygon fill="none" stroke="#bfbfbf" points="1121.61,-336.5 1121.61,-355.5 1168.61,-355.5 1168.61,-336.5 1121.61,-336.5"/>
<text text-anchor="middle" x="1145.11" y="-343.5" font-family="Helvetica,sans-Serif" font-size="10.00">errno.h</text>
</g>
<!-- Node30&#45;&gt;Node33 -->
<g id="edge76" class="edge"><title>Node30&#45;&gt;Node33</title>
<path fill="none" stroke="midnightblue" d="M1171.83,-392.083C1167.4,-384.613 1160.95,-373.724 1155.49,-364.52"/>
<polygon fill="midnightblue" stroke="midnightblue" points="1158.41,-362.57 1150.3,-355.751 1152.38,-366.138 1158.41,-362.57"/>
</g>
<!-- Node34 -->
<g id="node34" class="node"><title>Node34</title>
<g id="a_node34"><a xlink:href="../../d1/d84/socket__timer_8h.html" target="_top" xlink:title="socket_timer.h">
<polygon fill="none" stroke="black" points="1328.61,-224.5 1328.61,-243.5 1409.61,-243.5 1409.61,-224.5 1328.61,-224.5"/>
<text text-anchor="middle" x="1369.11" y="-231.5" font-family="Helvetica,sans-Serif" font-size="10.00">socket_timer.h</text>
</a>
</g>
</g>
<!-- Node30&#45;&gt;Node34 -->
<g id="edge83" class="edge"><title>Node30&#45;&gt;Node34</title>
<path fill="none" stroke="midnightblue" d="M1241.5,-398.675C1275.53,-394.061 1315.45,-382.725 1341.11,-356 1367.78,-328.229 1370.87,-280.325 1370.3,-253.889"/>
<polygon fill="midnightblue" stroke="midnightblue" points="1373.78,-253.541 1369.87,-243.698 1366.79,-253.836 1373.78,-253.541"/>
</g>
<!-- Node34&#45;&gt;Node8 -->
<g id="edge84" class="edge"><title>Node34&#45;&gt;Node8</title>
<path fill="none" stroke="midnightblue" d="M1366.43,-224.434C1358.37,-199.267 1333.73,-126.413 1314.11,-112 1263.61,-74.8989 1075.58,-68.2474 991.364,-67.1547"/>
<polygon fill="midnightblue" stroke="midnightblue" points="991.184,-63.6526 981.146,-67.043 991.107,-70.6522 991.184,-63.6526"/>
</g>
<!-- Node35&#45;&gt;Node4 -->
<g id="edge90" class="edge"><title>Node35&#45;&gt;Node4</title>
<path fill="none" stroke="midnightblue" d="M735.305,-336.681C705.846,-327.538 658.325,-312.79 625.278,-302.534"/>
<polygon fill="midnightblue" stroke="midnightblue" points="626.111,-299.128 615.523,-299.507 624.036,-305.814 626.111,-299.128"/>
</g>
<!-- Node35&#45;&gt;Node8 -->
<g id="edge88" class="edge"><title>Node35&#45;&gt;Node8</title>
<path fill="none" stroke="midnightblue" d="M765.335,-336.395C770.174,-323.767 779.846,-299.59 790.112,-280 817.357,-228.006 824.904,-214.97 860.112,-168 883.901,-136.264 915.469,-102.447 934.2,-83.1049"/>
<polygon fill="midnightblue" stroke="midnightblue" points="936.9,-85.35 941.382,-75.7499 931.892,-80.4595 936.9,-85.35"/>
</g>
<!-- Node35&#45;&gt;Node11 -->
<g id="edge89" class="edge"><title>Node35&#45;&gt;Node11</title>
<path fill="none" stroke="midnightblue" d="M760.869,-336.397C759.631,-327.358 757.816,-312.715 757.112,-300 753.93,-242.556 759.667,-174.572 762.99,-142.11"/>
<polygon fill="midnightblue" stroke="midnightblue" points="766.504,-142.158 764.084,-131.843 759.544,-141.416 766.504,-142.158"/>
</g>
</g>
</svg>
