<?xml version="1.0" encoding="UTF-8" standalone="no"?>
<!DOCTYPE svg PUBLIC "-//W3C//DTD SVG 1.1//EN"
 "http://www.w3.org/Graphics/SVG/1.1/DTD/svg11.dtd">
<!-- Generated by graphviz version 2.36.0 (20140111.2315)
 -->
<!-- Title: CloseConnection Pages: 1 -->
<svg width="668pt" height="165pt"
 viewBox="0.00 0.00 668.00 165.00" xmlns="http://www.w3.org/2000/svg" xmlns:xlink="http://www.w3.org/1999/xlink">
<g id="graph0" class="graph" transform="scale(1 1) rotate(0) translate(4 161)">
<title>CloseConnection</title>
<!-- Node1 -->
<g id="node1" class="node"><title>Node1</title>
<polygon fill="#bfbfbf" stroke="black" points="0,-68.5 0,-87.5 92,-87.5 92,-68.5 0,-68.5"/>
<text text-anchor="middle" x="46" y="-75.5" font-family="Helvetica,sans-Serif" font-size="10.00">CloseConnection</text>
</g>
<!-- Node2 -->
<g id="node2" class="node"><title>Node2</title>
<g id="a_node2"><a xlink:href="../../db/d4f/generic__networkhandler_8c.html#aab6e6c554aa10d27efe297ebef3ac1c9" target="_top" xlink:title="CloseUdpSocket">
<polygon fill="none" stroke="black" points="161.5,-137.5 161.5,-156.5 252.5,-156.5 252.5,-137.5 161.5,-137.5"/>
<text text-anchor="middle" x="207" y="-144.5" font-family="Helvetica,sans-Serif" font-size="10.00">CloseUdpSocket</text>
</a>
</g>
</g>
<!-- Node1&#45;&gt;Node2 -->
<g id="edge1" class="edge"><title>Node1&#45;&gt;Node2</title>
<path fill="none" stroke="midnightblue" d="M60.1088,-87.6002C75.6136,-98.5485 102.542,-116.311 128,-127 135.423,-130.117 143.453,-132.843 151.441,-135.197"/>
<polygon fill="midnightblue" stroke="midnightblue" points="150.55,-138.582 161.122,-137.885 152.423,-131.837 150.55,-138.582"/>
</g>
<!-- Node5 -->
<g id="node5" class="node"><title>Node5</title>
<g id="a_node5"><a xlink:href="../../df/d91/cipconnectionobject_8c.html#a0f3d8e6f21712dbef3fb2e1da42f35ba" target="_top" xlink:title="ConnectionObjectGetTransport\lClassTriggerTransportClass">
<polygon fill="none" stroke="black" points="131,-88 131,-118 283,-118 283,-88 131,-88"/>
<text text-anchor="start" x="139" y="-106" font-family="Helvetica,sans-Serif" font-size="10.00">ConnectionObjectGetTransport</text>
<text text-anchor="middle" x="207" y="-95" font-family="Helvetica,sans-Serif" font-size="10.00">ClassTriggerTransportClass</text>
</a>
</g>
</g>
<!-- Node1&#45;&gt;Node5 -->
<g id="edge4" class="edge"><title>Node1&#45;&gt;Node5</title>
<path fill="none" stroke="midnightblue" d="M92.1377,-85.0971C101.227,-86.5263 111.058,-88.0721 121.005,-89.636"/>
<polygon fill="midnightblue" stroke="midnightblue" points="120.545,-93.1065 130.967,-91.2023 121.632,-86.1915 120.545,-93.1065"/>
</g>
<!-- Node6 -->
<g id="node6" class="node"><title>Node6</title>
<g id="a_node6"><a xlink:href="../../df/d91/cipconnectionobject_8c.html#a8f507fa4e57499d8b96c8adb2ad8a549" target="_top" xlink:title="ConnectionObjectInitialize\lEmpty">
<polygon fill="none" stroke="black" points="141.5,-39 141.5,-69 272.5,-69 272.5,-39 141.5,-39"/>
<text text-anchor="start" x="149.5" y="-57" font-family="Helvetica,sans-Serif" font-size="10.00">ConnectionObjectInitialize</text>
<text text-anchor="middle" x="207" y="-46" font-family="Helvetica,sans-Serif" font-size="10.00">Empty</text>
</a>
</g>
</g>
<!-- Node1&#45;&gt;Node6 -->
<g id="edge5" class="edge"><title>Node1&#45;&gt;Node6</title>
<path fill="none" stroke="midnightblue" d="M92.1377,-71.1868C104.356,-69.3425 117.915,-67.2959 131.292,-65.2767"/>
<polygon fill="midnightblue" stroke="midnightblue" points="132.096,-68.6951 141.461,-63.7417 131.051,-61.7735 132.096,-68.6951"/>
</g>
<!-- Node8 -->
<g id="node8" class="node"><title>Node8</title>
<g id="a_node8"><a xlink:href="../../d5/d35/cipconnectionmanager_8c.html#a144782b4e2a5afc89ec32854511bbea7" target="_top" xlink:title="Removes connection from the list of active connections. ">
<polygon fill="none" stroke="black" points="128,-0.5 128,-19.5 286,-19.5 286,-0.5 128,-0.5"/>
<text text-anchor="middle" x="207" y="-7.5" font-family="Helvetica,sans-Serif" font-size="10.00">RemoveFromActiveConnections</text>
</a>
</g>
</g>
<!-- Node1&#45;&gt;Node8 -->
<g id="edge7" class="edge"><title>Node1&#45;&gt;Node8</title>
<path fill="none" stroke="midnightblue" d="M60.0861,-68.3453C75.5695,-57.3458 102.478,-39.5356 128,-29 134.146,-26.4631 140.709,-24.2119 147.322,-22.2281"/>
<polygon fill="midnightblue" stroke="midnightblue" points="148.32,-25.5832 157.002,-19.5106 146.428,-18.8437 148.32,-25.5832"/>
</g>
<!-- Node3 -->
<g id="node3" class="node"><title>Node3</title>
<g id="a_node3"><a xlink:href="../../d5/dc5/group__CIP__CALLBACK__API.html#gae04e2a3e9937e910cbcdbff0b8d6ad2b" target="_top" xlink:title="Close the given socket and clean up the stack. ">
<polygon fill="none" stroke="black" points="361.5,-137.5 361.5,-156.5 434.5,-156.5 434.5,-137.5 361.5,-137.5"/>
<text text-anchor="middle" x="398" y="-144.5" font-family="Helvetica,sans-Serif" font-size="10.00">CloseSocket</text>
</a>
</g>
</g>
<!-- Node2&#45;&gt;Node3 -->
<g id="edge2" class="edge"><title>Node2&#45;&gt;Node3</title>
<path fill="none" stroke="midnightblue" d="M252.79,-147C282.475,-147 321.308,-147 351.198,-147"/>
<polygon fill="midnightblue" stroke="midnightblue" points="351.367,-150.5 361.367,-147 351.367,-143.5 351.367,-150.5"/>
</g>
<!-- Node4 -->
<g id="node4" class="node"><title>Node4</title>
<g id="a_node4"><a xlink:href="../../d3/de3/MINGW_2networkhandler_8c.html#a2812ba0ecd1fd9a5549fbca397d76e3e" target="_top" xlink:title="Platform dependent code to close a socket. ">
<polygon fill="none" stroke="black" points="530,-137.5 530,-156.5 640,-156.5 640,-137.5 530,-137.5"/>
<text text-anchor="middle" x="585" y="-144.5" font-family="Helvetica,sans-Serif" font-size="10.00">CloseSocketPlatform</text>
</a>
</g>
</g>
<!-- Node3&#45;&gt;Node4 -->
<g id="edge3" class="edge"><title>Node3&#45;&gt;Node4</title>
<path fill="none" stroke="midnightblue" d="M434.67,-147C458.703,-147 491.092,-147 519.564,-147"/>
<polygon fill="midnightblue" stroke="midnightblue" points="519.853,-150.5 529.853,-147 519.853,-143.5 519.853,-150.5"/>
</g>
<!-- Node7 -->
<g id="node7" class="node"><title>Node7</title>
<g id="a_node7"><a xlink:href="../../df/d91/cipconnectionobject_8c.html#ace0a978d1b7fe59261b1024b5ba1cd15" target="_top" xlink:title="ConnectionObjectSetState">
<polygon fill="none" stroke="black" points="331.5,-44.5 331.5,-63.5 464.5,-63.5 464.5,-44.5 331.5,-44.5"/>
<text text-anchor="middle" x="398" y="-51.5" font-family="Helvetica,sans-Serif" font-size="10.00">ConnectionObjectSetState</text>
</a>
</g>
</g>
<!-- Node6&#45;&gt;Node7 -->
<g id="edge6" class="edge"><title>Node6&#45;&gt;Node7</title>
<path fill="none" stroke="midnightblue" d="M272.514,-54C288.129,-54 304.962,-54 321.049,-54"/>
<polygon fill="midnightblue" stroke="midnightblue" points="321.492,-57.5001 331.492,-54 321.492,-50.5001 321.492,-57.5001"/>
</g>
<!-- Node9 -->
<g id="node9" class="node"><title>Node9</title>
<g id="a_node9"><a xlink:href="../../d9/ddc/doublylinkedlist_8c.html#a341e2f6faf7227650ed6e38e90cd047e" target="_top" xlink:title="DoublyLinkedListRemoveNode">
<polygon fill="none" stroke="black" points="322,-0.5 322,-19.5 474,-19.5 474,-0.5 322,-0.5"/>
<text text-anchor="middle" x="398" y="-7.5" font-family="Helvetica,sans-Serif" font-size="10.00">DoublyLinkedListRemoveNode</text>
</a>
</g>
</g>
<!-- Node8&#45;&gt;Node9 -->
<g id="edge8" class="edge"><title>Node8&#45;&gt;Node9</title>
<path fill="none" stroke="midnightblue" d="M286.238,-10C294.613,-10 303.163,-10 311.616,-10"/>
<polygon fill="midnightblue" stroke="midnightblue" points="311.859,-13.5001 321.859,-10 311.859,-6.5001 311.859,-13.5001"/>
</g>
<!-- Node10 -->
<g id="node10" class="node"><title>Node10</title>
<g id="a_node10"><a xlink:href="../../d9/ddc/doublylinkedlist_8c.html#a87710acb9f42fba14822fb824814105c" target="_top" xlink:title="DoublyLinkedListNodeDestroy">
<polygon fill="none" stroke="black" points="510.5,-0.5 510.5,-19.5 659.5,-19.5 659.5,-0.5 510.5,-0.5"/>
<text text-anchor="middle" x="585" y="-7.5" font-family="Helvetica,sans-Serif" font-size="10.00">DoublyLinkedListNodeDestroy</text>
</a>
</g>
</g>
<!-- Node9&#45;&gt;Node10 -->
<g id="edge9" class="edge"><title>Node9&#45;&gt;Node10</title>
<path fill="none" stroke="midnightblue" d="M474.247,-10C482.803,-10 491.563,-10 500.221,-10"/>
<polygon fill="midnightblue" stroke="midnightblue" points="500.318,-13.5001 510.318,-10 500.318,-6.5001 500.318,-13.5001"/>
</g>
</g>
</svg>
