<?xml version="1.0" encoding="UTF-8" standalone="no"?>
<!DOCTYPE svg PUBLIC "-//W3C//DTD SVG 1.1//EN"
 "http://www.w3.org/Graphics/SVG/1.1/DTD/svg11.dtd">
<!-- Generated by graphviz version 2.26.3 (20100126.1600)
 -->
<!-- Title: G Pages: 1 -->
<svg width="318pt" height="110pt"
 viewBox="0.00 0.00 318.00 110.00" xmlns="http://www.w3.org/2000/svg" xmlns:xlink="http://www.w3.org/1999/xlink">
<g id="graph1" class="graph" transform="scale(1 1) rotate(0) translate(4 106)">
<title>G</title>
<!-- Node1 -->
<g id="node1" class="node"><title>Node1</title>
<polygon fill="#bfbfbf" stroke="black" points="0.5,-40.5 0.5,-61.5 165.5,-61.5 165.5,-40.5 0.5,-40.5"/>
<text text-anchor="middle" x="83" y="-48.5" font-family="Helvetica,sans-Serif" font-size="10.00">AssembleForwardCloseResponse</text>
</g>
<!-- Node2 -->
<g id="node3" class="node"><title>Node2</title>
<a xlink:href="../../d4/d91/group__ENCAP.html#gaafc3c9e3ff582c9b7e438ae2b1fdf822" target="_top" xlink:title="Converts UINT32 data from host to little endian and writes it to buffer.">
<polygon fill="none" stroke="black" points="204.5,-80.5 204.5,-101.5 307.5,-101.5 307.5,-80.5 204.5,-80.5"/>
<text text-anchor="middle" x="256" y="-88.5" font-family="Helvetica,sans-Serif" font-size="10.00">AddDintToMessage</text>
</a>
</g>
<!-- Node1&#45;&gt;Node2 -->
<g id="edge2" class="edge"><title>Node1&#45;&gt;Node2</title>
<path fill="none" stroke="midnightblue" d="M128.454,-61.5095C150.616,-66.6337 177.458,-72.8399 200.789,-78.2345"/>
<polygon fill="midnightblue" stroke="midnightblue" points="200.018,-81.6485 210.55,-80.4913 201.595,-74.8285 200.018,-81.6485"/>
</g>
<!-- Node3 -->
<g id="node5" class="node"><title>Node3</title>
<a xlink:href="../../d4/d91/group__ENCAP.html#gae689aac2a85bf49fb356ec94c8800799" target="_top" xlink:title="converts UINT16 data from host to little endian an writes it to buffer.">
<polygon fill="none" stroke="black" points="208,-40.5 208,-61.5 304,-61.5 304,-40.5 208,-40.5"/>
<text text-anchor="middle" x="256" y="-48.5" font-family="Helvetica,sans-Serif" font-size="10.00">AddIntToMessage</text>
</a>
</g>
<!-- Node1&#45;&gt;Node3 -->
<g id="edge4" class="edge"><title>Node1&#45;&gt;Node3</title>
<path fill="none" stroke="midnightblue" d="M165.7,-51C176.515,-51 187.411,-51 197.707,-51"/>
<polygon fill="midnightblue" stroke="midnightblue" points="197.778,-54.5001 207.778,-51 197.778,-47.5001 197.778,-54.5001"/>
</g>
<!-- Node4 -->
<g id="node7" class="node"><title>Node4</title>
<a xlink:href="../../d5/d35/cipconnectionmanager_8c.html#ac09a235d1ae01c674d4537450fb8fda3" target="_top" xlink:title="Adds a Null Address Item to the common data packet format data.">
<polygon fill="none" stroke="black" points="202.5,-0.5 202.5,-21.5 309.5,-21.5 309.5,-0.5 202.5,-0.5"/>
<text text-anchor="middle" x="256" y="-8.5" font-family="Helvetica,sans-Serif" font-size="10.00">AddNullAddressItem</text>
</a>
</g>
<!-- Node1&#45;&gt;Node4 -->
<g id="edge6" class="edge"><title>Node1&#45;&gt;Node4</title>
<path fill="none" stroke="midnightblue" d="M128.454,-40.4905C150.616,-35.3663 177.458,-29.1601 200.789,-23.7655"/>
<polygon fill="midnightblue" stroke="midnightblue" points="201.595,-27.1715 210.55,-21.5087 200.018,-20.3515 201.595,-27.1715"/>
</g>
</g>
</svg>
