<?xml version="1.0" encoding="UTF-8" standalone="no"?>
<!DOCTYPE svg PUBLIC "-//W3C//DTD SVG 1.1//EN"
 "http://www.w3.org/Graphics/SVG/1.1/DTD/svg11.dtd">
<!-- Generated by graphviz version 2.26.3 (20100126.1600)
 -->
<!-- Title: G Pages: 1 -->
<!--zoomable 900 -->
<svg id="main" version="1.1" xmlns="http://www.w3.org/2000/svg" xmlns:xlink="http://www.w3.org/1999/xlink" xml:space="preserve" onload="init(evt)">
        <defs>
                <circle id="rim" cx="0" cy="0" r="7"/>
                <circle id="rim2" cx="0" cy="0" r="3.5"/>
                <g id="zoomPlus">
                        <use xlink:href="#rim" fill="#404040">
                                <set attributeName="fill" to="#808080" begin="zoomplus.mouseover" end="zoomplus.mouseout"/>
                        </use>
                        <path d="M-4,0h8M0,-4v8" fill="none" stroke="white" stroke-width="1.5" pointer-events="none"/>
                </g>
                <g id="zoomMin">
                        <use xlink:href="#rim" fill="#404040">
                                <set attributeName="fill" to="#808080" begin="zoomminus.mouseover" end="zoomminus.mouseout"/>
                        </use>
                        <path d="M-4,0h8" fill="none" stroke="white" stroke-width="1.5" pointer-events="none"/>
                </g>
                <g id="dirArrow">
                        <path fill="none" stroke="white" stroke-width="1.5" d="M0,-3.0v7 M-2.5,-0.5L0,-3.0L2.5,-0.5"/>
                </g>
               <g id="resetDef">
                       <use xlink:href="#rim2" fill="#404040">
                               <set attributeName="fill" to="#808080" begin="reset.mouseover" end="reset.mouseout"/>
                       </use>
               </g>
        </defs>

<script type="text/javascript">
var viewWidth = 1640;
var viewHeight = 900;
var sectionId = 'dynsection-32';
</script>
<script xlink:href="../../svgpan.js"/>
<svg id="graph" class="graph">
<g id="viewport">
<title>G</title>
<!-- Node1 -->
<g id="node1" class="node"><title>Node1</title>
<polygon fill="#bfbfbf" stroke="black" points="0,-594.5 0,-615.5 236,-615.5 236,-594.5 0,-594.5"/>
<text text-anchor="middle" x="118" y="-602.5" font-family="Helvetica,sans-Serif" font-size="10.00">HandleNonNullNonMatchingForwardOpenRequest</text>
</g>
<!-- Node2 -->
<g id="node3" class="node"><title>Node2</title>
<a xlink:href="../../d5/d35/cipconnectionmanager_8c.html#a22b98139acc6d0f16b6e8954422cc80c" target="_top" xlink:title="Assembles the Forward Open Response.">
<polygon fill="none" stroke="black" points="272.5,-810.5 272.5,-831.5 435.5,-831.5 435.5,-810.5 272.5,-810.5"/>
<text text-anchor="middle" x="354" y="-818.5" font-family="Helvetica,sans-Serif" font-size="10.00">AssembleForwardOpenResponse</text>
</a>
</g>
<!-- Node1&#45;&gt;Node2 -->
<g id="edge2" class="edge"><title>Node1&#45;&gt;Node2</title>
<path fill="none" stroke="midnightblue" d="M129.703,-615.711C167.695,-650.483 287.829,-760.437 334.858,-803.48"/>
<polygon fill="midnightblue" stroke="midnightblue" points="332.765,-806.309 342.504,-810.479 337.491,-801.145 332.765,-806.309"/>
</g>
<!-- Node6 -->
<g id="node11" class="node"><title>Node6</title>
<a xlink:href="../../d5/d35/cipconnectionmanager_8c.html#abd5ec846f4be69da9c0f566dbc38dea3" target="_top" xlink:title="GetConnectionManagementEntry">
<polygon fill="none" stroke="black" points="273.5,-594.5 273.5,-615.5 434.5,-615.5 434.5,-594.5 273.5,-594.5"/>
<text text-anchor="middle" x="354" y="-602.5" font-family="Helvetica,sans-Serif" font-size="10.00">GetConnectionManagementEntry</text>
</a>
</g>
<!-- Node1&#45;&gt;Node6 -->
<g id="edge10" class="edge"><title>Node1&#45;&gt;Node6</title>
<path fill="none" stroke="midnightblue" d="M236.346,-605C245.356,-605 254.363,-605 263.158,-605"/>
<polygon fill="midnightblue" stroke="midnightblue" points="263.372,-608.5 273.372,-605 263.372,-601.5 263.372,-608.5"/>
</g>
<!-- Node7 -->
<g id="node13" class="node"><title>Node7</title>
<a xlink:href="../../d5/d35/cipconnectionmanager_8c.html#a96ebb3d0e93c8d4ee4a7d6529061ee68" target="_top" xlink:title="Parse the connection path of a forward open request.">
<polygon fill="none" stroke="black" points="298,-398.5 298,-419.5 410,-419.5 410,-398.5 298,-398.5"/>
<text text-anchor="middle" x="354" y="-406.5" font-family="Helvetica,sans-Serif" font-size="10.00">ParseConnectionPath</text>
</a>
</g>
<!-- Node1&#45;&gt;Node7 -->
<g id="edge12" class="edge"><title>Node1&#45;&gt;Node7</title>
<path fill="none" stroke="midnightblue" d="M130.688,-594.462C169.345,-562.358 285.905,-465.554 333.461,-426.058"/>
<polygon fill="midnightblue" stroke="midnightblue" points="335.792,-428.671 341.249,-419.59 331.32,-423.286 335.792,-428.671"/>
</g>
<!-- Node3 -->
<g id="node5" class="node"><title>Node3</title>
<a xlink:href="../../d4/d91/group__ENCAP.html#gaafc3c9e3ff582c9b7e438ae2b1fdf822" target="_top" xlink:title="Converts UINT32 data from host to little endian and writes it to buffer.">
<polygon fill="none" stroke="black" points="544.5,-870.5 544.5,-891.5 647.5,-891.5 647.5,-870.5 544.5,-870.5"/>
<text text-anchor="middle" x="596" y="-878.5" font-family="Helvetica,sans-Serif" font-size="10.00">AddDintToMessage</text>
</a>
</g>
<!-- Node2&#45;&gt;Node3 -->
<g id="edge4" class="edge"><title>Node2&#45;&gt;Node3</title>
<path fill="none" stroke="midnightblue" d="M380.801,-831.518C404.473,-840.461 440.09,-853.077 472,-861 492.096,-865.99 514.345,-870.03 534.384,-873.138"/>
<polygon fill="midnightblue" stroke="midnightblue" points="533.921,-876.607 544.33,-874.633 534.962,-869.685 533.921,-876.607"/>
</g>
<!-- Node4 -->
<g id="node7" class="node"><title>Node4</title>
<a xlink:href="../../d4/d91/group__ENCAP.html#gae689aac2a85bf49fb356ec94c8800799" target="_top" xlink:title="converts UINT16 data from host to little endian an writes it to buffer.">
<polygon fill="none" stroke="black" points="548,-830.5 548,-851.5 644,-851.5 644,-830.5 548,-830.5"/>
<text text-anchor="middle" x="596" y="-838.5" font-family="Helvetica,sans-Serif" font-size="10.00">AddIntToMessage</text>
</a>
</g>
<!-- Node2&#45;&gt;Node4 -->
<g id="edge6" class="edge"><title>Node2&#45;&gt;Node4</title>
<path fill="none" stroke="midnightblue" d="M435.593,-827.743C469.125,-830.514 507.19,-833.66 537.822,-836.192"/>
<polygon fill="midnightblue" stroke="midnightblue" points="537.654,-839.69 547.908,-837.025 538.231,-832.714 537.654,-839.69"/>
</g>
<!-- Node5 -->
<g id="node9" class="node"><title>Node5</title>
<a xlink:href="../../d5/d35/cipconnectionmanager_8c.html#ac09a235d1ae01c674d4537450fb8fda3" target="_top" xlink:title="Adds a Null Address Item to the common data packet format data.">
<polygon fill="none" stroke="black" points="542.5,-790.5 542.5,-811.5 649.5,-811.5 649.5,-790.5 542.5,-790.5"/>
<text text-anchor="middle" x="596" y="-798.5" font-family="Helvetica,sans-Serif" font-size="10.00">AddNullAddressItem</text>
</a>
</g>
<!-- Node2&#45;&gt;Node5 -->
<g id="edge8" class="edge"><title>Node2&#45;&gt;Node5</title>
<path fill="none" stroke="midnightblue" d="M435.593,-814.257C467.016,-811.66 502.419,-808.734 531.955,-806.293"/>
<polygon fill="midnightblue" stroke="midnightblue" points="532.464,-809.763 542.142,-805.451 531.888,-802.787 532.464,-809.763"/>
</g>
<!-- Node8 -->
<g id="node15" class="node"><title>Node8</title>
<a xlink:href="../../de/ddc/cipepath_8c.html#a5f432a623c7d276956a3ddaca42e332e" target="_top" xlink:title="Gets the basic segment type of a CIP EPath.">
<polygon fill="none" stroke="black" points="1518.5,-692.5 1518.5,-713.5 1631.5,-713.5 1631.5,-692.5 1518.5,-692.5"/>
<text text-anchor="middle" x="1575" y="-700.5" font-family="Helvetica,sans-Serif" font-size="10.00">GetPathSegmentType</text>
</a>
</g>
<!-- Node7&#45;&gt;Node8 -->
<g id="edge14" class="edge"><title>Node7&#45;&gt;Node8</title>
<path fill="none" stroke="midnightblue" d="M359.892,-419.826C374.466,-446.954 412.705,-520.299 436,-585 457.472,-644.638 423.743,-681.902 472,-723 541.341,-782.055 788.92,-762 880,-762 880,-762 880,-762 1155,-762 1300.58,-762 1340.33,-776.488 1482,-743 1504.51,-737.678 1528.46,-727.255 1546.42,-718.382"/>
<polygon fill="midnightblue" stroke="midnightblue" points="1548.4,-721.303 1555.73,-713.655 1545.23,-715.061 1548.4,-721.303"/>
</g>
<!-- Node9 -->
<g id="node17" class="node"><title>Node9</title>
<a xlink:href="../../de/ddc/cipepath_8c.html#a4ba7b528ebba012c609a29069030e54b" target="_top" xlink:title="Gets the Logical Type of an EPath Logical Segment message.">
<polygon fill="none" stroke="black" points="1306.5,-712.5 1306.5,-733.5 1481.5,-733.5 1481.5,-712.5 1306.5,-712.5"/>
<text text-anchor="middle" x="1394" y="-720.5" font-family="Helvetica,sans-Serif" font-size="10.00">GetPathLogicalSegmentLogicalType</text>
</a>
</g>
<!-- Node7&#45;&gt;Node9 -->
<g id="edge16" class="edge"><title>Node7&#45;&gt;Node9</title>
<path fill="none" stroke="midnightblue" d="M359.413,-419.532C373.198,-446.573 410.35,-520.833 436,-585 454.624,-631.591 432.202,-661.445 472,-692 536.082,-741.199 1071.92,-732.101 1296.05,-726.039"/>
<polygon fill="midnightblue" stroke="midnightblue" points="1296.26,-729.535 1306.16,-725.762 1296.06,-722.537 1296.26,-729.535"/>
</g>
<!-- Node10 -->
<g id="node20" class="node"><title>Node10</title>
<a xlink:href="../../de/ddc/cipepath_8c.html#a73db576275384cc722a8346c4674a8db" target="_top" xlink:title="Gets the Special Type Logical Type of a Logical Segment EPath message.">
<polygon fill="none" stroke="black" points="1040.5,-674.5 1040.5,-695.5 1269.5,-695.5 1269.5,-674.5 1040.5,-674.5"/>
<text text-anchor="middle" x="1155" y="-682.5" font-family="Helvetica,sans-Serif" font-size="10.00">GetPathLogicalSegmentSpecialTypeLogicalType</text>
</a>
</g>
<!-- Node7&#45;&gt;Node10 -->
<g id="edge20" class="edge"><title>Node7&#45;&gt;Node10</title>
<path fill="none" stroke="midnightblue" d="M358.955,-419.755C380.653,-466.805 466.461,-652.341 472,-656 560.537,-714.486 858.616,-705.417 1030.32,-694.631"/>
<polygon fill="midnightblue" stroke="midnightblue" points="1030.67,-698.116 1040.42,-693.985 1030.22,-691.13 1030.67,-698.116"/>
</g>
<!-- Node11 -->
<g id="node24" class="node"><title>Node11</title>
<a xlink:href="../../de/ddc/cipepath_8c.html#a47d5d40a1e8a862c875efbfe7d49d059" target="_top" xlink:title="Gets the Electronic Key format of a Logical Segment Special Type EPath message.">
<polygon fill="none" stroke="black" points="773,-636.5 773,-657.5 987,-657.5 987,-636.5 773,-636.5"/>
<text text-anchor="middle" x="880" y="-644.5" font-family="Helvetica,sans-Serif" font-size="10.00">GetPathLogicalSegmentElectronicKeyFormat</text>
</a>
</g>
<!-- Node7&#45;&gt;Node11 -->
<g id="edge26" class="edge"><title>Node7&#45;&gt;Node11</title>
<path fill="none" stroke="midnightblue" d="M359.011,-419.785C378.848,-462.258 451.774,-616.283 472,-629 518.689,-658.356 659.304,-658.68 762.446,-654.417"/>
<polygon fill="midnightblue" stroke="midnightblue" points="762.781,-657.905 772.621,-653.976 762.479,-650.912 762.781,-657.905"/>
</g>
<!-- Node12 -->
<g id="node27" class="node"><title>Node12</title>
<a xlink:href="../../d3/dfe/cipelectronickey_8c.html#ab1c62d1eca42444b24da4e61ee273ef3" target="_top" xlink:title="Constructor for the electroic key format 4 class.">
<polygon fill="none" stroke="black" points="529,-598.5 529,-619.5 663,-619.5 663,-598.5 529,-598.5"/>
<text text-anchor="middle" x="596" y="-606.5" font-family="Helvetica,sans-Serif" font-size="10.00">ElectronicKeyFormat4New</text>
</a>
</g>
<!-- Node7&#45;&gt;Node12 -->
<g id="edge30" class="edge"><title>Node7&#45;&gt;Node12</title>
<path fill="none" stroke="midnightblue" d="M357.524,-419.754C368.581,-451.64 405.845,-546.108 472,-589 485.864,-597.989 502.385,-603.409 518.774,-606.585"/>
<polygon fill="midnightblue" stroke="midnightblue" points="518.497,-610.087 528.937,-608.284 519.652,-603.183 518.497,-610.087"/>
</g>
<!-- Node13 -->
<g id="node29" class="node"><title>Node13</title>
<a xlink:href="../../de/ddc/cipepath_8c.html#ae7344c52d0c796ecd8ec98d3b1b87791" target="_top" xlink:title="Gets the data for an Electronic Key of format 4 from the EPath message.">
<polygon fill="none" stroke="black" points="486.5,-558.5 486.5,-579.5 705.5,-579.5 705.5,-558.5 486.5,-558.5"/>
<text text-anchor="middle" x="596" y="-566.5" font-family="Helvetica,sans-Serif" font-size="10.00">GetPathLogicalSegmentElectronicKeyFormat4</text>
</a>
</g>
<!-- Node7&#45;&gt;Node13 -->
<g id="edge32" class="edge"><title>Node7&#45;&gt;Node13</title>
<path fill="none" stroke="midnightblue" d="M359.432,-419.632C373.739,-446.433 415.294,-516.894 472,-549 475.736,-551.115 479.63,-553.023 483.637,-554.744"/>
<polygon fill="midnightblue" stroke="midnightblue" points="482.579,-558.087 493.168,-558.426 485.102,-551.557 482.579,-558.087"/>
</g>
<!-- Node21 -->
<g id="node46" class="node"><title>Node21</title>
<a xlink:href="../../d3/dfe/cipelectronickey_8c.html#a08b515351383f3ccdcd99d80ad9a3cd1" target="_top" xlink:title="Gets the vendor ID form the electronic key.">
<polygon fill="none" stroke="black" points="512,-518.5 512,-539.5 680,-539.5 680,-518.5 512,-518.5"/>
<text text-anchor="middle" x="596" y="-526.5" font-family="Helvetica,sans-Serif" font-size="10.00">ElectronicKeyFormat4GetVendorId</text>
</a>
</g>
<!-- Node7&#45;&gt;Node21 -->
<g id="edge50" class="edge"><title>Node7&#45;&gt;Node21</title>
<path fill="none" stroke="midnightblue" d="M362.805,-419.598C380.867,-440.542 424.435,-487.101 472,-509 481.382,-513.319 491.536,-516.725 501.857,-519.407"/>
<polygon fill="midnightblue" stroke="midnightblue" points="501.245,-522.859 511.783,-521.763 502.861,-516.048 501.245,-522.859"/>
</g>
<!-- Node22 -->
<g id="node48" class="node"><title>Node22</title>
<a xlink:href="../../d3/dfe/cipelectronickey_8c.html#aed74dbd485f78aed3c0e3899b8bcc527" target="_top" xlink:title="Gets the device type from a format 4 electronic key.">
<polygon fill="none" stroke="black" points="505,-478.5 505,-499.5 687,-499.5 687,-478.5 505,-478.5"/>
<text text-anchor="middle" x="596" y="-486.5" font-family="Helvetica,sans-Serif" font-size="10.00">ElectronicKeyFormat4GetDeviceType</text>
</a>
</g>
<!-- Node7&#45;&gt;Node22 -->
<g id="edge52" class="edge"><title>Node7&#45;&gt;Node22</title>
<path fill="none" stroke="midnightblue" d="M370.862,-419.709C393.131,-433.341 433.98,-456.605 472,-469 480.602,-471.805 489.673,-474.225 498.835,-476.313"/>
<polygon fill="midnightblue" stroke="midnightblue" points="498.283,-479.774 508.795,-478.45 499.752,-472.93 498.283,-479.774"/>
</g>
<!-- Node23 -->
<g id="node50" class="node"><title>Node23</title>
<a xlink:href="../../d3/dfe/cipelectronickey_8c.html#a8669b86649f54117218db3fcf6d99e52" target="_top" xlink:title="Gets the product code from an format 4 electronic key.">
<polygon fill="none" stroke="black" points="503,-438.5 503,-459.5 689,-459.5 689,-438.5 503,-438.5"/>
<text text-anchor="middle" x="596" y="-446.5" font-family="Helvetica,sans-Serif" font-size="10.00">ElectronicKeyFormat4GetProductCode</text>
</a>
</g>
<!-- Node7&#45;&gt;Node23 -->
<g id="edge54" class="edge"><title>Node7&#45;&gt;Node23</title>
<path fill="none" stroke="midnightblue" d="M410.106,-418.604C429.685,-421.93 451.808,-425.66 472,-429 487.442,-431.554 503.973,-434.248 519.768,-436.803"/>
<polygon fill="midnightblue" stroke="midnightblue" points="519.592,-440.32 530.022,-438.459 520.708,-433.409 519.592,-440.32"/>
</g>
<!-- Node24 -->
<g id="node52" class="node"><title>Node24</title>
<a xlink:href="../../d3/dfe/cipelectronickey_8c.html#a7e2d34446282a304baa88999819826be" target="_top" xlink:title="Gets the major revision from an format 4 electronic key.">
<polygon fill="none" stroke="black" points="500.5,-398.5 500.5,-419.5 691.5,-419.5 691.5,-398.5 500.5,-398.5"/>
<text text-anchor="middle" x="596" y="-406.5" font-family="Helvetica,sans-Serif" font-size="10.00">ElectronicKeyFormat4GetMajorRevision</text>
</a>
</g>
<!-- Node7&#45;&gt;Node24 -->
<g id="edge56" class="edge"><title>Node7&#45;&gt;Node24</title>
<path fill="none" stroke="midnightblue" d="M410.128,-409C434.004,-409 462.665,-409 490.251,-409"/>
<polygon fill="midnightblue" stroke="midnightblue" points="490.355,-412.5 500.355,-409 490.355,-405.5 490.355,-412.5"/>
</g>
<!-- Node25 -->
<g id="node54" class="node"><title>Node25</title>
<a xlink:href="../../d3/dfe/cipelectronickey_8c.html#ae9592a58f49bf82f502445bfb674f3f9" target="_top" xlink:title="Gets the Compatibility flag from the format 4 electronic key.">
<polygon fill="none" stroke="black" points="472,-358.5 472,-379.5 720,-379.5 720,-358.5 472,-358.5"/>
<text text-anchor="middle" x="596" y="-366.5" font-family="Helvetica,sans-Serif" font-size="10.00">ElectronicKeyFormat4GetMajorRevisionCompatibility</text>
</a>
</g>
<!-- Node7&#45;&gt;Node25 -->
<g id="edge58" class="edge"><title>Node7&#45;&gt;Node25</title>
<path fill="none" stroke="midnightblue" d="M410.106,-399.396C429.685,-396.07 451.808,-392.34 472,-389 487.442,-386.446 503.973,-383.752 519.768,-381.197"/>
<polygon fill="midnightblue" stroke="midnightblue" points="520.708,-384.591 530.022,-379.541 519.592,-377.68 520.708,-384.591"/>
</g>
<!-- Node26 -->
<g id="node56" class="node"><title>Node26</title>
<a xlink:href="../../d3/dfe/cipelectronickey_8c.html#a8b6d76d23689701cc6e573e4a89e1206" target="_top" xlink:title="Gets the minor revision from an format 4 electronic key.">
<polygon fill="none" stroke="black" points="500.5,-318.5 500.5,-339.5 691.5,-339.5 691.5,-318.5 500.5,-318.5"/>
<text text-anchor="middle" x="596" y="-326.5" font-family="Helvetica,sans-Serif" font-size="10.00">ElectronicKeyFormat4GetMinorRevision</text>
</a>
</g>
<!-- Node7&#45;&gt;Node26 -->
<g id="edge60" class="edge"><title>Node7&#45;&gt;Node26</title>
<path fill="none" stroke="midnightblue" d="M370.862,-398.291C393.131,-384.659 433.98,-361.395 472,-349 480.602,-346.195 489.673,-343.775 498.835,-341.687"/>
<polygon fill="midnightblue" stroke="midnightblue" points="499.752,-345.07 508.795,-339.55 498.283,-338.226 499.752,-345.07"/>
</g>
<!-- Node27 -->
<g id="node58" class="node"><title>Node27</title>
<a xlink:href="../../d3/dfe/cipelectronickey_8c.html#a9fa7805c9496e42b8ccfff62112202f6" target="_top" xlink:title="Destructor for the electroic key format 4 class.">
<polygon fill="none" stroke="black" points="525,-278.5 525,-299.5 667,-299.5 667,-278.5 525,-278.5"/>
<text text-anchor="middle" x="596" y="-286.5" font-family="Helvetica,sans-Serif" font-size="10.00">ElectronicKeyFormat4Delete</text>
</a>
</g>
<!-- Node7&#45;&gt;Node27 -->
<g id="edge62" class="edge"><title>Node7&#45;&gt;Node27</title>
<path fill="none" stroke="midnightblue" d="M362.805,-398.402C380.867,-377.458 424.435,-330.899 472,-309 485.277,-302.887 500.103,-298.604 514.756,-295.612"/>
<polygon fill="midnightblue" stroke="midnightblue" points="515.657,-299.005 524.852,-293.74 514.381,-292.122 515.657,-299.005"/>
</g>
<!-- Node28 -->
<g id="node60" class="node"><title>Node28</title>
<a xlink:href="../../d5/d35/cipconnectionmanager_8c.html#a0641b0c274a018b0cdd449f977c4be06" target="_top" xlink:title="Compare the electronic key received with a forward open request with the device&#39;s data...">
<polygon fill="none" stroke="black" points="532.5,-238.5 532.5,-259.5 659.5,-259.5 659.5,-238.5 532.5,-238.5"/>
<text text-anchor="middle" x="596" y="-246.5" font-family="Helvetica,sans-Serif" font-size="10.00">CheckElectronicKeyData</text>
</a>
</g>
<!-- Node7&#45;&gt;Node28 -->
<g id="edge64" class="edge"><title>Node7&#45;&gt;Node28</title>
<path fill="none" stroke="midnightblue" d="M359.432,-398.368C373.739,-371.567 415.294,-301.106 472,-269 487.149,-260.423 504.908,-255.25 522.176,-252.193"/>
<polygon fill="midnightblue" stroke="midnightblue" points="522.918,-255.62 532.263,-250.628 521.845,-248.703 522.918,-255.62"/>
</g>
<!-- Node29 -->
<g id="node62" class="node"><title>Node29</title>
<a xlink:href="../../de/ddc/cipepath_8c.html#a8b23b9db19fa379a44d29b62ee1a6337" target="_top" xlink:title="Return the Network Segment subtype.">
<polygon fill="none" stroke="black" points="1073,-417.5 1073,-438.5 1237,-438.5 1237,-417.5 1073,-417.5"/>
<text text-anchor="middle" x="1155" y="-425.5" font-family="Helvetica,sans-Serif" font-size="10.00">GetPathNetworkSegmentSubtype</text>
</a>
</g>
<!-- Node7&#45;&gt;Node29 -->
<g id="edge66" class="edge"><title>Node7&#45;&gt;Node29</title>
<path fill="none" stroke="midnightblue" d="M357.082,-398.212C367.118,-365.384 402.302,-266.649 472,-229 568.978,-176.615 611.907,-207.438 720,-229 887.284,-262.37 1066.16,-370.297 1130.34,-411.66"/>
<polygon fill="midnightblue" stroke="midnightblue" points="1128.67,-414.748 1138.96,-417.263 1132.48,-408.879 1128.67,-414.748"/>
</g>
<!-- Node30 -->
<g id="node65" class="node"><title>Node30</title>
<a xlink:href="../../d5/d35/cipconnectionmanager_8c.html#ab83f6b364a19bd484d9cc4c6e6342057" target="_top" xlink:title="gets the padded logical path TODO: enhance documentation">
<polygon fill="none" stroke="black" points="538,-160.5 538,-181.5 654,-181.5 654,-160.5 538,-160.5"/>
<text text-anchor="middle" x="596" y="-168.5" font-family="Helvetica,sans-Serif" font-size="10.00">GetPaddedLogicalPath</text>
</a>
</g>
<!-- Node7&#45;&gt;Node30 -->
<g id="edge70" class="edge"><title>Node7&#45;&gt;Node30</title>
<path fill="none" stroke="midnightblue" d="M356.467,-398.491C365.279,-363.434 398.661,-249.688 472,-196 488.071,-184.235 508.317,-177.669 527.764,-174.094"/>
<polygon fill="midnightblue" stroke="midnightblue" points="528.511,-177.519 537.834,-172.485 527.407,-170.606 528.511,-177.519"/>
</g>
<!-- Node31 -->
<g id="node67" class="node"><title>Node31</title>
<a xlink:href="../../d2/dc9/group__CIP__API.html#ga98bd609c80ece316406363575b4a89ea" target="_top" xlink:title="Get a pointer to a CIP object with given class code.">
<polygon fill="none" stroke="black" points="559.5,-120.5 559.5,-141.5 632.5,-141.5 632.5,-120.5 559.5,-120.5"/>
<text text-anchor="middle" x="596" y="-128.5" font-family="Helvetica,sans-Serif" font-size="10.00">GetCipClass</text>
</a>
</g>
<!-- Node7&#45;&gt;Node31 -->
<g id="edge72" class="edge"><title>Node7&#45;&gt;Node31</title>
<path fill="none" stroke="midnightblue" d="M355.305,-398.485C360.839,-358.703 386.186,-216.354 472,-151 493.803,-134.395 524.086,-129.274 549.267,-128.363"/>
<polygon fill="midnightblue" stroke="midnightblue" points="549.404,-131.861 559.349,-128.207 549.296,-124.862 549.404,-131.861"/>
</g>
<!-- Node33 -->
<g id="node71" class="node"><title>Node33</title>
<a xlink:href="../../d2/dc9/group__CIP__API.html#gaa50395aca91b378c297d6ad919df210e" target="_top" xlink:title="Get a pointer to an instance.">
<polygon fill="none" stroke="black" points="553.5,-80.5 553.5,-101.5 638.5,-101.5 638.5,-80.5 553.5,-80.5"/>
<text text-anchor="middle" x="596" y="-88.5" font-family="Helvetica,sans-Serif" font-size="10.00">GetCipInstance</text>
</a>
</g>
<!-- Node7&#45;&gt;Node33 -->
<g id="edge76" class="edge"><title>Node7&#45;&gt;Node33</title>
<path fill="none" stroke="midnightblue" d="M354.617,-398.428C357.764,-354.899 375.918,-188.197 472,-111 491.783,-95.1057 519.204,-89.5292 543.231,-88.1742"/>
<polygon fill="midnightblue" stroke="midnightblue" points="543.413,-91.6702 553.289,-87.8343 543.176,-84.6742 543.413,-91.6702"/>
</g>
<!-- Node34 -->
<g id="node73" class="node"><title>Node34</title>
<a xlink:href="../../d5/d35/cipconnectionmanager_8c.html#abe98e638bb3ac01dc06d7d944a1f30bf" target="_top" xlink:title="returns the connection type of the supplied network connection parameter">
<polygon fill="none" stroke="black" points="544,-40.5 544,-61.5 648,-61.5 648,-40.5 544,-40.5"/>
<text text-anchor="middle" x="596" y="-48.5" font-family="Helvetica,sans-Serif" font-size="10.00">GetConnectionType</text>
</a>
</g>
<!-- Node7&#45;&gt;Node34 -->
<g id="edge78" class="edge"><title>Node7&#45;&gt;Node34</title>
<path fill="none" stroke="midnightblue" d="M356.19,-398.37C367.194,-346.009 418.046,-116.206 472,-71 489.027,-56.7339 512.137,-50.6545 533.793,-48.5054"/>
<polygon fill="midnightblue" stroke="midnightblue" points="534.225,-51.9833 543.943,-47.7632 533.714,-45.0019 534.225,-51.9833"/>
</g>
<!-- Node35 -->
<g id="node75" class="node"><title>Node35</title>
<a xlink:href="../../de/ddc/cipepath_8c.html#a15193166e453f1f03cf20175c5264439" target="_top" xlink:title="Gets the Data Segment subtype of a Data Segment EPath message.">
<polygon fill="none" stroke="black" points="521.5,-0.5 521.5,-21.5 670.5,-21.5 670.5,-0.5 521.5,-0.5"/>
<text text-anchor="middle" x="596" y="-8.5" font-family="Helvetica,sans-Serif" font-size="10.00">GetPathDataSegmentSubtype</text>
</a>
</g>
<!-- Node7&#45;&gt;Node35 -->
<g id="edge80" class="edge"><title>Node7&#45;&gt;Node35</title>
<path fill="none" stroke="midnightblue" d="M355.8,-398.265C365.445,-342.062 412.773,-82.3272 472,-31 483.113,-21.3693 496.976,-15.4247 511.369,-11.8924"/>
<polygon fill="midnightblue" stroke="midnightblue" points="512.308,-15.2723 521.39,-9.81682 510.888,-8.41773 512.308,-15.2723"/>
</g>
<!-- Node9&#45;&gt;Node8 -->
<g id="edge18" class="edge"><title>Node9&#45;&gt;Node8</title>
<path fill="none" stroke="midnightblue" d="M1481.58,-713.322C1490.6,-712.326 1499.65,-711.326 1508.39,-710.361"/>
<polygon fill="midnightblue" stroke="midnightblue" points="1508.92,-713.823 1518.47,-709.246 1508.15,-706.866 1508.92,-713.823"/>
</g>
<!-- Node10&#45;&gt;Node8 -->
<g id="edge22" class="edge"><title>Node10&#45;&gt;Node8</title>
<path fill="none" stroke="midnightblue" d="M1269.77,-689.919C1346.15,-693.192 1443.86,-697.38 1507.88,-700.123"/>
<polygon fill="midnightblue" stroke="midnightblue" points="1508.11,-703.636 1518.25,-700.568 1508.41,-696.643 1508.11,-703.636"/>
</g>
<!-- Node10&#45;&gt;Node9 -->
<g id="edge24" class="edge"><title>Node10&#45;&gt;Node9</title>
<path fill="none" stroke="midnightblue" d="M1221.26,-695.535C1251.17,-700.291 1286.69,-705.938 1317.71,-710.87"/>
<polygon fill="midnightblue" stroke="midnightblue" points="1317.19,-714.331 1327.61,-712.445 1318.29,-707.418 1317.19,-714.331"/>
</g>
<!-- Node11&#45;&gt;Node10 -->
<g id="edge28" class="edge"><title>Node11&#45;&gt;Node10</title>
<path fill="none" stroke="midnightblue" d="M956.238,-657.535C991.108,-662.353 1032.59,-668.085 1068.61,-673.062"/>
<polygon fill="midnightblue" stroke="midnightblue" points="1068.23,-676.543 1078.61,-674.445 1069.19,-669.609 1068.23,-676.543"/>
</g>
<!-- Node13&#45;&gt;Node11 -->
<g id="edge34" class="edge"><title>Node13&#45;&gt;Node11</title>
<path fill="none" stroke="midnightblue" d="M697.317,-579.591C705.205,-582.132 712.867,-585.23 720,-589 740.569,-599.87 735.431,-616.13 756,-627 760.235,-629.238 764.657,-631.24 769.202,-633.028"/>
<polygon fill="midnightblue" stroke="midnightblue" points="768.089,-636.347 778.683,-636.409 770.44,-629.754 768.089,-636.347"/>
</g>
<!-- Node14 -->
<g id="node32" class="node"><title>Node14</title>
<a xlink:href="../../d3/dfe/cipelectronickey_8c.html#a7b91a4a7fbbcea6e1616e60046de9b21" target="_top" xlink:title="Sets vendor ID in the electronic key.">
<polygon fill="none" stroke="black" points="796.5,-596.5 796.5,-617.5 963.5,-617.5 963.5,-596.5 796.5,-596.5"/>
<text text-anchor="middle" x="880" y="-604.5" font-family="Helvetica,sans-Serif" font-size="10.00">ElectronicKeyFormat4SetVendorId</text>
</a>
</g>
<!-- Node13&#45;&gt;Node14 -->
<g id="edge36" class="edge"><title>Node13&#45;&gt;Node14</title>
<path fill="none" stroke="midnightblue" d="M674.733,-579.535C710.745,-584.353 753.58,-590.085 790.781,-595.062"/>
<polygon fill="midnightblue" stroke="midnightblue" points="790.738,-598.588 801.114,-596.445 791.667,-591.649 790.738,-598.588"/>
</g>
<!-- Node15 -->
<g id="node34" class="node"><title>Node15</title>
<a xlink:href="../../d4/d91/group__ENCAP.html#ga70322f970709ca9c9a1a1d474cfe2302" target="_top" xlink:title="Reads EIP_UINT16 from *buffer and converts little endian to host.">
<polygon fill="none" stroke="black" points="827,-556.5 827,-577.5 933,-577.5 933,-556.5 827,-556.5"/>
<text text-anchor="middle" x="880" y="-564.5" font-family="Helvetica,sans-Serif" font-size="10.00">GetIntFromMessage</text>
</a>
</g>
<!-- Node13&#45;&gt;Node15 -->
<g id="edge38" class="edge"><title>Node13&#45;&gt;Node15</title>
<path fill="none" stroke="midnightblue" d="M705.802,-568.227C743.267,-567.963 783.888,-567.677 816.473,-567.447"/>
<polygon fill="midnightblue" stroke="midnightblue" points="816.781,-570.945 826.756,-567.375 816.732,-563.946 816.781,-570.945"/>
</g>
<!-- Node16 -->
<g id="node36" class="node"><title>Node16</title>
<a xlink:href="../../d3/dfe/cipelectronickey_8c.html#abbde02813367d3358d52b4d1834365a1" target="_top" xlink:title="Sets the device type in the electronic key.">
<polygon fill="none" stroke="black" points="789.5,-516.5 789.5,-537.5 970.5,-537.5 970.5,-516.5 789.5,-516.5"/>
<text text-anchor="middle" x="880" y="-524.5" font-family="Helvetica,sans-Serif" font-size="10.00">ElectronicKeyFormat4SetDeviceType</text>
</a>
</g>
<!-- Node13&#45;&gt;Node16 -->
<g id="edge40" class="edge"><title>Node13&#45;&gt;Node16</title>
<path fill="none" stroke="midnightblue" d="M667.299,-558.456C707.22,-552.552 757.151,-545.168 798.602,-539.038"/>
<polygon fill="midnightblue" stroke="midnightblue" points="799.292,-542.474 808.672,-537.548 798.268,-535.549 799.292,-542.474"/>
</g>
<!-- Node17 -->
<g id="node38" class="node"><title>Node17</title>
<a xlink:href="../../d3/dfe/cipelectronickey_8c.html#aab37ab3ef4b3c1722b43e9c53bf9aa29" target="_top" xlink:title="Set product code in the electronic key.">
<polygon fill="none" stroke="black" points="787.5,-476.5 787.5,-497.5 972.5,-497.5 972.5,-476.5 787.5,-476.5"/>
<text text-anchor="middle" x="880" y="-484.5" font-family="Helvetica,sans-Serif" font-size="10.00">ElectronicKeyFormat4SetProductCode</text>
</a>
</g>
<!-- Node13&#45;&gt;Node17 -->
<g id="edge42" class="edge"><title>Node13&#45;&gt;Node17</title>
<path fill="none" stroke="midnightblue" d="M698.48,-558.474C705.984,-555.907 713.248,-552.786 720,-549 741.444,-536.976 734.556,-519.024 756,-507 762.82,-503.176 770.163,-500.03 777.748,-497.449"/>
<polygon fill="midnightblue" stroke="midnightblue" points="778.928,-500.748 787.464,-494.471 776.877,-494.055 778.928,-500.748"/>
</g>
<!-- Node18 -->
<g id="node40" class="node"><title>Node18</title>
<a xlink:href="../../d3/dfe/cipelectronickey_8c.html#aeef92af1525065849e2cbab7ed8ae057" target="_top" xlink:title="Sets the major revision byte including the compatibility flag.">
<polygon fill="none" stroke="black" points="756,-436.5 756,-457.5 1004,-457.5 1004,-436.5 756,-436.5"/>
<text text-anchor="middle" x="880" y="-444.5" font-family="Helvetica,sans-Serif" font-size="10.00">ElectronicKeyFormat4SetMajorRevisionCompatibility</text>
</a>
</g>
<!-- Node13&#45;&gt;Node18 -->
<g id="edge44" class="edge"><title>Node13&#45;&gt;Node18</title>
<path fill="none" stroke="midnightblue" d="M704.679,-558.413C710.103,-555.782 715.257,-552.67 720,-549 751.48,-524.644 724.52,-491.356 756,-467 758.075,-465.395 760.229,-463.896 762.449,-462.497"/>
<polygon fill="midnightblue" stroke="midnightblue" points="764.267,-465.492 771.321,-457.587 760.877,-459.367 764.267,-465.492"/>
</g>
<!-- Node19 -->
<g id="node42" class="node"><title>Node19</title>
<a xlink:href="../../d4/d91/group__ENCAP.html#ga0a45608ad12bae48152cb1cfafef1a4c" target="_top" xlink:title="Reads EIP_UINT8 from *buffer and converts little endian to host.">
<polygon fill="none" stroke="black" points="824,-396.5 824,-417.5 936,-417.5 936,-396.5 824,-396.5"/>
<text text-anchor="middle" x="880" y="-404.5" font-family="Helvetica,sans-Serif" font-size="10.00">GetSintFromMessage</text>
</a>
</g>
<!-- Node13&#45;&gt;Node19 -->
<g id="edge46" class="edge"><title>Node13&#45;&gt;Node19</title>
<path fill="none" stroke="midnightblue" d="M705.545,-558.96C710.715,-556.183 715.581,-552.891 720,-549 762.432,-511.643 713.568,-464.357 756,-427 771.753,-413.131 793.189,-406.864 813.808,-404.442"/>
<polygon fill="midnightblue" stroke="midnightblue" points="814.187,-407.922 823.835,-403.546 813.564,-400.95 814.187,-407.922"/>
</g>
<!-- Node20 -->
<g id="node44" class="node"><title>Node20</title>
<a xlink:href="../../d3/dfe/cipelectronickey_8c.html#a95f29f728627f94cfee3e3bce342d78f" target="_top" xlink:title="Sets the devices minor revision in an format 4 electronic key.">
<polygon fill="none" stroke="black" points="784.5,-356.5 784.5,-377.5 975.5,-377.5 975.5,-356.5 784.5,-356.5"/>
<text text-anchor="middle" x="880" y="-364.5" font-family="Helvetica,sans-Serif" font-size="10.00">ElectronicKeyFormat4SetMinorRevision</text>
</a>
</g>
<!-- Node13&#45;&gt;Node20 -->
<g id="edge48" class="edge"><title>Node13&#45;&gt;Node20</title>
<path fill="none" stroke="midnightblue" d="M705.587,-559.475C710.78,-556.575 715.637,-553.114 720,-549 773.663,-498.401 702.337,-437.599 756,-387 761.563,-381.755 767.928,-377.571 774.771,-374.257"/>
<polygon fill="midnightblue" stroke="midnightblue" points="776.484,-377.335 784.369,-370.258 773.792,-370.873 776.484,-377.335"/>
</g>
<!-- Node29&#45;&gt;Node8 -->
<g id="edge68" class="edge"><title>Node29&#45;&gt;Node8</title>
<path fill="none" stroke="midnightblue" d="M1171.21,-438.612C1235.38,-480.631 1471.98,-635.546 1549.92,-686.578"/>
<polygon fill="midnightblue" stroke="midnightblue" points="1548.33,-689.722 1558.61,-692.271 1552.17,-683.865 1548.33,-689.722"/>
</g>
<!-- Node32 -->
<g id="node69" class="node"><title>Node32</title>
<a xlink:href="../../d9/d7d/cipmessagerouter_8c.html#a7a9f44f2d6f010b6f6ee922d378d9bb1" target="_top" xlink:title="Get the registered MessageRouter object corresponding to ClassID. given a class ID, return a pointer to the registration node for that object.">
<polygon fill="none" stroke="black" points="826,-120.5 826,-141.5 934,-141.5 934,-120.5 826,-120.5"/>
<text text-anchor="middle" x="880" y="-128.5" font-family="Helvetica,sans-Serif" font-size="10.00">GetRegisteredObject</text>
</a>
</g>
<!-- Node31&#45;&gt;Node32 -->
<g id="edge74" class="edge"><title>Node31&#45;&gt;Node32</title>
<path fill="none" stroke="midnightblue" d="M632.547,-131C678.735,-131 759.026,-131 815.599,-131"/>
<polygon fill="midnightblue" stroke="midnightblue" points="815.873,-134.5 825.873,-131 815.873,-127.5 815.873,-134.5"/>
</g>
</g>
</svg>
        <g id="navigator" transform="translate(0 0)" fill="#404254">
                <rect fill="#f2f5e9" fill-opacity="0.5" stroke="#606060" stroke-width=".5" x="0" y="0" width="60" height="60"/>
                <use id="zoomplus" xlink:href="#zoomPlus" x="17" y="9" onmousedown="handleZoom(evt,'in')"/>
                <use id="zoomminus" xlink:href="#zoomMin" x="42" y="9" onmousedown="handleZoom(evt,'out')"/>
                <use id="reset" xlink:href="#resetDef" x="30" y="36" onmousedown="handleReset()"/>
                <g id="arrowUp" xlink:href="#dirArrow" transform="translate(30 24)" onmousedown="handlePan(0,-1)">
                  <use xlink:href="#rim" fill="#404040">
                        <set attributeName="fill" to="#808080" begin="arrowUp.mouseover" end="arrowUp.mouseout"/>
                  </use>
                  <path fill="none" stroke="white" stroke-width="1.5" d="M0,-3.0v7 M-2.5,-0.5L0,-3.0L2.5,-0.5"/>
                </g>
                <g id="arrowRight" xlink:href="#dirArrow" transform="rotate(90) translate(36 -43)" onmousedown="handlePan(1,0)">
                  <use xlink:href="#rim" fill="#404040">
                        <set attributeName="fill" to="#808080" begin="arrowRight.mouseover" end="arrowRight.mouseout"/>
                  </use>
                  <path fill="none" stroke="white" stroke-width="1.5" d="M0,-3.0v7 M-2.5,-0.5L0,-3.0L2.5,-0.5"/>
                </g>
                <g id="arrowDown" xlink:href="#dirArrow" transform="rotate(180) translate(-30 -48)" onmousedown="handlePan(0,1)">
                  <use xlink:href="#rim" fill="#404040">
                        <set attributeName="fill" to="#808080" begin="arrowDown.mouseover" end="arrowDown.mouseout"/>
                  </use>
                  <path fill="none" stroke="white" stroke-width="1.5" d="M0,-3.0v7 M-2.5,-0.5L0,-3.0L2.5,-0.5"/>
                </g>
                <g id="arrowLeft" xlink:href="#dirArrow" transform="rotate(270) translate(-36 17)" onmousedown="handlePan(-1,0)">
                  <use xlink:href="#rim" fill="#404040">
                        <set attributeName="fill" to="#808080" begin="arrowLeft.mouseover" end="arrowLeft.mouseout"/>
                  </use>
                  <path fill="none" stroke="white" stroke-width="1.5" d="M0,-3.0v7 M-2.5,-0.5L0,-3.0L2.5,-0.5"/>
                </g>
        </g>
</svg>
