<?xml version="1.0" encoding="UTF-8" standalone="no"?>
<!DOCTYPE svg PUBLIC "-//W3C//DTD SVG 1.1//EN"
 "http://www.w3.org/Graphics/SVG/1.1/DTD/svg11.dtd">
<!-- Generated by graphviz version 2.26.3 (20100126.1600)
 -->
<!-- Title: G Pages: 1 -->
<!--zoomable 230 -->
<svg id="main" version="1.1" xmlns="http://www.w3.org/2000/svg" xmlns:xlink="http://www.w3.org/1999/xlink" xml:space="preserve" onload="init(evt)">
        <defs>
                <circle id="rim" cx="0" cy="0" r="7"/>
                <circle id="rim2" cx="0" cy="0" r="3.5"/>
                <g id="zoomPlus">
                        <use xlink:href="#rim" fill="#404040">
                                <set attributeName="fill" to="#808080" begin="zoomplus.mouseover" end="zoomplus.mouseout"/>
                        </use>
                        <path d="M-4,0h8M0,-4v8" fill="none" stroke="white" stroke-width="1.5" pointer-events="none"/>
                </g>
                <g id="zoomMin">
                        <use xlink:href="#rim" fill="#404040">
                                <set attributeName="fill" to="#808080" begin="zoomminus.mouseover" end="zoomminus.mouseout"/>
                        </use>
                        <path d="M-4,0h8" fill="none" stroke="white" stroke-width="1.5" pointer-events="none"/>
                </g>
                <g id="dirArrow">
                        <path fill="none" stroke="white" stroke-width="1.5" d="M0,-3.0v7 M-2.5,-0.5L0,-3.0L2.5,-0.5"/>
                </g>
               <g id="resetDef">
                       <use xlink:href="#rim2" fill="#404040">
                               <set attributeName="fill" to="#808080" begin="reset.mouseover" end="reset.mouseout"/>
                       </use>
               </g>
        </defs>

<script type="text/javascript">
var viewWidth = 926;
var viewHeight = 230;
var sectionId = 'dynsection-2';
</script>
<script xlink:href="../../svgpan.js"/>
<svg id="graph" class="graph">
<g id="viewport">
<title>G</title>
<!-- Node1 -->
<g id="node1" class="node"><title>Node1</title>
<polygon fill="#bfbfbf" stroke="black" points="0.5,-140.5 0.5,-161.5 107.5,-161.5 107.5,-140.5 0.5,-140.5"/>
<text text-anchor="middle" x="54" y="-148.5" font-family="Helvetica,sans-Serif" font-size="10.00">AddNullAddressItem</text>
</g>
<!-- Node2 -->
<g id="node3" class="node"><title>Node2</title>
<a xlink:href="../../d5/d35/cipconnectionmanager_8c.html#a139a056407b798ae0e5928aaca6d2c7f" target="_top" xlink:title="AssembleForwardCloseResponse">
<polygon fill="none" stroke="black" points="144.5,-180.5 144.5,-201.5 309.5,-201.5 309.5,-180.5 144.5,-180.5"/>
<text text-anchor="middle" x="227" y="-188.5" font-family="Helvetica,sans-Serif" font-size="10.00">AssembleForwardCloseResponse</text>
</a>
</g>
<!-- Node1&#45;&gt;Node2 -->
<g id="edge2" class="edge"><title>Node1&#45;&gt;Node2</title>
<path fill="none" stroke="midnightblue" d="M109.214,-163.766C132.546,-169.161 159.388,-175.367 181.55,-180.491"/>
<polygon fill="midnightblue" stroke="midnightblue" points="109.985,-160.352 99.4537,-161.51 108.408,-167.172 109.985,-160.352"/>
</g>
<!-- Node7 -->
<g id="node13" class="node"><title>Node7</title>
<a xlink:href="../../d5/d35/cipconnectionmanager_8c.html#a22b98139acc6d0f16b6e8954422cc80c" target="_top" xlink:title="Assembles the Forward Open Response.">
<polygon fill="none" stroke="black" points="145.5,-100.5 145.5,-121.5 308.5,-121.5 308.5,-100.5 145.5,-100.5"/>
<text text-anchor="middle" x="227" y="-108.5" font-family="Helvetica,sans-Serif" font-size="10.00">AssembleForwardOpenResponse</text>
</a>
</g>
<!-- Node1&#45;&gt;Node7 -->
<g id="edge12" class="edge"><title>Node1&#45;&gt;Node7</title>
<path fill="none" stroke="midnightblue" d="M109.214,-138.234C132.546,-132.839 159.388,-126.633 181.55,-121.509"/>
<polygon fill="midnightblue" stroke="midnightblue" points="108.408,-134.828 99.4537,-140.49 109.985,-141.648 108.408,-134.828"/>
</g>
<!-- Node3 -->
<g id="node5" class="node"><title>Node3</title>
<a xlink:href="../../d5/d35/cipconnectionmanager_8c.html#a13291325387721d246cbd42ccaf9774f" target="_top" xlink:title="ForwardClose">
<polygon fill="none" stroke="black" points="425.5,-200.5 425.5,-221.5 502.5,-221.5 502.5,-200.5 425.5,-200.5"/>
<text text-anchor="middle" x="464" y="-208.5" font-family="Helvetica,sans-Serif" font-size="10.00">ForwardClose</text>
</a>
</g>
<!-- Node2&#45;&gt;Node3 -->
<g id="edge4" class="edge"><title>Node2&#45;&gt;Node3</title>
<path fill="none" stroke="midnightblue" d="M319.801,-198.831C356.482,-201.927 396.616,-205.314 425.207,-207.726"/>
<polygon fill="midnightblue" stroke="midnightblue" points="319.817,-195.32 309.558,-197.967 319.229,-202.296 319.817,-195.32"/>
</g>
<!-- Node4 -->
<g id="node7" class="node"><title>Node4</title>
<a xlink:href="../../d2/da3/cipconnectionmanager_8h.html#a5ab0de6894d23e8fe84a6b46797c2212" target="_top" xlink:title="Initialize the data of the connection manager object.">
<polygon fill="none" stroke="black" points="618.5,-100.5 618.5,-121.5 735.5,-121.5 735.5,-100.5 618.5,-100.5"/>
<text text-anchor="middle" x="677" y="-108.5" font-family="Helvetica,sans-Serif" font-size="10.00">ConnectionManagerInit</text>
</a>
</g>
<!-- Node3&#45;&gt;Node4 -->
<g id="edge6" class="edge"><title>Node3&#45;&gt;Node4</title>
<path fill="none" stroke="midnightblue" d="M512.83,-208.555C534.778,-206.009 560.517,-200.954 582,-191 618.585,-174.049 652.412,-139.175 667.989,-121.608"/>
<polygon fill="midnightblue" stroke="midnightblue" points="512.313,-205.089 502.719,-209.585 513.022,-212.053 512.313,-205.089"/>
</g>
<!-- Node5 -->
<g id="node9" class="node"><title>Node5</title>
<a xlink:href="../../d2/dc9/group__CIP__API.html#ga5d4979945d124e28668b264c3823db1c" target="_top" xlink:title="Initialize and setup the CIP&#45;stack.">
<polygon fill="none" stroke="black" points="772.5,-100.5 772.5,-121.5 843.5,-121.5 843.5,-100.5 772.5,-100.5"/>
<text text-anchor="middle" x="808" y="-108.5" font-family="Helvetica,sans-Serif" font-size="10.00">CipStackInit</text>
</a>
</g>
<!-- Node4&#45;&gt;Node5 -->
<g id="edge8" class="edge"><title>Node4&#45;&gt;Node5</title>
<path fill="none" stroke="midnightblue" d="M745.629,-111C754.871,-111 764.029,-111 772.366,-111"/>
<polygon fill="midnightblue" stroke="midnightblue" points="745.603,-107.5 735.603,-111 745.603,-114.5 745.603,-107.5"/>
</g>
<!-- Node6 -->
<g id="node11" class="node"><title>Node6</title>
<a xlink:href="../../d9/dfb/POSIX_2main_8c.html#ad338a7dbc41dc40bcecd0479377ef207" target="_top" xlink:title="main">
<polygon fill="none" stroke="black" points="880,-100.5 880,-121.5 918,-121.5 918,-100.5 880,-100.5"/>
<text text-anchor="middle" x="899" y="-108.5" font-family="Helvetica,sans-Serif" font-size="10.00">main</text>
</a>
</g>
<!-- Node5&#45;&gt;Node6 -->
<g id="edge10" class="edge"><title>Node5&#45;&gt;Node6</title>
<path fill="none" stroke="midnightblue" d="M853.982,-111C863.145,-111 872.282,-111 879.906,-111"/>
<polygon fill="midnightblue" stroke="midnightblue" points="853.704,-107.5 843.704,-111 853.704,-114.5 853.704,-107.5"/>
</g>
<!-- Node8 -->
<g id="node15" class="node"><title>Node8</title>
<a xlink:href="../../d5/d35/cipconnectionmanager_8c.html#ac7df9eb5403638fd632e3eb9e7d7abfb" target="_top" xlink:title="Handles a Null Non Matching Forward Open Request.">
<polygon fill="none" stroke="black" points="355,-160.5 355,-181.5 573,-181.5 573,-160.5 355,-160.5"/>
<text text-anchor="middle" x="464" y="-168.5" font-family="Helvetica,sans-Serif" font-size="10.00">HandleNullNonMatchingForwardOpenRequest</text>
</a>
</g>
<!-- Node7&#45;&gt;Node8 -->
<g id="edge14" class="edge"><title>Node7&#45;&gt;Node8</title>
<path fill="none" stroke="midnightblue" d="M264.006,-125.106C287.272,-133.556 318.07,-143.985 346,-151 360.409,-154.619 375.974,-157.777 390.925,-160.448"/>
<polygon fill="midnightblue" stroke="midnightblue" points="265.12,-121.786 254.526,-121.621 262.704,-128.356 265.12,-121.786"/>
</g>
<!-- Node9 -->
<g id="node17" class="node"><title>Node9</title>
<a xlink:href="../../d5/d35/cipconnectionmanager_8c.html#af55f168db46c8ab4c8dfab00deda6b87" target="_top" xlink:title="Handles a Null Matching Forward Open request.">
<polygon fill="none" stroke="black" points="364,-120.5 364,-141.5 564,-141.5 564,-120.5 364,-120.5"/>
<text text-anchor="middle" x="464" y="-128.5" font-family="Helvetica,sans-Serif" font-size="10.00">HandleNullMatchingForwardOpenRequest</text>
</a>
</g>
<!-- Node7&#45;&gt;Node9 -->
<g id="edge16" class="edge"><title>Node7&#45;&gt;Node9</title>
<path fill="none" stroke="midnightblue" d="M318.697,-118.738C333.491,-119.987 348.872,-121.285 363.853,-122.549"/>
<polygon fill="midnightblue" stroke="midnightblue" points="318.821,-115.236 308.562,-117.883 318.232,-122.211 318.821,-115.236"/>
</g>
<!-- Node10 -->
<g id="node19" class="node"><title>Node10</title>
<a xlink:href="../../d5/d35/cipconnectionmanager_8c.html#a060eb3d4f4f7a4616ecac9a58e63aad1" target="_top" xlink:title="Handles a Non Null Matching Forward Open Request.">
<polygon fill="none" stroke="black" points="355,-80.5 355,-101.5 573,-101.5 573,-80.5 355,-80.5"/>
<text text-anchor="middle" x="464" y="-88.5" font-family="Helvetica,sans-Serif" font-size="10.00">HandleNonNullMatchingForwardOpenRequest</text>
</a>
</g>
<!-- Node7&#45;&gt;Node10 -->
<g id="edge18" class="edge"><title>Node7&#45;&gt;Node10</title>
<path fill="none" stroke="midnightblue" d="M318.784,-103.255C330.539,-102.263 342.663,-101.239 354.662,-100.227"/>
<polygon fill="midnightblue" stroke="midnightblue" points="318.232,-99.7885 308.562,-104.117 318.821,-106.764 318.232,-99.7885"/>
</g>
<!-- Node11 -->
<g id="node21" class="node"><title>Node11</title>
<a xlink:href="../../d5/d35/cipconnectionmanager_8c.html#ab0532e3b6d153312d4cf60746586058e" target="_top" xlink:title="Handles a Non Null Non Matching Forward Open Request.">
<polygon fill="none" stroke="black" points="346,-40.5 346,-61.5 582,-61.5 582,-40.5 346,-40.5"/>
<text text-anchor="middle" x="464" y="-48.5" font-family="Helvetica,sans-Serif" font-size="10.00">HandleNonNullNonMatchingForwardOpenRequest</text>
</a>
</g>
<!-- Node7&#45;&gt;Node11 -->
<g id="edge20" class="edge"><title>Node7&#45;&gt;Node11</title>
<path fill="none" stroke="midnightblue" d="M264.006,-96.8942C287.272,-88.4441 318.07,-78.0153 346,-71 360.409,-67.3809 375.974,-64.2232 390.925,-61.5516"/>
<polygon fill="midnightblue" stroke="midnightblue" points="262.704,-93.6436 254.526,-100.379 265.12,-100.214 262.704,-93.6436"/>
</g>
<!-- Node12 -->
<g id="node23" class="node"><title>Node12</title>
<a xlink:href="../../d5/d35/cipconnectionmanager_8c.html#aa7b5f5390e3872191f824a666d50ef80" target="_top" xlink:title="Check if resources for new connection available, generate ForwardOpen Reply message.">
<polygon fill="none" stroke="black" points="426.5,-0.5 426.5,-21.5 501.5,-21.5 501.5,-0.5 426.5,-0.5"/>
<text text-anchor="middle" x="464" y="-8.5" font-family="Helvetica,sans-Serif" font-size="10.00">ForwardOpen</text>
</a>
</g>
<!-- Node7&#45;&gt;Node12 -->
<g id="edge22" class="edge"><title>Node7&#45;&gt;Node12</title>
<path fill="none" stroke="midnightblue" d="M246.627,-93.9094C269.065,-75.3478 307.664,-46.3067 346,-31 371.761,-20.714 402.744,-15.7171 426.497,-13.2901"/>
<polygon fill="midnightblue" stroke="midnightblue" points="244.245,-91.3396 238.852,-100.46 248.755,-96.6928 244.245,-91.3396"/>
</g>
<!-- Node12&#45;&gt;Node4 -->
<g id="edge24" class="edge"><title>Node12&#45;&gt;Node4</title>
<path fill="none" stroke="midnightblue" d="M511.835,-13.3314C533.997,-15.8385 560.191,-20.895 582,-31 618.585,-47.9513 652.412,-82.8246 667.989,-100.392"/>
<polygon fill="midnightblue" stroke="midnightblue" points="511.938,-9.8246 501.642,-12.3221 511.249,-16.7905 511.938,-9.8246"/>
</g>
</g>
</svg>
        <g id="navigator" transform="translate(0 0)" fill="#404254">
                <rect fill="#f2f5e9" fill-opacity="0.5" stroke="#606060" stroke-width=".5" x="0" y="0" width="60" height="60"/>
                <use id="zoomplus" xlink:href="#zoomPlus" x="17" y="9" onmousedown="handleZoom(evt,'in')"/>
                <use id="zoomminus" xlink:href="#zoomMin" x="42" y="9" onmousedown="handleZoom(evt,'out')"/>
                <use id="reset" xlink:href="#resetDef" x="30" y="36" onmousedown="handleReset()"/>
                <g id="arrowUp" xlink:href="#dirArrow" transform="translate(30 24)" onmousedown="handlePan(0,-1)">
                  <use xlink:href="#rim" fill="#404040">
                        <set attributeName="fill" to="#808080" begin="arrowUp.mouseover" end="arrowUp.mouseout"/>
                  </use>
                  <path fill="none" stroke="white" stroke-width="1.5" d="M0,-3.0v7 M-2.5,-0.5L0,-3.0L2.5,-0.5"/>
                </g>
                <g id="arrowRight" xlink:href="#dirArrow" transform="rotate(90) translate(36 -43)" onmousedown="handlePan(1,0)">
                  <use xlink:href="#rim" fill="#404040">
                        <set attributeName="fill" to="#808080" begin="arrowRight.mouseover" end="arrowRight.mouseout"/>
                  </use>
                  <path fill="none" stroke="white" stroke-width="1.5" d="M0,-3.0v7 M-2.5,-0.5L0,-3.0L2.5,-0.5"/>
                </g>
                <g id="arrowDown" xlink:href="#dirArrow" transform="rotate(180) translate(-30 -48)" onmousedown="handlePan(0,1)">
                  <use xlink:href="#rim" fill="#404040">
                        <set attributeName="fill" to="#808080" begin="arrowDown.mouseover" end="arrowDown.mouseout"/>
                  </use>
                  <path fill="none" stroke="white" stroke-width="1.5" d="M0,-3.0v7 M-2.5,-0.5L0,-3.0L2.5,-0.5"/>
                </g>
                <g id="arrowLeft" xlink:href="#dirArrow" transform="rotate(270) translate(-36 17)" onmousedown="handlePan(-1,0)">
                  <use xlink:href="#rim" fill="#404040">
                        <set attributeName="fill" to="#808080" begin="arrowLeft.mouseover" end="arrowLeft.mouseout"/>
                  </use>
                  <path fill="none" stroke="white" stroke-width="1.5" d="M0,-3.0v7 M-2.5,-0.5L0,-3.0L2.5,-0.5"/>
                </g>
        </g>
</svg>
