<?xml version="1.0" encoding="UTF-8" standalone="no"?>
<!DOCTYPE svg PUBLIC "-//W3C//DTD SVG 1.1//EN"
 "http://www.w3.org/Graphics/SVG/1.1/DTD/svg11.dtd">
<!-- Generated by graphviz version 2.36.0 (20140111.2315)
 -->
<!-- Title: GetConnectedObject Pages: 1 -->
<svg width="1118pt" height="82pt"
 viewBox="0.00 0.00 1118.00 82.00" xmlns="http://www.w3.org/2000/svg" xmlns:xlink="http://www.w3.org/1999/xlink">
<g id="graph0" class="graph" transform="scale(1 1) rotate(0) translate(4 78)">
<title>GetConnectedObject</title>
<!-- Node1 -->
<g id="node1" class="node"><title>Node1</title>
<polygon fill="#bfbfbf" stroke="black" points="0,-27.5 0,-46.5 108,-46.5 108,-27.5 0,-27.5"/>
<text text-anchor="middle" x="54" y="-34.5" font-family="Helvetica,sans-Serif" font-size="10.00">GetConnectedObject</text>
</g>
<!-- Node2 -->
<g id="node2" class="node"><title>Node2</title>
<g id="a_node2"><a xlink:href="../../d2/dc9/group__CIP__API.html#ga34f1582ed424a2c875b8a317d828e181" target="_top" xlink:title="Notify the connection manager that data for a connection has been received. ">
<polygon fill="none" stroke="black" points="146.5,-49.5 146.5,-68.5 303.5,-68.5 303.5,-49.5 146.5,-49.5"/>
<text text-anchor="middle" x="225" y="-56.5" font-family="Helvetica,sans-Serif" font-size="10.00">HandleReceivedConnectedData</text>
</a>
</g>
</g>
<!-- Node1&#45;&gt;Node2 -->
<g id="edge1" class="edge"><title>Node1&#45;&gt;Node2</title>
<path fill="none" stroke="midnightblue" d="M118.053,-45.2081C128.71,-46.5954 139.855,-48.0462 150.746,-49.4639"/>
<polygon fill="midnightblue" stroke="midnightblue" points="118.377,-41.7208 108.009,-43.9006 117.473,-48.6623 118.377,-41.7208"/>
</g>
<!-- Node6 -->
<g id="node6" class="node"><title>Node6</title>
<g id="a_node6"><a xlink:href="../../d4/d91/group__ENCAP.html#ga94ca28af85239d7dd63b3b044201fe51" target="_top" xlink:title="NotifyConnectedCommonPacket\lFormat">
<polygon fill="none" stroke="black" points="144.5,-0 144.5,-30 305.5,-30 305.5,-0 144.5,-0"/>
<text text-anchor="start" x="152.5" y="-18" font-family="Helvetica,sans-Serif" font-size="10.00">NotifyConnectedCommonPacket</text>
<text text-anchor="middle" x="225" y="-7" font-family="Helvetica,sans-Serif" font-size="10.00">Format</text>
</a>
</g>
</g>
<!-- Node1&#45;&gt;Node6 -->
<g id="edge5" class="edge"><title>Node1&#45;&gt;Node6</title>
<path fill="none" stroke="midnightblue" d="M118.202,-28.7726C126.703,-27.6658 135.513,-26.519 144.255,-25.3811"/>
<polygon fill="midnightblue" stroke="midnightblue" points="117.473,-25.3377 108.009,-30.0994 118.377,-32.2792 117.473,-25.3377"/>
</g>
<!-- Node3 -->
<g id="node3" class="node"><title>Node3</title>
<g id="a_node3"><a xlink:href="../../db/d4f/generic__networkhandler_8c.html#af0c95ade149818d252c292b489cfe190" target="_top" xlink:title="check if on one of the UDP consuming sockets data has been received and if yes handle it correctly ...">
<polygon fill="none" stroke="black" points="528.5,-44 528.5,-74 689.5,-74 689.5,-44 528.5,-44"/>
<text text-anchor="start" x="536.5" y="-62" font-family="Helvetica,sans-Serif" font-size="10.00">CheckAndHandleConsumingUdp</text>
<text text-anchor="middle" x="609" y="-51" font-family="Helvetica,sans-Serif" font-size="10.00">Sockets</text>
</a>
</g>
</g>
<!-- Node2&#45;&gt;Node3 -->
<g id="edge2" class="edge"><title>Node2&#45;&gt;Node3</title>
<path fill="none" stroke="midnightblue" d="M313.941,-59C378.604,-59 465.761,-59 528.374,-59"/>
<polygon fill="midnightblue" stroke="midnightblue" points="313.764,-55.5001 303.764,-59 313.764,-62.5001 313.764,-55.5001"/>
</g>
<!-- Node4 -->
<g id="node4" class="node"><title>Node4</title>
<g id="a_node4"><a xlink:href="../../da/dc2/generic__networkhandler_8h.html#a2f01af81d3e5018d9980e2bc28c9078a" target="_top" xlink:title="NetworkHandlerProcessOnce">
<polygon fill="none" stroke="black" points="890,-27.5 890,-46.5 1036,-46.5 1036,-27.5 890,-27.5"/>
<text text-anchor="middle" x="963" y="-34.5" font-family="Helvetica,sans-Serif" font-size="10.00">NetworkHandlerProcessOnce</text>
</a>
</g>
</g>
<!-- Node3&#45;&gt;Node4 -->
<g id="edge3" class="edge"><title>Node3&#45;&gt;Node4</title>
<path fill="none" stroke="midnightblue" d="M699.928,-53.3795C758.887,-49.6946 834.942,-44.9411 889.92,-41.505"/>
<polygon fill="midnightblue" stroke="midnightblue" points="699.636,-49.8908 689.874,-54.0079 700.073,-56.8772 699.636,-49.8908"/>
</g>
<!-- Node5 -->
<g id="node5" class="node"><title>Node5</title>
<g id="a_node5"><a xlink:href="../../d9/dfb/POSIX_2main_8c.html#ad338a7dbc41dc40bcecd0479377ef207" target="_top" xlink:title="main">
<polygon fill="none" stroke="black" points="1072,-27.5 1072,-46.5 1110,-46.5 1110,-27.5 1072,-27.5"/>
<text text-anchor="middle" x="1091" y="-34.5" font-family="Helvetica,sans-Serif" font-size="10.00">main</text>
</a>
</g>
</g>
<!-- Node4&#45;&gt;Node5 -->
<g id="edge4" class="edge"><title>Node4&#45;&gt;Node5</title>
<path fill="none" stroke="midnightblue" d="M1046.26,-37C1055.72,-37 1064.55,-37 1071.75,-37"/>
<polygon fill="midnightblue" stroke="midnightblue" points="1046.2,-33.5001 1036.2,-37 1046.2,-40.5001 1046.2,-33.5001"/>
</g>
<!-- Node7 -->
<g id="node7" class="node"><title>Node7</title>
<g id="a_node7"><a xlink:href="../../d2/dbd/encap_8c.html#a2a5e809a74a56268ad9f51638796fb3d" target="_top" xlink:title="Call Connection Manager. ">
<polygon fill="none" stroke="black" points="342,-0 342,-30 492,-30 492,-0 342,-0"/>
<text text-anchor="start" x="350" y="-18" font-family="Helvetica,sans-Serif" font-size="10.00">HandleReceivedSendUnitData</text>
<text text-anchor="middle" x="417" y="-7" font-family="Helvetica,sans-Serif" font-size="10.00">Command</text>
</a>
</g>
</g>
<!-- Node6&#45;&gt;Node7 -->
<g id="edge6" class="edge"><title>Node6&#45;&gt;Node7</title>
<path fill="none" stroke="midnightblue" d="M315.924,-15C324.626,-15 333.386,-15 341.909,-15"/>
<polygon fill="midnightblue" stroke="midnightblue" points="315.751,-11.5001 305.751,-15 315.751,-18.5001 315.751,-11.5001"/>
</g>
<!-- Node8 -->
<g id="node8" class="node"><title>Node8</title>
<g id="a_node8"><a xlink:href="../../d2/dc9/group__CIP__API.html#gadeace7aa415ce7da686b522c85d131d1" target="_top" xlink:title="Notify the encapsulation layer that an explicit message has been received via TCP. ">
<polygon fill="none" stroke="black" points="531,-5.5 531,-24.5 687,-24.5 687,-5.5 531,-5.5"/>
<text text-anchor="middle" x="609" y="-12.5" font-family="Helvetica,sans-Serif" font-size="10.00">HandleReceivedExplictTcpData</text>
</a>
</g>
</g>
<!-- Node7&#45;&gt;Node8 -->
<g id="edge7" class="edge"><title>Node7&#45;&gt;Node8</title>
<path fill="none" stroke="midnightblue" d="M502.226,-15C511.717,-15 521.354,-15 530.75,-15"/>
<polygon fill="midnightblue" stroke="midnightblue" points="502.003,-11.5001 492.003,-15 502.003,-18.5001 502.003,-11.5001"/>
</g>
<!-- Node9 -->
<g id="node9" class="node"><title>Node9</title>
<g id="a_node9"><a xlink:href="../../db/d4f/generic__networkhandler_8c.html#aca5593b7dd39d7a7b437999a367102d6" target="_top" xlink:title="Handles data on an established TCP connection, processed connection is given by socket. ">
<polygon fill="none" stroke="black" points="726,-8.5 726,-27.5 854,-27.5 854,-8.5 726,-8.5"/>
<text text-anchor="middle" x="790" y="-15.5" font-family="Helvetica,sans-Serif" font-size="10.00">HandleDataOnTcpSocket</text>
</a>
</g>
</g>
<!-- Node8&#45;&gt;Node9 -->
<g id="edge8" class="edge"><title>Node8&#45;&gt;Node9</title>
<path fill="none" stroke="midnightblue" d="M697.214,-16.4617C706.843,-16.6231 716.508,-16.785 725.761,-16.9401"/>
<polygon fill="midnightblue" stroke="midnightblue" points="697.268,-12.9622 687.211,-16.294 697.151,-19.9612 697.268,-12.9622"/>
</g>
<!-- Node9&#45;&gt;Node4 -->
<g id="edge9" class="edge"><title>Node9&#45;&gt;Node4</title>
<path fill="none" stroke="midnightblue" d="M864.379,-26.1532C872.817,-27.0908 881.417,-28.0463 889.839,-28.9821"/>
<polygon fill="midnightblue" stroke="midnightblue" points="864.514,-22.6467 854.188,-25.0209 863.741,-29.6039 864.514,-22.6467"/>
</g>
</g>
</svg>
