<?xml version="1.0" encoding="UTF-8" standalone="no"?>
<!DOCTYPE svg PUBLIC "-//W3C//DTD SVG 1.1//EN"
 "http://www.w3.org/Graphics/SVG/1.1/DTD/svg11.dtd">
<!-- Generated by graphviz version 2.26.3 (20100126.1600)
 -->
<!-- Title: G Pages: 1 -->
<!--zoomable 128 -->
<svg id="main" version="1.1" xmlns="http://www.w3.org/2000/svg" xmlns:xlink="http://www.w3.org/1999/xlink" xml:space="preserve" onload="init(evt)">
        <defs>
                <circle id="rim" cx="0" cy="0" r="7"/>
                <circle id="rim2" cx="0" cy="0" r="3.5"/>
                <g id="zoomPlus">
                        <use xlink:href="#rim" fill="#404040">
                                <set attributeName="fill" to="#808080" begin="zoomplus.mouseover" end="zoomplus.mouseout"/>
                        </use>
                        <path d="M-4,0h8M0,-4v8" fill="none" stroke="white" stroke-width="1.5" pointer-events="none"/>
                </g>
                <g id="zoomMin">
                        <use xlink:href="#rim" fill="#404040">
                                <set attributeName="fill" to="#808080" begin="zoomminus.mouseover" end="zoomminus.mouseout"/>
                        </use>
                        <path d="M-4,0h8" fill="none" stroke="white" stroke-width="1.5" pointer-events="none"/>
                </g>
                <g id="dirArrow">
                        <path fill="none" stroke="white" stroke-width="1.5" d="M0,-3.0v7 M-2.5,-0.5L0,-3.0L2.5,-0.5"/>
                </g>
               <g id="resetDef">
                       <use xlink:href="#rim2" fill="#404040">
                               <set attributeName="fill" to="#808080" begin="reset.mouseover" end="reset.mouseout"/>
                       </use>
               </g>
        </defs>

<script type="text/javascript">
var viewWidth = 1236;
var viewHeight = 128;
var sectionId = 'dynsection-29';
</script>
<script xlink:href="../../svgpan.js"/>
<svg id="graph" class="graph">
<g id="viewport">
<title>G</title>
<!-- Node1 -->
<g id="node1" class="node"><title>Node1</title>
<polygon fill="#bfbfbf" stroke="black" points="0.5,-49.9683 0.5,-70.9683 95.5,-70.9683 95.5,-49.9683 0.5,-49.9683"/>
<text text-anchor="middle" x="48" y="-57.9683" font-family="Helvetica,sans-Serif" font-size="10.00">GetPriorityForQos</text>
</g>
<!-- Node2 -->
<g id="node3" class="node"><title>Node2</title>
<a xlink:href="../../df/d03/cipioconnection_8c.html#a36b4eefe81166b26625074031ba87234" target="_top" xlink:title="Open a Point2Point connection dependent on pa_direction.">
<polygon fill="none" stroke="black" points="358.5,-98.9683 358.5,-119.968 553.5,-119.968 553.5,-98.9683 358.5,-98.9683"/>
<text text-anchor="middle" x="456" y="-106.968" font-family="Helvetica,sans-Serif" font-size="10.00">OpenConsumingPointToPointConnection</text>
</a>
</g>
<!-- Node1&#45;&gt;Node2 -->
<g id="edge2" class="edge"><title>Node1&#45;&gt;Node2</title>
<path fill="none" stroke="midnightblue" d="M96.9104,-73.3705C108.36,-76.0404 120.556,-78.6038 132,-80.4683 207.528,-92.7736 293.872,-100.177 358.424,-104.42"/>
<polygon fill="midnightblue" stroke="midnightblue" points="97.6192,-69.9413 87.0786,-71.0117 95.9861,-76.7481 97.6192,-69.9413"/>
</g>
<!-- Node8 -->
<g id="node15" class="node"><title>Node8</title>
<a xlink:href="../../df/d03/cipioconnection_8c.html#a9937b2aeb5fd393c7861e25f04c9f1c1" target="_top" xlink:title="OpenMulticastConnection">
<polygon fill="none" stroke="black" points="162.5,-49.9683 162.5,-70.9683 291.5,-70.9683 291.5,-49.9683 162.5,-49.9683"/>
<text text-anchor="middle" x="227" y="-57.9683" font-family="Helvetica,sans-Serif" font-size="10.00">OpenMulticastConnection</text>
</a>
</g>
<!-- Node1&#45;&gt;Node8 -->
<g id="edge14" class="edge"><title>Node1&#45;&gt;Node8</title>
<path fill="none" stroke="midnightblue" d="M106.031,-60.4683C124.034,-60.4683 143.983,-60.4683 162.403,-60.4683"/>
<polygon fill="midnightblue" stroke="midnightblue" points="105.969,-56.9684 95.9687,-60.4683 105.969,-63.9684 105.969,-56.9684"/>
</g>
<!-- Node10 -->
<g id="node21" class="node"><title>Node10</title>
<a xlink:href="../../df/d03/cipioconnection_8c.html#ab5ba6f9cb3103c1db76c2bf7ae3cce8d" target="_top" xlink:title="OpenProducingPointToPointConnection">
<polygon fill="none" stroke="black" points="132.5,-0.968265 132.5,-21.9683 321.5,-21.9683 321.5,-0.968265 132.5,-0.968265"/>
<text text-anchor="middle" x="227" y="-8.96826" font-family="Helvetica,sans-Serif" font-size="10.00">OpenProducingPointToPointConnection</text>
</a>
</g>
<!-- Node1&#45;&gt;Node10 -->
<g id="edge22" class="edge"><title>Node1&#45;&gt;Node10</title>
<path fill="none" stroke="midnightblue" d="M96.2833,-47.251C125.166,-39.3447 161.375,-29.4328 188.355,-22.047"/>
<polygon fill="midnightblue" stroke="midnightblue" points="95.121,-43.9404 86.4,-49.9565 96.9693,-50.692 95.121,-43.9404"/>
</g>
<!-- Node3 -->
<g id="node5" class="node"><title>Node3</title>
<a xlink:href="../../de/d45/cipioconnection_8h.html#adbb39670c736df4ef89589a3b4e4df4e" target="_top" xlink:title="Take the data given in the connection object structure and open the necessary communication channels...">
<polygon fill="none" stroke="black" points="590.5,-39.9683 590.5,-60.9683 739.5,-60.9683 739.5,-39.9683 590.5,-39.9683"/>
<text text-anchor="middle" x="665" y="-47.9683" font-family="Helvetica,sans-Serif" font-size="10.00">OpenCommunicationChannels</text>
</a>
</g>
<!-- Node2&#45;&gt;Node3 -->
<g id="edge4" class="edge"><title>Node2&#45;&gt;Node3</title>
<path fill="none" stroke="midnightblue" d="M508.953,-96.4489C523.584,-92.7188 539.44,-88.5529 554,-84.4683 580.391,-77.0646 610.069,-67.9316 632.093,-60.9962"/>
<polygon fill="midnightblue" stroke="midnightblue" points="507.886,-93.1085 499.051,-98.9553 509.604,-99.8945 507.886,-93.1085"/>
</g>
<!-- Node4 -->
<g id="node7" class="node"><title>Node4</title>
<a xlink:href="../../de/d45/cipioconnection_8h.html#a699fccd3dabdfec1b77560f22268c1e8" target="_top" xlink:title="Setup all data in order to establish an IO connection.">
<polygon fill="none" stroke="black" points="776.5,-39.9683 776.5,-60.9683 891.5,-60.9683 891.5,-39.9683 776.5,-39.9683"/>
<text text-anchor="middle" x="834" y="-47.9683" font-family="Helvetica,sans-Serif" font-size="10.00">EstablishIoConnection</text>
</a>
</g>
<!-- Node3&#45;&gt;Node4 -->
<g id="edge6" class="edge"><title>Node3&#45;&gt;Node4</title>
<path fill="none" stroke="midnightblue" d="M749.742,-50.4683C758.727,-50.4683 767.708,-50.4683 776.279,-50.4683"/>
<polygon fill="midnightblue" stroke="midnightblue" points="749.618,-46.9684 739.618,-50.4683 749.618,-53.9684 749.618,-46.9684"/>
</g>
<!-- Node5 -->
<g id="node9" class="node"><title>Node5</title>
<a xlink:href="../../d2/da3/cipconnectionmanager_8h.html#a5ab0de6894d23e8fe84a6b46797c2212" target="_top" xlink:title="Initialize the data of the connection manager object.">
<polygon fill="none" stroke="black" points="928.5,-39.9683 928.5,-60.9683 1045.5,-60.9683 1045.5,-39.9683 928.5,-39.9683"/>
<text text-anchor="middle" x="987" y="-47.9683" font-family="Helvetica,sans-Serif" font-size="10.00">ConnectionManagerInit</text>
</a>
</g>
<!-- Node4&#45;&gt;Node5 -->
<g id="edge8" class="edge"><title>Node4&#45;&gt;Node5</title>
<path fill="none" stroke="midnightblue" d="M902.035,-50.4683C910.8,-50.4683 919.715,-50.4683 928.313,-50.4683"/>
<polygon fill="midnightblue" stroke="midnightblue" points="901.843,-46.9684 891.843,-50.4683 901.843,-53.9684 901.843,-46.9684"/>
</g>
<!-- Node6 -->
<g id="node11" class="node"><title>Node6</title>
<a xlink:href="../../d2/dc9/group__CIP__API.html#ga5d4979945d124e28668b264c3823db1c" target="_top" xlink:title="Initialize and setup the CIP&#45;stack.">
<polygon fill="none" stroke="black" points="1082.5,-39.9683 1082.5,-60.9683 1153.5,-60.9683 1153.5,-39.9683 1082.5,-39.9683"/>
<text text-anchor="middle" x="1118" y="-47.9683" font-family="Helvetica,sans-Serif" font-size="10.00">CipStackInit</text>
</a>
</g>
<!-- Node5&#45;&gt;Node6 -->
<g id="edge10" class="edge"><title>Node5&#45;&gt;Node6</title>
<path fill="none" stroke="midnightblue" d="M1055.63,-50.4683C1064.87,-50.4683 1074.03,-50.4683 1082.37,-50.4683"/>
<polygon fill="midnightblue" stroke="midnightblue" points="1055.6,-46.9684 1045.6,-50.4683 1055.6,-53.9684 1055.6,-46.9684"/>
</g>
<!-- Node7 -->
<g id="node13" class="node"><title>Node7</title>
<a xlink:href="../../d9/dfb/POSIX_2main_8c.html#ad338a7dbc41dc40bcecd0479377ef207" target="_top" xlink:title="main">
<polygon fill="none" stroke="black" points="1190,-39.9683 1190,-60.9683 1228,-60.9683 1228,-39.9683 1190,-39.9683"/>
<text text-anchor="middle" x="1209" y="-47.9683" font-family="Helvetica,sans-Serif" font-size="10.00">main</text>
</a>
</g>
<!-- Node6&#45;&gt;Node7 -->
<g id="edge12" class="edge"><title>Node6&#45;&gt;Node7</title>
<path fill="none" stroke="midnightblue" d="M1163.98,-50.4683C1173.14,-50.4683 1182.28,-50.4683 1189.91,-50.4683"/>
<polygon fill="midnightblue" stroke="midnightblue" points="1163.7,-46.9684 1153.7,-50.4683 1163.7,-53.9684 1163.7,-46.9684"/>
</g>
<!-- Node8&#45;&gt;Node3 -->
<g id="edge20" class="edge"><title>Node8&#45;&gt;Node3</title>
<path fill="none" stroke="midnightblue" d="M301.695,-58.7629C382.212,-56.9246 509.63,-54.0155 590.191,-52.1762"/>
<polygon fill="midnightblue" stroke="midnightblue" points="301.546,-55.2653 291.628,-58.9927 301.706,-62.2635 301.546,-55.2653"/>
</g>
<!-- Node9 -->
<g id="node17" class="node"><title>Node9</title>
<a xlink:href="../../df/d03/cipioconnection_8c.html#a281f0a261db50e297593dd3383093fb0" target="_top" xlink:title="OpenProducingMulticastConnection">
<polygon fill="none" stroke="black" points="369.5,-20.9683 369.5,-41.9683 542.5,-41.9683 542.5,-20.9683 369.5,-20.9683"/>
<text text-anchor="middle" x="456" y="-28.9683" font-family="Helvetica,sans-Serif" font-size="10.00">OpenProducingMulticastConnection</text>
</a>
</g>
<!-- Node8&#45;&gt;Node9 -->
<g id="edge16" class="edge"><title>Node8&#45;&gt;Node9</title>
<path fill="none" stroke="midnightblue" d="M301.66,-51.0136C324.473,-48.1246 349.697,-44.9303 373.027,-41.9758"/>
<polygon fill="midnightblue" stroke="midnightblue" points="301.185,-47.5456 291.704,-52.2743 302.064,-54.4902 301.185,-47.5456"/>
</g>
<!-- Node9&#45;&gt;Node3 -->
<g id="edge18" class="edge"><title>Node9&#45;&gt;Node3</title>
<path fill="none" stroke="midnightblue" d="M552.599,-40.25C565.229,-41.3981 578.014,-42.5604 590.21,-43.6691"/>
<polygon fill="midnightblue" stroke="midnightblue" points="552.793,-36.7533 542.517,-39.3334 552.159,-43.7245 552.793,-36.7533"/>
</g>
<!-- Node10&#45;&gt;Node3 -->
<g id="edge24" class="edge"><title>Node10&#45;&gt;Node3</title>
<path fill="none" stroke="midnightblue" d="M331.978,-2.5417C396.486,0.741887 480.561,1.05793 554,-11.4683 585.612,-16.8601 620.198,-30.307 642.221,-39.9009"/>
<polygon fill="midnightblue" stroke="midnightblue" points="331.594,0.942717 321.798,-3.09266 331.972,-6.04705 331.594,0.942717"/>
</g>
</g>
</svg>
        <g id="navigator" transform="translate(0 0)" fill="#404254">
                <rect fill="#f2f5e9" fill-opacity="0.5" stroke="#606060" stroke-width=".5" x="0" y="0" width="60" height="60"/>
                <use id="zoomplus" xlink:href="#zoomPlus" x="17" y="9" onmousedown="handleZoom(evt,'in')"/>
                <use id="zoomminus" xlink:href="#zoomMin" x="42" y="9" onmousedown="handleZoom(evt,'out')"/>
                <use id="reset" xlink:href="#resetDef" x="30" y="36" onmousedown="handleReset()"/>
                <g id="arrowUp" xlink:href="#dirArrow" transform="translate(30 24)" onmousedown="handlePan(0,-1)">
                  <use xlink:href="#rim" fill="#404040">
                        <set attributeName="fill" to="#808080" begin="arrowUp.mouseover" end="arrowUp.mouseout"/>
                  </use>
                  <path fill="none" stroke="white" stroke-width="1.5" d="M0,-3.0v7 M-2.5,-0.5L0,-3.0L2.5,-0.5"/>
                </g>
                <g id="arrowRight" xlink:href="#dirArrow" transform="rotate(90) translate(36 -43)" onmousedown="handlePan(1,0)">
                  <use xlink:href="#rim" fill="#404040">
                        <set attributeName="fill" to="#808080" begin="arrowRight.mouseover" end="arrowRight.mouseout"/>
                  </use>
                  <path fill="none" stroke="white" stroke-width="1.5" d="M0,-3.0v7 M-2.5,-0.5L0,-3.0L2.5,-0.5"/>
                </g>
                <g id="arrowDown" xlink:href="#dirArrow" transform="rotate(180) translate(-30 -48)" onmousedown="handlePan(0,1)">
                  <use xlink:href="#rim" fill="#404040">
                        <set attributeName="fill" to="#808080" begin="arrowDown.mouseover" end="arrowDown.mouseout"/>
                  </use>
                  <path fill="none" stroke="white" stroke-width="1.5" d="M0,-3.0v7 M-2.5,-0.5L0,-3.0L2.5,-0.5"/>
                </g>
                <g id="arrowLeft" xlink:href="#dirArrow" transform="rotate(270) translate(-36 17)" onmousedown="handlePan(-1,0)">
                  <use xlink:href="#rim" fill="#404040">
                        <set attributeName="fill" to="#808080" begin="arrowLeft.mouseover" end="arrowLeft.mouseout"/>
                  </use>
                  <path fill="none" stroke="white" stroke-width="1.5" d="M0,-3.0v7 M-2.5,-0.5L0,-3.0L2.5,-0.5"/>
                </g>
        </g>
</svg>
