<?xml version="1.0" encoding="UTF-8" standalone="no"?>
<!DOCTYPE svg PUBLIC "-//W3C//DTD SVG 1.1//EN"
 "http://www.w3.org/Graphics/SVG/1.1/DTD/svg11.dtd">
<!-- Generated by graphviz version 2.26.3 (20100126.1600)
 -->
<!-- Title: G Pages: 1 -->
<svg width="360pt" height="70pt"
 viewBox="0.00 0.00 360.00 70.00" xmlns="http://www.w3.org/2000/svg" xmlns:xlink="http://www.w3.org/1999/xlink">
<g id="graph1" class="graph" transform="scale(1 1) rotate(0) translate(4 66)">
<title>G</title>
<!-- Node1 -->
<g id="node1" class="node"><title>Node1</title>
<polygon fill="#bfbfbf" stroke="black" points="0.5,-20.5 0.5,-41.5 161.5,-41.5 161.5,-20.5 0.5,-20.5"/>
<text text-anchor="middle" x="81" y="-28.5" font-family="Helvetica,sans-Serif" font-size="10.00">InitializeConnectionManagerData</text>
</g>
<!-- Node2 -->
<g id="node3" class="node"><title>Node2</title>
<a xlink:href="../../dc/d93/cipclass3connection_8c.html#a2afaf72caf177920d6b99c503d7fc133" target="_top" xlink:title="Initializes the explicit connections mechanism.">
<polygon fill="none" stroke="black" points="198,-40.5 198,-61.5 352,-61.5 352,-40.5 198,-40.5"/>
<text text-anchor="middle" x="275" y="-48.5" font-family="Helvetica,sans-Serif" font-size="10.00">InitializeClass3ConnectionData</text>
</a>
</g>
<!-- Node1&#45;&gt;Node2 -->
<g id="edge2" class="edge"><title>Node1&#45;&gt;Node2</title>
<path fill="none" stroke="midnightblue" d="M161.588,-39.308C170.193,-40.1951 178.975,-41.1005 187.653,-41.9952"/>
<polygon fill="midnightblue" stroke="midnightblue" points="187.47,-45.4948 197.776,-43.0388 188.188,-38.5317 187.47,-45.4948"/>
</g>
<!-- Node3 -->
<g id="node5" class="node"><title>Node3</title>
<a xlink:href="../../d1/dbc/appcontype_8c.html#a89ebedc457f26c4e845f60f3e6fb8155" target="_top" xlink:title="InitializeIoConnectionData">
<polygon fill="none" stroke="black" points="209.5,-0.5 209.5,-21.5 340.5,-21.5 340.5,-0.5 209.5,-0.5"/>
<text text-anchor="middle" x="275" y="-8.5" font-family="Helvetica,sans-Serif" font-size="10.00">InitializeIoConnectionData</text>
</a>
</g>
<!-- Node1&#45;&gt;Node3 -->
<g id="edge4" class="edge"><title>Node1&#45;&gt;Node3</title>
<path fill="none" stroke="midnightblue" d="M161.588,-22.692C174.032,-21.4091 186.847,-20.088 199.181,-18.8164"/>
<polygon fill="midnightblue" stroke="midnightblue" points="199.822,-22.269 209.41,-17.7618 199.104,-15.3059 199.822,-22.269"/>
</g>
</g>
</svg>
