<?xml version="1.0" encoding="UTF-8" standalone="no"?>
<!DOCTYPE svg PUBLIC "-//W3C//DTD SVG 1.1//EN"
 "http://www.w3.org/Graphics/SVG/1.1/DTD/svg11.dtd">
<!-- Generated by graphviz version 2.26.3 (20100126.1600)
 -->
<!-- Title: G Pages: 1 -->
<!--zoomable 127 -->
<svg id="main" version="1.1" xmlns="http://www.w3.org/2000/svg" xmlns:xlink="http://www.w3.org/1999/xlink" xml:space="preserve" onload="init(evt)">
        <defs>
                <circle id="rim" cx="0" cy="0" r="7"/>
                <circle id="rim2" cx="0" cy="0" r="3.5"/>
                <g id="zoomPlus">
                        <use xlink:href="#rim" fill="#404040">
                                <set attributeName="fill" to="#808080" begin="zoomplus.mouseover" end="zoomplus.mouseout"/>
                        </use>
                        <path d="M-4,0h8M0,-4v8" fill="none" stroke="white" stroke-width="1.5" pointer-events="none"/>
                </g>
                <g id="zoomMin">
                        <use xlink:href="#rim" fill="#404040">
                                <set attributeName="fill" to="#808080" begin="zoomminus.mouseover" end="zoomminus.mouseout"/>
                        </use>
                        <path d="M-4,0h8" fill="none" stroke="white" stroke-width="1.5" pointer-events="none"/>
                </g>
                <g id="dirArrow">
                        <path fill="none" stroke="white" stroke-width="1.5" d="M0,-3.0v7 M-2.5,-0.5L0,-3.0L2.5,-0.5"/>
                </g>
               <g id="resetDef">
                       <use xlink:href="#rim2" fill="#404040">
                               <set attributeName="fill" to="#808080" begin="reset.mouseover" end="reset.mouseout"/>
                       </use>
               </g>
        </defs>

<script type="text/javascript">
var viewWidth = 906;
var viewHeight = 127;
var sectionId = 'dynsection-31';
</script>
<script xlink:href="../../svgpan.js"/>
<svg id="graph" class="graph">
<g id="viewport">
<title>G</title>
<!-- Node1 -->
<g id="node1" class="node"><title>Node1</title>
<polygon fill="#bfbfbf" stroke="black" points="0,-58.5 0,-79.5 104,-79.5 104,-58.5 0,-58.5"/>
<text text-anchor="middle" x="52" y="-66.5" font-family="Helvetica,sans-Serif" font-size="10.00">GetConnectionType</text>
</g>
<!-- Node2 -->
<g id="node3" class="node"><title>Node2</title>
<a xlink:href="../../de/d45/cipioconnection_8h.html#a699fccd3dabdfec1b77560f22268c1e8" target="_top" xlink:title="Setup all data in order to establish an IO connection.">
<polygon fill="none" stroke="black" points="386.5,-80.5 386.5,-101.5 501.5,-101.5 501.5,-80.5 386.5,-80.5"/>
<text text-anchor="middle" x="444" y="-88.5" font-family="Helvetica,sans-Serif" font-size="10.00">EstablishIoConnection</text>
</a>
</g>
<!-- Node1&#45;&gt;Node2 -->
<g id="edge2" class="edge"><title>Node1&#45;&gt;Node2</title>
<path fill="none" stroke="midnightblue" d="M78.1962,-84.4921C95.178,-93.613 118.135,-104.264 140,-109 229.522,-128.391 337.107,-113.292 397.305,-101.505"/>
<polygon fill="midnightblue" stroke="midnightblue" points="79.8648,-81.4153 69.4215,-79.6297 76.4718,-87.5381 79.8648,-81.4153"/>
</g>
<!-- Node6 -->
<g id="node11" class="node"><title>Node6</title>
<a xlink:href="../../d5/d35/cipconnectionmanager_8c.html#aa7b5f5390e3872191f824a666d50ef80" target="_top" xlink:title="Check if resources for new connection available, generate ForwardOpen Reply message.">
<polygon fill="none" stroke="black" points="406.5,-40.5 406.5,-61.5 481.5,-61.5 481.5,-40.5 406.5,-40.5"/>
<text text-anchor="middle" x="444" y="-48.5" font-family="Helvetica,sans-Serif" font-size="10.00">ForwardOpen</text>
</a>
</g>
<!-- Node1&#45;&gt;Node6 -->
<g id="edge10" class="edge"><title>Node1&#45;&gt;Node6</title>
<path fill="none" stroke="midnightblue" d="M114.272,-66.1406C196.553,-62.3624 338.936,-55.8244 406.429,-52.7252"/>
<polygon fill="midnightblue" stroke="midnightblue" points="113.883,-62.6546 104.055,-66.6097 114.205,-69.6473 113.883,-62.6546"/>
</g>
<!-- Node7 -->
<g id="node14" class="node"><title>Node7</title>
<a xlink:href="../../de/d45/cipioconnection_8h.html#adbb39670c736df4ef89589a3b4e4df4e" target="_top" xlink:title="Take the data given in the connection object structure and open the necessary communication channels...">
<polygon fill="none" stroke="black" points="140.5,-78.5 140.5,-99.5 289.5,-99.5 289.5,-78.5 140.5,-78.5"/>
<text text-anchor="middle" x="215" y="-86.5" font-family="Helvetica,sans-Serif" font-size="10.00">OpenCommunicationChannels</text>
</a>
</g>
<!-- Node1&#45;&gt;Node7 -->
<g id="edge14" class="edge"><title>Node1&#45;&gt;Node7</title>
<path fill="none" stroke="midnightblue" d="M113.962,-76.6027C122.571,-77.6591 131.49,-78.7534 140.302,-79.8346"/>
<polygon fill="midnightblue" stroke="midnightblue" points="114.374,-73.1271 104.022,-75.3831 113.522,-80.075 114.374,-73.1271"/>
</g>
<!-- Node8 -->
<g id="node17" class="node"><title>Node8</title>
<a xlink:href="../../d5/d35/cipconnectionmanager_8c.html#a96ebb3d0e93c8d4ee4a7d6529061ee68" target="_top" xlink:title="Parse the connection path of a forward open request.">
<polygon fill="none" stroke="black" points="159,-0.5 159,-21.5 271,-21.5 271,-0.5 159,-0.5"/>
<text text-anchor="middle" x="215" y="-8.5" font-family="Helvetica,sans-Serif" font-size="10.00">ParseConnectionPath</text>
</a>
</g>
<!-- Node1&#45;&gt;Node8 -->
<g id="edge18" class="edge"><title>Node1&#45;&gt;Node8</title>
<path fill="none" stroke="midnightblue" d="M88.6504,-54.9101C104.406,-48.9429 123.059,-41.9976 140,-36 153.844,-31.0988 169.218,-25.9273 182.424,-21.5676"/>
<polygon fill="midnightblue" stroke="midnightblue" points="87.359,-51.6566 79.2557,-58.482 89.8468,-58.1997 87.359,-51.6566"/>
</g>
<!-- Node3 -->
<g id="node5" class="node"><title>Node3</title>
<a xlink:href="../../d2/da3/cipconnectionmanager_8h.html#a5ab0de6894d23e8fe84a6b46797c2212" target="_top" xlink:title="Initialize the data of the connection manager object.">
<polygon fill="none" stroke="black" points="598.5,-60.5 598.5,-81.5 715.5,-81.5 715.5,-60.5 598.5,-60.5"/>
<text text-anchor="middle" x="657" y="-68.5" font-family="Helvetica,sans-Serif" font-size="10.00">ConnectionManagerInit</text>
</a>
</g>
<!-- Node2&#45;&gt;Node3 -->
<g id="edge4" class="edge"><title>Node2&#45;&gt;Node3</title>
<path fill="none" stroke="midnightblue" d="M511.684,-84.6447C539.491,-82.0337 571.388,-79.0387 598.201,-76.521"/>
<polygon fill="midnightblue" stroke="midnightblue" points="511.27,-81.1681 501.641,-85.5877 511.924,-88.1374 511.27,-81.1681"/>
</g>
<!-- Node4 -->
<g id="node7" class="node"><title>Node4</title>
<a xlink:href="../../d2/dc9/group__CIP__API.html#ga5d4979945d124e28668b264c3823db1c" target="_top" xlink:title="Initialize and setup the CIP&#45;stack.">
<polygon fill="none" stroke="black" points="752.5,-60.5 752.5,-81.5 823.5,-81.5 823.5,-60.5 752.5,-60.5"/>
<text text-anchor="middle" x="788" y="-68.5" font-family="Helvetica,sans-Serif" font-size="10.00">CipStackInit</text>
</a>
</g>
<!-- Node3&#45;&gt;Node4 -->
<g id="edge6" class="edge"><title>Node3&#45;&gt;Node4</title>
<path fill="none" stroke="midnightblue" d="M725.629,-71C734.871,-71 744.029,-71 752.366,-71"/>
<polygon fill="midnightblue" stroke="midnightblue" points="725.603,-67.5001 715.603,-71 725.603,-74.5001 725.603,-67.5001"/>
</g>
<!-- Node5 -->
<g id="node9" class="node"><title>Node5</title>
<a xlink:href="../../d9/dfb/POSIX_2main_8c.html#ad338a7dbc41dc40bcecd0479377ef207" target="_top" xlink:title="main">
<polygon fill="none" stroke="black" points="860,-60.5 860,-81.5 898,-81.5 898,-60.5 860,-60.5"/>
<text text-anchor="middle" x="879" y="-68.5" font-family="Helvetica,sans-Serif" font-size="10.00">main</text>
</a>
</g>
<!-- Node4&#45;&gt;Node5 -->
<g id="edge8" class="edge"><title>Node4&#45;&gt;Node5</title>
<path fill="none" stroke="midnightblue" d="M833.982,-71C843.145,-71 852.282,-71 859.906,-71"/>
<polygon fill="midnightblue" stroke="midnightblue" points="833.704,-67.5001 823.704,-71 833.704,-74.5001 833.704,-67.5001"/>
</g>
<!-- Node6&#45;&gt;Node3 -->
<g id="edge12" class="edge"><title>Node6&#45;&gt;Node3</title>
<path fill="none" stroke="midnightblue" d="M491.846,-55.4926C523.285,-58.4446 564.635,-62.3272 598.094,-65.4689"/>
<polygon fill="midnightblue" stroke="midnightblue" points="491.873,-51.9798 481.59,-54.5296 491.219,-58.9492 491.873,-51.9798"/>
</g>
<!-- Node7&#45;&gt;Node2 -->
<g id="edge16" class="edge"><title>Node7&#45;&gt;Node2</title>
<path fill="none" stroke="midnightblue" d="M299.759,-89.7403C328.649,-89.9926 360.253,-90.2686 386.496,-90.4978"/>
<polygon fill="midnightblue" stroke="midnightblue" points="299.697,-86.2397 289.666,-89.6521 299.635,-93.2394 299.697,-86.2397"/>
</g>
<!-- Node9 -->
<g id="node19" class="node"><title>Node9</title>
<a xlink:href="../../d5/d35/cipconnectionmanager_8c.html#ab0532e3b6d153312d4cf60746586058e" target="_top" xlink:title="Handles a Non Null Non Matching Forward Open Request.">
<polygon fill="none" stroke="black" points="326,-0.5 326,-21.5 562,-21.5 562,-0.5 326,-0.5"/>
<text text-anchor="middle" x="444" y="-8.5" font-family="Helvetica,sans-Serif" font-size="10.00">HandleNonNullNonMatchingForwardOpenRequest</text>
</a>
</g>
<!-- Node8&#45;&gt;Node9 -->
<g id="edge20" class="edge"><title>Node8&#45;&gt;Node9</title>
<path fill="none" stroke="midnightblue" d="M281.039,-11C295.111,-11 310.38,-11 325.74,-11"/>
<polygon fill="midnightblue" stroke="midnightblue" points="281.02,-7.5001 271.02,-11 281.02,-14.5001 281.02,-7.5001"/>
</g>
</g>
</svg>
        <g id="navigator" transform="translate(0 0)" fill="#404254">
                <rect fill="#f2f5e9" fill-opacity="0.5" stroke="#606060" stroke-width=".5" x="0" y="0" width="60" height="60"/>
                <use id="zoomplus" xlink:href="#zoomPlus" x="17" y="9" onmousedown="handleZoom(evt,'in')"/>
                <use id="zoomminus" xlink:href="#zoomMin" x="42" y="9" onmousedown="handleZoom(evt,'out')"/>
                <use id="reset" xlink:href="#resetDef" x="30" y="36" onmousedown="handleReset()"/>
                <g id="arrowUp" xlink:href="#dirArrow" transform="translate(30 24)" onmousedown="handlePan(0,-1)">
                  <use xlink:href="#rim" fill="#404040">
                        <set attributeName="fill" to="#808080" begin="arrowUp.mouseover" end="arrowUp.mouseout"/>
                  </use>
                  <path fill="none" stroke="white" stroke-width="1.5" d="M0,-3.0v7 M-2.5,-0.5L0,-3.0L2.5,-0.5"/>
                </g>
                <g id="arrowRight" xlink:href="#dirArrow" transform="rotate(90) translate(36 -43)" onmousedown="handlePan(1,0)">
                  <use xlink:href="#rim" fill="#404040">
                        <set attributeName="fill" to="#808080" begin="arrowRight.mouseover" end="arrowRight.mouseout"/>
                  </use>
                  <path fill="none" stroke="white" stroke-width="1.5" d="M0,-3.0v7 M-2.5,-0.5L0,-3.0L2.5,-0.5"/>
                </g>
                <g id="arrowDown" xlink:href="#dirArrow" transform="rotate(180) translate(-30 -48)" onmousedown="handlePan(0,1)">
                  <use xlink:href="#rim" fill="#404040">
                        <set attributeName="fill" to="#808080" begin="arrowDown.mouseover" end="arrowDown.mouseout"/>
                  </use>
                  <path fill="none" stroke="white" stroke-width="1.5" d="M0,-3.0v7 M-2.5,-0.5L0,-3.0L2.5,-0.5"/>
                </g>
                <g id="arrowLeft" xlink:href="#dirArrow" transform="rotate(270) translate(-36 17)" onmousedown="handlePan(-1,0)">
                  <use xlink:href="#rim" fill="#404040">
                        <set attributeName="fill" to="#808080" begin="arrowLeft.mouseover" end="arrowLeft.mouseout"/>
                  </use>
                  <path fill="none" stroke="white" stroke-width="1.5" d="M0,-3.0v7 M-2.5,-0.5L0,-3.0L2.5,-0.5"/>
                </g>
        </g>
</svg>
