<?xml version="1.0" encoding="UTF-8" standalone="no"?>
<!DOCTYPE svg PUBLIC "-//W3C//DTD SVG 1.1//EN"
 "http://www.w3.org/Graphics/SVG/1.1/DTD/svg11.dtd">
<!-- Generated by graphviz version 2.26.3 (20100126.1600)
 -->
<!-- Title: G Pages: 1 -->
<!--zoomable 190 -->
<svg id="main" version="1.1" xmlns="http://www.w3.org/2000/svg" xmlns:xlink="http://www.w3.org/1999/xlink" xml:space="preserve" onload="init(evt)">
        <defs>
                <circle id="rim" cx="0" cy="0" r="7"/>
                <circle id="rim2" cx="0" cy="0" r="3.5"/>
                <g id="zoomPlus">
                        <use xlink:href="#rim" fill="#404040">
                                <set attributeName="fill" to="#808080" begin="zoomplus.mouseover" end="zoomplus.mouseout"/>
                        </use>
                        <path d="M-4,0h8M0,-4v8" fill="none" stroke="white" stroke-width="1.5" pointer-events="none"/>
                </g>
                <g id="zoomMin">
                        <use xlink:href="#rim" fill="#404040">
                                <set attributeName="fill" to="#808080" begin="zoomminus.mouseover" end="zoomminus.mouseout"/>
                        </use>
                        <path d="M-4,0h8" fill="none" stroke="white" stroke-width="1.5" pointer-events="none"/>
                </g>
                <g id="dirArrow">
                        <path fill="none" stroke="white" stroke-width="1.5" d="M0,-3.0v7 M-2.5,-0.5L0,-3.0L2.5,-0.5"/>
                </g>
               <g id="resetDef">
                       <use xlink:href="#rim2" fill="#404040">
                               <set attributeName="fill" to="#808080" begin="reset.mouseover" end="reset.mouseout"/>
                       </use>
               </g>
        </defs>

<script type="text/javascript">
var viewWidth = 780;
var viewHeight = 190;
var sectionId = 'dynsection-6';
</script>
<script xlink:href="../../svgpan.js"/>
<svg id="graph" class="graph">
<g id="viewport">
<title>G</title>
<!-- Node1 -->
<g id="node1" class="node"><title>Node1</title>
<polygon fill="#bfbfbf" stroke="black" points="0.5,-80.5 0.5,-101.5 163.5,-101.5 163.5,-80.5 0.5,-80.5"/>
<text text-anchor="middle" x="82" y="-88.5" font-family="Helvetica,sans-Serif" font-size="10.00">AssembleForwardOpenResponse</text>
</g>
<!-- Node2 -->
<g id="node3" class="node"><title>Node2</title>
<a xlink:href="../../d5/d35/cipconnectionmanager_8c.html#aa7b5f5390e3872191f824a666d50ef80" target="_top" xlink:title="Check if resources for new connection available, generate ForwardOpen Reply message.">
<polygon fill="none" stroke="black" points="280.5,-160.5 280.5,-181.5 355.5,-181.5 355.5,-160.5 280.5,-160.5"/>
<text text-anchor="middle" x="318" y="-168.5" font-family="Helvetica,sans-Serif" font-size="10.00">ForwardOpen</text>
</a>
</g>
<!-- Node1&#45;&gt;Node2 -->
<g id="edge2" class="edge"><title>Node1&#45;&gt;Node2</title>
<path fill="none" stroke="midnightblue" d="M107.752,-106.984C131.018,-120.708 166.628,-139.972 200,-151 226.141,-159.638 256.833,-164.692 280.361,-167.558"/>
<polygon fill="midnightblue" stroke="midnightblue" points="109.254,-103.803 98.8774,-101.662 105.654,-109.806 109.254,-103.803"/>
</g>
<!-- Node6 -->
<g id="node11" class="node"><title>Node6</title>
<a xlink:href="../../d5/d35/cipconnectionmanager_8c.html#a060eb3d4f4f7a4616ecac9a58e63aad1" target="_top" xlink:title="Handles a Non Null Matching Forward Open Request.">
<polygon fill="none" stroke="black" points="209,-120.5 209,-141.5 427,-141.5 427,-120.5 209,-120.5"/>
<text text-anchor="middle" x="318" y="-128.5" font-family="Helvetica,sans-Serif" font-size="10.00">HandleNonNullMatchingForwardOpenRequest</text>
</a>
</g>
<!-- Node1&#45;&gt;Node6 -->
<g id="edge10" class="edge"><title>Node1&#45;&gt;Node6</title>
<path fill="none" stroke="midnightblue" d="M153.93,-103.192C186.526,-108.716 224.687,-115.184 255.999,-120.491"/>
<polygon fill="midnightblue" stroke="midnightblue" points="154.451,-99.7299 144.006,-101.51 153.281,-106.631 154.451,-99.7299"/>
</g>
<!-- Node7 -->
<g id="node13" class="node"><title>Node7</title>
<a xlink:href="../../d5/d35/cipconnectionmanager_8c.html#ab0532e3b6d153312d4cf60746586058e" target="_top" xlink:title="Handles a Non Null Non Matching Forward Open Request.">
<polygon fill="none" stroke="black" points="200,-80.5 200,-101.5 436,-101.5 436,-80.5 200,-80.5"/>
<text text-anchor="middle" x="318" y="-88.5" font-family="Helvetica,sans-Serif" font-size="10.00">HandleNonNullNonMatchingForwardOpenRequest</text>
</a>
</g>
<!-- Node1&#45;&gt;Node7 -->
<g id="edge12" class="edge"><title>Node1&#45;&gt;Node7</title>
<path fill="none" stroke="midnightblue" d="M173.555,-91C182.167,-91 190.978,-91 199.789,-91"/>
<polygon fill="midnightblue" stroke="midnightblue" points="173.548,-87.5001 163.548,-91 173.548,-94.5001 173.548,-87.5001"/>
</g>
<!-- Node8 -->
<g id="node15" class="node"><title>Node8</title>
<a xlink:href="../../d5/d35/cipconnectionmanager_8c.html#af55f168db46c8ab4c8dfab00deda6b87" target="_top" xlink:title="Handles a Null Matching Forward Open request.">
<polygon fill="none" stroke="black" points="218,-40.5 218,-61.5 418,-61.5 418,-40.5 218,-40.5"/>
<text text-anchor="middle" x="318" y="-48.5" font-family="Helvetica,sans-Serif" font-size="10.00">HandleNullMatchingForwardOpenRequest</text>
</a>
</g>
<!-- Node1&#45;&gt;Node8 -->
<g id="edge14" class="edge"><title>Node1&#45;&gt;Node8</title>
<path fill="none" stroke="midnightblue" d="M153.93,-78.8085C186.526,-73.2837 224.687,-66.8158 255.999,-61.5087"/>
<polygon fill="midnightblue" stroke="midnightblue" points="153.281,-75.3685 144.006,-80.4905 154.451,-82.2701 153.281,-75.3685"/>
</g>
<!-- Node9 -->
<g id="node17" class="node"><title>Node9</title>
<a xlink:href="../../d5/d35/cipconnectionmanager_8c.html#ac7df9eb5403638fd632e3eb9e7d7abfb" target="_top" xlink:title="Handles a Null Non Matching Forward Open Request.">
<polygon fill="none" stroke="black" points="209,-0.5 209,-21.5 427,-21.5 427,-0.5 209,-0.5"/>
<text text-anchor="middle" x="318" y="-8.5" font-family="Helvetica,sans-Serif" font-size="10.00">HandleNullNonMatchingForwardOpenRequest</text>
</a>
</g>
<!-- Node1&#45;&gt;Node9 -->
<g id="edge16" class="edge"><title>Node1&#45;&gt;Node9</title>
<path fill="none" stroke="midnightblue" d="M107.752,-75.0163C131.018,-61.2918 166.628,-42.0277 200,-31 211.541,-27.1862 223.97,-24.071 236.278,-21.5343"/>
<polygon fill="midnightblue" stroke="midnightblue" points="105.654,-72.1935 98.8774,-80.3376 109.254,-78.1971 105.654,-72.1935"/>
</g>
<!-- Node3 -->
<g id="node5" class="node"><title>Node3</title>
<a xlink:href="../../d2/da3/cipconnectionmanager_8h.html#a5ab0de6894d23e8fe84a6b46797c2212" target="_top" xlink:title="Initialize the data of the connection manager object.">
<polygon fill="none" stroke="black" points="472.5,-160.5 472.5,-181.5 589.5,-181.5 589.5,-160.5 472.5,-160.5"/>
<text text-anchor="middle" x="531" y="-168.5" font-family="Helvetica,sans-Serif" font-size="10.00">ConnectionManagerInit</text>
</a>
</g>
<!-- Node2&#45;&gt;Node3 -->
<g id="edge4" class="edge"><title>Node2&#45;&gt;Node3</title>
<path fill="none" stroke="midnightblue" d="M365.846,-171C397.285,-171 438.635,-171 472.094,-171"/>
<polygon fill="midnightblue" stroke="midnightblue" points="365.59,-167.5 355.59,-171 365.59,-174.5 365.59,-167.5"/>
</g>
<!-- Node4 -->
<g id="node7" class="node"><title>Node4</title>
<a xlink:href="../../d2/dc9/group__CIP__API.html#ga5d4979945d124e28668b264c3823db1c" target="_top" xlink:title="Initialize and setup the CIP&#45;stack.">
<polygon fill="none" stroke="black" points="626.5,-160.5 626.5,-181.5 697.5,-181.5 697.5,-160.5 626.5,-160.5"/>
<text text-anchor="middle" x="662" y="-168.5" font-family="Helvetica,sans-Serif" font-size="10.00">CipStackInit</text>
</a>
</g>
<!-- Node3&#45;&gt;Node4 -->
<g id="edge6" class="edge"><title>Node3&#45;&gt;Node4</title>
<path fill="none" stroke="midnightblue" d="M599.629,-171C608.871,-171 618.029,-171 626.366,-171"/>
<polygon fill="midnightblue" stroke="midnightblue" points="599.603,-167.5 589.603,-171 599.603,-174.5 599.603,-167.5"/>
</g>
<!-- Node5 -->
<g id="node9" class="node"><title>Node5</title>
<a xlink:href="../../d9/dfb/POSIX_2main_8c.html#ad338a7dbc41dc40bcecd0479377ef207" target="_top" xlink:title="main">
<polygon fill="none" stroke="black" points="734,-160.5 734,-181.5 772,-181.5 772,-160.5 734,-160.5"/>
<text text-anchor="middle" x="753" y="-168.5" font-family="Helvetica,sans-Serif" font-size="10.00">main</text>
</a>
</g>
<!-- Node4&#45;&gt;Node5 -->
<g id="edge8" class="edge"><title>Node4&#45;&gt;Node5</title>
<path fill="none" stroke="midnightblue" d="M707.982,-171C717.145,-171 726.282,-171 733.906,-171"/>
<polygon fill="midnightblue" stroke="midnightblue" points="707.704,-167.5 697.704,-171 707.704,-174.5 707.704,-167.5"/>
</g>
</g>
</svg>
        <g id="navigator" transform="translate(0 0)" fill="#404254">
                <rect fill="#f2f5e9" fill-opacity="0.5" stroke="#606060" stroke-width=".5" x="0" y="0" width="60" height="60"/>
                <use id="zoomplus" xlink:href="#zoomPlus" x="17" y="9" onmousedown="handleZoom(evt,'in')"/>
                <use id="zoomminus" xlink:href="#zoomMin" x="42" y="9" onmousedown="handleZoom(evt,'out')"/>
                <use id="reset" xlink:href="#resetDef" x="30" y="36" onmousedown="handleReset()"/>
                <g id="arrowUp" xlink:href="#dirArrow" transform="translate(30 24)" onmousedown="handlePan(0,-1)">
                  <use xlink:href="#rim" fill="#404040">
                        <set attributeName="fill" to="#808080" begin="arrowUp.mouseover" end="arrowUp.mouseout"/>
                  </use>
                  <path fill="none" stroke="white" stroke-width="1.5" d="M0,-3.0v7 M-2.5,-0.5L0,-3.0L2.5,-0.5"/>
                </g>
                <g id="arrowRight" xlink:href="#dirArrow" transform="rotate(90) translate(36 -43)" onmousedown="handlePan(1,0)">
                  <use xlink:href="#rim" fill="#404040">
                        <set attributeName="fill" to="#808080" begin="arrowRight.mouseover" end="arrowRight.mouseout"/>
                  </use>
                  <path fill="none" stroke="white" stroke-width="1.5" d="M0,-3.0v7 M-2.5,-0.5L0,-3.0L2.5,-0.5"/>
                </g>
                <g id="arrowDown" xlink:href="#dirArrow" transform="rotate(180) translate(-30 -48)" onmousedown="handlePan(0,1)">
                  <use xlink:href="#rim" fill="#404040">
                        <set attributeName="fill" to="#808080" begin="arrowDown.mouseover" end="arrowDown.mouseout"/>
                  </use>
                  <path fill="none" stroke="white" stroke-width="1.5" d="M0,-3.0v7 M-2.5,-0.5L0,-3.0L2.5,-0.5"/>
                </g>
                <g id="arrowLeft" xlink:href="#dirArrow" transform="rotate(270) translate(-36 17)" onmousedown="handlePan(-1,0)">
                  <use xlink:href="#rim" fill="#404040">
                        <set attributeName="fill" to="#808080" begin="arrowLeft.mouseover" end="arrowLeft.mouseout"/>
                  </use>
                  <path fill="none" stroke="white" stroke-width="1.5" d="M0,-3.0v7 M-2.5,-0.5L0,-3.0L2.5,-0.5"/>
                </g>
        </g>
</svg>
