<?xml version="1.0" encoding="UTF-8" standalone="no"?>
<!DOCTYPE svg PUBLIC "-//W3C//DTD SVG 1.1//EN"
 "http://www.w3.org/Graphics/SVG/1.1/DTD/svg11.dtd">
<!-- Generated by graphviz version 2.26.3 (20100126.1600)
 -->
<!-- Title: G Pages: 1 -->
<svg width="420pt" height="230pt"
 viewBox="0.00 0.00 420.00 230.00" xmlns="http://www.w3.org/2000/svg" xmlns:xlink="http://www.w3.org/1999/xlink">
<g id="graph1" class="graph" transform="scale(1 1) rotate(0) translate(4 226)">
<title>G</title>
<!-- Node1 -->
<g id="node1" class="node"><title>Node1</title>
<polygon fill="#bfbfbf" stroke="black" points="0.5,-100.5 0.5,-121.5 127.5,-121.5 127.5,-100.5 0.5,-100.5"/>
<text text-anchor="middle" x="64" y="-108.5" font-family="Helvetica,sans-Serif" font-size="10.00">CheckElectronicKeyData</text>
</g>
<!-- Node2 -->
<g id="node3" class="node"><title>Node2</title>
<a xlink:href="../../d3/dfe/cipelectronickey_8c.html#aed74dbd485f78aed3c0e3899b8bcc527" target="_top" xlink:title="Gets the device type from a format 4 electronic key.">
<polygon fill="none" stroke="black" points="197,-200.5 197,-221.5 379,-221.5 379,-200.5 197,-200.5"/>
<text text-anchor="middle" x="288" y="-208.5" font-family="Helvetica,sans-Serif" font-size="10.00">ElectronicKeyFormat4GetDeviceType</text>
</a>
</g>
<!-- Node1&#45;&gt;Node2 -->
<g id="edge2" class="edge"><title>Node1&#45;&gt;Node2</title>
<path fill="none" stroke="midnightblue" d="M73.5946,-121.63C90.1531,-139.229 125.992,-174.149 164,-191 171.299,-194.236 179.046,-196.955 186.964,-199.24"/>
<polygon fill="midnightblue" stroke="midnightblue" points="186.126,-202.639 196.689,-201.816 187.919,-195.872 186.126,-202.639"/>
</g>
<!-- Node3 -->
<g id="node5" class="node"><title>Node3</title>
<a xlink:href="../../d3/dfe/cipelectronickey_8c.html#a7e2d34446282a304baa88999819826be" target="_top" xlink:title="Gets the major revision from an format 4 electronic key.">
<polygon fill="none" stroke="black" points="192.5,-160.5 192.5,-181.5 383.5,-181.5 383.5,-160.5 192.5,-160.5"/>
<text text-anchor="middle" x="288" y="-168.5" font-family="Helvetica,sans-Serif" font-size="10.00">ElectronicKeyFormat4GetMajorRevision</text>
</a>
</g>
<!-- Node1&#45;&gt;Node3 -->
<g id="edge4" class="edge"><title>Node1&#45;&gt;Node3</title>
<path fill="none" stroke="midnightblue" d="M86.1484,-121.506C106.095,-130.567 136.429,-143.363 164,-151 174.378,-153.874 185.366,-156.384 196.343,-158.563"/>
<polygon fill="midnightblue" stroke="midnightblue" points="195.925,-162.046 206.402,-160.472 197.23,-155.169 195.925,-162.046"/>
</g>
<!-- Node4 -->
<g id="node7" class="node"><title>Node4</title>
<a xlink:href="../../d3/dfe/cipelectronickey_8c.html#ae9592a58f49bf82f502445bfb674f3f9" target="_top" xlink:title="Gets the Compatibility flag from the format 4 electronic key.">
<polygon fill="none" stroke="black" points="164,-120.5 164,-141.5 412,-141.5 412,-120.5 164,-120.5"/>
<text text-anchor="middle" x="288" y="-128.5" font-family="Helvetica,sans-Serif" font-size="10.00">ElectronicKeyFormat4GetMajorRevisionCompatibility</text>
</a>
</g>
<!-- Node1&#45;&gt;Node4 -->
<g id="edge6" class="edge"><title>Node1&#45;&gt;Node4</title>
<path fill="none" stroke="midnightblue" d="M127.59,-116.678C137.994,-117.607 149.089,-118.597 160.399,-119.607"/>
<polygon fill="midnightblue" stroke="midnightblue" points="160.111,-123.095 170.383,-120.498 160.734,-116.123 160.111,-123.095"/>
</g>
<!-- Node5 -->
<g id="node9" class="node"><title>Node5</title>
<a xlink:href="../../d3/dfe/cipelectronickey_8c.html#a8b6d76d23689701cc6e573e4a89e1206" target="_top" xlink:title="Gets the minor revision from an format 4 electronic key.">
<polygon fill="none" stroke="black" points="192.5,-80.5 192.5,-101.5 383.5,-101.5 383.5,-80.5 192.5,-80.5"/>
<text text-anchor="middle" x="288" y="-88.5" font-family="Helvetica,sans-Serif" font-size="10.00">ElectronicKeyFormat4GetMinorRevision</text>
</a>
</g>
<!-- Node1&#45;&gt;Node5 -->
<g id="edge8" class="edge"><title>Node1&#45;&gt;Node5</title>
<path fill="none" stroke="midnightblue" d="M127.59,-105.322C144.694,-103.795 163.663,-102.102 182.393,-100.429"/>
<polygon fill="midnightblue" stroke="midnightblue" points="182.807,-103.906 192.456,-99.5307 182.184,-96.934 182.807,-103.906"/>
</g>
<!-- Node6 -->
<g id="node11" class="node"><title>Node6</title>
<a xlink:href="../../d3/dfe/cipelectronickey_8c.html#a8669b86649f54117218db3fcf6d99e52" target="_top" xlink:title="Gets the product code from an format 4 electronic key.">
<polygon fill="none" stroke="black" points="195,-40.5 195,-61.5 381,-61.5 381,-40.5 195,-40.5"/>
<text text-anchor="middle" x="288" y="-48.5" font-family="Helvetica,sans-Serif" font-size="10.00">ElectronicKeyFormat4GetProductCode</text>
</a>
</g>
<!-- Node1&#45;&gt;Node6 -->
<g id="edge10" class="edge"><title>Node1&#45;&gt;Node6</title>
<path fill="none" stroke="midnightblue" d="M86.1484,-100.494C106.095,-91.4328 136.429,-78.6366 164,-71 174.378,-68.1255 185.366,-65.6158 196.343,-63.4371"/>
<polygon fill="midnightblue" stroke="midnightblue" points="197.23,-66.8313 206.402,-61.5284 195.925,-59.954 197.23,-66.8313"/>
</g>
<!-- Node7 -->
<g id="node13" class="node"><title>Node7</title>
<a xlink:href="../../d3/dfe/cipelectronickey_8c.html#a08b515351383f3ccdcd99d80ad9a3cd1" target="_top" xlink:title="Gets the vendor ID form the electronic key.">
<polygon fill="none" stroke="black" points="204,-0.5 204,-21.5 372,-21.5 372,-0.5 204,-0.5"/>
<text text-anchor="middle" x="288" y="-8.5" font-family="Helvetica,sans-Serif" font-size="10.00">ElectronicKeyFormat4GetVendorId</text>
</a>
</g>
<!-- Node1&#45;&gt;Node7 -->
<g id="edge12" class="edge"><title>Node1&#45;&gt;Node7</title>
<path fill="none" stroke="midnightblue" d="M73.5946,-100.37C90.1531,-82.7708 125.992,-47.8515 164,-31 173.442,-26.8139 183.634,-23.4921 193.976,-20.8582"/>
<polygon fill="midnightblue" stroke="midnightblue" points="194.976,-24.2191 203.919,-18.5379 193.385,-17.4023 194.976,-24.2191"/>
</g>
</g>
</svg>
