<?xml version="1.0" encoding="UTF-8" standalone="no"?>
<!DOCTYPE svg PUBLIC "-//W3C//DTD SVG 1.1//EN"
 "http://www.w3.org/Graphics/SVG/1.1/DTD/svg11.dtd">
<!-- Generated by graphviz version 2.36.0 (20140111.2315)
 -->
<!-- Title: CheckElectronicKeyData Pages: 1 -->
<svg width="358pt" height="252pt"
 viewBox="0.00 0.00 358.00 252.00" xmlns="http://www.w3.org/2000/svg" xmlns:xlink="http://www.w3.org/1999/xlink">
<g id="graph0" class="graph" transform="scale(1 1) rotate(0) translate(4 248)">
<title>CheckElectronicKeyData</title>
<!-- Node1 -->
<g id="node1" class="node"><title>Node1</title>
<polygon fill="#bfbfbf" stroke="black" points="0.5,-106.5 0.5,-125.5 127.5,-125.5 127.5,-106.5 0.5,-106.5"/>
<text text-anchor="middle" x="64" y="-113.5" font-family="Helvetica,sans-Serif" font-size="10.00">CheckElectronicKeyData</text>
</g>
<!-- Node2 -->
<g id="node2" class="node"><title>Node2</title>
<g id="a_node2"><a xlink:href="../../d3/dfe/cipelectronickey_8c.html#aed74dbd485f78aed3c0e3899b8bcc527" target="_top" xlink:title="Gets the device type from a format 4 electronic key. ">
<polygon fill="none" stroke="black" points="166,-224.5 166,-243.5 348,-243.5 348,-224.5 166,-224.5"/>
<text text-anchor="middle" x="257" y="-231.5" font-family="Helvetica,sans-Serif" font-size="10.00">ElectronicKeyFormat4GetDeviceType</text>
</a>
</g>
</g>
<!-- Node1&#45;&gt;Node2 -->
<g id="edge1" class="edge"><title>Node1&#45;&gt;Node2</title>
<path fill="none" stroke="midnightblue" d="M71.6789,-125.596C86.0727,-145.492 122.125,-191.276 164,-214 169.154,-216.797 174.67,-219.203 180.346,-221.272"/>
<polygon fill="midnightblue" stroke="midnightblue" points="179.419,-224.651 190.012,-224.446 181.603,-218.001 179.419,-224.651"/>
</g>
<!-- Node3 -->
<g id="node3" class="node"><title>Node3</title>
<g id="a_node3"><a xlink:href="../../d3/dfe/cipelectronickey_8c.html#a7e2d34446282a304baa88999819826be" target="_top" xlink:title="Gets the major revision from an format 4 electronic key. ">
<polygon fill="none" stroke="black" points="180.5,-175 180.5,-205 333.5,-205 333.5,-175 180.5,-175"/>
<text text-anchor="start" x="188.5" y="-193" font-family="Helvetica,sans-Serif" font-size="10.00">ElectronicKeyFormat4GetMajor</text>
<text text-anchor="middle" x="257" y="-182" font-family="Helvetica,sans-Serif" font-size="10.00">Revision</text>
</a>
</g>
</g>
<!-- Node1&#45;&gt;Node3 -->
<g id="edge2" class="edge"><title>Node1&#45;&gt;Node3</title>
<path fill="none" stroke="midnightblue" d="M81.7189,-125.532C101.049,-136.252 134.054,-153.644 164,-165 170.447,-167.445 177.231,-169.756 184.073,-171.912"/>
<polygon fill="midnightblue" stroke="midnightblue" points="183.52,-175.402 194.106,-174.958 185.554,-168.704 183.52,-175.402"/>
</g>
<!-- Node4 -->
<g id="node4" class="node"><title>Node4</title>
<g id="a_node4"><a xlink:href="../../d3/dfe/cipelectronickey_8c.html#ae9592a58f49bf82f502445bfb674f3f9" target="_top" xlink:title="Gets the Compatibility flag from the format 4 electronic key. ">
<polygon fill="none" stroke="black" points="180.5,-126 180.5,-156 333.5,-156 333.5,-126 180.5,-126"/>
<text text-anchor="start" x="188.5" y="-144" font-family="Helvetica,sans-Serif" font-size="10.00">ElectronicKeyFormat4GetMajor</text>
<text text-anchor="middle" x="257" y="-133" font-family="Helvetica,sans-Serif" font-size="10.00">RevisionCompatibility</text>
</a>
</g>
</g>
<!-- Node1&#45;&gt;Node4 -->
<g id="edge3" class="edge"><title>Node1&#45;&gt;Node4</title>
<path fill="none" stroke="midnightblue" d="M127.541,-124.186C141.242,-125.979 155.975,-127.908 170.404,-129.796"/>
<polygon fill="midnightblue" stroke="midnightblue" points="169.958,-133.268 180.327,-131.095 170.866,-126.327 169.958,-133.268"/>
</g>
<!-- Node5 -->
<g id="node5" class="node"><title>Node5</title>
<g id="a_node5"><a xlink:href="../../d3/dfe/cipelectronickey_8c.html#a8b6d76d23689701cc6e573e4a89e1206" target="_top" xlink:title="Gets the minor revision from an format 4 electronic key. ">
<polygon fill="none" stroke="black" points="180.5,-77 180.5,-107 333.5,-107 333.5,-77 180.5,-77"/>
<text text-anchor="start" x="188.5" y="-95" font-family="Helvetica,sans-Serif" font-size="10.00">ElectronicKeyFormat4GetMinor</text>
<text text-anchor="middle" x="257" y="-84" font-family="Helvetica,sans-Serif" font-size="10.00">Revision</text>
</a>
</g>
</g>
<!-- Node1&#45;&gt;Node5 -->
<g id="edge4" class="edge"><title>Node1&#45;&gt;Node5</title>
<path fill="none" stroke="midnightblue" d="M127.541,-108.142C141.242,-106.42 155.975,-104.569 170.404,-102.756"/>
<polygon fill="midnightblue" stroke="midnightblue" points="170.842,-106.228 180.327,-101.509 169.969,-99.2827 170.842,-106.228"/>
</g>
<!-- Node6 -->
<g id="node6" class="node"><title>Node6</title>
<g id="a_node6"><a xlink:href="../../d3/dfe/cipelectronickey_8c.html#a8669b86649f54117218db3fcf6d99e52" target="_top" xlink:title="Gets the product code from an format 4 electronic key. ">
<polygon fill="none" stroke="black" points="164,-38.5 164,-57.5 350,-57.5 350,-38.5 164,-38.5"/>
<text text-anchor="middle" x="257" y="-45.5" font-family="Helvetica,sans-Serif" font-size="10.00">ElectronicKeyFormat4GetProductCode</text>
</a>
</g>
</g>
<!-- Node1&#45;&gt;Node6 -->
<g id="edge5" class="edge"><title>Node1&#45;&gt;Node6</title>
<path fill="none" stroke="midnightblue" d="M81.6451,-106.407C100.907,-95.6715 133.851,-78.4198 164,-68 172.943,-64.9091 182.546,-62.1934 192.054,-59.8412"/>
<polygon fill="midnightblue" stroke="midnightblue" points="192.965,-63.2225 201.895,-57.5212 191.358,-56.4093 192.965,-63.2225"/>
</g>
<!-- Node7 -->
<g id="node7" class="node"><title>Node7</title>
<g id="a_node7"><a xlink:href="../../d3/dfe/cipelectronickey_8c.html#a08b515351383f3ccdcd99d80ad9a3cd1" target="_top" xlink:title="Gets the vendor ID form the electronic key. ">
<polygon fill="none" stroke="black" points="173,-0.5 173,-19.5 341,-19.5 341,-0.5 173,-0.5"/>
<text text-anchor="middle" x="257" y="-7.5" font-family="Helvetica,sans-Serif" font-size="10.00">ElectronicKeyFormat4GetVendorId</text>
</a>
</g>
</g>
<!-- Node1&#45;&gt;Node7 -->
<g id="edge6" class="edge"><title>Node1&#45;&gt;Node7</title>
<path fill="none" stroke="midnightblue" d="M72.8549,-106.365C88.2773,-88.143 124.475,-48.6966 164,-29 168.835,-26.5904 173.96,-24.4862 179.217,-22.6489"/>
<polygon fill="midnightblue" stroke="midnightblue" points="180.312,-25.9736 188.791,-19.6213 178.201,-19.2994 180.312,-25.9736"/>
</g>
</g>
</svg>
