<?xml version="1.0" encoding="UTF-8" standalone="no"?>
<!DOCTYPE svg PUBLIC "-//W3C//DTD SVG 1.1//EN"
 "http://www.w3.org/Graphics/SVG/1.1/DTD/svg11.dtd">
<!-- Generated by graphviz version 2.26.3 (20100126.1600)
 -->
<!-- Title: G Pages: 1 -->
<svg width="432pt" height="150pt"
 viewBox="0.00 0.00 432.00 150.00" xmlns="http://www.w3.org/2000/svg" xmlns:xlink="http://www.w3.org/1999/xlink">
<g id="graph1" class="graph" transform="scale(1 1) rotate(0) translate(4 146)">
<title>G</title>
<!-- Node1 -->
<g id="node1" class="node"><title>Node1</title>
<polygon fill="#bfbfbf" stroke="black" points="0.5,-40.5 0.5,-61.5 77.5,-61.5 77.5,-40.5 0.5,-40.5"/>
<text text-anchor="middle" x="39" y="-48.5" font-family="Helvetica,sans-Serif" font-size="10.00">ForwardClose</text>
</g>
<!-- Node2 -->
<g id="node3" class="node"><title>Node2</title>
<a xlink:href="../../d5/d35/cipconnectionmanager_8c.html#a139a056407b798ae0e5928aaca6d2c7f" target="_top" xlink:title="AssembleForwardCloseResponse">
<polygon fill="none" stroke="black" points="114.5,-80.5 114.5,-101.5 279.5,-101.5 279.5,-80.5 114.5,-80.5"/>
<text text-anchor="middle" x="197" y="-88.5" font-family="Helvetica,sans-Serif" font-size="10.00">AssembleForwardCloseResponse</text>
</a>
</g>
<!-- Node1&#45;&gt;Node2 -->
<g id="edge2" class="edge"><title>Node1&#45;&gt;Node2</title>
<path fill="none" stroke="midnightblue" d="M77.8799,-61.5591C89.4847,-64.6591 102.244,-68.0167 114,-71 123.17,-73.3271 132.927,-75.7371 142.408,-78.044"/>
<polygon fill="midnightblue" stroke="midnightblue" points="141.61,-81.4517 152.153,-80.4028 143.257,-74.6482 141.61,-81.4517"/>
</g>
<!-- Node6 -->
<g id="node11" class="node"><title>Node6</title>
<a xlink:href="../../d4/d91/group__ENCAP.html#ga668f92389ee06510864585b97955f6f8" target="_top" xlink:title="Reads EIP_UINT32 from *buffer and converts little endian to host.">
<polygon fill="none" stroke="black" points="140.5,-40.5 140.5,-61.5 253.5,-61.5 253.5,-40.5 140.5,-40.5"/>
<text text-anchor="middle" x="197" y="-48.5" font-family="Helvetica,sans-Serif" font-size="10.00">GetDintFromMessage</text>
</a>
</g>
<!-- Node1&#45;&gt;Node6 -->
<g id="edge10" class="edge"><title>Node1&#45;&gt;Node6</title>
<path fill="none" stroke="midnightblue" d="M77.6511,-51C93.4569,-51 112.208,-51 130.11,-51"/>
<polygon fill="midnightblue" stroke="midnightblue" points="130.232,-54.5001 140.232,-51 130.232,-47.5001 130.232,-54.5001"/>
</g>
<!-- Node7 -->
<g id="node13" class="node"><title>Node7</title>
<a xlink:href="../../d4/d91/group__ENCAP.html#ga70322f970709ca9c9a1a1d474cfe2302" target="_top" xlink:title="Reads EIP_UINT16 from *buffer and converts little endian to host.">
<polygon fill="none" stroke="black" points="144,-0.5 144,-21.5 250,-21.5 250,-0.5 144,-0.5"/>
<text text-anchor="middle" x="197" y="-8.5" font-family="Helvetica,sans-Serif" font-size="10.00">GetIntFromMessage</text>
</a>
</g>
<!-- Node1&#45;&gt;Node7 -->
<g id="edge12" class="edge"><title>Node1&#45;&gt;Node7</title>
<path fill="none" stroke="midnightblue" d="M77.8799,-40.4409C89.4847,-37.3409 102.244,-33.9833 114,-31 123.17,-28.6729 132.927,-26.2629 142.408,-23.956"/>
<polygon fill="midnightblue" stroke="midnightblue" points="143.257,-27.3518 152.153,-21.5972 141.61,-20.5483 143.257,-27.3518"/>
</g>
<!-- Node3 -->
<g id="node5" class="node"><title>Node3</title>
<a xlink:href="../../d4/d91/group__ENCAP.html#gaafc3c9e3ff582c9b7e438ae2b1fdf822" target="_top" xlink:title="Converts UINT32 data from host to little endian and writes it to buffer.">
<polygon fill="none" stroke="black" points="318.5,-120.5 318.5,-141.5 421.5,-141.5 421.5,-120.5 318.5,-120.5"/>
<text text-anchor="middle" x="370" y="-128.5" font-family="Helvetica,sans-Serif" font-size="10.00">AddDintToMessage</text>
</a>
</g>
<!-- Node2&#45;&gt;Node3 -->
<g id="edge4" class="edge"><title>Node2&#45;&gt;Node3</title>
<path fill="none" stroke="midnightblue" d="M242.454,-101.51C264.616,-106.634 291.458,-112.84 314.789,-118.235"/>
<polygon fill="midnightblue" stroke="midnightblue" points="314.018,-121.649 324.55,-120.491 315.595,-114.828 314.018,-121.649"/>
</g>
<!-- Node4 -->
<g id="node7" class="node"><title>Node4</title>
<a xlink:href="../../d4/d91/group__ENCAP.html#gae689aac2a85bf49fb356ec94c8800799" target="_top" xlink:title="converts UINT16 data from host to little endian an writes it to buffer.">
<polygon fill="none" stroke="black" points="322,-80.5 322,-101.5 418,-101.5 418,-80.5 322,-80.5"/>
<text text-anchor="middle" x="370" y="-88.5" font-family="Helvetica,sans-Serif" font-size="10.00">AddIntToMessage</text>
</a>
</g>
<!-- Node2&#45;&gt;Node4 -->
<g id="edge6" class="edge"><title>Node2&#45;&gt;Node4</title>
<path fill="none" stroke="midnightblue" d="M279.7,-91C290.515,-91 301.411,-91 311.707,-91"/>
<polygon fill="midnightblue" stroke="midnightblue" points="311.778,-94.5001 321.778,-91 311.778,-87.5001 311.778,-94.5001"/>
</g>
<!-- Node5 -->
<g id="node9" class="node"><title>Node5</title>
<a xlink:href="../../d5/d35/cipconnectionmanager_8c.html#ac09a235d1ae01c674d4537450fb8fda3" target="_top" xlink:title="Adds a Null Address Item to the common data packet format data.">
<polygon fill="none" stroke="black" points="316.5,-40.5 316.5,-61.5 423.5,-61.5 423.5,-40.5 316.5,-40.5"/>
<text text-anchor="middle" x="370" y="-48.5" font-family="Helvetica,sans-Serif" font-size="10.00">AddNullAddressItem</text>
</a>
</g>
<!-- Node2&#45;&gt;Node5 -->
<g id="edge8" class="edge"><title>Node2&#45;&gt;Node5</title>
<path fill="none" stroke="midnightblue" d="M242.454,-80.4905C264.616,-75.3663 291.458,-69.1601 314.789,-63.7655"/>
<polygon fill="midnightblue" stroke="midnightblue" points="315.595,-67.1715 324.55,-61.5087 314.018,-60.3515 315.595,-67.1715"/>
</g>
</g>
</svg>
