<?xml version="1.0" encoding="UTF-8" standalone="no"?>
<!DOCTYPE svg PUBLIC "-//W3C//DTD SVG 1.1//EN"
 "http://www.w3.org/Graphics/SVG/1.1/DTD/svg11.dtd">
<!-- Generated by graphviz version 2.38.0 (20140413.2041)
 -->
<!-- Title: assembleFWDCloseResponse Pages: 1 -->
<svg width="234pt" height="66pt"
 viewBox="0.00 0.00 234.00 66.00" xmlns="http://www.w3.org/2000/svg" xmlns:xlink="http://www.w3.org/1999/xlink">
<g id="graph0" class="graph" transform="scale(1 1) rotate(0) translate(4 62)">
<title>assembleFWDCloseResponse</title>
<!-- Node1 -->
<g id="node1" class="node"><title>Node1</title>
<polygon fill="#bfbfbf" stroke="black" points="0,-19.5 0,-38.5 152,-38.5 152,-19.5 0,-19.5"/>
<text text-anchor="middle" x="76" y="-26.5" font-family="Helvetica,sans-Serif" font-size="10.00">assembleFWDCloseResponse</text>
</g>
<!-- Node2 -->
<g id="node2" class="node"><title>Node2</title>
<g id="a_node2"><a xlink:href="../../d4/d91/group__ENCAP.html#gaa00e394da5cd80135cdab7d4f3d88819" target="_top" xlink:title="Converts UINT32 data from host to little endian and writes it to pa_buf. ">
<polygon fill="none" stroke="black" points="189.5,-38.5 189.5,-57.5 224.5,-57.5 224.5,-38.5 189.5,-38.5"/>
<text text-anchor="middle" x="207" y="-45.5" font-family="Helvetica,sans-Serif" font-size="10.00">htoll</text>
</a>
</g>
</g>
<!-- Node1&#45;&gt;Node2 -->
<g id="edge1" class="edge"><title>Node1&#45;&gt;Node2</title>
<path fill="none" stroke="midnightblue" d="M141.878,-38.5557C155.054,-40.4963 168.208,-42.4338 179.143,-44.0443"/>
<polygon fill="midnightblue" stroke="midnightblue" points="178.852,-47.5391 189.255,-45.5337 179.872,-40.6139 178.852,-47.5391"/>
</g>
<!-- Node3 -->
<g id="node3" class="node"><title>Node3</title>
<g id="a_node3"><a xlink:href="../../d4/d91/group__ENCAP.html#ga738d386bb3919d75bb14dcb40ca5389f" target="_top" xlink:title="converts UINT16 data from host to little endian an writes it to pa_buf. ">
<polygon fill="none" stroke="black" points="188,-0.5 188,-19.5 226,-19.5 226,-0.5 188,-0.5"/>
<text text-anchor="middle" x="207" y="-7.5" font-family="Helvetica,sans-Serif" font-size="10.00">htols</text>
</a>
</g>
</g>
<!-- Node1&#45;&gt;Node3 -->
<g id="edge2" class="edge"><title>Node1&#45;&gt;Node3</title>
<path fill="none" stroke="midnightblue" d="M141.878,-19.4443C154.583,-17.573 167.269,-15.7046 177.963,-14.1295"/>
<polygon fill="midnightblue" stroke="midnightblue" points="178.537,-17.5828 187.92,-12.663 177.517,-10.6576 178.537,-17.5828"/>
</g>
</g>
</svg>
