<?xml version="1.0" encoding="UTF-8" standalone="no"?>
<!DOCTYPE svg PUBLIC "-//W3C//DTD SVG 1.1//EN"
 "http://www.w3.org/Graphics/SVG/1.1/DTD/svg11.dtd">
<!-- Generated by graphviz version 2.26.3 (20100126.1600)
 -->
<!-- Title: G Pages: 1 -->
<!--zoomable 320 -->
<svg id="main" version="1.1" xmlns="http://www.w3.org/2000/svg" xmlns:xlink="http://www.w3.org/1999/xlink" xml:space="preserve" onload="init(evt)">
        <defs>
                <circle id="rim" cx="0" cy="0" r="7"/>
                <circle id="rim2" cx="0" cy="0" r="3.5"/>
                <g id="zoomPlus">
                        <use xlink:href="#rim" fill="#404040">
                                <set attributeName="fill" to="#808080" begin="zoomplus.mouseover" end="zoomplus.mouseout"/>
                        </use>
                        <path d="M-4,0h8M0,-4v8" fill="none" stroke="white" stroke-width="1.5" pointer-events="none"/>
                </g>
                <g id="zoomMin">
                        <use xlink:href="#rim" fill="#404040">
                                <set attributeName="fill" to="#808080" begin="zoomminus.mouseover" end="zoomminus.mouseout"/>
                        </use>
                        <path d="M-4,0h8" fill="none" stroke="white" stroke-width="1.5" pointer-events="none"/>
                </g>
                <g id="dirArrow">
                        <path fill="none" stroke="white" stroke-width="1.5" d="M0,-3.0v7 M-2.5,-0.5L0,-3.0L2.5,-0.5"/>
                </g>
               <g id="resetDef">
                       <use xlink:href="#rim2" fill="#404040">
                               <set attributeName="fill" to="#808080" begin="reset.mouseover" end="reset.mouseout"/>
                       </use>
               </g>
        </defs>

<script type="text/javascript">
var viewWidth = 681;
var viewHeight = 320;
var sectionId = 'dynsection-0';
</script>
<script xlink:href="../../svgpan.js"/>
<svg id="graph" class="graph">
<g id="viewport">
<title>G</title>
<!-- Node1 -->
<g id="node1" class="node"><title>Node1</title>
<polygon fill="#bfbfbf" stroke="black" points="190,-290.5 190,-311.5 298,-311.5 298,-290.5 190,-290.5"/>
<text text-anchor="middle" x="244" y="-298.5" font-family="Helvetica,sans-Serif" font-size="10.00">src/enet_encap/cpf.c</text>
</g>
<!-- Node2 -->
<g id="node3" class="node"><title>Node2</title>
<polygon fill="none" stroke="#bfbfbf" points="-0.5,-232.5 -0.5,-253.5 48.5,-253.5 48.5,-232.5 -0.5,-232.5"/>
<text text-anchor="middle" x="24" y="-240.5" font-family="Helvetica,sans-Serif" font-size="10.00">string.h</text>
</g>
<!-- Node1&#45;&gt;Node2 -->
<g id="edge2" class="edge"><title>Node1&#45;&gt;Node2</title>
<path fill="none" stroke="midnightblue" d="M198.013,-290.465C162.228,-282.037 111.138,-269.504 58.6222,-254.351"/>
<polygon fill="midnightblue" stroke="midnightblue" points="59.3829,-250.927 48.8031,-251.491 57.4255,-257.647 59.3829,-250.927"/>
</g>
<!-- Node3 -->
<g id="node5" class="node"><title>Node3</title>
<a xlink:href="../../d0/dff/cpf_8h.html" target="_top" xlink:title="cpf.h">
<polygon fill="none" stroke="black" points="229,-174.5 229,-195.5 267,-195.5 267,-174.5 229,-174.5"/>
<text text-anchor="middle" x="248" y="-182.5" font-family="Helvetica,sans-Serif" font-size="10.00">cpf.h</text>
</a>
</g>
<!-- Node1&#45;&gt;Node3 -->
<g id="edge4" class="edge"><title>Node1&#45;&gt;Node3</title>
<path fill="none" stroke="midnightblue" d="M244.369,-290.295C245.03,-271.131 246.426,-230.654 247.281,-205.843"/>
<polygon fill="midnightblue" stroke="midnightblue" points="250.785,-205.794 247.632,-195.679 243.789,-205.553 250.785,-205.794"/>
</g>
<!-- Node11 -->
<g id="node23" class="node"><title>Node11</title>
<a xlink:href="../../d4/d38/opener__api_8h.html" target="_top" xlink:title="opener_api.h">
<polygon fill="none" stroke="black" points="383,-174.5 383,-195.5 455,-195.5 455,-174.5 383,-174.5"/>
<text text-anchor="middle" x="419" y="-182.5" font-family="Helvetica,sans-Serif" font-size="10.00">opener_api.h</text>
</a>
</g>
<!-- Node1&#45;&gt;Node11 -->
<g id="edge24" class="edge"><title>Node1&#45;&gt;Node11</title>
<path fill="none" stroke="midnightblue" d="M298.038,-291.069C338.219,-282.61 388.492,-269.399 403,-254 415.146,-241.108 418.689,-220.88 419.465,-205.652"/>
<polygon fill="midnightblue" stroke="midnightblue" points="422.965,-205.678 419.625,-195.624 415.966,-205.567 422.965,-205.678"/>
</g>
<!-- Node13 -->
<g id="node30" class="node"><title>Node13</title>
<a xlink:href="../../d6/d52/ciperror_8h.html" target="_top" xlink:title="ciperror.h">
<polygon fill="none" stroke="black" points="616.5,-116.5 616.5,-137.5 673.5,-137.5 673.5,-116.5 616.5,-116.5"/>
<text text-anchor="middle" x="645" y="-124.5" font-family="Helvetica,sans-Serif" font-size="10.00">ciperror.h</text>
</a>
</g>
<!-- Node1&#45;&gt;Node13 -->
<g id="edge54" class="edge"><title>Node1&#45;&gt;Node13</title>
<path fill="none" stroke="midnightblue" d="M298.146,-297.174C372.699,-291.121 502.362,-277.54 543,-254 587.217,-228.387 619.831,-175.659 635.193,-146.854"/>
<polygon fill="midnightblue" stroke="midnightblue" points="638.417,-148.237 639.897,-137.746 632.198,-145.025 638.417,-148.237"/>
</g>
<!-- Node15 -->
<g id="node34" class="node"><title>Node15</title>
<a xlink:href="../../db/d14/cipcommon_8h.html" target="_top" xlink:title="cipcommon.h">
<polygon fill="none" stroke="black" points="16.5,-174.5 16.5,-195.5 91.5,-195.5 91.5,-174.5 16.5,-174.5"/>
<text text-anchor="middle" x="54" y="-182.5" font-family="Helvetica,sans-Serif" font-size="10.00">cipcommon.h</text>
</a>
</g>
<!-- Node1&#45;&gt;Node15 -->
<g id="edge38" class="edge"><title>Node1&#45;&gt;Node15</title>
<path fill="none" stroke="midnightblue" d="M230.961,-290.435C213.091,-276.215 179.701,-250.562 149,-232 129.154,-220.001 105.824,-208.425 87.25,-199.764"/>
<polygon fill="midnightblue" stroke="midnightblue" points="88.5617,-196.515 78.0143,-195.514 85.6353,-202.874 88.5617,-196.515"/>
</g>
<!-- Node16 -->
<g id="node38" class="node"><title>Node16</title>
<a xlink:href="../../d2/d75/cipmessagerouter_8h.html" target="_top" xlink:title="cipmessagerouter.h">
<polygon fill="none" stroke="black" points="109,-174.5 109,-195.5 211,-195.5 211,-174.5 109,-174.5"/>
<text text-anchor="middle" x="160" y="-182.5" font-family="Helvetica,sans-Serif" font-size="10.00">cipmessagerouter.h</text>
</a>
</g>
<!-- Node1&#45;&gt;Node16 -->
<g id="edge44" class="edge"><title>Node1&#45;&gt;Node16</title>
<path fill="none" stroke="midnightblue" d="M236.248,-290.295C221.996,-270.613 191.464,-228.45 173.662,-203.867"/>
<polygon fill="midnightblue" stroke="midnightblue" points="176.433,-201.726 167.733,-195.679 170.764,-205.831 176.433,-201.726"/>
</g>
<!-- Node17 -->
<g id="node42" class="node"><title>Node17</title>
<a xlink:href="../../d0/dec/endianconv_8h.html" target="_top" xlink:title="Responsible for Endianess conversion.">
<polygon fill="none" stroke="black" points="66,-232.5 66,-253.5 140,-253.5 140,-232.5 66,-232.5"/>
<text text-anchor="middle" x="103" y="-240.5" font-family="Helvetica,sans-Serif" font-size="10.00">endianconv.h</text>
</a>
</g>
<!-- Node1&#45;&gt;Node17 -->
<g id="edge50" class="edge"><title>Node1&#45;&gt;Node17</title>
<path fill="none" stroke="midnightblue" d="M218.466,-290.497C196.047,-281.275 163.215,-267.769 138.287,-257.515"/>
<polygon fill="midnightblue" stroke="midnightblue" points="139.4,-254.189 128.821,-253.621 136.737,-260.662 139.4,-254.189"/>
</g>
<!-- Node18 -->
<g id="node46" class="node"><title>Node18</title>
<a xlink:href="../../d2/da3/cipconnectionmanager_8h.html" target="_top" xlink:title="cipconnectionmanager.h">
<polygon fill="none" stroke="black" points="272,-232.5 272,-253.5 394,-253.5 394,-232.5 272,-232.5"/>
<text text-anchor="middle" x="333" y="-240.5" font-family="Helvetica,sans-Serif" font-size="10.00">cipconnectionmanager.h</text>
</a>
</g>
<!-- Node1&#45;&gt;Node18 -->
<g id="edge56" class="edge"><title>Node1&#45;&gt;Node18</title>
<path fill="none" stroke="midnightblue" d="M260.324,-290.362C273.748,-281.614 292.983,-269.079 308.293,-259.101"/>
<polygon fill="midnightblue" stroke="midnightblue" points="310.312,-261.963 316.78,-253.571 306.491,-256.098 310.312,-261.963"/>
</g>
<!-- Node19 -->
<g id="node52" class="node"><title>Node19</title>
<a xlink:href="../../d1/d1b/trace_8h.html" target="_top" xlink:title="Tracing infrastructure for OpENer.">
<polygon fill="none" stroke="black" points="487.5,-232.5 487.5,-253.5 534.5,-253.5 534.5,-232.5 487.5,-232.5"/>
<text text-anchor="middle" x="511" y="-240.5" font-family="Helvetica,sans-Serif" font-size="10.00">trace.h</text>
</a>
</g>
<!-- Node1&#45;&gt;Node19 -->
<g id="edge66" class="edge"><title>Node1&#45;&gt;Node19</title>
<path fill="none" stroke="midnightblue" d="M292.352,-290.497C345.861,-278.873 430.694,-260.445 477.402,-250.298"/>
<polygon fill="midnightblue" stroke="midnightblue" points="478.287,-253.688 487.316,-248.145 476.801,-246.848 478.287,-253.688"/>
</g>
<!-- Node4 -->
<g id="node7" class="node"><title>Node4</title>
<a xlink:href="../../d7/d69/typedefs_8h.html" target="_top" xlink:title="typedefs.h">
<polygon fill="none" stroke="black" points="156,-58.5 156,-79.5 218,-79.5 218,-58.5 156,-58.5"/>
<text text-anchor="middle" x="187" y="-66.5" font-family="Helvetica,sans-Serif" font-size="10.00">typedefs.h</text>
</a>
</g>
<!-- Node3&#45;&gt;Node4 -->
<g id="edge6" class="edge"><title>Node3&#45;&gt;Node4</title>
<path fill="none" stroke="midnightblue" d="M242.371,-174.295C232.157,-154.872 210.43,-113.556 197.436,-88.8462"/>
<polygon fill="midnightblue" stroke="midnightblue" points="200.368,-86.901 192.616,-79.6792 194.172,-90.1591 200.368,-86.901"/>
</g>
<!-- Node8 -->
<g id="node15" class="node"><title>Node8</title>
<a xlink:href="../../df/d28/ciptypes_8h.html" target="_top" xlink:title="ciptypes.h">
<polygon fill="none" stroke="black" points="233,-116.5 233,-137.5 295,-137.5 295,-116.5 233,-116.5"/>
<text text-anchor="middle" x="264" y="-124.5" font-family="Helvetica,sans-Serif" font-size="10.00">ciptypes.h</text>
</a>
</g>
<!-- Node3&#45;&gt;Node8 -->
<g id="edge14" class="edge"><title>Node3&#45;&gt;Node8</title>
<path fill="none" stroke="midnightblue" d="M250.935,-174.362C253.01,-166.84 255.857,-156.519 258.364,-147.431"/>
<polygon fill="midnightblue" stroke="midnightblue" points="261.799,-148.141 261.084,-137.571 255.051,-146.28 261.799,-148.141"/>
</g>
<!-- Node10 -->
<g id="node20" class="node"><title>Node10</title>
<a xlink:href="../../d7/df9/encap_8h.html" target="_top" xlink:title="This file contains the public interface of the encapsulation layer.">
<polygon fill="none" stroke="black" points="126.5,-116.5 126.5,-137.5 177.5,-137.5 177.5,-116.5 126.5,-116.5"/>
<text text-anchor="middle" x="152" y="-124.5" font-family="Helvetica,sans-Serif" font-size="10.00">encap.h</text>
</a>
</g>
<!-- Node3&#45;&gt;Node10 -->
<g id="edge20" class="edge"><title>Node3&#45;&gt;Node10</title>
<path fill="none" stroke="midnightblue" d="M230.392,-174.362C215.777,-165.532 194.776,-152.844 178.189,-142.822"/>
<polygon fill="midnightblue" stroke="midnightblue" points="179.865,-139.746 169.496,-137.571 176.246,-145.738 179.865,-139.746"/>
</g>
<!-- Node5 -->
<g id="node9" class="node"><title>Node5</title>
<polygon fill="none" stroke="#bfbfbf" points="194.5,-0.5 194.5,-21.5 253.5,-21.5 253.5,-0.5 194.5,-0.5"/>
<text text-anchor="middle" x="224" y="-8.5" font-family="Helvetica,sans-Serif" font-size="10.00">inttypes.h</text>
</g>
<!-- Node4&#45;&gt;Node5 -->
<g id="edge8" class="edge"><title>Node4&#45;&gt;Node5</title>
<path fill="none" stroke="midnightblue" d="M193.786,-58.3619C198.793,-50.5131 205.745,-39.6159 211.718,-30.2527"/>
<polygon fill="midnightblue" stroke="midnightblue" points="214.829,-31.8837 217.257,-21.5707 208.928,-28.1189 214.829,-31.8837"/>
</g>
<!-- Node6 -->
<g id="node11" class="node"><title>Node6</title>
<polygon fill="none" stroke="#bfbfbf" points="125,-0.5 125,-21.5 177,-21.5 177,-0.5 125,-0.5"/>
<text text-anchor="middle" x="151" y="-8.5" font-family="Helvetica,sans-Serif" font-size="10.00">stddef.h</text>
</g>
<!-- Node4&#45;&gt;Node6 -->
<g id="edge10" class="edge"><title>Node4&#45;&gt;Node6</title>
<path fill="none" stroke="midnightblue" d="M180.397,-58.3619C175.525,-50.5131 168.762,-39.6159 162.95,-30.2527"/>
<polygon fill="midnightblue" stroke="midnightblue" points="165.809,-28.2213 157.561,-21.5707 159.861,-31.9129 165.809,-28.2213"/>
</g>
<!-- Node7 -->
<g id="node13" class="node"><title>Node7</title>
<polygon fill="none" stroke="#bfbfbf" points="356,-0.5 356,-21.5 412,-21.5 412,-0.5 356,-0.5"/>
<text text-anchor="middle" x="384" y="-8.5" font-family="Helvetica,sans-Serif" font-size="10.00">stdbool.h</text>
</g>
<!-- Node4&#45;&gt;Node7 -->
<g id="edge12" class="edge"><title>Node4&#45;&gt;Node7</title>
<path fill="none" stroke="midnightblue" d="M218.215,-59.8097C252.826,-49.6199 308.666,-33.1796 345.845,-22.2335"/>
<polygon fill="midnightblue" stroke="midnightblue" points="347.199,-25.4834 355.803,-19.3016 345.222,-18.7684 347.199,-25.4834"/>
</g>
<!-- Node8&#45;&gt;Node4 -->
<g id="edge16" class="edge"><title>Node8&#45;&gt;Node4</title>
<path fill="none" stroke="midnightblue" d="M249.877,-116.362C238.48,-107.777 222.242,-95.5459 209.122,-85.6636"/>
<polygon fill="midnightblue" stroke="midnightblue" points="211.127,-82.7916 201.033,-79.5707 206.915,-88.3829 211.127,-82.7916"/>
</g>
<!-- Node9 -->
<g id="node18" class="node"><title>Node9</title>
<polygon fill="none" stroke="#bfbfbf" points="235.5,-58.5 235.5,-79.5 326.5,-79.5 326.5,-58.5 235.5,-58.5"/>
<text text-anchor="middle" x="281" y="-66.5" font-family="Helvetica,sans-Serif" font-size="10.00">networkhandler.h</text>
</g>
<!-- Node8&#45;&gt;Node9 -->
<g id="edge18" class="edge"><title>Node8&#45;&gt;Node9</title>
<path fill="none" stroke="midnightblue" d="M267.118,-116.362C269.323,-108.84 272.348,-98.5187 275.012,-89.4308"/>
<polygon fill="midnightblue" stroke="midnightblue" points="278.448,-90.1514 277.902,-79.5707 271.73,-88.1825 278.448,-90.1514"/>
</g>
<!-- Node10&#45;&gt;Node4 -->
<g id="edge22" class="edge"><title>Node10&#45;&gt;Node4</title>
<path fill="none" stroke="midnightblue" d="M158.42,-116.362C163.156,-108.513 169.732,-97.6159 175.382,-88.2527"/>
<polygon fill="midnightblue" stroke="midnightblue" points="178.451,-89.9409 180.621,-79.5707 172.458,-86.3242 178.451,-89.9409"/>
</g>
<!-- Node11&#45;&gt;Node4 -->
<g id="edge30" class="edge"><title>Node11&#45;&gt;Node4</title>
<path fill="none" stroke="midnightblue" d="M409.133,-174.374C394.657,-159.367 366.202,-132.013 337,-116 327.218,-110.636 268.734,-92.9489 227.755,-80.8697"/>
<polygon fill="midnightblue" stroke="midnightblue" points="228.593,-77.4683 218.012,-78.0062 226.62,-84.1842 228.593,-77.4683"/>
</g>
<!-- Node11&#45;&gt;Node7 -->
<g id="edge28" class="edge"><title>Node11&#45;&gt;Node7</title>
<path fill="none" stroke="midnightblue" d="M428.677,-174.361C436.131,-165.4 445.842,-151.856 450,-138 452.81,-128.635 452.708,-125.395 450,-116 440.34,-82.4785 416.47,-49.3292 400.247,-29.5086"/>
<polygon fill="midnightblue" stroke="midnightblue" points="402.733,-27.0271 393.618,-21.6269 397.376,-31.5328 402.733,-27.0271"/>
</g>
<!-- Node11&#45;&gt;Node8 -->
<g id="edge32" class="edge"><title>Node11&#45;&gt;Node8</title>
<path fill="none" stroke="midnightblue" d="M390.931,-174.497C365.99,-165.164 329.326,-151.445 301.808,-141.147"/>
<polygon fill="midnightblue" stroke="midnightblue" points="302.714,-137.75 292.122,-137.523 300.261,-144.306 302.714,-137.75"/>
</g>
<!-- Node12 -->
<g id="node25" class="node"><title>Node12</title>
<polygon fill="none" stroke="#bfbfbf" points="389,-116.5 389,-137.5 441,-137.5 441,-116.5 389,-116.5"/>
<text text-anchor="middle" x="415" y="-124.5" font-family="Helvetica,sans-Serif" font-size="10.00">assert.h</text>
</g>
<!-- Node11&#45;&gt;Node12 -->
<g id="edge26" class="edge"><title>Node11&#45;&gt;Node12</title>
<path fill="none" stroke="midnightblue" d="M418.266,-174.362C417.753,-166.922 417.051,-156.743 416.429,-147.728"/>
<polygon fill="midnightblue" stroke="midnightblue" points="419.909,-147.306 415.729,-137.571 412.925,-147.788 419.909,-147.306"/>
</g>
<!-- Node11&#45;&gt;Node13 -->
<g id="edge34" class="edge"><title>Node11&#45;&gt;Node13</title>
<path fill="none" stroke="midnightblue" d="M455.006,-176.559C491.117,-167.979 548.534,-154.032 606.645,-138.299"/>
<polygon fill="midnightblue" stroke="midnightblue" points="607.624,-141.66 616.353,-135.656 605.785,-134.906 607.624,-141.66"/>
</g>
<!-- Node14 -->
<g id="node32" class="node"><title>Node14</title>
<polygon fill="none" stroke="#bfbfbf" points="497,-116.5 497,-137.5 599,-137.5 599,-116.5 497,-116.5"/>
<text text-anchor="middle" x="548" y="-124.5" font-family="Helvetica,sans-Serif" font-size="10.00">opener_user_conf.h</text>
</g>
<!-- Node11&#45;&gt;Node14 -->
<g id="edge36" class="edge"><title>Node11&#45;&gt;Node14</title>
<path fill="none" stroke="midnightblue" d="M442.361,-174.497C462.691,-165.356 492.378,-152.008 515.109,-141.788"/>
<polygon fill="midnightblue" stroke="midnightblue" points="516.692,-144.914 524.377,-137.621 513.821,-138.53 516.692,-144.914"/>
</g>
<!-- Node15&#45;&gt;Node4 -->
<g id="edge40" class="edge"><title>Node15&#45;&gt;Node4</title>
<path fill="none" stroke="midnightblue" d="M60.9999,-174.233C70.756,-159.785 89.5597,-133.874 110,-116 124.059,-103.706 141.728,-92.6669 156.594,-84.3815"/>
<polygon fill="midnightblue" stroke="midnightblue" points="158.306,-87.4344 165.43,-79.5919 154.97,-81.2804 158.306,-87.4344"/>
</g>
<!-- Node15&#45;&gt;Node8 -->
<g id="edge42" class="edge"><title>Node15&#45;&gt;Node8</title>
<path fill="none" stroke="midnightblue" d="M91.5438,-174.631C128.582,-164.401 185.039,-148.808 223.175,-138.276"/>
<polygon fill="midnightblue" stroke="midnightblue" points="224.225,-141.617 232.933,-135.581 222.362,-134.869 224.225,-141.617"/>
</g>
<!-- Node16&#45;&gt;Node4 -->
<g id="edge46" class="edge"><title>Node16&#45;&gt;Node4</title>
<path fill="none" stroke="midnightblue" d="M145.76,-174.476C129.56,-161.141 106.724,-137.323 118,-116 125.212,-102.362 138.354,-91.94 151.249,-84.4171"/>
<polygon fill="midnightblue" stroke="midnightblue" points="152.919,-87.4935 160.061,-79.6683 149.598,-81.3314 152.919,-87.4935"/>
</g>
<!-- Node16&#45;&gt;Node8 -->
<g id="edge48" class="edge"><title>Node16&#45;&gt;Node8</title>
<path fill="none" stroke="midnightblue" d="M179.075,-174.362C195.055,-165.45 218.081,-152.609 236.127,-142.545"/>
<polygon fill="midnightblue" stroke="midnightblue" points="238.017,-145.498 245.046,-137.571 234.607,-139.385 238.017,-145.498"/>
</g>
<!-- Node17&#45;&gt;Node4 -->
<g id="edge52" class="edge"><title>Node17&#45;&gt;Node4</title>
<path fill="none" stroke="midnightblue" d="M65.8816,-233.18C33.4335,-222.474 -6.41912,-202.913 8,-174 34.7014,-120.458 102.084,-92.1968 146.133,-78.9476"/>
<polygon fill="midnightblue" stroke="midnightblue" points="147.327,-82.2461 155.971,-76.1199 145.393,-75.5184 147.327,-82.2461"/>
</g>
<!-- Node18&#45;&gt;Node4 -->
<g id="edge62" class="edge"><title>Node18&#45;&gt;Node4</title>
<path fill="none" stroke="midnightblue" d="M333.66,-232.366C334.549,-208.565 333.369,-150.401 304,-116 293.657,-103.884 257.255,-90.353 227.77,-80.9319"/>
<polygon fill="midnightblue" stroke="midnightblue" points="228.672,-77.5469 218.083,-77.9025 226.582,-84.2278 228.672,-77.5469"/>
</g>
<!-- Node18&#45;&gt;Node8 -->
<g id="edge64" class="edge"><title>Node18&#45;&gt;Node8</title>
<path fill="none" stroke="midnightblue" d="M326.632,-232.295C315.028,-212.786 290.284,-171.188 275.61,-146.518"/>
<polygon fill="midnightblue" stroke="midnightblue" points="278.473,-144.484 270.352,-137.679 272.456,-148.063 278.473,-144.484"/>
</g>
<!-- Node18&#45;&gt;Node11 -->
<g id="edge60" class="edge"><title>Node18&#45;&gt;Node11</title>
<path fill="none" stroke="midnightblue" d="M348.774,-232.362C361.624,-223.696 379.985,-211.313 394.71,-201.382"/>
<polygon fill="midnightblue" stroke="midnightblue" points="396.993,-204.064 403.326,-195.571 393.079,-198.26 396.993,-204.064"/>
</g>
<!-- Node18&#45;&gt;Node14 -->
<g id="edge58" class="edge"><title>Node18&#45;&gt;Node14</title>
<path fill="none" stroke="midnightblue" d="M373.233,-232.477C399.975,-224.557 435.314,-212.275 464,-196 488.881,-181.884 513.747,-160.293 529.893,-145.029"/>
<polygon fill="midnightblue" stroke="midnightblue" points="532.727,-147.158 537.495,-137.697 527.868,-142.12 532.727,-147.158"/>
</g>
<!-- Node19&#45;&gt;Node14 -->
<g id="edge68" class="edge"><title>Node19&#45;&gt;Node14</title>
<path fill="none" stroke="midnightblue" d="M514.415,-232.295C520.555,-213.045 533.554,-172.289 541.458,-147.509"/>
<polygon fill="midnightblue" stroke="midnightblue" points="544.889,-148.27 544.594,-137.679 538.22,-146.143 544.889,-148.27"/>
</g>
</g>
</svg>
        <g id="navigator" transform="translate(0 0)" fill="#404254">
                <rect fill="#f2f5e9" fill-opacity="0.5" stroke="#606060" stroke-width=".5" x="0" y="0" width="60" height="60"/>
                <use id="zoomplus" xlink:href="#zoomPlus" x="17" y="9" onmousedown="handleZoom(evt,'in')"/>
                <use id="zoomminus" xlink:href="#zoomMin" x="42" y="9" onmousedown="handleZoom(evt,'out')"/>
                <use id="reset" xlink:href="#resetDef" x="30" y="36" onmousedown="handleReset()"/>
                <g id="arrowUp" xlink:href="#dirArrow" transform="translate(30 24)" onmousedown="handlePan(0,-1)">
                  <use xlink:href="#rim" fill="#404040">
                        <set attributeName="fill" to="#808080" begin="arrowUp.mouseover" end="arrowUp.mouseout"/>
                  </use>
                  <path fill="none" stroke="white" stroke-width="1.5" d="M0,-3.0v7 M-2.5,-0.5L0,-3.0L2.5,-0.5"/>
                </g>
                <g id="arrowRight" xlink:href="#dirArrow" transform="rotate(90) translate(36 -43)" onmousedown="handlePan(1,0)">
                  <use xlink:href="#rim" fill="#404040">
                        <set attributeName="fill" to="#808080" begin="arrowRight.mouseover" end="arrowRight.mouseout"/>
                  </use>
                  <path fill="none" stroke="white" stroke-width="1.5" d="M0,-3.0v7 M-2.5,-0.5L0,-3.0L2.5,-0.5"/>
                </g>
                <g id="arrowDown" xlink:href="#dirArrow" transform="rotate(180) translate(-30 -48)" onmousedown="handlePan(0,1)">
                  <use xlink:href="#rim" fill="#404040">
                        <set attributeName="fill" to="#808080" begin="arrowDown.mouseover" end="arrowDown.mouseout"/>
                  </use>
                  <path fill="none" stroke="white" stroke-width="1.5" d="M0,-3.0v7 M-2.5,-0.5L0,-3.0L2.5,-0.5"/>
                </g>
                <g id="arrowLeft" xlink:href="#dirArrow" transform="rotate(270) translate(-36 17)" onmousedown="handlePan(-1,0)">
                  <use xlink:href="#rim" fill="#404040">
                        <set attributeName="fill" to="#808080" begin="arrowLeft.mouseover" end="arrowLeft.mouseout"/>
                  </use>
                  <path fill="none" stroke="white" stroke-width="1.5" d="M0,-3.0v7 M-2.5,-0.5L0,-3.0L2.5,-0.5"/>
                </g>
        </g>
</svg>
