<?xml version="1.0" encoding="UTF-8" standalone="no"?>
<!DOCTYPE svg PUBLIC "-//W3C//DTD SVG 1.1//EN"
 "http://www.w3.org/Graphics/SVG/1.1/DTD/svg11.dtd">
<!-- Generated by graphviz version 2.36.0 (20140111.2315)
 -->
<!-- Title: src/enet_encap/cpf.c Pages: 1 -->
<svg width="1076pt" height="420pt"
 viewBox="0.00 0.00 1076.00 420.00" xmlns="http://www.w3.org/2000/svg" xmlns:xlink="http://www.w3.org/1999/xlink">
<g id="graph0" class="graph" transform="scale(1 1) rotate(0) translate(4 416)">
<title>src/enet_encap/cpf.c</title>
<!-- Node1 -->
<g id="node1" class="node"><title>Node1</title>
<polygon fill="#bfbfbf" stroke="black" points="280,-392.5 280,-411.5 388,-411.5 388,-392.5 280,-392.5"/>
<text text-anchor="middle" x="334" y="-399.5" font-family="Helvetica,sans-Serif" font-size="10.00">src/enet_encap/cpf.c</text>
</g>
<!-- Node2 -->
<g id="node2" class="node"><title>Node2</title>
<polygon fill="none" stroke="#bfbfbf" points="105.5,-336.5 105.5,-355.5 154.5,-355.5 154.5,-336.5 105.5,-336.5"/>
<text text-anchor="middle" x="130" y="-343.5" font-family="Helvetica,sans-Serif" font-size="10.00">string.h</text>
</g>
<!-- Node1&#45;&gt;Node2 -->
<g id="edge1" class="edge"><title>Node1&#45;&gt;Node2</title>
<path fill="none" stroke="midnightblue" d="M301.676,-392.444C264.239,-382.534 202.814,-366.274 164.483,-356.128"/>
<polygon fill="midnightblue" stroke="midnightblue" points="165.356,-352.739 154.794,-353.563 163.565,-359.506 165.356,-352.739"/>
</g>
<!-- Node3 -->
<g id="node3" class="node"><title>Node3</title>
<g id="a_node3"><a xlink:href="../../d0/dff/cpf_8h.html" target="_top" xlink:title="cpf.h">
<polygon fill="none" stroke="black" points="249,-336.5 249,-355.5 287,-355.5 287,-336.5 249,-336.5"/>
<text text-anchor="middle" x="268" y="-343.5" font-family="Helvetica,sans-Serif" font-size="10.00">cpf.h</text>
</a>
</g>
</g>
<!-- Node1&#45;&gt;Node3 -->
<g id="edge2" class="edge"><title>Node1&#45;&gt;Node3</title>
<path fill="none" stroke="midnightblue" d="M323.396,-392.324C313.544,-384.263 298.649,-372.077 286.785,-362.369"/>
<polygon fill="midnightblue" stroke="midnightblue" points="288.753,-359.457 278.797,-355.834 284.32,-364.875 288.753,-359.457"/>
</g>
<!-- Node12 -->
<g id="node12" class="node"><title>Node12</title>
<g id="a_node12"><a xlink:href="../../d7/df9/encap_8h.html" target="_top" xlink:title="This file contains the public interface of the encapsulation layer. ">
<polygon fill="none" stroke="black" points="261.5,-280.5 261.5,-299.5 312.5,-299.5 312.5,-280.5 261.5,-280.5"/>
<text text-anchor="middle" x="287" y="-287.5" font-family="Helvetica,sans-Serif" font-size="10.00">encap.h</text>
</a>
</g>
</g>
<!-- Node1&#45;&gt;Node12 -->
<g id="edge52" class="edge"><title>Node1&#45;&gt;Node12</title>
<path fill="none" stroke="midnightblue" d="M330.312,-392.368C322.659,-374.456 304.913,-332.923 294.669,-308.948"/>
<polygon fill="midnightblue" stroke="midnightblue" points="297.819,-307.412 290.671,-299.591 291.382,-310.162 297.819,-307.412"/>
</g>
<!-- Node14 -->
<g id="node14" class="node"><title>Node14</title>
<g id="a_node14"><a xlink:href="../../d4/d38/opener__api_8h.html" target="_top" xlink:title="opener_api.h">
<polygon fill="none" stroke="black" points="837,-168.5 837,-187.5 909,-187.5 909,-168.5 837,-168.5"/>
<text text-anchor="middle" x="873" y="-175.5" font-family="Helvetica,sans-Serif" font-size="10.00">opener_api.h</text>
</a>
</g>
</g>
<!-- Node1&#45;&gt;Node14 -->
<g id="edge34" class="edge"><title>Node1&#45;&gt;Node14</title>
<path fill="none" stroke="midnightblue" d="M388.247,-399.409C513.532,-394.474 817.038,-374.879 879,-300 903.16,-270.804 890.34,-222.768 880.626,-196.873"/>
<polygon fill="midnightblue" stroke="midnightblue" points="883.856,-195.524 876.892,-187.538 877.356,-198.123 883.856,-195.524"/>
</g>
<!-- Node16 -->
<g id="node16" class="node"><title>Node16</title>
<g id="a_node16"><a xlink:href="../../d6/d52/ciperror_8h.html" target="_top" xlink:title="ciperror.h">
<polygon fill="none" stroke="black" points="907.5,-112.5 907.5,-131.5 964.5,-131.5 964.5,-112.5 907.5,-112.5"/>
<text text-anchor="middle" x="936" y="-119.5" font-family="Helvetica,sans-Serif" font-size="10.00">ciperror.h</text>
</a>
</g>
</g>
<!-- Node1&#45;&gt;Node16 -->
<g id="edge43" class="edge"><title>Node1&#45;&gt;Node16</title>
<path fill="none" stroke="midnightblue" d="M388.238,-398.249C494.643,-392.453 727.082,-377.704 804,-356 867.32,-338.133 937,-356.793 937,-291 937,-291 937,-291 937,-233 937,-200.947 936.57,-163.642 936.274,-141.748"/>
<polygon fill="midnightblue" stroke="midnightblue" points="939.771,-141.507 936.131,-131.558 932.772,-141.606 939.771,-141.507"/>
</g>
<!-- Node20 -->
<g id="node20" class="node"><title>Node20</title>
<g id="a_node20"><a xlink:href="../../db/d14/cipcommon_8h.html" target="_top" xlink:title="cipcommon.h">
<polygon fill="none" stroke="black" points="168.5,-168.5 168.5,-187.5 243.5,-187.5 243.5,-168.5 168.5,-168.5"/>
<text text-anchor="middle" x="206" y="-175.5" font-family="Helvetica,sans-Serif" font-size="10.00">cipcommon.h</text>
</a>
</g>
</g>
<!-- Node1&#45;&gt;Node20 -->
<g id="edge35" class="edge"><title>Node1&#45;&gt;Node20</title>
<path fill="none" stroke="midnightblue" d="M298.076,-392.408C278.013,-385.763 254.256,-374.481 240,-356 203.426,-308.587 202.533,-233.152 204.413,-198.083"/>
<polygon fill="midnightblue" stroke="midnightblue" points="207.924,-198.051 205.11,-187.837 200.94,-197.577 207.924,-198.051"/>
</g>
<!-- Node21 -->
<g id="node21" class="node"><title>Node21</title>
<g id="a_node21"><a xlink:href="../../d2/d75/cipmessagerouter_8h.html" target="_top" xlink:title="cipmessagerouter.h">
<polygon fill="none" stroke="black" points="261,-168.5 261,-187.5 363,-187.5 363,-168.5 261,-168.5"/>
<text text-anchor="middle" x="312" y="-175.5" font-family="Helvetica,sans-Serif" font-size="10.00">cipmessagerouter.h</text>
</a>
</g>
</g>
<!-- Node1&#45;&gt;Node21 -->
<g id="edge38" class="edge"><title>Node1&#45;&gt;Node21</title>
<path fill="none" stroke="midnightblue" d="M333.138,-392.297C329.901,-359.633 318.428,-243.866 313.879,-197.957"/>
<polygon fill="midnightblue" stroke="midnightblue" points="317.35,-197.49 312.88,-187.884 310.384,-198.18 317.35,-197.49"/>
</g>
<!-- Node22 -->
<g id="node22" class="node"><title>Node22</title>
<g id="a_node22"><a xlink:href="../../d0/dec/endianconv_8h.html" target="_top" xlink:title="Responsible for Endianess conversion. ">
<polygon fill="none" stroke="black" points="0,-280.5 0,-299.5 74,-299.5 74,-280.5 0,-280.5"/>
<text text-anchor="middle" x="37" y="-287.5" font-family="Helvetica,sans-Serif" font-size="10.00">endianconv.h</text>
</a>
</g>
</g>
<!-- Node1&#45;&gt;Node22 -->
<g id="edge41" class="edge"><title>Node1&#45;&gt;Node22</title>
<path fill="none" stroke="midnightblue" d="M307.483,-392.346C281.617,-383.731 241.273,-369.832 207,-356 187.08,-347.961 182.91,-344.064 163,-336 132.78,-323.76 97.8186,-311.414 72.401,-302.758"/>
<polygon fill="midnightblue" stroke="midnightblue" points="73.4111,-299.405 62.8168,-299.514 71.1672,-306.035 73.4111,-299.405"/>
</g>
<!-- Node23 -->
<g id="node23" class="node"><title>Node23</title>
<g id="a_node23"><a xlink:href="../../d2/da3/cipconnectionmanager_8h.html" target="_top" xlink:title="cipconnectionmanager.h">
<polygon fill="none" stroke="black" points="748,-280.5 748,-299.5 870,-299.5 870,-280.5 748,-280.5"/>
<text text-anchor="middle" x="809" y="-287.5" font-family="Helvetica,sans-Serif" font-size="10.00">cipconnectionmanager.h</text>
</a>
</g>
</g>
<!-- Node1&#45;&gt;Node23 -->
<g id="edge44" class="edge"><title>Node1&#45;&gt;Node23</title>
<path fill="none" stroke="midnightblue" d="M370.877,-392.46C456.369,-372.662 667.975,-323.658 762.313,-301.812"/>
<polygon fill="midnightblue" stroke="midnightblue" points="763.194,-305.2 772.146,-299.535 761.614,-298.381 763.194,-305.2"/>
</g>
<!-- Node24 -->
<g id="node24" class="node"><title>Node24</title>
<g id="a_node24"><a xlink:href="../../d1/d1b/trace_8h.html" target="_top" xlink:title="Tracing infrastructure for OpENer. ">
<polygon fill="none" stroke="black" points="1021.5,-224.5 1021.5,-243.5 1068.5,-243.5 1068.5,-224.5 1021.5,-224.5"/>
<text text-anchor="middle" x="1045" y="-231.5" font-family="Helvetica,sans-Serif" font-size="10.00">trace.h</text>
</a>
</g>
</g>
<!-- Node1&#45;&gt;Node24 -->
<g id="edge50" class="edge"><title>Node1&#45;&gt;Node24</title>
<path fill="none" stroke="midnightblue" d="M388.031,-399.561C529.284,-395.449 902.03,-382.219 951,-356 994.045,-332.954 1023.69,-280.752 1037.02,-253.051"/>
<polygon fill="midnightblue" stroke="midnightblue" points="1040.3,-254.291 1041.32,-243.745 1033.95,-251.352 1040.3,-254.291"/>
</g>
<!-- Node4 -->
<g id="node4" class="node"><title>Node4</title>
<g id="a_node4"><a xlink:href="../../d7/d69/typedefs_8h.html" target="_top" xlink:title="typedefs.h">
<polygon fill="none" stroke="black" points="327,-56.5 327,-75.5 389,-75.5 389,-56.5 327,-56.5"/>
<text text-anchor="middle" x="358" y="-63.5" font-family="Helvetica,sans-Serif" font-size="10.00">typedefs.h</text>
</a>
</g>
</g>
<!-- Node3&#45;&gt;Node4 -->
<g id="edge3" class="edge"><title>Node3&#45;&gt;Node4</title>
<path fill="none" stroke="midnightblue" d="M248.958,-341.704C205.355,-332.95 102,-304.837 102,-235 102,-235 102,-235 102,-177 102,-84.6724 244.3,-68.8718 316.714,-66.8084"/>
<polygon fill="midnightblue" stroke="midnightblue" points="316.941,-70.3045 326.865,-66.5962 316.794,-63.306 316.941,-70.3045"/>
</g>
<!-- Node8 -->
<g id="node8" class="node"><title>Node8</title>
<g id="a_node8"><a xlink:href="../../df/d28/ciptypes_8h.html" target="_top" xlink:title="ciptypes.h">
<polygon fill="none" stroke="black" points="576,-112.5 576,-131.5 638,-131.5 638,-112.5 576,-112.5"/>
<text text-anchor="middle" x="607" y="-119.5" font-family="Helvetica,sans-Serif" font-size="10.00">ciptypes.h</text>
</a>
</g>
</g>
<!-- Node3&#45;&gt;Node8 -->
<g id="edge7" class="edge"><title>Node3&#45;&gt;Node8</title>
<path fill="none" stroke="midnightblue" d="M287.215,-343.225C361.84,-335.917 630.974,-305.604 685,-244 707.341,-218.526 708.406,-197.07 691,-168 681.48,-152.1 664.209,-141.499 647.792,-134.604"/>
<polygon fill="midnightblue" stroke="midnightblue" points="648.88,-131.272 638.29,-130.96 646.374,-137.808 648.88,-131.272"/>
</g>
<!-- Node3&#45;&gt;Node12 -->
<g id="edge13" class="edge"><title>Node3&#45;&gt;Node12</title>
<path fill="none" stroke="midnightblue" d="M271.137,-336.083C273.683,-328.849 277.356,-318.409 280.527,-309.397"/>
<polygon fill="midnightblue" stroke="midnightblue" points="283.903,-310.346 283.921,-299.751 277.3,-308.023 283.903,-310.346"/>
</g>
<!-- Node5 -->
<g id="node5" class="node"><title>Node5</title>
<polygon fill="none" stroke="#bfbfbf" points="385.5,-0.5 385.5,-19.5 444.5,-19.5 444.5,-0.5 385.5,-0.5"/>
<text text-anchor="middle" x="415" y="-7.5" font-family="Helvetica,sans-Serif" font-size="10.00">inttypes.h</text>
</g>
<!-- Node4&#45;&gt;Node5 -->
<g id="edge4" class="edge"><title>Node4&#45;&gt;Node5</title>
<path fill="none" stroke="midnightblue" d="M367.158,-56.324C375.501,-48.4196 388.032,-36.5482 398.177,-26.9377"/>
<polygon fill="midnightblue" stroke="midnightblue" points="400.823,-29.2522 405.675,-19.8339 396.009,-24.1705 400.823,-29.2522"/>
</g>
<!-- Node6 -->
<g id="node6" class="node"><title>Node6</title>
<polygon fill="none" stroke="#bfbfbf" points="315,-0.5 315,-19.5 367,-19.5 367,-0.5 315,-0.5"/>
<text text-anchor="middle" x="341" y="-7.5" font-family="Helvetica,sans-Serif" font-size="10.00">stddef.h</text>
</g>
<!-- Node4&#45;&gt;Node6 -->
<g id="edge5" class="edge"><title>Node4&#45;&gt;Node6</title>
<path fill="none" stroke="midnightblue" d="M355.193,-56.083C352.915,-48.8486 349.629,-38.4087 346.792,-29.3968"/>
<polygon fill="midnightblue" stroke="midnightblue" points="350.096,-28.2385 343.755,-19.7511 343.419,-30.3406 350.096,-28.2385"/>
</g>
<!-- Node7 -->
<g id="node7" class="node"><title>Node7</title>
<polygon fill="none" stroke="#bfbfbf" points="475,-0.5 475,-19.5 531,-19.5 531,-0.5 475,-0.5"/>
<text text-anchor="middle" x="503" y="-7.5" font-family="Helvetica,sans-Serif" font-size="10.00">stdbool.h</text>
</g>
<!-- Node4&#45;&gt;Node7 -->
<g id="edge6" class="edge"><title>Node4&#45;&gt;Node7</title>
<path fill="none" stroke="midnightblue" d="M380.976,-56.4435C405.157,-47.4381 443.418,-33.1891 470.646,-23.049"/>
<polygon fill="midnightblue" stroke="midnightblue" points="471.982,-26.2864 480.132,-19.5164 469.539,-19.7265 471.982,-26.2864"/>
</g>
<!-- Node8&#45;&gt;Node4 -->
<g id="edge8" class="edge"><title>Node8&#45;&gt;Node4</title>
<path fill="none" stroke="midnightblue" d="M575.967,-114.27C531.299,-104.583 448.804,-86.6923 399.112,-75.9158"/>
<polygon fill="midnightblue" stroke="midnightblue" points="399.546,-72.4287 389.032,-73.7297 398.063,-79.2697 399.546,-72.4287"/>
</g>
<!-- Node9 -->
<g id="node9" class="node"><title>Node9</title>
<polygon fill="none" stroke="#bfbfbf" points="543.5,-56.5 543.5,-75.5 634.5,-75.5 634.5,-56.5 543.5,-56.5"/>
<text text-anchor="middle" x="589" y="-63.5" font-family="Helvetica,sans-Serif" font-size="10.00">networkhandler.h</text>
</g>
<!-- Node8&#45;&gt;Node9 -->
<g id="edge9" class="edge"><title>Node8&#45;&gt;Node9</title>
<path fill="none" stroke="midnightblue" d="M604.028,-112.083C601.616,-104.849 598.136,-94.4087 595.132,-85.3968"/>
<polygon fill="midnightblue" stroke="midnightblue" points="598.4,-84.1311 591.917,-75.7511 591.759,-86.3447 598.4,-84.1311"/>
</g>
<!-- Node10 -->
<g id="node10" class="node"><title>Node10</title>
<g id="a_node10"><a xlink:href="../../d8/d2c/enipmessage_8h.html" target="_top" xlink:title="enipmessage.h">
<polygon fill="none" stroke="black" points="691.5,-56.5 691.5,-75.5 774.5,-75.5 774.5,-56.5 691.5,-56.5"/>
<text text-anchor="middle" x="733" y="-63.5" font-family="Helvetica,sans-Serif" font-size="10.00">enipmessage.h</text>
</a>
</g>
</g>
<!-- Node8&#45;&gt;Node10 -->
<g id="edge10" class="edge"><title>Node8&#45;&gt;Node10</title>
<path fill="none" stroke="midnightblue" d="M626.965,-112.444C647.609,-103.596 680.063,-89.6875 703.632,-79.5865"/>
<polygon fill="midnightblue" stroke="midnightblue" points="705.316,-82.6727 713.128,-75.5164 702.558,-76.2387 705.316,-82.6727"/>
</g>
<!-- Node11 -->
<g id="node11" class="node"><title>Node11</title>
<polygon fill="none" stroke="#bfbfbf" points="809,-0.5 809,-19.5 911,-19.5 911,-0.5 809,-0.5"/>
<text text-anchor="middle" x="860" y="-7.5" font-family="Helvetica,sans-Serif" font-size="10.00">opener_user_conf.h</text>
</g>
<!-- Node8&#45;&gt;Node11 -->
<g id="edge12" class="edge"><title>Node8&#45;&gt;Node11</title>
<path fill="none" stroke="midnightblue" d="M638.071,-117.352C674.457,-112.132 735.758,-100.337 783,-76 807.407,-63.4265 830.827,-41.8411 845.297,-27.0184"/>
<polygon fill="midnightblue" stroke="midnightblue" points="848.015,-29.2398 852.365,-19.5794 842.94,-24.4182 848.015,-29.2398"/>
</g>
<!-- Node10&#45;&gt;Node11 -->
<g id="edge11" class="edge"><title>Node10&#45;&gt;Node11</title>
<path fill="none" stroke="midnightblue" d="M753.124,-56.4435C774.024,-47.5566 806.935,-33.5632 830.716,-23.4514"/>
<polygon fill="midnightblue" stroke="midnightblue" points="832.138,-26.6504 839.971,-19.5164 829.398,-20.2085 832.138,-26.6504"/>
</g>
<!-- Node12&#45;&gt;Node4 -->
<g id="edge14" class="edge"><title>Node12&#45;&gt;Node4</title>
<path fill="none" stroke="midnightblue" d="M263.958,-280.485C219.636,-262.726 129.47,-219.114 160,-168 193.552,-111.827 269.52,-85.7569 316.997,-74.556"/>
<polygon fill="midnightblue" stroke="midnightblue" points="317.966,-77.9257 326.959,-72.3246 316.436,-71.0949 317.966,-77.9257"/>
</g>
<!-- Node13 -->
<g id="node13" class="node"><title>Node13</title>
<g id="a_node13"><a xlink:href="../../d1/d6c/cipconnectionobject_8h.html" target="_top" xlink:title="cipconnectionobject.h">
<polygon fill="none" stroke="black" points="565.5,-224.5 565.5,-243.5 676.5,-243.5 676.5,-224.5 565.5,-224.5"/>
<text text-anchor="middle" x="621" y="-231.5" font-family="Helvetica,sans-Serif" font-size="10.00">cipconnectionobject.h</text>
</a>
</g>
</g>
<!-- Node12&#45;&gt;Node13 -->
<g id="edge15" class="edge"><title>Node12&#45;&gt;Node13</title>
<path fill="none" stroke="midnightblue" d="M312.654,-284.852C364.737,-276.432 484.197,-257.118 558.197,-245.154"/>
<polygon fill="midnightblue" stroke="midnightblue" points="559.013,-248.567 568.326,-243.516 557.895,-241.657 559.013,-248.567"/>
</g>
<!-- Node13&#45;&gt;Node4 -->
<g id="edge16" class="edge"><title>Node13&#45;&gt;Node4</title>
<path fill="none" stroke="midnightblue" d="M570.448,-224.453C540.059,-217.754 501.495,-206.401 471,-188 425.849,-160.755 387.376,-110.413 369.199,-84.0741"/>
<polygon fill="midnightblue" stroke="midnightblue" points="371.939,-81.8773 363.446,-75.5434 366.136,-85.7912 371.939,-81.8773"/>
</g>
<!-- Node13&#45;&gt;Node8 -->
<g id="edge17" class="edge"><title>Node13&#45;&gt;Node8</title>
<path fill="none" stroke="midnightblue" d="M637.735,-224.428C658.096,-212.769 688.322,-190.746 676,-168 668.251,-153.696 653.766,-143.219 640.06,-135.992"/>
<polygon fill="midnightblue" stroke="midnightblue" points="641.314,-132.71 630.788,-131.501 638.262,-139.01 641.314,-132.71"/>
</g>
<!-- Node13&#45;&gt;Node11 -->
<g id="edge18" class="edge"><title>Node13&#45;&gt;Node11</title>
<path fill="none" stroke="midnightblue" d="M636,-224.427C650.541,-215.872 672.983,-202.016 691,-188 748.582,-143.205 762.191,-130.221 811,-76 824.828,-60.6389 838.848,-41.6149 848.329,-28.1266"/>
<polygon fill="midnightblue" stroke="midnightblue" points="851.289,-29.999 854.108,-19.786 845.536,-26.012 851.289,-29.999"/>
</g>
<!-- Node13&#45;&gt;Node14 -->
<g id="edge19" class="edge"><title>Node13&#45;&gt;Node14</title>
<path fill="none" stroke="midnightblue" d="M660.93,-224.444C706.055,-214.774 779.391,-199.059 826.909,-188.877"/>
<polygon fill="midnightblue" stroke="midnightblue" points="827.887,-192.247 836.931,-186.729 826.42,-185.402 827.887,-192.247"/>
</g>
<!-- Node17 -->
<g id="node17" class="node"><title>Node17</title>
<g id="a_node17"><a xlink:href="../../d9/d31/doublylinkedlist_8h.html" target="_top" xlink:title="doublylinkedlist.h">
<polygon fill="none" stroke="black" points="575,-168.5 575,-187.5 667,-187.5 667,-168.5 575,-168.5"/>
<text text-anchor="middle" x="621" y="-175.5" font-family="Helvetica,sans-Serif" font-size="10.00">doublylinkedlist.h</text>
</a>
</g>
</g>
<!-- Node13&#45;&gt;Node17 -->
<g id="edge26" class="edge"><title>Node13&#45;&gt;Node17</title>
<path fill="none" stroke="midnightblue" d="M621,-224.083C621,-217.006 621,-206.861 621,-197.986"/>
<polygon fill="midnightblue" stroke="midnightblue" points="624.5,-197.751 621,-187.751 617.5,-197.751 624.5,-197.751"/>
</g>
<!-- Node18 -->
<g id="node18" class="node"><title>Node18</title>
<g id="a_node18"><a xlink:href="../../d0/d23/cipelectronickey_8h.html" target="_top" xlink:title="cipelectronickey.h">
<polygon fill="none" stroke="black" points="424.5,-112.5 424.5,-131.5 519.5,-131.5 519.5,-112.5 424.5,-112.5"/>
<text text-anchor="middle" x="472" y="-119.5" font-family="Helvetica,sans-Serif" font-size="10.00">cipelectronickey.h</text>
</a>
</g>
</g>
<!-- Node13&#45;&gt;Node18 -->
<g id="edge27" class="edge"><title>Node13&#45;&gt;Node18</title>
<path fill="none" stroke="midnightblue" d="M565.29,-227.37C537.716,-221.72 506.113,-210.448 486,-188 474.816,-175.518 471.815,-156.287 471.312,-141.977"/>
<polygon fill="midnightblue" stroke="midnightblue" points="474.812,-141.787 471.336,-131.779 467.812,-141.77 474.812,-141.787"/>
</g>
<!-- Node19 -->
<g id="node19" class="node"><title>Node19</title>
<g id="a_node19"><a xlink:href="../../d1/d02/cipepath_8h.html" target="_top" xlink:title="cipepath.h">
<polygon fill="none" stroke="black" points="495,-168.5 495,-187.5 557,-187.5 557,-168.5 495,-168.5"/>
<text text-anchor="middle" x="526" y="-175.5" font-family="Helvetica,sans-Serif" font-size="10.00">cipepath.h</text>
</a>
</g>
</g>
<!-- Node13&#45;&gt;Node19 -->
<g id="edge30" class="edge"><title>Node13&#45;&gt;Node19</title>
<path fill="none" stroke="midnightblue" d="M605.737,-224.324C590.779,-215.822 567.745,-202.729 550.273,-192.797"/>
<polygon fill="midnightblue" stroke="midnightblue" points="551.649,-189.553 541.226,-187.655 548.19,-195.639 551.649,-189.553"/>
</g>
<!-- Node14&#45;&gt;Node4 -->
<g id="edge22" class="edge"><title>Node14&#45;&gt;Node4</title>
<path fill="none" stroke="midnightblue" d="M836.661,-170.14C799.317,-162.61 739.766,-149.262 690,-132 669.705,-124.961 666.579,-118.159 646,-112 560.423,-86.387 455.937,-74.7008 399.303,-69.9131"/>
<polygon fill="midnightblue" stroke="midnightblue" points="399.552,-66.4218 389.3,-69.0976 398.983,-73.3987 399.552,-66.4218"/>
</g>
<!-- Node14&#45;&gt;Node7 -->
<g id="edge21" class="edge"><title>Node14&#45;&gt;Node7</title>
<path fill="none" stroke="midnightblue" d="M857.005,-168.488C806.658,-141.707 654.102,-60.663 643,-56 609.353,-41.8675 569.631,-29.4872 541.11,-21.3086"/>
<polygon fill="midnightblue" stroke="midnightblue" points="541.715,-17.8427 531.14,-18.49 539.811,-24.5787 541.715,-17.8427"/>
</g>
<!-- Node14&#45;&gt;Node8 -->
<g id="edge23" class="edge"><title>Node14&#45;&gt;Node8</title>
<path fill="none" stroke="midnightblue" d="M836.849,-169.661C787.576,-159.658 699.568,-141.792 647.926,-131.308"/>
<polygon fill="midnightblue" stroke="midnightblue" points="648.601,-127.874 638.105,-129.314 647.208,-134.734 648.601,-127.874"/>
</g>
<!-- Node14&#45;&gt;Node11 -->
<g id="edge25" class="edge"><title>Node14&#45;&gt;Node11</title>
<path fill="none" stroke="midnightblue" d="M872.301,-168.075C870.255,-141.945 864.245,-65.2106 861.455,-29.577"/>
<polygon fill="midnightblue" stroke="midnightblue" points="864.941,-29.2643 860.671,-19.5681 857.963,-29.8109 864.941,-29.2643"/>
</g>
<!-- Node15 -->
<g id="node15" class="node"><title>Node15</title>
<polygon fill="none" stroke="#bfbfbf" points="799,-112.5 799,-131.5 851,-131.5 851,-112.5 799,-112.5"/>
<text text-anchor="middle" x="825" y="-119.5" font-family="Helvetica,sans-Serif" font-size="10.00">assert.h</text>
</g>
<!-- Node14&#45;&gt;Node15 -->
<g id="edge20" class="edge"><title>Node14&#45;&gt;Node15</title>
<path fill="none" stroke="midnightblue" d="M865.074,-168.083C858.154,-160.298 847.935,-148.801 839.548,-139.367"/>
<polygon fill="midnightblue" stroke="midnightblue" points="842.038,-136.9 832.779,-131.751 836.806,-141.55 842.038,-136.9"/>
</g>
<!-- Node14&#45;&gt;Node16 -->
<g id="edge24" class="edge"><title>Node14&#45;&gt;Node16</title>
<path fill="none" stroke="midnightblue" d="M883.122,-168.324C892.526,-160.263 906.744,-148.077 918.069,-138.369"/>
<polygon fill="midnightblue" stroke="midnightblue" points="920.379,-140.999 925.694,-131.834 915.823,-135.684 920.379,-140.999"/>
</g>
<!-- Node18&#45;&gt;Node4 -->
<g id="edge29" class="edge"><title>Node18&#45;&gt;Node4</title>
<path fill="none" stroke="midnightblue" d="M453.936,-112.444C435.425,-103.675 406.419,-89.9355 385.145,-79.8579"/>
<polygon fill="midnightblue" stroke="midnightblue" points="386.515,-76.6343 375.979,-75.5164 383.518,-82.9604 386.515,-76.6343"/>
</g>
<!-- Node18&#45;&gt;Node7 -->
<g id="edge28" class="edge"><title>Node18&#45;&gt;Node7</title>
<path fill="none" stroke="midnightblue" d="M474.433,-112.368C479.458,-94.5366 491.08,-53.2953 497.851,-29.2717"/>
<polygon fill="midnightblue" stroke="midnightblue" points="501.235,-30.1659 500.579,-19.5914 494.497,-28.2671 501.235,-30.1659"/>
</g>
<!-- Node19&#45;&gt;Node7 -->
<g id="edge31" class="edge"><title>Node19&#45;&gt;Node7</title>
<path fill="none" stroke="midnightblue" d="M526.497,-168.377C526.993,-159.322 527.719,-144.666 528,-132 528.197,-123.113 529.076,-120.824 528,-112 524.403,-82.4977 515.103,-49.1983 508.916,-29.1688"/>
<polygon fill="midnightblue" stroke="midnightblue" points="512.214,-27.9896 505.856,-19.515 505.542,-30.1052 512.214,-27.9896"/>
</g>
<!-- Node19&#45;&gt;Node8 -->
<g id="edge32" class="edge"><title>Node19&#45;&gt;Node8</title>
<path fill="none" stroke="midnightblue" d="M539.014,-168.324C551.532,-159.979 570.682,-147.212 585.471,-137.352"/>
<polygon fill="midnightblue" stroke="midnightblue" points="587.639,-140.114 594.018,-131.655 583.756,-134.289 587.639,-140.114"/>
</g>
<!-- Node19&#45;&gt;Node18 -->
<g id="edge33" class="edge"><title>Node19&#45;&gt;Node18</title>
<path fill="none" stroke="midnightblue" d="M517.083,-168.083C509.22,-160.22 497.569,-148.569 488.081,-139.081"/>
<polygon fill="midnightblue" stroke="midnightblue" points="490.297,-136.347 480.751,-131.751 485.347,-141.297 490.297,-136.347"/>
</g>
<!-- Node20&#45;&gt;Node4 -->
<g id="edge36" class="edge"><title>Node20&#45;&gt;Node4</title>
<path fill="none" stroke="midnightblue" d="M217.927,-168.368C243.899,-149.573 305.811,-104.768 337.918,-81.5334"/>
<polygon fill="midnightblue" stroke="midnightblue" points="340.079,-84.2896 346.128,-75.5914 335.975,-78.6187 340.079,-84.2896"/>
</g>
<!-- Node20&#45;&gt;Node8 -->
<g id="edge37" class="edge"><title>Node20&#45;&gt;Node8</title>
<path fill="none" stroke="midnightblue" d="M243.619,-169.426C246.451,-168.922 249.268,-168.44 252,-168 311.653,-158.395 485.61,-137.406 565.728,-127.878"/>
<polygon fill="midnightblue" stroke="midnightblue" points="566.415,-131.321 575.933,-126.666 565.59,-124.37 566.415,-131.321"/>
</g>
<!-- Node21&#45;&gt;Node4 -->
<g id="edge39" class="edge"><title>Node21&#45;&gt;Node4</title>
<path fill="none" stroke="midnightblue" d="M315.61,-168.368C323.1,-150.456 340.468,-108.923 350.494,-84.9482"/>
<polygon fill="midnightblue" stroke="midnightblue" points="353.778,-86.1676 354.407,-75.5914 347.32,-83.4669 353.778,-86.1676"/>
</g>
<!-- Node21&#45;&gt;Node8 -->
<g id="edge40" class="edge"><title>Node21&#45;&gt;Node8</title>
<path fill="none" stroke="midnightblue" d="M358.744,-168.444C415.827,-157.994 511.475,-140.486 565.876,-130.528"/>
<polygon fill="midnightblue" stroke="midnightblue" points="566.653,-133.944 575.859,-128.7 565.392,-127.058 566.653,-133.944"/>
</g>
<!-- Node22&#45;&gt;Node4 -->
<g id="edge42" class="edge"><title>Node22&#45;&gt;Node4</title>
<path fill="none" stroke="midnightblue" d="M36.5548,-280.353C35.5829,-251.494 36.66,-157.733 88,-112 121.093,-82.5209 249.294,-72.1101 316.445,-68.6306"/>
<polygon fill="midnightblue" stroke="midnightblue" points="316.857,-72.1147 326.674,-68.1297 316.515,-65.123 316.857,-72.1147"/>
</g>
<!-- Node23&#45;&gt;Node4 -->
<g id="edge47" class="edge"><title>Node23&#45;&gt;Node4</title>
<path fill="none" stroke="midnightblue" d="M747.849,-285.3C669.724,-277.849 533.453,-255.424 440,-188 411.961,-167.77 405.15,-160.788 386,-132 376.334,-117.469 368.775,-99.0544 363.96,-85.5379"/>
<polygon fill="midnightblue" stroke="midnightblue" points="367.224,-84.2633 360.699,-75.9158 360.594,-86.5102 367.224,-84.2633"/>
</g>
<!-- Node23&#45;&gt;Node8 -->
<g id="edge48" class="edge"><title>Node23&#45;&gt;Node8</title>
<path fill="none" stroke="midnightblue" d="M806.99,-280.236C801.452,-258.073 783.88,-199.326 747,-168 739.208,-161.381 686.353,-145.427 647.88,-134.411"/>
<polygon fill="midnightblue" stroke="midnightblue" points="648.529,-130.957 637.952,-131.586 646.613,-137.689 648.529,-130.957"/>
</g>
<!-- Node23&#45;&gt;Node11 -->
<g id="edge45" class="edge"><title>Node23&#45;&gt;Node11</title>
<path fill="none" stroke="midnightblue" d="M862.22,-280.462C916.563,-268.354 993,-240.409 993,-179 993,-179 993,-179 993,-121 993,-70.7254 935.871,-39.1005 896.497,-23.2746"/>
<polygon fill="midnightblue" stroke="midnightblue" points="897.504,-19.9123 886.915,-19.5897 894.992,-26.4459 897.504,-19.9123"/>
</g>
<!-- Node23&#45;&gt;Node13 -->
<g id="edge49" class="edge"><title>Node23&#45;&gt;Node13</title>
<path fill="none" stroke="midnightblue" d="M779.211,-280.444C747.171,-271.241 696.067,-256.562 660.647,-246.388"/>
<polygon fill="midnightblue" stroke="midnightblue" points="661.227,-242.913 650.65,-243.516 659.295,-249.641 661.227,-242.913"/>
</g>
<!-- Node23&#45;&gt;Node14 -->
<g id="edge46" class="edge"><title>Node23&#45;&gt;Node14</title>
<path fill="none" stroke="midnightblue" d="M814.022,-280.368C824.537,-262.296 849.043,-220.176 862.93,-196.307"/>
<polygon fill="midnightblue" stroke="midnightblue" points="865.998,-197.995 868.001,-187.591 859.947,-194.475 865.998,-197.995"/>
</g>
<!-- Node24&#45;&gt;Node11 -->
<g id="edge51" class="edge"><title>Node24&#45;&gt;Node11</title>
<path fill="none" stroke="midnightblue" d="M1045.94,-224.272C1048.48,-195.945 1052.48,-105.55 1007,-56 985.11,-32.1513 950.965,-20.7997 921.091,-15.4567"/>
<polygon fill="midnightblue" stroke="midnightblue" points="921.575,-11.9896 911.147,-13.8656 920.469,-18.9017 921.575,-11.9896"/>
</g>
</g>
</svg>
