<?xml version="1.0" encoding="UTF-8" standalone="no"?>
<!DOCTYPE svg PUBLIC "-//W3C//DTD SVG 1.1//EN"
 "http://www.w3.org/Graphics/SVG/1.1/DTD/svg11.dtd">
<!-- Generated by graphviz version 2.26.3 (20100126.1600)
 -->
<!-- Title: G Pages: 1 -->
<!--zoomable 320 -->
<svg id="main" version="1.1" xmlns="http://www.w3.org/2000/svg" xmlns:xlink="http://www.w3.org/1999/xlink" xml:space="preserve" onload="init(evt)">
        <defs>
                <circle id="rim" cx="0" cy="0" r="7"/>
                <circle id="rim2" cx="0" cy="0" r="3.5"/>
                <g id="zoomPlus">
                        <use xlink:href="#rim" fill="#404040">
                                <set attributeName="fill" to="#808080" begin="zoomplus.mouseover" end="zoomplus.mouseout"/>
                        </use>
                        <path d="M-4,0h8M0,-4v8" fill="none" stroke="white" stroke-width="1.5" pointer-events="none"/>
                </g>
                <g id="zoomMin">
                        <use xlink:href="#rim" fill="#404040">
                                <set attributeName="fill" to="#808080" begin="zoomminus.mouseover" end="zoomminus.mouseout"/>
                        </use>
                        <path d="M-4,0h8" fill="none" stroke="white" stroke-width="1.5" pointer-events="none"/>
                </g>
                <g id="dirArrow">
                        <path fill="none" stroke="white" stroke-width="1.5" d="M0,-3.0v7 M-2.5,-0.5L0,-3.0L2.5,-0.5"/>
                </g>
               <g id="resetDef">
                       <use xlink:href="#rim2" fill="#404040">
                               <set attributeName="fill" to="#808080" begin="reset.mouseover" end="reset.mouseout"/>
                       </use>
               </g>
        </defs>

<script type="text/javascript">
var viewWidth = 657;
var viewHeight = 320;
var sectionId = 'dynsection-0';
</script>
<script xlink:href="../../svgpan.js"/>
<svg id="graph" class="graph">
<g id="viewport">
<title>G</title>
<!-- Node1 -->
<g id="node1" class="node"><title>Node1</title>
<polygon fill="#bfbfbf" stroke="black" points="262,-290.5 262,-311.5 370,-311.5 370,-290.5 262,-290.5"/>
<text text-anchor="middle" x="316" y="-298.5" font-family="Helvetica,sans-Serif" font-size="10.00">src/enet_encap/cpf.c</text>
</g>
<!-- Node2 -->
<g id="node3" class="node"><title>Node2</title>
<polygon fill="none" stroke="#bfbfbf" points="74.5,-232.5 74.5,-253.5 123.5,-253.5 123.5,-232.5 74.5,-232.5"/>
<text text-anchor="middle" x="99" y="-240.5" font-family="Helvetica,sans-Serif" font-size="10.00">string.h</text>
</g>
<!-- Node1&#45;&gt;Node2 -->
<g id="edge2" class="edge"><title>Node1&#45;&gt;Node2</title>
<path fill="none" stroke="midnightblue" d="M274.686,-290.465C238.355,-281.126 184.077,-266.992 137,-254 135.771,-253.661 134.521,-253.313 133.258,-252.96"/>
<polygon fill="midnightblue" stroke="midnightblue" points="134.08,-249.555 123.504,-250.191 132.168,-256.289 134.08,-249.555"/>
</g>
<!-- Node3 -->
<g id="node5" class="node"><title>Node3</title>
<a xlink:href="../../d0/dff/cpf_8h.html" target="_top" xlink:title="cpf.h">
<polygon fill="none" stroke="black" points="0,-174.5 0,-195.5 38,-195.5 38,-174.5 0,-174.5"/>
<text text-anchor="middle" x="19" y="-182.5" font-family="Helvetica,sans-Serif" font-size="10.00">cpf.h</text>
</a>
</g>
<!-- Node1&#45;&gt;Node3 -->
<g id="edge4" class="edge"><title>Node1&#45;&gt;Node3</title>
<path fill="none" stroke="midnightblue" d="M282.691,-290.49C254.953,-281.499 214.55,-267.85 180,-254 158.218,-245.268 153.504,-241.397 132,-232 103.507,-219.55 70.6634,-205.975 47.7541,-196.63"/>
<polygon fill="midnightblue" stroke="midnightblue" points="48.8644,-193.303 38.2826,-192.776 46.2264,-199.787 48.8644,-193.303"/>
</g>
<!-- Node9 -->
<g id="node19" class="node"><title>Node9</title>
<a xlink:href="../../d4/d38/opener__api_8h.html" target="_top" xlink:title="opener_api.h">
<polygon fill="none" stroke="black" points="344,-174.5 344,-195.5 416,-195.5 416,-174.5 344,-174.5"/>
<text text-anchor="middle" x="380" y="-182.5" font-family="Helvetica,sans-Serif" font-size="10.00">opener_api.h</text>
</a>
</g>
<!-- Node1&#45;&gt;Node9 -->
<g id="edge20" class="edge"><title>Node1&#45;&gt;Node9</title>
<path fill="none" stroke="midnightblue" d="M343.318,-290.429C358.861,-282.832 376.98,-270.922 386,-254 393.933,-239.118 391.373,-219.833 387.436,-205.435"/>
<polygon fill="midnightblue" stroke="midnightblue" points="390.658,-204.014 384.308,-195.532 383.983,-206.122 390.658,-204.014"/>
</g>
<!-- Node11 -->
<g id="node25" class="node"><title>Node11</title>
<a xlink:href="../../d6/d52/ciperror_8h.html" target="_top" xlink:title="ciperror.h">
<polygon fill="none" stroke="black" points="536.5,-116.5 536.5,-137.5 593.5,-137.5 593.5,-116.5 536.5,-116.5"/>
<text text-anchor="middle" x="565" y="-124.5" font-family="Helvetica,sans-Serif" font-size="10.00">ciperror.h</text>
</a>
</g>
<!-- Node1&#45;&gt;Node11 -->
<g id="edge48" class="edge"><title>Node1&#45;&gt;Node11</title>
<path fill="none" stroke="midnightblue" d="M370.315,-291.488C415.262,-282.754 474.741,-268.934 494,-254 529.578,-226.411 550.031,-175.679 559.174,-147.402"/>
<polygon fill="midnightblue" stroke="midnightblue" points="562.546,-148.346 562.133,-137.759 555.853,-146.293 562.546,-148.346"/>
</g>
<!-- Node13 -->
<g id="node29" class="node"><title>Node13</title>
<a xlink:href="../../db/d14/cipcommon_8h.html" target="_top" xlink:title="cipcommon.h">
<polygon fill="none" stroke="black" points="55.5,-174.5 55.5,-195.5 130.5,-195.5 130.5,-174.5 55.5,-174.5"/>
<text text-anchor="middle" x="93" y="-182.5" font-family="Helvetica,sans-Serif" font-size="10.00">cipcommon.h</text>
</a>
</g>
<!-- Node1&#45;&gt;Node13 -->
<g id="edge32" class="edge"><title>Node1&#45;&gt;Node13</title>
<path fill="none" stroke="midnightblue" d="M295.135,-290.434C276.463,-280.957 248.359,-266.637 224,-254 188.843,-235.762 148.552,-214.483 122.042,-200.43"/>
<polygon fill="midnightblue" stroke="midnightblue" points="123.408,-197.193 112.934,-195.598 120.128,-203.376 123.408,-197.193"/>
</g>
<!-- Node14 -->
<g id="node33" class="node"><title>Node14</title>
<a xlink:href="../../d2/d75/cipmessagerouter_8h.html" target="_top" xlink:title="cipmessagerouter.h">
<polygon fill="none" stroke="black" points="148,-174.5 148,-195.5 250,-195.5 250,-174.5 148,-174.5"/>
<text text-anchor="middle" x="199" y="-182.5" font-family="Helvetica,sans-Serif" font-size="10.00">cipmessagerouter.h</text>
</a>
</g>
<!-- Node1&#45;&gt;Node14 -->
<g id="edge38" class="edge"><title>Node1&#45;&gt;Node14</title>
<path fill="none" stroke="midnightblue" d="M296.116,-290.413C281.234,-281.869 260.955,-268.855 246,-254 231.154,-239.253 218.104,-219.193 209.547,-204.504"/>
<polygon fill="midnightblue" stroke="midnightblue" points="212.562,-202.725 204.599,-195.736 206.466,-206.166 212.562,-202.725"/>
</g>
<!-- Node15 -->
<g id="node37" class="node"><title>Node15</title>
<a xlink:href="../../d0/dec/endianconv_8h.html" target="_top" xlink:title="Responsible for Endianess conversion.">
<polygon fill="none" stroke="black" points="575,-232.5 575,-253.5 649,-253.5 649,-232.5 575,-232.5"/>
<text text-anchor="middle" x="612" y="-240.5" font-family="Helvetica,sans-Serif" font-size="10.00">endianconv.h</text>
</a>
</g>
<!-- Node1&#45;&gt;Node15 -->
<g id="edge44" class="edge"><title>Node1&#45;&gt;Node15</title>
<path fill="none" stroke="midnightblue" d="M369.603,-290.497C425.322,-279.579 511.676,-262.658 564.868,-252.235"/>
<polygon fill="midnightblue" stroke="midnightblue" points="565.582,-255.662 574.722,-250.304 564.236,-248.793 565.582,-255.662"/>
</g>
<!-- Node16 -->
<g id="node41" class="node"><title>Node16</title>
<a xlink:href="../../d2/da3/cipconnectionmanager_8h.html" target="_top" xlink:title="cipconnectionmanager.h">
<polygon fill="none" stroke="black" points="255,-232.5 255,-253.5 377,-253.5 377,-232.5 255,-232.5"/>
<text text-anchor="middle" x="316" y="-240.5" font-family="Helvetica,sans-Serif" font-size="10.00">cipconnectionmanager.h</text>
</a>
</g>
<!-- Node1&#45;&gt;Node16 -->
<g id="edge50" class="edge"><title>Node1&#45;&gt;Node16</title>
<path fill="none" stroke="midnightblue" d="M316,-290.362C316,-282.922 316,-272.743 316,-263.728"/>
<polygon fill="midnightblue" stroke="midnightblue" points="319.5,-263.571 316,-253.571 312.5,-263.571 319.5,-263.571"/>
</g>
<!-- Node17 -->
<g id="node47" class="node"><title>Node17</title>
<a xlink:href="../../d1/d1b/trace_8h.html" target="_top" xlink:title="Tracing infrastructure for OpENer.">
<polygon fill="none" stroke="black" points="438.5,-232.5 438.5,-253.5 485.5,-253.5 485.5,-232.5 438.5,-232.5"/>
<text text-anchor="middle" x="462" y="-240.5" font-family="Helvetica,sans-Serif" font-size="10.00">trace.h</text>
</a>
</g>
<!-- Node1&#45;&gt;Node17 -->
<g id="edge60" class="edge"><title>Node1&#45;&gt;Node17</title>
<path fill="none" stroke="midnightblue" d="M342.439,-290.497C366.631,-280.886 402.53,-266.625 428.676,-256.238"/>
<polygon fill="midnightblue" stroke="midnightblue" points="430.173,-259.41 438.174,-252.465 427.589,-252.904 430.173,-259.41"/>
</g>
<!-- Node4 -->
<g id="node7" class="node"><title>Node4</title>
<a xlink:href="../../d7/d69/typedefs_8h.html" target="_top" xlink:title="typedefs.h">
<polygon fill="none" stroke="black" points="182,-58.5 182,-79.5 244,-79.5 244,-58.5 182,-58.5"/>
<text text-anchor="middle" x="213" y="-66.5" font-family="Helvetica,sans-Serif" font-size="10.00">typedefs.h</text>
</a>
</g>
<!-- Node3&#45;&gt;Node4 -->
<g id="edge6" class="edge"><title>Node3&#45;&gt;Node4</title>
<path fill="none" stroke="midnightblue" d="M18.8409,-174.283C19.2204,-159.165 22.2237,-131.677 38,-116 56.7749,-97.3434 126.479,-82.9063 172.048,-75.2025"/>
<polygon fill="midnightblue" stroke="midnightblue" points="172.643,-78.6517 181.94,-73.5712 171.504,-71.745 172.643,-78.6517"/>
</g>
<!-- Node7 -->
<g id="node13" class="node"><title>Node7</title>
<a xlink:href="../../df/d28/ciptypes_8h.html" target="_top" xlink:title="ciptypes.h">
<polygon fill="none" stroke="black" points="153,-116.5 153,-137.5 215,-137.5 215,-116.5 153,-116.5"/>
<text text-anchor="middle" x="184" y="-124.5" font-family="Helvetica,sans-Serif" font-size="10.00">ciptypes.h</text>
</a>
</g>
<!-- Node3&#45;&gt;Node7 -->
<g id="edge12" class="edge"><title>Node3&#45;&gt;Node7</title>
<path fill="none" stroke="midnightblue" d="M38.2373,-177.314C41.1649,-176.182 44.157,-175.046 47,-174 79.1589,-162.173 115.898,-149.62 143.231,-140.465"/>
<polygon fill="midnightblue" stroke="midnightblue" points="144.472,-143.741 152.849,-137.254 142.255,-137.101 144.472,-143.741"/>
</g>
<!-- Node8 -->
<g id="node16" class="node"><title>Node8</title>
<a xlink:href="../../d7/df9/encap_8h.html" target="_top" xlink:title="This file contains the public interface of the encapsulation layer.">
<polygon fill="none" stroke="black" points="46.5,-116.5 46.5,-137.5 97.5,-137.5 97.5,-116.5 46.5,-116.5"/>
<text text-anchor="middle" x="72" y="-124.5" font-family="Helvetica,sans-Serif" font-size="10.00">encap.h</text>
</a>
</g>
<!-- Node3&#45;&gt;Node8 -->
<g id="edge16" class="edge"><title>Node3&#45;&gt;Node8</title>
<path fill="none" stroke="midnightblue" d="M28.721,-174.362C36.192,-166.186 46.6857,-154.702 55.4689,-145.091"/>
<polygon fill="midnightblue" stroke="midnightblue" points="58.1786,-147.314 62.3406,-137.571 53.0111,-142.592 58.1786,-147.314"/>
</g>
<!-- Node5 -->
<g id="node9" class="node"><title>Node5</title>
<polygon fill="none" stroke="#bfbfbf" points="147.5,-0.5 147.5,-21.5 206.5,-21.5 206.5,-0.5 147.5,-0.5"/>
<text text-anchor="middle" x="177" y="-8.5" font-family="Helvetica,sans-Serif" font-size="10.00">inttypes.h</text>
</g>
<!-- Node4&#45;&gt;Node5 -->
<g id="edge8" class="edge"><title>Node4&#45;&gt;Node5</title>
<path fill="none" stroke="midnightblue" d="M206.397,-58.3619C201.525,-50.5131 194.762,-39.6159 188.95,-30.2527"/>
<polygon fill="midnightblue" stroke="midnightblue" points="191.809,-28.2213 183.561,-21.5707 185.861,-31.9129 191.809,-28.2213"/>
</g>
<!-- Node6 -->
<g id="node11" class="node"><title>Node6</title>
<polygon fill="none" stroke="#bfbfbf" points="224,-0.5 224,-21.5 276,-21.5 276,-0.5 224,-0.5"/>
<text text-anchor="middle" x="250" y="-8.5" font-family="Helvetica,sans-Serif" font-size="10.00">stddef.h</text>
</g>
<!-- Node4&#45;&gt;Node6 -->
<g id="edge10" class="edge"><title>Node4&#45;&gt;Node6</title>
<path fill="none" stroke="midnightblue" d="M219.786,-58.3619C224.793,-50.5131 231.745,-39.6159 237.718,-30.2527"/>
<polygon fill="midnightblue" stroke="midnightblue" points="240.829,-31.8837 243.257,-21.5707 234.928,-28.1189 240.829,-31.8837"/>
</g>
<!-- Node7&#45;&gt;Node4 -->
<g id="edge14" class="edge"><title>Node7&#45;&gt;Node4</title>
<path fill="none" stroke="midnightblue" d="M189.319,-116.362C193.203,-108.595 198.579,-97.8426 203.227,-88.5458"/>
<polygon fill="midnightblue" stroke="midnightblue" points="206.373,-90.0802 207.715,-79.5707 200.112,-86.9497 206.373,-90.0802"/>
</g>
<!-- Node8&#45;&gt;Node4 -->
<g id="edge18" class="edge"><title>Node8&#45;&gt;Node4</title>
<path fill="none" stroke="midnightblue" d="M97.534,-116.497C119.953,-107.275 152.785,-93.7695 177.713,-83.5153"/>
<polygon fill="midnightblue" stroke="midnightblue" points="179.263,-86.6623 187.179,-79.6212 176.6,-80.1886 179.263,-86.6623"/>
</g>
<!-- Node9&#45;&gt;Node4 -->
<g id="edge24" class="edge"><title>Node9&#45;&gt;Node4</title>
<path fill="none" stroke="midnightblue" d="M368.095,-174.298C352.079,-160.149 322.431,-134.813 295,-116 278.145,-104.44 258.28,-93.0031 242.324,-84.3057"/>
<polygon fill="midnightblue" stroke="midnightblue" points="243.898,-81.1781 233.434,-79.5213 240.581,-87.3422 243.898,-81.1781"/>
</g>
<!-- Node9&#45;&gt;Node7 -->
<g id="edge26" class="edge"><title>Node9&#45;&gt;Node7</title>
<path fill="none" stroke="midnightblue" d="M344.506,-174.497C310.87,-164.543 260.374,-149.601 225.028,-139.141"/>
<polygon fill="midnightblue" stroke="midnightblue" points="225.616,-135.665 215.034,-136.184 223.63,-142.377 225.616,-135.665"/>
</g>
<!-- Node10 -->
<g id="node21" class="node"><title>Node10</title>
<polygon fill="none" stroke="#bfbfbf" points="347,-116.5 347,-137.5 399,-137.5 399,-116.5 347,-116.5"/>
<text text-anchor="middle" x="373" y="-124.5" font-family="Helvetica,sans-Serif" font-size="10.00">assert.h</text>
</g>
<!-- Node9&#45;&gt;Node10 -->
<g id="edge22" class="edge"><title>Node9&#45;&gt;Node10</title>
<path fill="none" stroke="midnightblue" d="M378.716,-174.362C377.818,-166.922 376.59,-156.743 375.502,-147.728"/>
<polygon fill="midnightblue" stroke="midnightblue" points="378.949,-147.079 374.276,-137.571 371.999,-147.918 378.949,-147.079"/>
</g>
<!-- Node9&#45;&gt;Node11 -->
<g id="edge28" class="edge"><title>Node9&#45;&gt;Node11</title>
<path fill="none" stroke="midnightblue" d="M413.502,-174.497C445.302,-164.527 493.069,-149.551 526.44,-139.089"/>
<polygon fill="midnightblue" stroke="midnightblue" points="527.806,-142.329 536.301,-135.998 525.712,-135.65 527.806,-142.329"/>
</g>
<!-- Node12 -->
<g id="node27" class="node"><title>Node12</title>
<polygon fill="none" stroke="#bfbfbf" points="417,-116.5 417,-137.5 519,-137.5 519,-116.5 417,-116.5"/>
<text text-anchor="middle" x="468" y="-124.5" font-family="Helvetica,sans-Serif" font-size="10.00">opener_user_conf.h</text>
</g>
<!-- Node9&#45;&gt;Node12 -->
<g id="edge30" class="edge"><title>Node9&#45;&gt;Node12</title>
<path fill="none" stroke="midnightblue" d="M396.141,-174.362C409.414,-165.614 428.432,-153.079 443.57,-143.101"/>
<polygon fill="midnightblue" stroke="midnightblue" points="445.538,-145.996 451.962,-137.571 441.686,-140.151 445.538,-145.996"/>
</g>
<!-- Node13&#45;&gt;Node4 -->
<g id="edge34" class="edge"><title>Node13&#45;&gt;Node4</title>
<path fill="none" stroke="midnightblue" d="M99.2938,-174.322C108.087,-159.974 125.108,-134.178 144,-116 156.305,-104.16 171.898,-93.264 185.146,-84.9502"/>
<polygon fill="midnightblue" stroke="midnightblue" points="187.159,-87.8221 193.874,-79.6272 183.514,-81.8458 187.159,-87.8221"/>
</g>
<!-- Node13&#45;&gt;Node7 -->
<g id="edge36" class="edge"><title>Node13&#45;&gt;Node7</title>
<path fill="none" stroke="midnightblue" d="M109.691,-174.362C123.416,-165.614 143.084,-153.079 158.737,-143.101"/>
<polygon fill="midnightblue" stroke="midnightblue" points="160.863,-145.897 167.415,-137.571 157.101,-139.994 160.863,-145.897"/>
</g>
<!-- Node14&#45;&gt;Node4 -->
<g id="edge40" class="edge"><title>Node14&#45;&gt;Node4</title>
<path fill="none" stroke="midnightblue" d="M206.583,-174.418C212.639,-165.276 220.645,-151.451 224,-138 228.024,-121.868 224.585,-103.231 220.522,-89.3957"/>
<polygon fill="midnightblue" stroke="midnightblue" points="223.843,-88.2886 217.407,-79.8728 217.19,-90.4654 223.843,-88.2886"/>
</g>
<!-- Node14&#45;&gt;Node7 -->
<g id="edge42" class="edge"><title>Node14&#45;&gt;Node7</title>
<path fill="none" stroke="midnightblue" d="M196.249,-174.362C194.303,-166.84 191.634,-156.519 189.284,-147.431"/>
<polygon fill="midnightblue" stroke="midnightblue" points="192.626,-146.376 186.734,-137.571 185.849,-148.128 192.626,-146.376"/>
</g>
<!-- Node15&#45;&gt;Node4 -->
<g id="edge46" class="edge"><title>Node15&#45;&gt;Node4</title>
<path fill="none" stroke="midnightblue" d="M615.075,-232.375C621.387,-208.077 632.773,-148.082 602,-116 578.2,-91.187 349.382,-76.2525 254.207,-71.069"/>
<polygon fill="midnightblue" stroke="midnightblue" points="254.258,-67.5668 244.085,-70.5271 253.883,-74.5568 254.258,-67.5668"/>
</g>
<!-- Node16&#45;&gt;Node4 -->
<g id="edge56" class="edge"><title>Node16&#45;&gt;Node4</title>
<path fill="none" stroke="midnightblue" d="M311.527,-232.479C305.562,-218.743 294.421,-194.085 283,-174 265.264,-142.811 241.574,-108.557 226.805,-87.9226"/>
<polygon fill="midnightblue" stroke="midnightblue" points="229.572,-85.7745 220.883,-79.7109 223.894,-89.869 229.572,-85.7745"/>
</g>
<!-- Node16&#45;&gt;Node7 -->
<g id="edge58" class="edge"><title>Node16&#45;&gt;Node7</title>
<path fill="none" stroke="midnightblue" d="M308.803,-232.28C298.79,-217.884 279.558,-192.034 259,-174 245.26,-161.947 228.097,-150.948 213.658,-142.626"/>
<polygon fill="midnightblue" stroke="midnightblue" points="215.06,-139.399 204.626,-137.559 211.635,-145.504 215.06,-139.399"/>
</g>
<!-- Node16&#45;&gt;Node9 -->
<g id="edge54" class="edge"><title>Node16&#45;&gt;Node9</title>
<path fill="none" stroke="midnightblue" d="M327.739,-232.362C336.941,-224.023 349.94,-212.242 360.672,-202.516"/>
<polygon fill="midnightblue" stroke="midnightblue" points="363.276,-204.879 368.336,-195.571 358.576,-199.692 363.276,-204.879"/>
</g>
<!-- Node16&#45;&gt;Node12 -->
<g id="edge52" class="edge"><title>Node16&#45;&gt;Node12</title>
<path fill="none" stroke="midnightblue" d="M355.24,-232.487C377.538,-225.042 404.923,-213.267 425,-196 440.477,-182.689 452.191,-162.396 459.453,-147.258"/>
<polygon fill="midnightblue" stroke="midnightblue" points="462.822,-148.304 463.762,-137.751 456.446,-145.414 462.822,-148.304"/>
</g>
<!-- Node17&#45;&gt;Node12 -->
<g id="edge62" class="edge"><title>Node17&#45;&gt;Node12</title>
<path fill="none" stroke="midnightblue" d="M462.554,-232.295C463.545,-213.131 465.639,-172.654 466.922,-147.843"/>
<polygon fill="midnightblue" stroke="midnightblue" points="470.426,-147.847 467.448,-137.679 463.436,-147.485 470.426,-147.847"/>
</g>
</g>
</svg>
        <g id="navigator" transform="translate(0 0)" fill="#404254">
                <rect fill="#f2f5e9" fill-opacity="0.5" stroke="#606060" stroke-width=".5" x="0" y="0" width="60" height="60"/>
                <use id="zoomplus" xlink:href="#zoomPlus" x="17" y="9" onmousedown="handleZoom(evt,'in')"/>
                <use id="zoomminus" xlink:href="#zoomMin" x="42" y="9" onmousedown="handleZoom(evt,'out')"/>
                <use id="reset" xlink:href="#resetDef" x="30" y="36" onmousedown="handleReset()"/>
                <g id="arrowUp" xlink:href="#dirArrow" transform="translate(30 24)" onmousedown="handlePan(0,-1)">
                  <use xlink:href="#rim" fill="#404040">
                        <set attributeName="fill" to="#808080" begin="arrowUp.mouseover" end="arrowUp.mouseout"/>
                  </use>
                  <path fill="none" stroke="white" stroke-width="1.5" d="M0,-3.0v7 M-2.5,-0.5L0,-3.0L2.5,-0.5"/>
                </g>
                <g id="arrowRight" xlink:href="#dirArrow" transform="rotate(90) translate(36 -43)" onmousedown="handlePan(1,0)">
                  <use xlink:href="#rim" fill="#404040">
                        <set attributeName="fill" to="#808080" begin="arrowRight.mouseover" end="arrowRight.mouseout"/>
                  </use>
                  <path fill="none" stroke="white" stroke-width="1.5" d="M0,-3.0v7 M-2.5,-0.5L0,-3.0L2.5,-0.5"/>
                </g>
                <g id="arrowDown" xlink:href="#dirArrow" transform="rotate(180) translate(-30 -48)" onmousedown="handlePan(0,1)">
                  <use xlink:href="#rim" fill="#404040">
                        <set attributeName="fill" to="#808080" begin="arrowDown.mouseover" end="arrowDown.mouseout"/>
                  </use>
                  <path fill="none" stroke="white" stroke-width="1.5" d="M0,-3.0v7 M-2.5,-0.5L0,-3.0L2.5,-0.5"/>
                </g>
                <g id="arrowLeft" xlink:href="#dirArrow" transform="rotate(270) translate(-36 17)" onmousedown="handlePan(-1,0)">
                  <use xlink:href="#rim" fill="#404040">
                        <set attributeName="fill" to="#808080" begin="arrowLeft.mouseover" end="arrowLeft.mouseout"/>
                  </use>
                  <path fill="none" stroke="white" stroke-width="1.5" d="M0,-3.0v7 M-2.5,-0.5L0,-3.0L2.5,-0.5"/>
                </g>
        </g>
</svg>
