<?xml version="1.0" encoding="UTF-8" standalone="no"?>
<!DOCTYPE svg PUBLIC "-//W3C//DTD SVG 1.1//EN"
 "http://www.w3.org/Graphics/SVG/1.1/DTD/svg11.dtd">
<!-- Generated by graphviz version 2.36.0 (20140111.2315)
 -->
<!-- Title: src/enet_encap/cpf.c Pages: 1 -->
<!--zoomable 420 -->
<svg id="main" version="1.1" xmlns="http://www.w3.org/2000/svg" xmlns:xlink="http://www.w3.org/1999/xlink" xml:space="preserve" onload="init(evt)">
<style type="text/css"><![CDATA[
.edge:hover path { stroke: red; }
.edge:hover polygon { stroke: red; fill: red; }
]]></style>
<script type="text/javascript"><![CDATA[
var edges = document.getElementsByTagName('g');
if (edges && edges.length) {
  for (var i=0;i<edges.length;i++) {
    if (edges[i].id.substr(0,4)=='edge') {
      edges[i].setAttribute('class','edge');
    }
  }
}
]]></script>
        <defs>
                <circle id="rim" cx="0" cy="0" r="7"/>
                <circle id="rim2" cx="0" cy="0" r="3.5"/>
                <g id="zoomPlus">
                        <use xlink:href="#rim" fill="#404040">
                                <set attributeName="fill" to="#808080" begin="zoomplus.mouseover" end="zoomplus.mouseout"/>
                        </use>
                        <path d="M-4,0h8M0,-4v8" fill="none" stroke="white" stroke-width="1.5" pointer-events="none"/>
                </g>
                <g id="zoomMin">
                        <use xlink:href="#rim" fill="#404040">
                                <set attributeName="fill" to="#808080" begin="zoomminus.mouseover" end="zoomminus.mouseout"/>
                        </use>
                        <path d="M-4,0h8" fill="none" stroke="white" stroke-width="1.5" pointer-events="none"/>
                </g>
                <g id="dirArrow">
                        <path fill="none" stroke="white" stroke-width="1.5" d="M0,-3.0v7 M-2.5,-0.5L0,-3.0L2.5,-0.5"/>
                </g>
               <g id="resetDef">
                       <use xlink:href="#rim2" fill="#404040">
                               <set attributeName="fill" to="#808080" begin="reset.mouseover" end="reset.mouseout"/>
                       </use>
               </g>
        </defs>

<script type="text/javascript">
var viewWidth = 1052;
var viewHeight = 420;
var sectionId = 'dynsection-0';
</script>
<script xlink:href="../../svgpan.js"/>
<svg id="graph" class="graph">
<g id="viewport">
<title>src/enet_encap/cpf.c</title>
<!-- Node1 -->
<g id="node1" class="node"><title>Node1</title>
<polygon fill="#bfbfbf" stroke="black" points="359,-392.5 359,-411.5 467,-411.5 467,-392.5 359,-392.5"/>
<text text-anchor="middle" x="413" y="-399.5" font-family="Helvetica,sans-Serif" font-size="10.00">src/enet_encap/cpf.c</text>
</g>
<!-- Node2 -->
<g id="node2" class="node"><title>Node2</title>
<polygon fill="none" stroke="#bfbfbf" points="-0.5,-336.5 -0.5,-355.5 48.5,-355.5 48.5,-336.5 -0.5,-336.5"/>
<text text-anchor="middle" x="24" y="-343.5" font-family="Helvetica,sans-Serif" font-size="10.00">string.h</text>
</g>
<!-- Node1&#45;&gt;Node2 -->
<g id="edge1" class="edge"><title>Node1&#45;&gt;Node2</title>
<path fill="none" stroke="midnightblue" d="M358.784,-395.711C289.774,-388.593 167.023,-374.643 63,-356 61.5465,-355.74 60.0657,-355.46 58.5719,-355.167"/>
<polygon fill="midnightblue" stroke="midnightblue" points="59.1884,-351.72 48.6817,-353.084 57.7454,-358.57 59.1884,-351.72"/>
</g>
<!-- Node3 -->
<g id="node3" class="node"><title>Node3</title>
<g id="a_node3"><a xlink:href="../../d0/dff/cpf_8h.html" target="_top" xlink:title="cpf.h">
<polygon fill="none" stroke="black" points="577,-336.5 577,-355.5 615,-355.5 615,-336.5 577,-336.5"/>
<text text-anchor="middle" x="596" y="-343.5" font-family="Helvetica,sans-Serif" font-size="10.00">cpf.h</text>
</a>
</g>
</g>
<!-- Node1&#45;&gt;Node3 -->
<g id="edge2" class="edge"><title>Node1&#45;&gt;Node3</title>
<path fill="none" stroke="midnightblue" d="M441.997,-392.444C476.247,-382.337 532.88,-365.626 567.092,-355.53"/>
<polygon fill="midnightblue" stroke="midnightblue" points="568.339,-358.811 576.94,-352.624 566.358,-352.098 568.339,-358.811"/>
</g>
<!-- Node13 -->
<g id="node13" class="node"><title>Node13</title>
<g id="a_node13"><a xlink:href="../../d4/d38/opener__api_8h.html" target="_top" xlink:title="opener_api.h">
<polygon fill="none" stroke="black" points="219,-168.5 219,-187.5 291,-187.5 291,-168.5 219,-168.5"/>
<text text-anchor="middle" x="255" y="-175.5" font-family="Helvetica,sans-Serif" font-size="10.00">opener_api.h</text>
</a>
</g>
</g>
<!-- Node1&#45;&gt;Node13 -->
<g id="edge31" class="edge"><title>Node1&#45;&gt;Node13</title>
<path fill="none" stroke="midnightblue" d="M406.806,-392.297C383.263,-359.217 299.062,-240.909 267.27,-196.241"/>
<polygon fill="midnightblue" stroke="midnightblue" points="269.973,-194.002 261.323,-187.884 264.27,-198.06 269.973,-194.002"/>
</g>
<!-- Node15 -->
<g id="node15" class="node"><title>Node15</title>
<g id="a_node15"><a xlink:href="../../d6/d52/ciperror_8h.html" target="_top" xlink:title="ciperror.h">
<polygon fill="none" stroke="black" points="48.5,-112.5 48.5,-131.5 105.5,-131.5 105.5,-112.5 48.5,-112.5"/>
<text text-anchor="middle" x="77" y="-119.5" font-family="Helvetica,sans-Serif" font-size="10.00">ciperror.h</text>
</a>
</g>
</g>
<!-- Node1&#45;&gt;Node15 -->
<g id="edge40" class="edge"><title>Node1&#45;&gt;Node15</title>
<path fill="none" stroke="midnightblue" d="M358.748,-400.653C303.18,-398.32 215.601,-389.052 148,-356 109.566,-337.208 77,-333.782 77,-291 77,-291 77,-291 77,-233 77,-200.948 77,-163.643 77,-141.749"/>
<polygon fill="midnightblue" stroke="midnightblue" points="80.5001,-141.558 77,-131.558 73.5001,-141.558 80.5001,-141.558"/>
</g>
<!-- Node19 -->
<g id="node19" class="node"><title>Node19</title>
<g id="a_node19"><a xlink:href="../../db/d14/cipcommon_8h.html" target="_top" xlink:title="cipcommon.h">
<polygon fill="none" stroke="black" points="651.5,-168.5 651.5,-187.5 726.5,-187.5 726.5,-168.5 651.5,-168.5"/>
<text text-anchor="middle" x="689" y="-175.5" font-family="Helvetica,sans-Serif" font-size="10.00">cipcommon.h</text>
</a>
</g>
</g>
<!-- Node1&#45;&gt;Node19 -->
<g id="edge32" class="edge"><title>Node1&#45;&gt;Node19</title>
<path fill="none" stroke="midnightblue" d="M420.389,-392.473C438.521,-371.815 487.161,-317.989 534,-280 577.178,-244.979 632.829,-211.142 664.346,-192.899"/>
<polygon fill="midnightblue" stroke="midnightblue" points="666.38,-195.767 673.311,-187.754 662.896,-189.695 666.38,-195.767"/>
</g>
<!-- Node20 -->
<g id="node20" class="node"><title>Node20</title>
<g id="a_node20"><a xlink:href="../../d2/d75/cipmessagerouter_8h.html" target="_top" xlink:title="cipmessagerouter.h">
<polygon fill="none" stroke="black" points="897,-168.5 897,-187.5 999,-187.5 999,-168.5 897,-168.5"/>
<text text-anchor="middle" x="948" y="-175.5" font-family="Helvetica,sans-Serif" font-size="10.00">cipmessagerouter.h</text>
</a>
</g>
</g>
<!-- Node1&#45;&gt;Node20 -->
<g id="edge35" class="edge"><title>Node1&#45;&gt;Node20</title>
<path fill="none" stroke="midnightblue" d="M467.166,-395.113C576.252,-382.35 817.577,-349.261 883,-300 917.491,-274.03 935.707,-224.271 943.417,-197.362"/>
<polygon fill="midnightblue" stroke="midnightblue" points="946.809,-198.228 946.021,-187.663 940.048,-196.413 946.809,-198.228"/>
</g>
<!-- Node21 -->
<g id="node21" class="node"><title>Node21</title>
<g id="a_node21"><a xlink:href="../../d0/dec/endianconv_8h.html" target="_top" xlink:title="Responsible for Endianess conversion. ">
<polygon fill="none" stroke="black" points="970,-280.5 970,-299.5 1044,-299.5 1044,-280.5 970,-280.5"/>
<text text-anchor="middle" x="1007" y="-287.5" font-family="Helvetica,sans-Serif" font-size="10.00">endianconv.h</text>
</a>
</g>
</g>
<!-- Node1&#45;&gt;Node21 -->
<g id="edge38" class="edge"><title>Node1&#45;&gt;Node21</title>
<path fill="none" stroke="midnightblue" d="M467.154,-400.453C582.448,-398.62 848.379,-390.649 931,-356 956.397,-345.349 979.5,-322.941 993.401,-307.436"/>
<polygon fill="midnightblue" stroke="midnightblue" points="996.24,-309.504 1000.13,-299.65 990.945,-304.925 996.24,-309.504"/>
</g>
<!-- Node22 -->
<g id="node22" class="node"><title>Node22</title>
<g id="a_node22"><a xlink:href="../../d2/da3/cipconnectionmanager_8h.html" target="_top" xlink:title="cipconnectionmanager.h">
<polygon fill="none" stroke="black" points="352,-280.5 352,-299.5 474,-299.5 474,-280.5 352,-280.5"/>
<text text-anchor="middle" x="413" y="-287.5" font-family="Helvetica,sans-Serif" font-size="10.00">cipconnectionmanager.h</text>
</a>
</g>
</g>
<!-- Node1&#45;&gt;Node22 -->
<g id="edge41" class="edge"><title>Node1&#45;&gt;Node22</title>
<path fill="none" stroke="midnightblue" d="M413,-392.368C413,-374.617 413,-333.666 413,-309.597"/>
<polygon fill="midnightblue" stroke="midnightblue" points="416.5,-309.591 413,-299.591 409.5,-309.591 416.5,-309.591"/>
</g>
<!-- Node23 -->
<g id="node23" class="node"><title>Node23</title>
<g id="a_node23"><a xlink:href="../../d1/d1b/trace_8h.html" target="_top" xlink:title="Tracing infrastructure for OpENer. ">
<polygon fill="none" stroke="black" points="105.5,-224.5 105.5,-243.5 152.5,-243.5 152.5,-224.5 105.5,-224.5"/>
<text text-anchor="middle" x="129" y="-231.5" font-family="Helvetica,sans-Serif" font-size="10.00">trace.h</text>
</a>
</g>
</g>
<!-- Node1&#45;&gt;Node23 -->
<g id="edge47" class="edge"><title>Node1&#45;&gt;Node23</title>
<path fill="none" stroke="midnightblue" d="M358.849,-397.541C295.233,-392.401 194.817,-380.581 167,-356 137.259,-329.719 130.561,-280.46 129.201,-253.61"/>
<polygon fill="midnightblue" stroke="midnightblue" points="132.699,-253.495 128.893,-243.607 125.702,-253.71 132.699,-253.495"/>
</g>
<!-- Node4 -->
<g id="node4" class="node"><title>Node4</title>
<g id="a_node4"><a xlink:href="../../d7/d69/typedefs_8h.html" target="_top" xlink:title="typedefs.h">
<polygon fill="none" stroke="black" points="724,-56.5 724,-75.5 786,-75.5 786,-56.5 724,-56.5"/>
<text text-anchor="middle" x="755" y="-63.5" font-family="Helvetica,sans-Serif" font-size="10.00">typedefs.h</text>
</a>
</g>
</g>
<!-- Node3&#45;&gt;Node4 -->
<g id="edge3" class="edge"><title>Node3&#45;&gt;Node4</title>
<path fill="none" stroke="midnightblue" d="M615.197,-341.586C677.337,-329.995 869,-289.803 869,-235 869,-235 869,-235 869,-177 869,-130.115 818.448,-96.8944 784.671,-79.9302"/>
<polygon fill="midnightblue" stroke="midnightblue" points="786.172,-76.7687 775.645,-75.5787 783.132,-83.0742 786.172,-76.7687"/>
</g>
<!-- Node8 -->
<g id="node8" class="node"><title>Node8</title>
<g id="a_node8"><a xlink:href="../../df/d28/ciptypes_8h.html" target="_top" xlink:title="ciptypes.h">
<polygon fill="none" stroke="black" points="573,-112.5 573,-131.5 635,-131.5 635,-112.5 573,-112.5"/>
<text text-anchor="middle" x="604" y="-119.5" font-family="Helvetica,sans-Serif" font-size="10.00">ciptypes.h</text>
</a>
</g>
</g>
<!-- Node3&#45;&gt;Node8 -->
<g id="edge7" class="edge"><title>Node3&#45;&gt;Node8</title>
<path fill="none" stroke="midnightblue" d="M597.724,-336.418C599.445,-327.396 601.977,-312.768 603,-300 607.592,-242.71 606.008,-174.655 604.821,-142.144"/>
<polygon fill="midnightblue" stroke="midnightblue" points="608.307,-141.714 604.414,-131.86 601.313,-141.991 608.307,-141.714"/>
</g>
<!-- Node10 -->
<g id="node10" class="node"><title>Node10</title>
<g id="a_node10"><a xlink:href="../../d7/df9/encap_8h.html" target="_top" xlink:title="This file contains the public interface of the encapsulation layer. ">
<polygon fill="none" stroke="black" points="543.5,-280.5 543.5,-299.5 594.5,-299.5 594.5,-280.5 543.5,-280.5"/>
<text text-anchor="middle" x="569" y="-287.5" font-family="Helvetica,sans-Serif" font-size="10.00">encap.h</text>
</a>
</g>
</g>
<!-- Node3&#45;&gt;Node10 -->
<g id="edge10" class="edge"><title>Node3&#45;&gt;Node10</title>
<path fill="none" stroke="midnightblue" d="M591.541,-336.083C587.846,-328.691 582.477,-317.953 577.906,-308.811"/>
<polygon fill="midnightblue" stroke="midnightblue" points="580.978,-307.13 573.376,-299.751 574.717,-310.261 580.978,-307.13"/>
</g>
<!-- Node5 -->
<g id="node5" class="node"><title>Node5</title>
<polygon fill="none" stroke="#bfbfbf" points="762.5,-0.5 762.5,-19.5 821.5,-19.5 821.5,-0.5 762.5,-0.5"/>
<text text-anchor="middle" x="792" y="-7.5" font-family="Helvetica,sans-Serif" font-size="10.00">inttypes.h</text>
</g>
<!-- Node4&#45;&gt;Node5 -->
<g id="edge4" class="edge"><title>Node4&#45;&gt;Node5</title>
<path fill="none" stroke="midnightblue" d="M761.11,-56.083C766.282,-48.5341 773.846,-37.4948 780.194,-28.2298"/>
<polygon fill="midnightblue" stroke="midnightblue" points="783.239,-29.9787 786.004,-19.7511 777.464,-26.0221 783.239,-29.9787"/>
</g>
<!-- Node6 -->
<g id="node6" class="node"><title>Node6</title>
<polygon fill="none" stroke="#bfbfbf" points="692,-0.5 692,-19.5 744,-19.5 744,-0.5 692,-0.5"/>
<text text-anchor="middle" x="718" y="-7.5" font-family="Helvetica,sans-Serif" font-size="10.00">stddef.h</text>
</g>
<!-- Node4&#45;&gt;Node6 -->
<g id="edge5" class="edge"><title>Node4&#45;&gt;Node6</title>
<path fill="none" stroke="midnightblue" d="M748.89,-56.083C743.718,-48.5341 736.154,-37.4948 729.806,-28.2298"/>
<polygon fill="midnightblue" stroke="midnightblue" points="732.536,-26.0221 723.996,-19.7511 726.761,-29.9787 732.536,-26.0221"/>
</g>
<!-- Node7 -->
<g id="node7" class="node"><title>Node7</title>
<polygon fill="none" stroke="#bfbfbf" points="400,-0.5 400,-19.5 456,-19.5 456,-0.5 400,-0.5"/>
<text text-anchor="middle" x="428" y="-7.5" font-family="Helvetica,sans-Serif" font-size="10.00">stdbool.h</text>
</g>
<!-- Node4&#45;&gt;Node7 -->
<g id="edge6" class="edge"><title>Node4&#45;&gt;Node7</title>
<path fill="none" stroke="midnightblue" d="M723.942,-59.8711C663.713,-49.9252 531.241,-28.0489 465.929,-17.2634"/>
<polygon fill="midnightblue" stroke="midnightblue" points="466.481,-13.8073 456.044,-15.6312 465.341,-20.7138 466.481,-13.8073"/>
</g>
<!-- Node8&#45;&gt;Node4 -->
<g id="edge8" class="edge"><title>Node8&#45;&gt;Node4</title>
<path fill="none" stroke="midnightblue" d="M627.926,-112.444C653.219,-103.399 693.302,-89.064 721.68,-78.9158"/>
<polygon fill="midnightblue" stroke="midnightblue" points="722.948,-82.1794 731.186,-75.5164 720.591,-75.5882 722.948,-82.1794"/>
</g>
<!-- Node9 -->
<g id="node9" class="node"><title>Node9</title>
<polygon fill="none" stroke="#bfbfbf" points="558.5,-56.5 558.5,-75.5 649.5,-75.5 649.5,-56.5 558.5,-56.5"/>
<text text-anchor="middle" x="604" y="-63.5" font-family="Helvetica,sans-Serif" font-size="10.00">networkhandler.h</text>
</g>
<!-- Node8&#45;&gt;Node9 -->
<g id="edge9" class="edge"><title>Node8&#45;&gt;Node9</title>
<path fill="none" stroke="midnightblue" d="M604,-112.083C604,-105.006 604,-94.8611 604,-85.9865"/>
<polygon fill="midnightblue" stroke="midnightblue" points="607.5,-85.751 604,-75.7511 600.5,-85.7511 607.5,-85.751"/>
</g>
<!-- Node10&#45;&gt;Node4 -->
<g id="edge11" class="edge"><title>Node10&#45;&gt;Node4</title>
<path fill="none" stroke="midnightblue" d="M594.751,-288.111C650.648,-285.585 780.236,-276.299 807,-244 844.432,-198.827 831.388,-165.357 807,-112 801.223,-99.3602 789.948,-88.911 779.369,-81.2737"/>
<polygon fill="midnightblue" stroke="midnightblue" points="781.042,-78.1817 770.783,-75.5333 777.151,-84.0009 781.042,-78.1817"/>
</g>
<!-- Node11 -->
<g id="node11" class="node"><title>Node11</title>
<g id="a_node11"><a xlink:href="../../d1/d6c/cipconnectionobject_8h.html" target="_top" xlink:title="cipconnectionobject.h">
<polygon fill="none" stroke="black" points="357.5,-224.5 357.5,-243.5 468.5,-243.5 468.5,-224.5 357.5,-224.5"/>
<text text-anchor="middle" x="413" y="-231.5" font-family="Helvetica,sans-Serif" font-size="10.00">cipconnectionobject.h</text>
</a>
</g>
</g>
<!-- Node10&#45;&gt;Node11 -->
<g id="edge12" class="edge"><title>Node10&#45;&gt;Node11</title>
<path fill="none" stroke="midnightblue" d="M544.281,-280.444C518.152,-271.399 476.741,-257.064 447.424,-246.916"/>
<polygon fill="midnightblue" stroke="midnightblue" points="448.198,-243.48 437.603,-243.516 445.908,-250.095 448.198,-243.48"/>
</g>
<!-- Node11&#45;&gt;Node4 -->
<g id="edge13" class="edge"><title>Node11&#45;&gt;Node4</title>
<path fill="none" stroke="midnightblue" d="M468.606,-232.89C550.588,-231.5 698.178,-223.914 735,-188 762.474,-161.203 761.174,-112.155 758,-85.4744"/>
<polygon fill="midnightblue" stroke="midnightblue" points="761.461,-84.9547 756.603,-75.5395 754.529,-85.9295 761.461,-84.9547"/>
</g>
<!-- Node11&#45;&gt;Node8 -->
<g id="edge14" class="edge"><title>Node11&#45;&gt;Node8</title>
<path fill="none" stroke="midnightblue" d="M416.362,-224.453C422.268,-210.541 435.825,-183.045 456,-168 487.334,-144.633 530.879,-133.29 562.62,-127.853"/>
<polygon fill="midnightblue" stroke="midnightblue" points="563.568,-131.246 572.898,-126.226 562.474,-124.332 563.568,-131.246"/>
</g>
<!-- Node12 -->
<g id="node12" class="node"><title>Node12</title>
<polygon fill="none" stroke="#bfbfbf" points="124,-112.5 124,-131.5 226,-131.5 226,-112.5 124,-112.5"/>
<text text-anchor="middle" x="175" y="-119.5" font-family="Helvetica,sans-Serif" font-size="10.00">opener_user_conf.h</text>
</g>
<!-- Node11&#45;&gt;Node12 -->
<g id="edge15" class="edge"><title>Node11&#45;&gt;Node12</title>
<path fill="none" stroke="midnightblue" d="M357.401,-232.91C313.389,-230.163 252.468,-220.117 210,-188 194.7,-176.429 185.327,-156.17 180.18,-141.337"/>
<polygon fill="midnightblue" stroke="midnightblue" points="183.488,-140.19 177.155,-131.697 176.809,-142.286 183.488,-140.19"/>
</g>
<!-- Node11&#45;&gt;Node13 -->
<g id="edge16" class="edge"><title>Node11&#45;&gt;Node13</title>
<path fill="none" stroke="midnightblue" d="M387.964,-224.444C361.384,-215.359 319.191,-200.939 289.477,-190.783"/>
<polygon fill="midnightblue" stroke="midnightblue" points="290.513,-187.439 279.918,-187.516 288.249,-194.062 290.513,-187.439"/>
</g>
<!-- Node16 -->
<g id="node16" class="node"><title>Node16</title>
<g id="a_node16"><a xlink:href="../../d9/d31/doublylinkedlist_8h.html" target="_top" xlink:title="doublylinkedlist.h">
<polygon fill="none" stroke="black" points="465,-168.5 465,-187.5 557,-187.5 557,-168.5 465,-168.5"/>
<text text-anchor="middle" x="511" y="-175.5" font-family="Helvetica,sans-Serif" font-size="10.00">doublylinkedlist.h</text>
</a>
</g>
</g>
<!-- Node11&#45;&gt;Node16 -->
<g id="edge23" class="edge"><title>Node11&#45;&gt;Node16</title>
<path fill="none" stroke="midnightblue" d="M428.745,-224.324C444.319,-215.743 468.377,-202.486 486.459,-192.522"/>
<polygon fill="midnightblue" stroke="midnightblue" points="488.224,-195.546 495.294,-187.655 484.846,-189.415 488.224,-195.546"/>
</g>
<!-- Node17 -->
<g id="node17" class="node"><title>Node17</title>
<g id="a_node17"><a xlink:href="../../d0/d23/cipelectronickey_8h.html" target="_top" xlink:title="cipelectronickey.h">
<polygon fill="none" stroke="black" points="428.5,-112.5 428.5,-131.5 523.5,-131.5 523.5,-112.5 428.5,-112.5"/>
<text text-anchor="middle" x="476" y="-119.5" font-family="Helvetica,sans-Serif" font-size="10.00">cipelectronickey.h</text>
</a>
</g>
</g>
<!-- Node11&#45;&gt;Node17 -->
<g id="edge24" class="edge"><title>Node11&#45;&gt;Node17</title>
<path fill="none" stroke="midnightblue" d="M412.482,-224.393C412.084,-211.339 412.86,-186.138 423,-168 429.902,-155.653 441.591,-145.18 452.238,-137.453"/>
<polygon fill="midnightblue" stroke="midnightblue" points="454.506,-140.144 460.809,-131.628 450.571,-134.355 454.506,-140.144"/>
</g>
<!-- Node18 -->
<g id="node18" class="node"><title>Node18</title>
<g id="a_node18"><a xlink:href="../../d1/d02/cipepath_8h.html" target="_top" xlink:title="cipepath.h">
<polygon fill="none" stroke="black" points="309,-168.5 309,-187.5 371,-187.5 371,-168.5 309,-168.5"/>
<text text-anchor="middle" x="340" y="-175.5" font-family="Helvetica,sans-Serif" font-size="10.00">cipepath.h</text>
</a>
</g>
</g>
<!-- Node11&#45;&gt;Node18 -->
<g id="edge27" class="edge"><title>Node11&#45;&gt;Node18</title>
<path fill="none" stroke="midnightblue" d="M401.271,-224.324C390.163,-216.107 373.258,-203.602 360.017,-193.807"/>
<polygon fill="midnightblue" stroke="midnightblue" points="362.063,-190.967 351.942,-187.834 357.9,-196.595 362.063,-190.967"/>
</g>
<!-- Node13&#45;&gt;Node4 -->
<g id="edge19" class="edge"><title>Node13&#45;&gt;Node4</title>
<path fill="none" stroke="midnightblue" d="M272.716,-168.304C302.281,-154.179 363.879,-126.383 419,-112 473.865,-97.6838 636.493,-79.4248 713.578,-71.2689"/>
<polygon fill="midnightblue" stroke="midnightblue" points="714.289,-74.7136 723.868,-70.1866 713.556,-67.752 714.289,-74.7136"/>
</g>
<!-- Node13&#45;&gt;Node7 -->
<g id="edge18" class="edge"><title>Node13&#45;&gt;Node7</title>
<path fill="none" stroke="midnightblue" d="M255.488,-168.157C256.627,-154.796 260.415,-129.198 273,-112 304.554,-68.8796 360.553,-39.1503 395.902,-23.6175"/>
<polygon fill="midnightblue" stroke="midnightblue" points="397.462,-26.757 405.287,-19.6136 394.715,-20.3185 397.462,-26.757"/>
</g>
<!-- Node13&#45;&gt;Node8 -->
<g id="edge20" class="edge"><title>Node13&#45;&gt;Node8</title>
<path fill="none" stroke="midnightblue" d="M291.32,-169.573C294.253,-169.023 297.174,-168.491 300,-168 393.719,-151.702 504.353,-136.278 562.881,-128.416"/>
<polygon fill="midnightblue" stroke="midnightblue" points="563.398,-131.879 572.845,-127.084 562.469,-124.94 563.398,-131.879"/>
</g>
<!-- Node13&#45;&gt;Node12 -->
<g id="edge22" class="edge"><title>Node13&#45;&gt;Node12</title>
<path fill="none" stroke="midnightblue" d="M242.147,-168.324C229.784,-159.979 210.87,-147.212 196.263,-137.352"/>
<polygon fill="midnightblue" stroke="midnightblue" points="198.068,-134.348 187.821,-131.655 194.152,-140.15 198.068,-134.348"/>
</g>
<!-- Node14 -->
<g id="node14" class="node"><title>Node14</title>
<polygon fill="none" stroke="#bfbfbf" points="282,-112.5 282,-131.5 334,-131.5 334,-112.5 282,-112.5"/>
<text text-anchor="middle" x="308" y="-119.5" font-family="Helvetica,sans-Serif" font-size="10.00">assert.h</text>
</g>
<!-- Node13&#45;&gt;Node14 -->
<g id="edge17" class="edge"><title>Node13&#45;&gt;Node14</title>
<path fill="none" stroke="midnightblue" d="M263.752,-168.083C271.47,-160.22 282.905,-148.569 292.217,-139.081"/>
<polygon fill="midnightblue" stroke="midnightblue" points="294.904,-141.34 299.411,-131.751 289.908,-136.436 294.904,-141.34"/>
</g>
<!-- Node13&#45;&gt;Node15 -->
<g id="edge21" class="edge"><title>Node13&#45;&gt;Node15</title>
<path fill="none" stroke="midnightblue" d="M226.795,-168.444C196.59,-159.28 148.489,-144.688 114.971,-134.519"/>
<polygon fill="midnightblue" stroke="midnightblue" points="115.658,-131.07 105.073,-131.516 113.626,-137.769 115.658,-131.07"/>
</g>
<!-- Node17&#45;&gt;Node4 -->
<g id="edge26" class="edge"><title>Node17&#45;&gt;Node4</title>
<path fill="none" stroke="midnightblue" d="M520.208,-112.444C573.507,-102.128 662.355,-84.9314 714.119,-74.9124"/>
<polygon fill="midnightblue" stroke="midnightblue" points="714.804,-78.3449 723.957,-73.0084 713.474,-71.4725 714.804,-78.3449"/>
</g>
<!-- Node17&#45;&gt;Node7 -->
<g id="edge25" class="edge"><title>Node17&#45;&gt;Node7</title>
<path fill="none" stroke="midnightblue" d="M472.234,-112.368C464.417,-94.4563 446.294,-52.9233 435.832,-28.9482"/>
<polygon fill="midnightblue" stroke="midnightblue" points="438.956,-27.357 431.749,-19.5914 432.541,-30.1566 438.956,-27.357"/>
</g>
<!-- Node18&#45;&gt;Node7 -->
<g id="edge28" class="edge"><title>Node18&#45;&gt;Node7</title>
<path fill="none" stroke="midnightblue" d="M344.731,-168.075C358.703,-141.719 399.968,-63.878 418.638,-28.6608"/>
<polygon fill="midnightblue" stroke="midnightblue" points="421.866,-30.0427 423.458,-19.5681 415.682,-26.7641 421.866,-30.0427"/>
</g>
<!-- Node18&#45;&gt;Node8 -->
<g id="edge29" class="edge"><title>Node18&#45;&gt;Node8</title>
<path fill="none" stroke="midnightblue" d="M371.06,-170.647C418.596,-160.924 509.45,-142.34 562.555,-131.477"/>
<polygon fill="midnightblue" stroke="midnightblue" points="563.553,-134.846 572.648,-129.413 562.15,-127.988 563.553,-134.846"/>
</g>
<!-- Node18&#45;&gt;Node17 -->
<g id="edge30" class="edge"><title>Node18&#45;&gt;Node17</title>
<path fill="none" stroke="midnightblue" d="M361.55,-168.444C384.031,-159.517 419.488,-145.439 444.98,-135.317"/>
<polygon fill="midnightblue" stroke="midnightblue" points="446.549,-138.46 454.551,-131.516 443.965,-131.954 446.549,-138.46"/>
</g>
<!-- Node19&#45;&gt;Node4 -->
<g id="edge33" class="edge"><title>Node19&#45;&gt;Node4</title>
<path fill="none" stroke="midnightblue" d="M694.179,-168.368C705.023,-150.296 730.294,-108.176 744.616,-84.3074"/>
<polygon fill="midnightblue" stroke="midnightblue" points="747.701,-85.9671 749.845,-75.5914 741.699,-82.3656 747.701,-85.9671"/>
</g>
<!-- Node19&#45;&gt;Node8 -->
<g id="edge34" class="edge"><title>Node19&#45;&gt;Node8</title>
<path fill="none" stroke="midnightblue" d="M675.343,-168.324C662.084,-159.9 641.732,-146.971 626.154,-137.074"/>
<polygon fill="midnightblue" stroke="midnightblue" points="627.94,-134.063 617.623,-131.655 624.187,-139.971 627.94,-134.063"/>
</g>
<!-- Node20&#45;&gt;Node4 -->
<g id="edge36" class="edge"><title>Node20&#45;&gt;Node4</title>
<path fill="none" stroke="midnightblue" d="M941.365,-168.179C930.558,-154.377 907.852,-127.641 883,-112 856.249,-95.1636 822.373,-83.6135 796.192,-76.4338"/>
<polygon fill="midnightblue" stroke="midnightblue" points="796.769,-72.9665 786.208,-73.8035 794.986,-79.7355 796.769,-72.9665"/>
</g>
<!-- Node20&#45;&gt;Node8 -->
<g id="edge37" class="edge"><title>Node20&#45;&gt;Node8</title>
<path fill="none" stroke="midnightblue" d="M896.871,-168.974C828.436,-158.231 708.38,-139.385 645.335,-129.489"/>
<polygon fill="midnightblue" stroke="midnightblue" points="645.777,-126.015 635.355,-127.922 644.691,-132.931 645.777,-126.015"/>
</g>
<!-- Node21&#45;&gt;Node4 -->
<g id="edge39" class="edge"><title>Node21&#45;&gt;Node4</title>
<path fill="none" stroke="midnightblue" d="M1009.76,-280.325C1015.9,-259.337 1028.48,-204.837 1007,-168 964.102,-94.4484 856.257,-74.4082 796.491,-68.9831"/>
<polygon fill="midnightblue" stroke="midnightblue" points="796.52,-65.474 786.27,-68.1555 795.955,-72.4512 796.52,-65.474"/>
</g>
<!-- Node22&#45;&gt;Node4 -->
<g id="edge44" class="edge"><title>Node22&#45;&gt;Node4</title>
<path fill="none" stroke="midnightblue" d="M461.415,-280.453C545.356,-264.728 712.974,-229.035 755,-188 779.836,-163.749 779.564,-146.086 773,-112 771.21,-102.705 767.517,-92.8887 763.939,-84.8048"/>
<polygon fill="midnightblue" stroke="midnightblue" points="767.056,-83.2089 759.621,-75.6611 760.727,-86.1981 767.056,-83.2089"/>
</g>
<!-- Node22&#45;&gt;Node8 -->
<g id="edge45" class="edge"><title>Node22&#45;&gt;Node8</title>
<path fill="none" stroke="midnightblue" d="M431.434,-280.362C462.3,-265.188 525.075,-231.216 566,-188 579.036,-174.235 589.497,-155.204 596.118,-141.292"/>
<polygon fill="midnightblue" stroke="midnightblue" points="599.469,-142.377 600.411,-131.824 593.094,-139.486 599.469,-142.377"/>
</g>
<!-- Node22&#45;&gt;Node11 -->
<g id="edge46" class="edge"><title>Node22&#45;&gt;Node11</title>
<path fill="none" stroke="midnightblue" d="M413,-280.083C413,-273.006 413,-262.861 413,-253.986"/>
<polygon fill="midnightblue" stroke="midnightblue" points="416.5,-253.751 413,-243.751 409.5,-253.751 416.5,-253.751"/>
</g>
<!-- Node22&#45;&gt;Node12 -->
<g id="edge42" class="edge"><title>Node22&#45;&gt;Node12</title>
<path fill="none" stroke="midnightblue" d="M364.512,-280.433C313.021,-268.72 233.107,-242.58 189,-188 178.466,-174.965 175.377,-155.808 174.677,-141.666"/>
<polygon fill="midnightblue" stroke="midnightblue" points="178.176,-141.56 174.531,-131.612 171.177,-141.662 178.176,-141.56"/>
</g>
<!-- Node22&#45;&gt;Node13 -->
<g id="edge43" class="edge"><title>Node22&#45;&gt;Node13</title>
<path fill="none" stroke="midnightblue" d="M400.528,-280.39C387.434,-271.345 366.253,-256.697 348,-244 323.125,-226.696 294.564,-206.718 275.73,-193.528"/>
<polygon fill="midnightblue" stroke="midnightblue" points="277.522,-190.51 267.323,-187.639 273.506,-196.243 277.522,-190.51"/>
</g>
<!-- Node23&#45;&gt;Node12 -->
<g id="edge48" class="edge"><title>Node23&#45;&gt;Node12</title>
<path fill="none" stroke="midnightblue" d="M128.936,-224.191C129.151,-211.308 130.738,-186.818 139,-168 143.657,-157.393 151.465,-147.176 158.622,-139.166"/>
<polygon fill="midnightblue" stroke="midnightblue" points="161.359,-141.365 165.684,-131.693 156.272,-136.557 161.359,-141.365"/>
</g>
</g>
</svg>
        <g id="navigator" transform="translate(0 0)" fill="#404254">
                <rect fill="#f2f5e9" fill-opacity="0.5" stroke="#606060" stroke-width=".5" x="0" y="0" width="60" height="60"/>
                <use id="zoomplus" xlink:href="#zoomPlus" x="17" y="9" onmousedown="handleZoom(evt,'in')"/>
                <use id="zoomminus" xlink:href="#zoomMin" x="42" y="9" onmousedown="handleZoom(evt,'out')"/>
                <use id="reset" xlink:href="#resetDef" x="30" y="36" onmousedown="handleReset()"/>
                <g id="arrowUp" xlink:href="#dirArrow" transform="translate(30 24)" onmousedown="handlePan(0,-1)">
                  <use xlink:href="#rim" fill="#404040">
                        <set attributeName="fill" to="#808080" begin="arrowUp.mouseover" end="arrowUp.mouseout"/>
                  </use>
                  <path fill="none" stroke="white" stroke-width="1.5" d="M0,-3.0v7 M-2.5,-0.5L0,-3.0L2.5,-0.5"/>
                </g>
                <g id="arrowRight" xlink:href="#dirArrow" transform="rotate(90) translate(36 -43)" onmousedown="handlePan(1,0)">
                  <use xlink:href="#rim" fill="#404040">
                        <set attributeName="fill" to="#808080" begin="arrowRight.mouseover" end="arrowRight.mouseout"/>
                  </use>
                  <path fill="none" stroke="white" stroke-width="1.5" d="M0,-3.0v7 M-2.5,-0.5L0,-3.0L2.5,-0.5"/>
                </g>
                <g id="arrowDown" xlink:href="#dirArrow" transform="rotate(180) translate(-30 -48)" onmousedown="handlePan(0,1)">
                  <use xlink:href="#rim" fill="#404040">
                        <set attributeName="fill" to="#808080" begin="arrowDown.mouseover" end="arrowDown.mouseout"/>
                  </use>
                  <path fill="none" stroke="white" stroke-width="1.5" d="M0,-3.0v7 M-2.5,-0.5L0,-3.0L2.5,-0.5"/>
                </g>
                <g id="arrowLeft" xlink:href="#dirArrow" transform="rotate(270) translate(-36 17)" onmousedown="handlePan(-1,0)">
                  <use xlink:href="#rim" fill="#404040">
                        <set attributeName="fill" to="#808080" begin="arrowLeft.mouseover" end="arrowLeft.mouseout"/>
                  </use>
                  <path fill="none" stroke="white" stroke-width="1.5" d="M0,-3.0v7 M-2.5,-0.5L0,-3.0L2.5,-0.5"/>
                </g>
        </g>
        <svg viewBox="0 0 15 15" width="100%" height="30px" preserveAspectRatio="xMaxYMin meet">
         <g id="arrow_out" transform="scale(0.3 0.3)">
          <a xlink:href="cpf_8c__incl_org.svg" target="_base">
           <rect id="button" ry="5" rx="5" y="6" x="6" height="38" width="38"
                fill="#f2f5e9" fill-opacity="0.5" stroke="#606060" stroke-width="1.0"/>
           <path id="arrow"
             d="M 11.500037,31.436501 C 11.940474,20.09759 22.043105,11.32322 32.158766,21.979434 L 37.068811,17.246167 C 37.068811,17.246167 37.088388,32 37.088388,32 L 22.160133,31.978069 C 22.160133,31.978069 26.997745,27.140456 26.997745,27.140456 C 18.528582,18.264221 13.291696,25.230495 11.500037,31.436501 z"
             style="fill:#404040;"/>
          </a>
         </g>
        </svg>
</svg>
