<?xml version="1.0" encoding="UTF-8" standalone="no"?>
<!DOCTYPE svg PUBLIC "-//W3C//DTD SVG 1.1//EN"
 "http://www.w3.org/Graphics/SVG/1.1/DTD/svg11.dtd">
<!-- Generated by graphviz version 2.36.0 (20140111.2315)
 -->
<!-- Title: src/enet_encap/cpf.c Pages: 1 -->
<!--zoomable 364 -->
<svg id="main" version="1.1" xmlns="http://www.w3.org/2000/svg" xmlns:xlink="http://www.w3.org/1999/xlink" xml:space="preserve" onload="init(evt)">
<style type="text/css"><![CDATA[
.edge:hover path { stroke: red; }
.edge:hover polygon { stroke: red; fill: red; }
]]></style>
<script type="text/javascript"><![CDATA[
var edges = document.getElementsByTagName('g');
if (edges && edges.length) {
  for (var i=0;i<edges.length;i++) {
    if (edges[i].id.substr(0,4)=='edge') {
      edges[i].setAttribute('class','edge');
    }
  }
}
]]></script>
        <defs>
                <circle id="rim" cx="0" cy="0" r="7"/>
                <circle id="rim2" cx="0" cy="0" r="3.5"/>
                <g id="zoomPlus">
                        <use xlink:href="#rim" fill="#404040">
                                <set attributeName="fill" to="#808080" begin="zoomplus.mouseover" end="zoomplus.mouseout"/>
                        </use>
                        <path d="M-4,0h8M0,-4v8" fill="none" stroke="white" stroke-width="1.5" pointer-events="none"/>
                </g>
                <g id="zoomMin">
                        <use xlink:href="#rim" fill="#404040">
                                <set attributeName="fill" to="#808080" begin="zoomminus.mouseover" end="zoomminus.mouseout"/>
                        </use>
                        <path d="M-4,0h8" fill="none" stroke="white" stroke-width="1.5" pointer-events="none"/>
                </g>
                <g id="dirArrow">
                        <path fill="none" stroke="white" stroke-width="1.5" d="M0,-3.0v7 M-2.5,-0.5L0,-3.0L2.5,-0.5"/>
                </g>
               <g id="resetDef">
                       <use xlink:href="#rim2" fill="#404040">
                               <set attributeName="fill" to="#808080" begin="reset.mouseover" end="reset.mouseout"/>
                       </use>
               </g>
        </defs>

<script type="text/javascript">
var viewWidth = 978;
var viewHeight = 364;
var sectionId = 'dynsection-0';
</script>
<script xlink:href="../../svgpan.js"/>
<svg id="graph" class="graph">
<g id="viewport">
<title>src/enet_encap/cpf.c</title>
<!-- Node1 -->
<g id="node1" class="node"><title>Node1</title>
<polygon fill="#bfbfbf" stroke="black" points="231.947,-336.5 231.947,-355.5 339.947,-355.5 339.947,-336.5 231.947,-336.5"/>
<text text-anchor="middle" x="285.947" y="-343.5" font-family="Helvetica,sans-Serif" font-size="10.00">src/enet_encap/cpf.c</text>
</g>
<!-- Node2 -->
<g id="node2" class="node"><title>Node2</title>
<polygon fill="none" stroke="#bfbfbf" points="40.4468,-280.5 40.4468,-299.5 89.4468,-299.5 89.4468,-280.5 40.4468,-280.5"/>
<text text-anchor="middle" x="64.9468" y="-287.5" font-family="Helvetica,sans-Serif" font-size="10.00">string.h</text>
</g>
<!-- Node1&#45;&gt;Node2 -->
<g id="edge1" class="edge"><title>Node1&#45;&gt;Node2</title>
<path fill="none" stroke="midnightblue" d="M250.929,-336.444C209.414,-326.3 140.671,-309.503 99.4032,-299.419"/>
<polygon fill="midnightblue" stroke="midnightblue" points="100.082,-295.982 89.5368,-297.008 98.4202,-302.782 100.082,-295.982"/>
</g>
<!-- Node3 -->
<g id="node3" class="node"><title>Node3</title>
<g id="a_node3"><a xlink:href="../../d0/dff/cpf_8h.html" target="_top" xlink:title="cpf.h">
<polygon fill="none" stroke="black" points="20.9468,-168.5 20.9468,-187.5 58.9468,-187.5 58.9468,-168.5 20.9468,-168.5"/>
<text text-anchor="middle" x="39.9468" y="-175.5" font-family="Helvetica,sans-Serif" font-size="10.00">cpf.h</text>
</a>
</g>
</g>
<!-- Node1&#45;&gt;Node3 -->
<g id="edge2" class="edge"><title>Node1&#45;&gt;Node3</title>
<path fill="none" stroke="midnightblue" d="M271.745,-336.407C257.128,-327.497 233.757,-313.068 213.947,-300 157.517,-262.777 92.4625,-216.659 60.2283,-193.587"/>
<polygon fill="midnightblue" stroke="midnightblue" points="62.2077,-190.699 52.0414,-187.716 58.1288,-196.388 62.2077,-190.699"/>
</g>
<!-- Node11 -->
<g id="node11" class="node"><title>Node11</title>
<g id="a_node11"><a xlink:href="../../d4/d38/opener__api_8h.html" target="_top" xlink:title="opener_api.h">
<polygon fill="none" stroke="black" points="707.947,-168.5 707.947,-187.5 779.947,-187.5 779.947,-168.5 707.947,-168.5"/>
<text text-anchor="middle" x="743.947" y="-175.5" font-family="Helvetica,sans-Serif" font-size="10.00">opener_api.h</text>
</a>
</g>
</g>
<!-- Node1&#45;&gt;Node11 -->
<g id="edge12" class="edge"><title>Node1&#45;&gt;Node11</title>
<path fill="none" stroke="midnightblue" d="M339.977,-339.925C393.273,-333.929 476.593,-321.881 545.947,-300 601.691,-282.413 615.552,-275.255 664.947,-244 687.995,-229.416 711.818,-208.94 727.193,-194.888"/>
<polygon fill="midnightblue" stroke="midnightblue" points="729.859,-197.189 734.807,-187.821 725.097,-192.059 729.859,-197.189"/>
</g>
<!-- Node13 -->
<g id="node13" class="node"><title>Node13</title>
<g id="a_node13"><a xlink:href="../../d6/d52/ciperror_8h.html" target="_top" xlink:title="ciperror.h">
<polygon fill="none" stroke="black" points="913.447,-112.5 913.447,-131.5 970.447,-131.5 970.447,-112.5 913.447,-112.5"/>
<text text-anchor="middle" x="941.947" y="-119.5" font-family="Helvetica,sans-Serif" font-size="10.00">ciperror.h</text>
</a>
</g>
</g>
<!-- Node1&#45;&gt;Node13 -->
<g id="edge27" class="edge"><title>Node1&#45;&gt;Node13</title>
<path fill="none" stroke="midnightblue" d="M340.139,-344.584C430.546,-342.869 617.377,-334.959 770.947,-300 840.739,-284.112 876.4,-299.216 921.947,-244 946.023,-214.812 946.311,-167.842 944.235,-141.842"/>
<polygon fill="midnightblue" stroke="midnightblue" points="947.709,-141.402 943.228,-131.802 940.744,-142.101 947.709,-141.402"/>
</g>
<!-- Node15 -->
<g id="node15" class="node"><title>Node15</title>
<g id="a_node15"><a xlink:href="../../db/d14/cipcommon_8h.html" target="_top" xlink:title="cipcommon.h">
<polygon fill="none" stroke="black" points="234.447,-168.5 234.447,-187.5 309.447,-187.5 309.447,-168.5 234.447,-168.5"/>
<text text-anchor="middle" x="271.947" y="-175.5" font-family="Helvetica,sans-Serif" font-size="10.00">cipcommon.h</text>
</a>
</g>
</g>
<!-- Node1&#45;&gt;Node15 -->
<g id="edge19" class="edge"><title>Node1&#45;&gt;Node15</title>
<path fill="none" stroke="midnightblue" d="M285.194,-336.075C282.99,-309.945 276.519,-233.211 273.513,-197.577"/>
<polygon fill="midnightblue" stroke="midnightblue" points="276.997,-197.239 272.669,-187.568 270.022,-197.827 276.997,-197.239"/>
</g>
<!-- Node16 -->
<g id="node16" class="node"><title>Node16</title>
<g id="a_node16"><a xlink:href="../../d2/d75/cipmessagerouter_8h.html" target="_top" xlink:title="cipmessagerouter.h">
<polygon fill="none" stroke="black" points="114.947,-168.5 114.947,-187.5 216.947,-187.5 216.947,-168.5 114.947,-168.5"/>
<text text-anchor="middle" x="165.947" y="-175.5" font-family="Helvetica,sans-Serif" font-size="10.00">cipmessagerouter.h</text>
</a>
</g>
</g>
<!-- Node1&#45;&gt;Node16 -->
<g id="edge22" class="edge"><title>Node1&#45;&gt;Node16</title>
<path fill="none" stroke="midnightblue" d="M283.512,-336.243C277.294,-315.071 259.148,-260.193 228.947,-224 218.483,-211.46 203.759,-200.686 191.177,-192.827"/>
<polygon fill="midnightblue" stroke="midnightblue" points="192.865,-189.759 182.485,-187.636 189.276,-195.769 192.865,-189.759"/>
</g>
<!-- Node17 -->
<g id="node17" class="node"><title>Node17</title>
<g id="a_node17"><a xlink:href="../../d0/dec/endianconv_8h.html" target="_top" xlink:title="Responsible for Endianess conversion. ">
<polygon fill="none" stroke="black" points="145.947,-224.5 145.947,-243.5 219.947,-243.5 219.947,-224.5 145.947,-224.5"/>
<text text-anchor="middle" x="182.947" y="-231.5" font-family="Helvetica,sans-Serif" font-size="10.00">endianconv.h</text>
</a>
</g>
</g>
<!-- Node1&#45;&gt;Node17 -->
<g id="edge25" class="edge"><title>Node1&#45;&gt;Node17</title>
<path fill="none" stroke="midnightblue" d="M274.641,-336.269C263.718,-327.596 246.961,-313.655 233.947,-300 219.474,-284.814 204.893,-265.765 195.05,-252.223"/>
<polygon fill="midnightblue" stroke="midnightblue" points="197.719,-249.938 189.053,-243.843 192.026,-254.012 197.719,-249.938"/>
</g>
<!-- Node18 -->
<g id="node18" class="node"><title>Node18</title>
<g id="a_node18"><a xlink:href="../../d2/da3/cipconnectionmanager_8h.html" target="_top" xlink:title="cipconnectionmanager.h">
<polygon fill="none" stroke="black" points="414.947,-280.5 414.947,-299.5 536.947,-299.5 536.947,-280.5 414.947,-280.5"/>
<text text-anchor="middle" x="475.947" y="-287.5" font-family="Helvetica,sans-Serif" font-size="10.00">cipconnectionmanager.h</text>
</a>
</g>
</g>
<!-- Node1&#45;&gt;Node18 -->
<g id="edge28" class="edge"><title>Node1&#45;&gt;Node18</title>
<path fill="none" stroke="midnightblue" d="M316.053,-336.444C348.572,-327.201 400.525,-312.436 436.338,-302.257"/>
<polygon fill="midnightblue" stroke="midnightblue" points="437.319,-305.617 445.982,-299.516 435.406,-298.884 437.319,-305.617"/>
</g>
<!-- Node23 -->
<g id="node23" class="node"><title>Node23</title>
<g id="a_node23"><a xlink:href="../../d1/d1b/trace_8h.html" target="_top" xlink:title="Tracing infrastructure for OpENer. ">
<polygon fill="none" stroke="black" points="866.447,-224.5 866.447,-243.5 913.447,-243.5 913.447,-224.5 866.447,-224.5"/>
<text text-anchor="middle" x="889.947" y="-231.5" font-family="Helvetica,sans-Serif" font-size="10.00">trace.h</text>
</a>
</g>
</g>
<!-- Node1&#45;&gt;Node23 -->
<g id="edge46" class="edge"><title>Node1&#45;&gt;Node23</title>
<path fill="none" stroke="midnightblue" d="M340.183,-344.336C424.375,-342.226 591.078,-333.714 727.947,-300 777.598,-287.77 832.178,-263.423 863.617,-248.245"/>
<polygon fill="midnightblue" stroke="midnightblue" points="865.532,-251.205 872.977,-243.667 862.456,-244.917 865.532,-251.205"/>
</g>
<!-- Node4 -->
<g id="node4" class="node"><title>Node4</title>
<g id="a_node4"><a xlink:href="../../d7/d69/typedefs_8h.html" target="_top" xlink:title="typedefs.h">
<polygon fill="none" stroke="black" points="260.947,-56.5 260.947,-75.5 322.947,-75.5 322.947,-56.5 260.947,-56.5"/>
<text text-anchor="middle" x="291.947" y="-63.5" font-family="Helvetica,sans-Serif" font-size="10.00">typedefs.h</text>
</a>
</g>
</g>
<!-- Node3&#45;&gt;Node4 -->
<g id="edge3" class="edge"><title>Node3&#45;&gt;Node4</title>
<path fill="none" stroke="midnightblue" d="M29.0631,-168.29C13.8708,-155.101 -10.2163,-129.726 4.94676,-112 36.0775,-75.6077 178.963,-68.4452 250.663,-67.1725"/>
<polygon fill="midnightblue" stroke="midnightblue" points="250.756,-70.6716 260.704,-67.0247 250.653,-63.6724 250.756,-70.6716"/>
</g>
<!-- Node8 -->
<g id="node8" class="node"><title>Node8</title>
<g id="a_node8"><a xlink:href="../../df/d28/ciptypes_8h.html" target="_top" xlink:title="ciptypes.h">
<polygon fill="none" stroke="black" points="337.947,-112.5 337.947,-131.5 399.947,-131.5 399.947,-112.5 337.947,-112.5"/>
<text text-anchor="middle" x="368.947" y="-119.5" font-family="Helvetica,sans-Serif" font-size="10.00">ciptypes.h</text>
</a>
</g>
</g>
<!-- Node3&#45;&gt;Node8 -->
<g id="edge7" class="edge"><title>Node3&#45;&gt;Node8</title>
<path fill="none" stroke="midnightblue" d="M59.0573,-173.863C111.081,-165.324 256.127,-141.518 327.795,-129.754"/>
<polygon fill="midnightblue" stroke="midnightblue" points="328.516,-133.183 337.817,-128.109 327.382,-126.275 328.516,-133.183"/>
</g>
<!-- Node10 -->
<g id="node10" class="node"><title>Node10</title>
<g id="a_node10"><a xlink:href="../../d7/df9/encap_8h.html" target="_top" xlink:title="This file contains the public interface of the encapsulation layer. ">
<polygon fill="none" stroke="black" points="14.4468,-112.5 14.4468,-131.5 65.4468,-131.5 65.4468,-112.5 14.4468,-112.5"/>
<text text-anchor="middle" x="39.9468" y="-119.5" font-family="Helvetica,sans-Serif" font-size="10.00">encap.h</text>
</a>
</g>
</g>
<!-- Node3&#45;&gt;Node10 -->
<g id="edge10" class="edge"><title>Node3&#45;&gt;Node10</title>
<path fill="none" stroke="midnightblue" d="M39.9468,-168.083C39.9468,-161.006 39.9468,-150.861 39.9468,-141.986"/>
<polygon fill="midnightblue" stroke="midnightblue" points="43.4469,-141.751 39.9468,-131.751 36.4469,-141.751 43.4469,-141.751"/>
</g>
<!-- Node5 -->
<g id="node5" class="node"><title>Node5</title>
<polygon fill="none" stroke="#bfbfbf" points="225.447,-0.5 225.447,-19.5 284.447,-19.5 284.447,-0.5 225.447,-0.5"/>
<text text-anchor="middle" x="254.947" y="-7.5" font-family="Helvetica,sans-Serif" font-size="10.00">inttypes.h</text>
</g>
<!-- Node4&#45;&gt;Node5 -->
<g id="edge4" class="edge"><title>Node4&#45;&gt;Node5</title>
<path fill="none" stroke="midnightblue" d="M285.837,-56.083C280.665,-48.5341 273.101,-37.4948 266.752,-28.2298"/>
<polygon fill="midnightblue" stroke="midnightblue" points="269.482,-26.0221 260.943,-19.7511 263.708,-29.9787 269.482,-26.0221"/>
</g>
<!-- Node6 -->
<g id="node6" class="node"><title>Node6</title>
<polygon fill="none" stroke="#bfbfbf" points="302.947,-0.5 302.947,-19.5 354.947,-19.5 354.947,-0.5 302.947,-0.5"/>
<text text-anchor="middle" x="328.947" y="-7.5" font-family="Helvetica,sans-Serif" font-size="10.00">stddef.h</text>
</g>
<!-- Node4&#45;&gt;Node6 -->
<g id="edge5" class="edge"><title>Node4&#45;&gt;Node6</title>
<path fill="none" stroke="midnightblue" d="M298.057,-56.083C303.229,-48.5341 310.793,-37.4948 317.141,-28.2298"/>
<polygon fill="midnightblue" stroke="midnightblue" points="320.186,-29.9787 322.951,-19.7511 314.411,-26.0221 320.186,-29.9787"/>
</g>
<!-- Node7 -->
<g id="node7" class="node"><title>Node7</title>
<polygon fill="none" stroke="#bfbfbf" points="590.947,-0.5 590.947,-19.5 646.947,-19.5 646.947,-0.5 590.947,-0.5"/>
<text text-anchor="middle" x="618.947" y="-7.5" font-family="Helvetica,sans-Serif" font-size="10.00">stdbool.h</text>
</g>
<!-- Node4&#45;&gt;Node7 -->
<g id="edge6" class="edge"><title>Node4&#45;&gt;Node7</title>
<path fill="none" stroke="midnightblue" d="M323.349,-57.7295C326.251,-57.1197 329.15,-56.5333 331.947,-56 420.611,-39.0932 525.57,-23.8326 580.709,-16.1792"/>
<polygon fill="midnightblue" stroke="midnightblue" points="581.304,-19.6304 590.732,-14.7958 580.347,-12.6961 581.304,-19.6304"/>
</g>
<!-- Node8&#45;&gt;Node4 -->
<g id="edge8" class="edge"><title>Node8&#45;&gt;Node4</title>
<path fill="none" stroke="midnightblue" d="M356.575,-112.324C344.788,-104.058 326.814,-91.4527 312.811,-81.6322"/>
<polygon fill="midnightblue" stroke="midnightblue" points="314.484,-78.5307 304.287,-75.6545 310.465,-84.2619 314.484,-78.5307"/>
</g>
<!-- Node9 -->
<g id="node9" class="node"><title>Node9</title>
<polygon fill="none" stroke="#bfbfbf" points="341.447,-56.5 341.447,-75.5 432.447,-75.5 432.447,-56.5 341.447,-56.5"/>
<text text-anchor="middle" x="386.947" y="-63.5" font-family="Helvetica,sans-Serif" font-size="10.00">networkhandler.h</text>
</g>
<!-- Node8&#45;&gt;Node9 -->
<g id="edge9" class="edge"><title>Node8&#45;&gt;Node9</title>
<path fill="none" stroke="midnightblue" d="M371.919,-112.083C374.331,-104.849 377.811,-94.4087 380.815,-85.3968"/>
<polygon fill="midnightblue" stroke="midnightblue" points="384.188,-86.3447 384.03,-75.7511 377.547,-84.1311 384.188,-86.3447"/>
</g>
<!-- Node10&#45;&gt;Node4 -->
<g id="edge11" class="edge"><title>Node10&#45;&gt;Node4</title>
<path fill="none" stroke="midnightblue" d="M65.7573,-115.144C70.4755,-114.088 75.3572,-113.003 79.9468,-112 139.203,-99.0453 207.897,-84.5617 250.645,-75.6118"/>
<polygon fill="midnightblue" stroke="midnightblue" points="251.599,-78.9882 260.67,-73.5149 250.165,-72.1365 251.599,-78.9882"/>
</g>
<!-- Node11&#45;&gt;Node4 -->
<g id="edge15" class="edge"><title>Node11&#45;&gt;Node4</title>
<path fill="none" stroke="midnightblue" d="M728.836,-168.462C703.06,-154.307 648.558,-126.144 598.947,-112 486.943,-80.069 451.722,-96.2165 333.507,-76.1177"/>
<polygon fill="midnightblue" stroke="midnightblue" points="333.791,-72.6141 323.337,-74.3348 332.582,-79.509 333.791,-72.6141"/>
</g>
<!-- Node11&#45;&gt;Node7 -->
<g id="edge14" class="edge"><title>Node11&#45;&gt;Node7</title>
<path fill="none" stroke="midnightblue" d="M746.589,-168.485C750.097,-155.552 754.875,-130.507 745.947,-112 725.647,-69.9205 678.35,-39.9738 647.553,-24.0999"/>
<polygon fill="midnightblue" stroke="midnightblue" points="649.085,-20.9529 638.574,-19.6275 645.965,-27.2187 649.085,-20.9529"/>
</g>
<!-- Node11&#45;&gt;Node8 -->
<g id="edge16" class="edge"><title>Node11&#45;&gt;Node8</title>
<path fill="none" stroke="midnightblue" d="M707.823,-169.729C704.488,-169.12 701.158,-168.533 697.947,-168 594.995,-150.902 473.131,-135.483 410.582,-127.919"/>
<polygon fill="midnightblue" stroke="midnightblue" points="410.684,-124.406 400.337,-126.686 409.847,-131.356 410.684,-124.406"/>
</g>
<!-- Node12 -->
<g id="node12" class="node"><title>Node12</title>
<polygon fill="none" stroke="#bfbfbf" points="684.947,-112.5 684.947,-131.5 736.947,-131.5 736.947,-112.5 684.947,-112.5"/>
<text text-anchor="middle" x="710.947" y="-119.5" font-family="Helvetica,sans-Serif" font-size="10.00">assert.h</text>
</g>
<!-- Node11&#45;&gt;Node12 -->
<g id="edge13" class="edge"><title>Node11&#45;&gt;Node12</title>
<path fill="none" stroke="midnightblue" d="M738.497,-168.083C733.932,-160.613 727.278,-149.724 721.653,-140.52"/>
<polygon fill="midnightblue" stroke="midnightblue" points="724.496,-138.459 716.295,-131.751 718.523,-142.109 724.496,-138.459"/>
</g>
<!-- Node11&#45;&gt;Node13 -->
<g id="edge17" class="edge"><title>Node11&#45;&gt;Node13</title>
<path fill="none" stroke="midnightblue" d="M775.32,-168.444C810.007,-158.984 865.909,-143.738 903.276,-133.546"/>
<polygon fill="midnightblue" stroke="midnightblue" points="904.565,-136.823 913.291,-130.815 902.723,-130.07 904.565,-136.823"/>
</g>
<!-- Node14 -->
<g id="node14" class="node"><title>Node14</title>
<polygon fill="none" stroke="#bfbfbf" points="792.947,-112.5 792.947,-131.5 894.947,-131.5 894.947,-112.5 792.947,-112.5"/>
<text text-anchor="middle" x="843.947" y="-119.5" font-family="Helvetica,sans-Serif" font-size="10.00">opener_user_conf.h</text>
</g>
<!-- Node11&#45;&gt;Node14 -->
<g id="edge18" class="edge"><title>Node11&#45;&gt;Node14</title>
<path fill="none" stroke="midnightblue" d="M760.013,-168.324C775.905,-159.743 800.454,-146.486 818.905,-136.522"/>
<polygon fill="midnightblue" stroke="midnightblue" points="820.784,-139.486 827.92,-131.655 817.458,-133.326 820.784,-139.486"/>
</g>
<!-- Node15&#45;&gt;Node4 -->
<g id="edge20" class="edge"><title>Node15&#45;&gt;Node4</title>
<path fill="none" stroke="midnightblue" d="M273.516,-168.368C276.744,-150.617 284.189,-109.666 288.565,-85.5974"/>
<polygon fill="midnightblue" stroke="midnightblue" points="292.039,-86.0562 290.385,-75.5914 285.152,-84.804 292.039,-86.0562"/>
</g>
<!-- Node15&#45;&gt;Node8 -->
<g id="edge21" class="edge"><title>Node15&#45;&gt;Node8</title>
<path fill="none" stroke="midnightblue" d="M287.531,-168.324C302.946,-159.743 326.759,-146.486 344.656,-136.522"/>
<polygon fill="midnightblue" stroke="midnightblue" points="346.366,-139.577 353.401,-131.655 342.961,-133.461 346.366,-139.577"/>
</g>
<!-- Node16&#45;&gt;Node4 -->
<g id="edge23" class="edge"><title>Node16&#45;&gt;Node4</title>
<path fill="none" stroke="midnightblue" d="M175.834,-168.368C197.087,-149.814 247.374,-105.913 274.264,-82.4376"/>
<polygon fill="midnightblue" stroke="midnightblue" points="276.874,-84.8046 282.106,-75.5914 272.271,-79.5314 276.874,-84.8046"/>
</g>
<!-- Node16&#45;&gt;Node8 -->
<g id="edge24" class="edge"><title>Node16&#45;&gt;Node8</title>
<path fill="none" stroke="midnightblue" d="M198.113,-168.444C233.314,-159.08 289.827,-144.047 328.127,-133.859"/>
<polygon fill="midnightblue" stroke="midnightblue" points="329.166,-137.204 337.93,-131.251 327.366,-130.439 329.166,-137.204"/>
</g>
<!-- Node17&#45;&gt;Node4 -->
<g id="edge26" class="edge"><title>Node17&#45;&gt;Node4</title>
<path fill="none" stroke="midnightblue" d="M157.075,-224.385C129.23,-213.598 90.8308,-193.409 105.947,-168 137.211,-115.447 206.427,-88.5391 251.041,-76.1421"/>
<polygon fill="midnightblue" stroke="midnightblue" points="251.948,-79.5227 260.715,-73.5735 250.151,-72.7571 251.948,-79.5227"/>
</g>
<!-- Node18&#45;&gt;Node4 -->
<g id="edge31" class="edge"><title>Node18&#45;&gt;Node4</title>
<path fill="none" stroke="midnightblue" d="M463.753,-280.375C451.976,-271.781 433.919,-257.897 419.947,-244 374.473,-198.771 365.156,-184.938 328.947,-132 318.432,-116.627 308.084,-98.0749 301.017,-84.7326"/>
<polygon fill="midnightblue" stroke="midnightblue" points="304.028,-82.9364 296.305,-75.684 297.82,-86.17 304.028,-82.9364"/>
</g>
<!-- Node18&#45;&gt;Node8 -->
<g id="edge32" class="edge"><title>Node18&#45;&gt;Node8</title>
<path fill="none" stroke="midnightblue" d="M468.394,-280.24C453.951,-263.231 421.905,-224.216 399.947,-188 390.74,-172.816 382.207,-154.472 376.434,-141.149"/>
<polygon fill="midnightblue" stroke="midnightblue" points="379.555,-139.543 372.436,-131.697 373.108,-142.27 379.555,-139.543"/>
</g>
<!-- Node18&#45;&gt;Node11 -->
<g id="edge30" class="edge"><title>Node18&#45;&gt;Node11</title>
<path fill="none" stroke="midnightblue" d="M515.927,-280.471C548.236,-272.889 594.498,-260.458 632.947,-244 666,-229.852 701.382,-207.79 723.09,-193.365"/>
<polygon fill="midnightblue" stroke="midnightblue" points="725.169,-196.184 731.509,-187.696 721.259,-190.378 725.169,-196.184"/>
</g>
<!-- Node18&#45;&gt;Node14 -->
<g id="edge29" class="edge"><title>Node18&#45;&gt;Node14</title>
<path fill="none" stroke="midnightblue" d="M536.969,-286.627C611.47,-280.539 737.019,-259.514 813.947,-188 827.294,-175.592 835.193,-156.075 839.507,-141.662"/>
<polygon fill="midnightblue" stroke="midnightblue" points="842.932,-142.403 842.137,-131.838 836.17,-140.592 842.932,-142.403"/>
</g>
<!-- Node19 -->
<g id="node19" class="node"><title>Node19</title>
<g id="a_node19"><a xlink:href="../../d1/d6c/cipconnectionobject_8h.html" target="_top" xlink:title="cipconnectionobject.h">
<polygon fill="none" stroke="black" points="513.447,-224.5 513.447,-243.5 624.447,-243.5 624.447,-224.5 513.447,-224.5"/>
<text text-anchor="middle" x="568.947" y="-231.5" font-family="Helvetica,sans-Serif" font-size="10.00">cipconnectionobject.h</text>
</a>
</g>
</g>
<!-- Node18&#45;&gt;Node19 -->
<g id="edge33" class="edge"><title>Node18&#45;&gt;Node19</title>
<path fill="none" stroke="midnightblue" d="M490.889,-280.324C505.532,-271.822 528.08,-258.729 545.184,-248.797"/>
<polygon fill="midnightblue" stroke="midnightblue" points="547.151,-251.703 554.042,-243.655 543.636,-245.649 547.151,-251.703"/>
</g>
<!-- Node19&#45;&gt;Node4 -->
<g id="edge34" class="edge"><title>Node19&#45;&gt;Node4</title>
<path fill="none" stroke="midnightblue" d="M513.111,-226.424C485.753,-220.515 454.207,-209.297 432.947,-188 407.825,-162.835 432.425,-137.792 407.947,-112 397.139,-100.612 361.205,-87.6481 332.163,-78.5693"/>
<polygon fill="midnightblue" stroke="midnightblue" points="332.817,-75.1093 322.23,-75.529 330.768,-81.8027 332.817,-75.1093"/>
</g>
<!-- Node19&#45;&gt;Node8 -->
<g id="edge35" class="edge"><title>Node19&#45;&gt;Node8</title>
<path fill="none" stroke="midnightblue" d="M567.985,-224.428C565.953,-210.481 559.917,-182.935 542.947,-168 506.228,-135.686 449.233,-126.073 410.563,-123.476"/>
<polygon fill="midnightblue" stroke="midnightblue" points="410.348,-119.96 400.174,-122.917 409.972,-126.949 410.348,-119.96"/>
</g>
<!-- Node19&#45;&gt;Node11 -->
<g id="edge37" class="edge"><title>Node19&#45;&gt;Node11</title>
<path fill="none" stroke="midnightblue" d="M596.676,-224.444C626.372,-215.28 673.663,-200.688 706.616,-190.519"/>
<polygon fill="midnightblue" stroke="midnightblue" points="707.824,-193.809 716.347,-187.516 705.76,-187.121 707.824,-193.809"/>
</g>
<!-- Node19&#45;&gt;Node14 -->
<g id="edge36" class="edge"><title>Node19&#45;&gt;Node14</title>
<path fill="none" stroke="midnightblue" d="M624.527,-231.617C671.313,-228.214 738.477,-217.921 788.947,-188 808.348,-176.498 824.16,-155.617 833.77,-140.622"/>
<polygon fill="midnightblue" stroke="midnightblue" points="836.946,-142.137 839.164,-131.777 830.969,-138.492 836.946,-142.137"/>
</g>
<!-- Node20 -->
<g id="node20" class="node"><title>Node20</title>
<g id="a_node20"><a xlink:href="../../d9/d31/doublylinkedlist_8h.html" target="_top" xlink:title="doublylinkedlist.h">
<polygon fill="none" stroke="black" points="441.947,-168.5 441.947,-187.5 533.947,-187.5 533.947,-168.5 441.947,-168.5"/>
<text text-anchor="middle" x="487.947" y="-175.5" font-family="Helvetica,sans-Serif" font-size="10.00">doublylinkedlist.h</text>
</a>
</g>
</g>
<!-- Node19&#45;&gt;Node20 -->
<g id="edge38" class="edge"><title>Node19&#45;&gt;Node20</title>
<path fill="none" stroke="midnightblue" d="M555.933,-224.324C543.415,-215.979 524.265,-203.212 509.475,-193.352"/>
<polygon fill="midnightblue" stroke="midnightblue" points="511.191,-190.289 500.929,-187.655 507.308,-196.114 511.191,-190.289"/>
</g>
<!-- Node21 -->
<g id="node21" class="node"><title>Node21</title>
<g id="a_node21"><a xlink:href="../../d0/d23/cipelectronickey_8h.html" target="_top" xlink:title="cipelectronickey.h">
<polygon fill="none" stroke="black" points="495.447,-112.5 495.447,-131.5 590.447,-131.5 590.447,-112.5 495.447,-112.5"/>
<text text-anchor="middle" x="542.947" y="-119.5" font-family="Helvetica,sans-Serif" font-size="10.00">cipelectronickey.h</text>
</a>
</g>
</g>
<!-- Node19&#45;&gt;Node21 -->
<g id="edge39" class="edge"><title>Node19&#45;&gt;Node21</title>
<path fill="none" stroke="midnightblue" d="M572.112,-224.349C576.26,-211.663 582.303,-187.416 575.947,-168 572.457,-157.34 565.374,-147.117 558.661,-139.117"/>
<polygon fill="midnightblue" stroke="midnightblue" points="561.251,-136.763 551.967,-131.66 556.042,-141.439 561.251,-136.763"/>
</g>
<!-- Node22 -->
<g id="node22" class="node"><title>Node22</title>
<g id="a_node22"><a xlink:href="../../d1/d02/cipepath_8h.html" target="_top" xlink:title="cipepath.h">
<polygon fill="none" stroke="black" points="627.947,-168.5 627.947,-187.5 689.947,-187.5 689.947,-168.5 627.947,-168.5"/>
<text text-anchor="middle" x="658.947" y="-175.5" font-family="Helvetica,sans-Serif" font-size="10.00">cipepath.h</text>
</a>
</g>
</g>
<!-- Node19&#45;&gt;Node22 -->
<g id="edge42" class="edge"><title>Node19&#45;&gt;Node22</title>
<path fill="none" stroke="midnightblue" d="M583.407,-224.324C597.446,-215.9 618.995,-202.971 635.49,-193.074"/>
<polygon fill="midnightblue" stroke="midnightblue" points="637.748,-195.801 644.523,-187.655 634.147,-189.798 637.748,-195.801"/>
</g>
<!-- Node21&#45;&gt;Node4 -->
<g id="edge41" class="edge"><title>Node21&#45;&gt;Node4</title>
<path fill="none" stroke="midnightblue" d="M502.073,-112.424C461.622,-103.906 397.664,-90.3528 332.922,-76.1957"/>
<polygon fill="midnightblue" stroke="midnightblue" points="333.465,-72.7318 322.948,-74.0112 331.968,-79.5697 333.465,-72.7318"/>
</g>
<!-- Node21&#45;&gt;Node7 -->
<g id="edge40" class="edge"><title>Node21&#45;&gt;Node7</title>
<path fill="none" stroke="midnightblue" d="M548.91,-112.368C561.453,-94.2153 590.757,-51.8015 607.208,-27.9902"/>
<polygon fill="midnightblue" stroke="midnightblue" points="610.206,-29.8083 613.011,-19.5914 604.447,-25.8292 610.206,-29.8083"/>
</g>
<!-- Node22&#45;&gt;Node7 -->
<g id="edge43" class="edge"><title>Node22&#45;&gt;Node7</title>
<path fill="none" stroke="midnightblue" d="M656.796,-168.075C650.5,-141.945 632.01,-65.2106 623.423,-29.577"/>
<polygon fill="midnightblue" stroke="midnightblue" points="626.757,-28.4699 621.011,-19.5681 619.951,-30.1098 626.757,-28.4699"/>
</g>
<!-- Node22&#45;&gt;Node8 -->
<g id="edge44" class="edge"><title>Node22&#45;&gt;Node8</title>
<path fill="none" stroke="midnightblue" d="M627.912,-171.221C575.394,-161.442 468.994,-141.63 410.242,-130.69"/>
<polygon fill="midnightblue" stroke="midnightblue" points="410.669,-127.209 400.197,-128.819 409.387,-134.091 410.669,-127.209"/>
</g>
<!-- Node22&#45;&gt;Node21 -->
<g id="edge45" class="edge"><title>Node22&#45;&gt;Node21</title>
<path fill="none" stroke="midnightblue" d="M640.566,-168.444C621.73,-159.675 592.216,-145.935 570.568,-135.858"/>
<polygon fill="midnightblue" stroke="midnightblue" points="571.784,-132.564 561.241,-131.516 568.83,-138.91 571.784,-132.564"/>
</g>
<!-- Node23&#45;&gt;Node14 -->
<g id="edge47" class="edge"><title>Node23&#45;&gt;Node14</title>
<path fill="none" stroke="midnightblue" d="M886.337,-224.368C878.847,-206.456 861.478,-164.923 851.452,-140.948"/>
<polygon fill="midnightblue" stroke="midnightblue" points="854.627,-139.467 847.54,-131.591 848.169,-142.168 854.627,-139.467"/>
</g>
</g>
</svg>
        <g id="navigator" transform="translate(0 0)" fill="#404254">
                <rect fill="#f2f5e9" fill-opacity="0.5" stroke="#606060" stroke-width=".5" x="0" y="0" width="60" height="60"/>
                <use id="zoomplus" xlink:href="#zoomPlus" x="17" y="9" onmousedown="handleZoom(evt,'in')"/>
                <use id="zoomminus" xlink:href="#zoomMin" x="42" y="9" onmousedown="handleZoom(evt,'out')"/>
                <use id="reset" xlink:href="#resetDef" x="30" y="36" onmousedown="handleReset()"/>
                <g id="arrowUp" xlink:href="#dirArrow" transform="translate(30 24)" onmousedown="handlePan(0,-1)">
                  <use xlink:href="#rim" fill="#404040">
                        <set attributeName="fill" to="#808080" begin="arrowUp.mouseover" end="arrowUp.mouseout"/>
                  </use>
                  <path fill="none" stroke="white" stroke-width="1.5" d="M0,-3.0v7 M-2.5,-0.5L0,-3.0L2.5,-0.5"/>
                </g>
                <g id="arrowRight" xlink:href="#dirArrow" transform="rotate(90) translate(36 -43)" onmousedown="handlePan(1,0)">
                  <use xlink:href="#rim" fill="#404040">
                        <set attributeName="fill" to="#808080" begin="arrowRight.mouseover" end="arrowRight.mouseout"/>
                  </use>
                  <path fill="none" stroke="white" stroke-width="1.5" d="M0,-3.0v7 M-2.5,-0.5L0,-3.0L2.5,-0.5"/>
                </g>
                <g id="arrowDown" xlink:href="#dirArrow" transform="rotate(180) translate(-30 -48)" onmousedown="handlePan(0,1)">
                  <use xlink:href="#rim" fill="#404040">
                        <set attributeName="fill" to="#808080" begin="arrowDown.mouseover" end="arrowDown.mouseout"/>
                  </use>
                  <path fill="none" stroke="white" stroke-width="1.5" d="M0,-3.0v7 M-2.5,-0.5L0,-3.0L2.5,-0.5"/>
                </g>
                <g id="arrowLeft" xlink:href="#dirArrow" transform="rotate(270) translate(-36 17)" onmousedown="handlePan(-1,0)">
                  <use xlink:href="#rim" fill="#404040">
                        <set attributeName="fill" to="#808080" begin="arrowLeft.mouseover" end="arrowLeft.mouseout"/>
                  </use>
                  <path fill="none" stroke="white" stroke-width="1.5" d="M0,-3.0v7 M-2.5,-0.5L0,-3.0L2.5,-0.5"/>
                </g>
        </g>
        <svg viewBox="0 0 15 15" width="100%" height="30px" preserveAspectRatio="xMaxYMin meet">
         <g id="arrow_out" transform="scale(0.3 0.3)">
          <a xlink:href="cpf_8c__incl_org.svg" target="_base">
           <rect id="button" ry="5" rx="5" y="6" x="6" height="38" width="38"
                fill="#f2f5e9" fill-opacity="0.5" stroke="#606060" stroke-width="1.0"/>
           <path id="arrow"
             d="M 11.500037,31.436501 C 11.940474,20.09759 22.043105,11.32322 32.158766,21.979434 L 37.068811,17.246167 C 37.068811,17.246167 37.088388,32 37.088388,32 L 22.160133,31.978069 C 22.160133,31.978069 26.997745,27.140456 26.997745,27.140456 C 18.528582,18.264221 13.291696,25.230495 11.500037,31.436501 z"
             style="fill:#404040;"/>
          </a>
         </g>
        </svg>
</svg>
