<?xml version="1.0" encoding="UTF-8" standalone="no"?>
<!DOCTYPE svg PUBLIC "-//W3C//DTD SVG 1.1//EN"
 "http://www.w3.org/Graphics/SVG/1.1/DTD/svg11.dtd">
<!-- Generated by graphviz version 2.36.0 (20140111.2315)
 -->
<!-- Title: src/opener_api.h Pages: 1 -->
<!--zoomable 332 -->
<svg id="main" version="1.1" xmlns="http://www.w3.org/2000/svg" xmlns:xlink="http://www.w3.org/1999/xlink" xml:space="preserve" onload="init(evt)">
<style type="text/css"><![CDATA[
.edge:hover path { stroke: red; }
.edge:hover polygon { stroke: red; fill: red; }
]]></style>
<script type="text/javascript"><![CDATA[
var edges = document.getElementsByTagName('g');
if (edges && edges.length) {
  for (var i=0;i<edges.length;i++) {
    if (edges[i].id.substr(0,4)=='edge') {
      edges[i].setAttribute('class','edge');
    }
  }
}
]]></script>
        <defs>
                <circle id="rim" cx="0" cy="0" r="7"/>
                <circle id="rim2" cx="0" cy="0" r="3.5"/>
                <g id="zoomPlus">
                        <use xlink:href="#rim" fill="#404040">
                                <set attributeName="fill" to="#808080" begin="zoomplus.mouseover" end="zoomplus.mouseout"/>
                        </use>
                        <path d="M-4,0h8M0,-4v8" fill="none" stroke="white" stroke-width="1.5" pointer-events="none"/>
                </g>
                <g id="zoomMin">
                        <use xlink:href="#rim" fill="#404040">
                                <set attributeName="fill" to="#808080" begin="zoomminus.mouseover" end="zoomminus.mouseout"/>
                        </use>
                        <path d="M-4,0h8" fill="none" stroke="white" stroke-width="1.5" pointer-events="none"/>
                </g>
                <g id="dirArrow">
                        <path fill="none" stroke="white" stroke-width="1.5" d="M0,-3.0v7 M-2.5,-0.5L0,-3.0L2.5,-0.5"/>
                </g>
               <g id="resetDef">
                       <use xlink:href="#rim2" fill="#404040">
                               <set attributeName="fill" to="#808080" begin="reset.mouseover" end="reset.mouseout"/>
                       </use>
               </g>
        </defs>

<script type="text/javascript">
var viewWidth = 3018;
var viewHeight = 332;
var sectionId = 'dynsection-1';
</script>
<script xlink:href="../../svgpan.js"/>
<svg id="graph" class="graph">
<g id="viewport">
<title>src/opener_api.h</title>
<!-- Node1 -->
<g id="node1" class="node"><title>Node1</title>
<polygon fill="#bfbfbf" stroke="black" points="1731.5,-304.5 1731.5,-323.5 1820.5,-323.5 1820.5,-304.5 1731.5,-304.5"/>
<text text-anchor="middle" x="1776" y="-311.5" font-family="Helvetica,sans-Serif" font-size="10.00">src/opener_api.h</text>
</g>
<!-- Node2 -->
<g id="node2" class="node"><title>Node2</title>
<g id="a_node2"><a xlink:href="../../d2/da3/cipconnectionmanager_8h.html" target="_top" xlink:title="src/cip/cipconnectionmanager.h">
<polygon fill="none" stroke="black" points="831.5,-180.5 831.5,-199.5 986.5,-199.5 986.5,-180.5 831.5,-180.5"/>
<text text-anchor="middle" x="909" y="-187.5" font-family="Helvetica,sans-Serif" font-size="10.00">src/cip/cipconnectionmanager.h</text>
</a>
</g>
</g>
<!-- Node1&#45;&gt;Node2 -->
<g id="edge1" class="edge"><title>Node1&#45;&gt;Node2</title>
<path fill="none" stroke="midnightblue" d="M1721.28,-313.436C1611.63,-313.354 1357.64,-308.353 1149,-268 1065.65,-251.88 970.802,-215.972 929.747,-199.525"/>
<polygon fill="midnightblue" stroke="midnightblue" points="1721.44,-316.936 1731.44,-313.429 1721.43,-309.936 1721.44,-316.936"/>
</g>
<!-- Node4 -->
<g id="node4" class="node"><title>Node4</title>
<g id="a_node4"><a xlink:href="../../d1/dbc/appcontype_8c.html" target="_top" xlink:title="src/cip/appcontype.c">
<polygon fill="none" stroke="black" points="589.5,-62.5 589.5,-81.5 696.5,-81.5 696.5,-62.5 589.5,-62.5"/>
<text text-anchor="middle" x="643" y="-69.5" font-family="Helvetica,sans-Serif" font-size="10.00">src/cip/appcontype.c</text>
</a>
</g>
</g>
<!-- Node1&#45;&gt;Node4 -->
<g id="edge56" class="edge"><title>Node1&#45;&gt;Node4</title>
<path fill="none" stroke="midnightblue" d="M1721.1,-313.274C1490.29,-314.131 605.203,-314.339 490,-268 413.755,-237.331 321.126,-186.915 374,-124 403.898,-88.4235 534.486,-97.3862 580,-88 589.36,-86.0697 599.45,-83.7676 608.753,-81.5534"/>
<polygon fill="midnightblue" stroke="midnightblue" points="1721.29,-316.774 1731.28,-313.234 1721.26,-309.774 1721.29,-316.774"/>
</g>
<!-- Node5 -->
<g id="node5" class="node"><title>Node5</title>
<g id="a_node5"><a xlink:href="../../d2/d3d/cipcommon_8c.html" target="_top" xlink:title="src/cip/cipcommon.c">
<polygon fill="none" stroke="black" points="867.5,-62.5 867.5,-81.5 974.5,-81.5 974.5,-62.5 867.5,-62.5"/>
<text text-anchor="middle" x="921" y="-69.5" font-family="Helvetica,sans-Serif" font-size="10.00">src/cip/cipcommon.c</text>
</a>
</g>
</g>
<!-- Node1&#45;&gt;Node5 -->
<g id="edge59" class="edge"><title>Node1&#45;&gt;Node5</title>
<path fill="none" stroke="midnightblue" d="M1721.39,-311.819C1549.91,-307.878 1023.63,-293.935 855,-268 640.2,-234.964 514.766,-316.058 382,-144 376.57,-136.963 376.018,-130.575 382,-124 390.124,-115.071 732.528,-87.6135 867.3,-77.1284"/>
<polygon fill="midnightblue" stroke="midnightblue" points="1721.37,-315.32 1731.45,-312.048 1721.53,-308.322 1721.37,-315.32"/>
</g>
<!-- Node6 -->
<g id="node6" class="node"><title>Node6</title>
<g id="a_node6"><a xlink:href="../../d5/d35/cipconnectionmanager_8c.html" target="_top" xlink:title="src/cip/cipconnectionmanager.c">
<polygon fill="none" stroke="black" points="1481.5,-0.5 1481.5,-19.5 1636.5,-19.5 1636.5,-0.5 1481.5,-0.5"/>
<text text-anchor="middle" x="1559" y="-7.5" font-family="Helvetica,sans-Serif" font-size="10.00">src/cip/cipconnectionmanager.c</text>
</a>
</g>
</g>
<!-- Node1&#45;&gt;Node6 -->
<g id="edge60" class="edge"><title>Node1&#45;&gt;Node6</title>
<path fill="none" stroke="midnightblue" d="M1808.74,-300.696C1829.4,-292.448 1856.37,-280.784 1879,-268 1889.37,-262.14 2048.53,-154.584 2054,-144 2071.96,-109.258 2080.37,-84.8805 2054,-56 2026.45,-25.8326 1768.78,-15.6726 1636.53,-12.4275"/>
<polygon fill="midnightblue" stroke="midnightblue" points="1807.18,-297.548 1799.15,-304.46 1809.74,-304.064 1807.18,-297.548"/>
</g>
<!-- Node8 -->
<g id="node8" class="node"><title>Node8</title>
<g id="a_node8"><a xlink:href="../../da/dc2/generic__networkhandler_8h.html" target="_top" xlink:title="src/ports/generic_networkhandler.h">
<polygon fill="none" stroke="black" points="402.5,-62.5 402.5,-81.5 571.5,-81.5 571.5,-62.5 402.5,-62.5"/>
<text text-anchor="middle" x="487" y="-69.5" font-family="Helvetica,sans-Serif" font-size="10.00">src/ports/generic_networkhandler.h</text>
</a>
</g>
</g>
<!-- Node1&#45;&gt;Node8 -->
<g id="edge69" class="edge"><title>Node1&#45;&gt;Node8</title>
<path fill="none" stroke="midnightblue" d="M1721.05,-312.379C1474.51,-309.441 479.813,-295.896 420,-268 357.008,-238.622 319.994,-181.529 359,-124 374.505,-101.132 402.074,-88.5172 427.666,-81.5589"/>
<polygon fill="midnightblue" stroke="midnightblue" points="1721.16,-315.881 1731.21,-312.499 1721.25,-308.881 1721.16,-315.881"/>
</g>
<!-- Node9 -->
<g id="node9" class="node"><title>Node9</title>
<g id="a_node9"><a xlink:href="../../d2/dbd/encap_8c.html" target="_top" xlink:title="src/enet_encap/encap.c">
<polygon fill="none" stroke="black" points="664.5,-0.5 664.5,-19.5 785.5,-19.5 785.5,-0.5 664.5,-0.5"/>
<text text-anchor="middle" x="725" y="-7.5" font-family="Helvetica,sans-Serif" font-size="10.00">src/enet_encap/encap.c</text>
</a>
</g>
</g>
<!-- Node1&#45;&gt;Node9 -->
<g id="edge68" class="edge"><title>Node1&#45;&gt;Node9</title>
<path fill="none" stroke="midnightblue" d="M1721.12,-312.362C1474.43,-309.346 474.339,-295.515 337,-268 242.793,-249.126 135,-287.079 135,-191 135,-191 135,-191 135,-133 135,-82.6815 172.018,-76.4361 218,-56 238.112,-47.0614 534.049,-24.7768 664.266,-15.3359"/>
<polygon fill="midnightblue" stroke="midnightblue" points="1721.23,-315.863 1731.27,-312.485 1721.32,-308.864 1721.23,-315.863"/>
</g>
<!-- Node11 -->
<g id="node11" class="node"><title>Node11</title>
<g id="a_node11"><a xlink:href="../../d9/dfb/POSIX_2main_8c.html" target="_top" xlink:title="src/ports/POSIX/main.c">
<polygon fill="none" stroke="black" points="138.5,-0.5 138.5,-19.5 259.5,-19.5 259.5,-0.5 138.5,-0.5"/>
<text text-anchor="middle" x="199" y="-7.5" font-family="Helvetica,sans-Serif" font-size="10.00">src/ports/POSIX/main.c</text>
</a>
</g>
</g>
<!-- Node1&#45;&gt;Node11 -->
<g id="edge70" class="edge"><title>Node1&#45;&gt;Node11</title>
<path fill="none" stroke="midnightblue" d="M1720.97,-312.924C1444.32,-312.362 215.9,-307.637 146,-268 110.714,-247.991 97,-231.564 97,-191 97,-191 97,-191 97,-133 97,-79.4405 155.577,-36.995 183.95,-19.577"/>
<polygon fill="midnightblue" stroke="midnightblue" points="1721.16,-316.425 1731.17,-312.944 1721.17,-309.425 1721.16,-316.425"/>
</g>
<!-- Node12 -->
<g id="node12" class="node"><title>Node12</title>
<g id="a_node12"><a xlink:href="../../dc/db2/WIN32_2main_8c.html" target="_top" xlink:title="src/ports/WIN32/main.c">
<polygon fill="none" stroke="black" points="-0.5,-0.5 -0.5,-19.5 120.5,-19.5 120.5,-0.5 -0.5,-0.5"/>
<text text-anchor="middle" x="60" y="-7.5" font-family="Helvetica,sans-Serif" font-size="10.00">src/ports/WIN32/main.c</text>
</a>
</g>
</g>
<!-- Node1&#45;&gt;Node12 -->
<g id="edge73" class="edge"><title>Node1&#45;&gt;Node12</title>
<path fill="none" stroke="midnightblue" d="M1720.94,-313.001C1439.96,-312.82 176.207,-309.684 105,-268 70.5972,-247.861 59,-230.864 59,-191 59,-191 59,-191 59,-133 59,-90.4257 59.6165,-39.497 59.8814,-19.5787"/>
<polygon fill="midnightblue" stroke="midnightblue" points="1721.29,-316.501 1731.29,-313.007 1721.29,-309.501 1721.29,-316.501"/>
</g>
<!-- Node14 -->
<g id="node14" class="node"><title>Node14</title>
<g id="a_node14"><a xlink:href="../../d2/daa/POSIX_2sample__application_2sampleapplication_8c.html" target="_top" xlink:title="src/ports/POSIX/sample\l_application/sampleapplication.c">
<polygon fill="none" stroke="black" points="227,-57 227,-87 385,-87 385,-57 227,-57"/>
<text text-anchor="start" x="235" y="-75" font-family="Helvetica,sans-Serif" font-size="10.00">src/ports/POSIX/sample</text>
<text text-anchor="middle" x="306" y="-64" font-family="Helvetica,sans-Serif" font-size="10.00">_application/sampleapplication.c</text>
</a>
</g>
</g>
<!-- Node1&#45;&gt;Node14 -->
<g id="edge72" class="edge"><title>Node1&#45;&gt;Node14</title>
<path fill="none" stroke="midnightblue" d="M1721.25,-312.869C1468.8,-312.061 426.906,-306.403 370,-268 308.863,-226.742 304.751,-124.71 305.417,-87.1628"/>
<polygon fill="midnightblue" stroke="midnightblue" points="1721.28,-316.369 1731.29,-312.9 1721.3,-309.369 1721.28,-316.369"/>
</g>
<!-- Node15 -->
<g id="node15" class="node"><title>Node15</title>
<g id="a_node15"><a xlink:href="../../df/d2e/cipassembly_8c.html" target="_top" xlink:title="src/cip/cipassembly.c">
<polygon fill="none" stroke="black" points="391,-124.5 391,-143.5 503,-143.5 503,-124.5 391,-124.5"/>
<text text-anchor="middle" x="447" y="-131.5" font-family="Helvetica,sans-Serif" font-size="10.00">src/cip/cipassembly.c</text>
</a>
</g>
</g>
<!-- Node1&#45;&gt;Node15 -->
<g id="edge57" class="edge"><title>Node1&#45;&gt;Node15</title>
<path fill="none" stroke="midnightblue" d="M1720.96,-312.733C1597.2,-311.466 1287.79,-304.563 1032,-268 815.993,-237.123 561.747,-167.711 476.511,-143.514"/>
<polygon fill="midnightblue" stroke="midnightblue" points="1721.27,-316.236 1731.3,-312.83 1721.33,-309.237 1721.27,-316.236"/>
</g>
<!-- Node16 -->
<g id="node16" class="node"><title>Node16</title>
<g id="a_node16"><a xlink:href="../../d2/d11/cipclass3connection_8h.html" target="_top" xlink:title="CIP Class 3 connection. ">
<polygon fill="none" stroke="black" points="1899,-124.5 1899,-143.5 2045,-143.5 2045,-124.5 1899,-124.5"/>
<text text-anchor="middle" x="1972" y="-131.5" font-family="Helvetica,sans-Serif" font-size="10.00">src/cip/cipclass3connection.h</text>
</a>
</g>
</g>
<!-- Node1&#45;&gt;Node16 -->
<g id="edge58" class="edge"><title>Node1&#45;&gt;Node16</title>
<path fill="none" stroke="midnightblue" d="M1800.71,-299.419C1814.86,-291.144 1832.6,-279.897 1847,-268 1897.07,-226.618 1947.11,-166.226 1965.06,-143.805"/>
<polygon fill="midnightblue" stroke="midnightblue" points="1798.94,-296.398 1792,-304.404 1802.42,-302.473 1798.94,-296.398"/>
</g>
<!-- Node19 -->
<g id="node19" class="node"><title>Node19</title>
<g id="a_node19"><a xlink:href="../../dd/d34/cipqos_8c.html" target="_top" xlink:title="src/cip/cipqos.c">
<polygon fill="none" stroke="black" points="1145,-62.5 1145,-81.5 1231,-81.5 1231,-62.5 1145,-62.5"/>
<text text-anchor="middle" x="1188" y="-69.5" font-family="Helvetica,sans-Serif" font-size="10.00">src/cip/cipqos.c</text>
</a>
</g>
</g>
<!-- Node1&#45;&gt;Node19 -->
<g id="edge65" class="edge"><title>Node1&#45;&gt;Node19</title>
<path fill="none" stroke="midnightblue" d="M1778.66,-293.789C1782.81,-255.092 1785.87,-167.734 1737,-124 1735.82,-122.944 1360.98,-88.742 1231.43,-76.9499"/>
<polygon fill="midnightblue" stroke="midnightblue" points="1775.13,-293.783 1777.39,-304.134 1782.08,-294.633 1775.13,-293.783"/>
</g>
<!-- Node20 -->
<g id="node20" class="node"><title>Node20</title>
<g id="a_node20"><a xlink:href="../../de/d45/cipioconnection_8h.html" target="_top" xlink:title="src/cip/cipioconnection.h">
<polygon fill="none" stroke="black" points="1603.5,-124.5 1603.5,-143.5 1728.5,-143.5 1728.5,-124.5 1603.5,-124.5"/>
<text text-anchor="middle" x="1666" y="-131.5" font-family="Helvetica,sans-Serif" font-size="10.00">src/cip/cipioconnection.h</text>
</a>
</g>
</g>
<!-- Node1&#45;&gt;Node20 -->
<g id="edge61" class="edge"><title>Node1&#45;&gt;Node20</title>
<path fill="none" stroke="midnightblue" d="M1765.31,-295.696C1742.31,-258.478 1688.82,-171.928 1671.51,-143.918"/>
<polygon fill="midnightblue" stroke="midnightblue" points="1762.46,-297.748 1770.69,-304.415 1768.41,-294.068 1762.46,-297.748"/>
</g>
<!-- Node22 -->
<g id="node22" class="node"><title>Node22</title>
<g id="a_node22"><a xlink:href="../../d3/d98/cpf_8c.html" target="_top" xlink:title="src/enet_encap/cpf.c">
<polygon fill="none" stroke="black" points="1363,-62.5 1363,-81.5 1471,-81.5 1471,-62.5 1363,-62.5"/>
<text text-anchor="middle" x="1417" y="-69.5" font-family="Helvetica,sans-Serif" font-size="10.00">src/enet_encap/cpf.c</text>
</a>
</g>
</g>
<!-- Node1&#45;&gt;Node22 -->
<g id="edge67" class="edge"><title>Node1&#45;&gt;Node22</title>
<path fill="none" stroke="midnightblue" d="M1791.71,-296.883C1798.43,-288.883 1805.51,-278.66 1809,-268 1828.91,-207.176 1851.23,-172.086 1809,-124 1787.06,-99.0239 1573.79,-82.6406 1471.37,-76.1497"/>
<polygon fill="midnightblue" stroke="midnightblue" points="1789.1,-294.561 1785.02,-304.34 1794.3,-299.237 1789.1,-294.561"/>
</g>
<!-- Node23 -->
<g id="node23" class="node"><title>Node23</title>
<g id="a_node23"><a xlink:href="../../d1/d6c/cipconnectionobject_8h.html" target="_top" xlink:title="src/cip/cipconnectionobject.h">
<polygon fill="none" stroke="black" points="1158.5,-242.5 1158.5,-261.5 1301.5,-261.5 1301.5,-242.5 1158.5,-242.5"/>
<text text-anchor="middle" x="1230" y="-249.5" font-family="Helvetica,sans-Serif" font-size="10.00">src/cip/cipconnectionobject.h</text>
</a>
</g>
</g>
<!-- Node1&#45;&gt;Node23 -->
<g id="edge36" class="edge"><title>Node1&#45;&gt;Node23</title>
<path fill="none" stroke="midnightblue" d="M1721.2,-306.978C1621.86,-296.062 1412.14,-273.016 1301.62,-260.87"/>
<polygon fill="midnightblue" stroke="midnightblue" points="1721,-310.477 1731.32,-308.09 1721.76,-303.518 1721,-310.477"/>
</g>
<!-- Node27 -->
<g id="node27" class="node"><title>Node27</title>
<g id="a_node27"><a xlink:href="../../d7/d65/cipethernetlink_8c.html" target="_top" xlink:title="src/cip/cipethernetlink.c">
<polygon fill="none" stroke="black" points="1937,-242.5 1937,-261.5 2057,-261.5 2057,-242.5 1937,-242.5"/>
<text text-anchor="middle" x="1997" y="-249.5" font-family="Helvetica,sans-Serif" font-size="10.00">src/cip/cipethernetlink.c</text>
</a>
</g>
</g>
<!-- Node1&#45;&gt;Node27 -->
<g id="edge62" class="edge"><title>Node1&#45;&gt;Node27</title>
<path fill="none" stroke="midnightblue" d="M1817.52,-301.729C1860.45,-290.073 1926.53,-272.133 1965.39,-261.581"/>
<polygon fill="midnightblue" stroke="midnightblue" points="1816.4,-298.406 1807.66,-304.403 1818.23,-305.161 1816.4,-298.406"/>
</g>
<!-- Node28 -->
<g id="node28" class="node"><title>Node28</title>
<g id="a_node28"><a xlink:href="../../dd/dc4/cipidentity_8c.html" target="_top" xlink:title="src/cip/cipidentity.c">
<polygon fill="none" stroke="black" points="2075.5,-242.5 2075.5,-261.5 2176.5,-261.5 2176.5,-242.5 2075.5,-242.5"/>
<text text-anchor="middle" x="2126" y="-249.5" font-family="Helvetica,sans-Serif" font-size="10.00">src/cip/cipidentity.c</text>
</a>
</g>
</g>
<!-- Node1&#45;&gt;Node28 -->
<g id="edge63" class="edge"><title>Node1&#45;&gt;Node28</title>
<path fill="none" stroke="midnightblue" d="M1830.87,-305.899C1889.19,-298.015 1983.98,-284.238 2065,-268 2074.3,-266.136 2084.33,-263.806 2093.51,-261.543"/>
<polygon fill="midnightblue" stroke="midnightblue" points="1830.22,-302.455 1820.77,-307.254 1831.15,-309.393 1830.22,-302.455"/>
</g>
<!-- Node29 -->
<g id="node29" class="node"><title>Node29</title>
<g id="a_node29"><a xlink:href="../../d9/d7d/cipmessagerouter_8c.html" target="_top" xlink:title="src/cip/cipmessagerouter.c">
<polygon fill="none" stroke="black" points="2195,-242.5 2195,-261.5 2329,-261.5 2329,-242.5 2195,-242.5"/>
<text text-anchor="middle" x="2262" y="-249.5" font-family="Helvetica,sans-Serif" font-size="10.00">src/cip/cipmessagerouter.c</text>
</a>
</g>
</g>
<!-- Node1&#45;&gt;Node29 -->
<g id="edge64" class="edge"><title>Node1&#45;&gt;Node29</title>
<path fill="none" stroke="midnightblue" d="M1830.8,-308.424C1909.45,-301.527 2058.78,-287.204 2185,-268 2196.85,-266.197 2209.65,-263.861 2221.35,-261.572"/>
<polygon fill="midnightblue" stroke="midnightblue" points="1830.3,-304.954 1820.64,-309.308 1830.91,-311.928 1830.3,-304.954"/>
</g>
<!-- Node30 -->
<g id="node30" class="node"><title>Node30</title>
<g id="a_node30"><a xlink:href="../../dd/d20/ciptcpipinterface_8c.html" target="_top" xlink:title="src/cip/ciptcpipinterface.c">
<polygon fill="none" stroke="black" points="2347,-242.5 2347,-261.5 2475,-261.5 2475,-242.5 2347,-242.5"/>
<text text-anchor="middle" x="2411" y="-249.5" font-family="Helvetica,sans-Serif" font-size="10.00">src/cip/ciptcpipinterface.c</text>
</a>
</g>
</g>
<!-- Node1&#45;&gt;Node30 -->
<g id="edge66" class="edge"><title>Node1&#45;&gt;Node30</title>
<path fill="none" stroke="midnightblue" d="M1830.89,-310.844C1931.75,-306.386 2153.15,-294.291 2338,-268 2349.78,-266.324 2362.53,-263.915 2374.02,-261.517"/>
<polygon fill="midnightblue" stroke="midnightblue" points="1830.49,-307.358 1820.65,-311.289 1830.79,-314.352 1830.49,-307.358"/>
</g>
<!-- Node31 -->
<g id="node31" class="node"><title>Node31</title>
<g id="a_node31"><a xlink:href="../../df/def/POSIX_2networkconfig_8c.html" target="_top" xlink:title="src/ports/POSIX/networkconfig.c">
<polygon fill="none" stroke="black" points="2493.5,-242.5 2493.5,-261.5 2654.5,-261.5 2654.5,-242.5 2493.5,-242.5"/>
<text text-anchor="middle" x="2574" y="-249.5" font-family="Helvetica,sans-Serif" font-size="10.00">src/ports/POSIX/networkconfig.c</text>
</a>
</g>
</g>
<!-- Node1&#45;&gt;Node31 -->
<g id="edge71" class="edge"><title>Node1&#45;&gt;Node31</title>
<path fill="none" stroke="midnightblue" d="M1831.21,-311.402C1950.62,-307.526 2241.7,-295.819 2484,-268 2498.48,-266.338 2514.17,-263.933 2528.34,-261.534"/>
<polygon fill="midnightblue" stroke="midnightblue" points="1830.75,-307.914 1820.87,-311.732 1830.98,-314.911 1830.75,-307.914"/>
</g>
<!-- Node32 -->
<g id="node32" class="node"><title>Node32</title>
<g id="a_node32"><a xlink:href="../../d2/d9c/WIN32_2networkconfig_8c.html" target="_top" xlink:title="src/ports/WIN32/networkconfig.c">
<polygon fill="none" stroke="black" points="2672.5,-242.5 2672.5,-261.5 2833.5,-261.5 2833.5,-242.5 2672.5,-242.5"/>
<text text-anchor="middle" x="2753" y="-249.5" font-family="Helvetica,sans-Serif" font-size="10.00">src/ports/WIN32/networkconfig.c</text>
</a>
</g>
</g>
<!-- Node1&#45;&gt;Node32 -->
<g id="edge74" class="edge"><title>Node1&#45;&gt;Node32</title>
<path fill="none" stroke="midnightblue" d="M1830.92,-312.397C1970.37,-310.391 2349.32,-301.985 2663,-268 2677.65,-266.413 2693.53,-264 2707.82,-261.57"/>
<polygon fill="midnightblue" stroke="midnightblue" points="1830.86,-308.897 1820.91,-312.535 1830.96,-315.896 1830.86,-308.897"/>
</g>
<!-- Node33 -->
<g id="node33" class="node"><title>Node33</title>
<g id="a_node33"><a xlink:href="../../d5/dc8/WIN32_2sample__application_2sampleapplication_8c.html" target="_top" xlink:title="src/ports/WIN32/sample\l_application/sampleapplication.c">
<polygon fill="none" stroke="black" points="2852,-237 2852,-267 3010,-267 3010,-237 2852,-237"/>
<text text-anchor="start" x="2860" y="-255" font-family="Helvetica,sans-Serif" font-size="10.00">src/ports/WIN32/sample</text>
<text text-anchor="middle" x="2931" y="-244" font-family="Helvetica,sans-Serif" font-size="10.00">_application/sampleapplication.c</text>
</a>
</g>
</g>
<!-- Node1&#45;&gt;Node33 -->
<g id="edge75" class="edge"><title>Node1&#45;&gt;Node33</title>
<path fill="none" stroke="midnightblue" d="M1830.95,-313.094C1988.7,-312.846 2456.39,-308.474 2842,-268 2845.27,-267.657 2848.61,-267.268 2851.97,-266.845"/>
<polygon fill="midnightblue" stroke="midnightblue" points="1830.57,-309.595 1820.57,-313.105 1830.58,-316.595 1830.57,-309.595"/>
</g>
<!-- Node3 -->
<g id="node3" class="node"><title>Node3</title>
<g id="a_node3"><a xlink:href="../../d1/dc0/appcontype_8h.html" target="_top" xlink:title="src/cip/appcontype.h">
<polygon fill="none" stroke="black" points="597.5,-124.5 597.5,-143.5 704.5,-143.5 704.5,-124.5 597.5,-124.5"/>
<text text-anchor="middle" x="651" y="-131.5" font-family="Helvetica,sans-Serif" font-size="10.00">src/cip/appcontype.h</text>
</a>
</g>
</g>
<!-- Node2&#45;&gt;Node3 -->
<g id="edge2" class="edge"><title>Node2&#45;&gt;Node3</title>
<path fill="none" stroke="midnightblue" d="M858.096,-178.346C809.338,-168.141 736.713,-152.94 691.69,-143.516"/>
<polygon fill="midnightblue" stroke="midnightblue" points="857.614,-181.821 868.119,-180.444 859.048,-174.969 857.614,-181.821"/>
</g>
<!-- Node2&#45;&gt;Node4 -->
<g id="edge16" class="edge"><title>Node2&#45;&gt;Node4</title>
<path fill="none" stroke="midnightblue" d="M821.028,-189.12C736.606,-187.138 617.674,-178.124 588,-144 569.174,-122.351 605.824,-95.1437 627.928,-81.5521"/>
<polygon fill="midnightblue" stroke="midnightblue" points="821.074,-192.622 831.144,-189.328 821.218,-185.623 821.074,-192.622"/>
</g>
<!-- Node2&#45;&gt;Node5 -->
<g id="edge21" class="edge"><title>Node2&#45;&gt;Node5</title>
<path fill="none" stroke="midnightblue" d="M871.905,-176.829C844.511,-165.657 814.195,-147.316 828,-124 840.947,-102.134 866.96,-89.0222 888.19,-81.5806"/>
<polygon fill="midnightblue" stroke="midnightblue" points="870.806,-180.156 881.395,-180.478 873.318,-173.622 870.806,-180.156"/>
</g>
<!-- Node2&#45;&gt;Node6 -->
<g id="edge27" class="edge"><title>Node2&#45;&gt;Node6</title>
<path fill="none" stroke="midnightblue" d="M997.146,-183.958C1109.51,-176.895 1297.22,-162.783 1364,-144 1377.78,-140.125 1468.28,-96.2127 1480,-88 1509.8,-67.1188 1538.88,-34.8183 1551.9,-19.5512"/>
<polygon fill="midnightblue" stroke="midnightblue" points="996.612,-180.485 986.848,-184.599 997.047,-187.471 996.612,-180.485"/>
</g>
<!-- Node7 -->
<g id="node7" class="node"><title>Node7</title>
<g id="a_node7"><a xlink:href="../../df/d03/cipioconnection_8c.html" target="_top" xlink:title="src/cip/cipioconnection.c">
<polygon fill="none" stroke="black" points="1086.5,-0.5 1086.5,-19.5 1211.5,-19.5 1211.5,-0.5 1086.5,-0.5"/>
<text text-anchor="middle" x="1149" y="-7.5" font-family="Helvetica,sans-Serif" font-size="10.00">src/cip/cipioconnection.c</text>
</a>
</g>
</g>
<!-- Node2&#45;&gt;Node7 -->
<g id="edge32" class="edge"><title>Node2&#45;&gt;Node7</title>
<path fill="none" stroke="midnightblue" d="M863.621,-176.769C847.263,-169.93 830.507,-159.54 821,-144 801.594,-112.28 836.467,-71.1449 858,-56 867.278,-49.4748 1003.59,-30.3646 1086.31,-19.2582"/>
<polygon fill="midnightblue" stroke="midnightblue" points="862.557,-180.109 873.148,-180.397 865.048,-173.567 862.557,-180.109"/>
</g>
<!-- Node2&#45;&gt;Node8 -->
<g id="edge35" class="edge"><title>Node2&#45;&gt;Node8</title>
<path fill="none" stroke="midnightblue" d="M821.21,-182.174C738.601,-174.828 621.434,-161.761 579,-144 543.639,-129.199 510.089,-97.2587 495.141,-81.773"/>
<polygon fill="midnightblue" stroke="midnightblue" points="821.091,-185.677 831.358,-183.063 821.702,-178.704 821.091,-185.677"/>
</g>
<!-- Node2&#45;&gt;Node9 -->
<g id="edge34" class="edge"><title>Node2&#45;&gt;Node9</title>
<path fill="none" stroke="midnightblue" d="M821.386,-179.354C797.719,-172.77 773.989,-161.891 757,-144 723.148,-108.351 723.119,-43.3945 724.348,-19.8344"/>
<polygon fill="midnightblue" stroke="midnightblue" points="820.593,-182.764 831.147,-181.838 822.319,-175.98 820.593,-182.764"/>
</g>
<!-- Node2&#45;&gt;Node15 -->
<g id="edge17" class="edge"><title>Node2&#45;&gt;Node15</title>
<path fill="none" stroke="midnightblue" d="M822.014,-179.357C742.551,-170.466 621.828,-156.755 517,-144 512.5,-143.452 507.838,-142.875 503.156,-142.288"/>
<polygon fill="midnightblue" stroke="midnightblue" points="821.652,-182.838 831.979,-180.471 822.43,-175.882 821.652,-182.838"/>
</g>
<!-- Node2&#45;&gt;Node16 -->
<g id="edge18" class="edge"><title>Node2&#45;&gt;Node16</title>
<path fill="none" stroke="midnightblue" d="M996.861,-184.537C1201.98,-174.117 1709.35,-148.343 1898.96,-138.711"/>
<polygon fill="midnightblue" stroke="midnightblue" points="996.544,-181.048 986.734,-185.051 996.899,-188.039 996.544,-181.048"/>
</g>
<!-- Node18 -->
<g id="node18" class="node"><title>Node18</title>
<g id="a_node18"><a xlink:href="../../d0/d3c/cipqos_8h.html" target="_top" xlink:title="Public interface of the QoS Object. ">
<polygon fill="none" stroke="black" points="1075,-124.5 1075,-143.5 1161,-143.5 1161,-124.5 1075,-124.5"/>
<text text-anchor="middle" x="1118" y="-131.5" font-family="Helvetica,sans-Serif" font-size="10.00">src/cip/cipqos.h</text>
</a>
</g>
</g>
<!-- Node2&#45;&gt;Node18 -->
<g id="edge22" class="edge"><title>Node2&#45;&gt;Node18</title>
<path fill="none" stroke="midnightblue" d="M951.984,-177.894C991.452,-167.697 1049.1,-152.802 1085.04,-143.516"/>
<polygon fill="midnightblue" stroke="midnightblue" points="950.923,-174.553 942.117,-180.444 952.674,-181.331 950.923,-174.553"/>
</g>
<!-- Node2&#45;&gt;Node20 -->
<g id="edge28" class="edge"><title>Node2&#45;&gt;Node20</title>
<path fill="none" stroke="midnightblue" d="M997.011,-184.875C1127.52,-178.383 1380.01,-164.386 1594,-144 1597.01,-143.713 1600.09,-143.401 1603.2,-143.071"/>
<polygon fill="midnightblue" stroke="midnightblue" points="996.494,-181.397 986.679,-185.386 996.839,-188.388 996.494,-181.397"/>
</g>
<!-- Node21 -->
<g id="node21" class="node"><title>Node21</title>
<g id="a_node21"><a xlink:href="../../df/d91/cipconnectionobject_8c.html" target="_top" xlink:title="src/cip/cipconnectionobject.c">
<polygon fill="none" stroke="black" points="837.5,-124.5 837.5,-143.5 980.5,-143.5 980.5,-124.5 837.5,-124.5"/>
<text text-anchor="middle" x="909" y="-131.5" font-family="Helvetica,sans-Serif" font-size="10.00">src/cip/cipconnectionobject.c</text>
</a>
</g>
</g>
<!-- Node2&#45;&gt;Node21 -->
<g id="edge31" class="edge"><title>Node2&#45;&gt;Node21</title>
<path fill="none" stroke="midnightblue" d="M909,-169.805C909,-160.91 909,-150.78 909,-143.751"/>
<polygon fill="midnightblue" stroke="midnightblue" points="905.5,-170.083 909,-180.083 912.5,-170.083 905.5,-170.083"/>
</g>
<!-- Node2&#45;&gt;Node22 -->
<g id="edge33" class="edge"><title>Node2&#45;&gt;Node22</title>
<path fill="none" stroke="midnightblue" d="M996.953,-185.812C1103.3,-180.9 1275.33,-169.262 1334,-144 1367.27,-129.677 1397.1,-97.2042 1410.1,-81.6373"/>
<polygon fill="midnightblue" stroke="midnightblue" points="996.705,-182.319 986.873,-186.266 997.02,-189.312 996.705,-182.319"/>
</g>
<!-- Node3&#45;&gt;Node4 -->
<g id="edge3" class="edge"><title>Node3&#45;&gt;Node4</title>
<path fill="none" stroke="midnightblue" d="M648.488,-114.16C647.033,-103.248 645.272,-90.04 644.144,-81.5806"/>
<polygon fill="midnightblue" stroke="midnightblue" points="645.063,-114.954 649.854,-124.403 652.001,-114.029 645.063,-114.954"/>
</g>
<!-- Node3&#45;&gt;Node5 -->
<g id="edge4" class="edge"><title>Node3&#45;&gt;Node5</title>
<path fill="none" stroke="midnightblue" d="M699.474,-122.228C751.965,-110.563 834.617,-92.1963 882.735,-81.5034"/>
<polygon fill="midnightblue" stroke="midnightblue" points="698.4,-118.881 689.398,-124.467 699.919,-125.714 698.4,-118.881"/>
</g>
<!-- Node3&#45;&gt;Node6 -->
<g id="edge5" class="edge"><title>Node3&#45;&gt;Node6</title>
<path fill="none" stroke="midnightblue" d="M682.914,-120.851C738.737,-99.6385 849.068,-57.9049 858,-56 975.034,-31.0413 1324.59,-17.9038 1481.39,-13.1309"/>
<polygon fill="midnightblue" stroke="midnightblue" points="681.585,-117.611 673.482,-124.437 684.073,-124.155 681.585,-117.611"/>
</g>
<!-- Node3&#45;&gt;Node7 -->
<g id="edge6" class="edge"><title>Node3&#45;&gt;Node7</title>
<path fill="none" stroke="midnightblue" d="M671.056,-118.268C696.588,-100.336 742.719,-70.6419 787,-56 910.312,-15.2258 948.118,-36.0547 1077,-20 1080,-19.6263 1083.07,-19.2435 1086.17,-18.8567"/>
<polygon fill="midnightblue" stroke="midnightblue" points="668.725,-115.631 662.622,-124.292 672.794,-121.327 668.725,-115.631"/>
</g>
<!-- Node3&#45;&gt;Node8 -->
<g id="edge7" class="edge"><title>Node3&#45;&gt;Node8</title>
<path fill="none" stroke="midnightblue" d="M617.739,-120.831C585.864,-109.17 538.566,-91.8655 510.454,-81.5806"/>
<polygon fill="midnightblue" stroke="midnightblue" points="616.909,-124.255 627.503,-124.403 619.314,-117.681 616.909,-124.255"/>
</g>
<!-- Node3&#45;&gt;Node14 -->
<g id="edge15" class="edge"><title>Node3&#45;&gt;Node14</title>
<path fill="none" stroke="midnightblue" d="M591.997,-122.739C534.968,-112.821 448.182,-97.7273 385.169,-86.7685"/>
<polygon fill="midnightblue" stroke="midnightblue" points="591.484,-126.202 601.936,-124.467 592.684,-119.305 591.484,-126.202"/>
</g>
<!-- Node8&#45;&gt;Node6 -->
<g id="edge8" class="edge"><title>Node8&#45;&gt;Node6</title>
<path fill="none" stroke="midnightblue" d="M543.204,-60.8776C555.308,-58.9943 568.053,-57.234 580,-56 754.216,-38.0056 1281.38,-19.8502 1481.14,-13.4304"/>
<polygon fill="midnightblue" stroke="midnightblue" points="542.54,-57.4393 533.221,-62.4795 543.649,-64.3509 542.54,-57.4393"/>
</g>
<!-- Node8&#45;&gt;Node7 -->
<g id="edge9" class="edge"><title>Node8&#45;&gt;Node7</title>
<path fill="none" stroke="midnightblue" d="M544.744,-60.8812C556.391,-59.0676 568.567,-57.3335 580,-56 799.976,-30.343 856.602,-41.7422 1077,-20 1080.01,-19.7032 1083.09,-19.3829 1086.19,-19.0462"/>
<polygon fill="midnightblue" stroke="midnightblue" points="544.001,-57.4554 534.678,-62.4874 545.104,-64.3679 544.001,-57.4554"/>
</g>
<!-- Node8&#45;&gt;Node9 -->
<g id="edge10" class="edge"><title>Node8&#45;&gt;Node9</title>
<path fill="none" stroke="midnightblue" d="M530.6,-60.0084C576.908,-48.3341 649.12,-30.1294 691.27,-19.5034"/>
<polygon fill="midnightblue" stroke="midnightblue" points="529.688,-56.6288 520.847,-62.4672 531.399,-63.4164 529.688,-56.6288"/>
</g>
<!-- Node10 -->
<g id="node10" class="node"><title>Node10</title>
<g id="a_node10"><a xlink:href="../../db/d4f/generic__networkhandler_8c.html" target="_top" xlink:title="This file includes all platform&#45;independent functions of the network handler to reduce code duplicati...">
<polygon fill="none" stroke="black" points="899.5,-0.5 899.5,-19.5 1068.5,-19.5 1068.5,-0.5 899.5,-0.5"/>
<text text-anchor="middle" x="984" y="-7.5" font-family="Helvetica,sans-Serif" font-size="10.00">src/ports/generic_networkhandler.c</text>
</a>
</g>
</g>
<!-- Node8&#45;&gt;Node10 -->
<g id="edge11" class="edge"><title>Node8&#45;&gt;Node10</title>
<path fill="none" stroke="midnightblue" d="M547.047,-60.8729C557.997,-59.1521 569.33,-57.4538 580,-56 689.959,-41.0175 817.266,-27.4621 899.12,-19.2338"/>
<polygon fill="midnightblue" stroke="midnightblue" points="546.453,-57.4232 537.129,-62.4531 547.555,-64.336 546.453,-57.4232"/>
</g>
<!-- Node8&#45;&gt;Node11 -->
<g id="edge12" class="edge"><title>Node8&#45;&gt;Node11</title>
<path fill="none" stroke="midnightblue" d="M435.992,-60.3734C380.04,-48.7166 291.356,-30.2408 239.816,-19.5034"/>
<polygon fill="midnightblue" stroke="midnightblue" points="435.539,-63.854 446.042,-62.4672 436.967,-57.0011 435.539,-63.854"/>
</g>
<!-- Node8&#45;&gt;Node12 -->
<g id="edge13" class="edge"><title>Node8&#45;&gt;Node12</title>
<path fill="none" stroke="midnightblue" d="M424.788,-60.8577C414.188,-59.1912 403.284,-57.5151 393,-56 341.85,-48.4639 201.893,-29.7908 120.626,-19.0156"/>
<polygon fill="midnightblue" stroke="midnightblue" points="424.403,-64.3403 434.827,-62.447 425.498,-57.4264 424.403,-64.3403"/>
</g>
<!-- Node13 -->
<g id="node13" class="node"><title>Node13</title>
<g id="a_node13"><a xlink:href="../../d8/d6c/WIN32_2networkhandler_8c.html" target="_top" xlink:title="src/ports/WIN32/networkhandler.c">
<polygon fill="none" stroke="black" points="404,-0.5 404,-19.5 570,-19.5 570,-0.5 404,-0.5"/>
<text text-anchor="middle" x="487" y="-7.5" font-family="Helvetica,sans-Serif" font-size="10.00">src/ports/WIN32/networkhandler.c</text>
</a>
</g>
</g>
<!-- Node8&#45;&gt;Node13 -->
<g id="edge14" class="edge"><title>Node8&#45;&gt;Node13</title>
<path fill="none" stroke="midnightblue" d="M487,-52.1595C487,-41.2482 487,-28.04 487,-19.5806"/>
<polygon fill="midnightblue" stroke="midnightblue" points="483.5,-52.4034 487,-62.4035 490.5,-52.4035 483.5,-52.4034"/>
</g>
<!-- Node16&#45;&gt;Node6 -->
<g id="edge20" class="edge"><title>Node16&#45;&gt;Node6</title>
<path fill="none" stroke="midnightblue" d="M1945.65,-119.722C1929.3,-111.198 1908.05,-99.5892 1890,-88 1869.95,-75.1279 1868.97,-65.2194 1847,-56 1779.45,-27.6505 1696.22,-16.9733 1636.63,-13.0472"/>
<polygon fill="midnightblue" stroke="midnightblue" points="1944.15,-122.888 1954.64,-124.36 1947.36,-116.667 1944.15,-122.888"/>
</g>
<!-- Node17 -->
<g id="node17" class="node"><title>Node17</title>
<g id="a_node17"><a xlink:href="../../dc/d93/cipclass3connection_8c.html" target="_top" xlink:title="src/cip/cipclass3connection.c">
<polygon fill="none" stroke="black" points="1899,-62.5 1899,-81.5 2045,-81.5 2045,-62.5 1899,-62.5"/>
<text text-anchor="middle" x="1972" y="-69.5" font-family="Helvetica,sans-Serif" font-size="10.00">src/cip/cipclass3connection.c</text>
</a>
</g>
</g>
<!-- Node16&#45;&gt;Node17 -->
<g id="edge19" class="edge"><title>Node16&#45;&gt;Node17</title>
<path fill="none" stroke="midnightblue" d="M1972,-114.16C1972,-103.248 1972,-90.04 1972,-81.5806"/>
<polygon fill="midnightblue" stroke="midnightblue" points="1968.5,-114.403 1972,-124.403 1975.5,-114.403 1968.5,-114.403"/>
</g>
<!-- Node18&#45;&gt;Node5 -->
<g id="edge23" class="edge"><title>Node18&#45;&gt;Node5</title>
<path fill="none" stroke="midnightblue" d="M1080.02,-121.432C1041.73,-109.771 983.526,-92.0436 949.173,-81.5806"/>
<polygon fill="midnightblue" stroke="midnightblue" points="1079.19,-124.838 1089.77,-124.403 1081.23,-118.142 1079.19,-124.838"/>
</g>
<!-- Node18&#45;&gt;Node6 -->
<g id="edge24" class="edge"><title>Node18&#45;&gt;Node6</title>
<path fill="none" stroke="midnightblue" d="M1116.75,-114.185C1116.69,-96.4081 1119.72,-70.3835 1136,-56 1161.29,-33.6613 1366.03,-20.284 1481.13,-14.4576"/>
<polygon fill="midnightblue" stroke="midnightblue" points="1113.25,-114.373 1117.11,-124.241 1120.25,-114.122 1113.25,-114.373"/>
</g>
<!-- Node18&#45;&gt;Node10 -->
<g id="edge26" class="edge"><title>Node18&#45;&gt;Node10</title>
<path fill="none" stroke="midnightblue" d="M1100.77,-117.315C1072.21,-91.307 1015.96,-40.1023 993.55,-19.6944"/>
<polygon fill="midnightblue" stroke="midnightblue" points="1098.61,-120.082 1108.36,-124.226 1103.32,-114.906 1098.61,-120.082"/>
</g>
<!-- Node18&#45;&gt;Node19 -->
<g id="edge25" class="edge"><title>Node18&#45;&gt;Node19</title>
<path fill="none" stroke="midnightblue" d="M1135.68,-117.846C1149.07,-106.371 1166.98,-91.0195 1177.99,-81.5806"/>
<polygon fill="midnightblue" stroke="midnightblue" points="1133.34,-115.238 1128.03,-124.403 1137.9,-120.553 1133.34,-115.238"/>
</g>
<!-- Node20&#45;&gt;Node6 -->
<g id="edge29" class="edge"><title>Node20&#45;&gt;Node6</title>
<path fill="none" stroke="midnightblue" d="M1651.65,-116.639C1628.66,-90.4302 1584.37,-39.9271 1566.63,-19.6944"/>
<polygon fill="midnightblue" stroke="midnightblue" points="1649.08,-119.016 1658.3,-124.226 1654.34,-114.4 1649.08,-119.016"/>
</g>
<!-- Node20&#45;&gt;Node7 -->
<g id="edge30" class="edge"><title>Node20&#45;&gt;Node7</title>
<path fill="none" stroke="midnightblue" d="M1639.96,-119.691C1604.66,-102.247 1539.21,-71.9941 1480,-56 1388.46,-31.2746 1278.83,-19.7764 1211.56,-14.6953"/>
<polygon fill="midnightblue" stroke="midnightblue" points="1638.57,-122.913 1649.08,-124.25 1641.7,-116.65 1638.57,-122.913"/>
</g>
<!-- Node23&#45;&gt;Node2 -->
<g id="edge37" class="edge"><title>Node23&#45;&gt;Node2</title>
<path fill="none" stroke="midnightblue" d="M1174.31,-240.59C1112.02,-228.947 1012.3,-210.308 954.493,-199.503"/>
<polygon fill="midnightblue" stroke="midnightblue" points="1173.88,-244.07 1184.35,-242.467 1175.16,-237.189 1173.88,-244.07"/>
</g>
<!-- Node23&#45;&gt;Node4 -->
<g id="edge38" class="edge"><title>Node23&#45;&gt;Node4</title>
<path fill="none" stroke="midnightblue" d="M1148.18,-246.733C945.386,-235.324 432.245,-201.046 382,-144 338.559,-94.6799 279.258,-151.095 580,-88 589.353,-86.0377 599.441,-83.7249 608.744,-81.5105"/>
<polygon fill="midnightblue" stroke="midnightblue" points="1148,-250.228 1158.18,-247.291 1148.39,-243.239 1148,-250.228"/>
</g>
<!-- Node23&#45;&gt;Node6 -->
<g id="edge40" class="edge"><title>Node23&#45;&gt;Node6</title>
<path fill="none" stroke="midnightblue" d="M1304.77,-241.099C1443.31,-222.002 1728.49,-178.886 1757,-144 1779.09,-116.974 1757.66,-84.4617 1723,-56 1698.7,-36.0462 1666.23,-24.9065 1636.6,-18.7007"/>
<polygon fill="midnightblue" stroke="midnightblue" points="1304.08,-237.66 1294.65,-242.487 1305.03,-244.595 1304.08,-237.66"/>
</g>
<!-- Node23&#45;&gt;Node11 -->
<g id="edge55" class="edge"><title>Node23&#45;&gt;Node11</title>
<path fill="none" stroke="midnightblue" d="M1148.03,-248.911C980.47,-244.073 603.981,-230.132 479,-200 356.287,-170.415 299.674,-184.245 218,-88 201.073,-68.053 198.806,-35.3 198.762,-19.7375"/>
<polygon fill="midnightblue" stroke="midnightblue" points="1148.18,-252.417 1158.28,-249.203 1148.38,-245.42 1148.18,-252.417"/>
</g>
<!-- Node23&#45;&gt;Node16 -->
<g id="edge39" class="edge"><title>Node23&#45;&gt;Node16</title>
<path fill="none" stroke="midnightblue" d="M1311.88,-245.041C1405.1,-237.558 1561.72,-222.86 1695,-200 1785.31,-184.51 1890.18,-157.34 1941.1,-143.549"/>
<polygon fill="midnightblue" stroke="midnightblue" points="1311.36,-241.571 1301.67,-245.852 1311.92,-248.549 1311.36,-241.571"/>
</g>
<!-- Node23&#45;&gt;Node20 -->
<g id="edge41" class="edge"><title>Node23&#45;&gt;Node20</title>
<path fill="none" stroke="midnightblue" d="M1271.82,-239.873C1358.54,-216.802 1556.29,-164.19 1633.89,-143.542"/>
<polygon fill="midnightblue" stroke="midnightblue" points="1270.82,-236.517 1262.06,-242.47 1272.62,-243.281 1270.82,-236.517"/>
</g>
<!-- Node23&#45;&gt;Node21 -->
<g id="edge42" class="edge"><title>Node23&#45;&gt;Node21</title>
<path fill="none" stroke="midnightblue" d="M1196.64,-238.944C1131.54,-215.419 989.022,-163.918 932.638,-143.542"/>
<polygon fill="midnightblue" stroke="midnightblue" points="1195.8,-242.363 1206.4,-242.47 1198.18,-235.78 1195.8,-242.363"/>
</g>
<!-- Node24 -->
<g id="node24" class="node"><title>Node24</title>
<g id="a_node24"><a xlink:href="../../d7/df9/encap_8h.html" target="_top" xlink:title="This file contains the public interface of the encapsulation layer. ">
<polygon fill="none" stroke="black" points="1169.5,-180.5 1169.5,-199.5 1290.5,-199.5 1290.5,-180.5 1169.5,-180.5"/>
<text text-anchor="middle" x="1230" y="-187.5" font-family="Helvetica,sans-Serif" font-size="10.00">src/enet_encap/encap.h</text>
</a>
</g>
</g>
<!-- Node23&#45;&gt;Node24 -->
<g id="edge43" class="edge"><title>Node23&#45;&gt;Node24</title>
<path fill="none" stroke="midnightblue" d="M1230,-232.16C1230,-221.248 1230,-208.04 1230,-199.581"/>
<polygon fill="midnightblue" stroke="midnightblue" points="1226.5,-232.403 1230,-242.403 1233.5,-232.403 1226.5,-232.403"/>
</g>
<!-- Node24&#45;&gt;Node5 -->
<g id="edge44" class="edge"><title>Node24&#45;&gt;Node5</title>
<path fill="none" stroke="midnightblue" d="M1159.27,-178.855C1120.93,-171.881 1073.28,-160.783 1033,-144 992.835,-127.265 950.929,-96.541 931.746,-81.6053"/>
<polygon fill="midnightblue" stroke="midnightblue" points="1158.86,-182.337 1169.31,-180.628 1160.07,-175.443 1158.86,-182.337"/>
</g>
<!-- Node24&#45;&gt;Node6 -->
<g id="edge45" class="edge"><title>Node24&#45;&gt;Node6</title>
<path fill="none" stroke="midnightblue" d="M1300.82,-187.9C1433.36,-185.103 1708.15,-175.528 1737,-144 1788.7,-87.511 1653.2,-38.6604 1589.73,-19.5656"/>
<polygon fill="midnightblue" stroke="midnightblue" points="1300.69,-184.402 1290.76,-188.105 1300.83,-191.401 1300.69,-184.402"/>
</g>
<!-- Node24&#45;&gt;Node9 -->
<g id="edge52" class="edge"><title>Node24&#45;&gt;Node9</title>
<path fill="none" stroke="midnightblue" d="M1159.12,-178.367C1128.9,-171.664 1094.19,-160.945 1066,-144 1042.96,-130.151 1006.67,-68.7378 983,-56 921.239,-22.767 840.237,-13.245 785.604,-10.9257"/>
<polygon fill="midnightblue" stroke="midnightblue" points="1158.68,-181.85 1169.19,-180.489 1160.12,-175 1158.68,-181.85"/>
</g>
<!-- Node24&#45;&gt;Node10 -->
<g id="edge53" class="edge"><title>Node24&#45;&gt;Node10</title>
<path fill="none" stroke="midnightblue" d="M1217.42,-171.559C1209.54,-158.4 1201.94,-139.95 1208,-124 1215.61,-103.99 1232.39,-108.01 1240,-88 1245.05,-74.7062 1249.14,-66.8924 1240,-56 1228.45,-42.2405 1132.2,-28.186 1061.11,-19.5281"/>
<polygon fill="midnightblue" stroke="midnightblue" points="1214.61,-173.65 1223.02,-180.095 1220.46,-169.813 1214.61,-173.65"/>
</g>
<!-- Node25 -->
<g id="node25" class="node"><title>Node25</title>
<g id="a_node25"><a xlink:href="../../d0/dff/cpf_8h.html" target="_top" xlink:title="src/enet_encap/cpf.h">
<polygon fill="none" stroke="black" points="1217,-124.5 1217,-143.5 1325,-143.5 1325,-124.5 1217,-124.5"/>
<text text-anchor="middle" x="1271" y="-131.5" font-family="Helvetica,sans-Serif" font-size="10.00">src/enet_encap/cpf.h</text>
</a>
</g>
</g>
<!-- Node24&#45;&gt;Node25 -->
<g id="edge46" class="edge"><title>Node24&#45;&gt;Node25</title>
<path fill="none" stroke="midnightblue" d="M1243.02,-171.855C1250.12,-162.505 1258.6,-151.327 1264.36,-143.751"/>
<polygon fill="midnightblue" stroke="midnightblue" points="1240.03,-170.002 1236.77,-180.083 1245.61,-174.235 1240.03,-170.002"/>
</g>
<!-- Node26 -->
<g id="node26" class="node"><title>Node26</title>
<g id="a_node26"><a xlink:href="../../d2/d5e/POSIX_2networkhandler_8c.html" target="_top" xlink:title="src/ports/POSIX/networkhandler.c">
<polygon fill="none" stroke="black" points="1419,-124.5 1419,-143.5 1585,-143.5 1585,-124.5 1419,-124.5"/>
<text text-anchor="middle" x="1502" y="-131.5" font-family="Helvetica,sans-Serif" font-size="10.00">src/ports/POSIX/networkhandler.c</text>
</a>
</g>
</g>
<!-- Node24&#45;&gt;Node26 -->
<g id="edge54" class="edge"><title>Node24&#45;&gt;Node26</title>
<path fill="none" stroke="midnightblue" d="M1283.02,-178.473C1334.43,-168.268 1411.44,-152.979 1459.1,-143.516"/>
<polygon fill="midnightblue" stroke="midnightblue" points="1282.23,-175.063 1273.1,-180.444 1283.59,-181.929 1282.23,-175.063"/>
</g>
<!-- Node25&#45;&gt;Node5 -->
<g id="edge47" class="edge"><title>Node25&#45;&gt;Node5</title>
<path fill="none" stroke="midnightblue" d="M1211.11,-122.734C1143.25,-111.101 1033.89,-92.3522 970.603,-81.5034"/>
<polygon fill="midnightblue" stroke="midnightblue" points="1210.78,-126.227 1221.23,-124.467 1211.96,-119.328 1210.78,-126.227"/>
</g>
<!-- Node25&#45;&gt;Node6 -->
<g id="edge48" class="edge"><title>Node25&#45;&gt;Node6</title>
<path fill="none" stroke="midnightblue" d="M1284.11,-116.427C1299.09,-98.6755 1325.26,-71.0339 1354,-56 1393.23,-35.4777 1441.4,-24.2991 1481.18,-18.2178"/>
<polygon fill="midnightblue" stroke="midnightblue" points="1281.33,-114.297 1277.7,-124.249 1286.75,-118.736 1281.33,-114.297"/>
</g>
<!-- Node25&#45;&gt;Node7 -->
<g id="edge49" class="edge"><title>Node25&#45;&gt;Node7</title>
<path fill="none" stroke="midnightblue" d="M1277.17,-114.706C1281.62,-97.8942 1284.96,-73.0675 1273,-56 1258.87,-35.8398 1234.74,-24.676 1211.5,-18.5079"/>
<polygon fill="midnightblue" stroke="midnightblue" points="1273.77,-113.849 1274.24,-124.434 1280.48,-115.869 1273.77,-113.849"/>
</g>
<!-- Node25&#45;&gt;Node9 -->
<g id="edge51" class="edge"><title>Node25&#45;&gt;Node9</title>
<path fill="none" stroke="midnightblue" d="M1237.16,-121.066C1188.86,-104.418 1097.12,-74.2217 1017,-56 937.85,-37.999 844.974,-25.0575 785.588,-17.7989"/>
<polygon fill="midnightblue" stroke="midnightblue" points="1236.19,-124.435 1246.79,-124.403 1238.49,-117.821 1236.19,-124.435"/>
</g>
<!-- Node25&#45;&gt;Node22 -->
<g id="edge50" class="edge"><title>Node25&#45;&gt;Node22</title>
<path fill="none" stroke="midnightblue" d="M1301.35,-120.527C1329.71,-108.871 1371.31,-91.7764 1396.12,-81.5806"/>
<polygon fill="midnightblue" stroke="midnightblue" points="1299.84,-117.365 1291.92,-124.403 1302.5,-123.84 1299.84,-117.365"/>
</g>
</g>
</svg>
        <g id="navigator" transform="translate(0 0)" fill="#404254">
                <rect fill="#f2f5e9" fill-opacity="0.5" stroke="#606060" stroke-width=".5" x="0" y="0" width="60" height="60"/>
                <use id="zoomplus" xlink:href="#zoomPlus" x="17" y="9" onmousedown="handleZoom(evt,'in')"/>
                <use id="zoomminus" xlink:href="#zoomMin" x="42" y="9" onmousedown="handleZoom(evt,'out')"/>
                <use id="reset" xlink:href="#resetDef" x="30" y="36" onmousedown="handleReset()"/>
                <g id="arrowUp" xlink:href="#dirArrow" transform="translate(30 24)" onmousedown="handlePan(0,-1)">
                  <use xlink:href="#rim" fill="#404040">
                        <set attributeName="fill" to="#808080" begin="arrowUp.mouseover" end="arrowUp.mouseout"/>
                  </use>
                  <path fill="none" stroke="white" stroke-width="1.5" d="M0,-3.0v7 M-2.5,-0.5L0,-3.0L2.5,-0.5"/>
                </g>
                <g id="arrowRight" xlink:href="#dirArrow" transform="rotate(90) translate(36 -43)" onmousedown="handlePan(1,0)">
                  <use xlink:href="#rim" fill="#404040">
                        <set attributeName="fill" to="#808080" begin="arrowRight.mouseover" end="arrowRight.mouseout"/>
                  </use>
                  <path fill="none" stroke="white" stroke-width="1.5" d="M0,-3.0v7 M-2.5,-0.5L0,-3.0L2.5,-0.5"/>
                </g>
                <g id="arrowDown" xlink:href="#dirArrow" transform="rotate(180) translate(-30 -48)" onmousedown="handlePan(0,1)">
                  <use xlink:href="#rim" fill="#404040">
                        <set attributeName="fill" to="#808080" begin="arrowDown.mouseover" end="arrowDown.mouseout"/>
                  </use>
                  <path fill="none" stroke="white" stroke-width="1.5" d="M0,-3.0v7 M-2.5,-0.5L0,-3.0L2.5,-0.5"/>
                </g>
                <g id="arrowLeft" xlink:href="#dirArrow" transform="rotate(270) translate(-36 17)" onmousedown="handlePan(-1,0)">
                  <use xlink:href="#rim" fill="#404040">
                        <set attributeName="fill" to="#808080" begin="arrowLeft.mouseover" end="arrowLeft.mouseout"/>
                  </use>
                  <path fill="none" stroke="white" stroke-width="1.5" d="M0,-3.0v7 M-2.5,-0.5L0,-3.0L2.5,-0.5"/>
                </g>
        </g>
        <svg viewBox="0 0 15 15" width="100%" height="30px" preserveAspectRatio="xMaxYMin meet">
         <g id="arrow_out" transform="scale(0.3 0.3)">
          <a xlink:href="opener__api_8h__dep__incl_org.svg" target="_base">
           <rect id="button" ry="5" rx="5" y="6" x="6" height="38" width="38"
                fill="#f2f5e9" fill-opacity="0.5" stroke="#606060" stroke-width="1.0"/>
           <path id="arrow"
             d="M 11.500037,31.436501 C 11.940474,20.09759 22.043105,11.32322 32.158766,21.979434 L 37.068811,17.246167 C 37.068811,17.246167 37.088388,32 37.088388,32 L 22.160133,31.978069 C 22.160133,31.978069 26.997745,27.140456 26.997745,27.140456 C 18.528582,18.264221 13.291696,25.230495 11.500037,31.436501 z"
             style="fill:#404040;"/>
          </a>
         </g>
        </svg>
</svg>
