<?xml version="1.0" encoding="UTF-8" standalone="no"?>
<!DOCTYPE svg PUBLIC "-//W3C//DTD SVG 1.1//EN"
 "http://www.w3.org/Graphics/SVG/1.1/DTD/svg11.dtd">
<!-- Generated by graphviz version 2.26.3 (20100126.1600)
 -->
<!-- Title: G Pages: 1 -->
<!--zoomable 262 -->
<svg id="main" version="1.1" xmlns="http://www.w3.org/2000/svg" xmlns:xlink="http://www.w3.org/1999/xlink" xml:space="preserve" onload="init(evt)">
        <defs>
                <circle id="rim" cx="0" cy="0" r="7"/>
                <circle id="rim2" cx="0" cy="0" r="3.5"/>
                <g id="zoomPlus">
                        <use xlink:href="#rim" fill="#404040">
                                <set attributeName="fill" to="#808080" begin="zoomplus.mouseover" end="zoomplus.mouseout"/>
                        </use>
                        <path d="M-4,0h8M0,-4v8" fill="none" stroke="white" stroke-width="1.5" pointer-events="none"/>
                </g>
                <g id="zoomMin">
                        <use xlink:href="#rim" fill="#404040">
                                <set attributeName="fill" to="#808080" begin="zoomminus.mouseover" end="zoomminus.mouseout"/>
                        </use>
                        <path d="M-4,0h8" fill="none" stroke="white" stroke-width="1.5" pointer-events="none"/>
                </g>
                <g id="dirArrow">
                        <path fill="none" stroke="white" stroke-width="1.5" d="M0,-3.0v7 M-2.5,-0.5L0,-3.0L2.5,-0.5"/>
                </g>
               <g id="resetDef">
                       <use xlink:href="#rim2" fill="#404040">
                               <set attributeName="fill" to="#808080" begin="reset.mouseover" end="reset.mouseout"/>
                       </use>
               </g>
        </defs>

<script type="text/javascript">
var viewWidth = 2144;
var viewHeight = 262;
var sectionId = 'dynsection-1';
</script>
<script xlink:href="../../svgpan.js"/>
<svg id="graph" class="graph">
<g id="viewport">
<title>G</title>
<!-- Node1 -->
<g id="node1" class="node"><title>Node1</title>
<polygon fill="#bfbfbf" stroke="black" points="1112.74,-232.5 1112.74,-253.5 1201.74,-253.5 1201.74,-232.5 1112.74,-232.5"/>
<text text-anchor="middle" x="1157.24" y="-240.5" font-family="Helvetica,sans-Serif" font-size="10.00">src/opener_api.h</text>
</g>
<!-- Node2 -->
<g id="node3" class="node"><title>Node2</title>
<a xlink:href="../../d2/da3/cipconnectionmanager_8h.html" target="_top" xlink:title="src/cip/cipconnectionmanager.h">
<polygon fill="none" stroke="black" points="556.738,-174.5 556.738,-195.5 711.738,-195.5 711.738,-174.5 556.738,-174.5"/>
<text text-anchor="middle" x="634.238" y="-182.5" font-family="Helvetica,sans-Serif" font-size="10.00">src/cip/cipconnectionmanager.h</text>
</a>
</g>
<!-- Node1&#45;&gt;Node2 -->
<g id="edge2" class="edge"><title>Node1&#45;&gt;Node2</title>
<path fill="none" stroke="midnightblue" d="M1102.58,-236.939C1009.35,-226.6 819.312,-205.524 712.184,-193.644"/>
<polygon fill="midnightblue" stroke="midnightblue" points="1102.32,-240.431 1112.65,-238.055 1103.09,-233.474 1102.32,-240.431"/>
</g>
<!-- Node4 -->
<g id="node7" class="node"><title>Node4</title>
<a xlink:href="../../d1/dbc/appcontype_8c.html" target="_top" xlink:title="src/cip/appcontype.c">
<polygon fill="none" stroke="black" points="335.738,-58.5 335.738,-79.5 442.738,-79.5 442.738,-58.5 335.738,-58.5"/>
<text text-anchor="middle" x="389.238" y="-66.5" font-family="Helvetica,sans-Serif" font-size="10.00">src/cip/appcontype.c</text>
</a>
</g>
<!-- Node1&#45;&gt;Node4 -->
<g id="edge60" class="edge"><title>Node1&#45;&gt;Node4</title>
<path fill="none" stroke="midnightblue" d="M1101.91,-241.004C957.443,-235.493 576.393,-218.947 524.238,-196 464.448,-169.693 414.593,-105.25 396.513,-79.6937"/>
<polygon fill="midnightblue" stroke="midnightblue" points="1102.18,-244.516 1112.31,-241.397 1102.45,-237.521 1102.18,-244.516"/>
</g>
<!-- Node5 -->
<g id="node9" class="node"><title>Node5</title>
<a xlink:href="../../d2/d3d/cipcommon_8c.html" target="_top" xlink:title="src/cip/cipcommon.c">
<polygon fill="none" stroke="black" points="459.738,-58.5 459.738,-79.5 566.738,-79.5 566.738,-58.5 459.738,-58.5"/>
<text text-anchor="middle" x="513.238" y="-66.5" font-family="Helvetica,sans-Serif" font-size="10.00">src/cip/cipcommon.c</text>
</a>
</g>
<!-- Node1&#45;&gt;Node5 -->
<g id="edge66" class="edge"><title>Node1&#45;&gt;Node5</title>
<path fill="none" stroke="midnightblue" d="M1102.54,-241.757C961.639,-238.137 594.04,-225.908 548.238,-196 509.365,-170.616 510.135,-105.632 512.119,-79.8124"/>
<polygon fill="midnightblue" stroke="midnightblue" points="1102.6,-245.259 1112.69,-242.012 1102.78,-238.261 1102.6,-245.259"/>
</g>
<!-- Node6 -->
<g id="node11" class="node"><title>Node6</title>
<a xlink:href="../../d5/d35/cipconnectionmanager_8c.html" target="_top" xlink:title="src/cip/cipconnectionmanager.c">
<polygon fill="none" stroke="black" points="192.738,-0.5 192.738,-21.5 347.738,-21.5 347.738,-0.5 192.738,-0.5"/>
<text text-anchor="middle" x="270.238" y="-8.5" font-family="Helvetica,sans-Serif" font-size="10.00">src/cip/cipconnectionmanager.c</text>
</a>
</g>
<!-- Node1&#45;&gt;Node6 -->
<g id="edge68" class="edge"><title>Node1&#45;&gt;Node6</title>
<path fill="none" stroke="midnightblue" d="M1102.37,-241.728C931.837,-237.53 412.59,-222.829 246.238,-196 150.223,-180.515 108.141,-202.374 35.2384,-138 7.4129,-113.429 -12.5516,-86.4957 11.2384,-58 34.0464,-30.6807 124.97,-19.2064 192.684,-14.4092"/>
<polygon fill="midnightblue" stroke="midnightblue" points="1102.53,-245.233 1112.61,-241.978 1102.7,-238.235 1102.53,-245.233"/>
</g>
<!-- Node8 -->
<g id="node15" class="node"><title>Node8</title>
<a xlink:href="../../da/dc2/generic__networkhandler_8h.html" target="_top" xlink:title="src/ports/generic_networkhandler.h">
<polygon fill="none" stroke="black" points="697.738,-58.5 697.738,-79.5 866.738,-79.5 866.738,-58.5 697.738,-58.5"/>
<text text-anchor="middle" x="782.238" y="-66.5" font-family="Helvetica,sans-Serif" font-size="10.00">src/ports/generic_networkhandler.h</text>
</a>
</g>
<!-- Node1&#45;&gt;Node8 -->
<g id="edge84" class="edge"><title>Node1&#45;&gt;Node8</title>
<path fill="none" stroke="midnightblue" d="M1157.47,-222.403C1156.58,-193.846 1150.38,-142.731 1119.24,-116 1100.36,-99.7923 960.331,-84.5586 866.818,-76.0385"/>
<polygon fill="midnightblue" stroke="midnightblue" points="1153.97,-222.516 1157.59,-232.473 1160.97,-222.432 1153.97,-222.516"/>
</g>
<!-- Node9 -->
<g id="node19" class="node"><title>Node9</title>
<a xlink:href="../../d2/dbd/encap_8c.html" target="_top" xlink:title="src/enet_encap/encap.c">
<polygon fill="none" stroke="black" points="953.738,-0.5 953.738,-21.5 1074.74,-21.5 1074.74,-0.5 953.738,-0.5"/>
<text text-anchor="middle" x="1014.24" y="-8.5" font-family="Helvetica,sans-Serif" font-size="10.00">src/enet_encap/encap.c</text>
</a>
</g>
<!-- Node1&#45;&gt;Node9 -->
<g id="edge82" class="edge"><title>Node1&#45;&gt;Node9</title>
<path fill="none" stroke="midnightblue" d="M1170.45,-223.348C1193.18,-186.841 1233.73,-107.759 1195.24,-58 1187.29,-47.728 1118.58,-31.9366 1068.16,-21.5376"/>
<polygon fill="midnightblue" stroke="midnightblue" points="1167.31,-221.758 1164.85,-232.064 1173.2,-225.542 1167.31,-221.758"/>
</g>
<!-- Node11 -->
<g id="node23" class="node"><title>Node11</title>
<a xlink:href="../../d9/dfb/POSIX_2main_8c.html" target="_top" xlink:title="src/ports/POSIX/main.c">
<polygon fill="none" stroke="black" points="1091.74,-0.5 1091.74,-21.5 1212.74,-21.5 1212.74,-0.5 1091.74,-0.5"/>
<text text-anchor="middle" x="1152.24" y="-8.5" font-family="Helvetica,sans-Serif" font-size="10.00">src/ports/POSIX/main.c</text>
</a>
</g>
<!-- Node1&#45;&gt;Node11 -->
<g id="edge86" class="edge"><title>Node1&#45;&gt;Node11</title>
<path fill="none" stroke="midnightblue" d="M1194.3,-227.638C1207.47,-220.16 1220.85,-209.754 1228.24,-196 1257.27,-141.971 1258.1,-111.574 1228.24,-58 1218.65,-40.7902 1199.87,-29.0886 1183.38,-21.6655"/>
<polygon fill="midnightblue" stroke="midnightblue" points="1192.53,-224.614 1185.3,-232.353 1195.78,-230.816 1192.53,-224.614"/>
</g>
<!-- Node12 -->
<g id="node25" class="node"><title>Node12</title>
<a xlink:href="../../dc/db2/WIN32_2main_8c.html" target="_top" xlink:title="src/ports/WIN32/main.c">
<polygon fill="none" stroke="black" points="1229.74,-0.5 1229.74,-21.5 1350.74,-21.5 1350.74,-0.5 1229.74,-0.5"/>
<text text-anchor="middle" x="1290.24" y="-8.5" font-family="Helvetica,sans-Serif" font-size="10.00">src/ports/WIN32/main.c</text>
</a>
</g>
<!-- Node1&#45;&gt;Node12 -->
<g id="edge90" class="edge"><title>Node1&#45;&gt;Node12</title>
<path fill="none" stroke="midnightblue" d="M1201.56,-228.507C1218,-221.126 1235.48,-210.559 1247.24,-196 1290.74,-142.128 1291.81,-52.1509 1290.79,-21.5548"/>
<polygon fill="midnightblue" stroke="midnightblue" points="1199.92,-225.399 1192.05,-232.492 1202.63,-231.854 1199.92,-225.399"/>
</g>
<!-- Node14 -->
<g id="node29" class="node"><title>Node14</title>
<a xlink:href="../../d2/daa/POSIX_2sample__application_2sampleapplication_8c.html" target="_top" xlink:title="src/ports/POSIX/sample_application/sampleapplication.c">
<polygon fill="none" stroke="black" points="922.238,-58.5 922.238,-79.5 1186.24,-79.5 1186.24,-58.5 922.238,-58.5"/>
<text text-anchor="middle" x="1054.24" y="-66.5" font-family="Helvetica,sans-Serif" font-size="10.00">src/ports/POSIX/sample_application/sampleapplication.c</text>
</a>
</g>
<!-- Node1&#45;&gt;Node14 -->
<g id="edge88" class="edge"><title>Node1&#45;&gt;Node14</title>
<path fill="none" stroke="midnightblue" d="M1162.43,-222.549C1168,-195.714 1173.44,-148.251 1152.24,-116 1140.32,-97.8665 1119.33,-86.5404 1099.83,-79.5649"/>
<polygon fill="midnightblue" stroke="midnightblue" points="1159,-221.845 1160.19,-232.373 1165.83,-223.402 1159,-221.845"/>
</g>
<!-- Node15 -->
<g id="node32" class="node"><title>Node15</title>
<a xlink:href="../../df/d2e/cipassembly_8c.html" target="_top" xlink:title="src/cip/cipassembly.c">
<polygon fill="none" stroke="black" points="872.238,-116.5 872.238,-137.5 984.238,-137.5 984.238,-116.5 872.238,-116.5"/>
<text text-anchor="middle" x="928.238" y="-124.5" font-family="Helvetica,sans-Serif" font-size="10.00">src/cip/cipassembly.c</text>
</a>
</g>
<!-- Node1&#45;&gt;Node15 -->
<g id="edge62" class="edge"><title>Node1&#45;&gt;Node15</title>
<path fill="none" stroke="midnightblue" d="M1126.98,-227.671C1079.72,-203.731 989.599,-158.082 948.99,-137.512"/>
<polygon fill="midnightblue" stroke="midnightblue" points="1125.6,-230.898 1136.11,-232.295 1128.77,-224.654 1125.6,-230.898"/>
</g>
<!-- Node16 -->
<g id="node34" class="node"><title>Node16</title>
<a xlink:href="../../d2/d11/cipclass3connection_8h.html" target="_top" xlink:title="CIP Class 3 connection.">
<polygon fill="none" stroke="black" points="44.2384,-116.5 44.2384,-137.5 190.238,-137.5 190.238,-116.5 44.2384,-116.5"/>
<text text-anchor="middle" x="117.238" y="-124.5" font-family="Helvetica,sans-Serif" font-size="10.00">src/cip/cipclass3connection.h</text>
</a>
</g>
<!-- Node1&#45;&gt;Node16 -->
<g id="edge64" class="edge"><title>Node1&#45;&gt;Node16</title>
<path fill="none" stroke="midnightblue" d="M1102.6,-241.652C943.621,-237.448 483.206,-223.205 335.238,-196 263.984,-182.899 183.533,-153.411 143.209,-137.558"/>
<polygon fill="midnightblue" stroke="midnightblue" points="1102.54,-245.152 1112.63,-241.914 1102.72,-238.154 1102.54,-245.152"/>
</g>
<!-- Node18 -->
<g id="node41" class="node"><title>Node18</title>
<a xlink:href="../../de/d45/cipioconnection_8h.html" target="_top" xlink:title="src/cip/cipioconnection.h">
<polygon fill="none" stroke="black" points="207.738,-116.5 207.738,-137.5 332.738,-137.5 332.738,-116.5 207.738,-116.5"/>
<text text-anchor="middle" x="270.238" y="-124.5" font-family="Helvetica,sans-Serif" font-size="10.00">src/cip/cipioconnection.h</text>
</a>
</g>
<!-- Node1&#45;&gt;Node18 -->
<g id="edge70" class="edge"><title>Node1&#45;&gt;Node18</title>
<path fill="none" stroke="midnightblue" d="M1102.33,-241.167C937.343,-235.45 453.165,-217.058 385.238,-196 344.541,-183.383 303.263,-153.545 283.031,-137.554"/>
<polygon fill="midnightblue" stroke="midnightblue" points="1102.62,-244.679 1112.73,-241.525 1102.86,-237.683 1102.62,-244.679"/>
</g>
<!-- Node19 -->
<g id="node46" class="node"><title>Node19</title>
<a xlink:href="../../d3/d98/cpf_8c.html" target="_top" xlink:title="src/enet_encap/cpf.c">
<polygon fill="none" stroke="black" points="1002.24,-116.5 1002.24,-137.5 1110.24,-137.5 1110.24,-116.5 1002.24,-116.5"/>
<text text-anchor="middle" x="1056.24" y="-124.5" font-family="Helvetica,sans-Serif" font-size="10.00">src/enet_encap/cpf.c</text>
</a>
</g>
<!-- Node1&#45;&gt;Node19 -->
<g id="edge80" class="edge"><title>Node1&#45;&gt;Node19</title>
<path fill="none" stroke="midnightblue" d="M1141.34,-224.744C1120.01,-200.243 1082.81,-157.513 1065.54,-137.679"/>
<polygon fill="midnightblue" stroke="midnightblue" points="1138.71,-227.051 1147.92,-232.295 1143.99,-222.455 1138.71,-227.051"/>
</g>
<!-- Node20 -->
<g id="node56" class="node"><title>Node20</title>
<a xlink:href="../../d7/d65/cipethernetlink_8c.html" target="_top" xlink:title="src/cip/cipethernetlink.c">
<polygon fill="none" stroke="black" points="1318.24,-174.5 1318.24,-195.5 1438.24,-195.5 1438.24,-174.5 1318.24,-174.5"/>
<text text-anchor="middle" x="1378.24" y="-182.5" font-family="Helvetica,sans-Serif" font-size="10.00">src/cip/cipethernetlink.c</text>
</a>
</g>
<!-- Node1&#45;&gt;Node20 -->
<g id="edge72" class="edge"><title>Node1&#45;&gt;Node20</title>
<path fill="none" stroke="midnightblue" d="M1206.98,-229.945C1246.59,-219.55 1301.31,-205.19 1338.14,-195.523"/>
<polygon fill="midnightblue" stroke="midnightblue" points="1206.04,-226.573 1197.26,-232.497 1207.82,-233.343 1206.04,-226.573"/>
</g>
<!-- Node21 -->
<g id="node58" class="node"><title>Node21</title>
<a xlink:href="../../dd/dc4/cipidentity_8c.html" target="_top" xlink:title="src/cip/cipidentity.c">
<polygon fill="none" stroke="black" points="1455.74,-174.5 1455.74,-195.5 1556.74,-195.5 1556.74,-174.5 1455.74,-174.5"/>
<text text-anchor="middle" x="1506.24" y="-182.5" font-family="Helvetica,sans-Serif" font-size="10.00">src/cip/cipidentity.c</text>
</a>
</g>
<!-- Node1&#45;&gt;Node21 -->
<g id="edge74" class="edge"><title>Node1&#45;&gt;Node21</title>
<path fill="none" stroke="midnightblue" d="M1212.11,-234.503C1270.48,-225.372 1365.47,-210.246 1447.24,-196 1450.01,-195.517 1452.85,-195.014 1455.72,-194.5"/>
<polygon fill="midnightblue" stroke="midnightblue" points="1211.35,-231.08 1202.01,-236.081 1212.43,-237.996 1211.35,-231.08"/>
</g>
<!-- Node22 -->
<g id="node60" class="node"><title>Node22</title>
<a xlink:href="../../d9/d7d/cipmessagerouter_8c.html" target="_top" xlink:title="src/cip/cipmessagerouter.c">
<polygon fill="none" stroke="black" points="1574.24,-174.5 1574.24,-195.5 1708.24,-195.5 1708.24,-174.5 1574.24,-174.5"/>
<text text-anchor="middle" x="1641.24" y="-182.5" font-family="Helvetica,sans-Serif" font-size="10.00">src/cip/cipmessagerouter.c</text>
</a>
</g>
<!-- Node1&#45;&gt;Node22 -->
<g id="edge76" class="edge"><title>Node1&#45;&gt;Node22</title>
<path fill="none" stroke="midnightblue" d="M1212.09,-237.193C1290.48,-228.778 1439.04,-212.399 1565.24,-196 1568.15,-195.622 1571.12,-195.228 1574.12,-194.823"/>
<polygon fill="midnightblue" stroke="midnightblue" points="1211.54,-233.732 1201.97,-238.277 1212.28,-240.692 1211.54,-233.732"/>
</g>
<!-- Node23 -->
<g id="node62" class="node"><title>Node23</title>
<a xlink:href="../../dd/d20/ciptcpipinterface_8c.html" target="_top" xlink:title="src/cip/ciptcpipinterface.c">
<polygon fill="none" stroke="black" points="1726.24,-174.5 1726.24,-195.5 1854.24,-195.5 1854.24,-174.5 1726.24,-174.5"/>
<text text-anchor="middle" x="1790.24" y="-182.5" font-family="Helvetica,sans-Serif" font-size="10.00">src/cip/ciptcpipinterface.c</text>
</a>
</g>
<!-- Node1&#45;&gt;Node23 -->
<g id="edge78" class="edge"><title>Node1&#45;&gt;Node23</title>
<path fill="none" stroke="midnightblue" d="M1212.19,-239.593C1312.66,-233.096 1532.63,-217.632 1717.24,-196 1720.17,-195.657 1723.16,-195.287 1726.18,-194.897"/>
<polygon fill="midnightblue" stroke="midnightblue" points="1211.74,-236.115 1201.98,-240.249 1212.19,-243.101 1211.74,-236.115"/>
</g>
<!-- Node24 -->
<g id="node70" class="node"><title>Node24</title>
<a xlink:href="../../d5/dc8/WIN32_2sample__application_2sampleapplication_8c.html" target="_top" xlink:title="src/ports/WIN32/sample_application/sampleapplication.c">
<polygon fill="none" stroke="black" points="1872.24,-174.5 1872.24,-195.5 2136.24,-195.5 2136.24,-174.5 1872.24,-174.5"/>
<text text-anchor="middle" x="2004.24" y="-182.5" font-family="Helvetica,sans-Serif" font-size="10.00">src/ports/WIN32/sample_application/sampleapplication.c</text>
</a>
</g>
<!-- Node1&#45;&gt;Node24 -->
<g id="edge92" class="edge"><title>Node1&#45;&gt;Node24</title>
<path fill="none" stroke="midnightblue" d="M1212.14,-239.559C1330.91,-232.067 1620.62,-213.539 1863.24,-196 1866.18,-195.788 1869.15,-195.571 1872.15,-195.351"/>
<polygon fill="midnightblue" stroke="midnightblue" points="1211.62,-236.085 1201.86,-240.207 1212.06,-243.071 1211.62,-236.085"/>
</g>
<!-- Node3 -->
<g id="node5" class="node"><title>Node3</title>
<a xlink:href="../../d1/dc0/appcontype_8h.html" target="_top" xlink:title="src/cip/appcontype.h">
<polygon fill="none" stroke="black" points="540.738,-116.5 540.738,-137.5 647.738,-137.5 647.738,-116.5 540.738,-116.5"/>
<text text-anchor="middle" x="594.238" y="-124.5" font-family="Helvetica,sans-Serif" font-size="10.00">src/cip/appcontype.h</text>
</a>
</g>
<!-- Node2&#45;&gt;Node3 -->
<g id="edge4" class="edge"><title>Node2&#45;&gt;Node3</title>
<path fill="none" stroke="midnightblue" d="M621.107,-165.959C614.598,-156.522 606.986,-145.484 601.529,-137.571"/>
<polygon fill="midnightblue" stroke="midnightblue" points="618.343,-168.117 626.902,-174.362 624.106,-164.143 618.343,-168.117"/>
</g>
<!-- Node2&#45;&gt;Node4 -->
<g id="edge32" class="edge"><title>Node2&#45;&gt;Node4</title>
<path fill="none" stroke="midnightblue" d="M596.036,-170.902C572.947,-162.075 543.081,-150.109 517.238,-138 477.233,-119.255 432.108,-93.8939 407.558,-79.722"/>
<polygon fill="midnightblue" stroke="midnightblue" points="594.893,-174.212 605.485,-174.484 597.375,-167.667 594.893,-174.212"/>
</g>
<!-- Node2&#45;&gt;Node5 -->
<g id="edge42" class="edge"><title>Node2&#45;&gt;Node5</title>
<path fill="none" stroke="midnightblue" d="M581.712,-170.829C563.795,-163.635 545.068,-153.113 532.238,-138 517.925,-121.139 514.331,-94.3669 513.469,-79.6176"/>
<polygon fill="midnightblue" stroke="midnightblue" points="580.948,-174.279 591.54,-174.491 583.392,-167.719 580.948,-174.279"/>
</g>
<!-- Node2&#45;&gt;Node6 -->
<g id="edge44" class="edge"><title>Node2&#45;&gt;Node6</title>
<path fill="none" stroke="midnightblue" d="M559.097,-172.437C493.042,-158.504 396.858,-130.934 327.238,-80 304.917,-63.6694 286.079,-36.6898 276.672,-21.7652"/>
<polygon fill="midnightblue" stroke="midnightblue" points="558.524,-175.892 569.023,-174.476 559.932,-169.035 558.524,-175.892"/>
</g>
<!-- Node7 -->
<g id="node13" class="node"><title>Node7</title>
<a xlink:href="../../df/d03/cipioconnection_8c.html" target="_top" xlink:title="src/cip/cipioconnection.c">
<polygon fill="none" stroke="black" points="441.738,-0.5 441.738,-21.5 566.738,-21.5 566.738,-0.5 441.738,-0.5"/>
<text text-anchor="middle" x="504.238" y="-8.5" font-family="Helvetica,sans-Serif" font-size="10.00">src/cip/cipioconnection.c</text>
</a>
</g>
<!-- Node2&#45;&gt;Node7 -->
<g id="edge52" class="edge"><title>Node2&#45;&gt;Node7</title>
<path fill="none" stroke="midnightblue" d="M645.836,-165.25C649.986,-157.099 654.152,-147.378 656.238,-138 664.519,-100.778 653.774,-83.2927 625.238,-58 605.001,-40.0622 577.149,-28.614 553.268,-21.5127"/>
<polygon fill="midnightblue" stroke="midnightblue" points="642.625,-163.827 640.921,-174.284 648.774,-167.172 642.625,-163.827"/>
</g>
<!-- Node2&#45;&gt;Node8 -->
<g id="edge58" class="edge"><title>Node2&#45;&gt;Node8</title>
<path fill="none" stroke="midnightblue" d="M655.921,-168.006C686.885,-143.736 742.867,-99.8584 768.613,-79.6792"/>
<polygon fill="midnightblue" stroke="midnightblue" points="653.608,-165.371 647.897,-174.295 657.926,-170.881 653.608,-165.371"/>
</g>
<!-- Node2&#45;&gt;Node9 -->
<g id="edge56" class="edge"><title>Node2&#45;&gt;Node9</title>
<path fill="none" stroke="midnightblue" d="M670.667,-170.643C718.382,-151.496 804.313,-115.835 875.238,-80 892.657,-71.1995 895.93,-67.0146 913.238,-58 938.968,-44.5992 969.222,-30.7663 989.864,-21.6085"/>
<polygon fill="midnightblue" stroke="midnightblue" points="669.071,-167.512 661.084,-174.472 671.669,-174.012 669.071,-167.512"/>
</g>
<!-- Node2&#45;&gt;Node15 -->
<g id="edge34" class="edge"><title>Node2&#45;&gt;Node15</title>
<path fill="none" stroke="midnightblue" d="M697.424,-172.535C750.321,-162.099 824.963,-147.374 874.897,-137.523"/>
<polygon fill="midnightblue" stroke="midnightblue" points="696.613,-169.127 687.48,-174.497 697.968,-175.995 696.613,-169.127"/>
</g>
<!-- Node2&#45;&gt;Node16 -->
<g id="edge36" class="edge"><title>Node2&#45;&gt;Node16</title>
<path fill="none" stroke="midnightblue" d="M546.176,-176.156C458.249,-167.168 319.288,-152.535 199.238,-138 196.387,-137.655 193.48,-137.296 190.544,-136.929"/>
<polygon fill="midnightblue" stroke="midnightblue" points="546.072,-179.664 556.376,-177.197 546.783,-172.7 546.072,-179.664"/>
</g>
<!-- Node2&#45;&gt;Node18 -->
<g id="edge46" class="edge"><title>Node2&#45;&gt;Node18</title>
<path fill="none" stroke="midnightblue" d="M558.274,-172.896C491.48,-162.253 395.426,-146.947 332.928,-136.989"/>
<polygon fill="midnightblue" stroke="midnightblue" points="557.895,-176.379 568.321,-174.497 558.996,-169.467 557.895,-176.379"/>
</g>
<!-- Node2&#45;&gt;Node19 -->
<g id="edge54" class="edge"><title>Node2&#45;&gt;Node19</title>
<path fill="none" stroke="midnightblue" d="M721.799,-174.596C794.58,-165.694 900.806,-152.114 993.238,-138 996.092,-137.564 999.016,-137.104 1001.97,-136.628"/>
<polygon fill="midnightblue" stroke="midnightblue" points="721.259,-171.136 711.756,-175.821 722.106,-178.085 721.259,-171.136"/>
</g>
<!-- Node3&#45;&gt;Node4 -->
<g id="edge6" class="edge"><title>Node3&#45;&gt;Node4</title>
<path fill="none" stroke="midnightblue" d="M547.158,-113.68C510.496,-103.307 460.309,-89.1078 426.432,-79.5231"/>
<polygon fill="midnightblue" stroke="midnightblue" points="546.539,-117.142 557.114,-116.497 548.445,-110.406 546.539,-117.142"/>
</g>
<!-- Node3&#45;&gt;Node5 -->
<g id="edge8" class="edge"><title>Node3&#45;&gt;Node5</title>
<path fill="none" stroke="midnightblue" d="M570.858,-110.259C557.04,-100.364 539.963,-88.1361 528.001,-79.5707"/>
<polygon fill="midnightblue" stroke="midnightblue" points="569.214,-113.386 579.382,-116.362 573.289,-107.694 569.214,-113.386"/>
</g>
<!-- Node3&#45;&gt;Node6 -->
<g id="edge10" class="edge"><title>Node3&#45;&gt;Node6</title>
<path fill="none" stroke="midnightblue" d="M594.205,-106.04C592.993,-90.4817 588.679,-69.9679 575.238,-58 558.458,-43.0584 432.707,-27.5174 348.002,-18.5783"/>
<polygon fill="midnightblue" stroke="midnightblue" points="590.719,-106.451 594.625,-116.299 597.713,-106.164 590.719,-106.451"/>
</g>
<!-- Node3&#45;&gt;Node7 -->
<g id="edge12" class="edge"><title>Node3&#45;&gt;Node7</title>
<path fill="none" stroke="midnightblue" d="M605.554,-107.121C612.238,-92.4947 617.717,-72.6858 608.238,-58 596.419,-39.6881 575.555,-28.4353 555.602,-21.5561"/>
<polygon fill="midnightblue" stroke="midnightblue" points="602.305,-105.79 600.903,-116.292 608.548,-108.956 602.305,-105.79"/>
</g>
<!-- Node3&#45;&gt;Node8 -->
<g id="edge14" class="edge"><title>Node3&#45;&gt;Node8</title>
<path fill="none" stroke="midnightblue" d="M637.847,-113.546C671.43,-103.186 717.194,-89.0668 748.129,-79.5231"/>
<polygon fill="midnightblue" stroke="midnightblue" points="636.808,-110.204 628.284,-116.497 638.871,-116.893 636.808,-110.204"/>
</g>
<!-- Node3&#45;&gt;Node14 -->
<g id="edge30" class="edge"><title>Node3&#45;&gt;Node14</title>
<path fill="none" stroke="midnightblue" d="M658.021,-118.958C739.467,-108.689 880.602,-90.8933 970.596,-79.5462"/>
<polygon fill="midnightblue" stroke="midnightblue" points="657.39,-115.51 647.907,-120.233 658.266,-122.455 657.39,-115.51"/>
</g>
<!-- Node8&#45;&gt;Node6 -->
<g id="edge16" class="edge"><title>Node8&#45;&gt;Node6</title>
<path fill="none" stroke="midnightblue" d="M687.508,-58.2688C589.659,-47.1843 438.781,-30.0928 347.779,-19.7838"/>
<polygon fill="midnightblue" stroke="midnightblue" points="687.362,-61.7745 697.692,-59.4225 688.15,-54.819 687.362,-61.7745"/>
</g>
<!-- Node8&#45;&gt;Node7 -->
<g id="edge18" class="edge"><title>Node8&#45;&gt;Node7</title>
<path fill="none" stroke="midnightblue" d="M721.867,-56.4045C671.887,-45.977 601.697,-31.333 554.677,-21.5231"/>
<polygon fill="midnightblue" stroke="midnightblue" points="721.391,-59.8804 731.895,-58.4966 722.82,-53.028 721.391,-59.8804"/>
</g>
<!-- Node8&#45;&gt;Node9 -->
<g id="edge20" class="edge"><title>Node8&#45;&gt;Node9</title>
<path fill="none" stroke="midnightblue" d="M834.196,-56.0107C875.795,-45.6109 933.398,-31.2102 972.146,-21.5231"/>
<polygon fill="midnightblue" stroke="midnightblue" points="833.104,-52.6757 824.252,-58.4966 834.802,-59.4667 833.104,-52.6757"/>
</g>
<!-- Node10 -->
<g id="node21" class="node"><title>Node10</title>
<a xlink:href="../../db/d4f/generic__networkhandler_8c.html" target="_top" xlink:title="This file includes all platform&#45;independent functions of the network handler to reduce code duplicati...">
<polygon fill="none" stroke="black" points="767.738,-0.5 767.738,-21.5 936.738,-21.5 936.738,-0.5 767.738,-0.5"/>
<text text-anchor="middle" x="852.238" y="-8.5" font-family="Helvetica,sans-Serif" font-size="10.00">src/ports/generic_networkhandler.c</text>
</a>
</g>
<!-- Node8&#45;&gt;Node10 -->
<g id="edge22" class="edge"><title>Node8&#45;&gt;Node10</title>
<path fill="none" stroke="midnightblue" d="M802.785,-51.9753C814.666,-42.1315 829.242,-30.0545 839.481,-21.5707"/>
<polygon fill="midnightblue" stroke="midnightblue" points="800.545,-49.2866 795.078,-58.3619 805.011,-54.6768 800.545,-49.2866"/>
</g>
<!-- Node8&#45;&gt;Node11 -->
<g id="edge24" class="edge"><title>Node8&#45;&gt;Node11</title>
<path fill="none" stroke="midnightblue" d="M859.995,-56.9284C920.779,-47.4749 1007.4,-33.9665 1083.24,-22 1085.99,-21.5652 1088.81,-21.1197 1091.66,-20.669"/>
<polygon fill="midnightblue" stroke="midnightblue" points="859.433,-53.4736 850.09,-58.4686 860.509,-60.3905 859.433,-53.4736"/>
</g>
<!-- Node8&#45;&gt;Node12 -->
<g id="edge26" class="edge"><title>Node8&#45;&gt;Node12</title>
<path fill="none" stroke="midnightblue" d="M877.038,-60.2711C966.064,-51.7375 1102.9,-37.7568 1221.24,-22 1224,-21.6318 1226.83,-21.2409 1229.68,-20.8344"/>
<polygon fill="midnightblue" stroke="midnightblue" points="876.584,-56.7984 866.962,-61.2332 877.249,-63.7667 876.584,-56.7984"/>
</g>
<!-- Node13 -->
<g id="node27" class="node"><title>Node13</title>
<a xlink:href="../../d8/d6c/WIN32_2networkhandler_8c.html" target="_top" xlink:title="src/ports/WIN32/networkhandler.c">
<polygon fill="none" stroke="black" points="584.238,-0.5 584.238,-21.5 750.238,-21.5 750.238,-0.5 584.238,-0.5"/>
<text text-anchor="middle" x="667.238" y="-8.5" font-family="Helvetica,sans-Serif" font-size="10.00">src/ports/WIN32/networkhandler.c</text>
</a>
</g>
<!-- Node8&#45;&gt;Node13 -->
<g id="edge28" class="edge"><title>Node8&#45;&gt;Node13</title>
<path fill="none" stroke="midnightblue" d="M752.362,-53.9319C732.26,-43.7932 706.249,-30.6748 688.298,-21.6212"/>
<polygon fill="midnightblue" stroke="midnightblue" points="750.908,-57.1185 761.413,-58.4966 754.06,-50.8684 750.908,-57.1185"/>
</g>
<!-- Node16&#45;&gt;Node6 -->
<g id="edge40" class="edge"><title>Node16&#45;&gt;Node6</title>
<path fill="none" stroke="midnightblue" d="M139.653,-110.006C171.664,-85.7364 229.537,-41.8584 256.153,-21.6792"/>
<polygon fill="midnightblue" stroke="midnightblue" points="137.212,-107.464 131.358,-116.295 141.441,-113.042 137.212,-107.464"/>
</g>
<!-- Node17 -->
<g id="node36" class="node"><title>Node17</title>
<a xlink:href="../../dc/d93/cipclass3connection_8c.html" target="_top" xlink:title="src/cip/cipclass3connection.c">
<polygon fill="none" stroke="black" points="20.2384,-58.5 20.2384,-79.5 166.238,-79.5 166.238,-58.5 20.2384,-58.5"/>
<text text-anchor="middle" x="93.2384" y="-66.5" font-family="Helvetica,sans-Serif" font-size="10.00">src/cip/cipclass3connection.c</text>
</a>
</g>
<!-- Node16&#45;&gt;Node17 -->
<g id="edge38" class="edge"><title>Node16&#45;&gt;Node17</title>
<path fill="none" stroke="midnightblue" d="M108.995,-107.079C105.173,-97.8422 100.786,-87.2388 97.6125,-79.5707"/>
<polygon fill="midnightblue" stroke="midnightblue" points="105.779,-108.46 112.836,-116.362 112.247,-105.783 105.779,-108.46"/>
</g>
<!-- Node18&#45;&gt;Node6 -->
<g id="edge48" class="edge"><title>Node18&#45;&gt;Node6</title>
<path fill="none" stroke="midnightblue" d="M262.857,-106.901C260.208,-98.6819 257.551,-89.0042 256.238,-80 254.828,-70.3245 254.828,-67.6755 256.238,-58 258.105,-45.194 262.691,-31.0258 266.108,-21.6276"/>
<polygon fill="midnightblue" stroke="midnightblue" points="259.551,-108.05 266.108,-116.372 266.172,-105.778 259.551,-108.05"/>
</g>
<!-- Node18&#45;&gt;Node7 -->
<g id="edge50" class="edge"><title>Node18&#45;&gt;Node7</title>
<path fill="none" stroke="midnightblue" d="M281.559,-107.481C291.622,-91.8352 307.738,-70.4976 327.238,-58 361.502,-36.0407 405.752,-24.2907 441.436,-18.0305"/>
<polygon fill="midnightblue" stroke="midnightblue" points="278.358,-106.005 276.101,-116.357 284.321,-109.672 278.358,-106.005"/>
</g>
</g>
</svg>
        <g id="navigator" transform="translate(0 0)" fill="#404254">
                <rect fill="#f2f5e9" fill-opacity="0.5" stroke="#606060" stroke-width=".5" x="0" y="0" width="60" height="60"/>
                <use id="zoomplus" xlink:href="#zoomPlus" x="17" y="9" onmousedown="handleZoom(evt,'in')"/>
                <use id="zoomminus" xlink:href="#zoomMin" x="42" y="9" onmousedown="handleZoom(evt,'out')"/>
                <use id="reset" xlink:href="#resetDef" x="30" y="36" onmousedown="handleReset()"/>
                <g id="arrowUp" xlink:href="#dirArrow" transform="translate(30 24)" onmousedown="handlePan(0,-1)">
                  <use xlink:href="#rim" fill="#404040">
                        <set attributeName="fill" to="#808080" begin="arrowUp.mouseover" end="arrowUp.mouseout"/>
                  </use>
                  <path fill="none" stroke="white" stroke-width="1.5" d="M0,-3.0v7 M-2.5,-0.5L0,-3.0L2.5,-0.5"/>
                </g>
                <g id="arrowRight" xlink:href="#dirArrow" transform="rotate(90) translate(36 -43)" onmousedown="handlePan(1,0)">
                  <use xlink:href="#rim" fill="#404040">
                        <set attributeName="fill" to="#808080" begin="arrowRight.mouseover" end="arrowRight.mouseout"/>
                  </use>
                  <path fill="none" stroke="white" stroke-width="1.5" d="M0,-3.0v7 M-2.5,-0.5L0,-3.0L2.5,-0.5"/>
                </g>
                <g id="arrowDown" xlink:href="#dirArrow" transform="rotate(180) translate(-30 -48)" onmousedown="handlePan(0,1)">
                  <use xlink:href="#rim" fill="#404040">
                        <set attributeName="fill" to="#808080" begin="arrowDown.mouseover" end="arrowDown.mouseout"/>
                  </use>
                  <path fill="none" stroke="white" stroke-width="1.5" d="M0,-3.0v7 M-2.5,-0.5L0,-3.0L2.5,-0.5"/>
                </g>
                <g id="arrowLeft" xlink:href="#dirArrow" transform="rotate(270) translate(-36 17)" onmousedown="handlePan(-1,0)">
                  <use xlink:href="#rim" fill="#404040">
                        <set attributeName="fill" to="#808080" begin="arrowLeft.mouseover" end="arrowLeft.mouseout"/>
                  </use>
                  <path fill="none" stroke="white" stroke-width="1.5" d="M0,-3.0v7 M-2.5,-0.5L0,-3.0L2.5,-0.5"/>
                </g>
        </g>
</svg>
