<?xml version="1.0" encoding="UTF-8" standalone="no"?>
<!DOCTYPE svg PUBLIC "-//W3C//DTD SVG 1.1//EN"
 "http://www.w3.org/Graphics/SVG/1.1/DTD/svg11.dtd">
<!-- Generated by graphviz version 2.26.3 (20100126.1600)
 -->
<!-- Title: G Pages: 1 -->
<!--zoomable 378 -->
<svg id="main" version="1.1" xmlns="http://www.w3.org/2000/svg" xmlns:xlink="http://www.w3.org/1999/xlink" xml:space="preserve" onload="init(evt)">
        <defs>
                <circle id="rim" cx="0" cy="0" r="7"/>
                <circle id="rim2" cx="0" cy="0" r="3.5"/>
                <g id="zoomPlus">
                        <use xlink:href="#rim" fill="#404040">
                                <set attributeName="fill" to="#808080" begin="zoomplus.mouseover" end="zoomplus.mouseout"/>
                        </use>
                        <path d="M-4,0h8M0,-4v8" fill="none" stroke="white" stroke-width="1.5" pointer-events="none"/>
                </g>
                <g id="zoomMin">
                        <use xlink:href="#rim" fill="#404040">
                                <set attributeName="fill" to="#808080" begin="zoomminus.mouseover" end="zoomminus.mouseout"/>
                        </use>
                        <path d="M-4,0h8" fill="none" stroke="white" stroke-width="1.5" pointer-events="none"/>
                </g>
                <g id="dirArrow">
                        <path fill="none" stroke="white" stroke-width="1.5" d="M0,-3.0v7 M-2.5,-0.5L0,-3.0L2.5,-0.5"/>
                </g>
               <g id="resetDef">
                       <use xlink:href="#rim2" fill="#404040">
                               <set attributeName="fill" to="#808080" begin="reset.mouseover" end="reset.mouseout"/>
                       </use>
               </g>
        </defs>

<script type="text/javascript">
var viewWidth = 1249;
var viewHeight = 378;
var sectionId = 'dynsection-0';
</script>
<script xlink:href="../../svgpan.js"/>
<svg id="graph" class="graph">
<g id="viewport">
<title>G</title>
<!-- Node1 -->
<g id="node1" class="node"><title>Node1</title>
<polygon fill="#bfbfbf" stroke="black" points="582.5,-348.5 582.5,-369.5 689.5,-369.5 689.5,-348.5 582.5,-348.5"/>
<text text-anchor="middle" x="636" y="-356.5" font-family="Helvetica,sans-Serif" font-size="10.00">src/cip/cipcommon.c</text>
</g>
<!-- Node2 -->
<g id="node3" class="node"><title>Node2</title>
<polygon fill="none" stroke="#bfbfbf" points="-0.5,-290.5 -0.5,-311.5 48.5,-311.5 48.5,-290.5 -0.5,-290.5"/>
<text text-anchor="middle" x="24" y="-298.5" font-family="Helvetica,sans-Serif" font-size="10.00">string.h</text>
</g>
<!-- Node1&#45;&gt;Node2 -->
<g id="edge2" class="edge"><title>Node1&#45;&gt;Node2</title>
<path fill="none" stroke="midnightblue" d="M582.114,-358.171C479.876,-355.809 251.058,-346.742 62,-312 60.9192,-311.801 59.8251,-311.585 58.7235,-311.353"/>
<polygon fill="midnightblue" stroke="midnightblue" points="59.3101,-307.894 48.7671,-308.941 57.6618,-314.697 59.3101,-307.894"/>
</g>
<!-- Node3 -->
<g id="node5" class="node"><title>Node3</title>
<a xlink:href="../../db/d14/cipcommon_8h.html" target="_top" xlink:title="cipcommon.h">
<polygon fill="none" stroke="black" points="197.5,-174.5 197.5,-195.5 272.5,-195.5 272.5,-174.5 197.5,-174.5"/>
<text text-anchor="middle" x="235" y="-182.5" font-family="Helvetica,sans-Serif" font-size="10.00">cipcommon.h</text>
</a>
</g>
<!-- Node1&#45;&gt;Node3 -->
<g id="edge4" class="edge"><title>Node1&#45;&gt;Node3</title>
<path fill="none" stroke="midnightblue" d="M605.457,-348.466C579.566,-339.354 541.56,-325.545 509,-312 419.181,-274.634 315.628,-224.719 265.43,-200.074"/>
<polygon fill="midnightblue" stroke="midnightblue" points="266.925,-196.909 256.407,-195.634 263.834,-203.189 266.925,-196.909"/>
</g>
<!-- Node10 -->
<g id="node20" class="node"><title>Node10</title>
<polygon fill="none" stroke="#bfbfbf" points="1013,-116.5 1013,-137.5 1115,-137.5 1115,-116.5 1013,-116.5"/>
<text text-anchor="middle" x="1064" y="-124.5" font-family="Helvetica,sans-Serif" font-size="10.00">opener_user_conf.h</text>
</g>
<!-- Node1&#45;&gt;Node10 -->
<g id="edge20" class="edge"><title>Node1&#45;&gt;Node10</title>
<path fill="none" stroke="midnightblue" d="M689.559,-358.002C787.491,-355.359 990.982,-345.842 1052,-312 1080.77,-296.042 1087.18,-285.069 1098,-254 1111.05,-216.539 1090.71,-171.408 1076.3,-146.287"/>
<polygon fill="midnightblue" stroke="midnightblue" points="1079.3,-144.474 1071.15,-137.697 1073.29,-148.073 1079.3,-144.474"/>
</g>
<!-- Node11 -->
<g id="node22" class="node"><title>Node11</title>
<a xlink:href="../../d4/d38/opener__api_8h.html" target="_top" xlink:title="opener_api.h">
<polygon fill="none" stroke="black" points="890,-174.5 890,-195.5 962,-195.5 962,-174.5 890,-174.5"/>
<text text-anchor="middle" x="926" y="-182.5" font-family="Helvetica,sans-Serif" font-size="10.00">opener_api.h</text>
</a>
</g>
<!-- Node1&#45;&gt;Node11 -->
<g id="edge22" class="edge"><title>Node1&#45;&gt;Node11</title>
<path fill="none" stroke="midnightblue" d="M689.532,-350.069C725.164,-342.832 772.35,-330.712 811,-312 849.883,-293.175 860.781,-286.71 889,-254 901.575,-239.424 911.56,-219.857 917.973,-205.284"/>
<polygon fill="midnightblue" stroke="midnightblue" points="921.354,-206.272 921.997,-195.697 914.899,-203.563 921.354,-206.272"/>
</g>
<!-- Node13 -->
<g id="node28" class="node"><title>Node13</title>
<a xlink:href="../../d6/d52/ciperror_8h.html" target="_top" xlink:title="ciperror.h">
<polygon fill="none" stroke="black" points="938.5,-116.5 938.5,-137.5 995.5,-137.5 995.5,-116.5 938.5,-116.5"/>
<text text-anchor="middle" x="967" y="-124.5" font-family="Helvetica,sans-Serif" font-size="10.00">ciperror.h</text>
</a>
</g>
<!-- Node1&#45;&gt;Node13 -->
<g id="edge70" class="edge"><title>Node1&#45;&gt;Node13</title>
<path fill="none" stroke="midnightblue" d="M689.627,-354.456C733.422,-349.023 795.883,-337.252 845,-312 912.696,-277.197 940.987,-265.951 971,-196 977.56,-180.71 975.841,-161.741 972.886,-147.564"/>
<polygon fill="midnightblue" stroke="midnightblue" points="976.273,-146.682 970.502,-137.797 969.473,-148.342 976.273,-146.682"/>
</g>
<!-- Node14 -->
<g id="node31" class="node"><title>Node14</title>
<a xlink:href="../../dc/d72/cipidentity_8h.html" target="_top" xlink:title="cipidentity.h">
<polygon fill="none" stroke="black" points="289.5,-174.5 289.5,-195.5 358.5,-195.5 358.5,-174.5 289.5,-174.5"/>
<text text-anchor="middle" x="324" y="-182.5" font-family="Helvetica,sans-Serif" font-size="10.00">cipidentity.h</text>
</a>
</g>
<!-- Node1&#45;&gt;Node14 -->
<g id="edge34" class="edge"><title>Node1&#45;&gt;Node14</title>
<path fill="none" stroke="midnightblue" d="M616.953,-348.377C563.972,-318.831 414.665,-235.563 352.117,-200.68"/>
<polygon fill="midnightblue" stroke="midnightblue" points="353.633,-197.519 343.194,-195.705 350.223,-203.632 353.633,-197.519"/>
</g>
<!-- Node15 -->
<g id="node35" class="node"><title>Node15</title>
<a xlink:href="../../d1/dad/ciptcpipinterface_8h.html" target="_top" xlink:title="Public interface of the TCP/IP Interface Object.">
<polygon fill="none" stroke="black" points="376,-174.5 376,-195.5 472,-195.5 472,-174.5 376,-174.5"/>
<text text-anchor="middle" x="424" y="-182.5" font-family="Helvetica,sans-Serif" font-size="10.00">ciptcpipinterface.h</text>
</a>
</g>
<!-- Node1&#45;&gt;Node15 -->
<g id="edge40" class="edge"><title>Node1&#45;&gt;Node15</title>
<path fill="none" stroke="midnightblue" d="M623.743,-348.234C598.39,-326.05 538.188,-273.824 486,-232 473.108,-221.668 458.382,-210.48 446.518,-201.613"/>
<polygon fill="midnightblue" stroke="midnightblue" points="448.563,-198.772 438.451,-195.611 444.385,-204.388 448.563,-198.772"/>
</g>
<!-- Node16 -->
<g id="node39" class="node"><title>Node16</title>
<a xlink:href="../../dd/d4d/cipethernetlink_8h.html" target="_top" xlink:title="cipethernetlink.h">
<polygon fill="none" stroke="black" points="490,-174.5 490,-195.5 578,-195.5 578,-174.5 490,-174.5"/>
<text text-anchor="middle" x="534" y="-182.5" font-family="Helvetica,sans-Serif" font-size="10.00">cipethernetlink.h</text>
</a>
</g>
<!-- Node1&#45;&gt;Node16 -->
<g id="edge46" class="edge"><title>Node1&#45;&gt;Node16</title>
<path fill="none" stroke="midnightblue" d="M629.773,-348.377C613.097,-319.93 567.228,-241.684 545.589,-204.769"/>
<polygon fill="midnightblue" stroke="midnightblue" points="548.483,-202.785 540.406,-195.928 542.444,-206.325 548.483,-202.785"/>
</g>
<!-- Node17 -->
<g id="node43" class="node"><title>Node17</title>
<a xlink:href="../../d2/da3/cipconnectionmanager_8h.html" target="_top" xlink:title="cipconnectionmanager.h">
<polygon fill="none" stroke="black" points="758,-232.5 758,-253.5 880,-253.5 880,-232.5 758,-232.5"/>
<text text-anchor="middle" x="819" y="-240.5" font-family="Helvetica,sans-Serif" font-size="10.00">cipconnectionmanager.h</text>
</a>
</g>
<!-- Node1&#45;&gt;Node17 -->
<g id="edge52" class="edge"><title>Node1&#45;&gt;Node17</title>
<path fill="none" stroke="midnightblue" d="M686.512,-348.457C725.244,-339.499 774.597,-325.912 790,-312 803.89,-299.455 811.33,-279.183 815.181,-263.851"/>
<polygon fill="midnightblue" stroke="midnightblue" points="818.675,-264.258 817.392,-253.741 811.837,-262.762 818.675,-264.258"/>
</g>
<!-- Node18 -->
<g id="node49" class="node"><title>Node18</title>
<a xlink:href="../../d0/dec/endianconv_8h.html" target="_top" xlink:title="Responsible for Endianess conversion.">
<polygon fill="none" stroke="black" points="159,-232.5 159,-253.5 233,-253.5 233,-232.5 159,-232.5"/>
<text text-anchor="middle" x="196" y="-240.5" font-family="Helvetica,sans-Serif" font-size="10.00">endianconv.h</text>
</a>
</g>
<!-- Node1&#45;&gt;Node18 -->
<g id="edge62" class="edge"><title>Node1&#45;&gt;Node18</title>
<path fill="none" stroke="midnightblue" d="M582.421,-353.41C526.599,-346.754 436.986,-333.717 362,-312 312.888,-297.776 258.651,-273.499 225.962,-257.861"/>
<polygon fill="midnightblue" stroke="midnightblue" points="227.464,-254.7 216.937,-253.501 224.418,-261.003 227.464,-254.7"/>
</g>
<!-- Node19 -->
<g id="node52" class="node"><title>Node19</title>
<a xlink:href="../../d7/df9/encap_8h.html" target="_top" xlink:title="This file contains the public interface of the encapsulation layer.">
<polygon fill="none" stroke="black" points="53.5,-116.5 53.5,-137.5 104.5,-137.5 104.5,-116.5 53.5,-116.5"/>
<text text-anchor="middle" x="79" y="-124.5" font-family="Helvetica,sans-Serif" font-size="10.00">encap.h</text>
</a>
</g>
<!-- Node1&#45;&gt;Node19 -->
<g id="edge66" class="edge"><title>Node1&#45;&gt;Node19</title>
<path fill="none" stroke="midnightblue" d="M582.419,-357.296C480.965,-353.413 264.9,-341.82 197,-312 134.143,-284.395 121.207,-259.453 95,-196 88.555,-180.395 84.4209,-161.682 81.9728,-147.683"/>
<polygon fill="midnightblue" stroke="midnightblue" points="85.3979,-146.936 80.3591,-137.616 78.4861,-148.044 85.3979,-146.936"/>
</g>
<!-- Node20 -->
<g id="node56" class="node"><title>Node20</title>
<a xlink:href="../../de/df4/cipassembly_8h.html" target="_top" xlink:title="cipassembly.h">
<polygon fill="none" stroke="black" points="596,-174.5 596,-195.5 676,-195.5 676,-174.5 596,-174.5"/>
<text text-anchor="middle" x="636" y="-182.5" font-family="Helvetica,sans-Serif" font-size="10.00">cipassembly.h</text>
</a>
</g>
<!-- Node1&#45;&gt;Node20 -->
<g id="edge72" class="edge"><title>Node1&#45;&gt;Node20</title>
<path fill="none" stroke="midnightblue" d="M636,-348.377C636,-320.293 636,-243.673 636,-206.203"/>
<polygon fill="midnightblue" stroke="midnightblue" points="639.5,-205.928 636,-195.928 632.5,-205.928 639.5,-205.928"/>
</g>
<!-- Node21 -->
<g id="node60" class="node"><title>Node21</title>
<a xlink:href="../../d2/d75/cipmessagerouter_8h.html" target="_top" xlink:title="cipmessagerouter.h">
<polygon fill="none" stroke="black" points="732,-174.5 732,-195.5 834,-195.5 834,-174.5 732,-174.5"/>
<text text-anchor="middle" x="783" y="-182.5" font-family="Helvetica,sans-Serif" font-size="10.00">cipmessagerouter.h</text>
</a>
</g>
<!-- Node1&#45;&gt;Node21 -->
<g id="edge78" class="edge"><title>Node1&#45;&gt;Node21</title>
<path fill="none" stroke="midnightblue" d="M644.974,-348.377C669.212,-319.688 736.24,-240.348 767.087,-203.835"/>
<polygon fill="midnightblue" stroke="midnightblue" points="769.988,-205.825 773.768,-195.928 764.641,-201.308 769.988,-205.825"/>
</g>
<!-- Node22 -->
<g id="node64" class="node"><title>Node22</title>
<a xlink:href="../../d0/dff/cpf_8h.html" target="_top" xlink:title="cpf.h">
<polygon fill="none" stroke="black" points="104,-174.5 104,-195.5 142,-195.5 142,-174.5 104,-174.5"/>
<text text-anchor="middle" x="123" y="-182.5" font-family="Helvetica,sans-Serif" font-size="10.00">cpf.h</text>
</a>
</g>
<!-- Node1&#45;&gt;Node22 -->
<g id="edge84" class="edge"><title>Node1&#45;&gt;Node22</title>
<path fill="none" stroke="midnightblue" d="M582.383,-355.523C514.898,-350.25 395.847,-337.955 297,-312 229.068,-294.162 199.594,-303.733 150,-254 136.99,-240.953 130.086,-220.905 126.528,-205.775"/>
<polygon fill="midnightblue" stroke="midnightblue" points="129.921,-204.895 124.489,-195.798 123.062,-206.296 129.921,-204.895"/>
</g>
<!-- Node23 -->
<g id="node69" class="node"><title>Node23</title>
<a xlink:href="../../d1/d1b/trace_8h.html" target="_top" xlink:title="Tracing infrastructure for OpENer.">
<polygon fill="none" stroke="black" points="1042.5,-232.5 1042.5,-253.5 1089.5,-253.5 1089.5,-232.5 1042.5,-232.5"/>
<text text-anchor="middle" x="1066" y="-240.5" font-family="Helvetica,sans-Serif" font-size="10.00">trace.h</text>
</a>
</g>
<!-- Node1&#45;&gt;Node23 -->
<g id="edge92" class="edge"><title>Node1&#45;&gt;Node23</title>
<path fill="none" stroke="midnightblue" d="M689.535,-355.342C790.519,-348.046 1001.51,-330.761 1029,-312 1045.51,-300.733 1055.26,-279.64 1060.57,-263.729"/>
<polygon fill="midnightblue" stroke="midnightblue" points="1064.05,-264.31 1063.57,-253.726 1057.35,-262.302 1064.05,-264.31"/>
</g>
<!-- Node24 -->
<g id="node72" class="node"><title>Node24</title>
<a xlink:href="../../d1/dc0/appcontype_8h.html" target="_top" xlink:title="appcontype.h">
<polygon fill="none" stroke="black" points="706.5,-290.5 706.5,-311.5 781.5,-311.5 781.5,-290.5 706.5,-290.5"/>
<text text-anchor="middle" x="744" y="-298.5" font-family="Helvetica,sans-Serif" font-size="10.00">appcontype.h</text>
</a>
</g>
<!-- Node1&#45;&gt;Node24 -->
<g id="edge96" class="edge"><title>Node1&#45;&gt;Node24</title>
<path fill="none" stroke="midnightblue" d="M655.558,-348.497C672.198,-339.56 696.327,-326.602 715.18,-316.477"/>
<polygon fill="midnightblue" stroke="midnightblue" points="717.069,-319.436 724.223,-311.621 713.757,-313.269 717.069,-319.436"/>
</g>
<!-- Node25 -->
<g id="node75" class="node"><title>Node25</title>
<a xlink:href="../../d1/d02/cipepath_8h.html" target="_top" xlink:title="cipepath.h">
<polygon fill="none" stroke="black" points="1148,-174.5 1148,-195.5 1210,-195.5 1210,-174.5 1148,-174.5"/>
<text text-anchor="middle" x="1179" y="-182.5" font-family="Helvetica,sans-Serif" font-size="10.00">cipepath.h</text>
</a>
</g>
<!-- Node1&#45;&gt;Node25 -->
<g id="edge100" class="edge"><title>Node1&#45;&gt;Node25</title>
<path fill="none" stroke="midnightblue" d="M689.501,-357.087C810.322,-352.319 1096.48,-338.355 1131,-312 1164.41,-286.493 1174.57,-234.896 1177.65,-205.935"/>
<polygon fill="midnightblue" stroke="midnightblue" points="1181.16,-205.979 1178.55,-195.712 1174.19,-205.369 1181.16,-205.979"/>
</g>
<!-- Node4 -->
<g id="node7" class="node"><title>Node4</title>
<a xlink:href="../../d7/d69/typedefs_8h.html" target="_top" xlink:title="typedefs.h">
<polygon fill="none" stroke="black" points="487,-58.5 487,-79.5 549,-79.5 549,-58.5 487,-58.5"/>
<text text-anchor="middle" x="518" y="-66.5" font-family="Helvetica,sans-Serif" font-size="10.00">typedefs.h</text>
</a>
</g>
<!-- Node3&#45;&gt;Node4 -->
<g id="edge6" class="edge"><title>Node3&#45;&gt;Node4</title>
<path fill="none" stroke="midnightblue" d="M259.657,-174.426C291.685,-160.737 349.374,-136.237 399,-116 426.356,-104.845 457.407,-92.5945 480.93,-83.3981"/>
<polygon fill="midnightblue" stroke="midnightblue" points="482.475,-86.5524 490.518,-79.6558 479.929,-80.0315 482.475,-86.5524"/>
</g>
<!-- Node8 -->
<g id="node15" class="node"><title>Node8</title>
<a xlink:href="../../df/d28/ciptypes_8h.html" target="_top" xlink:title="ciptypes.h">
<polygon fill="none" stroke="black" points="546,-116.5 546,-137.5 608,-137.5 608,-116.5 546,-116.5"/>
<text text-anchor="middle" x="577" y="-124.5" font-family="Helvetica,sans-Serif" font-size="10.00">ciptypes.h</text>
</a>
</g>
<!-- Node3&#45;&gt;Node8 -->
<g id="edge14" class="edge"><title>Node3&#45;&gt;Node8</title>
<path fill="none" stroke="midnightblue" d="M272.604,-175.758C275.439,-175.137 278.262,-174.544 281,-174 371.325,-156.057 478.234,-140.46 535.625,-132.541"/>
<polygon fill="midnightblue" stroke="midnightblue" points="536.318,-135.978 545.75,-131.152 535.367,-129.043 536.318,-135.978"/>
</g>
<!-- Node5 -->
<g id="node9" class="node"><title>Node5</title>
<polygon fill="none" stroke="#bfbfbf" points="525.5,-0.5 525.5,-21.5 584.5,-21.5 584.5,-0.5 525.5,-0.5"/>
<text text-anchor="middle" x="555" y="-8.5" font-family="Helvetica,sans-Serif" font-size="10.00">inttypes.h</text>
</g>
<!-- Node4&#45;&gt;Node5 -->
<g id="edge8" class="edge"><title>Node4&#45;&gt;Node5</title>
<path fill="none" stroke="midnightblue" d="M524.786,-58.3619C529.793,-50.5131 536.745,-39.6159 542.718,-30.2527"/>
<polygon fill="midnightblue" stroke="midnightblue" points="545.829,-31.8837 548.257,-21.5707 539.928,-28.1189 545.829,-31.8837"/>
</g>
<!-- Node6 -->
<g id="node11" class="node"><title>Node6</title>
<polygon fill="none" stroke="#bfbfbf" points="456,-0.5 456,-21.5 508,-21.5 508,-0.5 456,-0.5"/>
<text text-anchor="middle" x="482" y="-8.5" font-family="Helvetica,sans-Serif" font-size="10.00">stddef.h</text>
</g>
<!-- Node4&#45;&gt;Node6 -->
<g id="edge10" class="edge"><title>Node4&#45;&gt;Node6</title>
<path fill="none" stroke="midnightblue" d="M511.397,-58.3619C506.525,-50.5131 499.762,-39.6159 493.95,-30.2527"/>
<polygon fill="midnightblue" stroke="midnightblue" points="496.809,-28.2213 488.561,-21.5707 490.861,-31.9129 496.809,-28.2213"/>
</g>
<!-- Node7 -->
<g id="node13" class="node"><title>Node7</title>
<polygon fill="none" stroke="#bfbfbf" points="1152,-0.5 1152,-21.5 1208,-21.5 1208,-0.5 1152,-0.5"/>
<text text-anchor="middle" x="1180" y="-8.5" font-family="Helvetica,sans-Serif" font-size="10.00">stdbool.h</text>
</g>
<!-- Node4&#45;&gt;Node7 -->
<g id="edge12" class="edge"><title>Node4&#45;&gt;Node7</title>
<path fill="none" stroke="midnightblue" d="M549.313,-59.7742C552.234,-59.1001 555.162,-58.4928 558,-58 671.168,-38.3534 1023.86,-18.995 1141.43,-12.937"/>
<polygon fill="midnightblue" stroke="midnightblue" points="1141.93,-16.416 1151.74,-12.4089 1141.57,-9.42516 1141.93,-16.416"/>
</g>
<!-- Node8&#45;&gt;Node4 -->
<g id="edge16" class="edge"><title>Node8&#45;&gt;Node4</title>
<path fill="none" stroke="midnightblue" d="M566.178,-116.362C557.779,-108.104 545.946,-96.4725 536.11,-86.8029"/>
<polygon fill="midnightblue" stroke="midnightblue" points="538.338,-84.0851 528.753,-79.5707 533.431,-89.077 538.338,-84.0851"/>
</g>
<!-- Node9 -->
<g id="node18" class="node"><title>Node9</title>
<polygon fill="none" stroke="#bfbfbf" points="566.5,-58.5 566.5,-79.5 657.5,-79.5 657.5,-58.5 566.5,-58.5"/>
<text text-anchor="middle" x="612" y="-66.5" font-family="Helvetica,sans-Serif" font-size="10.00">networkhandler.h</text>
</g>
<!-- Node8&#45;&gt;Node9 -->
<g id="edge18" class="edge"><title>Node8&#45;&gt;Node9</title>
<path fill="none" stroke="midnightblue" d="M583.42,-116.362C588.156,-108.513 594.732,-97.6159 600.382,-88.2527"/>
<polygon fill="midnightblue" stroke="midnightblue" points="603.451,-89.9409 605.621,-79.5707 597.458,-86.3242 603.451,-89.9409"/>
</g>
<!-- Node11&#45;&gt;Node4 -->
<g id="edge26" class="edge"><title>Node11&#45;&gt;Node4</title>
<path fill="none" stroke="midnightblue" d="M910.798,-174.234C885.76,-156.701 836.662,-123.205 817,-116 710.861,-77.1082 673.852,-102.007 559.206,-80.0056"/>
<polygon fill="midnightblue" stroke="midnightblue" points="559.841,-76.5635 549.349,-78.0364 558.47,-83.4278 559.841,-76.5635"/>
</g>
<!-- Node11&#45;&gt;Node8 -->
<g id="edge28" class="edge"><title>Node11&#45;&gt;Node8</title>
<path fill="none" stroke="midnightblue" d="M889.965,-179.011C824.698,-168.165 687.302,-145.331 618.335,-133.869"/>
<polygon fill="midnightblue" stroke="midnightblue" points="618.712,-130.384 608.274,-132.197 617.565,-137.289 618.712,-130.384"/>
</g>
<!-- Node11&#45;&gt;Node10 -->
<g id="edge32" class="edge"><title>Node11&#45;&gt;Node10</title>
<path fill="none" stroke="midnightblue" d="M950.991,-174.497C972.933,-165.275 1005.07,-151.769 1029.46,-141.515"/>
<polygon fill="midnightblue" stroke="midnightblue" points="1030.87,-144.722 1038.73,-137.621 1028.15,-138.269 1030.87,-144.722"/>
</g>
<!-- Node12 -->
<g id="node24" class="node"><title>Node12</title>
<polygon fill="none" stroke="#bfbfbf" points="869,-116.5 869,-137.5 921,-137.5 921,-116.5 869,-116.5"/>
<text text-anchor="middle" x="895" y="-124.5" font-family="Helvetica,sans-Serif" font-size="10.00">assert.h</text>
</g>
<!-- Node11&#45;&gt;Node12 -->
<g id="edge24" class="edge"><title>Node11&#45;&gt;Node12</title>
<path fill="none" stroke="midnightblue" d="M920.314,-174.362C916.163,-166.595 910.416,-155.843 905.447,-146.546"/>
<polygon fill="midnightblue" stroke="midnightblue" points="908.45,-144.74 900.65,-137.571 902.277,-148.04 908.45,-144.74"/>
</g>
<!-- Node11&#45;&gt;Node13 -->
<g id="edge30" class="edge"><title>Node11&#45;&gt;Node13</title>
<path fill="none" stroke="midnightblue" d="M933.52,-174.362C939.126,-166.431 946.932,-155.389 953.597,-145.961"/>
<polygon fill="midnightblue" stroke="midnightblue" points="956.613,-147.757 959.528,-137.571 950.897,-143.716 956.613,-147.757"/>
</g>
<!-- Node14&#45;&gt;Node4 -->
<g id="edge36" class="edge"><title>Node14&#45;&gt;Node4</title>
<path fill="none" stroke="midnightblue" d="M341.903,-174.295C376.277,-153.741 451.656,-108.67 491.733,-84.7059"/>
<polygon fill="midnightblue" stroke="midnightblue" points="493.634,-87.6476 500.42,-79.5117 490.041,-81.6397 493.634,-87.6476"/>
</g>
<!-- Node14&#45;&gt;Node8 -->
<g id="edge38" class="edge"><title>Node14&#45;&gt;Node8</title>
<path fill="none" stroke="midnightblue" d="M358.711,-176.024C361.513,-175.329 364.302,-174.647 367,-174 425.568,-159.958 493.648,-144.963 536.035,-135.784"/>
<polygon fill="midnightblue" stroke="midnightblue" points="536.941,-139.169 545.976,-133.636 535.462,-132.327 536.941,-139.169"/>
</g>
<!-- Node15&#45;&gt;Node4 -->
<g id="edge42" class="edge"><title>Node15&#45;&gt;Node4</title>
<path fill="none" stroke="midnightblue" d="M432.675,-174.295C448.694,-154.527 483.09,-112.08 502.973,-87.5443"/>
<polygon fill="midnightblue" stroke="midnightblue" points="505.77,-89.6521 509.346,-79.6792 500.331,-85.245 505.77,-89.6521"/>
</g>
<!-- Node15&#45;&gt;Node8 -->
<g id="edge44" class="edge"><title>Node15&#45;&gt;Node8</title>
<path fill="none" stroke="midnightblue" d="M451.707,-174.497C476.326,-165.164 512.517,-151.445 539.68,-141.147"/>
<polygon fill="midnightblue" stroke="midnightblue" points="541.131,-144.341 549.241,-137.523 538.65,-137.795 541.131,-144.341"/>
</g>
<!-- Node16&#45;&gt;Node4 -->
<g id="edge48" class="edge"><title>Node16&#45;&gt;Node4</title>
<path fill="none" stroke="midnightblue" d="M532.523,-174.295C529.88,-155.131 524.297,-114.654 520.875,-89.8434"/>
<polygon fill="midnightblue" stroke="midnightblue" points="524.307,-89.1072 519.473,-79.6792 517.372,-90.0637 524.307,-89.1072"/>
</g>
<!-- Node16&#45;&gt;Node8 -->
<g id="edge50" class="edge"><title>Node16&#45;&gt;Node8</title>
<path fill="none" stroke="midnightblue" d="M541.887,-174.362C547.827,-166.35 556.122,-155.161 563.159,-145.67"/>
<polygon fill="midnightblue" stroke="midnightblue" points="566.019,-147.688 569.163,-137.571 560.396,-143.519 566.019,-147.688"/>
</g>
<!-- Node17&#45;&gt;Node4 -->
<g id="edge58" class="edge"><title>Node17&#45;&gt;Node4</title>
<path fill="none" stroke="midnightblue" d="M828.367,-232.319C839.764,-217.967 855.972,-192.166 843,-174 834.455,-162.033 643.961,-105.552 558.664,-80.7393"/>
<polygon fill="midnightblue" stroke="midnightblue" points="559.625,-77.3736 549.045,-77.9456 557.672,-84.0958 559.625,-77.3736"/>
</g>
<!-- Node17&#45;&gt;Node8 -->
<g id="edge60" class="edge"><title>Node17&#45;&gt;Node8</title>
<path fill="none" stroke="midnightblue" d="M796.276,-232.422C776.681,-223.171 747.723,-209.188 723,-196 705.782,-186.815 702.42,-182.797 685,-174 661.415,-162.09 634.125,-150.229 612.878,-141.402"/>
<polygon fill="midnightblue" stroke="midnightblue" points="614.156,-138.143 603.576,-137.571 611.49,-144.616 614.156,-138.143"/>
</g>
<!-- Node17&#45;&gt;Node10 -->
<g id="edge54" class="edge"><title>Node17&#45;&gt;Node10</title>
<path fill="none" stroke="midnightblue" d="M867.51,-232.465C898.186,-224.736 938.109,-212.671 971,-196 998.585,-182.019 1026.6,-159.926 1044.57,-144.518"/>
<polygon fill="midnightblue" stroke="midnightblue" points="1047.31,-146.772 1052.53,-137.556 1042.7,-141.501 1047.31,-146.772"/>
</g>
<!-- Node17&#45;&gt;Node11 -->
<g id="edge56" class="edge"><title>Node17&#45;&gt;Node11</title>
<path fill="none" stroke="midnightblue" d="M838.625,-232.362C855.141,-223.409 878.974,-210.491 897.578,-200.406"/>
<polygon fill="midnightblue" stroke="midnightblue" points="899.375,-203.413 906.499,-195.571 896.04,-197.259 899.375,-203.413"/>
</g>
<!-- Node18&#45;&gt;Node4 -->
<g id="edge64" class="edge"><title>Node18&#45;&gt;Node4</title>
<path fill="none" stroke="midnightblue" d="M190.833,-232.094C184.749,-217.489 176.905,-191.401 189,-174 222.364,-126 395.783,-90.2038 476.539,-75.8688"/>
<polygon fill="midnightblue" stroke="midnightblue" points="477.588,-79.2387 486.835,-74.0686 476.382,-72.3433 477.588,-79.2387"/>
</g>
<!-- Node19&#45;&gt;Node4 -->
<g id="edge68" class="edge"><title>Node19&#45;&gt;Node4</title>
<path fill="none" stroke="midnightblue" d="M104.875,-119.086C109.228,-117.932 113.722,-116.849 118,-116 247.595,-90.2776 403.803,-76.9212 476.732,-71.6896"/>
<polygon fill="midnightblue" stroke="midnightblue" points="477.145,-75.1693 486.875,-70.9762 476.654,-68.1865 477.145,-75.1693"/>
</g>
<!-- Node20&#45;&gt;Node4 -->
<g id="edge74" class="edge"><title>Node20&#45;&gt;Node4</title>
<path fill="none" stroke="midnightblue" d="M635.743,-174.405C634.849,-159.683 631.216,-132.942 617,-116 608.525,-105.9 580.207,-92.9591 556.017,-83.2146"/>
<polygon fill="midnightblue" stroke="midnightblue" points="557.245,-79.9365 546.658,-79.5172 554.673,-86.4468 557.245,-79.9365"/>
</g>
<!-- Node20&#45;&gt;Node8 -->
<g id="edge76" class="edge"><title>Node20&#45;&gt;Node8</title>
<path fill="none" stroke="midnightblue" d="M625.178,-174.362C616.779,-166.104 604.946,-154.472 595.11,-144.803"/>
<polygon fill="midnightblue" stroke="midnightblue" points="597.338,-142.085 587.753,-137.571 592.431,-147.077 597.338,-142.085"/>
</g>
<!-- Node21&#45;&gt;Node4 -->
<g id="edge80" class="edge"><title>Node21&#45;&gt;Node4</title>
<path fill="none" stroke="midnightblue" d="M761.269,-174.301C732.745,-160.373 681.01,-135.507 636,-116 609.267,-104.414 578.697,-92.2682 555.371,-83.2262"/>
<polygon fill="midnightblue" stroke="midnightblue" points="556.439,-79.8871 545.85,-79.5518 553.919,-86.4176 556.439,-79.8871"/>
</g>
<!-- Node21&#45;&gt;Node8 -->
<g id="edge82" class="edge"><title>Node21&#45;&gt;Node8</title>
<path fill="none" stroke="midnightblue" d="M745.695,-174.497C709.768,-164.381 655.538,-149.113 618.319,-138.634"/>
<polygon fill="midnightblue" stroke="midnightblue" points="618.876,-135.154 608.302,-135.813 616.979,-141.892 618.876,-135.154"/>
</g>
<!-- Node22&#45;&gt;Node4 -->
<g id="edge86" class="edge"><title>Node22&#45;&gt;Node4</title>
<path fill="none" stroke="midnightblue" d="M124.826,-174.334C128.099,-158.754 136.536,-130.1 156,-116 181.61,-97.4484 387.343,-79.2542 476.756,-72.1375"/>
<polygon fill="midnightblue" stroke="midnightblue" points="477.117,-75.62 486.811,-71.345 476.567,-68.6417 477.117,-75.62"/>
</g>
<!-- Node22&#45;&gt;Node8 -->
<g id="edge88" class="edge"><title>Node22&#45;&gt;Node8</title>
<path fill="none" stroke="midnightblue" d="M142.027,-181.598C155.193,-179.3 173.133,-176.282 189,-174 314.849,-155.899 464.341,-139.116 535.44,-131.419"/>
<polygon fill="midnightblue" stroke="midnightblue" points="536.189,-134.858 545.756,-130.306 535.438,-127.899 536.189,-134.858"/>
</g>
<!-- Node22&#45;&gt;Node19 -->
<g id="edge90" class="edge"><title>Node22&#45;&gt;Node19</title>
<path fill="none" stroke="midnightblue" d="M114.93,-174.362C108.851,-166.35 100.363,-155.161 93.1631,-145.67"/>
<polygon fill="midnightblue" stroke="midnightblue" points="95.8514,-143.422 87.0191,-137.571 90.2746,-147.653 95.8514,-143.422"/>
</g>
<!-- Node23&#45;&gt;Node10 -->
<g id="edge94" class="edge"><title>Node23&#45;&gt;Node10</title>
<path fill="none" stroke="midnightblue" d="M1065.82,-232.295C1065.49,-213.131 1064.79,-172.654 1064.36,-147.843"/>
<polygon fill="midnightblue" stroke="midnightblue" points="1067.86,-147.617 1064.18,-137.679 1060.86,-147.738 1067.86,-147.617"/>
</g>
<!-- Node24&#45;&gt;Node17 -->
<g id="edge98" class="edge"><title>Node24&#45;&gt;Node17</title>
<path fill="none" stroke="midnightblue" d="M757.756,-290.362C768.751,-281.859 784.373,-269.779 797.086,-259.947"/>
<polygon fill="midnightblue" stroke="midnightblue" points="799.562,-262.457 805.331,-253.571 795.279,-256.919 799.562,-262.457"/>
</g>
<!-- Node25&#45;&gt;Node7 -->
<g id="edge102" class="edge"><title>Node25&#45;&gt;Node7</title>
<path fill="none" stroke="midnightblue" d="M1199.36,-174.453C1212.48,-166.416 1228.45,-154.009 1236,-138 1254.1,-99.6198 1220.8,-53.9492 1198.25,-29.1778"/>
<polygon fill="midnightblue" stroke="midnightblue" points="1200.52,-26.4816 1191.11,-21.619 1195.43,-31.2903 1200.52,-26.4816"/>
</g>
<!-- Node25&#45;&gt;Node8 -->
<g id="edge104" class="edge"><title>Node25&#45;&gt;Node8</title>
<path fill="none" stroke="midnightblue" d="M1147.9,-182.004C1047.51,-172.331 731.972,-141.931 618.315,-130.981"/>
<polygon fill="midnightblue" stroke="midnightblue" points="618.563,-127.488 608.274,-130.013 617.892,-134.456 618.563,-127.488"/>
</g>
<!-- Node26 -->
<g id="node79" class="node"><title>Node26</title>
<a xlink:href="../../d0/d23/cipelectronickey_8h.html" target="_top" xlink:title="cipelectronickey.h">
<polygon fill="none" stroke="black" points="1132.5,-116.5 1132.5,-137.5 1227.5,-137.5 1227.5,-116.5 1132.5,-116.5"/>
<text text-anchor="middle" x="1180" y="-124.5" font-family="Helvetica,sans-Serif" font-size="10.00">cipelectronickey.h</text>
</a>
</g>
<!-- Node25&#45;&gt;Node26 -->
<g id="edge106" class="edge"><title>Node25&#45;&gt;Node26</title>
<path fill="none" stroke="midnightblue" d="M1179.18,-174.362C1179.31,-166.922 1179.49,-156.743 1179.64,-147.728"/>
<polygon fill="midnightblue" stroke="midnightblue" points="1183.14,-147.63 1179.82,-137.571 1176.15,-147.509 1183.14,-147.63"/>
</g>
<!-- Node26&#45;&gt;Node4 -->
<g id="edge110" class="edge"><title>Node26&#45;&gt;Node4</title>
<path fill="none" stroke="midnightblue" d="M1132.41,-117.214C1129.57,-116.766 1126.75,-116.356 1124,-116 877.318,-84.0658 808.411,-120.647 559.385,-79.9353"/>
<polygon fill="midnightblue" stroke="midnightblue" points="559.745,-76.4473 549.307,-78.2619 558.599,-83.3528 559.745,-76.4473"/>
</g>
<!-- Node26&#45;&gt;Node7 -->
<g id="edge108" class="edge"><title>Node26&#45;&gt;Node7</title>
<path fill="none" stroke="midnightblue" d="M1180,-116.295C1180,-97.1314 1180,-56.654 1180,-31.8434"/>
<polygon fill="midnightblue" stroke="midnightblue" points="1183.5,-31.6792 1180,-21.6792 1176.5,-31.6792 1183.5,-31.6792"/>
</g>
</g>
</svg>
        <g id="navigator" transform="translate(0 0)" fill="#404254">
                <rect fill="#f2f5e9" fill-opacity="0.5" stroke="#606060" stroke-width=".5" x="0" y="0" width="60" height="60"/>
                <use id="zoomplus" xlink:href="#zoomPlus" x="17" y="9" onmousedown="handleZoom(evt,'in')"/>
                <use id="zoomminus" xlink:href="#zoomMin" x="42" y="9" onmousedown="handleZoom(evt,'out')"/>
                <use id="reset" xlink:href="#resetDef" x="30" y="36" onmousedown="handleReset()"/>
                <g id="arrowUp" xlink:href="#dirArrow" transform="translate(30 24)" onmousedown="handlePan(0,-1)">
                  <use xlink:href="#rim" fill="#404040">
                        <set attributeName="fill" to="#808080" begin="arrowUp.mouseover" end="arrowUp.mouseout"/>
                  </use>
                  <path fill="none" stroke="white" stroke-width="1.5" d="M0,-3.0v7 M-2.5,-0.5L0,-3.0L2.5,-0.5"/>
                </g>
                <g id="arrowRight" xlink:href="#dirArrow" transform="rotate(90) translate(36 -43)" onmousedown="handlePan(1,0)">
                  <use xlink:href="#rim" fill="#404040">
                        <set attributeName="fill" to="#808080" begin="arrowRight.mouseover" end="arrowRight.mouseout"/>
                  </use>
                  <path fill="none" stroke="white" stroke-width="1.5" d="M0,-3.0v7 M-2.5,-0.5L0,-3.0L2.5,-0.5"/>
                </g>
                <g id="arrowDown" xlink:href="#dirArrow" transform="rotate(180) translate(-30 -48)" onmousedown="handlePan(0,1)">
                  <use xlink:href="#rim" fill="#404040">
                        <set attributeName="fill" to="#808080" begin="arrowDown.mouseover" end="arrowDown.mouseout"/>
                  </use>
                  <path fill="none" stroke="white" stroke-width="1.5" d="M0,-3.0v7 M-2.5,-0.5L0,-3.0L2.5,-0.5"/>
                </g>
                <g id="arrowLeft" xlink:href="#dirArrow" transform="rotate(270) translate(-36 17)" onmousedown="handlePan(-1,0)">
                  <use xlink:href="#rim" fill="#404040">
                        <set attributeName="fill" to="#808080" begin="arrowLeft.mouseover" end="arrowLeft.mouseout"/>
                  </use>
                  <path fill="none" stroke="white" stroke-width="1.5" d="M0,-3.0v7 M-2.5,-0.5L0,-3.0L2.5,-0.5"/>
                </g>
        </g>
</svg>
