<?xml version="1.0" encoding="UTF-8" standalone="no"?>
<!DOCTYPE svg PUBLIC "-//W3C//DTD SVG 1.1//EN"
 "http://www.w3.org/Graphics/SVG/1.1/DTD/svg11.dtd">
<!-- Generated by graphviz version 2.36.0 (20140111.2315)
 -->
<!-- Title: src/cip/cipcommon.c Pages: 1 -->
<svg width="1603pt" height="420pt"
 viewBox="0.00 0.00 1603.00 420.00" xmlns="http://www.w3.org/2000/svg" xmlns:xlink="http://www.w3.org/1999/xlink">
<g id="graph0" class="graph" transform="scale(1 1) rotate(0) translate(4 416)">
<title>src/cip/cipcommon.c</title>
<!-- Node1 -->
<g id="node1" class="node"><title>Node1</title>
<polygon fill="#bfbfbf" stroke="black" points="701.5,-392.5 701.5,-411.5 808.5,-411.5 808.5,-392.5 701.5,-392.5"/>
<text text-anchor="middle" x="755" y="-399.5" font-family="Helvetica,sans-Serif" font-size="10.00">src/cip/cipcommon.c</text>
</g>
<!-- Node2 -->
<g id="node2" class="node"><title>Node2</title>
<polygon fill="none" stroke="#bfbfbf" points="-0.5,-336.5 -0.5,-355.5 48.5,-355.5 48.5,-336.5 -0.5,-336.5"/>
<text text-anchor="middle" x="24" y="-343.5" font-family="Helvetica,sans-Serif" font-size="10.00">string.h</text>
</g>
<!-- Node1&#45;&gt;Node2 -->
<g id="edge1" class="edge"><title>Node1&#45;&gt;Node2</title>
<path fill="none" stroke="midnightblue" d="M701.294,-400.46C584.546,-398.639 299.144,-390.692 63,-356 61.5391,-355.785 60.0519,-355.544 58.5531,-355.283"/>
<polygon fill="midnightblue" stroke="midnightblue" points="59.1323,-351.83 48.643,-353.321 57.7729,-358.696 59.1323,-351.83"/>
</g>
<!-- Node3 -->
<g id="node3" class="node"><title>Node3</title>
<g id="a_node3"><a xlink:href="../../db/d14/cipcommon_8h.html" target="_top" xlink:title="cipcommon.h">
<polygon fill="none" stroke="black" points="306.5,-168.5 306.5,-187.5 381.5,-187.5 381.5,-168.5 306.5,-168.5"/>
<text text-anchor="middle" x="344" y="-175.5" font-family="Helvetica,sans-Serif" font-size="10.00">cipcommon.h</text>
</a>
</g>
</g>
<!-- Node1&#45;&gt;Node3 -->
<g id="edge2" class="edge"><title>Node1&#45;&gt;Node3</title>
<path fill="none" stroke="midnightblue" d="M735.673,-392.445C716.142,-383.683 685.189,-369.473 659,-356 547.936,-298.864 419.086,-223.534 367.302,-192.874"/>
<polygon fill="midnightblue" stroke="midnightblue" points="368.937,-189.775 358.551,-187.684 365.366,-195.796 368.937,-189.775"/>
</g>
<!-- Node10 -->
<g id="node10" class="node"><title>Node10</title>
<polygon fill="none" stroke="#bfbfbf" points="939,-112.5 939,-131.5 1041,-131.5 1041,-112.5 939,-112.5"/>
<text text-anchor="middle" x="990" y="-119.5" font-family="Helvetica,sans-Serif" font-size="10.00">opener_user_conf.h</text>
</g>
<!-- Node1&#45;&gt;Node10 -->
<g id="edge10" class="edge"><title>Node1&#45;&gt;Node10</title>
<path fill="none" stroke="midnightblue" d="M757.957,-392.198C765.205,-371.387 785.306,-318.045 813,-280 858.239,-217.852 931.924,-162.668 968.29,-137.477"/>
<polygon fill="midnightblue" stroke="midnightblue" points="970.412,-140.266 976.692,-131.733 966.461,-134.488 970.412,-140.266"/>
</g>
<!-- Node11 -->
<g id="node11" class="node"><title>Node11</title>
<g id="a_node11"><a xlink:href="../../d4/d38/opener__api_8h.html" target="_top" xlink:title="opener_api.h">
<polygon fill="none" stroke="black" points="1381,-168.5 1381,-187.5 1453,-187.5 1453,-168.5 1381,-168.5"/>
<text text-anchor="middle" x="1417" y="-175.5" font-family="Helvetica,sans-Serif" font-size="10.00">opener_api.h</text>
</a>
</g>
</g>
<!-- Node1&#45;&gt;Node11 -->
<g id="edge11" class="edge"><title>Node1&#45;&gt;Node11</title>
<path fill="none" stroke="midnightblue" d="M808.585,-399.878C877.2,-397.117 999.057,-387.716 1098,-356 1148.36,-339.856 1156.64,-325.462 1203,-300 1272.32,-261.926 1353.41,-215.576 1392.91,-192.878"/>
<polygon fill="midnightblue" stroke="midnightblue" points="1395.1,-195.656 1402.02,-187.636 1391.61,-189.588 1395.1,-195.656"/>
</g>
<!-- Node13 -->
<g id="node13" class="node"><title>Node13</title>
<g id="a_node13"><a xlink:href="../../d6/d52/ciperror_8h.html" target="_top" xlink:title="ciperror.h">
<polygon fill="none" stroke="black" points="1395.5,-112.5 1395.5,-131.5 1452.5,-131.5 1452.5,-112.5 1395.5,-112.5"/>
<text text-anchor="middle" x="1424" y="-119.5" font-family="Helvetica,sans-Serif" font-size="10.00">ciperror.h</text>
</a>
</g>
</g>
<!-- Node1&#45;&gt;Node13 -->
<g id="edge49" class="edge"><title>Node1&#45;&gt;Node13</title>
<path fill="none" stroke="midnightblue" d="M808.723,-398.93C982.626,-391.525 1519,-362.861 1519,-291 1519,-291 1519,-291 1519,-233 1519,-189.739 1476.39,-155.086 1448.25,-136.915"/>
<polygon fill="midnightblue" stroke="midnightblue" points="1450.03,-133.903 1439.69,-131.604 1446.34,-139.851 1450.03,-133.903"/>
</g>
<!-- Node14 -->
<g id="node14" class="node"><title>Node14</title>
<g id="a_node14"><a xlink:href="../../dc/d72/cipidentity_8h.html" target="_top" xlink:title="cipidentity.h">
<polygon fill="none" stroke="black" points="723.5,-168.5 723.5,-187.5 792.5,-187.5 792.5,-168.5 723.5,-168.5"/>
<text text-anchor="middle" x="758" y="-175.5" font-family="Helvetica,sans-Serif" font-size="10.00">cipidentity.h</text>
</a>
</g>
</g>
<!-- Node1&#45;&gt;Node14 -->
<g id="edge18" class="edge"><title>Node1&#45;&gt;Node14</title>
<path fill="none" stroke="midnightblue" d="M755.118,-392.297C755.559,-359.633 757.123,-243.866 757.744,-197.957"/>
<polygon fill="midnightblue" stroke="midnightblue" points="761.244,-197.93 757.88,-187.884 754.245,-197.836 761.244,-197.93"/>
</g>
<!-- Node15 -->
<g id="node15" class="node"><title>Node15</title>
<g id="a_node15"><a xlink:href="../../d1/dad/ciptcpipinterface_8h.html" target="_top" xlink:title="Public interface of the TCP/IP Interface Object. ">
<polygon fill="none" stroke="black" points="192,-168.5 192,-187.5 288,-187.5 288,-168.5 192,-168.5"/>
<text text-anchor="middle" x="240" y="-175.5" font-family="Helvetica,sans-Serif" font-size="10.00">ciptcpipinterface.h</text>
</a>
</g>
</g>
<!-- Node1&#45;&gt;Node15 -->
<g id="edge21" class="edge"><title>Node1&#45;&gt;Node15</title>
<path fill="none" stroke="midnightblue" d="M726.697,-392.499C699.349,-384.05 656.902,-370.317 621,-356 484.629,-301.619 327.153,-223.324 266.077,-192.344"/>
<polygon fill="midnightblue" stroke="midnightblue" points="267.294,-189.036 256.794,-187.622 264.12,-195.275 267.294,-189.036"/>
</g>
<!-- Node16 -->
<g id="node16" class="node"><title>Node16</title>
<g id="a_node16"><a xlink:href="../../dd/d4d/cipethernetlink_8h.html" target="_top" xlink:title="cipethernetlink.h">
<polygon fill="none" stroke="black" points="399,-168.5 399,-187.5 487,-187.5 487,-168.5 399,-168.5"/>
<text text-anchor="middle" x="443" y="-175.5" font-family="Helvetica,sans-Serif" font-size="10.00">cipethernetlink.h</text>
</a>
</g>
</g>
<!-- Node1&#45;&gt;Node16 -->
<g id="edge24" class="edge"><title>Node1&#45;&gt;Node16</title>
<path fill="none" stroke="midnightblue" d="M742.497,-392.433C729.379,-383.423 708.178,-368.804 690,-356 605.217,-296.28 505,-223.91 463.043,-193.53"/>
<polygon fill="midnightblue" stroke="midnightblue" points="464.929,-190.575 454.777,-187.543 460.822,-196.244 464.929,-190.575"/>
</g>
<!-- Node17 -->
<g id="node17" class="node"><title>Node17</title>
<g id="a_node17"><a xlink:href="../../d2/da3/cipconnectionmanager_8h.html" target="_top" xlink:title="cipconnectionmanager.h">
<polygon fill="none" stroke="black" points="1024,-280.5 1024,-299.5 1146,-299.5 1146,-280.5 1024,-280.5"/>
<text text-anchor="middle" x="1085" y="-287.5" font-family="Helvetica,sans-Serif" font-size="10.00">cipconnectionmanager.h</text>
</a>
</g>
</g>
<!-- Node1&#45;&gt;Node17 -->
<g id="edge27" class="edge"><title>Node1&#45;&gt;Node17</title>
<path fill="none" stroke="midnightblue" d="M808.502,-397.376C879.565,-391.743 1000.49,-379.059 1038,-356 1055.93,-344.978 1069.07,-324.317 1076.83,-309.239"/>
<polygon fill="midnightblue" stroke="midnightblue" points="1080.15,-310.408 1081.33,-299.879 1073.84,-307.373 1080.15,-310.408"/>
</g>
<!-- Node21 -->
<g id="node21" class="node"><title>Node21</title>
<g id="a_node21"><a xlink:href="../../d1/d02/cipepath_8h.html" target="_top" xlink:title="cipepath.h">
<polygon fill="none" stroke="black" points="1301,-168.5 1301,-187.5 1363,-187.5 1363,-168.5 1301,-168.5"/>
<text text-anchor="middle" x="1332" y="-175.5" font-family="Helvetica,sans-Serif" font-size="10.00">cipepath.h</text>
</a>
</g>
</g>
<!-- Node1&#45;&gt;Node21 -->
<g id="edge68" class="edge"><title>Node1&#45;&gt;Node21</title>
<path fill="none" stroke="midnightblue" d="M808.685,-399.516C871.209,-396.35 976.797,-386.502 1062,-356 1168.41,-317.905 1274.71,-229.998 1315.05,-194.392"/>
<polygon fill="midnightblue" stroke="midnightblue" points="1317.5,-196.895 1322.63,-187.625 1312.84,-191.672 1317.5,-196.895"/>
</g>
<!-- Node22 -->
<g id="node22" class="node"><title>Node22</title>
<g id="a_node22"><a xlink:href="../../d0/dec/endianconv_8h.html" target="_top" xlink:title="Responsible for Endianess conversion. ">
<polygon fill="none" stroke="black" points="13,-224.5 13,-243.5 87,-243.5 87,-224.5 13,-224.5"/>
<text text-anchor="middle" x="50" y="-231.5" font-family="Helvetica,sans-Serif" font-size="10.00">endianconv.h</text>
</a>
</g>
</g>
<!-- Node1&#45;&gt;Node22 -->
<g id="edge45" class="edge"><title>Node1&#45;&gt;Node22</title>
<path fill="none" stroke="midnightblue" d="M701.326,-400.495C553.702,-398.666 149.33,-390.525 101,-356 67.4018,-331.999 55.8166,-281.389 51.9138,-253.838"/>
<polygon fill="midnightblue" stroke="midnightblue" points="55.3491,-253.093 50.6698,-243.587 48.4001,-253.936 55.3491,-253.093"/>
</g>
<!-- Node23 -->
<g id="node23" class="node"><title>Node23</title>
<g id="a_node23"><a xlink:href="../../d7/df9/encap_8h.html" target="_top" xlink:title="This file contains the public interface of the encapsulation layer. ">
<polygon fill="none" stroke="black" points="129.5,-112.5 129.5,-131.5 180.5,-131.5 180.5,-112.5 129.5,-112.5"/>
<text text-anchor="middle" x="155" y="-119.5" font-family="Helvetica,sans-Serif" font-size="10.00">encap.h</text>
</a>
</g>
</g>
<!-- Node1&#45;&gt;Node23 -->
<g id="edge47" class="edge"><title>Node1&#45;&gt;Node23</title>
<path fill="none" stroke="midnightblue" d="M701.18,-393.998C651.876,-386.868 577.175,-374.257 514,-356 333.864,-303.942 227.47,-346.319 127,-188 117.186,-172.536 128.294,-153.042 139.287,-139.455"/>
<polygon fill="midnightblue" stroke="midnightblue" points="141.989,-141.682 145.929,-131.847 136.715,-137.079 141.989,-141.682"/>
</g>
<!-- Node24 -->
<g id="node24" class="node"><title>Node24</title>
<g id="a_node24"><a xlink:href="../../de/df4/cipassembly_8h.html" target="_top" xlink:title="cipassembly.h">
<polygon fill="none" stroke="black" points="505,-168.5 505,-187.5 585,-187.5 585,-168.5 505,-168.5"/>
<text text-anchor="middle" x="545" y="-175.5" font-family="Helvetica,sans-Serif" font-size="10.00">cipassembly.h</text>
</a>
</g>
</g>
<!-- Node1&#45;&gt;Node24 -->
<g id="edge50" class="edge"><title>Node1&#45;&gt;Node24</title>
<path fill="none" stroke="midnightblue" d="M746.768,-392.297C715.279,-359.01 602.155,-239.421 560.521,-195.408"/>
<polygon fill="midnightblue" stroke="midnightblue" points="562.818,-192.743 553.404,-187.884 557.733,-197.554 562.818,-192.743"/>
</g>
<!-- Node25 -->
<g id="node25" class="node"><title>Node25</title>
<g id="a_node25"><a xlink:href="../../d2/d75/cipmessagerouter_8h.html" target="_top" xlink:title="cipmessagerouter.h">
<polygon fill="none" stroke="black" points="603,-168.5 603,-187.5 705,-187.5 705,-168.5 603,-168.5"/>
<text text-anchor="middle" x="654" y="-175.5" font-family="Helvetica,sans-Serif" font-size="10.00">cipmessagerouter.h</text>
</a>
</g>
</g>
<!-- Node1&#45;&gt;Node25 -->
<g id="edge53" class="edge"><title>Node1&#45;&gt;Node25</title>
<path fill="none" stroke="midnightblue" d="M751.041,-392.297C736.085,-359.425 682.84,-242.391 662.23,-197.09"/>
<polygon fill="midnightblue" stroke="midnightblue" points="665.369,-195.537 658.042,-187.884 658.997,-198.435 665.369,-195.537"/>
</g>
<!-- Node26 -->
<g id="node26" class="node"><title>Node26</title>
<g id="a_node26"><a xlink:href="../../d0/d3c/cipqos_8h.html" target="_top" xlink:title="Public interface of the QoS Object. ">
<polygon fill="none" stroke="black" points="873.5,-336.5 873.5,-355.5 926.5,-355.5 926.5,-336.5 873.5,-336.5"/>
<text text-anchor="middle" x="900" y="-343.5" font-family="Helvetica,sans-Serif" font-size="10.00">cipqos.h</text>
</a>
</g>
</g>
<!-- Node1&#45;&gt;Node26 -->
<g id="edge56" class="edge"><title>Node1&#45;&gt;Node26</title>
<path fill="none" stroke="midnightblue" d="M777.976,-392.444C802.157,-383.438 840.418,-369.189 867.646,-359.049"/>
<polygon fill="midnightblue" stroke="midnightblue" points="868.982,-362.286 877.132,-355.516 866.539,-355.727 868.982,-362.286"/>
</g>
<!-- Node27 -->
<g id="node27" class="node"><title>Node27</title>
<g id="a_node27"><a xlink:href="../../d0/dff/cpf_8h.html" target="_top" xlink:title="cpf.h">
<polygon fill="none" stroke="black" points="136,-168.5 136,-187.5 174,-187.5 174,-168.5 136,-168.5"/>
<text text-anchor="middle" x="155" y="-175.5" font-family="Helvetica,sans-Serif" font-size="10.00">cpf.h</text>
</a>
</g>
</g>
<!-- Node1&#45;&gt;Node27 -->
<g id="edge60" class="edge"><title>Node1&#45;&gt;Node27</title>
<path fill="none" stroke="midnightblue" d="M711.068,-392.444C673.218,-384.57 617.365,-371.742 570,-356 419.054,-305.831 246.442,-223.876 181.523,-192.134"/>
<polygon fill="midnightblue" stroke="midnightblue" points="182.914,-188.918 172.394,-187.654 179.83,-195.202 182.914,-188.918"/>
</g>
<!-- Node28 -->
<g id="node28" class="node"><title>Node28</title>
<g id="a_node28"><a xlink:href="../../d1/d1b/trace_8h.html" target="_top" xlink:title="Tracing infrastructure for OpENer. ">
<polygon fill="none" stroke="black" points="821.5,-280.5 821.5,-299.5 868.5,-299.5 868.5,-280.5 821.5,-280.5"/>
<text text-anchor="middle" x="845" y="-287.5" font-family="Helvetica,sans-Serif" font-size="10.00">trace.h</text>
</a>
</g>
</g>
<!-- Node1&#45;&gt;Node28 -->
<g id="edge64" class="edge"><title>Node1&#45;&gt;Node28</title>
<path fill="none" stroke="midnightblue" d="M767.157,-392.323C778.392,-383.902 795.098,-370.326 807,-356 819.115,-341.418 829.699,-322.496 836.599,-308.832"/>
<polygon fill="midnightblue" stroke="midnightblue" points="839.88,-310.089 841.121,-299.567 833.589,-307.018 839.88,-310.089"/>
</g>
<!-- Node29 -->
<g id="node29" class="node"><title>Node29</title>
<g id="a_node29"><a xlink:href="../../d1/dc0/appcontype_8h.html" target="_top" xlink:title="appcontype.h">
<polygon fill="none" stroke="black" points="954.5,-336.5 954.5,-355.5 1029.5,-355.5 1029.5,-336.5 954.5,-336.5"/>
<text text-anchor="middle" x="992" y="-343.5" font-family="Helvetica,sans-Serif" font-size="10.00">appcontype.h</text>
</a>
</g>
</g>
<!-- Node1&#45;&gt;Node29 -->
<g id="edge66" class="edge"><title>Node1&#45;&gt;Node29</title>
<path fill="none" stroke="midnightblue" d="M792.553,-392.444C833.811,-383.043 900.144,-367.929 944.866,-357.739"/>
<polygon fill="midnightblue" stroke="midnightblue" points="945.65,-361.151 954.622,-355.516 944.095,-354.326 945.65,-361.151"/>
</g>
<!-- Node30 -->
<g id="node30" class="node"><title>Node30</title>
<polygon fill="none" stroke="#bfbfbf" points="1547,-336.5 1547,-355.5 1595,-355.5 1595,-336.5 1547,-336.5"/>
<text text-anchor="middle" x="1571" y="-343.5" font-family="Helvetica,sans-Serif" font-size="10.00">stdlib.h</text>
</g>
<!-- Node1&#45;&gt;Node30 -->
<g id="edge69" class="edge"><title>Node1&#45;&gt;Node30</title>
<path fill="none" stroke="midnightblue" d="M808.62,-401.114C935.33,-400.684 1262.91,-395.485 1533,-356 1534.28,-355.812 1535.59,-355.603 1536.9,-355.375"/>
<polygon fill="midnightblue" stroke="midnightblue" points="1537.88,-358.748 1547,-353.353 1536.51,-351.884 1537.88,-358.748"/>
</g>
<!-- Node4 -->
<g id="node4" class="node"><title>Node4</title>
<g id="a_node4"><a xlink:href="../../d7/d69/typedefs_8h.html" target="_top" xlink:title="typedefs.h">
<polygon fill="none" stroke="black" points="609,-56.5 609,-75.5 671,-75.5 671,-56.5 609,-56.5"/>
<text text-anchor="middle" x="640" y="-63.5" font-family="Helvetica,sans-Serif" font-size="10.00">typedefs.h</text>
</a>
</g>
</g>
<!-- Node3&#45;&gt;Node4 -->
<g id="edge3" class="edge"><title>Node3&#45;&gt;Node4</title>
<path fill="none" stroke="midnightblue" d="M367.227,-168.368C419.641,-148.89 547.22,-101.479 607.47,-79.089"/>
<polygon fill="midnightblue" stroke="midnightblue" points="608.727,-82.3557 616.881,-75.5914 606.288,-75.7942 608.727,-82.3557"/>
</g>
<!-- Node8 -->
<g id="node8" class="node"><title>Node8</title>
<g id="a_node8"><a xlink:href="../../df/d28/ciptypes_8h.html" target="_top" xlink:title="ciptypes.h">
<polygon fill="none" stroke="black" points="668,-112.5 668,-131.5 730,-131.5 730,-112.5 668,-112.5"/>
<text text-anchor="middle" x="699" y="-119.5" font-family="Helvetica,sans-Serif" font-size="10.00">ciptypes.h</text>
</a>
</g>
</g>
<!-- Node3&#45;&gt;Node8 -->
<g id="edge7" class="edge"><title>Node3&#45;&gt;Node8</title>
<path fill="none" stroke="midnightblue" d="M381.628,-169.483C384.458,-168.965 387.273,-168.465 390,-168 485.533,-151.708 598.322,-136.226 657.682,-128.368"/>
<polygon fill="midnightblue" stroke="midnightblue" points="658.324,-131.813 667.781,-127.036 657.409,-124.873 658.324,-131.813"/>
</g>
<!-- Node5 -->
<g id="node5" class="node"><title>Node5</title>
<polygon fill="none" stroke="#bfbfbf" points="647.5,-0.5 647.5,-19.5 706.5,-19.5 706.5,-0.5 647.5,-0.5"/>
<text text-anchor="middle" x="677" y="-7.5" font-family="Helvetica,sans-Serif" font-size="10.00">inttypes.h</text>
</g>
<!-- Node4&#45;&gt;Node5 -->
<g id="edge4" class="edge"><title>Node4&#45;&gt;Node5</title>
<path fill="none" stroke="midnightblue" d="M646.11,-56.083C651.282,-48.5341 658.846,-37.4948 665.194,-28.2298"/>
<polygon fill="midnightblue" stroke="midnightblue" points="668.239,-29.9787 671.004,-19.7511 662.464,-26.0221 668.239,-29.9787"/>
</g>
<!-- Node6 -->
<g id="node6" class="node"><title>Node6</title>
<polygon fill="none" stroke="#bfbfbf" points="577,-0.5 577,-19.5 629,-19.5 629,-0.5 577,-0.5"/>
<text text-anchor="middle" x="603" y="-7.5" font-family="Helvetica,sans-Serif" font-size="10.00">stddef.h</text>
</g>
<!-- Node4&#45;&gt;Node6 -->
<g id="edge5" class="edge"><title>Node4&#45;&gt;Node6</title>
<path fill="none" stroke="midnightblue" d="M633.89,-56.083C628.718,-48.5341 621.154,-37.4948 614.806,-28.2298"/>
<polygon fill="midnightblue" stroke="midnightblue" points="617.536,-26.0221 608.996,-19.7511 611.761,-29.9787 617.536,-26.0221"/>
</g>
<!-- Node7 -->
<g id="node7" class="node"><title>Node7</title>
<polygon fill="none" stroke="#bfbfbf" points="1245,-0.5 1245,-19.5 1301,-19.5 1301,-0.5 1245,-0.5"/>
<text text-anchor="middle" x="1273" y="-7.5" font-family="Helvetica,sans-Serif" font-size="10.00">stdbool.h</text>
</g>
<!-- Node4&#45;&gt;Node7 -->
<g id="edge6" class="edge"><title>Node4&#45;&gt;Node7</title>
<path fill="none" stroke="midnightblue" d="M671.256,-57.6658C674.535,-57.0384 677.828,-56.4664 681,-56 888.434,-25.5026 1139.98,-15.0594 1234.58,-12.0558"/>
<polygon fill="midnightblue" stroke="midnightblue" points="1234.92,-15.5472 1244.8,-11.741 1234.7,-8.55047 1234.92,-15.5472"/>
</g>
<!-- Node8&#45;&gt;Node4 -->
<g id="edge8" class="edge"><title>Node8&#45;&gt;Node4</title>
<path fill="none" stroke="midnightblue" d="M689.521,-112.324C680.799,-104.341 667.657,-92.3128 657.102,-82.6529"/>
<polygon fill="midnightblue" stroke="midnightblue" points="659.392,-80.0036 649.652,-75.8339 654.666,-85.1674 659.392,-80.0036"/>
</g>
<!-- Node9 -->
<g id="node9" class="node"><title>Node9</title>
<polygon fill="none" stroke="#bfbfbf" points="689.5,-56.5 689.5,-75.5 780.5,-75.5 780.5,-56.5 689.5,-56.5"/>
<text text-anchor="middle" x="735" y="-63.5" font-family="Helvetica,sans-Serif" font-size="10.00">networkhandler.h</text>
</g>
<!-- Node8&#45;&gt;Node9 -->
<g id="edge9" class="edge"><title>Node8&#45;&gt;Node9</title>
<path fill="none" stroke="midnightblue" d="M704.945,-112.083C709.977,-104.534 717.337,-93.4948 723.513,-84.2298"/>
<polygon fill="midnightblue" stroke="midnightblue" points="726.531,-86.0131 729.166,-75.7511 720.707,-82.1301 726.531,-86.0131"/>
</g>
<!-- Node11&#45;&gt;Node4 -->
<g id="edge14" class="edge"><title>Node11&#45;&gt;Node4</title>
<path fill="none" stroke="midnightblue" d="M1380.96,-168.847C1337.05,-158.74 1265.58,-141.67 1240,-132 1221.78,-125.112 1219.77,-117.224 1201,-112 980.981,-50.7558 912.256,-107.276 681.306,-75.769"/>
<polygon fill="midnightblue" stroke="midnightblue" points="681.643,-72.282 671.253,-74.3562 680.668,-79.2139 681.643,-72.282"/>
</g>
<!-- Node11&#45;&gt;Node7 -->
<g id="edge13" class="edge"><title>Node11&#45;&gt;Node7</title>
<path fill="none" stroke="midnightblue" d="M1409.26,-168.075C1386.1,-141.38 1317.12,-61.865 1287.16,-27.3218"/>
<polygon fill="midnightblue" stroke="midnightblue" points="1289.63,-24.8285 1280.43,-19.5681 1284.34,-29.4155 1289.63,-24.8285"/>
</g>
<!-- Node11&#45;&gt;Node8 -->
<g id="edge15" class="edge"><title>Node11&#45;&gt;Node8</title>
<path fill="none" stroke="midnightblue" d="M1380.91,-169.492C1377.57,-168.932 1374.23,-168.422 1371,-168 1247.94,-151.907 866.89,-131.561 740.333,-125.081"/>
<polygon fill="midnightblue" stroke="midnightblue" points="740.44,-121.582 730.274,-124.568 740.083,-128.573 740.44,-121.582"/>
</g>
<!-- Node11&#45;&gt;Node10 -->
<g id="edge17" class="edge"><title>Node11&#45;&gt;Node10</title>
<path fill="none" stroke="midnightblue" d="M1380.89,-169.666C1377.55,-169.07 1374.22,-168.504 1371,-168 1258.66,-150.402 1126.71,-136.263 1051.27,-128.795"/>
<polygon fill="midnightblue" stroke="midnightblue" points="1051.3,-125.282 1041.01,-127.786 1050.62,-132.248 1051.3,-125.282"/>
</g>
<!-- Node12 -->
<g id="node12" class="node"><title>Node12</title>
<polygon fill="none" stroke="#bfbfbf" points="1249,-112.5 1249,-131.5 1301,-131.5 1301,-112.5 1249,-112.5"/>
<text text-anchor="middle" x="1275" y="-119.5" font-family="Helvetica,sans-Serif" font-size="10.00">assert.h</text>
</g>
<!-- Node11&#45;&gt;Node12 -->
<g id="edge12" class="edge"><title>Node11&#45;&gt;Node12</title>
<path fill="none" stroke="midnightblue" d="M1394.5,-168.444C1370.92,-159.478 1333.68,-145.314 1307.04,-135.183"/>
<polygon fill="midnightblue" stroke="midnightblue" points="1307.99,-131.8 1297.4,-131.516 1305.5,-138.342 1307.99,-131.8"/>
</g>
<!-- Node11&#45;&gt;Node13 -->
<g id="edge16" class="edge"><title>Node11&#45;&gt;Node13</title>
<path fill="none" stroke="midnightblue" d="M1418.16,-168.083C1419.08,-160.927 1420.42,-150.635 1421.58,-141.691"/>
<polygon fill="midnightblue" stroke="midnightblue" points="1425.05,-142.118 1422.87,-131.751 1418.11,-141.218 1425.05,-142.118"/>
</g>
<!-- Node14&#45;&gt;Node4 -->
<g id="edge19" class="edge"><title>Node14&#45;&gt;Node4</title>
<path fill="none" stroke="midnightblue" d="M757.541,-168.345C756.384,-154.771 752.315,-128.341 738,-112 723.119,-95.0136 700.505,-84.0441 680.748,-77.1925"/>
<polygon fill="midnightblue" stroke="midnightblue" points="681.622,-73.7969 671.03,-74.0633 679.476,-80.46 681.622,-73.7969"/>
</g>
<!-- Node14&#45;&gt;Node8 -->
<g id="edge20" class="edge"><title>Node14&#45;&gt;Node8</title>
<path fill="none" stroke="midnightblue" d="M748.521,-168.324C739.799,-160.341 726.657,-148.313 716.102,-138.653"/>
<polygon fill="midnightblue" stroke="midnightblue" points="718.392,-136.004 708.652,-131.834 713.666,-141.167 718.392,-136.004"/>
</g>
<!-- Node15&#45;&gt;Node4 -->
<g id="edge22" class="edge"><title>Node15&#45;&gt;Node4</title>
<path fill="none" stroke="midnightblue" d="M267.808,-168.435C309.603,-155.65 391.162,-131.041 461,-112 508.191,-99.1337 562.748,-85.6114 599.107,-76.7901"/>
<polygon fill="midnightblue" stroke="midnightblue" points="599.962,-80.1844 608.859,-74.4312 598.316,-73.3806 599.962,-80.1844"/>
</g>
<!-- Node15&#45;&gt;Node8 -->
<g id="edge23" class="edge"><title>Node15&#45;&gt;Node8</title>
<path fill="none" stroke="midnightblue" d="M288.084,-169.379C291.438,-168.896 294.768,-168.432 298,-168 429.042,-150.488 584.799,-134.34 657.619,-127.062"/>
<polygon fill="midnightblue" stroke="midnightblue" points="658.144,-130.527 667.748,-126.054 657.45,-123.562 658.144,-130.527"/>
</g>
<!-- Node16&#45;&gt;Node4 -->
<g id="edge25" class="edge"><title>Node16&#45;&gt;Node4</title>
<path fill="none" stroke="midnightblue" d="M458.458,-168.368C492.623,-149.292 574.771,-103.422 615.813,-80.5054"/>
<polygon fill="midnightblue" stroke="midnightblue" points="617.589,-83.5226 624.614,-75.5914 614.176,-77.4108 617.589,-83.5226"/>
</g>
<!-- Node16&#45;&gt;Node8 -->
<g id="edge26" class="edge"><title>Node16&#45;&gt;Node8</title>
<path fill="none" stroke="midnightblue" d="M483.564,-168.444C531.244,-158.386 609.928,-141.789 657.857,-131.679"/>
<polygon fill="midnightblue" stroke="midnightblue" points="658.824,-135.052 667.886,-129.563 657.379,-128.202 658.824,-135.052"/>
</g>
<!-- Node17&#45;&gt;Node4 -->
<g id="edge30" class="edge"><title>Node17&#45;&gt;Node4</title>
<path fill="none" stroke="midnightblue" d="M1146.03,-282.086C1276.23,-265.174 1561.46,-215.336 1461,-112 1432.03,-82.2018 782.171,-81.662 681.251,-75.3039"/>
<polygon fill="midnightblue" stroke="midnightblue" points="681.509,-71.8132 671.242,-74.4314 680.901,-78.7868 681.509,-71.8132"/>
</g>
<!-- Node17&#45;&gt;Node8 -->
<g id="edge31" class="edge"><title>Node17&#45;&gt;Node8</title>
<path fill="none" stroke="midnightblue" d="M1117.34,-280.475C1178.68,-262.858 1301.7,-219.728 1254,-168 1236.59,-149.121 865.584,-130.574 740.075,-124.819"/>
<polygon fill="midnightblue" stroke="midnightblue" points="740.235,-121.323 730.086,-124.364 739.916,-128.316 740.235,-121.323"/>
</g>
<!-- Node17&#45;&gt;Node10 -->
<g id="edge28" class="edge"><title>Node17&#45;&gt;Node10</title>
<path fill="none" stroke="midnightblue" d="M1074.7,-280.201C1065.23,-271.695 1051.3,-258.061 1042,-244 1019.91,-210.592 1003.7,-166.249 995.671,-141.579"/>
<polygon fill="midnightblue" stroke="midnightblue" points="998.912,-140.22 992.564,-131.738 992.237,-142.328 998.912,-140.22"/>
</g>
<!-- Node17&#45;&gt;Node11 -->
<g id="edge29" class="edge"><title>Node17&#45;&gt;Node11</title>
<path fill="none" stroke="midnightblue" d="M1140.03,-280.492C1181.23,-273.228 1238.59,-261.203 1287,-244 1326,-230.14 1368.4,-207.353 1393.83,-192.771"/>
<polygon fill="midnightblue" stroke="midnightblue" points="1395.81,-195.668 1402.7,-187.619 1392.29,-189.614 1395.81,-195.668"/>
</g>
<!-- Node18 -->
<g id="node18" class="node"><title>Node18</title>
<g id="a_node18"><a xlink:href="../../d1/d6c/cipconnectionobject_8h.html" target="_top" xlink:title="cipconnectionobject.h">
<polygon fill="none" stroke="black" points="1050.5,-224.5 1050.5,-243.5 1161.5,-243.5 1161.5,-224.5 1050.5,-224.5"/>
<text text-anchor="middle" x="1106" y="-231.5" font-family="Helvetica,sans-Serif" font-size="10.00">cipconnectionobject.h</text>
</a>
</g>
</g>
<!-- Node17&#45;&gt;Node18 -->
<g id="edge32" class="edge"><title>Node17&#45;&gt;Node18</title>
<path fill="none" stroke="midnightblue" d="M1088.47,-280.083C1091.31,-272.77 1095.43,-262.181 1098.96,-253.103"/>
<polygon fill="midnightblue" stroke="midnightblue" points="1102.23,-254.34 1102.6,-243.751 1095.71,-251.803 1102.23,-254.34"/>
</g>
<!-- Node18&#45;&gt;Node4 -->
<g id="edge33" class="edge"><title>Node18&#45;&gt;Node4</title>
<path fill="none" stroke="midnightblue" d="M1104.85,-224.442C1101.31,-201.715 1088.29,-139.695 1049,-112 984.203,-66.3215 777.418,-87.2199 681.318,-75.6612"/>
<polygon fill="midnightblue" stroke="midnightblue" points="681.653,-72.1742 671.267,-74.2636 680.689,-79.1075 681.653,-72.1742"/>
</g>
<!-- Node18&#45;&gt;Node8 -->
<g id="edge34" class="edge"><title>Node18&#45;&gt;Node8</title>
<path fill="none" stroke="midnightblue" d="M1083.14,-224.447C1046.98,-211.127 974.189,-185.179 911,-168 852.301,-152.042 783.192,-138.292 740.231,-130.327"/>
<polygon fill="midnightblue" stroke="midnightblue" points="740.626,-126.841 730.158,-128.476 739.361,-133.726 740.626,-126.841"/>
</g>
<!-- Node18&#45;&gt;Node10 -->
<g id="edge35" class="edge"><title>Node18&#45;&gt;Node10</title>
<path fill="none" stroke="midnightblue" d="M1096.9,-224.368C1077.42,-205.894 1031.44,-162.293 1006.6,-138.744"/>
<polygon fill="midnightblue" stroke="midnightblue" points="1008.72,-135.933 999.06,-131.591 1003.91,-141.012 1008.72,-135.933"/>
</g>
<!-- Node18&#45;&gt;Node11 -->
<g id="edge36" class="edge"><title>Node18&#45;&gt;Node11</title>
<path fill="none" stroke="midnightblue" d="M1158.86,-224.423C1212.4,-215.643 1297.55,-201.419 1371,-188 1371.1,-187.982 1371.2,-187.963 1371.3,-187.945"/>
<polygon fill="midnightblue" stroke="midnightblue" points="1371.67,-191.437 1380.86,-186.16 1370.38,-184.556 1371.67,-191.437"/>
</g>
<!-- Node19 -->
<g id="node19" class="node"><title>Node19</title>
<g id="a_node19"><a xlink:href="../../d9/d31/doublylinkedlist_8h.html" target="_top" xlink:title="doublylinkedlist.h">
<polygon fill="none" stroke="black" points="1153,-168.5 1153,-187.5 1245,-187.5 1245,-168.5 1153,-168.5"/>
<text text-anchor="middle" x="1199" y="-175.5" font-family="Helvetica,sans-Serif" font-size="10.00">doublylinkedlist.h</text>
</a>
</g>
</g>
<!-- Node18&#45;&gt;Node19 -->
<g id="edge37" class="edge"><title>Node18&#45;&gt;Node19</title>
<path fill="none" stroke="midnightblue" d="M1120.94,-224.324C1135.59,-215.822 1158.13,-202.729 1175.24,-192.797"/>
<polygon fill="midnightblue" stroke="midnightblue" points="1177.2,-195.703 1184.1,-187.655 1173.69,-189.649 1177.2,-195.703"/>
</g>
<!-- Node20 -->
<g id="node20" class="node"><title>Node20</title>
<g id="a_node20"><a xlink:href="../../d0/d23/cipelectronickey_8h.html" target="_top" xlink:title="cipelectronickey.h">
<polygon fill="none" stroke="black" points="1097.5,-112.5 1097.5,-131.5 1192.5,-131.5 1192.5,-112.5 1097.5,-112.5"/>
<text text-anchor="middle" x="1145" y="-119.5" font-family="Helvetica,sans-Serif" font-size="10.00">cipelectronickey.h</text>
</a>
</g>
</g>
<!-- Node18&#45;&gt;Node20 -->
<g id="edge38" class="edge"><title>Node18&#45;&gt;Node20</title>
<path fill="none" stroke="midnightblue" d="M1109.06,-224.368C1115.38,-206.537 1130,-165.295 1138.52,-141.272"/>
<polygon fill="midnightblue" stroke="midnightblue" points="1141.91,-142.186 1141.95,-131.591 1135.31,-139.847 1141.91,-142.186"/>
</g>
<!-- Node18&#45;&gt;Node21 -->
<g id="edge41" class="edge"><title>Node18&#45;&gt;Node21</title>
<path fill="none" stroke="midnightblue" d="M1141.81,-224.444C1182.37,-214.752 1248.35,-198.988 1290.95,-188.808"/>
<polygon fill="midnightblue" stroke="midnightblue" points="1291.81,-192.201 1300.72,-186.473 1290.18,-185.393 1291.81,-192.201"/>
</g>
<!-- Node20&#45;&gt;Node4 -->
<g id="edge40" class="edge"><title>Node20&#45;&gt;Node4</title>
<path fill="none" stroke="midnightblue" d="M1097.31,-113.808C1092.48,-113.16 1087.65,-112.545 1083,-112 908.058,-91.485 860.019,-102.856 681.264,-75.822"/>
<polygon fill="midnightblue" stroke="midnightblue" points="681.677,-72.3446 671.263,-74.2903 680.617,-79.2639 681.677,-72.3446"/>
</g>
<!-- Node20&#45;&gt;Node7 -->
<g id="edge39" class="edge"><title>Node20&#45;&gt;Node7</title>
<path fill="none" stroke="midnightblue" d="M1155.04,-112.368C1176.73,-93.7334 1228.16,-49.5324 1255.39,-26.1338"/>
<polygon fill="midnightblue" stroke="midnightblue" points="1257.7,-28.7636 1263,-19.5914 1253.14,-23.4546 1257.7,-28.7636"/>
</g>
<!-- Node21&#45;&gt;Node7 -->
<g id="edge42" class="edge"><title>Node21&#45;&gt;Node7</title>
<path fill="none" stroke="midnightblue" d="M1329.08,-168.145C1324.93,-155.613 1317.05,-132.001 1310,-112 1299.74,-82.8869 1287.31,-49.2625 1279.78,-29.0895"/>
<polygon fill="midnightblue" stroke="midnightblue" points="1283.02,-27.7616 1276.24,-19.6207 1276.46,-30.2131 1283.02,-27.7616"/>
</g>
<!-- Node21&#45;&gt;Node8 -->
<g id="edge43" class="edge"><title>Node21&#45;&gt;Node8</title>
<path fill="none" stroke="midnightblue" d="M1300.61,-170.218C1296.06,-169.382 1291.42,-168.609 1287,-168 1082.93,-139.889 836.41,-128.168 740.233,-124.439"/>
<polygon fill="midnightblue" stroke="midnightblue" points="740.186,-120.934 730.061,-124.052 739.921,-127.929 740.186,-120.934"/>
</g>
<!-- Node21&#45;&gt;Node20 -->
<g id="edge44" class="edge"><title>Node21&#45;&gt;Node20</title>
<path fill="none" stroke="midnightblue" d="M1302.37,-168.444C1270.5,-159.241 1219.67,-144.562 1184.44,-134.388"/>
<polygon fill="midnightblue" stroke="midnightblue" points="1185.07,-130.928 1174.49,-131.516 1183.13,-137.653 1185.07,-130.928"/>
</g>
<!-- Node22&#45;&gt;Node4 -->
<g id="edge46" class="edge"><title>Node22&#45;&gt;Node4</title>
<path fill="none" stroke="midnightblue" d="M52.0524,-224.36C58.0035,-201.431 77.6063,-138.954 120,-112 160.043,-86.541 482.679,-72.6176 598.662,-68.3967"/>
<polygon fill="midnightblue" stroke="midnightblue" points="599.037,-71.8856 608.906,-68.0297 598.787,-64.8901 599.037,-71.8856"/>
</g>
<!-- Node23&#45;&gt;Node4 -->
<g id="edge48" class="edge"><title>Node23&#45;&gt;Node4</title>
<path fill="none" stroke="midnightblue" d="M180.593,-115.796C187.818,-114.437 195.7,-113.058 203,-112 347.719,-91.018 520.789,-76.2232 598.566,-70.1172"/>
<polygon fill="midnightblue" stroke="midnightblue" points="599.197,-73.5788 608.895,-69.3135 598.654,-66.5999 599.197,-73.5788"/>
</g>
<!-- Node24&#45;&gt;Node4 -->
<g id="edge51" class="edge"><title>Node24&#45;&gt;Node4</title>
<path fill="none" stroke="midnightblue" d="M552.454,-168.368C568.271,-150.055 605.412,-107.049 625.869,-83.3624"/>
<polygon fill="midnightblue" stroke="midnightblue" points="628.693,-85.4474 632.58,-75.5914 623.395,-80.872 628.693,-85.4474"/>
</g>
<!-- Node24&#45;&gt;Node8 -->
<g id="edge52" class="edge"><title>Node24&#45;&gt;Node8</title>
<path fill="none" stroke="midnightblue" d="M569.402,-168.444C595.197,-159.399 636.077,-145.064 665.018,-134.916"/>
<polygon fill="midnightblue" stroke="midnightblue" points="666.434,-138.128 674.712,-131.516 664.118,-131.523 666.434,-138.128"/>
</g>
<!-- Node25&#45;&gt;Node4 -->
<g id="edge54" class="edge"><title>Node25&#45;&gt;Node4</title>
<path fill="none" stroke="midnightblue" d="M652.901,-168.368C650.642,-150.617 645.43,-109.666 642.367,-85.5974"/>
<polygon fill="midnightblue" stroke="midnightblue" points="645.828,-85.0695 641.093,-75.5914 638.884,-85.9533 645.828,-85.0695"/>
</g>
<!-- Node25&#45;&gt;Node8 -->
<g id="edge55" class="edge"><title>Node25&#45;&gt;Node8</title>
<path fill="none" stroke="midnightblue" d="M661.431,-168.083C667.853,-160.377 677.306,-149.033 685.122,-139.653"/>
<polygon fill="midnightblue" stroke="midnightblue" points="687.994,-141.674 691.707,-131.751 682.617,-137.193 687.994,-141.674"/>
</g>
<!-- Node26&#45;&gt;Node4 -->
<g id="edge57" class="edge"><title>Node26&#45;&gt;Node4</title>
<path fill="none" stroke="midnightblue" d="M900.34,-336.417C900.617,-323.815 900.297,-299.672 895,-280 879.677,-223.09 865.04,-210.3 824,-168 796.976,-140.146 790.452,-131.676 757,-112 732.707,-97.7114 703.053,-86.3636 679.677,-78.6377"/>
<polygon fill="midnightblue" stroke="midnightblue" points="680.668,-75.2802 670.077,-75.5504 678.525,-81.944 680.668,-75.2802"/>
</g>
<!-- Node26&#45;&gt;Node8 -->
<g id="edge58" class="edge"><title>Node26&#45;&gt;Node8</title>
<path fill="none" stroke="midnightblue" d="M897.553,-336.167C889.169,-307.52 858.869,-216.254 801,-168 782.988,-152.98 759.175,-142.097 739.088,-134.8"/>
<polygon fill="midnightblue" stroke="midnightblue" points="740.163,-131.468 729.568,-131.503 737.872,-138.083 740.163,-131.468"/>
</g>
<!-- Node26&#45;&gt;Node17 -->
<g id="edge59" class="edge"><title>Node26&#45;&gt;Node17</title>
<path fill="none" stroke="midnightblue" d="M926.506,-337.263C957.83,-328.12 1010.22,-312.827 1046.14,-302.344"/>
<polygon fill="midnightblue" stroke="midnightblue" points="1047.18,-305.686 1055.8,-299.524 1045.22,-298.967 1047.18,-305.686"/>
</g>
<!-- Node27&#45;&gt;Node4 -->
<g id="edge61" class="edge"><title>Node27&#45;&gt;Node4</title>
<path fill="none" stroke="midnightblue" d="M174.244,-170.687C177.171,-169.764 180.161,-168.842 183,-168 273.965,-141.032 296.438,-132.836 389,-112 462.387,-95.4803 548.93,-81.0657 598.835,-73.2393"/>
<polygon fill="midnightblue" stroke="midnightblue" points="599.568,-76.6675 608.911,-71.6709 598.491,-69.7508 599.568,-76.6675"/>
</g>
<!-- Node27&#45;&gt;Node8 -->
<g id="edge62" class="edge"><title>Node27&#45;&gt;Node8</title>
<path fill="none" stroke="midnightblue" d="M174.13,-170.227C177.072,-169.368 180.097,-168.585 183,-168 357.07,-132.897 569.625,-125.173 657.716,-123.476"/>
<polygon fill="midnightblue" stroke="midnightblue" points="657.894,-126.974 667.831,-123.298 657.77,-119.975 657.894,-126.974"/>
</g>
<!-- Node27&#45;&gt;Node23 -->
<g id="edge63" class="edge"><title>Node27&#45;&gt;Node23</title>
<path fill="none" stroke="midnightblue" d="M155,-168.083C155,-161.006 155,-150.861 155,-141.986"/>
<polygon fill="midnightblue" stroke="midnightblue" points="158.5,-141.751 155,-131.751 151.5,-141.751 158.5,-141.751"/>
</g>
<!-- Node28&#45;&gt;Node10 -->
<g id="edge65" class="edge"><title>Node28&#45;&gt;Node10</title>
<path fill="none" stroke="midnightblue" d="M852.796,-280.075C876.114,-253.38 945.57,-173.865 975.743,-139.322"/>
<polygon fill="midnightblue" stroke="midnightblue" points="978.573,-141.402 982.516,-131.568 973.301,-136.797 978.573,-141.402"/>
</g>
<!-- Node29&#45;&gt;Node17 -->
<g id="edge67" class="edge"><title>Node29&#45;&gt;Node17</title>
<path fill="none" stroke="midnightblue" d="M1006.94,-336.324C1021.59,-327.822 1044.13,-314.729 1061.24,-304.797"/>
<polygon fill="midnightblue" stroke="midnightblue" points="1063.2,-307.703 1070.1,-299.655 1059.69,-301.649 1063.2,-307.703"/>
</g>
</g>
</svg>
