<?xml version="1.0" encoding="UTF-8" standalone="no"?>
<!DOCTYPE svg PUBLIC "-//W3C//DTD SVG 1.1//EN"
 "http://www.w3.org/Graphics/SVG/1.1/DTD/svg11.dtd">
<!-- Generated by graphviz version 2.38.0 (20140413.2041)
 -->
<!-- Title: assembleLinearMsg Pages: 1 -->
<svg width="352pt" height="75pt"
 viewBox="0.00 0.00 352.00 75.00" xmlns="http://www.w3.org/2000/svg" xmlns:xlink="http://www.w3.org/1999/xlink">
<g id="graph0" class="graph" transform="scale(1 1) rotate(0) translate(4 71)">
<title>assembleLinearMsg</title>
<!-- Node1 -->
<g id="node1" class="node"><title>Node1</title>
<polygon fill="#bfbfbf" stroke="black" points="0,-28.5 0,-47.5 104,-47.5 104,-28.5 0,-28.5"/>
<text text-anchor="middle" x="52" y="-35.5" font-family="Helvetica,sans-Serif" font-size="10.00">assembleLinearMsg</text>
</g>
<!-- Node2 -->
<g id="node2" class="node"><title>Node2</title>
<g id="a_node2"><a xlink:href="../../da/d73/endianconv_8c.html#af8d7300f72b364ff347e8ed1895f989e" target="_top" xlink:title="encapsulates the ip address and port into the package (Common Paket Format variant) ...">
<polygon fill="none" stroke="black" points="140,-28.5 140,-47.5 270,-47.5 270,-28.5 140,-28.5"/>
<text text-anchor="middle" x="205" y="-35.5" font-family="Helvetica,sans-Serif" font-size="10.00">encapsulateIPAdressCPF</text>
</a>
</g>
</g>
<!-- Node1&#45;&gt;Node2 -->
<g id="edge1" class="edge"><title>Node1&#45;&gt;Node2</title>
<path fill="none" stroke="midnightblue" d="M104.122,-38C112.362,-38 121.037,-38 129.69,-38"/>
<polygon fill="midnightblue" stroke="midnightblue" points="129.812,-41.5001 139.812,-38 129.812,-34.5001 129.812,-41.5001"/>
</g>
<!-- Node3 -->
<g id="node3" class="node"><title>Node3</title>
<g id="a_node3"><a xlink:href="../../d4/d91/group__ENCAP.html#gaa00e394da5cd80135cdab7d4f3d88819" target="_top" xlink:title="Converts UINT32 data from host to little endian and writes it to pa_buf. ">
<polygon fill="none" stroke="black" points="307.5,-47.5 307.5,-66.5 342.5,-66.5 342.5,-47.5 307.5,-47.5"/>
<text text-anchor="middle" x="325" y="-54.5" font-family="Helvetica,sans-Serif" font-size="10.00">htoll</text>
</a>
</g>
</g>
<!-- Node1&#45;&gt;Node3 -->
<g id="edge4" class="edge"><title>Node1&#45;&gt;Node3</title>
<path fill="none" stroke="midnightblue" d="M88.2726,-47.5084C103.98,-51.2731 122.785,-55.1421 140,-57 195.694,-63.0107 261.424,-60.7868 297.308,-58.7893"/>
<polygon fill="midnightblue" stroke="midnightblue" points="297.668,-62.2741 307.442,-58.186 297.252,-55.2865 297.668,-62.2741"/>
</g>
<!-- Node4 -->
<g id="node4" class="node"><title>Node4</title>
<g id="a_node4"><a xlink:href="../../d4/d91/group__ENCAP.html#ga738d386bb3919d75bb14dcb40ca5389f" target="_top" xlink:title="converts UINT16 data from host to little endian an writes it to pa_buf. ">
<polygon fill="none" stroke="black" points="306,-0.5 306,-19.5 344,-19.5 344,-0.5 306,-0.5"/>
<text text-anchor="middle" x="325" y="-7.5" font-family="Helvetica,sans-Serif" font-size="10.00">htols</text>
</a>
</g>
</g>
<!-- Node1&#45;&gt;Node4 -->
<g id="edge5" class="edge"><title>Node1&#45;&gt;Node4</title>
<path fill="none" stroke="midnightblue" d="M90.016,-28.4941C105.378,-24.9215 123.448,-21.1967 140,-19 194.735,-11.7358 259.326,-10.1762 295.588,-9.93068"/>
<polygon fill="midnightblue" stroke="midnightblue" points="295.903,-13.4296 305.889,-9.89182 295.876,-6.42966 295.903,-13.4296"/>
</g>
<!-- Node2&#45;&gt;Node3 -->
<g id="edge2" class="edge"><title>Node2&#45;&gt;Node3</title>
<path fill="none" stroke="midnightblue" d="M265.346,-47.5557C276.604,-49.3685 287.846,-51.1786 297.431,-52.722"/>
<polygon fill="midnightblue" stroke="midnightblue" points="297.032,-56.2027 307.462,-54.337 298.145,-49.2918 297.032,-56.2027"/>
</g>
<!-- Node2&#45;&gt;Node4 -->
<g id="edge3" class="edge"><title>Node2&#45;&gt;Node4</title>
<path fill="none" stroke="midnightblue" d="M246.279,-28.4423C262.611,-24.5668 281.079,-20.1847 295.913,-16.6647"/>
<polygon fill="midnightblue" stroke="midnightblue" points="297.068,-19.9878 305.99,-14.2735 295.452,-13.1769 297.068,-19.9878"/>
</g>
</g>
</svg>
