<?xml version="1.0" encoding="UTF-8" standalone="no"?>
<!DOCTYPE svg PUBLIC "-//W3C//DTD SVG 1.1//EN"
 "http://www.w3.org/Graphics/SVG/1.1/DTD/svg11.dtd">
<!-- Generated by graphviz version 2.36.0 (20140111.2315)
 -->
<!-- Title: AssembleLinearMessage Pages: 1 -->
<!--zoomable 892 -->
<svg id="main" version="1.1" xmlns="http://www.w3.org/2000/svg" xmlns:xlink="http://www.w3.org/1999/xlink" xml:space="preserve" onload="init(evt)">
<style type="text/css"><![CDATA[
.edge:hover path { stroke: red; }
.edge:hover polygon { stroke: red; fill: red; }
]]></style>
<script type="text/javascript"><![CDATA[
var edges = document.getElementsByTagName('g');
if (edges && edges.length) {
  for (var i=0;i<edges.length;i++) {
    if (edges[i].id.substr(0,4)=='edge') {
      edges[i].setAttribute('class','edge');
    }
  }
}
]]></script>
        <defs>
                <circle id="rim" cx="0" cy="0" r="7"/>
                <circle id="rim2" cx="0" cy="0" r="3.5"/>
                <g id="zoomPlus">
                        <use xlink:href="#rim" fill="#404040">
                                <set attributeName="fill" to="#808080" begin="zoomplus.mouseover" end="zoomplus.mouseout"/>
                        </use>
                        <path d="M-4,0h8M0,-4v8" fill="none" stroke="white" stroke-width="1.5" pointer-events="none"/>
                </g>
                <g id="zoomMin">
                        <use xlink:href="#rim" fill="#404040">
                                <set attributeName="fill" to="#808080" begin="zoomminus.mouseover" end="zoomminus.mouseout"/>
                        </use>
                        <path d="M-4,0h8" fill="none" stroke="white" stroke-width="1.5" pointer-events="none"/>
                </g>
                <g id="dirArrow">
                        <path fill="none" stroke="white" stroke-width="1.5" d="M0,-3.0v7 M-2.5,-0.5L0,-3.0L2.5,-0.5"/>
                </g>
               <g id="resetDef">
                       <use xlink:href="#rim2" fill="#404040">
                               <set attributeName="fill" to="#808080" begin="reset.mouseover" end="reset.mouseout"/>
                       </use>
               </g>
        </defs>

<script type="text/javascript">
var viewWidth = 702;
var viewHeight = 892;
var sectionId = 'dynsection-5';
</script>
<script xlink:href="../../svgpan.js"/>
<svg id="graph" class="graph">
<g id="viewport">
<title>AssembleLinearMessage</title>
<!-- Node1 -->
<g id="node1" class="node"><title>Node1</title>
<polygon fill="#bfbfbf" stroke="black" points="0,-468.5 0,-487.5 126,-487.5 126,-468.5 0,-468.5"/>
<text text-anchor="middle" x="63" y="-475.5" font-family="Helvetica,sans-Serif" font-size="10.00">AssembleLinearMessage</text>
</g>
<!-- Node2 -->
<g id="node2" class="node"><title>Node2</title>
<g id="a_node2"><a xlink:href="../../d4/d91/group__ENCAP.html#gaafc3c9e3ff582c9b7e438ae2b1fdf822" target="_top" xlink:title="Converts UINT32 data from host to little endian and writes it to buffer. ">
<polygon fill="none" stroke="black" points="412.5,-582.5 412.5,-601.5 515.5,-601.5 515.5,-582.5 412.5,-582.5"/>
<text text-anchor="middle" x="464" y="-589.5" font-family="Helvetica,sans-Serif" font-size="10.00">AddDintToMessage</text>
</a>
</g>
</g>
<!-- Node1&#45;&gt;Node2 -->
<g id="edge1" class="edge"><title>Node1&#45;&gt;Node2</title>
<path fill="none" stroke="midnightblue" d="M70.414,-487.803C84.2886,-508.039 119.309,-554.117 162,-573 239.453,-607.259 339.191,-605.812 402.135,-600.102"/>
<polygon fill="midnightblue" stroke="midnightblue" points="402.681,-603.565 412.295,-599.114 402.004,-596.598 402.681,-603.565"/>
</g>
<!-- Node3 -->
<g id="node3" class="node"><title>Node3</title>
<g id="a_node3"><a xlink:href="../../d4/d91/group__ENCAP.html#gae689aac2a85bf49fb356ec94c8800799" target="_top" xlink:title="converts UINT16 data from host to little endian an writes it to buffer. ">
<polygon fill="none" stroke="black" points="595,-582.5 595,-601.5 691,-601.5 691,-582.5 595,-582.5"/>
<text text-anchor="middle" x="643" y="-589.5" font-family="Helvetica,sans-Serif" font-size="10.00">AddIntToMessage</text>
</a>
</g>
</g>
<!-- Node1&#45;&gt;Node3 -->
<g id="edge2" class="edge"><title>Node1&#45;&gt;Node3</title>
<path fill="none" stroke="midnightblue" d="M63.922,-487.763C64.1849,-528.629 71.2039,-686.93 162,-754 232.443,-806.036 481.448,-808.956 556,-763 610.605,-729.341 631.758,-649.218 638.861,-611.839"/>
<polygon fill="midnightblue" stroke="midnightblue" points="642.358,-612.163 640.636,-601.709 635.463,-610.955 642.358,-612.163"/>
</g>
<!-- Node4 -->
<g id="node4" class="node"><title>Node4</title>
<g id="a_node4"><a xlink:href="../../da/d73/endianconv_8c.html#a2e8bf172dd5ecba3cc0871278ab06538" target="_top" xlink:title="Encapsulate the sockaddr information as necessary for the Common Packet Format data items...">
<polygon fill="none" stroke="black" points="191.5,-506.5 191.5,-525.5 306.5,-525.5 306.5,-506.5 191.5,-506.5"/>
<text text-anchor="middle" x="249" y="-513.5" font-family="Helvetica,sans-Serif" font-size="10.00">EncapsulateIpAddress</text>
</a>
</g>
</g>
<!-- Node1&#45;&gt;Node4 -->
<g id="edge3" class="edge"><title>Node1&#45;&gt;Node4</title>
<path fill="none" stroke="midnightblue" d="M110.431,-487.589C135.149,-492.694 165.739,-499.011 191.792,-504.392"/>
<polygon fill="midnightblue" stroke="midnightblue" points="191.402,-507.885 201.903,-506.48 192.817,-501.03 191.402,-507.885"/>
</g>
<!-- Node5 -->
<g id="node5" class="node"><title>Node5</title>
<g id="a_node5"><a xlink:href="../../d3/d98/cpf_8c.html#a490520a060d04d7c2d3edd6516d416f6" target="_top" xlink:title="EncodeConnectedAddressItem">
<polygon fill="none" stroke="black" points="173,-620.5 173,-639.5 325,-639.5 325,-620.5 173,-620.5"/>
<text text-anchor="middle" x="249" y="-627.5" font-family="Helvetica,sans-Serif" font-size="10.00">EncodeConnectedAddressItem</text>
</a>
</g>
</g>
<!-- Node1&#45;&gt;Node5 -->
<g id="edge6" class="edge"><title>Node1&#45;&gt;Node5</title>
<path fill="none" stroke="midnightblue" d="M68.6341,-487.738C80.5573,-511.723 114.71,-574.009 162,-606 168.663,-610.508 176.16,-614.174 183.877,-617.155"/>
<polygon fill="midnightblue" stroke="midnightblue" points="182.764,-620.473 193.359,-620.461 185.069,-613.864 182.764,-620.473"/>
</g>
<!-- Node6 -->
<g id="node6" class="node"><title>Node6</title>
<g id="a_node6"><a xlink:href="../../d3/d98/cpf_8c.html#a720168acd6c913a09bf6b63ea4232a01" target="_top" xlink:title="Encodes the Connected Data item length. ">
<polygon fill="none" stroke="black" points="380.5,-734.5 380.5,-753.5 547.5,-753.5 547.5,-734.5 380.5,-734.5"/>
<text text-anchor="middle" x="464" y="-741.5" font-family="Helvetica,sans-Serif" font-size="10.00">EncodeConnectedDataItemLength</text>
</a>
</g>
</g>
<!-- Node1&#45;&gt;Node6 -->
<g id="edge9" class="edge"><title>Node1&#45;&gt;Node6</title>
<path fill="none" stroke="midnightblue" d="M64.5775,-487.626C67.3643,-524.631 82.7844,-658.565 162,-717 233.138,-769.477 341.019,-764.574 406.463,-755.089"/>
<polygon fill="midnightblue" stroke="midnightblue" points="407.237,-758.511 416.59,-753.535 406.175,-751.592 407.237,-758.511"/>
</g>
<!-- Node7 -->
<g id="node7" class="node"><title>Node7</title>
<g id="a_node7"><a xlink:href="../../d3/d98/cpf_8c.html#ad17e50dc05942cd1a6cd20a2e132b32a" target="_top" xlink:title="EncodeDataItemData">
<polygon fill="none" stroke="black" points="408.5,-190.5 408.5,-209.5 519.5,-209.5 519.5,-190.5 408.5,-190.5"/>
<text text-anchor="middle" x="464" y="-197.5" font-family="Helvetica,sans-Serif" font-size="10.00">EncodeDataItemData</text>
</a>
</g>
</g>
<!-- Node1&#45;&gt;Node7 -->
<g id="edge11" class="edge"><title>Node1&#45;&gt;Node7</title>
<path fill="none" stroke="midnightblue" d="M65.3024,-468.413C70.4576,-434.374 92.6591,-318.363 162,-262 197.561,-233.094 320.936,-215.064 398.258,-206.33"/>
<polygon fill="midnightblue" stroke="midnightblue" points="398.828,-209.788 408.382,-205.209 398.058,-202.83 398.828,-209.788"/>
</g>
<!-- Node9 -->
<g id="node9" class="node"><title>Node9</title>
<g id="a_node9"><a xlink:href="../../d3/d98/cpf_8c.html#a5683f275eb25d9190deb80991c41ff01" target="_top" xlink:title="EncodeDataItemLength">
<polygon fill="none" stroke="black" points="404.5,-696.5 404.5,-715.5 523.5,-715.5 523.5,-696.5 404.5,-696.5"/>
<text text-anchor="middle" x="464" y="-703.5" font-family="Helvetica,sans-Serif" font-size="10.00">EncodeDataItemLength</text>
</a>
</g>
</g>
<!-- Node1&#45;&gt;Node9 -->
<g id="edge13" class="edge"><title>Node1&#45;&gt;Node9</title>
<path fill="none" stroke="midnightblue" d="M65.3042,-487.869C70.362,-521.767 92.0148,-633.991 162,-682 234.732,-731.894 341.876,-726.571 406.784,-717.06"/>
<polygon fill="midnightblue" stroke="midnightblue" points="407.48,-720.494 416.827,-715.506 406.409,-713.577 407.48,-720.494"/>
</g>
<!-- Node10 -->
<g id="node10" class="node"><title>Node10</title>
<g id="a_node10"><a xlink:href="../../d3/d98/cpf_8c.html#a074bebb59f6048e012947fbae235070c" target="_top" xlink:title="EncodeDataItemType">
<polygon fill="none" stroke="black" points="408,-658.5 408,-677.5 520,-677.5 520,-658.5 408,-658.5"/>
<text text-anchor="middle" x="464" y="-665.5" font-family="Helvetica,sans-Serif" font-size="10.00">EncodeDataItemType</text>
</a>
</g>
</g>
<!-- Node1&#45;&gt;Node10 -->
<g id="edge15" class="edge"><title>Node1&#45;&gt;Node10</title>
<path fill="none" stroke="midnightblue" d="M66.1286,-487.593C73.3701,-517.683 100.123,-610.489 162,-649 237.005,-695.682 343.891,-689.083 408.053,-679.158"/>
<polygon fill="midnightblue" stroke="midnightblue" points="408.664,-682.605 417.972,-677.544 407.54,-675.695 408.664,-682.605"/>
</g>
<!-- Node11 -->
<g id="node11" class="node"><title>Node11</title>
<g id="a_node11"><a xlink:href="../../d3/d98/cpf_8c.html#a8161864641948a4eb95c269365fcce84" target="_top" xlink:title="Encodes the extended status (length and data) into the message. ">
<polygon fill="none" stroke="black" points="189.5,-310.5 189.5,-329.5 308.5,-329.5 308.5,-310.5 189.5,-310.5"/>
<text text-anchor="middle" x="249" y="-317.5" font-family="Helvetica,sans-Serif" font-size="10.00">EncodeExtendedStatus</text>
</a>
</g>
</g>
<!-- Node1&#45;&gt;Node11 -->
<g id="edge17" class="edge"><title>Node1&#45;&gt;Node11</title>
<path fill="none" stroke="midnightblue" d="M68.3779,-468.274C79.9466,-443.694 113.785,-378.651 162,-345 169.133,-340.022 177.256,-336.025 185.595,-332.819"/>
<polygon fill="midnightblue" stroke="midnightblue" points="186.766,-336.117 195.061,-329.525 184.466,-329.506 186.766,-336.117"/>
</g>
<!-- Node14 -->
<g id="node14" class="node"><title>Node14</title>
<g id="a_node14"><a xlink:href="../../d3/d98/cpf_8c.html#a3ea2cccf028187c1b24319230d723a57" target="_top" xlink:title="Encodes the general status of a Router Response. ">
<polygon fill="none" stroke="black" points="408,-152.5 408,-171.5 520,-171.5 520,-152.5 408,-152.5"/>
<text text-anchor="middle" x="464" y="-159.5" font-family="Helvetica,sans-Serif" font-size="10.00">EncodeGeneralStatus</text>
</a>
</g>
</g>
<!-- Node1&#45;&gt;Node14 -->
<g id="edge22" class="edge"><title>Node1&#45;&gt;Node14</title>
<path fill="none" stroke="midnightblue" d="M64.2953,-468.331C66.0507,-429.196 78.199,-281.334 162,-212 197.008,-183.035 320.261,-170.437 397.77,-165.278"/>
<polygon fill="midnightblue" stroke="midnightblue" points="398.166,-168.759 407.922,-164.627 397.718,-161.774 398.166,-168.759"/>
</g>
<!-- Node15 -->
<g id="node15" class="node"><title>Node15</title>
<g id="a_node15"><a xlink:href="../../d3/d98/cpf_8c.html#a8269ea8acc0f12ca938ae5fa36277517" target="_top" xlink:title="Adds the item count to the message frame. ">
<polygon fill="none" stroke="black" points="201.5,-468.5 201.5,-487.5 296.5,-487.5 296.5,-468.5 201.5,-468.5"/>
<text text-anchor="middle" x="249" y="-475.5" font-family="Helvetica,sans-Serif" font-size="10.00">EncodeItemCount</text>
</a>
</g>
</g>
<!-- Node1&#45;&gt;Node15 -->
<g id="edge24" class="edge"><title>Node1&#45;&gt;Node15</title>
<path fill="none" stroke="midnightblue" d="M126.037,-478C147.101,-478 170.516,-478 191.154,-478"/>
<polygon fill="midnightblue" stroke="midnightblue" points="191.352,-481.5 201.352,-478 191.352,-474.5 191.352,-481.5"/>
</g>
<!-- Node16 -->
<g id="node16" class="node"><title>Node16</title>
<g id="a_node16"><a xlink:href="../../d3/d98/cpf_8c.html#a2caf02dcd3085a64e4204973d827020a" target="_top" xlink:title="Encodes the Message Router Response data. ">
<polygon fill="none" stroke="black" points="372,-114.5 372,-133.5 556,-133.5 556,-114.5 372,-114.5"/>
<text text-anchor="middle" x="464" y="-121.5" font-family="Helvetica,sans-Serif" font-size="10.00">EncodeMessageRouterResponseData</text>
</a>
</g>
</g>
<!-- Node1&#45;&gt;Node16 -->
<g id="edge26" class="edge"><title>Node1&#45;&gt;Node16</title>
<path fill="none" stroke="midnightblue" d="M63.6789,-468.483C62.798,-425.622 65.3168,-249.051 162,-167 222.965,-115.262 317.165,-109.696 383.927,-113.776"/>
<polygon fill="midnightblue" stroke="midnightblue" points="383.765,-117.273 393.984,-114.475 384.251,-110.29 383.765,-117.273"/>
</g>
<!-- Node17 -->
<g id="node17" class="node"><title>Node17</title>
<g id="a_node17"><a xlink:href="../../d3/d98/cpf_8c.html#ab18848cbb4030e0c07fd90f401e70649" target="_top" xlink:title="Encodes a Null Address Item into the message frame. ">
<polygon fill="none" stroke="black" points="188,-430.5 188,-449.5 310,-449.5 310,-430.5 188,-430.5"/>
<text text-anchor="middle" x="249" y="-437.5" font-family="Helvetica,sans-Serif" font-size="10.00">EncodeNullAddressItem</text>
</a>
</g>
</g>
<!-- Node1&#45;&gt;Node17 -->
<g id="edge28" class="edge"><title>Node1&#45;&gt;Node17</title>
<path fill="none" stroke="midnightblue" d="M110.431,-468.411C135.149,-463.306 165.739,-456.989 191.792,-451.608"/>
<polygon fill="midnightblue" stroke="midnightblue" points="192.817,-454.97 201.903,-449.52 191.402,-448.115 192.817,-454.97"/>
</g>
<!-- Node18 -->
<g id="node18" class="node"><title>Node18</title>
<g id="a_node18"><a xlink:href="../../d3/d98/cpf_8c.html#ab2ea3d23fe6ed4fab7ae90689d250298" target="_top" xlink:title="Encodes the reply service code for the requested service. ">
<polygon fill="none" stroke="black" points="410,-76.5 410,-95.5 518,-95.5 518,-76.5 410,-76.5"/>
<text text-anchor="middle" x="464" y="-83.5" font-family="Helvetica,sans-Serif" font-size="10.00">EncodeReplyService</text>
</a>
</g>
</g>
<!-- Node1&#45;&gt;Node18 -->
<g id="edge30" class="edge"><title>Node1&#45;&gt;Node18</title>
<path fill="none" stroke="midnightblue" d="M65.0931,-468.171C71.273,-414.505 103.648,-157.528 162,-109 196.852,-80.0156 322.038,-79.7 399.565,-82.5434"/>
<polygon fill="midnightblue" stroke="midnightblue" points="399.577,-86.0464 409.707,-82.9431 399.852,-79.0519 399.577,-86.0464"/>
</g>
<!-- Node19 -->
<g id="node19" class="node"><title>Node19</title>
<g id="a_node19"><a xlink:href="../../d3/d98/cpf_8c.html#a31da36569cb05146463d085c721a8963" target="_top" xlink:title="Encodes the reserved byte in the message router response. ">
<polygon fill="none" stroke="black" points="162.5,-271.5 162.5,-290.5 335.5,-290.5 335.5,-271.5 162.5,-271.5"/>
<text text-anchor="middle" x="249" y="-278.5" font-family="Helvetica,sans-Serif" font-size="10.00">EncodeReservedFieldOfLengthByte</text>
</a>
</g>
</g>
<!-- Node1&#45;&gt;Node19 -->
<g id="edge32" class="edge"><title>Node1&#45;&gt;Node19</title>
<path fill="none" stroke="midnightblue" d="M66.4236,-468.088C74.3657,-437.811 102.577,-345.876 162,-301 165.054,-298.693 168.331,-296.646 171.757,-294.831"/>
<polygon fill="midnightblue" stroke="midnightblue" points="173.491,-297.887 181.128,-290.543 170.578,-291.521 173.491,-297.887"/>
</g>
<!-- Node20 -->
<g id="node20" class="node"><title>Node20</title>
<g id="a_node20"><a xlink:href="../../d3/d98/cpf_8c.html#a3cf93fa3858cbf3b827018a2cc87e23d" target="_top" xlink:title="Encodes a sequenced address item into the message. ">
<polygon fill="none" stroke="black" points="172,-544.5 172,-563.5 326,-563.5 326,-544.5 172,-544.5"/>
<text text-anchor="middle" x="249" y="-551.5" font-family="Helvetica,sans-Serif" font-size="10.00">EncodeSequencedAddressItem</text>
</a>
</g>
</g>
<!-- Node1&#45;&gt;Node20 -->
<g id="edge34" class="edge"><title>Node1&#45;&gt;Node20</title>
<path fill="none" stroke="midnightblue" d="M77.2753,-487.53C95.5108,-500.187 129.73,-522.405 162,-535 168.659,-537.599 175.754,-539.883 182.904,-541.879"/>
<polygon fill="midnightblue" stroke="midnightblue" points="182.091,-545.284 192.651,-544.426 183.861,-538.511 182.091,-545.284"/>
</g>
<!-- Node21 -->
<g id="node21" class="node"><title>Node21</title>
<g id="a_node21"><a xlink:href="../../d3/d98/cpf_8c.html#a084e7e477ce351e21099c7da809faf69" target="_top" xlink:title="Encodes a sequence number into the message. ">
<polygon fill="none" stroke="black" points="185,-392.5 185,-411.5 313,-411.5 313,-392.5 185,-392.5"/>
<text text-anchor="middle" x="249" y="-399.5" font-family="Helvetica,sans-Serif" font-size="10.00">EncodeSequenceNumber</text>
</a>
</g>
</g>
<!-- Node1&#45;&gt;Node21 -->
<g id="edge37" class="edge"><title>Node1&#45;&gt;Node21</title>
<path fill="none" stroke="midnightblue" d="M77.2753,-468.47C95.5108,-455.813 129.73,-433.595 162,-421 168.659,-418.401 175.754,-416.117 182.904,-414.121"/>
<polygon fill="midnightblue" stroke="midnightblue" points="183.861,-417.489 192.651,-411.574 182.091,-410.716 183.861,-417.489"/>
</g>
<!-- Node22 -->
<g id="node22" class="node"><title>Node22</title>
<g id="a_node22"><a xlink:href="../../d3/d98/cpf_8c.html#adfed715f4ce7b8d41243260aa7dbde00" target="_top" xlink:title="Encodes the sockaddr info type id into the message. ">
<polygon fill="none" stroke="black" points="170.5,-354.5 170.5,-373.5 327.5,-373.5 327.5,-354.5 170.5,-354.5"/>
<text text-anchor="middle" x="249" y="-361.5" font-family="Helvetica,sans-Serif" font-size="10.00">EncodeSockaddrInfoItemTypeId</text>
</a>
</g>
</g>
<!-- Node1&#45;&gt;Node22 -->
<g id="edge39" class="edge"><title>Node1&#45;&gt;Node22</title>
<path fill="none" stroke="midnightblue" d="M70.8865,-468.417C85.3828,-449.003 121.101,-405.007 162,-383 166.317,-380.677 170.902,-378.638 175.62,-376.848"/>
<polygon fill="midnightblue" stroke="midnightblue" points="177.102,-380.041 185.447,-373.513 174.852,-373.412 177.102,-380.041"/>
</g>
<!-- Node23 -->
<g id="node23" class="node"><title>Node23</title>
<g id="a_node23"><a xlink:href="../../d3/d98/cpf_8c.html#a72864be68f6e7b7289397bf78328d026" target="_top" xlink:title="Encodes the sockaddr info length into the message. ">
<polygon fill="none" stroke="black" points="180.5,-860.5 180.5,-879.5 317.5,-879.5 317.5,-860.5 180.5,-860.5"/>
<text text-anchor="middle" x="249" y="-867.5" font-family="Helvetica,sans-Serif" font-size="10.00">EncodeSockaddrInfoLength</text>
</a>
</g>
</g>
<!-- Node1&#45;&gt;Node23 -->
<g id="edge41" class="edge"><title>Node1&#45;&gt;Node23</title>
<path fill="none" stroke="midnightblue" d="M65.2099,-487.763C72.011,-541.092 107.146,-796.719 162,-850 164.886,-852.804 168.085,-855.243 171.502,-857.362"/>
<polygon fill="midnightblue" stroke="midnightblue" points="169.904,-860.476 180.389,-861.999 173.142,-854.27 169.904,-860.476"/>
</g>
<!-- Node24 -->
<g id="node24" class="node"><title>Node24</title>
<g id="a_node24"><a xlink:href="../../d3/d98/cpf_8c.html#a16da8f0222f5610c9f2bf1e1ce90a09b" target="_top" xlink:title="Encode the data item length of the unconnected data segment. ">
<polygon fill="none" stroke="black" points="175,-811 175,-841 323,-841 323,-811 175,-811"/>
<text text-anchor="start" x="183" y="-829" font-family="Helvetica,sans-Serif" font-size="10.00">EncodeUnconnectedDataItem</text>
<text text-anchor="middle" x="249" y="-818" font-family="Helvetica,sans-Serif" font-size="10.00">Length</text>
</a>
</g>
</g>
<!-- Node1&#45;&gt;Node24 -->
<g id="edge43" class="edge"><title>Node1&#45;&gt;Node24</title>
<path fill="none" stroke="midnightblue" d="M64.0047,-487.58C64.551,-530.014 72.3909,-703.041 162,-796 165.611,-799.746 169.715,-803.025 174.125,-805.895"/>
<polygon fill="midnightblue" stroke="midnightblue" points="172.515,-809.006 182.935,-810.924 175.986,-802.927 172.515,-809.006"/>
</g>
<!-- Node25 -->
<g id="node25" class="node"><title>Node25</title>
<g id="a_node25"><a xlink:href="../../da/d73/endianconv_8c.html#af9669c6d673d3d653b5f0569fee71822" target="_top" xlink:title="FillNextNMessageOctetsWith\lValueAndMoveToNextPosition">
<polygon fill="none" stroke="black" points="174,-33 174,-63 324,-63 324,-33 174,-33"/>
<text text-anchor="start" x="182" y="-51" font-family="Helvetica,sans-Serif" font-size="10.00">FillNextNMessageOctetsWith</text>
<text text-anchor="middle" x="249" y="-40" font-family="Helvetica,sans-Serif" font-size="10.00">ValueAndMoveToNextPosition</text>
</a>
</g>
</g>
<!-- Node1&#45;&gt;Node25 -->
<g id="edge45" class="edge"><title>Node1&#45;&gt;Node25</title>
<path fill="none" stroke="midnightblue" d="M65.1423,-468.408C71.8349,-413.671 107.548,-141.09 162,-80 166.074,-75.4289 170.864,-71.5091 176.062,-68.148"/>
<polygon fill="midnightblue" stroke="midnightblue" points="178.168,-70.9779 185.142,-63.0026 174.716,-64.8877 178.168,-70.9779"/>
</g>
<!-- Node4&#45;&gt;Node2 -->
<g id="edge4" class="edge"><title>Node4&#45;&gt;Node2</title>
<path fill="none" stroke="midnightblue" d="M301.399,-525.555C312.906,-528.19 324.968,-531.348 336,-535 371.602,-546.785 410.707,-565.226 435.986,-577.924"/>
<polygon fill="midnightblue" stroke="midnightblue" points="434.461,-581.075 444.962,-582.483 437.631,-574.834 434.461,-581.075"/>
</g>
<!-- Node4&#45;&gt;Node3 -->
<g id="edge5" class="edge"><title>Node4&#45;&gt;Node3</title>
<path fill="none" stroke="midnightblue" d="M306.518,-518.082C368.667,-521.503 470.995,-530.492 556,-554 576.648,-559.71 598.728,-569.553 615.345,-577.79"/>
<polygon fill="midnightblue" stroke="midnightblue" points="613.944,-581.004 624.445,-582.411 617.113,-574.763 613.944,-581.004"/>
</g>
<!-- Node5&#45;&gt;Node2 -->
<g id="edge7" class="edge"><title>Node5&#45;&gt;Node2</title>
<path fill="none" stroke="midnightblue" d="M303.474,-620.46C333.608,-615.084 371.347,-608.351 402.553,-602.784"/>
<polygon fill="midnightblue" stroke="midnightblue" points="403.207,-606.223 412.437,-601.021 401.978,-599.331 403.207,-606.223"/>
</g>
<!-- Node5&#45;&gt;Node3 -->
<g id="edge8" class="edge"><title>Node5&#45;&gt;Node3</title>
<path fill="none" stroke="midnightblue" d="M325.152,-628.586C387.297,-626.639 477.728,-622.008 556,-611 568.784,-609.202 582.49,-606.523 595.119,-603.741"/>
<polygon fill="midnightblue" stroke="midnightblue" points="596.002,-607.129 604.978,-601.501 594.451,-600.303 596.002,-607.129"/>
</g>
<!-- Node6&#45;&gt;Node3 -->
<g id="edge10" class="edge"><title>Node6&#45;&gt;Node3</title>
<path fill="none" stroke="midnightblue" d="M537.738,-734.406C544.206,-731.923 550.411,-728.835 556,-725 597.599,-696.46 623.744,-640.516 635.219,-611.106"/>
<polygon fill="midnightblue" stroke="midnightblue" points="638.56,-612.164 638.785,-601.572 632.004,-609.712 638.56,-612.164"/>
</g>
<!-- Node8 -->
<g id="node8" class="node"><title>Node8</title>
<g id="a_node8"><a xlink:href="../../d4/d91/group__ENCAP.html#gae267a8684cc6ee1b3bd83df03260b7aa" target="_top" xlink:title="converts UINT8 data from host to little endian an writes it to buffer. ">
<polygon fill="none" stroke="black" points="592,-171.5 592,-190.5 694,-190.5 694,-171.5 592,-171.5"/>
<text text-anchor="middle" x="643" y="-178.5" font-family="Helvetica,sans-Serif" font-size="10.00">AddSintToMessage</text>
</a>
</g>
</g>
<!-- Node7&#45;&gt;Node8 -->
<g id="edge12" class="edge"><title>Node7&#45;&gt;Node8</title>
<path fill="none" stroke="midnightblue" d="M519.55,-194.144C539.275,-192.027 561.653,-189.625 581.833,-187.459"/>
<polygon fill="midnightblue" stroke="midnightblue" points="582.28,-190.931 591.849,-186.383 581.533,-183.971 582.28,-190.931"/>
</g>
<!-- Node9&#45;&gt;Node3 -->
<g id="edge14" class="edge"><title>Node9&#45;&gt;Node3</title>
<path fill="none" stroke="midnightblue" d="M523.787,-699.382C534.953,-696.584 546.198,-692.618 556,-687 588.954,-668.112 616.205,-632.162 630.701,-610.31"/>
<polygon fill="midnightblue" stroke="midnightblue" points="633.814,-611.941 636.276,-601.636 627.925,-608.156 633.814,-611.941"/>
</g>
<!-- Node10&#45;&gt;Node3 -->
<g id="edge16" class="edge"><title>Node10&#45;&gt;Node3</title>
<path fill="none" stroke="midnightblue" d="M511.681,-658.412C526.174,-654.718 542.009,-649.929 556,-644 579.178,-634.177 603.547,-618.909 620.403,-607.454"/>
<polygon fill="midnightblue" stroke="midnightblue" points="622.711,-610.113 628.938,-601.541 618.725,-604.358 622.711,-610.113"/>
</g>
<!-- Node12 -->
<g id="node12" class="node"><title>Node12</title>
<g id="a_node12"><a xlink:href="../../d3/d98/cpf_8c.html#ae5dd5d670ff4b01d0aedd4e0a0c0314d" target="_top" xlink:title="Encodes the extended status data items. ">
<polygon fill="none" stroke="black" points="394,-305 394,-335 534,-335 534,-305 394,-305"/>
<text text-anchor="start" x="402" y="-323" font-family="Helvetica,sans-Serif" font-size="10.00">EncodeExtendedStatusData</text>
<text text-anchor="middle" x="464" y="-312" font-family="Helvetica,sans-Serif" font-size="10.00">Items</text>
</a>
</g>
</g>
<!-- Node11&#45;&gt;Node12 -->
<g id="edge18" class="edge"><title>Node11&#45;&gt;Node12</title>
<path fill="none" stroke="midnightblue" d="M308.767,-320C331.928,-320 358.886,-320 383.725,-320"/>
<polygon fill="midnightblue" stroke="midnightblue" points="383.857,-323.5 393.856,-320 383.856,-316.5 383.857,-323.5"/>
</g>
<!-- Node13 -->
<g id="node13" class="node"><title>Node13</title>
<g id="a_node13"><a xlink:href="../../d3/d98/cpf_8c.html#aff1bd1c766cfc5414aff3360d01eea46" target="_top" xlink:title="Encodes the length of the extended status data part. ">
<polygon fill="none" stroke="black" points="389.5,-266.5 389.5,-285.5 538.5,-285.5 538.5,-266.5 389.5,-266.5"/>
<text text-anchor="middle" x="464" y="-273.5" font-family="Helvetica,sans-Serif" font-size="10.00">EncodeExtendedStatusLength</text>
</a>
</g>
</g>
<!-- Node11&#45;&gt;Node13 -->
<g id="edge20" class="edge"><title>Node11&#45;&gt;Node13</title>
<path fill="none" stroke="midnightblue" d="M296.218,-310.453C328.735,-303.735 372.432,-294.709 406.941,-287.58"/>
<polygon fill="midnightblue" stroke="midnightblue" points="407.787,-290.979 416.872,-285.529 406.371,-284.124 407.787,-290.979"/>
</g>
<!-- Node12&#45;&gt;Node3 -->
<g id="edge19" class="edge"><title>Node12&#45;&gt;Node3</title>
<path fill="none" stroke="midnightblue" d="M534.019,-335.051C542.099,-338.941 549.694,-343.838 556,-350 620.087,-412.629 636.553,-526.066 640.671,-571.942"/>
<polygon fill="midnightblue" stroke="midnightblue" points="637.195,-572.385 641.473,-582.077 644.173,-571.832 637.195,-572.385"/>
</g>
<!-- Node13&#45;&gt;Node8 -->
<g id="edge21" class="edge"><title>Node13&#45;&gt;Node8</title>
<path fill="none" stroke="midnightblue" d="M516.975,-266.413C530.126,-262.889 543.934,-258.19 556,-252 583.24,-238.026 609.64,-214.226 625.845,-198.071"/>
<polygon fill="midnightblue" stroke="midnightblue" points="628.441,-200.423 632.94,-190.831 623.441,-195.523 628.441,-200.423"/>
</g>
<!-- Node14&#45;&gt;Node8 -->
<g id="edge23" class="edge"><title>Node14&#45;&gt;Node8</title>
<path fill="none" stroke="midnightblue" d="M520.034,-167.908C539.564,-170.004 561.645,-172.374 581.599,-174.516"/>
<polygon fill="midnightblue" stroke="midnightblue" points="581.499,-178.026 591.815,-175.613 582.246,-171.066 581.499,-178.026"/>
</g>
<!-- Node15&#45;&gt;Node3 -->
<g id="edge25" class="edge"><title>Node15&#45;&gt;Node3</title>
<path fill="none" stroke="midnightblue" d="M296.746,-476.546C358.704,-476.338 470.19,-482.018 556,-520 584.615,-532.666 611.194,-557.803 627.016,-574.762"/>
<polygon fill="midnightblue" stroke="midnightblue" points="624.574,-577.279 633.882,-582.34 629.762,-572.579 624.574,-577.279"/>
</g>
<!-- Node16&#45;&gt;Node8 -->
<g id="edge27" class="edge"><title>Node16&#45;&gt;Node8</title>
<path fill="none" stroke="midnightblue" d="M519.862,-133.509C531.894,-136.132 544.476,-139.296 556,-143 576.006,-149.429 597.638,-159.002 614.203,-166.93"/>
<polygon fill="midnightblue" stroke="midnightblue" points="612.796,-170.138 623.319,-171.372 615.863,-163.846 612.796,-170.138"/>
</g>
<!-- Node17&#45;&gt;Node3 -->
<g id="edge29" class="edge"><title>Node17&#45;&gt;Node3</title>
<path fill="none" stroke="midnightblue" d="M310.148,-433.608C375.22,-429.61 479.856,-431.899 556,-476 594.878,-498.517 621.468,-546.355 633.923,-573.028"/>
<polygon fill="midnightblue" stroke="midnightblue" points="630.848,-574.727 638.131,-582.423 637.237,-571.865 630.848,-574.727"/>
</g>
<!-- Node18&#45;&gt;Node8 -->
<g id="edge31" class="edge"><title>Node18&#45;&gt;Node8</title>
<path fill="none" stroke="midnightblue" d="M518.052,-92.2825C530.913,-95.0865 544.314,-99.1403 556,-105 584.777,-119.429 611.484,-145.916 627.273,-163.494"/>
<polygon fill="midnightblue" stroke="midnightblue" points="624.892,-166.089 634.108,-171.316 630.163,-161.483 624.892,-166.089"/>
</g>
<!-- Node19&#45;&gt;Node8 -->
<g id="edge33" class="edge"><title>Node19&#45;&gt;Node8</title>
<path fill="none" stroke="midnightblue" d="M298.412,-271.475C381.544,-255.08 543.748,-222.897 556,-219 576.025,-212.63 597.657,-203.057 614.217,-195.114"/>
<polygon fill="midnightblue" stroke="midnightblue" points="615.881,-198.196 623.33,-190.661 612.809,-191.906 615.881,-198.196"/>
</g>
<!-- Node20&#45;&gt;Node2 -->
<g id="edge35" class="edge"><title>Node20&#45;&gt;Node2</title>
<path fill="none" stroke="midnightblue" d="M303.474,-563.54C333.608,-568.916 371.347,-575.649 402.553,-581.216"/>
<polygon fill="midnightblue" stroke="midnightblue" points="401.978,-584.669 412.437,-582.979 403.207,-577.777 401.978,-584.669"/>
</g>
<!-- Node20&#45;&gt;Node3 -->
<g id="edge36" class="edge"><title>Node20&#45;&gt;Node3</title>
<path fill="none" stroke="midnightblue" d="M326.096,-555.444C388.211,-557.408 478.123,-562.047 556,-573 568.784,-574.798 582.49,-577.477 595.119,-580.259"/>
<polygon fill="midnightblue" stroke="midnightblue" points="594.451,-583.697 604.978,-582.499 596.002,-576.871 594.451,-583.697"/>
</g>
<!-- Node21&#45;&gt;Node3 -->
<g id="edge38" class="edge"><title>Node21&#45;&gt;Node3</title>
<path fill="none" stroke="midnightblue" d="M301.975,-392.489C367.083,-383.519 479.386,-378.072 556,-429 606.733,-462.723 629.572,-536.445 637.946,-572.016"/>
<polygon fill="midnightblue" stroke="midnightblue" points="634.604,-573.113 640.174,-582.125 641.44,-571.606 634.604,-573.113"/>
</g>
<!-- Node22&#45;&gt;Node3 -->
<g id="edge40" class="edge"><title>Node22&#45;&gt;Node3</title>
<path fill="none" stroke="midnightblue" d="M327.844,-359.704C406.314,-356.953 520.725,-357.751 556,-383 619.421,-428.394 636.203,-529.3 640.537,-572.144"/>
<polygon fill="midnightblue" stroke="midnightblue" points="637.074,-572.723 641.441,-582.376 644.047,-572.107 637.074,-572.723"/>
</g>
<!-- Node23&#45;&gt;Node3 -->
<g id="edge42" class="edge"><title>Node23&#45;&gt;Node3</title>
<path fill="none" stroke="midnightblue" d="M306.337,-879.505C373.312,-887.471 484.932,-889.789 556,-833 626.375,-776.764 639.22,-658.406 641.52,-611.625"/>
<polygon fill="midnightblue" stroke="midnightblue" points="645.019,-611.713 641.9,-601.588 638.024,-611.449 645.019,-611.713"/>
</g>
<!-- Node24&#45;&gt;Node3 -->
<g id="edge44" class="edge"><title>Node24&#45;&gt;Node3</title>
<path fill="none" stroke="midnightblue" d="M323.227,-838.483C390.304,-845.718 489.056,-845.301 556,-796 617.234,-750.904 635.186,-653.656 640.183,-611.809"/>
<polygon fill="midnightblue" stroke="midnightblue" points="643.672,-612.094 641.253,-601.779 636.711,-611.351 643.672,-612.094"/>
</g>
<!-- Node26 -->
<g id="node26" class="node"><title>Node26</title>
<g id="a_node26"><a xlink:href="../../da/d73/endianconv_8c.html#ae391d0308d5eebd8221d3fde59872b7c" target="_top" xlink:title="FillNextNMessageOctetsWith">
<polygon fill="none" stroke="black" points="390.5,-0.5 390.5,-19.5 537.5,-19.5 537.5,-0.5 390.5,-0.5"/>
<text text-anchor="middle" x="464" y="-7.5" font-family="Helvetica,sans-Serif" font-size="10.00">FillNextNMessageOctetsWith</text>
</a>
</g>
</g>
<!-- Node25&#45;&gt;Node26 -->
<g id="edge46" class="edge"><title>Node25&#45;&gt;Node26</title>
<path fill="none" stroke="midnightblue" d="M324.198,-34.7628C348.781,-30.3772 375.899,-25.5391 399.595,-21.3117"/>
<polygon fill="midnightblue" stroke="midnightblue" points="400.293,-24.7425 409.523,-19.5405 399.064,-17.8513 400.293,-24.7425"/>
</g>
<!-- Node27 -->
<g id="node27" class="node"><title>Node27</title>
<g id="a_node27"><a xlink:href="../../da/d73/endianconv_8c.html#af4e7ccbb21e333ad15028c531f0384c6" target="_top" xlink:title="MoveMessageNOctets">
<polygon fill="none" stroke="black" points="405.5,-38.5 405.5,-57.5 522.5,-57.5 522.5,-38.5 405.5,-38.5"/>
<text text-anchor="middle" x="464" y="-45.5" font-family="Helvetica,sans-Serif" font-size="10.00">MoveMessageNOctets</text>
</a>
</g>
</g>
<!-- Node25&#45;&gt;Node27 -->
<g id="edge47" class="edge"><title>Node25&#45;&gt;Node27</title>
<path fill="none" stroke="midnightblue" d="M324.198,-48C347.208,-48 372.439,-48 395.006,-48"/>
<polygon fill="midnightblue" stroke="midnightblue" points="395.169,-51.5001 405.169,-48 395.169,-44.5001 395.169,-51.5001"/>
</g>
</g>
</svg>
        <g id="navigator" transform="translate(0 0)" fill="#404254">
                <rect fill="#f2f5e9" fill-opacity="0.5" stroke="#606060" stroke-width=".5" x="0" y="0" width="60" height="60"/>
                <use id="zoomplus" xlink:href="#zoomPlus" x="17" y="9" onmousedown="handleZoom(evt,'in')"/>
                <use id="zoomminus" xlink:href="#zoomMin" x="42" y="9" onmousedown="handleZoom(evt,'out')"/>
                <use id="reset" xlink:href="#resetDef" x="30" y="36" onmousedown="handleReset()"/>
                <g id="arrowUp" xlink:href="#dirArrow" transform="translate(30 24)" onmousedown="handlePan(0,-1)">
                  <use xlink:href="#rim" fill="#404040">
                        <set attributeName="fill" to="#808080" begin="arrowUp.mouseover" end="arrowUp.mouseout"/>
                  </use>
                  <path fill="none" stroke="white" stroke-width="1.5" d="M0,-3.0v7 M-2.5,-0.5L0,-3.0L2.5,-0.5"/>
                </g>
                <g id="arrowRight" xlink:href="#dirArrow" transform="rotate(90) translate(36 -43)" onmousedown="handlePan(1,0)">
                  <use xlink:href="#rim" fill="#404040">
                        <set attributeName="fill" to="#808080" begin="arrowRight.mouseover" end="arrowRight.mouseout"/>
                  </use>
                  <path fill="none" stroke="white" stroke-width="1.5" d="M0,-3.0v7 M-2.5,-0.5L0,-3.0L2.5,-0.5"/>
                </g>
                <g id="arrowDown" xlink:href="#dirArrow" transform="rotate(180) translate(-30 -48)" onmousedown="handlePan(0,1)">
                  <use xlink:href="#rim" fill="#404040">
                        <set attributeName="fill" to="#808080" begin="arrowDown.mouseover" end="arrowDown.mouseout"/>
                  </use>
                  <path fill="none" stroke="white" stroke-width="1.5" d="M0,-3.0v7 M-2.5,-0.5L0,-3.0L2.5,-0.5"/>
                </g>
                <g id="arrowLeft" xlink:href="#dirArrow" transform="rotate(270) translate(-36 17)" onmousedown="handlePan(-1,0)">
                  <use xlink:href="#rim" fill="#404040">
                        <set attributeName="fill" to="#808080" begin="arrowLeft.mouseover" end="arrowLeft.mouseout"/>
                  </use>
                  <path fill="none" stroke="white" stroke-width="1.5" d="M0,-3.0v7 M-2.5,-0.5L0,-3.0L2.5,-0.5"/>
                </g>
        </g>
        <svg viewBox="0 0 15 15" width="100%" height="30px" preserveAspectRatio="xMaxYMin meet">
         <g id="arrow_out" transform="scale(0.3 0.3)">
          <a xlink:href="group__ENCAP_gaa28ed48b18b92a64faf70093eb74d891_cgraph_org.svg" target="_base">
           <rect id="button" ry="5" rx="5" y="6" x="6" height="38" width="38"
                fill="#f2f5e9" fill-opacity="0.5" stroke="#606060" stroke-width="1.0"/>
           <path id="arrow"
             d="M 11.500037,31.436501 C 11.940474,20.09759 22.043105,11.32322 32.158766,21.979434 L 37.068811,17.246167 C 37.068811,17.246167 37.088388,32 37.088388,32 L 22.160133,31.978069 C 22.160133,31.978069 26.997745,27.140456 26.997745,27.140456 C 18.528582,18.264221 13.291696,25.230495 11.500037,31.436501 z"
             style="fill:#404040;"/>
          </a>
         </g>
        </svg>
</svg>
