<?xml version="1.0" encoding="UTF-8" standalone="no"?>
<!DOCTYPE svg PUBLIC "-//W3C//DTD SVG 1.1//EN"
 "http://www.w3.org/Graphics/SVG/1.1/DTD/svg11.dtd">
<!-- Generated by graphviz version 2.38.0 (20140413.2041)
 -->
<!-- Title: notifyCPF Pages: 1 -->
<svg width="597pt" height="284pt"
 viewBox="0.00 0.00 597.00 284.00" xmlns="http://www.w3.org/2000/svg" xmlns:xlink="http://www.w3.org/1999/xlink">
<g id="graph0" class="graph" transform="scale(1 1) rotate(0) translate(4 280)">
<title>notifyCPF</title>
<!-- Node1 -->
<g id="node1" class="node"><title>Node1</title>
<polygon fill="#bfbfbf" stroke="black" points="0,-123.5 0,-142.5 61,-142.5 61,-123.5 0,-123.5"/>
<text text-anchor="middle" x="30.5" y="-130.5" font-family="Helvetica,sans-Serif" font-size="10.00">notifyCPF</text>
</g>
<!-- Node2 -->
<g id="node2" class="node"><title>Node2</title>
<g id="a_node2"><a xlink:href="../../d4/d91/group__ENCAP.html#ga2336d8a977ed1fc7cf4704823cb3039e" target="_top" xlink:title="assembleLinearMsg">
<polygon fill="none" stroke="black" points="97,-209.5 97,-228.5 201,-228.5 201,-209.5 97,-209.5"/>
<text text-anchor="middle" x="149" y="-216.5" font-family="Helvetica,sans-Serif" font-size="10.00">assembleLinearMsg</text>
</a>
</g>
</g>
<!-- Node1&#45;&gt;Node2 -->
<g id="edge1" class="edge"><title>Node1&#45;&gt;Node2</title>
<path fill="none" stroke="midnightblue" d="M44.4127,-142.532C64.357,-157.255 102.859,-185.677 126.891,-203.418"/>
<polygon fill="midnightblue" stroke="midnightblue" points="124.905,-206.302 135.03,-209.425 129.063,-200.67 124.905,-206.302"/>
</g>
<!-- Node6 -->
<g id="node6" class="node"><title>Node6</title>
<g id="a_node6"><a xlink:href="../../d4/d91/group__ENCAP.html#ga6aeafd791e544ba9790fa507571785de" target="_top" xlink:title="createCPFstructure">
<polygon fill="none" stroke="black" points="98,-123.5 98,-142.5 200,-142.5 200,-123.5 98,-123.5"/>
<text text-anchor="middle" x="149" y="-130.5" font-family="Helvetica,sans-Serif" font-size="10.00">createCPFstructure</text>
</a>
</g>
</g>
<!-- Node1&#45;&gt;Node6 -->
<g id="edge7" class="edge"><title>Node1&#45;&gt;Node6</title>
<path fill="none" stroke="midnightblue" d="M61.1993,-133C69.4175,-133 78.643,-133 87.9303,-133"/>
<polygon fill="midnightblue" stroke="midnightblue" points="87.9875,-136.5 97.9874,-133 87.9874,-129.5 87.9875,-136.5"/>
</g>
<!-- Node9 -->
<g id="node9" class="node"><title>Node9</title>
<g id="a_node9"><a xlink:href="../../d9/d7d/cipmessagerouter_8c.html#aff500b367ee1118d79affe0920b0cca3" target="_top" xlink:title="notifyMR">
<polygon fill="none" stroke="black" points="121,-66.5 121,-85.5 177,-85.5 177,-66.5 121,-66.5"/>
<text text-anchor="middle" x="149" y="-73.5" font-family="Helvetica,sans-Serif" font-size="10.00">notifyMR</text>
</a>
</g>
</g>
<!-- Node1&#45;&gt;Node9 -->
<g id="edge10" class="edge"><title>Node1&#45;&gt;Node9</title>
<path fill="none" stroke="midnightblue" d="M50.9995,-123.459C69.6486,-114.335 97.9958,-100.466 119.238,-90.0726"/>
<polygon fill="midnightblue" stroke="midnightblue" points="120.993,-93.1104 128.437,-85.5716 117.916,-86.8227 120.993,-93.1104"/>
</g>
<!-- Node3 -->
<g id="node3" class="node"><title>Node3</title>
<g id="a_node3"><a xlink:href="../../d4/d91/group__ENCAP.html#gaa00e394da5cd80135cdab7d4f3d88819" target="_top" xlink:title="Converts UINT32 data from host to little endian and writes it to pa_buf. ">
<polygon fill="none" stroke="black" points="443.5,-256.5 443.5,-275.5 478.5,-275.5 478.5,-256.5 443.5,-256.5"/>
<text text-anchor="middle" x="461" y="-263.5" font-family="Helvetica,sans-Serif" font-size="10.00">htoll</text>
</a>
</g>
</g>
<!-- Node2&#45;&gt;Node3 -->
<g id="edge2" class="edge"><title>Node2&#45;&gt;Node3</title>
<path fill="none" stroke="midnightblue" d="M166.685,-228.53C183.74,-237.723 211.3,-251.089 237,-257 306.474,-272.979 391.27,-270.639 433.481,-268.058"/>
<polygon fill="midnightblue" stroke="midnightblue" points="433.752,-271.547 443.497,-267.39 433.287,-264.563 433.752,-271.547"/>
</g>
<!-- Node4 -->
<g id="node4" class="node"><title>Node4</title>
<g id="a_node4"><a xlink:href="../../d4/d91/group__ENCAP.html#ga738d386bb3919d75bb14dcb40ca5389f" target="_top" xlink:title="converts UINT16 data from host to little endian an writes it to pa_buf. ">
<polygon fill="none" stroke="black" points="442,-199.5 442,-218.5 480,-218.5 480,-199.5 442,-199.5"/>
<text text-anchor="middle" x="461" y="-206.5" font-family="Helvetica,sans-Serif" font-size="10.00">htols</text>
</a>
</g>
</g>
<!-- Node2&#45;&gt;Node4 -->
<g id="edge3" class="edge"><title>Node2&#45;&gt;Node4</title>
<path fill="none" stroke="midnightblue" d="M201.19,-217.349C267.016,-215.225 379.07,-211.611 431.441,-209.921"/>
<polygon fill="midnightblue" stroke="midnightblue" points="431.791,-213.412 441.673,-209.591 431.565,-206.416 431.791,-213.412"/>
</g>
<!-- Node5 -->
<g id="node5" class="node"><title>Node5</title>
<g id="a_node5"><a xlink:href="../../da/d73/endianconv_8c.html#af8d7300f72b364ff347e8ed1895f989e" target="_top" xlink:title="encapsulates the ip address and port into the package (Common Paket Format variant) ...">
<polygon fill="none" stroke="black" points="239,-228.5 239,-247.5 369,-247.5 369,-228.5 239,-228.5"/>
<text text-anchor="middle" x="304" y="-235.5" font-family="Helvetica,sans-Serif" font-size="10.00">encapsulateIPAdressCPF</text>
</a>
</g>
</g>
<!-- Node2&#45;&gt;Node5 -->
<g id="edge4" class="edge"><title>Node2&#45;&gt;Node5</title>
<path fill="none" stroke="midnightblue" d="M201.372,-225.38C210.234,-226.48 219.602,-227.643 228.922,-228.801"/>
<polygon fill="midnightblue" stroke="midnightblue" points="228.634,-232.292 238.989,-230.051 229.497,-225.345 228.634,-232.292"/>
</g>
<!-- Node5&#45;&gt;Node3 -->
<g id="edge5" class="edge"><title>Node5&#45;&gt;Node3</title>
<path fill="none" stroke="midnightblue" d="M357.909,-247.558C383.301,-252.145 412.621,-257.441 433.308,-261.178"/>
<polygon fill="midnightblue" stroke="midnightblue" points="432.809,-264.645 443.272,-262.978 434.053,-257.756 432.809,-264.645"/>
</g>
<!-- Node5&#45;&gt;Node4 -->
<g id="edge6" class="edge"><title>Node5&#45;&gt;Node4</title>
<path fill="none" stroke="midnightblue" d="M356.182,-228.424C381.378,-223.71 410.784,-218.208 431.855,-214.266"/>
<polygon fill="midnightblue" stroke="midnightblue" points="432.574,-217.692 441.76,-212.413 431.287,-210.811 432.574,-217.692"/>
</g>
<!-- Node7 -->
<g id="node7" class="node"><title>Node7</title>
<g id="a_node7"><a xlink:href="../../d4/d91/group__ENCAP.html#ga6ce01de4023c01608d2bdfdb584d59d3" target="_top" xlink:title="Reads EIP_UINT16 from *pa_buf and converts little endian to host. ">
<polygon fill="none" stroke="black" points="551,-133.5 551,-152.5 589,-152.5 589,-133.5 551,-133.5"/>
<text text-anchor="middle" x="570" y="-140.5" font-family="Helvetica,sans-Serif" font-size="10.00">ltohs</text>
</a>
</g>
</g>
<!-- Node6&#45;&gt;Node7 -->
<g id="edge8" class="edge"><title>Node6&#45;&gt;Node7</title>
<path fill="none" stroke="midnightblue" d="M200.061,-139.746C212.133,-141.098 225.009,-142.313 237,-143 349.446,-149.441 483.665,-146.049 540.904,-144.083"/>
<polygon fill="midnightblue" stroke="midnightblue" points="541.116,-147.577 550.985,-143.723 540.867,-140.582 541.116,-147.577"/>
</g>
<!-- Node8 -->
<g id="node8" class="node"><title>Node8</title>
<g id="a_node8"><a xlink:href="../../d4/d91/group__ENCAP.html#ga4ac7387e49002d26462d7cdd094d238a" target="_top" xlink:title="Reads EIP_UINT32 from *pa_buf and converts little endian to host. ">
<polygon fill="none" stroke="black" points="286.5,-114.5 286.5,-133.5 321.5,-133.5 321.5,-114.5 286.5,-114.5"/>
<text text-anchor="middle" x="304" y="-121.5" font-family="Helvetica,sans-Serif" font-size="10.00">ltohl</text>
</a>
</g>
</g>
<!-- Node6&#45;&gt;Node8 -->
<g id="edge9" class="edge"><title>Node6&#45;&gt;Node8</title>
<path fill="none" stroke="midnightblue" d="M200.098,-130.053C225.479,-128.56 255.28,-126.807 276.261,-125.573"/>
<polygon fill="midnightblue" stroke="midnightblue" points="276.581,-129.06 286.358,-124.979 276.17,-122.072 276.581,-129.06"/>
</g>
<!-- Node10 -->
<g id="node10" class="node"><title>Node10</title>
<g id="a_node10"><a xlink:href="../../d9/d7d/cipmessagerouter_8c.html#a217a77be97cf56896966180e8241065a" target="_top" xlink:title="createMRRequeststructure">
<polygon fill="none" stroke="black" points="237,-76.5 237,-95.5 371,-95.5 371,-76.5 237,-76.5"/>
<text text-anchor="middle" x="304" y="-83.5" font-family="Helvetica,sans-Serif" font-size="10.00">createMRRequeststructure</text>
</a>
</g>
</g>
<!-- Node9&#45;&gt;Node10 -->
<g id="edge11" class="edge"><title>Node9&#45;&gt;Node10</title>
<path fill="none" stroke="midnightblue" d="M177.001,-77.7648C190.913,-78.6741 208.653,-79.8336 226.401,-80.9935"/>
<polygon fill="midnightblue" stroke="midnightblue" points="226.615,-84.5149 236.822,-81.6746 227.071,-77.5298 226.615,-84.5149"/>
</g>
<!-- Node12 -->
<g id="node12" class="node"><title>Node12</title>
<g id="a_node12"><a xlink:href="../../d9/d7d/cipmessagerouter_8c.html#a64741101a3f7edd3d30c645d7d80374b" target="_top" xlink:title="getRegisteredObject">
<polygon fill="none" stroke="black" points="251,-38.5 251,-57.5 357,-57.5 357,-38.5 251,-38.5"/>
<text text-anchor="middle" x="304" y="-45.5" font-family="Helvetica,sans-Serif" font-size="10.00">getRegisteredObject</text>
</a>
</g>
</g>
<!-- Node9&#45;&gt;Node12 -->
<g id="edge14" class="edge"><title>Node9&#45;&gt;Node12</title>
<path fill="none" stroke="midnightblue" d="M177.001,-71.0586C194.707,-67.8183 218.612,-63.4435 240.842,-59.3753"/>
<polygon fill="midnightblue" stroke="midnightblue" points="241.703,-62.776 250.909,-57.5329 240.443,-55.8904 241.703,-62.776"/>
</g>
<!-- Node13 -->
<g id="node13" class="node"><title>Node13</title>
<g id="a_node13"><a xlink:href="../../d2/d3d/cipcommon_8c.html#a5057d3a24cbe51b5667cc875dab800f5" target="_top" xlink:title="Check if requested service present in class/instance and call appropriate service. ">
<polygon fill="none" stroke="black" points="271,-0.5 271,-19.5 337,-19.5 337,-0.5 271,-0.5"/>
<text text-anchor="middle" x="304" y="-7.5" font-family="Helvetica,sans-Serif" font-size="10.00">notifyClass</text>
</a>
</g>
</g>
<!-- Node9&#45;&gt;Node13 -->
<g id="edge15" class="edge"><title>Node9&#45;&gt;Node13</title>
<path fill="none" stroke="midnightblue" d="M165.224,-66.4662C182.216,-56.1401 210.777,-39.7117 237,-29 244.691,-25.8585 253.084,-23.0196 261.227,-20.5514"/>
<polygon fill="midnightblue" stroke="midnightblue" points="262.341,-23.8727 270.973,-17.729 260.394,-17.1489 262.341,-23.8727"/>
</g>
<!-- Node11 -->
<g id="node11" class="node"><title>Node11</title>
<g id="a_node11"><a xlink:href="../../d2/d3d/cipcommon_8c.html#a7601b074077cbcb027ac528fc577cf51" target="_top" xlink:title="decodePaddedEPath">
<polygon fill="none" stroke="black" points="407,-95.5 407,-114.5 515,-114.5 515,-95.5 407,-95.5"/>
<text text-anchor="middle" x="461" y="-102.5" font-family="Helvetica,sans-Serif" font-size="10.00">decodePaddedEPath</text>
</a>
</g>
</g>
<!-- Node10&#45;&gt;Node11 -->
<g id="edge12" class="edge"><title>Node10&#45;&gt;Node11</title>
<path fill="none" stroke="midnightblue" d="M371.184,-94.1128C379.607,-95.1454 388.213,-96.2003 396.592,-97.2274"/>
<polygon fill="midnightblue" stroke="midnightblue" points="396.32,-100.72 406.671,-98.4629 397.172,-93.7722 396.32,-100.72"/>
</g>
<!-- Node11&#45;&gt;Node7 -->
<g id="edge13" class="edge"><title>Node11&#45;&gt;Node7</title>
<path fill="none" stroke="midnightblue" d="M489.001,-114.589C504.997,-120.27 525.221,-127.452 541.332,-133.174"/>
<polygon fill="midnightblue" stroke="midnightblue" points="540.163,-136.473 550.758,-136.522 542.506,-129.877 540.163,-136.473"/>
</g>
<!-- Node14 -->
<g id="node14" class="node"><title>Node14</title>
<g id="a_node14"><a xlink:href="../../d2/dc9/group__CIP__API.html#ga9919da1c597955301da602a23a470801" target="_top" xlink:title="Get a pointer to an instance. ">
<polygon fill="none" stroke="black" points="418.5,-0.5 418.5,-19.5 503.5,-19.5 503.5,-0.5 418.5,-0.5"/>
<text text-anchor="middle" x="461" y="-7.5" font-family="Helvetica,sans-Serif" font-size="10.00">getCIPInstance</text>
</a>
</g>
</g>
<!-- Node13&#45;&gt;Node14 -->
<g id="edge16" class="edge"><title>Node13&#45;&gt;Node14</title>
<path fill="none" stroke="midnightblue" d="M337.116,-10C357.663,-10 384.78,-10 408.313,-10"/>
<polygon fill="midnightblue" stroke="midnightblue" points="408.492,-13.5001 418.491,-10 408.491,-6.5001 408.492,-13.5001"/>
</g>
</g>
</svg>
