<?xml version="1.0" encoding="UTF-8" standalone="no"?>
<!DOCTYPE svg PUBLIC "-//W3C//DTD SVG 1.1//EN"
 "http://www.w3.org/Graphics/SVG/1.1/DTD/svg11.dtd">
<!-- Generated by graphviz version 2.26.3 (20100126.1600)
 -->
<!-- Title: G Pages: 1 -->
<!--zoomable 419 -->
<svg id="main" version="1.1" xmlns="http://www.w3.org/2000/svg" xmlns:xlink="http://www.w3.org/1999/xlink" xml:space="preserve" onload="init(evt)">
        <defs>
                <circle id="rim" cx="0" cy="0" r="7"/>
                <circle id="rim2" cx="0" cy="0" r="3.5"/>
                <g id="zoomPlus">
                        <use xlink:href="#rim" fill="#404040">
                                <set attributeName="fill" to="#808080" begin="zoomplus.mouseover" end="zoomplus.mouseout"/>
                        </use>
                        <path d="M-4,0h8M0,-4v8" fill="none" stroke="white" stroke-width="1.5" pointer-events="none"/>
                </g>
                <g id="zoomMin">
                        <use xlink:href="#rim" fill="#404040">
                                <set attributeName="fill" to="#808080" begin="zoomminus.mouseover" end="zoomminus.mouseout"/>
                        </use>
                        <path d="M-4,0h8" fill="none" stroke="white" stroke-width="1.5" pointer-events="none"/>
                </g>
                <g id="dirArrow">
                        <path fill="none" stroke="white" stroke-width="1.5" d="M0,-3.0v7 M-2.5,-0.5L0,-3.0L2.5,-0.5"/>
                </g>
               <g id="resetDef">
                       <use xlink:href="#rim2" fill="#404040">
                               <set attributeName="fill" to="#808080" begin="reset.mouseover" end="reset.mouseout"/>
                       </use>
               </g>
        </defs>

<script type="text/javascript">
var viewWidth = 1992;
var viewHeight = 419;
var sectionId = 'dynsection-2';
</script>
<script xlink:href="../../svgpan.js"/>
<svg id="graph" class="graph">
<g id="viewport">
<title>G</title>
<!-- Node1 -->
<g id="node1" class="node"><title>Node1</title>
<polygon fill="#bfbfbf" stroke="black" points="0,-118.5 0,-139.5 102,-139.5 102,-118.5 0,-118.5"/>
<text text-anchor="middle" x="51" y="-126.5" font-family="Helvetica,sans-Serif" font-size="10.00">AddSintToMessage</text>
</g>
<!-- Node2 -->
<g id="node3" class="node"><title>Node2</title>
<a xlink:href="../../d2/dc9/group__CIP__API.html#gaece1b7dd2aeec306cb33b86b2ee21980" target="_top" xlink:title="Produce the data according to CIP encoding onto the message buffer.">
<polygon fill="none" stroke="black" points="790.5,-235.5 790.5,-256.5 861.5,-256.5 861.5,-235.5 790.5,-235.5"/>
<text text-anchor="middle" x="826" y="-243.5" font-family="Helvetica,sans-Serif" font-size="10.00">EncodeData</text>
</a>
</g>
<!-- Node1&#45;&gt;Node2 -->
<g id="edge2" class="edge"><title>Node1&#45;&gt;Node2</title>
<path fill="none" stroke="midnightblue" d="M61.4333,-148.281C75.3676,-171.792 102.478,-210.441 138,-227 365.975,-333.269 684.209,-277.622 790.13,-254.484"/>
<polygon fill="midnightblue" stroke="midnightblue" points="64.4319,-146.473 56.4365,-139.522 58.3517,-149.942 64.4319,-146.473"/>
</g>
<!-- Node17 -->
<g id="node40" class="node"><title>Node17</title>
<a xlink:href="../../d3/d98/cpf_8c.html#a0abf0f8ed39e52fbd224c555dd23a0ac" target="_top" xlink:title="EncodeDataItemData">
<polygon fill="none" stroke="black" points="384.5,-158.5 384.5,-179.5 495.5,-179.5 495.5,-158.5 384.5,-158.5"/>
<text text-anchor="middle" x="440" y="-166.5" font-family="Helvetica,sans-Serif" font-size="10.00">EncodeDataItemData</text>
</a>
</g>
<!-- Node1&#45;&gt;Node17 -->
<g id="edge46" class="edge"><title>Node1&#45;&gt;Node17</title>
<path fill="none" stroke="midnightblue" d="M100.571,-141.835C112.74,-144.586 125.781,-147.203 138,-149 223.387,-161.56 323.524,-166.236 384.334,-167.974"/>
<polygon fill="midnightblue" stroke="midnightblue" points="101.126,-138.371 90.5925,-139.507 99.536,-145.188 101.126,-138.371"/>
</g>
<!-- Node30 -->
<g id="node69" class="node"><title>Node30</title>
<a xlink:href="../../d3/d98/cpf_8c.html#af27aea53d91b7af5a48cbe29edae129e" target="_top" xlink:title="Encodes the length of the extended status data part.">
<polygon fill="none" stroke="black" points="150.5,-118.5 150.5,-139.5 299.5,-139.5 299.5,-118.5 150.5,-118.5"/>
<text text-anchor="middle" x="225" y="-126.5" font-family="Helvetica,sans-Serif" font-size="10.00">EncodeExtendedStatusLength</text>
</a>
</g>
<!-- Node1&#45;&gt;Node30 -->
<g id="edge78" class="edge"><title>Node1&#45;&gt;Node30</title>
<path fill="none" stroke="midnightblue" d="M112.356,-129C124.607,-129 137.602,-129 150.246,-129"/>
<polygon fill="midnightblue" stroke="midnightblue" points="112.265,-125.5 102.265,-129 112.265,-132.5 112.265,-125.5"/>
</g>
<!-- Node32 -->
<g id="node74" class="node"><title>Node32</title>
<a xlink:href="../../d3/d98/cpf_8c.html#ab01dcb44f173a12fdd09ee7b83eb2e85" target="_top" xlink:title="Encodes the general status of a Router Response.">
<polygon fill="none" stroke="black" points="384,-78.5 384,-99.5 496,-99.5 496,-78.5 384,-78.5"/>
<text text-anchor="middle" x="440" y="-86.5" font-family="Helvetica,sans-Serif" font-size="10.00">EncodeGeneralStatus</text>
</a>
</g>
<!-- Node1&#45;&gt;Node32 -->
<g id="edge84" class="edge"><title>Node1&#45;&gt;Node32</title>
<path fill="none" stroke="midnightblue" d="M100.571,-116.165C112.74,-113.414 125.781,-110.797 138,-109 223.127,-96.4786 322.915,-91.7928 383.778,-90.0416"/>
<polygon fill="midnightblue" stroke="midnightblue" points="99.536,-112.812 90.5925,-118.493 101.126,-119.629 99.536,-112.812"/>
</g>
<!-- Node33 -->
<g id="node77" class="node"><title>Node33</title>
<a xlink:href="../../d3/d98/cpf_8c.html#aff58b2be77eedd55448923de7cb4da9f" target="_top" xlink:title="Encodes the Message Router Response data.">
<polygon fill="none" stroke="black" points="348,-38.5 348,-59.5 532,-59.5 532,-38.5 348,-38.5"/>
<text text-anchor="middle" x="440" y="-46.5" font-family="Helvetica,sans-Serif" font-size="10.00">EncodeMessageRouterResponseData</text>
</a>
</g>
<!-- Node1&#45;&gt;Node33 -->
<g id="edge88" class="edge"><title>Node1&#45;&gt;Node33</title>
<path fill="none" stroke="midnightblue" d="M79.5874,-113.681C96.196,-105.425 117.777,-95.7754 138,-90 206.812,-70.3486 287.209,-60.0176 347.743,-54.6439"/>
<polygon fill="midnightblue" stroke="midnightblue" points="77.7558,-110.686 70.4309,-118.341 80.9307,-116.925 77.7558,-110.686"/>
</g>
<!-- Node34 -->
<g id="node80" class="node"><title>Node34</title>
<a xlink:href="../../d3/d98/cpf_8c.html#ad1bcc1bd973e6733b3d479927738124b" target="_top" xlink:title="Encodes the reply service code for the requested service.">
<polygon fill="none" stroke="black" points="171,-0.5 171,-21.5 279,-21.5 279,-0.5 171,-0.5"/>
<text text-anchor="middle" x="225" y="-8.5" font-family="Helvetica,sans-Serif" font-size="10.00">EncodeReplyService</text>
</a>
</g>
<!-- Node1&#45;&gt;Node34 -->
<g id="edge92" class="edge"><title>Node1&#45;&gt;Node34</title>
<path fill="none" stroke="midnightblue" d="M64.0707,-110.119C79.445,-89.286 106.855,-56.1753 138,-37 148.739,-30.3882 161.263,-25.3697 173.406,-21.5944"/>
<polygon fill="midnightblue" stroke="midnightblue" points="61.0582,-108.313 58.063,-118.476 66.742,-112.399 61.0582,-108.313"/>
</g>
<!-- Node35 -->
<g id="node83" class="node"><title>Node35</title>
<a xlink:href="../../d3/d98/cpf_8c.html#a2fb3a4864353ff7263416c9b87e6338a" target="_top" xlink:title="Encodes the reserved byte in the message router response.">
<polygon fill="none" stroke="black" points="138.5,-196.5 138.5,-217.5 311.5,-217.5 311.5,-196.5 138.5,-196.5"/>
<text text-anchor="middle" x="225" y="-204.5" font-family="Helvetica,sans-Serif" font-size="10.00">EncodeReservedFieldOfLengthByte</text>
</a>
</g>
<!-- Node1&#45;&gt;Node35 -->
<g id="edge96" class="edge"><title>Node1&#45;&gt;Node35</title>
<path fill="none" stroke="midnightblue" d="M74.4115,-145.641C91.4111,-157.12 115.316,-172.047 138,-182 151.096,-187.746 165.874,-192.566 179.485,-196.392"/>
<polygon fill="midnightblue" stroke="midnightblue" points="75.9527,-142.453 65.7294,-139.672 71.987,-148.221 75.9527,-142.453"/>
</g>
<!-- Node2&#45;&gt;Node2 -->
<g id="edge42" class="edge"><title>Node2&#45;&gt;Node2</title>
<path fill="none" stroke="midnightblue" d="M789.782,-265.299C791.27,-270.781 803.343,-275 826,-275 859.723,-275 869.998,-265.653 856.825,-256.708"/>
<polygon fill="midnightblue" stroke="midnightblue" points="792.822,-267.038 795.175,-256.708 786.894,-263.316 792.822,-267.038"/>
</g>
<!-- Node3 -->
<g id="node5" class="node"><title>Node3</title>
<a xlink:href="../../db/d14/cipcommon_8h.html#ab0ed210dcfa6219a238c5a9f7a72aad1" target="_top" xlink:title="Generic implementation of the GetAttributeSingle CIP service.">
<polygon fill="none" stroke="black" points="1039,-235.5 1039,-256.5 1135,-256.5 1135,-235.5 1039,-235.5"/>
<text text-anchor="middle" x="1087" y="-243.5" font-family="Helvetica,sans-Serif" font-size="10.00">GetAttributeSingle</text>
</a>
</g>
<!-- Node2&#45;&gt;Node3 -->
<g id="edge4" class="edge"><title>Node2&#45;&gt;Node3</title>
<path fill="none" stroke="midnightblue" d="M871.915,-246C918.772,-246 991.192,-246 1038.84,-246"/>
<polygon fill="midnightblue" stroke="midnightblue" points="871.744,-242.5 861.744,-246 871.744,-249.5 871.744,-242.5"/>
</g>
<!-- Node16 -->
<g id="node36" class="node"><title>Node16</title>
<a xlink:href="../../dd/d20/ciptcpipinterface_8c.html#a01cd6d59afe7613e1c690d8b21207ce6" target="_top" xlink:title="GetAttributeSingleTcpIpInterface">
<polygon fill="none" stroke="black" points="1252.5,-274.5 1252.5,-295.5 1411.5,-295.5 1411.5,-274.5 1252.5,-274.5"/>
<text text-anchor="middle" x="1332" y="-282.5" font-family="Helvetica,sans-Serif" font-size="10.00">GetAttributeSingleTcpIpInterface</text>
</a>
</g>
<!-- Node2&#45;&gt;Node16 -->
<g id="edge44" class="edge"><title>Node2&#45;&gt;Node16</title>
<path fill="none" stroke="midnightblue" d="M871.794,-254.086C897.127,-258.27 929.219,-263.096 958,-266 1059.23,-276.215 1176.47,-281.041 1252.3,-283.25"/>
<polygon fill="midnightblue" stroke="midnightblue" points="872.175,-250.601 861.734,-252.4 871.018,-257.505 872.175,-250.601"/>
</g>
<!-- Node4 -->
<g id="node7" class="node"><title>Node4</title>
<a xlink:href="../../d2/dc9/group__CIP__API.html#ga446b7f612fe7baaf40d7f87274832922" target="_top" xlink:title="Allocate memory for new CIP Class and attributes.">
<polygon fill="none" stroke="black" points="1289,-234.5 1289,-255.5 1375,-255.5 1375,-234.5 1289,-234.5"/>
<text text-anchor="middle" x="1332" y="-242.5" font-family="Helvetica,sans-Serif" font-size="10.00">CreateCipClass</text>
</a>
</g>
<!-- Node3&#45;&gt;Node4 -->
<g id="edge6" class="edge"><title>Node3&#45;&gt;Node4</title>
<path fill="none" stroke="midnightblue" d="M1145.13,-245.763C1189.27,-245.583 1248.99,-245.339 1288.92,-245.176"/>
<polygon fill="midnightblue" stroke="midnightblue" points="1145.1,-242.263 1135.11,-245.804 1145.13,-249.263 1145.1,-242.263"/>
</g>
<!-- Node3&#45;&gt;Node16 -->
<g id="edge40" class="edge"><title>Node3&#45;&gt;Node16</title>
<path fill="none" stroke="midnightblue" d="M1145.05,-255.241C1181.35,-261.019 1228.2,-268.477 1265.92,-274.481"/>
<polygon fill="midnightblue" stroke="midnightblue" points="1145.54,-251.774 1135.11,-253.659 1144.44,-258.687 1145.54,-251.774"/>
</g>
<!-- Node5 -->
<g id="node9" class="node"><title>Node5</title>
<a xlink:href="../../df/d2e/cipassembly_8c.html#a5973ef42110a1bdf6c7699e35e04b7d4" target="_top" xlink:title="Constructor for the assembly object class.">
<polygon fill="none" stroke="black" points="1448.5,-354.5 1448.5,-375.5 1563.5,-375.5 1563.5,-354.5 1448.5,-354.5"/>
<text text-anchor="middle" x="1506" y="-362.5" font-family="Helvetica,sans-Serif" font-size="10.00">CreateAssemblyClass</text>
</a>
</g>
<!-- Node4&#45;&gt;Node5 -->
<g id="edge8" class="edge"><title>Node4&#45;&gt;Node5</title>
<path fill="none" stroke="midnightblue" d="M1384.94,-251.086C1394.71,-254.1 1404.26,-258.525 1412,-265 1441.91,-290.012 1419.21,-318.71 1448,-345 1452.17,-348.806 1457.1,-351.894 1462.29,-354.397"/>
<polygon fill="midnightblue" stroke="midnightblue" points="1385.72,-247.672 1375.16,-248.519 1383.95,-254.443 1385.72,-247.672"/>
</g>
<!-- Node11 -->
<g id="node21" class="node"><title>Node11</title>
<a xlink:href="../../d2/da3/cipconnectionmanager_8h.html#a5ab0de6894d23e8fe84a6b46797c2212" target="_top" xlink:title="Initialize the data of the connection manager object.">
<polygon fill="none" stroke="black" points="1605.5,-155.5 1605.5,-176.5 1722.5,-176.5 1722.5,-155.5 1605.5,-155.5"/>
<text text-anchor="middle" x="1664" y="-163.5" font-family="Helvetica,sans-Serif" font-size="10.00">ConnectionManagerInit</text>
</a>
</g>
<!-- Node4&#45;&gt;Node11 -->
<g id="edge20" class="edge"><title>Node4&#45;&gt;Node11</title>
<path fill="none" stroke="midnightblue" d="M1372.5,-231.292C1394.65,-224.085 1422.66,-215.437 1448,-209 1500.81,-195.588 1561.75,-183.784 1605.41,-175.953"/>
<polygon fill="midnightblue" stroke="midnightblue" points="1371.18,-228.042 1362.77,-234.488 1373.36,-234.693 1371.18,-228.042"/>
</g>
<!-- Node12 -->
<g id="node24" class="node"><title>Node12</title>
<a xlink:href="../../dd/d4d/cipethernetlink_8h.html#ad6d2028b90ec96ad148d092a30acb7d6" target="_top" xlink:title="Initialize the Ethernet Link Objects data.">
<polygon fill="none" stroke="black" points="1614,-195.5 1614,-216.5 1714,-216.5 1714,-195.5 1614,-195.5"/>
<text text-anchor="middle" x="1664" y="-203.5" font-family="Helvetica,sans-Serif" font-size="10.00">CipEthernetLinkInit</text>
</a>
</g>
<!-- Node4&#45;&gt;Node12 -->
<g id="edge24" class="edge"><title>Node4&#45;&gt;Node12</title>
<path fill="none" stroke="midnightblue" d="M1385.13,-234.887C1404.82,-231.39 1427.38,-227.68 1448,-225 1504.56,-217.65 1569.82,-212.345 1613.68,-209.239"/>
<polygon fill="midnightblue" stroke="midnightblue" points="1384.33,-231.473 1375.11,-236.69 1385.58,-238.362 1384.33,-231.473"/>
</g>
<!-- Node13 -->
<g id="node27" class="node"><title>Node13</title>
<a xlink:href="../../dc/d72/cipidentity_8h.html#a5d5136e167300543aa046057b56ae813" target="_top" xlink:title="CIP Identity object constructor.">
<polygon fill="none" stroke="black" points="1467.5,-234.5 1467.5,-255.5 1544.5,-255.5 1544.5,-234.5 1467.5,-234.5"/>
<text text-anchor="middle" x="1506" y="-242.5" font-family="Helvetica,sans-Serif" font-size="10.00">CipIdentityInit</text>
</a>
</g>
<!-- Node4&#45;&gt;Node13 -->
<g id="edge28" class="edge"><title>Node4&#45;&gt;Node13</title>
<path fill="none" stroke="midnightblue" d="M1385.27,-245C1411.76,-245 1443.19,-245 1467.34,-245"/>
<polygon fill="midnightblue" stroke="midnightblue" points="1385.01,-241.5 1375.01,-245 1385.01,-248.5 1385.01,-241.5"/>
</g>
<!-- Node14 -->
<g id="node30" class="node"><title>Node14</title>
<a xlink:href="../../d2/d75/cipmessagerouter_8h.html#aa3456b75c1b2289296323b578fee2d3d" target="_top" xlink:title="Initialize the data structures of the message router.">
<polygon fill="none" stroke="black" points="1449,-314.5 1449,-335.5 1563,-335.5 1563,-314.5 1449,-314.5"/>
<text text-anchor="middle" x="1506" y="-322.5" font-family="Helvetica,sans-Serif" font-size="10.00">CipMessageRouterInit</text>
</a>
</g>
<!-- Node4&#45;&gt;Node14 -->
<g id="edge32" class="edge"><title>Node4&#45;&gt;Node14</title>
<path fill="none" stroke="midnightblue" d="M1385.07,-253.549C1394.44,-256.353 1403.81,-260.071 1412,-265 1432.5,-277.327 1428.06,-291.792 1448,-305 1453.68,-308.764 1460.15,-311.897 1466.65,-314.477"/>
<polygon fill="midnightblue" stroke="midnightblue" points="1385.93,-250.154 1375.36,-250.945 1384.11,-256.915 1385.93,-250.154"/>
</g>
<!-- Node15 -->
<g id="node33" class="node"><title>Node15</title>
<a xlink:href="../../d1/dad/ciptcpipinterface_8h.html#a4c1f49654e48c5581513d990840933b0" target="_top" xlink:title="Initializing the data structures of the TCP/IP interface object.">
<polygon fill="none" stroke="black" points="1452,-274.5 1452,-295.5 1560,-295.5 1560,-274.5 1452,-274.5"/>
<text text-anchor="middle" x="1506" y="-282.5" font-family="Helvetica,sans-Serif" font-size="10.00">CipTcpIpInterfaceInit</text>
</a>
</g>
<!-- Node4&#45;&gt;Node15 -->
<g id="edge36" class="edge"><title>Node4&#45;&gt;Node15</title>
<path fill="none" stroke="midnightblue" d="M1385.01,-257.187C1409,-262.701 1437.07,-269.155 1460.14,-274.457"/>
<polygon fill="midnightblue" stroke="midnightblue" points="1385.54,-253.717 1375.01,-254.888 1383.97,-260.539 1385.54,-253.717"/>
</g>
<!-- Node6 -->
<g id="node11" class="node"><title>Node6</title>
<a xlink:href="../../de/df4/cipassembly_8h.html#a4dfbc2c7a8e9e77f05a0a7236210f5b4" target="_top" xlink:title="Setup the Assembly object.">
<polygon fill="none" stroke="black" points="1608.5,-349.5 1608.5,-370.5 1719.5,-370.5 1719.5,-349.5 1608.5,-349.5"/>
<text text-anchor="middle" x="1664" y="-357.5" font-family="Helvetica,sans-Serif" font-size="10.00">CipAssemblyInitialize</text>
</a>
</g>
<!-- Node5&#45;&gt;Node6 -->
<g id="edge10" class="edge"><title>Node5&#45;&gt;Node6</title>
<path fill="none" stroke="midnightblue" d="M1573.95,-362.85C1585.46,-362.485 1597.29,-362.111 1608.44,-361.758"/>
<polygon fill="midnightblue" stroke="midnightblue" points="1573.82,-359.352 1563.94,-363.167 1574.04,-366.348 1573.82,-359.352"/>
</g>
<!-- Node9 -->
<g id="node17" class="node"><title>Node9</title>
<a xlink:href="../../d2/dc9/group__CIP__API.html#gae61b613fed863d30428e78b2311bf593" target="_top" xlink:title="Create an instance of an assembly object.">
<polygon fill="none" stroke="black" points="1605,-389.5 1605,-410.5 1723,-410.5 1723,-389.5 1605,-389.5"/>
<text text-anchor="middle" x="1664" y="-397.5" font-family="Helvetica,sans-Serif" font-size="10.00">CreateAssemblyObject</text>
</a>
</g>
<!-- Node5&#45;&gt;Node9 -->
<g id="edge16" class="edge"><title>Node5&#45;&gt;Node9</title>
<path fill="none" stroke="midnightblue" d="M1563.43,-377.723C1580.81,-381.572 1599.69,-385.755 1616.36,-389.446"/>
<polygon fill="midnightblue" stroke="midnightblue" points="1563.93,-374.247 1553.41,-375.501 1562.41,-381.081 1563.93,-374.247"/>
</g>
<!-- Node7 -->
<g id="node13" class="node"><title>Node7</title>
<a xlink:href="../../d2/dc9/group__CIP__API.html#ga5d4979945d124e28668b264c3823db1c" target="_top" xlink:title="Initialize and setup the CIP&#45;stack.">
<polygon fill="none" stroke="black" points="1801.5,-234.5 1801.5,-255.5 1872.5,-255.5 1872.5,-234.5 1801.5,-234.5"/>
<text text-anchor="middle" x="1837" y="-242.5" font-family="Helvetica,sans-Serif" font-size="10.00">CipStackInit</text>
</a>
</g>
<!-- Node6&#45;&gt;Node7 -->
<g id="edge12" class="edge"><title>Node6&#45;&gt;Node7</title>
<path fill="none" stroke="midnightblue" d="M1706.18,-345.733C1713.65,-342.593 1721.2,-338.995 1728,-335 1767.78,-311.625 1807.92,-274.044 1826.43,-255.729"/>
<polygon fill="midnightblue" stroke="midnightblue" points="1704.83,-342.506 1696.84,-349.462 1707.42,-349.008 1704.83,-342.506"/>
</g>
<!-- Node8 -->
<g id="node15" class="node"><title>Node8</title>
<a xlink:href="../../d9/dfb/POSIX_2main_8c.html#ad338a7dbc41dc40bcecd0479377ef207" target="_top" xlink:title="main">
<polygon fill="none" stroke="black" points="1946,-199.5 1946,-220.5 1984,-220.5 1984,-199.5 1946,-199.5"/>
<text text-anchor="middle" x="1965" y="-207.5" font-family="Helvetica,sans-Serif" font-size="10.00">main</text>
</a>
</g>
<!-- Node7&#45;&gt;Node8 -->
<g id="edge14" class="edge"><title>Node7&#45;&gt;Node8</title>
<path fill="none" stroke="midnightblue" d="M1882.39,-232.589C1904.14,-226.64 1929.04,-219.832 1945.77,-215.259"/>
<polygon fill="midnightblue" stroke="midnightblue" points="1881.38,-229.237 1872.66,-235.251 1883.22,-235.989 1881.38,-229.237"/>
</g>
<!-- Node10 -->
<g id="node19" class="node"><title>Node10</title>
<a xlink:href="../../d5/dc5/group__CIP__CALLBACK__API.html#gae93106eb1647bff3ad56a7752799d878" target="_top" xlink:title="Callback for the application initialization.">
<polygon fill="none" stroke="black" points="1779,-389.5 1779,-410.5 1895,-410.5 1895,-389.5 1779,-389.5"/>
<text text-anchor="middle" x="1837" y="-397.5" font-family="Helvetica,sans-Serif" font-size="10.00">ApplicationInitialization</text>
</a>
</g>
<!-- Node9&#45;&gt;Node10 -->
<g id="edge18" class="edge"><title>Node9&#45;&gt;Node10</title>
<path fill="none" stroke="midnightblue" d="M1733.35,-400C1748.42,-400 1764.21,-400 1778.8,-400"/>
<polygon fill="midnightblue" stroke="midnightblue" points="1733.05,-396.5 1723.05,-400 1733.05,-403.5 1733.05,-396.5"/>
</g>
<!-- Node11&#45;&gt;Node7 -->
<g id="edge22" class="edge"><title>Node11&#45;&gt;Node7</title>
<path fill="none" stroke="midnightblue" d="M1711.86,-179.835C1717.36,-181.754 1722.84,-183.821 1728,-186 1761.7,-200.228 1798.71,-221.578 1819.77,-234.316"/>
<polygon fill="midnightblue" stroke="midnightblue" points="1712.59,-176.392 1702,-176.547 1710.38,-183.032 1712.59,-176.392"/>
</g>
<!-- Node12&#45;&gt;Node7 -->
<g id="edge26" class="edge"><title>Node12&#45;&gt;Node7</title>
<path fill="none" stroke="midnightblue" d="M1720.77,-218.797C1747.34,-224.787 1778.17,-231.738 1801.4,-236.975"/>
<polygon fill="midnightblue" stroke="midnightblue" points="1721.34,-215.339 1710.82,-216.554 1719.8,-222.168 1721.34,-215.339"/>
</g>
<!-- Node13&#45;&gt;Node7 -->
<g id="edge30" class="edge"><title>Node13&#45;&gt;Node7</title>
<path fill="none" stroke="midnightblue" d="M1554.95,-245C1622.2,-245 1741.59,-245 1801.15,-245"/>
<polygon fill="midnightblue" stroke="midnightblue" points="1554.62,-241.5 1544.62,-245 1554.62,-248.5 1554.62,-241.5"/>
</g>
<!-- Node14&#45;&gt;Node7 -->
<g id="edge34" class="edge"><title>Node14&#45;&gt;Node7</title>
<path fill="none" stroke="midnightblue" d="M1573.49,-313.328C1617.72,-305.188 1676.64,-293.408 1728,-280 1755.12,-272.922 1785.43,-263.023 1807.19,-255.558"/>
<polygon fill="midnightblue" stroke="midnightblue" points="1572.64,-309.925 1563.43,-315.164 1573.9,-316.811 1572.64,-309.925"/>
</g>
<!-- Node15&#45;&gt;Node7 -->
<g id="edge38" class="edge"><title>Node15&#45;&gt;Node7</title>
<path fill="none" stroke="midnightblue" d="M1570.36,-277.654C1614.69,-272.548 1674.94,-265.515 1728,-259 1752.43,-256.001 1779.92,-252.469 1801.17,-249.704"/>
<polygon fill="midnightblue" stroke="midnightblue" points="1569.84,-274.191 1560.31,-278.811 1570.64,-281.145 1569.84,-274.191"/>
</g>
<!-- Node18 -->
<g id="node42" class="node"><title>Node18</title>
<a xlink:href="../../d4/d91/group__ENCAP.html#gaa81c027561d86d2589b8002b36b88392" target="_top" xlink:title="Copy data from message_router_response struct and common_packet_format_data_item into linear memory i...">
<polygon fill="none" stroke="black" points="568,-78.5 568,-99.5 694,-99.5 694,-78.5 568,-78.5"/>
<text text-anchor="middle" x="631" y="-86.5" font-family="Helvetica,sans-Serif" font-size="10.00">AssembleLinearMessage</text>
</a>
</g>
<!-- Node17&#45;&gt;Node18 -->
<g id="edge48" class="edge"><title>Node17&#45;&gt;Node18</title>
<path fill="none" stroke="midnightblue" d="M505.603,-157.542C514.615,-155.16 523.638,-152.335 532,-149 564.482,-136.046 598.545,-112.983 617.033,-99.5372"/>
<polygon fill="midnightblue" stroke="midnightblue" points="504.726,-154.153 495.861,-159.954 506.409,-160.948 504.726,-154.153"/>
</g>
<!-- Node19 -->
<g id="node44" class="node"><title>Node19</title>
<a xlink:href="../../d4/d91/group__ENCAP.html#ga86a32a262ea21cad9631fa02c81f1a03" target="_top" xlink:title="NotifyCommonPacketFormat">
<polygon fill="none" stroke="black" points="754,-78.5 754,-99.5 898,-99.5 898,-78.5 754,-78.5"/>
<text text-anchor="middle" x="826" y="-86.5" font-family="Helvetica,sans-Serif" font-size="10.00">NotifyCommonPacketFormat</text>
</a>
</g>
<!-- Node18&#45;&gt;Node19 -->
<g id="edge50" class="edge"><title>Node18&#45;&gt;Node19</title>
<path fill="none" stroke="midnightblue" d="M704.473,-89C720.583,-89 737.625,-89 753.688,-89"/>
<polygon fill="midnightblue" stroke="midnightblue" points="704.042,-85.5001 694.042,-89 704.042,-92.5001 704.042,-85.5001"/>
</g>
<!-- Node24 -->
<g id="node55" class="node"><title>Node24</title>
<a xlink:href="../../d4/d91/group__ENCAP.html#ga94ca28af85239d7dd63b3b044201fe51" target="_top" xlink:title="NotifyConnectedCommonPacketFormat">
<polygon fill="none" stroke="black" points="730.5,-38.5 730.5,-59.5 921.5,-59.5 921.5,-38.5 730.5,-38.5"/>
<text text-anchor="middle" x="826" y="-46.5" font-family="Helvetica,sans-Serif" font-size="10.00">NotifyConnectedCommonPacketFormat</text>
</a>
</g>
<!-- Node18&#45;&gt;Node24 -->
<g id="edge62" class="edge"><title>Node18&#45;&gt;Node24</title>
<path fill="none" stroke="midnightblue" d="M692.181,-76.45C718.724,-71.0054 749.456,-64.7014 774.77,-59.5087"/>
<polygon fill="midnightblue" stroke="midnightblue" points="691.327,-73.0523 682.234,-78.4905 692.733,-79.9096 691.327,-73.0523"/>
</g>
<!-- Node26 -->
<g id="node60" class="node"><title>Node26</title>
<a xlink:href="../../d4/d91/group__ENCAP.html#gad61fa4f84989cf27086d57557ad552c4" target="_top" xlink:title="AssembleIOMessage">
<polygon fill="none" stroke="black" points="771,-118.5 771,-139.5 881,-139.5 881,-118.5 771,-118.5"/>
<text text-anchor="middle" x="826" y="-126.5" font-family="Helvetica,sans-Serif" font-size="10.00">AssembleIOMessage</text>
</a>
</g>
<!-- Node18&#45;&gt;Node26 -->
<g id="edge68" class="edge"><title>Node18&#45;&gt;Node26</title>
<path fill="none" stroke="midnightblue" d="M692.181,-101.55C718.724,-106.995 749.456,-113.299 774.77,-118.491"/>
<polygon fill="midnightblue" stroke="midnightblue" points="692.733,-98.0904 682.234,-99.5095 691.327,-104.948 692.733,-98.0904"/>
</g>
<!-- Node20 -->
<g id="node46" class="node"><title>Node20</title>
<a xlink:href="../../d2/dbd/encap_8c.html#a638a3760c5969c8cd91977f1ac30058a" target="_top" xlink:title="Call UCMM or Message Router if UCMM not implemented.">
<polygon fill="none" stroke="black" points="958,-78.5 958,-99.5 1216,-99.5 1216,-78.5 958,-78.5"/>
<text text-anchor="middle" x="1087" y="-86.5" font-family="Helvetica,sans-Serif" font-size="10.00">HandleReceivedSendRequestResponseDataCommand</text>
</a>
</g>
<!-- Node19&#45;&gt;Node20 -->
<g id="edge52" class="edge"><title>Node19&#45;&gt;Node20</title>
<path fill="none" stroke="midnightblue" d="M908.238,-89C924.061,-89 940.986,-89 957.881,-89"/>
<polygon fill="midnightblue" stroke="midnightblue" points="908.01,-85.5001 898.01,-89 908.01,-92.5001 908.01,-85.5001"/>
</g>
<!-- Node21 -->
<g id="node48" class="node"><title>Node21</title>
<a xlink:href="../../d2/dc9/group__CIP__API.html#gaec144f1964be8be687227381e5dbadaf" target="_top" xlink:title="Notify the encapsulation layer that an explicit message has been received via TCP.">
<polygon fill="none" stroke="black" points="1254,-78.5 1254,-99.5 1410,-99.5 1410,-78.5 1254,-78.5"/>
<text text-anchor="middle" x="1332" y="-86.5" font-family="Helvetica,sans-Serif" font-size="10.00">HandleReceivedExplictTcpData</text>
</a>
</g>
<!-- Node20&#45;&gt;Node21 -->
<g id="edge54" class="edge"><title>Node20&#45;&gt;Node21</title>
<path fill="none" stroke="midnightblue" d="M1226.46,-89C1235.77,-89 1244.94,-89 1253.77,-89"/>
<polygon fill="midnightblue" stroke="midnightblue" points="1226.32,-85.5001 1216.32,-89 1226.32,-92.5001 1226.32,-85.5001"/>
</g>
<!-- Node22 -->
<g id="node50" class="node"><title>Node22</title>
<a xlink:href="../../db/d4f/generic__networkhandler_8c.html#aca5593b7dd39d7a7b437999a367102d6" target="_top" xlink:title="Handles data on an established TCP connection, processed connection is given by socket.">
<polygon fill="none" stroke="black" points="1600,-97.5 1600,-118.5 1728,-118.5 1728,-97.5 1600,-97.5"/>
<text text-anchor="middle" x="1664" y="-105.5" font-family="Helvetica,sans-Serif" font-size="10.00">HandleDataOnTcpSocket</text>
</a>
</g>
<!-- Node21&#45;&gt;Node22 -->
<g id="edge56" class="edge"><title>Node21&#45;&gt;Node22</title>
<path fill="none" stroke="midnightblue" d="M1420.26,-94.0513C1476.79,-97.286 1548.84,-101.41 1599.91,-104.332"/>
<polygon fill="midnightblue" stroke="midnightblue" points="1420.44,-90.5558 1410.26,-93.4787 1420.04,-97.5444 1420.44,-90.5558"/>
</g>
<!-- Node23 -->
<g id="node52" class="node"><title>Node23</title>
<a xlink:href="../../da/dc2/generic__networkhandler_8h.html#a2f01af81d3e5018d9980e2bc28c9078a" target="_top" xlink:title="NetworkHandlerProcessOnce">
<polygon fill="none" stroke="black" points="1764,-131.5 1764,-152.5 1910,-152.5 1910,-131.5 1764,-131.5"/>
<text text-anchor="middle" x="1837" y="-139.5" font-family="Helvetica,sans-Serif" font-size="10.00">NetworkHandlerProcessOnce</text>
</a>
</g>
<!-- Node22&#45;&gt;Node23 -->
<g id="edge58" class="edge"><title>Node22&#45;&gt;Node23</title>
<path fill="none" stroke="midnightblue" d="M1727.8,-120.538C1746.12,-124.139 1765.91,-128.028 1783.54,-131.494"/>
<polygon fill="midnightblue" stroke="midnightblue" points="1728.28,-117.066 1717.79,-118.571 1726.93,-123.934 1728.28,-117.066"/>
</g>
<!-- Node23&#45;&gt;Node8 -->
<g id="edge60" class="edge"><title>Node23&#45;&gt;Node8</title>
<path fill="none" stroke="midnightblue" d="M1865.85,-157.328C1890.35,-170.341 1924.8,-188.645 1945.98,-199.893"/>
<polygon fill="midnightblue" stroke="midnightblue" points="1867.47,-154.226 1857,-152.625 1864.19,-160.408 1867.47,-154.226"/>
</g>
<!-- Node25 -->
<g id="node57" class="node"><title>Node25</title>
<a xlink:href="../../d2/dbd/encap_8c.html#a2a5e809a74a56268ad9f51638796fb3d" target="_top" xlink:title="Call Connection Manager.">
<polygon fill="none" stroke="black" points="989.5,-38.5 989.5,-59.5 1184.5,-59.5 1184.5,-38.5 989.5,-38.5"/>
<text text-anchor="middle" x="1087" y="-46.5" font-family="Helvetica,sans-Serif" font-size="10.00">HandleReceivedSendUnitDataCommand</text>
</a>
</g>
<!-- Node24&#45;&gt;Node25 -->
<g id="edge64" class="edge"><title>Node24&#45;&gt;Node25</title>
<path fill="none" stroke="midnightblue" d="M931.834,-49C950.768,-49 970.422,-49 989.12,-49"/>
<polygon fill="midnightblue" stroke="midnightblue" points="931.705,-45.5001 921.705,-49 931.705,-52.5001 931.705,-45.5001"/>
</g>
<!-- Node25&#45;&gt;Node21 -->
<g id="edge66" class="edge"><title>Node25&#45;&gt;Node21</title>
<path fill="none" stroke="midnightblue" d="M1166.42,-61.0973C1182.82,-63.6561 1199.98,-66.3771 1216,-69 1234.25,-71.9881 1254.1,-75.3629 1272.13,-78.4777"/>
<polygon fill="midnightblue" stroke="midnightblue" points="1166.74,-57.6054 1156.33,-59.5274 1165.67,-64.5223 1166.74,-57.6054"/>
</g>
<!-- Node27 -->
<g id="node62" class="node"><title>Node27</title>
<a xlink:href="../../df/d03/cipioconnection_8c.html#a41f8d71772b5defa587ac0da6124cc47" target="_top" xlink:title="Send the data from the produced CIP Object of the connection via the socket of the connection object ...">
<polygon fill="none" stroke="black" points="1033.5,-118.5 1033.5,-139.5 1140.5,-139.5 1140.5,-118.5 1033.5,-118.5"/>
<text text-anchor="middle" x="1087" y="-126.5" font-family="Helvetica,sans-Serif" font-size="10.00">SendConnectedData</text>
</a>
</g>
<!-- Node26&#45;&gt;Node27 -->
<g id="edge70" class="edge"><title>Node26&#45;&gt;Node27</title>
<path fill="none" stroke="midnightblue" d="M891.307,-129C935.15,-129 992.203,-129 1033.38,-129"/>
<polygon fill="midnightblue" stroke="midnightblue" points="891.032,-125.5 881.032,-129 891.032,-132.5 891.032,-125.5"/>
</g>
<!-- Node28 -->
<g id="node64" class="node"><title>Node28</title>
<a xlink:href="../../df/d03/cipioconnection_8c.html#ac788741792b008fa0699c7cfbe0979bc" target="_top" xlink:title="SetIoConnectionCallbacks">
<polygon fill="none" stroke="black" points="1265.5,-118.5 1265.5,-139.5 1398.5,-139.5 1398.5,-118.5 1265.5,-118.5"/>
<text text-anchor="middle" x="1332" y="-126.5" font-family="Helvetica,sans-Serif" font-size="10.00">SetIoConnectionCallbacks</text>
</a>
</g>
<!-- Node27&#45;&gt;Node28 -->
<g id="edge72" class="edge"><title>Node27&#45;&gt;Node28</title>
<path fill="none" stroke="midnightblue" d="M1150.92,-129C1186.07,-129 1229.65,-129 1265.24,-129"/>
<polygon fill="midnightblue" stroke="midnightblue" points="1150.77,-125.5 1140.77,-129 1150.77,-132.5 1150.77,-125.5"/>
</g>
<!-- Node29 -->
<g id="node66" class="node"><title>Node29</title>
<a xlink:href="../../de/d45/cipioconnection_8h.html#a699fccd3dabdfec1b77560f22268c1e8" target="_top" xlink:title="Setup all data in order to establish an IO connection.">
<polygon fill="none" stroke="black" points="1448.5,-118.5 1448.5,-139.5 1563.5,-139.5 1563.5,-118.5 1448.5,-118.5"/>
<text text-anchor="middle" x="1506" y="-126.5" font-family="Helvetica,sans-Serif" font-size="10.00">EstablishIoConnection</text>
</a>
</g>
<!-- Node28&#45;&gt;Node29 -->
<g id="edge74" class="edge"><title>Node28&#45;&gt;Node29</title>
<path fill="none" stroke="midnightblue" d="M1408.87,-129C1422.17,-129 1435.8,-129 1448.48,-129"/>
<polygon fill="midnightblue" stroke="midnightblue" points="1408.78,-125.5 1398.78,-129 1408.78,-132.5 1408.78,-125.5"/>
</g>
<!-- Node29&#45;&gt;Node11 -->
<g id="edge76" class="edge"><title>Node29&#45;&gt;Node11</title>
<path fill="none" stroke="midnightblue" d="M1560.61,-141.788C1579.67,-146.253 1600.84,-151.21 1619.03,-155.47"/>
<polygon fill="midnightblue" stroke="midnightblue" points="1561.39,-138.376 1550.85,-139.504 1559.79,-145.192 1561.39,-138.376"/>
</g>
<!-- Node31 -->
<g id="node71" class="node"><title>Node31</title>
<a xlink:href="../../d3/d98/cpf_8c.html#aa7a9b00cc1095849a4c29fe303178a25" target="_top" xlink:title="Encodes the extended status (length and data) into the message.">
<polygon fill="none" stroke="black" points="380.5,-118.5 380.5,-139.5 499.5,-139.5 499.5,-118.5 380.5,-118.5"/>
<text text-anchor="middle" x="440" y="-126.5" font-family="Helvetica,sans-Serif" font-size="10.00">EncodeExtendedStatus</text>
</a>
</g>
<!-- Node30&#45;&gt;Node31 -->
<g id="edge80" class="edge"><title>Node30&#45;&gt;Node31</title>
<path fill="none" stroke="midnightblue" d="M309.632,-129C333.31,-129 358.54,-129 380.434,-129"/>
<polygon fill="midnightblue" stroke="midnightblue" points="309.593,-125.5 299.593,-129 309.593,-132.5 309.593,-125.5"/>
</g>
<!-- Node31&#45;&gt;Node18 -->
<g id="edge82" class="edge"><title>Node31&#45;&gt;Node18</title>
<path fill="none" stroke="midnightblue" d="M500.27,-116.378C526.189,-110.95 556.135,-104.679 580.821,-99.5087"/>
<polygon fill="midnightblue" stroke="midnightblue" points="499.253,-113.015 490.183,-118.49 500.688,-119.866 499.253,-113.015"/>
</g>
<!-- Node32&#45;&gt;Node18 -->
<g id="edge86" class="edge"><title>Node32&#45;&gt;Node18</title>
<path fill="none" stroke="midnightblue" d="M506.279,-89C526.276,-89 548.164,-89 567.945,-89"/>
<polygon fill="midnightblue" stroke="midnightblue" points="506.016,-85.5001 496.016,-89 506.016,-92.5001 506.016,-85.5001"/>
</g>
<!-- Node33&#45;&gt;Node18 -->
<g id="edge90" class="edge"><title>Node33&#45;&gt;Node18</title>
<path fill="none" stroke="midnightblue" d="M500.27,-61.622C526.189,-67.0501 556.135,-73.3215 580.821,-78.4913"/>
<polygon fill="midnightblue" stroke="midnightblue" points="500.688,-58.1337 490.183,-59.5095 499.253,-64.9851 500.688,-58.1337"/>
</g>
<!-- Node34&#45;&gt;Node18 -->
<g id="edge94" class="edge"><title>Node34&#45;&gt;Node18</title>
<path fill="none" stroke="midnightblue" d="M289.313,-5.91066C352.561,-2.94354 451.114,-3.82703 532,-29 565.966,-39.5708 600.29,-64.2067 618.239,-78.405"/>
<polygon fill="midnightblue" stroke="midnightblue" points="288.893,-2.42756 279.087,-6.43847 289.254,-9.41825 288.893,-2.42756"/>
</g>
<!-- Node35&#45;&gt;Node18 -->
<g id="edge98" class="edge"><title>Node35&#45;&gt;Node18</title>
<path fill="none" stroke="midnightblue" d="M315.009,-218.224C378.446,-222.283 463.883,-219.787 532,-189 575.633,-169.279 610.485,-121.138 624.425,-99.6547"/>
<polygon fill="midnightblue" stroke="midnightblue" points="315.244,-214.732 305.023,-217.519 314.752,-221.714 315.244,-214.732"/>
</g>
</g>
</svg>
        <g id="navigator" transform="translate(0 0)" fill="#404254">
                <rect fill="#f2f5e9" fill-opacity="0.5" stroke="#606060" stroke-width=".5" x="0" y="0" width="60" height="60"/>
                <use id="zoomplus" xlink:href="#zoomPlus" x="17" y="9" onmousedown="handleZoom(evt,'in')"/>
                <use id="zoomminus" xlink:href="#zoomMin" x="42" y="9" onmousedown="handleZoom(evt,'out')"/>
                <use id="reset" xlink:href="#resetDef" x="30" y="36" onmousedown="handleReset()"/>
                <g id="arrowUp" xlink:href="#dirArrow" transform="translate(30 24)" onmousedown="handlePan(0,-1)">
                  <use xlink:href="#rim" fill="#404040">
                        <set attributeName="fill" to="#808080" begin="arrowUp.mouseover" end="arrowUp.mouseout"/>
                  </use>
                  <path fill="none" stroke="white" stroke-width="1.5" d="M0,-3.0v7 M-2.5,-0.5L0,-3.0L2.5,-0.5"/>
                </g>
                <g id="arrowRight" xlink:href="#dirArrow" transform="rotate(90) translate(36 -43)" onmousedown="handlePan(1,0)">
                  <use xlink:href="#rim" fill="#404040">
                        <set attributeName="fill" to="#808080" begin="arrowRight.mouseover" end="arrowRight.mouseout"/>
                  </use>
                  <path fill="none" stroke="white" stroke-width="1.5" d="M0,-3.0v7 M-2.5,-0.5L0,-3.0L2.5,-0.5"/>
                </g>
                <g id="arrowDown" xlink:href="#dirArrow" transform="rotate(180) translate(-30 -48)" onmousedown="handlePan(0,1)">
                  <use xlink:href="#rim" fill="#404040">
                        <set attributeName="fill" to="#808080" begin="arrowDown.mouseover" end="arrowDown.mouseout"/>
                  </use>
                  <path fill="none" stroke="white" stroke-width="1.5" d="M0,-3.0v7 M-2.5,-0.5L0,-3.0L2.5,-0.5"/>
                </g>
                <g id="arrowLeft" xlink:href="#dirArrow" transform="rotate(270) translate(-36 17)" onmousedown="handlePan(-1,0)">
                  <use xlink:href="#rim" fill="#404040">
                        <set attributeName="fill" to="#808080" begin="arrowLeft.mouseover" end="arrowLeft.mouseout"/>
                  </use>
                  <path fill="none" stroke="white" stroke-width="1.5" d="M0,-3.0v7 M-2.5,-0.5L0,-3.0L2.5,-0.5"/>
                </g>
        </g>
</svg>
