<?xml version="1.0" encoding="UTF-8" standalone="no"?>
<!DOCTYPE svg PUBLIC "-//W3C//DTD SVG 1.1//EN"
 "http://www.w3.org/Graphics/SVG/1.1/DTD/svg11.dtd">
<!-- Generated by graphviz version 2.36.0 (20140111.2315)
 -->
<!-- Title: AssembleIOMessage Pages: 1 -->
<!--zoomable 930 -->
<svg id="main" version="1.1" xmlns="http://www.w3.org/2000/svg" xmlns:xlink="http://www.w3.org/1999/xlink" xml:space="preserve" onload="init(evt)">
<style type="text/css"><![CDATA[
.edge:hover path { stroke: red; }
.edge:hover polygon { stroke: red; fill: red; }
]]></style>
<script type="text/javascript"><![CDATA[
var edges = document.getElementsByTagName('g');
if (edges && edges.length) {
  for (var i=0;i<edges.length;i++) {
    if (edges[i].id.substr(0,4)=='edge') {
      edges[i].setAttribute('class','edge');
    }
  }
}
]]></script>
        <defs>
                <circle id="rim" cx="0" cy="0" r="7"/>
                <circle id="rim2" cx="0" cy="0" r="3.5"/>
                <g id="zoomPlus">
                        <use xlink:href="#rim" fill="#404040">
                                <set attributeName="fill" to="#808080" begin="zoomplus.mouseover" end="zoomplus.mouseout"/>
                        </use>
                        <path d="M-4,0h8M0,-4v8" fill="none" stroke="white" stroke-width="1.5" pointer-events="none"/>
                </g>
                <g id="zoomMin">
                        <use xlink:href="#rim" fill="#404040">
                                <set attributeName="fill" to="#808080" begin="zoomminus.mouseover" end="zoomminus.mouseout"/>
                        </use>
                        <path d="M-4,0h8" fill="none" stroke="white" stroke-width="1.5" pointer-events="none"/>
                </g>
                <g id="dirArrow">
                        <path fill="none" stroke="white" stroke-width="1.5" d="M0,-3.0v7 M-2.5,-0.5L0,-3.0L2.5,-0.5"/>
                </g>
               <g id="resetDef">
                       <use xlink:href="#rim2" fill="#404040">
                               <set attributeName="fill" to="#808080" begin="reset.mouseover" end="reset.mouseout"/>
                       </use>
               </g>
        </defs>

<script type="text/javascript">
var viewWidth = 842;
var viewHeight = 930;
var sectionId = 'dynsection-3';
</script>
<script xlink:href="../../svgpan.js"/>
<svg id="graph" class="graph">
<g id="viewport">
<title>AssembleIOMessage</title>
<!-- Node1 -->
<g id="node1" class="node"><title>Node1</title>
<polygon fill="#bfbfbf" stroke="black" points="0,-468.5 0,-487.5 110,-487.5 110,-468.5 0,-468.5"/>
<text text-anchor="middle" x="55" y="-475.5" font-family="Helvetica,sans-Serif" font-size="10.00">AssembleIOMessage</text>
</g>
<!-- Node2 -->
<g id="node2" class="node"><title>Node2</title>
<g id="a_node2"><a xlink:href="../../d4/d91/group__ENCAP.html#gaa28ed48b18b92a64faf70093eb74d891" target="_top" xlink:title="Copy data from message_router_response struct and common_packet_format_data_item into ENIPMessage str...">
<polygon fill="none" stroke="black" points="146,-468.5 146,-487.5 272,-487.5 272,-468.5 146,-468.5"/>
<text text-anchor="middle" x="209" y="-475.5" font-family="Helvetica,sans-Serif" font-size="10.00">AssembleLinearMessage</text>
</a>
</g>
</g>
<!-- Node1&#45;&gt;Node2 -->
<g id="edge1" class="edge"><title>Node1&#45;&gt;Node2</title>
<path fill="none" stroke="midnightblue" d="M110.017,-478C118.359,-478 127.086,-478 135.749,-478"/>
<polygon fill="midnightblue" stroke="midnightblue" points="135.861,-481.5 145.861,-478 135.861,-474.5 135.861,-481.5"/>
</g>
<!-- Node3 -->
<g id="node3" class="node"><title>Node3</title>
<g id="a_node3"><a xlink:href="../../d4/d91/group__ENCAP.html#gaafc3c9e3ff582c9b7e438ae2b1fdf822" target="_top" xlink:title="Converts UINT32 data from host to little endian and writes it to buffer. ">
<polygon fill="none" stroke="black" points="560.5,-506.5 560.5,-525.5 663.5,-525.5 663.5,-506.5 560.5,-506.5"/>
<text text-anchor="middle" x="612" y="-513.5" font-family="Helvetica,sans-Serif" font-size="10.00">AddDintToMessage</text>
</a>
</g>
</g>
<!-- Node2&#45;&gt;Node3 -->
<g id="edge2" class="edge"><title>Node2&#45;&gt;Node3</title>
<path fill="none" stroke="midnightblue" d="M252.74,-487.527C269.844,-491.014 289.778,-494.672 308,-497 391.526,-507.67 488.803,-512.422 550.141,-514.487"/>
<polygon fill="midnightblue" stroke="midnightblue" points="550.308,-517.994 560.416,-514.819 550.534,-510.998 550.308,-517.994"/>
</g>
<!-- Node4 -->
<g id="node4" class="node"><title>Node4</title>
<g id="a_node4"><a xlink:href="../../d4/d91/group__ENCAP.html#gae689aac2a85bf49fb356ec94c8800799" target="_top" xlink:title="converts UINT16 data from host to little endian an writes it to buffer. ">
<polygon fill="none" stroke="black" points="735,-604.5 735,-623.5 831,-623.5 831,-604.5 735,-604.5"/>
<text text-anchor="middle" x="783" y="-611.5" font-family="Helvetica,sans-Serif" font-size="10.00">AddIntToMessage</text>
</a>
</g>
</g>
<!-- Node2&#45;&gt;Node4 -->
<g id="edge3" class="edge"><title>Node2&#45;&gt;Node4</title>
<path fill="none" stroke="midnightblue" d="M211.135,-487.547C217.537,-539.677 250.9,-789.272 308,-836 441.553,-945.294 554.684,-950.053 696,-851 768.682,-800.055 780.18,-681.115 781.819,-633.864"/>
<polygon fill="midnightblue" stroke="midnightblue" points="785.321,-633.794 782.052,-623.717 778.323,-633.634 785.321,-633.794"/>
</g>
<!-- Node5 -->
<g id="node5" class="node"><title>Node5</title>
<g id="a_node5"><a xlink:href="../../d3/d98/cpf_8c.html#a8269ea8acc0f12ca938ae5fa36277517" target="_top" xlink:title="Adds the item count to the message frame. ">
<polygon fill="none" stroke="black" points="564.5,-822.5 564.5,-841.5 659.5,-841.5 659.5,-822.5 564.5,-822.5"/>
<text text-anchor="middle" x="612" y="-829.5" font-family="Helvetica,sans-Serif" font-size="10.00">EncodeItemCount</text>
</a>
</g>
</g>
<!-- Node2&#45;&gt;Node5 -->
<g id="edge4" class="edge"><title>Node2&#45;&gt;Node5</title>
<path fill="none" stroke="midnightblue" d="M209.527,-487.559C207.931,-531.406 207.622,-714.701 308,-798 377.161,-855.394 487.862,-851.613 554.581,-842.557"/>
<polygon fill="midnightblue" stroke="midnightblue" points="555.099,-846.019 564.497,-841.129 554.1,-839.091 555.099,-846.019"/>
</g>
<!-- Node6 -->
<g id="node6" class="node"><title>Node6</title>
<g id="a_node6"><a xlink:href="../../d3/d98/cpf_8c.html#ab18848cbb4030e0c07fd90f401e70649" target="_top" xlink:title="Encodes a Null Address Item into the message frame. ">
<polygon fill="none" stroke="black" points="551,-784.5 551,-803.5 673,-803.5 673,-784.5 551,-784.5"/>
<text text-anchor="middle" x="612" y="-791.5" font-family="Helvetica,sans-Serif" font-size="10.00">EncodeNullAddressItem</text>
</a>
</g>
</g>
<!-- Node2&#45;&gt;Node6 -->
<g id="edge6" class="edge"><title>Node2&#45;&gt;Node6</title>
<path fill="none" stroke="midnightblue" d="M209.989,-487.76C210.519,-528.642 218.462,-687.314 308,-759 375.727,-813.224 480.872,-812.377 547.799,-804.74"/>
<polygon fill="midnightblue" stroke="midnightblue" points="548.293,-808.206 557.794,-803.517 547.442,-801.258 548.293,-808.206"/>
</g>
<!-- Node7 -->
<g id="node7" class="node"><title>Node7</title>
<g id="a_node7"><a xlink:href="../../d3/d98/cpf_8c.html#a490520a060d04d7c2d3edd6516d416f6" target="_top" xlink:title="EncodeConnectedAddressItem">
<polygon fill="none" stroke="black" points="324,-468.5 324,-487.5 476,-487.5 476,-468.5 324,-468.5"/>
<text text-anchor="middle" x="400" y="-475.5" font-family="Helvetica,sans-Serif" font-size="10.00">EncodeConnectedAddressItem</text>
</a>
</g>
</g>
<!-- Node2&#45;&gt;Node7 -->
<g id="edge8" class="edge"><title>Node2&#45;&gt;Node7</title>
<path fill="none" stroke="midnightblue" d="M272.147,-478C285.48,-478 299.79,-478 313.823,-478"/>
<polygon fill="midnightblue" stroke="midnightblue" points="313.975,-481.5 323.975,-478 313.974,-474.5 313.975,-481.5"/>
</g>
<!-- Node8 -->
<g id="node8" class="node"><title>Node8</title>
<g id="a_node8"><a xlink:href="../../d3/d98/cpf_8c.html#a3cf93fa3858cbf3b827018a2cc87e23d" target="_top" xlink:title="Encodes a sequenced address item into the message. ">
<polygon fill="none" stroke="black" points="323,-430.5 323,-449.5 477,-449.5 477,-430.5 323,-430.5"/>
<text text-anchor="middle" x="400" y="-437.5" font-family="Helvetica,sans-Serif" font-size="10.00">EncodeSequencedAddressItem</text>
</a>
</g>
</g>
<!-- Node2&#45;&gt;Node8 -->
<g id="edge11" class="edge"><title>Node2&#45;&gt;Node8</title>
<path fill="none" stroke="midnightblue" d="M257.693,-468.411C283.195,-463.284 314.782,-456.933 341.62,-451.537"/>
<polygon fill="midnightblue" stroke="midnightblue" points="342.536,-454.923 351.65,-449.52 341.157,-448.06 342.536,-454.923"/>
</g>
<!-- Node9 -->
<g id="node9" class="node"><title>Node9</title>
<g id="a_node9"><a xlink:href="../../d3/d98/cpf_8c.html#a074bebb59f6048e012947fbae235070c" target="_top" xlink:title="EncodeDataItemType">
<polygon fill="none" stroke="black" points="556,-746.5 556,-765.5 668,-765.5 668,-746.5 556,-746.5"/>
<text text-anchor="middle" x="612" y="-753.5" font-family="Helvetica,sans-Serif" font-size="10.00">EncodeDataItemType</text>
</a>
</g>
</g>
<!-- Node2&#45;&gt;Node9 -->
<g id="edge14" class="edge"><title>Node2&#45;&gt;Node9</title>
<path fill="none" stroke="midnightblue" d="M210.586,-487.673C213.404,-524.87 228.922,-659.617 308,-720 376.181,-772.062 479.346,-772.664 545.954,-766.077"/>
<polygon fill="midnightblue" stroke="midnightblue" points="546.343,-769.556 555.914,-765.012 545.598,-762.595 546.343,-769.556"/>
</g>
<!-- Node10 -->
<g id="node10" class="node"><title>Node10</title>
<g id="a_node10"><a xlink:href="../../d3/d98/cpf_8c.html#a720168acd6c913a09bf6b63ea4232a01" target="_top" xlink:title="Encodes the Connected Data item length. ">
<polygon fill="none" stroke="black" points="528.5,-708.5 528.5,-727.5 695.5,-727.5 695.5,-708.5 528.5,-708.5"/>
<text text-anchor="middle" x="612" y="-715.5" font-family="Helvetica,sans-Serif" font-size="10.00">EncodeConnectedDataItemLength</text>
</a>
</g>
</g>
<!-- Node2&#45;&gt;Node10 -->
<g id="edge16" class="edge"><title>Node2&#45;&gt;Node10</title>
<path fill="none" stroke="midnightblue" d="M211.396,-487.716C216.752,-521.105 239.264,-631.797 308,-681 371.81,-726.677 463.179,-731.892 528.875,-728.171"/>
<polygon fill="midnightblue" stroke="midnightblue" points="529.438,-731.642 539.191,-727.502 528.985,-724.656 529.438,-731.642"/>
</g>
<!-- Node11 -->
<g id="node11" class="node"><title>Node11</title>
<g id="a_node11"><a xlink:href="../../d3/d98/cpf_8c.html#a084e7e477ce351e21099c7da809faf69" target="_top" xlink:title="Encodes a sequence number into the message. ">
<polygon fill="none" stroke="black" points="548,-670.5 548,-689.5 676,-689.5 676,-670.5 548,-670.5"/>
<text text-anchor="middle" x="612" y="-677.5" font-family="Helvetica,sans-Serif" font-size="10.00">EncodeSequenceNumber</text>
</a>
</g>
</g>
<!-- Node2&#45;&gt;Node11 -->
<g id="edge18" class="edge"><title>Node2&#45;&gt;Node11</title>
<path fill="none" stroke="midnightblue" d="M212.423,-487.591C220.364,-516.836 248.571,-605.244 308,-644 376.338,-688.566 472.116,-692.539 537.583,-688.632"/>
<polygon fill="midnightblue" stroke="midnightblue" points="538.079,-692.106 547.821,-687.942 537.609,-685.122 538.079,-692.106"/>
</g>
<!-- Node12 -->
<g id="node12" class="node"><title>Node12</title>
<g id="a_node12"><a xlink:href="../../d3/d98/cpf_8c.html#a16da8f0222f5610c9f2bf1e1ce90a09b" target="_top" xlink:title="Encode the data item length of the unconnected data segment. ">
<polygon fill="none" stroke="black" points="538,-621 538,-651 686,-651 686,-621 538,-621"/>
<text text-anchor="start" x="546" y="-639" font-family="Helvetica,sans-Serif" font-size="10.00">EncodeUnconnectedDataItem</text>
<text text-anchor="middle" x="612" y="-628" font-family="Helvetica,sans-Serif" font-size="10.00">Length</text>
</a>
</g>
</g>
<!-- Node2&#45;&gt;Node12 -->
<g id="edge20" class="edge"><title>Node2&#45;&gt;Node12</title>
<path fill="none" stroke="midnightblue" d="M213.699,-487.572C224.079,-512.965 256.157,-582.066 308,-611 375.047,-648.419 463.733,-651.385 527.817,-646.97"/>
<polygon fill="midnightblue" stroke="midnightblue" points="528.179,-650.453 537.884,-646.202 527.646,-643.473 528.179,-650.453"/>
</g>
<!-- Node13 -->
<g id="node13" class="node"><title>Node13</title>
<g id="a_node13"><a xlink:href="../../d3/d98/cpf_8c.html#ab2ea3d23fe6ed4fab7ae90689d250298" target="_top" xlink:title="Encodes the reply service code for the requested service. ">
<polygon fill="none" stroke="black" points="558,-228.5 558,-247.5 666,-247.5 666,-228.5 558,-228.5"/>
<text text-anchor="middle" x="612" y="-235.5" font-family="Helvetica,sans-Serif" font-size="10.00">EncodeReplyService</text>
</a>
</g>
</g>
<!-- Node2&#45;&gt;Node13 -->
<g id="edge22" class="edge"><title>Node2&#45;&gt;Node13</title>
<path fill="none" stroke="midnightblue" d="M212.268,-468.453C219.924,-438.443 247.771,-345.383 308,-301 317.751,-293.814 464.159,-265.483 549.827,-249.368"/>
<polygon fill="midnightblue" stroke="midnightblue" points="550.522,-252.799 559.705,-247.514 549.23,-245.919 550.522,-252.799"/>
</g>
<!-- Node15 -->
<g id="node15" class="node"><title>Node15</title>
<g id="a_node15"><a xlink:href="../../d3/d98/cpf_8c.html#a31da36569cb05146463d085c721a8963" target="_top" xlink:title="Encodes the reserved byte in the message router response. ">
<polygon fill="none" stroke="black" points="313.5,-231.5 313.5,-250.5 486.5,-250.5 486.5,-231.5 313.5,-231.5"/>
<text text-anchor="middle" x="400" y="-238.5" font-family="Helvetica,sans-Serif" font-size="10.00">EncodeReservedFieldOfLengthByte</text>
</a>
</g>
</g>
<!-- Node2&#45;&gt;Node15 -->
<g id="edge24" class="edge"><title>Node2&#45;&gt;Node15</title>
<path fill="none" stroke="midnightblue" d="M211.572,-468.307C217.506,-434.926 241.676,-323.679 308,-267 314.06,-261.821 321.092,-257.671 328.509,-254.347"/>
<polygon fill="midnightblue" stroke="midnightblue" points="330.057,-257.498 338.066,-250.562 327.479,-250.99 330.057,-257.498"/>
</g>
<!-- Node16 -->
<g id="node16" class="node"><title>Node16</title>
<g id="a_node16"><a xlink:href="../../d3/d98/cpf_8c.html#a3ea2cccf028187c1b24319230d723a57" target="_top" xlink:title="Encodes the general status of a Router Response. ">
<polygon fill="none" stroke="black" points="344,-188.5 344,-207.5 456,-207.5 456,-188.5 344,-188.5"/>
<text text-anchor="middle" x="400" y="-195.5" font-family="Helvetica,sans-Serif" font-size="10.00">EncodeGeneralStatus</text>
</a>
</g>
</g>
<!-- Node2&#45;&gt;Node16 -->
<g id="edge26" class="edge"><title>Node2&#45;&gt;Node16</title>
<path fill="none" stroke="midnightblue" d="M210.647,-468.386C213.712,-430.733 230.089,-291.939 308,-222 315.478,-215.288 324.614,-210.415 334.181,-206.886"/>
<polygon fill="midnightblue" stroke="midnightblue" points="335.393,-210.173 343.846,-203.786 333.255,-203.508 335.393,-210.173"/>
</g>
<!-- Node17 -->
<g id="node17" class="node"><title>Node17</title>
<g id="a_node17"><a xlink:href="../../d3/d98/cpf_8c.html#a8161864641948a4eb95c269365fcce84" target="_top" xlink:title="Encodes the extended status (length and data) into the message. ">
<polygon fill="none" stroke="black" points="340.5,-310.5 340.5,-329.5 459.5,-329.5 459.5,-310.5 340.5,-310.5"/>
<text text-anchor="middle" x="400" y="-317.5" font-family="Helvetica,sans-Serif" font-size="10.00">EncodeExtendedStatus</text>
</a>
</g>
</g>
<!-- Node2&#45;&gt;Node17 -->
<g id="edge28" class="edge"><title>Node2&#45;&gt;Node17</title>
<path fill="none" stroke="midnightblue" d="M214.348,-468.232C225.848,-443.552 259.537,-378.294 308,-345 315.261,-340.012 323.485,-336.016 331.949,-332.816"/>
<polygon fill="midnightblue" stroke="midnightblue" points="333.236,-336.076 341.568,-329.531 330.973,-329.451 333.236,-336.076"/>
</g>
<!-- Node20 -->
<g id="node20" class="node"><title>Node20</title>
<g id="a_node20"><a xlink:href="../../d3/d98/cpf_8c.html#a2caf02dcd3085a64e4204973d827020a" target="_top" xlink:title="Encodes the Message Router Response data. ">
<polygon fill="none" stroke="black" points="308,-84.5 308,-103.5 492,-103.5 492,-84.5 308,-84.5"/>
<text text-anchor="middle" x="400" y="-91.5" font-family="Helvetica,sans-Serif" font-size="10.00">EncodeMessageRouterResponseData</text>
</a>
</g>
</g>
<!-- Node2&#45;&gt;Node20 -->
<g id="edge33" class="edge"><title>Node2&#45;&gt;Node20</title>
<path fill="none" stroke="midnightblue" d="M209.861,-468.336C209.744,-423.894 214.99,-236.853 308,-132 317.97,-120.761 331.796,-112.762 345.665,-107.103"/>
<polygon fill="midnightblue" stroke="midnightblue" points="347.073,-110.313 355.226,-103.547 344.633,-103.752 347.073,-110.313"/>
</g>
<!-- Node21 -->
<g id="node21" class="node"><title>Node21</title>
<g id="a_node21"><a xlink:href="../../d3/d98/cpf_8c.html#a5683f275eb25d9190deb80991c41ff01" target="_top" xlink:title="EncodeDataItemLength">
<polygon fill="none" stroke="black" points="340.5,-582.5 340.5,-601.5 459.5,-601.5 459.5,-582.5 340.5,-582.5"/>
<text text-anchor="middle" x="400" y="-589.5" font-family="Helvetica,sans-Serif" font-size="10.00">EncodeDataItemLength</text>
</a>
</g>
</g>
<!-- Node2&#45;&gt;Node21 -->
<g id="edge35" class="edge"><title>Node2&#45;&gt;Node21</title>
<path fill="none" stroke="midnightblue" d="M216.866,-487.622C231.323,-507.108 266.974,-551.231 308,-573 315.095,-576.765 322.87,-579.784 330.793,-582.205"/>
<polygon fill="midnightblue" stroke="midnightblue" points="329.925,-585.596 340.495,-584.871 331.78,-578.846 329.925,-585.596"/>
</g>
<!-- Node22 -->
<g id="node22" class="node"><title>Node22</title>
<g id="a_node22"><a xlink:href="../../d3/d98/cpf_8c.html#ad17e50dc05942cd1a6cd20a2e132b32a" target="_top" xlink:title="EncodeDataItemData">
<polygon fill="none" stroke="black" points="344.5,-141.5 344.5,-160.5 455.5,-160.5 455.5,-141.5 344.5,-141.5"/>
<text text-anchor="middle" x="400" y="-148.5" font-family="Helvetica,sans-Serif" font-size="10.00">EncodeDataItemData</text>
</a>
</g>
</g>
<!-- Node2&#45;&gt;Node22 -->
<g id="edge37" class="edge"><title>Node2&#45;&gt;Node22</title>
<path fill="none" stroke="midnightblue" d="M210.14,-468.354C211.273,-427.154 221.275,-264.158 308,-179 315.508,-171.628 324.908,-166.191 334.796,-162.182"/>
<polygon fill="midnightblue" stroke="midnightblue" points="336.139,-165.419 344.38,-158.76 333.785,-158.827 336.139,-165.419"/>
</g>
<!-- Node23 -->
<g id="node23" class="node"><title>Node23</title>
<g id="a_node23"><a xlink:href="../../d3/d98/cpf_8c.html#adfed715f4ce7b8d41243260aa7dbde00" target="_top" xlink:title="Encodes the sockaddr info type id into the message. ">
<polygon fill="none" stroke="black" points="321.5,-392.5 321.5,-411.5 478.5,-411.5 478.5,-392.5 321.5,-392.5"/>
<text text-anchor="middle" x="400" y="-399.5" font-family="Helvetica,sans-Serif" font-size="10.00">EncodeSockaddrInfoItemTypeId</text>
</a>
</g>
</g>
<!-- Node2&#45;&gt;Node23 -->
<g id="edge39" class="edge"><title>Node2&#45;&gt;Node23</title>
<path fill="none" stroke="midnightblue" d="M223.254,-468.415C241.465,-455.696 275.657,-433.408 308,-421 314.915,-418.347 322.275,-416.035 329.698,-414.026"/>
<polygon fill="midnightblue" stroke="midnightblue" points="330.625,-417.402 339.462,-411.558 328.909,-410.616 330.625,-417.402"/>
</g>
<!-- Node24 -->
<g id="node24" class="node"><title>Node24</title>
<g id="a_node24"><a xlink:href="../../d3/d98/cpf_8c.html#a72864be68f6e7b7289397bf78328d026" target="_top" xlink:title="Encodes the sockaddr info length into the message. ">
<polygon fill="none" stroke="black" points="331.5,-354.5 331.5,-373.5 468.5,-373.5 468.5,-354.5 331.5,-354.5"/>
<text text-anchor="middle" x="400" y="-361.5" font-family="Helvetica,sans-Serif" font-size="10.00">EncodeSockaddrInfoLength</text>
</a>
</g>
</g>
<!-- Node2&#45;&gt;Node24 -->
<g id="edge41" class="edge"><title>Node2&#45;&gt;Node24</title>
<path fill="none" stroke="midnightblue" d="M216.866,-468.378C231.323,-448.892 266.974,-404.769 308,-383 312.317,-380.709 316.886,-378.695 321.587,-376.923"/>
<polygon fill="midnightblue" stroke="midnightblue" points="323.028,-380.131 331.383,-373.616 320.789,-373.498 323.028,-380.131"/>
</g>
<!-- Node25 -->
<g id="node25" class="node"><title>Node25</title>
<g id="a_node25"><a xlink:href="../../da/d73/endianconv_8c.html#a2e8bf172dd5ecba3cc0871278ab06538" target="_top" xlink:title="Encapsulate the sockaddr information as necessary for the Common Packet Format data items...">
<polygon fill="none" stroke="black" points="342.5,-544.5 342.5,-563.5 457.5,-563.5 457.5,-544.5 342.5,-544.5"/>
<text text-anchor="middle" x="400" y="-551.5" font-family="Helvetica,sans-Serif" font-size="10.00">EncapsulateIpAddress</text>
</a>
</g>
</g>
<!-- Node2&#45;&gt;Node25 -->
<g id="edge43" class="edge"><title>Node2&#45;&gt;Node25</title>
<path fill="none" stroke="midnightblue" d="M225.424,-487.624C244.296,-499.055 277.507,-518.073 308,-530 319.531,-534.51 332.209,-538.453 344.345,-541.77"/>
<polygon fill="midnightblue" stroke="midnightblue" points="343.814,-545.249 354.375,-544.407 345.594,-538.479 343.814,-545.249"/>
</g>
<!-- Node26 -->
<g id="node26" class="node"><title>Node26</title>
<g id="a_node26"><a xlink:href="../../da/d73/endianconv_8c.html#af9669c6d673d3d653b5f0569fee71822" target="_top" xlink:title="FillNextNMessageOctetsWith\lValueAndMoveToNextPosition">
<polygon fill="none" stroke="black" points="325,-33 325,-63 475,-63 475,-33 325,-33"/>
<text text-anchor="start" x="333" y="-51" font-family="Helvetica,sans-Serif" font-size="10.00">FillNextNMessageOctetsWith</text>
<text text-anchor="middle" x="400" y="-40" font-family="Helvetica,sans-Serif" font-size="10.00">ValueAndMoveToNextPosition</text>
</a>
</g>
</g>
<!-- Node2&#45;&gt;Node26 -->
<g id="edge46" class="edge"><title>Node2&#45;&gt;Node26</title>
<path fill="none" stroke="midnightblue" d="M211.061,-468.23C217.302,-412.484 250.927,-134.994 308,-75 310.595,-72.2725 313.451,-69.8168 316.501,-67.6061"/>
<polygon fill="midnightblue" stroke="midnightblue" points="318.356,-70.5743 324.983,-62.3081 314.648,-64.6374 318.356,-70.5743"/>
</g>
<!-- Node5&#45;&gt;Node4 -->
<g id="edge5" class="edge"><title>Node5&#45;&gt;Node4</title>
<path fill="none" stroke="midnightblue" d="M659.537,-829.127C672.478,-826.384 685.773,-821.509 696,-813 752.737,-765.794 773.014,-674.137 779.397,-633.831"/>
<polygon fill="midnightblue" stroke="midnightblue" points="782.896,-634.096 780.875,-623.696 775.969,-633.086 782.896,-634.096"/>
</g>
<!-- Node6&#45;&gt;Node4 -->
<g id="edge7" class="edge"><title>Node6&#45;&gt;Node4</title>
<path fill="none" stroke="midnightblue" d="M673.352,-786.682C681.477,-783.897 689.306,-780.117 696,-775 743.708,-738.535 767.908,-667.841 777.263,-633.57"/>
<polygon fill="midnightblue" stroke="midnightblue" points="780.671,-634.37 779.789,-623.812 773.894,-632.616 780.671,-634.37"/>
</g>
<!-- Node7&#45;&gt;Node3 -->
<g id="edge9" class="edge"><title>Node7&#45;&gt;Node3</title>
<path fill="none" stroke="midnightblue" d="M453.721,-487.54C483.084,-492.853 519.77,-499.492 550.324,-505.021"/>
<polygon fill="midnightblue" stroke="midnightblue" points="549.968,-508.513 560.431,-506.849 551.214,-501.625 549.968,-508.513"/>
</g>
<!-- Node7&#45;&gt;Node4 -->
<g id="edge10" class="edge"><title>Node7&#45;&gt;Node4</title>
<path fill="none" stroke="midnightblue" d="M455.074,-468.485C517.26,-460.352 620.473,-455.678 696,-497 735.809,-518.78 762.155,-567.777 774.288,-594.948"/>
<polygon fill="midnightblue" stroke="midnightblue" points="771.09,-596.372 778.241,-604.19 777.527,-593.62 771.09,-596.372"/>
</g>
<!-- Node8&#45;&gt;Node3 -->
<g id="edge12" class="edge"><title>Node8&#45;&gt;Node3</title>
<path fill="none" stroke="midnightblue" d="M457.395,-449.564C468.979,-452.143 480.993,-455.276 492,-459 525.375,-470.293 561.602,-488.592 585.206,-501.401"/>
<polygon fill="midnightblue" stroke="midnightblue" points="583.755,-504.597 594.203,-506.351 587.129,-498.464 583.755,-504.597"/>
</g>
<!-- Node8&#45;&gt;Node4 -->
<g id="edge13" class="edge"><title>Node8&#45;&gt;Node4</title>
<path fill="none" stroke="midnightblue" d="M447.06,-430.476C508.863,-420.333 619.675,-411.658 696,-460 744.81,-490.914 768.386,-559.909 777.412,-594.062"/>
<polygon fill="midnightblue" stroke="midnightblue" points="774.123,-595.341 779.93,-604.203 780.917,-593.654 774.123,-595.341"/>
</g>
<!-- Node9&#45;&gt;Node4 -->
<g id="edge15" class="edge"><title>Node9&#45;&gt;Node4</title>
<path fill="none" stroke="midnightblue" d="M668.054,-749.396C677.899,-746.589 687.663,-742.616 696,-737 734.899,-710.795 761.614,-660.63 774.047,-633.155"/>
<polygon fill="midnightblue" stroke="midnightblue" points="777.323,-634.399 778.109,-623.833 770.906,-631.603 777.323,-634.399"/>
</g>
<!-- Node10&#45;&gt;Node4 -->
<g id="edge17" class="edge"><title>Node10&#45;&gt;Node4</title>
<path fill="none" stroke="midnightblue" d="M672.974,-708.493C680.979,-706.024 688.874,-702.914 696,-699 726.635,-682.172 753.799,-651.278 769.049,-631.733"/>
<polygon fill="midnightblue" stroke="midnightblue" points="771.931,-633.725 775.186,-623.643 766.354,-629.494 771.931,-633.725"/>
</g>
<!-- Node11&#45;&gt;Node4 -->
<g id="edge19" class="edge"><title>Node11&#45;&gt;Node4</title>
<path fill="none" stroke="midnightblue" d="M661.909,-670.405C673.27,-667.578 685.195,-664.114 696,-660 718.03,-651.612 741.533,-638.743 758.392,-628.747"/>
<polygon fill="midnightblue" stroke="midnightblue" points="760.271,-631.701 767.023,-623.537 756.653,-625.709 760.271,-631.701"/>
</g>
<!-- Node12&#45;&gt;Node4 -->
<g id="edge21" class="edge"><title>Node12&#45;&gt;Node4</title>
<path fill="none" stroke="midnightblue" d="M686.143,-626.478C698.967,-624.809 712.145,-623.093 724.469,-621.489"/>
<polygon fill="midnightblue" stroke="midnightblue" points="725.129,-624.933 734.594,-620.171 724.226,-617.991 725.129,-624.933"/>
</g>
<!-- Node14 -->
<g id="node14" class="node"><title>Node14</title>
<g id="a_node14"><a xlink:href="../../d4/d91/group__ENCAP.html#gae267a8684cc6ee1b3bd83df03260b7aa" target="_top" xlink:title="converts UINT8 data from host to little endian an writes it to buffer. ">
<polygon fill="none" stroke="black" points="732,-171.5 732,-190.5 834,-190.5 834,-171.5 732,-171.5"/>
<text text-anchor="middle" x="783" y="-178.5" font-family="Helvetica,sans-Serif" font-size="10.00">AddSintToMessage</text>
</a>
</g>
</g>
<!-- Node13&#45;&gt;Node14 -->
<g id="edge23" class="edge"><title>Node13&#45;&gt;Node14</title>
<path fill="none" stroke="midnightblue" d="M648.34,-228.496C663.153,-224.328 680.5,-219.204 696,-214 713.828,-208.014 733.423,-200.564 749.401,-194.259"/>
<polygon fill="midnightblue" stroke="midnightblue" points="750.837,-197.454 758.834,-190.504 748.248,-190.95 750.837,-197.454"/>
</g>
<!-- Node15&#45;&gt;Node14 -->
<g id="edge25" class="edge"><title>Node15&#45;&gt;Node14</title>
<path fill="none" stroke="midnightblue" d="M454.405,-231.467C477.079,-227.493 503.81,-222.904 528,-219 594.234,-208.31 670.357,-197.059 721.863,-189.599"/>
<polygon fill="midnightblue" stroke="midnightblue" points="722.429,-193.053 731.825,-188.159 721.427,-186.125 722.429,-193.053"/>
</g>
<!-- Node16&#45;&gt;Node14 -->
<g id="edge27" class="edge"><title>Node16&#45;&gt;Node14</title>
<path fill="none" stroke="midnightblue" d="M456.256,-191.876C478.517,-189.645 504.452,-187.342 528,-186 594.12,-182.231 670.06,-181.163 721.553,-180.924"/>
<polygon fill="midnightblue" stroke="midnightblue" points="721.849,-184.423 731.836,-180.886 721.823,-177.423 721.849,-184.423"/>
</g>
<!-- Node18 -->
<g id="node18" class="node"><title>Node18</title>
<g id="a_node18"><a xlink:href="../../d3/d98/cpf_8c.html#ae5dd5d670ff4b01d0aedd4e0a0c0314d" target="_top" xlink:title="Encodes the extended status data items. ">
<polygon fill="none" stroke="black" points="542,-305 542,-335 682,-335 682,-305 542,-305"/>
<text text-anchor="start" x="550" y="-323" font-family="Helvetica,sans-Serif" font-size="10.00">EncodeExtendedStatusData</text>
<text text-anchor="middle" x="612" y="-312" font-family="Helvetica,sans-Serif" font-size="10.00">Items</text>
</a>
</g>
</g>
<!-- Node17&#45;&gt;Node18 -->
<g id="edge29" class="edge"><title>Node17&#45;&gt;Node18</title>
<path fill="none" stroke="midnightblue" d="M459.776,-320C482.072,-320 507.842,-320 531.721,-320"/>
<polygon fill="midnightblue" stroke="midnightblue" points="531.823,-323.5 541.823,-320 531.823,-316.5 531.823,-323.5"/>
</g>
<!-- Node19 -->
<g id="node19" class="node"><title>Node19</title>
<g id="a_node19"><a xlink:href="../../d3/d98/cpf_8c.html#aff1bd1c766cfc5414aff3360d01eea46" target="_top" xlink:title="Encodes the length of the extended status data part. ">
<polygon fill="none" stroke="black" points="537.5,-266.5 537.5,-285.5 686.5,-285.5 686.5,-266.5 537.5,-266.5"/>
<text text-anchor="middle" x="612" y="-273.5" font-family="Helvetica,sans-Serif" font-size="10.00">EncodeExtendedStatusLength</text>
</a>
</g>
</g>
<!-- Node17&#45;&gt;Node19 -->
<g id="edge31" class="edge"><title>Node17&#45;&gt;Node19</title>
<path fill="none" stroke="midnightblue" d="M446.567,-310.453C478.626,-303.735 521.708,-294.709 555.731,-287.58"/>
<polygon fill="midnightblue" stroke="midnightblue" points="556.452,-291.005 565.522,-285.529 555.017,-284.154 556.452,-291.005"/>
</g>
<!-- Node18&#45;&gt;Node4 -->
<g id="edge30" class="edge"><title>Node18&#45;&gt;Node4</title>
<path fill="none" stroke="midnightblue" d="M674.892,-335.036C682.701,-338.934 690.03,-343.837 696,-350 764.305,-420.521 778.36,-545.934 781.251,-594.258"/>
<polygon fill="midnightblue" stroke="midnightblue" points="777.759,-594.512 781.753,-604.325 784.751,-594.163 777.759,-594.512"/>
</g>
<!-- Node19&#45;&gt;Node14 -->
<g id="edge32" class="edge"><title>Node19&#45;&gt;Node14</title>
<path fill="none" stroke="midnightblue" d="M671.9,-266.384C680.232,-263.926 688.504,-260.849 696,-257 724.637,-242.295 751.381,-215.88 767.216,-198.393"/>
<polygon fill="midnightblue" stroke="midnightblue" points="770.085,-200.432 774.073,-190.616 764.834,-195.802 770.085,-200.432"/>
</g>
<!-- Node20&#45;&gt;Node14 -->
<g id="edge34" class="edge"><title>Node20&#45;&gt;Node14</title>
<path fill="none" stroke="midnightblue" d="M448.163,-103.509C506.536,-115.444 608.9,-136.917 696,-158 709.646,-161.303 724.437,-165.158 737.841,-168.758"/>
<polygon fill="midnightblue" stroke="midnightblue" points="737.213,-172.213 747.78,-171.447 739.041,-165.456 737.213,-172.213"/>
</g>
<!-- Node21&#45;&gt;Node4 -->
<g id="edge36" class="edge"><title>Node21&#45;&gt;Node4</title>
<path fill="none" stroke="midnightblue" d="M459.696,-595.389C531.817,-599.554 653.372,-606.573 724.8,-610.697"/>
<polygon fill="midnightblue" stroke="midnightblue" points="724.778,-614.202 734.963,-611.284 725.182,-607.213 724.778,-614.202"/>
</g>
<!-- Node22&#45;&gt;Node14 -->
<g id="edge38" class="edge"><title>Node22&#45;&gt;Node14</title>
<path fill="none" stroke="midnightblue" d="M455.588,-155.298C526.138,-160.853 648.581,-170.495 721.775,-176.258"/>
<polygon fill="midnightblue" stroke="midnightblue" points="721.521,-179.749 731.765,-177.045 722.071,-172.77 721.521,-179.749"/>
</g>
<!-- Node23&#45;&gt;Node4 -->
<g id="edge40" class="edge"><title>Node23&#45;&gt;Node4</title>
<path fill="none" stroke="midnightblue" d="M439.969,-392.408C500.62,-379.874 618.653,-365.343 696,-419 755.746,-460.447 774.443,-553.175 779.906,-594.026"/>
<polygon fill="midnightblue" stroke="midnightblue" points="776.447,-594.577 781.119,-604.086 783.396,-593.739 776.447,-594.577"/>
</g>
<!-- Node24&#45;&gt;Node4 -->
<g id="edge42" class="edge"><title>Node24&#45;&gt;Node4</title>
<path fill="none" stroke="midnightblue" d="M468.637,-358.816C544.413,-354.433 661.207,-352.398 696,-378 767.223,-430.41 779.573,-547.866 781.629,-594.437"/>
<polygon fill="midnightblue" stroke="midnightblue" points="778.131,-594.555 781.955,-604.435 785.128,-594.326 778.131,-594.555"/>
</g>
<!-- Node25&#45;&gt;Node3 -->
<g id="edge44" class="edge"><title>Node25&#45;&gt;Node3</title>
<path fill="none" stroke="midnightblue" d="M453.721,-544.46C483.084,-539.147 519.77,-532.508 550.324,-526.979"/>
<polygon fill="midnightblue" stroke="midnightblue" points="551.214,-530.375 560.431,-525.151 549.968,-523.487 551.214,-530.375"/>
</g>
<!-- Node25&#45;&gt;Node4 -->
<g id="edge45" class="edge"><title>Node25&#45;&gt;Node4</title>
<path fill="none" stroke="midnightblue" d="M457.726,-560.965C517.25,-568.534 613.458,-581.502 696,-596 706.813,-597.899 718.343,-600.153 729.332,-602.412"/>
<polygon fill="midnightblue" stroke="midnightblue" points="728.732,-605.862 739.236,-604.478 730.162,-599.01 728.732,-605.862"/>
</g>
<!-- Node27 -->
<g id="node27" class="node"><title>Node27</title>
<g id="a_node27"><a xlink:href="../../da/d73/endianconv_8c.html#ae391d0308d5eebd8221d3fde59872b7c" target="_top" xlink:title="FillNextNMessageOctetsWith">
<polygon fill="none" stroke="black" points="538.5,-0.5 538.5,-19.5 685.5,-19.5 685.5,-0.5 538.5,-0.5"/>
<text text-anchor="middle" x="612" y="-7.5" font-family="Helvetica,sans-Serif" font-size="10.00">FillNextNMessageOctetsWith</text>
</a>
</g>
</g>
<!-- Node26&#45;&gt;Node27 -->
<g id="edge47" class="edge"><title>Node26&#45;&gt;Node27</title>
<path fill="none" stroke="midnightblue" d="M475.038,-34.6026C499.006,-30.2657 525.337,-25.501 548.391,-21.3292"/>
<polygon fill="midnightblue" stroke="midnightblue" points="549.175,-24.7442 558.392,-19.5195 547.929,-17.8561 549.175,-24.7442"/>
</g>
<!-- Node28 -->
<g id="node28" class="node"><title>Node28</title>
<g id="a_node28"><a xlink:href="../../da/d73/endianconv_8c.html#af4e7ccbb21e333ad15028c531f0384c6" target="_top" xlink:title="MoveMessageNOctets">
<polygon fill="none" stroke="black" points="553.5,-38.5 553.5,-57.5 670.5,-57.5 670.5,-38.5 553.5,-38.5"/>
<text text-anchor="middle" x="612" y="-45.5" font-family="Helvetica,sans-Serif" font-size="10.00">MoveMessageNOctets</text>
</a>
</g>
</g>
<!-- Node26&#45;&gt;Node28 -->
<g id="edge48" class="edge"><title>Node26&#45;&gt;Node28</title>
<path fill="none" stroke="midnightblue" d="M475.038,-48C497.261,-48 521.517,-48 543.308,-48"/>
<polygon fill="midnightblue" stroke="midnightblue" points="543.458,-51.5001 553.458,-48 543.458,-44.5001 543.458,-51.5001"/>
</g>
</g>
</svg>
        <g id="navigator" transform="translate(0 0)" fill="#404254">
                <rect fill="#f2f5e9" fill-opacity="0.5" stroke="#606060" stroke-width=".5" x="0" y="0" width="60" height="60"/>
                <use id="zoomplus" xlink:href="#zoomPlus" x="17" y="9" onmousedown="handleZoom(evt,'in')"/>
                <use id="zoomminus" xlink:href="#zoomMin" x="42" y="9" onmousedown="handleZoom(evt,'out')"/>
                <use id="reset" xlink:href="#resetDef" x="30" y="36" onmousedown="handleReset()"/>
                <g id="arrowUp" xlink:href="#dirArrow" transform="translate(30 24)" onmousedown="handlePan(0,-1)">
                  <use xlink:href="#rim" fill="#404040">
                        <set attributeName="fill" to="#808080" begin="arrowUp.mouseover" end="arrowUp.mouseout"/>
                  </use>
                  <path fill="none" stroke="white" stroke-width="1.5" d="M0,-3.0v7 M-2.5,-0.5L0,-3.0L2.5,-0.5"/>
                </g>
                <g id="arrowRight" xlink:href="#dirArrow" transform="rotate(90) translate(36 -43)" onmousedown="handlePan(1,0)">
                  <use xlink:href="#rim" fill="#404040">
                        <set attributeName="fill" to="#808080" begin="arrowRight.mouseover" end="arrowRight.mouseout"/>
                  </use>
                  <path fill="none" stroke="white" stroke-width="1.5" d="M0,-3.0v7 M-2.5,-0.5L0,-3.0L2.5,-0.5"/>
                </g>
                <g id="arrowDown" xlink:href="#dirArrow" transform="rotate(180) translate(-30 -48)" onmousedown="handlePan(0,1)">
                  <use xlink:href="#rim" fill="#404040">
                        <set attributeName="fill" to="#808080" begin="arrowDown.mouseover" end="arrowDown.mouseout"/>
                  </use>
                  <path fill="none" stroke="white" stroke-width="1.5" d="M0,-3.0v7 M-2.5,-0.5L0,-3.0L2.5,-0.5"/>
                </g>
                <g id="arrowLeft" xlink:href="#dirArrow" transform="rotate(270) translate(-36 17)" onmousedown="handlePan(-1,0)">
                  <use xlink:href="#rim" fill="#404040">
                        <set attributeName="fill" to="#808080" begin="arrowLeft.mouseover" end="arrowLeft.mouseout"/>
                  </use>
                  <path fill="none" stroke="white" stroke-width="1.5" d="M0,-3.0v7 M-2.5,-0.5L0,-3.0L2.5,-0.5"/>
                </g>
        </g>
        <svg viewBox="0 0 15 15" width="100%" height="30px" preserveAspectRatio="xMaxYMin meet">
         <g id="arrow_out" transform="scale(0.3 0.3)">
          <a xlink:href="group__ENCAP_ga137d29fba9dd744ed2e9323bf75e0bba_cgraph_org.svg" target="_base">
           <rect id="button" ry="5" rx="5" y="6" x="6" height="38" width="38"
                fill="#f2f5e9" fill-opacity="0.5" stroke="#606060" stroke-width="1.0"/>
           <path id="arrow"
             d="M 11.500037,31.436501 C 11.940474,20.09759 22.043105,11.32322 32.158766,21.979434 L 37.068811,17.246167 C 37.068811,17.246167 37.088388,32 37.088388,32 L 22.160133,31.978069 C 22.160133,31.978069 26.997745,27.140456 26.997745,27.140456 C 18.528582,18.264221 13.291696,25.230495 11.500037,31.436501 z"
             style="fill:#404040;"/>
          </a>
         </g>
        </svg>
</svg>
