<?xml version="1.0" encoding="UTF-8" standalone="no"?>
<!DOCTYPE svg PUBLIC "-//W3C//DTD SVG 1.1//EN"
 "http://www.w3.org/Graphics/SVG/1.1/DTD/svg11.dtd">
<!-- Generated by graphviz version 2.38.0 (20140413.2041)
 -->
<!-- Title: ltohl Pages: 1 -->
<!--zoomable 347 -->
<svg id="main" version="1.1" xmlns="http://www.w3.org/2000/svg" xmlns:xlink="http://www.w3.org/1999/xlink" xml:space="preserve" onload="init(evt)">
<style type="text/css"><![CDATA[
.edge:hover path { stroke: red; }
.edge:hover polygon { stroke: red; fill: red; }
]]></style>
<script type="text/javascript"><![CDATA[
var edges = document.getElementsByTagName('g');
if (edges && edges.length) {
  for (var i=0;i<edges.length;i++) {
    if (edges[i].id.substr(0,4)=='edge') {
      edges[i].setAttribute('class','edge');
    }
  }
}
]]></script>
        <defs>
                <circle id="rim" cx="0" cy="0" r="7"/>
                <circle id="rim2" cx="0" cy="0" r="3.5"/>
                <g id="zoomPlus">
                        <use xlink:href="#rim" fill="#404040">
                                <set attributeName="fill" to="#808080" begin="zoomplus.mouseover" end="zoomplus.mouseout"/>
                        </use>
                        <path d="M-4,0h8M0,-4v8" fill="none" stroke="white" stroke-width="1.5" pointer-events="none"/>
                </g>
                <g id="zoomMin">
                        <use xlink:href="#rim" fill="#404040">
                                <set attributeName="fill" to="#808080" begin="zoomminus.mouseover" end="zoomminus.mouseout"/>
                        </use>
                        <path d="M-4,0h8" fill="none" stroke="white" stroke-width="1.5" pointer-events="none"/>
                </g>
                <g id="dirArrow">
                        <path fill="none" stroke="white" stroke-width="1.5" d="M0,-3.0v7 M-2.5,-0.5L0,-3.0L2.5,-0.5"/>
                </g>
               <g id="resetDef">
                       <use xlink:href="#rim2" fill="#404040">
                               <set attributeName="fill" to="#808080" begin="reset.mouseover" end="reset.mouseout"/>
                       </use>
               </g>
        </defs>

<script type="text/javascript">
var viewWidth = 1456;
var viewHeight = 347;
var sectionId = 'dynsection-10';
</script>
<script xlink:href="../../svgpan.js"/>
<svg id="graph" class="graph">
<g id="viewport">
<title>ltohl</title>
<!-- Node1 -->
<g id="node1" class="node"><title>Node1</title>
<polygon fill="#bfbfbf" stroke="black" points="0,-180 0,-199 35,-199 35,-180 0,-180"/>
<text text-anchor="middle" x="17.5" y="-187" font-family="Helvetica,sans-Serif" font-size="10.00">ltohl</text>
</g>
<!-- Node2 -->
<g id="node2" class="node"><title>Node2</title>
<g id="a_node2"><a xlink:href="../../d4/d91/group__ENCAP.html#ga6aeafd791e544ba9790fa507571785de" target="_top" xlink:title="createCPFstructure">
<polygon fill="none" stroke="black" points="90.5,-104 90.5,-123 192.5,-123 192.5,-104 90.5,-104"/>
<text text-anchor="middle" x="141.5" y="-111" font-family="Helvetica,sans-Serif" font-size="10.00">createCPFstructure</text>
</a>
</g>
</g>
<!-- Node1&#45;&gt;Node2 -->
<g id="edge1" class="edge"><title>Node1&#45;&gt;Node2</title>
<path fill="none" stroke="midnightblue" d="M42.1293,-174.598C51.1543,-168.919 61.5454,-162.396 71,-156.5 89.5406,-144.938 110.925,-131.725 125.022,-123.033"/>
<polygon fill="midnightblue" stroke="midnightblue" points="40.2418,-171.65 33.6451,-179.941 43.9721,-177.573 40.2418,-171.65"/>
</g>
<!-- Node10 -->
<g id="node10" class="node"><title>Node10</title>
<g id="a_node10"><a xlink:href="../../d2/dbd/encap_8c.html#a9dc9ebf33956f4e735c48736ad9f9045" target="_top" xlink:title="handleReceivedSendUnitDataCmd">
<polygon fill="none" stroke="black" points="439,-132 439,-151 608,-151 608,-132 439,-132"/>
<text text-anchor="middle" x="523.5" y="-139" font-family="Helvetica,sans-Serif" font-size="10.00">handleReceivedSendUnitDataCmd</text>
</a>
</g>
</g>
<!-- Node1&#45;&gt;Node10 -->
<g id="edge38" class="edge"><title>Node1&#45;&gt;Node10</title>
<path fill="none" stroke="midnightblue" d="M45.4601,-186.932C118.561,-179.97 322.833,-160.516 438.983,-149.454"/>
<polygon fill="midnightblue" stroke="midnightblue" points="44.8921,-183.471 35.269,-187.903 45.5558,-190.439 44.8921,-183.471"/>
</g>
<!-- Node18 -->
<g id="node18" class="node"><title>Node18</title>
<g id="a_node18"><a xlink:href="../../d2/dbd/encap_8c.html#aa2bc1514f02b7d5270201f96f540e412" target="_top" xlink:title="handleReceivedSendRRDataCmd">
<polygon fill="none" stroke="black" points="440.5,-88 440.5,-107 606.5,-107 606.5,-88 440.5,-88"/>
<text text-anchor="middle" x="523.5" y="-95" font-family="Helvetica,sans-Serif" font-size="10.00">handleReceivedSendRRDataCmd</text>
</a>
</g>
</g>
<!-- Node1&#45;&gt;Node18 -->
<g id="edge37" class="edge"><title>Node1&#45;&gt;Node18</title>
<path fill="none" stroke="midnightblue" d="M23.3432,-170.265C30.0407,-148.006 44.428,-112.155 71,-94.5 207.293,-3.94618 421.525,-63.0677 495.964,-87.9767"/>
<polygon fill="midnightblue" stroke="midnightblue" points="19.9539,-169.39 20.6533,-179.961 26.6992,-171.261 19.9539,-169.39"/>
</g>
<!-- Node19 -->
<g id="node19" class="node"><title>Node19</title>
<g id="a_node19"><a xlink:href="../../d2/dbd/encap_8c.html#a41a000c4d1d14e4d29855d6fe6dd64cb" target="_top" xlink:title="createEncapsulationStructure">
<polygon fill="none" stroke="black" points="451,-183 451,-202 596,-202 596,-183 451,-183"/>
<text text-anchor="middle" x="523.5" y="-190" font-family="Helvetica,sans-Serif" font-size="10.00">createEncapsulationStructure</text>
</a>
</g>
</g>
<!-- Node1&#45;&gt;Node19 -->
<g id="edge20" class="edge"><title>Node1&#45;&gt;Node19</title>
<path fill="none" stroke="midnightblue" d="M45.3667,-189.66C120.92,-190.11 337.124,-191.397 450.749,-192.073"/>
<polygon fill="midnightblue" stroke="midnightblue" points="45.2897,-186.159 35.269,-189.6 45.2479,-193.159 45.2897,-186.159"/>
</g>
<!-- Node23 -->
<g id="node23" class="node"><title>Node23</title>
<g id="a_node23"><a xlink:href="../../d2/dc9/group__CIP__API.html#ga64d0a8afe3ba317e32a41558760238e3" target="_top" xlink:title="Retrieve the given data according to CIP encoding from the message buffer. ">
<polygon fill="none" stroke="black" points="107,-9 107,-28 176,-28 176,-9 107,-9"/>
<text text-anchor="middle" x="141.5" y="-16" font-family="Helvetica,sans-Serif" font-size="10.00">decodeData</text>
</a>
</g>
</g>
<!-- Node1&#45;&gt;Node23 -->
<g id="edge27" class="edge"><title>Node1&#45;&gt;Node23</title>
<path fill="none" stroke="midnightblue" d="M20.1898,-169.663C23.8961,-138.406 35.4871,-77.6412 71,-42.5 80.6181,-32.9826 94.1868,-27.232 106.786,-23.7606"/>
<polygon fill="midnightblue" stroke="midnightblue" points="16.6948,-169.436 19.1514,-179.742 23.6579,-170.153 16.6948,-169.436"/>
</g>
<!-- Node24 -->
<g id="node24" class="node"><title>Node24</title>
<g id="a_node24"><a xlink:href="../../d5/d35/cipconnectionmanager_8c.html#a2e18af4479b912caed461ab90a35a59e" target="_top" xlink:title="ForwardClose">
<polygon fill="none" stroke="black" points="287,-313 287,-332 364,-332 364,-313 287,-313"/>
<text text-anchor="middle" x="325.5" y="-320" font-family="Helvetica,sans-Serif" font-size="10.00">ForwardClose</text>
</a>
</g>
</g>
<!-- Node1&#45;&gt;Node24 -->
<g id="edge28" class="edge"><title>Node1&#45;&gt;Node24</title>
<path fill="none" stroke="midnightblue" d="M21.3843,-209.195C26.3884,-235.555 39.3672,-281.531 71,-303.5 135.705,-348.437 233.424,-339.945 286.659,-330.686"/>
<polygon fill="midnightblue" stroke="midnightblue" points="24.8167,-208.501 19.6967,-199.226 17.9149,-209.67 24.8167,-208.501"/>
</g>
<!-- Node27 -->
<g id="node27" class="node"><title>Node27</title>
<g id="a_node27"><a xlink:href="../../d5/d35/cipconnectionmanager_8c.html#afb92bf1fefbe3377e4e2acb3ba89817f" target="_top" xlink:title="ForwardOpen">
<polygon fill="none" stroke="black" points="104,-275 104,-294 179,-294 179,-275 104,-275"/>
<text text-anchor="middle" x="141.5" y="-282" font-family="Helvetica,sans-Serif" font-size="10.00">ForwardOpen</text>
</a>
</g>
</g>
<!-- Node1&#45;&gt;Node27 -->
<g id="edge32" class="edge"><title>Node1&#45;&gt;Node27</title>
<path fill="none" stroke="midnightblue" d="M26.7401,-208.223C35.3366,-225.605 50.4382,-250.927 71,-265.5 80.5931,-272.299 92.5118,-276.667 103.755,-279.472"/>
<polygon fill="midnightblue" stroke="midnightblue" points="29.8525,-206.617 22.4383,-199.048 23.5145,-209.588 29.8525,-206.617"/>
</g>
<!-- Node28 -->
<g id="node28" class="node"><title>Node28</title>
<g id="a_node28"><a xlink:href="../../df/d03/cipioconnection_8c.html#a0a63c015bc216d71e9cb1781472ce8df" target="_top" xlink:title="handleReceivedIOConnData">
<polygon fill="none" stroke="black" points="71,-237 71,-256 212,-256 212,-237 71,-237"/>
<text text-anchor="middle" x="141.5" y="-244" font-family="Helvetica,sans-Serif" font-size="10.00">handleReceivedIOConnData</text>
</a>
</g>
</g>
<!-- Node1&#45;&gt;Node28 -->
<g id="edge34" class="edge"><title>Node1&#45;&gt;Node28</title>
<path fill="none" stroke="midnightblue" d="M40.3388,-204.798C49.5324,-210.818 60.5146,-217.476 71,-222.5 82.627,-228.071 95.8976,-232.982 107.705,-236.886"/>
<polygon fill="midnightblue" stroke="midnightblue" points="42.0777,-201.75 31.8259,-199.076 38.1726,-207.559 42.0777,-201.75"/>
</g>
<!-- Node3 -->
<g id="node3" class="node"><title>Node3</title>
<g id="a_node3"><a xlink:href="../../d2/dc9/group__CIP__API.html#gabab611059fa1fb11c6c7ef36902a645c" target="_top" xlink:title="Notify the connection manager that data for a connection has been received. ">
<polygon fill="none" stroke="black" points="248,-9 248,-28 403,-28 403,-9 248,-9"/>
<text text-anchor="middle" x="325.5" y="-16" font-family="Helvetica,sans-Serif" font-size="10.00">handleReceivedConnectedData</text>
</a>
</g>
</g>
<!-- Node2&#45;&gt;Node3 -->
<g id="edge2" class="edge"><title>Node2&#45;&gt;Node3</title>
<path fill="none" stroke="midnightblue" d="M169.854,-99.222C207.481,-79.5814 274.187,-44.7624 306.269,-28.0162"/>
<polygon fill="midnightblue" stroke="midnightblue" points="168.198,-96.138 160.953,-103.868 171.437,-102.343 168.198,-96.138"/>
</g>
<!-- Node9 -->
<g id="node9" class="node"><title>Node9</title>
<g id="a_node9"><a xlink:href="../../d4/d91/group__ENCAP.html#ga615e04583bae27d4b8590e7f13d95d43" target="_top" xlink:title="notifyConnectedCPF">
<polygon fill="none" stroke="black" points="271.5,-123 271.5,-142 379.5,-142 379.5,-123 271.5,-123"/>
<text text-anchor="middle" x="325.5" y="-130" font-family="Helvetica,sans-Serif" font-size="10.00">notifyConnectedCPF</text>
</a>
</g>
</g>
<!-- Node2&#45;&gt;Node9 -->
<g id="edge8" class="edge"><title>Node2&#45;&gt;Node9</title>
<path fill="none" stroke="midnightblue" d="M202.679,-119.782C224.839,-122.096 249.765,-124.698 271.269,-126.943"/>
<polygon fill="midnightblue" stroke="midnightblue" points="203.023,-116.299 192.714,-118.742 202.297,-123.262 203.023,-116.299"/>
</g>
<!-- Node17 -->
<g id="node17" class="node"><title>Node17</title>
<g id="a_node17"><a xlink:href="../../d4/d91/group__ENCAP.html#gaae831feae33de32fc7ea4ba1a1f9cc74" target="_top" xlink:title="notifyCPF">
<polygon fill="none" stroke="black" points="295,-85 295,-104 356,-104 356,-85 295,-85"/>
<text text-anchor="middle" x="325.5" y="-92" font-family="Helvetica,sans-Serif" font-size="10.00">notifyCPF</text>
</a>
</g>
</g>
<!-- Node2&#45;&gt;Node17 -->
<g id="edge17" class="edge"><title>Node2&#45;&gt;Node17</title>
<path fill="none" stroke="midnightblue" d="M202.968,-107.187C233.877,-103.961 270.102,-100.179 294.911,-97.589"/>
<polygon fill="midnightblue" stroke="midnightblue" points="202.297,-103.738 192.714,-108.258 203.023,-110.701 202.297,-103.738"/>
</g>
<!-- Node4 -->
<g id="node4" class="node"><title>Node4</title>
<g id="a_node4"><a xlink:href="../../d5/d07/LM3S8962_2networkhandler_8c.html#a19261c4005e9187267c3b008f7c255d9" target="_top" xlink:title="udp_registered_receive\l_callback">
<polygon fill="none" stroke="black" points="465,-0.5 465,-30.5 582,-30.5 582,-0.5 465,-0.5"/>
<text text-anchor="start" x="473" y="-18.5" font-family="Helvetica,sans-Serif" font-size="10.00">udp_registered_receive</text>
<text text-anchor="middle" x="523.5" y="-7.5" font-family="Helvetica,sans-Serif" font-size="10.00">_callback</text>
</a>
</g>
</g>
<!-- Node3&#45;&gt;Node4 -->
<g id="edge3" class="edge"><title>Node3&#45;&gt;Node4</title>
<path fill="none" stroke="midnightblue" d="M413.303,-17.1714C430.72,-16.9048 448.615,-16.6309 464.748,-16.384"/>
<polygon fill="midnightblue" stroke="midnightblue" points="413.066,-13.6745 403.121,-17.3272 413.173,-20.6737 413.066,-13.6745"/>
</g>
<!-- Node6 -->
<g id="node6" class="node"><title>Node6</title>
<g id="a_node6"><a xlink:href="../../d2/d5e/POSIX_2networkhandler_8c.html#a8061914e74dabc046eecc09d874cb46c" target="_top" xlink:title="check if on one of the udp consuming sockets data has been received and if yes handle it correctly ...">
<polygon fill="none" stroke="black" points="644,-52 644,-71 842,-71 842,-52 644,-52"/>
<text text-anchor="middle" x="743" y="-59" font-family="Helvetica,sans-Serif" font-size="10.00">checkAndHandleConsumingUDPSockets</text>
</a>
</g>
</g>
<!-- Node3&#45;&gt;Node6 -->
<g id="edge5" class="edge"><title>Node3&#45;&gt;Node6</title>
<path fill="none" stroke="midnightblue" d="M381.129,-29.9703C399.454,-33.4774 420.046,-37.0508 439,-39.5 507.131,-48.3041 584.37,-53.8444 643.812,-57.163"/>
<polygon fill="midnightblue" stroke="midnightblue" points="381.692,-26.5143 371.207,-28.0364 380.353,-33.385 381.692,-26.5143"/>
</g>
<!-- Node5 -->
<g id="node5" class="node"><title>Node5</title>
<g id="a_node5"><a xlink:href="../../d5/dc5/group__CIP__CALLBACK__API.html#ga9d7f3bd3280b10ad3cc4ed2f5dc9c339" target="_top" xlink:title="create a producing or consuming UDP socket ">
<polygon fill="none" stroke="black" points="681,-6 681,-25 805,-25 805,-6 681,-6"/>
<text text-anchor="middle" x="743" y="-13" font-family="Helvetica,sans-Serif" font-size="10.00">IApp_CreateUDPSocket</text>
</a>
</g>
</g>
<!-- Node4&#45;&gt;Node5 -->
<g id="edge4" class="edge"><title>Node4&#45;&gt;Node5</title>
<path fill="none" stroke="midnightblue" d="M592.439,-15.5C620.767,-15.5 653.417,-15.5 680.969,-15.5"/>
<polygon fill="midnightblue" stroke="midnightblue" points="592.215,-12.0001 582.215,-15.5 592.215,-19.0001 592.215,-12.0001"/>
</g>
<!-- Node7 -->
<g id="node7" class="node"><title>Node7</title>
<g id="a_node7"><a xlink:href="../../dd/dc7/WIN32_2networkhandler_8h.html#a2d6337ec345efd952006c7bf3a158f0c" target="_top" xlink:title="NetworkHandler_ProcessOnce">
<polygon fill="none" stroke="black" points="1073,-95 1073,-114 1225,-114 1225,-95 1073,-95"/>
<text text-anchor="middle" x="1149" y="-102" font-family="Helvetica,sans-Serif" font-size="10.00">NetworkHandler_ProcessOnce</text>
</a>
</g>
</g>
<!-- Node6&#45;&gt;Node7 -->
<g id="edge6" class="edge"><title>Node6&#45;&gt;Node7</title>
<path fill="none" stroke="midnightblue" d="M852.404,-68.1C907.758,-72.0475 976.103,-77.809 1037,-85.5 1056.98,-88.0232 1078.85,-91.5918 1097.86,-94.956"/>
<polygon fill="midnightblue" stroke="midnightblue" points="852.445,-64.5943 842.224,-67.384 851.953,-71.5771 852.445,-64.5943"/>
</g>
<!-- Node8 -->
<g id="node8" class="node"><title>Node8</title>
<g id="a_node8"><a xlink:href="../../d9/dfb/POSIX_2main_8c.html#ad338a7dbc41dc40bcecd0479377ef207" target="_top" xlink:title="main">
<polygon fill="none" stroke="black" points="1298.5,-95 1298.5,-114 1336.5,-114 1336.5,-95 1298.5,-95"/>
<text text-anchor="middle" x="1317.5" y="-102" font-family="Helvetica,sans-Serif" font-size="10.00">main</text>
</a>
</g>
</g>
<!-- Node7&#45;&gt;Node8 -->
<g id="edge7" class="edge"><title>Node7&#45;&gt;Node8</title>
<path fill="none" stroke="midnightblue" d="M1235.62,-104.5C1259.34,-104.5 1282.81,-104.5 1298.3,-104.5"/>
<polygon fill="midnightblue" stroke="midnightblue" points="1235.46,-101 1225.46,-104.5 1235.46,-108 1235.46,-101"/>
</g>
<!-- Node9&#45;&gt;Node10 -->
<g id="edge9" class="edge"><title>Node9&#45;&gt;Node10</title>
<path fill="none" stroke="midnightblue" d="M389.617,-135.398C405.281,-136.118 422.313,-136.9 438.793,-137.656"/>
<polygon fill="midnightblue" stroke="midnightblue" points="389.69,-131.898 379.54,-134.936 389.369,-138.891 389.69,-131.898"/>
</g>
<!-- Node11 -->
<g id="node11" class="node"><title>Node11</title>
<g id="a_node11"><a xlink:href="../../d2/dc9/group__CIP__API.html#ga500c1fe8838de5ff32f25d8ad6958289" target="_top" xlink:title="Notify the encapsulation layer that an explicit message has been received via TCP. ">
<polygon fill="none" stroke="black" points="664,-132 664,-151 822,-151 822,-132 664,-132"/>
<text text-anchor="middle" x="743" y="-139" font-family="Helvetica,sans-Serif" font-size="10.00">handleReceivedExplictTCPData</text>
</a>
</g>
</g>
<!-- Node10&#45;&gt;Node11 -->
<g id="edge10" class="edge"><title>Node10&#45;&gt;Node11</title>
<path fill="none" stroke="midnightblue" d="M618.67,-141.5C633.786,-141.5 649.286,-141.5 663.971,-141.5"/>
<polygon fill="midnightblue" stroke="midnightblue" points="618.28,-138 608.28,-141.5 618.28,-145 618.28,-138"/>
</g>
<!-- Node12 -->
<g id="node12" class="node"><title>Node12</title>
<g id="a_node12"><a xlink:href="../../d5/d07/LM3S8962_2networkhandler_8c.html#a012291dcb1dfb9a0f2936f1e41543286" target="_top" xlink:title="tcp_receive_callback">
<polygon fill="none" stroke="black" points="903.5,-133 903.5,-152 1011.5,-152 1011.5,-133 903.5,-133"/>
<text text-anchor="middle" x="957.5" y="-140" font-family="Helvetica,sans-Serif" font-size="10.00">tcp_receive_callback</text>
</a>
</g>
</g>
<!-- Node11&#45;&gt;Node12 -->
<g id="edge11" class="edge"><title>Node11&#45;&gt;Node12</title>
<path fill="none" stroke="midnightblue" d="M832.447,-141.916C856.519,-142.03 881.847,-142.149 903.295,-142.25"/>
<polygon fill="midnightblue" stroke="midnightblue" points="832.238,-138.415 822.222,-141.868 832.205,-145.415 832.238,-138.415"/>
</g>
<!-- Node16 -->
<g id="node16" class="node"><title>Node16</title>
<g id="a_node16"><a xlink:href="../../d2/d5e/POSIX_2networkhandler_8c.html#ae76d1b4d390537588350d7179c4c2f3a" target="_top" xlink:title="handleDataOnTCPSocket">
<polygon fill="none" stroke="black" points="892.5,-95 892.5,-114 1022.5,-114 1022.5,-95 892.5,-95"/>
<text text-anchor="middle" x="957.5" y="-102" font-family="Helvetica,sans-Serif" font-size="10.00">handleDataOnTCPSocket</text>
</a>
</g>
</g>
<!-- Node11&#45;&gt;Node16 -->
<g id="edge15" class="edge"><title>Node11&#45;&gt;Node16</title>
<path fill="none" stroke="midnightblue" d="M808.585,-130.255C838.295,-125.082 873.17,-119.009 901.592,-114.06"/>
<polygon fill="midnightblue" stroke="midnightblue" points="807.975,-126.808 798.724,-131.972 809.176,-133.704 807.975,-126.808"/>
</g>
<!-- Node13 -->
<g id="node13" class="node"><title>Node13</title>
<g id="a_node13"><a xlink:href="../../d5/d07/LM3S8962_2networkhandler_8c.html#a44614e422def6d9b7eb8f3b0e430f7ef" target="_top" xlink:title="tcp_connection_accept\l_callback">
<polygon fill="none" stroke="black" points="1090.5,-150.5 1090.5,-180.5 1207.5,-180.5 1207.5,-150.5 1090.5,-150.5"/>
<text text-anchor="start" x="1098.5" y="-168.5" font-family="Helvetica,sans-Serif" font-size="10.00">tcp_connection_accept</text>
<text text-anchor="middle" x="1149" y="-157.5" font-family="Helvetica,sans-Serif" font-size="10.00">_callback</text>
</a>
</g>
</g>
<!-- Node12&#45;&gt;Node13 -->
<g id="edge12" class="edge"><title>Node12&#45;&gt;Node13</title>
<path fill="none" stroke="midnightblue" d="M1021.54,-150.151C1043.74,-152.846 1068.58,-155.861 1090.32,-158.5"/>
<polygon fill="midnightblue" stroke="midnightblue" points="1021.89,-146.668 1011.54,-148.937 1021.04,-153.617 1021.89,-146.668"/>
</g>
<!-- Node14 -->
<g id="node14" class="node"><title>Node14</title>
<g id="a_node14"><a xlink:href="../../d1/d31/LM3S8962_2networkhandler_8h.html#a6151b0813befe78de7bfd9d7e08866ba" target="_top" xlink:title="Start_NetworkHandler">
<polygon fill="none" stroke="black" points="1261,-221 1261,-240 1374,-240 1374,-221 1261,-221"/>
<text text-anchor="middle" x="1317.5" y="-228" font-family="Helvetica,sans-Serif" font-size="10.00">Start_NetworkHandler</text>
</a>
</g>
</g>
<!-- Node13&#45;&gt;Node14 -->
<g id="edge13" class="edge"><title>Node13&#45;&gt;Node14</title>
<path fill="none" stroke="midnightblue" d="M1198.29,-184.351C1229,-196.341 1267.47,-211.359 1292.02,-220.944"/>
<polygon fill="midnightblue" stroke="midnightblue" points="1199.21,-180.952 1188.62,-180.576 1196.66,-187.473 1199.21,-180.952"/>
</g>
<!-- Node15 -->
<g id="node15" class="node"><title>Node15</title>
<g id="a_node15"><a xlink:href="../../d0/d17/LM3S8962_2sample__application_2main_8c.html#a840291bc02cba5474a4cb46a9b9566fe" target="_top" xlink:title="main">
<polygon fill="none" stroke="black" points="1410,-242 1410,-261 1448,-261 1448,-242 1410,-242"/>
<text text-anchor="middle" x="1429" y="-249" font-family="Helvetica,sans-Serif" font-size="10.00">main</text>
</a>
</g>
</g>
<!-- Node14&#45;&gt;Node15 -->
<g id="edge14" class="edge"><title>Node14&#45;&gt;Node15</title>
<path fill="none" stroke="midnightblue" d="M1377.95,-241.902C1389.63,-244.142 1401.02,-246.326 1409.98,-248.044"/>
<polygon fill="midnightblue" stroke="midnightblue" points="1378.6,-238.463 1368.12,-240.017 1377.29,-245.338 1378.6,-238.463"/>
</g>
<!-- Node16&#45;&gt;Node7 -->
<g id="edge16" class="edge"><title>Node16&#45;&gt;Node7</title>
<path fill="none" stroke="midnightblue" d="M1033,-104.5C1046.08,-104.5 1059.69,-104.5 1072.78,-104.5"/>
<polygon fill="midnightblue" stroke="midnightblue" points="1032.66,-101 1022.66,-104.5 1032.66,-108 1032.66,-101"/>
</g>
<!-- Node17&#45;&gt;Node18 -->
<g id="edge18" class="edge"><title>Node17&#45;&gt;Node18</title>
<path fill="none" stroke="midnightblue" d="M366.529,-95.1127C387.803,-95.4383 414.767,-95.851 440.268,-96.2413"/>
<polygon fill="midnightblue" stroke="midnightblue" points="366.321,-91.6092 356.268,-94.9556 366.213,-98.6084 366.321,-91.6092"/>
</g>
<!-- Node18&#45;&gt;Node11 -->
<g id="edge19" class="edge"><title>Node18&#45;&gt;Node11</title>
<path fill="none" stroke="midnightblue" d="M581.841,-109.1C617.096,-116.232 661.715,-125.258 694.898,-131.971"/>
<polygon fill="midnightblue" stroke="midnightblue" points="582.19,-105.6 571.694,-107.047 580.802,-112.461 582.19,-105.6"/>
</g>
<!-- Node19&#45;&gt;Node11 -->
<g id="edge21" class="edge"><title>Node19&#45;&gt;Node11</title>
<path fill="none" stroke="midnightblue" d="M575.087,-180.638C613.436,-171.646 665.458,-159.448 701.176,-151.073"/>
<polygon fill="midnightblue" stroke="midnightblue" points="574.092,-177.277 565.155,-182.967 575.69,-184.092 574.092,-177.277"/>
</g>
<!-- Node20 -->
<g id="node20" class="node"><title>Node20</title>
<g id="a_node20"><a xlink:href="../../d2/dc9/group__CIP__API.html#gac85a5ca9d67df6eaa87338ebd9c5c6ca" target="_top" xlink:title="Notify the encapsulation layer that an explicit message has been received via UDP. ">
<polygon fill="none" stroke="black" points="663.5,-183 663.5,-202 822.5,-202 822.5,-183 663.5,-183"/>
<text text-anchor="middle" x="743" y="-190" font-family="Helvetica,sans-Serif" font-size="10.00">handleReceivedExplictUDPData</text>
</a>
</g>
</g>
<!-- Node19&#45;&gt;Node20 -->
<g id="edge22" class="edge"><title>Node19&#45;&gt;Node20</title>
<path fill="none" stroke="midnightblue" d="M606.265,-192.5C624.944,-192.5 644.758,-192.5 663.306,-192.5"/>
<polygon fill="midnightblue" stroke="midnightblue" points="606.019,-189 596.019,-192.5 606.019,-196 606.019,-189"/>
</g>
<!-- Node21 -->
<g id="node21" class="node"><title>Node21</title>
<g id="a_node21"><a xlink:href="../../d5/d07/LM3S8962_2networkhandler_8c.html#a23967f4150cf2bf98f4e538f26584123" target="_top" xlink:title="udp_unsolicited_receive\l_callback">
<polygon fill="none" stroke="black" points="1088.5,-215.5 1088.5,-245.5 1209.5,-245.5 1209.5,-215.5 1088.5,-215.5"/>
<text text-anchor="start" x="1096.5" y="-233.5" font-family="Helvetica,sans-Serif" font-size="10.00">udp_unsolicited_receive</text>
<text text-anchor="middle" x="1149" y="-222.5" font-family="Helvetica,sans-Serif" font-size="10.00">_callback</text>
</a>
</g>
</g>
<!-- Node20&#45;&gt;Node21 -->
<g id="edge23" class="edge"><title>Node20&#45;&gt;Node21</title>
<path fill="none" stroke="midnightblue" d="M814.739,-203.482C835.121,-206.388 857.412,-209.319 878,-211.5 950.197,-219.149 1033.59,-224.486 1088.37,-227.515"/>
<polygon fill="midnightblue" stroke="midnightblue" points="814.988,-199.982 804.59,-202.015 813.986,-206.91 814.988,-199.982"/>
</g>
<!-- Node22 -->
<g id="node22" class="node"><title>Node22</title>
<g id="a_node22"><a xlink:href="../../d2/d5e/POSIX_2networkhandler_8c.html#aa0c6c1f6e124a54daa5ac8e8d92cf4a8" target="_top" xlink:title="check if data has been received on the udp broadcast socket and if yes handle it correctly ...">
<polygon fill="none" stroke="black" points="878,-171.5 878,-201.5 1037,-201.5 1037,-171.5 878,-171.5"/>
<text text-anchor="start" x="886" y="-189.5" font-family="Helvetica,sans-Serif" font-size="10.00">checkAndHandleUDPBroadCast</text>
<text text-anchor="middle" x="957.5" y="-178.5" font-family="Helvetica,sans-Serif" font-size="10.00">Socket</text>
</a>
</g>
</g>
<!-- Node20&#45;&gt;Node22 -->
<g id="edge25" class="edge"><title>Node20&#45;&gt;Node22</title>
<path fill="none" stroke="midnightblue" d="M832.805,-189.993C847.788,-189.57 863.246,-189.133 877.945,-188.718"/>
<polygon fill="midnightblue" stroke="midnightblue" points="832.421,-186.502 822.523,-190.283 832.618,-193.499 832.421,-186.502"/>
</g>
<!-- Node21&#45;&gt;Node14 -->
<g id="edge24" class="edge"><title>Node21&#45;&gt;Node14</title>
<path fill="none" stroke="midnightblue" d="M1219.96,-230.5C1233.62,-230.5 1247.77,-230.5 1260.89,-230.5"/>
<polygon fill="midnightblue" stroke="midnightblue" points="1219.64,-227 1209.64,-230.5 1219.64,-234 1219.64,-227"/>
</g>
<!-- Node22&#45;&gt;Node7 -->
<g id="edge26" class="edge"><title>Node22&#45;&gt;Node7</title>
<path fill="none" stroke="midnightblue" d="M1020.48,-168.04C1026.12,-165.977 1031.7,-163.789 1037,-161.5 1053.8,-154.243 1056.79,-149.996 1073,-141.5 1091.39,-131.863 1112.64,-121.447 1127.81,-114.13"/>
<polygon fill="midnightblue" stroke="midnightblue" points="1019.24,-164.766 1010.97,-171.389 1021.57,-171.369 1019.24,-164.766"/>
</g>
<!-- Node25 -->
<g id="node25" class="node"><title>Node25</title>
<g id="a_node25"><a xlink:href="../../d2/da3/cipconnectionmanager_8h.html#abbdafd9e83df08856ba6de13890cf40f" target="_top" xlink:title="Connection_Manager_Init">
<polygon fill="none" stroke="black" points="459.5,-274 459.5,-293 587.5,-293 587.5,-274 459.5,-274"/>
<text text-anchor="middle" x="523.5" y="-281" font-family="Helvetica,sans-Serif" font-size="10.00">Connection_Manager_Init</text>
</a>
</g>
</g>
<!-- Node24&#45;&gt;Node25 -->
<g id="edge29" class="edge"><title>Node24&#45;&gt;Node25</title>
<path fill="none" stroke="midnightblue" d="M374.239,-313.001C404.65,-306.95 443.915,-299.137 474.396,-293.072"/>
<polygon fill="midnightblue" stroke="midnightblue" points="373.415,-309.596 364.291,-314.98 374.782,-316.461 373.415,-309.596"/>
</g>
<!-- Node26 -->
<g id="node26" class="node"><title>Node26</title>
<g id="a_node26"><a xlink:href="../../d2/dc9/group__CIP__API.html#ga8fe857c3e88bf986fda82fbac6702c9f" target="_top" xlink:title="Initialize and setup the CIP&#45;stack. ">
<polygon fill="none" stroke="black" points="1122.5,-268 1122.5,-287 1175.5,-287 1175.5,-268 1122.5,-268"/>
<text text-anchor="middle" x="1149" y="-275" font-family="Helvetica,sans-Serif" font-size="10.00">CIP_Init</text>
</a>
</g>
</g>
<!-- Node25&#45;&gt;Node26 -->
<g id="edge30" class="edge"><title>Node25&#45;&gt;Node26</title>
<path fill="none" stroke="midnightblue" d="M597.864,-282.794C737.045,-281.455 1033.45,-278.602 1122.31,-277.747"/>
<polygon fill="midnightblue" stroke="midnightblue" points="597.682,-279.296 587.716,-282.892 597.749,-286.295 597.682,-279.296"/>
</g>
<!-- Node26&#45;&gt;Node15 -->
<g id="edge31" class="edge"><title>Node26&#45;&gt;Node15</title>
<path fill="none" stroke="midnightblue" d="M1185.8,-274.151C1245.84,-268.537 1364.66,-257.423 1409.92,-253.191"/>
<polygon fill="midnightblue" stroke="midnightblue" points="1185.29,-270.685 1175.66,-275.101 1185.94,-277.654 1185.29,-270.685"/>
</g>
<!-- Node27&#45;&gt;Node25 -->
<g id="edge33" class="edge"><title>Node27&#45;&gt;Node25</title>
<path fill="none" stroke="midnightblue" d="M189.685,-284.376C257.695,-284.197 383.427,-283.866 459.368,-283.666"/>
<polygon fill="midnightblue" stroke="midnightblue" points="189.272,-280.877 179.281,-284.403 189.29,-287.877 189.272,-280.877"/>
</g>
<!-- Node29 -->
<g id="node29" class="node"><title>Node29</title>
<g id="a_node29"><a xlink:href="../../de/d45/cipioconnection_8h.html#ae83037a608b08d325fc34869395f37a3" target="_top" xlink:title="Setup all data in order to establish an IO connection. ">
<polygon fill="none" stroke="black" points="270.5,-237 270.5,-256 380.5,-256 380.5,-237 270.5,-237"/>
<text text-anchor="middle" x="325.5" y="-244" font-family="Helvetica,sans-Serif" font-size="10.00">establishIOConnction</text>
</a>
</g>
</g>
<!-- Node28&#45;&gt;Node29 -->
<g id="edge35" class="edge"><title>Node28&#45;&gt;Node29</title>
<path fill="none" stroke="midnightblue" d="M222.122,-246.5C238.373,-246.5 255.115,-246.5 270.233,-246.5"/>
<polygon fill="midnightblue" stroke="midnightblue" points="222.085,-243 212.085,-246.5 222.085,-250 222.085,-243"/>
</g>
<!-- Node29&#45;&gt;Node25 -->
<g id="edge36" class="edge"><title>Node29&#45;&gt;Node25</title>
<path fill="none" stroke="midnightblue" d="M387.145,-257.948C414.312,-263.077 445.983,-269.055 471.856,-273.94"/>
<polygon fill="midnightblue" stroke="midnightblue" points="387.451,-254.444 376.975,-256.028 386.152,-261.323 387.451,-254.444"/>
</g>
</g>
</svg>
        <g id="navigator" transform="translate(0 0)" fill="#404254">
                <rect fill="#f2f5e9" fill-opacity="0.5" stroke="#606060" stroke-width=".5" x="0" y="0" width="60" height="60"/>
                <use id="zoomplus" xlink:href="#zoomPlus" x="17" y="9" onmousedown="handleZoom(evt,'in')"/>
                <use id="zoomminus" xlink:href="#zoomMin" x="42" y="9" onmousedown="handleZoom(evt,'out')"/>
                <use id="reset" xlink:href="#resetDef" x="30" y="36" onmousedown="handleReset()"/>
                <g id="arrowUp" xlink:href="#dirArrow" transform="translate(30 24)" onmousedown="handlePan(0,-1)">
                  <use xlink:href="#rim" fill="#404040">
                        <set attributeName="fill" to="#808080" begin="arrowUp.mouseover" end="arrowUp.mouseout"/>
                  </use>
                  <path fill="none" stroke="white" stroke-width="1.5" d="M0,-3.0v7 M-2.5,-0.5L0,-3.0L2.5,-0.5"/>
                </g>
                <g id="arrowRight" xlink:href="#dirArrow" transform="rotate(90) translate(36 -43)" onmousedown="handlePan(1,0)">
                  <use xlink:href="#rim" fill="#404040">
                        <set attributeName="fill" to="#808080" begin="arrowRight.mouseover" end="arrowRight.mouseout"/>
                  </use>
                  <path fill="none" stroke="white" stroke-width="1.5" d="M0,-3.0v7 M-2.5,-0.5L0,-3.0L2.5,-0.5"/>
                </g>
                <g id="arrowDown" xlink:href="#dirArrow" transform="rotate(180) translate(-30 -48)" onmousedown="handlePan(0,1)">
                  <use xlink:href="#rim" fill="#404040">
                        <set attributeName="fill" to="#808080" begin="arrowDown.mouseover" end="arrowDown.mouseout"/>
                  </use>
                  <path fill="none" stroke="white" stroke-width="1.5" d="M0,-3.0v7 M-2.5,-0.5L0,-3.0L2.5,-0.5"/>
                </g>
                <g id="arrowLeft" xlink:href="#dirArrow" transform="rotate(270) translate(-36 17)" onmousedown="handlePan(-1,0)">
                  <use xlink:href="#rim" fill="#404040">
                        <set attributeName="fill" to="#808080" begin="arrowLeft.mouseover" end="arrowLeft.mouseout"/>
                  </use>
                  <path fill="none" stroke="white" stroke-width="1.5" d="M0,-3.0v7 M-2.5,-0.5L0,-3.0L2.5,-0.5"/>
                </g>
        </g>
        <svg viewBox="0 0 15 15" width="100%" height="30px" preserveAspectRatio="xMaxYMin meet">
         <g id="arrow_out" transform="scale(0.3 0.3)">
          <a xlink:href="group__ENCAP_ga4ac7387e49002d26462d7cdd094d238a_icgraph_org.svg" target="_base">
           <rect id="button" ry="5" rx="5" y="6" x="6" height="38" width="38"
                fill="#f2f5e9" fill-opacity="0.5" stroke="#606060" stroke-width="1.0"/>
           <path id="arrow"
             d="M 11.500037,31.436501 C 11.940474,20.09759 22.043105,11.32322 32.158766,21.979434 L 37.068811,17.246167 C 37.068811,17.246167 37.088388,32 37.088388,32 L 22.160133,31.978069 C 22.160133,31.978069 26.997745,27.140456 26.997745,27.140456 C 18.528582,18.264221 13.291696,25.230495 11.500037,31.436501 z"
             style="fill:#404040;"/>
          </a>
         </g>
        </svg>
</svg>
