<?xml version="1.0" encoding="UTF-8" standalone="no"?>
<!DOCTYPE svg PUBLIC "-//W3C//DTD SVG 1.1//EN"
 "http://www.w3.org/Graphics/SVG/1.1/DTD/svg11.dtd">
<!-- Generated by graphviz version 2.38.0 (20140413.2041)
 -->
<!-- Title: getNextNonCtrlMasterCon Pages: 1 -->
<svg width="793pt" height="66pt"
 viewBox="0.00 0.00 793.00 66.00" xmlns="http://www.w3.org/2000/svg" xmlns:xlink="http://www.w3.org/1999/xlink">
<g id="graph0" class="graph" transform="scale(1 1) rotate(0) translate(4 62)">
<title>getNextNonCtrlMasterCon</title>
<!-- Node1 -->
<g id="node1" class="node"><title>Node1</title>
<polygon fill="#bfbfbf" stroke="black" points="0,-19.5 0,-38.5 133,-38.5 133,-19.5 0,-19.5"/>
<text text-anchor="middle" x="66.5" y="-26.5" font-family="Helvetica,sans-Serif" font-size="10.00">getNextNonCtrlMasterCon</text>
</g>
<!-- Node2 -->
<g id="node2" class="node"><title>Node2</title>
<g id="a_node2"><a xlink:href="cipioconnection_8c.html#a2b592280d464553c451f653c1a45a052" target="_top" xlink:title="closeIOConnection">
<polygon fill="none" stroke="black" points="190.5,-38.5 190.5,-57.5 290.5,-57.5 290.5,-38.5 190.5,-38.5"/>
<text text-anchor="middle" x="240.5" y="-45.5" font-family="Helvetica,sans-Serif" font-size="10.00">closeIOConnection</text>
</a>
</g>
</g>
<!-- Node1&#45;&gt;Node2 -->
<g id="edge1" class="edge"><title>Node1&#45;&gt;Node2</title>
<path fill="none" stroke="midnightblue" d="M142.962,-37.3359C159.071,-39.1154 175.682,-40.9503 190.486,-42.5857"/>
<polygon fill="midnightblue" stroke="midnightblue" points="143.34,-33.8565 133.016,-36.2373 142.572,-40.8142 143.34,-33.8565"/>
</g>
<!-- Node7 -->
<g id="node7" class="node"><title>Node7</title>
<g id="a_node7"><a xlink:href="cipioconnection_8c.html#aca969065c50443a0e464dbe318de06d4" target="_top" xlink:title="handleIOConnectionTimeOut">
<polygon fill="none" stroke="black" points="169,-0.5 169,-19.5 312,-19.5 312,-0.5 169,-0.5"/>
<text text-anchor="middle" x="240.5" y="-7.5" font-family="Helvetica,sans-Serif" font-size="10.00">handleIOConnectionTimeOut</text>
</a>
</g>
</g>
<!-- Node1&#45;&gt;Node7 -->
<g id="edge6" class="edge"><title>Node1&#45;&gt;Node7</title>
<path fill="none" stroke="midnightblue" d="M142.975,-20.6626C151.532,-19.7174 160.229,-18.7567 168.722,-17.8185"/>
<polygon fill="midnightblue" stroke="midnightblue" points="142.572,-17.1858 133.016,-21.7627 143.34,-24.1435 142.572,-17.1858"/>
</g>
<!-- Node3 -->
<g id="node3" class="node"><title>Node3</title>
<g id="a_node3"><a xlink:href="cipioconnection_8h.html#ae83037a608b08d325fc34869395f37a3" target="_top" xlink:title="Setup all data in order to establish an IO connection. ">
<polygon fill="none" stroke="black" points="348,-19.5 348,-38.5 458,-38.5 458,-19.5 348,-19.5"/>
<text text-anchor="middle" x="403" y="-26.5" font-family="Helvetica,sans-Serif" font-size="10.00">establishIOConnction</text>
</a>
</g>
</g>
<!-- Node2&#45;&gt;Node3 -->
<g id="edge2" class="edge"><title>Node2&#45;&gt;Node3</title>
<path fill="none" stroke="midnightblue" d="M300.535,-41.0114C316.055,-39.1741 332.716,-37.2019 347.959,-35.3974"/>
<polygon fill="midnightblue" stroke="midnightblue" points="300.047,-37.5447 290.527,-42.1961 300.87,-44.4962 300.047,-37.5447"/>
</g>
<!-- Node4 -->
<g id="node4" class="node"><title>Node4</title>
<g id="a_node4"><a xlink:href="cipconnectionmanager_8h.html#abbdafd9e83df08856ba6de13890cf40f" target="_top" xlink:title="Connection_Manager_Init">
<polygon fill="none" stroke="black" points="494,-19.5 494,-38.5 622,-38.5 622,-19.5 494,-19.5"/>
<text text-anchor="middle" x="558" y="-26.5" font-family="Helvetica,sans-Serif" font-size="10.00">Connection_Manager_Init</text>
</a>
</g>
</g>
<!-- Node3&#45;&gt;Node4 -->
<g id="edge3" class="edge"><title>Node3&#45;&gt;Node4</title>
<path fill="none" stroke="midnightblue" d="M468.509,-29C476.922,-29 485.534,-29 493.924,-29"/>
<polygon fill="midnightblue" stroke="midnightblue" points="468.373,-25.5001 458.373,-29 468.373,-32.5001 468.373,-25.5001"/>
</g>
<!-- Node5 -->
<g id="node5" class="node"><title>Node5</title>
<g id="a_node5"><a xlink:href="group__CIP__API.html#ga8fe857c3e88bf986fda82fbac6702c9f" target="_top" xlink:title="Initialize and setup the CIP&#45;stack. ">
<polygon fill="none" stroke="black" points="658,-19.5 658,-38.5 711,-38.5 711,-19.5 658,-19.5"/>
<text text-anchor="middle" x="684.5" y="-26.5" font-family="Helvetica,sans-Serif" font-size="10.00">CIP_Init</text>
</a>
</g>
</g>
<!-- Node4&#45;&gt;Node5 -->
<g id="edge4" class="edge"><title>Node4&#45;&gt;Node5</title>
<path fill="none" stroke="midnightblue" d="M632.345,-29C641.478,-29 650.282,-29 657.936,-29"/>
<polygon fill="midnightblue" stroke="midnightblue" points="632.344,-25.5001 622.344,-29 632.344,-32.5001 632.344,-25.5001"/>
</g>
<!-- Node6 -->
<g id="node6" class="node"><title>Node6</title>
<g id="a_node6"><a xlink:href="LM3S8962_2sample__application_2main_8c.html#a840291bc02cba5474a4cb46a9b9566fe" target="_top" xlink:title="main">
<polygon fill="none" stroke="black" points="747,-19.5 747,-38.5 785,-38.5 785,-19.5 747,-19.5"/>
<text text-anchor="middle" x="766" y="-26.5" font-family="Helvetica,sans-Serif" font-size="10.00">main</text>
</a>
</g>
</g>
<!-- Node5&#45;&gt;Node6 -->
<g id="edge5" class="edge"><title>Node5&#45;&gt;Node6</title>
<path fill="none" stroke="midnightblue" d="M721.231,-29C730.063,-29 739.162,-29 746.761,-29"/>
<polygon fill="midnightblue" stroke="midnightblue" points="721.092,-25.5001 711.092,-29 721.092,-32.5001 721.092,-25.5001"/>
</g>
<!-- Node7&#45;&gt;Node3 -->
<g id="edge7" class="edge"><title>Node7&#45;&gt;Node3</title>
<path fill="none" stroke="midnightblue" d="M322.469,-19.5851C331.092,-20.6059 339.704,-21.6254 347.907,-22.5964"/>
<polygon fill="midnightblue" stroke="midnightblue" points="322.707,-16.0889 312.365,-18.389 321.884,-23.0404 322.707,-16.0889"/>
</g>
</g>
</svg>
