<?xml version="1.0" encoding="UTF-8" standalone="no"?>
<!DOCTYPE svg PUBLIC "-//W3C//DTD SVG 1.1//EN"
 "http://www.w3.org/Graphics/SVG/1.1/DTD/svg11.dtd">
<!-- Generated by graphviz version 2.38.0 (20140413.2041)
 -->
<!-- Title: initializeConnectionManagerData Pages: 1 -->
<svg width="357pt" height="66pt"
 viewBox="0.00 0.00 357.00 66.00" xmlns="http://www.w3.org/2000/svg" xmlns:xlink="http://www.w3.org/1999/xlink">
<g id="graph0" class="graph" transform="scale(1 1) rotate(0) translate(4 62)">
<title>initializeConnectionManagerData</title>
<!-- Node1 -->
<g id="node1" class="node"><title>Node1</title>
<polygon fill="#bfbfbf" stroke="black" points="0,-19.5 0,-38.5 160,-38.5 160,-19.5 0,-19.5"/>
<text text-anchor="middle" x="80" y="-26.5" font-family="Helvetica,sans-Serif" font-size="10.00">initializeConnectionManagerData</text>
</g>
<!-- Node2 -->
<g id="node2" class="node"><title>Node2</title>
<g id="a_node2"><a xlink:href="cipclass3connection_8c.html#a9d2f4512129d9d38b1849f862a7ddbe0" target="_top" xlink:title="initializeClass3ConnectionData">
<polygon fill="none" stroke="black" points="196,-38.5 196,-57.5 349,-57.5 349,-38.5 196,-38.5"/>
<text text-anchor="middle" x="272.5" y="-45.5" font-family="Helvetica,sans-Serif" font-size="10.00">initializeClass3ConnectionData</text>
</a>
</g>
</g>
<!-- Node1&#45;&gt;Node2 -->
<g id="edge1" class="edge"><title>Node1&#45;&gt;Node2</title>
<path fill="none" stroke="midnightblue" d="M160.134,-36.8926C168.657,-37.7427 177.358,-38.6105 185.952,-39.4676"/>
<polygon fill="midnightblue" stroke="midnightblue" points="185.676,-42.9574 195.974,-40.4672 186.371,-35.992 185.676,-42.9574"/>
</g>
<!-- Node3 -->
<g id="node3" class="node"><title>Node3</title>
<g id="a_node3"><a xlink:href="appcontype_8c.html#a33c79fb728487e4d7df4c438a2fab903" target="_top" xlink:title="initializeIOConnectionData">
<polygon fill="none" stroke="black" points="206,-0.5 206,-19.5 339,-19.5 339,-0.5 206,-0.5"/>
<text text-anchor="middle" x="272.5" y="-7.5" font-family="Helvetica,sans-Serif" font-size="10.00">initializeIOConnectionData</text>
</a>
</g>
</g>
<!-- Node1&#45;&gt;Node3 -->
<g id="edge2" class="edge"><title>Node1&#45;&gt;Node3</title>
<path fill="none" stroke="midnightblue" d="M160.134,-21.1074C171.915,-19.9324 184.034,-18.7236 195.743,-17.5558"/>
<polygon fill="midnightblue" stroke="midnightblue" points="196.305,-21.0172 205.908,-16.5419 195.61,-14.0518 196.305,-21.0172"/>
</g>
</g>
</svg>
