<?xml version="1.0" encoding="UTF-8" standalone="no"?>
<!DOCTYPE svg PUBLIC "-//W3C//DTD SVG 1.1//EN"
 "http://www.w3.org/Graphics/SVG/1.1/DTD/svg11.dtd">
<!-- Generated by graphviz version 2.38.0 (20140413.2041)
 -->
<!-- Title: OpenProducingPointToPointConnection Pages: 1 -->
<svg width="868pt" height="85pt"
 viewBox="0.00 0.00 868.00 85.00" xmlns="http://www.w3.org/2000/svg" xmlns:xlink="http://www.w3.org/1999/xlink">
<g id="graph0" class="graph" transform="scale(1 1) rotate(0) translate(4 81)">
<title>OpenProducingPointToPointConnection</title>
<!-- Node1 -->
<g id="node1" class="node"><title>Node1</title>
<polygon fill="#bfbfbf" stroke="black" points="0,-14 0,-44 140,-44 140,-14 0,-14"/>
<text text-anchor="start" x="8" y="-32" font-family="Helvetica,sans-Serif" font-size="10.00">OpenProducingPointToPoint</text>
<text text-anchor="middle" x="70" y="-21" font-family="Helvetica,sans-Serif" font-size="10.00">Connection</text>
</g>
<!-- Node2 -->
<g id="node2" class="node"><title>Node2</title>
<g id="a_node2"><a xlink:href="group__CIP__CALLBACK__API.html#ga9d7f3bd3280b10ad3cc4ed2f5dc9c339" target="_top" xlink:title="create a producing or consuming UDP socket ">
<polygon fill="none" stroke="black" points="176,-19.5 176,-38.5 300,-38.5 300,-19.5 176,-19.5"/>
<text text-anchor="middle" x="238" y="-26.5" font-family="Helvetica,sans-Serif" font-size="10.00">IApp_CreateUDPSocket</text>
</a>
</g>
</g>
<!-- Node1&#45;&gt;Node2 -->
<g id="edge1" class="edge"><title>Node1&#45;&gt;Node2</title>
<path fill="none" stroke="midnightblue" d="M140.437,-29C148.775,-29 157.3,-29 165.664,-29"/>
<polygon fill="midnightblue" stroke="midnightblue" points="165.762,-32.5001 175.762,-29 165.762,-25.5001 165.762,-32.5001"/>
</g>
<!-- Node3 -->
<g id="node3" class="node"><title>Node3</title>
<g id="a_node3"><a xlink:href="LM3S8962_2networkhandler_8c.html#a19261c4005e9187267c3b008f7c255d9" target="_top" xlink:title="udp_registered_receive\l_callback">
<polygon fill="none" stroke="black" points="336,-14 336,-44 453,-44 453,-14 336,-14"/>
<text text-anchor="start" x="344" y="-32" font-family="Helvetica,sans-Serif" font-size="10.00">udp_registered_receive</text>
<text text-anchor="middle" x="394.5" y="-21" font-family="Helvetica,sans-Serif" font-size="10.00">_callback</text>
</a>
</g>
</g>
<!-- Node2&#45;&gt;Node3 -->
<g id="edge2" class="edge"><title>Node2&#45;&gt;Node3</title>
<path fill="none" stroke="midnightblue" d="M300.062,-29C308.458,-29 317.12,-29 325.628,-29"/>
<polygon fill="midnightblue" stroke="midnightblue" points="325.901,-32.5001 335.901,-29 325.901,-25.5001 325.901,-32.5001"/>
</g>
<!-- Node4 -->
<g id="node4" class="node"><title>Node4</title>
<g id="a_node4"><a xlink:href="group__CIP__API.html#gabab611059fa1fb11c6c7ef36902a645c" target="_top" xlink:title="Notify the connection manager that data for a connection has been received. ">
<polygon fill="none" stroke="black" points="489,-19.5 489,-38.5 644,-38.5 644,-19.5 489,-19.5"/>
<text text-anchor="middle" x="566.5" y="-26.5" font-family="Helvetica,sans-Serif" font-size="10.00">handleReceivedConnectedData</text>
</a>
</g>
</g>
<!-- Node3&#45;&gt;Node4 -->
<g id="edge3" class="edge"><title>Node3&#45;&gt;Node4</title>
<path fill="none" stroke="midnightblue" d="M453.054,-29C461.293,-29 469.917,-29 478.568,-29"/>
<polygon fill="midnightblue" stroke="midnightblue" points="478.714,-32.5001 488.714,-29 478.714,-25.5001 478.714,-32.5001"/>
</g>
<!-- Node5 -->
<g id="node5" class="node"><title>Node5</title>
<g id="a_node5"><a xlink:href="group__ENCAP.html#ga6aeafd791e544ba9790fa507571785de" target="_top" xlink:title="createCPFstructure">
<polygon fill="none" stroke="black" points="682,-38.5 682,-57.5 784,-57.5 784,-38.5 682,-38.5"/>
<text text-anchor="middle" x="733" y="-45.5" font-family="Helvetica,sans-Serif" font-size="10.00">createCPFstructure</text>
</a>
</g>
</g>
<!-- Node4&#45;&gt;Node5 -->
<g id="edge4" class="edge"><title>Node4&#45;&gt;Node5</title>
<path fill="none" stroke="midnightblue" d="M644.452,-37.8881C653.587,-38.9432 662.81,-40.0085 671.667,-41.0315"/>
<polygon fill="midnightblue" stroke="midnightblue" points="671.534,-44.5393 681.87,-42.2099 672.337,-37.5855 671.534,-44.5393"/>
</g>
<!-- Node8 -->
<g id="node8" class="node"><title>Node8</title>
<g id="a_node8"><a xlink:href="cipconnectionmanager_8c.html#a9b1a7a0f7aca964101b6e0b931841cd0" target="_top" xlink:title="getConnectedObject">
<polygon fill="none" stroke="black" points="680,-0.5 680,-19.5 786,-19.5 786,-0.5 680,-0.5"/>
<text text-anchor="middle" x="733" y="-7.5" font-family="Helvetica,sans-Serif" font-size="10.00">getConnectedObject</text>
</a>
</g>
</g>
<!-- Node4&#45;&gt;Node8 -->
<g id="edge7" class="edge"><title>Node4&#45;&gt;Node8</title>
<path fill="none" stroke="midnightblue" d="M644.452,-20.1119C653.012,-19.1232 661.65,-18.1256 669.991,-17.1621"/>
<polygon fill="midnightblue" stroke="midnightblue" points="670.461,-20.6312 679.994,-16.0068 669.658,-13.6774 670.461,-20.6312"/>
</g>
<!-- Node6 -->
<g id="node6" class="node"><title>Node6</title>
<g id="a_node6"><a xlink:href="group__ENCAP.html#ga6ce01de4023c01608d2bdfdb584d59d3" target="_top" xlink:title="Reads EIP_UINT16 from *pa_buf and converts little endian to host. ">
<polygon fill="none" stroke="black" points="822,-57.5 822,-76.5 860,-76.5 860,-57.5 822,-57.5"/>
<text text-anchor="middle" x="841" y="-64.5" font-family="Helvetica,sans-Serif" font-size="10.00">ltohs</text>
</a>
</g>
</g>
<!-- Node5&#45;&gt;Node6 -->
<g id="edge5" class="edge"><title>Node5&#45;&gt;Node6</title>
<path fill="none" stroke="midnightblue" d="M784.206,-56.9992C793.688,-58.6987 803.289,-60.4197 811.791,-61.9437"/>
<polygon fill="midnightblue" stroke="midnightblue" points="811.421,-65.433 821.881,-63.7523 812.656,-58.5428 811.421,-65.433"/>
</g>
<!-- Node7 -->
<g id="node7" class="node"><title>Node7</title>
<g id="a_node7"><a xlink:href="group__ENCAP.html#ga4ac7387e49002d26462d7cdd094d238a" target="_top" xlink:title="Reads EIP_UINT32 from *pa_buf and converts little endian to host. ">
<polygon fill="none" stroke="black" points="823.5,-19.5 823.5,-38.5 858.5,-38.5 858.5,-19.5 823.5,-19.5"/>
<text text-anchor="middle" x="841" y="-26.5" font-family="Helvetica,sans-Serif" font-size="10.00">ltohl</text>
</a>
</g>
</g>
<!-- Node5&#45;&gt;Node7 -->
<g id="edge6" class="edge"><title>Node5&#45;&gt;Node7</title>
<path fill="none" stroke="midnightblue" d="M784.206,-39.0008C794.25,-37.2005 804.427,-35.3763 813.291,-33.7875"/>
<polygon fill="midnightblue" stroke="midnightblue" points="814.128,-37.1933 823.354,-31.9838 812.893,-30.3031 814.128,-37.1933"/>
</g>
</g>
</svg>
