<?xml version="1.0" encoding="UTF-8" standalone="no"?>
<!DOCTYPE svg PUBLIC "-//W3C//DTD SVG 1.1//EN"
 "http://www.w3.org/Graphics/SVG/1.1/DTD/svg11.dtd">
<!-- Generated by graphviz version 2.38.0 (20140413.2041)
 -->
<!-- Title: closeIOConnection Pages: 1 -->
<svg width="498pt" height="166pt"
 viewBox="0.00 0.00 498.00 165.50" xmlns="http://www.w3.org/2000/svg" xmlns:xlink="http://www.w3.org/1999/xlink">
<g id="graph0" class="graph" transform="scale(1 1) rotate(0) translate(4 161.5)">
<title>closeIOConnection</title>
<!-- Node1 -->
<g id="node1" class="node"><title>Node1</title>
<polygon fill="#bfbfbf" stroke="black" points="0,-66.5 0,-85.5 100,-85.5 100,-66.5 0,-66.5"/>
<text text-anchor="middle" x="50" y="-73.5" font-family="Helvetica,sans-Serif" font-size="10.00">closeIOConnection</text>
</g>
<!-- Node2 -->
<g id="node2" class="node"><title>Node2</title>
<g id="a_node2"><a xlink:href="appcontype_8c.html#a55477541835f20888759b441419c1ea4" target="_top" xlink:title="Close all connection producing the same input and have the same type (i.e., listen only or input only...">
<polygon fill="none" stroke="black" points="150,-127 150,-157 286,-157 286,-127 150,-127"/>
<text text-anchor="start" x="158" y="-145" font-family="Helvetica,sans-Serif" font-size="10.00">closeAllConnsForInputWith</text>
<text text-anchor="middle" x="218" y="-134" font-family="Helvetica,sans-Serif" font-size="10.00">SameType</text>
</a>
</g>
</g>
<!-- Node1&#45;&gt;Node2 -->
<g id="edge1" class="edge"><title>Node1&#45;&gt;Node2</title>
<path fill="none" stroke="midnightblue" d="M72.9004,-85.6022C89.9994,-93.0198 114.4,-103.431 136,-112 145.613,-115.813 155.924,-119.749 165.86,-123.465"/>
<polygon fill="midnightblue" stroke="midnightblue" points="164.644,-126.747 175.237,-126.949 167.082,-120.185 164.644,-126.747"/>
</g>
<!-- Node3 -->
<g id="node3" class="node"><title>Node3</title>
<g id="a_node3"><a xlink:href="group__CIP__CALLBACK__API.html#ga69b8c5aa40b203bd08a0545402142216" target="_top" xlink:title="Inform the application on changes occurred for a connection. ">
<polygon fill="none" stroke="black" points="349,-110.5 349,-129.5 477,-129.5 477,-110.5 349,-110.5"/>
<text text-anchor="middle" x="413" y="-117.5" font-family="Helvetica,sans-Serif" font-size="10.00">IApp_IOConnectionEvent</text>
</a>
</g>
</g>
<!-- Node1&#45;&gt;Node3 -->
<g id="edge7" class="edge"><title>Node1&#45;&gt;Node3</title>
<path fill="none" stroke="midnightblue" d="M100.062,-81.9798C161.524,-89.4711 267.396,-102.375 338.538,-111.046"/>
<polygon fill="midnightblue" stroke="midnightblue" points="338.423,-114.558 348.773,-112.294 339.27,-107.609 338.423,-114.558"/>
</g>
<!-- Node4 -->
<g id="node4" class="node"><title>Node4</title>
<g id="a_node4"><a xlink:href="cipioconnection_8c.html#a3aa0de23bee41939b97836678ee48e39" target="_top" xlink:title="close the communication channels of the given connection and remove it from the active connections li...">
<polygon fill="none" stroke="black" points="136,-39 136,-69 300,-69 300,-39 136,-39"/>
<text text-anchor="start" x="144" y="-57" font-family="Helvetica,sans-Serif" font-size="10.00">closeCommChannelsAndRemove</text>
<text text-anchor="middle" x="218" y="-46" font-family="Helvetica,sans-Serif" font-size="10.00">FromActiveConnsList</text>
</a>
</g>
</g>
<!-- Node1&#45;&gt;Node4 -->
<g id="edge3" class="edge"><title>Node1&#45;&gt;Node4</title>
<path fill="none" stroke="midnightblue" d="M100.356,-69.4588C108.48,-68.3821 117.122,-67.2368 125.886,-66.0753"/>
<polygon fill="midnightblue" stroke="midnightblue" points="126.358,-69.5435 135.811,-64.76 125.438,-62.6042 126.358,-69.5435"/>
</g>
<!-- Node7 -->
<g id="node7" class="node"><title>Node7</title>
<g id="a_node7"><a xlink:href="appcontype_8c.html#aeeda244766a510093c5c31e49710edb2" target="_top" xlink:title="check if there exists an producing multicast exclusive owner or listen only connection that should pr...">
<polygon fill="none" stroke="black" points="151.5,-0.5 151.5,-19.5 284.5,-19.5 284.5,-0.5 151.5,-0.5"/>
<text text-anchor="middle" x="218" y="-7.5" font-family="Helvetica,sans-Serif" font-size="10.00">getNextNonCtrlMasterCon</text>
</a>
</g>
</g>
<!-- Node1&#45;&gt;Node7 -->
<g id="edge6" class="edge"><title>Node1&#45;&gt;Node7</title>
<path fill="none" stroke="midnightblue" d="M65.7972,-66.4808C82.3316,-56.2097 110.178,-39.9873 136,-30 143.588,-27.0653 151.744,-24.4557 159.856,-22.1697"/>
<polygon fill="midnightblue" stroke="midnightblue" points="160.929,-25.5057 169.686,-19.5417 159.121,-18.7432 160.929,-25.5057"/>
</g>
<!-- Node2&#45;&gt;Node3 -->
<g id="edge2" class="edge"><title>Node2&#45;&gt;Node3</title>
<path fill="none" stroke="midnightblue" d="M286.231,-134.336C303.237,-132.398 321.582,-130.307 338.864,-128.337"/>
<polygon fill="midnightblue" stroke="midnightblue" points="339.359,-131.803 348.898,-127.193 338.566,-124.848 339.359,-131.803"/>
</g>
<!-- Node5 -->
<g id="node5" class="node"><title>Node5</title>
<g id="a_node5"><a xlink:href="LM3S8962_2networkhandler_8c.html#ace50de555ae5f54fef339d9e66a34f80" target="_top" xlink:title="IApp_CloseSocket_udp">
<polygon fill="none" stroke="black" points="353.5,-58.5 353.5,-77.5 472.5,-77.5 472.5,-58.5 353.5,-58.5"/>
<text text-anchor="middle" x="413" y="-65.5" font-family="Helvetica,sans-Serif" font-size="10.00">IApp_CloseSocket_udp</text>
</a>
</g>
</g>
<!-- Node4&#45;&gt;Node5 -->
<g id="edge4" class="edge"><title>Node4&#45;&gt;Node5</title>
<path fill="none" stroke="midnightblue" d="M300.01,-59.8764C314.454,-60.9241 329.373,-62.0063 343.427,-63.0258"/>
<polygon fill="midnightblue" stroke="midnightblue" points="343.262,-66.5229 353.489,-63.7557 343.768,-59.5413 343.262,-66.5229"/>
</g>
<!-- Node6 -->
<g id="node6" class="node"><title>Node6</title>
<g id="a_node6"><a xlink:href="cipconnectionmanager_8c.html#a138378e54c06c512366f0c619ae58005" target="_top" xlink:title="removeFromActiveConnections">
<polygon fill="none" stroke="black" points="336,-20.5 336,-39.5 490,-39.5 490,-20.5 336,-20.5"/>
<text text-anchor="middle" x="413" y="-27.5" font-family="Helvetica,sans-Serif" font-size="10.00">removeFromActiveConnections</text>
</a>
</g>
</g>
<!-- Node4&#45;&gt;Node6 -->
<g id="edge5" class="edge"><title>Node4&#45;&gt;Node6</title>
<path fill="none" stroke="midnightblue" d="M300.01,-43.9262C308.537,-42.8659 317.229,-41.785 325.812,-40.7177"/>
<polygon fill="midnightblue" stroke="midnightblue" points="326.328,-44.1806 335.819,-39.4733 325.464,-37.2341 326.328,-44.1806"/>
</g>
</g>
</svg>
