<?xml version="1.0" encoding="UTF-8" standalone="no"?>
<!DOCTYPE svg PUBLIC "-//W3C//DTD SVG 1.1//EN"
 "http://www.w3.org/Graphics/SVG/1.1/DTD/svg11.dtd">
<!-- Generated by graphviz version 2.36.0 (20140111.2315)
 -->
<!-- Title: src/ports Pages: 1 -->
<svg width="254pt" height="231pt"
 viewBox="0.00 0.00 254.00 231.00" xmlns="http://www.w3.org/2000/svg" xmlns:xlink="http://www.w3.org/1999/xlink">
<g id="graph0" class="graph" transform="scale(1 1) rotate(0) translate(4 227)">
<title>src/ports</title>
<g id="clust1" class="cluster"><title>clusterdir_68267d1309a1af8e8297ef4c3efbcdba</title>
<g id="a_clust1"><a xlink:href="dir_68267d1309a1af8e8297ef4c3efbcdba.html" target="_top" xlink:title="src">
<polygon fill="#ddddee" stroke="black" points="8,-128 8,-215 238,-215 238,-128 8,-128"/>
<text text-anchor="middle" x="123" y="-203" font-family="Helvetica,sans-Serif" font-size="10.00">src</text>
</a>
</g>
</g>
<g id="clust2" class="cluster"><title>clusterdir_efbcf68973d247bbf15f9eecae7f24e3</title>
<g id="a_clust2"><a xlink:href="dir_efbcf68973d247bbf15f9eecae7f24e3.html" target="_top">
<polygon fill="#eeeeff" stroke="black" points="16,-136 16,-188 230,-188 230,-136 16,-136"/>
</a>
</g>
</g>
<!-- dir_efbcf68973d247bbf15f9eecae7f24e3 -->
<g id="node1" class="node"><title>dir_efbcf68973d247bbf15f9eecae7f24e3</title>
<text text-anchor="middle" x="51" y="-159.5" font-family="Helvetica,sans-Serif" font-size="10.00">ports</text>
</g>
<!-- dir_527d9ccdfcaa9588043fa6eaabe08755 -->
<g id="node4" class="node"><title>dir_527d9ccdfcaa9588043fa6eaabe08755</title>
<g id="a_node4"><a xlink:href="dir_527d9ccdfcaa9588043fa6eaabe08755.html" target="_top" xlink:title="cip">
<polygon fill="none" stroke="black" points="142,-108 88,-108 88,-72 142,-72 142,-108"/>
<text text-anchor="middle" x="115" y="-87.5" font-family="Helvetica,sans-Serif" font-size="10.00">cip</text>
</a>
</g>
</g>
<!-- dir_efbcf68973d247bbf15f9eecae7f24e3&#45;&gt;dir_527d9ccdfcaa9588043fa6eaabe08755 -->
<g id="edge1" class="edge"><title>dir_efbcf68973d247bbf15f9eecae7f24e3&#45;&gt;dir_527d9ccdfcaa9588043fa6eaabe08755</title>
<path fill="none" stroke="black" d="M60.9045,-143.697C67.8491,-135.135 77.2477,-124.656 86.3171,-115.304"/>
<polygon fill="black" stroke="black" points="88.9041,-117.666 93.4667,-108.104 83.937,-112.734 88.9041,-117.666"/>
<g id="a_edge1&#45;headlabel"><a xlink:href="dir_000003_000001.html" target="_top" xlink:title="16">
<text text-anchor="middle" x="88.386" y="-119.718" font-family="Helvetica,sans-Serif" font-size="10.00">16</text>
</a>
</g>
</g>
<!-- dir_e9add8f8d9ae9673501eada5427ffe52 -->
<g id="node5" class="node"><title>dir_e9add8f8d9ae9673501eada5427ffe52</title>
<g id="a_node5"><a xlink:href="dir_e9add8f8d9ae9673501eada5427ffe52.html" target="_top" xlink:title="enet_encap">
<polygon fill="none" stroke="black" points="148.25,-36 81.75,-36 81.75,-0 148.25,-0 148.25,-36"/>
<text text-anchor="middle" x="115" y="-15.5" font-family="Helvetica,sans-Serif" font-size="10.00">enet_encap</text>
</a>
</g>
</g>
<!-- dir_efbcf68973d247bbf15f9eecae7f24e3&#45;&gt;dir_e9add8f8d9ae9673501eada5427ffe52 -->
<g id="edge2" class="edge"><title>dir_efbcf68973d247bbf15f9eecae7f24e3&#45;&gt;dir_e9add8f8d9ae9673501eada5427ffe52</title>
<path fill="none" stroke="black" d="M45.2747,-143.94C40.0519,-125.256 34.7118,-94.9044 46,-72 52.0129,-59.7995 62.3328,-49.6245 73.1858,-41.5596"/>
<polygon fill="black" stroke="black" points="75.2831,-44.3648 81.5266,-35.8051 71.3079,-38.6031 75.2831,-44.3648"/>
<g id="a_edge2&#45;headlabel"><a xlink:href="dir_000003_000002.html" target="_top" xlink:title="3">
<text text-anchor="middle" x="73.9367" y="-46.2432" font-family="Helvetica,sans-Serif" font-size="10.00">3</text>
</a>
</g>
</g>
<!-- dir_c917a51cd5b3c267ef51fcd06123381d -->
<g id="node2" class="node"><title>dir_c917a51cd5b3c267ef51fcd06123381d</title>
<g id="a_node2"><a xlink:href="dir_c917a51cd5b3c267ef51fcd06123381d.html" target="_top" xlink:title="POSIX">
<polygon fill="white" stroke="red" points="222,-180 168,-180 168,-144 222,-144 222,-180"/>
<text text-anchor="middle" x="195" y="-159.5" font-family="Helvetica,sans-Serif" font-size="10.00">POSIX</text>
</a>
</g>
</g>
<!-- dir_c917a51cd5b3c267ef51fcd06123381d&#45;&gt;dir_527d9ccdfcaa9588043fa6eaabe08755 -->
<g id="edge6" class="edge"><title>dir_c917a51cd5b3c267ef51fcd06123381d&#45;&gt;dir_527d9ccdfcaa9588043fa6eaabe08755</title>
<path fill="none" stroke="black" d="M176.453,-143.719C170.886,-138.608 164.734,-133.035 159,-128 154.078,-123.678 148.788,-119.141 143.643,-114.782"/>
<polygon fill="black" stroke="black" points="145.653,-111.9 135.749,-108.137 141.145,-117.255 145.653,-111.9"/>
<g id="a_edge6&#45;headlabel"><a xlink:href="dir_000004_000001.html" target="_top" xlink:title="7">
<text text-anchor="middle" x="150.231" y="-109.542" font-family="Helvetica,sans-Serif" font-size="10.00">7</text>
</a>
</g>
</g>
<!-- dir_c917a51cd5b3c267ef51fcd06123381d&#45;&gt;dir_e9add8f8d9ae9673501eada5427ffe52 -->
<g id="edge7" class="edge"><title>dir_c917a51cd5b3c267ef51fcd06123381d&#45;&gt;dir_e9add8f8d9ae9673501eada5427ffe52</title>
<path fill="none" stroke="black" d="M187.402,-143.906C179.121,-125.716 165.152,-96.2708 151,-72 145.677,-62.8714 139.347,-53.2193 133.491,-44.6893"/>
<polygon fill="black" stroke="black" points="136.213,-42.4743 127.621,-36.2753 130.472,-46.4794 136.213,-42.4743"/>
<g id="a_edge7&#45;headlabel"><a xlink:href="dir_000004_000002.html" target="_top" xlink:title="1">
<text text-anchor="middle" x="140.598" y="-41.298" font-family="Helvetica,sans-Serif" font-size="10.00">1</text>
</a>
</g>
</g>
<!-- dir_313caf1132e152dd9b58bea13a4052ca -->
<g id="node6" class="node"><title>dir_313caf1132e152dd9b58bea13a4052ca</title>
<g id="a_node6"><a xlink:href="dir_313caf1132e152dd9b58bea13a4052ca.html" target="_top" xlink:title="utils">
<polygon fill="none" stroke="black" points="228,-36 174,-36 174,-0 228,-0 228,-36"/>
<text text-anchor="middle" x="201" y="-15.5" font-family="Helvetica,sans-Serif" font-size="10.00">utils</text>
</a>
</g>
</g>
<!-- dir_c917a51cd5b3c267ef51fcd06123381d&#45;&gt;dir_313caf1132e152dd9b58bea13a4052ca -->
<g id="edge8" class="edge"><title>dir_c917a51cd5b3c267ef51fcd06123381d&#45;&gt;dir_313caf1132e152dd9b58bea13a4052ca</title>
<path fill="none" stroke="black" d="M195.724,-143.871C196.746,-119.67 198.625,-75.2108 199.843,-46.3932"/>
<polygon fill="black" stroke="black" points="203.348,-46.3281 200.274,-36.1893 196.355,-46.0326 203.348,-46.3281"/>
<g id="a_edge8&#45;headlabel"><a xlink:href="dir_000004_000008.html" target="_top" xlink:title="1">
<text text-anchor="middle" x="206.033" y="-47.5394" font-family="Helvetica,sans-Serif" font-size="10.00">1</text>
</a>
</g>
</g>
<!-- dir_f22a9ded9bfe3c37a295ed0507a7aead -->
<g id="node3" class="node"><title>dir_f22a9ded9bfe3c37a295ed0507a7aead</title>
<g id="a_node3"><a xlink:href="dir_f22a9ded9bfe3c37a295ed0507a7aead.html" target="_top" xlink:title="WIN32">
<polygon fill="white" stroke="red" points="150,-180 96,-180 96,-144 150,-144 150,-180"/>
<text text-anchor="middle" x="123" y="-159.5" font-family="Helvetica,sans-Serif" font-size="10.00">WIN32</text>
</a>
</g>
</g>
<!-- dir_f22a9ded9bfe3c37a295ed0507a7aead&#45;&gt;dir_527d9ccdfcaa9588043fa6eaabe08755 -->
<g id="edge11" class="edge"><title>dir_f22a9ded9bfe3c37a295ed0507a7aead&#45;&gt;dir_527d9ccdfcaa9588043fa6eaabe08755</title>
<path fill="none" stroke="black" d="M121.022,-143.697C120.141,-135.983 119.081,-126.712 118.099,-118.112"/>
<polygon fill="black" stroke="black" points="121.568,-117.642 116.955,-108.104 114.613,-118.437 121.568,-117.642"/>
<g id="a_edge11&#45;headlabel"><a xlink:href="dir_000005_000001.html" target="_top" xlink:title="5">
<text text-anchor="middle" x="124.797" y="-118.391" font-family="Helvetica,sans-Serif" font-size="10.00">5</text>
</a>
</g>
</g>
<!-- dir_527d9ccdfcaa9588043fa6eaabe08755&#45;&gt;dir_efbcf68973d247bbf15f9eecae7f24e3 -->
<g id="edge3" class="edge"><title>dir_527d9ccdfcaa9588043fa6eaabe08755&#45;&gt;dir_efbcf68973d247bbf15f9eecae7f24e3</title>
<path fill="none" stroke="black" d="M105.257,-108.104C98.3504,-116.636 88.9685,-127.108 79.8942,-136.478"/>
<polygon fill="black" stroke="black" points="77.2917,-134.131 72.736,-143.697 82.2624,-139.06 77.2917,-134.131"/>
<g id="a_edge3&#45;headlabel"><a xlink:href="dir_000001_000003.html" target="_top" xlink:title="2">
<text text-anchor="middle" x="77.8066" y="-127.08" font-family="Helvetica,sans-Serif" font-size="10.00">2</text>
</a>
</g>
</g>
<!-- dir_527d9ccdfcaa9588043fa6eaabe08755&#45;&gt;dir_e9add8f8d9ae9673501eada5427ffe52 -->
<g id="edge4" class="edge"><title>dir_527d9ccdfcaa9588043fa6eaabe08755&#45;&gt;dir_e9add8f8d9ae9673501eada5427ffe52</title>
<path fill="none" stroke="black" d="M109.084,-71.6966C108.289,-63.9827 108.062,-54.7125 108.405,-46.1124"/>
<polygon fill="black" stroke="black" points="111.898,-46.3243 109.105,-36.1043 104.915,-45.8356 111.898,-46.3243"/>
<g id="a_edge4&#45;headlabel"><a xlink:href="dir_000001_000002.html" target="_top" xlink:title="15">
<text text-anchor="middle" x="114.48" y="-47.6083" font-family="Helvetica,sans-Serif" font-size="10.00">15</text>
</a>
</g>
</g>
<!-- dir_527d9ccdfcaa9588043fa6eaabe08755&#45;&gt;dir_313caf1132e152dd9b58bea13a4052ca -->
<g id="edge5" class="edge"><title>dir_527d9ccdfcaa9588043fa6eaabe08755&#45;&gt;dir_313caf1132e152dd9b58bea13a4052ca</title>
<path fill="none" stroke="black" d="M136.258,-71.6966C147.089,-62.8807 160.418,-52.0321 172.16,-42.4742"/>
<polygon fill="black" stroke="black" points="174.44,-45.1316 179.986,-36.1043 170.021,-39.7026 174.44,-45.1316"/>
<g id="a_edge5&#45;headlabel"><a xlink:href="dir_000001_000008.html" target="_top" xlink:title="1">
<text text-anchor="middle" x="173.444" y="-47.1027" font-family="Helvetica,sans-Serif" font-size="10.00">1</text>
</a>
</g>
</g>
<!-- dir_e9add8f8d9ae9673501eada5427ffe52&#45;&gt;dir_efbcf68973d247bbf15f9eecae7f24e3 -->
<g id="edge9" class="edge"><title>dir_e9add8f8d9ae9673501eada5427ffe52&#45;&gt;dir_efbcf68973d247bbf15f9eecae7f24e3</title>
<path fill="none" stroke="black" d="M101.301,-36.3613C93.9218,-46.3481 85.1054,-59.3844 79,-72 69.3853,-91.8668 62.0733,-115.799 57.3365,-133.84"/>
<polygon fill="black" stroke="black" points="53.8999,-133.154 54.8472,-143.706 60.6872,-134.867 53.8999,-133.154"/>
<g id="a_edge9&#45;headlabel"><a xlink:href="dir_000002_000003.html" target="_top" xlink:title="2">
<text text-anchor="middle" x="52.0262" y="-126.474" font-family="Helvetica,sans-Serif" font-size="10.00">2</text>
</a>
</g>
</g>
<!-- dir_e9add8f8d9ae9673501eada5427ffe52&#45;&gt;dir_527d9ccdfcaa9588043fa6eaabe08755 -->
<g id="edge10" class="edge"><title>dir_e9add8f8d9ae9673501eada5427ffe52&#45;&gt;dir_527d9ccdfcaa9588043fa6eaabe08755</title>
<path fill="none" stroke="black" d="M120.895,-36.1043C121.701,-43.7913 121.937,-53.0537 121.604,-61.6651"/>
<polygon fill="black" stroke="black" points="118.109,-61.4805 120.916,-71.6966 125.092,-61.9597 118.109,-61.4805"/>
<g id="a_edge10&#45;headlabel"><a xlink:href="dir_000002_000001.html" target="_top" xlink:title="10">
<text text-anchor="middle" x="115.522" y="-55.2" font-family="Helvetica,sans-Serif" font-size="10.00">10</text>
</a>
</g>
</g>
</g>
</svg>
