<?xml version="1.0" encoding="UTF-8" standalone="no"?>
<!DOCTYPE svg PUBLIC "-//W3C//DTD SVG 1.1//EN"
 "http://www.w3.org/Graphics/SVG/1.1/DTD/svg11.dtd">
<!-- Generated by graphviz version 2.38.0 (20140413.2041)
 -->
<!-- Title: src Pages: 1 -->
<svg width="186pt" height="220pt"
 viewBox="0.00 0.00 186.00 220.00" xmlns="http://www.w3.org/2000/svg" xmlns:xlink="http://www.w3.org/1999/xlink">
<g id="graph0" class="graph" transform="scale(1 1) rotate(0) translate(4 216)">
<title>src</title>
<g id="clust1" class="cluster"><title>clusterdir_68267d1309a1af8e8297ef4c3efbcdba</title>
<g id="a_clust1"><a xlink:href="dir_68267d1309a1af8e8297ef4c3efbcdba.html" target="_top">
<polygon fill="#eeeeff" stroke="black" points="8,-8 8,-204 170,-204 170,-8 8,-8"/>
</a>
</g>
</g>
<!-- dir_68267d1309a1af8e8297ef4c3efbcdba -->
<g id="node1" class="node"><title>dir_68267d1309a1af8e8297ef4c3efbcdba</title>
<text text-anchor="middle" x="135" y="-175.5" font-family="Helvetica,sans-Serif" font-size="10.00">src</text>
</g>
<!-- dir_527d9ccdfcaa9588043fa6eaabe08755 -->
<g id="node2" class="node"><title>dir_527d9ccdfcaa9588043fa6eaabe08755</title>
<g id="a_node2"><a xlink:href="dir_527d9ccdfcaa9588043fa6eaabe08755.html" target="_top" xlink:title="cip">
<polygon fill="white" stroke="black" points="70,-124 16,-124 16,-88 70,-88 70,-124"/>
<text text-anchor="middle" x="43" y="-103.5" font-family="Helvetica,sans-Serif" font-size="10.00">cip</text>
</a>
</g>
</g>
<!-- dir_e9add8f8d9ae9673501eada5427ffe52 -->
<g id="node3" class="node"><title>dir_e9add8f8d9ae9673501eada5427ffe52</title>
<g id="a_node3"><a xlink:href="dir_e9add8f8d9ae9673501eada5427ffe52.html" target="_top" xlink:title="enet_encap">
<polygon fill="white" stroke="black" points="83.5,-52 16.5,-52 16.5,-16 83.5,-16 83.5,-52"/>
<text text-anchor="middle" x="50" y="-31.5" font-family="Helvetica,sans-Serif" font-size="10.00">enet_encap</text>
</a>
</g>
</g>
<!-- dir_527d9ccdfcaa9588043fa6eaabe08755&#45;&gt;dir_e9add8f8d9ae9673501eada5427ffe52 -->
<g id="edge4" class="edge"><title>dir_527d9ccdfcaa9588043fa6eaabe08755&#45;&gt;dir_e9add8f8d9ae9673501eada5427ffe52</title>
<path fill="none" stroke="black" d="M38.8146,-87.6966C38.7903,-79.9827 39.4908,-70.7125 40.6935,-62.1124"/>
<polygon fill="black" stroke="black" points="44.1693,-62.5495 42.3945,-52.1043 37.2683,-61.3764 44.1693,-62.5495"/>
<g id="a_edge4&#45;headlabel"><a xlink:href="dir_000001_000002.html" target="_top" xlink:title="12">
<text text-anchor="middle" x="46.3662" y="-64.069" font-family="Helvetica,sans-Serif" font-size="10.00">12</text>
</a>
</g>
</g>
<!-- dir_e9add8f8d9ae9673501eada5427ffe52&#45;&gt;dir_527d9ccdfcaa9588043fa6eaabe08755 -->
<g id="edge5" class="edge"><title>dir_e9add8f8d9ae9673501eada5427ffe52&#45;&gt;dir_527d9ccdfcaa9588043fa6eaabe08755</title>
<path fill="none" stroke="black" d="M54.1846,-52.1043C54.2214,-59.7913 53.5315,-69.0537 52.3375,-77.6651"/>
<polygon fill="black" stroke="black" points="48.8575,-77.2539 50.6461,-87.6966 55.7601,-78.4178 48.8575,-77.2539"/>
<g id="a_edge5&#45;headlabel"><a xlink:href="dir_000002_000001.html" target="_top" xlink:title="9">
<text text-anchor="middle" x="46.6553" y="-70.7372" font-family="Helvetica,sans-Serif" font-size="10.00">9</text>
</a>
</g>
</g>
<!-- dir_efbcf68973d247bbf15f9eecae7f24e3 -->
<g id="node4" class="node"><title>dir_efbcf68973d247bbf15f9eecae7f24e3</title>
<g id="a_node4"><a xlink:href="dir_efbcf68973d247bbf15f9eecae7f24e3.html" target="_top" xlink:title="ports">
<polygon fill="white" stroke="red" points="90,-196 36,-196 36,-160 90,-160 90,-196"/>
<text text-anchor="middle" x="63" y="-175.5" font-family="Helvetica,sans-Serif" font-size="10.00">ports</text>
</a>
</g>
</g>
<!-- dir_efbcf68973d247bbf15f9eecae7f24e3&#45;&gt;dir_527d9ccdfcaa9588043fa6eaabe08755 -->
<g id="edge1" class="edge"><title>dir_efbcf68973d247bbf15f9eecae7f24e3&#45;&gt;dir_527d9ccdfcaa9588043fa6eaabe08755</title>
<path fill="none" stroke="black" d="M58.0562,-159.697C55.828,-151.898 53.1453,-142.509 50.6655,-133.829"/>
<polygon fill="black" stroke="black" points="53.9996,-132.758 47.887,-124.104 47.2689,-134.681 53.9996,-132.758"/>
<g id="a_edge1&#45;headlabel"><a xlink:href="dir_000003_000001.html" target="_top" xlink:title="10">
<text text-anchor="middle" x="57.717" y="-132.934" font-family="Helvetica,sans-Serif" font-size="10.00">10</text>
</a>
</g>
</g>
<!-- dir_efbcf68973d247bbf15f9eecae7f24e3&#45;&gt;dir_e9add8f8d9ae9673501eada5427ffe52 -->
<g id="edge2" class="edge"><title>dir_efbcf68973d247bbf15f9eecae7f24e3&#45;&gt;dir_e9add8f8d9ae9673501eada5427ffe52</title>
<path fill="none" stroke="black" d="M70.4358,-159.78C77.2196,-141.735 85.3003,-112.64 79,-88 76.6213,-78.6972 72.2353,-69.2701 67.5818,-60.9973"/>
<polygon fill="black" stroke="black" points="70.4566,-58.9859 62.307,-52.2157 64.4559,-62.5903 70.4566,-58.9859"/>
<g id="a_edge2&#45;headlabel"><a xlink:href="dir_000003_000002.html" target="_top" xlink:title="5">
<text text-anchor="middle" x="74.7414" y="-58.1054" font-family="Helvetica,sans-Serif" font-size="10.00">5</text>
</a>
</g>
</g>
<!-- dir_313caf1132e152dd9b58bea13a4052ca -->
<g id="node5" class="node"><title>dir_313caf1132e152dd9b58bea13a4052ca</title>
<g id="a_node5"><a xlink:href="dir_313caf1132e152dd9b58bea13a4052ca.html" target="_top" xlink:title="utils">
<polygon fill="white" stroke="black" points="162,-124 108,-124 108,-88 162,-88 162,-124"/>
<text text-anchor="middle" x="135" y="-103.5" font-family="Helvetica,sans-Serif" font-size="10.00">utils</text>
</a>
</g>
</g>
<!-- dir_efbcf68973d247bbf15f9eecae7f24e3&#45;&gt;dir_313caf1132e152dd9b58bea13a4052ca -->
<g id="edge3" class="edge"><title>dir_efbcf68973d247bbf15f9eecae7f24e3&#45;&gt;dir_313caf1132e152dd9b58bea13a4052ca</title>
<path fill="none" stroke="black" d="M80.7978,-159.697C89.604,-151.135 100.382,-140.656 110.001,-131.304"/>
<polygon fill="black" stroke="black" points="112.677,-133.585 117.407,-124.104 107.797,-128.566 112.677,-133.585"/>
<g id="a_edge3&#45;headlabel"><a xlink:href="dir_000003_000010.html" target="_top" xlink:title="1">
<text text-anchor="middle" x="112.079" y="-135.626" font-family="Helvetica,sans-Serif" font-size="10.00">1</text>
</a>
</g>
</g>
</g>
</svg>
