<?xml version="1.0" encoding="UTF-8" standalone="no"?>
<!DOCTYPE svg PUBLIC "-//W3C//DTD SVG 1.1//EN"
 "http://www.w3.org/Graphics/SVG/1.1/DTD/svg11.dtd">
<!-- Generated by graphviz version 2.38.0 (20140413.2041)
 -->
<!-- Title: checkRegisteredSessions Pages: 1 -->
<svg width="1115pt" height="78pt"
 viewBox="0.00 0.00 1115.00 77.50" xmlns="http://www.w3.org/2000/svg" xmlns:xlink="http://www.w3.org/1999/xlink">
<g id="graph0" class="graph" transform="scale(1 1) rotate(0) translate(4 73.5)">
<title>checkRegisteredSessions</title>
<!-- Node1 -->
<g id="node1" class="node"><title>Node1</title>
<polygon fill="#bfbfbf" stroke="black" points="0,-20.5 0,-39.5 131,-39.5 131,-20.5 0,-20.5"/>
<text text-anchor="middle" x="65.5" y="-27.5" font-family="Helvetica,sans-Serif" font-size="10.00">checkRegisteredSessions</text>
</g>
<!-- Node2 -->
<g id="node2" class="node"><title>Node2</title>
<g id="a_node2"><a xlink:href="encap_8c.html#aa2bc1514f02b7d5270201f96f540e412" target="_top" xlink:title="handleReceivedSendRRDataCmd">
<polygon fill="none" stroke="black" points="168.5,-39.5 168.5,-58.5 334.5,-58.5 334.5,-39.5 168.5,-39.5"/>
<text text-anchor="middle" x="251.5" y="-46.5" font-family="Helvetica,sans-Serif" font-size="10.00">handleReceivedSendRRDataCmd</text>
</a>
</g>
</g>
<!-- Node1&#45;&gt;Node2 -->
<g id="edge1" class="edge"><title>Node1&#45;&gt;Node2</title>
<path fill="none" stroke="midnightblue" d="M141.101,-37.7034C150.05,-38.6275 159.228,-39.5751 168.277,-40.5096"/>
<polygon fill="midnightblue" stroke="midnightblue" points="141.419,-34.2177 131.113,-36.672 140.7,-41.1807 141.419,-34.2177"/>
</g>
<!-- Node11 -->
<g id="node11" class="node"><title>Node11</title>
<g id="a_node11"><a xlink:href="encap_8c.html#a9dc9ebf33956f4e735c48736ad9f9045" target="_top" xlink:title="handleReceivedSendUnitDataCmd">
<polygon fill="none" stroke="black" points="167,-1.5 167,-20.5 336,-20.5 336,-1.5 167,-1.5"/>
<text text-anchor="middle" x="251.5" y="-8.5" font-family="Helvetica,sans-Serif" font-size="10.00">handleReceivedSendUnitDataCmd</text>
</a>
</g>
</g>
<!-- Node1&#45;&gt;Node11 -->
<g id="edge10" class="edge"><title>Node1&#45;&gt;Node11</title>
<path fill="none" stroke="midnightblue" d="M141.31,-22.275C149.768,-21.4016 158.428,-20.5075 166.988,-19.6235"/>
<polygon fill="midnightblue" stroke="midnightblue" points="140.7,-18.8193 131.113,-23.328 141.419,-25.7823 140.7,-18.8193"/>
</g>
<!-- Node3 -->
<g id="node3" class="node"><title>Node3</title>
<g id="a_node3"><a xlink:href="group__CIP__API.html#ga500c1fe8838de5ff32f25d8ad6958289" target="_top" xlink:title="Notify the encapsulation layer that an explicit message has been received via TCP. ">
<polygon fill="none" stroke="black" points="372,-20.5 372,-39.5 530,-39.5 530,-20.5 372,-20.5"/>
<text text-anchor="middle" x="451" y="-27.5" font-family="Helvetica,sans-Serif" font-size="10.00">handleReceivedExplictTCPData</text>
</a>
</g>
</g>
<!-- Node2&#45;&gt;Node3 -->
<g id="edge2" class="edge"><title>Node2&#45;&gt;Node3</title>
<path fill="none" stroke="midnightblue" d="M344.69,-40.131C353.721,-39.2623 362.825,-38.3864 371.699,-37.5328"/>
<polygon fill="midnightblue" stroke="midnightblue" points="344.161,-36.6657 334.542,-41.1074 344.831,-43.6336 344.161,-36.6657"/>
</g>
<!-- Node4 -->
<g id="node4" class="node"><title>Node4</title>
<g id="a_node4"><a xlink:href="LM3S8962_2networkhandler_8c.html#a012291dcb1dfb9a0f2936f1e41543286" target="_top" xlink:title="tcp_receive_callback">
<polygon fill="none" stroke="black" points="577,-42.5 577,-61.5 685,-61.5 685,-42.5 577,-42.5"/>
<text text-anchor="middle" x="631" y="-49.5" font-family="Helvetica,sans-Serif" font-size="10.00">tcp_receive_callback</text>
</a>
</g>
</g>
<!-- Node3&#45;&gt;Node4 -->
<g id="edge3" class="edge"><title>Node3&#45;&gt;Node4</title>
<path fill="none" stroke="midnightblue" d="M539.316,-40.7919C552.17,-42.3805 565.07,-43.9749 576.944,-45.4426"/>
<polygon fill="midnightblue" stroke="midnightblue" points="539.392,-37.2747 529.038,-39.5216 538.533,-44.2218 539.392,-37.2747"/>
</g>
<!-- Node8 -->
<g id="node8" class="node"><title>Node8</title>
<g id="a_node8"><a xlink:href="POSIX_2networkhandler_8c.html#ae76d1b4d390537588350d7179c4c2f3a" target="_top" xlink:title="handleDataOnTCPSocket">
<polygon fill="none" stroke="black" points="566,-1.5 566,-20.5 696,-20.5 696,-1.5 566,-1.5"/>
<text text-anchor="middle" x="631" y="-8.5" font-family="Helvetica,sans-Serif" font-size="10.00">handleDataOnTCPSocket</text>
</a>
</g>
</g>
<!-- Node3&#45;&gt;Node8 -->
<g id="edge7" class="edge"><title>Node3&#45;&gt;Node8</title>
<path fill="none" stroke="midnightblue" d="M540.206,-20.5848C548.857,-19.6613 557.519,-18.7367 565.864,-17.846"/>
<polygon fill="midnightblue" stroke="midnightblue" points="539.645,-17.1246 530.073,-21.6663 540.388,-24.0851 539.645,-17.1246"/>
</g>
<!-- Node5 -->
<g id="node5" class="node"><title>Node5</title>
<g id="a_node5"><a xlink:href="LM3S8962_2networkhandler_8c.html#a44614e422def6d9b7eb8f3b0e430f7ef" target="_top" xlink:title="tcp_connection_accept\l_callback">
<polygon fill="none" stroke="black" points="749.5,-39 749.5,-69 866.5,-69 866.5,-39 749.5,-39"/>
<text text-anchor="start" x="757.5" y="-57" font-family="Helvetica,sans-Serif" font-size="10.00">tcp_connection_accept</text>
<text text-anchor="middle" x="808" y="-46" font-family="Helvetica,sans-Serif" font-size="10.00">_callback</text>
</a>
</g>
</g>
<!-- Node4&#45;&gt;Node5 -->
<g id="edge4" class="edge"><title>Node4&#45;&gt;Node5</title>
<path fill="none" stroke="midnightblue" d="M695.609,-52.727C713.164,-52.9276 732.109,-53.1441 749.308,-53.3407"/>
<polygon fill="midnightblue" stroke="midnightblue" points="695.496,-49.2255 685.457,-52.6109 695.416,-56.2251 695.496,-49.2255"/>
</g>
<!-- Node6 -->
<g id="node6" class="node"><title>Node6</title>
<g id="a_node6"><a xlink:href="LM3S8962_2networkhandler_8h.html#a6151b0813befe78de7bfd9d7e08866ba" target="_top" xlink:title="Start_NetworkHandler">
<polygon fill="none" stroke="black" points="920,-44.5 920,-63.5 1033,-63.5 1033,-44.5 920,-44.5"/>
<text text-anchor="middle" x="976.5" y="-51.5" font-family="Helvetica,sans-Serif" font-size="10.00">Start_NetworkHandler</text>
</a>
</g>
</g>
<!-- Node5&#45;&gt;Node6 -->
<g id="edge5" class="edge"><title>Node5&#45;&gt;Node6</title>
<path fill="none" stroke="midnightblue" d="M876.996,-54C891.229,-54 906.077,-54 919.8,-54"/>
<polygon fill="midnightblue" stroke="midnightblue" points="876.766,-50.5001 866.766,-54 876.766,-57.5001 876.766,-50.5001"/>
</g>
<!-- Node7 -->
<g id="node7" class="node"><title>Node7</title>
<g id="a_node7"><a xlink:href="LM3S8962_2sample__application_2main_8c.html#a840291bc02cba5474a4cb46a9b9566fe" target="_top" xlink:title="main">
<polygon fill="none" stroke="black" points="1069,-44.5 1069,-63.5 1107,-63.5 1107,-44.5 1069,-44.5"/>
<text text-anchor="middle" x="1088" y="-51.5" font-family="Helvetica,sans-Serif" font-size="10.00">main</text>
</a>
</g>
</g>
<!-- Node6&#45;&gt;Node7 -->
<g id="edge6" class="edge"><title>Node6&#45;&gt;Node7</title>
<path fill="none" stroke="midnightblue" d="M1043.42,-54C1052.71,-54 1061.55,-54 1068.81,-54"/>
<polygon fill="midnightblue" stroke="midnightblue" points="1043.21,-50.5001 1033.21,-54 1043.21,-57.5001 1043.21,-50.5001"/>
</g>
<!-- Node9 -->
<g id="node9" class="node"><title>Node9</title>
<g id="a_node9"><a xlink:href="WIN32_2networkhandler_8h.html#a2d6337ec345efd952006c7bf3a158f0c" target="_top" xlink:title="NetworkHandler_ProcessOnce">
<polygon fill="none" stroke="black" points="732,-0.5 732,-19.5 884,-19.5 884,-0.5 732,-0.5"/>
<text text-anchor="middle" x="808" y="-7.5" font-family="Helvetica,sans-Serif" font-size="10.00">NetworkHandler_ProcessOnce</text>
</a>
</g>
</g>
<!-- Node8&#45;&gt;Node9 -->
<g id="edge8" class="edge"><title>Node8&#45;&gt;Node9</title>
<path fill="none" stroke="midnightblue" d="M706.363,-10.5751C714.805,-10.5268 723.414,-10.4776 731.866,-10.4293"/>
<polygon fill="midnightblue" stroke="midnightblue" points="706.15,-7.07613 696.17,-10.6333 706.19,-14.076 706.15,-7.07613"/>
</g>
<!-- Node10 -->
<g id="node10" class="node"><title>Node10</title>
<g id="a_node10"><a xlink:href="POSIX_2main_8c.html#ad338a7dbc41dc40bcecd0479377ef207" target="_top" xlink:title="main">
<polygon fill="none" stroke="black" points="957.5,-0.5 957.5,-19.5 995.5,-19.5 995.5,-0.5 957.5,-0.5"/>
<text text-anchor="middle" x="976.5" y="-7.5" font-family="Helvetica,sans-Serif" font-size="10.00">main</text>
</a>
</g>
</g>
<!-- Node9&#45;&gt;Node10 -->
<g id="edge9" class="edge"><title>Node9&#45;&gt;Node10</title>
<path fill="none" stroke="midnightblue" d="M894.616,-10C918.341,-10 941.809,-10 957.305,-10"/>
<polygon fill="midnightblue" stroke="midnightblue" points="894.456,-6.5001 884.455,-10 894.455,-13.5001 894.456,-6.5001"/>
</g>
<!-- Node11&#45;&gt;Node3 -->
<g id="edge11" class="edge"><title>Node11&#45;&gt;Node3</title>
<path fill="none" stroke="midnightblue" d="M346.247,-20.0187C354.788,-20.8404 363.38,-21.667 371.765,-22.4736"/>
<polygon fill="midnightblue" stroke="midnightblue" points="346.547,-16.5315 336.258,-19.0577 345.877,-23.4993 346.547,-16.5315"/>
</g>
</g>
</svg>
