<?xml version="1.0" encoding="UTF-8" standalone="no"?>
<!DOCTYPE svg PUBLIC "-//W3C//DTD SVG 1.1//EN"
 "http://www.w3.org/Graphics/SVG/1.1/DTD/svg11.dtd">
<!-- Generated by graphviz version 2.38.0 (20140413.2041)
 -->
<!-- Title: handleReceivedSendRRDataCmd Pages: 1 -->
<svg width="945pt" height="78pt"
 viewBox="0.00 0.00 945.00 77.50" xmlns="http://www.w3.org/2000/svg" xmlns:xlink="http://www.w3.org/1999/xlink">
<g id="graph0" class="graph" transform="scale(1 1) rotate(0) translate(4 73.5)">
<title>handleReceivedSendRRDataCmd</title>
<!-- Node1 -->
<g id="node1" class="node"><title>Node1</title>
<polygon fill="#bfbfbf" stroke="black" points="0,-22.5 0,-41.5 166,-41.5 166,-22.5 0,-22.5"/>
<text text-anchor="middle" x="83" y="-29.5" font-family="Helvetica,sans-Serif" font-size="10.00">handleReceivedSendRRDataCmd</text>
</g>
<!-- Node2 -->
<g id="node2" class="node"><title>Node2</title>
<g id="a_node2"><a xlink:href="group__CIP__API.html#ga500c1fe8838de5ff32f25d8ad6958289" target="_top" xlink:title="Notify the encapsulation layer that an explicit message has been received via TCP. ">
<polygon fill="none" stroke="black" points="202,-22.5 202,-41.5 360,-41.5 360,-22.5 202,-22.5"/>
<text text-anchor="middle" x="281" y="-29.5" font-family="Helvetica,sans-Serif" font-size="10.00">handleReceivedExplictTCPData</text>
</a>
</g>
</g>
<!-- Node1&#45;&gt;Node2 -->
<g id="edge1" class="edge"><title>Node1&#45;&gt;Node2</title>
<path fill="none" stroke="midnightblue" d="M176.505,-32C184.932,-32 193.414,-32 201.699,-32"/>
<polygon fill="midnightblue" stroke="midnightblue" points="176.27,-28.5001 166.27,-32 176.27,-35.5001 176.27,-28.5001"/>
</g>
<!-- Node3 -->
<g id="node3" class="node"><title>Node3</title>
<g id="a_node3"><a xlink:href="LM3S8962_2networkhandler_8c.html#a012291dcb1dfb9a0f2936f1e41543286" target="_top" xlink:title="tcp_receive_callback">
<polygon fill="none" stroke="black" points="407,-42.5 407,-61.5 515,-61.5 515,-42.5 407,-42.5"/>
<text text-anchor="middle" x="461" y="-49.5" font-family="Helvetica,sans-Serif" font-size="10.00">tcp_receive_callback</text>
</a>
</g>
</g>
<!-- Node2&#45;&gt;Node3 -->
<g id="edge2" class="edge"><title>Node2&#45;&gt;Node3</title>
<path fill="none" stroke="midnightblue" d="M370.106,-41.8996C382.647,-43.3086 395.211,-44.7203 406.802,-46.0227"/>
<polygon fill="midnightblue" stroke="midnightblue" points="370.402,-38.4108 360.073,-40.7723 369.62,-45.3671 370.402,-38.4108"/>
</g>
<!-- Node7 -->
<g id="node7" class="node"><title>Node7</title>
<g id="a_node7"><a xlink:href="POSIX_2networkhandler_8c.html#ae76d1b4d390537588350d7179c4c2f3a" target="_top" xlink:title="handleDataOnTCPSocket">
<polygon fill="none" stroke="black" points="396,-3.5 396,-22.5 526,-22.5 526,-3.5 396,-3.5"/>
<text text-anchor="middle" x="461" y="-10.5" font-family="Helvetica,sans-Serif" font-size="10.00">handleDataOnTCPSocket</text>
</a>
</g>
</g>
<!-- Node2&#45;&gt;Node7 -->
<g id="edge6" class="edge"><title>Node2&#45;&gt;Node7</title>
<path fill="none" stroke="midnightblue" d="M370.206,-22.5848C378.857,-21.6613 387.519,-20.7367 395.864,-19.846"/>
<polygon fill="midnightblue" stroke="midnightblue" points="369.645,-19.1246 360.073,-23.6663 370.388,-26.0851 369.645,-19.1246"/>
</g>
<!-- Node4 -->
<g id="node4" class="node"><title>Node4</title>
<g id="a_node4"><a xlink:href="LM3S8962_2networkhandler_8c.html#a44614e422def6d9b7eb8f3b0e430f7ef" target="_top" xlink:title="tcp_connection_accept\l_callback">
<polygon fill="none" stroke="black" points="579.5,-39 579.5,-69 696.5,-69 696.5,-39 579.5,-39"/>
<text text-anchor="start" x="587.5" y="-57" font-family="Helvetica,sans-Serif" font-size="10.00">tcp_connection_accept</text>
<text text-anchor="middle" x="638" y="-46" font-family="Helvetica,sans-Serif" font-size="10.00">_callback</text>
</a>
</g>
</g>
<!-- Node3&#45;&gt;Node4 -->
<g id="edge3" class="edge"><title>Node3&#45;&gt;Node4</title>
<path fill="none" stroke="midnightblue" d="M525.609,-52.727C543.164,-52.9276 562.109,-53.1441 579.308,-53.3407"/>
<polygon fill="midnightblue" stroke="midnightblue" points="525.496,-49.2255 515.457,-52.6109 525.416,-56.2251 525.496,-49.2255"/>
</g>
<!-- Node5 -->
<g id="node5" class="node"><title>Node5</title>
<g id="a_node5"><a xlink:href="LM3S8962_2networkhandler_8h.html#a6151b0813befe78de7bfd9d7e08866ba" target="_top" xlink:title="Start_NetworkHandler">
<polygon fill="none" stroke="black" points="750,-44.5 750,-63.5 863,-63.5 863,-44.5 750,-44.5"/>
<text text-anchor="middle" x="806.5" y="-51.5" font-family="Helvetica,sans-Serif" font-size="10.00">Start_NetworkHandler</text>
</a>
</g>
</g>
<!-- Node4&#45;&gt;Node5 -->
<g id="edge4" class="edge"><title>Node4&#45;&gt;Node5</title>
<path fill="none" stroke="midnightblue" d="M706.996,-54C721.229,-54 736.077,-54 749.8,-54"/>
<polygon fill="midnightblue" stroke="midnightblue" points="706.766,-50.5001 696.766,-54 706.766,-57.5001 706.766,-50.5001"/>
</g>
<!-- Node6 -->
<g id="node6" class="node"><title>Node6</title>
<g id="a_node6"><a xlink:href="LM3S8962_2sample__application_2main_8c.html#a840291bc02cba5474a4cb46a9b9566fe" target="_top" xlink:title="main">
<polygon fill="none" stroke="black" points="899,-44.5 899,-63.5 937,-63.5 937,-44.5 899,-44.5"/>
<text text-anchor="middle" x="918" y="-51.5" font-family="Helvetica,sans-Serif" font-size="10.00">main</text>
</a>
</g>
</g>
<!-- Node5&#45;&gt;Node6 -->
<g id="edge5" class="edge"><title>Node5&#45;&gt;Node6</title>
<path fill="none" stroke="midnightblue" d="M873.416,-54C882.707,-54 891.55,-54 898.813,-54"/>
<polygon fill="midnightblue" stroke="midnightblue" points="873.212,-50.5001 863.212,-54 873.212,-57.5001 873.212,-50.5001"/>
</g>
<!-- Node8 -->
<g id="node8" class="node"><title>Node8</title>
<g id="a_node8"><a xlink:href="WIN32_2networkhandler_8h.html#a2d6337ec345efd952006c7bf3a158f0c" target="_top" xlink:title="NetworkHandler_ProcessOnce">
<polygon fill="none" stroke="black" points="562,-0.5 562,-19.5 714,-19.5 714,-0.5 562,-0.5"/>
<text text-anchor="middle" x="638" y="-7.5" font-family="Helvetica,sans-Serif" font-size="10.00">NetworkHandler_ProcessOnce</text>
</a>
</g>
</g>
<!-- Node7&#45;&gt;Node8 -->
<g id="edge7" class="edge"><title>Node7&#45;&gt;Node8</title>
<path fill="none" stroke="midnightblue" d="M536.363,-11.7252C544.805,-11.5805 553.414,-11.4329 561.866,-11.288"/>
<polygon fill="midnightblue" stroke="midnightblue" points="536.108,-8.22896 526.17,-11.8999 536.228,-15.2279 536.108,-8.22896"/>
</g>
<!-- Node9 -->
<g id="node9" class="node"><title>Node9</title>
<g id="a_node9"><a xlink:href="POSIX_2main_8c.html#ad338a7dbc41dc40bcecd0479377ef207" target="_top" xlink:title="main">
<polygon fill="none" stroke="black" points="787.5,-0.5 787.5,-19.5 825.5,-19.5 825.5,-0.5 787.5,-0.5"/>
<text text-anchor="middle" x="806.5" y="-7.5" font-family="Helvetica,sans-Serif" font-size="10.00">main</text>
</a>
</g>
</g>
<!-- Node8&#45;&gt;Node9 -->
<g id="edge8" class="edge"><title>Node8&#45;&gt;Node9</title>
<path fill="none" stroke="midnightblue" d="M724.616,-10C748.341,-10 771.809,-10 787.305,-10"/>
<polygon fill="midnightblue" stroke="midnightblue" points="724.456,-6.5001 714.455,-10 724.455,-13.5001 724.456,-6.5001"/>
</g>
</g>
</svg>
