<?xml version="1.0" encoding="UTF-8" standalone="no"?>
<!DOCTYPE svg PUBLIC "-//W3C//DTD SVG 1.1//EN"
 "http://www.w3.org/Graphics/SVG/1.1/DTD/svg11.dtd">
<!-- Generated by graphviz version 2.38.0 (20140413.2041)
 -->
<!-- Title: encapsulateIPAdressCPF Pages: 1 -->
<svg width="212pt" height="66pt"
 viewBox="0.00 0.00 212.00 66.00" xmlns="http://www.w3.org/2000/svg" xmlns:xlink="http://www.w3.org/1999/xlink">
<g id="graph0" class="graph" transform="scale(1 1) rotate(0) translate(4 62)">
<title>encapsulateIPAdressCPF</title>
<!-- Node1 -->
<g id="node1" class="node"><title>Node1</title>
<polygon fill="#bfbfbf" stroke="black" points="0,-19.5 0,-38.5 130,-38.5 130,-19.5 0,-19.5"/>
<text text-anchor="middle" x="65" y="-26.5" font-family="Helvetica,sans-Serif" font-size="10.00">encapsulateIPAdressCPF</text>
</g>
<!-- Node2 -->
<g id="node2" class="node"><title>Node2</title>
<g id="a_node2"><a xlink:href="group__ENCAP.html#gaa00e394da5cd80135cdab7d4f3d88819" target="_top" xlink:title="Converts UINT32 data from host to little endian and writes it to pa_buf. ">
<polygon fill="none" stroke="black" points="167.5,-38.5 167.5,-57.5 202.5,-57.5 202.5,-38.5 167.5,-38.5"/>
<text text-anchor="middle" x="185" y="-45.5" font-family="Helvetica,sans-Serif" font-size="10.00">htoll</text>
</a>
</g>
</g>
<!-- Node1&#45;&gt;Node2 -->
<g id="edge1" class="edge"><title>Node1&#45;&gt;Node2</title>
<path fill="none" stroke="midnightblue" d="M125.346,-38.5557C136.604,-40.3685 147.846,-42.1786 157.431,-43.722"/>
<polygon fill="midnightblue" stroke="midnightblue" points="157.032,-47.2027 167.462,-45.337 158.145,-40.2918 157.032,-47.2027"/>
</g>
<!-- Node3 -->
<g id="node3" class="node"><title>Node3</title>
<g id="a_node3"><a xlink:href="group__ENCAP.html#ga738d386bb3919d75bb14dcb40ca5389f" target="_top" xlink:title="converts UINT16 data from host to little endian an writes it to pa_buf. ">
<polygon fill="none" stroke="black" points="166,-0.5 166,-19.5 204,-19.5 204,-0.5 166,-0.5"/>
<text text-anchor="middle" x="185" y="-7.5" font-family="Helvetica,sans-Serif" font-size="10.00">htols</text>
</a>
</g>
</g>
<!-- Node1&#45;&gt;Node3 -->
<g id="edge2" class="edge"><title>Node1&#45;&gt;Node3</title>
<path fill="none" stroke="midnightblue" d="M125.346,-19.4443C135.988,-17.7307 146.616,-16.0195 155.843,-14.5338"/>
<polygon fill="midnightblue" stroke="midnightblue" points="156.632,-17.9518 165.949,-12.9065 155.52,-11.0408 156.632,-17.9518"/>
</g>
</g>
</svg>
