<?xml version="1.0" encoding="UTF-8" standalone="no"?>
<!DOCTYPE svg PUBLIC "-//W3C//DTD SVG 1.1//EN"
 "http://www.w3.org/Graphics/SVG/1.1/DTD/svg11.dtd">
<!-- Generated by graphviz version 2.38.0 (20140413.2041)
 -->
<!-- Title: IApp_RunIdleChanged Pages: 1 -->
<svg width="773pt" height="28pt"
 viewBox="0.00 0.00 773.00 28.00" xmlns="http://www.w3.org/2000/svg" xmlns:xlink="http://www.w3.org/1999/xlink">
<g id="graph0" class="graph" transform="scale(1 1) rotate(0) translate(4 24)">
<title>IApp_RunIdleChanged</title>
<!-- Node1 -->
<g id="node1" class="node"><title>Node1</title>
<polygon fill="#bfbfbf" stroke="black" points="0,-0.5 0,-19.5 115,-19.5 115,-0.5 0,-0.5"/>
<text text-anchor="middle" x="57.5" y="-7.5" font-family="Helvetica,sans-Serif" font-size="10.00">IApp_RunIdleChanged</text>
</g>
<!-- Node2 -->
<g id="node2" class="node"><title>Node2</title>
<g id="a_node2"><a xlink:href="cipioconnection_8c.html#a0a63c015bc216d71e9cb1781472ce8df" target="_top" xlink:title="handleReceivedIOConnData">
<polygon fill="none" stroke="black" points="151,-0.5 151,-19.5 292,-19.5 292,-0.5 151,-0.5"/>
<text text-anchor="middle" x="221.5" y="-7.5" font-family="Helvetica,sans-Serif" font-size="10.00">handleReceivedIOConnData</text>
</a>
</g>
</g>
<!-- Node1&#45;&gt;Node2 -->
<g id="edge1" class="edge"><title>Node1&#45;&gt;Node2</title>
<path fill="none" stroke="midnightblue" d="M125.285,-10C133.692,-10 142.31,-10 150.762,-10"/>
<polygon fill="midnightblue" stroke="midnightblue" points="125.16,-6.5001 115.16,-10 125.16,-13.5001 125.16,-6.5001"/>
</g>
<!-- Node3 -->
<g id="node3" class="node"><title>Node3</title>
<g id="a_node3"><a xlink:href="cipioconnection_8h.html#ae83037a608b08d325fc34869395f37a3" target="_top" xlink:title="Setup all data in order to establish an IO connection. ">
<polygon fill="none" stroke="black" points="328,-0.5 328,-19.5 438,-19.5 438,-0.5 328,-0.5"/>
<text text-anchor="middle" x="383" y="-7.5" font-family="Helvetica,sans-Serif" font-size="10.00">establishIOConnction</text>
</a>
</g>
</g>
<!-- Node2&#45;&gt;Node3 -->
<g id="edge2" class="edge"><title>Node2&#45;&gt;Node3</title>
<path fill="none" stroke="midnightblue" d="M302.534,-10C311.134,-10 319.731,-10 327.922,-10"/>
<polygon fill="midnightblue" stroke="midnightblue" points="302.459,-6.5001 292.459,-10 302.459,-13.5001 302.459,-6.5001"/>
</g>
<!-- Node4 -->
<g id="node4" class="node"><title>Node4</title>
<g id="a_node4"><a xlink:href="cipconnectionmanager_8h.html#abbdafd9e83df08856ba6de13890cf40f" target="_top" xlink:title="Connection_Manager_Init">
<polygon fill="none" stroke="black" points="474,-0.5 474,-19.5 602,-19.5 602,-0.5 474,-0.5"/>
<text text-anchor="middle" x="538" y="-7.5" font-family="Helvetica,sans-Serif" font-size="10.00">Connection_Manager_Init</text>
</a>
</g>
</g>
<!-- Node3&#45;&gt;Node4 -->
<g id="edge3" class="edge"><title>Node3&#45;&gt;Node4</title>
<path fill="none" stroke="midnightblue" d="M448.509,-10C456.922,-10 465.534,-10 473.924,-10"/>
<polygon fill="midnightblue" stroke="midnightblue" points="448.373,-6.5001 438.373,-10 448.373,-13.5001 448.373,-6.5001"/>
</g>
<!-- Node5 -->
<g id="node5" class="node"><title>Node5</title>
<g id="a_node5"><a xlink:href="group__CIP__API.html#ga8fe857c3e88bf986fda82fbac6702c9f" target="_top" xlink:title="Initialize and setup the CIP&#45;stack. ">
<polygon fill="none" stroke="black" points="638,-0.5 638,-19.5 691,-19.5 691,-0.5 638,-0.5"/>
<text text-anchor="middle" x="664.5" y="-7.5" font-family="Helvetica,sans-Serif" font-size="10.00">CIP_Init</text>
</a>
</g>
</g>
<!-- Node4&#45;&gt;Node5 -->
<g id="edge4" class="edge"><title>Node4&#45;&gt;Node5</title>
<path fill="none" stroke="midnightblue" d="M612.345,-10C621.478,-10 630.282,-10 637.936,-10"/>
<polygon fill="midnightblue" stroke="midnightblue" points="612.344,-6.5001 602.344,-10 612.344,-13.5001 612.344,-6.5001"/>
</g>
<!-- Node6 -->
<g id="node6" class="node"><title>Node6</title>
<g id="a_node6"><a xlink:href="LM3S8962_2sample__application_2main_8c.html#a840291bc02cba5474a4cb46a9b9566fe" target="_top" xlink:title="main">
<polygon fill="none" stroke="black" points="727,-0.5 727,-19.5 765,-19.5 765,-0.5 727,-0.5"/>
<text text-anchor="middle" x="746" y="-7.5" font-family="Helvetica,sans-Serif" font-size="10.00">main</text>
</a>
</g>
</g>
<!-- Node5&#45;&gt;Node6 -->
<g id="edge5" class="edge"><title>Node5&#45;&gt;Node6</title>
<path fill="none" stroke="midnightblue" d="M701.231,-10C710.063,-10 719.162,-10 726.761,-10"/>
<polygon fill="midnightblue" stroke="midnightblue" points="701.092,-6.5001 691.092,-10 701.092,-13.5001 701.092,-6.5001"/>
</g>
</g>
</svg>
