<?xml version="1.0" encoding="UTF-8" standalone="no"?>
<!DOCTYPE svg PUBLIC "-//W3C//DTD SVG 1.1//EN"
 "http://www.w3.org/Graphics/SVG/1.1/DTD/svg11.dtd">
<!-- Generated by graphviz version 2.38.0 (20140413.2041)
 -->
<!-- Title: shutdownCIP Pages: 1 -->
<svg width="595pt" height="227pt"
 viewBox="0.00 0.00 595.00 227.00" xmlns="http://www.w3.org/2000/svg" xmlns:xlink="http://www.w3.org/1999/xlink">
<g id="graph0" class="graph" transform="scale(1 1) rotate(0) translate(4 223)">
<title>shutdownCIP</title>
<!-- Node1 -->
<g id="node1" class="node"><title>Node1</title>
<polygon fill="#bfbfbf" stroke="black" points="0,-104.5 0,-123.5 76,-123.5 76,-104.5 0,-104.5"/>
<text text-anchor="middle" x="38" y="-111.5" font-family="Helvetica,sans-Serif" font-size="10.00">shutdownCIP</text>
</g>
<!-- Node2 -->
<g id="node2" class="node"><title>Node2</title>
<g id="a_node2"><a xlink:href="appcontype_8c.html#a20927d60d306ae7bbe065a111099bdb9" target="_top" xlink:title="close all open connections. ">
<polygon fill="none" stroke="black" points="125,-180.5 125,-199.5 231,-199.5 231,-180.5 125,-180.5"/>
<text text-anchor="middle" x="178" y="-187.5" font-family="Helvetica,sans-Serif" font-size="10.00">closeAllConnections</text>
</a>
</g>
</g>
<!-- Node1&#45;&gt;Node2 -->
<g id="edge1" class="edge"><title>Node1&#45;&gt;Node2</title>
<path fill="none" stroke="midnightblue" d="M49.0077,-123.87C62.3256,-136.492 87.1021,-158.238 112,-171 116.349,-173.229 120.998,-175.235 125.737,-177.032"/>
<polygon fill="midnightblue" stroke="midnightblue" points="124.926,-180.455 135.521,-180.43 127.223,-173.843 124.926,-180.455"/>
</g>
<!-- Node6 -->
<g id="node6" class="node"><title>Node6</title>
<g id="a_node6"><a xlink:href="cipmessagerouter_8c.html#a65b7f7ac593ab8697db642512ecc9f25" target="_top" xlink:title="deleteAllClasses">
<polygon fill="none" stroke="black" points="133,-142.5 133,-161.5 223,-161.5 223,-142.5 133,-142.5"/>
<text text-anchor="middle" x="178" y="-149.5" font-family="Helvetica,sans-Serif" font-size="10.00">deleteAllClasses</text>
</a>
</g>
</g>
<!-- Node1&#45;&gt;Node6 -->
<g id="edge5" class="edge"><title>Node1&#45;&gt;Node6</title>
<path fill="none" stroke="midnightblue" d="M73.8232,-123.589C91.6377,-128.494 113.518,-134.52 132.539,-139.757"/>
<polygon fill="midnightblue" stroke="midnightblue" points="131.618,-143.134 142.188,-142.414 133.476,-136.385 131.618,-143.134"/>
</g>
<!-- Node8 -->
<g id="node8" class="node"><title>Node8</title>
<g id="a_node8"><a xlink:href="group__ENCAP.html#ga23b3ee03c1cffe279bbf32f3d1d4a8a3" target="_top" xlink:title="Shutdown the encapsulation layer. ">
<polygon fill="none" stroke="black" points="133.5,-19.5 133.5,-38.5 222.5,-38.5 222.5,-19.5 133.5,-19.5"/>
<text text-anchor="middle" x="178" y="-26.5" font-family="Helvetica,sans-Serif" font-size="10.00">encapShutDown</text>
</a>
</g>
</g>
<!-- Node1&#45;&gt;Node8 -->
<g id="edge7" class="edge"><title>Node1&#45;&gt;Node8</title>
<path fill="none" stroke="midnightblue" d="M49.7355,-104.17C63.4316,-91.9817 88.2057,-71.0967 112,-57 121.118,-51.5983 131.47,-46.6581 141.19,-42.4816"/>
<polygon fill="midnightblue" stroke="midnightblue" points="142.731,-45.6317 150.63,-38.5708 140.051,-39.1647 142.731,-45.6317"/>
</g>
<!-- Node10 -->
<g id="node10" class="node"><title>Node10</title>
<g id="a_node10"><a xlink:href="cipassembly_8c.html#affe7b3caeccec4db7914566d678b6476" target="_top" xlink:title="clean up the data allocated in the assembly object instances ">
<polygon fill="none" stroke="black" points="123,-66.5 123,-85.5 233,-85.5 233,-66.5 123,-66.5"/>
<text text-anchor="middle" x="178" y="-73.5" font-family="Helvetica,sans-Serif" font-size="10.00">shutdownAssemblies</text>
</a>
</g>
</g>
<!-- Node1&#45;&gt;Node10 -->
<g id="edge9" class="edge"><title>Node1&#45;&gt;Node10</title>
<path fill="none" stroke="midnightblue" d="M73.8232,-104.411C91.6377,-99.5056 113.518,-93.4804 132.539,-88.2429"/>
<polygon fill="midnightblue" stroke="midnightblue" points="133.476,-91.6152 142.188,-85.5859 131.618,-84.8664 133.476,-91.6152"/>
</g>
<!-- Node14 -->
<g id="node14" class="node"><title>Node14</title>
<g id="a_node14"><a xlink:href="ciptcpipinterface_8c.html#a39ea280bf114eee78b60943c4e80537c" target="_top" xlink:title="Clean up the allocated data of the TCPIP interface object. ">
<polygon fill="none" stroke="black" points="112,-104.5 112,-123.5 244,-123.5 244,-104.5 112,-104.5"/>
<text text-anchor="middle" x="178" y="-111.5" font-family="Helvetica,sans-Serif" font-size="10.00">shutdownTCPIP_Interface</text>
</a>
</g>
</g>
<!-- Node1&#45;&gt;Node14 -->
<g id="edge14" class="edge"><title>Node1&#45;&gt;Node14</title>
<path fill="none" stroke="midnightblue" d="M76.3448,-114C84.3483,-114 93.0772,-114 101.941,-114"/>
<polygon fill="midnightblue" stroke="midnightblue" points="101.973,-117.5 111.973,-114 101.973,-110.5 101.973,-117.5"/>
</g>
<!-- Node3 -->
<g id="node3" class="node"><title>Node3</title>
<g id="a_node3"><a xlink:href="cipconnectionmanager_8c.html#acfe67a39991c48ff09b10f066d2ae3e0" target="_top" xlink:title="Close the given connection. ">
<polygon fill="none" stroke="black" points="294,-180.5 294,-199.5 383,-199.5 383,-180.5 294,-180.5"/>
<text text-anchor="middle" x="338.5" y="-187.5" font-family="Helvetica,sans-Serif" font-size="10.00">closeConnection</text>
</a>
</g>
</g>
<!-- Node2&#45;&gt;Node3 -->
<g id="edge2" class="edge"><title>Node2&#45;&gt;Node3</title>
<path fill="none" stroke="midnightblue" d="M231.338,-190C248.139,-190 266.772,-190 283.678,-190"/>
<polygon fill="midnightblue" stroke="midnightblue" points="283.949,-193.5 293.949,-190 283.949,-186.5 283.949,-193.5"/>
</g>
<!-- Node4 -->
<g id="node4" class="node"><title>Node4</title>
<g id="a_node4"><a xlink:href="LM3S8962_2networkhandler_8c.html#ace50de555ae5f54fef339d9e66a34f80" target="_top" xlink:title="IApp_CloseSocket_udp">
<polygon fill="none" stroke="black" points="450.5,-199.5 450.5,-218.5 569.5,-218.5 569.5,-199.5 450.5,-199.5"/>
<text text-anchor="middle" x="510" y="-206.5" font-family="Helvetica,sans-Serif" font-size="10.00">IApp_CloseSocket_udp</text>
</a>
</g>
</g>
<!-- Node3&#45;&gt;Node4 -->
<g id="edge3" class="edge"><title>Node3&#45;&gt;Node4</title>
<path fill="none" stroke="midnightblue" d="M383.15,-194.893C400.608,-196.85 421.136,-199.151 440.489,-201.32"/>
<polygon fill="midnightblue" stroke="midnightblue" points="440.153,-204.804 450.48,-202.44 440.933,-197.848 440.153,-204.804"/>
</g>
<!-- Node5 -->
<g id="node5" class="node"><title>Node5</title>
<g id="a_node5"><a xlink:href="cipconnectionmanager_8c.html#a138378e54c06c512366f0c619ae58005" target="_top" xlink:title="removeFromActiveConnections">
<polygon fill="none" stroke="black" points="433,-161.5 433,-180.5 587,-180.5 587,-161.5 433,-161.5"/>
<text text-anchor="middle" x="510" y="-168.5" font-family="Helvetica,sans-Serif" font-size="10.00">removeFromActiveConnections</text>
</a>
</g>
</g>
<!-- Node3&#45;&gt;Node5 -->
<g id="edge4" class="edge"><title>Node3&#45;&gt;Node5</title>
<path fill="none" stroke="midnightblue" d="M383.15,-185.107C395.385,-183.736 409.127,-182.195 422.916,-180.65"/>
<polygon fill="midnightblue" stroke="midnightblue" points="423.396,-184.118 432.944,-179.525 422.616,-177.161 423.396,-184.118"/>
</g>
<!-- Node7 -->
<g id="node7" class="node"><title>Node7</title>
<g id="a_node7"><a xlink:href="group__CIP__CALLBACK__API.html#ga942a09d5018a26a4bbf34e2deb29c396" target="_top" xlink:title="Free memory allocated by the OpENer. ">
<polygon fill="none" stroke="black" points="300,-114.5 300,-133.5 377,-133.5 377,-114.5 300,-114.5"/>
<text text-anchor="middle" x="338.5" y="-121.5" font-family="Helvetica,sans-Serif" font-size="10.00">IApp_CipFree</text>
</a>
</g>
</g>
<!-- Node6&#45;&gt;Node7 -->
<g id="edge6" class="edge"><title>Node6&#45;&gt;Node7</title>
<path fill="none" stroke="midnightblue" d="M223.151,-144.2C243.854,-140.543 268.562,-136.178 289.704,-132.443"/>
<polygon fill="midnightblue" stroke="midnightblue" points="290.525,-135.853 299.763,-130.666 289.307,-128.959 290.525,-135.853"/>
</g>
<!-- Node9 -->
<g id="node9" class="node"><title>Node9</title>
<g id="a_node9"><a xlink:href="LM3S8962_2networkhandler_8c.html#a166202be863ba2e99e6653d010ea4a6a" target="_top" xlink:title="IApp_CloseSocket_tcp">
<polygon fill="none" stroke="black" points="280,-0.5 280,-19.5 397,-19.5 397,-0.5 280,-0.5"/>
<text text-anchor="middle" x="338.5" y="-7.5" font-family="Helvetica,sans-Serif" font-size="10.00">IApp_CloseSocket_tcp</text>
</a>
</g>
</g>
<!-- Node8&#45;&gt;Node9 -->
<g id="edge8" class="edge"><title>Node8&#45;&gt;Node9</title>
<path fill="none" stroke="midnightblue" d="M222.73,-23.7579C237.237,-22.0189 253.747,-20.0398 269.633,-18.1355"/>
<polygon fill="midnightblue" stroke="midnightblue" points="270.442,-21.5636 279.955,-16.8982 269.609,-14.6133 270.442,-21.5636"/>
</g>
<!-- Node10&#45;&gt;Node7 -->
<g id="edge13" class="edge"><title>Node10&#45;&gt;Node7</title>
<path fill="none" stroke="midnightblue" d="M212.098,-85.5613C222.336,-88.5492 233.643,-91.8804 244,-95 261.519,-100.277 280.839,-106.244 297.346,-111.388"/>
<polygon fill="midnightblue" stroke="midnightblue" points="296.631,-114.831 307.22,-114.471 298.718,-108.149 296.631,-114.831"/>
</g>
<!-- Node11 -->
<g id="node11" class="node"><title>Node11</title>
<g id="a_node11"><a xlink:href="group__CIP__API.html#ga33fda1920669c922471cb6218c8b22b8" target="_top" xlink:title="Get a pointer to an instance&#39;s attribute. ">
<polygon fill="none" stroke="black" points="305,-76.5 305,-95.5 372,-95.5 372,-76.5 305,-76.5"/>
<text text-anchor="middle" x="338.5" y="-83.5" font-family="Helvetica,sans-Serif" font-size="10.00">getAttribute</text>
</a>
</g>
</g>
<!-- Node10&#45;&gt;Node11 -->
<g id="edge10" class="edge"><title>Node10&#45;&gt;Node11</title>
<path fill="none" stroke="midnightblue" d="M233.103,-79.4135C253.231,-80.6833 275.773,-82.1055 294.745,-83.3025"/>
<polygon fill="midnightblue" stroke="midnightblue" points="294.679,-86.8052 304.879,-83.9419 295.12,-79.8191 294.679,-86.8052"/>
</g>
<!-- Node12 -->
<g id="node12" class="node"><title>Node12</title>
<g id="a_node12"><a xlink:href="group__CIP__API.html#ga1db1e5dc1fc04ac40a02f4f4ca550aa1" target="_top" xlink:title="Get a pointer to a CIP object with given class code. ">
<polygon fill="none" stroke="black" points="302,-38.5 302,-57.5 375,-57.5 375,-38.5 302,-38.5"/>
<text text-anchor="middle" x="338.5" y="-45.5" font-family="Helvetica,sans-Serif" font-size="10.00">getCIPClass</text>
</a>
</g>
</g>
<!-- Node10&#45;&gt;Node12 -->
<g id="edge11" class="edge"><title>Node10&#45;&gt;Node12</title>
<path fill="none" stroke="midnightblue" d="M233.103,-66.4423C252.083,-63.0894 273.21,-59.3572 291.466,-56.1322"/>
<polygon fill="midnightblue" stroke="midnightblue" points="292.323,-59.5351 301.562,-54.3487 291.105,-52.6418 292.323,-59.5351"/>
</g>
<!-- Node13 -->
<g id="node13" class="node"><title>Node13</title>
<g id="a_node13"><a xlink:href="cipmessagerouter_8c.html#a64741101a3f7edd3d30c645d7d80374b" target="_top" xlink:title="getRegisteredObject">
<polygon fill="none" stroke="black" points="457,-38.5 457,-57.5 563,-57.5 563,-38.5 457,-38.5"/>
<text text-anchor="middle" x="510" y="-45.5" font-family="Helvetica,sans-Serif" font-size="10.00">getRegisteredObject</text>
</a>
</g>
</g>
<!-- Node12&#45;&gt;Node13 -->
<g id="edge12" class="edge"><title>Node12&#45;&gt;Node13</title>
<path fill="none" stroke="midnightblue" d="M375.033,-48C395.758,-48 422.494,-48 446.623,-48"/>
<polygon fill="midnightblue" stroke="midnightblue" points="446.779,-51.5001 456.779,-48 446.779,-44.5001 446.779,-51.5001"/>
</g>
<!-- Node14&#45;&gt;Node7 -->
<g id="edge15" class="edge"><title>Node14&#45;&gt;Node7</title>
<path fill="none" stroke="midnightblue" d="M244.383,-118.125C259.617,-119.086 275.556,-120.092 289.853,-120.994"/>
<polygon fill="midnightblue" stroke="midnightblue" points="289.74,-124.494 299.941,-121.63 290.181,-117.508 289.74,-124.494"/>
</g>
</g>
</svg>
