<?xml version="1.0" encoding="UTF-8" standalone="no"?>
<!DOCTYPE svg PUBLIC "-//W3C//DTD SVG 1.1//EN"
 "http://www.w3.org/Graphics/SVG/1.1/DTD/svg11.dtd">
<!-- Generated by graphviz version 2.38.0 (20140413.2041)
 -->
<!-- Title: createCIPClass Pages: 1 -->
<!--zoomable 256 -->
<svg id="main" version="1.1" xmlns="http://www.w3.org/2000/svg" xmlns:xlink="http://www.w3.org/1999/xlink" xml:space="preserve" onload="init(evt)">
<style type="text/css"><![CDATA[
.edge:hover path { stroke: red; }
.edge:hover polygon { stroke: red; fill: red; }
]]></style>
<script type="text/javascript"><![CDATA[
var edges = document.getElementsByTagName('g');
if (edges && edges.length) {
  for (var i=0;i<edges.length;i++) {
    if (edges[i].id.substr(0,4)=='edge') {
      edges[i].setAttribute('class','edge');
    }
  }
}
]]></script>
        <defs>
                <circle id="rim" cx="0" cy="0" r="7"/>
                <circle id="rim2" cx="0" cy="0" r="3.5"/>
                <g id="zoomPlus">
                        <use xlink:href="#rim" fill="#404040">
                                <set attributeName="fill" to="#808080" begin="zoomplus.mouseover" end="zoomplus.mouseout"/>
                        </use>
                        <path d="M-4,0h8M0,-4v8" fill="none" stroke="white" stroke-width="1.5" pointer-events="none"/>
                </g>
                <g id="zoomMin">
                        <use xlink:href="#rim" fill="#404040">
                                <set attributeName="fill" to="#808080" begin="zoomminus.mouseover" end="zoomminus.mouseout"/>
                        </use>
                        <path d="M-4,0h8" fill="none" stroke="white" stroke-width="1.5" pointer-events="none"/>
                </g>
                <g id="dirArrow">
                        <path fill="none" stroke="white" stroke-width="1.5" d="M0,-3.0v7 M-2.5,-0.5L0,-3.0L2.5,-0.5"/>
                </g>
               <g id="resetDef">
                       <use xlink:href="#rim2" fill="#404040">
                               <set attributeName="fill" to="#808080" begin="reset.mouseover" end="reset.mouseout"/>
                       </use>
               </g>
        </defs>

<script type="text/javascript">
var viewWidth = 581;
var viewHeight = 256;
var sectionId = 'dynsection-22';
</script>
<script xlink:href="svgpan.js"/>
<svg id="graph" class="graph">
<g id="viewport">
<title>createCIPClass</title>
<!-- Node1 -->
<g id="node1" class="node"><title>Node1</title>
<polygon fill="#bfbfbf" stroke="black" points="0,-133.5 0,-152.5 86,-152.5 86,-133.5 0,-133.5"/>
<text text-anchor="middle" x="43" y="-140.5" font-family="Helvetica,sans-Serif" font-size="10.00">createCIPClass</text>
</g>
<!-- Node2 -->
<g id="node2" class="node"><title>Node2</title>
<g id="a_node2"><a xlink:href="cipethernetlink_8h.html#a94ae89fe23718c8f8c2dbdf1b0f9728b" target="_top" xlink:title="CIP_Ethernet_Link_Init">
<polygon fill="none" stroke="black" points="289,-228.5 289,-247.5 407,-247.5 407,-228.5 289,-228.5"/>
<text text-anchor="middle" x="348" y="-235.5" font-family="Helvetica,sans-Serif" font-size="10.00">CIP_Ethernet_Link_Init</text>
</a>
</g>
</g>
<!-- Node1&#45;&gt;Node2 -->
<g id="edge1" class="edge"><title>Node1&#45;&gt;Node2</title>
<path fill="none" stroke="midnightblue" d="M60.3146,-159.938C75.0418,-174.126 98.0223,-193.669 122,-204 175.515,-227.058 242.056,-234.833 288.848,-237.281"/>
<polygon fill="midnightblue" stroke="midnightblue" points="62.589,-157.264 53.0279,-152.699 57.6555,-162.23 62.589,-157.264"/>
</g>
<!-- Node5 -->
<g id="node5" class="node"><title>Node5</title>
<g id="a_node5"><a xlink:href="cipidentity_8h.html#ab0d1a38dc36f2ff134a8f3c39e1011ac" target="_top" xlink:title="CIP_Identity_Init">
<polygon fill="none" stroke="black" points="303,-190.5 303,-209.5 393,-209.5 393,-190.5 303,-190.5"/>
<text text-anchor="middle" x="348" y="-197.5" font-family="Helvetica,sans-Serif" font-size="10.00">CIP_Identity_Init</text>
</a>
</g>
</g>
<!-- Node1&#45;&gt;Node5 -->
<g id="edge4" class="edge"><title>Node1&#45;&gt;Node5</title>
<path fill="none" stroke="midnightblue" d="M68.5005,-157.85C83.4209,-166.14 103.178,-175.815 122,-181 183.037,-197.813 256.609,-200.975 302.608,-201.017"/>
<polygon fill="midnightblue" stroke="midnightblue" points="69.8689,-154.6 59.4525,-152.664 66.3878,-160.674 69.8689,-154.6"/>
</g>
<!-- Node6 -->
<g id="node6" class="node"><title>Node6</title>
<g id="a_node6"><a xlink:href="cipmessagerouter_8h.html#a38e5a73fe312fc30f7c79e19a954d49a" target="_top" xlink:title="CIP_MessageRouter_Init">
<polygon fill="none" stroke="black" points="124,-152.5 124,-171.5 251,-171.5 251,-152.5 124,-152.5"/>
<text text-anchor="middle" x="187.5" y="-159.5" font-family="Helvetica,sans-Serif" font-size="10.00">CIP_MessageRouter_Init</text>
</a>
</g>
</g>
<!-- Node1&#45;&gt;Node6 -->
<g id="edge6" class="edge"><title>Node1&#45;&gt;Node6</title>
<path fill="none" stroke="midnightblue" d="M96.3123,-149.975C105.313,-151.175 114.748,-152.433 123.984,-153.665"/>
<polygon fill="midnightblue" stroke="midnightblue" points="96.7438,-146.502 86.3689,-148.649 95.8186,-153.44 96.7438,-146.502"/>
</g>
<!-- Node7 -->
<g id="node7" class="node"><title>Node7</title>
<g id="a_node7"><a xlink:href="ciptcpipinterface_8h.html#aee1012f01aecd02a81661214880f273e" target="_top" xlink:title="CIP_TCPIP_Interface_Init">
<polygon fill="none" stroke="black" points="122,-114.5 122,-133.5 253,-133.5 253,-114.5 122,-114.5"/>
<text text-anchor="middle" x="187.5" y="-121.5" font-family="Helvetica,sans-Serif" font-size="10.00">CIP_TCPIP_Interface_Init</text>
</a>
</g>
</g>
<!-- Node1&#45;&gt;Node7 -->
<g id="edge8" class="edge"><title>Node1&#45;&gt;Node7</title>
<path fill="none" stroke="midnightblue" d="M96.2961,-136.027C104.613,-134.918 113.302,-133.76 121.863,-132.618"/>
<polygon fill="midnightblue" stroke="midnightblue" points="95.8186,-132.56 86.3689,-137.351 96.7438,-139.498 95.8186,-132.56"/>
</g>
<!-- Node8 -->
<g id="node8" class="node"><title>Node8</title>
<g id="a_node8"><a xlink:href="cipconnectionmanager_8h.html#abbdafd9e83df08856ba6de13890cf40f" target="_top" xlink:title="Connection_Manager_Init">
<polygon fill="none" stroke="black" points="123.5,-76.5 123.5,-95.5 251.5,-95.5 251.5,-76.5 123.5,-76.5"/>
<text text-anchor="middle" x="187.5" y="-83.5" font-family="Helvetica,sans-Serif" font-size="10.00">Connection_Manager_Init</text>
</a>
</g>
</g>
<!-- Node1&#45;&gt;Node8 -->
<g id="edge10" class="edge"><title>Node1&#45;&gt;Node8</title>
<path fill="none" stroke="midnightblue" d="M70.6913,-128.622C85.5315,-120.981 104.488,-111.79 122,-105 131.034,-101.497 140.99,-98.2684 150.32,-95.5043"/>
<polygon fill="midnightblue" stroke="midnightblue" points="68.8312,-125.645 61.5903,-133.379 72.074,-131.849 68.8312,-125.645"/>
</g>
<!-- Node9 -->
<g id="node9" class="node"><title>Node9</title>
<g id="a_node9"><a xlink:href="cipassembly_8c.html#a3c4ec5deffa8a629431f2d4f7587def6" target="_top" xlink:title="createAssemblyClass">
<polygon fill="none" stroke="black" points="131,-38.5 131,-57.5 244,-57.5 244,-38.5 131,-38.5"/>
<text text-anchor="middle" x="187.5" y="-45.5" font-family="Helvetica,sans-Serif" font-size="10.00">createAssemblyClass</text>
</a>
</g>
</g>
<!-- Node1&#45;&gt;Node9 -->
<g id="edge12" class="edge"><title>Node1&#45;&gt;Node9</title>
<path fill="none" stroke="midnightblue" d="M57.8684,-125.153C72.1761,-107.901 96.0143,-82.2059 122,-67 128.549,-63.1677 135.931,-60.0566 143.3,-57.5476"/>
<polygon fill="midnightblue" stroke="midnightblue" points="54.8477,-123.323 51.2943,-133.304 60.2965,-127.718 54.8477,-123.323"/>
</g>
<!-- Node3 -->
<g id="node3" class="node"><title>Node3</title>
<g id="a_node3"><a xlink:href="group__CIP__API.html#ga8fe857c3e88bf986fda82fbac6702c9f" target="_top" xlink:title="Initialize and setup the CIP&#45;stack. ">
<polygon fill="none" stroke="black" points="444.5,-133.5 444.5,-152.5 497.5,-152.5 497.5,-133.5 444.5,-133.5"/>
<text text-anchor="middle" x="471" y="-140.5" font-family="Helvetica,sans-Serif" font-size="10.00">CIP_Init</text>
</a>
</g>
</g>
<!-- Node2&#45;&gt;Node3 -->
<g id="edge2" class="edge"><title>Node2&#45;&gt;Node3</title>
<path fill="none" stroke="midnightblue" d="M397.777,-224.345C401,-222.743 404.109,-220.967 407,-219 433.494,-200.967 454.898,-168.727 464.511,-152.657"/>
<polygon fill="midnightblue" stroke="midnightblue" points="396.239,-221.197 388.477,-228.408 399.042,-227.611 396.239,-221.197"/>
</g>
<!-- Node4 -->
<g id="node4" class="node"><title>Node4</title>
<g id="a_node4"><a xlink:href="LM3S8962_2sample__application_2main_8c.html#a840291bc02cba5474a4cb46a9b9566fe" target="_top" xlink:title="main">
<polygon fill="none" stroke="black" points="535,-133.5 535,-152.5 573,-152.5 573,-133.5 535,-133.5"/>
<text text-anchor="middle" x="554" y="-140.5" font-family="Helvetica,sans-Serif" font-size="10.00">main</text>
</a>
</g>
</g>
<!-- Node3&#45;&gt;Node4 -->
<g id="edge3" class="edge"><title>Node3&#45;&gt;Node4</title>
<path fill="none" stroke="midnightblue" d="M507.645,-143C517.096,-143 526.905,-143 534.973,-143"/>
<polygon fill="midnightblue" stroke="midnightblue" points="507.629,-139.5 497.629,-143 507.629,-146.5 507.629,-139.5"/>
</g>
<!-- Node5&#45;&gt;Node3 -->
<g id="edge5" class="edge"><title>Node5&#45;&gt;Node3</title>
<path fill="none" stroke="midnightblue" d="M382.898,-186.575C390.864,-183.254 399.28,-179.61 407,-176 422.77,-168.625 440.28,-159.363 452.83,-152.53"/>
<polygon fill="midnightblue" stroke="midnightblue" points="381.403,-183.405 373.481,-190.44 384.061,-189.881 381.403,-183.405"/>
</g>
<!-- Node6&#45;&gt;Node3 -->
<g id="edge7" class="edge"><title>Node6&#45;&gt;Node3</title>
<path fill="none" stroke="midnightblue" d="M261.535,-157.07C321.693,-153.01 403.518,-147.487 444.46,-144.724"/>
<polygon fill="midnightblue" stroke="midnightblue" points="261.065,-153.594 251.324,-157.76 261.537,-160.578 261.065,-153.594"/>
</g>
<!-- Node7&#45;&gt;Node3 -->
<g id="edge9" class="edge"><title>Node7&#45;&gt;Node3</title>
<path fill="none" stroke="midnightblue" d="M263.273,-129.047C323.255,-133.095 403.897,-138.538 444.45,-141.276"/>
<polygon fill="midnightblue" stroke="midnightblue" points="263.295,-125.54 253.082,-128.359 262.823,-132.525 263.295,-125.54"/>
</g>
<!-- Node8&#45;&gt;Node3 -->
<g id="edge11" class="edge"><title>Node8&#45;&gt;Node3</title>
<path fill="none" stroke="midnightblue" d="M254.71,-97.3006C298.151,-104.991 356.124,-115.778 407,-127 419.342,-129.722 432.944,-133.125 444.34,-136.092"/>
<polygon fill="midnightblue" stroke="midnightblue" points="255.289,-93.8488 244.833,-95.5611 254.074,-100.743 255.289,-93.8488"/>
</g>
<!-- Node10 -->
<g id="node10" class="node"><title>Node10</title>
<g id="a_node10"><a xlink:href="cipassembly_8h.html#a8bda91239ead4adcd1082d0c3b911b2c" target="_top" xlink:title="CIP_Assembly_Init">
<polygon fill="none" stroke="black" points="297.5,-38.5 297.5,-57.5 398.5,-57.5 398.5,-38.5 297.5,-38.5"/>
<text text-anchor="middle" x="348" y="-45.5" font-family="Helvetica,sans-Serif" font-size="10.00">CIP_Assembly_Init</text>
</a>
</g>
</g>
<!-- Node9&#45;&gt;Node10 -->
<g id="edge13" class="edge"><title>Node9&#45;&gt;Node10</title>
<path fill="none" stroke="midnightblue" d="M254.671,-48C268.983,-48 283.88,-48 297.425,-48"/>
<polygon fill="midnightblue" stroke="midnightblue" points="254.381,-44.5001 244.381,-48 254.381,-51.5001 254.381,-44.5001"/>
</g>
<!-- Node11 -->
<g id="node11" class="node"><title>Node11</title>
<g id="a_node11"><a xlink:href="group__CIP__API.html#ga1b4ab5ecfa81f356a751555a067c5f71" target="_top" xlink:title="Create an instance of an assembly object. ">
<polygon fill="none" stroke="black" points="290,-0.5 290,-19.5 406,-19.5 406,-0.5 290,-0.5"/>
<text text-anchor="middle" x="348" y="-7.5" font-family="Helvetica,sans-Serif" font-size="10.00">createAssemblyObject</text>
</a>
</g>
</g>
<!-- Node9&#45;&gt;Node11 -->
<g id="edge15" class="edge"><title>Node9&#45;&gt;Node11</title>
<path fill="none" stroke="midnightblue" d="M238.419,-36.032C260.63,-30.7069 286.421,-24.5238 307.291,-19.5201"/>
<polygon fill="midnightblue" stroke="midnightblue" points="237.405,-32.676 228.496,-38.411 239.037,-39.4831 237.405,-32.676"/>
</g>
<!-- Node10&#45;&gt;Node3 -->
<g id="edge14" class="edge"><title>Node10&#45;&gt;Node3</title>
<path fill="none" stroke="midnightblue" d="M388.607,-61.5435C395.023,-64.5256 401.393,-68.0084 407,-72 431.702,-89.5857 453.441,-118.571 463.715,-133.484"/>
<polygon fill="midnightblue" stroke="midnightblue" points="389.828,-58.2587 379.258,-57.5316 387.067,-64.6915 389.828,-58.2587"/>
</g>
<!-- Node12 -->
<g id="node12" class="node"><title>Node12</title>
<g id="a_node12"><a xlink:href="group__CIP__CALLBACK__API.html#ga59b2842f01ca8f913ef0afe3f3c787aa" target="_top" xlink:title="Callback for the application initialization. ">
<polygon fill="none" stroke="black" points="443,-0.5 443,-19.5 499,-19.5 499,-0.5 443,-0.5"/>
<text text-anchor="middle" x="471" y="-7.5" font-family="Helvetica,sans-Serif" font-size="10.00">IApp_Init</text>
</a>
</g>
</g>
<!-- Node11&#45;&gt;Node12 -->
<g id="edge16" class="edge"><title>Node11&#45;&gt;Node12</title>
<path fill="none" stroke="midnightblue" d="M416.433,-10C425.72,-10 434.787,-10 442.742,-10"/>
<polygon fill="midnightblue" stroke="midnightblue" points="416.311,-6.5001 406.311,-10 416.311,-13.5001 416.311,-6.5001"/>
</g>
</g>
</svg>
        <g id="navigator" transform="translate(0 0)" fill="#404254">
                <rect fill="#f2f5e9" fill-opacity="0.5" stroke="#606060" stroke-width=".5" x="0" y="0" width="60" height="60"/>
                <use id="zoomplus" xlink:href="#zoomPlus" x="17" y="9" onmousedown="handleZoom(evt,'in')"/>
                <use id="zoomminus" xlink:href="#zoomMin" x="42" y="9" onmousedown="handleZoom(evt,'out')"/>
                <use id="reset" xlink:href="#resetDef" x="30" y="36" onmousedown="handleReset()"/>
                <g id="arrowUp" xlink:href="#dirArrow" transform="translate(30 24)" onmousedown="handlePan(0,-1)">
                  <use xlink:href="#rim" fill="#404040">
                        <set attributeName="fill" to="#808080" begin="arrowUp.mouseover" end="arrowUp.mouseout"/>
                  </use>
                  <path fill="none" stroke="white" stroke-width="1.5" d="M0,-3.0v7 M-2.5,-0.5L0,-3.0L2.5,-0.5"/>
                </g>
                <g id="arrowRight" xlink:href="#dirArrow" transform="rotate(90) translate(36 -43)" onmousedown="handlePan(1,0)">
                  <use xlink:href="#rim" fill="#404040">
                        <set attributeName="fill" to="#808080" begin="arrowRight.mouseover" end="arrowRight.mouseout"/>
                  </use>
                  <path fill="none" stroke="white" stroke-width="1.5" d="M0,-3.0v7 M-2.5,-0.5L0,-3.0L2.5,-0.5"/>
                </g>
                <g id="arrowDown" xlink:href="#dirArrow" transform="rotate(180) translate(-30 -48)" onmousedown="handlePan(0,1)">
                  <use xlink:href="#rim" fill="#404040">
                        <set attributeName="fill" to="#808080" begin="arrowDown.mouseover" end="arrowDown.mouseout"/>
                  </use>
                  <path fill="none" stroke="white" stroke-width="1.5" d="M0,-3.0v7 M-2.5,-0.5L0,-3.0L2.5,-0.5"/>
                </g>
                <g id="arrowLeft" xlink:href="#dirArrow" transform="rotate(270) translate(-36 17)" onmousedown="handlePan(-1,0)">
                  <use xlink:href="#rim" fill="#404040">
                        <set attributeName="fill" to="#808080" begin="arrowLeft.mouseover" end="arrowLeft.mouseout"/>
                  </use>
                  <path fill="none" stroke="white" stroke-width="1.5" d="M0,-3.0v7 M-2.5,-0.5L0,-3.0L2.5,-0.5"/>
                </g>
        </g>
        <svg viewBox="0 0 15 15" width="100%" height="30px" preserveAspectRatio="xMaxYMin meet">
         <g id="arrow_out" transform="scale(0.3 0.3)">
          <a xlink:href="group__CIP__API_ga5f372afe536285966f0d07cda8eceda2_icgraph_org.svg" target="_base">
           <rect id="button" ry="5" rx="5" y="6" x="6" height="38" width="38"
                fill="#f2f5e9" fill-opacity="0.5" stroke="#606060" stroke-width="1.0"/>
           <path id="arrow"
             d="M 11.500037,31.436501 C 11.940474,20.09759 22.043105,11.32322 32.158766,21.979434 L 37.068811,17.246167 C 37.068811,17.246167 37.088388,32 37.088388,32 L 22.160133,31.978069 C 22.160133,31.978069 26.997745,27.140456 26.997745,27.140456 C 18.528582,18.264221 13.291696,25.230495 11.500037,31.436501 z"
             style="fill:#404040;"/>
          </a>
         </g>
        </svg>
</svg>
