<?xml version="1.0" encoding="UTF-8" standalone="no"?>
<!DOCTYPE svg PUBLIC "-//W3C//DTD SVG 1.1//EN"
 "http://www.w3.org/Graphics/SVG/1.1/DTD/svg11.dtd">
<!-- Generated by graphviz version 2.38.0 (20140413.2041)
 -->
<!-- Title: tcp_receive_callback Pages: 1 -->
<svg width="492pt" height="39pt"
 viewBox="0.00 0.00 492.00 39.00" xmlns="http://www.w3.org/2000/svg" xmlns:xlink="http://www.w3.org/1999/xlink">
<g id="graph0" class="graph" transform="scale(1 1) rotate(0) translate(4 35)">
<title>tcp_receive_callback</title>
<!-- Node1 -->
<g id="node1" class="node"><title>Node1</title>
<polygon fill="#bfbfbf" stroke="black" points="0,-6 0,-25 108,-25 108,-6 0,-6"/>
<text text-anchor="middle" x="54" y="-13" font-family="Helvetica,sans-Serif" font-size="10.00">tcp_receive_callback</text>
</g>
<!-- Node2 -->
<g id="node2" class="node"><title>Node2</title>
<g id="a_node2"><a xlink:href="LM3S8962_2networkhandler_8c.html#a44614e422def6d9b7eb8f3b0e430f7ef" target="_top" xlink:title="tcp_connection_accept\l_callback">
<polygon fill="none" stroke="black" points="144,-0.5 144,-30.5 261,-30.5 261,-0.5 144,-0.5"/>
<text text-anchor="start" x="152" y="-18.5" font-family="Helvetica,sans-Serif" font-size="10.00">tcp_connection_accept</text>
<text text-anchor="middle" x="202.5" y="-7.5" font-family="Helvetica,sans-Serif" font-size="10.00">_callback</text>
</a>
</g>
</g>
<!-- Node1&#45;&gt;Node2 -->
<g id="edge1" class="edge"><title>Node1&#45;&gt;Node2</title>
<path fill="none" stroke="midnightblue" d="M118.383,-15.5C126.742,-15.5 135.275,-15.5 143.537,-15.5"/>
<polygon fill="midnightblue" stroke="midnightblue" points="118.304,-12.0001 108.304,-15.5 118.304,-19.0001 118.304,-12.0001"/>
</g>
<!-- Node3 -->
<g id="node3" class="node"><title>Node3</title>
<g id="a_node3"><a xlink:href="LM3S8962_2networkhandler_8h.html#a6151b0813befe78de7bfd9d7e08866ba" target="_top" xlink:title="Start_NetworkHandler">
<polygon fill="none" stroke="black" points="297,-6 297,-25 410,-25 410,-6 297,-6"/>
<text text-anchor="middle" x="353.5" y="-13" font-family="Helvetica,sans-Serif" font-size="10.00">Start_NetworkHandler</text>
</a>
</g>
</g>
<!-- Node2&#45;&gt;Node3 -->
<g id="edge2" class="edge"><title>Node2&#45;&gt;Node3</title>
<path fill="none" stroke="midnightblue" d="M271.307,-15.5C279.741,-15.5 288.289,-15.5 296.516,-15.5"/>
<polygon fill="midnightblue" stroke="midnightblue" points="271.107,-12.0001 261.107,-15.5 271.107,-19.0001 271.107,-12.0001"/>
</g>
<!-- Node4 -->
<g id="node4" class="node"><title>Node4</title>
<g id="a_node4"><a xlink:href="LM3S8962_2sample__application_2main_8c.html#a840291bc02cba5474a4cb46a9b9566fe" target="_top" xlink:title="main">
<polygon fill="none" stroke="black" points="446,-6 446,-25 484,-25 484,-6 446,-6"/>
<text text-anchor="middle" x="465" y="-13" font-family="Helvetica,sans-Serif" font-size="10.00">main</text>
</a>
</g>
</g>
<!-- Node3&#45;&gt;Node4 -->
<g id="edge3" class="edge"><title>Node3&#45;&gt;Node4</title>
<path fill="none" stroke="midnightblue" d="M420.416,-15.5C429.707,-15.5 438.55,-15.5 445.813,-15.5"/>
<polygon fill="midnightblue" stroke="midnightblue" points="420.212,-12.0001 410.212,-15.5 420.212,-19.0001 420.212,-12.0001"/>
</g>
</g>
</svg>
