<?xml version="1.0" encoding="UTF-8" standalone="no"?>
<!DOCTYPE svg PUBLIC "-//W3C//DTD SVG 1.1//EN"
 "http://www.w3.org/Graphics/SVG/1.1/DTD/svg11.dtd">
<!-- Generated by graphviz version 2.38.0 (20140413.2041)
 -->
<!-- Title: setCIPaddress Pages: 1 -->
<svg width="378pt" height="104pt"
 viewBox="0.00 0.00 378.00 104.00" xmlns="http://www.w3.org/2000/svg" xmlns:xlink="http://www.w3.org/1999/xlink">
<g id="graph0" class="graph" transform="scale(1 1) rotate(0) translate(4 100)">
<title>setCIPaddress</title>
<!-- Node1 -->
<g id="node1" class="node"><title>Node1</title>
<polygon fill="#bfbfbf" stroke="black" points="0,-38.5 0,-57.5 82,-57.5 82,-38.5 0,-38.5"/>
<text text-anchor="middle" x="41" y="-45.5" font-family="Helvetica,sans-Serif" font-size="10.00">setCIPaddress</text>
</g>
<!-- Node2 -->
<g id="node2" class="node"><title>Node2</title>
<g id="a_node2"><a xlink:href="group__CIP__API.html#gaadc9d890386bdc79ccb1311ae5b5129d" target="_top" xlink:title="Configure the domain name of the device. ">
<polygon fill="none" stroke="black" points="125.5,-38.5 125.5,-57.5 241.5,-57.5 241.5,-38.5 125.5,-38.5"/>
<text text-anchor="middle" x="183.5" y="-45.5" font-family="Helvetica,sans-Serif" font-size="10.00">configureDomainName</text>
</a>
</g>
</g>
<!-- Node1&#45;&gt;Node2 -->
<g id="edge1" class="edge"><title>Node1&#45;&gt;Node2</title>
<path fill="none" stroke="midnightblue" d="M82.2617,-48C92.5675,-48 103.933,-48 115.198,-48"/>
<polygon fill="midnightblue" stroke="midnightblue" points="115.481,-51.5001 125.481,-48 115.481,-44.5001 115.481,-51.5001"/>
</g>
<!-- Node5 -->
<g id="node5" class="node"><title>Node5</title>
<g id="a_node5"><a xlink:href="group__CIP__API.html#ga66dc2aaa2cf16c7d56cadab29ca66a70" target="_top" xlink:title="Configure the host name of the device. ">
<polygon fill="none" stroke="black" points="131.5,-76.5 131.5,-95.5 235.5,-95.5 235.5,-76.5 131.5,-76.5"/>
<text text-anchor="middle" x="183.5" y="-83.5" font-family="Helvetica,sans-Serif" font-size="10.00">configureHostName</text>
</a>
</g>
</g>
<!-- Node1&#45;&gt;Node5 -->
<g id="edge4" class="edge"><title>Node1&#45;&gt;Node5</title>
<path fill="none" stroke="midnightblue" d="M77.4541,-57.589C95.5913,-62.4944 117.868,-68.5196 137.233,-73.7571"/>
<polygon fill="midnightblue" stroke="midnightblue" points="136.49,-77.1818 147.057,-76.4141 138.318,-70.4246 136.49,-77.1818"/>
</g>
<!-- Node6 -->
<g id="node6" class="node"><title>Node6</title>
<g id="a_node6"><a xlink:href="group__CIP__API.html#gabad840b9da3140beac69e9885508e96e" target="_top" xlink:title="Configure the data of the network interface of the device. ">
<polygon fill="none" stroke="black" points="118,-0.5 118,-19.5 249,-19.5 249,-0.5 118,-0.5"/>
<text text-anchor="middle" x="183.5" y="-7.5" font-family="Helvetica,sans-Serif" font-size="10.00">configureNetworkInterface</text>
</a>
</g>
</g>
<!-- Node1&#45;&gt;Node6 -->
<g id="edge7" class="edge"><title>Node1&#45;&gt;Node6</title>
<path fill="none" stroke="midnightblue" d="M77.4541,-38.411C95.5913,-33.5056 117.868,-27.4804 137.233,-22.2429"/>
<polygon fill="midnightblue" stroke="midnightblue" points="138.318,-25.5754 147.057,-19.5859 136.49,-18.8182 138.318,-25.5754"/>
</g>
<!-- Node3 -->
<g id="node3" class="node"><title>Node3</title>
<g id="a_node3"><a xlink:href="group__CIP__CALLBACK__API.html#ga942a09d5018a26a4bbf34e2deb29c396" target="_top" xlink:title="Free memory allocated by the OpENer. ">
<polygon fill="none" stroke="black" points="289,-76.5 289,-95.5 366,-95.5 366,-76.5 289,-76.5"/>
<text text-anchor="middle" x="327.5" y="-83.5" font-family="Helvetica,sans-Serif" font-size="10.00">IApp_CipFree</text>
</a>
</g>
</g>
<!-- Node2&#45;&gt;Node3 -->
<g id="edge2" class="edge"><title>Node2&#45;&gt;Node3</title>
<path fill="none" stroke="midnightblue" d="M220.333,-57.589C238.663,-62.4944 261.178,-68.5196 280.75,-73.7571"/>
<polygon fill="midnightblue" stroke="midnightblue" points="280.114,-77.2099 290.679,-76.4141 281.924,-70.4479 280.114,-77.2099"/>
</g>
<!-- Node4 -->
<g id="node4" class="node"><title>Node4</title>
<g id="a_node4"><a xlink:href="group__CIP__CALLBACK__API.html#ga17e4fa1e0e37455d4f3a9599fb323c0d" target="_top" xlink:title="Allocate memory for the cip stack. ">
<polygon fill="none" stroke="black" points="285,-38.5 285,-57.5 370,-57.5 370,-38.5 285,-38.5"/>
<text text-anchor="middle" x="327.5" y="-45.5" font-family="Helvetica,sans-Serif" font-size="10.00">IApp_CipCalloc</text>
</a>
</g>
</g>
<!-- Node2&#45;&gt;Node4 -->
<g id="edge3" class="edge"><title>Node2&#45;&gt;Node4</title>
<path fill="none" stroke="midnightblue" d="M241.848,-48C252.697,-48 263.989,-48 274.657,-48"/>
<polygon fill="midnightblue" stroke="midnightblue" points="274.659,-51.5001 284.659,-48 274.659,-44.5001 274.659,-51.5001"/>
</g>
<!-- Node5&#45;&gt;Node3 -->
<g id="edge5" class="edge"><title>Node5&#45;&gt;Node3</title>
<path fill="none" stroke="midnightblue" d="M235.765,-86C249.692,-86 264.72,-86 278.462,-86"/>
<polygon fill="midnightblue" stroke="midnightblue" points="278.68,-89.5001 288.68,-86 278.68,-82.5001 278.68,-89.5001"/>
</g>
<!-- Node5&#45;&gt;Node4 -->
<g id="edge6" class="edge"><title>Node5&#45;&gt;Node4</title>
<path fill="none" stroke="midnightblue" d="M220.333,-76.411C238.663,-71.5056 261.178,-65.4804 280.75,-60.2429"/>
<polygon fill="midnightblue" stroke="midnightblue" points="281.924,-63.5521 290.679,-57.5859 280.114,-56.7901 281.924,-63.5521"/>
</g>
</g>
</svg>
