<?xml version="1.0" encoding="UTF-8" standalone="no"?>
<!DOCTYPE svg PUBLIC "-//W3C//DTD SVG 1.1//EN"
 "http://www.w3.org/Graphics/SVG/1.1/DTD/svg11.dtd">
<!-- Generated by graphviz version 2.38.0 (20140413.2041)
 -->
<!-- Title: src/trace.h Pages: 1 -->
<!--zoomable 106 -->
<svg id="main" version="1.1" xmlns="http://www.w3.org/2000/svg" xmlns:xlink="http://www.w3.org/1999/xlink" xml:space="preserve" onload="init(evt)">
<style type="text/css"><![CDATA[
.edge:hover path { stroke: red; }
.edge:hover polygon { stroke: red; fill: red; }
]]></style>
<script type="text/javascript"><![CDATA[
var edges = document.getElementsByTagName('g');
if (edges && edges.length) {
  for (var i=0;i<edges.length;i++) {
    if (edges[i].id.substr(0,4)=='edge') {
      edges[i].setAttribute('class','edge');
    }
  }
}
]]></script>
        <defs>
                <circle id="rim" cx="0" cy="0" r="7"/>
                <circle id="rim2" cx="0" cy="0" r="3.5"/>
                <g id="zoomPlus">
                        <use xlink:href="#rim" fill="#404040">
                                <set attributeName="fill" to="#808080" begin="zoomplus.mouseover" end="zoomplus.mouseout"/>
                        </use>
                        <path d="M-4,0h8M0,-4v8" fill="none" stroke="white" stroke-width="1.5" pointer-events="none"/>
                </g>
                <g id="zoomMin">
                        <use xlink:href="#rim" fill="#404040">
                                <set attributeName="fill" to="#808080" begin="zoomminus.mouseover" end="zoomminus.mouseout"/>
                        </use>
                        <path d="M-4,0h8" fill="none" stroke="white" stroke-width="1.5" pointer-events="none"/>
                </g>
                <g id="dirArrow">
                        <path fill="none" stroke="white" stroke-width="1.5" d="M0,-3.0v7 M-2.5,-0.5L0,-3.0L2.5,-0.5"/>
                </g>
               <g id="resetDef">
                       <use xlink:href="#rim2" fill="#404040">
                               <set attributeName="fill" to="#808080" begin="reset.mouseover" end="reset.mouseout"/>
                       </use>
               </g>
        </defs>

<script type="text/javascript">
var viewWidth = 1975;
var viewHeight = 106;
var sectionId = 'dynsection-1';
</script>
<script xlink:href="svgpan.js"/>
<svg id="graph" class="graph">
<g id="viewport">
<title>src/trace.h</title>
<!-- Node1 -->
<g id="node1" class="node"><title>Node1</title>
<polygon fill="#bfbfbf" stroke="black" points="930.5,-78.5 930.5,-97.5 993.5,-97.5 993.5,-78.5 930.5,-78.5"/>
<text text-anchor="middle" x="962" y="-85.5" font-family="Helvetica,sans-Serif" font-size="10.00">src/trace.h</text>
</g>
<!-- Node2 -->
<g id="node2" class="node"><title>Node2</title>
<g id="a_node2"><a xlink:href="cipassembly_8c.html" target="_top" xlink:title="src/cip/cipassembly.c">
<polygon fill="none" stroke="black" points="0,-11.5 0,-30.5 112,-30.5 112,-11.5 0,-11.5"/>
<text text-anchor="middle" x="56" y="-18.5" font-family="Helvetica,sans-Serif" font-size="10.00">src/cip/cipassembly.c</text>
</a>
</g>
</g>
<!-- Node1&#45;&gt;Node2 -->
<g id="edge1" class="edge"><title>Node1&#45;&gt;Node2</title>
<path fill="none" stroke="midnightblue" d="M920.297,-86.1465C772.811,-82.9137 276.348,-70.1501 120,-42 105.908,-39.4628 90.5833,-34.7467 78.4633,-30.5312"/>
<polygon fill="midnightblue" stroke="midnightblue" points="920.23,-89.6458 930.303,-86.3629 920.381,-82.6474 920.23,-89.6458"/>
</g>
<!-- Node3 -->
<g id="node3" class="node"><title>Node3</title>
<g id="a_node3"><a xlink:href="cipcommon_8c.html" target="_top" xlink:title="src/cip/cipcommon.c">
<polygon fill="none" stroke="black" points="129.5,-11.5 129.5,-30.5 236.5,-30.5 236.5,-11.5 129.5,-11.5"/>
<text text-anchor="middle" x="183" y="-18.5" font-family="Helvetica,sans-Serif" font-size="10.00">src/cip/cipcommon.c</text>
</a>
</g>
</g>
<!-- Node1&#45;&gt;Node3 -->
<g id="edge2" class="edge"><title>Node1&#45;&gt;Node3</title>
<path fill="none" stroke="midnightblue" d="M920.035,-85.7398C787.009,-81.529 375.794,-66.7965 245,-42 231.443,-39.4298 216.727,-34.7671 205.035,-30.59"/>
<polygon fill="midnightblue" stroke="midnightblue" points="920.115,-89.2439 930.22,-86.0587 920.334,-82.2473 920.115,-89.2439"/>
</g>
<!-- Node4 -->
<g id="node4" class="node"><title>Node4</title>
<g id="a_node4"><a xlink:href="cipconnectionmanager_8c.html" target="_top" xlink:title="src/cip/cipconnectionmanager.c">
<polygon fill="none" stroke="black" points="254.5,-11.5 254.5,-30.5 409.5,-30.5 409.5,-11.5 254.5,-11.5"/>
<text text-anchor="middle" x="332" y="-18.5" font-family="Helvetica,sans-Serif" font-size="10.00">src/cip/cipconnectionmanager.c</text>
</a>
</g>
</g>
<!-- Node1&#45;&gt;Node4 -->
<g id="edge3" class="edge"><title>Node1&#45;&gt;Node4</title>
<path fill="none" stroke="midnightblue" d="M919.976,-85.6134C828.315,-82.1324 603.744,-71.121 418,-42 399.827,-39.1509 379.795,-34.5783 363.639,-30.524"/>
<polygon fill="midnightblue" stroke="midnightblue" points="920.106,-89.1205 930.228,-85.9921 920.364,-82.1252 920.106,-89.1205"/>
</g>
<!-- Node5 -->
<g id="node5" class="node"><title>Node5</title>
<g id="a_node5"><a xlink:href="cipioconnection_8c.html" target="_top" xlink:title="src/cip/cipioconnection.c">
<polygon fill="none" stroke="black" points="427.5,-11.5 427.5,-30.5 552.5,-30.5 552.5,-11.5 427.5,-11.5"/>
<text text-anchor="middle" x="490" y="-18.5" font-family="Helvetica,sans-Serif" font-size="10.00">src/cip/cipioconnection.c</text>
</a>
</g>
</g>
<!-- Node1&#45;&gt;Node5 -->
<g id="edge4" class="edge"><title>Node1&#45;&gt;Node5</title>
<path fill="none" stroke="midnightblue" d="M920.187,-84.4916C847.036,-79.6163 691.307,-67.068 562,-42 546.844,-39.0618 530.221,-34.5336 516.769,-30.5285"/>
<polygon fill="midnightblue" stroke="midnightblue" points="920.161,-87.9973 930.368,-85.1559 920.617,-81.0121 920.161,-87.9973"/>
</g>
<!-- Node6 -->
<g id="node6" class="node"><title>Node6</title>
<g id="a_node6"><a xlink:href="cipmessagerouter_8c.html" target="_top" xlink:title="src/cip/cipmessagerouter.c">
<polygon fill="none" stroke="black" points="571,-11.5 571,-30.5 705,-30.5 705,-11.5 571,-11.5"/>
<text text-anchor="middle" x="638" y="-18.5" font-family="Helvetica,sans-Serif" font-size="10.00">src/cip/cipmessagerouter.c</text>
</a>
</g>
</g>
<!-- Node1&#45;&gt;Node6 -->
<g id="edge5" class="edge"><title>Node1&#45;&gt;Node6</title>
<path fill="none" stroke="midnightblue" d="M920.127,-80.4236C870.661,-72.4191 785.987,-57.9777 714,-42 698.816,-38.6298 682.084,-34.2951 668.194,-30.5233"/>
<polygon fill="midnightblue" stroke="midnightblue" points="919.702,-83.9002 930.131,-82.0323 920.814,-76.989 919.702,-83.9002"/>
</g>
<!-- Node7 -->
<g id="node7" class="node"><title>Node7</title>
<g id="a_node7"><a xlink:href="cpf_8c.html" target="_top" xlink:title="src/enet_encap/cpf.c">
<polygon fill="none" stroke="black" points="723,-11.5 723,-30.5 831,-30.5 831,-11.5 723,-11.5"/>
<text text-anchor="middle" x="777" y="-18.5" font-family="Helvetica,sans-Serif" font-size="10.00">src/enet_encap/cpf.c</text>
</a>
</g>
</g>
<!-- Node1&#45;&gt;Node7 -->
<g id="edge6" class="edge"><title>Node1&#45;&gt;Node7</title>
<path fill="none" stroke="midnightblue" d="M927.665,-74.9363C890.965,-62.0417 833.707,-41.9243 801.374,-30.5637"/>
<polygon fill="midnightblue" stroke="midnightblue" points="926.839,-78.3557 937.433,-78.3685 929.159,-71.7515 926.839,-78.3557"/>
</g>
<!-- Node8 -->
<g id="node8" class="node"><title>Node8</title>
<g id="a_node8"><a xlink:href="basiccip_8c.html" target="_top" xlink:title="src/ports/LM3S8962\l/basiccip.c">
<polygon fill="none" stroke="black" points="849,-6 849,-36 953,-36 953,-6 849,-6"/>
<text text-anchor="start" x="857" y="-24" font-family="Helvetica,sans-Serif" font-size="10.00">src/ports/LM3S8962</text>
<text text-anchor="middle" x="901" y="-13" font-family="Helvetica,sans-Serif" font-size="10.00">/basiccip.c</text>
</a>
</g>
</g>
<!-- Node1&#45;&gt;Node8 -->
<g id="edge7" class="edge"><title>Node1&#45;&gt;Node8</title>
<path fill="none" stroke="midnightblue" d="M946.801,-70.8041C936.788,-60.1349 923.807,-46.3021 914.222,-36.089"/>
<polygon fill="midnightblue" stroke="midnightblue" points="944.378,-73.337 953.773,-78.2338 949.482,-68.5468 944.378,-73.337"/>
</g>
<!-- Node9 -->
<g id="node9" class="node"><title>Node9</title>
<g id="a_node9"><a xlink:href="LM3S8962_2networkhandler_8c.html" target="_top" xlink:title="src/ports/LM3S8962\l/networkhandler.c">
<polygon fill="none" stroke="black" points="971,-6 971,-36 1075,-36 1075,-6 971,-6"/>
<text text-anchor="start" x="979" y="-24" font-family="Helvetica,sans-Serif" font-size="10.00">src/ports/LM3S8962</text>
<text text-anchor="middle" x="1023" y="-13" font-family="Helvetica,sans-Serif" font-size="10.00">/networkhandler.c</text>
</a>
</g>
</g>
<!-- Node1&#45;&gt;Node9 -->
<g id="edge8" class="edge"><title>Node1&#45;&gt;Node9</title>
<path fill="none" stroke="midnightblue" d="M977.199,-70.8041C987.212,-60.1349 1000.19,-46.3021 1009.78,-36.089"/>
<polygon fill="midnightblue" stroke="midnightblue" points="974.518,-68.5468 970.227,-78.2338 979.622,-73.337 974.518,-68.5468"/>
</g>
<!-- Node10 -->
<g id="node10" class="node"><title>Node10</title>
<g id="a_node10"><a xlink:href="LM3S8962_2sample__application_2main_8c.html" target="_top" xlink:title="src/ports/LM3S8962\l/sample_application\l/main.c">
<polygon fill="none" stroke="black" points="1093,-0.5 1093,-41.5 1197,-41.5 1197,-0.5 1093,-0.5"/>
<text text-anchor="start" x="1101" y="-29.5" font-family="Helvetica,sans-Serif" font-size="10.00">src/ports/LM3S8962</text>
<text text-anchor="start" x="1101" y="-18.5" font-family="Helvetica,sans-Serif" font-size="10.00">/sample_application</text>
<text text-anchor="middle" x="1145" y="-7.5" font-family="Helvetica,sans-Serif" font-size="10.00">/main.c</text>
</a>
</g>
</g>
<!-- Node1&#45;&gt;Node10 -->
<g id="edge9" class="edge"><title>Node1&#45;&gt;Node10</title>
<path fill="none" stroke="midnightblue" d="M995.76,-75.0086C1022.94,-65.3536 1061.62,-51.6153 1092.79,-40.5442"/>
<polygon fill="midnightblue" stroke="midnightblue" points="994.553,-71.7233 986.301,-78.3685 996.896,-78.3195 994.553,-71.7233"/>
</g>
<!-- Node11 -->
<g id="node11" class="node"><title>Node11</title>
<g id="a_node11"><a xlink:href="stubs_8c.html" target="_top" xlink:title="src/ports/LM3S8962\l/stubs.c">
<polygon fill="none" stroke="black" points="1215,-6 1215,-36 1319,-36 1319,-6 1215,-6"/>
<text text-anchor="start" x="1223" y="-24" font-family="Helvetica,sans-Serif" font-size="10.00">src/ports/LM3S8962</text>
<text text-anchor="middle" x="1267" y="-13" font-family="Helvetica,sans-Serif" font-size="10.00">/stubs.c</text>
</a>
</g>
</g>
<!-- Node1&#45;&gt;Node11 -->
<g id="edge10" class="edge"><title>Node1&#45;&gt;Node11</title>
<path fill="none" stroke="midnightblue" d="M1003.77,-81.0466C1052.66,-73.6772 1135.86,-59.8808 1206,-42 1212.8,-40.2656 1219.95,-38.1736 1226.87,-36.0051"/>
<polygon fill="midnightblue" stroke="midnightblue" points="1003.26,-77.5852 993.881,-82.5207 1004.29,-84.5088 1003.26,-77.5852"/>
</g>
<!-- Node12 -->
<g id="node12" class="node"><title>Node12</title>
<g id="a_node12"><a xlink:href="POSIX_2main_8c.html" target="_top" xlink:title="src/ports/POSIX/main.c">
<polygon fill="none" stroke="black" points="1337.5,-11.5 1337.5,-30.5 1458.5,-30.5 1458.5,-11.5 1337.5,-11.5"/>
<text text-anchor="middle" x="1398" y="-18.5" font-family="Helvetica,sans-Serif" font-size="10.00">src/ports/POSIX/main.c</text>
</a>
</g>
</g>
<!-- Node1&#45;&gt;Node12 -->
<g id="edge11" class="edge"><title>Node1&#45;&gt;Node12</title>
<path fill="none" stroke="midnightblue" d="M1003.95,-83.9826C1072.33,-78.5864 1211.87,-65.5792 1328,-42 1342.62,-39.0324 1358.63,-34.5513 1371.65,-30.5824"/>
<polygon fill="midnightblue" stroke="midnightblue" points="1003.3,-80.5224 993.6,-84.7838 1003.84,-87.5015 1003.3,-80.5224"/>
</g>
<!-- Node13 -->
<g id="node13" class="node"><title>Node13</title>
<g id="a_node13"><a xlink:href="POSIX_2networkhandler_8c.html" target="_top" xlink:title="src/ports/POSIX/networkhandler.c">
<polygon fill="none" stroke="black" points="1477,-11.5 1477,-30.5 1643,-30.5 1643,-11.5 1477,-11.5"/>
<text text-anchor="middle" x="1560" y="-18.5" font-family="Helvetica,sans-Serif" font-size="10.00">src/ports/POSIX/networkhandler.c</text>
</a>
</g>
</g>
<!-- Node1&#45;&gt;Node13 -->
<g id="edge12" class="edge"><title>Node1&#45;&gt;Node13</title>
<path fill="none" stroke="midnightblue" d="M1003.78,-85.0599C1090.64,-80.6373 1296.84,-68.1092 1468,-42 1487.23,-39.0668 1508.46,-34.5389 1525.68,-30.5328"/>
<polygon fill="midnightblue" stroke="midnightblue" points="1003.36,-81.5765 993.548,-85.5714 1003.71,-88.5678 1003.36,-81.5765"/>
</g>
<!-- Node14 -->
<g id="node14" class="node"><title>Node14</title>
<g id="a_node14"><a xlink:href="WIN32_2main_8c.html" target="_top" xlink:title="src/ports/WIN32/main.c">
<polygon fill="none" stroke="black" points="1661.5,-11.5 1661.5,-30.5 1782.5,-30.5 1782.5,-11.5 1661.5,-11.5"/>
<text text-anchor="middle" x="1722" y="-18.5" font-family="Helvetica,sans-Serif" font-size="10.00">src/ports/WIN32/main.c</text>
</a>
</g>
</g>
<!-- Node1&#45;&gt;Node14 -->
<g id="edge13" class="edge"><title>Node1&#45;&gt;Node14</title>
<path fill="none" stroke="midnightblue" d="M1003.72,-87.3588C1111.74,-87.6247 1409.04,-84.1342 1652,-42 1667.19,-39.3652 1683.8,-34.6995 1697.03,-30.5369"/>
<polygon fill="midnightblue" stroke="midnightblue" points="1003.59,-83.8584 993.572,-87.3211 1003.56,-90.8583 1003.59,-83.8584"/>
</g>
<!-- Node15 -->
<g id="node15" class="node"><title>Node15</title>
<g id="a_node15"><a xlink:href="WIN32_2networkhandler_8c.html" target="_top" xlink:title="src/ports/WIN32/networkhandler.c">
<polygon fill="none" stroke="black" points="1801,-11.5 1801,-30.5 1967,-30.5 1967,-11.5 1801,-11.5"/>
<text text-anchor="middle" x="1884" y="-18.5" font-family="Helvetica,sans-Serif" font-size="10.00">src/ports/WIN32/networkhandler.c</text>
</a>
</g>
</g>
<!-- Node1&#45;&gt;Node15 -->
<g id="edge14" class="edge"><title>Node1&#45;&gt;Node15</title>
<path fill="none" stroke="midnightblue" d="M1003.88,-87.0879C1125.96,-86.8384 1491.84,-82.4982 1792,-42 1811.76,-39.3336 1833.58,-34.6664 1851.01,-30.511"/>
<polygon fill="midnightblue" stroke="midnightblue" points="1003.83,-83.5878 993.834,-87.1001 1003.84,-90.5878 1003.83,-83.5878"/>
</g>
</g>
</svg>
        <g id="navigator" transform="translate(0 0)" fill="#404254">
                <rect fill="#f2f5e9" fill-opacity="0.5" stroke="#606060" stroke-width=".5" x="0" y="0" width="60" height="60"/>
                <use id="zoomplus" xlink:href="#zoomPlus" x="17" y="9" onmousedown="handleZoom(evt,'in')"/>
                <use id="zoomminus" xlink:href="#zoomMin" x="42" y="9" onmousedown="handleZoom(evt,'out')"/>
                <use id="reset" xlink:href="#resetDef" x="30" y="36" onmousedown="handleReset()"/>
                <g id="arrowUp" xlink:href="#dirArrow" transform="translate(30 24)" onmousedown="handlePan(0,-1)">
                  <use xlink:href="#rim" fill="#404040">
                        <set attributeName="fill" to="#808080" begin="arrowUp.mouseover" end="arrowUp.mouseout"/>
                  </use>
                  <path fill="none" stroke="white" stroke-width="1.5" d="M0,-3.0v7 M-2.5,-0.5L0,-3.0L2.5,-0.5"/>
                </g>
                <g id="arrowRight" xlink:href="#dirArrow" transform="rotate(90) translate(36 -43)" onmousedown="handlePan(1,0)">
                  <use xlink:href="#rim" fill="#404040">
                        <set attributeName="fill" to="#808080" begin="arrowRight.mouseover" end="arrowRight.mouseout"/>
                  </use>
                  <path fill="none" stroke="white" stroke-width="1.5" d="M0,-3.0v7 M-2.5,-0.5L0,-3.0L2.5,-0.5"/>
                </g>
                <g id="arrowDown" xlink:href="#dirArrow" transform="rotate(180) translate(-30 -48)" onmousedown="handlePan(0,1)">
                  <use xlink:href="#rim" fill="#404040">
                        <set attributeName="fill" to="#808080" begin="arrowDown.mouseover" end="arrowDown.mouseout"/>
                  </use>
                  <path fill="none" stroke="white" stroke-width="1.5" d="M0,-3.0v7 M-2.5,-0.5L0,-3.0L2.5,-0.5"/>
                </g>
                <g id="arrowLeft" xlink:href="#dirArrow" transform="rotate(270) translate(-36 17)" onmousedown="handlePan(-1,0)">
                  <use xlink:href="#rim" fill="#404040">
                        <set attributeName="fill" to="#808080" begin="arrowLeft.mouseover" end="arrowLeft.mouseout"/>
                  </use>
                  <path fill="none" stroke="white" stroke-width="1.5" d="M0,-3.0v7 M-2.5,-0.5L0,-3.0L2.5,-0.5"/>
                </g>
        </g>
        <svg viewBox="0 0 15 15" width="100%" height="30px" preserveAspectRatio="xMaxYMin meet">
         <g id="arrow_out" transform="scale(0.3 0.3)">
          <a xlink:href="trace_8h__dep__incl_org.svg" target="_base">
           <rect id="button" ry="5" rx="5" y="6" x="6" height="38" width="38"
                fill="#f2f5e9" fill-opacity="0.5" stroke="#606060" stroke-width="1.0"/>
           <path id="arrow"
             d="M 11.500037,31.436501 C 11.940474,20.09759 22.043105,11.32322 32.158766,21.979434 L 37.068811,17.246167 C 37.068811,17.246167 37.088388,32 37.088388,32 L 22.160133,31.978069 C 22.160133,31.978069 26.997745,27.140456 26.997745,27.140456 C 18.528582,18.264221 13.291696,25.230495 11.500037,31.436501 z"
             style="fill:#404040;"/>
          </a>
         </g>
        </svg>
</svg>
