<?xml version="1.0" encoding="UTF-8" standalone="no"?>
<!DOCTYPE svg PUBLIC "-//W3C//DTD SVG 1.1//EN"
 "http://www.w3.org/Graphics/SVG/1.1/DTD/svg11.dtd">
<!-- Generated by graphviz version 2.26.3 (20100126.1600)
 -->
<!-- Title: G Pages: 1 -->
<!--zoomable 436 -->
<svg id="main" version="1.1" xmlns="http://www.w3.org/2000/svg" xmlns:xlink="http://www.w3.org/1999/xlink" xml:space="preserve" onload="init(evt)">
        <defs>
                <circle id="rim" cx="0" cy="0" r="7"/>
                <circle id="rim2" cx="0" cy="0" r="3.5"/>
                <g id="zoomPlus">
                        <use xlink:href="#rim" fill="#404040">
                                <set attributeName="fill" to="#808080" begin="zoomplus.mouseover" end="zoomplus.mouseout"/>
                        </use>
                        <path d="M-4,0h8M0,-4v8" fill="none" stroke="white" stroke-width="1.5" pointer-events="none"/>
                </g>
                <g id="zoomMin">
                        <use xlink:href="#rim" fill="#404040">
                                <set attributeName="fill" to="#808080" begin="zoomminus.mouseover" end="zoomminus.mouseout"/>
                        </use>
                        <path d="M-4,0h8" fill="none" stroke="white" stroke-width="1.5" pointer-events="none"/>
                </g>
                <g id="dirArrow">
                        <path fill="none" stroke="white" stroke-width="1.5" d="M0,-3.0v7 M-2.5,-0.5L0,-3.0L2.5,-0.5"/>
                </g>
               <g id="resetDef">
                       <use xlink:href="#rim2" fill="#404040">
                               <set attributeName="fill" to="#808080" begin="reset.mouseover" end="reset.mouseout"/>
                       </use>
               </g>
        </defs>

<script type="text/javascript">
var viewWidth = 869;
var viewHeight = 436;
var sectionId = 'dynsection-0';
</script>
<script xlink:href="../../svgpan.js"/>
<svg id="graph" class="graph">
<g id="viewport">
<title>G</title>
<!-- Node1 -->
<g id="node1" class="node"><title>Node1</title>
<polygon fill="#bfbfbf" stroke="black" points="250.5,-406.5 250.5,-427.5 419.5,-427.5 419.5,-406.5 250.5,-406.5"/>
<text text-anchor="middle" x="335" y="-414.5" font-family="Helvetica,sans-Serif" font-size="10.00">src/ports/generic_networkhandler.h</text>
</g>
<!-- Node2 -->
<g id="node3" class="node"><title>Node2</title>
<polygon fill="none" stroke="#bfbfbf" points="0,-348.5 0,-369.5 46,-369.5 46,-348.5 0,-348.5"/>
<text text-anchor="middle" x="23" y="-356.5" font-family="Helvetica,sans-Serif" font-size="10.00">stdio.h</text>
</g>
<!-- Node1&#45;&gt;Node2 -->
<g id="edge2" class="edge"><title>Node1&#45;&gt;Node2</title>
<path fill="none" stroke="midnightblue" d="M250.319,-406.49C196.898,-398.996 126.404,-387.528 56.1884,-370.012"/>
<polygon fill="midnightblue" stroke="midnightblue" points="56.8379,-366.566 46.2844,-367.501 55.117,-373.352 56.8379,-366.566"/>
</g>
<!-- Node3 -->
<g id="node5" class="node"><title>Node3</title>
<polygon fill="none" stroke="#bfbfbf" points="63.5,-348.5 63.5,-369.5 112.5,-369.5 112.5,-348.5 63.5,-348.5"/>
<text text-anchor="middle" x="88" y="-356.5" font-family="Helvetica,sans-Serif" font-size="10.00">string.h</text>
</g>
<!-- Node1&#45;&gt;Node3 -->
<g id="edge4" class="edge"><title>Node1&#45;&gt;Node3</title>
<path fill="none" stroke="midnightblue" d="M279.181,-406.421C238.055,-398.244 180.618,-386.03 122.492,-370.242"/>
<polygon fill="midnightblue" stroke="midnightblue" points="123.35,-366.848 112.78,-367.572 121.495,-373.598 123.35,-366.848"/>
</g>
<!-- Node4 -->
<g id="node7" class="node"><title>Node4</title>
<polygon fill="none" stroke="#bfbfbf" points="130,-348.5 130,-369.5 178,-369.5 178,-348.5 130,-348.5"/>
<text text-anchor="middle" x="154" y="-356.5" font-family="Helvetica,sans-Serif" font-size="10.00">stdlib.h</text>
</g>
<!-- Node1&#45;&gt;Node4 -->
<g id="edge6" class="edge"><title>Node1&#45;&gt;Node4</title>
<path fill="none" stroke="midnightblue" d="M301.452,-406.496C273.42,-397.686 232.159,-384.641 187.675,-370.193"/>
<polygon fill="midnightblue" stroke="midnightblue" points="188.73,-366.856 178.137,-367.09 186.564,-373.512 188.73,-366.856"/>
</g>
<!-- Node5 -->
<g id="node9" class="node"><title>Node5</title>
<polygon fill="none" stroke="#bfbfbf" points="195.5,-348.5 195.5,-369.5 242.5,-369.5 242.5,-348.5 195.5,-348.5"/>
<text text-anchor="middle" x="219" y="-356.5" font-family="Helvetica,sans-Serif" font-size="10.00">errno.h</text>
</g>
<!-- Node1&#45;&gt;Node5 -->
<g id="edge8" class="edge"><title>Node1&#45;&gt;Node5</title>
<path fill="none" stroke="midnightblue" d="M313.993,-406.497C295.957,-397.479 269.73,-384.365 249.401,-374.201"/>
<polygon fill="midnightblue" stroke="midnightblue" points="250.752,-370.963 240.242,-369.621 247.621,-377.224 250.752,-370.963"/>
</g>
<!-- Node6 -->
<g id="node11" class="node"><title>Node6</title>
<a xlink:href="../../d4/d38/opener__api_8h.html" target="_top" xlink:title="opener_api.h">
<polygon fill="none" stroke="black" points="427,-174.5 427,-195.5 499,-195.5 499,-174.5 427,-174.5"/>
<text text-anchor="middle" x="463" y="-182.5" font-family="Helvetica,sans-Serif" font-size="10.00">opener_api.h</text>
</a>
</g>
<!-- Node1&#45;&gt;Node6 -->
<g id="edge10" class="edge"><title>Node1&#45;&gt;Node6</title>
<path fill="none" stroke="midnightblue" d="M352.592,-406.426C378.151,-389.934 424.611,-355.427 444,-312 459.597,-277.066 462.821,-231.9 463.252,-205.917"/>
<polygon fill="midnightblue" stroke="midnightblue" points="466.753,-205.751 463.291,-195.737 459.753,-205.724 466.753,-205.751"/>
</g>
<!-- Node9 -->
<g id="node17" class="node"><title>Node9</title>
<a xlink:href="../../d7/d69/typedefs_8h.html" target="_top" xlink:title="typedefs.h">
<polygon fill="none" stroke="black" points="498,-58.5 498,-79.5 560,-79.5 560,-58.5 498,-58.5"/>
<text text-anchor="middle" x="529" y="-66.5" font-family="Helvetica,sans-Serif" font-size="10.00">typedefs.h</text>
</a>
</g>
<!-- Node1&#45;&gt;Node9 -->
<g id="edge34" class="edge"><title>Node1&#45;&gt;Node9</title>
<path fill="none" stroke="midnightblue" d="M419.511,-406.999C568.199,-388.247 861,-345.653 861,-301 861,-301 861,-301 861,-185 861,-124.067 659.179,-87.6342 570.247,-74.538"/>
<polygon fill="midnightblue" stroke="midnightblue" points="570.631,-71.0573 560.234,-73.0921 569.631,-77.9855 570.631,-71.0573"/>
</g>
<!-- Node13 -->
<g id="node27" class="node"><title>Node13</title>
<polygon fill="none" stroke="#bfbfbf" points="127.5,-58.5 127.5,-79.5 218.5,-79.5 218.5,-58.5 127.5,-58.5"/>
<text text-anchor="middle" x="173" y="-66.5" font-family="Helvetica,sans-Serif" font-size="10.00">networkhandler.h</text>
</g>
<!-- Node1&#45;&gt;Node13 -->
<g id="edge76" class="edge"><title>Node1&#45;&gt;Node13</title>
<path fill="none" stroke="midnightblue" d="M321.954,-406.396C277.475,-369.957 133.031,-249.198 106,-196 89.8132,-164.144 80.6965,-147.264 98,-116 105.813,-101.883 119.834,-91.44 133.656,-84.0316"/>
<polygon fill="midnightblue" stroke="midnightblue" points="135.227,-87.1595 142.643,-79.5933 132.127,-80.8831 135.227,-87.1595"/>
</g>
<!-- Node16 -->
<g id="node34" class="node"><title>Node16</title>
<a xlink:href="../../d0/dec/endianconv_8h.html" target="_top" xlink:title="Responsible for Endianess conversion.">
<polygon fill="none" stroke="black" points="541,-290.5 541,-311.5 615,-311.5 615,-290.5 541,-290.5"/>
<text text-anchor="middle" x="578" y="-298.5" font-family="Helvetica,sans-Serif" font-size="10.00">endianconv.h</text>
</a>
</g>
<!-- Node1&#45;&gt;Node16 -->
<g id="edge36" class="edge"><title>Node1&#45;&gt;Node16</title>
<path fill="none" stroke="midnightblue" d="M376.911,-406.466C405.846,-398.399 444.765,-385.95 477,-370 506.512,-355.397 537.326,-333.171 557.039,-317.913"/>
<polygon fill="midnightblue" stroke="midnightblue" points="559.318,-320.574 565.02,-311.645 554.994,-315.069 559.318,-320.574"/>
</g>
<!-- Node17 -->
<g id="node37" class="node"><title>Node17</title>
<a xlink:href="../../d2/da3/cipconnectionmanager_8h.html" target="_top" xlink:title="cipconnectionmanager.h">
<polygon fill="none" stroke="black" points="313,-290.5 313,-311.5 435,-311.5 435,-290.5 313,-290.5"/>
<text text-anchor="middle" x="374" y="-298.5" font-family="Helvetica,sans-Serif" font-size="10.00">cipconnectionmanager.h</text>
</a>
</g>
<!-- Node1&#45;&gt;Node17 -->
<g id="edge40" class="edge"><title>Node1&#45;&gt;Node17</title>
<path fill="none" stroke="midnightblue" d="M350.599,-406.271C361.393,-397.831 374.876,-385.012 381,-370 387.306,-354.542 384.727,-335.587 381.039,-321.458"/>
<polygon fill="midnightblue" stroke="midnightblue" points="384.349,-320.31 378.13,-311.732 377.642,-322.316 384.349,-320.31"/>
</g>
<!-- Node22 -->
<g id="node61" class="node"><title>Node22</title>
<a xlink:href="../../d1/dc0/appcontype_8h.html" target="_top" xlink:title="appcontype.h">
<polygon fill="none" stroke="black" points="297.5,-348.5 297.5,-369.5 372.5,-369.5 372.5,-348.5 297.5,-348.5"/>
<text text-anchor="middle" x="335" y="-356.5" font-family="Helvetica,sans-Serif" font-size="10.00">appcontype.h</text>
</a>
</g>
<!-- Node1&#45;&gt;Node22 -->
<g id="edge78" class="edge"><title>Node1&#45;&gt;Node22</title>
<path fill="none" stroke="midnightblue" d="M335,-406.362C335,-398.922 335,-388.743 335,-379.728"/>
<polygon fill="midnightblue" stroke="midnightblue" points="338.5,-379.571 335,-369.571 331.5,-379.571 338.5,-379.571"/>
</g>
<!-- Node23 -->
<g id="node64" class="node"><title>Node23</title>
<a xlink:href="../../d1/d84/socket__timer_8h.html" target="_top" xlink:title="socket_timer.h">
<polygon fill="none" stroke="black" points="752.5,-232.5 752.5,-253.5 833.5,-253.5 833.5,-232.5 752.5,-232.5"/>
<text text-anchor="middle" x="793" y="-240.5" font-family="Helvetica,sans-Serif" font-size="10.00">socket_timer.h</text>
</a>
</g>
<!-- Node1&#45;&gt;Node23 -->
<g id="edge82" class="edge"><title>Node1&#45;&gt;Node23</title>
<path fill="none" stroke="midnightblue" d="M381.768,-406.476C417.15,-398.01 466.7,-385.066 509,-370 604.36,-336.035 712.312,-283.732 763.307,-258.147"/>
<polygon fill="midnightblue" stroke="midnightblue" points="765.083,-261.171 772.438,-253.545 761.933,-254.92 765.083,-261.171"/>
</g>
<!-- Node7 -->
<g id="node13" class="node"><title>Node7</title>
<polygon fill="none" stroke="#bfbfbf" points="449,-116.5 449,-137.5 501,-137.5 501,-116.5 449,-116.5"/>
<text text-anchor="middle" x="475" y="-124.5" font-family="Helvetica,sans-Serif" font-size="10.00">assert.h</text>
</g>
<!-- Node6&#45;&gt;Node7 -->
<g id="edge12" class="edge"><title>Node6&#45;&gt;Node7</title>
<path fill="none" stroke="midnightblue" d="M465.201,-174.362C466.757,-166.84 468.893,-156.519 470.773,-147.431"/>
<polygon fill="midnightblue" stroke="midnightblue" points="474.214,-148.072 472.813,-137.571 467.359,-146.654 474.214,-148.072"/>
</g>
<!-- Node8 -->
<g id="node15" class="node"><title>Node8</title>
<polygon fill="none" stroke="#bfbfbf" points="279,-0.5 279,-21.5 335,-21.5 335,-0.5 279,-0.5"/>
<text text-anchor="middle" x="307" y="-8.5" font-family="Helvetica,sans-Serif" font-size="10.00">stdbool.h</text>
</g>
<!-- Node6&#45;&gt;Node8 -->
<g id="edge14" class="edge"><title>Node6&#45;&gt;Node8</title>
<path fill="none" stroke="midnightblue" d="M427.568,-174.48C407.428,-167.008 382.93,-155.208 366,-138 336.029,-107.536 319.399,-59.0298 311.92,-31.6217"/>
<polygon fill="midnightblue" stroke="midnightblue" points="315.222,-30.4084 309.339,-21.5969 308.443,-32.1538 315.222,-30.4084"/>
</g>
<!-- Node6&#45;&gt;Node9 -->
<g id="edge16" class="edge"><title>Node6&#45;&gt;Node9</title>
<path fill="none" stroke="midnightblue" d="M476.882,-174.49C487.43,-165.801 501.526,-152.561 510,-138 518.581,-123.256 523.422,-104.48 526.068,-90.2378"/>
<polygon fill="midnightblue" stroke="midnightblue" points="529.59,-90.385 527.748,-79.9515 522.682,-89.2566 529.59,-90.385"/>
</g>
<!-- Node12 -->
<g id="node24" class="node"><title>Node12</title>
<a xlink:href="../../df/d28/ciptypes_8h.html" target="_top" xlink:title="ciptypes.h">
<polygon fill="none" stroke="black" points="219,-116.5 219,-137.5 281,-137.5 281,-116.5 219,-116.5"/>
<text text-anchor="middle" x="250" y="-124.5" font-family="Helvetica,sans-Serif" font-size="10.00">ciptypes.h</text>
</a>
</g>
<!-- Node6&#45;&gt;Node12 -->
<g id="edge24" class="edge"><title>Node6&#45;&gt;Node12</title>
<path fill="none" stroke="midnightblue" d="M426.867,-175.161C389.198,-164.904 330.27,-148.857 290.912,-138.14"/>
<polygon fill="midnightblue" stroke="midnightblue" points="291.674,-134.72 281.106,-135.47 289.835,-141.475 291.674,-134.72"/>
</g>
<!-- Node14 -->
<g id="node29" class="node"><title>Node14</title>
<a xlink:href="../../d6/d52/ciperror_8h.html" target="_top" xlink:title="ciperror.h">
<polygon fill="none" stroke="black" points="374.5,-116.5 374.5,-137.5 431.5,-137.5 431.5,-116.5 374.5,-116.5"/>
<text text-anchor="middle" x="403" y="-124.5" font-family="Helvetica,sans-Serif" font-size="10.00">ciperror.h</text>
</a>
</g>
<!-- Node6&#45;&gt;Node14 -->
<g id="edge30" class="edge"><title>Node6&#45;&gt;Node14</title>
<path fill="none" stroke="midnightblue" d="M451.995,-174.362C443.453,-166.104 431.42,-154.472 421.417,-144.803"/>
<polygon fill="midnightblue" stroke="midnightblue" points="423.558,-142.004 413.935,-137.571 418.692,-147.037 423.558,-142.004"/>
</g>
<!-- Node15 -->
<g id="node31" class="node"><title>Node15</title>
<polygon fill="none" stroke="#bfbfbf" points="557,-116.5 557,-137.5 659,-137.5 659,-116.5 557,-116.5"/>
<text text-anchor="middle" x="608" y="-124.5" font-family="Helvetica,sans-Serif" font-size="10.00">opener_user_conf.h</text>
</g>
<!-- Node6&#45;&gt;Node15 -->
<g id="edge32" class="edge"><title>Node6&#45;&gt;Node15</title>
<path fill="none" stroke="midnightblue" d="M489.258,-174.497C512.416,-165.234 546.375,-151.65 572.052,-141.379"/>
<polygon fill="midnightblue" stroke="midnightblue" points="573.462,-144.585 581.447,-137.621 570.862,-138.086 573.462,-144.585"/>
</g>
<!-- Node9&#45;&gt;Node8 -->
<g id="edge22" class="edge"><title>Node9&#45;&gt;Node8</title>
<path fill="none" stroke="midnightblue" d="M497.664,-60.813C457.498,-50.3192 387.918,-32.1408 344.841,-20.8864"/>
<polygon fill="midnightblue" stroke="midnightblue" points="345.581,-17.4622 335.021,-18.3207 343.811,-24.2349 345.581,-17.4622"/>
</g>
<!-- Node10 -->
<g id="node19" class="node"><title>Node10</title>
<polygon fill="none" stroke="#bfbfbf" points="535.5,-0.5 535.5,-21.5 594.5,-21.5 594.5,-0.5 535.5,-0.5"/>
<text text-anchor="middle" x="565" y="-8.5" font-family="Helvetica,sans-Serif" font-size="10.00">inttypes.h</text>
</g>
<!-- Node9&#45;&gt;Node10 -->
<g id="edge18" class="edge"><title>Node9&#45;&gt;Node10</title>
<path fill="none" stroke="midnightblue" d="M535.603,-58.3619C540.475,-50.5131 547.238,-39.6159 553.05,-30.2527"/>
<polygon fill="midnightblue" stroke="midnightblue" points="556.139,-31.9129 558.439,-21.5707 550.191,-28.2213 556.139,-31.9129"/>
</g>
<!-- Node11 -->
<g id="node21" class="node"><title>Node11</title>
<polygon fill="none" stroke="#bfbfbf" points="466,-0.5 466,-21.5 518,-21.5 518,-0.5 466,-0.5"/>
<text text-anchor="middle" x="492" y="-8.5" font-family="Helvetica,sans-Serif" font-size="10.00">stddef.h</text>
</g>
<!-- Node9&#45;&gt;Node11 -->
<g id="edge20" class="edge"><title>Node9&#45;&gt;Node11</title>
<path fill="none" stroke="midnightblue" d="M522.214,-58.3619C517.207,-50.5131 510.255,-39.6159 504.282,-30.2527"/>
<polygon fill="midnightblue" stroke="midnightblue" points="507.072,-28.1189 498.743,-21.5707 501.171,-31.8837 507.072,-28.1189"/>
</g>
<!-- Node12&#45;&gt;Node9 -->
<g id="edge26" class="edge"><title>Node12&#45;&gt;Node9</title>
<path fill="none" stroke="midnightblue" d="M281.432,-119.14C285.978,-118.055 290.604,-116.978 295,-116 362.309,-101.02 440.991,-85.6551 487.816,-76.7355"/>
<polygon fill="midnightblue" stroke="midnightblue" points="488.704,-80.1295 497.875,-74.8252 487.398,-73.2524 488.704,-80.1295"/>
</g>
<!-- Node12&#45;&gt;Node13 -->
<g id="edge28" class="edge"><title>Node12&#45;&gt;Node13</title>
<path fill="none" stroke="midnightblue" d="M235.877,-116.362C224.48,-107.777 208.242,-95.5459 195.122,-85.6636"/>
<polygon fill="midnightblue" stroke="midnightblue" points="197.127,-82.7916 187.033,-79.5707 192.915,-88.3829 197.127,-82.7916"/>
</g>
<!-- Node16&#45;&gt;Node9 -->
<g id="edge38" class="edge"><title>Node16&#45;&gt;Node9</title>
<path fill="none" stroke="midnightblue" d="M615.014,-291.811C647.426,-282.927 690.889,-268.687 701,-254 735.778,-203.48 738.217,-164.751 701,-116 685.196,-95.2978 615.853,-81.5043 570.184,-74.4818"/>
<polygon fill="midnightblue" stroke="midnightblue" points="570.668,-71.0154 560.261,-73.0046 569.637,-77.9391 570.668,-71.0154"/>
</g>
<!-- Node17&#45;&gt;Node6 -->
<g id="edge44" class="edge"><title>Node17&#45;&gt;Node6</title>
<path fill="none" stroke="midnightblue" d="M382.213,-290.295C397.314,-270.613 429.663,-228.45 448.525,-203.867"/>
<polygon fill="midnightblue" stroke="midnightblue" points="451.496,-205.744 454.806,-195.679 445.942,-201.483 451.496,-205.744"/>
</g>
<!-- Node17&#45;&gt;Node9 -->
<g id="edge46" class="edge"><title>Node17&#45;&gt;Node9</title>
<path fill="none" stroke="midnightblue" d="M424.515,-290.451C494.524,-272.747 618.062,-229.592 668,-138 690.335,-97.0352 618.839,-79.9179 570.243,-73.13"/>
<polygon fill="midnightblue" stroke="midnightblue" points="570.63,-69.6509 560.262,-71.8334 569.728,-76.5926 570.63,-69.6509"/>
</g>
<!-- Node17&#45;&gt;Node12 -->
<g id="edge48" class="edge"><title>Node17&#45;&gt;Node12</title>
<path fill="none" stroke="midnightblue" d="M324.603,-290.474C303.555,-283.528 280.547,-272.216 266,-254 241.623,-223.475 243.179,-174.992 246.548,-147.604"/>
<polygon fill="midnightblue" stroke="midnightblue" points="250.029,-147.982 247.98,-137.587 243.1,-146.991 250.029,-147.982"/>
</g>
<!-- Node17&#45;&gt;Node15 -->
<g id="edge42" class="edge"><title>Node17&#45;&gt;Node15</title>
<path fill="none" stroke="midnightblue" d="M393.889,-290.385C426.063,-272.793 490.88,-235.587 540,-196 559.266,-180.473 578.847,-160.003 592.018,-145.4"/>
<polygon fill="midnightblue" stroke="midnightblue" points="594.956,-147.362 598.981,-137.562 589.723,-142.713 594.956,-147.362"/>
</g>
<!-- Node18 -->
<g id="node43" class="node"><title>Node18</title>
<a xlink:href="../../d1/d6c/cipconnectionobject_8h.html" target="_top" xlink:title="cipconnectionobject.h">
<polygon fill="none" stroke="black" points="274.5,-232.5 274.5,-253.5 385.5,-253.5 385.5,-232.5 274.5,-232.5"/>
<text text-anchor="middle" x="330" y="-240.5" font-family="Helvetica,sans-Serif" font-size="10.00">cipconnectionobject.h</text>
</a>
</g>
<!-- Node17&#45;&gt;Node18 -->
<g id="edge50" class="edge"><title>Node17&#45;&gt;Node18</title>
<path fill="none" stroke="midnightblue" d="M365.93,-290.362C359.851,-282.35 351.363,-271.161 344.163,-261.67"/>
<polygon fill="midnightblue" stroke="midnightblue" points="346.851,-259.422 338.019,-253.571 341.275,-263.653 346.851,-259.422"/>
</g>
<!-- Node18&#45;&gt;Node6 -->
<g id="edge58" class="edge"><title>Node18&#45;&gt;Node6</title>
<path fill="none" stroke="midnightblue" d="M354.085,-232.497C375.139,-223.315 405.927,-209.889 429.402,-199.652"/>
<polygon fill="midnightblue" stroke="midnightblue" points="430.877,-202.827 438.644,-195.621 428.079,-196.41 430.877,-202.827"/>
</g>
<!-- Node18&#45;&gt;Node9 -->
<g id="edge52" class="edge"><title>Node18&#45;&gt;Node9</title>
<path fill="none" stroke="midnightblue" d="M347.417,-232.225C359.047,-223.93 373.38,-211.309 380,-196 394.327,-162.869 344.298,-144.843 366,-116 380.672,-96.5002 444.65,-82.5515 487.953,-75.1381"/>
<polygon fill="midnightblue" stroke="midnightblue" points="488.641,-78.5719 497.933,-73.4816 487.494,-71.6663 488.641,-78.5719"/>
</g>
<!-- Node18&#45;&gt;Node12 -->
<g id="edge54" class="edge"><title>Node18&#45;&gt;Node12</title>
<path fill="none" stroke="midnightblue" d="M310.878,-232.427C297.586,-224.147 280.445,-211.459 270,-196 260.207,-181.506 255.141,-162.183 252.563,-147.673"/>
<polygon fill="midnightblue" stroke="midnightblue" points="256.005,-147.033 251.038,-137.675 249.085,-148.088 256.005,-147.033"/>
</g>
<!-- Node18&#45;&gt;Node15 -->
<g id="edge56" class="edge"><title>Node18&#45;&gt;Node15</title>
<path fill="none" stroke="midnightblue" d="M385.834,-233.427C421.793,-226.024 468.944,-213.962 508,-196 537.88,-182.258 568.46,-159.658 587.802,-144.089"/>
<polygon fill="midnightblue" stroke="midnightblue" points="590.094,-146.735 595.611,-137.69 585.658,-141.32 590.094,-146.735"/>
</g>
<!-- Node19 -->
<g id="node49" class="node"><title>Node19</title>
<a xlink:href="../../d9/d31/doublylinkedlist_8h.html" target="_top" xlink:title="doublylinkedlist.h">
<polygon fill="none" stroke="black" points="279,-174.5 279,-195.5 371,-195.5 371,-174.5 279,-174.5"/>
<text text-anchor="middle" x="325" y="-182.5" font-family="Helvetica,sans-Serif" font-size="10.00">doublylinkedlist.h</text>
</a>
</g>
<!-- Node18&#45;&gt;Node19 -->
<g id="edge60" class="edge"><title>Node18&#45;&gt;Node19</title>
<path fill="none" stroke="midnightblue" d="M329.083,-232.362C328.442,-224.922 327.564,-214.743 326.787,-205.728"/>
<polygon fill="midnightblue" stroke="midnightblue" points="330.257,-205.233 325.911,-195.571 323.283,-205.834 330.257,-205.233"/>
</g>
<!-- Node20 -->
<g id="node51" class="node"><title>Node20</title>
<a xlink:href="../../d0/d23/cipelectronickey_8h.html" target="_top" xlink:title="cipelectronickey.h">
<polygon fill="none" stroke="black" points="106.5,-116.5 106.5,-137.5 201.5,-137.5 201.5,-116.5 106.5,-116.5"/>
<text text-anchor="middle" x="154" y="-124.5" font-family="Helvetica,sans-Serif" font-size="10.00">cipelectronickey.h</text>
</a>
</g>
<!-- Node18&#45;&gt;Node20 -->
<g id="edge62" class="edge"><title>Node18&#45;&gt;Node20</title>
<path fill="none" stroke="midnightblue" d="M274.273,-238.673C217.092,-232.939 133.776,-220.541 114,-196 101.053,-179.933 116.734,-159.19 132.101,-144.66"/>
<polygon fill="midnightblue" stroke="midnightblue" points="134.801,-146.942 139.954,-137.685 130.153,-141.708 134.801,-146.942"/>
</g>
<!-- Node21 -->
<g id="node55" class="node"><title>Node21</title>
<a xlink:href="../../d1/d02/cipepath_8h.html" target="_top" xlink:title="cipepath.h">
<polygon fill="none" stroke="black" points="123,-174.5 123,-195.5 185,-195.5 185,-174.5 123,-174.5"/>
<text text-anchor="middle" x="154" y="-182.5" font-family="Helvetica,sans-Serif" font-size="10.00">cipepath.h</text>
</a>
</g>
<!-- Node18&#45;&gt;Node21 -->
<g id="edge68" class="edge"><title>Node18&#45;&gt;Node21</title>
<path fill="none" stroke="midnightblue" d="M298.128,-232.497C269.167,-222.953 226.286,-208.822 194.825,-198.454"/>
<polygon fill="midnightblue" stroke="midnightblue" points="195.637,-195.036 185.044,-195.231 193.446,-201.685 195.637,-195.036"/>
</g>
<!-- Node20&#45;&gt;Node8 -->
<g id="edge64" class="edge"><title>Node20&#45;&gt;Node8</title>
<path fill="none" stroke="midnightblue" d="M171.868,-116.461C186.94,-107.346 208.89,-93.5363 227,-80 248.893,-63.6361 272.407,-42.942 288.235,-28.5042"/>
<polygon fill="midnightblue" stroke="midnightblue" points="290.772,-30.9264 295.763,-21.5806 286.033,-25.7743 290.772,-30.9264"/>
</g>
<!-- Node20&#45;&gt;Node9 -->
<g id="edge66" class="edge"><title>Node20&#45;&gt;Node9</title>
<path fill="none" stroke="midnightblue" d="M201.63,-117.484C204.46,-116.968 207.266,-116.47 210,-116 309.354,-98.9328 426.78,-82.62 487.689,-74.4457"/>
<polygon fill="midnightblue" stroke="midnightblue" points="488.23,-77.9046 497.678,-73.1102 487.303,-70.9663 488.23,-77.9046"/>
</g>
<!-- Node21&#45;&gt;Node8 -->
<g id="edge70" class="edge"><title>Node21&#45;&gt;Node8</title>
<path fill="none" stroke="midnightblue" d="M133.992,-174.367C121.096,-166.293 105.402,-153.875 98,-138 86.1953,-112.681 117.23,-59.5974 119,-58 140.814,-38.3126 220.393,-23.6093 268.747,-16.2547"/>
<polygon fill="midnightblue" stroke="midnightblue" points="269.474,-19.6853 278.852,-14.7555 268.446,-12.7611 269.474,-19.6853"/>
</g>
<!-- Node21&#45;&gt;Node12 -->
<g id="edge72" class="edge"><title>Node21&#45;&gt;Node12</title>
<path fill="none" stroke="midnightblue" d="M171.608,-174.362C186.223,-165.532 207.224,-152.844 223.811,-142.822"/>
<polygon fill="midnightblue" stroke="midnightblue" points="225.754,-145.738 232.504,-137.571 222.135,-139.746 225.754,-145.738"/>
</g>
<!-- Node21&#45;&gt;Node20 -->
<g id="edge74" class="edge"><title>Node21&#45;&gt;Node20</title>
<path fill="none" stroke="midnightblue" d="M154,-174.362C154,-166.922 154,-156.743 154,-147.728"/>
<polygon fill="midnightblue" stroke="midnightblue" points="157.5,-147.571 154,-137.571 150.5,-147.571 157.5,-147.571"/>
</g>
<!-- Node22&#45;&gt;Node17 -->
<g id="edge80" class="edge"><title>Node22&#45;&gt;Node17</title>
<path fill="none" stroke="midnightblue" d="M342.153,-348.362C347.486,-340.431 354.911,-329.389 361.251,-319.961"/>
<polygon fill="midnightblue" stroke="midnightblue" points="364.217,-321.822 366.892,-311.571 358.408,-317.916 364.217,-321.822"/>
</g>
<!-- Node23&#45;&gt;Node9 -->
<g id="edge84" class="edge"><title>Node23&#45;&gt;Node9</title>
<path fill="none" stroke="midnightblue" d="M791.717,-232.2C788.19,-207.535 776.004,-146.82 739,-116 713.769,-94.9856 624.176,-80.6704 570.505,-73.7624"/>
<polygon fill="midnightblue" stroke="midnightblue" points="570.637,-70.2516 560.28,-72.4798 569.766,-77.1972 570.637,-70.2516"/>
</g>
</g>
</svg>
        <g id="navigator" transform="translate(0 0)" fill="#404254">
                <rect fill="#f2f5e9" fill-opacity="0.5" stroke="#606060" stroke-width=".5" x="0" y="0" width="60" height="60"/>
                <use id="zoomplus" xlink:href="#zoomPlus" x="17" y="9" onmousedown="handleZoom(evt,'in')"/>
                <use id="zoomminus" xlink:href="#zoomMin" x="42" y="9" onmousedown="handleZoom(evt,'out')"/>
                <use id="reset" xlink:href="#resetDef" x="30" y="36" onmousedown="handleReset()"/>
                <g id="arrowUp" xlink:href="#dirArrow" transform="translate(30 24)" onmousedown="handlePan(0,-1)">
                  <use xlink:href="#rim" fill="#404040">
                        <set attributeName="fill" to="#808080" begin="arrowUp.mouseover" end="arrowUp.mouseout"/>
                  </use>
                  <path fill="none" stroke="white" stroke-width="1.5" d="M0,-3.0v7 M-2.5,-0.5L0,-3.0L2.5,-0.5"/>
                </g>
                <g id="arrowRight" xlink:href="#dirArrow" transform="rotate(90) translate(36 -43)" onmousedown="handlePan(1,0)">
                  <use xlink:href="#rim" fill="#404040">
                        <set attributeName="fill" to="#808080" begin="arrowRight.mouseover" end="arrowRight.mouseout"/>
                  </use>
                  <path fill="none" stroke="white" stroke-width="1.5" d="M0,-3.0v7 M-2.5,-0.5L0,-3.0L2.5,-0.5"/>
                </g>
                <g id="arrowDown" xlink:href="#dirArrow" transform="rotate(180) translate(-30 -48)" onmousedown="handlePan(0,1)">
                  <use xlink:href="#rim" fill="#404040">
                        <set attributeName="fill" to="#808080" begin="arrowDown.mouseover" end="arrowDown.mouseout"/>
                  </use>
                  <path fill="none" stroke="white" stroke-width="1.5" d="M0,-3.0v7 M-2.5,-0.5L0,-3.0L2.5,-0.5"/>
                </g>
                <g id="arrowLeft" xlink:href="#dirArrow" transform="rotate(270) translate(-36 17)" onmousedown="handlePan(-1,0)">
                  <use xlink:href="#rim" fill="#404040">
                        <set attributeName="fill" to="#808080" begin="arrowLeft.mouseover" end="arrowLeft.mouseout"/>
                  </use>
                  <path fill="none" stroke="white" stroke-width="1.5" d="M0,-3.0v7 M-2.5,-0.5L0,-3.0L2.5,-0.5"/>
                </g>
        </g>
</svg>
