<?xml version="1.0" encoding="UTF-8" standalone="no"?>
<!DOCTYPE svg PUBLIC "-//W3C//DTD SVG 1.1//EN"
 "http://www.w3.org/Graphics/SVG/1.1/DTD/svg11.dtd">
<!-- Generated by graphviz version 2.26.3 (20100126.1600)
 -->
<!-- Title: G Pages: 1 -->
<!--zoomable 320 -->
<svg id="main" version="1.1" xmlns="http://www.w3.org/2000/svg" xmlns:xlink="http://www.w3.org/1999/xlink" xml:space="preserve" onload="init(evt)">
        <defs>
                <circle id="rim" cx="0" cy="0" r="7"/>
                <circle id="rim2" cx="0" cy="0" r="3.5"/>
                <g id="zoomPlus">
                        <use xlink:href="#rim" fill="#404040">
                                <set attributeName="fill" to="#808080" begin="zoomplus.mouseover" end="zoomplus.mouseout"/>
                        </use>
                        <path d="M-4,0h8M0,-4v8" fill="none" stroke="white" stroke-width="1.5" pointer-events="none"/>
                </g>
                <g id="zoomMin">
                        <use xlink:href="#rim" fill="#404040">
                                <set attributeName="fill" to="#808080" begin="zoomminus.mouseover" end="zoomminus.mouseout"/>
                        </use>
                        <path d="M-4,0h8" fill="none" stroke="white" stroke-width="1.5" pointer-events="none"/>
                </g>
                <g id="dirArrow">
                        <path fill="none" stroke="white" stroke-width="1.5" d="M0,-3.0v7 M-2.5,-0.5L0,-3.0L2.5,-0.5"/>
                </g>
               <g id="resetDef">
                       <use xlink:href="#rim2" fill="#404040">
                               <set attributeName="fill" to="#808080" begin="reset.mouseover" end="reset.mouseout"/>
                       </use>
               </g>
        </defs>

<script type="text/javascript">
var viewWidth = 764;
var viewHeight = 320;
var sectionId = 'dynsection-0';
</script>
<script xlink:href="../../svgpan.js"/>
<svg id="graph" class="graph">
<g id="viewport">
<title>G</title>
<!-- Node1 -->
<g id="node1" class="node"><title>Node1</title>
<polygon fill="#bfbfbf" stroke="black" points="185.5,-290.5 185.5,-311.5 354.5,-311.5 354.5,-290.5 185.5,-290.5"/>
<text text-anchor="middle" x="270" y="-298.5" font-family="Helvetica,sans-Serif" font-size="10.00">src/ports/generic_networkhandler.h</text>
</g>
<!-- Node2 -->
<g id="node3" class="node"><title>Node2</title>
<polygon fill="none" stroke="#bfbfbf" points="0,-232.5 0,-253.5 46,-253.5 46,-232.5 0,-232.5"/>
<text text-anchor="middle" x="23" y="-240.5" font-family="Helvetica,sans-Serif" font-size="10.00">stdio.h</text>
</g>
<!-- Node1&#45;&gt;Node2 -->
<g id="edge2" class="edge"><title>Node1&#45;&gt;Node2</title>
<path fill="none" stroke="midnightblue" d="M213.426,-290.495C172.111,-282.4 114.615,-270.259 56.0999,-254.101"/>
<polygon fill="midnightblue" stroke="midnightblue" points="56.8936,-250.689 46.3204,-251.366 55.0077,-257.43 56.8936,-250.689"/>
</g>
<!-- Node3 -->
<g id="node5" class="node"><title>Node3</title>
<polygon fill="none" stroke="#bfbfbf" points="63.5,-232.5 63.5,-253.5 112.5,-253.5 112.5,-232.5 63.5,-232.5"/>
<text text-anchor="middle" x="88" y="-240.5" font-family="Helvetica,sans-Serif" font-size="10.00">string.h</text>
</g>
<!-- Node1&#45;&gt;Node3 -->
<g id="edge4" class="edge"><title>Node1&#45;&gt;Node3</title>
<path fill="none" stroke="midnightblue" d="M235.923,-290.423C207.757,-281.643 166.475,-268.686 122.558,-254.478"/>
<polygon fill="midnightblue" stroke="midnightblue" points="123.444,-251.086 112.852,-251.332 121.285,-257.745 123.444,-251.086"/>
</g>
<!-- Node4 -->
<g id="node7" class="node"><title>Node4</title>
<polygon fill="none" stroke="#bfbfbf" points="130,-232.5 130,-253.5 178,-253.5 178,-232.5 130,-232.5"/>
<text text-anchor="middle" x="154" y="-240.5" font-family="Helvetica,sans-Serif" font-size="10.00">stdlib.h</text>
</g>
<!-- Node1&#45;&gt;Node4 -->
<g id="edge6" class="edge"><title>Node1&#45;&gt;Node4</title>
<path fill="none" stroke="midnightblue" d="M248.993,-290.497C230.957,-281.479 204.73,-268.365 184.401,-258.201"/>
<polygon fill="midnightblue" stroke="midnightblue" points="185.752,-254.963 175.242,-253.621 182.621,-261.224 185.752,-254.963"/>
</g>
<!-- Node5 -->
<g id="node9" class="node"><title>Node5</title>
<polygon fill="none" stroke="#bfbfbf" points="195.5,-232.5 195.5,-253.5 242.5,-253.5 242.5,-232.5 195.5,-232.5"/>
<text text-anchor="middle" x="219" y="-240.5" font-family="Helvetica,sans-Serif" font-size="10.00">errno.h</text>
</g>
<!-- Node1&#45;&gt;Node5 -->
<g id="edge8" class="edge"><title>Node1&#45;&gt;Node5</title>
<path fill="none" stroke="midnightblue" d="M260.646,-290.362C253.457,-282.186 243.359,-270.702 234.907,-261.091"/>
<polygon fill="midnightblue" stroke="midnightblue" points="237.527,-258.769 228.295,-253.571 232.27,-263.392 237.527,-258.769"/>
</g>
<!-- Node6 -->
<g id="node11" class="node"><title>Node6</title>
<a xlink:href="../../d4/d38/opener__api_8h.html" target="_top" xlink:title="opener_api.h">
<polygon fill="none" stroke="black" points="507,-174.5 507,-195.5 579,-195.5 579,-174.5 507,-174.5"/>
<text text-anchor="middle" x="543" y="-182.5" font-family="Helvetica,sans-Serif" font-size="10.00">opener_api.h</text>
</a>
</g>
<!-- Node1&#45;&gt;Node6 -->
<g id="edge10" class="edge"><title>Node1&#45;&gt;Node6</title>
<path fill="none" stroke="midnightblue" d="M347.057,-290.465C400.929,-282.015 467.305,-269.097 491,-254 509.962,-241.919 524.546,-220.33 533.378,-204.509"/>
<polygon fill="midnightblue" stroke="midnightblue" points="536.54,-206.017 538.122,-195.54 530.352,-202.744 536.54,-206.017"/>
</g>
<!-- Node8 -->
<g id="node15" class="node"><title>Node8</title>
<a xlink:href="../../d7/d69/typedefs_8h.html" target="_top" xlink:title="typedefs.h">
<polygon fill="none" stroke="black" points="333,-58.5 333,-79.5 395,-79.5 395,-58.5 333,-58.5"/>
<text text-anchor="middle" x="364" y="-66.5" font-family="Helvetica,sans-Serif" font-size="10.00">typedefs.h</text>
</a>
</g>
<!-- Node1&#45;&gt;Node8 -->
<g id="edge28" class="edge"><title>Node1&#45;&gt;Node8</title>
<path fill="none" stroke="midnightblue" d="M269.049,-290.332C267.46,-267.893 265.873,-214.539 282,-174 295.963,-138.9 325.484,-105.85 345.03,-86.5202"/>
<polygon fill="midnightblue" stroke="midnightblue" points="347.461,-89.0378 352.226,-79.575 342.6,-84.0009 347.461,-89.0378"/>
</g>
<!-- Node14 -->
<g id="node29" class="node"><title>Node14</title>
<a xlink:href="../../d0/dec/endianconv_8h.html" target="_top" xlink:title="Responsible for Endianess conversion.">
<polygon fill="none" stroke="black" points="291,-174.5 291,-195.5 365,-195.5 365,-174.5 291,-174.5"/>
<text text-anchor="middle" x="328" y="-182.5" font-family="Helvetica,sans-Serif" font-size="10.00">endianconv.h</text>
</a>
</g>
<!-- Node1&#45;&gt;Node14 -->
<g id="edge30" class="edge"><title>Node1&#45;&gt;Node14</title>
<path fill="none" stroke="midnightblue" d="M275.353,-290.295C285.064,-270.872 305.722,-229.556 318.077,-204.846"/>
<polygon fill="midnightblue" stroke="midnightblue" points="321.319,-206.189 322.66,-195.679 315.058,-203.058 321.319,-206.189"/>
</g>
<!-- Node15 -->
<g id="node32" class="node"><title>Node15</title>
<a xlink:href="../../d2/da3/cipconnectionmanager_8h.html" target="_top" xlink:title="cipconnectionmanager.h">
<polygon fill="none" stroke="black" points="360,-232.5 360,-253.5 482,-253.5 482,-232.5 360,-232.5"/>
<text text-anchor="middle" x="421" y="-240.5" font-family="Helvetica,sans-Serif" font-size="10.00">cipconnectionmanager.h</text>
</a>
</g>
<!-- Node1&#45;&gt;Node15 -->
<g id="edge34" class="edge"><title>Node1&#45;&gt;Node15</title>
<path fill="none" stroke="midnightblue" d="M297.345,-290.497C321.642,-281.164 357.36,-267.445 384.168,-257.147"/>
<polygon fill="midnightblue" stroke="midnightblue" points="385.524,-260.376 393.604,-253.523 383.014,-253.842 385.524,-260.376"/>
</g>
<!-- Node16 -->
<g id="node38" class="node"><title>Node16</title>
<polygon fill="none" stroke="#bfbfbf" points="537.5,-232.5 537.5,-253.5 628.5,-253.5 628.5,-232.5 537.5,-232.5"/>
<text text-anchor="middle" x="583" y="-240.5" font-family="Helvetica,sans-Serif" font-size="10.00">networkhandler.h</text>
</g>
<!-- Node1&#45;&gt;Node16 -->
<g id="edge44" class="edge"><title>Node1&#45;&gt;Node16</title>
<path fill="none" stroke="midnightblue" d="M327.001,-290.475C378.482,-280.965 456.319,-266.571 524,-254 525.076,-253.8 526.162,-253.598 527.257,-253.395"/>
<polygon fill="midnightblue" stroke="midnightblue" points="528.072,-256.803 537.263,-251.534 526.792,-249.921 528.072,-256.803"/>
</g>
<!-- Node7 -->
<g id="node13" class="node"><title>Node7</title>
<polygon fill="none" stroke="#bfbfbf" points="592,-116.5 592,-137.5 644,-137.5 644,-116.5 592,-116.5"/>
<text text-anchor="middle" x="618" y="-124.5" font-family="Helvetica,sans-Serif" font-size="10.00">assert.h</text>
</g>
<!-- Node6&#45;&gt;Node7 -->
<g id="edge12" class="edge"><title>Node6&#45;&gt;Node7</title>
<path fill="none" stroke="midnightblue" d="M556.756,-174.362C567.751,-165.859 583.373,-153.779 596.086,-143.947"/>
<polygon fill="midnightblue" stroke="midnightblue" points="598.562,-146.457 604.331,-137.571 594.279,-140.919 598.562,-146.457"/>
</g>
<!-- Node6&#45;&gt;Node8 -->
<g id="edge14" class="edge"><title>Node6&#45;&gt;Node8</title>
<path fill="none" stroke="midnightblue" d="M579.229,-177.036C620.168,-166.409 678.048,-145.451 653,-116 637.136,-97.347 481.425,-80.1466 405.376,-72.7796"/>
<polygon fill="midnightblue" stroke="midnightblue" points="405.484,-69.2741 395.196,-71.8062 404.818,-76.2423 405.484,-69.2741"/>
</g>
<!-- Node11 -->
<g id="node21" class="node"><title>Node11</title>
<a xlink:href="../../df/d28/ciptypes_8h.html" target="_top" xlink:title="ciptypes.h">
<polygon fill="none" stroke="black" points="512,-116.5 512,-137.5 574,-137.5 574,-116.5 512,-116.5"/>
<text text-anchor="middle" x="543" y="-124.5" font-family="Helvetica,sans-Serif" font-size="10.00">ciptypes.h</text>
</a>
</g>
<!-- Node6&#45;&gt;Node11 -->
<g id="edge20" class="edge"><title>Node6&#45;&gt;Node11</title>
<path fill="none" stroke="midnightblue" d="M543,-174.362C543,-166.922 543,-156.743 543,-147.728"/>
<polygon fill="midnightblue" stroke="midnightblue" points="546.5,-147.571 543,-137.571 539.5,-147.571 546.5,-147.571"/>
</g>
<!-- Node12 -->
<g id="node24" class="node"><title>Node12</title>
<a xlink:href="../../d6/d52/ciperror_8h.html" target="_top" xlink:title="ciperror.h">
<polygon fill="none" stroke="black" points="699.5,-116.5 699.5,-137.5 756.5,-137.5 756.5,-116.5 699.5,-116.5"/>
<text text-anchor="middle" x="728" y="-124.5" font-family="Helvetica,sans-Serif" font-size="10.00">ciperror.h</text>
</a>
</g>
<!-- Node6&#45;&gt;Node12 -->
<g id="edge24" class="edge"><title>Node6&#45;&gt;Node12</title>
<path fill="none" stroke="midnightblue" d="M576.502,-174.497C608.302,-164.527 656.069,-149.551 689.44,-139.089"/>
<polygon fill="midnightblue" stroke="midnightblue" points="690.806,-142.329 699.301,-135.998 688.712,-135.65 690.806,-142.329"/>
</g>
<!-- Node13 -->
<g id="node26" class="node"><title>Node13</title>
<polygon fill="none" stroke="#bfbfbf" points="392,-116.5 392,-137.5 494,-137.5 494,-116.5 392,-116.5"/>
<text text-anchor="middle" x="443" y="-124.5" font-family="Helvetica,sans-Serif" font-size="10.00">opener_user_conf.h</text>
</g>
<!-- Node6&#45;&gt;Node13 -->
<g id="edge26" class="edge"><title>Node6&#45;&gt;Node13</title>
<path fill="none" stroke="midnightblue" d="M524.658,-174.362C509.434,-165.532 487.559,-152.844 470.28,-142.822"/>
<polygon fill="midnightblue" stroke="midnightblue" points="471.632,-139.56 461.225,-137.571 468.12,-145.615 471.632,-139.56"/>
</g>
<!-- Node9 -->
<g id="node17" class="node"><title>Node9</title>
<polygon fill="none" stroke="#bfbfbf" points="298.5,-0.5 298.5,-21.5 357.5,-21.5 357.5,-0.5 298.5,-0.5"/>
<text text-anchor="middle" x="328" y="-8.5" font-family="Helvetica,sans-Serif" font-size="10.00">inttypes.h</text>
</g>
<!-- Node8&#45;&gt;Node9 -->
<g id="edge16" class="edge"><title>Node8&#45;&gt;Node9</title>
<path fill="none" stroke="midnightblue" d="M357.397,-58.3619C352.525,-50.5131 345.762,-39.6159 339.95,-30.2527"/>
<polygon fill="midnightblue" stroke="midnightblue" points="342.809,-28.2213 334.561,-21.5707 336.861,-31.9129 342.809,-28.2213"/>
</g>
<!-- Node10 -->
<g id="node19" class="node"><title>Node10</title>
<polygon fill="none" stroke="#bfbfbf" points="375,-0.5 375,-21.5 427,-21.5 427,-0.5 375,-0.5"/>
<text text-anchor="middle" x="401" y="-8.5" font-family="Helvetica,sans-Serif" font-size="10.00">stddef.h</text>
</g>
<!-- Node8&#45;&gt;Node10 -->
<g id="edge18" class="edge"><title>Node8&#45;&gt;Node10</title>
<path fill="none" stroke="midnightblue" d="M370.786,-58.3619C375.793,-50.5131 382.745,-39.6159 388.718,-30.2527"/>
<polygon fill="midnightblue" stroke="midnightblue" points="391.829,-31.8837 394.257,-21.5707 385.928,-28.1189 391.829,-31.8837"/>
</g>
<!-- Node11&#45;&gt;Node8 -->
<g id="edge22" class="edge"><title>Node11&#45;&gt;Node8</title>
<path fill="none" stroke="midnightblue" d="M511.821,-116.897C482.137,-107.279 437.294,-92.749 404.785,-82.2152"/>
<polygon fill="midnightblue" stroke="midnightblue" points="405.714,-78.8371 395.122,-79.0842 403.556,-85.4963 405.714,-78.8371"/>
</g>
<!-- Node14&#45;&gt;Node8 -->
<g id="edge32" class="edge"><title>Node14&#45;&gt;Node8</title>
<path fill="none" stroke="midnightblue" d="M331.322,-174.295C337.296,-155.045 349.945,-114.289 357.635,-89.5091"/>
<polygon fill="midnightblue" stroke="midnightblue" points="361.064,-90.2673 360.686,-79.6792 354.379,-88.1924 361.064,-90.2673"/>
</g>
<!-- Node15&#45;&gt;Node6 -->
<g id="edge38" class="edge"><title>Node15&#45;&gt;Node6</title>
<path fill="none" stroke="midnightblue" d="M443.093,-232.497C462.234,-223.397 490.146,-210.127 511.605,-199.925"/>
<polygon fill="midnightblue" stroke="midnightblue" points="513.13,-203.076 520.659,-195.621 510.125,-196.754 513.13,-203.076"/>
</g>
<!-- Node15&#45;&gt;Node8 -->
<g id="edge40" class="edge"><title>Node15&#45;&gt;Node8</title>
<path fill="none" stroke="midnightblue" d="M416.836,-232.363C409.526,-213.508 394.107,-172.916 383,-138 377.888,-121.93 372.856,-103.506 369.256,-89.7406"/>
<polygon fill="midnightblue" stroke="midnightblue" points="372.588,-88.643 366.702,-79.8336 365.81,-90.3908 372.588,-88.643"/>
</g>
<!-- Node15&#45;&gt;Node11 -->
<g id="edge42" class="edge"><title>Node15&#45;&gt;Node11</title>
<path fill="none" stroke="midnightblue" d="M432.259,-232.295C453.321,-212.268 498.865,-168.964 524.501,-144.589"/>
<polygon fill="midnightblue" stroke="midnightblue" points="526.933,-147.106 531.768,-137.679 522.11,-142.033 526.933,-147.106"/>
</g>
<!-- Node15&#45;&gt;Node13 -->
<g id="edge36" class="edge"><title>Node15&#45;&gt;Node13</title>
<path fill="none" stroke="midnightblue" d="M423.03,-232.295C426.681,-213.045 434.411,-172.289 439.11,-147.509"/>
<polygon fill="midnightblue" stroke="midnightblue" points="442.55,-148.156 440.975,-137.679 435.673,-146.852 442.55,-148.156"/>
</g>
</g>
</svg>
        <g id="navigator" transform="translate(0 0)" fill="#404254">
                <rect fill="#f2f5e9" fill-opacity="0.5" stroke="#606060" stroke-width=".5" x="0" y="0" width="60" height="60"/>
                <use id="zoomplus" xlink:href="#zoomPlus" x="17" y="9" onmousedown="handleZoom(evt,'in')"/>
                <use id="zoomminus" xlink:href="#zoomMin" x="42" y="9" onmousedown="handleZoom(evt,'out')"/>
                <use id="reset" xlink:href="#resetDef" x="30" y="36" onmousedown="handleReset()"/>
                <g id="arrowUp" xlink:href="#dirArrow" transform="translate(30 24)" onmousedown="handlePan(0,-1)">
                  <use xlink:href="#rim" fill="#404040">
                        <set attributeName="fill" to="#808080" begin="arrowUp.mouseover" end="arrowUp.mouseout"/>
                  </use>
                  <path fill="none" stroke="white" stroke-width="1.5" d="M0,-3.0v7 M-2.5,-0.5L0,-3.0L2.5,-0.5"/>
                </g>
                <g id="arrowRight" xlink:href="#dirArrow" transform="rotate(90) translate(36 -43)" onmousedown="handlePan(1,0)">
                  <use xlink:href="#rim" fill="#404040">
                        <set attributeName="fill" to="#808080" begin="arrowRight.mouseover" end="arrowRight.mouseout"/>
                  </use>
                  <path fill="none" stroke="white" stroke-width="1.5" d="M0,-3.0v7 M-2.5,-0.5L0,-3.0L2.5,-0.5"/>
                </g>
                <g id="arrowDown" xlink:href="#dirArrow" transform="rotate(180) translate(-30 -48)" onmousedown="handlePan(0,1)">
                  <use xlink:href="#rim" fill="#404040">
                        <set attributeName="fill" to="#808080" begin="arrowDown.mouseover" end="arrowDown.mouseout"/>
                  </use>
                  <path fill="none" stroke="white" stroke-width="1.5" d="M0,-3.0v7 M-2.5,-0.5L0,-3.0L2.5,-0.5"/>
                </g>
                <g id="arrowLeft" xlink:href="#dirArrow" transform="rotate(270) translate(-36 17)" onmousedown="handlePan(-1,0)">
                  <use xlink:href="#rim" fill="#404040">
                        <set attributeName="fill" to="#808080" begin="arrowLeft.mouseover" end="arrowLeft.mouseout"/>
                  </use>
                  <path fill="none" stroke="white" stroke-width="1.5" d="M0,-3.0v7 M-2.5,-0.5L0,-3.0L2.5,-0.5"/>
                </g>
        </g>
</svg>
