<?xml version="1.0" encoding="UTF-8" standalone="no"?>
<!DOCTYPE svg PUBLIC "-//W3C//DTD SVG 1.1//EN"
 "http://www.w3.org/Graphics/SVG/1.1/DTD/svg11.dtd">
<!-- Generated by graphviz version 2.38.0 (20140413.2041)
 -->
<!-- Title: deleteAllClasses Pages: 1 -->
<svg width="284pt" height="28pt"
 viewBox="0.00 0.00 284.00 28.00" xmlns="http://www.w3.org/2000/svg" xmlns:xlink="http://www.w3.org/1999/xlink">
<g id="graph0" class="graph" transform="scale(1 1) rotate(0) translate(4 24)">
<title>deleteAllClasses</title>
<!-- Node1 -->
<g id="node1" class="node"><title>Node1</title>
<polygon fill="#bfbfbf" stroke="black" points="0,-0.5 0,-19.5 90,-19.5 90,-0.5 0,-0.5"/>
<text text-anchor="middle" x="45" y="-7.5" font-family="Helvetica,sans-Serif" font-size="10.00">deleteAllClasses</text>
</g>
<!-- Node2 -->
<g id="node2" class="node"><title>Node2</title>
<g id="a_node2"><a xlink:href="../../d2/dc9/group__CIP__API.html#gadd56e7aa8e73d92e7d1d50cf720ba11a" target="_top" xlink:title="Shutdown the CIP&#45;stack. ">
<polygon fill="none" stroke="black" points="126,-0.5 126,-19.5 202,-19.5 202,-0.5 126,-0.5"/>
<text text-anchor="middle" x="164" y="-7.5" font-family="Helvetica,sans-Serif" font-size="10.00">shutdownCIP</text>
</a>
</g>
</g>
<!-- Node1&#45;&gt;Node2 -->
<g id="edge1" class="edge"><title>Node1&#45;&gt;Node2</title>
<path fill="none" stroke="midnightblue" d="M100.319,-10C108.998,-10 117.801,-10 125.958,-10"/>
<polygon fill="midnightblue" stroke="midnightblue" points="100.233,-6.5001 90.2327,-10 100.233,-13.5001 100.233,-6.5001"/>
</g>
<!-- Node3 -->
<g id="node3" class="node"><title>Node3</title>
<g id="a_node3"><a xlink:href="../../d9/dfb/POSIX_2main_8c.html#ad338a7dbc41dc40bcecd0479377ef207" target="_top" xlink:title="main">
<polygon fill="none" stroke="black" points="238,-0.5 238,-19.5 276,-19.5 276,-0.5 238,-0.5"/>
<text text-anchor="middle" x="257" y="-7.5" font-family="Helvetica,sans-Serif" font-size="10.00">main</text>
</a>
</g>
</g>
<!-- Node2&#45;&gt;Node3 -->
<g id="edge2" class="edge"><title>Node2&#45;&gt;Node3</title>
<path fill="none" stroke="midnightblue" d="M212.302,-10C221.448,-10 230.497,-10 237.967,-10"/>
<polygon fill="midnightblue" stroke="midnightblue" points="212.013,-6.5001 202.013,-10 212.013,-13.5001 212.013,-6.5001"/>
</g>
</g>
</svg>
