<?xml version="1.0" encoding="UTF-8" standalone="no"?>
<!DOCTYPE svg PUBLIC "-//W3C//DTD SVG 1.1//EN"
 "http://www.w3.org/Graphics/SVG/1.1/DTD/svg11.dtd">
<!-- Generated by graphviz version 2.36.0 (20140111.2315)
 -->
<!-- Title: src/ports/MINGW/main.c Pages: 1 -->
<!--zoomable 476 -->
<svg id="main" version="1.1" xmlns="http://www.w3.org/2000/svg" xmlns:xlink="http://www.w3.org/1999/xlink" xml:space="preserve" onload="init(evt)">
<style type="text/css"><![CDATA[
.edge:hover path { stroke: red; }
.edge:hover polygon { stroke: red; fill: red; }
]]></style>
<script type="text/javascript"><![CDATA[
var edges = document.getElementsByTagName('g');
if (edges && edges.length) {
  for (var i=0;i<edges.length;i++) {
    if (edges[i].id.substr(0,4)=='edge') {
      edges[i].setAttribute('class','edge');
    }
  }
}
]]></script>
        <defs>
                <circle id="rim" cx="0" cy="0" r="7"/>
                <circle id="rim2" cx="0" cy="0" r="3.5"/>
                <g id="zoomPlus">
                        <use xlink:href="#rim" fill="#404040">
                                <set attributeName="fill" to="#808080" begin="zoomplus.mouseover" end="zoomplus.mouseout"/>
                        </use>
                        <path d="M-4,0h8M0,-4v8" fill="none" stroke="white" stroke-width="1.5" pointer-events="none"/>
                </g>
                <g id="zoomMin">
                        <use xlink:href="#rim" fill="#404040">
                                <set attributeName="fill" to="#808080" begin="zoomminus.mouseover" end="zoomminus.mouseout"/>
                        </use>
                        <path d="M-4,0h8" fill="none" stroke="white" stroke-width="1.5" pointer-events="none"/>
                </g>
                <g id="dirArrow">
                        <path fill="none" stroke="white" stroke-width="1.5" d="M0,-3.0v7 M-2.5,-0.5L0,-3.0L2.5,-0.5"/>
                </g>
               <g id="resetDef">
                       <use xlink:href="#rim2" fill="#404040">
                               <set attributeName="fill" to="#808080" begin="reset.mouseover" end="reset.mouseout"/>
                       </use>
               </g>
        </defs>

<script type="text/javascript">
var viewWidth = 990;
var viewHeight = 476;
var sectionId = 'dynsection-0';
</script>
<script xlink:href="../../svgpan.js"/>
<svg id="graph" class="graph">
<g id="viewport">
<title>src/ports/MINGW/main.c</title>
<!-- Node1 -->
<g id="node1" class="node"><title>Node1</title>
<polygon fill="#bfbfbf" stroke="black" points="569,-448.5 569,-467.5 695,-467.5 695,-448.5 569,-448.5"/>
<text text-anchor="middle" x="632" y="-455.5" font-family="Helvetica,sans-Serif" font-size="10.00">src/ports/MINGW/main.c</text>
</g>
<!-- Node2 -->
<g id="node2" class="node"><title>Node2</title>
<g id="a_node2"><a xlink:href="../../da/dc2/generic__networkhandler_8h.html" target="_top" xlink:title="generic_networkhandler.h">
<polygon fill="none" stroke="black" points="405,-392.5 405,-411.5 533,-411.5 533,-392.5 405,-392.5"/>
<text text-anchor="middle" x="469" y="-399.5" font-family="Helvetica,sans-Serif" font-size="10.00">generic_networkhandler.h</text>
</a>
</g>
</g>
<!-- Node1&#45;&gt;Node2 -->
<g id="edge1" class="edge"><title>Node1&#45;&gt;Node2</title>
<path fill="none" stroke="midnightblue" d="M606.172,-448.444C578.751,-439.359 535.223,-424.939 504.568,-414.783"/>
<polygon fill="midnightblue" stroke="midnightblue" points="505.3,-411.339 494.707,-411.516 503.099,-417.984 505.3,-411.339"/>
</g>
<!-- Node3 -->
<g id="node3" class="node"><title>Node3</title>
<polygon fill="none" stroke="#bfbfbf" points="167,-336.5 167,-355.5 213,-355.5 213,-336.5 167,-336.5"/>
<text text-anchor="middle" x="190" y="-343.5" font-family="Helvetica,sans-Serif" font-size="10.00">stdio.h</text>
</g>
<!-- Node1&#45;&gt;Node3 -->
<g id="edge54" class="edge"><title>Node1&#45;&gt;Node3</title>
<path fill="none" stroke="midnightblue" d="M568.852,-451.881C509.23,-445.964 417.767,-434.071 341,-412 295.162,-398.821 244.825,-375.151 215.394,-360.302"/>
<polygon fill="midnightblue" stroke="midnightblue" points="216.75,-357.064 206.252,-355.632 213.565,-363.298 216.75,-357.064"/>
</g>
<!-- Node5 -->
<g id="node5" class="node"><title>Node5</title>
<polygon fill="none" stroke="#bfbfbf" points="231,-336.5 231,-355.5 279,-355.5 279,-336.5 231,-336.5"/>
<text text-anchor="middle" x="255" y="-343.5" font-family="Helvetica,sans-Serif" font-size="10.00">stdlib.h</text>
</g>
<!-- Node1&#45;&gt;Node5 -->
<g id="edge55" class="edge"><title>Node1&#45;&gt;Node5</title>
<path fill="none" stroke="midnightblue" d="M568.853,-449.224C520.719,-442.28 453.197,-430.333 396,-412 353.521,-398.384 307.041,-375.21 279.484,-360.524"/>
<polygon fill="midnightblue" stroke="midnightblue" points="281.026,-357.38 270.563,-355.714 277.703,-363.541 281.026,-357.38"/>
</g>
<!-- Node7 -->
<g id="node7" class="node"><title>Node7</title>
<g id="a_node7"><a xlink:href="../../d4/d38/opener__api_8h.html" target="_top" xlink:title="opener_api.h">
<polygon fill="none" stroke="black" points="638,-168.5 638,-187.5 710,-187.5 710,-168.5 638,-168.5"/>
<text text-anchor="middle" x="674" y="-175.5" font-family="Helvetica,sans-Serif" font-size="10.00">opener_api.h</text>
</a>
</g>
</g>
<!-- Node1&#45;&gt;Node7 -->
<g id="edge47" class="edge"><title>Node1&#45;&gt;Node7</title>
<path fill="none" stroke="midnightblue" d="M638.129,-448.365C653.835,-425.529 694.93,-361.103 704,-300 706.521,-283.019 706.078,-237.366 702,-224 698.917,-213.897 692.969,-203.806 687.345,-195.748"/>
<polygon fill="midnightblue" stroke="midnightblue" points="690.078,-193.558 681.303,-187.621 684.461,-197.735 690.078,-193.558"/>
</g>
<!-- Node26 -->
<g id="node26" class="node"><title>Node26</title>
<g id="a_node26"><a xlink:href="../../db/d14/cipcommon_8h.html" target="_top" xlink:title="cipcommon.h">
<polygon fill="none" stroke="black" points="126.5,-168.5 126.5,-187.5 201.5,-187.5 201.5,-168.5 126.5,-168.5"/>
<text text-anchor="middle" x="164" y="-175.5" font-family="Helvetica,sans-Serif" font-size="10.00">cipcommon.h</text>
</a>
</g>
</g>
<!-- Node1&#45;&gt;Node26 -->
<g id="edge48" class="edge"><title>Node1&#45;&gt;Node26</title>
<path fill="none" stroke="midnightblue" d="M568.809,-456.025C435.78,-452.257 139,-434.092 139,-347 139,-347 139,-347 139,-289 139,-255.995 149.834,-218.774 157.238,-197.192"/>
<polygon fill="midnightblue" stroke="midnightblue" points="160.565,-198.282 160.628,-187.687 153.972,-195.93 160.565,-198.282"/>
</g>
<!-- Node27 -->
<g id="node27" class="node"><title>Node27</title>
<g id="a_node27"><a xlink:href="../../d1/d1b/trace_8h.html" target="_top" xlink:title="Tracing infrastructure for OpENer. ">
<polygon fill="none" stroke="black" points="867.5,-280.5 867.5,-299.5 914.5,-299.5 914.5,-280.5 867.5,-280.5"/>
<text text-anchor="middle" x="891" y="-287.5" font-family="Helvetica,sans-Serif" font-size="10.00">trace.h</text>
</a>
</g>
</g>
<!-- Node1&#45;&gt;Node27 -->
<g id="edge51" class="edge"><title>Node1&#45;&gt;Node27</title>
<path fill="none" stroke="midnightblue" d="M679.635,-448.492C708.998,-441.752 746.538,-430.342 776,-412 820.919,-384.035 860.261,-334.412 879.132,-308.249"/>
<polygon fill="midnightblue" stroke="midnightblue" points="882.221,-309.942 885.131,-299.755 876.503,-305.904 882.221,-309.942"/>
</g>
<!-- Node28 -->
<g id="node28" class="node"><title>Node28</title>
<g id="a_node28"><a xlink:href="../../d2/d78/MINGW_2networkconfig_8h.html" target="_top" xlink:title="networkconfig.h">
<polygon fill="none" stroke="black" points="828,-392.5 828,-411.5 914,-411.5 914,-392.5 828,-392.5"/>
<text text-anchor="middle" x="871" y="-399.5" font-family="Helvetica,sans-Serif" font-size="10.00">networkconfig.h</text>
</a>
</g>
</g>
<!-- Node1&#45;&gt;Node28 -->
<g id="edge53" class="edge"><title>Node1&#45;&gt;Node28</title>
<path fill="none" stroke="midnightblue" d="M669.87,-448.444C711.476,-439.043 778.369,-423.929 823.469,-413.739"/>
<polygon fill="midnightblue" stroke="midnightblue" points="824.324,-417.134 833.307,-411.516 822.781,-410.306 824.324,-417.134"/>
</g>
<!-- Node29 -->
<g id="node29" class="node"><title>Node29</title>
<polygon fill="none" stroke="#bfbfbf" points="932,-392.5 932,-411.5 982,-411.5 982,-392.5 932,-392.5"/>
<text text-anchor="middle" x="957" y="-399.5" font-family="Helvetica,sans-Serif" font-size="10.00">signal.h</text>
</g>
<!-- Node1&#45;&gt;Node29 -->
<g id="edge56" class="edge"><title>Node1&#45;&gt;Node29</title>
<path fill="none" stroke="midnightblue" d="M695.07,-449.198C751.993,-441.714 838.192,-429.286 921.891,-412.051"/>
<polygon fill="midnightblue" stroke="midnightblue" points="922.744,-415.449 931.819,-409.982 921.316,-408.596 922.744,-415.449"/>
</g>
<!-- Node2&#45;&gt;Node3 -->
<g id="edge2" class="edge"><title>Node2&#45;&gt;Node3</title>
<path fill="none" stroke="midnightblue" d="M413.759,-392.462C365.757,-384.698 294.185,-372.296 223.039,-356.065"/>
<polygon fill="midnightblue" stroke="midnightblue" points="223.536,-352.588 213.005,-353.749 221.962,-359.408 223.536,-352.588"/>
</g>
<!-- Node4 -->
<g id="node4" class="node"><title>Node4</title>
<polygon fill="none" stroke="#bfbfbf" points="411.5,-336.5 411.5,-355.5 460.5,-355.5 460.5,-336.5 411.5,-336.5"/>
<text text-anchor="middle" x="436" y="-343.5" font-family="Helvetica,sans-Serif" font-size="10.00">string.h</text>
</g>
<!-- Node2&#45;&gt;Node4 -->
<g id="edge3" class="edge"><title>Node2&#45;&gt;Node4</title>
<path fill="none" stroke="midnightblue" d="M463.551,-392.083C458.986,-384.613 452.332,-373.724 446.707,-364.52"/>
<polygon fill="midnightblue" stroke="midnightblue" points="449.549,-362.459 441.348,-355.751 443.576,-366.109 449.549,-362.459"/>
</g>
<!-- Node2&#45;&gt;Node5 -->
<g id="edge4" class="edge"><title>Node2&#45;&gt;Node5</title>
<path fill="none" stroke="midnightblue" d="M435.091,-392.444C395.085,-382.348 328.966,-365.664 288.944,-355.565"/>
<polygon fill="midnightblue" stroke="midnightblue" points="289.673,-352.14 279.12,-353.086 287.96,-358.927 289.673,-352.14"/>
</g>
<!-- Node6 -->
<g id="node6" class="node"><title>Node6</title>
<polygon fill="none" stroke="#bfbfbf" points="478.5,-336.5 478.5,-355.5 525.5,-355.5 525.5,-336.5 478.5,-336.5"/>
<text text-anchor="middle" x="502" y="-343.5" font-family="Helvetica,sans-Serif" font-size="10.00">errno.h</text>
</g>
<!-- Node2&#45;&gt;Node6 -->
<g id="edge5" class="edge"><title>Node2&#45;&gt;Node6</title>
<path fill="none" stroke="midnightblue" d="M474.449,-392.083C479.014,-384.613 485.668,-373.724 491.293,-364.52"/>
<polygon fill="midnightblue" stroke="midnightblue" points="494.424,-366.109 496.652,-355.751 488.451,-362.459 494.424,-366.109"/>
</g>
<!-- Node2&#45;&gt;Node7 -->
<g id="edge6" class="edge"><title>Node2&#45;&gt;Node7</title>
<path fill="none" stroke="midnightblue" d="M533.175,-394.696C583.968,-388.255 649.08,-376.264 666,-356 704.07,-310.405 689.259,-232.887 679.683,-197.547"/>
<polygon fill="midnightblue" stroke="midnightblue" points="682.963,-196.289 676.831,-187.649 676.237,-198.227 682.963,-196.289"/>
</g>
<!-- Node10 -->
<g id="node10" class="node"><title>Node10</title>
<g id="a_node10"><a xlink:href="../../d7/d69/typedefs_8h.html" target="_top" xlink:title="typedefs.h">
<polygon fill="none" stroke="black" points="218,-56.5 218,-75.5 280,-75.5 280,-56.5 218,-56.5"/>
<text text-anchor="middle" x="249" y="-63.5" font-family="Helvetica,sans-Serif" font-size="10.00">typedefs.h</text>
</a>
</g>
</g>
<!-- Node2&#45;&gt;Node10 -->
<g id="edge21" class="edge"><title>Node2&#45;&gt;Node10</title>
<path fill="none" stroke="midnightblue" d="M454.435,-392.317C388.31,-352.881 119.461,-192.365 117,-188 89.2923,-138.848 167.221,-98.5715 214.926,-79.2911"/>
<polygon fill="midnightblue" stroke="midnightblue" points="216.281,-82.5196 224.311,-75.6091 213.724,-76.0032 216.281,-82.5196"/>
</g>
<!-- Node14 -->
<g id="node14" class="node"><title>Node14</title>
<polygon fill="none" stroke="#bfbfbf" points="754.5,-56.5 754.5,-75.5 845.5,-75.5 845.5,-56.5 754.5,-56.5"/>
<text text-anchor="middle" x="800" y="-63.5" font-family="Helvetica,sans-Serif" font-size="10.00">networkhandler.h</text>
</g>
<!-- Node2&#45;&gt;Node14 -->
<g id="edge42" class="edge"><title>Node2&#45;&gt;Node14</title>
<path fill="none" stroke="midnightblue" d="M533.265,-394.082C588.692,-386.993 663.425,-374.393 687,-356 774.139,-288.014 766.265,-238.722 795,-132 799.097,-116.785 800.216,-98.8952 800.385,-85.7396"/>
<polygon fill="midnightblue" stroke="midnightblue" points="803.885,-85.5678 800.34,-75.5835 796.885,-85.599 803.885,-85.5678"/>
</g>
<!-- Node18 -->
<g id="node18" class="node"><title>Node18</title>
<g id="a_node18"><a xlink:href="../../d0/dec/endianconv_8h.html" target="_top" xlink:title="Responsible for Endianess conversion. ">
<polygon fill="none" stroke="black" points="37,-224.5 37,-243.5 111,-243.5 111,-224.5 37,-224.5"/>
<text text-anchor="middle" x="74" y="-231.5" font-family="Helvetica,sans-Serif" font-size="10.00">endianconv.h</text>
</a>
</g>
</g>
<!-- Node2&#45;&gt;Node18 -->
<g id="edge22" class="edge"><title>Node2&#45;&gt;Node18</title>
<path fill="none" stroke="midnightblue" d="M450.053,-392.459C413.63,-376.047 336.341,-341.257 324,-336 245.798,-302.689 152.754,-265.818 105.269,-247.197"/>
<polygon fill="midnightblue" stroke="midnightblue" points="106.437,-243.896 95.8493,-243.509 103.885,-250.414 106.437,-243.896"/>
</g>
<!-- Node19 -->
<g id="node19" class="node"><title>Node19</title>
<g id="a_node19"><a xlink:href="../../d2/da3/cipconnectionmanager_8h.html" target="_top" xlink:title="cipconnectionmanager.h">
<polygon fill="none" stroke="black" points="536,-280.5 536,-299.5 658,-299.5 658,-280.5 536,-280.5"/>
<text text-anchor="middle" x="597" y="-287.5" font-family="Helvetica,sans-Serif" font-size="10.00">cipconnectionmanager.h</text>
</a>
</g>
</g>
<!-- Node2&#45;&gt;Node19 -->
<g id="edge24" class="edge"><title>Node2&#45;&gt;Node19</title>
<path fill="none" stroke="midnightblue" d="M483.012,-392.431C496.577,-383.879 517.46,-370.025 534,-356 552.066,-340.682 570.696,-320.87 582.965,-307.166"/>
<polygon fill="midnightblue" stroke="midnightblue" points="585.724,-309.329 589.72,-299.517 580.477,-304.696 585.724,-309.329"/>
</g>
<!-- Node24 -->
<g id="node24" class="node"><title>Node24</title>
<g id="a_node24"><a xlink:href="../../d1/dc0/appcontype_8h.html" target="_top" xlink:title="appcontype.h">
<polygon fill="none" stroke="black" points="582.5,-336.5 582.5,-355.5 657.5,-355.5 657.5,-336.5 582.5,-336.5"/>
<text text-anchor="middle" x="620" y="-343.5" font-family="Helvetica,sans-Serif" font-size="10.00">appcontype.h</text>
</a>
</g>
</g>
<!-- Node2&#45;&gt;Node24 -->
<g id="edge43" class="edge"><title>Node2&#45;&gt;Node24</title>
<path fill="none" stroke="midnightblue" d="M492.926,-392.444C518.219,-383.399 558.302,-369.064 586.68,-358.916"/>
<polygon fill="midnightblue" stroke="midnightblue" points="587.948,-362.179 596.186,-355.516 585.591,-355.588 587.948,-362.179"/>
</g>
<!-- Node25 -->
<g id="node25" class="node"><title>Node25</title>
<g id="a_node25"><a xlink:href="../../d1/d84/socket__timer_8h.html" target="_top" xlink:title="socket_timer.h">
<polygon fill="none" stroke="black" points="-0.5,-280.5 -0.5,-299.5 80.5,-299.5 80.5,-280.5 -0.5,-280.5"/>
<text text-anchor="middle" x="40" y="-287.5" font-family="Helvetica,sans-Serif" font-size="10.00">socket_timer.h</text>
</a>
</g>
</g>
<!-- Node2&#45;&gt;Node25 -->
<g id="edge45" class="edge"><title>Node2&#45;&gt;Node25</title>
<path fill="none" stroke="midnightblue" d="M439.293,-392.442C411.097,-384.054 367.693,-370.455 331,-356 311.39,-348.274 308.089,-342.378 288,-336 221.473,-314.878 141.567,-302.607 90.783,-296.358"/>
<polygon fill="midnightblue" stroke="midnightblue" points="91.061,-292.866 80.7155,-295.151 90.2278,-299.816 91.061,-292.866"/>
</g>
<!-- Node8 -->
<g id="node8" class="node"><title>Node8</title>
<polygon fill="none" stroke="#bfbfbf" points="718,-112.5 718,-131.5 770,-131.5 770,-112.5 718,-112.5"/>
<text text-anchor="middle" x="744" y="-119.5" font-family="Helvetica,sans-Serif" font-size="10.00">assert.h</text>
</g>
<!-- Node7&#45;&gt;Node8 -->
<g id="edge7" class="edge"><title>Node7&#45;&gt;Node8</title>
<path fill="none" stroke="midnightblue" d="M685.247,-168.324C695.797,-160.185 711.801,-147.839 724.442,-138.087"/>
<polygon fill="midnightblue" stroke="midnightblue" points="726.769,-140.713 732.549,-131.834 722.493,-135.171 726.769,-140.713"/>
</g>
<!-- Node9 -->
<g id="node9" class="node"><title>Node9</title>
<polygon fill="none" stroke="#bfbfbf" points="364,-0.5 364,-19.5 420,-19.5 420,-0.5 364,-0.5"/>
<text text-anchor="middle" x="392" y="-7.5" font-family="Helvetica,sans-Serif" font-size="10.00">stdbool.h</text>
</g>
<!-- Node7&#45;&gt;Node9 -->
<g id="edge8" class="edge"><title>Node7&#45;&gt;Node9</title>
<path fill="none" stroke="midnightblue" d="M663.601,-168.461C654.167,-160.138 640.606,-146.628 633,-132 617.032,-101.291 640.74,-80.2064 616,-56 590.11,-30.6684 487.155,-18.5775 430.269,-13.7278"/>
<polygon fill="midnightblue" stroke="midnightblue" points="430.465,-10.2322 420.213,-12.905 429.894,-17.2089 430.465,-10.2322"/>
</g>
<!-- Node7&#45;&gt;Node10 -->
<g id="edge9" class="edge"><title>Node7&#45;&gt;Node10</title>
<path fill="none" stroke="midnightblue" d="M659.965,-168.435C633.597,-152.486 577.392,-119.196 556,-112 464.487,-81.2141 350.625,-71.4782 290.57,-68.4076"/>
<polygon fill="midnightblue" stroke="midnightblue" points="290.506,-64.9007 280.351,-67.9235 290.175,-71.8929 290.506,-64.9007"/>
</g>
<!-- Node13 -->
<g id="node13" class="node"><title>Node13</title>
<g id="a_node13"><a xlink:href="../../df/d28/ciptypes_8h.html" target="_top" xlink:title="ciptypes.h">
<polygon fill="none" stroke="black" points="486,-112.5 486,-131.5 548,-131.5 548,-112.5 486,-112.5"/>
<text text-anchor="middle" x="517" y="-119.5" font-family="Helvetica,sans-Serif" font-size="10.00">ciptypes.h</text>
</a>
</g>
</g>
<!-- Node7&#45;&gt;Node13 -->
<g id="edge13" class="edge"><title>Node7&#45;&gt;Node13</title>
<path fill="none" stroke="midnightblue" d="M649.123,-168.444C622.711,-159.359 580.785,-144.939 551.258,-134.783"/>
<polygon fill="midnightblue" stroke="midnightblue" points="552.355,-131.459 541.761,-131.516 550.079,-138.079 552.355,-131.459"/>
</g>
<!-- Node16 -->
<g id="node16" class="node"><title>Node16</title>
<polygon fill="none" stroke="#bfbfbf" points="595,-0.5 595,-19.5 697,-19.5 697,-0.5 595,-0.5"/>
<text text-anchor="middle" x="646" y="-7.5" font-family="Helvetica,sans-Serif" font-size="10.00">opener_user_conf.h</text>
</g>
<!-- Node7&#45;&gt;Node16 -->
<g id="edge20" class="edge"><title>Node7&#45;&gt;Node16</title>
<path fill="none" stroke="midnightblue" d="M710.002,-170.29C746.268,-161.638 794.773,-143.784 779,-112 767.169,-88.1591 703.902,-46.5672 669.061,-24.947"/>
<polygon fill="midnightblue" stroke="midnightblue" points="670.81,-21.9137 660.458,-19.6563 667.143,-27.8763 670.81,-21.9137"/>
</g>
<!-- Node17 -->
<g id="node17" class="node"><title>Node17</title>
<g id="a_node17"><a xlink:href="../../d6/d52/ciperror_8h.html" target="_top" xlink:title="ciperror.h">
<polygon fill="none" stroke="black" points="642.5,-112.5 642.5,-131.5 699.5,-131.5 699.5,-112.5 642.5,-112.5"/>
<text text-anchor="middle" x="671" y="-119.5" font-family="Helvetica,sans-Serif" font-size="10.00">ciperror.h</text>
</a>
</g>
</g>
<!-- Node7&#45;&gt;Node17 -->
<g id="edge19" class="edge"><title>Node7&#45;&gt;Node17</title>
<path fill="none" stroke="midnightblue" d="M673.505,-168.083C673.111,-161.006 672.548,-150.861 672.055,-141.986"/>
<polygon fill="midnightblue" stroke="midnightblue" points="675.536,-141.542 671.486,-131.751 668.546,-141.93 675.536,-141.542"/>
</g>
<!-- Node10&#45;&gt;Node9 -->
<g id="edge12" class="edge"><title>Node10&#45;&gt;Node9</title>
<path fill="none" stroke="midnightblue" d="M271.659,-56.4435C295.402,-47.4776 332.909,-33.314 359.738,-23.1827"/>
<polygon fill="midnightblue" stroke="midnightblue" points="361.329,-26.3235 369.447,-19.5164 358.856,-19.7749 361.329,-26.3235"/>
</g>
<!-- Node11 -->
<g id="node11" class="node"><title>Node11</title>
<polygon fill="none" stroke="#bfbfbf" points="182.5,-0.5 182.5,-19.5 241.5,-19.5 241.5,-0.5 182.5,-0.5"/>
<text text-anchor="middle" x="212" y="-7.5" font-family="Helvetica,sans-Serif" font-size="10.00">inttypes.h</text>
</g>
<!-- Node10&#45;&gt;Node11 -->
<g id="edge10" class="edge"><title>Node10&#45;&gt;Node11</title>
<path fill="none" stroke="midnightblue" d="M242.89,-56.083C237.718,-48.5341 230.154,-37.4948 223.806,-28.2298"/>
<polygon fill="midnightblue" stroke="midnightblue" points="226.536,-26.0221 217.996,-19.7511 220.761,-29.9787 226.536,-26.0221"/>
</g>
<!-- Node12 -->
<g id="node12" class="node"><title>Node12</title>
<polygon fill="none" stroke="#bfbfbf" points="260,-0.5 260,-19.5 312,-19.5 312,-0.5 260,-0.5"/>
<text text-anchor="middle" x="286" y="-7.5" font-family="Helvetica,sans-Serif" font-size="10.00">stddef.h</text>
</g>
<!-- Node10&#45;&gt;Node12 -->
<g id="edge11" class="edge"><title>Node10&#45;&gt;Node12</title>
<path fill="none" stroke="midnightblue" d="M255.11,-56.083C260.282,-48.5341 267.846,-37.4948 274.194,-28.2298"/>
<polygon fill="midnightblue" stroke="midnightblue" points="277.239,-29.9787 280.004,-19.7511 271.464,-26.0221 277.239,-29.9787"/>
</g>
<!-- Node13&#45;&gt;Node10 -->
<g id="edge14" class="edge"><title>Node13&#45;&gt;Node10</title>
<path fill="none" stroke="midnightblue" d="M485.995,-114.753C437.584,-104.998 344.009,-86.1435 290.055,-75.2722"/>
<polygon fill="midnightblue" stroke="midnightblue" points="290.633,-71.8186 280.139,-73.2743 289.251,-78.6807 290.633,-71.8186"/>
</g>
<!-- Node13&#45;&gt;Node14 -->
<g id="edge15" class="edge"><title>Node13&#45;&gt;Node14</title>
<path fill="none" stroke="midnightblue" d="M548.095,-115.067C595.602,-106.002 686.902,-88.5805 745.558,-77.3882"/>
<polygon fill="midnightblue" stroke="midnightblue" points="746.229,-80.8234 755.396,-75.5111 744.917,-73.9475 746.229,-80.8234"/>
</g>
<!-- Node15 -->
<g id="node15" class="node"><title>Node15</title>
<g id="a_node15"><a xlink:href="../../d8/d2c/enipmessage_8h.html" target="_top" xlink:title="enipmessage.h">
<polygon fill="none" stroke="black" points="524.5,-56.5 524.5,-75.5 607.5,-75.5 607.5,-56.5 524.5,-56.5"/>
<text text-anchor="middle" x="566" y="-63.5" font-family="Helvetica,sans-Serif" font-size="10.00">enipmessage.h</text>
</a>
</g>
</g>
<!-- Node13&#45;&gt;Node15 -->
<g id="edge16" class="edge"><title>Node13&#45;&gt;Node15</title>
<path fill="none" stroke="midnightblue" d="M525.091,-112.083C532.155,-104.298 542.588,-92.8015 551.149,-83.3665"/>
<polygon fill="midnightblue" stroke="midnightblue" points="553.931,-85.5087 558.059,-75.7511 548.747,-80.8047 553.931,-85.5087"/>
</g>
<!-- Node13&#45;&gt;Node16 -->
<g id="edge18" class="edge"><title>Node13&#45;&gt;Node16</title>
<path fill="none" stroke="midnightblue" d="M513.75,-112.48C509.244,-99.0897 502.93,-72.9078 515,-56 531.044,-33.5251 559.052,-22.1586 585.063,-16.457"/>
<polygon fill="midnightblue" stroke="midnightblue" points="585.76,-19.8871 594.905,-14.5378 584.42,-13.0165 585.76,-19.8871"/>
</g>
<!-- Node15&#45;&gt;Node16 -->
<g id="edge17" class="edge"><title>Node15&#45;&gt;Node16</title>
<path fill="none" stroke="midnightblue" d="M578.853,-56.324C591.216,-47.979 610.13,-35.2122 624.737,-25.3524"/>
<polygon fill="midnightblue" stroke="midnightblue" points="626.848,-28.1503 633.179,-19.6545 622.932,-22.3483 626.848,-28.1503"/>
</g>
<!-- Node18&#45;&gt;Node10 -->
<g id="edge23" class="edge"><title>Node18&#45;&gt;Node10</title>
<path fill="none" stroke="midnightblue" d="M71.7437,-224.463C66.5819,-202.831 56.3781,-145.23 84,-112 99.7265,-93.0807 164.232,-79.799 207.776,-72.7838"/>
<polygon fill="midnightblue" stroke="midnightblue" points="208.467,-76.2183 217.808,-71.2178 207.388,-69.3021 208.467,-76.2183"/>
</g>
<!-- Node19&#45;&gt;Node7 -->
<g id="edge26" class="edge"><title>Node19&#45;&gt;Node7</title>
<path fill="none" stroke="midnightblue" d="M603.042,-280.368C615.749,-262.215 645.439,-219.802 662.107,-195.99"/>
<polygon fill="midnightblue" stroke="midnightblue" points="665.119,-197.791 667.986,-187.591 659.384,-193.777 665.119,-197.791"/>
</g>
<!-- Node19&#45;&gt;Node10 -->
<g id="edge27" class="edge"><title>Node19&#45;&gt;Node10</title>
<path fill="none" stroke="midnightblue" d="M535.698,-282.57C468.98,-272.678 362.549,-248.076 293,-188 262.509,-161.662 253.142,-112.427 250.269,-85.5951"/>
<polygon fill="midnightblue" stroke="midnightblue" points="253.752,-85.2555 249.392,-75.5996 246.779,-85.8672 253.752,-85.2555"/>
</g>
<!-- Node19&#45;&gt;Node13 -->
<g id="edge28" class="edge"><title>Node19&#45;&gt;Node13</title>
<path fill="none" stroke="midnightblue" d="M596.248,-280.473C594.108,-259.814 586.6,-205.987 564,-168 557.12,-156.436 546.468,-145.892 537.043,-137.921"/>
<polygon fill="midnightblue" stroke="midnightblue" points="539.189,-135.155 529.202,-131.618 534.803,-140.611 539.189,-135.155"/>
</g>
<!-- Node19&#45;&gt;Node16 -->
<g id="edge25" class="edge"><title>Node19&#45;&gt;Node16</title>
<path fill="none" stroke="midnightblue" d="M617.189,-280.351C669.181,-256.768 806.882,-185.685 854,-76 857.508,-67.8328 859.581,-62.9181 854,-56 835.856,-33.5109 762.231,-21.7039 707.697,-15.9212"/>
<polygon fill="midnightblue" stroke="midnightblue" points="707.714,-12.405 697.411,-14.877 707.007,-19.3692 707.714,-12.405"/>
</g>
<!-- Node20 -->
<g id="node20" class="node"><title>Node20</title>
<g id="a_node20"><a xlink:href="../../d1/d6c/cipconnectionobject_8h.html" target="_top" xlink:title="cipconnectionobject.h">
<polygon fill="none" stroke="black" points="445.5,-224.5 445.5,-243.5 556.5,-243.5 556.5,-224.5 445.5,-224.5"/>
<text text-anchor="middle" x="501" y="-231.5" font-family="Helvetica,sans-Serif" font-size="10.00">cipconnectionobject.h</text>
</a>
</g>
</g>
<!-- Node19&#45;&gt;Node20 -->
<g id="edge29" class="edge"><title>Node19&#45;&gt;Node20</title>
<path fill="none" stroke="midnightblue" d="M581.576,-280.324C566.46,-271.822 543.185,-258.729 525.529,-248.797"/>
<polygon fill="midnightblue" stroke="midnightblue" points="526.817,-245.507 516.386,-243.655 523.386,-251.608 526.817,-245.507"/>
</g>
<!-- Node20&#45;&gt;Node7 -->
<g id="edge33" class="edge"><title>Node20&#45;&gt;Node7</title>
<path fill="none" stroke="midnightblue" d="M528.412,-224.444C557.769,-215.28 604.519,-200.688 637.096,-190.519"/>
<polygon fill="midnightblue" stroke="midnightblue" points="638.213,-193.837 646.716,-187.516 636.127,-187.155 638.213,-193.837"/>
</g>
<!-- Node20&#45;&gt;Node10 -->
<g id="edge30" class="edge"><title>Node20&#45;&gt;Node10</title>
<path fill="none" stroke="midnightblue" d="M445.394,-231.075C405.781,-227.13 353.182,-216.375 316,-188 281.439,-161.625 262.251,-112.034 253.978,-85.2577"/>
<polygon fill="midnightblue" stroke="midnightblue" points="257.325,-84.2327 251.169,-75.6101 250.605,-86.1899 257.325,-84.2327"/>
</g>
<!-- Node20&#45;&gt;Node13 -->
<g id="edge31" class="edge"><title>Node20&#45;&gt;Node13</title>
<path fill="none" stroke="midnightblue" d="M515.078,-224.259C526.353,-216.355 541.346,-203.584 548,-188 555.169,-171.211 544.075,-152.428 533.219,-139.387"/>
<polygon fill="midnightblue" stroke="midnightblue" points="535.609,-136.811 526.314,-131.726 530.409,-141.497 535.609,-136.811"/>
</g>
<!-- Node20&#45;&gt;Node16 -->
<g id="edge32" class="edge"><title>Node20&#45;&gt;Node16</title>
<path fill="none" stroke="midnightblue" d="M505.888,-224.261C512.357,-211.466 522.058,-187.083 514,-168 505.075,-146.863 485.925,-153.137 477,-132 462.997,-98.838 477.655,-79.4107 505,-56 527.328,-36.8848 557.853,-25.8675 584.793,-19.5279"/>
<polygon fill="midnightblue" stroke="midnightblue" points="585.893,-22.8703 594.917,-17.32 584.401,-16.031 585.893,-22.8703"/>
</g>
<!-- Node21 -->
<g id="node21" class="node"><title>Node21</title>
<g id="a_node21"><a xlink:href="../../d9/d31/doublylinkedlist_8h.html" target="_top" xlink:title="doublylinkedlist.h">
<polygon fill="none" stroke="black" points="334,-168.5 334,-187.5 426,-187.5 426,-168.5 334,-168.5"/>
<text text-anchor="middle" x="380" y="-175.5" font-family="Helvetica,sans-Serif" font-size="10.00">doublylinkedlist.h</text>
</a>
</g>
</g>
<!-- Node20&#45;&gt;Node21 -->
<g id="edge34" class="edge"><title>Node20&#45;&gt;Node21</title>
<path fill="none" stroke="midnightblue" d="M481.827,-224.444C462.091,-215.636 431.115,-201.812 408.507,-191.722"/>
<polygon fill="midnightblue" stroke="midnightblue" points="409.641,-188.396 399.083,-187.516 406.789,-194.788 409.641,-188.396"/>
</g>
<!-- Node22 -->
<g id="node22" class="node"><title>Node22</title>
<g id="a_node22"><a xlink:href="../../d0/d23/cipelectronickey_8h.html" target="_top" xlink:title="cipelectronickey.h">
<polygon fill="none" stroke="black" points="296.5,-112.5 296.5,-131.5 391.5,-131.5 391.5,-112.5 296.5,-112.5"/>
<text text-anchor="middle" x="344" y="-119.5" font-family="Helvetica,sans-Serif" font-size="10.00">cipelectronickey.h</text>
</a>
</g>
</g>
<!-- Node20&#45;&gt;Node22 -->
<g id="edge35" class="edge"><title>Node20&#45;&gt;Node22</title>
<path fill="none" stroke="midnightblue" d="M445.189,-226.195C399.382,-219.327 339.749,-206.994 325,-188 314.235,-174.136 322.488,-154.335 331.238,-140.238"/>
<polygon fill="midnightblue" stroke="midnightblue" points="334.163,-142.161 336.865,-131.917 328.364,-138.24 334.163,-142.161"/>
</g>
<!-- Node23 -->
<g id="node23" class="node"><title>Node23</title>
<g id="a_node23"><a xlink:href="../../d1/d02/cipepath_8h.html" target="_top" xlink:title="cipepath.h">
<polygon fill="none" stroke="black" points="444,-168.5 444,-187.5 506,-187.5 506,-168.5 444,-168.5"/>
<text text-anchor="middle" x="475" y="-175.5" font-family="Helvetica,sans-Serif" font-size="10.00">cipepath.h</text>
</a>
</g>
</g>
<!-- Node20&#45;&gt;Node23 -->
<g id="edge38" class="edge"><title>Node20&#45;&gt;Node23</title>
<path fill="none" stroke="midnightblue" d="M496.707,-224.083C493.148,-216.691 487.978,-205.953 483.576,-196.811"/>
<polygon fill="midnightblue" stroke="midnightblue" points="486.705,-195.243 479.213,-187.751 480.398,-198.279 486.705,-195.243"/>
</g>
<!-- Node22&#45;&gt;Node9 -->
<g id="edge36" class="edge"><title>Node22&#45;&gt;Node9</title>
<path fill="none" stroke="midnightblue" d="M347.766,-112.368C355.583,-94.4563 373.706,-52.9233 384.168,-28.9482"/>
<polygon fill="midnightblue" stroke="midnightblue" points="387.459,-30.1566 388.251,-19.5914 381.044,-27.357 387.459,-30.1566"/>
</g>
<!-- Node22&#45;&gt;Node10 -->
<g id="edge37" class="edge"><title>Node22&#45;&gt;Node10</title>
<path fill="none" stroke="midnightblue" d="M328.737,-112.324C313.779,-103.822 290.745,-90.7288 273.273,-80.7975"/>
<polygon fill="midnightblue" stroke="midnightblue" points="274.649,-77.5534 264.226,-75.6545 271.19,-83.639 274.649,-77.5534"/>
</g>
<!-- Node23&#45;&gt;Node9 -->
<g id="edge39" class="edge"><title>Node23&#45;&gt;Node9</title>
<path fill="none" stroke="midnightblue" d="M468.287,-168.367C461.613,-159.544 451.338,-145.287 444,-132 424.734,-97.1122 407.596,-53.6381 398.621,-29.444"/>
<polygon fill="midnightblue" stroke="midnightblue" points="401.811,-27.9769 395.093,-19.7845 395.236,-30.3784 401.811,-27.9769"/>
</g>
<!-- Node23&#45;&gt;Node13 -->
<g id="edge40" class="edge"><title>Node23&#45;&gt;Node13</title>
<path fill="none" stroke="midnightblue" d="M481.935,-168.083C487.929,-160.377 496.752,-149.033 504.048,-139.653"/>
<polygon fill="midnightblue" stroke="midnightblue" points="506.817,-141.793 510.194,-131.751 501.291,-137.496 506.817,-141.793"/>
</g>
<!-- Node23&#45;&gt;Node22 -->
<g id="edge41" class="edge"><title>Node23&#45;&gt;Node22</title>
<path fill="none" stroke="midnightblue" d="M454.243,-168.444C432.684,-159.557 398.737,-145.563 374.206,-135.451"/>
<polygon fill="midnightblue" stroke="midnightblue" points="375.239,-132.092 364.66,-131.516 372.572,-138.563 375.239,-132.092"/>
</g>
<!-- Node24&#45;&gt;Node19 -->
<g id="edge44" class="edge"><title>Node24&#45;&gt;Node19</title>
<path fill="none" stroke="midnightblue" d="M616.202,-336.083C613.087,-328.77 608.577,-318.181 604.711,-309.103"/>
<polygon fill="midnightblue" stroke="midnightblue" points="607.866,-307.58 600.727,-299.751 601.426,-310.323 607.866,-307.58"/>
</g>
<!-- Node25&#45;&gt;Node10 -->
<g id="edge46" class="edge"><title>Node25&#45;&gt;Node10</title>
<path fill="none" stroke="midnightblue" d="M36.9123,-280.173C33.9482,-271.198 29.6809,-256.827 28,-244 20.018,-183.089 23.3224,-153.078 69,-112 107.228,-77.622 167.755,-68.619 207.917,-66.7133"/>
<polygon fill="midnightblue" stroke="midnightblue" points="208.042,-70.2111 217.914,-66.3649 207.798,-63.2154 208.042,-70.2111"/>
</g>
<!-- Node26&#45;&gt;Node10 -->
<g id="edge49" class="edge"><title>Node26&#45;&gt;Node10</title>
<path fill="none" stroke="midnightblue" d="M170.67,-168.368C184.759,-150.135 217.762,-107.426 236.115,-83.6752"/>
<polygon fill="midnightblue" stroke="midnightblue" points="239.016,-85.6444 242.361,-75.5914 233.477,-81.3642 239.016,-85.6444"/>
</g>
<!-- Node26&#45;&gt;Node13 -->
<g id="edge50" class="edge"><title>Node26&#45;&gt;Node13</title>
<path fill="none" stroke="midnightblue" d="M201.777,-171.221C268.432,-161.025 406.394,-139.92 475.564,-129.339"/>
<polygon fill="midnightblue" stroke="midnightblue" points="476.298,-132.767 485.654,-127.795 475.24,-125.848 476.298,-132.767"/>
</g>
<!-- Node27&#45;&gt;Node16 -->
<g id="edge52" class="edge"><title>Node27&#45;&gt;Node16</title>
<path fill="none" stroke="midnightblue" d="M893.832,-280.268C899.564,-261.794 912,-217.301 912,-179 912,-179 912,-179 912,-121 912,-32.9998 786.139,-14.0168 707.569,-10.7399"/>
<polygon fill="midnightblue" stroke="midnightblue" points="707.401,-7.2322 697.287,-10.3887 707.162,-14.2281 707.401,-7.2322"/>
</g>
</g>
</svg>
        <g id="navigator" transform="translate(0 0)" fill="#404254">
                <rect fill="#f2f5e9" fill-opacity="0.5" stroke="#606060" stroke-width=".5" x="0" y="0" width="60" height="60"/>
                <use id="zoomplus" xlink:href="#zoomPlus" x="17" y="9" onmousedown="handleZoom(evt,'in')"/>
                <use id="zoomminus" xlink:href="#zoomMin" x="42" y="9" onmousedown="handleZoom(evt,'out')"/>
                <use id="reset" xlink:href="#resetDef" x="30" y="36" onmousedown="handleReset()"/>
                <g id="arrowUp" xlink:href="#dirArrow" transform="translate(30 24)" onmousedown="handlePan(0,-1)">
                  <use xlink:href="#rim" fill="#404040">
                        <set attributeName="fill" to="#808080" begin="arrowUp.mouseover" end="arrowUp.mouseout"/>
                  </use>
                  <path fill="none" stroke="white" stroke-width="1.5" d="M0,-3.0v7 M-2.5,-0.5L0,-3.0L2.5,-0.5"/>
                </g>
                <g id="arrowRight" xlink:href="#dirArrow" transform="rotate(90) translate(36 -43)" onmousedown="handlePan(1,0)">
                  <use xlink:href="#rim" fill="#404040">
                        <set attributeName="fill" to="#808080" begin="arrowRight.mouseover" end="arrowRight.mouseout"/>
                  </use>
                  <path fill="none" stroke="white" stroke-width="1.5" d="M0,-3.0v7 M-2.5,-0.5L0,-3.0L2.5,-0.5"/>
                </g>
                <g id="arrowDown" xlink:href="#dirArrow" transform="rotate(180) translate(-30 -48)" onmousedown="handlePan(0,1)">
                  <use xlink:href="#rim" fill="#404040">
                        <set attributeName="fill" to="#808080" begin="arrowDown.mouseover" end="arrowDown.mouseout"/>
                  </use>
                  <path fill="none" stroke="white" stroke-width="1.5" d="M0,-3.0v7 M-2.5,-0.5L0,-3.0L2.5,-0.5"/>
                </g>
                <g id="arrowLeft" xlink:href="#dirArrow" transform="rotate(270) translate(-36 17)" onmousedown="handlePan(-1,0)">
                  <use xlink:href="#rim" fill="#404040">
                        <set attributeName="fill" to="#808080" begin="arrowLeft.mouseover" end="arrowLeft.mouseout"/>
                  </use>
                  <path fill="none" stroke="white" stroke-width="1.5" d="M0,-3.0v7 M-2.5,-0.5L0,-3.0L2.5,-0.5"/>
                </g>
        </g>
        <svg viewBox="0 0 15 15" width="100%" height="30px" preserveAspectRatio="xMaxYMin meet">
         <g id="arrow_out" transform="scale(0.3 0.3)">
          <a xlink:href="MINGW_2main_8c__incl_org.svg" target="_base">
           <rect id="button" ry="5" rx="5" y="6" x="6" height="38" width="38"
                fill="#f2f5e9" fill-opacity="0.5" stroke="#606060" stroke-width="1.0"/>
           <path id="arrow"
             d="M 11.500037,31.436501 C 11.940474,20.09759 22.043105,11.32322 32.158766,21.979434 L 37.068811,17.246167 C 37.068811,17.246167 37.088388,32 37.088388,32 L 22.160133,31.978069 C 22.160133,31.978069 26.997745,27.140456 26.997745,27.140456 C 18.528582,18.264221 13.291696,25.230495 11.500037,31.436501 z"
             style="fill:#404040;"/>
          </a>
         </g>
        </svg>
</svg>
