<?xml version="1.0" encoding="UTF-8" standalone="no"?>
<!DOCTYPE svg PUBLIC "-//W3C//DTD SVG 1.1//EN"
 "http://www.w3.org/Graphics/SVG/1.1/DTD/svg11.dtd">
<!-- Generated by graphviz version 2.38.0 (20140413.2041)
 -->
<!-- Title: src/utils/xorshiftrandom.c Pages: 1 -->
<svg width="135pt" height="140pt"
 viewBox="0.00 0.00 135.00 140.00" xmlns="http://www.w3.org/2000/svg" xmlns:xlink="http://www.w3.org/1999/xlink">
<g id="graph0" class="graph" transform="scale(1 1) rotate(0) translate(4 136)">
<title>src/utils/xorshiftrandom.c</title>
<!-- Node1 -->
<g id="node1" class="node"><title>Node1</title>
<polygon fill="#bfbfbf" stroke="black" points="0,-112.5 0,-131.5 127,-131.5 127,-112.5 0,-112.5"/>
<text text-anchor="middle" x="63.5" y="-119.5" font-family="Helvetica,sans-Serif" font-size="10.00">src/utils/xorshiftrandom.c</text>
</g>
<!-- Node2 -->
<g id="node2" class="node"><title>Node2</title>
<g id="a_node2"><a xlink:href="../../d1/d61/xorshiftrandom_8h.html" target="_top" xlink:title="xorshiftrandom.h">
<polygon fill="none" stroke="black" points="19,-56.5 19,-75.5 108,-75.5 108,-56.5 19,-56.5"/>
<text text-anchor="middle" x="63.5" y="-63.5" font-family="Helvetica,sans-Serif" font-size="10.00">xorshiftrandom.h</text>
</a>
</g>
</g>
<!-- Node1&#45;&gt;Node2 -->
<g id="edge1" class="edge"><title>Node1&#45;&gt;Node2</title>
<path fill="none" stroke="midnightblue" d="M63.5,-112.083C63.5,-105.006 63.5,-94.8611 63.5,-85.9865"/>
<polygon fill="midnightblue" stroke="midnightblue" points="67.0001,-85.751 63.5,-75.7511 60.0001,-85.7511 67.0001,-85.751"/>
</g>
<!-- Node3 -->
<g id="node3" class="node"><title>Node3</title>
<polygon fill="none" stroke="#bfbfbf" points="39,-0.5 39,-19.5 88,-19.5 88,-0.5 39,-0.5"/>
<text text-anchor="middle" x="63.5" y="-7.5" font-family="Helvetica,sans-Serif" font-size="10.00">stdint.h</text>
</g>
<!-- Node2&#45;&gt;Node3 -->
<g id="edge2" class="edge"><title>Node2&#45;&gt;Node3</title>
<path fill="none" stroke="midnightblue" d="M63.5,-56.083C63.5,-49.0059 63.5,-38.8611 63.5,-29.9865"/>
<polygon fill="midnightblue" stroke="midnightblue" points="67.0001,-29.751 63.5,-19.7511 60.0001,-29.7511 67.0001,-29.751"/>
</g>
</g>
</svg>
