<?xml version="1.0" encoding="UTF-8" standalone="no"?>
<!DOCTYPE svg PUBLIC "-//W3C//DTD SVG 1.1//EN"
 "http://www.w3.org/Graphics/SVG/1.1/DTD/svg11.dtd">
<!-- Generated by graphviz version 2.38.0 (20140413.2041)
 -->
<!-- Title: src/enet_encap/encap.c Pages: 1 -->
<svg width="687pt" height="308pt"
 viewBox="0.00 0.00 687.00 308.00" xmlns="http://www.w3.org/2000/svg" xmlns:xlink="http://www.w3.org/1999/xlink">
<g id="graph0" class="graph" transform="scale(1 1) rotate(0) translate(4 304)">
<title>src/enet_encap/encap.c</title>
<!-- Node1 -->
<g id="node1" class="node"><title>Node1</title>
<polygon fill="#bfbfbf" stroke="black" points="303.5,-280.5 303.5,-299.5 424.5,-299.5 424.5,-280.5 303.5,-280.5"/>
<text text-anchor="middle" x="364" y="-287.5" font-family="Helvetica,sans-Serif" font-size="10.00">src/enet_encap/encap.c</text>
</g>
<!-- Node2 -->
<g id="node2" class="node"><title>Node2</title>
<polygon fill="none" stroke="#bfbfbf" points="23.5,-224.5 23.5,-243.5 72.5,-243.5 72.5,-224.5 23.5,-224.5"/>
<text text-anchor="middle" x="48" y="-231.5" font-family="Helvetica,sans-Serif" font-size="10.00">string.h</text>
</g>
<!-- Node1&#45;&gt;Node2 -->
<g id="edge1" class="edge"><title>Node1&#45;&gt;Node2</title>
<path fill="none" stroke="midnightblue" d="M303.44,-281.131C248.353,-273.567 164.641,-261.06 82.7846,-243.982"/>
<polygon fill="midnightblue" stroke="midnightblue" points="83.3207,-240.518 72.8134,-241.876 81.8746,-247.367 83.3207,-240.518"/>
</g>
<!-- Node3 -->
<g id="node3" class="node"><title>Node3</title>
<polygon fill="none" stroke="#bfbfbf" points="91,-224.5 91,-243.5 139,-243.5 139,-224.5 91,-224.5"/>
<text text-anchor="middle" x="115" y="-231.5" font-family="Helvetica,sans-Serif" font-size="10.00">stdlib.h</text>
</g>
<!-- Node1&#45;&gt;Node3 -->
<g id="edge2" class="edge"><title>Node1&#45;&gt;Node3</title>
<path fill="none" stroke="midnightblue" d="M322.701,-280.478C280.12,-271.624 211.833,-257.239 153,-244 151.735,-243.715 150.447,-243.423 149.146,-243.126"/>
<polygon fill="midnightblue" stroke="midnightblue" points="149.636,-239.646 139.104,-240.795 148.054,-246.465 149.636,-239.646"/>
</g>
<!-- Node4 -->
<g id="node4" class="node"><title>Node4</title>
<g id="a_node4"><a xlink:href="../../d4/d38/opener__api_8h.html" target="_top" xlink:title="opener_api.h">
<polygon fill="none" stroke="black" points="72,-168.5 72,-187.5 144,-187.5 144,-168.5 72,-168.5"/>
<text text-anchor="middle" x="108" y="-175.5" font-family="Helvetica,sans-Serif" font-size="10.00">opener_api.h</text>
</a>
</g>
</g>
<!-- Node1&#45;&gt;Node4 -->
<g id="edge3" class="edge"><title>Node1&#45;&gt;Node4</title>
<path fill="none" stroke="midnightblue" d="M303.094,-280.545C267.55,-273.946 222.638,-262.665 186,-244 161.351,-231.442 137.61,-209.853 122.927,-195.025"/>
<polygon fill="midnightblue" stroke="midnightblue" points="125.214,-192.354 115.754,-187.584 120.174,-197.212 125.214,-192.354"/>
</g>
<!-- Node11 -->
<g id="node11" class="node"><title>Node11</title>
<g id="a_node11"><a xlink:href="../../d0/dff/cpf_8h.html" target="_top" xlink:title="cpf.h">
<polygon fill="none" stroke="black" points="540,-168.5 540,-187.5 578,-187.5 578,-168.5 540,-168.5"/>
<text text-anchor="middle" x="559" y="-175.5" font-family="Helvetica,sans-Serif" font-size="10.00">cpf.h</text>
</a>
</g>
</g>
<!-- Node1&#45;&gt;Node11 -->
<g id="edge12" class="edge"><title>Node1&#45;&gt;Node11</title>
<path fill="none" stroke="midnightblue" d="M379.301,-280.368C413.119,-261.292 494.433,-215.422 535.059,-192.505"/>
<polygon fill="midnightblue" stroke="midnightblue" points="536.78,-195.553 543.77,-187.591 533.34,-189.456 536.78,-195.553"/>
</g>
<!-- Node12 -->
<g id="node12" class="node"><title>Node12</title>
<g id="a_node12"><a xlink:href="../../d7/df9/encap_8h.html" target="_top" xlink:title="encap.h">
<polygon fill="none" stroke="black" points="533.5,-112.5 533.5,-131.5 584.5,-131.5 584.5,-112.5 533.5,-112.5"/>
<text text-anchor="middle" x="559" y="-119.5" font-family="Helvetica,sans-Serif" font-size="10.00">encap.h</text>
</a>
</g>
</g>
<!-- Node1&#45;&gt;Node12 -->
<g id="edge17" class="edge"><title>Node1&#45;&gt;Node12</title>
<path fill="none" stroke="midnightblue" d="M424.313,-280.463C477.682,-269.325 552.311,-244.128 587,-188 596.629,-172.42 585.551,-152.946 574.616,-139.395"/>
<polygon fill="midnightblue" stroke="midnightblue" points="577.219,-137.054 568.012,-131.81 571.94,-141.65 577.219,-137.054"/>
</g>
<!-- Node13 -->
<g id="node13" class="node"><title>Node13</title>
<g id="a_node13"><a xlink:href="../../d0/dec/endianconv_8h.html" target="_top" xlink:title="endianconv.h">
<polygon fill="none" stroke="black" points="605,-112.5 605,-131.5 679,-131.5 679,-112.5 605,-112.5"/>
<text text-anchor="middle" x="642" y="-119.5" font-family="Helvetica,sans-Serif" font-size="10.00">endianconv.h</text>
</a>
</g>
</g>
<!-- Node1&#45;&gt;Node13 -->
<g id="edge18" class="edge"><title>Node1&#45;&gt;Node13</title>
<path fill="none" stroke="midnightblue" d="M424.553,-284.621C464.109,-279.477 515.549,-268.295 555,-244 595.26,-219.207 622.374,-168.153 634.595,-140.964"/>
<polygon fill="midnightblue" stroke="midnightblue" points="637.924,-142.084 638.67,-131.515 631.496,-139.311 637.924,-142.084"/>
</g>
<!-- Node14 -->
<g id="node14" class="node"><title>Node14</title>
<g id="a_node14"><a xlink:href="../../db/d14/cipcommon_8h.html" target="_top" xlink:title="cipcommon.h">
<polygon fill="none" stroke="black" points="200.5,-168.5 200.5,-187.5 275.5,-187.5 275.5,-168.5 200.5,-168.5"/>
<text text-anchor="middle" x="238" y="-175.5" font-family="Helvetica,sans-Serif" font-size="10.00">cipcommon.h</text>
</a>
</g>
</g>
<!-- Node1&#45;&gt;Node14 -->
<g id="edge20" class="edge"><title>Node1&#45;&gt;Node14</title>
<path fill="none" stroke="midnightblue" d="M360.821,-280.388C355.463,-266.872 343.479,-240.522 326,-224 310.848,-209.679 290.257,-198.815 272.802,-191.353"/>
<polygon fill="midnightblue" stroke="midnightblue" points="274.063,-188.088 263.481,-187.557 271.422,-194.57 274.063,-188.088"/>
</g>
<!-- Node15 -->
<g id="node15" class="node"><title>Node15</title>
<g id="a_node15"><a xlink:href="../../d2/d75/cipmessagerouter_8h.html" target="_top" xlink:title="cipmessagerouter.h">
<polygon fill="none" stroke="black" points="332,-168.5 332,-187.5 434,-187.5 434,-168.5 332,-168.5"/>
<text text-anchor="middle" x="383" y="-175.5" font-family="Helvetica,sans-Serif" font-size="10.00">cipmessagerouter.h</text>
</a>
</g>
</g>
<!-- Node1&#45;&gt;Node15 -->
<g id="edge23" class="edge"><title>Node1&#45;&gt;Node15</title>
<path fill="none" stroke="midnightblue" d="M365.491,-280.368C368.557,-262.617 375.63,-221.666 379.788,-197.597"/>
<polygon fill="midnightblue" stroke="midnightblue" points="383.263,-198.041 381.516,-187.591 376.365,-196.85 383.263,-198.041"/>
</g>
<!-- Node16 -->
<g id="node16" class="node"><title>Node16</title>
<g id="a_node16"><a xlink:href="../../d2/da3/cipconnectionmanager_8h.html" target="_top" xlink:title="cipconnectionmanager.h">
<polygon fill="none" stroke="black" points="195,-224.5 195,-243.5 317,-243.5 317,-224.5 195,-224.5"/>
<text text-anchor="middle" x="256" y="-231.5" font-family="Helvetica,sans-Serif" font-size="10.00">cipconnectionmanager.h</text>
</a>
</g>
</g>
<!-- Node1&#45;&gt;Node16 -->
<g id="edge26" class="edge"><title>Node1&#45;&gt;Node16</title>
<path fill="none" stroke="midnightblue" d="M346.648,-280.324C329.328,-271.664 302.485,-258.242 282.498,-248.249"/>
<polygon fill="midnightblue" stroke="midnightblue" points="283.819,-244.996 273.309,-243.655 280.688,-251.257 283.819,-244.996"/>
</g>
<!-- Node17 -->
<g id="node17" class="node"><title>Node17</title>
<g id="a_node17"><a xlink:href="../../dc/d72/cipidentity_8h.html" target="_top" xlink:title="cipidentity.h">
<polygon fill="none" stroke="black" points="452.5,-168.5 452.5,-187.5 521.5,-187.5 521.5,-168.5 452.5,-168.5"/>
<text text-anchor="middle" x="487" y="-175.5" font-family="Helvetica,sans-Serif" font-size="10.00">cipidentity.h</text>
</a>
</g>
</g>
<!-- Node1&#45;&gt;Node17 -->
<g id="edge31" class="edge"><title>Node1&#45;&gt;Node17</title>
<path fill="none" stroke="midnightblue" d="M373.652,-280.368C394.399,-261.814 443.488,-217.913 469.738,-194.438"/>
<polygon fill="midnightblue" stroke="midnightblue" points="472.272,-196.867 477.393,-187.591 467.606,-191.649 472.272,-196.867"/>
</g>
<!-- Node5 -->
<g id="node5" class="node"><title>Node5</title>
<g id="a_node5"><a xlink:href="../../d7/d69/typedefs_8h.html" target="_top" xlink:title="typedefs.h">
<polygon fill="none" stroke="black" points="322,-56.5 322,-75.5 384,-75.5 384,-56.5 322,-56.5"/>
<text text-anchor="middle" x="353" y="-63.5" font-family="Helvetica,sans-Serif" font-size="10.00">typedefs.h</text>
</a>
</g>
</g>
<!-- Node4&#45;&gt;Node5 -->
<g id="edge4" class="edge"><title>Node4&#45;&gt;Node5</title>
<path fill="none" stroke="midnightblue" d="M116.157,-168.498C129.906,-154.652 159.13,-127.249 189,-112 228.202,-91.987 277.361,-80.0224 311.587,-73.5192"/>
<polygon fill="midnightblue" stroke="midnightblue" points="312.493,-76.9118 321.702,-71.6734 311.236,-70.0255 312.493,-76.9118"/>
</g>
<!-- Node6 -->
<g id="node6" class="node"><title>Node6</title>
<polygon fill="none" stroke="#bfbfbf" points="0,-0.5 0,-19.5 102,-19.5 102,-0.5 0,-0.5"/>
<text text-anchor="middle" x="51" y="-7.5" font-family="Helvetica,sans-Serif" font-size="10.00">opener_user_conf.h</text>
</g>
<!-- Node4&#45;&gt;Node6 -->
<g id="edge11" class="edge"><title>Node4&#45;&gt;Node6</title>
<path fill="none" stroke="midnightblue" d="M98.169,-168.407C89.289,-160.046 76.6281,-146.509 70,-132 54.5922,-98.2713 51.3593,-54.3482 50.864,-29.7697"/>
<polygon fill="midnightblue" stroke="midnightblue" points="54.3633,-29.6416 50.7971,-19.665 47.3634,-29.6879 54.3633,-29.6416"/>
</g>
<!-- Node9 -->
<g id="node9" class="node"><title>Node9</title>
<g id="a_node9"><a xlink:href="../../df/d28/ciptypes_8h.html" target="_top" xlink:title="ciptypes.h">
<polygon fill="none" stroke="black" points="293,-112.5 293,-131.5 355,-131.5 355,-112.5 293,-112.5"/>
<text text-anchor="middle" x="324" y="-119.5" font-family="Helvetica,sans-Serif" font-size="10.00">ciptypes.h</text>
</a>
</g>
</g>
<!-- Node4&#45;&gt;Node9 -->
<g id="edge8" class="edge"><title>Node4&#45;&gt;Node9</title>
<path fill="none" stroke="midnightblue" d="M142.226,-168.444C180.389,-158.903 242.094,-143.477 282.855,-133.286"/>
<polygon fill="midnightblue" stroke="midnightblue" points="283.887,-136.636 292.74,-130.815 282.189,-129.845 283.887,-136.636"/>
</g>
<!-- Node10 -->
<g id="node10" class="node"><title>Node10</title>
<g id="a_node10"><a xlink:href="../../d6/d52/ciperror_8h.html" target="_top" xlink:title="ciperror.h">
<polygon fill="none" stroke="black" points="79.5,-112.5 79.5,-131.5 136.5,-131.5 136.5,-112.5 79.5,-112.5"/>
<text text-anchor="middle" x="108" y="-119.5" font-family="Helvetica,sans-Serif" font-size="10.00">ciperror.h</text>
</a>
</g>
</g>
<!-- Node4&#45;&gt;Node10 -->
<g id="edge10" class="edge"><title>Node4&#45;&gt;Node10</title>
<path fill="none" stroke="midnightblue" d="M108,-168.083C108,-161.006 108,-150.861 108,-141.986"/>
<polygon fill="midnightblue" stroke="midnightblue" points="111.5,-141.751 108,-131.751 104.5,-141.751 111.5,-141.751"/>
</g>
<!-- Node5&#45;&gt;Node6 -->
<g id="edge5" class="edge"><title>Node5&#45;&gt;Node6</title>
<path fill="none" stroke="midnightblue" d="M321.818,-59.4244C271.607,-50.4463 172.065,-32.6474 108.657,-21.3095"/>
<polygon fill="midnightblue" stroke="midnightblue" points="109.263,-17.8625 98.8033,-19.5476 108.031,-24.7532 109.263,-17.8625"/>
</g>
<!-- Node7 -->
<g id="node7" class="node"><title>Node7</title>
<polygon fill="none" stroke="#bfbfbf" points="360.5,-0.5 360.5,-19.5 419.5,-19.5 419.5,-0.5 360.5,-0.5"/>
<text text-anchor="middle" x="390" y="-7.5" font-family="Helvetica,sans-Serif" font-size="10.00">inttypes.h</text>
</g>
<!-- Node5&#45;&gt;Node7 -->
<g id="edge6" class="edge"><title>Node5&#45;&gt;Node7</title>
<path fill="none" stroke="midnightblue" d="M359.11,-56.083C364.282,-48.5341 371.846,-37.4948 378.194,-28.2298"/>
<polygon fill="midnightblue" stroke="midnightblue" points="381.239,-29.9787 384.004,-19.7511 375.464,-26.0221 381.239,-29.9787"/>
</g>
<!-- Node8 -->
<g id="node8" class="node"><title>Node8</title>
<polygon fill="none" stroke="#bfbfbf" points="290,-0.5 290,-19.5 342,-19.5 342,-0.5 290,-0.5"/>
<text text-anchor="middle" x="316" y="-7.5" font-family="Helvetica,sans-Serif" font-size="10.00">stddef.h</text>
</g>
<!-- Node5&#45;&gt;Node8 -->
<g id="edge7" class="edge"><title>Node5&#45;&gt;Node8</title>
<path fill="none" stroke="midnightblue" d="M346.89,-56.083C341.718,-48.5341 334.154,-37.4948 327.806,-28.2298"/>
<polygon fill="midnightblue" stroke="midnightblue" points="330.536,-26.0221 321.996,-19.7511 324.761,-29.9787 330.536,-26.0221"/>
</g>
<!-- Node9&#45;&gt;Node5 -->
<g id="edge9" class="edge"><title>Node9&#45;&gt;Node5</title>
<path fill="none" stroke="midnightblue" d="M328.789,-112.083C332.758,-104.691 338.525,-93.9533 343.435,-84.8111"/>
<polygon fill="midnightblue" stroke="midnightblue" points="346.653,-86.217 348.3,-75.7511 340.486,-82.9051 346.653,-86.217"/>
</g>
<!-- Node11&#45;&gt;Node5 -->
<g id="edge13" class="edge"><title>Node11&#45;&gt;Node5</title>
<path fill="none" stroke="midnightblue" d="M542.836,-168.368C507.035,-149.251 420.847,-103.229 378.021,-80.361"/>
<polygon fill="midnightblue" stroke="midnightblue" points="379.559,-77.2144 369.089,-75.5914 376.262,-83.3892 379.559,-77.2144"/>
</g>
<!-- Node11&#45;&gt;Node9 -->
<g id="edge14" class="edge"><title>Node11&#45;&gt;Node9</title>
<path fill="none" stroke="midnightblue" d="M539.793,-170.556C536.861,-169.651 533.86,-168.769 531,-168 473.908,-152.658 406.899,-138.84 364.936,-130.682"/>
<polygon fill="midnightblue" stroke="midnightblue" points="365.569,-127.239 355.087,-128.781 364.243,-134.113 365.569,-127.239"/>
</g>
<!-- Node11&#45;&gt;Node12 -->
<g id="edge15" class="edge"><title>Node11&#45;&gt;Node12</title>
<path fill="none" stroke="midnightblue" d="M559,-168.083C559,-161.006 559,-150.861 559,-141.986"/>
<polygon fill="midnightblue" stroke="midnightblue" points="562.5,-141.751 559,-131.751 555.5,-141.751 562.5,-141.751"/>
</g>
<!-- Node12&#45;&gt;Node5 -->
<g id="edge16" class="edge"><title>Node12&#45;&gt;Node5</title>
<path fill="none" stroke="midnightblue" d="M533.326,-114.27C498.353,-105.102 435.349,-88.5867 393.848,-77.7077"/>
<polygon fill="midnightblue" stroke="midnightblue" points="394.609,-74.2891 384.048,-75.1389 392.834,-81.0603 394.609,-74.2891"/>
</g>
<!-- Node13&#45;&gt;Node5 -->
<g id="edge19" class="edge"><title>Node13&#45;&gt;Node5</title>
<path fill="none" stroke="midnightblue" d="M604.79,-114.02C601.144,-113.337 597.5,-112.655 594,-112 523.841,-98.8724 442.185,-83.6339 394.199,-74.6831"/>
<polygon fill="midnightblue" stroke="midnightblue" points="394.671,-71.2107 384.198,-72.8177 393.387,-78.092 394.671,-71.2107"/>
</g>
<!-- Node14&#45;&gt;Node5 -->
<g id="edge21" class="edge"><title>Node14&#45;&gt;Node5</title>
<path fill="none" stroke="midnightblue" d="M242.765,-168.221C250.271,-154.942 265.874,-129.451 284,-112 296.808,-99.6695 313.447,-88.7031 327.177,-80.6836"/>
<polygon fill="midnightblue" stroke="midnightblue" points="329.15,-83.5888 336.134,-75.6219 325.706,-77.4945 329.15,-83.5888"/>
</g>
<!-- Node14&#45;&gt;Node9 -->
<g id="edge22" class="edge"><title>Node14&#45;&gt;Node9</title>
<path fill="none" stroke="midnightblue" d="M251.817,-168.324C265.233,-159.9 285.824,-146.971 301.586,-137.074"/>
<polygon fill="midnightblue" stroke="midnightblue" points="303.609,-139.936 310.217,-131.655 299.887,-134.008 303.609,-139.936"/>
</g>
<!-- Node15&#45;&gt;Node5 -->
<g id="edge24" class="edge"><title>Node15&#45;&gt;Node5</title>
<path fill="none" stroke="midnightblue" d="M380.646,-168.368C375.783,-150.537 364.535,-109.295 357.983,-85.2717"/>
<polygon fill="midnightblue" stroke="midnightblue" points="361.351,-84.3181 355.343,-75.5914 354.598,-86.16 361.351,-84.3181"/>
</g>
<!-- Node15&#45;&gt;Node9 -->
<g id="edge25" class="edge"><title>Node15&#45;&gt;Node9</title>
<path fill="none" stroke="midnightblue" d="M373.521,-168.324C364.799,-160.341 351.657,-148.313 341.102,-138.653"/>
<polygon fill="midnightblue" stroke="midnightblue" points="343.392,-136.004 333.652,-131.834 338.666,-141.167 343.392,-136.004"/>
</g>
<!-- Node16&#45;&gt;Node4 -->
<g id="edge28" class="edge"><title>Node16&#45;&gt;Node4</title>
<path fill="none" stroke="midnightblue" d="M232.549,-224.444C207.867,-215.438 168.815,-201.189 141.023,-191.049"/>
<polygon fill="midnightblue" stroke="midnightblue" points="141.935,-187.656 131.341,-187.516 139.536,-194.232 141.935,-187.656"/>
</g>
<!-- Node16&#45;&gt;Node5 -->
<g id="edge29" class="edge"><title>Node16&#45;&gt;Node5</title>
<path fill="none" stroke="midnightblue" d="M235.639,-224.333C212.765,-213.21 180.269,-192.408 192,-168 214.928,-120.296 272.333,-92.7196 312.009,-78.7766"/>
<polygon fill="midnightblue" stroke="midnightblue" points="313.32,-82.0282 321.682,-75.5216 311.088,-75.3938 313.32,-82.0282"/>
</g>
<!-- Node16&#45;&gt;Node6 -->
<g id="edge27" class="edge"><title>Node16&#45;&gt;Node6</title>
<path fill="none" stroke="midnightblue" d="M194.985,-226.375C145.256,-219.653 80.4967,-207.432 63,-188 23.2035,-143.802 36.6166,-65.5731 45.6101,-29.8"/>
<polygon fill="midnightblue" stroke="midnightblue" points="49.089,-30.3397 48.3017,-19.7742 42.3284,-28.5246 49.089,-30.3397"/>
</g>
<!-- Node16&#45;&gt;Node9 -->
<g id="edge30" class="edge"><title>Node16&#45;&gt;Node9</title>
<path fill="none" stroke="midnightblue" d="M261.642,-224.425C267.547,-215.41 277.048,-200.785 285,-188 294.859,-172.149 305.766,-153.908 313.533,-140.792"/>
<polygon fill="midnightblue" stroke="midnightblue" points="316.721,-142.277 318.79,-131.886 310.693,-138.718 316.721,-142.277"/>
</g>
<!-- Node17&#45;&gt;Node5 -->
<g id="edge32" class="edge"><title>Node17&#45;&gt;Node5</title>
<path fill="none" stroke="midnightblue" d="M476.485,-168.368C453.784,-149.733 399.939,-105.532 371.436,-82.1338"/>
<polygon fill="midnightblue" stroke="midnightblue" points="373.416,-79.2311 363.466,-75.5914 368.974,-84.6416 373.416,-79.2311"/>
</g>
<!-- Node17&#45;&gt;Node9 -->
<g id="edge33" class="edge"><title>Node17&#45;&gt;Node9</title>
<path fill="none" stroke="midnightblue" d="M461.172,-168.444C433.751,-159.359 390.223,-144.939 359.568,-134.783"/>
<polygon fill="midnightblue" stroke="midnightblue" points="360.3,-131.339 349.707,-131.516 358.099,-137.984 360.3,-131.339"/>
</g>
</g>
</svg>
