<?xml version="1.0" encoding="UTF-8" standalone="no"?>
<!DOCTYPE svg PUBLIC "-//W3C//DTD SVG 1.1//EN"
 "http://www.w3.org/Graphics/SVG/1.1/DTD/svg11.dtd">
<!-- Generated by graphviz version 2.26.3 (20100126.1600)
 -->
<!-- Title: G Pages: 1 -->
<!--zoomable 436 -->
<svg id="main" version="1.1" xmlns="http://www.w3.org/2000/svg" xmlns:xlink="http://www.w3.org/1999/xlink" xml:space="preserve" onload="init(evt)">
        <defs>
                <circle id="rim" cx="0" cy="0" r="7"/>
                <circle id="rim2" cx="0" cy="0" r="3.5"/>
                <g id="zoomPlus">
                        <use xlink:href="#rim" fill="#404040">
                                <set attributeName="fill" to="#808080" begin="zoomplus.mouseover" end="zoomplus.mouseout"/>
                        </use>
                        <path d="M-4,0h8M0,-4v8" fill="none" stroke="white" stroke-width="1.5" pointer-events="none"/>
                </g>
                <g id="zoomMin">
                        <use xlink:href="#rim" fill="#404040">
                                <set attributeName="fill" to="#808080" begin="zoomminus.mouseover" end="zoomminus.mouseout"/>
                        </use>
                        <path d="M-4,0h8" fill="none" stroke="white" stroke-width="1.5" pointer-events="none"/>
                </g>
                <g id="dirArrow">
                        <path fill="none" stroke="white" stroke-width="1.5" d="M0,-3.0v7 M-2.5,-0.5L0,-3.0L2.5,-0.5"/>
                </g>
               <g id="resetDef">
                       <use xlink:href="#rim2" fill="#404040">
                               <set attributeName="fill" to="#808080" begin="reset.mouseover" end="reset.mouseout"/>
                       </use>
               </g>
        </defs>

<script type="text/javascript">
var viewWidth = 1102;
var viewHeight = 436;
var sectionId = 'dynsection-0';
</script>
<script xlink:href="../../svgpan.js"/>
<svg id="graph" class="graph">
<g id="viewport">
<title>G</title>
<!-- Node1 -->
<g id="node1" class="node"><title>Node1</title>
<polygon fill="#bfbfbf" stroke="black" points="690.5,-406.5 690.5,-427.5 811.5,-427.5 811.5,-406.5 690.5,-406.5"/>
<text text-anchor="middle" x="751" y="-414.5" font-family="Helvetica,sans-Serif" font-size="10.00">src/enet_encap/encap.c</text>
</g>
<!-- Node2 -->
<g id="node3" class="node"><title>Node2</title>
<polygon fill="none" stroke="#bfbfbf" points="27.5,-290.5 27.5,-311.5 76.5,-311.5 76.5,-290.5 27.5,-290.5"/>
<text text-anchor="middle" x="52" y="-298.5" font-family="Helvetica,sans-Serif" font-size="10.00">string.h</text>
</g>
<!-- Node1&#45;&gt;Node2 -->
<g id="edge2" class="edge"><title>Node1&#45;&gt;Node2</title>
<path fill="none" stroke="midnightblue" d="M690.299,-414.266C568.398,-408.363 297.816,-393.067 208,-370 160.894,-357.902 110.027,-332.93 79.6093,-316.58"/>
<polygon fill="midnightblue" stroke="midnightblue" points="80.9379,-313.318 70.4829,-311.602 77.5858,-319.464 80.9379,-313.318"/>
</g>
<!-- Node3 -->
<g id="node5" class="node"><title>Node3</title>
<polygon fill="none" stroke="#bfbfbf" points="94,-290.5 94,-311.5 142,-311.5 142,-290.5 94,-290.5"/>
<text text-anchor="middle" x="118" y="-298.5" font-family="Helvetica,sans-Serif" font-size="10.00">stdlib.h</text>
</g>
<!-- Node1&#45;&gt;Node3 -->
<g id="edge4" class="edge"><title>Node1&#45;&gt;Node3</title>
<path fill="none" stroke="midnightblue" d="M690.092,-413.414C579.745,-406.518 351.053,-390.278 274,-370 226.967,-357.623 176.079,-332.73 145.637,-316.473"/>
<polygon fill="midnightblue" stroke="midnightblue" points="146.963,-313.21 136.503,-311.525 143.629,-319.365 146.963,-313.21"/>
</g>
<!-- Node4 -->
<g id="node7" class="node"><title>Node4</title>
<polygon fill="none" stroke="#bfbfbf" points="313,-0.5 313,-21.5 369,-21.5 369,-0.5 313,-0.5"/>
<text text-anchor="middle" x="341" y="-8.5" font-family="Helvetica,sans-Serif" font-size="10.00">stdbool.h</text>
</g>
<!-- Node1&#45;&gt;Node4 -->
<g id="edge6" class="edge"><title>Node1&#45;&gt;Node4</title>
<path fill="none" stroke="midnightblue" d="M690.044,-415.099C556.984,-410.494 244.255,-397.073 142,-370 74.1698,-352.041 0,-371.167 0,-301 0,-301 0,-301 0,-127 0,-63.6155 213.837,-27.8758 302.841,-15.7453"/>
<polygon fill="midnightblue" stroke="midnightblue" points="303.355,-19.2077 312.804,-14.4152 302.429,-12.2692 303.355,-19.2077"/>
</g>
<!-- Node5 -->
<g id="node9" class="node"><title>Node5</title>
<a xlink:href="../../d7/df9/encap_8h.html" target="_top" xlink:title="This file contains the public interface of the encapsulation layer.">
<polygon fill="none" stroke="black" points="1021.5,-116.5 1021.5,-137.5 1072.5,-137.5 1072.5,-116.5 1021.5,-116.5"/>
<text text-anchor="middle" x="1047" y="-124.5" font-family="Helvetica,sans-Serif" font-size="10.00">encap.h</text>
</a>
</g>
<!-- Node1&#45;&gt;Node5 -->
<g id="edge8" class="edge"><title>Node1&#45;&gt;Node5</title>
<path fill="none" stroke="midnightblue" d="M811.532,-409.187C910,-394.766 1094,-359.933 1094,-301 1094,-301 1094,-301 1094,-243 1094,-206.685 1073.97,-168.347 1060.06,-146.105"/>
<polygon fill="midnightblue" stroke="midnightblue" points="1062.93,-144.096 1054.55,-137.611 1057.06,-147.905 1062.93,-144.096"/>
</g>
<!-- Node9 -->
<g id="node18" class="node"><title>Node9</title>
<a xlink:href="../../d4/d38/opener__api_8h.html" target="_top" xlink:title="opener_api.h">
<polygon fill="none" stroke="black" points="564,-174.5 564,-195.5 636,-195.5 636,-174.5 564,-174.5"/>
<text text-anchor="middle" x="600" y="-182.5" font-family="Helvetica,sans-Serif" font-size="10.00">opener_api.h</text>
</a>
</g>
<!-- Node1&#45;&gt;Node9 -->
<g id="edge18" class="edge"><title>Node1&#45;&gt;Node9</title>
<path fill="none" stroke="midnightblue" d="M757.792,-406.466C776.543,-375.926 824.951,-286.087 783,-232 766.343,-210.524 694.57,-197.158 646.016,-190.401"/>
<polygon fill="midnightblue" stroke="midnightblue" points="646.413,-186.923 636.036,-189.059 645.48,-193.86 646.413,-186.923"/>
</g>
<!-- Node15 -->
<g id="node32" class="node"><title>Node15</title>
<a xlink:href="../../d0/dff/cpf_8h.html" target="_top" xlink:title="cpf.h">
<polygon fill="none" stroke="black" points="1028,-174.5 1028,-195.5 1066,-195.5 1066,-174.5 1028,-174.5"/>
<text text-anchor="middle" x="1047" y="-182.5" font-family="Helvetica,sans-Serif" font-size="10.00">cpf.h</text>
</a>
</g>
<!-- Node1&#45;&gt;Node15 -->
<g id="edge34" class="edge"><title>Node1&#45;&gt;Node15</title>
<path fill="none" stroke="midnightblue" d="M799.343,-406.496C826.141,-399.147 859.164,-387.466 885,-370 953.47,-323.712 1011.03,-241.635 1035.02,-204.369"/>
<polygon fill="midnightblue" stroke="midnightblue" points="1037.98,-206.229 1040.38,-195.909 1032.07,-202.481 1037.98,-206.229"/>
</g>
<!-- Node16 -->
<g id="node37" class="node"><title>Node16</title>
<a xlink:href="../../d0/dec/endianconv_8h.html" target="_top" xlink:title="Responsible for Endianess conversion.">
<polygon fill="none" stroke="black" points="160,-290.5 160,-311.5 234,-311.5 234,-290.5 160,-290.5"/>
<text text-anchor="middle" x="197" y="-298.5" font-family="Helvetica,sans-Serif" font-size="10.00">endianconv.h</text>
</a>
</g>
<!-- Node1&#45;&gt;Node16 -->
<g id="edge42" class="edge"><title>Node1&#45;&gt;Node16</title>
<path fill="none" stroke="midnightblue" d="M690.376,-412.893C590.903,-405.703 397.542,-389.709 332,-370 290.963,-357.66 247.522,-333.109 221.332,-316.869"/>
<polygon fill="midnightblue" stroke="midnightblue" points="223.146,-313.875 212.82,-311.505 219.414,-319.798 223.146,-313.875"/>
</g>
<!-- Node17 -->
<g id="node40" class="node"><title>Node17</title>
<a xlink:href="../../db/d14/cipcommon_8h.html" target="_top" xlink:title="cipcommon.h">
<polygon fill="none" stroke="black" points="729.5,-174.5 729.5,-195.5 804.5,-195.5 804.5,-174.5 729.5,-174.5"/>
<text text-anchor="middle" x="767" y="-182.5" font-family="Helvetica,sans-Serif" font-size="10.00">cipcommon.h</text>
</a>
</g>
<!-- Node1&#45;&gt;Node17 -->
<g id="edge46" class="edge"><title>Node1&#45;&gt;Node17</title>
<path fill="none" stroke="midnightblue" d="M779.058,-406.353C794.738,-398.784 812.905,-386.929 822,-370 851.029,-315.971 847.67,-287.703 822,-232 816.234,-219.489 805.313,-209.071 794.713,-201.249"/>
<polygon fill="midnightblue" stroke="midnightblue" points="796.613,-198.308 786.385,-195.542 792.656,-204.082 796.613,-198.308"/>
</g>
<!-- Node18 -->
<g id="node44" class="node"><title>Node18</title>
<a xlink:href="../../d2/d75/cipmessagerouter_8h.html" target="_top" xlink:title="cipmessagerouter.h">
<polygon fill="none" stroke="black" points="822,-174.5 822,-195.5 924,-195.5 924,-174.5 822,-174.5"/>
<text text-anchor="middle" x="873" y="-182.5" font-family="Helvetica,sans-Serif" font-size="10.00">cipmessagerouter.h</text>
</a>
</g>
<!-- Node1&#45;&gt;Node18 -->
<g id="edge52" class="edge"><title>Node1&#45;&gt;Node18</title>
<path fill="none" stroke="midnightblue" d="M786.367,-406.403C805.167,-399.048 827.185,-387.391 841,-370 879.585,-321.428 878.486,-242.832 875.382,-205.696"/>
<polygon fill="midnightblue" stroke="midnightblue" points="878.85,-205.195 874.396,-195.581 871.883,-205.874 878.85,-205.195"/>
</g>
<!-- Node19 -->
<g id="node48" class="node"><title>Node19</title>
<a xlink:href="../../d2/da3/cipconnectionmanager_8h.html" target="_top" xlink:title="cipconnectionmanager.h">
<polygon fill="none" stroke="black" points="467,-232.5 467,-253.5 589,-253.5 589,-232.5 467,-232.5"/>
<text text-anchor="middle" x="528" y="-240.5" font-family="Helvetica,sans-Serif" font-size="10.00">cipconnectionmanager.h</text>
</a>
</g>
<!-- Node1&#45;&gt;Node19 -->
<g id="edge58" class="edge"><title>Node1&#45;&gt;Node19</title>
<path fill="none" stroke="midnightblue" d="M747.587,-406.377C739.24,-382.081 715.466,-322.092 675,-290 653.22,-272.727 624.951,-261.736 599.029,-254.771"/>
<polygon fill="midnightblue" stroke="midnightblue" points="599.78,-251.35 589.228,-252.294 598.065,-258.137 599.78,-251.35"/>
</g>
<!-- Node20 -->
<g id="node54" class="node"><title>Node20</title>
<a xlink:href="../../dc/d72/cipidentity_8h.html" target="_top" xlink:title="cipidentity.h">
<polygon fill="none" stroke="black" points="941.5,-174.5 941.5,-195.5 1010.5,-195.5 1010.5,-174.5 941.5,-174.5"/>
<text text-anchor="middle" x="976" y="-182.5" font-family="Helvetica,sans-Serif" font-size="10.00">cipidentity.h</text>
</a>
</g>
<!-- Node1&#45;&gt;Node20 -->
<g id="edge68" class="edge"><title>Node1&#45;&gt;Node20</title>
<path fill="none" stroke="midnightblue" d="M790.871,-406.484C813.327,-399.061 840.827,-387.311 861,-370 916.089,-322.725 953.22,-242.334 968.352,-205.067"/>
<polygon fill="midnightblue" stroke="midnightblue" points="971.608,-206.35 972.033,-195.763 965.099,-203.774 971.608,-206.35"/>
</g>
<!-- Node21 -->
<g id="node58" class="node"><title>Node21</title>
<a xlink:href="../../da/dc2/generic__networkhandler_8h.html" target="_top" xlink:title="generic_networkhandler.h">
<polygon fill="none" stroke="black" points="379,-348.5 379,-369.5 507,-369.5 507,-348.5 379,-348.5"/>
<text text-anchor="middle" x="443" y="-356.5" font-family="Helvetica,sans-Serif" font-size="10.00">generic_networkhandler.h</text>
</a>
</g>
<!-- Node1&#45;&gt;Node21 -->
<g id="edge74" class="edge"><title>Node1&#45;&gt;Node21</title>
<path fill="none" stroke="midnightblue" d="M695.224,-406.497C642.837,-396.632 564.426,-381.866 508.959,-371.421"/>
<polygon fill="midnightblue" stroke="midnightblue" points="509.356,-367.934 498.881,-369.523 508.061,-374.813 509.356,-367.934"/>
</g>
<!-- Node25 -->
<g id="node74" class="node"><title>Node25</title>
<a xlink:href="../../d1/d84/socket__timer_8h.html" target="_top" xlink:title="socket_timer.h">
<polygon fill="none" stroke="black" points="251.5,-290.5 251.5,-311.5 332.5,-311.5 332.5,-290.5 251.5,-290.5"/>
<text text-anchor="middle" x="292" y="-298.5" font-family="Helvetica,sans-Serif" font-size="10.00">socket_timer.h</text>
</a>
</g>
<!-- Node1&#45;&gt;Node25 -->
<g id="edge106" class="edge"><title>Node1&#45;&gt;Node25</title>
<path fill="none" stroke="midnightblue" d="M690.427,-413.895C597.8,-408.418 425.823,-395.163 370,-370 344.455,-358.485 321.252,-335.623 306.918,-319.373"/>
<polygon fill="midnightblue" stroke="midnightblue" points="309.417,-316.91 300.265,-311.574 304.091,-321.453 309.417,-316.91"/>
</g>
<!-- Node26 -->
<g id="node77" class="node"><title>Node26</title>
<a xlink:href="../../d1/d1b/trace_8h.html" target="_top" xlink:title="Tracing infrastructure for OpENer.">
<polygon fill="none" stroke="black" points="727.5,-232.5 727.5,-253.5 774.5,-253.5 774.5,-232.5 727.5,-232.5"/>
<text text-anchor="middle" x="751" y="-240.5" font-family="Helvetica,sans-Serif" font-size="10.00">trace.h</text>
</a>
</g>
<!-- Node1&#45;&gt;Node26 -->
<g id="edge102" class="edge"><title>Node1&#45;&gt;Node26</title>
<path fill="none" stroke="midnightblue" d="M751,-406.377C751,-378.293 751,-301.673 751,-264.203"/>
<polygon fill="midnightblue" stroke="midnightblue" points="754.5,-263.928 751,-253.928 747.5,-263.928 754.5,-263.928"/>
</g>
<!-- Node6 -->
<g id="node11" class="node"><title>Node6</title>
<a xlink:href="../../d7/d69/typedefs_8h.html" target="_top" xlink:title="typedefs.h">
<polygon fill="none" stroke="black" points="726,-58.5 726,-79.5 788,-79.5 788,-58.5 726,-58.5"/>
<text text-anchor="middle" x="757" y="-66.5" font-family="Helvetica,sans-Serif" font-size="10.00">typedefs.h</text>
</a>
</g>
<!-- Node5&#45;&gt;Node6 -->
<g id="edge10" class="edge"><title>Node5&#45;&gt;Node6</title>
<path fill="none" stroke="midnightblue" d="M1021.35,-120.494C1015.04,-118.959 1008.29,-117.37 1002,-116 930.493,-100.412 846.639,-84.9244 797.894,-76.1965"/>
<polygon fill="midnightblue" stroke="midnightblue" points="798.501,-72.7497 788.042,-74.4391 797.272,-79.6409 798.501,-72.7497"/>
</g>
<!-- Node6&#45;&gt;Node4 -->
<g id="edge16" class="edge"><title>Node6&#45;&gt;Node4</title>
<path fill="none" stroke="midnightblue" d="M725.732,-64.6406C650.775,-54.1898 461.018,-27.7333 379.348,-16.3465"/>
<polygon fill="midnightblue" stroke="midnightblue" points="379.408,-12.8212 369.021,-14.9067 378.442,-19.7542 379.408,-12.8212"/>
</g>
<!-- Node7 -->
<g id="node13" class="node"><title>Node7</title>
<polygon fill="none" stroke="#bfbfbf" points="690.5,-0.5 690.5,-21.5 749.5,-21.5 749.5,-0.5 690.5,-0.5"/>
<text text-anchor="middle" x="720" y="-8.5" font-family="Helvetica,sans-Serif" font-size="10.00">inttypes.h</text>
</g>
<!-- Node6&#45;&gt;Node7 -->
<g id="edge12" class="edge"><title>Node6&#45;&gt;Node7</title>
<path fill="none" stroke="midnightblue" d="M750.214,-58.3619C745.207,-50.5131 738.255,-39.6159 732.282,-30.2527"/>
<polygon fill="midnightblue" stroke="midnightblue" points="735.072,-28.1189 726.743,-21.5707 729.171,-31.8837 735.072,-28.1189"/>
</g>
<!-- Node8 -->
<g id="node15" class="node"><title>Node8</title>
<polygon fill="none" stroke="#bfbfbf" points="767,-0.5 767,-21.5 819,-21.5 819,-0.5 767,-0.5"/>
<text text-anchor="middle" x="793" y="-8.5" font-family="Helvetica,sans-Serif" font-size="10.00">stddef.h</text>
</g>
<!-- Node6&#45;&gt;Node8 -->
<g id="edge14" class="edge"><title>Node6&#45;&gt;Node8</title>
<path fill="none" stroke="midnightblue" d="M763.603,-58.3619C768.475,-50.5131 775.238,-39.6159 781.05,-30.2527"/>
<polygon fill="midnightblue" stroke="midnightblue" points="784.139,-31.9129 786.439,-21.5707 778.191,-28.2213 784.139,-31.9129"/>
</g>
<!-- Node9&#45;&gt;Node6 -->
<g id="edge22" class="edge"><title>Node9&#45;&gt;Node6</title>
<path fill="none" stroke="midnightblue" d="M636.234,-177.596C661.778,-170.85 695.49,-158.694 719,-138 733.93,-124.859 744.161,-104.379 750.213,-89.1401"/>
<polygon fill="midnightblue" stroke="midnightblue" points="753.561,-90.1755 753.742,-79.5822 746.995,-87.751 753.561,-90.1755"/>
</g>
<!-- Node10 -->
<g id="node20" class="node"><title>Node10</title>
<polygon fill="none" stroke="#bfbfbf" points="584,-116.5 584,-137.5 636,-137.5 636,-116.5 584,-116.5"/>
<text text-anchor="middle" x="610" y="-124.5" font-family="Helvetica,sans-Serif" font-size="10.00">assert.h</text>
</g>
<!-- Node9&#45;&gt;Node10 -->
<g id="edge20" class="edge"><title>Node9&#45;&gt;Node10</title>
<path fill="none" stroke="midnightblue" d="M601.834,-174.362C603.131,-166.84 604.911,-156.519 606.477,-147.431"/>
<polygon fill="midnightblue" stroke="midnightblue" points="609.927,-148.02 608.177,-137.571 603.029,-146.831 609.927,-148.02"/>
</g>
<!-- Node11 -->
<g id="node23" class="node"><title>Node11</title>
<a xlink:href="../../df/d28/ciptypes_8h.html" target="_top" xlink:title="ciptypes.h">
<polygon fill="none" stroke="black" points="804,-116.5 804,-137.5 866,-137.5 866,-116.5 804,-116.5"/>
<text text-anchor="middle" x="835" y="-124.5" font-family="Helvetica,sans-Serif" font-size="10.00">ciptypes.h</text>
</a>
</g>
<!-- Node9&#45;&gt;Node11 -->
<g id="edge24" class="edge"><title>Node9&#45;&gt;Node11</title>
<path fill="none" stroke="midnightblue" d="M636.204,-176.065C678.726,-165.57 749.11,-148.198 793.716,-137.189"/>
<polygon fill="midnightblue" stroke="midnightblue" points="794.776,-140.533 803.646,-134.738 793.098,-133.737 794.776,-140.533"/>
</g>
<!-- Node13 -->
<g id="node28" class="node"><title>Node13</title>
<a xlink:href="../../d6/d52/ciperror_8h.html" target="_top" xlink:title="ciperror.h">
<polygon fill="none" stroke="black" points="653.5,-116.5 653.5,-137.5 710.5,-137.5 710.5,-116.5 653.5,-116.5"/>
<text text-anchor="middle" x="682" y="-124.5" font-family="Helvetica,sans-Serif" font-size="10.00">ciperror.h</text>
</a>
</g>
<!-- Node9&#45;&gt;Node13 -->
<g id="edge30" class="edge"><title>Node9&#45;&gt;Node13</title>
<path fill="none" stroke="midnightblue" d="M615.04,-174.362C627.293,-165.696 644.799,-153.313 658.839,-143.382"/>
<polygon fill="midnightblue" stroke="midnightblue" points="660.912,-146.203 667.055,-137.571 656.87,-140.488 660.912,-146.203"/>
</g>
<!-- Node14 -->
<g id="node30" class="node"><title>Node14</title>
<polygon fill="none" stroke="#bfbfbf" points="464,-116.5 464,-137.5 566,-137.5 566,-116.5 464,-116.5"/>
<text text-anchor="middle" x="515" y="-124.5" font-family="Helvetica,sans-Serif" font-size="10.00">opener_user_conf.h</text>
</g>
<!-- Node9&#45;&gt;Node14 -->
<g id="edge32" class="edge"><title>Node9&#45;&gt;Node14</title>
<path fill="none" stroke="midnightblue" d="M584.41,-174.362C571.709,-165.696 553.562,-153.313 539.008,-143.382"/>
<polygon fill="midnightblue" stroke="midnightblue" points="540.724,-140.316 530.491,-137.571 536.779,-146.098 540.724,-140.316"/>
</g>
<!-- Node11&#45;&gt;Node6 -->
<g id="edge26" class="edge"><title>Node11&#45;&gt;Node6</title>
<path fill="none" stroke="midnightblue" d="M820.694,-116.362C809.149,-107.777 792.7,-95.5459 779.41,-85.6636"/>
<polygon fill="midnightblue" stroke="midnightblue" points="781.329,-82.7291 771.216,-79.5707 777.152,-88.3463 781.329,-82.7291"/>
</g>
<!-- Node12 -->
<g id="node26" class="node"><title>Node12</title>
<polygon fill="none" stroke="#bfbfbf" points="465.5,-58.5 465.5,-79.5 556.5,-79.5 556.5,-58.5 465.5,-58.5"/>
<text text-anchor="middle" x="511" y="-66.5" font-family="Helvetica,sans-Serif" font-size="10.00">networkhandler.h</text>
</g>
<!-- Node11&#45;&gt;Node12 -->
<g id="edge28" class="edge"><title>Node11&#45;&gt;Node12</title>
<path fill="none" stroke="midnightblue" d="M803.934,-121.439C749.321,-111.662 635.414,-91.2717 566.843,-78.9966"/>
<polygon fill="midnightblue" stroke="midnightblue" points="567.115,-75.4898 556.655,-77.1728 565.882,-82.3803 567.115,-75.4898"/>
</g>
<!-- Node15&#45;&gt;Node5 -->
<g id="edge40" class="edge"><title>Node15&#45;&gt;Node5</title>
<path fill="none" stroke="midnightblue" d="M1047,-174.362C1047,-166.922 1047,-156.743 1047,-147.728"/>
<polygon fill="midnightblue" stroke="midnightblue" points="1050.5,-147.571 1047,-137.571 1043.5,-147.571 1050.5,-147.571"/>
</g>
<!-- Node15&#45;&gt;Node6 -->
<g id="edge36" class="edge"><title>Node15&#45;&gt;Node6</title>
<path fill="none" stroke="midnightblue" d="M1030.62,-174.369C1007.29,-159.604 962.794,-132.813 922,-116 881.072,-99.1313 832.052,-86.0077 798.131,-77.9663"/>
<polygon fill="midnightblue" stroke="midnightblue" points="798.648,-74.4931 788.115,-75.6354 797.061,-81.3109 798.648,-74.4931"/>
</g>
<!-- Node15&#45;&gt;Node11 -->
<g id="edge38" class="edge"><title>Node15&#45;&gt;Node11</title>
<path fill="none" stroke="midnightblue" d="M1027.83,-177.108C1024.9,-176.004 1021.88,-174.93 1019,-174 970.674,-158.402 913.896,-144.56 876.328,-136.007"/>
<polygon fill="midnightblue" stroke="midnightblue" points="876.789,-132.524 866.264,-133.738 875.249,-139.352 876.789,-132.524"/>
</g>
<!-- Node16&#45;&gt;Node6 -->
<g id="edge44" class="edge"><title>Node16&#45;&gt;Node6</title>
<path fill="none" stroke="midnightblue" d="M202.506,-290.219C219.931,-257.363 277.458,-158.157 357,-116 388.226,-99.4505 619.602,-79.7276 715.523,-72.165"/>
<polygon fill="midnightblue" stroke="midnightblue" points="716.026,-75.6365 725.722,-71.3666 715.48,-68.6579 716.026,-75.6365"/>
</g>
<!-- Node17&#45;&gt;Node6 -->
<g id="edge48" class="edge"><title>Node17&#45;&gt;Node6</title>
<path fill="none" stroke="midnightblue" d="M766.077,-174.295C764.425,-155.131 760.936,-114.654 758.797,-89.8434"/>
<polygon fill="midnightblue" stroke="midnightblue" points="762.267,-89.3416 757.921,-79.6792 755.293,-89.9429 762.267,-89.3416"/>
</g>
<!-- Node17&#45;&gt;Node11 -->
<g id="edge50" class="edge"><title>Node17&#45;&gt;Node11</title>
<path fill="none" stroke="midnightblue" d="M779.472,-174.362C789.345,-165.941 803.333,-154.011 814.798,-144.231"/>
<polygon fill="midnightblue" stroke="midnightblue" points="817.27,-146.723 822.607,-137.571 812.727,-141.397 817.27,-146.723"/>
</g>
<!-- Node18&#45;&gt;Node6 -->
<g id="edge54" class="edge"><title>Node18&#45;&gt;Node6</title>
<path fill="none" stroke="midnightblue" d="M876.932,-174.111C881.453,-159.524 886.838,-133.457 875,-116 857.881,-90.7538 824.809,-79.0682 798.023,-73.6596"/>
<polygon fill="midnightblue" stroke="midnightblue" points="798.573,-70.2024 788.112,-71.8788 797.335,-77.0921 798.573,-70.2024"/>
</g>
<!-- Node18&#45;&gt;Node11 -->
<g id="edge56" class="edge"><title>Node18&#45;&gt;Node11</title>
<path fill="none" stroke="midnightblue" d="M866.03,-174.362C860.834,-166.431 853.599,-155.389 847.422,-145.961"/>
<polygon fill="midnightblue" stroke="midnightblue" points="850.334,-144.017 841.926,-137.571 844.478,-147.853 850.334,-144.017"/>
</g>
<!-- Node19&#45;&gt;Node6 -->
<g id="edge64" class="edge"><title>Node19&#45;&gt;Node6</title>
<path fill="none" stroke="midnightblue" d="M513.413,-232.286C483.827,-209.302 422.246,-154.246 455,-116 471.764,-96.4256 637.012,-79.4927 715.722,-72.4654"/>
<polygon fill="midnightblue" stroke="midnightblue" points="716.125,-75.9435 725.779,-71.5794 715.511,-68.9705 716.125,-75.9435"/>
</g>
<!-- Node19&#45;&gt;Node9 -->
<g id="edge62" class="edge"><title>Node19&#45;&gt;Node9</title>
<path fill="none" stroke="midnightblue" d="M541.206,-232.362C551.761,-223.859 566.758,-211.779 578.963,-201.947"/>
<polygon fill="midnightblue" stroke="midnightblue" points="581.286,-204.57 586.878,-195.571 576.895,-199.118 581.286,-204.57"/>
</g>
<!-- Node19&#45;&gt;Node11 -->
<g id="edge66" class="edge"><title>Node19&#45;&gt;Node11</title>
<path fill="none" stroke="midnightblue" d="M556.058,-232.398C611.557,-211.428 735.361,-164.649 797.666,-141.107"/>
<polygon fill="midnightblue" stroke="midnightblue" points="799.001,-144.344 807.118,-137.535 796.527,-137.796 799.001,-144.344"/>
</g>
<!-- Node19&#45;&gt;Node14 -->
<g id="edge60" class="edge"><title>Node19&#45;&gt;Node14</title>
<path fill="none" stroke="midnightblue" d="M526.8,-232.295C524.653,-213.131 520.116,-172.654 517.336,-147.843"/>
<polygon fill="midnightblue" stroke="midnightblue" points="520.789,-147.227 516.197,-137.679 513.832,-148.007 520.789,-147.227"/>
</g>
<!-- Node20&#45;&gt;Node6 -->
<g id="edge70" class="edge"><title>Node20&#45;&gt;Node6</title>
<path fill="none" stroke="midnightblue" d="M965.517,-174.265C950.463,-159.376 921.296,-132.439 892,-116 862.219,-99.2891 825.45,-86.9637 797.809,-79.1374"/>
<polygon fill="midnightblue" stroke="midnightblue" points="798.638,-75.7356 788.068,-76.4577 796.782,-82.4849 798.638,-75.7356"/>
</g>
<!-- Node20&#45;&gt;Node11 -->
<g id="edge72" class="edge"><title>Node20&#45;&gt;Node11</title>
<path fill="none" stroke="midnightblue" d="M950.466,-174.497C928.047,-165.275 895.215,-151.769 870.287,-141.515"/>
<polygon fill="midnightblue" stroke="midnightblue" points="871.4,-138.189 860.821,-137.621 868.737,-144.662 871.4,-138.189"/>
</g>
<!-- Node21&#45;&gt;Node2 -->
<g id="edge78" class="edge"><title>Node21&#45;&gt;Node2</title>
<path fill="none" stroke="midnightblue" d="M378.971,-354.309C309.016,-348.354 193.656,-336.103 86.711,-312.088"/>
<polygon fill="midnightblue" stroke="midnightblue" points="87.2498,-308.621 76.7212,-309.805 85.6897,-315.445 87.2498,-308.621"/>
</g>
<!-- Node21&#45;&gt;Node3 -->
<g id="edge80" class="edge"><title>Node21&#45;&gt;Node3</title>
<path fill="none" stroke="midnightblue" d="M378.892,-351.72C321.596,-344.526 235.298,-332.001 151.908,-311.927"/>
<polygon fill="midnightblue" stroke="midnightblue" points="152.564,-308.484 142.019,-309.507 150.9,-315.284 152.564,-308.484"/>
</g>
<!-- Node21&#45;&gt;Node6 -->
<g id="edge86" class="edge"><title>Node21&#45;&gt;Node6</title>
<path fill="none" stroke="midnightblue" d="M435.77,-348.342C423.05,-328.524 398,-284.258 398,-243 398,-243 398,-243 398,-185 398,-148.866 410.787,-135.82 441,-116 485.515,-86.7987 640.963,-74.9632 715.938,-70.8695"/>
<polygon fill="midnightblue" stroke="midnightblue" points="716.161,-74.3628 725.964,-70.3423 715.794,-67.3724 716.161,-74.3628"/>
</g>
<!-- Node21&#45;&gt;Node9 -->
<g id="edge84" class="edge"><title>Node21&#45;&gt;Node9</title>
<path fill="none" stroke="midnightblue" d="M507.054,-354.917C568.232,-349.522 654.123,-337.53 675,-312 704.462,-275.971 654.282,-227.083 622.699,-201.758"/>
<polygon fill="midnightblue" stroke="midnightblue" points="624.786,-198.947 614.747,-195.559 620.482,-204.468 624.786,-198.947"/>
</g>
<!-- Node21&#45;&gt;Node12 -->
<g id="edge92" class="edge"><title>Node21&#45;&gt;Node12</title>
<path fill="none" stroke="midnightblue" d="M424.716,-348.367C411.728,-339.975 394.751,-327.173 384,-312 365.229,-285.507 360,-275.469 360,-243 360,-243 360,-243 360,-185 360,-152.531 361.268,-139.184 384,-116 403.023,-96.5981 430.755,-85.1351 455.455,-78.3973"/>
<polygon fill="midnightblue" stroke="midnightblue" points="456.621,-81.713 465.461,-75.8731 454.909,-74.9256 456.621,-81.713"/>
</g>
<!-- Node21&#45;&gt;Node16 -->
<g id="edge88" class="edge"><title>Node21&#45;&gt;Node16</title>
<path fill="none" stroke="midnightblue" d="M397.712,-348.411C359.306,-339.418 302.484,-326.086 243.944,-312.218"/>
<polygon fill="midnightblue" stroke="midnightblue" points="244.692,-308.799 234.154,-309.898 243.077,-315.61 244.692,-308.799"/>
</g>
<!-- Node21&#45;&gt;Node19 -->
<g id="edge90" class="edge"><title>Node21&#45;&gt;Node19</title>
<path fill="none" stroke="midnightblue" d="M465.049,-348.387C479.564,-340.322 497.874,-327.907 509,-312 518.988,-297.72 523.735,-278.377 525.985,-263.804"/>
<polygon fill="midnightblue" stroke="midnightblue" points="529.474,-264.116 527.265,-253.753 522.53,-263.231 529.474,-264.116"/>
</g>
<!-- Node22 -->
<g id="node60" class="node"><title>Node22</title>
<polygon fill="none" stroke="#bfbfbf" points="556,-290.5 556,-311.5 602,-311.5 602,-290.5 556,-290.5"/>
<text text-anchor="middle" x="579" y="-298.5" font-family="Helvetica,sans-Serif" font-size="10.00">stdio.h</text>
</g>
<!-- Node21&#45;&gt;Node22 -->
<g id="edge76" class="edge"><title>Node21&#45;&gt;Node22</title>
<path fill="none" stroke="midnightblue" d="M467.629,-348.497C489.695,-339.086 522.22,-325.215 546.431,-314.89"/>
<polygon fill="midnightblue" stroke="midnightblue" points="548.09,-317.987 555.915,-310.845 545.344,-311.549 548.09,-317.987"/>
</g>
<!-- Node23 -->
<g id="node64" class="node"><title>Node23</title>
<polygon fill="none" stroke="#bfbfbf" points="619.5,-290.5 619.5,-311.5 666.5,-311.5 666.5,-290.5 619.5,-290.5"/>
<text text-anchor="middle" x="643" y="-298.5" font-family="Helvetica,sans-Serif" font-size="10.00">errno.h</text>
</g>
<!-- Node21&#45;&gt;Node23 -->
<g id="edge82" class="edge"><title>Node21&#45;&gt;Node23</title>
<path fill="none" stroke="midnightblue" d="M483.248,-348.448C515.268,-339.894 561.41,-327.218 609.619,-312.331"/>
<polygon fill="midnightblue" stroke="midnightblue" points="610.776,-315.636 619.285,-309.324 608.697,-308.952 610.776,-315.636"/>
</g>
<!-- Node24 -->
<g id="node71" class="node"><title>Node24</title>
<a xlink:href="../../d1/dc0/appcontype_8h.html" target="_top" xlink:title="appcontype.h">
<polygon fill="none" stroke="black" points="425.5,-290.5 425.5,-311.5 500.5,-311.5 500.5,-290.5 425.5,-290.5"/>
<text text-anchor="middle" x="463" y="-298.5" font-family="Helvetica,sans-Serif" font-size="10.00">appcontype.h</text>
</a>
</g>
<!-- Node21&#45;&gt;Node24 -->
<g id="edge94" class="edge"><title>Node21&#45;&gt;Node24</title>
<path fill="none" stroke="midnightblue" d="M446.668,-348.362C449.29,-340.758 452.899,-330.294 456.057,-321.135"/>
<polygon fill="midnightblue" stroke="midnightblue" points="459.404,-322.165 459.355,-311.571 452.786,-319.883 459.404,-322.165"/>
</g>
<!-- Node21&#45;&gt;Node25 -->
<g id="edge98" class="edge"><title>Node21&#45;&gt;Node25</title>
<path fill="none" stroke="midnightblue" d="M415.655,-348.497C391.358,-339.164 355.64,-325.445 328.832,-315.147"/>
<polygon fill="midnightblue" stroke="midnightblue" points="329.986,-311.842 319.396,-311.523 327.476,-318.376 329.986,-311.842"/>
</g>
<!-- Node24&#45;&gt;Node19 -->
<g id="edge96" class="edge"><title>Node24&#45;&gt;Node19</title>
<path fill="none" stroke="midnightblue" d="M474.922,-290.362C484.359,-281.941 497.73,-270.011 508.69,-260.231"/>
<polygon fill="midnightblue" stroke="midnightblue" points="511.022,-262.84 516.154,-253.571 506.362,-257.617 511.022,-262.84"/>
</g>
<!-- Node25&#45;&gt;Node6 -->
<g id="edge100" class="edge"><title>Node25&#45;&gt;Node6</title>
<path fill="none" stroke="midnightblue" d="M293.724,-290.384C299.592,-258.003 321.991,-160.019 384,-116 410.681,-97.0599 624.415,-78.9545 715.799,-71.9967"/>
<polygon fill="midnightblue" stroke="midnightblue" points="716.093,-75.4845 725.802,-71.2425 715.567,-68.5044 716.093,-75.4845"/>
</g>
<!-- Node26&#45;&gt;Node14 -->
<g id="edge104" class="edge"><title>Node26&#45;&gt;Node14</title>
<path fill="none" stroke="midnightblue" d="M736.887,-232.292C717.146,-217.677 679.792,-191.323 645,-174 617.974,-160.543 586.117,-148.962 560.703,-140.663"/>
<polygon fill="midnightblue" stroke="midnightblue" points="561.54,-137.256 550.949,-137.535 559.403,-143.922 561.54,-137.256"/>
</g>
</g>
</svg>
        <g id="navigator" transform="translate(0 0)" fill="#404254">
                <rect fill="#f2f5e9" fill-opacity="0.5" stroke="#606060" stroke-width=".5" x="0" y="0" width="60" height="60"/>
                <use id="zoomplus" xlink:href="#zoomPlus" x="17" y="9" onmousedown="handleZoom(evt,'in')"/>
                <use id="zoomminus" xlink:href="#zoomMin" x="42" y="9" onmousedown="handleZoom(evt,'out')"/>
                <use id="reset" xlink:href="#resetDef" x="30" y="36" onmousedown="handleReset()"/>
                <g id="arrowUp" xlink:href="#dirArrow" transform="translate(30 24)" onmousedown="handlePan(0,-1)">
                  <use xlink:href="#rim" fill="#404040">
                        <set attributeName="fill" to="#808080" begin="arrowUp.mouseover" end="arrowUp.mouseout"/>
                  </use>
                  <path fill="none" stroke="white" stroke-width="1.5" d="M0,-3.0v7 M-2.5,-0.5L0,-3.0L2.5,-0.5"/>
                </g>
                <g id="arrowRight" xlink:href="#dirArrow" transform="rotate(90) translate(36 -43)" onmousedown="handlePan(1,0)">
                  <use xlink:href="#rim" fill="#404040">
                        <set attributeName="fill" to="#808080" begin="arrowRight.mouseover" end="arrowRight.mouseout"/>
                  </use>
                  <path fill="none" stroke="white" stroke-width="1.5" d="M0,-3.0v7 M-2.5,-0.5L0,-3.0L2.5,-0.5"/>
                </g>
                <g id="arrowDown" xlink:href="#dirArrow" transform="rotate(180) translate(-30 -48)" onmousedown="handlePan(0,1)">
                  <use xlink:href="#rim" fill="#404040">
                        <set attributeName="fill" to="#808080" begin="arrowDown.mouseover" end="arrowDown.mouseout"/>
                  </use>
                  <path fill="none" stroke="white" stroke-width="1.5" d="M0,-3.0v7 M-2.5,-0.5L0,-3.0L2.5,-0.5"/>
                </g>
                <g id="arrowLeft" xlink:href="#dirArrow" transform="rotate(270) translate(-36 17)" onmousedown="handlePan(-1,0)">
                  <use xlink:href="#rim" fill="#404040">
                        <set attributeName="fill" to="#808080" begin="arrowLeft.mouseover" end="arrowLeft.mouseout"/>
                  </use>
                  <path fill="none" stroke="white" stroke-width="1.5" d="M0,-3.0v7 M-2.5,-0.5L0,-3.0L2.5,-0.5"/>
                </g>
        </g>
</svg>
