<?xml version="1.0" encoding="UTF-8" standalone="no"?>
<!DOCTYPE svg PUBLIC "-//W3C//DTD SVG 1.1//EN"
 "http://www.w3.org/Graphics/SVG/1.1/DTD/svg11.dtd">
<!-- Generated by graphviz version 2.36.0 (20140111.2315)
 -->
<!-- Title: GetIoConnectionForConnectionData Pages: 1 -->
<svg width="1048pt" height="284pt"
 viewBox="0.00 0.00 1048.00 284.00" xmlns="http://www.w3.org/2000/svg" xmlns:xlink="http://www.w3.org/1999/xlink">
<g id="graph0" class="graph" transform="scale(1 1) rotate(0) translate(4 280)">
<title>GetIoConnectionForConnectionData</title>
<!-- Node1 -->
<g id="node1" class="node"><title>Node1</title>
<polygon fill="#bfbfbf" stroke="black" points="0.5,-180.5 0.5,-199.5 175.5,-199.5 175.5,-180.5 0.5,-180.5"/>
<text text-anchor="middle" x="88" y="-187.5" font-family="Helvetica,sans-Serif" font-size="10.00">GetIoConnectionForConnectionData</text>
</g>
<!-- Node2 -->
<g id="node2" class="node"><title>Node2</title>
<g id="a_node2"><a xlink:href="../../df/d91/cipconnectionobject_8c.html#afaa08a457cbae921463403f0f00dd38e" target="_top" xlink:title="Copy the given connection data from source to destination. ">
<polygon fill="none" stroke="black" points="226.5,-256.5 226.5,-275.5 367.5,-275.5 367.5,-256.5 226.5,-256.5"/>
<text text-anchor="middle" x="297" y="-263.5" font-family="Helvetica,sans-Serif" font-size="10.00">ConnectionObjectDeepCopy</text>
</a>
</g>
</g>
<!-- Node1&#45;&gt;Node2 -->
<g id="edge1" class="edge"><title>Node1&#45;&gt;Node2</title>
<path fill="none" stroke="midnightblue" d="M106.439,-199.521C129.849,-211.962 173.011,-233.724 212,-247 219.647,-249.604 227.809,-251.955 235.926,-254.044"/>
<polygon fill="midnightblue" stroke="midnightblue" points="235.222,-257.475 245.768,-256.462 236.892,-250.677 235.222,-257.475"/>
</g>
<!-- Node3 -->
<g id="node3" class="node"><title>Node3</title>
<g id="a_node3"><a xlink:href="../../df/d91/cipconnectionobject_8c.html#a49bbc4004eb23be25b6d3620ece5a7a7" target="_top" xlink:title="ConnectionObjectSetInstanceType">
<polygon fill="none" stroke="black" points="212.5,-218.5 212.5,-237.5 381.5,-237.5 381.5,-218.5 212.5,-218.5"/>
<text text-anchor="middle" x="297" y="-225.5" font-family="Helvetica,sans-Serif" font-size="10.00">ConnectionObjectSetInstanceType</text>
</a>
</g>
</g>
<!-- Node1&#45;&gt;Node3 -->
<g id="edge2" class="edge"><title>Node1&#45;&gt;Node3</title>
<path fill="none" stroke="midnightblue" d="M140.968,-199.54C169.266,-204.735 204.464,-211.196 234.167,-216.649"/>
<polygon fill="midnightblue" stroke="midnightblue" points="233.543,-220.093 244.011,-218.456 234.807,-213.208 233.543,-220.093"/>
</g>
<!-- Node4 -->
<g id="node4" class="node"><title>Node4</title>
<g id="a_node4"><a xlink:href="../../d1/dbc/appcontype_8c.html#a0c46e6942d5dbb0cd7c9b1eb97e78aea" target="_top" xlink:title="Takes an ConnectionObject and searches and returns an Exclusive Owner Connection based on the Connect...">
<polygon fill="none" stroke="black" points="220.5,-180.5 220.5,-199.5 373.5,-199.5 373.5,-180.5 220.5,-180.5"/>
<text text-anchor="middle" x="297" y="-187.5" font-family="Helvetica,sans-Serif" font-size="10.00">GetExclusiveOwnerConnection</text>
</a>
</g>
</g>
<!-- Node1&#45;&gt;Node4 -->
<g id="edge3" class="edge"><title>Node1&#45;&gt;Node4</title>
<path fill="none" stroke="midnightblue" d="M175.587,-190C186.953,-190 198.599,-190 209.956,-190"/>
<polygon fill="midnightblue" stroke="midnightblue" points="210.289,-193.5 220.289,-190 210.289,-186.5 210.289,-193.5"/>
</g>
<!-- Node8 -->
<g id="node8" class="node"><title>Node8</title>
<g id="a_node8"><a xlink:href="../../d1/dbc/appcontype_8c.html#a06e551d0aff7ac41def5bbc39652f89a" target="_top" xlink:title="Takes an ConnectionObject and searches and returns an Input Only Connection based on the ConnectionOb...">
<polygon fill="none" stroke="black" points="235,-142.5 235,-161.5 359,-161.5 359,-142.5 235,-142.5"/>
<text text-anchor="middle" x="297" y="-149.5" font-family="Helvetica,sans-Serif" font-size="10.00">GetInputOnlyConnection</text>
</a>
</g>
</g>
<!-- Node1&#45;&gt;Node8 -->
<g id="edge8" class="edge"><title>Node1&#45;&gt;Node8</title>
<path fill="none" stroke="midnightblue" d="M140.968,-180.46C169.266,-175.265 204.464,-168.804 234.167,-163.351"/>
<polygon fill="midnightblue" stroke="midnightblue" points="234.807,-166.792 244.011,-161.544 233.543,-159.907 234.807,-166.792"/>
</g>
<!-- Node9 -->
<g id="node9" class="node"><title>Node9</title>
<g id="a_node9"><a xlink:href="../../d1/dbc/appcontype_8c.html#ae76893528b0e064cf220f6eb19ac5bdf" target="_top" xlink:title="Takes an ConnectionObject and searches and returns an Listen Only Connection based on the ConnectionO...">
<polygon fill="none" stroke="black" points="233,-85.5 233,-104.5 361,-104.5 361,-85.5 233,-85.5"/>
<text text-anchor="middle" x="297" y="-92.5" font-family="Helvetica,sans-Serif" font-size="10.00">GetListenOnlyConnection</text>
</a>
</g>
</g>
<!-- Node1&#45;&gt;Node9 -->
<g id="edge11" class="edge"><title>Node1&#45;&gt;Node9</title>
<path fill="none" stroke="midnightblue" d="M109.431,-180.462C133.815,-169.096 175.836,-149.559 212,-133 229.596,-124.943 249.308,-116.021 265.212,-108.847"/>
<polygon fill="midnightblue" stroke="midnightblue" points="266.891,-111.929 274.57,-104.63 264.015,-105.548 266.891,-111.929"/>
</g>
<!-- Node5 -->
<g id="node5" class="node"><title>Node5</title>
<g id="a_node5"><a xlink:href="../../df/d91/cipconnectionobject_8c.html#a308afe67f0cfd50cc772ad276257d6f2" target="_top" xlink:title="ConnectionObjectEqualOriginator">
<polygon fill="none" stroke="black" points="418.5,-161.5 418.5,-180.5 579.5,-180.5 579.5,-161.5 418.5,-161.5"/>
<text text-anchor="middle" x="499" y="-168.5" font-family="Helvetica,sans-Serif" font-size="10.00">ConnectionObjectEqualOriginator</text>
</a>
</g>
</g>
<!-- Node4&#45;&gt;Node5 -->
<g id="edge4" class="edge"><title>Node4&#45;&gt;Node5</title>
<path fill="none" stroke="midnightblue" d="M373.611,-182.817C384.905,-181.744 396.64,-180.629 408.192,-179.532"/>
<polygon fill="midnightblue" stroke="midnightblue" points="408.657,-183.003 418.281,-178.573 407.995,-176.035 408.657,-183.003"/>
</g>
<!-- Node6 -->
<g id="node6" class="node"><title>Node6</title>
<g id="a_node6"><a xlink:href="../../df/d91/cipconnectionobject_8c.html#a9c381240583828bec2cda2d54dc94d3b" target="_top" xlink:title="ConnectionObjectGetState">
<polygon fill="none" stroke="black" points="652,-161.5 652,-180.5 786,-180.5 786,-161.5 652,-161.5"/>
<text text-anchor="middle" x="719" y="-168.5" font-family="Helvetica,sans-Serif" font-size="10.00">ConnectionObjectGetState</text>
</a>
</g>
</g>
<!-- Node4&#45;&gt;Node6 -->
<g id="edge5" class="edge"><title>Node4&#45;&gt;Node6</title>
<path fill="none" stroke="midnightblue" d="M350.155,-199.553C360.84,-202.132 371.902,-205.268 382,-209 398.97,-215.272 400.439,-223.65 418,-228 487.888,-245.311 509.376,-242.011 580,-228 620.761,-219.913 664.588,-199.602 691.657,-185.548"/>
<polygon fill="midnightblue" stroke="midnightblue" points="693.636,-188.461 700.835,-180.687 690.359,-182.275 693.636,-188.461"/>
</g>
<!-- Node7 -->
<g id="node7" class="node"><title>Node7</title>
<g id="a_node7"><a xlink:href="../../d5/d35/cipconnectionmanager_8c.html#af9229054795bce595b5aa0385fede004" target="_top" xlink:title="GetConnectedOutputAssembly">
<polygon fill="none" stroke="black" points="423,-199.5 423,-218.5 575,-218.5 575,-199.5 423,-199.5"/>
<text text-anchor="middle" x="499" y="-206.5" font-family="Helvetica,sans-Serif" font-size="10.00">GetConnectedOutputAssembly</text>
</a>
</g>
</g>
<!-- Node4&#45;&gt;Node7 -->
<g id="edge6" class="edge"><title>Node4&#45;&gt;Node7</title>
<path fill="none" stroke="midnightblue" d="M373.611,-197.183C386.355,-198.394 399.661,-199.658 412.632,-200.89"/>
<polygon fill="midnightblue" stroke="midnightblue" points="412.659,-204.408 422.945,-201.87 413.321,-197.44 412.659,-204.408"/>
</g>
<!-- Node7&#45;&gt;Node6 -->
<g id="edge7" class="edge"><title>Node7&#45;&gt;Node6</title>
<path fill="none" stroke="midnightblue" d="M554.729,-199.46C584.661,-194.243 621.922,-187.747 653.288,-182.28"/>
<polygon fill="midnightblue" stroke="midnightblue" points="653.998,-185.709 663.248,-180.544 652.796,-178.813 653.998,-185.709"/>
</g>
<!-- Node8&#45;&gt;Node5 -->
<g id="edge9" class="edge"><title>Node8&#45;&gt;Node5</title>
<path fill="none" stroke="midnightblue" d="M359.093,-157.804C374.6,-159.277 391.585,-160.891 408.191,-162.468"/>
<polygon fill="midnightblue" stroke="midnightblue" points="408.179,-165.983 418.465,-163.444 408.841,-159.014 408.179,-165.983"/>
</g>
<!-- Node8&#45;&gt;Node6 -->
<g id="edge10" class="edge"><title>Node8&#45;&gt;Node6</title>
<path fill="none" stroke="midnightblue" d="M359.143,-149.594C416.319,-147.914 504.048,-146.796 580,-152 603.434,-153.606 628.95,-156.728 651.596,-159.985"/>
<polygon fill="midnightblue" stroke="midnightblue" points="651.377,-163.49 661.781,-161.486 652.398,-156.565 651.377,-163.49"/>
</g>
<!-- Node9&#45;&gt;Node5 -->
<g id="edge12" class="edge"><title>Node9&#45;&gt;Node5</title>
<path fill="none" stroke="midnightblue" d="M323.33,-104.625C358.795,-118.102 423.373,-142.642 463.291,-157.811"/>
<polygon fill="midnightblue" stroke="midnightblue" points="462.284,-161.172 472.876,-161.453 464.771,-154.629 462.284,-161.172"/>
</g>
<!-- Node9&#45;&gt;Node6 -->
<g id="edge13" class="edge"><title>Node9&#45;&gt;Node6</title>
<path fill="none" stroke="midnightblue" d="M354.777,-104.503C411.771,-114.127 502.059,-129.606 580,-144 606.48,-148.89 635.761,-154.579 660.513,-159.47"/>
<polygon fill="midnightblue" stroke="midnightblue" points="659.977,-162.932 670.466,-161.442 661.337,-156.065 659.977,-162.932"/>
</g>
<!-- Node10 -->
<g id="node10" class="node"><title>Node10</title>
<g id="a_node10"><a xlink:href="../../df/d91/cipconnectionobject_8c.html#ad61ad2b2c18480a141e5df346e32be02" target="_top" xlink:title="ConnectionObjectGetTToOConnectionType">
<polygon fill="none" stroke="black" points="616,-0.5 616,-19.5 822,-19.5 822,-0.5 616,-0.5"/>
<text text-anchor="middle" x="719" y="-7.5" font-family="Helvetica,sans-Serif" font-size="10.00">ConnectionObjectGetTToOConnectionType</text>
</a>
</g>
</g>
<!-- Node9&#45;&gt;Node10 -->
<g id="edge14" class="edge"><title>Node9&#45;&gt;Node10</title>
<path fill="none" stroke="midnightblue" d="M310.062,-85.4419C330.739,-69.6879 374.906,-38.7454 418,-26 478.276,-8.17301 548.285,-3.58461 605.506,-3.72116"/>
<polygon fill="midnightblue" stroke="midnightblue" points="605.644,-7.22216 615.669,-3.79501 605.695,-0.222342 605.644,-7.22216"/>
</g>
<!-- Node12 -->
<g id="node12" class="node"><title>Node12</title>
<g id="a_node12"><a xlink:href="../../d1/dbc/appcontype_8c.html#ac568876f2c5ba2da91a0e62e17e27432" target="_top" xlink:title="Check if there exists already an exclusive owner or listen only connection which produces the input a...">
<polygon fill="none" stroke="black" points="426,-36 426,-66 572,-66 572,-36 426,-36"/>
<text text-anchor="start" x="434" y="-54" font-family="Helvetica,sans-Serif" font-size="10.00">GetExistingProducerMulticast</text>
<text text-anchor="middle" x="499" y="-43" font-family="Helvetica,sans-Serif" font-size="10.00">Connection</text>
</a>
</g>
</g>
<!-- Node9&#45;&gt;Node12 -->
<g id="edge16" class="edge"><title>Node9&#45;&gt;Node12</title>
<path fill="none" stroke="midnightblue" d="M341.397,-85.4527C364.216,-80.4324 392.899,-74.1223 419.461,-68.2785"/>
<polygon fill="midnightblue" stroke="midnightblue" points="420.507,-71.6323 429.521,-66.0654 419.003,-64.7958 420.507,-71.6323"/>
</g>
<!-- Node11 -->
<g id="node11" class="node"><title>Node11</title>
<g id="a_node11"><a xlink:href="../../df/d91/cipconnectionobject_8c.html#a0da85deed56477da3ec500cec51aa46e" target="_top" xlink:title="ConnectionObjectGetConnectionType">
<polygon fill="none" stroke="black" points="858,-0.5 858,-19.5 1040,-19.5 1040,-0.5 858,-0.5"/>
<text text-anchor="middle" x="949" y="-7.5" font-family="Helvetica,sans-Serif" font-size="10.00">ConnectionObjectGetConnectionType</text>
</a>
</g>
</g>
<!-- Node10&#45;&gt;Node11 -->
<g id="edge15" class="edge"><title>Node10&#45;&gt;Node11</title>
<path fill="none" stroke="midnightblue" d="M822.329,-10C830.745,-10 839.247,-10 847.649,-10"/>
<polygon fill="midnightblue" stroke="midnightblue" points="847.835,-13.5001 857.835,-10 847.835,-6.5001 847.835,-13.5001"/>
</g>
<!-- Node12&#45;&gt;Node10 -->
<g id="edge17" class="edge"><title>Node12&#45;&gt;Node10</title>
<path fill="none" stroke="midnightblue" d="M572.288,-37.4045C599.873,-32.2165 631.01,-26.3605 657.398,-21.3976"/>
<polygon fill="midnightblue" stroke="midnightblue" points="658.081,-24.8306 667.262,-19.5425 656.787,-17.9512 658.081,-24.8306"/>
</g>
<!-- Node13 -->
<g id="node13" class="node"><title>Node13</title>
<g id="a_node13"><a xlink:href="../../df/d91/cipconnectionobject_8c.html#a4c3d0e8258e857f80e5b7111519f7daa" target="_top" xlink:title="ConnectionObjectIsTypeIOConnection">
<polygon fill="none" stroke="black" points="626.5,-41.5 626.5,-60.5 811.5,-60.5 811.5,-41.5 626.5,-41.5"/>
<text text-anchor="middle" x="719" y="-48.5" font-family="Helvetica,sans-Serif" font-size="10.00">ConnectionObjectIsTypeIOConnection</text>
</a>
</g>
</g>
<!-- Node12&#45;&gt;Node13 -->
<g id="edge18" class="edge"><title>Node12&#45;&gt;Node13</title>
<path fill="none" stroke="midnightblue" d="M572.288,-51C586.386,-51 601.412,-51 616.258,-51"/>
<polygon fill="midnightblue" stroke="midnightblue" points="616.493,-54.5001 626.493,-51 616.493,-47.5001 616.493,-54.5001"/>
</g>
</g>
</svg>
