<?xml version="1.0" encoding="UTF-8" standalone="no"?>
<!DOCTYPE svg PUBLIC "-//W3C//DTD SVG 1.1//EN"
 "http://www.w3.org/Graphics/SVG/1.1/DTD/svg11.dtd">
<!-- Generated by graphviz version 2.36.0 (20140111.2315)
 -->
<!-- Title: GetExistingProducerMulticastConnection Pages: 1 -->
<svg width="1064pt" height="66pt"
 viewBox="0.00 0.00 1064.00 66.00" xmlns="http://www.w3.org/2000/svg" xmlns:xlink="http://www.w3.org/1999/xlink">
<g id="graph0" class="graph" transform="scale(1 1) rotate(0) translate(4 62)">
<title>GetExistingProducerMulticastConnection</title>
<!-- Node1 -->
<g id="node1" class="node"><title>Node1</title>
<polygon fill="#bfbfbf" stroke="black" points="0,-14 0,-44 146,-44 146,-14 0,-14"/>
<text text-anchor="start" x="8" y="-32" font-family="Helvetica,sans-Serif" font-size="10.00">GetExistingProducerMulticast</text>
<text text-anchor="middle" x="73" y="-21" font-family="Helvetica,sans-Serif" font-size="10.00">Connection</text>
</g>
<!-- Node2 -->
<g id="node2" class="node"><title>Node2</title>
<g id="a_node2"><a xlink:href="../../d1/dbc/appcontype_8c.html#ae76893528b0e064cf220f6eb19ac5bdf" target="_top" xlink:title="Takes an ConnectionObject and searches and returns an Listen Only Connection based on the ConnectionO...">
<polygon fill="none" stroke="black" points="205,-38.5 205,-57.5 333,-57.5 333,-38.5 205,-38.5"/>
<text text-anchor="middle" x="269" y="-45.5" font-family="Helvetica,sans-Serif" font-size="10.00">GetListenOnlyConnection</text>
</a>
</g>
</g>
<!-- Node1&#45;&gt;Node2 -->
<g id="edge1" class="edge"><title>Node1&#45;&gt;Node2</title>
<path fill="none" stroke="midnightblue" d="M156.289,-37.0592C172.574,-38.6542 189.426,-40.3047 204.951,-41.8251"/>
<polygon fill="midnightblue" stroke="midnightblue" points="156.532,-33.5664 146.238,-36.0749 155.85,-40.533 156.532,-33.5664"/>
</g>
<!-- Node8 -->
<g id="node8" class="node"><title>Node8</title>
<g id="a_node8"><a xlink:href="../../df/d03/cipioconnection_8c.html#a5dea6fc1be0ed4ecf5d9e4f932d52106" target="_top" xlink:title="OpenProducingMulticastConnection">
<polygon fill="none" stroke="black" points="182.5,-0.5 182.5,-19.5 355.5,-19.5 355.5,-0.5 182.5,-0.5"/>
<text text-anchor="middle" x="269" y="-7.5" font-family="Helvetica,sans-Serif" font-size="10.00">OpenProducingMulticastConnection</text>
</a>
</g>
</g>
<!-- Node1&#45;&gt;Node8 -->
<g id="edge7" class="edge"><title>Node1&#45;&gt;Node8</title>
<path fill="none" stroke="midnightblue" d="M156.252,-20.9443C164.859,-20.1014 173.625,-19.2429 182.269,-18.3963"/>
<polygon fill="midnightblue" stroke="midnightblue" points="155.85,-17.467 146.238,-21.9251 156.532,-24.4336 155.85,-17.467"/>
</g>
<!-- Node3 -->
<g id="node3" class="node"><title>Node3</title>
<g id="a_node3"><a xlink:href="../../d1/dc0/appcontype_8h.html#ab3a019a2217375c098345317da123323" target="_top" xlink:title="check if for the given connection data received in a forward_open request a suitable connection is av...">
<polygon fill="none" stroke="black" points="392.5,-38.5 392.5,-57.5 567.5,-57.5 567.5,-38.5 392.5,-38.5"/>
<text text-anchor="middle" x="480" y="-45.5" font-family="Helvetica,sans-Serif" font-size="10.00">GetIoConnectionForConnectionData</text>
</a>
</g>
</g>
<!-- Node2&#45;&gt;Node3 -->
<g id="edge2" class="edge"><title>Node2&#45;&gt;Node3</title>
<path fill="none" stroke="midnightblue" d="M343.497,-48C359.308,-48 376.16,-48 392.416,-48"/>
<polygon fill="midnightblue" stroke="midnightblue" points="343.274,-44.5001 333.274,-48 343.274,-51.5001 343.274,-44.5001"/>
</g>
<!-- Node4 -->
<g id="node4" class="node"><title>Node4</title>
<g id="a_node4"><a xlink:href="../../de/d45/cipioconnection_8h.html#a43e270b3f9b9f6296b12285c320c95aa" target="_top" xlink:title="Setup all data in order to establish an IO connection. ">
<polygon fill="none" stroke="black" points="604.5,-19.5 604.5,-38.5 719.5,-38.5 719.5,-19.5 604.5,-19.5"/>
<text text-anchor="middle" x="662" y="-26.5" font-family="Helvetica,sans-Serif" font-size="10.00">EstablishIoConnection</text>
</a>
</g>
</g>
<!-- Node3&#45;&gt;Node4 -->
<g id="edge3" class="edge"><title>Node3&#45;&gt;Node4</title>
<path fill="none" stroke="midnightblue" d="M577.55,-37.8087C586.727,-36.8399 595.814,-35.8808 604.425,-34.9718"/>
<polygon fill="midnightblue" stroke="midnightblue" points="577.15,-34.3313 567.573,-38.8617 577.885,-41.2926 577.15,-34.3313"/>
</g>
<!-- Node5 -->
<g id="node5" class="node"><title>Node5</title>
<g id="a_node5"><a xlink:href="../../d2/da3/cipconnectionmanager_8h.html#a5ab0de6894d23e8fe84a6b46797c2212" target="_top" xlink:title="Initialize the data of the connection manager object. ">
<polygon fill="none" stroke="black" points="756.5,-19.5 756.5,-38.5 873.5,-38.5 873.5,-19.5 756.5,-19.5"/>
<text text-anchor="middle" x="815" y="-26.5" font-family="Helvetica,sans-Serif" font-size="10.00">ConnectionManagerInit</text>
</a>
</g>
</g>
<!-- Node4&#45;&gt;Node5 -->
<g id="edge4" class="edge"><title>Node4&#45;&gt;Node5</title>
<path fill="none" stroke="midnightblue" d="M729.885,-29C738.684,-29 747.642,-29 756.271,-29"/>
<polygon fill="midnightblue" stroke="midnightblue" points="729.656,-25.5001 719.656,-29 729.656,-32.5001 729.656,-25.5001"/>
</g>
<!-- Node6 -->
<g id="node6" class="node"><title>Node6</title>
<g id="a_node6"><a xlink:href="../../d2/dc9/group__CIP__API.html#ga5d4979945d124e28668b264c3823db1c" target="_top" xlink:title="Initialize and setup the CIP&#45;stack. ">
<polygon fill="none" stroke="black" points="910.5,-19.5 910.5,-38.5 981.5,-38.5 981.5,-19.5 910.5,-19.5"/>
<text text-anchor="middle" x="946" y="-26.5" font-family="Helvetica,sans-Serif" font-size="10.00">CipStackInit</text>
</a>
</g>
</g>
<!-- Node5&#45;&gt;Node6 -->
<g id="edge5" class="edge"><title>Node5&#45;&gt;Node6</title>
<path fill="none" stroke="midnightblue" d="M883.982,-29C893.081,-29 902.087,-29 910.274,-29"/>
<polygon fill="midnightblue" stroke="midnightblue" points="883.709,-25.5001 873.708,-29 883.708,-32.5001 883.709,-25.5001"/>
</g>
<!-- Node7 -->
<g id="node7" class="node"><title>Node7</title>
<g id="a_node7"><a xlink:href="../../d5/dcb/MINGW_2main_8c.html#ad338a7dbc41dc40bcecd0479377ef207" target="_top" xlink:title="main">
<polygon fill="none" stroke="black" points="1018,-19.5 1018,-38.5 1056,-38.5 1056,-19.5 1018,-19.5"/>
<text text-anchor="middle" x="1037" y="-26.5" font-family="Helvetica,sans-Serif" font-size="10.00">main</text>
</a>
</g>
</g>
<!-- Node6&#45;&gt;Node7 -->
<g id="edge6" class="edge"><title>Node6&#45;&gt;Node7</title>
<path fill="none" stroke="midnightblue" d="M991.909,-29C1001.05,-29 1010.16,-29 1017.71,-29"/>
<polygon fill="midnightblue" stroke="midnightblue" points="991.665,-25.5001 981.665,-29 991.665,-32.5001 991.665,-25.5001"/>
</g>
<!-- Node9 -->
<g id="node9" class="node"><title>Node9</title>
<g id="a_node9"><a xlink:href="../../de/d45/cipioconnection_8h.html#a53b85bce88b582414fc282c95f5626f4" target="_top" xlink:title="Take the data given in the connection object structure and open the necessary communication channels...">
<polygon fill="none" stroke="black" points="405.5,-0.5 405.5,-19.5 554.5,-19.5 554.5,-0.5 405.5,-0.5"/>
<text text-anchor="middle" x="480" y="-7.5" font-family="Helvetica,sans-Serif" font-size="10.00">OpenCommunicationChannels</text>
</a>
</g>
</g>
<!-- Node8&#45;&gt;Node9 -->
<g id="edge8" class="edge"><title>Node8&#45;&gt;Node9</title>
<path fill="none" stroke="midnightblue" d="M365.707,-10C378.975,-10 392.434,-10 405.22,-10"/>
<polygon fill="midnightblue" stroke="midnightblue" points="365.611,-6.5001 355.611,-10 365.611,-13.5001 365.611,-6.5001"/>
</g>
<!-- Node9&#45;&gt;Node4 -->
<g id="edge9" class="edge"><title>Node9&#45;&gt;Node4</title>
<path fill="none" stroke="midnightblue" d="M564.924,-18.8586C578.323,-20.273 591.903,-21.7065 604.468,-23.0328"/>
<polygon fill="midnightblue" stroke="midnightblue" points="565.044,-15.352 554.732,-17.7828 564.31,-22.3133 565.044,-15.352"/>
</g>
</g>
</svg>
