<?xml version="1.0" encoding="UTF-8" standalone="no"?>
<!DOCTYPE svg PUBLIC "-//W3C//DTD SVG 1.1//EN"
 "http://www.w3.org/Graphics/SVG/1.1/DTD/svg11.dtd">
<!-- Generated by graphviz version 2.38.0 (20140413.2041)
 -->
<!-- Title: getIOConnectionForConnectionData Pages: 1 -->
<svg width="656pt" height="28pt"
 viewBox="0.00 0.00 656.00 28.00" xmlns="http://www.w3.org/2000/svg" xmlns:xlink="http://www.w3.org/1999/xlink">
<g id="graph0" class="graph" transform="scale(1 1) rotate(0) translate(4 24)">
<title>getIOConnectionForConnectionData</title>
<!-- Node1 -->
<g id="node1" class="node"><title>Node1</title>
<polygon fill="#bfbfbf" stroke="black" points="0,-0.5 0,-19.5 175,-19.5 175,-0.5 0,-0.5"/>
<text text-anchor="middle" x="87.5" y="-7.5" font-family="Helvetica,sans-Serif" font-size="10.00">getIOConnectionForConnectionData</text>
</g>
<!-- Node2 -->
<g id="node2" class="node"><title>Node2</title>
<g id="a_node2"><a xlink:href="../../de/d45/cipioconnection_8h.html#ae83037a608b08d325fc34869395f37a3" target="_top" xlink:title="Setup all data in order to establish an IO connection. ">
<polygon fill="none" stroke="black" points="211,-0.5 211,-19.5 321,-19.5 321,-0.5 211,-0.5"/>
<text text-anchor="middle" x="266" y="-7.5" font-family="Helvetica,sans-Serif" font-size="10.00">establishIOConnction</text>
</a>
</g>
</g>
<!-- Node1&#45;&gt;Node2 -->
<g id="edge1" class="edge"><title>Node1&#45;&gt;Node2</title>
<path fill="none" stroke="midnightblue" d="M185.201,-10C194.033,-10 202.752,-10 210.999,-10"/>
<polygon fill="midnightblue" stroke="midnightblue" points="185.199,-6.5001 175.199,-10 185.199,-13.5001 185.199,-6.5001"/>
</g>
<!-- Node3 -->
<g id="node3" class="node"><title>Node3</title>
<g id="a_node3"><a xlink:href="../../d2/da3/cipconnectionmanager_8h.html#abbdafd9e83df08856ba6de13890cf40f" target="_top" xlink:title="Connection_Manager_Init">
<polygon fill="none" stroke="black" points="357,-0.5 357,-19.5 485,-19.5 485,-0.5 357,-0.5"/>
<text text-anchor="middle" x="421" y="-7.5" font-family="Helvetica,sans-Serif" font-size="10.00">Connection_Manager_Init</text>
</a>
</g>
</g>
<!-- Node2&#45;&gt;Node3 -->
<g id="edge2" class="edge"><title>Node2&#45;&gt;Node3</title>
<path fill="none" stroke="midnightblue" d="M331.509,-10C339.922,-10 348.534,-10 356.924,-10"/>
<polygon fill="midnightblue" stroke="midnightblue" points="331.373,-6.5001 321.373,-10 331.373,-13.5001 331.373,-6.5001"/>
</g>
<!-- Node4 -->
<g id="node4" class="node"><title>Node4</title>
<g id="a_node4"><a xlink:href="../../d2/dc9/group__CIP__API.html#ga8fe857c3e88bf986fda82fbac6702c9f" target="_top" xlink:title="Initialize and setup the CIP&#45;stack. ">
<polygon fill="none" stroke="black" points="521,-0.5 521,-19.5 574,-19.5 574,-0.5 521,-0.5"/>
<text text-anchor="middle" x="547.5" y="-7.5" font-family="Helvetica,sans-Serif" font-size="10.00">CIP_Init</text>
</a>
</g>
</g>
<!-- Node3&#45;&gt;Node4 -->
<g id="edge3" class="edge"><title>Node3&#45;&gt;Node4</title>
<path fill="none" stroke="midnightblue" d="M495.345,-10C504.478,-10 513.282,-10 520.936,-10"/>
<polygon fill="midnightblue" stroke="midnightblue" points="495.344,-6.5001 485.344,-10 495.344,-13.5001 495.344,-6.5001"/>
</g>
<!-- Node5 -->
<g id="node5" class="node"><title>Node5</title>
<g id="a_node5"><a xlink:href="../../d0/d17/LM3S8962_2sample__application_2main_8c.html#a840291bc02cba5474a4cb46a9b9566fe" target="_top" xlink:title="main">
<polygon fill="none" stroke="black" points="610,-0.5 610,-19.5 648,-19.5 648,-0.5 610,-0.5"/>
<text text-anchor="middle" x="629" y="-7.5" font-family="Helvetica,sans-Serif" font-size="10.00">main</text>
</a>
</g>
</g>
<!-- Node4&#45;&gt;Node5 -->
<g id="edge4" class="edge"><title>Node4&#45;&gt;Node5</title>
<path fill="none" stroke="midnightblue" d="M584.231,-10C593.063,-10 602.162,-10 609.761,-10"/>
<polygon fill="midnightblue" stroke="midnightblue" points="584.092,-6.5001 574.092,-10 584.092,-13.5001 584.092,-6.5001"/>
</g>
</g>
</svg>
