<?xml version="1.0" encoding="UTF-8" standalone="no"?>
<!DOCTYPE svg PUBLIC "-//W3C//DTD SVG 1.1//EN"
 "http://www.w3.org/Graphics/SVG/1.1/DTD/svg11.dtd">
<!-- Generated by graphviz version 2.26.3 (20100126.1600)
 -->
<!-- Title: G Pages: 1 -->
<svg width="362pt" height="110pt"
 viewBox="0.00 0.00 362.00 110.00" xmlns="http://www.w3.org/2000/svg" xmlns:xlink="http://www.w3.org/1999/xlink">
<g id="graph1" class="graph" transform="scale(1 1) rotate(0) translate(4 106)">
<title>G</title>
<!-- Node1 -->
<g id="node1" class="node"><title>Node1</title>
<polygon fill="#bfbfbf" stroke="black" points="0,-40.5 0,-61.5 206,-61.5 206,-40.5 0,-40.5"/>
<text text-anchor="middle" x="103" y="-48.5" font-family="Helvetica,sans-Serif" font-size="10.00">HandleReceivedRegisterSessionCommand</text>
</g>
<!-- Node2 -->
<g id="node3" class="node"><title>Node2</title>
<a xlink:href="../../d4/d91/group__ENCAP.html#gaafc3c9e3ff582c9b7e438ae2b1fdf822" target="_top" xlink:title="Converts UINT32 data from host to little endian and writes it to buffer.">
<polygon fill="none" stroke="black" points="246.5,-80.5 246.5,-101.5 349.5,-101.5 349.5,-80.5 246.5,-80.5"/>
<text text-anchor="middle" x="298" y="-88.5" font-family="Helvetica,sans-Serif" font-size="10.00">AddDintToMessage</text>
</a>
</g>
<!-- Node1&#45;&gt;Node2 -->
<g id="edge2" class="edge"><title>Node1&#45;&gt;Node2</title>
<path fill="none" stroke="midnightblue" d="M154.234,-61.5095C179.549,-66.7023 210.281,-73.0064 236.823,-78.4508"/>
<polygon fill="midnightblue" stroke="midnightblue" points="236.271,-81.9104 246.77,-80.4913 237.677,-75.0532 236.271,-81.9104"/>
</g>
<!-- Node3 -->
<g id="node5" class="node"><title>Node3</title>
<a xlink:href="../../d2/dbd/encap_8c.html#ad674cdd0452f59d824a0bebbf678cb6d" target="_top" xlink:title="search for available sessions an return index.">
<polygon fill="none" stroke="black" points="242.5,-40.5 242.5,-61.5 353.5,-61.5 353.5,-40.5 242.5,-40.5"/>
<text text-anchor="middle" x="298" y="-48.5" font-family="Helvetica,sans-Serif" font-size="10.00">GetFreeSessionIndex</text>
</a>
</g>
<!-- Node1&#45;&gt;Node3 -->
<g id="edge4" class="edge"><title>Node1&#45;&gt;Node3</title>
<path fill="none" stroke="midnightblue" d="M206.21,-51C215.043,-51 223.813,-51 232.229,-51"/>
<polygon fill="midnightblue" stroke="midnightblue" points="232.3,-54.5001 242.3,-51 232.3,-47.5001 232.3,-54.5001"/>
</g>
<!-- Node4 -->
<g id="node7" class="node"><title>Node4</title>
<a xlink:href="../../d4/d91/group__ENCAP.html#ga70322f970709ca9c9a1a1d474cfe2302" target="_top" xlink:title="Reads EIP_UINT16 from *buffer and converts little endian to host.">
<polygon fill="none" stroke="black" points="245,-0.5 245,-21.5 351,-21.5 351,-0.5 245,-0.5"/>
<text text-anchor="middle" x="298" y="-8.5" font-family="Helvetica,sans-Serif" font-size="10.00">GetIntFromMessage</text>
</a>
</g>
<!-- Node1&#45;&gt;Node4 -->
<g id="edge6" class="edge"><title>Node1&#45;&gt;Node4</title>
<path fill="none" stroke="midnightblue" d="M154.234,-40.4905C179.549,-35.2977 210.281,-28.9936 236.823,-23.5492"/>
<polygon fill="midnightblue" stroke="midnightblue" points="237.677,-26.9468 246.77,-21.5087 236.271,-20.0896 237.677,-26.9468"/>
</g>
</g>
</svg>
