<?xml version="1.0" encoding="UTF-8" standalone="no"?>
<!DOCTYPE svg PUBLIC "-//W3C//DTD SVG 1.1//EN"
 "http://www.w3.org/Graphics/SVG/1.1/DTD/svg11.dtd">
<!-- Generated by graphviz version 2.36.0 (20140111.2315)
 -->
<!-- Title: HandleReceivedListIdentityCommandTcp Pages: 1 -->
<!--zoomable 126 -->
<svg id="main" version="1.1" xmlns="http://www.w3.org/2000/svg" xmlns:xlink="http://www.w3.org/1999/xlink" xml:space="preserve" onload="init(evt)">
<style type="text/css"><![CDATA[
.edge:hover path { stroke: red; }
.edge:hover polygon { stroke: red; fill: red; }
]]></style>
<script type="text/javascript"><![CDATA[
var edges = document.getElementsByTagName('g');
if (edges && edges.length) {
  for (var i=0;i<edges.length;i++) {
    if (edges[i].id.substr(0,4)=='edge') {
      edges[i].setAttribute('class','edge');
    }
  }
}
]]></script>
        <defs>
                <circle id="rim" cx="0" cy="0" r="7"/>
                <circle id="rim2" cx="0" cy="0" r="3.5"/>
                <g id="zoomPlus">
                        <use xlink:href="#rim" fill="#404040">
                                <set attributeName="fill" to="#808080" begin="zoomplus.mouseover" end="zoomplus.mouseout"/>
                        </use>
                        <path d="M-4,0h8M0,-4v8" fill="none" stroke="white" stroke-width="1.5" pointer-events="none"/>
                </g>
                <g id="zoomMin">
                        <use xlink:href="#rim" fill="#404040">
                                <set attributeName="fill" to="#808080" begin="zoomminus.mouseover" end="zoomminus.mouseout"/>
                        </use>
                        <path d="M-4,0h8" fill="none" stroke="white" stroke-width="1.5" pointer-events="none"/>
                </g>
                <g id="dirArrow">
                        <path fill="none" stroke="white" stroke-width="1.5" d="M0,-3.0v7 M-2.5,-0.5L0,-3.0L2.5,-0.5"/>
                </g>
               <g id="resetDef">
                       <use xlink:href="#rim2" fill="#404040">
                               <set attributeName="fill" to="#808080" begin="reset.mouseover" end="reset.mouseout"/>
                       </use>
               </g>
        </defs>

<script type="text/javascript">
var viewWidth = 816;
var viewHeight = 126;
var sectionId = 'dynsection-23';
</script>
<script xlink:href="../../svgpan.js"/>
<svg id="graph" class="graph">
<g id="viewport">
<title>HandleReceivedListIdentityCommandTcp</title>
<!-- Node1 -->
<g id="node1" class="node"><title>Node1</title>
<polygon fill="#bfbfbf" stroke="black" points="0.5,-69 0.5,-99 137.5,-99 137.5,-69 0.5,-69"/>
<text text-anchor="start" x="8.5" y="-87" font-family="Helvetica,sans-Serif" font-size="10.00">HandleReceivedListIdentity</text>
<text text-anchor="middle" x="69" y="-76" font-family="Helvetica,sans-Serif" font-size="10.00">CommandTcp</text>
</g>
<!-- Node2 -->
<g id="node2" class="node"><title>Node2</title>
<g id="a_node2"><a xlink:href="../../d2/dc9/group__CIP__API.html#ga7f1c28a4eb68c1d335df52494b7e5b76" target="_top" xlink:title="Notify the encapsulation layer that an explicit message has been received via TCP. ">
<polygon fill="none" stroke="black" points="175,-95.5 175,-114.5 331,-114.5 331,-95.5 175,-95.5"/>
<text text-anchor="middle" x="253" y="-102.5" font-family="Helvetica,sans-Serif" font-size="10.00">HandleReceivedExplictTcpData</text>
</a>
</g>
</g>
<!-- Node1&#45;&gt;Node2 -->
<g id="edge1" class="edge"><title>Node1&#45;&gt;Node2</title>
<path fill="none" stroke="midnightblue" d="M147.585,-92.9521C156.591,-93.9913 165.777,-95.0512 174.779,-96.0898"/>
<polygon fill="midnightblue" stroke="midnightblue" points="147.847,-89.4592 137.511,-91.7898 147.044,-96.413 147.847,-89.4592"/>
</g>
<!-- Node6 -->
<g id="node6" class="node"><title>Node6</title>
<g id="a_node6"><a xlink:href="../../d2/dc9/group__CIP__API.html#gac5312e5f4e31fd09aca4c54487128b48" target="_top" xlink:title="Notify the encapsulation layer that an explicit message has been received via UDP. ">
<polygon fill="none" stroke="black" points="174,-54.5 174,-73.5 332,-73.5 332,-54.5 174,-54.5"/>
<text text-anchor="middle" x="253" y="-61.5" font-family="Helvetica,sans-Serif" font-size="10.00">HandleReceivedExplictUdpData</text>
</a>
</g>
</g>
<!-- Node1&#45;&gt;Node6 -->
<g id="edge5" class="edge"><title>Node1&#45;&gt;Node6</title>
<path fill="none" stroke="midnightblue" d="M147.614,-75.471C156.301,-74.5164 165.155,-73.5434 173.849,-72.5881"/>
<polygon fill="midnightblue" stroke="midnightblue" points="147.069,-72.0097 137.511,-76.5812 147.834,-78.9678 147.069,-72.0097"/>
</g>
<!-- Node3 -->
<g id="node3" class="node"><title>Node3</title>
<g id="a_node3"><a xlink:href="../../db/d4f/generic__networkhandler_8c.html#aca5593b7dd39d7a7b437999a367102d6" target="_top" xlink:title="Handles data on an established TCP connection, processed connection is given by socket. ">
<polygon fill="none" stroke="black" points="396,-98.5 396,-117.5 524,-117.5 524,-98.5 396,-98.5"/>
<text text-anchor="middle" x="460" y="-105.5" font-family="Helvetica,sans-Serif" font-size="10.00">HandleDataOnTcpSocket</text>
</a>
</g>
</g>
<!-- Node2&#45;&gt;Node3 -->
<g id="edge2" class="edge"><title>Node2&#45;&gt;Node3</title>
<path fill="none" stroke="midnightblue" d="M341.311,-106.278C359.643,-106.546 378.638,-106.824 395.88,-107.076"/>
<polygon fill="midnightblue" stroke="midnightblue" points="341.26,-102.777 331.21,-106.13 341.157,-109.776 341.26,-102.777"/>
</g>
<!-- Node4 -->
<g id="node4" class="node"><title>Node4</title>
<g id="a_node4"><a xlink:href="../../da/dc2/generic__networkhandler_8h.html#a2f01af81d3e5018d9980e2bc28c9078a" target="_top" xlink:title="NetworkHandlerProcessOnce">
<polygon fill="none" stroke="black" points="588,-54.5 588,-73.5 734,-73.5 734,-54.5 588,-54.5"/>
<text text-anchor="middle" x="661" y="-61.5" font-family="Helvetica,sans-Serif" font-size="10.00">NetworkHandlerProcessOnce</text>
</a>
</g>
</g>
<!-- Node3&#45;&gt;Node4 -->
<g id="edge3" class="edge"><title>Node3&#45;&gt;Node4</title>
<path fill="none" stroke="midnightblue" d="M514.627,-96.2356C526.908,-93.5353 539.907,-90.6725 552,-88 573.474,-83.2542 597.344,-77.9525 617.171,-73.5416"/>
<polygon fill="midnightblue" stroke="midnightblue" points="513.53,-92.893 504.515,-98.4579 515.033,-99.7298 513.53,-92.893"/>
</g>
<!-- Node5 -->
<g id="node5" class="node"><title>Node5</title>
<g id="a_node5"><a xlink:href="../../d9/dfb/POSIX_2main_8c.html#ad338a7dbc41dc40bcecd0479377ef207" target="_top" xlink:title="main">
<polygon fill="none" stroke="black" points="770,-54.5 770,-73.5 808,-73.5 808,-54.5 770,-54.5"/>
<text text-anchor="middle" x="789" y="-61.5" font-family="Helvetica,sans-Serif" font-size="10.00">main</text>
</a>
</g>
</g>
<!-- Node4&#45;&gt;Node5 -->
<g id="edge4" class="edge"><title>Node4&#45;&gt;Node5</title>
<path fill="none" stroke="midnightblue" d="M744.255,-64C753.721,-64 762.546,-64 769.754,-64"/>
<polygon fill="midnightblue" stroke="midnightblue" points="744.199,-60.5001 734.199,-64 744.199,-67.5001 744.199,-60.5001"/>
</g>
<!-- Node7 -->
<g id="node7" class="node"><title>Node7</title>
<g id="a_node7"><a xlink:href="../../db/d4f/generic__networkhandler_8c.html#a5cae623dd720f3072dabdb78aa134262" target="_top" xlink:title="Checks and handles incoming messages via UDP broadcast. ">
<polygon fill="none" stroke="black" points="368.5,-49 368.5,-79 551.5,-79 551.5,-49 368.5,-49"/>
<text text-anchor="start" x="376.5" y="-67" font-family="Helvetica,sans-Serif" font-size="10.00">CheckAndHandleUdpGlobalBroadcast</text>
<text text-anchor="middle" x="460" y="-56" font-family="Helvetica,sans-Serif" font-size="10.00">Socket</text>
</a>
</g>
</g>
<!-- Node6&#45;&gt;Node7 -->
<g id="edge6" class="edge"><title>Node6&#45;&gt;Node7</title>
<path fill="none" stroke="midnightblue" d="M342.206,-64C350.894,-64 359.721,-64 368.432,-64"/>
<polygon fill="midnightblue" stroke="midnightblue" points="342.087,-60.5001 332.087,-64 342.086,-67.5001 342.087,-60.5001"/>
</g>
<!-- Node8 -->
<g id="node8" class="node"><title>Node8</title>
<g id="a_node8"><a xlink:href="../../db/d4f/generic__networkhandler_8c.html#ace1d8f3907ead0c43c1b5853132d5eb1" target="_top" xlink:title="Checks and processes request received via the UDP unicast socket, currently the implementation is por...">
<polygon fill="none" stroke="black" points="387.5,-0 387.5,-30 532.5,-30 532.5,-0 387.5,-0"/>
<text text-anchor="start" x="395.5" y="-18" font-family="Helvetica,sans-Serif" font-size="10.00">CheckAndHandleUdpUnicast</text>
<text text-anchor="middle" x="460" y="-7" font-family="Helvetica,sans-Serif" font-size="10.00">Socket</text>
</a>
</g>
</g>
<!-- Node6&#45;&gt;Node8 -->
<g id="edge8" class="edge"><title>Node6&#45;&gt;Node8</title>
<path fill="none" stroke="midnightblue" d="M303.898,-52.0732C331.657,-45.438 366.478,-37.1149 396.09,-30.037"/>
<polygon fill="midnightblue" stroke="midnightblue" points="302.925,-48.707 294.013,-54.436 304.552,-55.5153 302.925,-48.707"/>
</g>
<!-- Node7&#45;&gt;Node4 -->
<g id="edge7" class="edge"><title>Node7&#45;&gt;Node4</title>
<path fill="none" stroke="midnightblue" d="M561.996,-64C570.719,-64 579.427,-64 587.851,-64"/>
<polygon fill="midnightblue" stroke="midnightblue" points="561.765,-60.5001 551.765,-64 561.765,-67.5001 561.765,-60.5001"/>
</g>
<!-- Node8&#45;&gt;Node4 -->
<g id="edge9" class="edge"><title>Node8&#45;&gt;Node4</title>
<path fill="none" stroke="midnightblue" d="M532.091,-32.5048C562.151,-39.9065 595.987,-48.238 621.305,-54.472"/>
<polygon fill="midnightblue" stroke="midnightblue" points="532.606,-29.0271 522.059,-30.0346 530.932,-35.8241 532.606,-29.0271"/>
</g>
</g>
</svg>
        <g id="navigator" transform="translate(0 0)" fill="#404254">
                <rect fill="#f2f5e9" fill-opacity="0.5" stroke="#606060" stroke-width=".5" x="0" y="0" width="60" height="60"/>
                <use id="zoomplus" xlink:href="#zoomPlus" x="17" y="9" onmousedown="handleZoom(evt,'in')"/>
                <use id="zoomminus" xlink:href="#zoomMin" x="42" y="9" onmousedown="handleZoom(evt,'out')"/>
                <use id="reset" xlink:href="#resetDef" x="30" y="36" onmousedown="handleReset()"/>
                <g id="arrowUp" xlink:href="#dirArrow" transform="translate(30 24)" onmousedown="handlePan(0,-1)">
                  <use xlink:href="#rim" fill="#404040">
                        <set attributeName="fill" to="#808080" begin="arrowUp.mouseover" end="arrowUp.mouseout"/>
                  </use>
                  <path fill="none" stroke="white" stroke-width="1.5" d="M0,-3.0v7 M-2.5,-0.5L0,-3.0L2.5,-0.5"/>
                </g>
                <g id="arrowRight" xlink:href="#dirArrow" transform="rotate(90) translate(36 -43)" onmousedown="handlePan(1,0)">
                  <use xlink:href="#rim" fill="#404040">
                        <set attributeName="fill" to="#808080" begin="arrowRight.mouseover" end="arrowRight.mouseout"/>
                  </use>
                  <path fill="none" stroke="white" stroke-width="1.5" d="M0,-3.0v7 M-2.5,-0.5L0,-3.0L2.5,-0.5"/>
                </g>
                <g id="arrowDown" xlink:href="#dirArrow" transform="rotate(180) translate(-30 -48)" onmousedown="handlePan(0,1)">
                  <use xlink:href="#rim" fill="#404040">
                        <set attributeName="fill" to="#808080" begin="arrowDown.mouseover" end="arrowDown.mouseout"/>
                  </use>
                  <path fill="none" stroke="white" stroke-width="1.5" d="M0,-3.0v7 M-2.5,-0.5L0,-3.0L2.5,-0.5"/>
                </g>
                <g id="arrowLeft" xlink:href="#dirArrow" transform="rotate(270) translate(-36 17)" onmousedown="handlePan(-1,0)">
                  <use xlink:href="#rim" fill="#404040">
                        <set attributeName="fill" to="#808080" begin="arrowLeft.mouseover" end="arrowLeft.mouseout"/>
                  </use>
                  <path fill="none" stroke="white" stroke-width="1.5" d="M0,-3.0v7 M-2.5,-0.5L0,-3.0L2.5,-0.5"/>
                </g>
        </g>
        <svg viewBox="0 0 15 15" width="100%" height="30px" preserveAspectRatio="xMaxYMin meet">
         <g id="arrow_out" transform="scale(0.3 0.3)">
          <a xlink:href="encap_8c_ae4d21e6254396c9cb1b5716b054e57de_icgraph_org.svg" target="_base">
           <rect id="button" ry="5" rx="5" y="6" x="6" height="38" width="38"
                fill="#f2f5e9" fill-opacity="0.5" stroke="#606060" stroke-width="1.0"/>
           <path id="arrow"
             d="M 11.500037,31.436501 C 11.940474,20.09759 22.043105,11.32322 32.158766,21.979434 L 37.068811,17.246167 C 37.068811,17.246167 37.088388,32 37.088388,32 L 22.160133,31.978069 C 22.160133,31.978069 26.997745,27.140456 26.997745,27.140456 C 18.528582,18.264221 13.291696,25.230495 11.500037,31.436501 z"
             style="fill:#404040;"/>
          </a>
         </g>
        </svg>
</svg>
