<?xml version="1.0" encoding="UTF-8" standalone="no"?>
<!DOCTYPE svg PUBLIC "-//W3C//DTD SVG 1.1//EN"
 "http://www.w3.org/Graphics/SVG/1.1/DTD/svg11.dtd">
<!-- Generated by graphviz version 2.36.0 (20140111.2315)
 -->
<!-- Title: HandleReceivedRegisterSessionCommand Pages: 1 -->
<svg width="524pt" height="230pt"
 viewBox="0.00 0.00 524.00 230.00" xmlns="http://www.w3.org/2000/svg" xmlns:xlink="http://www.w3.org/1999/xlink">
<g id="graph0" class="graph" transform="scale(1 1) rotate(0) translate(4 226)">
<title>HandleReceivedRegisterSessionCommand</title>
<!-- Node1 -->
<g id="node1" class="node"><title>Node1</title>
<polygon fill="#bfbfbf" stroke="black" points="0.5,-99 0.5,-129 161.5,-129 161.5,-99 0.5,-99"/>
<text text-anchor="start" x="8.5" y="-117" font-family="Helvetica,sans-Serif" font-size="10.00">HandleReceivedRegisterSession</text>
<text text-anchor="middle" x="81" y="-106" font-family="Helvetica,sans-Serif" font-size="10.00">Command</text>
</g>
<!-- Node2 -->
<g id="node2" class="node"><title>Node2</title>
<g id="a_node2"><a xlink:href="../../d4/d91/group__ENCAP.html#gaafc3c9e3ff582c9b7e438ae2b1fdf822" target="_top" xlink:title="Converts UINT32 data from host to little endian and writes it to buffer. ">
<polygon fill="none" stroke="black" points="216.5,-202.5 216.5,-221.5 319.5,-221.5 319.5,-202.5 216.5,-202.5"/>
<text text-anchor="middle" x="268" y="-209.5" font-family="Helvetica,sans-Serif" font-size="10.00">AddDintToMessage</text>
</a>
</g>
</g>
<!-- Node1&#45;&gt;Node2 -->
<g id="edge1" class="edge"><title>Node1&#45;&gt;Node2</title>
<path fill="none" stroke="midnightblue" d="M100.137,-129.18C122.045,-146.82 160.627,-175.711 198,-193 203.075,-195.348 208.497,-197.457 213.989,-199.339"/>
<polygon fill="midnightblue" stroke="midnightblue" points="213.297,-202.792 223.887,-202.485 215.417,-196.12 213.297,-202.792"/>
</g>
<!-- Node3 -->
<g id="node3" class="node"><title>Node3</title>
<g id="a_node3"><a xlink:href="../../d2/dbd/encap_8c.html#ad674cdd0452f59d824a0bebbf678cb6d" target="_top" xlink:title="search for available sessions an return index. ">
<polygon fill="none" stroke="black" points="212.5,-164.5 212.5,-183.5 323.5,-183.5 323.5,-164.5 212.5,-164.5"/>
<text text-anchor="middle" x="268" y="-171.5" font-family="Helvetica,sans-Serif" font-size="10.00">GetFreeSessionIndex</text>
</a>
</g>
</g>
<!-- Node1&#45;&gt;Node3 -->
<g id="edge2" class="edge"><title>Node1&#45;&gt;Node3</title>
<path fill="none" stroke="midnightblue" d="M122.295,-129.035C144.499,-137.119 172.628,-147.034 198,-155 205.253,-157.277 212.981,-159.552 220.543,-161.694"/>
<polygon fill="midnightblue" stroke="midnightblue" points="219.76,-165.109 230.333,-164.424 221.64,-158.366 219.76,-165.109"/>
</g>
<!-- Node4 -->
<g id="node4" class="node"><title>Node4</title>
<g id="a_node4"><a xlink:href="../../d4/d91/group__ENCAP.html#ga70322f970709ca9c9a1a1d474cfe2302" target="_top" xlink:title="Reads EIP_UINT16 from *buffer and converts little endian to host. ">
<polygon fill="none" stroke="black" points="215,-126.5 215,-145.5 321,-145.5 321,-126.5 215,-126.5"/>
<text text-anchor="middle" x="268" y="-133.5" font-family="Helvetica,sans-Serif" font-size="10.00">GetIntFromMessage</text>
</a>
</g>
</g>
<!-- Node1&#45;&gt;Node4 -->
<g id="edge3" class="edge"><title>Node1&#45;&gt;Node4</title>
<path fill="none" stroke="midnightblue" d="M161.53,-123.458C175.89,-125.165 190.674,-126.923 204.463,-128.563"/>
<polygon fill="midnightblue" stroke="midnightblue" points="204.447,-132.086 214.79,-129.791 205.273,-125.135 204.447,-132.086"/>
</g>
<!-- Node5 -->
<g id="node5" class="node"><title>Node5</title>
<g id="a_node5"><a xlink:href="../../d4/df6/socket__timer_8c.html#a28bbdc758808db0e7f034aff98e5f6b3" target="_top" xlink:title="Get an empty Socket Timer entry. ">
<polygon fill="none" stroke="black" points="198,-77 198,-107 338,-107 338,-77 198,-77"/>
<text text-anchor="start" x="206" y="-95" font-family="Helvetica,sans-Serif" font-size="10.00">SocketTimerArrayGetEmpty</text>
<text text-anchor="middle" x="268" y="-84" font-family="Helvetica,sans-Serif" font-size="10.00">SocketTimer</text>
</a>
</g>
</g>
<!-- Node1&#45;&gt;Node5 -->
<g id="edge4" class="edge"><title>Node1&#45;&gt;Node5</title>
<path fill="none" stroke="midnightblue" d="M161.53,-104.542C170.188,-103.513 179.001,-102.465 187.656,-101.435"/>
<polygon fill="midnightblue" stroke="midnightblue" points="188.21,-104.894 197.726,-100.238 187.383,-97.9434 188.21,-104.894"/>
</g>
<!-- Node7 -->
<g id="node7" class="node"><title>Node7</title>
<g id="a_node7"><a xlink:href="../../d4/df6/socket__timer_8c.html#a92cb7cb882fa94beed065d6af1b4d8b7" target="_top" xlink:title="Sets time stamp entry of the Socket Timer. ">
<polygon fill="none" stroke="black" points="199.5,-38.5 199.5,-57.5 336.5,-57.5 336.5,-38.5 199.5,-38.5"/>
<text text-anchor="middle" x="268" y="-45.5" font-family="Helvetica,sans-Serif" font-size="10.00">SocketTimerSetLastUpdate</text>
</a>
</g>
</g>
<!-- Node1&#45;&gt;Node7 -->
<g id="edge6" class="edge"><title>Node1&#45;&gt;Node7</title>
<path fill="none" stroke="midnightblue" d="M117.467,-98.9162C140.267,-89.4743 170.637,-77.3673 198,-68 205.718,-65.3579 213.996,-62.7604 222.045,-60.3571"/>
<polygon fill="midnightblue" stroke="midnightblue" points="223.081,-63.7006 231.695,-57.532 221.114,-56.9826 223.081,-63.7006"/>
</g>
<!-- Node8 -->
<g id="node8" class="node"><title>Node8</title>
<g id="a_node8"><a xlink:href="../../d4/df6/socket__timer_8c.html#a88d96d405101437cf645ee382e9d744b" target="_top" xlink:title="Sets socket of a Socket Timer. ">
<polygon fill="none" stroke="black" points="209,-0.5 209,-19.5 327,-19.5 327,-0.5 209,-0.5"/>
<text text-anchor="middle" x="268" y="-7.5" font-family="Helvetica,sans-Serif" font-size="10.00">SocketTimerSetSocket</text>
</a>
</g>
</g>
<!-- Node1&#45;&gt;Node8 -->
<g id="edge7" class="edge"><title>Node1&#45;&gt;Node8</title>
<path fill="none" stroke="midnightblue" d="M98.4124,-98.92C119.812,-80.0138 159.117,-47.8083 198,-29 202.894,-26.6329 208.13,-24.52 213.448,-22.6434"/>
<polygon fill="midnightblue" stroke="midnightblue" points="214.629,-25.9399 223.055,-19.5172 212.463,-19.2835 214.629,-25.9399"/>
</g>
<!-- Node6 -->
<g id="node6" class="node"><title>Node6</title>
<g id="a_node6"><a xlink:href="../../d4/df6/socket__timer_8c.html#abe7542fdec4d4e4893a8c712192529ca" target="_top" xlink:title="Get the Socket Timer entry with the spezified socket value. ">
<polygon fill="none" stroke="black" points="374,-77 374,-107 516,-107 516,-77 374,-77"/>
<text text-anchor="start" x="382" y="-95" font-family="Helvetica,sans-Serif" font-size="10.00">SocketTimerArrayGetSocket</text>
<text text-anchor="middle" x="445" y="-84" font-family="Helvetica,sans-Serif" font-size="10.00">Timer</text>
</a>
</g>
</g>
<!-- Node5&#45;&gt;Node6 -->
<g id="edge5" class="edge"><title>Node5&#45;&gt;Node6</title>
<path fill="none" stroke="midnightblue" d="M338.165,-92C346.611,-92 355.296,-92 363.885,-92"/>
<polygon fill="midnightblue" stroke="midnightblue" points="363.904,-95.5001 373.904,-92 363.904,-88.5001 363.904,-95.5001"/>
</g>
</g>
</svg>
