<?xml version="1.0" encoding="UTF-8" standalone="no"?>
<!DOCTYPE svg PUBLIC "-//W3C//DTD SVG 1.1//EN"
 "http://www.w3.org/Graphics/SVG/1.1/DTD/svg11.dtd">
<!-- Generated by graphviz version 2.38.0 (20140413.2041)
 -->
<!-- Title: encapsulateListIdentyResponseMessage Pages: 1 -->
<!--zoomable 155 -->
<svg id="main" version="1.1" xmlns="http://www.w3.org/2000/svg" xmlns:xlink="http://www.w3.org/1999/xlink" xml:space="preserve" onload="init(evt)">
<style type="text/css"><![CDATA[
.edge:hover path { stroke: red; }
.edge:hover polygon { stroke: red; fill: red; }
]]></style>
<script type="text/javascript"><![CDATA[
var edges = document.getElementsByTagName('g');
if (edges && edges.length) {
  for (var i=0;i<edges.length;i++) {
    if (edges[i].id.substr(0,4)=='edge') {
      edges[i].setAttribute('class','edge');
    }
  }
}
]]></script>
        <defs>
                <circle id="rim" cx="0" cy="0" r="7"/>
                <circle id="rim2" cx="0" cy="0" r="3.5"/>
                <g id="zoomPlus">
                        <use xlink:href="#rim" fill="#404040">
                                <set attributeName="fill" to="#808080" begin="zoomplus.mouseover" end="zoomplus.mouseout"/>
                        </use>
                        <path d="M-4,0h8M0,-4v8" fill="none" stroke="white" stroke-width="1.5" pointer-events="none"/>
                </g>
                <g id="zoomMin">
                        <use xlink:href="#rim" fill="#404040">
                                <set attributeName="fill" to="#808080" begin="zoomminus.mouseover" end="zoomminus.mouseout"/>
                        </use>
                        <path d="M-4,0h8" fill="none" stroke="white" stroke-width="1.5" pointer-events="none"/>
                </g>
                <g id="dirArrow">
                        <path fill="none" stroke="white" stroke-width="1.5" d="M0,-3.0v7 M-2.5,-0.5L0,-3.0L2.5,-0.5"/>
                </g>
               <g id="resetDef">
                       <use xlink:href="#rim2" fill="#404040">
                               <set attributeName="fill" to="#808080" begin="reset.mouseover" end="reset.mouseout"/>
                       </use>
               </g>
        </defs>

<script type="text/javascript">
var viewWidth = 1135;
var viewHeight = 155;
var sectionId = 'dynsection-9';
</script>
<script xlink:href="../../svgpan.js"/>
<svg id="graph" class="graph">
<g id="viewport">
<title>encapsulateListIdentyResponseMessage</title>
<!-- Node1 -->
<g id="node1" class="node"><title>Node1</title>
<polygon fill="#bfbfbf" stroke="black" points="0,-54 0,-84 156,-84 156,-54 0,-54"/>
<text text-anchor="start" x="8" y="-72" font-family="Helvetica,sans-Serif" font-size="10.00">encapsulateListIdentyResponse</text>
<text text-anchor="middle" x="78" y="-61" font-family="Helvetica,sans-Serif" font-size="10.00">Message</text>
</g>
<!-- Node2 -->
<g id="node2" class="node"><title>Node2</title>
<g id="a_node2"><a xlink:href="../../d2/dbd/encap_8c.html#aa0c1743405c3991d57da22b83b6394e0" target="_top" xlink:title="handleReceivedListIdentity\lCmdTCP">
<polygon fill="none" stroke="black" points="192,-30 192,-60 326,-60 326,-30 192,-30"/>
<text text-anchor="start" x="200" y="-48" font-family="Helvetica,sans-Serif" font-size="10.00">handleReceivedListIdentity</text>
<text text-anchor="middle" x="259" y="-37" font-family="Helvetica,sans-Serif" font-size="10.00">CmdTCP</text>
</a>
</g>
</g>
<!-- Node1&#45;&gt;Node2 -->
<g id="edge1" class="edge"><title>Node1&#45;&gt;Node2</title>
<path fill="none" stroke="midnightblue" d="M166.321,-57.2921C174.961,-56.1337 183.628,-54.9717 191.999,-53.8492"/>
<polygon fill="midnightblue" stroke="midnightblue" points="165.657,-53.8498 156.211,-58.6477 166.587,-60.7877 165.657,-53.8498"/>
</g>
<!-- Node11 -->
<g id="node11" class="node"><title>Node11</title>
<g id="a_node11"><a xlink:href="../../d2/dbd/encap_8c.html#a6c6fcdf7201b77d91fcafd3fa1b89b4c" target="_top" xlink:title="handleReceivedListIdentity\lCmdUDP">
<polygon fill="none" stroke="black" points="192,-79 192,-109 326,-109 326,-79 192,-79"/>
<text text-anchor="start" x="200" y="-97" font-family="Helvetica,sans-Serif" font-size="10.00">handleReceivedListIdentity</text>
<text text-anchor="middle" x="259" y="-86" font-family="Helvetica,sans-Serif" font-size="10.00">CmdUDP</text>
</a>
</g>
</g>
<!-- Node1&#45;&gt;Node11 -->
<g id="edge10" class="edge"><title>Node1&#45;&gt;Node11</title>
<path fill="none" stroke="midnightblue" d="M166.321,-81.1957C174.961,-82.4024 183.628,-83.6128 191.999,-84.782"/>
<polygon fill="midnightblue" stroke="midnightblue" points="166.599,-77.7006 156.211,-79.7836 165.631,-84.6333 166.599,-77.7006"/>
</g>
<!-- Node3 -->
<g id="node3" class="node"><title>Node3</title>
<g id="a_node3"><a xlink:href="../../d2/dc9/group__CIP__API.html#ga500c1fe8838de5ff32f25d8ad6958289" target="_top" xlink:title="Notify the encapsulation layer that an explicit message has been received via TCP. ">
<polygon fill="none" stroke="black" points="362.5,-35.5 362.5,-54.5 520.5,-54.5 520.5,-35.5 362.5,-35.5"/>
<text text-anchor="middle" x="441.5" y="-42.5" font-family="Helvetica,sans-Serif" font-size="10.00">handleReceivedExplictTCPData</text>
</a>
</g>
</g>
<!-- Node2&#45;&gt;Node3 -->
<g id="edge2" class="edge"><title>Node2&#45;&gt;Node3</title>
<path fill="none" stroke="midnightblue" d="M336.239,-45C344.888,-45 353.713,-45 362.386,-45"/>
<polygon fill="midnightblue" stroke="midnightblue" points="336.187,-41.5001 326.187,-45 336.187,-48.5001 336.187,-41.5001"/>
</g>
<!-- Node4 -->
<g id="node4" class="node"><title>Node4</title>
<g id="a_node4"><a xlink:href="../../d5/d07/LM3S8962_2networkhandler_8c.html#a012291dcb1dfb9a0f2936f1e41543286" target="_top" xlink:title="tcp_receive_callback">
<polygon fill="none" stroke="black" points="582.5,-38.5 582.5,-57.5 690.5,-57.5 690.5,-38.5 582.5,-38.5"/>
<text text-anchor="middle" x="636.5" y="-45.5" font-family="Helvetica,sans-Serif" font-size="10.00">tcp_receive_callback</text>
</a>
</g>
</g>
<!-- Node3&#45;&gt;Node4 -->
<g id="edge3" class="edge"><title>Node3&#45;&gt;Node4</title>
<path fill="none" stroke="midnightblue" d="M530.981,-46.3754C548.506,-46.6478 566.385,-46.9257 582.286,-47.1728"/>
<polygon fill="midnightblue" stroke="midnightblue" points="530.775,-42.8718 520.722,-46.2159 530.667,-49.871 530.775,-42.8718"/>
</g>
<!-- Node8 -->
<g id="node8" class="node"><title>Node8</title>
<g id="a_node8"><a xlink:href="../../d2/d5e/POSIX_2networkhandler_8c.html#ae76d1b4d390537588350d7179c4c2f3a" target="_top" xlink:title="handleDataOnTCPSocket">
<polygon fill="none" stroke="black" points="571.5,-0.5 571.5,-19.5 701.5,-19.5 701.5,-0.5 571.5,-0.5"/>
<text text-anchor="middle" x="636.5" y="-7.5" font-family="Helvetica,sans-Serif" font-size="10.00">handleDataOnTCPSocket</text>
</a>
</g>
</g>
<!-- Node3&#45;&gt;Node8 -->
<g id="edge7" class="edge"><title>Node3&#45;&gt;Node8</title>
<path fill="none" stroke="midnightblue" d="M504.826,-33.6974C530.065,-29.1204 558.886,-23.8938 583.027,-19.5158"/>
<polygon fill="midnightblue" stroke="midnightblue" points="504.198,-30.254 494.983,-35.4823 505.447,-37.1417 504.198,-30.254"/>
</g>
<!-- Node5 -->
<g id="node5" class="node"><title>Node5</title>
<g id="a_node5"><a xlink:href="../../d5/d07/LM3S8962_2networkhandler_8c.html#a44614e422def6d9b7eb8f3b0e430f7ef" target="_top" xlink:title="tcp_connection_accept\l_callback">
<polygon fill="none" stroke="black" points="769.5,-63 769.5,-93 886.5,-93 886.5,-63 769.5,-63"/>
<text text-anchor="start" x="777.5" y="-81" font-family="Helvetica,sans-Serif" font-size="10.00">tcp_connection_accept</text>
<text text-anchor="middle" x="828" y="-70" font-family="Helvetica,sans-Serif" font-size="10.00">_callback</text>
</a>
</g>
</g>
<!-- Node4&#45;&gt;Node5 -->
<g id="edge4" class="edge"><title>Node4&#45;&gt;Node5</title>
<path fill="none" stroke="midnightblue" d="M700.537,-57.9794C722.745,-61.4952 747.58,-65.427 769.324,-68.8692"/>
<polygon fill="midnightblue" stroke="midnightblue" points="700.963,-54.5033 690.538,-56.3966 699.868,-61.4172 700.963,-54.5033"/>
</g>
<!-- Node6 -->
<g id="node6" class="node"><title>Node6</title>
<g id="a_node6"><a xlink:href="../../d1/d31/LM3S8962_2networkhandler_8h.html#a6151b0813befe78de7bfd9d7e08866ba" target="_top" xlink:title="Start_NetworkHandler">
<polygon fill="none" stroke="black" points="940,-94.5 940,-113.5 1053,-113.5 1053,-94.5 940,-94.5"/>
<text text-anchor="middle" x="996.5" y="-101.5" font-family="Helvetica,sans-Serif" font-size="10.00">Start_NetworkHandler</text>
</a>
</g>
</g>
<!-- Node5&#45;&gt;Node6 -->
<g id="edge5" class="edge"><title>Node5&#45;&gt;Node6</title>
<path fill="none" stroke="midnightblue" d="M896.996,-88.618C911.229,-90.8405 926.077,-93.1592 939.8,-95.3021"/>
<polygon fill="midnightblue" stroke="midnightblue" points="897.187,-85.1054 886.766,-87.0206 896.107,-92.0216 897.187,-85.1054"/>
</g>
<!-- Node7 -->
<g id="node7" class="node"><title>Node7</title>
<g id="a_node7"><a xlink:href="../../d0/d17/LM3S8962_2sample__application_2main_8c.html#a840291bc02cba5474a4cb46a9b9566fe" target="_top" xlink:title="main">
<polygon fill="none" stroke="black" points="1089,-94.5 1089,-113.5 1127,-113.5 1127,-94.5 1089,-94.5"/>
<text text-anchor="middle" x="1108" y="-101.5" font-family="Helvetica,sans-Serif" font-size="10.00">main</text>
</a>
</g>
</g>
<!-- Node6&#45;&gt;Node7 -->
<g id="edge6" class="edge"><title>Node6&#45;&gt;Node7</title>
<path fill="none" stroke="midnightblue" d="M1063.42,-104C1072.71,-104 1081.55,-104 1088.81,-104"/>
<polygon fill="midnightblue" stroke="midnightblue" points="1063.21,-100.5 1053.21,-104 1063.21,-107.5 1063.21,-100.5"/>
</g>
<!-- Node9 -->
<g id="node9" class="node"><title>Node9</title>
<g id="a_node9"><a xlink:href="../../dd/dc7/WIN32_2networkhandler_8h.html#a2d6337ec345efd952006c7bf3a158f0c" target="_top" xlink:title="NetworkHandler_ProcessOnce">
<polygon fill="none" stroke="black" points="752,-16.5 752,-35.5 904,-35.5 904,-16.5 752,-16.5"/>
<text text-anchor="middle" x="828" y="-23.5" font-family="Helvetica,sans-Serif" font-size="10.00">NetworkHandler_ProcessOnce</text>
</a>
</g>
</g>
<!-- Node8&#45;&gt;Node9 -->
<g id="edge8" class="edge"><title>Node8&#45;&gt;Node9</title>
<path fill="none" stroke="midnightblue" d="M712.004,-16.2906C725.077,-17.3944 738.689,-18.5437 751.781,-19.6491"/>
<polygon fill="midnightblue" stroke="midnightblue" points="711.915,-12.7707 701.656,-15.4169 711.326,-19.7459 711.915,-12.7707"/>
</g>
<!-- Node10 -->
<g id="node10" class="node"><title>Node10</title>
<g id="a_node10"><a xlink:href="../../d9/dfb/POSIX_2main_8c.html#ad338a7dbc41dc40bcecd0479377ef207" target="_top" xlink:title="main">
<polygon fill="none" stroke="black" points="977.5,-16.5 977.5,-35.5 1015.5,-35.5 1015.5,-16.5 977.5,-16.5"/>
<text text-anchor="middle" x="996.5" y="-23.5" font-family="Helvetica,sans-Serif" font-size="10.00">main</text>
</a>
</g>
</g>
<!-- Node9&#45;&gt;Node10 -->
<g id="edge9" class="edge"><title>Node9&#45;&gt;Node10</title>
<path fill="none" stroke="midnightblue" d="M914.616,-26C938.341,-26 961.809,-26 977.305,-26"/>
<polygon fill="midnightblue" stroke="midnightblue" points="914.456,-22.5001 904.455,-26 914.455,-29.5001 914.456,-22.5001"/>
</g>
<!-- Node12 -->
<g id="node12" class="node"><title>Node12</title>
<g id="a_node12"><a xlink:href="../../d2/dc9/group__CIP__API.html#gac85a5ca9d67df6eaa87338ebd9c5c6ca" target="_top" xlink:title="Notify the encapsulation layer that an explicit message has been received via UDP. ">
<polygon fill="none" stroke="black" points="362,-84.5 362,-103.5 521,-103.5 521,-84.5 362,-84.5"/>
<text text-anchor="middle" x="441.5" y="-91.5" font-family="Helvetica,sans-Serif" font-size="10.00">handleReceivedExplictUDPData</text>
</a>
</g>
</g>
<!-- Node11&#45;&gt;Node12 -->
<g id="edge11" class="edge"><title>Node11&#45;&gt;Node12</title>
<path fill="none" stroke="midnightblue" d="M336.343,-94C344.753,-94 353.328,-94 361.767,-94"/>
<polygon fill="midnightblue" stroke="midnightblue" points="336.187,-90.5001 326.187,-94 336.187,-97.5001 336.187,-90.5001"/>
</g>
<!-- Node13 -->
<g id="node13" class="node"><title>Node13</title>
<g id="a_node13"><a xlink:href="../../d5/d07/LM3S8962_2networkhandler_8c.html#a23967f4150cf2bf98f4e538f26584123" target="_top" xlink:title="udp_unsolicited_receive\l_callback">
<polygon fill="none" stroke="black" points="767.5,-116 767.5,-146 888.5,-146 888.5,-116 767.5,-116"/>
<text text-anchor="start" x="775.5" y="-134" font-family="Helvetica,sans-Serif" font-size="10.00">udp_unsolicited_receive</text>
<text text-anchor="middle" x="828" y="-123" font-family="Helvetica,sans-Serif" font-size="10.00">_callback</text>
</a>
</g>
</g>
<!-- Node12&#45;&gt;Node13 -->
<g id="edge12" class="edge"><title>Node12&#45;&gt;Node13</title>
<path fill="none" stroke="midnightblue" d="M494.6,-105.541C514.087,-109.453 536.471,-113.469 557,-116 628.989,-124.875 712.427,-128.501 767.275,-129.981"/>
<polygon fill="midnightblue" stroke="midnightblue" points="495.197,-102.091 484.698,-103.514 493.793,-108.949 495.197,-102.091"/>
</g>
<!-- Node14 -->
<g id="node14" class="node"><title>Node14</title>
<g id="a_node14"><a xlink:href="../../d2/d5e/POSIX_2networkhandler_8c.html#aa0c6c1f6e124a54daa5ac8e8d92cf4a8" target="_top" xlink:title="check if data has been received on the udp broadcast socket and if yes handle it correctly ...">
<polygon fill="none" stroke="black" points="557,-77 557,-107 716,-107 716,-77 557,-77"/>
<text text-anchor="start" x="565" y="-95" font-family="Helvetica,sans-Serif" font-size="10.00">checkAndHandleUDPBroadCast</text>
<text text-anchor="middle" x="636.5" y="-84" font-family="Helvetica,sans-Serif" font-size="10.00">Socket</text>
</a>
</g>
</g>
<!-- Node12&#45;&gt;Node14 -->
<g id="edge14" class="edge"><title>Node12&#45;&gt;Node14</title>
<path fill="none" stroke="midnightblue" d="M531.023,-93.0827C539.607,-92.9937 548.276,-92.9039 556.756,-92.816"/>
<polygon fill="midnightblue" stroke="midnightblue" points="530.964,-89.583 521,-93.1865 531.036,-96.5826 530.964,-89.583"/>
</g>
<!-- Node13&#45;&gt;Node6 -->
<g id="edge13" class="edge"><title>Node13&#45;&gt;Node6</title>
<path fill="none" stroke="midnightblue" d="M898.563,-119.72C912.345,-117.485 926.642,-115.166 939.887,-113.018"/>
<polygon fill="midnightblue" stroke="midnightblue" points="897.951,-116.273 888.64,-121.329 899.071,-123.183 897.951,-116.273"/>
</g>
<!-- Node14&#45;&gt;Node9 -->
<g id="edge15" class="edge"><title>Node14&#45;&gt;Node9</title>
<path fill="none" stroke="midnightblue" d="M696.346,-73.7006C702.996,-71.502 709.657,-69.2408 716,-67 732.187,-61.2813 735.922,-59.019 752,-53 767.812,-47.0805 785.586,-40.671 799.862,-35.5829"/>
<polygon fill="midnightblue" stroke="midnightblue" points="695.071,-70.4352 686.652,-76.8672 697.244,-77.0893 695.071,-70.4352"/>
</g>
</g>
</svg>
        <g id="navigator" transform="translate(0 0)" fill="#404254">
                <rect fill="#f2f5e9" fill-opacity="0.5" stroke="#606060" stroke-width=".5" x="0" y="0" width="60" height="60"/>
                <use id="zoomplus" xlink:href="#zoomPlus" x="17" y="9" onmousedown="handleZoom(evt,'in')"/>
                <use id="zoomminus" xlink:href="#zoomMin" x="42" y="9" onmousedown="handleZoom(evt,'out')"/>
                <use id="reset" xlink:href="#resetDef" x="30" y="36" onmousedown="handleReset()"/>
                <g id="arrowUp" xlink:href="#dirArrow" transform="translate(30 24)" onmousedown="handlePan(0,-1)">
                  <use xlink:href="#rim" fill="#404040">
                        <set attributeName="fill" to="#808080" begin="arrowUp.mouseover" end="arrowUp.mouseout"/>
                  </use>
                  <path fill="none" stroke="white" stroke-width="1.5" d="M0,-3.0v7 M-2.5,-0.5L0,-3.0L2.5,-0.5"/>
                </g>
                <g id="arrowRight" xlink:href="#dirArrow" transform="rotate(90) translate(36 -43)" onmousedown="handlePan(1,0)">
                  <use xlink:href="#rim" fill="#404040">
                        <set attributeName="fill" to="#808080" begin="arrowRight.mouseover" end="arrowRight.mouseout"/>
                  </use>
                  <path fill="none" stroke="white" stroke-width="1.5" d="M0,-3.0v7 M-2.5,-0.5L0,-3.0L2.5,-0.5"/>
                </g>
                <g id="arrowDown" xlink:href="#dirArrow" transform="rotate(180) translate(-30 -48)" onmousedown="handlePan(0,1)">
                  <use xlink:href="#rim" fill="#404040">
                        <set attributeName="fill" to="#808080" begin="arrowDown.mouseover" end="arrowDown.mouseout"/>
                  </use>
                  <path fill="none" stroke="white" stroke-width="1.5" d="M0,-3.0v7 M-2.5,-0.5L0,-3.0L2.5,-0.5"/>
                </g>
                <g id="arrowLeft" xlink:href="#dirArrow" transform="rotate(270) translate(-36 17)" onmousedown="handlePan(-1,0)">
                  <use xlink:href="#rim" fill="#404040">
                        <set attributeName="fill" to="#808080" begin="arrowLeft.mouseover" end="arrowLeft.mouseout"/>
                  </use>
                  <path fill="none" stroke="white" stroke-width="1.5" d="M0,-3.0v7 M-2.5,-0.5L0,-3.0L2.5,-0.5"/>
                </g>
        </g>
        <svg viewBox="0 0 15 15" width="100%" height="30px" preserveAspectRatio="xMaxYMin meet">
         <g id="arrow_out" transform="scale(0.3 0.3)">
          <a xlink:href="encap_8c_a687bc1b004e12fd67cc724da086ea1de_icgraph_org.svg" target="_base">
           <rect id="button" ry="5" rx="5" y="6" x="6" height="38" width="38"
                fill="#f2f5e9" fill-opacity="0.5" stroke="#606060" stroke-width="1.0"/>
           <path id="arrow"
             d="M 11.500037,31.436501 C 11.940474,20.09759 22.043105,11.32322 32.158766,21.979434 L 37.068811,17.246167 C 37.068811,17.246167 37.088388,32 37.088388,32 L 22.160133,31.978069 C 22.160133,31.978069 26.997745,27.140456 26.997745,27.140456 C 18.528582,18.264221 13.291696,25.230495 11.500037,31.436501 z"
             style="fill:#404040;"/>
          </a>
         </g>
        </svg>
</svg>
