<?xml version="1.0" encoding="UTF-8" standalone="no"?>
<!DOCTYPE svg PUBLIC "-//W3C//DTD SVG 1.1//EN"
 "http://www.w3.org/Graphics/SVG/1.1/DTD/svg11.dtd">
<!-- Generated by graphviz version 2.36.0 (20140111.2315)
 -->
<!-- Title: HandleReceivedListIdentityCommandTcp Pages: 1 -->
<svg width="816pt" height="126pt"
 viewBox="0.00 0.00 816.00 126.00" xmlns="http://www.w3.org/2000/svg" xmlns:xlink="http://www.w3.org/1999/xlink">
<g id="graph0" class="graph" transform="scale(1 1) rotate(0) translate(4 122)">
<title>HandleReceivedListIdentityCommandTcp</title>
<!-- Node1 -->
<g id="node1" class="node"><title>Node1</title>
<polygon fill="#bfbfbf" stroke="black" points="0.5,-69 0.5,-99 137.5,-99 137.5,-69 0.5,-69"/>
<text text-anchor="start" x="8.5" y="-87" font-family="Helvetica,sans-Serif" font-size="10.00">HandleReceivedListIdentity</text>
<text text-anchor="middle" x="69" y="-76" font-family="Helvetica,sans-Serif" font-size="10.00">CommandTcp</text>
</g>
<!-- Node2 -->
<g id="node2" class="node"><title>Node2</title>
<g id="a_node2"><a xlink:href="../../d2/dc9/group__CIP__API.html#ga16eaeeb12ba23b5a75c8e5902a33d70a" target="_top" xlink:title="Notify the encapsulation layer that an explicit message has been received via TCP. ">
<polygon fill="none" stroke="black" points="175,-95.5 175,-114.5 331,-114.5 331,-95.5 175,-95.5"/>
<text text-anchor="middle" x="253" y="-102.5" font-family="Helvetica,sans-Serif" font-size="10.00">HandleReceivedExplictTcpData</text>
</a>
</g>
</g>
<!-- Node1&#45;&gt;Node2 -->
<g id="edge1" class="edge"><title>Node1&#45;&gt;Node2</title>
<path fill="none" stroke="midnightblue" d="M147.585,-92.9521C156.591,-93.9913 165.777,-95.0512 174.779,-96.0898"/>
<polygon fill="midnightblue" stroke="midnightblue" points="147.847,-89.4592 137.511,-91.7898 147.044,-96.413 147.847,-89.4592"/>
</g>
<!-- Node6 -->
<g id="node6" class="node"><title>Node6</title>
<g id="a_node6"><a xlink:href="../../d2/dc9/group__CIP__API.html#gaab62df9410a09727a82afa7672e3194a" target="_top" xlink:title="Notify the encapsulation layer that an explicit message has been received via UDP. ">
<polygon fill="none" stroke="black" points="174,-54.5 174,-73.5 332,-73.5 332,-54.5 174,-54.5"/>
<text text-anchor="middle" x="253" y="-61.5" font-family="Helvetica,sans-Serif" font-size="10.00">HandleReceivedExplictUdpData</text>
</a>
</g>
</g>
<!-- Node1&#45;&gt;Node6 -->
<g id="edge5" class="edge"><title>Node1&#45;&gt;Node6</title>
<path fill="none" stroke="midnightblue" d="M147.614,-75.471C156.301,-74.5164 165.155,-73.5434 173.849,-72.5881"/>
<polygon fill="midnightblue" stroke="midnightblue" points="147.069,-72.0097 137.511,-76.5812 147.834,-78.9678 147.069,-72.0097"/>
</g>
<!-- Node3 -->
<g id="node3" class="node"><title>Node3</title>
<g id="a_node3"><a xlink:href="../../db/d4f/generic__networkhandler_8c.html#aca5593b7dd39d7a7b437999a367102d6" target="_top" xlink:title="Handles data on an established TCP connection, processed connection is given by socket. ">
<polygon fill="none" stroke="black" points="396,-98.5 396,-117.5 524,-117.5 524,-98.5 396,-98.5"/>
<text text-anchor="middle" x="460" y="-105.5" font-family="Helvetica,sans-Serif" font-size="10.00">HandleDataOnTcpSocket</text>
</a>
</g>
</g>
<!-- Node2&#45;&gt;Node3 -->
<g id="edge2" class="edge"><title>Node2&#45;&gt;Node3</title>
<path fill="none" stroke="midnightblue" d="M341.311,-106.278C359.643,-106.546 378.638,-106.824 395.88,-107.076"/>
<polygon fill="midnightblue" stroke="midnightblue" points="341.26,-102.777 331.21,-106.13 341.157,-109.776 341.26,-102.777"/>
</g>
<!-- Node4 -->
<g id="node4" class="node"><title>Node4</title>
<g id="a_node4"><a xlink:href="../../da/dc2/generic__networkhandler_8h.html#a2f01af81d3e5018d9980e2bc28c9078a" target="_top" xlink:title="NetworkHandlerProcessOnce">
<polygon fill="none" stroke="black" points="588,-54.5 588,-73.5 734,-73.5 734,-54.5 588,-54.5"/>
<text text-anchor="middle" x="661" y="-61.5" font-family="Helvetica,sans-Serif" font-size="10.00">NetworkHandlerProcessOnce</text>
</a>
</g>
</g>
<!-- Node3&#45;&gt;Node4 -->
<g id="edge3" class="edge"><title>Node3&#45;&gt;Node4</title>
<path fill="none" stroke="midnightblue" d="M514.627,-96.2356C526.908,-93.5353 539.907,-90.6725 552,-88 573.474,-83.2542 597.344,-77.9525 617.171,-73.5416"/>
<polygon fill="midnightblue" stroke="midnightblue" points="513.53,-92.893 504.515,-98.4579 515.033,-99.7298 513.53,-92.893"/>
</g>
<!-- Node5 -->
<g id="node5" class="node"><title>Node5</title>
<g id="a_node5"><a xlink:href="../../d9/dfb/POSIX_2main_8c.html#ad338a7dbc41dc40bcecd0479377ef207" target="_top" xlink:title="main">
<polygon fill="none" stroke="black" points="770,-54.5 770,-73.5 808,-73.5 808,-54.5 770,-54.5"/>
<text text-anchor="middle" x="789" y="-61.5" font-family="Helvetica,sans-Serif" font-size="10.00">main</text>
</a>
</g>
</g>
<!-- Node4&#45;&gt;Node5 -->
<g id="edge4" class="edge"><title>Node4&#45;&gt;Node5</title>
<path fill="none" stroke="midnightblue" d="M744.255,-64C753.721,-64 762.546,-64 769.754,-64"/>
<polygon fill="midnightblue" stroke="midnightblue" points="744.199,-60.5001 734.199,-64 744.199,-67.5001 744.199,-60.5001"/>
</g>
<!-- Node7 -->
<g id="node7" class="node"><title>Node7</title>
<g id="a_node7"><a xlink:href="../../db/d4f/generic__networkhandler_8c.html#a5cae623dd720f3072dabdb78aa134262" target="_top" xlink:title="Checks and handles incoming messages via UDP broadcast. ">
<polygon fill="none" stroke="black" points="368.5,-49 368.5,-79 551.5,-79 551.5,-49 368.5,-49"/>
<text text-anchor="start" x="376.5" y="-67" font-family="Helvetica,sans-Serif" font-size="10.00">CheckAndHandleUdpGlobalBroadcast</text>
<text text-anchor="middle" x="460" y="-56" font-family="Helvetica,sans-Serif" font-size="10.00">Socket</text>
</a>
</g>
</g>
<!-- Node6&#45;&gt;Node7 -->
<g id="edge6" class="edge"><title>Node6&#45;&gt;Node7</title>
<path fill="none" stroke="midnightblue" d="M342.206,-64C350.894,-64 359.721,-64 368.432,-64"/>
<polygon fill="midnightblue" stroke="midnightblue" points="342.087,-60.5001 332.087,-64 342.086,-67.5001 342.087,-60.5001"/>
</g>
<!-- Node8 -->
<g id="node8" class="node"><title>Node8</title>
<g id="a_node8"><a xlink:href="../../db/d4f/generic__networkhandler_8c.html#ace1d8f3907ead0c43c1b5853132d5eb1" target="_top" xlink:title="Checks and processes request received via the UDP unicast socket, currently the implementation is por...">
<polygon fill="none" stroke="black" points="387.5,-0 387.5,-30 532.5,-30 532.5,-0 387.5,-0"/>
<text text-anchor="start" x="395.5" y="-18" font-family="Helvetica,sans-Serif" font-size="10.00">CheckAndHandleUdpUnicast</text>
<text text-anchor="middle" x="460" y="-7" font-family="Helvetica,sans-Serif" font-size="10.00">Socket</text>
</a>
</g>
</g>
<!-- Node6&#45;&gt;Node8 -->
<g id="edge8" class="edge"><title>Node6&#45;&gt;Node8</title>
<path fill="none" stroke="midnightblue" d="M303.898,-52.0732C331.657,-45.438 366.478,-37.1149 396.09,-30.037"/>
<polygon fill="midnightblue" stroke="midnightblue" points="302.925,-48.707 294.013,-54.436 304.552,-55.5153 302.925,-48.707"/>
</g>
<!-- Node7&#45;&gt;Node4 -->
<g id="edge7" class="edge"><title>Node7&#45;&gt;Node4</title>
<path fill="none" stroke="midnightblue" d="M561.996,-64C570.719,-64 579.427,-64 587.851,-64"/>
<polygon fill="midnightblue" stroke="midnightblue" points="561.765,-60.5001 551.765,-64 561.765,-67.5001 561.765,-60.5001"/>
</g>
<!-- Node8&#45;&gt;Node4 -->
<g id="edge9" class="edge"><title>Node8&#45;&gt;Node4</title>
<path fill="none" stroke="midnightblue" d="M532.091,-32.5048C562.151,-39.9065 595.987,-48.238 621.305,-54.472"/>
<polygon fill="midnightblue" stroke="midnightblue" points="532.606,-29.0271 522.059,-30.0346 530.932,-35.8241 532.606,-29.0271"/>
</g>
</g>
</svg>
