<?xml version="1.0" encoding="UTF-8" standalone="no"?>
<!DOCTYPE svg PUBLIC "-//W3C//DTD SVG 1.1//EN"
 "http://www.w3.org/Graphics/SVG/1.1/DTD/svg11.dtd">
<!-- Generated by graphviz version 2.36.0 (20140111.2315)
 -->
<!-- Title: HandleReceivedListIdentityCommandUdp Pages: 1 -->
<svg width="816pt" height="87pt"
 viewBox="0.00 0.00 816.00 87.00" xmlns="http://www.w3.org/2000/svg" xmlns:xlink="http://www.w3.org/1999/xlink">
<g id="graph0" class="graph" transform="scale(1 1) rotate(0) translate(4 83)">
<title>HandleReceivedListIdentityCommandUdp</title>
<!-- Node1 -->
<g id="node1" class="node"><title>Node1</title>
<polygon fill="#bfbfbf" stroke="black" points="0.5,-24 0.5,-54 137.5,-54 137.5,-24 0.5,-24"/>
<text text-anchor="start" x="8.5" y="-42" font-family="Helvetica,sans-Serif" font-size="10.00">HandleReceivedListIdentity</text>
<text text-anchor="middle" x="69" y="-31" font-family="Helvetica,sans-Serif" font-size="10.00">CommandUdp</text>
</g>
<!-- Node2 -->
<g id="node2" class="node"><title>Node2</title>
<g id="a_node2"><a xlink:href="../../d2/dc9/group__CIP__API.html#gaab62df9410a09727a82afa7672e3194a" target="_top" xlink:title="Notify the encapsulation layer that an explicit message has been received via UDP. ">
<polygon fill="none" stroke="black" points="174,-29.5 174,-48.5 332,-48.5 332,-29.5 174,-29.5"/>
<text text-anchor="middle" x="253" y="-36.5" font-family="Helvetica,sans-Serif" font-size="10.00">HandleReceivedExplictUdpData</text>
</a>
</g>
</g>
<!-- Node1&#45;&gt;Node2 -->
<g id="edge1" class="edge"><title>Node1&#45;&gt;Node2</title>
<path fill="none" stroke="midnightblue" d="M147.614,-39C156.301,-39 165.155,-39 173.849,-39"/>
<polygon fill="midnightblue" stroke="midnightblue" points="147.511,-35.5001 137.511,-39 147.511,-42.5001 147.511,-35.5001"/>
</g>
<!-- Node3 -->
<g id="node3" class="node"><title>Node3</title>
<g id="a_node3"><a xlink:href="../../db/d4f/generic__networkhandler_8c.html#a5cae623dd720f3072dabdb78aa134262" target="_top" xlink:title="Checks and handles incoming messages via UDP broadcast. ">
<polygon fill="none" stroke="black" points="368.5,-49 368.5,-79 551.5,-79 551.5,-49 368.5,-49"/>
<text text-anchor="start" x="376.5" y="-67" font-family="Helvetica,sans-Serif" font-size="10.00">CheckAndHandleUdpGlobalBroadcast</text>
<text text-anchor="middle" x="460" y="-56" font-family="Helvetica,sans-Serif" font-size="10.00">Socket</text>
</a>
</g>
</g>
<!-- Node2&#45;&gt;Node3 -->
<g id="edge2" class="edge"><title>Node2&#45;&gt;Node3</title>
<path fill="none" stroke="midnightblue" d="M342.206,-49.7568C350.894,-50.8163 359.721,-51.8929 368.432,-52.9552"/>
<polygon fill="midnightblue" stroke="midnightblue" points="342.437,-46.2591 332.087,-48.5227 341.589,-53.2076 342.437,-46.2591"/>
</g>
<!-- Node6 -->
<g id="node6" class="node"><title>Node6</title>
<g id="a_node6"><a xlink:href="../../db/d4f/generic__networkhandler_8c.html#ace1d8f3907ead0c43c1b5853132d5eb1" target="_top" xlink:title="Checks and processes request received via the UDP unicast socket, currently the implementation is por...">
<polygon fill="none" stroke="black" points="387.5,-0 387.5,-30 532.5,-30 532.5,-0 387.5,-0"/>
<text text-anchor="start" x="395.5" y="-18" font-family="Helvetica,sans-Serif" font-size="10.00">CheckAndHandleUdpUnicast</text>
<text text-anchor="middle" x="460" y="-7" font-family="Helvetica,sans-Serif" font-size="10.00">Socket</text>
</a>
</g>
</g>
<!-- Node2&#45;&gt;Node6 -->
<g id="edge5" class="edge"><title>Node2&#45;&gt;Node6</title>
<path fill="none" stroke="midnightblue" d="M342.368,-28.6545C357.336,-26.9021 372.715,-25.1017 387.193,-23.4067"/>
<polygon fill="midnightblue" stroke="midnightblue" points="341.612,-25.219 332.087,-29.8582 342.426,-32.1715 341.612,-25.219"/>
</g>
<!-- Node4 -->
<g id="node4" class="node"><title>Node4</title>
<g id="a_node4"><a xlink:href="../../da/dc2/generic__networkhandler_8h.html#a2f01af81d3e5018d9980e2bc28c9078a" target="_top" xlink:title="NetworkHandlerProcessOnce">
<polygon fill="none" stroke="black" points="588,-29.5 588,-48.5 734,-48.5 734,-29.5 588,-29.5"/>
<text text-anchor="middle" x="661" y="-36.5" font-family="Helvetica,sans-Serif" font-size="10.00">NetworkHandlerProcessOnce</text>
</a>
</g>
</g>
<!-- Node3&#45;&gt;Node4 -->
<g id="edge3" class="edge"><title>Node3&#45;&gt;Node4</title>
<path fill="none" stroke="midnightblue" d="M561.712,-51.3478C570.53,-50.24 579.335,-49.1338 587.851,-48.064"/>
<polygon fill="midnightblue" stroke="midnightblue" points="561.251,-47.8781 551.765,-52.5974 562.123,-54.8235 561.251,-47.8781"/>
</g>
<!-- Node5 -->
<g id="node5" class="node"><title>Node5</title>
<g id="a_node5"><a xlink:href="../../d5/dcb/MINGW_2main_8c.html#ad338a7dbc41dc40bcecd0479377ef207" target="_top" xlink:title="main">
<polygon fill="none" stroke="black" points="770,-29.5 770,-48.5 808,-48.5 808,-29.5 770,-29.5"/>
<text text-anchor="middle" x="789" y="-36.5" font-family="Helvetica,sans-Serif" font-size="10.00">main</text>
</a>
</g>
</g>
<!-- Node4&#45;&gt;Node5 -->
<g id="edge4" class="edge"><title>Node4&#45;&gt;Node5</title>
<path fill="none" stroke="midnightblue" d="M744.255,-39C753.721,-39 762.546,-39 769.754,-39"/>
<polygon fill="midnightblue" stroke="midnightblue" points="744.199,-35.5001 734.199,-39 744.199,-42.5001 744.199,-35.5001"/>
</g>
<!-- Node6&#45;&gt;Node4 -->
<g id="edge6" class="edge"><title>Node6&#45;&gt;Node4</title>
<path fill="none" stroke="midnightblue" d="M542.776,-24.8624C557.679,-26.6598 573.131,-28.5233 587.735,-30.2846"/>
<polygon fill="midnightblue" stroke="midnightblue" points="542.91,-21.3533 532.562,-23.6306 542.071,-28.3029 542.91,-21.3533"/>
</g>
</g>
</svg>
