<?xml version="1.0" encoding="UTF-8" standalone="no"?>
<!DOCTYPE svg PUBLIC "-//W3C//DTD SVG 1.1//EN"
 "http://www.w3.org/Graphics/SVG/1.1/DTD/svg11.dtd">
<!-- Generated by graphviz version 2.26.3 (20100126.1600)
 -->
<!-- Title: G Pages: 1 -->
<!--zoomable 230 -->
<svg id="main" version="1.1" xmlns="http://www.w3.org/2000/svg" xmlns:xlink="http://www.w3.org/1999/xlink" xml:space="preserve" onload="init(evt)">
        <defs>
                <circle id="rim" cx="0" cy="0" r="7"/>
                <circle id="rim2" cx="0" cy="0" r="3.5"/>
                <g id="zoomPlus">
                        <use xlink:href="#rim" fill="#404040">
                                <set attributeName="fill" to="#808080" begin="zoomplus.mouseover" end="zoomplus.mouseout"/>
                        </use>
                        <path d="M-4,0h8M0,-4v8" fill="none" stroke="white" stroke-width="1.5" pointer-events="none"/>
                </g>
                <g id="zoomMin">
                        <use xlink:href="#rim" fill="#404040">
                                <set attributeName="fill" to="#808080" begin="zoomminus.mouseover" end="zoomminus.mouseout"/>
                        </use>
                        <path d="M-4,0h8" fill="none" stroke="white" stroke-width="1.5" pointer-events="none"/>
                </g>
                <g id="dirArrow">
                        <path fill="none" stroke="white" stroke-width="1.5" d="M0,-3.0v7 M-2.5,-0.5L0,-3.0L2.5,-0.5"/>
                </g>
               <g id="resetDef">
                       <use xlink:href="#rim2" fill="#404040">
                               <set attributeName="fill" to="#808080" begin="reset.mouseover" end="reset.mouseout"/>
                       </use>
               </g>
        </defs>

<script type="text/javascript">
var viewWidth = 650;
var viewHeight = 230;
var sectionId = 'dynsection-19';
</script>
<script xlink:href="../../svgpan.js"/>
<svg id="graph" class="graph">
<g id="viewport">
<title>G</title>
<!-- Node1 -->
<g id="node1" class="node"><title>Node1</title>
<polygon fill="#bfbfbf" stroke="black" points="0,-100.5 0,-121.5 206,-121.5 206,-100.5 0,-100.5"/>
<text text-anchor="middle" x="103" y="-108.5" font-family="Helvetica,sans-Serif" font-size="10.00">HandleReceivedRegisterSessionCommand</text>
</g>
<!-- Node2 -->
<g id="node3" class="node"><title>Node2</title>
<a xlink:href="../../d4/d91/group__ENCAP.html#gaafc3c9e3ff582c9b7e438ae2b1fdf822" target="_top" xlink:title="Converts UINT32 data from host to little endian and writes it to buffer.">
<polygon fill="none" stroke="black" points="288.5,-200.5 288.5,-221.5 391.5,-221.5 391.5,-200.5 288.5,-200.5"/>
<text text-anchor="middle" x="340" y="-208.5" font-family="Helvetica,sans-Serif" font-size="10.00">AddDintToMessage</text>
</a>
</g>
<!-- Node1&#45;&gt;Node2 -->
<g id="edge2" class="edge"><title>Node1&#45;&gt;Node2</title>
<path fill="none" stroke="midnightblue" d="M117.63,-121.562C142.134,-138.744 193.564,-172.67 242,-191 253.419,-195.321 265.958,-198.778 278.141,-201.518"/>
<polygon fill="midnightblue" stroke="midnightblue" points="277.751,-205.013 288.258,-203.655 279.197,-198.164 277.751,-205.013"/>
</g>
<!-- Node3 -->
<g id="node5" class="node"><title>Node3</title>
<a xlink:href="../../d2/dbd/encap_8c.html#ad674cdd0452f59d824a0bebbf678cb6d" target="_top" xlink:title="search for available sessions an return index.">
<polygon fill="none" stroke="black" points="284.5,-160.5 284.5,-181.5 395.5,-181.5 395.5,-160.5 284.5,-160.5"/>
<text text-anchor="middle" x="340" y="-168.5" font-family="Helvetica,sans-Serif" font-size="10.00">GetFreeSessionIndex</text>
</a>
</g>
<!-- Node1&#45;&gt;Node3 -->
<g id="edge4" class="edge"><title>Node1&#45;&gt;Node3</title>
<path fill="none" stroke="midnightblue" d="M136.789,-121.533C164.813,-130.073 205.785,-142.109 242,-151 252.523,-153.584 263.738,-156.096 274.683,-158.418"/>
<polygon fill="midnightblue" stroke="midnightblue" points="274.127,-161.877 284.631,-160.494 275.557,-155.025 274.127,-161.877"/>
</g>
<!-- Node4 -->
<g id="node7" class="node"><title>Node4</title>
<a xlink:href="../../d4/d91/group__ENCAP.html#ga70322f970709ca9c9a1a1d474cfe2302" target="_top" xlink:title="Reads EIP_UINT16 from *buffer and converts little endian to host.">
<polygon fill="none" stroke="black" points="287,-120.5 287,-141.5 393,-141.5 393,-120.5 287,-120.5"/>
<text text-anchor="middle" x="340" y="-128.5" font-family="Helvetica,sans-Serif" font-size="10.00">GetIntFromMessage</text>
</a>
</g>
<!-- Node1&#45;&gt;Node4 -->
<g id="edge6" class="edge"><title>Node1&#45;&gt;Node4</title>
<path fill="none" stroke="midnightblue" d="M206.262,-119.714C230.276,-121.741 255.139,-123.839 276.817,-125.668"/>
<polygon fill="midnightblue" stroke="midnightblue" points="276.602,-129.162 286.861,-126.516 277.191,-122.187 276.602,-129.162"/>
</g>
<!-- Node5 -->
<g id="node9" class="node"><title>Node5</title>
<a xlink:href="../../d4/df6/socket__timer_8c.html#a28bbdc758808db0e7f034aff98e5f6b3" target="_top" xlink:title="Get an empty Socket Timer entry.">
<polygon fill="none" stroke="black" points="242.5,-80.5 242.5,-101.5 437.5,-101.5 437.5,-80.5 242.5,-80.5"/>
<text text-anchor="middle" x="340" y="-88.5" font-family="Helvetica,sans-Serif" font-size="10.00">SocketTimerArrayGetEmptySocketTimer</text>
</a>
</g>
<!-- Node1&#45;&gt;Node5 -->
<g id="edge8" class="edge"><title>Node1&#45;&gt;Node5</title>
<path fill="none" stroke="midnightblue" d="M206.262,-102.286C214.869,-101.56 223.585,-100.824 232.225,-100.095"/>
<polygon fill="midnightblue" stroke="midnightblue" points="232.65,-103.572 242.32,-99.243 232.061,-96.5964 232.65,-103.572"/>
</g>
<!-- Node7 -->
<g id="node13" class="node"><title>Node7</title>
<a xlink:href="../../d4/df6/socket__timer_8c.html#a92cb7cb882fa94beed065d6af1b4d8b7" target="_top" xlink:title="Sets time stamp entry of the Socket Timer.">
<polygon fill="none" stroke="black" points="271.5,-40.5 271.5,-61.5 408.5,-61.5 408.5,-40.5 271.5,-40.5"/>
<text text-anchor="middle" x="340" y="-48.5" font-family="Helvetica,sans-Serif" font-size="10.00">SocketTimerSetLastUpdate</text>
</a>
</g>
<!-- Node1&#45;&gt;Node7 -->
<g id="edge12" class="edge"><title>Node1&#45;&gt;Node7</title>
<path fill="none" stroke="midnightblue" d="M136.789,-100.467C164.813,-91.927 205.785,-79.8914 242,-71 252.523,-68.4165 263.738,-65.9041 274.683,-63.5818"/>
<polygon fill="midnightblue" stroke="midnightblue" points="275.557,-66.9749 284.631,-61.5059 274.127,-60.1225 275.557,-66.9749"/>
</g>
<!-- Node8 -->
<g id="node15" class="node"><title>Node8</title>
<a xlink:href="../../d4/df6/socket__timer_8c.html#a88d96d405101437cf645ee382e9d744b" target="_top" xlink:title="Sets socket of a Socket Timer.">
<polygon fill="none" stroke="black" points="281,-0.5 281,-21.5 399,-21.5 399,-0.5 281,-0.5"/>
<text text-anchor="middle" x="340" y="-8.5" font-family="Helvetica,sans-Serif" font-size="10.00">SocketTimerSetSocket</text>
</a>
</g>
<!-- Node1&#45;&gt;Node8 -->
<g id="edge14" class="edge"><title>Node1&#45;&gt;Node8</title>
<path fill="none" stroke="midnightblue" d="M117.63,-100.438C142.134,-83.2556 193.564,-49.33 242,-31 251.196,-27.5198 261.119,-24.6007 270.997,-22.1647"/>
<polygon fill="midnightblue" stroke="midnightblue" points="271.879,-25.5532 280.831,-19.8869 270.299,-18.7337 271.879,-25.5532"/>
</g>
<!-- Node6 -->
<g id="node11" class="node"><title>Node6</title>
<a xlink:href="../../d4/df6/socket__timer_8c.html#abe7542fdec4d4e4893a8c712192529ca" target="_top" xlink:title="Get the Socket Timer entry with the spezified socket value.">
<polygon fill="none" stroke="black" points="474.5,-80.5 474.5,-101.5 641.5,-101.5 641.5,-80.5 474.5,-80.5"/>
<text text-anchor="middle" x="558" y="-88.5" font-family="Helvetica,sans-Serif" font-size="10.00">SocketTimerArrayGetSocketTimer</text>
</a>
</g>
<!-- Node5&#45;&gt;Node6 -->
<g id="edge10" class="edge"><title>Node5&#45;&gt;Node6</title>
<path fill="none" stroke="midnightblue" d="M437.523,-91C446.323,-91 455.224,-91 463.993,-91"/>
<polygon fill="midnightblue" stroke="midnightblue" points="464.212,-94.5001 474.212,-91 464.212,-87.5001 464.212,-94.5001"/>
</g>
</g>
</svg>
        <g id="navigator" transform="translate(0 0)" fill="#404254">
                <rect fill="#f2f5e9" fill-opacity="0.5" stroke="#606060" stroke-width=".5" x="0" y="0" width="60" height="60"/>
                <use id="zoomplus" xlink:href="#zoomPlus" x="17" y="9" onmousedown="handleZoom(evt,'in')"/>
                <use id="zoomminus" xlink:href="#zoomMin" x="42" y="9" onmousedown="handleZoom(evt,'out')"/>
                <use id="reset" xlink:href="#resetDef" x="30" y="36" onmousedown="handleReset()"/>
                <g id="arrowUp" xlink:href="#dirArrow" transform="translate(30 24)" onmousedown="handlePan(0,-1)">
                  <use xlink:href="#rim" fill="#404040">
                        <set attributeName="fill" to="#808080" begin="arrowUp.mouseover" end="arrowUp.mouseout"/>
                  </use>
                  <path fill="none" stroke="white" stroke-width="1.5" d="M0,-3.0v7 M-2.5,-0.5L0,-3.0L2.5,-0.5"/>
                </g>
                <g id="arrowRight" xlink:href="#dirArrow" transform="rotate(90) translate(36 -43)" onmousedown="handlePan(1,0)">
                  <use xlink:href="#rim" fill="#404040">
                        <set attributeName="fill" to="#808080" begin="arrowRight.mouseover" end="arrowRight.mouseout"/>
                  </use>
                  <path fill="none" stroke="white" stroke-width="1.5" d="M0,-3.0v7 M-2.5,-0.5L0,-3.0L2.5,-0.5"/>
                </g>
                <g id="arrowDown" xlink:href="#dirArrow" transform="rotate(180) translate(-30 -48)" onmousedown="handlePan(0,1)">
                  <use xlink:href="#rim" fill="#404040">
                        <set attributeName="fill" to="#808080" begin="arrowDown.mouseover" end="arrowDown.mouseout"/>
                  </use>
                  <path fill="none" stroke="white" stroke-width="1.5" d="M0,-3.0v7 M-2.5,-0.5L0,-3.0L2.5,-0.5"/>
                </g>
                <g id="arrowLeft" xlink:href="#dirArrow" transform="rotate(270) translate(-36 17)" onmousedown="handlePan(-1,0)">
                  <use xlink:href="#rim" fill="#404040">
                        <set attributeName="fill" to="#808080" begin="arrowLeft.mouseover" end="arrowLeft.mouseout"/>
                  </use>
                  <path fill="none" stroke="white" stroke-width="1.5" d="M0,-3.0v7 M-2.5,-0.5L0,-3.0L2.5,-0.5"/>
                </g>
        </g>
</svg>
