<?xml version="1.0" encoding="UTF-8" standalone="no"?>
<!DOCTYPE svg PUBLIC "-//W3C//DTD SVG 1.1//EN"
 "http://www.w3.org/Graphics/SVG/1.1/DTD/svg11.dtd">
<!-- Generated by graphviz version 2.36.0 (20140111.2315)
 -->
<!-- Title: src/ports/opener_error.h Pages: 1 -->
<svg width="922pt" height="96pt"
 viewBox="0.00 0.00 922.00 96.00" xmlns="http://www.w3.org/2000/svg" xmlns:xlink="http://www.w3.org/1999/xlink">
<g id="graph0" class="graph" transform="scale(1 1) rotate(0) translate(4 92)">
<title>src/ports/opener_error.h</title>
<!-- Node1 -->
<g id="node1" class="node"><title>Node1</title>
<polygon fill="#bfbfbf" stroke="black" points="411,-68.5 411,-87.5 531,-87.5 531,-68.5 411,-68.5"/>
<text text-anchor="middle" x="471" y="-75.5" font-family="Helvetica,sans-Serif" font-size="10.00">src/ports/opener_error.h</text>
</g>
<!-- Node2 -->
<g id="node2" class="node"><title>Node2</title>
<g id="a_node2"><a xlink:href="../../d2/dbd/encap_8c.html" target="_top" xlink:title="src/enet_encap/encap.c">
<polygon fill="none" stroke="black" points="-0.5,-6.5 -0.5,-25.5 120.5,-25.5 120.5,-6.5 -0.5,-6.5"/>
<text text-anchor="middle" x="60" y="-13.5" font-family="Helvetica,sans-Serif" font-size="10.00">src/enet_encap/encap.c</text>
</a>
</g>
</g>
<!-- Node1&#45;&gt;Node2 -->
<g id="edge1" class="edge"><title>Node1&#45;&gt;Node2</title>
<path fill="none" stroke="midnightblue" d="M400.485,-69.4582C331.153,-61.6346 222.436,-48.2741 129,-32 118.372,-30.1489 106.898,-27.798 96.4143,-25.5096"/>
<polygon fill="midnightblue" stroke="midnightblue" points="400.516,-72.9835 410.844,-70.619 401.296,-66.0271 400.516,-72.9835"/>
</g>
<!-- Node3 -->
<g id="node3" class="node"><title>Node3</title>
<g id="a_node3"><a xlink:href="../../db/d4f/generic__networkhandler_8c.html" target="_top" xlink:title="This file includes all platform&#45;independent functions of the network handler to reduce code duplicati...">
<polygon fill="none" stroke="black" points="138.5,-6.5 138.5,-25.5 307.5,-25.5 307.5,-6.5 138.5,-6.5"/>
<text text-anchor="middle" x="223" y="-13.5" font-family="Helvetica,sans-Serif" font-size="10.00">src/ports/generic_networkhandler.c</text>
</a>
</g>
</g>
<!-- Node1&#45;&gt;Node3 -->
<g id="edge2" class="edge"><title>Node1&#45;&gt;Node3</title>
<path fill="none" stroke="midnightblue" d="M425.871,-66.0818C377.63,-54.4105 302.16,-36.1517 258.147,-25.5034"/>
<polygon fill="midnightblue" stroke="midnightblue" points="425.188,-69.5175 435.731,-68.4672 426.834,-62.7137 425.188,-69.5175"/>
</g>
<!-- Node4 -->
<g id="node4" class="node"><title>Node4</title>
<g id="a_node4"><a xlink:href="../../d8/d60/MINGW_2opener__error_8c.html" target="_top" xlink:title="src/ports/MINGW/opener\l_error.c">
<polygon fill="none" stroke="black" points="326,-1 326,-31 452,-31 452,-1 326,-1"/>
<text text-anchor="start" x="334" y="-19" font-family="Helvetica,sans-Serif" font-size="10.00">src/ports/MINGW/opener</text>
<text text-anchor="middle" x="389" y="-8" font-family="Helvetica,sans-Serif" font-size="10.00">_error.c</text>
</a>
</g>
</g>
<!-- Node1&#45;&gt;Node4 -->
<g id="edge3" class="edge"><title>Node1&#45;&gt;Node4</title>
<path fill="none" stroke="midnightblue" d="M450.973,-62.3459C437.99,-52.8461 421.167,-40.5369 408.326,-31.1408"/>
<polygon fill="midnightblue" stroke="midnightblue" points="449.114,-65.3229 459.251,-68.4035 453.248,-59.6737 449.114,-65.3229"/>
</g>
<!-- Node5 -->
<g id="node5" class="node"><title>Node5</title>
<g id="a_node5"><a xlink:href="../../d2/d5e/POSIX_2networkhandler_8c.html" target="_top" xlink:title="src/ports/POSIX/networkhandler.c">
<polygon fill="none" stroke="black" points="470,-6.5 470,-25.5 636,-25.5 636,-6.5 470,-6.5"/>
<text text-anchor="middle" x="553" y="-13.5" font-family="Helvetica,sans-Serif" font-size="10.00">src/ports/POSIX/networkhandler.c</text>
</a>
</g>
</g>
<!-- Node1&#45;&gt;Node5 -->
<g id="edge4" class="edge"><title>Node1&#45;&gt;Node5</title>
<path fill="none" stroke="midnightblue" d="M490.828,-62.4918C506.599,-50.952 528.13,-35.1976 541.273,-25.5806"/>
<polygon fill="midnightblue" stroke="midnightblue" points="488.752,-59.6737 482.749,-68.4035 492.886,-65.3229 488.752,-59.6737"/>
</g>
<!-- Node6 -->
<g id="node6" class="node"><title>Node6</title>
<g id="a_node6"><a xlink:href="../../db/dfa/POSIX_2opener__error_8c.html" target="_top" xlink:title="This file includes the prototypes for error resolution functions like strerror or WSAGetLastError...">
<polygon fill="none" stroke="black" points="654.5,-1 654.5,-31 775.5,-31 775.5,-1 654.5,-1"/>
<text text-anchor="start" x="662.5" y="-19" font-family="Helvetica,sans-Serif" font-size="10.00">src/ports/POSIX/opener</text>
<text text-anchor="middle" x="715" y="-8" font-family="Helvetica,sans-Serif" font-size="10.00">_error.c</text>
</a>
</g>
</g>
<!-- Node1&#45;&gt;Node6 -->
<g id="edge5" class="edge"><title>Node1&#45;&gt;Node6</title>
<path fill="none" stroke="midnightblue" d="M515.433,-66.0739C555.407,-56.2443 614.363,-41.7468 657.837,-31.0565"/>
<polygon fill="midnightblue" stroke="midnightblue" points="514.575,-62.6805 505.7,-68.4672 516.247,-69.478 514.575,-62.6805"/>
</g>
<!-- Node7 -->
<g id="node7" class="node"><title>Node7</title>
<g id="a_node7"><a xlink:href="../../d4/d99/WIN32_2opener__error_8c.html" target="_top" xlink:title="This file includes the prototypes for error resolution functions like strerror or WSAGetLastError...">
<polygon fill="none" stroke="black" points="793.5,-1 793.5,-31 914.5,-31 914.5,-1 793.5,-1"/>
<text text-anchor="start" x="801.5" y="-19" font-family="Helvetica,sans-Serif" font-size="10.00">src/ports/WIN32/opener</text>
<text text-anchor="middle" x="854" y="-8" font-family="Helvetica,sans-Serif" font-size="10.00">_error.c</text>
</a>
</g>
</g>
<!-- Node1&#45;&gt;Node7 -->
<g id="edge6" class="edge"><title>Node1&#45;&gt;Node7</title>
<path fill="none" stroke="midnightblue" d="M541.51,-68.2617C605.092,-60.0497 701.069,-46.8291 784,-32 787.059,-31.4531 790.187,-30.8699 793.344,-30.2628"/>
<polygon fill="midnightblue" stroke="midnightblue" points="540.672,-64.8404 531.2,-69.586 541.564,-71.7833 540.672,-64.8404"/>
</g>
</g>
</svg>
