<?xml version="1.0" encoding="UTF-8" standalone="no"?>
<!DOCTYPE svg PUBLIC "-//W3C//DTD SVG 1.1//EN"
 "http://www.w3.org/Graphics/SVG/1.1/DTD/svg11.dtd">
<!-- Generated by graphviz version 2.36.0 (20140111.2315)
 -->
<!-- Title: src/cip/cipethernetlink.h Pages: 1 -->
<svg width="1199pt" height="140pt"
 viewBox="0.00 0.00 1199.00 140.00" xmlns="http://www.w3.org/2000/svg" xmlns:xlink="http://www.w3.org/1999/xlink">
<g id="graph0" class="graph" transform="scale(1 1) rotate(0) translate(4 136)">
<title>src/cip/cipethernetlink.h</title>
<!-- Node1 -->
<g id="node1" class="node"><title>Node1</title>
<polygon fill="#bfbfbf" stroke="black" points="371,-112.5 371,-131.5 491,-131.5 491,-112.5 371,-112.5"/>
<text text-anchor="middle" x="431" y="-119.5" font-family="Helvetica,sans-Serif" font-size="10.00">src/cip/cipethernetlink.h</text>
</g>
<!-- Node2 -->
<g id="node2" class="node"><title>Node2</title>
<g id="a_node2"><a xlink:href="../../d2/d3d/cipcommon_8c.html" target="_top" xlink:title="src/cip/cipcommon.c">
<polygon fill="none" stroke="black" points="-0.5,-56.5 -0.5,-75.5 106.5,-75.5 106.5,-56.5 -0.5,-56.5"/>
<text text-anchor="middle" x="53" y="-63.5" font-family="Helvetica,sans-Serif" font-size="10.00">src/cip/cipcommon.c</text>
</a>
</g>
</g>
<!-- Node1&#45;&gt;Node2 -->
<g id="edge1" class="edge"><title>Node1&#45;&gt;Node2</title>
<path fill="none" stroke="midnightblue" d="M360.998,-111C287.397,-100.485 173.209,-84.1727 106.503,-74.6433"/>
<polygon fill="midnightblue" stroke="midnightblue" points="360.71,-114.494 371.105,-112.444 361.7,-107.564 360.71,-114.494"/>
</g>
<!-- Node3 -->
<g id="node3" class="node"><title>Node3</title>
<g id="a_node3"><a xlink:href="../../d7/d65/cipethernetlink_8c.html" target="_top" xlink:title="src/cip/cipethernetlink.c">
<polygon fill="none" stroke="black" points="125,-56.5 125,-75.5 245,-75.5 245,-56.5 125,-56.5"/>
<text text-anchor="middle" x="185" y="-63.5" font-family="Helvetica,sans-Serif" font-size="10.00">src/cip/cipethernetlink.c</text>
</a>
</g>
</g>
<!-- Node1&#45;&gt;Node3 -->
<g id="edge2" class="edge"><title>Node1&#45;&gt;Node3</title>
<path fill="none" stroke="midnightblue" d="M382.171,-110.281C335.684,-100.077 266.637,-84.9203 223.797,-75.5164"/>
<polygon fill="midnightblue" stroke="midnightblue" points="381.503,-113.718 392.021,-112.444 383.004,-106.881 381.503,-113.718"/>
</g>
<!-- Node4 -->
<g id="node4" class="node"><title>Node4</title>
<g id="a_node4"><a xlink:href="../../dd/d34/cipqos_8c.html" target="_top" xlink:title="src/cip/cipqos.c">
<polygon fill="none" stroke="black" points="263,-56.5 263,-75.5 349,-75.5 349,-56.5 263,-56.5"/>
<text text-anchor="middle" x="306" y="-63.5" font-family="Helvetica,sans-Serif" font-size="10.00">src/cip/cipqos.c</text>
</a>
</g>
</g>
<!-- Node1&#45;&gt;Node4 -->
<g id="edge3" class="edge"><title>Node1&#45;&gt;Node4</title>
<path fill="none" stroke="midnightblue" d="M401.759,-108.368C378.35,-98.2553 346.159,-84.3486 325.714,-75.5164"/>
<polygon fill="midnightblue" stroke="midnightblue" points="400.625,-111.691 411.193,-112.444 403.401,-105.265 400.625,-111.691"/>
</g>
<!-- Node5 -->
<g id="node5" class="node"><title>Node5</title>
<g id="a_node5"><a xlink:href="../../dd/d20/ciptcpipinterface_8c.html" target="_top" xlink:title="src/cip/ciptcpipinterface.c">
<polygon fill="none" stroke="black" points="367,-56.5 367,-75.5 495,-75.5 495,-56.5 367,-56.5"/>
<text text-anchor="middle" x="431" y="-63.5" font-family="Helvetica,sans-Serif" font-size="10.00">src/cip/ciptcpipinterface.c</text>
</a>
</g>
</g>
<!-- Node1&#45;&gt;Node5 -->
<g id="edge4" class="edge"><title>Node1&#45;&gt;Node5</title>
<path fill="none" stroke="midnightblue" d="M431,-101.805C431,-92.9102 431,-82.7798 431,-75.7511"/>
<polygon fill="midnightblue" stroke="midnightblue" points="427.5,-102.083 431,-112.083 434.5,-102.083 427.5,-102.083"/>
</g>
<!-- Node6 -->
<g id="node6" class="node"><title>Node6</title>
<g id="a_node6"><a xlink:href="../../dc/d2b/MINGW_2networkconfig_8c.html" target="_top" xlink:title="src/ports/MINGW/networkconfig.c">
<polygon fill="none" stroke="black" points="513,-56.5 513,-75.5 679,-75.5 679,-56.5 513,-56.5"/>
<text text-anchor="middle" x="596" y="-63.5" font-family="Helvetica,sans-Serif" font-size="10.00">src/ports/MINGW/networkconfig.c</text>
</a>
</g>
</g>
<!-- Node1&#45;&gt;Node6 -->
<g id="edge5" class="edge"><title>Node1&#45;&gt;Node6</title>
<path fill="none" stroke="midnightblue" d="M466.736,-109.304C497.827,-99.1294 542.147,-84.6246 569.978,-75.5164"/>
<polygon fill="midnightblue" stroke="midnightblue" points="465.56,-106.007 457.145,-112.444 467.737,-112.659 465.56,-106.007"/>
</g>
<!-- Node7 -->
<g id="node7" class="node"><title>Node7</title>
<g id="a_node7"><a xlink:href="../../dd/d6e/POSIX_2networkconfig_8h.html" target="_top" xlink:title="src/ports/POSIX/networkconfig.h">
<polygon fill="none" stroke="black" points="697.5,-56.5 697.5,-75.5 858.5,-75.5 858.5,-56.5 697.5,-56.5"/>
<text text-anchor="middle" x="778" y="-63.5" font-family="Helvetica,sans-Serif" font-size="10.00">src/ports/POSIX/networkconfig.h</text>
</a>
</g>
</g>
<!-- Node1&#45;&gt;Node7 -->
<g id="edge6" class="edge"><title>Node1&#45;&gt;Node7</title>
<path fill="none" stroke="midnightblue" d="M496.199,-110.854C561.762,-100.651 661.705,-85.0977 723.274,-75.5164"/>
<polygon fill="midnightblue" stroke="midnightblue" points="495.326,-107.447 485.983,-112.444 496.402,-114.364 495.326,-107.447"/>
</g>
<!-- Node10 -->
<g id="node10" class="node"><title>Node10</title>
<g id="a_node10"><a xlink:href="../../dc/d39/WIN32_2networkconfig_8h.html" target="_top" xlink:title="src/ports/WIN32/networkconfig.h">
<polygon fill="none" stroke="black" points="876.5,-56.5 876.5,-75.5 1037.5,-75.5 1037.5,-56.5 876.5,-56.5"/>
<text text-anchor="middle" x="957" y="-63.5" font-family="Helvetica,sans-Serif" font-size="10.00">src/ports/WIN32/networkconfig.h</text>
</a>
</g>
</g>
<!-- Node1&#45;&gt;Node10 -->
<g id="edge9" class="edge"><title>Node1&#45;&gt;Node10</title>
<path fill="none" stroke="midnightblue" d="M501.105,-113.803C598.336,-103.821 773.71,-85.8169 876.284,-75.2865"/>
<polygon fill="midnightblue" stroke="midnightblue" points="500.673,-110.329 491.083,-114.832 501.388,-117.292 500.673,-110.329"/>
</g>
<!-- Node8 -->
<g id="node8" class="node"><title>Node8</title>
<g id="a_node8"><a xlink:href="../../d9/dfb/POSIX_2main_8c.html" target="_top" xlink:title="src/ports/POSIX/main.c">
<polygon fill="none" stroke="black" points="563.5,-0.5 563.5,-19.5 684.5,-19.5 684.5,-0.5 563.5,-0.5"/>
<text text-anchor="middle" x="624" y="-7.5" font-family="Helvetica,sans-Serif" font-size="10.00">src/ports/POSIX/main.c</text>
</a>
</g>
</g>
<!-- Node7&#45;&gt;Node8 -->
<g id="edge7" class="edge"><title>Node7&#45;&gt;Node8</title>
<path fill="none" stroke="midnightblue" d="M743.889,-53.0392C714.913,-42.8786 674.038,-28.5457 648.288,-19.5164"/>
<polygon fill="midnightblue" stroke="midnightblue" points="743.003,-56.4373 753.598,-56.4435 745.32,-49.8317 743.003,-56.4373"/>
</g>
<!-- Node9 -->
<g id="node9" class="node"><title>Node9</title>
<g id="a_node9"><a xlink:href="../../df/def/POSIX_2networkconfig_8c.html" target="_top" xlink:title="src/ports/POSIX/networkconfig.c">
<polygon fill="none" stroke="black" points="702.5,-0.5 702.5,-19.5 863.5,-19.5 863.5,-0.5 702.5,-0.5"/>
<text text-anchor="middle" x="783" y="-7.5" font-family="Helvetica,sans-Serif" font-size="10.00">src/ports/POSIX/networkconfig.c</text>
</a>
</g>
</g>
<!-- Node7&#45;&gt;Node9 -->
<g id="edge8" class="edge"><title>Node7&#45;&gt;Node9</title>
<path fill="none" stroke="midnightblue" d="M779.75,-46.1005C780.58,-37.1357 781.532,-26.8579 782.19,-19.7511"/>
<polygon fill="midnightblue" stroke="midnightblue" points="776.263,-45.8029 778.826,-56.083 783.233,-46.4483 776.263,-45.8029"/>
</g>
<!-- Node11 -->
<g id="node11" class="node"><title>Node11</title>
<g id="a_node11"><a xlink:href="../../dc/db2/WIN32_2main_8c.html" target="_top" xlink:title="src/ports/WIN32/main.c">
<polygon fill="none" stroke="black" points="891.5,-0.5 891.5,-19.5 1012.5,-19.5 1012.5,-0.5 891.5,-0.5"/>
<text text-anchor="middle" x="952" y="-7.5" font-family="Helvetica,sans-Serif" font-size="10.00">src/ports/WIN32/main.c</text>
</a>
</g>
</g>
<!-- Node10&#45;&gt;Node11 -->
<g id="edge10" class="edge"><title>Node10&#45;&gt;Node11</title>
<path fill="none" stroke="midnightblue" d="M955.25,-46.1005C954.42,-37.1357 953.468,-26.8579 952.81,-19.7511"/>
<polygon fill="midnightblue" stroke="midnightblue" points="951.767,-46.4483 956.174,-56.083 958.737,-45.8029 951.767,-46.4483"/>
</g>
<!-- Node12 -->
<g id="node12" class="node"><title>Node12</title>
<g id="a_node12"><a xlink:href="../../d2/d9c/WIN32_2networkconfig_8c.html" target="_top" xlink:title="src/ports/WIN32/networkconfig.c">
<polygon fill="none" stroke="black" points="1030.5,-0.5 1030.5,-19.5 1191.5,-19.5 1191.5,-0.5 1030.5,-0.5"/>
<text text-anchor="middle" x="1111" y="-7.5" font-family="Helvetica,sans-Serif" font-size="10.00">src/ports/WIN32/networkconfig.c</text>
</a>
</g>
</g>
<!-- Node10&#45;&gt;Node12 -->
<g id="edge11" class="edge"><title>Node10&#45;&gt;Node12</title>
<path fill="none" stroke="midnightblue" d="M991.111,-53.0392C1020.09,-42.8786 1060.96,-28.5457 1086.71,-19.5164"/>
<polygon fill="midnightblue" stroke="midnightblue" points="989.68,-49.8317 981.402,-56.4435 991.997,-56.4373 989.68,-49.8317"/>
</g>
</g>
</svg>
