<?xml version="1.0" encoding="UTF-8" standalone="no"?>
<!DOCTYPE svg PUBLIC "-//W3C//DTD SVG 1.1//EN"
 "http://www.w3.org/Graphics/SVG/1.1/DTD/svg11.dtd">
<!-- Generated by graphviz version 2.26.3 (20100126.1600)
 -->
<!-- Title: G Pages: 1 -->
<!--zoomable 146 -->
<svg id="main" version="1.1" xmlns="http://www.w3.org/2000/svg" xmlns:xlink="http://www.w3.org/1999/xlink" xml:space="preserve" onload="init(evt)">
        <defs>
                <circle id="rim" cx="0" cy="0" r="7"/>
                <circle id="rim2" cx="0" cy="0" r="3.5"/>
                <g id="zoomPlus">
                        <use xlink:href="#rim" fill="#404040">
                                <set attributeName="fill" to="#808080" begin="zoomplus.mouseover" end="zoomplus.mouseout"/>
                        </use>
                        <path d="M-4,0h8M0,-4v8" fill="none" stroke="white" stroke-width="1.5" pointer-events="none"/>
                </g>
                <g id="zoomMin">
                        <use xlink:href="#rim" fill="#404040">
                                <set attributeName="fill" to="#808080" begin="zoomminus.mouseover" end="zoomminus.mouseout"/>
                        </use>
                        <path d="M-4,0h8" fill="none" stroke="white" stroke-width="1.5" pointer-events="none"/>
                </g>
                <g id="dirArrow">
                        <path fill="none" stroke="white" stroke-width="1.5" d="M0,-3.0v7 M-2.5,-0.5L0,-3.0L2.5,-0.5"/>
                </g>
               <g id="resetDef">
                       <use xlink:href="#rim2" fill="#404040">
                               <set attributeName="fill" to="#808080" begin="reset.mouseover" end="reset.mouseout"/>
                       </use>
               </g>
        </defs>

<script type="text/javascript">
var viewWidth = 1011;
var viewHeight = 146;
var sectionId = 'dynsection-1';
</script>
<script xlink:href="../../svgpan.js"/>
<svg id="graph" class="graph">
<g id="viewport">
<title>G</title>
<!-- Node1 -->
<g id="node1" class="node"><title>Node1</title>
<polygon fill="#bfbfbf" stroke="black" points="307,-116.5 307,-137.5 427,-137.5 427,-116.5 307,-116.5"/>
<text text-anchor="middle" x="367" y="-124.5" font-family="Helvetica,sans-Serif" font-size="10.00">src/cip/cipethernetlink.h</text>
</g>
<!-- Node2 -->
<g id="node3" class="node"><title>Node2</title>
<a xlink:href="../../d2/d3d/cipcommon_8c.html" target="_top" xlink:title="src/cip/cipcommon.c">
<polygon fill="none" stroke="black" points="-0.5,-58.5 -0.5,-79.5 106.5,-79.5 106.5,-58.5 -0.5,-58.5"/>
<text text-anchor="middle" x="53" y="-66.5" font-family="Helvetica,sans-Serif" font-size="10.00">src/cip/cipcommon.c</text>
</a>
</g>
<!-- Node1&#45;&gt;Node2 -->
<g id="edge2" class="edge"><title>Node1&#45;&gt;Node2</title>
<path fill="none" stroke="midnightblue" d="M300.014,-114.627C242.275,-103.962 160.006,-88.7655 106.558,-78.893"/>
<polygon fill="midnightblue" stroke="midnightblue" points="299.668,-118.122 310.137,-116.497 300.939,-111.238 299.668,-118.122"/>
</g>
<!-- Node3 -->
<g id="node5" class="node"><title>Node3</title>
<a xlink:href="../../d7/d65/cipethernetlink_8c.html" target="_top" xlink:title="src/cip/cipethernetlink.c">
<polygon fill="none" stroke="black" points="124,-58.5 124,-79.5 244,-79.5 244,-58.5 124,-58.5"/>
<text text-anchor="middle" x="184" y="-66.5" font-family="Helvetica,sans-Serif" font-size="10.00">src/cip/cipethernetlink.c</text>
</a>
</g>
<!-- Node1&#45;&gt;Node3 -->
<g id="edge4" class="edge"><title>Node1&#45;&gt;Node3</title>
<path fill="none" stroke="midnightblue" d="M324.13,-113.413C291.48,-103.065 247.185,-89.0258 217.202,-79.5231"/>
<polygon fill="midnightblue" stroke="midnightblue" points="323.27,-116.812 333.86,-116.497 325.385,-110.139 323.27,-116.812"/>
</g>
<!-- Node4 -->
<g id="node7" class="node"><title>Node4</title>
<a xlink:href="../../dd/d34/cipqos_8c.html" target="_top" xlink:title="src/cip/cipqos.c">
<polygon fill="none" stroke="black" points="262,-58.5 262,-79.5 348,-79.5 348,-58.5 262,-58.5"/>
<text text-anchor="middle" x="305" y="-66.5" font-family="Helvetica,sans-Serif" font-size="10.00">src/cip/cipqos.c</text>
</a>
</g>
<!-- Node1&#45;&gt;Node4 -->
<g id="edge6" class="edge"><title>Node1&#45;&gt;Node4</title>
<path fill="none" stroke="midnightblue" d="M348.192,-109.405C337.783,-99.6683 325.194,-87.8914 316.3,-79.5707"/>
<polygon fill="midnightblue" stroke="midnightblue" points="345.934,-112.086 355.628,-116.362 350.717,-106.974 345.934,-112.086"/>
</g>
<!-- Node5 -->
<g id="node9" class="node"><title>Node5</title>
<a xlink:href="../../dd/d20/ciptcpipinterface_8c.html" target="_top" xlink:title="src/cip/ciptcpipinterface.c">
<polygon fill="none" stroke="black" points="366,-58.5 366,-79.5 494,-79.5 494,-58.5 366,-58.5"/>
<text text-anchor="middle" x="430" y="-66.5" font-family="Helvetica,sans-Serif" font-size="10.00">src/cip/ciptcpipinterface.c</text>
</a>
</g>
<!-- Node1&#45;&gt;Node5 -->
<g id="edge8" class="edge"><title>Node1&#45;&gt;Node5</title>
<path fill="none" stroke="midnightblue" d="M386.112,-109.405C396.688,-99.6683 409.48,-87.8914 418.518,-79.5707"/>
<polygon fill="midnightblue" stroke="midnightblue" points="383.542,-107.014 378.555,-116.362 388.283,-112.164 383.542,-107.014"/>
</g>
<!-- Node6 -->
<g id="node11" class="node"><title>Node6</title>
<a xlink:href="../../dd/d6e/POSIX_2networkconfig_8h.html" target="_top" xlink:title="src/ports/POSIX/networkconfig.h">
<polygon fill="none" stroke="black" points="511.5,-58.5 511.5,-79.5 672.5,-79.5 672.5,-58.5 511.5,-58.5"/>
<text text-anchor="middle" x="592" y="-66.5" font-family="Helvetica,sans-Serif" font-size="10.00">src/ports/POSIX/networkconfig.h</text>
</a>
</g>
<!-- Node1&#45;&gt;Node6 -->
<g id="edge10" class="edge"><title>Node1&#45;&gt;Node6</title>
<path fill="none" stroke="midnightblue" d="M417.646,-113.945C457.97,-103.55 513.678,-89.1897 551.178,-79.5231"/>
<polygon fill="midnightblue" stroke="midnightblue" points="416.556,-110.611 407.746,-116.497 418.303,-117.39 416.556,-110.611"/>
</g>
<!-- Node9 -->
<g id="node17" class="node"><title>Node9</title>
<a xlink:href="../../dc/d39/WIN32_2networkconfig_8h.html" target="_top" xlink:title="src/ports/WIN32/networkconfig.h">
<polygon fill="none" stroke="black" points="689.5,-58.5 689.5,-79.5 850.5,-79.5 850.5,-58.5 689.5,-58.5"/>
<text text-anchor="middle" x="770" y="-66.5" font-family="Helvetica,sans-Serif" font-size="10.00">src/ports/WIN32/networkconfig.h</text>
</a>
</g>
<!-- Node1&#45;&gt;Node9 -->
<g id="edge16" class="edge"><title>Node1&#45;&gt;Node9</title>
<path fill="none" stroke="midnightblue" d="M437.324,-116.879C510.082,-106.408 623.198,-90.1279 696.947,-79.5139"/>
<polygon fill="midnightblue" stroke="midnightblue" points="436.733,-113.428 427.333,-118.317 437.73,-120.357 436.733,-113.428"/>
</g>
<!-- Node7 -->
<g id="node13" class="node"><title>Node7</title>
<a xlink:href="../../d9/dfb/POSIX_2main_8c.html" target="_top" xlink:title="src/ports/POSIX/main.c">
<polygon fill="none" stroke="black" points="378.5,-0.5 378.5,-21.5 499.5,-21.5 499.5,-0.5 378.5,-0.5"/>
<text text-anchor="middle" x="439" y="-8.5" font-family="Helvetica,sans-Serif" font-size="10.00">src/ports/POSIX/main.c</text>
</a>
</g>
<!-- Node6&#45;&gt;Node7 -->
<g id="edge12" class="edge"><title>Node6&#45;&gt;Node7</title>
<path fill="none" stroke="midnightblue" d="M554.737,-54.8742C527.587,-44.5819 491.395,-30.862 466.759,-21.5231"/>
<polygon fill="midnightblue" stroke="midnightblue" points="553.702,-58.2246 564.293,-58.4966 556.183,-51.6791 553.702,-58.2246"/>
</g>
<!-- Node8 -->
<g id="node15" class="node"><title>Node8</title>
<a xlink:href="../../df/def/POSIX_2networkconfig_8c.html" target="_top" xlink:title="src/ports/POSIX/networkconfig.c">
<polygon fill="none" stroke="black" points="516.5,-0.5 516.5,-21.5 677.5,-21.5 677.5,-0.5 516.5,-0.5"/>
<text text-anchor="middle" x="597" y="-8.5" font-family="Helvetica,sans-Serif" font-size="10.00">src/ports/POSIX/networkconfig.c</text>
</a>
</g>
<!-- Node6&#45;&gt;Node8 -->
<g id="edge14" class="edge"><title>Node6&#45;&gt;Node8</title>
<path fill="none" stroke="midnightblue" d="M593.794,-48.1906C594.572,-39.1684 595.449,-28.9941 596.089,-21.5707"/>
<polygon fill="midnightblue" stroke="midnightblue" points="590.289,-48.0982 592.917,-58.3619 597.263,-48.6995 590.289,-48.0982"/>
</g>
<!-- Node10 -->
<g id="node19" class="node"><title>Node10</title>
<a xlink:href="../../dc/db2/WIN32_2main_8c.html" target="_top" xlink:title="src/ports/WIN32/main.c">
<polygon fill="none" stroke="black" points="704.5,-0.5 704.5,-21.5 825.5,-21.5 825.5,-0.5 704.5,-0.5"/>
<text text-anchor="middle" x="765" y="-8.5" font-family="Helvetica,sans-Serif" font-size="10.00">src/ports/WIN32/main.c</text>
</a>
</g>
<!-- Node9&#45;&gt;Node10 -->
<g id="edge18" class="edge"><title>Node9&#45;&gt;Node10</title>
<path fill="none" stroke="midnightblue" d="M768.206,-48.1906C767.428,-39.1684 766.551,-28.9941 765.911,-21.5707"/>
<polygon fill="midnightblue" stroke="midnightblue" points="764.737,-48.6995 769.083,-58.3619 771.711,-48.0982 764.737,-48.6995"/>
</g>
<!-- Node11 -->
<g id="node21" class="node"><title>Node11</title>
<a xlink:href="../../d2/d9c/WIN32_2networkconfig_8c.html" target="_top" xlink:title="src/ports/WIN32/networkconfig.c">
<polygon fill="none" stroke="black" points="842.5,-0.5 842.5,-21.5 1003.5,-21.5 1003.5,-0.5 842.5,-0.5"/>
<text text-anchor="middle" x="923" y="-8.5" font-family="Helvetica,sans-Serif" font-size="10.00">src/ports/WIN32/networkconfig.c</text>
</a>
</g>
<!-- Node9&#45;&gt;Node11 -->
<g id="edge20" class="edge"><title>Node9&#45;&gt;Node11</title>
<path fill="none" stroke="midnightblue" d="M807.263,-54.8742C834.413,-44.5819 870.605,-30.862 895.241,-21.5231"/>
<polygon fill="midnightblue" stroke="midnightblue" points="805.817,-51.6791 797.707,-58.4966 808.298,-58.2246 805.817,-51.6791"/>
</g>
</g>
</svg>
        <g id="navigator" transform="translate(0 0)" fill="#404254">
                <rect fill="#f2f5e9" fill-opacity="0.5" stroke="#606060" stroke-width=".5" x="0" y="0" width="60" height="60"/>
                <use id="zoomplus" xlink:href="#zoomPlus" x="17" y="9" onmousedown="handleZoom(evt,'in')"/>
                <use id="zoomminus" xlink:href="#zoomMin" x="42" y="9" onmousedown="handleZoom(evt,'out')"/>
                <use id="reset" xlink:href="#resetDef" x="30" y="36" onmousedown="handleReset()"/>
                <g id="arrowUp" xlink:href="#dirArrow" transform="translate(30 24)" onmousedown="handlePan(0,-1)">
                  <use xlink:href="#rim" fill="#404040">
                        <set attributeName="fill" to="#808080" begin="arrowUp.mouseover" end="arrowUp.mouseout"/>
                  </use>
                  <path fill="none" stroke="white" stroke-width="1.5" d="M0,-3.0v7 M-2.5,-0.5L0,-3.0L2.5,-0.5"/>
                </g>
                <g id="arrowRight" xlink:href="#dirArrow" transform="rotate(90) translate(36 -43)" onmousedown="handlePan(1,0)">
                  <use xlink:href="#rim" fill="#404040">
                        <set attributeName="fill" to="#808080" begin="arrowRight.mouseover" end="arrowRight.mouseout"/>
                  </use>
                  <path fill="none" stroke="white" stroke-width="1.5" d="M0,-3.0v7 M-2.5,-0.5L0,-3.0L2.5,-0.5"/>
                </g>
                <g id="arrowDown" xlink:href="#dirArrow" transform="rotate(180) translate(-30 -48)" onmousedown="handlePan(0,1)">
                  <use xlink:href="#rim" fill="#404040">
                        <set attributeName="fill" to="#808080" begin="arrowDown.mouseover" end="arrowDown.mouseout"/>
                  </use>
                  <path fill="none" stroke="white" stroke-width="1.5" d="M0,-3.0v7 M-2.5,-0.5L0,-3.0L2.5,-0.5"/>
                </g>
                <g id="arrowLeft" xlink:href="#dirArrow" transform="rotate(270) translate(-36 17)" onmousedown="handlePan(-1,0)">
                  <use xlink:href="#rim" fill="#404040">
                        <set attributeName="fill" to="#808080" begin="arrowLeft.mouseover" end="arrowLeft.mouseout"/>
                  </use>
                  <path fill="none" stroke="white" stroke-width="1.5" d="M0,-3.0v7 M-2.5,-0.5L0,-3.0L2.5,-0.5"/>
                </g>
        </g>
</svg>
