<?xml version="1.0" encoding="UTF-8" standalone="no"?>
<!DOCTYPE svg PUBLIC "-//W3C//DTD SVG 1.1//EN"
 "http://www.w3.org/Graphics/SVG/1.1/DTD/svg11.dtd">
<!-- Generated by graphviz version 2.38.0 (20140413.2041)
 -->
<!-- Title: CIPUnconnectedSendParam Pages: 1 -->
<svg width="340pt" height="162pt"
 viewBox="0.00 0.00 340.00 162.00" xmlns="http://www.w3.org/2000/svg" xmlns:xlink="http://www.w3.org/1999/xlink">
<g id="graph0" class="graph" transform="scale(1 1) rotate(0) translate(4 158)">
<title>CIPUnconnectedSendParam</title>
<!-- Node1 -->
<g id="node1" class="node"><title>Node1</title>
<polygon fill="#bfbfbf" stroke="black" points="66.5,-0.5 66.5,-19.5 209.5,-19.5 209.5,-0.5 66.5,-0.5"/>
<text text-anchor="middle" x="138" y="-7.5" font-family="Helvetica,sans-Serif" font-size="10.00">CIPUnconnectedSendParam</text>
</g>
<!-- Node2 -->
<g id="node2" class="node"><title>Node2</title>
<g id="a_node2"><a xlink:href="../../d7/da1/structCIPRPath.html" target="_top" xlink:title="CIPRPath">
<polygon fill="none" stroke="black" points="0,-67.5 0,-86.5 62,-86.5 62,-67.5 0,-67.5"/>
<text text-anchor="middle" x="31" y="-74.5" font-family="Helvetica,sans-Serif" font-size="10.00">CIPRPath</text>
</a>
</g>
</g>
<!-- Node2&#45;&gt;Node1 -->
<g id="edge1" class="edge"><title>Node2&#45;&gt;Node1</title>
<path fill="none" stroke="#9a32cd" stroke-dasharray="5,2" d="M48.0963,-60.8107C56.9456,-53.3872 68.1467,-44.6454 79,-38 90.7204,-30.8237 104.669,-24.3553 116.061,-19.5499"/>
<polygon fill="#9a32cd" stroke="#9a32cd" points="45.7197,-58.2382 40.4206,-67.4126 50.2844,-63.5452 45.7197,-58.2382"/>
<text text-anchor="middle" x="106.5" y="-41" font-family="Helvetica,sans-Serif" font-size="10.00"> Route_Path</text>
</g>
<!-- Node3 -->
<g id="node3" class="node"><title>Node3</title>
<g id="a_node3"><a xlink:href="../../de/dba/structS__CIP__MR__Response.html" target="_top" xlink:title="S_CIP_MR_Response">
<polygon fill="none" stroke="black" points="80,-67.5 80,-86.5 196,-86.5 196,-67.5 80,-67.5"/>
<text text-anchor="middle" x="138" y="-74.5" font-family="Helvetica,sans-Serif" font-size="10.00">S_CIP_MR_Response</text>
</a>
</g>
</g>
<!-- Node3&#45;&gt;Node1 -->
<g id="edge2" class="edge"><title>Node3&#45;&gt;Node1</title>
<path fill="none" stroke="#9a32cd" stroke-dasharray="5,2" d="M138,-57.037C138,-44.6703 138,-29.1198 138,-19.6273"/>
<polygon fill="#9a32cd" stroke="#9a32cd" points="134.5,-57.2338 138,-67.2338 141.5,-57.2338 134.5,-57.2338"/>
<text text-anchor="middle" x="184.5" y="-41" font-family="Helvetica,sans-Serif" font-size="10.00"> Message_Response</text>
</g>
<!-- Node4 -->
<g id="node4" class="node"><title>Node4</title>
<g id="a_node4"><a xlink:href="../../de/d0f/structS__CIP__MR__Request.html" target="_top" xlink:title="S_CIP_MR_Request">
<polygon fill="none" stroke="black" points="214.5,-67.5 214.5,-86.5 323.5,-86.5 323.5,-67.5 214.5,-67.5"/>
<text text-anchor="middle" x="269" y="-74.5" font-family="Helvetica,sans-Serif" font-size="10.00">S_CIP_MR_Request</text>
</a>
</g>
</g>
<!-- Node4&#45;&gt;Node1 -->
<g id="edge3" class="edge"><title>Node4&#45;&gt;Node1</title>
<path fill="none" stroke="#9a32cd" stroke-dasharray="5,2" d="M257.508,-59.2846C251.578,-51.7947 243.754,-43.4419 235,-38 221.268,-29.4633 204.795,-23.5706 189.355,-19.5258"/>
<polygon fill="#9a32cd" stroke="#9a32cd" points="254.785,-61.489 263.54,-67.4547 260.416,-57.331 254.785,-61.489"/>
<text text-anchor="middle" x="289.5" y="-41" font-family="Helvetica,sans-Serif" font-size="10.00"> Message_Request</text>
</g>
<!-- Node5 -->
<g id="node5" class="node"><title>Node5</title>
<g id="a_node5"><a xlink:href="../../dd/d36/structCIPEPath.html" target="_top" xlink:title="CIPEPath">
<polygon fill="none" stroke="black" points="238.5,-134.5 238.5,-153.5 299.5,-153.5 299.5,-134.5 238.5,-134.5"/>
<text text-anchor="middle" x="269" y="-141.5" font-family="Helvetica,sans-Serif" font-size="10.00">CIPEPath</text>
</a>
</g>
</g>
<!-- Node5&#45;&gt;Node4 -->
<g id="edge4" class="edge"><title>Node5&#45;&gt;Node4</title>
<path fill="none" stroke="#9a32cd" stroke-dasharray="5,2" d="M269,-124.037C269,-111.67 269,-96.1198 269,-86.6273"/>
<polygon fill="#9a32cd" stroke="#9a32cd" points="265.5,-124.234 269,-134.234 272.5,-124.234 265.5,-124.234"/>
<text text-anchor="middle" x="299.5" y="-108" font-family="Helvetica,sans-Serif" font-size="10.00"> RequestPath</text>
</g>
</g>
</svg>
