<?xml version="1.0" encoding="UTF-8" standalone="no"?>
<!DOCTYPE svg PUBLIC "-//W3C//DTD SVG 1.1//EN"
 "http://www.w3.org/Graphics/SVG/1.1/DTD/svg11.dtd">
<!-- Generated by graphviz version 2.26.3 (20100126.1600)
 -->
<!-- Title: G Pages: 1 -->
<svg width="435pt" height="320pt"
 viewBox="0.00 0.00 435.00 320.00" xmlns="http://www.w3.org/2000/svg" xmlns:xlink="http://www.w3.org/1999/xlink">
<g id="graph1" class="graph" transform="scale(1 1) rotate(0) translate(4 316)">
<title>G</title>
<!-- Node1 -->
<g id="node1" class="node"><title>Node1</title>
<polygon fill="#bfbfbf" stroke="black" points="234,-290.5 234,-311.5 320,-311.5 320,-290.5 234,-290.5"/>
<text text-anchor="middle" x="277" y="-298.5" font-family="Helvetica,sans-Serif" font-size="10.00">src/cip/cipqos.h</text>
</g>
<!-- Node2 -->
<g id="node3" class="node"><title>Node2</title>
<a xlink:href="../../d7/d69/typedefs_8h.html" target="_top" xlink:title="typedefs.h">
<polygon fill="none" stroke="black" points="296,-58.5 296,-79.5 358,-79.5 358,-58.5 296,-58.5"/>
<text text-anchor="middle" x="327" y="-66.5" font-family="Helvetica,sans-Serif" font-size="10.00">typedefs.h</text>
</a>
</g>
<!-- Node1&#45;&gt;Node2 -->
<g id="edge2" class="edge"><title>Node1&#45;&gt;Node2</title>
<path fill="none" stroke="midnightblue" d="M298.854,-290.359C313.943,-282.127 333.624,-269.526 347,-254 384.24,-210.772 389.472,-193.665 402,-138 404.147,-128.461 406.735,-124.555 402,-116 394.187,-101.883 380.166,-91.44 366.344,-84.0316"/>
<polygon fill="midnightblue" stroke="midnightblue" points="367.873,-80.8831 357.357,-79.5933 364.773,-87.1595 367.873,-80.8831"/>
</g>
<!-- Node6 -->
<g id="node11" class="node"><title>Node6</title>
<a xlink:href="../../df/d28/ciptypes_8h.html" target="_top" xlink:title="ciptypes.h">
<polygon fill="none" stroke="black" points="14,-116.5 14,-137.5 76,-137.5 76,-116.5 14,-116.5"/>
<text text-anchor="middle" x="45" y="-124.5" font-family="Helvetica,sans-Serif" font-size="10.00">ciptypes.h</text>
</a>
</g>
<!-- Node1&#45;&gt;Node6 -->
<g id="edge10" class="edge"><title>Node1&#45;&gt;Node6</title>
<path fill="none" stroke="midnightblue" d="M260.358,-290.321C246.025,-281.006 224.885,-266.988 207,-254 154.929,-216.187 95.9586,-168.733 65.558,-143.91"/>
<polygon fill="midnightblue" stroke="midnightblue" points="67.7257,-141.162 57.7706,-137.536 63.2918,-146.578 67.7257,-141.162"/>
</g>
<!-- Node8 -->
<g id="node16" class="node"><title>Node8</title>
<a xlink:href="../../d2/da3/cipconnectionmanager_8h.html" target="_top" xlink:title="cipconnectionmanager.h">
<polygon fill="none" stroke="black" points="216,-232.5 216,-253.5 338,-253.5 338,-232.5 216,-232.5"/>
<text text-anchor="middle" x="277" y="-240.5" font-family="Helvetica,sans-Serif" font-size="10.00">cipconnectionmanager.h</text>
</a>
</g>
<!-- Node1&#45;&gt;Node8 -->
<g id="edge16" class="edge"><title>Node1&#45;&gt;Node8</title>
<path fill="none" stroke="midnightblue" d="M277,-290.362C277,-282.922 277,-272.743 277,-263.728"/>
<polygon fill="midnightblue" stroke="midnightblue" points="280.5,-263.571 277,-253.571 273.5,-263.571 280.5,-263.571"/>
</g>
<!-- Node3 -->
<g id="node5" class="node"><title>Node3</title>
<polygon fill="none" stroke="#bfbfbf" points="224.5,-0.5 224.5,-21.5 283.5,-21.5 283.5,-0.5 224.5,-0.5"/>
<text text-anchor="middle" x="254" y="-8.5" font-family="Helvetica,sans-Serif" font-size="10.00">inttypes.h</text>
</g>
<!-- Node2&#45;&gt;Node3 -->
<g id="edge4" class="edge"><title>Node2&#45;&gt;Node3</title>
<path fill="none" stroke="midnightblue" d="M313.611,-58.3619C302.909,-49.859 287.704,-37.7785 275.329,-27.9466"/>
<polygon fill="midnightblue" stroke="midnightblue" points="277.311,-25.0511 267.304,-21.5707 272.957,-30.5318 277.311,-25.0511"/>
</g>
<!-- Node4 -->
<g id="node7" class="node"><title>Node4</title>
<polygon fill="none" stroke="#bfbfbf" points="301,-0.5 301,-21.5 353,-21.5 353,-0.5 301,-0.5"/>
<text text-anchor="middle" x="327" y="-8.5" font-family="Helvetica,sans-Serif" font-size="10.00">stddef.h</text>
</g>
<!-- Node2&#45;&gt;Node4 -->
<g id="edge6" class="edge"><title>Node2&#45;&gt;Node4</title>
<path fill="none" stroke="midnightblue" d="M327,-58.3619C327,-50.9219 327,-40.7427 327,-31.7276"/>
<polygon fill="midnightblue" stroke="midnightblue" points="330.5,-31.5706 327,-21.5707 323.5,-31.5707 330.5,-31.5706"/>
</g>
<!-- Node5 -->
<g id="node9" class="node"><title>Node5</title>
<polygon fill="none" stroke="#bfbfbf" points="371,-0.5 371,-21.5 427,-21.5 427,-0.5 371,-0.5"/>
<text text-anchor="middle" x="399" y="-8.5" font-family="Helvetica,sans-Serif" font-size="10.00">stdbool.h</text>
</g>
<!-- Node2&#45;&gt;Node5 -->
<g id="edge8" class="edge"><title>Node2&#45;&gt;Node5</title>
<path fill="none" stroke="midnightblue" d="M340.206,-58.3619C350.761,-49.859 365.758,-37.7785 377.963,-27.9466"/>
<polygon fill="midnightblue" stroke="midnightblue" points="380.286,-30.5696 385.878,-21.5707 375.895,-25.1183 380.286,-30.5696"/>
</g>
<!-- Node6&#45;&gt;Node2 -->
<g id="edge12" class="edge"><title>Node6&#45;&gt;Node2</title>
<path fill="none" stroke="midnightblue" d="M76.3848,-118.125C79.29,-117.377 82.195,-116.657 85,-116 155.074,-99.5854 237.509,-84.4556 285.828,-76.0054"/>
<polygon fill="midnightblue" stroke="midnightblue" points="286.643,-79.4164 295.895,-74.2553 285.444,-72.5198 286.643,-79.4164"/>
</g>
<!-- Node7 -->
<g id="node14" class="node"><title>Node7</title>
<polygon fill="none" stroke="#bfbfbf" points="-0.5,-58.5 -0.5,-79.5 90.5,-79.5 90.5,-58.5 -0.5,-58.5"/>
<text text-anchor="middle" x="45" y="-66.5" font-family="Helvetica,sans-Serif" font-size="10.00">networkhandler.h</text>
</g>
<!-- Node6&#45;&gt;Node7 -->
<g id="edge14" class="edge"><title>Node6&#45;&gt;Node7</title>
<path fill="none" stroke="midnightblue" d="M45,-116.362C45,-108.922 45,-98.7427 45,-89.7276"/>
<polygon fill="midnightblue" stroke="midnightblue" points="48.5001,-89.5706 45,-79.5707 41.5001,-89.5707 48.5001,-89.5706"/>
</g>
<!-- Node8&#45;&gt;Node2 -->
<g id="edge32" class="edge"><title>Node8&#45;&gt;Node2</title>
<path fill="none" stroke="midnightblue" d="M295.385,-232.284C321.518,-215.851 368.305,-181.69 387,-138 390.847,-129.011 391.281,-124.791 387,-116 380.722,-103.107 369.006,-92.7071 357.582,-85.0001"/>
<polygon fill="midnightblue" stroke="midnightblue" points="359.333,-81.9668 348.998,-79.6346 355.623,-87.9028 359.333,-81.9668"/>
</g>
<!-- Node8&#45;&gt;Node6 -->
<g id="edge34" class="edge"><title>Node8&#45;&gt;Node6</title>
<path fill="none" stroke="midnightblue" d="M255.59,-232.295C214.137,-211.568 122.818,-165.909 75.2099,-142.105"/>
<polygon fill="midnightblue" stroke="midnightblue" points="76.5329,-138.853 66.0233,-137.512 73.4023,-145.114 76.5329,-138.853"/>
</g>
<!-- Node9 -->
<g id="node18" class="node"><title>Node9</title>
<polygon fill="none" stroke="#bfbfbf" points="276,-116.5 276,-137.5 378,-137.5 378,-116.5 276,-116.5"/>
<text text-anchor="middle" x="327" y="-124.5" font-family="Helvetica,sans-Serif" font-size="10.00">opener_user_conf.h</text>
</g>
<!-- Node8&#45;&gt;Node9 -->
<g id="edge18" class="edge"><title>Node8&#45;&gt;Node9</title>
<path fill="none" stroke="midnightblue" d="M281.614,-232.295C289.949,-212.959 307.637,-171.923 318.303,-147.177"/>
<polygon fill="midnightblue" stroke="midnightblue" points="321.653,-148.248 322.397,-137.679 315.224,-145.477 321.653,-148.248"/>
</g>
<!-- Node10 -->
<g id="node20" class="node"><title>Node10</title>
<a xlink:href="../../d4/d38/opener__api_8h.html" target="_top" xlink:title="opener_api.h">
<polygon fill="none" stroke="black" points="199,-174.5 199,-195.5 271,-195.5 271,-174.5 199,-174.5"/>
<text text-anchor="middle" x="235" y="-182.5" font-family="Helvetica,sans-Serif" font-size="10.00">opener_api.h</text>
</a>
</g>
<!-- Node8&#45;&gt;Node10 -->
<g id="edge20" class="edge"><title>Node8&#45;&gt;Node10</title>
<path fill="none" stroke="midnightblue" d="M269.297,-232.362C263.554,-224.431 255.557,-213.389 248.73,-203.961"/>
<polygon fill="midnightblue" stroke="midnightblue" points="251.355,-201.617 242.655,-195.571 245.685,-205.723 251.355,-201.617"/>
</g>
<!-- Node10&#45;&gt;Node2 -->
<g id="edge24" class="edge"><title>Node10&#45;&gt;Node2</title>
<path fill="none" stroke="midnightblue" d="M238.192,-174.332C242.852,-159.996 252.563,-134.212 267,-116 276.432,-104.101 289.464,-93.4262 300.973,-85.2686"/>
<polygon fill="midnightblue" stroke="midnightblue" points="303.092,-88.0603 309.392,-79.5425 299.155,-82.2721 303.092,-88.0603"/>
</g>
<!-- Node10&#45;&gt;Node6 -->
<g id="edge26" class="edge"><title>Node10&#45;&gt;Node6</title>
<path fill="none" stroke="midnightblue" d="M200.592,-174.497C168.278,-164.632 119.912,-149.868 85.6959,-139.423"/>
<polygon fill="midnightblue" stroke="midnightblue" points="86.5922,-136.037 76.006,-136.465 84.5484,-142.732 86.5922,-136.037"/>
</g>
<!-- Node10&#45;&gt;Node9 -->
<g id="edge30" class="edge"><title>Node10&#45;&gt;Node9</title>
<path fill="none" stroke="midnightblue" d="M251.874,-174.362C265.751,-165.614 285.634,-153.079 301.46,-143.101"/>
<polygon fill="midnightblue" stroke="midnightblue" points="303.64,-145.864 310.233,-137.571 299.907,-139.943 303.64,-145.864"/>
</g>
<!-- Node11 -->
<g id="node22" class="node"><title>Node11</title>
<polygon fill="none" stroke="#bfbfbf" points="94,-116.5 94,-137.5 146,-137.5 146,-116.5 94,-116.5"/>
<text text-anchor="middle" x="120" y="-124.5" font-family="Helvetica,sans-Serif" font-size="10.00">assert.h</text>
</g>
<!-- Node10&#45;&gt;Node11 -->
<g id="edge22" class="edge"><title>Node10&#45;&gt;Node11</title>
<path fill="none" stroke="midnightblue" d="M214.174,-174.497C196.294,-165.479 170.293,-152.365 150.139,-142.201"/>
<polygon fill="midnightblue" stroke="midnightblue" points="151.564,-138.999 141.059,-137.621 148.412,-145.249 151.564,-138.999"/>
</g>
<!-- Node12 -->
<g id="node26" class="node"><title>Node12</title>
<a xlink:href="../../d6/d52/ciperror_8h.html" target="_top" xlink:title="ciperror.h">
<polygon fill="none" stroke="black" points="163.5,-116.5 163.5,-137.5 220.5,-137.5 220.5,-116.5 163.5,-116.5"/>
<text text-anchor="middle" x="192" y="-124.5" font-family="Helvetica,sans-Serif" font-size="10.00">ciperror.h</text>
</a>
</g>
<!-- Node10&#45;&gt;Node12 -->
<g id="edge28" class="edge"><title>Node10&#45;&gt;Node12</title>
<path fill="none" stroke="midnightblue" d="M227.113,-174.362C221.173,-166.35 212.878,-155.161 205.841,-145.67"/>
<polygon fill="midnightblue" stroke="midnightblue" points="208.604,-143.519 199.837,-137.571 202.981,-147.688 208.604,-143.519"/>
</g>
</g>
</svg>
