<?xml version="1.0" encoding="UTF-8" standalone="no"?>
<!DOCTYPE svg PUBLIC "-//W3C//DTD SVG 1.1//EN"
 "http://www.w3.org/Graphics/SVG/1.1/DTD/svg11.dtd">
<!-- Generated by graphviz version 2.26.3 (20100126.1600)
 -->
<!-- Title: G Pages: 1 -->
<svg width="476pt" height="110pt"
 viewBox="0.00 0.00 476.00 110.00" xmlns="http://www.w3.org/2000/svg" xmlns:xlink="http://www.w3.org/1999/xlink">
<g id="graph1" class="graph" transform="scale(1 1) rotate(0) translate(4 106)">
<title>G</title>
<!-- Node1 -->
<g id="node1" class="node"><title>Node1</title>
<polygon fill="#bfbfbf" stroke="black" points="0.5,-40.5 0.5,-61.5 117.5,-61.5 117.5,-40.5 0.5,-40.5"/>
<text text-anchor="middle" x="59" y="-48.5" font-family="Helvetica,sans-Serif" font-size="10.00">IApp_CloseSocket_tcp</text>
</g>
<!-- Node2 -->
<g id="node3" class="node"><title>Node2</title>
<a xlink:href="../../d5/dc5/group__CIP__CALLBACK__API.html#ga89293c1274a9092dec6be806b8d0779f" target="_top" xlink:title="Close the given socket and clean up the stack.">
<polygon fill="none" stroke="black" points="201.5,-80.5 201.5,-101.5 274.5,-101.5 274.5,-80.5 201.5,-80.5"/>
<text text-anchor="middle" x="238" y="-88.5" font-family="Helvetica,sans-Serif" font-size="10.00">CloseSocket</text>
</a>
</g>
<!-- Node1&#45;&gt;Node2 -->
<g id="edge2" class="edge"><title>Node1&#45;&gt;Node2</title>
<path fill="none" stroke="midnightblue" d="M106.03,-61.5095C132.366,-67.3947 165.089,-74.7071 191.361,-80.578"/>
<polygon fill="midnightblue" stroke="midnightblue" points="190.93,-84.0679 201.453,-82.833 192.457,-77.2364 190.93,-84.0679"/>
</g>
<!-- Node4 -->
<g id="node7" class="node"><title>Node4</title>
<a xlink:href="../../d4/df6/socket__timer_8c.html#abe7542fdec4d4e4893a8c712192529ca" target="_top" xlink:title="Get the Socket Timer entry with the spezified socket value.">
<polygon fill="none" stroke="black" points="154.5,-40.5 154.5,-61.5 321.5,-61.5 321.5,-40.5 154.5,-40.5"/>
<text text-anchor="middle" x="238" y="-48.5" font-family="Helvetica,sans-Serif" font-size="10.00">SocketTimerArrayGetSocketTimer</text>
</a>
</g>
<!-- Node1&#45;&gt;Node4 -->
<g id="edge6" class="edge"><title>Node1&#45;&gt;Node4</title>
<path fill="none" stroke="midnightblue" d="M117.611,-51C126.131,-51 135.076,-51 144.08,-51"/>
<polygon fill="midnightblue" stroke="midnightblue" points="144.253,-54.5001 154.253,-51 144.253,-47.5001 144.253,-54.5001"/>
</g>
<!-- Node5 -->
<g id="node9" class="node"><title>Node5</title>
<a xlink:href="../../d4/df6/socket__timer_8c.html#a6130830815ae46fe4e6d45cf89bc3506" target="_top" xlink:title="Clears a Socket Timer entry.">
<polygon fill="none" stroke="black" points="190.5,-0.5 190.5,-21.5 285.5,-21.5 285.5,-0.5 190.5,-0.5"/>
<text text-anchor="middle" x="238" y="-8.5" font-family="Helvetica,sans-Serif" font-size="10.00">SocketTimerClear</text>
</a>
</g>
<!-- Node1&#45;&gt;Node5 -->
<g id="edge8" class="edge"><title>Node1&#45;&gt;Node5</title>
<path fill="none" stroke="midnightblue" d="M106.03,-40.4905C129.063,-35.3434 156.982,-29.1046 181.198,-23.6933"/>
<polygon fill="midnightblue" stroke="midnightblue" points="181.978,-27.1054 190.974,-21.5087 180.451,-20.2739 181.978,-27.1054"/>
</g>
<!-- Node3 -->
<g id="node5" class="node"><title>Node3</title>
<a xlink:href="../../d2/d5e/POSIX_2networkhandler_8c.html#a2812ba0ecd1fd9a5549fbca397d76e3e" target="_top" xlink:title="Platform dependent code to close a socket.">
<polygon fill="none" stroke="black" points="358,-80.5 358,-101.5 468,-101.5 468,-80.5 358,-80.5"/>
<text text-anchor="middle" x="413" y="-88.5" font-family="Helvetica,sans-Serif" font-size="10.00">CloseSocketPlatform</text>
</a>
</g>
<!-- Node2&#45;&gt;Node3 -->
<g id="edge4" class="edge"><title>Node2&#45;&gt;Node3</title>
<path fill="none" stroke="midnightblue" d="M274.686,-91C295.827,-91 323.025,-91 347.701,-91"/>
<polygon fill="midnightblue" stroke="midnightblue" points="347.734,-94.5001 357.734,-91 347.734,-87.5001 347.734,-94.5001"/>
</g>
</g>
</svg>
