<?xml version="1.0" encoding="UTF-8" standalone="no"?>
<!DOCTYPE svg PUBLIC "-//W3C//DTD SVG 1.1//EN"
 "http://www.w3.org/Graphics/SVG/1.1/DTD/svg11.dtd">
<!-- Generated by graphviz version 2.26.3 (20100126.1600)
 -->
<!-- Title: G Pages: 1 -->
<!--zoomable 90 -->
<svg id="main" version="1.1" xmlns="http://www.w3.org/2000/svg" xmlns:xlink="http://www.w3.org/1999/xlink" xml:space="preserve" onload="init(evt)">
        <defs>
                <circle id="rim" cx="0" cy="0" r="7"/>
                <circle id="rim2" cx="0" cy="0" r="3.5"/>
                <g id="zoomPlus">
                        <use xlink:href="#rim" fill="#404040">
                                <set attributeName="fill" to="#808080" begin="zoomplus.mouseover" end="zoomplus.mouseout"/>
                        </use>
                        <path d="M-4,0h8M0,-4v8" fill="none" stroke="white" stroke-width="1.5" pointer-events="none"/>
                </g>
                <g id="zoomMin">
                        <use xlink:href="#rim" fill="#404040">
                                <set attributeName="fill" to="#808080" begin="zoomminus.mouseover" end="zoomminus.mouseout"/>
                        </use>
                        <path d="M-4,0h8" fill="none" stroke="white" stroke-width="1.5" pointer-events="none"/>
                </g>
                <g id="dirArrow">
                        <path fill="none" stroke="white" stroke-width="1.5" d="M0,-3.0v7 M-2.5,-0.5L0,-3.0L2.5,-0.5"/>
                </g>
               <g id="resetDef">
                       <use xlink:href="#rim2" fill="#404040">
                               <set attributeName="fill" to="#808080" begin="reset.mouseover" end="reset.mouseout"/>
                       </use>
               </g>
        </defs>

<script type="text/javascript">
var viewWidth = 1292;
var viewHeight = 90;
var sectionId = 'dynsection-7';
</script>
<script xlink:href="../../svgpan.js"/>
<svg id="graph" class="graph">
<g id="viewport">
<title>G</title>
<!-- Node1 -->
<g id="node1" class="node"><title>Node1</title>
<polygon fill="#bfbfbf" stroke="black" points="0.5,-40.5 0.5,-61.5 119.5,-61.5 119.5,-40.5 0.5,-40.5"/>
<text text-anchor="middle" x="60" y="-48.5" font-family="Helvetica,sans-Serif" font-size="10.00">IApp_CloseSocket_udp</text>
</g>
<!-- Node2 -->
<g id="node3" class="node"><title>Node2</title>
<a xlink:href="../../de/d45/cipioconnection_8h.html#ab63a9cebd7f44ee474ac1fd446d5bc66" target="_top" xlink:title="close the communication channels of the given connection and remove it from the active connections li...">
<polygon fill="none" stroke="black" points="156,-60.5 156,-81.5 482,-81.5 482,-60.5 156,-60.5"/>
<text text-anchor="middle" x="319" y="-68.5" font-family="Helvetica,sans-Serif" font-size="10.00">CloseCommunicationChannelsAndRemoveFromActiveConnectionsList</text>
</a>
</g>
<!-- Node1&#45;&gt;Node2 -->
<g id="edge2" class="edge"><title>Node1&#45;&gt;Node2</title>
<path fill="none" stroke="midnightblue" d="M129.808,-56.3905C146.334,-57.6667 164.521,-59.0712 182.886,-60.4893"/>
<polygon fill="midnightblue" stroke="midnightblue" points="129.985,-52.8939 119.745,-55.6135 129.446,-59.8731 129.985,-52.8939"/>
</g>
<!-- Node9 -->
<g id="node17" class="node"><title>Node9</title>
<a xlink:href="../../d2/da3/cipconnectionmanager_8h.html#a0e955e3b8a41b27cf79520a6bd04d21c" target="_top" xlink:title="Close the given connection.">
<polygon fill="none" stroke="black" points="273,-20.5 273,-41.5 365,-41.5 365,-20.5 273,-20.5"/>
<text text-anchor="middle" x="319" y="-28.5" font-family="Helvetica,sans-Serif" font-size="10.00">CloseConnection</text>
</a>
</g>
<!-- Node1&#45;&gt;Node9 -->
<g id="edge16" class="edge"><title>Node1&#45;&gt;Node9</title>
<path fill="none" stroke="midnightblue" d="M129.819,-45.6086C175.223,-42.1025 233.155,-37.629 272.878,-34.5615"/>
<polygon fill="midnightblue" stroke="midnightblue" points="129.446,-42.1269 119.745,-46.3865 129.985,-49.1061 129.446,-42.1269"/>
</g>
<!-- Node3 -->
<g id="node5" class="node"><title>Node3</title>
<a xlink:href="../../df/d03/cipioconnection_8c.html#adb77dcdc1545600764cd212783f5c4e2" target="_top" xlink:title="CloseIoConnection">
<polygon fill="none" stroke="black" points="522,-60.5 522,-81.5 622,-81.5 622,-60.5 522,-60.5"/>
<text text-anchor="middle" x="572" y="-68.5" font-family="Helvetica,sans-Serif" font-size="10.00">CloseIoConnection</text>
</a>
</g>
<!-- Node2&#45;&gt;Node3 -->
<g id="edge4" class="edge"><title>Node2&#45;&gt;Node3</title>
<path fill="none" stroke="midnightblue" d="M492.242,-71C502.685,-71 512.634,-71 521.741,-71"/>
<polygon fill="midnightblue" stroke="midnightblue" points="492.089,-67.5001 482.089,-71 492.089,-74.5001 492.089,-67.5001"/>
</g>
<!-- Node4 -->
<g id="node7" class="node"><title>Node4</title>
<a xlink:href="../../df/d03/cipioconnection_8c.html#ac788741792b008fa0699c7cfbe0979bc" target="_top" xlink:title="SetIoConnectionCallbacks">
<polygon fill="none" stroke="black" points="662.5,-60.5 662.5,-81.5 795.5,-81.5 795.5,-60.5 662.5,-60.5"/>
<text text-anchor="middle" x="729" y="-68.5" font-family="Helvetica,sans-Serif" font-size="10.00">SetIoConnectionCallbacks</text>
</a>
</g>
<!-- Node3&#45;&gt;Node4 -->
<g id="edge6" class="edge"><title>Node3&#45;&gt;Node4</title>
<path fill="none" stroke="midnightblue" d="M632.238,-71C642.128,-71 652.428,-71 662.461,-71"/>
<polygon fill="midnightblue" stroke="midnightblue" points="632.107,-67.5001 622.107,-71 632.107,-74.5001 632.107,-67.5001"/>
</g>
<!-- Node5 -->
<g id="node9" class="node"><title>Node5</title>
<a xlink:href="../../de/d45/cipioconnection_8h.html#a699fccd3dabdfec1b77560f22268c1e8" target="_top" xlink:title="Setup all data in order to establish an IO connection.">
<polygon fill="none" stroke="black" points="832.5,-50.5 832.5,-71.5 947.5,-71.5 947.5,-50.5 832.5,-50.5"/>
<text text-anchor="middle" x="890" y="-58.5" font-family="Helvetica,sans-Serif" font-size="10.00">EstablishIoConnection</text>
</a>
</g>
<!-- Node4&#45;&gt;Node5 -->
<g id="edge8" class="edge"><title>Node4&#45;&gt;Node5</title>
<path fill="none" stroke="midnightblue" d="M805.873,-66.2253C814.768,-65.6728 823.721,-65.1167 832.298,-64.584"/>
<polygon fill="midnightblue" stroke="midnightblue" points="805.644,-62.7327 795.88,-66.846 806.078,-69.7192 805.644,-62.7327"/>
</g>
<!-- Node6 -->
<g id="node11" class="node"><title>Node6</title>
<a xlink:href="../../d2/da3/cipconnectionmanager_8h.html#a5ab0de6894d23e8fe84a6b46797c2212" target="_top" xlink:title="Initialize the data of the connection manager object.">
<polygon fill="none" stroke="black" points="984.5,-48.5 984.5,-69.5 1101.5,-69.5 1101.5,-48.5 984.5,-48.5"/>
<text text-anchor="middle" x="1043" y="-56.5" font-family="Helvetica,sans-Serif" font-size="10.00">ConnectionManagerInit</text>
</a>
</g>
<!-- Node5&#45;&gt;Node6 -->
<g id="edge10" class="edge"><title>Node5&#45;&gt;Node6</title>
<path fill="none" stroke="midnightblue" d="M958.035,-60.1107C966.8,-59.9961 975.715,-59.8795 984.313,-59.7672"/>
<polygon fill="midnightblue" stroke="midnightblue" points="957.796,-56.6134 947.843,-60.2439 957.888,-63.6128 957.796,-56.6134"/>
</g>
<!-- Node7 -->
<g id="node13" class="node"><title>Node7</title>
<a xlink:href="../../d2/dc9/group__CIP__API.html#ga5d4979945d124e28668b264c3823db1c" target="_top" xlink:title="Initialize and setup the CIP&#45;stack.">
<polygon fill="none" stroke="black" points="1138.5,-45.5 1138.5,-66.5 1209.5,-66.5 1209.5,-45.5 1138.5,-45.5"/>
<text text-anchor="middle" x="1174" y="-53.5" font-family="Helvetica,sans-Serif" font-size="10.00">CipStackInit</text>
</a>
</g>
<!-- Node6&#45;&gt;Node7 -->
<g id="edge12" class="edge"><title>Node6&#45;&gt;Node7</title>
<path fill="none" stroke="midnightblue" d="M1111.63,-57.4283C1120.87,-57.2167 1130.03,-57.007 1138.37,-56.816"/>
<polygon fill="midnightblue" stroke="midnightblue" points="1111.52,-53.9298 1101.6,-57.6579 1111.68,-60.928 1111.52,-53.9298"/>
</g>
<!-- Node8 -->
<g id="node15" class="node"><title>Node8</title>
<a xlink:href="../../d9/dfb/POSIX_2main_8c.html#ad338a7dbc41dc40bcecd0479377ef207" target="_top" xlink:title="main">
<polygon fill="none" stroke="black" points="1246,-25.5 1246,-46.5 1284,-46.5 1284,-25.5 1246,-25.5"/>
<text text-anchor="middle" x="1265" y="-33.5" font-family="Helvetica,sans-Serif" font-size="10.00">main</text>
</a>
</g>
<!-- Node7&#45;&gt;Node8 -->
<g id="edge14" class="edge"><title>Node7&#45;&gt;Node8</title>
<path fill="none" stroke="midnightblue" d="M1219.69,-45.9591C1228.95,-43.9235 1238.2,-41.8901 1245.91,-40.1965"/>
<polygon fill="midnightblue" stroke="midnightblue" points="1218.72,-42.5878 1209.7,-48.1529 1220.22,-49.4246 1218.72,-42.5878"/>
</g>
<!-- Node10 -->
<g id="node19" class="node"><title>Node10</title>
<a xlink:href="../../d1/dc0/appcontype_8h.html#a18d2a32030faf1d5e3d48e610b1c4fe7" target="_top" xlink:title="CloseAllConnections">
<polygon fill="none" stroke="black" points="518,-20.5 518,-41.5 626,-41.5 626,-20.5 518,-20.5"/>
<text text-anchor="middle" x="572" y="-28.5" font-family="Helvetica,sans-Serif" font-size="10.00">CloseAllConnections</text>
</a>
</g>
<!-- Node9&#45;&gt;Node10 -->
<g id="edge18" class="edge"><title>Node9&#45;&gt;Node10</title>
<path fill="none" stroke="midnightblue" d="M375.297,-31C417.832,-31 475.862,-31 517.86,-31"/>
<polygon fill="midnightblue" stroke="midnightblue" points="375.11,-27.5001 365.11,-31 375.11,-34.5001 375.11,-27.5001"/>
</g>
<!-- Node11 -->
<g id="node21" class="node"><title>Node11</title>
<a xlink:href="../../d5/dc5/group__CIP__CALLBACK__API.html#gacfb8706d76bc6fe1816546e122fdcac2" target="_top" xlink:title="Emulate as close a possible a power cycle of the device.">
<polygon fill="none" stroke="black" points="692,-20.5 692,-41.5 766,-41.5 766,-20.5 692,-20.5"/>
<text text-anchor="middle" x="729" y="-28.5" font-family="Helvetica,sans-Serif" font-size="10.00">ResetDevice</text>
</a>
</g>
<!-- Node10&#45;&gt;Node11 -->
<g id="edge20" class="edge"><title>Node10&#45;&gt;Node11</title>
<path fill="none" stroke="midnightblue" d="M636.087,-31C654.997,-31 675.062,-31 691.687,-31"/>
<polygon fill="midnightblue" stroke="midnightblue" points="636.031,-27.5001 626.03,-31 636.03,-34.5001 636.031,-27.5001"/>
</g>
<!-- Node12 -->
<g id="node23" class="node"><title>Node12</title>
<a xlink:href="../../d2/dc9/group__CIP__API.html#gaa57b527530adc2acda6febc500fd6831" target="_top" xlink:title="Shutdown of the CIP stack.">
<polygon fill="none" stroke="black" points="839.5,-0.5 839.5,-21.5 940.5,-21.5 940.5,-0.5 839.5,-0.5"/>
<text text-anchor="middle" x="890" y="-8.5" font-family="Helvetica,sans-Serif" font-size="10.00">ShutdownCipStack</text>
</a>
</g>
<!-- Node10&#45;&gt;Node12 -->
<g id="edge22" class="edge"><title>Node10&#45;&gt;Node12</title>
<path fill="none" stroke="midnightblue" d="M620.596,-18.1653C633.92,-15.2051 648.434,-12.4892 662,-11 722.594,-4.34842 792.794,-5.69952 839.115,-7.83214"/>
<polygon fill="midnightblue" stroke="midnightblue" points="619.627,-14.7968 610.673,-20.4604 621.205,-21.6167 619.627,-14.7968"/>
</g>
<!-- Node12&#45;&gt;Node8 -->
<g id="edge24" class="edge"><title>Node12&#45;&gt;Node8</title>
<path fill="none" stroke="midnightblue" d="M950.797,-15.0531C1037.47,-20.8315 1192.03,-31.1355 1245.87,-34.7249"/>
<polygon fill="midnightblue" stroke="midnightblue" points="950.785,-11.5446 940.574,-14.3716 950.319,-18.5291 950.785,-11.5446"/>
</g>
</g>
</svg>
        <g id="navigator" transform="translate(0 0)" fill="#404254">
                <rect fill="#f2f5e9" fill-opacity="0.5" stroke="#606060" stroke-width=".5" x="0" y="0" width="60" height="60"/>
                <use id="zoomplus" xlink:href="#zoomPlus" x="17" y="9" onmousedown="handleZoom(evt,'in')"/>
                <use id="zoomminus" xlink:href="#zoomMin" x="42" y="9" onmousedown="handleZoom(evt,'out')"/>
                <use id="reset" xlink:href="#resetDef" x="30" y="36" onmousedown="handleReset()"/>
                <g id="arrowUp" xlink:href="#dirArrow" transform="translate(30 24)" onmousedown="handlePan(0,-1)">
                  <use xlink:href="#rim" fill="#404040">
                        <set attributeName="fill" to="#808080" begin="arrowUp.mouseover" end="arrowUp.mouseout"/>
                  </use>
                  <path fill="none" stroke="white" stroke-width="1.5" d="M0,-3.0v7 M-2.5,-0.5L0,-3.0L2.5,-0.5"/>
                </g>
                <g id="arrowRight" xlink:href="#dirArrow" transform="rotate(90) translate(36 -43)" onmousedown="handlePan(1,0)">
                  <use xlink:href="#rim" fill="#404040">
                        <set attributeName="fill" to="#808080" begin="arrowRight.mouseover" end="arrowRight.mouseout"/>
                  </use>
                  <path fill="none" stroke="white" stroke-width="1.5" d="M0,-3.0v7 M-2.5,-0.5L0,-3.0L2.5,-0.5"/>
                </g>
                <g id="arrowDown" xlink:href="#dirArrow" transform="rotate(180) translate(-30 -48)" onmousedown="handlePan(0,1)">
                  <use xlink:href="#rim" fill="#404040">
                        <set attributeName="fill" to="#808080" begin="arrowDown.mouseover" end="arrowDown.mouseout"/>
                  </use>
                  <path fill="none" stroke="white" stroke-width="1.5" d="M0,-3.0v7 M-2.5,-0.5L0,-3.0L2.5,-0.5"/>
                </g>
                <g id="arrowLeft" xlink:href="#dirArrow" transform="rotate(270) translate(-36 17)" onmousedown="handlePan(-1,0)">
                  <use xlink:href="#rim" fill="#404040">
                        <set attributeName="fill" to="#808080" begin="arrowLeft.mouseover" end="arrowLeft.mouseout"/>
                  </use>
                  <path fill="none" stroke="white" stroke-width="1.5" d="M0,-3.0v7 M-2.5,-0.5L0,-3.0L2.5,-0.5"/>
                </g>
        </g>
</svg>
