<?xml version="1.0" encoding="UTF-8" standalone="no"?>
<!DOCTYPE svg PUBLIC "-//W3C//DTD SVG 1.1//EN"
 "http://www.w3.org/Graphics/SVG/1.1/DTD/svg11.dtd">
<!-- Generated by graphviz version 2.36.0 (20140111.2315)
 -->
<!-- Title: src/cip/appcontype.c Pages: 1 -->
<svg width="641pt" height="420pt"
 viewBox="0.00 0.00 640.79 420.00" xmlns="http://www.w3.org/2000/svg" xmlns:xlink="http://www.w3.org/1999/xlink">
<g id="graph0" class="graph" transform="scale(1 1) rotate(0) translate(4 416)">
<title>src/cip/appcontype.c</title>
<!-- Node1 -->
<g id="node1" class="node"><title>Node1</title>
<polygon fill="#bfbfbf" stroke="black" points="209.288,-392.5 209.288,-411.5 316.288,-411.5 316.288,-392.5 209.288,-392.5"/>
<text text-anchor="middle" x="262.788" y="-399.5" font-family="Helvetica,sans-Serif" font-size="10.00">src/cip/appcontype.c</text>
</g>
<!-- Node2 -->
<g id="node2" class="node"><title>Node2</title>
<polygon fill="none" stroke="#bfbfbf" points="34.2882,-336.5 34.2882,-355.5 83.2882,-355.5 83.2882,-336.5 34.2882,-336.5"/>
<text text-anchor="middle" x="58.7882" y="-343.5" font-family="Helvetica,sans-Serif" font-size="10.00">string.h</text>
</g>
<!-- Node1&#45;&gt;Node2 -->
<g id="edge1" class="edge"><title>Node1&#45;&gt;Node2</title>
<path fill="none" stroke="midnightblue" d="M230.464,-392.444C193.027,-382.534 131.602,-366.274 93.2711,-356.128"/>
<polygon fill="midnightblue" stroke="midnightblue" points="94.1446,-352.739 83.5819,-353.563 92.3533,-359.506 94.1446,-352.739"/>
</g>
<!-- Node3 -->
<g id="node3" class="node"><title>Node3</title>
<g id="a_node3"><a xlink:href="../../d1/dc0/appcontype_8h.html" target="_top" xlink:title="appcontype.h">
<polygon fill="none" stroke="black" points="140.288,-336.5 140.288,-355.5 215.288,-355.5 215.288,-336.5 140.288,-336.5"/>
<text text-anchor="middle" x="177.788" y="-343.5" font-family="Helvetica,sans-Serif" font-size="10.00">appcontype.h</text>
</a>
</g>
</g>
<!-- Node1&#45;&gt;Node3 -->
<g id="edge2" class="edge"><title>Node1&#45;&gt;Node3</title>
<path fill="none" stroke="midnightblue" d="M249.131,-392.324C235.872,-383.9 215.52,-370.971 199.942,-361.074"/>
<polygon fill="midnightblue" stroke="midnightblue" points="201.729,-358.063 191.411,-355.655 197.975,-363.971 201.729,-358.063"/>
</g>
<!-- Node4 -->
<g id="node4" class="node"><title>Node4</title>
<g id="a_node4"><a xlink:href="../../d2/da3/cipconnectionmanager_8h.html" target="_top" xlink:title="cipconnectionmanager.h">
<polygon fill="none" stroke="black" points="131.788,-280.5 131.788,-299.5 253.788,-299.5 253.788,-280.5 131.788,-280.5"/>
<text text-anchor="middle" x="192.788" y="-287.5" font-family="Helvetica,sans-Serif" font-size="10.00">cipconnectionmanager.h</text>
</a>
</g>
</g>
<!-- Node1&#45;&gt;Node4 -->
<g id="edge32" class="edge"><title>Node1&#45;&gt;Node4</title>
<path fill="none" stroke="midnightblue" d="M257.907,-392.482C250.681,-379.962 236.607,-355.92 223.788,-336 217.68,-326.509 210.554,-316.121 204.676,-307.719"/>
<polygon fill="midnightblue" stroke="midnightblue" points="207.517,-305.674 198.894,-299.519 201.796,-309.708 207.517,-305.674"/>
</g>
<!-- Node6 -->
<g id="node6" class="node"><title>Node6</title>
<g id="a_node6"><a xlink:href="../../d4/d38/opener__api_8h.html" target="_top" xlink:title="opener_api.h">
<polygon fill="none" stroke="black" points="180.788,-168.5 180.788,-187.5 252.788,-187.5 252.788,-168.5 180.788,-168.5"/>
<text text-anchor="middle" x="216.788" y="-175.5" font-family="Helvetica,sans-Serif" font-size="10.00">opener_api.h</text>
</a>
</g>
</g>
<!-- Node1&#45;&gt;Node6 -->
<g id="edge34" class="edge"><title>Node1&#45;&gt;Node6</title>
<path fill="none" stroke="midnightblue" d="M264.028,-392.358C266.636,-372.323 271.742,-321.264 262.788,-280 256.042,-248.912 238.864,-215.913 227.516,-196.399"/>
<polygon fill="midnightblue" stroke="midnightblue" points="230.475,-194.527 222.342,-187.737 224.465,-198.117 230.475,-194.527"/>
</g>
<!-- Node7 -->
<g id="node7" class="node"><title>Node7</title>
<polygon fill="none" stroke="#bfbfbf" points="293.788,-112.5 293.788,-131.5 345.788,-131.5 345.788,-112.5 293.788,-112.5"/>
<text text-anchor="middle" x="319.788" y="-119.5" font-family="Helvetica,sans-Serif" font-size="10.00">assert.h</text>
</g>
<!-- Node1&#45;&gt;Node7 -->
<g id="edge35" class="edge"><title>Node1&#45;&gt;Node7</title>
<path fill="none" stroke="midnightblue" d="M270.955,-392.384C286.716,-374.812 319.788,-332.942 319.788,-291 319.788,-291 319.788,-291 319.788,-233 319.788,-200.948 319.788,-163.643 319.788,-141.749"/>
<polygon fill="midnightblue" stroke="midnightblue" points="323.288,-141.558 319.788,-131.558 316.288,-141.558 323.288,-141.558"/>
</g>
<!-- Node15 -->
<g id="node15" class="node"><title>Node15</title>
<g id="a_node15"><a xlink:href="../../d1/d6c/cipconnectionobject_8h.html" target="_top" xlink:title="cipconnectionobject.h">
<polygon fill="none" stroke="black" points="348.288,-224.5 348.288,-243.5 459.288,-243.5 459.288,-224.5 348.288,-224.5"/>
<text text-anchor="middle" x="403.788" y="-231.5" font-family="Helvetica,sans-Serif" font-size="10.00">cipconnectionobject.h</text>
</a>
</g>
</g>
<!-- Node1&#45;&gt;Node15 -->
<g id="edge33" class="edge"><title>Node1&#45;&gt;Node15</title>
<path fill="none" stroke="midnightblue" d="M281.427,-392.364C296.856,-384.525 318.625,-371.789 333.788,-356 363.795,-324.755 385.989,-278.254 396.676,-252.963"/>
<polygon fill="midnightblue" stroke="midnightblue" points="399.989,-254.11 400.542,-243.529 393.512,-251.456 399.989,-254.11"/>
</g>
<!-- Node18 -->
<g id="node18" class="node"><title>Node18</title>
<g id="a_node18"><a xlink:href="../../d1/d02/cipepath_8h.html" target="_top" xlink:title="cipepath.h">
<polygon fill="none" stroke="black" points="571.788,-168.5 571.788,-187.5 633.788,-187.5 633.788,-168.5 571.788,-168.5"/>
<text text-anchor="middle" x="602.788" y="-175.5" font-family="Helvetica,sans-Serif" font-size="10.00">cipepath.h</text>
</a>
</g>
</g>
<!-- Node1&#45;&gt;Node18 -->
<g id="edge38" class="edge"><title>Node1&#45;&gt;Node18</title>
<path fill="none" stroke="midnightblue" d="M282.895,-392.47C302.086,-384.053 331.58,-370.387 355.788,-356 445.36,-302.767 543.743,-226.318 584.025,-194.161"/>
<polygon fill="midnightblue" stroke="midnightblue" points="586.315,-196.811 591.927,-187.825 581.936,-191.35 586.315,-196.811"/>
</g>
<!-- Node19 -->
<g id="node19" class="node"><title>Node19</title>
<g id="a_node19"><a xlink:href="../../d1/d1b/trace_8h.html" target="_top" xlink:title="Tracing infrastructure for OpENer. ">
<polygon fill="none" stroke="black" points="57.2882,-280.5 57.2882,-299.5 104.288,-299.5 104.288,-280.5 57.2882,-280.5"/>
<text text-anchor="middle" x="80.7882" y="-287.5" font-family="Helvetica,sans-Serif" font-size="10.00">trace.h</text>
</a>
</g>
</g>
<!-- Node1&#45;&gt;Node19 -->
<g id="edge36" class="edge"><title>Node1&#45;&gt;Node19</title>
<path fill="none" stroke="midnightblue" d="M217.238,-392.429C190.27,-385.74 156.47,-374.406 130.788,-356 113.488,-343.601 99.3418,-323.516 90.5661,-308.951"/>
<polygon fill="midnightblue" stroke="midnightblue" points="93.3904,-306.841 85.3758,-299.911 87.3199,-310.326 93.3904,-306.841"/>
</g>
<!-- Node3&#45;&gt;Node4 -->
<g id="edge3" class="edge"><title>Node3&#45;&gt;Node4</title>
<path fill="none" stroke="midnightblue" d="M180.265,-336.083C182.275,-328.849 185.175,-318.409 187.678,-309.397"/>
<polygon fill="midnightblue" stroke="midnightblue" points="191.053,-310.323 190.357,-299.751 184.308,-308.449 191.053,-310.323"/>
</g>
<!-- Node5 -->
<g id="node5" class="node"><title>Node5</title>
<polygon fill="none" stroke="#bfbfbf" points="21.7882,-112.5 21.7882,-131.5 123.788,-131.5 123.788,-112.5 21.7882,-112.5"/>
<text text-anchor="middle" x="72.7882" y="-119.5" font-family="Helvetica,sans-Serif" font-size="10.00">opener_user_conf.h</text>
</g>
<!-- Node4&#45;&gt;Node5 -->
<g id="edge4" class="edge"><title>Node4&#45;&gt;Node5</title>
<path fill="none" stroke="midnightblue" d="M186.336,-280.075C167.12,-253.493 110.045,-174.538 84.9062,-139.763"/>
<polygon fill="midnightblue" stroke="midnightblue" points="87.677,-137.622 78.982,-131.568 82.004,-141.723 87.677,-137.622"/>
</g>
<!-- Node4&#45;&gt;Node6 -->
<g id="edge5" class="edge"><title>Node4&#45;&gt;Node6</title>
<path fill="none" stroke="midnightblue" d="M194.671,-280.368C198.544,-262.617 207.479,-221.666 212.731,-197.597"/>
<polygon fill="midnightblue" stroke="midnightblue" points="216.201,-198.108 214.914,-187.591 209.362,-196.615 216.201,-198.108"/>
</g>
<!-- Node9 -->
<g id="node9" class="node"><title>Node9</title>
<g id="a_node9"><a xlink:href="../../d7/d69/typedefs_8h.html" target="_top" xlink:title="typedefs.h">
<polygon fill="none" stroke="black" points="196.788,-56.5 196.788,-75.5 258.788,-75.5 258.788,-56.5 196.788,-56.5"/>
<text text-anchor="middle" x="227.788" y="-63.5" font-family="Helvetica,sans-Serif" font-size="10.00">typedefs.h</text>
</a>
</g>
</g>
<!-- Node4&#45;&gt;Node9 -->
<g id="edge17" class="edge"><title>Node4&#45;&gt;Node9</title>
<path fill="none" stroke="midnightblue" d="M170.974,-280.482C111.554,-256.08 -44.968,-183.096 12.7882,-112 34.2362,-85.598 130.199,-74.1404 186.408,-69.62"/>
<polygon fill="midnightblue" stroke="midnightblue" points="186.71,-73.1072 196.414,-68.8547 186.176,-66.1276 186.71,-73.1072"/>
</g>
<!-- Node12 -->
<g id="node12" class="node"><title>Node12</title>
<g id="a_node12"><a xlink:href="../../df/d28/ciptypes_8h.html" target="_top" xlink:title="ciptypes.h">
<polygon fill="none" stroke="black" points="401.788,-112.5 401.788,-131.5 463.788,-131.5 463.788,-112.5 401.788,-112.5"/>
<text text-anchor="middle" x="432.788" y="-119.5" font-family="Helvetica,sans-Serif" font-size="10.00">ciptypes.h</text>
</a>
</g>
</g>
<!-- Node4&#45;&gt;Node12 -->
<g id="edge18" class="edge"><title>Node4&#45;&gt;Node12</title>
<path fill="none" stroke="midnightblue" d="M205.354,-280.309C244.316,-253.36 363.377,-171.01 411.887,-137.457"/>
<polygon fill="midnightblue" stroke="midnightblue" points="414.114,-140.172 420.347,-131.605 410.132,-134.415 414.114,-140.172"/>
</g>
<!-- Node4&#45;&gt;Node15 -->
<g id="edge19" class="edge"><title>Node4&#45;&gt;Node15</title>
<path fill="none" stroke="midnightblue" d="M226.222,-280.444C262.644,-271.122 321.019,-256.183 360.817,-245.997"/>
<polygon fill="midnightblue" stroke="midnightblue" points="361.691,-249.387 370.511,-243.516 359.955,-242.605 361.691,-249.387"/>
</g>
<!-- Node6&#45;&gt;Node5 -->
<g id="edge16" class="edge"><title>Node6&#45;&gt;Node5</title>
<path fill="none" stroke="midnightblue" d="M193.971,-168.444C169.956,-159.438 131.959,-145.189 104.919,-135.049"/>
<polygon fill="midnightblue" stroke="midnightblue" points="106.091,-131.751 95.4986,-131.516 103.633,-138.305 106.091,-131.751"/>
</g>
<!-- Node6&#45;&gt;Node7 -->
<g id="edge6" class="edge"><title>Node6&#45;&gt;Node7</title>
<path fill="none" stroke="midnightblue" d="M233.337,-168.324C249.78,-159.703 275.223,-146.364 294.257,-136.386"/>
<polygon fill="midnightblue" stroke="midnightblue" points="296.049,-139.398 303.281,-131.655 292.799,-133.198 296.049,-139.398"/>
</g>
<!-- Node8 -->
<g id="node8" class="node"><title>Node8</title>
<polygon fill="none" stroke="#bfbfbf" points="399.788,-0.5 399.788,-19.5 455.788,-19.5 455.788,-0.5 399.788,-0.5"/>
<text text-anchor="middle" x="427.788" y="-7.5" font-family="Helvetica,sans-Serif" font-size="10.00">stdbool.h</text>
</g>
<!-- Node6&#45;&gt;Node8 -->
<g id="edge7" class="edge"><title>Node6&#45;&gt;Node8</title>
<path fill="none" stroke="midnightblue" d="M225.209,-168.156C237.696,-155.23 262.095,-130.687 284.788,-112 325.649,-78.3518 377.094,-43.7429 405.813,-25.0523"/>
<polygon fill="midnightblue" stroke="midnightblue" points="407.801,-27.9348 414.297,-19.5647 403.999,-22.0573 407.801,-27.9348"/>
</g>
<!-- Node6&#45;&gt;Node9 -->
<g id="edge8" class="edge"><title>Node6&#45;&gt;Node9</title>
<path fill="none" stroke="midnightblue" d="M217.651,-168.368C219.426,-150.617 223.522,-109.666 225.928,-85.5974"/>
<polygon fill="midnightblue" stroke="midnightblue" points="229.417,-85.8901 226.929,-75.5914 222.451,-85.1935 229.417,-85.8901"/>
</g>
<!-- Node6&#45;&gt;Node12 -->
<g id="edge12" class="edge"><title>Node6&#45;&gt;Node12</title>
<path fill="none" stroke="midnightblue" d="M251.014,-168.444C289.177,-158.903 350.882,-143.477 391.643,-133.286"/>
<polygon fill="midnightblue" stroke="midnightblue" points="392.675,-136.636 401.528,-130.815 390.977,-129.845 392.675,-136.636"/>
</g>
<!-- Node14 -->
<g id="node14" class="node"><title>Node14</title>
<g id="a_node14"><a xlink:href="../../d6/d52/ciperror_8h.html" target="_top" xlink:title="ciperror.h">
<polygon fill="none" stroke="black" points="142.288,-112.5 142.288,-131.5 199.288,-131.5 199.288,-112.5 142.288,-112.5"/>
<text text-anchor="middle" x="170.788" y="-119.5" font-family="Helvetica,sans-Serif" font-size="10.00">ciperror.h</text>
</a>
</g>
</g>
<!-- Node6&#45;&gt;Node14 -->
<g id="edge15" class="edge"><title>Node6&#45;&gt;Node14</title>
<path fill="none" stroke="midnightblue" d="M209.192,-168.083C202.561,-160.298 192.767,-148.801 184.73,-139.367"/>
<polygon fill="midnightblue" stroke="midnightblue" points="187.392,-137.094 178.243,-131.751 182.063,-141.633 187.392,-137.094"/>
</g>
<!-- Node9&#45;&gt;Node8 -->
<g id="edge11" class="edge"><title>Node9&#45;&gt;Node8</title>
<path fill="none" stroke="midnightblue" d="M259.038,-56.5625C294.437,-47.0048 352.112,-31.4325 390.008,-21.2007"/>
<polygon fill="midnightblue" stroke="midnightblue" points="390.921,-24.5796 399.663,-18.5938 389.096,-17.8215 390.921,-24.5796"/>
</g>
<!-- Node10 -->
<g id="node10" class="node"><title>Node10</title>
<polygon fill="none" stroke="#bfbfbf" points="161.288,-0.5 161.288,-19.5 220.288,-19.5 220.288,-0.5 161.288,-0.5"/>
<text text-anchor="middle" x="190.788" y="-7.5" font-family="Helvetica,sans-Serif" font-size="10.00">inttypes.h</text>
</g>
<!-- Node9&#45;&gt;Node10 -->
<g id="edge9" class="edge"><title>Node9&#45;&gt;Node10</title>
<path fill="none" stroke="midnightblue" d="M221.678,-56.083C216.506,-48.5341 208.942,-37.4948 202.594,-28.2298"/>
<polygon fill="midnightblue" stroke="midnightblue" points="205.324,-26.0221 196.784,-19.7511 199.549,-29.9787 205.324,-26.0221"/>
</g>
<!-- Node11 -->
<g id="node11" class="node"><title>Node11</title>
<polygon fill="none" stroke="#bfbfbf" points="238.788,-0.5 238.788,-19.5 290.788,-19.5 290.788,-0.5 238.788,-0.5"/>
<text text-anchor="middle" x="264.788" y="-7.5" font-family="Helvetica,sans-Serif" font-size="10.00">stddef.h</text>
</g>
<!-- Node9&#45;&gt;Node11 -->
<g id="edge10" class="edge"><title>Node9&#45;&gt;Node11</title>
<path fill="none" stroke="midnightblue" d="M233.898,-56.083C239.07,-48.5341 246.634,-37.4948 252.983,-28.2298"/>
<polygon fill="midnightblue" stroke="midnightblue" points="256.027,-29.9787 258.792,-19.7511 250.252,-26.0221 256.027,-29.9787"/>
</g>
<!-- Node12&#45;&gt;Node9 -->
<g id="edge13" class="edge"><title>Node12&#45;&gt;Node9</title>
<path fill="none" stroke="midnightblue" d="M401.653,-112.799C366.105,-103.435 307.822,-88.082 268.648,-77.763"/>
<polygon fill="midnightblue" stroke="midnightblue" points="269.441,-74.3528 258.88,-75.19 267.658,-81.1219 269.441,-74.3528"/>
</g>
<!-- Node13 -->
<g id="node13" class="node"><title>Node13</title>
<polygon fill="none" stroke="#bfbfbf" points="387.288,-56.5 387.288,-75.5 478.288,-75.5 478.288,-56.5 387.288,-56.5"/>
<text text-anchor="middle" x="432.788" y="-63.5" font-family="Helvetica,sans-Serif" font-size="10.00">networkhandler.h</text>
</g>
<!-- Node12&#45;&gt;Node13 -->
<g id="edge14" class="edge"><title>Node12&#45;&gt;Node13</title>
<path fill="none" stroke="midnightblue" d="M432.788,-112.083C432.788,-105.006 432.788,-94.8611 432.788,-85.9865"/>
<polygon fill="midnightblue" stroke="midnightblue" points="436.288,-85.751 432.788,-75.7511 429.288,-85.7511 436.288,-85.751"/>
</g>
<!-- Node15&#45;&gt;Node5 -->
<g id="edge22" class="edge"><title>Node15&#45;&gt;Node5</title>
<path fill="none" stroke="midnightblue" d="M348.157,-228.333C300.047,-222.879 229.366,-211.418 171.788,-188 141.068,-175.505 109.758,-152.952 90.7966,-137.975"/>
<polygon fill="midnightblue" stroke="midnightblue" points="92.9822,-135.241 83.0002,-131.69 88.5891,-140.691 92.9822,-135.241"/>
</g>
<!-- Node15&#45;&gt;Node6 -->
<g id="edge23" class="edge"><title>Node15&#45;&gt;Node6</title>
<path fill="none" stroke="midnightblue" d="M374.157,-224.444C342.288,-215.241 291.455,-200.562 256.224,-190.388"/>
<polygon fill="midnightblue" stroke="midnightblue" points="256.859,-186.928 246.28,-187.516 254.917,-193.653 256.859,-186.928"/>
</g>
<!-- Node15&#45;&gt;Node9 -->
<g id="edge20" class="edge"><title>Node15&#45;&gt;Node9</title>
<path fill="none" stroke="midnightblue" d="M397.703,-224.399C391.704,-215.6 382.613,-201.363 376.788,-188 362.736,-155.765 378.912,-137.585 354.788,-112 332.421,-88.2781 296.762,-77.0478 268.915,-71.7388"/>
<polygon fill="midnightblue" stroke="midnightblue" points="269.498,-68.2877 259.049,-70.0386 268.309,-75.186 269.498,-68.2877"/>
</g>
<!-- Node15&#45;&gt;Node12 -->
<g id="edge21" class="edge"><title>Node15&#45;&gt;Node12</title>
<path fill="none" stroke="midnightblue" d="M435.973,-224.488C454.327,-217.801 475.804,-206.45 486.788,-188 498.243,-168.76 476.845,-149.358 457.696,-136.825"/>
<polygon fill="midnightblue" stroke="midnightblue" points="459.531,-133.845 449.182,-131.576 455.857,-139.803 459.531,-133.845"/>
</g>
<!-- Node16 -->
<g id="node16" class="node"><title>Node16</title>
<g id="a_node16"><a xlink:href="../../d9/d31/doublylinkedlist_8h.html" target="_top" xlink:title="doublylinkedlist.h">
<polygon fill="none" stroke="black" points="385.788,-168.5 385.788,-187.5 477.788,-187.5 477.788,-168.5 385.788,-168.5"/>
<text text-anchor="middle" x="431.788" y="-175.5" font-family="Helvetica,sans-Serif" font-size="10.00">doublylinkedlist.h</text>
</a>
</g>
</g>
<!-- Node15&#45;&gt;Node16 -->
<g id="edge24" class="edge"><title>Node15&#45;&gt;Node16</title>
<path fill="none" stroke="midnightblue" d="M408.412,-224.083C412.245,-216.691 417.812,-205.953 422.553,-196.811"/>
<polygon fill="midnightblue" stroke="midnightblue" points="425.754,-198.24 427.251,-187.751 419.54,-195.018 425.754,-198.24"/>
</g>
<!-- Node17 -->
<g id="node17" class="node"><title>Node17</title>
<g id="a_node17"><a xlink:href="../../d0/d23/cipelectronickey_8h.html" target="_top" xlink:title="cipelectronickey.h">
<polygon fill="none" stroke="black" points="482.288,-112.5 482.288,-131.5 577.288,-131.5 577.288,-112.5 482.288,-112.5"/>
<text text-anchor="middle" x="529.788" y="-119.5" font-family="Helvetica,sans-Serif" font-size="10.00">cipelectronickey.h</text>
</a>
</g>
</g>
<!-- Node15&#45;&gt;Node17 -->
<g id="edge25" class="edge"><title>Node15&#45;&gt;Node17</title>
<path fill="none" stroke="midnightblue" d="M437.824,-224.468C458.896,-217.658 485.196,-206.181 502.788,-188 515.125,-175.25 522.153,-156.055 525.926,-141.827"/>
<polygon fill="midnightblue" stroke="midnightblue" points="529.425,-142.232 528.292,-131.698 522.609,-140.639 529.425,-142.232"/>
</g>
<!-- Node15&#45;&gt;Node18 -->
<g id="edge28" class="edge"><title>Node15&#45;&gt;Node18</title>
<path fill="none" stroke="midnightblue" d="M435.32,-224.444C469.481,-215.174 524.114,-200.349 561.634,-190.168"/>
<polygon fill="midnightblue" stroke="midnightblue" points="562.997,-193.424 571.731,-187.428 561.164,-186.669 562.997,-193.424"/>
</g>
<!-- Node17&#45;&gt;Node8 -->
<g id="edge26" class="edge"><title>Node17&#45;&gt;Node8</title>
<path fill="none" stroke="midnightblue" d="M525.302,-112.355C518.245,-99.2522 503.607,-73.9876 486.788,-56 475.851,-44.3024 461.623,-33.3543 449.88,-25.1861"/>
<polygon fill="midnightblue" stroke="midnightblue" points="451.726,-22.2096 441.48,-19.5153 447.81,-28.0114 451.726,-22.2096"/>
</g>
<!-- Node17&#45;&gt;Node9 -->
<g id="edge27" class="edge"><title>Node17&#45;&gt;Node9</title>
<path fill="none" stroke="midnightblue" d="M482.268,-112.503C423.471,-101.99 324.341,-84.2645 268.749,-74.3242"/>
<polygon fill="midnightblue" stroke="midnightblue" points="269.355,-70.877 258.895,-72.5622 268.123,-77.7678 269.355,-70.877"/>
</g>
<!-- Node18&#45;&gt;Node8 -->
<g id="edge29" class="edge"><title>Node18&#45;&gt;Node8</title>
<path fill="none" stroke="midnightblue" d="M602.334,-168.251C601.268,-155.012 597.701,-129.571 585.788,-112 555.601,-67.4744 498.559,-38.3499 461.905,-23.2947"/>
<polygon fill="midnightblue" stroke="midnightblue" points="463.187,-20.0377 452.601,-19.5947 460.6,-26.5423 463.187,-20.0377"/>
</g>
<!-- Node18&#45;&gt;Node12 -->
<g id="edge30" class="edge"><title>Node18&#45;&gt;Node12</title>
<path fill="none" stroke="midnightblue" d="M575.851,-168.444C547.128,-159.32 501.46,-144.813 469.467,-134.651"/>
<polygon fill="midnightblue" stroke="midnightblue" points="470.189,-131.208 459.599,-131.516 468.07,-137.88 470.189,-131.208"/>
</g>
<!-- Node18&#45;&gt;Node17 -->
<g id="edge31" class="edge"><title>Node18&#45;&gt;Node17</title>
<path fill="none" stroke="midnightblue" d="M591.059,-168.324C579.951,-160.107 563.046,-147.602 549.805,-137.807"/>
<polygon fill="midnightblue" stroke="midnightblue" points="551.851,-134.967 541.73,-131.834 547.688,-140.595 551.851,-134.967"/>
</g>
<!-- Node19&#45;&gt;Node5 -->
<g id="edge37" class="edge"><title>Node19&#45;&gt;Node5</title>
<path fill="none" stroke="midnightblue" d="M80.3581,-280.075C79.0988,-253.945 75.4007,-177.211 73.6834,-141.577"/>
<polygon fill="midnightblue" stroke="midnightblue" points="77.1785,-141.388 73.2011,-131.568 70.1866,-141.725 77.1785,-141.388"/>
</g>
</g>
</svg>
