<?xml version="1.0" encoding="UTF-8" standalone="no"?>
<!DOCTYPE svg PUBLIC "-//W3C//DTD SVG 1.1//EN"
 "http://www.w3.org/Graphics/SVG/1.1/DTD/svg11.dtd">
<!-- Generated by graphviz version 2.36.0 (20140111.2315)
 -->
<!-- Title: FillNextNMessageOctetsWithValueAndMoveToNextPosition Pages: 1 -->
<svg width="342pt" height="66pt"
 viewBox="0.00 0.00 342.00 66.00" xmlns="http://www.w3.org/2000/svg" xmlns:xlink="http://www.w3.org/1999/xlink">
<g id="graph0" class="graph" transform="scale(1 1) rotate(0) translate(4 62)">
<title>FillNextNMessageOctetsWithValueAndMoveToNextPosition</title>
<!-- Node1 -->
<g id="node1" class="node"><title>Node1</title>
<polygon fill="#bfbfbf" stroke="black" points="0,-14 0,-44 150,-44 150,-14 0,-14"/>
<text text-anchor="start" x="8" y="-32" font-family="Helvetica,sans-Serif" font-size="10.00">FillNextNMessageOctetsWith</text>
<text text-anchor="middle" x="75" y="-21" font-family="Helvetica,sans-Serif" font-size="10.00">ValueAndMoveToNextPosition</text>
</g>
<!-- Node2 -->
<g id="node2" class="node"><title>Node2</title>
<g id="a_node2"><a xlink:href="../../da/d73/endianconv_8c.html#ae391d0308d5eebd8221d3fde59872b7c" target="_top" xlink:title="FillNextNMessageOctetsWith">
<polygon fill="none" stroke="black" points="186.5,-38.5 186.5,-57.5 333.5,-57.5 333.5,-38.5 186.5,-38.5"/>
<text text-anchor="middle" x="260" y="-45.5" font-family="Helvetica,sans-Serif" font-size="10.00">FillNextNMessageOctetsWith</text>
</a>
</g>
</g>
<!-- Node1&#45;&gt;Node2 -->
<g id="edge1" class="edge"><title>Node1&#45;&gt;Node2</title>
<path fill="none" stroke="midnightblue" d="M150.169,-36.7006C158.715,-37.5879 167.469,-38.4968 176.12,-39.395"/>
<polygon fill="midnightblue" stroke="midnightblue" points="175.901,-42.891 186.209,-40.4425 176.624,-35.9284 175.901,-42.891"/>
</g>
<!-- Node3 -->
<g id="node3" class="node"><title>Node3</title>
<g id="a_node3"><a xlink:href="../../da/d73/endianconv_8c.html#af4e7ccbb21e333ad15028c531f0384c6" target="_top" xlink:title="MoveMessageNOctets">
<polygon fill="none" stroke="black" points="201.5,-0.5 201.5,-19.5 318.5,-19.5 318.5,-0.5 201.5,-0.5"/>
<text text-anchor="middle" x="260" y="-7.5" font-family="Helvetica,sans-Serif" font-size="10.00">MoveMessageNOctets</text>
</a>
</g>
</g>
<!-- Node1&#45;&gt;Node3 -->
<g id="edge2" class="edge"><title>Node1&#45;&gt;Node3</title>
<path fill="none" stroke="midnightblue" d="M150.169,-21.2994C163.749,-19.8895 177.857,-18.4247 191.238,-17.0354"/>
<polygon fill="midnightblue" stroke="midnightblue" points="191.723,-20.504 201.308,-15.9899 191,-13.5414 191.723,-20.504"/>
</g>
</g>
</svg>
