<?xml version="1.0" encoding="UTF-8" standalone="no"?>
<!DOCTYPE svg PUBLIC "-//W3C//DTD SVG 1.1//EN"
 "http://www.w3.org/Graphics/SVG/1.1/DTD/svg11.dtd">
<!-- Generated by graphviz version 2.26.3 (20100126.1600)
 -->
<!-- Title: G Pages: 1 -->
<!--zoomable 190 -->
<svg id="main" version="1.1" xmlns="http://www.w3.org/2000/svg" xmlns:xlink="http://www.w3.org/1999/xlink" xml:space="preserve" onload="init(evt)">
        <defs>
                <circle id="rim" cx="0" cy="0" r="7"/>
                <circle id="rim2" cx="0" cy="0" r="3.5"/>
                <g id="zoomPlus">
                        <use xlink:href="#rim" fill="#404040">
                                <set attributeName="fill" to="#808080" begin="zoomplus.mouseover" end="zoomplus.mouseout"/>
                        </use>
                        <path d="M-4,0h8M0,-4v8" fill="none" stroke="white" stroke-width="1.5" pointer-events="none"/>
                </g>
                <g id="zoomMin">
                        <use xlink:href="#rim" fill="#404040">
                                <set attributeName="fill" to="#808080" begin="zoomminus.mouseover" end="zoomminus.mouseout"/>
                        </use>
                        <path d="M-4,0h8" fill="none" stroke="white" stroke-width="1.5" pointer-events="none"/>
                </g>
                <g id="dirArrow">
                        <path fill="none" stroke="white" stroke-width="1.5" d="M0,-3.0v7 M-2.5,-0.5L0,-3.0L2.5,-0.5"/>
                </g>
               <g id="resetDef">
                       <use xlink:href="#rim2" fill="#404040">
                               <set attributeName="fill" to="#808080" begin="reset.mouseover" end="reset.mouseout"/>
                       </use>
               </g>
        </defs>

<script type="text/javascript">
var viewWidth = 1622;
var viewHeight = 190;
var sectionId = 'dynsection-3';
</script>
<script xlink:href="../../svgpan.js"/>
<svg id="graph" class="graph">
<g id="viewport">
<title>G</title>
<!-- Node1 -->
<g id="node1" class="node"><title>Node1</title>
<polygon fill="#bfbfbf" stroke="black" points="0.5,-80.5 0.5,-101.5 115.5,-101.5 115.5,-80.5 0.5,-80.5"/>
<text text-anchor="middle" x="58" y="-88.5" font-family="Helvetica,sans-Serif" font-size="10.00">EncapsulateIpAddress</text>
</g>
<!-- Node2 -->
<g id="node3" class="node"><title>Node2</title>
<a xlink:href="../../d4/d91/group__ENCAP.html#gaa81c027561d86d2589b8002b36b88392" target="_top" xlink:title="Copy data from message_router_response struct and common_packet_format_data_item into linear memory i...">
<polygon fill="none" stroke="black" points="152,-100.5 152,-121.5 278,-121.5 278,-100.5 152,-100.5"/>
<text text-anchor="middle" x="215" y="-108.5" font-family="Helvetica,sans-Serif" font-size="10.00">AssembleLinearMessage</text>
</a>
</g>
<!-- Node1&#45;&gt;Node2 -->
<g id="edge2" class="edge"><title>Node1&#45;&gt;Node2</title>
<path fill="none" stroke="midnightblue" d="M125.674,-99.6209C134.374,-100.729 143.255,-101.861 151.879,-102.959"/>
<polygon fill="midnightblue" stroke="midnightblue" points="125.932,-96.1255 115.57,-98.3337 125.047,-103.069 125.932,-96.1255"/>
</g>
<!-- Node17 -->
<g id="node35" class="node"><title>Node17</title>
<a xlink:href="../../d2/dbd/encap_8c.html#affb1fae52ef8701fa567739282c989ec" target="_top" xlink:title="EncapsulateListIdentyResponseMessage">
<polygon fill="none" stroke="black" points="314.5,-40.5 314.5,-61.5 511.5,-61.5 511.5,-40.5 314.5,-40.5"/>
<text text-anchor="middle" x="413" y="-48.5" font-family="Helvetica,sans-Serif" font-size="10.00">EncapsulateListIdentyResponseMessage</text>
</a>
</g>
<!-- Node1&#45;&gt;Node17 -->
<g id="edge36" class="edge"><title>Node1&#45;&gt;Node17</title>
<path fill="none" stroke="midnightblue" d="M125.801,-83.3604C180.705,-77.174 258.643,-68.3923 319.479,-61.5376"/>
<polygon fill="midnightblue" stroke="midnightblue" points="125.372,-79.8865 115.827,-84.4843 126.156,-86.8425 125.372,-79.8865"/>
</g>
<!-- Node3 -->
<g id="node5" class="node"><title>Node3</title>
<a xlink:href="../../d4/d91/group__ENCAP.html#ga86a32a262ea21cad9631fa02c81f1a03" target="_top" xlink:title="NotifyCommonPacketFormat">
<polygon fill="none" stroke="black" points="341,-120.5 341,-141.5 485,-141.5 485,-120.5 341,-120.5"/>
<text text-anchor="middle" x="413" y="-128.5" font-family="Helvetica,sans-Serif" font-size="10.00">NotifyCommonPacketFormat</text>
</a>
</g>
<!-- Node2&#45;&gt;Node3 -->
<g id="edge4" class="edge"><title>Node2&#45;&gt;Node3</title>
<path fill="none" stroke="midnightblue" d="M288.16,-118.39C305.337,-120.125 323.629,-121.973 340.765,-123.703"/>
<polygon fill="midnightblue" stroke="midnightblue" points="288.494,-114.906 278.193,-117.383 287.79,-121.87 288.494,-114.906"/>
</g>
<!-- Node9 -->
<g id="node17" class="node"><title>Node9</title>
<a xlink:href="../../d4/d91/group__ENCAP.html#ga94ca28af85239d7dd63b3b044201fe51" target="_top" xlink:title="NotifyConnectedCommonPacketFormat">
<polygon fill="none" stroke="black" points="317.5,-80.5 317.5,-101.5 508.5,-101.5 508.5,-80.5 317.5,-80.5"/>
<text text-anchor="middle" x="413" y="-88.5" font-family="Helvetica,sans-Serif" font-size="10.00">NotifyConnectedCommonPacketFormat</text>
</a>
</g>
<!-- Node2&#45;&gt;Node9 -->
<g id="edge16" class="edge"><title>Node2&#45;&gt;Node9</title>
<path fill="none" stroke="midnightblue" d="M288.28,-103.598C297.714,-102.645 307.483,-101.658 317.21,-100.676"/>
<polygon fill="midnightblue" stroke="midnightblue" points="287.79,-100.13 278.193,-104.617 288.494,-107.094 287.79,-100.13"/>
</g>
<!-- Node11 -->
<g id="node22" class="node"><title>Node11</title>
<a xlink:href="../../d4/d91/group__ENCAP.html#gad61fa4f84989cf27086d57557ad552c4" target="_top" xlink:title="AssembleIOMessage">
<polygon fill="none" stroke="black" points="358,-160.5 358,-181.5 468,-181.5 468,-160.5 358,-160.5"/>
<text text-anchor="middle" x="413" y="-168.5" font-family="Helvetica,sans-Serif" font-size="10.00">AssembleIOMessage</text>
</a>
</g>
<!-- Node2&#45;&gt;Node11 -->
<g id="edge22" class="edge"><title>Node2&#45;&gt;Node11</title>
<path fill="none" stroke="midnightblue" d="M246.932,-125.655C266.069,-133.993 291.065,-144.115 314,-151 328.023,-155.21 343.431,-158.801 357.828,-161.73"/>
<polygon fill="midnightblue" stroke="midnightblue" points="248.333,-122.448 237.772,-121.605 245.503,-128.85 248.333,-122.448"/>
</g>
<!-- Node4 -->
<g id="node7" class="node"><title>Node4</title>
<a xlink:href="../../d2/dbd/encap_8c.html#a638a3760c5969c8cd91977f1ac30058a" target="_top" xlink:title="Call UCMM or Message Router if UCMM not implemented.">
<polygon fill="none" stroke="black" points="548,-120.5 548,-141.5 806,-141.5 806,-120.5 548,-120.5"/>
<text text-anchor="middle" x="677" y="-128.5" font-family="Helvetica,sans-Serif" font-size="10.00">HandleReceivedSendRequestResponseDataCommand</text>
</a>
</g>
<!-- Node3&#45;&gt;Node4 -->
<g id="edge6" class="edge"><title>Node3&#45;&gt;Node4</title>
<path fill="none" stroke="midnightblue" d="M495.359,-131C512.05,-131 529.979,-131 547.84,-131"/>
<polygon fill="midnightblue" stroke="midnightblue" points="495.139,-127.5 485.139,-131 495.139,-134.5 495.139,-127.5"/>
</g>
<!-- Node5 -->
<g id="node9" class="node"><title>Node5</title>
<a xlink:href="../../d2/dc9/group__CIP__API.html#gadeace7aa415ce7da686b522c85d131d1" target="_top" xlink:title="Notify the encapsulation layer that an explicit message has been received via TCP.">
<polygon fill="none" stroke="black" points="843,-82.5 843,-103.5 999,-103.5 999,-82.5 843,-82.5"/>
<text text-anchor="middle" x="921" y="-90.5" font-family="Helvetica,sans-Serif" font-size="10.00">HandleReceivedExplictTcpData</text>
</a>
</g>
<!-- Node4&#45;&gt;Node5 -->
<g id="edge8" class="edge"><title>Node4&#45;&gt;Node5</title>
<path fill="none" stroke="midnightblue" d="M755.255,-118.886C772,-116.289 789.588,-113.557 806,-111 821.475,-108.589 838.12,-105.989 853.808,-103.534"/>
<polygon fill="midnightblue" stroke="midnightblue" points="754.302,-115.492 744.956,-120.483 755.374,-122.409 754.302,-115.492"/>
</g>
<!-- Node6 -->
<g id="node11" class="node"><title>Node6</title>
<a xlink:href="../../db/d4f/generic__networkhandler_8c.html#aca5593b7dd39d7a7b437999a367102d6" target="_top" xlink:title="Handles data on an established TCP connection, processed connection is given by socket.">
<polygon fill="none" stroke="black" points="1079,-85.5 1079,-106.5 1207,-106.5 1207,-85.5 1079,-85.5"/>
<text text-anchor="middle" x="1143" y="-93.5" font-family="Helvetica,sans-Serif" font-size="10.00">HandleDataOnTcpSocket</text>
</a>
</g>
<!-- Node5&#45;&gt;Node6 -->
<g id="edge10" class="edge"><title>Node5&#45;&gt;Node6</title>
<path fill="none" stroke="midnightblue" d="M1009.48,-94.1956C1032.7,-94.5095 1057.31,-94.842 1078.98,-95.1348"/>
<polygon fill="midnightblue" stroke="midnightblue" points="1009.32,-90.6932 999.269,-94.0577 1009.22,-97.6926 1009.32,-90.6932"/>
</g>
<!-- Node7 -->
<g id="node13" class="node"><title>Node7</title>
<a xlink:href="../../da/dc2/generic__networkhandler_8h.html#a2f01af81d3e5018d9980e2bc28c9078a" target="_top" xlink:title="NetworkHandlerProcessOnce">
<polygon fill="none" stroke="black" points="1286,-57.5 1286,-78.5 1432,-78.5 1432,-57.5 1286,-57.5"/>
<text text-anchor="middle" x="1359" y="-65.5" font-family="Helvetica,sans-Serif" font-size="10.00">NetworkHandlerProcessOnce</text>
</a>
</g>
<!-- Node6&#45;&gt;Node7 -->
<g id="edge12" class="edge"><title>Node6&#45;&gt;Node7</title>
<path fill="none" stroke="midnightblue" d="M1217.26,-86.3734C1239.47,-83.4944 1263.8,-80.3411 1285.93,-77.472"/>
<polygon fill="midnightblue" stroke="midnightblue" points="1216.69,-82.9183 1207.22,-87.6749 1217.59,-89.8602 1216.69,-82.9183"/>
</g>
<!-- Node8 -->
<g id="node15" class="node"><title>Node8</title>
<a xlink:href="../../d9/dfb/POSIX_2main_8c.html#ad338a7dbc41dc40bcecd0479377ef207" target="_top" xlink:title="main">
<polygon fill="none" stroke="black" points="1576,-92.5 1576,-113.5 1614,-113.5 1614,-92.5 1576,-92.5"/>
<text text-anchor="middle" x="1595" y="-100.5" font-family="Helvetica,sans-Serif" font-size="10.00">main</text>
</a>
</g>
<!-- Node7&#45;&gt;Node8 -->
<g id="edge14" class="edge"><title>Node7&#45;&gt;Node8</title>
<path fill="none" stroke="midnightblue" d="M1439.71,-79.9692C1488.31,-87.177 1546.32,-95.78 1575.78,-100.149"/>
<polygon fill="midnightblue" stroke="midnightblue" points="1440.21,-76.5061 1429.81,-78.5012 1439.19,-83.4304 1440.21,-76.5061"/>
</g>
<!-- Node10 -->
<g id="node19" class="node"><title>Node10</title>
<a xlink:href="../../d2/dbd/encap_8c.html#a2a5e809a74a56268ad9f51638796fb3d" target="_top" xlink:title="Call Connection Manager.">
<polygon fill="none" stroke="black" points="579.5,-80.5 579.5,-101.5 774.5,-101.5 774.5,-80.5 579.5,-80.5"/>
<text text-anchor="middle" x="677" y="-88.5" font-family="Helvetica,sans-Serif" font-size="10.00">HandleReceivedSendUnitDataCommand</text>
</a>
</g>
<!-- Node9&#45;&gt;Node10 -->
<g id="edge18" class="edge"><title>Node9&#45;&gt;Node10</title>
<path fill="none" stroke="midnightblue" d="M518.755,-91C538.788,-91 559.66,-91 579.426,-91"/>
<polygon fill="midnightblue" stroke="midnightblue" points="518.683,-87.5001 508.683,-91 518.683,-94.5001 518.683,-87.5001"/>
</g>
<!-- Node10&#45;&gt;Node5 -->
<g id="edge20" class="edge"><title>Node10&#45;&gt;Node5</title>
<path fill="none" stroke="midnightblue" d="M784.94,-91.8848C804.363,-92.044 824.267,-92.2071 842.648,-92.3578"/>
<polygon fill="midnightblue" stroke="midnightblue" points="784.867,-88.3841 774.838,-91.802 784.809,-95.3839 784.867,-88.3841"/>
</g>
<!-- Node12 -->
<g id="node24" class="node"><title>Node12</title>
<a xlink:href="../../df/d03/cipioconnection_8c.html#a20f1bc1c4cc4470cf371f94d51814de2" target="_top" xlink:title="Send the data from the produced CIP Object of the connection via the socket of the connection object ...">
<polygon fill="none" stroke="black" points="623.5,-160.5 623.5,-181.5 730.5,-181.5 730.5,-160.5 623.5,-160.5"/>
<text text-anchor="middle" x="677" y="-168.5" font-family="Helvetica,sans-Serif" font-size="10.00">SendConnectedData</text>
</a>
</g>
<!-- Node11&#45;&gt;Node12 -->
<g id="edge24" class="edge"><title>Node11&#45;&gt;Node12</title>
<path fill="none" stroke="midnightblue" d="M478.197,-171C522.881,-171 581.434,-171 623.403,-171"/>
<polygon fill="midnightblue" stroke="midnightblue" points="478.022,-167.5 468.022,-171 478.022,-174.5 478.022,-167.5"/>
</g>
<!-- Node13 -->
<g id="node26" class="node"><title>Node13</title>
<a xlink:href="../../df/d03/cipioconnection_8c.html#ab3282f146a3ea91c90cf14c32206ee8c" target="_top" xlink:title="SetIoConnectionCallbacks">
<polygon fill="none" stroke="black" points="854.5,-142.5 854.5,-163.5 987.5,-163.5 987.5,-142.5 854.5,-142.5"/>
<text text-anchor="middle" x="921" y="-150.5" font-family="Helvetica,sans-Serif" font-size="10.00">SetIoConnectionCallbacks</text>
</a>
</g>
<!-- Node12&#45;&gt;Node13 -->
<g id="edge26" class="edge"><title>Node12&#45;&gt;Node13</title>
<path fill="none" stroke="midnightblue" d="M740.614,-166.307C775.485,-163.735 818.683,-160.548 854.062,-157.938"/>
<polygon fill="midnightblue" stroke="midnightblue" points="740.262,-162.824 730.547,-167.05 740.777,-169.805 740.262,-162.824"/>
</g>
<!-- Node14 -->
<g id="node28" class="node"><title>Node14</title>
<a xlink:href="../../de/d45/cipioconnection_8h.html#a43e270b3f9b9f6296b12285c320c95aa" target="_top" xlink:title="Setup all data in order to establish an IO connection.">
<polygon fill="none" stroke="black" points="1085.5,-135.5 1085.5,-156.5 1200.5,-156.5 1200.5,-135.5 1085.5,-135.5"/>
<text text-anchor="middle" x="1143" y="-143.5" font-family="Helvetica,sans-Serif" font-size="10.00">EstablishIoConnection</text>
</a>
</g>
<!-- Node13&#45;&gt;Node14 -->
<g id="edge28" class="edge"><title>Node13&#45;&gt;Node14</title>
<path fill="none" stroke="midnightblue" d="M997.639,-150.583C1026.45,-149.675 1058.68,-148.659 1085.46,-147.814"/>
<polygon fill="midnightblue" stroke="midnightblue" points="997.492,-147.086 987.607,-150.9 997.713,-154.083 997.492,-147.086"/>
</g>
<!-- Node15 -->
<g id="node30" class="node"><title>Node15</title>
<a xlink:href="../../d2/da3/cipconnectionmanager_8h.html#a5ab0de6894d23e8fe84a6b46797c2212" target="_top" xlink:title="Initialize the data of the connection manager object.">
<polygon fill="none" stroke="black" points="1300.5,-122.5 1300.5,-143.5 1417.5,-143.5 1417.5,-122.5 1300.5,-122.5"/>
<text text-anchor="middle" x="1359" y="-130.5" font-family="Helvetica,sans-Serif" font-size="10.00">ConnectionManagerInit</text>
</a>
</g>
<!-- Node14&#45;&gt;Node15 -->
<g id="edge30" class="edge"><title>Node14&#45;&gt;Node15</title>
<path fill="none" stroke="midnightblue" d="M1210.59,-141.932C1239.4,-140.198 1272.69,-138.195 1300.43,-136.525"/>
<polygon fill="midnightblue" stroke="midnightblue" points="1210.37,-138.439 1200.6,-142.533 1210.79,-145.426 1210.37,-138.439"/>
</g>
<!-- Node16 -->
<g id="node32" class="node"><title>Node16</title>
<a xlink:href="../../d2/dc9/group__CIP__API.html#ga5d4979945d124e28668b264c3823db1c" target="_top" xlink:title="Initialize and setup the CIP&#45;stack.">
<polygon fill="none" stroke="black" points="1468.5,-115.5 1468.5,-136.5 1539.5,-136.5 1539.5,-115.5 1468.5,-115.5"/>
<text text-anchor="middle" x="1504" y="-123.5" font-family="Helvetica,sans-Serif" font-size="10.00">CipStackInit</text>
</a>
</g>
<!-- Node15&#45;&gt;Node16 -->
<g id="edge32" class="edge"><title>Node15&#45;&gt;Node16</title>
<path fill="none" stroke="midnightblue" d="M1427.69,-129.684C1441.7,-129.008 1455.89,-128.323 1468.18,-127.729"/>
<polygon fill="midnightblue" stroke="midnightblue" points="1427.38,-126.195 1417.56,-130.173 1427.72,-133.187 1427.38,-126.195"/>
</g>
<!-- Node16&#45;&gt;Node8 -->
<g id="edge34" class="edge"><title>Node16&#45;&gt;Node8</title>
<path fill="none" stroke="midnightblue" d="M1549.69,-114.453C1558.95,-112.112 1568.2,-109.774 1575.91,-107.826"/>
<polygon fill="midnightblue" stroke="midnightblue" points="1548.54,-111.132 1539.7,-116.976 1550.26,-117.919 1548.54,-111.132"/>
</g>
<!-- Node18 -->
<g id="node37" class="node"><title>Node18</title>
<a xlink:href="../../d2/dbd/encap_8c.html#aa7708824f85c4eb678ab822220ae4991" target="_top" xlink:title="HandleReceivedListIdentityCommandTcp">
<polygon fill="none" stroke="black" points="578,-40.5 578,-61.5 776,-61.5 776,-40.5 578,-40.5"/>
<text text-anchor="middle" x="677" y="-48.5" font-family="Helvetica,sans-Serif" font-size="10.00">HandleReceivedListIdentityCommandTcp</text>
</a>
</g>
<!-- Node17&#45;&gt;Node18 -->
<g id="edge38" class="edge"><title>Node17&#45;&gt;Node18</title>
<path fill="none" stroke="midnightblue" d="M521.854,-51C540.301,-51 559.371,-51 577.561,-51"/>
<polygon fill="midnightblue" stroke="midnightblue" points="521.679,-47.5001 511.679,-51 521.679,-54.5001 521.679,-47.5001"/>
</g>
<!-- Node22 -->
<g id="node48" class="node"><title>Node22</title>
<a xlink:href="../../d2/dbd/encap_8c.html#a69765df985168c78fd59928c8bd4b2b8" target="_top" xlink:title="HandleReceivedListIdentityCommandUdp">
<polygon fill="none" stroke="black" points="577,-0.5 577,-21.5 777,-21.5 777,-0.5 577,-0.5"/>
<text text-anchor="middle" x="677" y="-8.5" font-family="Helvetica,sans-Serif" font-size="10.00">HandleReceivedListIdentityCommandUdp</text>
</a>
</g>
<!-- Node17&#45;&gt;Node22 -->
<g id="edge52" class="edge"><title>Node17&#45;&gt;Node22</title>
<path fill="none" stroke="midnightblue" d="M492.522,-38.9511C529.191,-33.3953 572.314,-26.8615 607.642,-21.5087"/>
<polygon fill="midnightblue" stroke="midnightblue" points="491.726,-35.5318 482.363,-40.4905 492.774,-42.4528 491.726,-35.5318"/>
</g>
<!-- Node18&#45;&gt;Node5 -->
<g id="edge40" class="edge"><title>Node18&#45;&gt;Node5</title>
<path fill="none" stroke="midnightblue" d="M757.6,-63.0486C773.651,-65.5741 790.373,-68.2948 806,-71 826.33,-74.5194 848.617,-78.7065 868.113,-82.4784"/>
<polygon fill="midnightblue" stroke="midnightblue" points="758.128,-59.5888 747.708,-61.5032 757.048,-66.5049 758.128,-59.5888"/>
</g>
<!-- Node19 -->
<g id="node40" class="node"><title>Node19</title>
<a xlink:href="../../d2/dc9/group__CIP__API.html#gaa341c4592653ac350721e07a99915315" target="_top" xlink:title="Notify the encapsulation layer that an explicit message has been received via UDP.">
<polygon fill="none" stroke="black" points="842,-5.5 842,-26.5 1000,-26.5 1000,-5.5 842,-5.5"/>
<text text-anchor="middle" x="921" y="-13.5" font-family="Helvetica,sans-Serif" font-size="10.00">HandleReceivedExplictUdpData</text>
</a>
</g>
<!-- Node18&#45;&gt;Node19 -->
<g id="edge42" class="edge"><title>Node18&#45;&gt;Node19</title>
<path fill="none" stroke="midnightblue" d="M760.46,-39.0283C788.699,-34.9776 820.007,-30.4866 847.422,-26.5542"/>
<polygon fill="midnightblue" stroke="midnightblue" points="759.61,-35.6143 750.208,-40.4988 760.604,-42.5434 759.61,-35.6143"/>
</g>
<!-- Node20 -->
<g id="node42" class="node"><title>Node20</title>
<a xlink:href="../../db/d4f/generic__networkhandler_8c.html#a5cae623dd720f3072dabdb78aa134262" target="_top" xlink:title="Checks and handles incoming messages via UDP broadcast.">
<polygon fill="none" stroke="black" points="1036,-45.5 1036,-66.5 1250,-66.5 1250,-45.5 1036,-45.5"/>
<text text-anchor="middle" x="1143" y="-53.5" font-family="Helvetica,sans-Serif" font-size="10.00">CheckAndHandleUdpGlobalBroadcastSocket</text>
</a>
</g>
<!-- Node19&#45;&gt;Node20 -->
<g id="edge44" class="edge"><title>Node19&#45;&gt;Node20</title>
<path fill="none" stroke="midnightblue" d="M989.457,-28.3346C1019.94,-33.8278 1055.48,-40.23 1084.68,-45.4913"/>
<polygon fill="midnightblue" stroke="midnightblue" points="989.79,-24.8383 979.328,-26.5095 988.549,-31.7274 989.79,-24.8383"/>
</g>
<!-- Node21 -->
<g id="node45" class="node"><title>Node21</title>
<a xlink:href="../../db/d4f/generic__networkhandler_8c.html#ace1d8f3907ead0c43c1b5853132d5eb1" target="_top" xlink:title="Checks and processes request received via the UDP unicast socket, currently the implementation is por...">
<polygon fill="none" stroke="black" points="1055,-5.5 1055,-26.5 1231,-26.5 1231,-5.5 1055,-5.5"/>
<text text-anchor="middle" x="1143" y="-13.5" font-family="Helvetica,sans-Serif" font-size="10.00">CheckAndHandleUdpUnicastSocket</text>
</a>
</g>
<!-- Node19&#45;&gt;Node21 -->
<g id="edge48" class="edge"><title>Node19&#45;&gt;Node21</title>
<path fill="none" stroke="midnightblue" d="M1010.26,-16C1024.93,-16 1040.13,-16 1054.77,-16"/>
<polygon fill="midnightblue" stroke="midnightblue" points="1010.21,-12.5001 1000.21,-16 1010.21,-19.5001 1010.21,-12.5001"/>
</g>
<!-- Node20&#45;&gt;Node7 -->
<g id="edge46" class="edge"><title>Node20&#45;&gt;Node7</title>
<path fill="none" stroke="midnightblue" d="M1260.24,-62.5136C1268.91,-62.9949 1277.49,-63.4718 1285.77,-63.9318"/>
<polygon fill="midnightblue" stroke="midnightblue" points="1260.23,-59.0074 1250.05,-61.9473 1259.84,-65.9967 1260.23,-59.0074"/>
</g>
<!-- Node21&#45;&gt;Node7 -->
<g id="edge50" class="edge"><title>Node21&#45;&gt;Node7</title>
<path fill="none" stroke="midnightblue" d="M1215.32,-28.4914C1226.96,-30.7961 1238.84,-33.3265 1250,-36 1275.89,-42.2038 1304.79,-50.7635 1326.32,-57.4691"/>
<polygon fill="midnightblue" stroke="midnightblue" points="1215.66,-24.993 1205.18,-26.5263 1214.33,-31.8651 1215.66,-24.993"/>
</g>
<!-- Node22&#45;&gt;Node19 -->
<g id="edge54" class="edge"><title>Node22&#45;&gt;Node19</title>
<path fill="none" stroke="midnightblue" d="M787.463,-13.2636C805.839,-13.6402 824.568,-14.0239 841.962,-14.3804"/>
<polygon fill="midnightblue" stroke="midnightblue" points="787.37,-9.76104 777.3,-13.0553 787.227,-16.7596 787.37,-9.76104"/>
</g>
</g>
</svg>
        <g id="navigator" transform="translate(0 0)" fill="#404254">
                <rect fill="#f2f5e9" fill-opacity="0.5" stroke="#606060" stroke-width=".5" x="0" y="0" width="60" height="60"/>
                <use id="zoomplus" xlink:href="#zoomPlus" x="17" y="9" onmousedown="handleZoom(evt,'in')"/>
                <use id="zoomminus" xlink:href="#zoomMin" x="42" y="9" onmousedown="handleZoom(evt,'out')"/>
                <use id="reset" xlink:href="#resetDef" x="30" y="36" onmousedown="handleReset()"/>
                <g id="arrowUp" xlink:href="#dirArrow" transform="translate(30 24)" onmousedown="handlePan(0,-1)">
                  <use xlink:href="#rim" fill="#404040">
                        <set attributeName="fill" to="#808080" begin="arrowUp.mouseover" end="arrowUp.mouseout"/>
                  </use>
                  <path fill="none" stroke="white" stroke-width="1.5" d="M0,-3.0v7 M-2.5,-0.5L0,-3.0L2.5,-0.5"/>
                </g>
                <g id="arrowRight" xlink:href="#dirArrow" transform="rotate(90) translate(36 -43)" onmousedown="handlePan(1,0)">
                  <use xlink:href="#rim" fill="#404040">
                        <set attributeName="fill" to="#808080" begin="arrowRight.mouseover" end="arrowRight.mouseout"/>
                  </use>
                  <path fill="none" stroke="white" stroke-width="1.5" d="M0,-3.0v7 M-2.5,-0.5L0,-3.0L2.5,-0.5"/>
                </g>
                <g id="arrowDown" xlink:href="#dirArrow" transform="rotate(180) translate(-30 -48)" onmousedown="handlePan(0,1)">
                  <use xlink:href="#rim" fill="#404040">
                        <set attributeName="fill" to="#808080" begin="arrowDown.mouseover" end="arrowDown.mouseout"/>
                  </use>
                  <path fill="none" stroke="white" stroke-width="1.5" d="M0,-3.0v7 M-2.5,-0.5L0,-3.0L2.5,-0.5"/>
                </g>
                <g id="arrowLeft" xlink:href="#dirArrow" transform="rotate(270) translate(-36 17)" onmousedown="handlePan(-1,0)">
                  <use xlink:href="#rim" fill="#404040">
                        <set attributeName="fill" to="#808080" begin="arrowLeft.mouseover" end="arrowLeft.mouseout"/>
                  </use>
                  <path fill="none" stroke="white" stroke-width="1.5" d="M0,-3.0v7 M-2.5,-0.5L0,-3.0L2.5,-0.5"/>
                </g>
        </g>
</svg>
