<?xml version="1.0" encoding="UTF-8" standalone="no"?>
<!DOCTYPE svg PUBLIC "-//W3C//DTD SVG 1.1//EN"
 "http://www.w3.org/Graphics/SVG/1.1/DTD/svg11.dtd">
<!-- Generated by graphviz version 2.26.3 (20100126.1600)
 -->
<!-- Title: G Pages: 1 -->
<!--zoomable 230 -->
<svg id="main" version="1.1" xmlns="http://www.w3.org/2000/svg" xmlns:xlink="http://www.w3.org/1999/xlink" xml:space="preserve" onload="init(evt)">
        <defs>
                <circle id="rim" cx="0" cy="0" r="7"/>
                <circle id="rim2" cx="0" cy="0" r="3.5"/>
                <g id="zoomPlus">
                        <use xlink:href="#rim" fill="#404040">
                                <set attributeName="fill" to="#808080" begin="zoomplus.mouseover" end="zoomplus.mouseout"/>
                        </use>
                        <path d="M-4,0h8M0,-4v8" fill="none" stroke="white" stroke-width="1.5" pointer-events="none"/>
                </g>
                <g id="zoomMin">
                        <use xlink:href="#rim" fill="#404040">
                                <set attributeName="fill" to="#808080" begin="zoomminus.mouseover" end="zoomminus.mouseout"/>
                        </use>
                        <path d="M-4,0h8" fill="none" stroke="white" stroke-width="1.5" pointer-events="none"/>
                </g>
                <g id="dirArrow">
                        <path fill="none" stroke="white" stroke-width="1.5" d="M0,-3.0v7 M-2.5,-0.5L0,-3.0L2.5,-0.5"/>
                </g>
               <g id="resetDef">
                       <use xlink:href="#rim2" fill="#404040">
                               <set attributeName="fill" to="#808080" begin="reset.mouseover" end="reset.mouseout"/>
                       </use>
               </g>
        </defs>

<script type="text/javascript">
var viewWidth = 1942;
var viewHeight = 230;
var sectionId = 'dynsection-7';
</script>
<script xlink:href="../../svgpan.js"/>
<svg id="graph" class="graph">
<g id="viewport">
<title>G</title>
<!-- Node1 -->
<g id="node1" class="node"><title>Node1</title>
<polygon fill="#bfbfbf" stroke="black" points="0.5,-139.5 0.5,-160.5 117.5,-160.5 117.5,-139.5 0.5,-139.5"/>
<text text-anchor="middle" x="59" y="-147.5" font-family="Helvetica,sans-Serif" font-size="10.00">MoveMessageNOctets</text>
</g>
<!-- Node2 -->
<g id="node3" class="node"><title>Node2</title>
<a xlink:href="../../d2/dbd/encap_8c.html#ad676b132a3d05d3ee62a9bb5d1236e4f" target="_top" xlink:title="DetermineDelayTime">
<polygon fill="none" stroke="black" points="240.5,-198.5 240.5,-219.5 349.5,-219.5 349.5,-198.5 240.5,-198.5"/>
<text text-anchor="middle" x="295" y="-206.5" font-family="Helvetica,sans-Serif" font-size="10.00">DetermineDelayTime</text>
</a>
</g>
<!-- Node1&#45;&gt;Node2 -->
<g id="edge2" class="edge"><title>Node1&#45;&gt;Node2</title>
<path fill="none" stroke="midnightblue" d="M95.8815,-164.277C113.313,-170.645 134.527,-177.854 154,-183 182.157,-190.44 214.029,-196.511 240.338,-200.909"/>
<polygon fill="midnightblue" stroke="midnightblue" points="96.69,-160.844 86.0969,-160.647 94.255,-167.407 96.69,-160.844"/>
</g>
<!-- Node9 -->
<g id="node18" class="node"><title>Node9</title>
<a xlink:href="../../d2/dbd/encap_8c.html#a268183211c79c21c5b3ad550f27078e0" target="_top" xlink:title="EncapsulateData">
<polygon fill="none" stroke="black" points="951,-120.5 951,-141.5 1043,-141.5 1043,-120.5 951,-120.5"/>
<text text-anchor="middle" x="997" y="-128.5" font-family="Helvetica,sans-Serif" font-size="10.00">EncapsulateData</text>
</a>
</g>
<!-- Node1&#45;&gt;Node9 -->
<g id="edge18" class="edge"><title>Node1&#45;&gt;Node9</title>
<path fill="none" stroke="midnightblue" d="M127.908,-148.604C309.644,-144.923 798.44,-135.022 950.919,-131.933"/>
<polygon fill="midnightblue" stroke="midnightblue" points="127.603,-145.11 117.676,-148.811 127.745,-152.108 127.603,-145.11"/>
</g>
<!-- Node12 -->
<g id="node26" class="node"><title>Node12</title>
<a xlink:href="../../d2/dbd/encap_8c.html#affb1fae52ef8701fa567739282c989ec" target="_top" xlink:title="EncapsulateListIdentyResponseMessage">
<polygon fill="none" stroke="black" points="634.5,-160.5 634.5,-181.5 831.5,-181.5 831.5,-160.5 634.5,-160.5"/>
<text text-anchor="middle" x="733" y="-168.5" font-family="Helvetica,sans-Serif" font-size="10.00">EncapsulateListIdentyResponseMessage</text>
</a>
</g>
<!-- Node1&#45;&gt;Node12 -->
<g id="edge28" class="edge"><title>Node1&#45;&gt;Node12</title>
<path fill="none" stroke="midnightblue" d="M127.802,-152.144C247.897,-155.886 496.141,-163.62 634.464,-167.93"/>
<polygon fill="midnightblue" stroke="midnightblue" points="127.738,-148.64 117.634,-151.827 127.52,-155.637 127.738,-148.64"/>
</g>
<!-- Node14 -->
<g id="node33" class="node"><title>Node14</title>
<a xlink:href="../../d0/dec/endianconv_8h.html#a0ca9c3a411ccc35e03050e869aafd2bf" target="_top" xlink:title="FillNextNMessageOctetsWithValueAndMoveToNextPosition">
<polygon fill="none" stroke="black" points="154.5,-61.5 154.5,-82.5 435.5,-82.5 435.5,-61.5 154.5,-61.5"/>
<text text-anchor="middle" x="295" y="-69.5" font-family="Helvetica,sans-Serif" font-size="10.00">FillNextNMessageOctetsWithValueAndMoveToNextPosition</text>
</a>
</g>
<!-- Node1&#45;&gt;Node14 -->
<g id="edge38" class="edge"><title>Node1&#45;&gt;Node14</title>
<path fill="none" stroke="midnightblue" d="M98.5148,-136.022C115.551,-130.061 135.722,-123.09 154,-117 190.445,-104.857 232.41,-91.5496 261.018,-82.5794"/>
<polygon fill="midnightblue" stroke="midnightblue" points="97.1616,-132.788 88.8842,-139.401 99.4791,-139.393 97.1616,-132.788"/>
</g>
<!-- Node3 -->
<g id="node5" class="node"><title>Node3</title>
<a xlink:href="../../d2/dbd/encap_8c.html#a69765df985168c78fd59928c8bd4b2b8" target="_top" xlink:title="HandleReceivedListIdentityCommandUdp">
<polygon fill="none" stroke="black" points="897,-200.5 897,-221.5 1097,-221.5 1097,-200.5 897,-200.5"/>
<text text-anchor="middle" x="997" y="-208.5" font-family="Helvetica,sans-Serif" font-size="10.00">HandleReceivedListIdentityCommandUdp</text>
</a>
</g>
<!-- Node2&#45;&gt;Node3 -->
<g id="edge4" class="edge"><title>Node2&#45;&gt;Node3</title>
<path fill="none" stroke="midnightblue" d="M359.509,-209.184C482.342,-209.534 750.582,-210.298 896.912,-210.715"/>
<polygon fill="midnightblue" stroke="midnightblue" points="359.511,-205.684 349.501,-209.155 359.491,-212.684 359.511,-205.684"/>
</g>
<!-- Node4 -->
<g id="node7" class="node"><title>Node4</title>
<a xlink:href="../../d2/dc9/group__CIP__API.html#gaa341c4592653ac350721e07a99915315" target="_top" xlink:title="Notify the encapsulation layer that an explicit message has been received via UDP.">
<polygon fill="none" stroke="black" points="1162,-160.5 1162,-181.5 1320,-181.5 1320,-160.5 1162,-160.5"/>
<text text-anchor="middle" x="1241" y="-168.5" font-family="Helvetica,sans-Serif" font-size="10.00">HandleReceivedExplictUdpData</text>
</a>
</g>
<!-- Node3&#45;&gt;Node4 -->
<g id="edge6" class="edge"><title>Node3&#45;&gt;Node4</title>
<path fill="none" stroke="midnightblue" d="M1076.43,-198.921C1092.83,-196.361 1109.98,-193.635 1126,-191 1144.1,-188.024 1163.77,-184.652 1181.64,-181.537"/>
<polygon fill="midnightblue" stroke="midnightblue" points="1075.67,-195.496 1066.33,-200.491 1076.75,-202.413 1075.67,-195.496"/>
</g>
<!-- Node5 -->
<g id="node9" class="node"><title>Node5</title>
<a xlink:href="../../db/d4f/generic__networkhandler_8c.html#a5cae623dd720f3072dabdb78aa134262" target="_top" xlink:title="Checks and handles incoming messages via UDP broadcast.">
<polygon fill="none" stroke="black" points="1356,-160.5 1356,-181.5 1570,-181.5 1570,-160.5 1356,-160.5"/>
<text text-anchor="middle" x="1463" y="-168.5" font-family="Helvetica,sans-Serif" font-size="10.00">CheckAndHandleUdpGlobalBroadcastSocket</text>
</a>
</g>
<!-- Node4&#45;&gt;Node5 -->
<g id="edge8" class="edge"><title>Node4&#45;&gt;Node5</title>
<path fill="none" stroke="midnightblue" d="M1330.36,-171C1338.77,-171 1347.35,-171 1355.9,-171"/>
<polygon fill="midnightblue" stroke="midnightblue" points="1330.21,-167.5 1320.21,-171 1330.21,-174.5 1330.21,-167.5"/>
</g>
<!-- Node8 -->
<g id="node15" class="node"><title>Node8</title>
<a xlink:href="../../db/d4f/generic__networkhandler_8c.html#ace1d8f3907ead0c43c1b5853132d5eb1" target="_top" xlink:title="Checks and processes request received via the UDP unicast socket, currently the implementation is por...">
<polygon fill="none" stroke="black" points="1375,-120.5 1375,-141.5 1551,-141.5 1551,-120.5 1375,-120.5"/>
<text text-anchor="middle" x="1463" y="-128.5" font-family="Helvetica,sans-Serif" font-size="10.00">CheckAndHandleUdpUnicastSocket</text>
</a>
</g>
<!-- Node4&#45;&gt;Node8 -->
<g id="edge14" class="edge"><title>Node4&#45;&gt;Node8</title>
<path fill="none" stroke="midnightblue" d="M1309.46,-158.665C1339.94,-153.172 1375.48,-146.77 1404.68,-141.509"/>
<polygon fill="midnightblue" stroke="midnightblue" points="1308.55,-155.273 1299.33,-160.49 1309.79,-162.162 1308.55,-155.273"/>
</g>
<!-- Node6 -->
<g id="node11" class="node"><title>Node6</title>
<a xlink:href="../../da/dc2/generic__networkhandler_8h.html#a2f01af81d3e5018d9980e2bc28c9078a" target="_top" xlink:title="NetworkHandlerProcessOnce">
<polygon fill="none" stroke="black" points="1606,-95.5 1606,-116.5 1752,-116.5 1752,-95.5 1606,-95.5"/>
<text text-anchor="middle" x="1679" y="-103.5" font-family="Helvetica,sans-Serif" font-size="10.00">NetworkHandlerProcessOnce</text>
</a>
</g>
<!-- Node5&#45;&gt;Node6 -->
<g id="edge10" class="edge"><title>Node5&#45;&gt;Node6</title>
<path fill="none" stroke="midnightblue" d="M1540.96,-158.382C1550.81,-156.216 1560.69,-153.759 1570,-151 1601.21,-141.749 1635.7,-126.631 1657.35,-116.502"/>
<polygon fill="midnightblue" stroke="midnightblue" points="1540.21,-154.963 1531.14,-160.45 1541.65,-161.813 1540.21,-154.963"/>
</g>
<!-- Node7 -->
<g id="node13" class="node"><title>Node7</title>
<a xlink:href="../../d9/dfb/POSIX_2main_8c.html#ad338a7dbc41dc40bcecd0479377ef207" target="_top" xlink:title="main">
<polygon fill="none" stroke="black" points="1896,-67.5 1896,-88.5 1934,-88.5 1934,-67.5 1896,-67.5"/>
<text text-anchor="middle" x="1915" y="-75.5" font-family="Helvetica,sans-Serif" font-size="10.00">main</text>
</a>
</g>
<!-- Node6&#45;&gt;Node7 -->
<g id="edge12" class="edge"><title>Node6&#45;&gt;Node7</title>
<path fill="none" stroke="midnightblue" d="M1762.19,-96.1301C1810.34,-90.417 1866.99,-83.696 1895.91,-80.265"/>
<polygon fill="midnightblue" stroke="midnightblue" points="1761.57,-92.6785 1752.06,-97.3324 1762.4,-99.6297 1761.57,-92.6785"/>
</g>
<!-- Node8&#45;&gt;Node6 -->
<g id="edge16" class="edge"><title>Node8&#45;&gt;Node6</title>
<path fill="none" stroke="midnightblue" d="M1561.47,-119.603C1576.43,-117.871 1591.64,-116.111 1605.93,-114.457"/>
<polygon fill="midnightblue" stroke="midnightblue" points="1560.7,-116.169 1551.17,-120.795 1561.5,-123.122 1560.7,-116.169"/>
</g>
<!-- Node9&#45;&gt;Node4 -->
<g id="edge26" class="edge"><title>Node9&#45;&gt;Node4</title>
<path fill="none" stroke="midnightblue" d="M1053.13,-139.472C1075.78,-142.951 1102.15,-147.077 1126,-151 1144.1,-153.976 1163.77,-157.348 1181.64,-160.463"/>
<polygon fill="midnightblue" stroke="midnightblue" points="1053.42,-135.976 1043,-137.923 1052.36,-142.896 1053.42,-135.976"/>
</g>
<!-- Node10 -->
<g id="node20" class="node"><title>Node10</title>
<a xlink:href="../../d2/dc9/group__CIP__API.html#gadeace7aa415ce7da686b522c85d131d1" target="_top" xlink:title="Notify the encapsulation layer that an explicit message has been received via TCP.">
<polygon fill="none" stroke="black" points="1163,-80.5 1163,-101.5 1319,-101.5 1319,-80.5 1163,-80.5"/>
<text text-anchor="middle" x="1241" y="-88.5" font-family="Helvetica,sans-Serif" font-size="10.00">HandleReceivedExplictTcpData</text>
</a>
</g>
<!-- Node9&#45;&gt;Node10 -->
<g id="edge20" class="edge"><title>Node9&#45;&gt;Node10</title>
<path fill="none" stroke="midnightblue" d="M1053.13,-122.528C1075.78,-119.049 1102.15,-114.923 1126,-111 1144.1,-108.024 1163.77,-104.652 1181.64,-101.537"/>
<polygon fill="midnightblue" stroke="midnightblue" points="1052.36,-119.104 1043,-124.077 1053.42,-126.024 1052.36,-119.104"/>
</g>
<!-- Node11 -->
<g id="node22" class="node"><title>Node11</title>
<a xlink:href="../../db/d4f/generic__networkhandler_8c.html#aca5593b7dd39d7a7b437999a367102d6" target="_top" xlink:title="Handles data on an established TCP connection, processed connection is given by socket.">
<polygon fill="none" stroke="black" points="1399,-80.5 1399,-101.5 1527,-101.5 1527,-80.5 1399,-80.5"/>
<text text-anchor="middle" x="1463" y="-88.5" font-family="Helvetica,sans-Serif" font-size="10.00">HandleDataOnTcpSocket</text>
</a>
</g>
<!-- Node10&#45;&gt;Node11 -->
<g id="edge22" class="edge"><title>Node10&#45;&gt;Node11</title>
<path fill="none" stroke="midnightblue" d="M1329.48,-91C1352.7,-91 1377.31,-91 1398.98,-91"/>
<polygon fill="midnightblue" stroke="midnightblue" points="1329.27,-87.5001 1319.27,-91 1329.27,-94.5001 1329.27,-87.5001"/>
</g>
<!-- Node11&#45;&gt;Node6 -->
<g id="edge24" class="edge"><title>Node11&#45;&gt;Node6</title>
<path fill="none" stroke="midnightblue" d="M1537.26,-96.1571C1559.47,-97.6994 1583.8,-99.3887 1605.93,-100.926"/>
<polygon fill="midnightblue" stroke="midnightblue" points="1537.44,-92.6612 1527.22,-95.4599 1536.96,-99.6443 1537.44,-92.6612"/>
</g>
<!-- Node12&#45;&gt;Node3 -->
<g id="edge36" class="edge"><title>Node12&#45;&gt;Node3</title>
<path fill="none" stroke="midnightblue" d="M812.522,-183.049C849.191,-188.605 892.314,-195.138 927.642,-200.491"/>
<polygon fill="midnightblue" stroke="midnightblue" points="812.774,-179.547 802.363,-181.51 811.726,-186.468 812.774,-179.547"/>
</g>
<!-- Node13 -->
<g id="node28" class="node"><title>Node13</title>
<a xlink:href="../../d2/dbd/encap_8c.html#aa7708824f85c4eb678ab822220ae4991" target="_top" xlink:title="HandleReceivedListIdentityCommandTcp">
<polygon fill="none" stroke="black" points="898,-160.5 898,-181.5 1096,-181.5 1096,-160.5 898,-160.5"/>
<text text-anchor="middle" x="997" y="-168.5" font-family="Helvetica,sans-Serif" font-size="10.00">HandleReceivedListIdentityCommandTcp</text>
</a>
</g>
<!-- Node12&#45;&gt;Node13 -->
<g id="edge30" class="edge"><title>Node12&#45;&gt;Node13</title>
<path fill="none" stroke="midnightblue" d="M841.854,-171C860.301,-171 879.371,-171 897.561,-171"/>
<polygon fill="midnightblue" stroke="midnightblue" points="841.679,-167.5 831.679,-171 841.679,-174.5 841.679,-167.5"/>
</g>
<!-- Node13&#45;&gt;Node4 -->
<g id="edge34" class="edge"><title>Node13&#45;&gt;Node4</title>
<path fill="none" stroke="midnightblue" d="M1106.25,-171C1124.91,-171 1143.97,-171 1161.65,-171"/>
<polygon fill="midnightblue" stroke="midnightblue" points="1106.24,-167.5 1096.24,-171 1106.24,-174.5 1106.24,-167.5"/>
</g>
<!-- Node13&#45;&gt;Node10 -->
<g id="edge32" class="edge"><title>Node13&#45;&gt;Node10</title>
<path fill="none" stroke="midnightblue" d="M1099.13,-158.358C1108.31,-156.265 1117.38,-153.831 1126,-151 1163.44,-138.702 1203.43,-115.18 1224.99,-101.526"/>
<polygon fill="midnightblue" stroke="midnightblue" points="1098.18,-154.98 1089.14,-160.497 1099.65,-161.824 1098.18,-154.98"/>
</g>
<!-- Node15 -->
<g id="node35" class="node"><title>Node15</title>
<a xlink:href="../../d4/d91/group__ENCAP.html#gaa81c027561d86d2589b8002b36b88392" target="_top" xlink:title="Copy data from message_router_response struct and common_packet_format_data_item into linear memory i...">
<polygon fill="none" stroke="black" points="472,-50.5 472,-71.5 598,-71.5 598,-50.5 472,-50.5"/>
<text text-anchor="middle" x="535" y="-58.5" font-family="Helvetica,sans-Serif" font-size="10.00">AssembleLinearMessage</text>
</a>
</g>
<!-- Node14&#45;&gt;Node15 -->
<g id="edge40" class="edge"><title>Node14&#45;&gt;Node15</title>
<path fill="none" stroke="midnightblue" d="M445.891,-65.0842C454.879,-64.6722 463.618,-64.2717 471.888,-63.8926"/>
<polygon fill="midnightblue" stroke="midnightblue" points="445.48,-61.5992 435.65,-65.5535 445.8,-68.5919 445.48,-61.5992"/>
</g>
<!-- Node16 -->
<g id="node37" class="node"><title>Node16</title>
<a xlink:href="../../d4/d91/group__ENCAP.html#ga86a32a262ea21cad9631fa02c81f1a03" target="_top" xlink:title="NotifyCommonPacketFormat">
<polygon fill="none" stroke="black" points="661,-80.5 661,-101.5 805,-101.5 805,-80.5 661,-80.5"/>
<text text-anchor="middle" x="733" y="-88.5" font-family="Helvetica,sans-Serif" font-size="10.00">NotifyCommonPacketFormat</text>
</a>
</g>
<!-- Node15&#45;&gt;Node16 -->
<g id="edge42" class="edge"><title>Node15&#45;&gt;Node16</title>
<path fill="none" stroke="midnightblue" d="M608.116,-72.0782C626.239,-74.8241 645.607,-77.7586 663.549,-80.4772"/>
<polygon fill="midnightblue" stroke="midnightblue" points="608.604,-68.6123 598.193,-70.5747 607.556,-75.5333 608.604,-68.6123"/>
</g>
<!-- Node18 -->
<g id="node42" class="node"><title>Node18</title>
<a xlink:href="../../d4/d91/group__ENCAP.html#ga94ca28af85239d7dd63b3b044201fe51" target="_top" xlink:title="NotifyConnectedCommonPacketFormat">
<polygon fill="none" stroke="black" points="637.5,-40.5 637.5,-61.5 828.5,-61.5 828.5,-40.5 637.5,-40.5"/>
<text text-anchor="middle" x="733" y="-48.5" font-family="Helvetica,sans-Serif" font-size="10.00">NotifyConnectedCommonPacketFormat</text>
</a>
</g>
<!-- Node15&#45;&gt;Node18 -->
<g id="edge48" class="edge"><title>Node15&#45;&gt;Node18</title>
<path fill="none" stroke="midnightblue" d="M608.28,-57.299C617.714,-56.8225 627.483,-56.3291 637.21,-55.8379"/>
<polygon fill="midnightblue" stroke="midnightblue" points="608.004,-53.8084 598.193,-57.8084 608.357,-60.7995 608.004,-53.8084"/>
</g>
<!-- Node20 -->
<g id="node47" class="node"><title>Node20</title>
<a xlink:href="../../d4/d91/group__ENCAP.html#gad61fa4f84989cf27086d57557ad552c4" target="_top" xlink:title="AssembleIOMessage">
<polygon fill="none" stroke="black" points="678,-0.5 678,-21.5 788,-21.5 788,-0.5 678,-0.5"/>
<text text-anchor="middle" x="733" y="-8.5" font-family="Helvetica,sans-Serif" font-size="10.00">AssembleIOMessage</text>
</a>
</g>
<!-- Node15&#45;&gt;Node20 -->
<g id="edge54" class="edge"><title>Node15&#45;&gt;Node20</title>
<path fill="none" stroke="midnightblue" d="M576.822,-47.3655C594.377,-41.8936 615.075,-35.7677 634,-31 648.113,-27.4447 663.481,-24.0924 677.807,-21.1852"/>
<polygon fill="midnightblue" stroke="midnightblue" points="575.372,-44.1527 566.887,-50.4965 577.476,-50.829 575.372,-44.1527"/>
</g>
<!-- Node17 -->
<g id="node39" class="node"><title>Node17</title>
<a xlink:href="../../d2/dbd/encap_8c.html#a638a3760c5969c8cd91977f1ac30058a" target="_top" xlink:title="Call UCMM or Message Router if UCMM not implemented.">
<polygon fill="none" stroke="black" points="868,-80.5 868,-101.5 1126,-101.5 1126,-80.5 868,-80.5"/>
<text text-anchor="middle" x="997" y="-88.5" font-family="Helvetica,sans-Serif" font-size="10.00">HandleReceivedSendRequestResponseDataCommand</text>
</a>
</g>
<!-- Node16&#45;&gt;Node17 -->
<g id="edge44" class="edge"><title>Node16&#45;&gt;Node17</title>
<path fill="none" stroke="midnightblue" d="M815.359,-91C832.05,-91 849.979,-91 867.84,-91"/>
<polygon fill="midnightblue" stroke="midnightblue" points="815.139,-87.5001 805.139,-91 815.139,-94.5001 815.139,-87.5001"/>
</g>
<!-- Node17&#45;&gt;Node10 -->
<g id="edge46" class="edge"><title>Node17&#45;&gt;Node10</title>
<path fill="none" stroke="midnightblue" d="M1136.33,-91C1145.32,-91 1154.17,-91 1162.7,-91"/>
<polygon fill="midnightblue" stroke="midnightblue" points="1136.14,-87.5001 1126.14,-91 1136.14,-94.5001 1136.14,-87.5001"/>
</g>
<!-- Node19 -->
<g id="node44" class="node"><title>Node19</title>
<a xlink:href="../../d2/dbd/encap_8c.html#a2a5e809a74a56268ad9f51638796fb3d" target="_top" xlink:title="Call Connection Manager.">
<polygon fill="none" stroke="black" points="899.5,-40.5 899.5,-61.5 1094.5,-61.5 1094.5,-40.5 899.5,-40.5"/>
<text text-anchor="middle" x="997" y="-48.5" font-family="Helvetica,sans-Serif" font-size="10.00">HandleReceivedSendUnitDataCommand</text>
</a>
</g>
<!-- Node18&#45;&gt;Node19 -->
<g id="edge50" class="edge"><title>Node18&#45;&gt;Node19</title>
<path fill="none" stroke="midnightblue" d="M838.755,-51C858.788,-51 879.66,-51 899.426,-51"/>
<polygon fill="midnightblue" stroke="midnightblue" points="838.683,-47.5001 828.683,-51 838.683,-54.5001 838.683,-47.5001"/>
</g>
<!-- Node19&#45;&gt;Node10 -->
<g id="edge52" class="edge"><title>Node19&#45;&gt;Node10</title>
<path fill="none" stroke="midnightblue" d="M1076.43,-63.0792C1092.83,-65.6393 1109.98,-68.3655 1126,-71 1144.1,-73.9762 1163.77,-77.3476 1181.64,-80.4628"/>
<polygon fill="midnightblue" stroke="midnightblue" points="1076.75,-59.5873 1066.33,-61.5089 1075.67,-66.5041 1076.75,-59.5873"/>
</g>
<!-- Node21 -->
<g id="node49" class="node"><title>Node21</title>
<a xlink:href="../../df/d03/cipioconnection_8c.html#a41f8d71772b5defa587ac0da6124cc47" target="_top" xlink:title="Send the data from the produced CIP Object of the connection via the socket of the connection object ...">
<polygon fill="none" stroke="black" points="943.5,-0.5 943.5,-21.5 1050.5,-21.5 1050.5,-0.5 943.5,-0.5"/>
<text text-anchor="middle" x="997" y="-8.5" font-family="Helvetica,sans-Serif" font-size="10.00">SendConnectedData</text>
</a>
</g>
<!-- Node20&#45;&gt;Node21 -->
<g id="edge56" class="edge"><title>Node20&#45;&gt;Node21</title>
<path fill="none" stroke="midnightblue" d="M798.197,-11C842.881,-11 901.434,-11 943.403,-11"/>
<polygon fill="midnightblue" stroke="midnightblue" points="798.022,-7.5001 788.022,-11 798.022,-14.5001 798.022,-7.5001"/>
</g>
<!-- Node22 -->
<g id="node51" class="node"><title>Node22</title>
<a xlink:href="../../df/d03/cipioconnection_8c.html#ac788741792b008fa0699c7cfbe0979bc" target="_top" xlink:title="SetIoConnectionCallbacks">
<polygon fill="none" stroke="black" points="1174.5,-12.5 1174.5,-33.5 1307.5,-33.5 1307.5,-12.5 1174.5,-12.5"/>
<text text-anchor="middle" x="1241" y="-20.5" font-family="Helvetica,sans-Serif" font-size="10.00">SetIoConnectionCallbacks</text>
</a>
</g>
<!-- Node21&#45;&gt;Node22 -->
<g id="edge58" class="edge"><title>Node21&#45;&gt;Node22</title>
<path fill="none" stroke="midnightblue" d="M1060.61,-14.1286C1095.48,-15.8435 1138.68,-17.968 1174.06,-19.708"/>
<polygon fill="midnightblue" stroke="midnightblue" points="1060.71,-10.629 1050.55,-13.6335 1060.36,-17.6205 1060.71,-10.629"/>
</g>
<!-- Node23 -->
<g id="node53" class="node"><title>Node23</title>
<a xlink:href="../../de/d45/cipioconnection_8h.html#a699fccd3dabdfec1b77560f22268c1e8" target="_top" xlink:title="Setup all data in order to establish an IO connection.">
<polygon fill="none" stroke="black" points="1405.5,-25.5 1405.5,-46.5 1520.5,-46.5 1520.5,-25.5 1405.5,-25.5"/>
<text text-anchor="middle" x="1463" y="-33.5" font-family="Helvetica,sans-Serif" font-size="10.00">EstablishIoConnection</text>
</a>
</g>
<!-- Node22&#45;&gt;Node23 -->
<g id="edge60" class="edge"><title>Node22&#45;&gt;Node23</title>
<path fill="none" stroke="midnightblue" d="M1317.64,-27.4879C1346.45,-29.1748 1378.68,-31.0623 1405.46,-32.6305"/>
<polygon fill="midnightblue" stroke="midnightblue" points="1317.79,-23.9911 1307.61,-26.9004 1317.39,-30.9791 1317.79,-23.9911"/>
</g>
<!-- Node24 -->
<g id="node55" class="node"><title>Node24</title>
<a xlink:href="../../d2/da3/cipconnectionmanager_8h.html#a5ab0de6894d23e8fe84a6b46797c2212" target="_top" xlink:title="Initialize the data of the connection manager object.">
<polygon fill="none" stroke="black" points="1620.5,-35.5 1620.5,-56.5 1737.5,-56.5 1737.5,-35.5 1620.5,-35.5"/>
<text text-anchor="middle" x="1679" y="-43.5" font-family="Helvetica,sans-Serif" font-size="10.00">ConnectionManagerInit</text>
</a>
</g>
<!-- Node23&#45;&gt;Node24 -->
<g id="edge62" class="edge"><title>Node23&#45;&gt;Node24</title>
<path fill="none" stroke="midnightblue" d="M1530.96,-39.1465C1559.69,-40.4763 1592.81,-42.0098 1620.43,-43.2886"/>
<polygon fill="midnightblue" stroke="midnightblue" points="1530.75,-35.633 1520.6,-38.6667 1530.43,-42.6255 1530.75,-35.633"/>
</g>
<!-- Node25 -->
<g id="node57" class="node"><title>Node25</title>
<a xlink:href="../../d2/dc9/group__CIP__API.html#ga5d4979945d124e28668b264c3823db1c" target="_top" xlink:title="Initialize and setup the CIP&#45;stack.">
<polygon fill="none" stroke="black" points="1788.5,-45.5 1788.5,-66.5 1859.5,-66.5 1859.5,-45.5 1788.5,-45.5"/>
<text text-anchor="middle" x="1824" y="-53.5" font-family="Helvetica,sans-Serif" font-size="10.00">CipStackInit</text>
</a>
</g>
<!-- Node24&#45;&gt;Node25 -->
<g id="edge64" class="edge"><title>Node24&#45;&gt;Node25</title>
<path fill="none" stroke="midnightblue" d="M1747.69,-50.7374C1761.7,-51.7032 1775.89,-52.6821 1788.18,-53.5294"/>
<polygon fill="midnightblue" stroke="midnightblue" points="1747.78,-47.235 1737.56,-50.0386 1747.29,-54.2184 1747.78,-47.235"/>
</g>
<!-- Node25&#45;&gt;Node7 -->
<g id="edge66" class="edge"><title>Node25&#45;&gt;Node7</title>
<path fill="none" stroke="midnightblue" d="M1869.69,-67.045C1878.95,-69.2842 1888.2,-71.5208 1895.91,-73.3839"/>
<polygon fill="midnightblue" stroke="midnightblue" points="1870.25,-63.5798 1859.7,-64.6318 1868.6,-70.3838 1870.25,-63.5798"/>
</g>
</g>
</svg>
        <g id="navigator" transform="translate(0 0)" fill="#404254">
                <rect fill="#f2f5e9" fill-opacity="0.5" stroke="#606060" stroke-width=".5" x="0" y="0" width="60" height="60"/>
                <use id="zoomplus" xlink:href="#zoomPlus" x="17" y="9" onmousedown="handleZoom(evt,'in')"/>
                <use id="zoomminus" xlink:href="#zoomMin" x="42" y="9" onmousedown="handleZoom(evt,'out')"/>
                <use id="reset" xlink:href="#resetDef" x="30" y="36" onmousedown="handleReset()"/>
                <g id="arrowUp" xlink:href="#dirArrow" transform="translate(30 24)" onmousedown="handlePan(0,-1)">
                  <use xlink:href="#rim" fill="#404040">
                        <set attributeName="fill" to="#808080" begin="arrowUp.mouseover" end="arrowUp.mouseout"/>
                  </use>
                  <path fill="none" stroke="white" stroke-width="1.5" d="M0,-3.0v7 M-2.5,-0.5L0,-3.0L2.5,-0.5"/>
                </g>
                <g id="arrowRight" xlink:href="#dirArrow" transform="rotate(90) translate(36 -43)" onmousedown="handlePan(1,0)">
                  <use xlink:href="#rim" fill="#404040">
                        <set attributeName="fill" to="#808080" begin="arrowRight.mouseover" end="arrowRight.mouseout"/>
                  </use>
                  <path fill="none" stroke="white" stroke-width="1.5" d="M0,-3.0v7 M-2.5,-0.5L0,-3.0L2.5,-0.5"/>
                </g>
                <g id="arrowDown" xlink:href="#dirArrow" transform="rotate(180) translate(-30 -48)" onmousedown="handlePan(0,1)">
                  <use xlink:href="#rim" fill="#404040">
                        <set attributeName="fill" to="#808080" begin="arrowDown.mouseover" end="arrowDown.mouseout"/>
                  </use>
                  <path fill="none" stroke="white" stroke-width="1.5" d="M0,-3.0v7 M-2.5,-0.5L0,-3.0L2.5,-0.5"/>
                </g>
                <g id="arrowLeft" xlink:href="#dirArrow" transform="rotate(270) translate(-36 17)" onmousedown="handlePan(-1,0)">
                  <use xlink:href="#rim" fill="#404040">
                        <set attributeName="fill" to="#808080" begin="arrowLeft.mouseover" end="arrowLeft.mouseout"/>
                  </use>
                  <path fill="none" stroke="white" stroke-width="1.5" d="M0,-3.0v7 M-2.5,-0.5L0,-3.0L2.5,-0.5"/>
                </g>
        </g>
</svg>
