<?xml version="1.0" encoding="UTF-8" standalone="no"?>
<!DOCTYPE svg PUBLIC "-//W3C//DTD SVG 1.1//EN"
 "http://www.w3.org/Graphics/SVG/1.1/DTD/svg11.dtd">
<!-- Generated by graphviz version 2.36.0 (20140111.2315)
 -->
<!-- Title: FillNextNMessageOctetsWith Pages: 1 -->
<svg width="1654pt" height="126pt"
 viewBox="0.00 0.00 1654.00 126.00" xmlns="http://www.w3.org/2000/svg" xmlns:xlink="http://www.w3.org/1999/xlink">
<g id="graph0" class="graph" transform="scale(1 1) rotate(0) translate(4 122)">
<title>FillNextNMessageOctetsWith</title>
<!-- Node1 -->
<g id="node1" class="node"><title>Node1</title>
<polygon fill="#bfbfbf" stroke="black" points="0.5,-44.5 0.5,-63.5 147.5,-63.5 147.5,-44.5 0.5,-44.5"/>
<text text-anchor="middle" x="74" y="-51.5" font-family="Helvetica,sans-Serif" font-size="10.00">FillNextNMessageOctetsWith</text>
</g>
<!-- Node2 -->
<g id="node2" class="node"><title>Node2</title>
<g id="a_node2"><a xlink:href="../../d0/dec/endianconv_8h.html#a0ca9c3a411ccc35e03050e869aafd2bf" target="_top" xlink:title="FillNextNMessageOctetsWith\lValueAndMoveToNextPosition">
<polygon fill="none" stroke="black" points="184,-39 184,-69 334,-69 334,-39 184,-39"/>
<text text-anchor="start" x="192" y="-57" font-family="Helvetica,sans-Serif" font-size="10.00">FillNextNMessageOctetsWith</text>
<text text-anchor="middle" x="259" y="-46" font-family="Helvetica,sans-Serif" font-size="10.00">ValueAndMoveToNextPosition</text>
</a>
</g>
</g>
<!-- Node1&#45;&gt;Node2 -->
<g id="edge1" class="edge"><title>Node1&#45;&gt;Node2</title>
<path fill="none" stroke="midnightblue" d="M157.781,-54C166.521,-54 175.368,-54 184,-54"/>
<polygon fill="midnightblue" stroke="midnightblue" points="157.589,-50.5001 147.589,-54 157.589,-57.5001 157.589,-50.5001"/>
</g>
<!-- Node3 -->
<g id="node3" class="node"><title>Node3</title>
<g id="a_node3"><a xlink:href="../../d4/d91/group__ENCAP.html#gaa81c027561d86d2589b8002b36b88392" target="_top" xlink:title="Copy data from message_router_response struct and common_packet_format_data_item into linear memory i...">
<polygon fill="none" stroke="black" points="370,-44.5 370,-63.5 496,-63.5 496,-44.5 370,-44.5"/>
<text text-anchor="middle" x="433" y="-51.5" font-family="Helvetica,sans-Serif" font-size="10.00">AssembleLinearMessage</text>
</a>
</g>
</g>
<!-- Node2&#45;&gt;Node3 -->
<g id="edge2" class="edge"><title>Node2&#45;&gt;Node3</title>
<path fill="none" stroke="midnightblue" d="M344.293,-54C352.925,-54 361.58,-54 369.91,-54"/>
<polygon fill="midnightblue" stroke="midnightblue" points="344.192,-50.5001 334.191,-54 344.191,-57.5001 344.192,-50.5001"/>
</g>
<!-- Node4 -->
<g id="node4" class="node"><title>Node4</title>
<g id="a_node4"><a xlink:href="../../d4/d91/group__ENCAP.html#ga86a32a262ea21cad9631fa02c81f1a03" target="_top" xlink:title="NotifyCommonPacketFormat">
<polygon fill="none" stroke="black" points="541,-90.5 541,-109.5 685,-109.5 685,-90.5 541,-90.5"/>
<text text-anchor="middle" x="613" y="-97.5" font-family="Helvetica,sans-Serif" font-size="10.00">NotifyCommonPacketFormat</text>
</a>
</g>
</g>
<!-- Node3&#45;&gt;Node4 -->
<g id="edge3" class="edge"><title>Node3&#45;&gt;Node4</title>
<path fill="none" stroke="midnightblue" d="M480.94,-66.1306C510.402,-73.7444 547.85,-83.4219 575.166,-90.481"/>
<polygon fill="midnightblue" stroke="midnightblue" points="481.439,-62.6447 470.882,-63.5312 479.688,-69.422 481.439,-62.6447"/>
</g>
<!-- Node10 -->
<g id="node10" class="node"><title>Node10</title>
<g id="a_node10"><a xlink:href="../../d4/d91/group__ENCAP.html#ga94ca28af85239d7dd63b3b044201fe51" target="_top" xlink:title="NotifyConnectedCommonPacket\lFormat">
<polygon fill="none" stroke="black" points="532.5,-39 532.5,-69 693.5,-69 693.5,-39 532.5,-39"/>
<text text-anchor="start" x="540.5" y="-57" font-family="Helvetica,sans-Serif" font-size="10.00">NotifyConnectedCommonPacket</text>
<text text-anchor="middle" x="613" y="-46" font-family="Helvetica,sans-Serif" font-size="10.00">Format</text>
</a>
</g>
</g>
<!-- Node3&#45;&gt;Node10 -->
<g id="edge9" class="edge"><title>Node3&#45;&gt;Node10</title>
<path fill="none" stroke="midnightblue" d="M506.487,-54C514.978,-54 523.676,-54 532.258,-54"/>
<polygon fill="midnightblue" stroke="midnightblue" points="506.256,-50.5001 496.256,-54 506.256,-57.5001 506.256,-50.5001"/>
</g>
<!-- Node12 -->
<g id="node12" class="node"><title>Node12</title>
<g id="a_node12"><a xlink:href="../../d4/d91/group__ENCAP.html#gad61fa4f84989cf27086d57557ad552c4" target="_top" xlink:title="AssembleIOMessage">
<polygon fill="none" stroke="black" points="558,-0.5 558,-19.5 668,-19.5 668,-0.5 558,-0.5"/>
<text text-anchor="middle" x="613" y="-7.5" font-family="Helvetica,sans-Serif" font-size="10.00">AssembleIOMessage</text>
</a>
</g>
</g>
<!-- Node3&#45;&gt;Node12 -->
<g id="edge12" class="edge"><title>Node3&#45;&gt;Node12</title>
<path fill="none" stroke="midnightblue" d="M480.547,-41.9577C496.81,-37.7947 515.198,-33.1379 532,-29 544.752,-25.8594 558.671,-22.5222 571.27,-19.5354"/>
<polygon fill="midnightblue" stroke="midnightblue" points="479.544,-38.6014 470.728,-44.4769 481.284,-45.3818 479.544,-38.6014"/>
</g>
<!-- Node5 -->
<g id="node5" class="node"><title>Node5</title>
<g id="a_node5"><a xlink:href="../../d2/dbd/encap_8c.html#a638a3760c5969c8cd91977f1ac30058a" target="_top" xlink:title="Call UCMM or Message Router if UCMM not implemented. ">
<polygon fill="none" stroke="black" points="731,-88 731,-118 879,-118 879,-88 731,-88"/>
<text text-anchor="start" x="739" y="-106" font-family="Helvetica,sans-Serif" font-size="10.00">HandleReceivedSendRequest</text>
<text text-anchor="middle" x="805" y="-95" font-family="Helvetica,sans-Serif" font-size="10.00">ResponseDataCommand</text>
</a>
</g>
</g>
<!-- Node4&#45;&gt;Node5 -->
<g id="edge4" class="edge"><title>Node4&#45;&gt;Node5</title>
<path fill="none" stroke="midnightblue" d="M695.304,-101.284C707.114,-101.47 719.212,-101.661 730.848,-101.845"/>
<polygon fill="midnightblue" stroke="midnightblue" points="695.073,-97.7798 685.019,-101.121 694.963,-104.779 695.073,-97.7798"/>
</g>
<!-- Node6 -->
<g id="node6" class="node"><title>Node6</title>
<g id="a_node6"><a xlink:href="../../d2/dc9/group__CIP__API.html#gadeace7aa415ce7da686b522c85d131d1" target="_top" xlink:title="Notify the encapsulation layer that an explicit message has been received via TCP. ">
<polygon fill="none" stroke="black" points="916,-44.5 916,-63.5 1072,-63.5 1072,-44.5 916,-44.5"/>
<text text-anchor="middle" x="994" y="-51.5" font-family="Helvetica,sans-Serif" font-size="10.00">HandleReceivedExplictTcpData</text>
</a>
</g>
</g>
<!-- Node5&#45;&gt;Node6 -->
<g id="edge5" class="edge"><title>Node5&#45;&gt;Node6</title>
<path fill="none" stroke="midnightblue" d="M873.173,-85.3986C901.328,-78.0211 932.951,-69.7348 956.638,-63.528"/>
<polygon fill="midnightblue" stroke="midnightblue" points="872.163,-82.0449 863.377,-87.9654 873.938,-88.8163 872.163,-82.0449"/>
</g>
<!-- Node7 -->
<g id="node7" class="node"><title>Node7</title>
<g id="a_node7"><a xlink:href="../../db/d4f/generic__networkhandler_8c.html#aca5593b7dd39d7a7b437999a367102d6" target="_top" xlink:title="Handles data on an established TCP connection, processed connection is given by socket. ">
<polygon fill="none" stroke="black" points="1108,-41.5 1108,-60.5 1236,-60.5 1236,-41.5 1108,-41.5"/>
<text text-anchor="middle" x="1172" y="-48.5" font-family="Helvetica,sans-Serif" font-size="10.00">HandleDataOnTcpSocket</text>
</a>
</g>
</g>
<!-- Node6&#45;&gt;Node7 -->
<g id="edge6" class="edge"><title>Node6&#45;&gt;Node7</title>
<path fill="none" stroke="midnightblue" d="M1082.29,-52.5121C1090.91,-52.3651 1099.54,-52.218 1107.85,-52.0764"/>
<polygon fill="midnightblue" stroke="midnightblue" points="1082.14,-49.0141 1072.2,-52.6842 1082.25,-56.0131 1082.14,-49.0141"/>
</g>
<!-- Node8 -->
<g id="node8" class="node"><title>Node8</title>
<g id="a_node8"><a xlink:href="../../da/dc2/generic__networkhandler_8h.html#a2f01af81d3e5018d9980e2bc28c9078a" target="_top" xlink:title="NetworkHandlerProcessOnce">
<polygon fill="none" stroke="black" points="1426,-40.5 1426,-59.5 1572,-59.5 1572,-40.5 1426,-40.5"/>
<text text-anchor="middle" x="1499" y="-47.5" font-family="Helvetica,sans-Serif" font-size="10.00">NetworkHandlerProcessOnce</text>
</a>
</g>
</g>
<!-- Node7&#45;&gt;Node8 -->
<g id="edge7" class="edge"><title>Node7&#45;&gt;Node8</title>
<path fill="none" stroke="midnightblue" d="M1246.18,-50.7748C1299.84,-50.6097 1372.35,-50.3866 1425.78,-50.2222"/>
<polygon fill="midnightblue" stroke="midnightblue" points="1246.04,-47.2752 1236.05,-50.806 1246.06,-54.2751 1246.04,-47.2752"/>
</g>
<!-- Node9 -->
<g id="node9" class="node"><title>Node9</title>
<g id="a_node9"><a xlink:href="../../d9/dfb/POSIX_2main_8c.html#ad338a7dbc41dc40bcecd0479377ef207" target="_top" xlink:title="main">
<polygon fill="none" stroke="black" points="1608,-21.5 1608,-40.5 1646,-40.5 1646,-21.5 1608,-21.5"/>
<text text-anchor="middle" x="1627" y="-28.5" font-family="Helvetica,sans-Serif" font-size="10.00">main</text>
</a>
</g>
</g>
<!-- Node8&#45;&gt;Node9 -->
<g id="edge8" class="edge"><title>Node8&#45;&gt;Node9</title>
<path fill="none" stroke="midnightblue" d="M1573.26,-38.9526C1586.1,-37.017 1598.35,-35.1695 1607.81,-33.7433"/>
<polygon fill="midnightblue" stroke="midnightblue" points="1572.74,-35.4923 1563.37,-40.4443 1573.78,-42.414 1572.74,-35.4923"/>
</g>
<!-- Node11 -->
<g id="node11" class="node"><title>Node11</title>
<g id="a_node11"><a xlink:href="../../d2/dbd/encap_8c.html#a2a5e809a74a56268ad9f51638796fb3d" target="_top" xlink:title="Call Connection Manager. ">
<polygon fill="none" stroke="black" points="730,-39 730,-69 880,-69 880,-39 730,-39"/>
<text text-anchor="start" x="738" y="-57" font-family="Helvetica,sans-Serif" font-size="10.00">HandleReceivedSendUnitData</text>
<text text-anchor="middle" x="805" y="-46" font-family="Helvetica,sans-Serif" font-size="10.00">Command</text>
</a>
</g>
</g>
<!-- Node10&#45;&gt;Node11 -->
<g id="edge10" class="edge"><title>Node10&#45;&gt;Node11</title>
<path fill="none" stroke="midnightblue" d="M703.924,-54C712.626,-54 721.386,-54 729.909,-54"/>
<polygon fill="midnightblue" stroke="midnightblue" points="703.751,-50.5001 693.751,-54 703.751,-57.5001 703.751,-50.5001"/>
</g>
<!-- Node11&#45;&gt;Node6 -->
<g id="edge11" class="edge"><title>Node11&#45;&gt;Node6</title>
<path fill="none" stroke="midnightblue" d="M890.433,-54C898.897,-54 907.462,-54 915.846,-54"/>
<polygon fill="midnightblue" stroke="midnightblue" points="890.176,-50.5001 880.176,-54 890.176,-57.5001 890.176,-50.5001"/>
</g>
<!-- Node13 -->
<g id="node13" class="node"><title>Node13</title>
<g id="a_node13"><a xlink:href="../../df/d03/cipioconnection_8c.html#a20f1bc1c4cc4470cf371f94d51814de2" target="_top" xlink:title="Send the data from the produced CIP Object of the connection via the socket of the connection object ...">
<polygon fill="none" stroke="black" points="751.5,-0.5 751.5,-19.5 858.5,-19.5 858.5,-0.5 751.5,-0.5"/>
<text text-anchor="middle" x="805" y="-7.5" font-family="Helvetica,sans-Serif" font-size="10.00">SendConnectedData</text>
</a>
</g>
</g>
<!-- Node12&#45;&gt;Node13 -->
<g id="edge13" class="edge"><title>Node12&#45;&gt;Node13</title>
<path fill="none" stroke="midnightblue" d="M678.199,-10C702.01,-10 728.715,-10 751.375,-10"/>
<polygon fill="midnightblue" stroke="midnightblue" points="678.192,-6.5001 668.192,-10 678.192,-13.5001 678.192,-6.5001"/>
</g>
<!-- Node14 -->
<g id="node14" class="node"><title>Node14</title>
<g id="a_node14"><a xlink:href="../../df/d03/cipioconnection_8c.html#ab3282f146a3ea91c90cf14c32206ee8c" target="_top" xlink:title="SetIoConnectionCallbacks">
<polygon fill="none" stroke="black" points="927.5,-1.5 927.5,-20.5 1060.5,-20.5 1060.5,-1.5 927.5,-1.5"/>
<text text-anchor="middle" x="994" y="-8.5" font-family="Helvetica,sans-Serif" font-size="10.00">SetIoConnectionCallbacks</text>
</a>
</g>
</g>
<!-- Node13&#45;&gt;Node14 -->
<g id="edge14" class="edge"><title>Node13&#45;&gt;Node14</title>
<path fill="none" stroke="midnightblue" d="M868.59,-10.3347C887.523,-10.436 908.361,-10.5474 927.48,-10.6496"/>
<polygon fill="midnightblue" stroke="midnightblue" points="868.606,-6.83484 858.588,-10.2812 868.569,-13.8347 868.606,-6.83484"/>
</g>
<!-- Node15 -->
<g id="node15" class="node"><title>Node15</title>
<g id="a_node15"><a xlink:href="../../de/d45/cipioconnection_8h.html#a43e270b3f9b9f6296b12285c320c95aa" target="_top" xlink:title="Setup all data in order to establish an IO connection. ">
<polygon fill="none" stroke="black" points="1114.5,-1.5 1114.5,-20.5 1229.5,-20.5 1229.5,-1.5 1114.5,-1.5"/>
<text text-anchor="middle" x="1172" y="-8.5" font-family="Helvetica,sans-Serif" font-size="10.00">EstablishIoConnection</text>
</a>
</g>
</g>
<!-- Node14&#45;&gt;Node15 -->
<g id="edge15" class="edge"><title>Node14&#45;&gt;Node15</title>
<path fill="none" stroke="midnightblue" d="M1070.6,-11C1085.28,-11 1100.43,-11 1114.37,-11"/>
<polygon fill="midnightblue" stroke="midnightblue" points="1070.54,-7.5001 1060.54,-11 1070.54,-14.5001 1070.54,-7.5001"/>
</g>
<!-- Node16 -->
<g id="node16" class="node"><title>Node16</title>
<g id="a_node16"><a xlink:href="../../d2/da3/cipconnectionmanager_8h.html#a5ab0de6894d23e8fe84a6b46797c2212" target="_top" xlink:title="Initialize the data of the connection manager object. ">
<polygon fill="none" stroke="black" points="1272.5,-2.5 1272.5,-21.5 1389.5,-21.5 1389.5,-2.5 1272.5,-2.5"/>
<text text-anchor="middle" x="1331" y="-9.5" font-family="Helvetica,sans-Serif" font-size="10.00">ConnectionManagerInit</text>
</a>
</g>
</g>
<!-- Node15&#45;&gt;Node16 -->
<g id="edge16" class="edge"><title>Node15&#45;&gt;Node16</title>
<path fill="none" stroke="midnightblue" d="M1239.91,-11.4262C1250.7,-11.4949 1261.8,-11.5656 1272.35,-11.6328"/>
<polygon fill="midnightblue" stroke="midnightblue" points="1239.7,-7.92488 1229.68,-11.361 1239.66,-14.9247 1239.7,-7.92488"/>
</g>
<!-- Node17 -->
<g id="node17" class="node"><title>Node17</title>
<g id="a_node17"><a xlink:href="../../d2/dc9/group__CIP__API.html#ga5d4979945d124e28668b264c3823db1c" target="_top" xlink:title="Initialize and setup the CIP&#45;stack. ">
<polygon fill="none" stroke="black" points="1463.5,-2.5 1463.5,-21.5 1534.5,-21.5 1534.5,-2.5 1463.5,-2.5"/>
<text text-anchor="middle" x="1499" y="-9.5" font-family="Helvetica,sans-Serif" font-size="10.00">CipStackInit</text>
</a>
</g>
</g>
<!-- Node16&#45;&gt;Node17 -->
<g id="edge17" class="edge"><title>Node16&#45;&gt;Node17</title>
<path fill="none" stroke="midnightblue" d="M1399.81,-12C1421.61,-12 1444.85,-12 1463.25,-12"/>
<polygon fill="midnightblue" stroke="midnightblue" points="1399.59,-8.5001 1389.59,-12 1399.59,-15.5001 1399.59,-8.5001"/>
</g>
<!-- Node17&#45;&gt;Node9 -->
<g id="edge18" class="edge"><title>Node17&#45;&gt;Node9</title>
<path fill="none" stroke="midnightblue" d="M1544.77,-18.7513C1566.43,-22.0173 1591.24,-25.7577 1607.68,-28.2369"/>
<polygon fill="midnightblue" stroke="midnightblue" points="1545.17,-15.2724 1534.76,-17.2421 1544.13,-22.1942 1545.17,-15.2724"/>
</g>
</g>
</svg>
