<?xml version="1.0" encoding="UTF-8" standalone="no"?>
<!DOCTYPE svg PUBLIC "-//W3C//DTD SVG 1.1//EN"
 "http://www.w3.org/Graphics/SVG/1.1/DTD/svg11.dtd">
<!-- Generated by graphviz version 2.26.3 (20100126.1600)
 -->
<!-- Title: G Pages: 1 -->
<svg width="441pt" height="378pt"
 viewBox="0.00 0.00 441.00 378.00" xmlns="http://www.w3.org/2000/svg" xmlns:xlink="http://www.w3.org/1999/xlink">
<g id="graph1" class="graph" transform="scale(1 1) rotate(0) translate(4 374)">
<title>G</title>
<!-- Node1 -->
<g id="node1" class="node"><title>Node1</title>
<polygon fill="#bfbfbf" stroke="black" points="95,-348.5 95,-369.5 241,-369.5 241,-348.5 95,-348.5"/>
<text text-anchor="middle" x="168" y="-356.5" font-family="Helvetica,sans-Serif" font-size="10.00">src/cip/cipclass3connection.c</text>
</g>
<!-- Node2 -->
<g id="node3" class="node"><title>Node2</title>
<polygon fill="none" stroke="#bfbfbf" points="94.5,-290.5 94.5,-311.5 143.5,-311.5 143.5,-290.5 94.5,-290.5"/>
<text text-anchor="middle" x="119" y="-298.5" font-family="Helvetica,sans-Serif" font-size="10.00">string.h</text>
</g>
<!-- Node1&#45;&gt;Node2 -->
<g id="edge2" class="edge"><title>Node1&#45;&gt;Node2</title>
<path fill="none" stroke="midnightblue" d="M159.013,-348.362C152.175,-340.268 142.598,-328.932 134.528,-319.38"/>
<polygon fill="midnightblue" stroke="midnightblue" points="137.058,-316.951 127.93,-311.571 131.71,-321.468 137.058,-316.951"/>
</g>
<!-- Node3 -->
<g id="node5" class="node"><title>Node3</title>
<a xlink:href="../../d2/d11/cipclass3connection_8h.html" target="_top" xlink:title="CIP Class 3 connection.">
<polygon fill="none" stroke="black" points="160.5,-290.5 160.5,-311.5 273.5,-311.5 273.5,-290.5 160.5,-290.5"/>
<text text-anchor="middle" x="217" y="-298.5" font-family="Helvetica,sans-Serif" font-size="10.00">cipclass3connection.h</text>
</a>
</g>
<!-- Node1&#45;&gt;Node3 -->
<g id="edge4" class="edge"><title>Node1&#45;&gt;Node3</title>
<path fill="none" stroke="midnightblue" d="M176.987,-348.362C183.825,-340.268 193.402,-328.932 201.472,-319.38"/>
<polygon fill="midnightblue" stroke="midnightblue" points="204.29,-321.468 208.07,-311.571 198.942,-316.951 204.29,-321.468"/>
</g>
<!-- Node4 -->
<g id="node7" class="node"><title>Node4</title>
<a xlink:href="../../d4/d38/opener__api_8h.html" target="_top" xlink:title="opener_api.h">
<polygon fill="none" stroke="black" points="136,-174.5 136,-195.5 208,-195.5 208,-174.5 136,-174.5"/>
<text text-anchor="middle" x="172" y="-182.5" font-family="Helvetica,sans-Serif" font-size="10.00">opener_api.h</text>
</a>
</g>
<!-- Node3&#45;&gt;Node4 -->
<g id="edge6" class="edge"><title>Node3&#45;&gt;Node4</title>
<path fill="none" stroke="midnightblue" d="M210.034,-290.161C204.298,-280.863 196.279,-266.953 191,-254 184.562,-238.202 179.564,-219.503 176.314,-205.558"/>
<polygon fill="midnightblue" stroke="midnightblue" points="179.674,-204.543 174.088,-195.541 172.841,-206.062 179.674,-204.543"/>
</g>
<!-- Node14 -->
<g id="node28" class="node"><title>Node14</title>
<a xlink:href="../../d2/da3/cipconnectionmanager_8h.html" target="_top" xlink:title="cipconnectionmanager.h">
<polygon fill="none" stroke="black" points="200,-232.5 200,-253.5 322,-253.5 322,-232.5 200,-232.5"/>
<text text-anchor="middle" x="261" y="-240.5" font-family="Helvetica,sans-Serif" font-size="10.00">cipconnectionmanager.h</text>
</a>
</g>
<!-- Node3&#45;&gt;Node14 -->
<g id="edge28" class="edge"><title>Node3&#45;&gt;Node14</title>
<path fill="none" stroke="midnightblue" d="M225.07,-290.362C231.149,-282.35 239.637,-271.161 246.837,-261.67"/>
<polygon fill="midnightblue" stroke="midnightblue" points="249.725,-263.653 252.981,-253.571 244.149,-259.422 249.725,-263.653"/>
</g>
<!-- Node5 -->
<g id="node9" class="node"><title>Node5</title>
<polygon fill="none" stroke="#bfbfbf" points="0,-116.5 0,-137.5 52,-137.5 52,-116.5 0,-116.5"/>
<text text-anchor="middle" x="26" y="-124.5" font-family="Helvetica,sans-Serif" font-size="10.00">assert.h</text>
</g>
<!-- Node4&#45;&gt;Node5 -->
<g id="edge8" class="edge"><title>Node4&#45;&gt;Node5</title>
<path fill="none" stroke="midnightblue" d="M145.561,-174.497C122.098,-165.176 87.6218,-151.48 61.7125,-141.187"/>
<polygon fill="midnightblue" stroke="midnightblue" points="62.8285,-137.864 52.2428,-137.425 60.2441,-144.37 62.8285,-137.864"/>
</g>
<!-- Node6 -->
<g id="node11" class="node"><title>Node6</title>
<a xlink:href="../../d7/d69/typedefs_8h.html" target="_top" xlink:title="typedefs.h">
<polygon fill="none" stroke="black" points="263,-58.5 263,-79.5 325,-79.5 325,-58.5 263,-58.5"/>
<text text-anchor="middle" x="294" y="-66.5" font-family="Helvetica,sans-Serif" font-size="10.00">typedefs.h</text>
</a>
</g>
<!-- Node4&#45;&gt;Node6 -->
<g id="edge10" class="edge"><title>Node4&#45;&gt;Node6</title>
<path fill="none" stroke="midnightblue" d="M168.706,-174.069C165.006,-159.435 160.966,-133.314 173,-116 182.546,-102.266 221.702,-88.6572 252.921,-79.646"/>
<polygon fill="midnightblue" stroke="midnightblue" points="254.052,-82.9639 262.731,-76.8874 252.157,-76.2252 254.052,-82.9639"/>
</g>
<!-- Node10 -->
<g id="node19" class="node"><title>Node10</title>
<a xlink:href="../../df/d28/ciptypes_8h.html" target="_top" xlink:title="ciptypes.h">
<polygon fill="none" stroke="black" points="340,-116.5 340,-137.5 402,-137.5 402,-116.5 340,-116.5"/>
<text text-anchor="middle" x="371" y="-124.5" font-family="Helvetica,sans-Serif" font-size="10.00">ciptypes.h</text>
</a>
</g>
<!-- Node4&#45;&gt;Node10 -->
<g id="edge18" class="edge"><title>Node4&#45;&gt;Node10</title>
<path fill="none" stroke="midnightblue" d="M208.037,-174.497C242.437,-164.471 294.205,-149.382 330.127,-138.913"/>
<polygon fill="midnightblue" stroke="midnightblue" points="331.189,-142.249 339.811,-136.09 329.231,-135.528 331.189,-142.249"/>
</g>
<!-- Node12 -->
<g id="node24" class="node"><title>Node12</title>
<a xlink:href="../../d6/d52/ciperror_8h.html" target="_top" xlink:title="ciperror.h">
<polygon fill="none" stroke="black" points="69.5,-116.5 69.5,-137.5 126.5,-137.5 126.5,-116.5 69.5,-116.5"/>
<text text-anchor="middle" x="98" y="-124.5" font-family="Helvetica,sans-Serif" font-size="10.00">ciperror.h</text>
</a>
</g>
<!-- Node4&#45;&gt;Node12 -->
<g id="edge24" class="edge"><title>Node4&#45;&gt;Node12</title>
<path fill="none" stroke="midnightblue" d="M158.427,-174.362C147.579,-165.859 132.166,-153.779 119.621,-143.947"/>
<polygon fill="midnightblue" stroke="midnightblue" points="121.516,-140.985 111.487,-137.571 117.198,-146.494 121.516,-140.985"/>
</g>
<!-- Node13 -->
<g id="node26" class="node"><title>Node13</title>
<polygon fill="none" stroke="#bfbfbf" points="182,-116.5 182,-137.5 284,-137.5 284,-116.5 182,-116.5"/>
<text text-anchor="middle" x="233" y="-124.5" font-family="Helvetica,sans-Serif" font-size="10.00">opener_user_conf.h</text>
</g>
<!-- Node4&#45;&gt;Node13 -->
<g id="edge26" class="edge"><title>Node4&#45;&gt;Node13</title>
<path fill="none" stroke="midnightblue" d="M183.188,-174.362C191.959,-166.023 204.349,-154.242 214.578,-144.516"/>
<polygon fill="midnightblue" stroke="midnightblue" points="217.047,-146.998 221.883,-137.571 212.224,-141.925 217.047,-146.998"/>
</g>
<!-- Node7 -->
<g id="node13" class="node"><title>Node7</title>
<polygon fill="none" stroke="#bfbfbf" points="191.5,-0.5 191.5,-21.5 250.5,-21.5 250.5,-0.5 191.5,-0.5"/>
<text text-anchor="middle" x="221" y="-8.5" font-family="Helvetica,sans-Serif" font-size="10.00">inttypes.h</text>
</g>
<!-- Node6&#45;&gt;Node7 -->
<g id="edge12" class="edge"><title>Node6&#45;&gt;Node7</title>
<path fill="none" stroke="midnightblue" d="M280.611,-58.3619C269.909,-49.859 254.704,-37.7785 242.329,-27.9466"/>
<polygon fill="midnightblue" stroke="midnightblue" points="244.311,-25.0511 234.304,-21.5707 239.957,-30.5318 244.311,-25.0511"/>
</g>
<!-- Node8 -->
<g id="node15" class="node"><title>Node8</title>
<polygon fill="none" stroke="#bfbfbf" points="268,-0.5 268,-21.5 320,-21.5 320,-0.5 268,-0.5"/>
<text text-anchor="middle" x="294" y="-8.5" font-family="Helvetica,sans-Serif" font-size="10.00">stddef.h</text>
</g>
<!-- Node6&#45;&gt;Node8 -->
<g id="edge14" class="edge"><title>Node6&#45;&gt;Node8</title>
<path fill="none" stroke="midnightblue" d="M294,-58.3619C294,-50.9219 294,-40.7427 294,-31.7276"/>
<polygon fill="midnightblue" stroke="midnightblue" points="297.5,-31.5706 294,-21.5707 290.5,-31.5707 297.5,-31.5706"/>
</g>
<!-- Node9 -->
<g id="node17" class="node"><title>Node9</title>
<polygon fill="none" stroke="#bfbfbf" points="338,-0.5 338,-21.5 394,-21.5 394,-0.5 338,-0.5"/>
<text text-anchor="middle" x="366" y="-8.5" font-family="Helvetica,sans-Serif" font-size="10.00">stdbool.h</text>
</g>
<!-- Node6&#45;&gt;Node9 -->
<g id="edge16" class="edge"><title>Node6&#45;&gt;Node9</title>
<path fill="none" stroke="midnightblue" d="M307.206,-58.3619C317.761,-49.859 332.758,-37.7785 344.963,-27.9466"/>
<polygon fill="midnightblue" stroke="midnightblue" points="347.286,-30.5696 352.878,-21.5707 342.895,-25.1183 347.286,-30.5696"/>
</g>
<!-- Node10&#45;&gt;Node6 -->
<g id="edge20" class="edge"><title>Node10&#45;&gt;Node6</title>
<path fill="none" stroke="midnightblue" d="M356.877,-116.362C345.48,-107.777 329.242,-95.5459 316.122,-85.6636"/>
<polygon fill="midnightblue" stroke="midnightblue" points="318.127,-82.7916 308.033,-79.5707 313.915,-88.3829 318.127,-82.7916"/>
</g>
<!-- Node11 -->
<g id="node22" class="node"><title>Node11</title>
<polygon fill="none" stroke="#bfbfbf" points="342.5,-58.5 342.5,-79.5 433.5,-79.5 433.5,-58.5 342.5,-58.5"/>
<text text-anchor="middle" x="388" y="-66.5" font-family="Helvetica,sans-Serif" font-size="10.00">networkhandler.h</text>
</g>
<!-- Node10&#45;&gt;Node11 -->
<g id="edge22" class="edge"><title>Node10&#45;&gt;Node11</title>
<path fill="none" stroke="midnightblue" d="M374.118,-116.362C376.323,-108.84 379.348,-98.5187 382.012,-89.4308"/>
<polygon fill="midnightblue" stroke="midnightblue" points="385.448,-90.1514 384.902,-79.5707 378.73,-88.1825 385.448,-90.1514"/>
</g>
<!-- Node14&#45;&gt;Node4 -->
<g id="edge32" class="edge"><title>Node14&#45;&gt;Node4</title>
<path fill="none" stroke="midnightblue" d="M244.676,-232.362C231.252,-223.614 212.017,-211.079 196.707,-201.101"/>
<polygon fill="midnightblue" stroke="midnightblue" points="198.509,-198.098 188.22,-195.571 194.688,-203.963 198.509,-198.098"/>
</g>
<!-- Node14&#45;&gt;Node6 -->
<g id="edge34" class="edge"><title>Node14&#45;&gt;Node6</title>
<path fill="none" stroke="midnightblue" d="M265.402,-232.203C272.801,-213.432 287.464,-173.397 293,-138 295.488,-122.095 295.639,-103.876 295.222,-90.1544"/>
<polygon fill="midnightblue" stroke="midnightblue" points="298.705,-89.6754 294.776,-79.8358 291.711,-89.9775 298.705,-89.6754"/>
</g>
<!-- Node14&#45;&gt;Node10 -->
<g id="edge36" class="edge"><title>Node14&#45;&gt;Node10</title>
<path fill="none" stroke="midnightblue" d="M279.207,-232.399C293.067,-223.755 312.07,-210.618 326,-196 340.109,-181.195 352.497,-161.4 360.684,-146.809"/>
<polygon fill="midnightblue" stroke="midnightblue" points="363.953,-148.123 365.65,-137.665 357.802,-144.782 363.953,-148.123"/>
</g>
<!-- Node14&#45;&gt;Node13 -->
<g id="edge30" class="edge"><title>Node14&#45;&gt;Node13</title>
<path fill="none" stroke="midnightblue" d="M258.416,-232.295C253.77,-213.045 243.932,-172.289 237.95,-147.509"/>
<polygon fill="midnightblue" stroke="midnightblue" points="241.327,-146.579 235.578,-137.679 234.522,-148.221 241.327,-146.579"/>
</g>
</g>
</svg>
