<?xml version="1.0" encoding="UTF-8" standalone="no"?>
<!DOCTYPE svg PUBLIC "-//W3C//DTD SVG 1.1//EN"
 "http://www.w3.org/Graphics/SVG/1.1/DTD/svg11.dtd">
<!-- Generated by graphviz version 2.36.0 (20140111.2315)
 -->
<!-- Title: src/cip/cipclass3connection.c Pages: 1 -->
<svg width="627pt" height="420pt"
 viewBox="0.00 0.00 627.04 420.00" xmlns="http://www.w3.org/2000/svg" xmlns:xlink="http://www.w3.org/1999/xlink">
<g id="graph0" class="graph" transform="scale(1 1) rotate(0) translate(4 416)">
<title>src/cip/cipclass3connection.c</title>
<!-- Node1 -->
<g id="node1" class="node"><title>Node1</title>
<polygon fill="#bfbfbf" stroke="black" points="160,-392.5 160,-411.5 306,-411.5 306,-392.5 160,-392.5"/>
<text text-anchor="middle" x="233" y="-399.5" font-family="Helvetica,sans-Serif" font-size="10.00">src/cip/cipclass3connection.c</text>
</g>
<!-- Node2 -->
<g id="node2" class="node"><title>Node2</title>
<polygon fill="none" stroke="#bfbfbf" points="109.5,-336.5 109.5,-355.5 158.5,-355.5 158.5,-336.5 109.5,-336.5"/>
<text text-anchor="middle" x="134" y="-343.5" font-family="Helvetica,sans-Serif" font-size="10.00">string.h</text>
</g>
<!-- Node1&#45;&gt;Node2 -->
<g id="edge1" class="edge"><title>Node1&#45;&gt;Node2</title>
<path fill="none" stroke="midnightblue" d="M217.094,-392.324C201.362,-383.743 177.058,-370.486 158.791,-360.522"/>
<polygon fill="midnightblue" stroke="midnightblue" points="160.322,-357.37 149.867,-355.655 156.97,-363.516 160.322,-357.37"/>
</g>
<!-- Node3 -->
<g id="node3" class="node"><title>Node3</title>
<g id="a_node3"><a xlink:href="../../d2/d11/cipclass3connection_8h.html" target="_top" xlink:title="CIP Class 3 connection. ">
<polygon fill="none" stroke="black" points="176.5,-336.5 176.5,-355.5 289.5,-355.5 289.5,-336.5 176.5,-336.5"/>
<text text-anchor="middle" x="233" y="-343.5" font-family="Helvetica,sans-Serif" font-size="10.00">cipclass3connection.h</text>
</a>
</g>
</g>
<!-- Node1&#45;&gt;Node3 -->
<g id="edge2" class="edge"><title>Node1&#45;&gt;Node3</title>
<path fill="none" stroke="midnightblue" d="M233,-392.083C233,-385.006 233,-374.861 233,-365.986"/>
<polygon fill="midnightblue" stroke="midnightblue" points="236.5,-365.751 233,-355.751 229.5,-365.751 236.5,-365.751"/>
</g>
<!-- Node20 -->
<g id="node20" class="node"><title>Node20</title>
<g id="a_node20"><a xlink:href="../../d7/df9/encap_8h.html" target="_top" xlink:title="This file contains the public interface of the encapsulation layer. ">
<polygon fill="none" stroke="black" points="339.5,-280.5 339.5,-299.5 390.5,-299.5 390.5,-280.5 339.5,-280.5"/>
<text text-anchor="middle" x="365" y="-287.5" font-family="Helvetica,sans-Serif" font-size="10.00">encap.h</text>
</a>
</g>
</g>
<!-- Node1&#45;&gt;Node20 -->
<g id="edge37" class="edge"><title>Node1&#45;&gt;Node20</title>
<path fill="none" stroke="midnightblue" d="M246.662,-392.482C260.149,-383.859 281.14,-369.856 298,-356 316.84,-340.517 336.679,-320.779 349.835,-307.137"/>
<polygon fill="midnightblue" stroke="midnightblue" points="352.38,-309.539 356.75,-299.888 347.315,-304.708 352.38,-309.539"/>
</g>
<!-- Node4 -->
<g id="node4" class="node"><title>Node4</title>
<g id="a_node4"><a xlink:href="../../d4/d38/opener__api_8h.html" target="_top" xlink:title="opener_api.h">
<polygon fill="none" stroke="black" points="115,-168.5 115,-187.5 187,-187.5 187,-168.5 115,-168.5"/>
<text text-anchor="middle" x="151" y="-175.5" font-family="Helvetica,sans-Serif" font-size="10.00">opener_api.h</text>
</a>
</g>
</g>
<!-- Node3&#45;&gt;Node4 -->
<g id="edge3" class="edge"><title>Node3&#45;&gt;Node4</title>
<path fill="none" stroke="midnightblue" d="M198.816,-336.493C180.007,-329.877 158.257,-318.596 147,-300 127.752,-268.205 137.004,-222.601 144.567,-197.436"/>
<polygon fill="midnightblue" stroke="midnightblue" points="147.963,-198.31 147.715,-187.718 141.303,-196.152 147.963,-198.31"/>
</g>
<!-- Node15 -->
<g id="node15" class="node"><title>Node15</title>
<g id="a_node15"><a xlink:href="../../d2/da3/cipconnectionmanager_8h.html" target="_top" xlink:title="cipconnectionmanager.h">
<polygon fill="none" stroke="black" points="156,-280.5 156,-299.5 278,-299.5 278,-280.5 156,-280.5"/>
<text text-anchor="middle" x="217" y="-287.5" font-family="Helvetica,sans-Serif" font-size="10.00">cipconnectionmanager.h</text>
</a>
</g>
</g>
<!-- Node3&#45;&gt;Node15 -->
<g id="edge18" class="edge"><title>Node3&#45;&gt;Node15</title>
<path fill="none" stroke="midnightblue" d="M230.358,-336.083C228.214,-328.849 225.121,-318.409 222.451,-309.397"/>
<polygon fill="midnightblue" stroke="midnightblue" points="225.79,-308.345 219.593,-299.751 219.078,-310.333 225.79,-308.345"/>
</g>
<!-- Node16 -->
<g id="node16" class="node"><title>Node16</title>
<g id="a_node16"><a xlink:href="../../d1/d6c/cipconnectionobject_8h.html" target="_top" xlink:title="cipconnectionobject.h">
<polygon fill="none" stroke="black" points="309.5,-224.5 309.5,-243.5 420.5,-243.5 420.5,-224.5 309.5,-224.5"/>
<text text-anchor="middle" x="365" y="-231.5" font-family="Helvetica,sans-Serif" font-size="10.00">cipconnectionobject.h</text>
</a>
</g>
</g>
<!-- Node3&#45;&gt;Node16 -->
<g id="edge36" class="edge"><title>Node3&#45;&gt;Node16</title>
<path fill="none" stroke="midnightblue" d="M243.358,-336.368C265.72,-317.733 318.761,-273.532 346.839,-250.134"/>
<polygon fill="midnightblue" stroke="midnightblue" points="349.249,-252.682 354.69,-243.591 344.767,-247.305 349.249,-252.682"/>
</g>
<!-- Node5 -->
<g id="node5" class="node"><title>Node5</title>
<polygon fill="none" stroke="#bfbfbf" points="69,-112.5 69,-131.5 121,-131.5 121,-112.5 69,-112.5"/>
<text text-anchor="middle" x="95" y="-119.5" font-family="Helvetica,sans-Serif" font-size="10.00">assert.h</text>
</g>
<!-- Node4&#45;&gt;Node5 -->
<g id="edge4" class="edge"><title>Node4&#45;&gt;Node5</title>
<path fill="none" stroke="midnightblue" d="M142.003,-168.324C133.806,-160.42 121.494,-148.548 111.528,-138.938"/>
<polygon fill="midnightblue" stroke="midnightblue" points="113.789,-136.256 104.161,-131.834 108.93,-141.295 113.789,-136.256"/>
</g>
<!-- Node6 -->
<g id="node6" class="node"><title>Node6</title>
<polygon fill="none" stroke="#bfbfbf" points="522,-0.5 522,-19.5 578,-19.5 578,-0.5 522,-0.5"/>
<text text-anchor="middle" x="550" y="-7.5" font-family="Helvetica,sans-Serif" font-size="10.00">stdbool.h</text>
</g>
<!-- Node4&#45;&gt;Node6 -->
<g id="edge5" class="edge"><title>Node4&#45;&gt;Node6</title>
<path fill="none" stroke="midnightblue" d="M181.419,-168.478C209.51,-160.265 252.177,-146.915 288,-132 356.629,-103.427 369.284,-86.6736 437,-56 463.641,-43.9322 494.532,-31.7503 517.275,-23.1103"/>
<polygon fill="midnightblue" stroke="midnightblue" points="518.675,-26.323 526.797,-19.5191 516.205,-19.7733 518.675,-26.323"/>
</g>
<!-- Node7 -->
<g id="node7" class="node"><title>Node7</title>
<g id="a_node7"><a xlink:href="../../d7/d69/typedefs_8h.html" target="_top" xlink:title="typedefs.h">
<polygon fill="none" stroke="black" points="446,-56.5 446,-75.5 508,-75.5 508,-56.5 446,-56.5"/>
<text text-anchor="middle" x="477" y="-63.5" font-family="Helvetica,sans-Serif" font-size="10.00">typedefs.h</text>
</a>
</g>
</g>
<!-- Node4&#45;&gt;Node7 -->
<g id="edge6" class="edge"><title>Node4&#45;&gt;Node7</title>
<path fill="none" stroke="midnightblue" d="M187.045,-174.062C232.687,-169.4 313.079,-158.011 377,-132 407.936,-119.412 439.587,-96.8824 458.771,-81.9364"/>
<polygon fill="midnightblue" stroke="midnightblue" points="461.009,-84.628 466.66,-75.6659 456.654,-79.1479 461.009,-84.628"/>
</g>
<!-- Node10 -->
<g id="node10" class="node"><title>Node10</title>
<g id="a_node10"><a xlink:href="../../df/d28/ciptypes_8h.html" target="_top" xlink:title="ciptypes.h">
<polygon fill="none" stroke="black" points="218,-112.5 218,-131.5 280,-131.5 280,-112.5 218,-112.5"/>
<text text-anchor="middle" x="249" y="-119.5" font-family="Helvetica,sans-Serif" font-size="10.00">ciptypes.h</text>
</a>
</g>
</g>
<!-- Node4&#45;&gt;Node10 -->
<g id="edge10" class="edge"><title>Node4&#45;&gt;Node10</title>
<path fill="none" stroke="midnightblue" d="M166.745,-168.324C182.319,-159.743 206.377,-146.486 224.459,-136.522"/>
<polygon fill="midnightblue" stroke="midnightblue" points="226.224,-139.546 233.294,-131.655 222.846,-133.415 226.224,-139.546"/>
</g>
<!-- Node13 -->
<g id="node13" class="node"><title>Node13</title>
<polygon fill="none" stroke="#bfbfbf" points="25,-0.5 25,-19.5 127,-19.5 127,-0.5 25,-0.5"/>
<text text-anchor="middle" x="76" y="-7.5" font-family="Helvetica,sans-Serif" font-size="10.00">opener_user_conf.h</text>
</g>
<!-- Node4&#45;&gt;Node13 -->
<g id="edge17" class="edge"><title>Node4&#45;&gt;Node13</title>
<path fill="none" stroke="midnightblue" d="M114.89,-169.024C95.0087,-162.59 71.9955,-151.314 60,-132 40.0532,-99.8838 55.6818,-53.7604 66.9864,-28.7542"/>
<polygon fill="midnightblue" stroke="midnightblue" points="70.1533,-30.2445 71.3083,-19.7128 63.8377,-27.2255 70.1533,-30.2445"/>
</g>
<!-- Node14 -->
<g id="node14" class="node"><title>Node14</title>
<g id="a_node14"><a xlink:href="../../d6/d52/ciperror_8h.html" target="_top" xlink:title="ciperror.h">
<polygon fill="none" stroke="black" points="139.5,-112.5 139.5,-131.5 196.5,-131.5 196.5,-112.5 139.5,-112.5"/>
<text text-anchor="middle" x="168" y="-119.5" font-family="Helvetica,sans-Serif" font-size="10.00">ciperror.h</text>
</a>
</g>
</g>
<!-- Node4&#45;&gt;Node14 -->
<g id="edge16" class="edge"><title>Node4&#45;&gt;Node14</title>
<path fill="none" stroke="midnightblue" d="M153.807,-168.083C156.085,-160.849 159.371,-150.409 162.208,-141.397"/>
<polygon fill="midnightblue" stroke="midnightblue" points="165.581,-142.341 165.245,-131.751 158.904,-140.239 165.581,-142.341"/>
</g>
<!-- Node7&#45;&gt;Node6 -->
<g id="edge9" class="edge"><title>Node7&#45;&gt;Node6</title>
<path fill="none" stroke="midnightblue" d="M488.729,-56.324C499.837,-48.1066 516.742,-35.6017 529.983,-25.8069"/>
<polygon fill="midnightblue" stroke="midnightblue" points="532.1,-28.5948 538.058,-19.8339 527.937,-22.9671 532.1,-28.5948"/>
</g>
<!-- Node8 -->
<g id="node8" class="node"><title>Node8</title>
<polygon fill="none" stroke="#bfbfbf" points="373.5,-0.5 373.5,-19.5 432.5,-19.5 432.5,-0.5 373.5,-0.5"/>
<text text-anchor="middle" x="403" y="-7.5" font-family="Helvetica,sans-Serif" font-size="10.00">inttypes.h</text>
</g>
<!-- Node7&#45;&gt;Node8 -->
<g id="edge7" class="edge"><title>Node7&#45;&gt;Node8</title>
<path fill="none" stroke="midnightblue" d="M465.111,-56.324C453.85,-48.1066 436.713,-35.6017 423.291,-25.8069"/>
<polygon fill="midnightblue" stroke="midnightblue" points="425.247,-22.9014 415.106,-19.8339 421.12,-28.5559 425.247,-22.9014"/>
</g>
<!-- Node9 -->
<g id="node9" class="node"><title>Node9</title>
<polygon fill="none" stroke="#bfbfbf" points="451,-0.5 451,-19.5 503,-19.5 503,-0.5 451,-0.5"/>
<text text-anchor="middle" x="477" y="-7.5" font-family="Helvetica,sans-Serif" font-size="10.00">stddef.h</text>
</g>
<!-- Node7&#45;&gt;Node9 -->
<g id="edge8" class="edge"><title>Node7&#45;&gt;Node9</title>
<path fill="none" stroke="midnightblue" d="M477,-56.083C477,-49.0059 477,-38.8611 477,-29.9865"/>
<polygon fill="midnightblue" stroke="midnightblue" points="480.5,-29.751 477,-19.7511 473.5,-29.7511 480.5,-29.751"/>
</g>
<!-- Node10&#45;&gt;Node7 -->
<g id="edge11" class="edge"><title>Node10&#45;&gt;Node7</title>
<path fill="none" stroke="midnightblue" d="M280.224,-113.605C320.618,-104.038 391.093,-87.3465 435.829,-76.7511"/>
<polygon fill="midnightblue" stroke="midnightblue" points="436.864,-80.1029 445.788,-74.3924 435.25,-73.2913 436.864,-80.1029"/>
</g>
<!-- Node11 -->
<g id="node11" class="node"><title>Node11</title>
<polygon fill="none" stroke="#bfbfbf" points="104.5,-56.5 104.5,-75.5 195.5,-75.5 195.5,-56.5 104.5,-56.5"/>
<text text-anchor="middle" x="150" y="-63.5" font-family="Helvetica,sans-Serif" font-size="10.00">networkhandler.h</text>
</g>
<!-- Node10&#45;&gt;Node11 -->
<g id="edge12" class="edge"><title>Node10&#45;&gt;Node11</title>
<path fill="none" stroke="midnightblue" d="M233.094,-112.324C217.362,-103.743 193.058,-90.486 174.791,-80.5224"/>
<polygon fill="midnightblue" stroke="midnightblue" points="176.322,-77.3704 165.867,-75.6545 172.97,-83.5157 176.322,-77.3704"/>
</g>
<!-- Node12 -->
<g id="node12" class="node"><title>Node12</title>
<g id="a_node12"><a xlink:href="../../d8/d2c/enipmessage_8h.html" target="_top" xlink:title="enipmessage.h">
<polygon fill="none" stroke="black" points="213.5,-56.5 213.5,-75.5 296.5,-75.5 296.5,-56.5 213.5,-56.5"/>
<text text-anchor="middle" x="255" y="-63.5" font-family="Helvetica,sans-Serif" font-size="10.00">enipmessage.h</text>
</a>
</g>
</g>
<!-- Node10&#45;&gt;Node12 -->
<g id="edge13" class="edge"><title>Node10&#45;&gt;Node12</title>
<path fill="none" stroke="midnightblue" d="M249.991,-112.083C250.786,-104.927 251.929,-94.6353 252.923,-85.6911"/>
<polygon fill="midnightblue" stroke="midnightblue" points="256.402,-86.0765 254.028,-75.7511 249.445,-85.3034 256.402,-86.0765"/>
</g>
<!-- Node10&#45;&gt;Node13 -->
<g id="edge15" class="edge"><title>Node10&#45;&gt;Node13</title>
<path fill="none" stroke="midnightblue" d="M217.977,-113.628C175.594,-103.303 103.814,-84.8135 95,-76 82.9294,-63.9305 78.4389,-44.6442 76.8131,-30.209"/>
<polygon fill="midnightblue" stroke="midnightblue" points="80.2779,-29.6102 76.0332,-19.9028 73.2978,-30.1385 80.2779,-29.6102"/>
</g>
<!-- Node12&#45;&gt;Node13 -->
<g id="edge14" class="edge"><title>Node12&#45;&gt;Node13</title>
<path fill="none" stroke="midnightblue" d="M226.637,-56.4435C196.262,-47.2801 147.89,-32.6876 114.184,-22.5192"/>
<polygon fill="midnightblue" stroke="midnightblue" points="114.815,-19.0538 104.23,-19.5164 112.793,-25.7555 114.815,-19.0538"/>
</g>
<!-- Node15&#45;&gt;Node4 -->
<g id="edge20" class="edge"><title>Node15&#45;&gt;Node4</title>
<path fill="none" stroke="midnightblue" d="M211.821,-280.368C200.977,-262.296 175.706,-220.176 161.384,-196.307"/>
<polygon fill="midnightblue" stroke="midnightblue" points="164.301,-194.366 156.155,-187.591 158.299,-197.967 164.301,-194.366"/>
</g>
<!-- Node15&#45;&gt;Node7 -->
<g id="edge21" class="edge"><title>Node15&#45;&gt;Node7</title>
<path fill="none" stroke="midnightblue" d="M221.385,-280.328C232.904,-258.378 266.181,-200.093 310,-168 347.772,-140.336 369.229,-156.703 409,-132 430.339,-118.746 450.583,-97.954 463.345,-83.4668"/>
<polygon fill="midnightblue" stroke="midnightblue" points="466.093,-85.6393 469.946,-75.7701 460.78,-81.0822 466.093,-85.6393"/>
</g>
<!-- Node15&#45;&gt;Node10 -->
<g id="edge22" class="edge"><title>Node15&#45;&gt;Node10</title>
<path fill="none" stroke="midnightblue" d="M218.434,-280.47C221.787,-260.669 230.505,-210.067 239,-168 240.764,-159.263 242.886,-149.611 244.721,-141.493"/>
<polygon fill="midnightblue" stroke="midnightblue" points="248.164,-142.134 246.983,-131.606 241.341,-140.573 248.164,-142.134"/>
</g>
<!-- Node15&#45;&gt;Node13 -->
<g id="edge19" class="edge"><title>Node15&#45;&gt;Node13</title>
<path fill="none" stroke="midnightblue" d="M155.976,-283.853C91.7927,-274.704 0,-249.325 0,-179 0,-179 0,-179 0,-121 0,-81.2757 33.9641,-45.5045 56.4821,-26.1536"/>
<polygon fill="midnightblue" stroke="midnightblue" points="58.9755,-28.6337 64.4572,-19.5672 54.518,-23.2364 58.9755,-28.6337"/>
</g>
<!-- Node15&#45;&gt;Node16 -->
<g id="edge23" class="edge"><title>Node15&#45;&gt;Node16</title>
<path fill="none" stroke="midnightblue" d="M240.451,-280.444C265.133,-271.438 304.185,-257.189 331.977,-247.049"/>
<polygon fill="midnightblue" stroke="midnightblue" points="333.464,-250.232 341.659,-243.516 331.065,-243.656 333.464,-250.232"/>
</g>
<!-- Node16&#45;&gt;Node4 -->
<g id="edge27" class="edge"><title>Node16&#45;&gt;Node4</title>
<path fill="none" stroke="midnightblue" d="M331.091,-224.444C294.151,-215.122 234.946,-200.183 194.582,-189.997"/>
<polygon fill="midnightblue" stroke="midnightblue" points="195.303,-186.57 184.75,-187.516 193.59,-193.357 195.303,-186.57"/>
</g>
<!-- Node16&#45;&gt;Node7 -->
<g id="edge24" class="edge"><title>Node16&#45;&gt;Node7</title>
<path fill="none" stroke="midnightblue" d="M396.896,-224.429C416.029,-217.645 439.244,-206.21 453,-188 475.836,-157.769 478.572,-111.538 478.082,-85.8564"/>
<polygon fill="midnightblue" stroke="midnightblue" points="481.571,-85.4929 477.691,-75.6341 474.576,-85.7607 481.571,-85.4929"/>
</g>
<!-- Node16&#45;&gt;Node10 -->
<g id="edge25" class="edge"><title>Node16&#45;&gt;Node10</title>
<path fill="none" stroke="midnightblue" d="M353.683,-224.447C342.302,-215.685 324.424,-201.476 310,-188 293.144,-172.251 275.236,-152.805 263.216,-139.306"/>
<polygon fill="midnightblue" stroke="midnightblue" points="265.795,-136.94 256.555,-131.757 260.546,-141.571 265.795,-136.94"/>
</g>
<!-- Node16&#45;&gt;Node13 -->
<g id="edge26" class="edge"><title>Node16&#45;&gt;Node13</title>
<path fill="none" stroke="midnightblue" d="M381.731,-224.363C401.33,-212.963 429.943,-191.562 420,-168 392.262,-102.267 368.18,-89.1424 305,-56 252.686,-28.5577 185.68,-17.7774 137.687,-13.5815"/>
<polygon fill="midnightblue" stroke="midnightblue" points="137.69,-10.0706 127.442,-12.7602 137.131,-17.0482 137.69,-10.0706"/>
</g>
<!-- Node17 -->
<g id="node17" class="node"><title>Node17</title>
<g id="a_node17"><a xlink:href="../../d9/d31/doublylinkedlist_8h.html" target="_top" xlink:title="doublylinkedlist.h">
<polygon fill="none" stroke="black" points="319,-168.5 319,-187.5 411,-187.5 411,-168.5 319,-168.5"/>
<text text-anchor="middle" x="365" y="-175.5" font-family="Helvetica,sans-Serif" font-size="10.00">doublylinkedlist.h</text>
</a>
</g>
</g>
<!-- Node16&#45;&gt;Node17 -->
<g id="edge28" class="edge"><title>Node16&#45;&gt;Node17</title>
<path fill="none" stroke="midnightblue" d="M365,-224.083C365,-217.006 365,-206.861 365,-197.986"/>
<polygon fill="midnightblue" stroke="midnightblue" points="368.5,-197.751 365,-187.751 361.5,-197.751 368.5,-197.751"/>
</g>
<!-- Node18 -->
<g id="node18" class="node"><title>Node18</title>
<g id="a_node18"><a xlink:href="../../d0/d23/cipelectronickey_8h.html" target="_top" xlink:title="cipelectronickey.h">
<polygon fill="none" stroke="black" points="505.5,-112.5 505.5,-131.5 600.5,-131.5 600.5,-112.5 505.5,-112.5"/>
<text text-anchor="middle" x="553" y="-119.5" font-family="Helvetica,sans-Serif" font-size="10.00">cipelectronickey.h</text>
</a>
</g>
</g>
<!-- Node16&#45;&gt;Node18 -->
<g id="edge29" class="edge"><title>Node16&#45;&gt;Node18</title>
<path fill="none" stroke="midnightblue" d="M420.699,-228.83C476.228,-223.377 555.925,-211.596 575,-188 586.182,-174.168 576.839,-154.362 567.108,-140.255"/>
<polygon fill="midnightblue" stroke="midnightblue" points="569.666,-137.832 560.869,-131.927 564.064,-142.029 569.666,-137.832"/>
</g>
<!-- Node19 -->
<g id="node19" class="node"><title>Node19</title>
<g id="a_node19"><a xlink:href="../../d1/d02/cipepath_8h.html" target="_top" xlink:title="cipepath.h">
<polygon fill="none" stroke="black" points="505,-168.5 505,-187.5 567,-187.5 567,-168.5 505,-168.5"/>
<text text-anchor="middle" x="536" y="-175.5" font-family="Helvetica,sans-Serif" font-size="10.00">cipepath.h</text>
</a>
</g>
</g>
<!-- Node16&#45;&gt;Node19 -->
<g id="edge32" class="edge"><title>Node16&#45;&gt;Node19</title>
<path fill="none" stroke="midnightblue" d="M392.095,-224.444C420.988,-215.32 466.925,-200.813 499.105,-190.651"/>
<polygon fill="midnightblue" stroke="midnightblue" points="500.549,-193.865 509.031,-187.516 498.441,-187.19 500.549,-193.865"/>
</g>
<!-- Node18&#45;&gt;Node6 -->
<g id="edge30" class="edge"><title>Node18&#45;&gt;Node6</title>
<path fill="none" stroke="midnightblue" d="M552.765,-112.368C552.28,-94.617 551.164,-53.6664 550.507,-29.5974"/>
<polygon fill="midnightblue" stroke="midnightblue" points="554.006,-29.4922 550.234,-19.5914 547.008,-29.6832 554.006,-29.4922"/>
</g>
<!-- Node18&#45;&gt;Node7 -->
<g id="edge31" class="edge"><title>Node18&#45;&gt;Node7</title>
<path fill="none" stroke="midnightblue" d="M540.789,-112.324C529.224,-104.107 511.625,-91.6017 497.839,-81.8069"/>
<polygon fill="midnightblue" stroke="midnightblue" points="499.612,-78.7729 489.433,-75.8339 495.557,-84.4791 499.612,-78.7729"/>
</g>
<!-- Node19&#45;&gt;Node6 -->
<g id="edge33" class="edge"><title>Node19&#45;&gt;Node6</title>
<path fill="none" stroke="midnightblue" d="M562.211,-168.414C578.85,-161.445 599.057,-149.809 609,-132 629.574,-95.1491 591.763,-50.0778 567.7,-26.721"/>
<polygon fill="midnightblue" stroke="midnightblue" points="569.864,-23.9527 560.171,-19.6757 565.081,-29.064 569.864,-23.9527"/>
</g>
<!-- Node19&#45;&gt;Node10 -->
<g id="edge34" class="edge"><title>Node19&#45;&gt;Node10</title>
<path fill="none" stroke="midnightblue" d="M504.74,-171.118C452.66,-161.319 348.141,-141.654 290.144,-130.741"/>
<polygon fill="midnightblue" stroke="midnightblue" points="290.697,-127.284 280.222,-128.874 289.402,-134.163 290.697,-127.284"/>
</g>
<!-- Node19&#45;&gt;Node18 -->
<g id="edge35" class="edge"><title>Node19&#45;&gt;Node18</title>
<path fill="none" stroke="midnightblue" d="M538.807,-168.083C541.085,-160.849 544.371,-150.409 547.208,-141.397"/>
<polygon fill="midnightblue" stroke="midnightblue" points="550.581,-142.341 550.245,-131.751 543.904,-140.239 550.581,-142.341"/>
</g>
<!-- Node20&#45;&gt;Node7 -->
<g id="edge38" class="edge"><title>Node20&#45;&gt;Node7</title>
<path fill="none" stroke="midnightblue" d="M390.715,-284.595C437.375,-275.263 536.214,-249.125 591,-188 614.168,-162.151 629.201,-140.229 609,-112 588.492,-83.3424 548.636,-72.7251 518.061,-68.898"/>
<polygon fill="midnightblue" stroke="midnightblue" points="518.402,-65.4146 508.089,-67.8442 517.666,-72.3759 518.402,-65.4146"/>
</g>
<!-- Node20&#45;&gt;Node16 -->
<g id="edge39" class="edge"><title>Node20&#45;&gt;Node16</title>
<path fill="none" stroke="midnightblue" d="M365,-280.083C365,-273.006 365,-262.861 365,-253.986"/>
<polygon fill="midnightblue" stroke="midnightblue" points="368.5,-253.751 365,-243.751 361.5,-253.751 368.5,-253.751"/>
</g>
</g>
</svg>
