<?xml version="1.0" encoding="UTF-8" standalone="no"?>
<!DOCTYPE svg PUBLIC "-//W3C//DTD SVG 1.1//EN"
 "http://www.w3.org/Graphics/SVG/1.1/DTD/svg11.dtd">
<!-- Generated by graphviz version 2.26.3 (20100126.1600)
 -->
<!-- Title: G Pages: 1 -->
<!--zoomable 290 -->
<svg id="main" version="1.1" xmlns="http://www.w3.org/2000/svg" xmlns:xlink="http://www.w3.org/1999/xlink" xml:space="preserve" onload="init(evt)">
        <defs>
                <circle id="rim" cx="0" cy="0" r="7"/>
                <circle id="rim2" cx="0" cy="0" r="3.5"/>
                <g id="zoomPlus">
                        <use xlink:href="#rim" fill="#404040">
                                <set attributeName="fill" to="#808080" begin="zoomplus.mouseover" end="zoomplus.mouseout"/>
                        </use>
                        <path d="M-4,0h8M0,-4v8" fill="none" stroke="white" stroke-width="1.5" pointer-events="none"/>
                </g>
                <g id="zoomMin">
                        <use xlink:href="#rim" fill="#404040">
                                <set attributeName="fill" to="#808080" begin="zoomminus.mouseover" end="zoomminus.mouseout"/>
                        </use>
                        <path d="M-4,0h8" fill="none" stroke="white" stroke-width="1.5" pointer-events="none"/>
                </g>
                <g id="dirArrow">
                        <path fill="none" stroke="white" stroke-width="1.5" d="M0,-3.0v7 M-2.5,-0.5L0,-3.0L2.5,-0.5"/>
                </g>
               <g id="resetDef">
                       <use xlink:href="#rim2" fill="#404040">
                               <set attributeName="fill" to="#808080" begin="reset.mouseover" end="reset.mouseout"/>
                       </use>
               </g>
        </defs>

<script type="text/javascript">
var viewWidth = 848;
var viewHeight = 290;
var sectionId = 'dynsection-42';
</script>
<script xlink:href="../../svgpan.js"/>
<svg id="graph" class="graph">
<g id="viewport">
<title>G</title>
<!-- Node1 -->
<g id="node1" class="node"><title>Node1</title>
<polygon fill="#bfbfbf" stroke="black" points="0.5,-180.5 0.5,-201.5 101.5,-201.5 101.5,-180.5 0.5,-180.5"/>
<text text-anchor="middle" x="51" y="-188.5" font-family="Helvetica,sans-Serif" font-size="10.00">ShutdownCipStack</text>
</g>
<!-- Node2 -->
<g id="node3" class="node"><title>Node2</title>
<a xlink:href="../../d1/dbc/appcontype_8c.html#a18d2a32030faf1d5e3d48e610b1c4fe7" target="_top" xlink:title="CloseAllConnections">
<polygon fill="none" stroke="black" points="146,-260.5 146,-281.5 254,-281.5 254,-260.5 146,-260.5"/>
<text text-anchor="middle" x="200" y="-268.5" font-family="Helvetica,sans-Serif" font-size="10.00">CloseAllConnections</text>
</a>
</g>
<!-- Node1&#45;&gt;Node2 -->
<g id="edge2" class="edge"><title>Node1&#45;&gt;Node2</title>
<path fill="none" stroke="midnightblue" d="M63.8106,-201.634C80.1502,-214.76 109.693,-237.049 138,-251 142.337,-253.137 146.954,-255.119 151.638,-256.936"/>
<polygon fill="midnightblue" stroke="midnightblue" points="150.68,-260.312 161.275,-260.435 153.069,-253.733 150.68,-260.312"/>
</g>
<!-- Node5 -->
<g id="node9" class="node"><title>Node5</title>
<a xlink:href="../../d9/d7d/cipmessagerouter_8c.html#a16364f408990e2a5725f2fd5375ef3df" target="_top" xlink:title="Free all data allocated by the classes created in the CIP stack.">
<polygon fill="none" stroke="black" points="154,-220.5 154,-241.5 246,-241.5 246,-220.5 154,-220.5"/>
<text text-anchor="middle" x="200" y="-228.5" font-family="Helvetica,sans-Serif" font-size="10.00">DeleteAllClasses</text>
</a>
</g>
<!-- Node1&#45;&gt;Node5 -->
<g id="edge8" class="edge"><title>Node1&#45;&gt;Node5</title>
<path fill="none" stroke="midnightblue" d="M90.148,-201.51C108.81,-206.519 131.324,-212.563 151.099,-217.872"/>
<polygon fill="midnightblue" stroke="midnightblue" points="150.29,-221.279 160.855,-220.491 152.105,-214.518 150.29,-221.279"/>
</g>
<!-- Node7 -->
<g id="node13" class="node"><title>Node7</title>
<a xlink:href="../../d4/d91/group__ENCAP.html#ga1261bd2441f744c38d7a3f8d8c16c391" target="_top" xlink:title="Shutdown the encapsulation layer.">
<polygon fill="none" stroke="black" points="138,-80.5 138,-101.5 262,-101.5 262,-80.5 138,-80.5"/>
<text text-anchor="middle" x="200" y="-88.5" font-family="Helvetica,sans-Serif" font-size="10.00">EncapsulationShutDown</text>
</a>
</g>
<!-- Node1&#45;&gt;Node7 -->
<g id="edge12" class="edge"><title>Node1&#45;&gt;Node7</title>
<path fill="none" stroke="midnightblue" d="M65.9923,-180.453C83.2543,-168.357 112.511,-148.006 138,-131 150.023,-122.978 163.493,-114.257 174.798,-107.011"/>
<polygon fill="midnightblue" stroke="midnightblue" points="176.789,-109.892 183.331,-101.558 173.02,-103.994 176.789,-109.892"/>
</g>
<!-- Node14 -->
<g id="node27" class="node"><title>Node14</title>
<a xlink:href="../../df/d2e/cipassembly_8c.html#adcacd62b6a866c5c74c3cdda19598b98" target="_top" xlink:title="clean up the data allocated in the assembly object instances">
<polygon fill="none" stroke="black" points="144.5,-140.5 144.5,-161.5 255.5,-161.5 255.5,-140.5 144.5,-140.5"/>
<text text-anchor="middle" x="200" y="-148.5" font-family="Helvetica,sans-Serif" font-size="10.00">ShutdownAssemblies</text>
</a>
</g>
<!-- Node1&#45;&gt;Node14 -->
<g id="edge26" class="edge"><title>Node1&#45;&gt;Node14</title>
<path fill="none" stroke="midnightblue" d="M90.148,-180.49C108.81,-175.481 131.324,-169.437 151.099,-164.128"/>
<polygon fill="midnightblue" stroke="midnightblue" points="152.105,-167.482 160.855,-161.509 150.29,-160.721 152.105,-167.482"/>
</g>
<!-- Node18 -->
<g id="node36" class="node"><title>Node18</title>
<a xlink:href="../../dd/d20/ciptcpipinterface_8c.html#a523c7909b1d929c0b9b288802189d391" target="_top" xlink:title="Clean up the allocated data of the TCP/IP interface object.">
<polygon fill="none" stroke="black" points="138.5,-180.5 138.5,-201.5 261.5,-201.5 261.5,-180.5 138.5,-180.5"/>
<text text-anchor="middle" x="200" y="-188.5" font-family="Helvetica,sans-Serif" font-size="10.00">ShutdownTcpIpInterface</text>
</a>
</g>
<!-- Node1&#45;&gt;Node18 -->
<g id="edge36" class="edge"><title>Node1&#45;&gt;Node18</title>
<path fill="none" stroke="midnightblue" d="M101.861,-191C110.375,-191 119.348,-191 128.269,-191"/>
<polygon fill="midnightblue" stroke="midnightblue" points="128.291,-194.5 138.291,-191 128.291,-187.5 128.291,-194.5"/>
</g>
<!-- Node3 -->
<g id="node5" class="node"><title>Node3</title>
<a xlink:href="../../d9/ddc/doublylinkedlist_8c.html#a341e2f6faf7227650ed6e38e90cd047e" target="_top" xlink:title="DoublyLinkedListRemoveNode">
<polygon fill="none" stroke="black" points="298,-260.5 298,-281.5 450,-281.5 450,-260.5 298,-260.5"/>
<text text-anchor="middle" x="374" y="-268.5" font-family="Helvetica,sans-Serif" font-size="10.00">DoublyLinkedListRemoveNode</text>
</a>
</g>
<!-- Node2&#45;&gt;Node3 -->
<g id="edge4" class="edge"><title>Node2&#45;&gt;Node3</title>
<path fill="none" stroke="midnightblue" d="M254.101,-271C264.826,-271 276.334,-271 287.822,-271"/>
<polygon fill="midnightblue" stroke="midnightblue" points="287.893,-274.5 297.893,-271 287.893,-267.5 287.893,-274.5"/>
</g>
<!-- Node4 -->
<g id="node7" class="node"><title>Node4</title>
<a xlink:href="../../d9/ddc/doublylinkedlist_8c.html#a87710acb9f42fba14822fb824814105c" target="_top" xlink:title="DoublyLinkedListNodeDestroy">
<polygon fill="none" stroke="black" points="486.5,-260.5 486.5,-281.5 635.5,-281.5 635.5,-260.5 486.5,-260.5"/>
<text text-anchor="middle" x="561" y="-268.5" font-family="Helvetica,sans-Serif" font-size="10.00">DoublyLinkedListNodeDestroy</text>
</a>
</g>
<!-- Node3&#45;&gt;Node4 -->
<g id="edge6" class="edge"><title>Node3&#45;&gt;Node4</title>
<path fill="none" stroke="midnightblue" d="M450.06,-271C458.636,-271 467.415,-271 476.094,-271"/>
<polygon fill="midnightblue" stroke="midnightblue" points="476.219,-274.5 486.219,-271 476.219,-267.5 476.219,-274.5"/>
</g>
<!-- Node6 -->
<g id="node11" class="node"><title>Node6</title>
<a xlink:href="../../d5/dc5/group__CIP__CALLBACK__API.html#ga729165f94320800eb9537def5a0e6af8" target="_top" xlink:title="Free memory allocated by the OpENer.">
<polygon fill="none" stroke="black" points="348.5,-200.5 348.5,-221.5 399.5,-221.5 399.5,-200.5 348.5,-200.5"/>
<text text-anchor="middle" x="374" y="-208.5" font-family="Helvetica,sans-Serif" font-size="10.00">CipFree</text>
</a>
</g>
<!-- Node5&#45;&gt;Node6 -->
<g id="edge10" class="edge"><title>Node5&#45;&gt;Node6</title>
<path fill="none" stroke="midnightblue" d="M246.172,-225.693C274.97,-222.383 311.486,-218.186 338.109,-215.125"/>
<polygon fill="midnightblue" stroke="midnightblue" points="338.612,-218.591 348.147,-213.972 337.813,-211.636 338.612,-218.591"/>
</g>
<!-- Node8 -->
<g id="node15" class="node"><title>Node8</title>
<a xlink:href="../../db/d4f/generic__networkhandler_8c.html#a1bfa5ef8e4802716459a56567ee16592" target="_top" xlink:title="CloseTcpSocket">
<polygon fill="none" stroke="black" points="329.5,-80.5 329.5,-101.5 418.5,-101.5 418.5,-80.5 329.5,-80.5"/>
<text text-anchor="middle" x="374" y="-88.5" font-family="Helvetica,sans-Serif" font-size="10.00">CloseTcpSocket</text>
</a>
</g>
<!-- Node7&#45;&gt;Node8 -->
<g id="edge14" class="edge"><title>Node7&#45;&gt;Node8</title>
<path fill="none" stroke="midnightblue" d="M262.327,-91C280.917,-91 301.146,-91 319.216,-91"/>
<polygon fill="midnightblue" stroke="midnightblue" points="319.292,-94.5001 329.292,-91 319.292,-87.5001 319.292,-94.5001"/>
</g>
<!-- Node9 -->
<g id="node17" class="node"><title>Node9</title>
<a xlink:href="../../d5/dc5/group__CIP__CALLBACK__API.html#gaf4d26c1bca26c2e6e73481d57762df36" target="_top" xlink:title="Close the given socket and clean up the stack.">
<polygon fill="none" stroke="black" points="524.5,-80.5 524.5,-101.5 597.5,-101.5 597.5,-80.5 524.5,-80.5"/>
<text text-anchor="middle" x="561" y="-88.5" font-family="Helvetica,sans-Serif" font-size="10.00">CloseSocket</text>
</a>
</g>
<!-- Node8&#45;&gt;Node9 -->
<g id="edge16" class="edge"><title>Node8&#45;&gt;Node9</title>
<path fill="none" stroke="midnightblue" d="M418.791,-91C447.565,-91 484.877,-91 514.062,-91"/>
<polygon fill="midnightblue" stroke="midnightblue" points="514.416,-94.5001 524.416,-91 514.416,-87.5001 514.416,-94.5001"/>
</g>
<!-- Node11 -->
<g id="node21" class="node"><title>Node11</title>
<a xlink:href="../../db/d4f/generic__networkhandler_8c.html#aea539a75995234e379a1c25019ba378f" target="_top" xlink:title="RemoveSocketTimerFromList">
<polygon fill="none" stroke="black" points="487.5,-40.5 487.5,-61.5 634.5,-61.5 634.5,-40.5 487.5,-40.5"/>
<text text-anchor="middle" x="561" y="-48.5" font-family="Helvetica,sans-Serif" font-size="10.00">RemoveSocketTimerFromList</text>
</a>
</g>
<!-- Node8&#45;&gt;Node11 -->
<g id="edge20" class="edge"><title>Node8&#45;&gt;Node11</title>
<path fill="none" stroke="midnightblue" d="M418.791,-81.419C443.606,-76.111 474.772,-69.4445 501.599,-63.7062"/>
<polygon fill="midnightblue" stroke="midnightblue" points="502.599,-67.0715 511.645,-61.5571 501.134,-60.2264 502.599,-67.0715"/>
</g>
<!-- Node10 -->
<g id="node19" class="node"><title>Node10</title>
<a xlink:href="../../d2/d5e/POSIX_2networkhandler_8c.html#a2812ba0ecd1fd9a5549fbca397d76e3e" target="_top" xlink:title="Platform dependent code to close a socket.">
<polygon fill="none" stroke="black" points="701,-80.5 701,-101.5 811,-101.5 811,-80.5 701,-80.5"/>
<text text-anchor="middle" x="756" y="-88.5" font-family="Helvetica,sans-Serif" font-size="10.00">CloseSocketPlatform</text>
</a>
</g>
<!-- Node9&#45;&gt;Node10 -->
<g id="edge18" class="edge"><title>Node9&#45;&gt;Node10</title>
<path fill="none" stroke="midnightblue" d="M597.678,-91C623.747,-91 659.474,-91 690.393,-91"/>
<polygon fill="midnightblue" stroke="midnightblue" points="690.673,-94.5001 700.673,-91 690.673,-87.5001 690.673,-94.5001"/>
</g>
<!-- Node12 -->
<g id="node23" class="node"><title>Node12</title>
<a xlink:href="../../d4/df6/socket__timer_8c.html#abe7542fdec4d4e4893a8c712192529ca" target="_top" xlink:title="Get the Socket Timer entry with the spezified socket value.">
<polygon fill="none" stroke="black" points="672.5,-40.5 672.5,-61.5 839.5,-61.5 839.5,-40.5 672.5,-40.5"/>
<text text-anchor="middle" x="756" y="-48.5" font-family="Helvetica,sans-Serif" font-size="10.00">SocketTimerArrayGetSocketTimer</text>
</a>
</g>
<!-- Node11&#45;&gt;Node12 -->
<g id="edge22" class="edge"><title>Node11&#45;&gt;Node12</title>
<path fill="none" stroke="midnightblue" d="M634.721,-51C643.75,-51 653.069,-51 662.342,-51"/>
<polygon fill="midnightblue" stroke="midnightblue" points="662.37,-54.5001 672.37,-51 662.37,-47.5001 662.37,-54.5001"/>
</g>
<!-- Node13 -->
<g id="node25" class="node"><title>Node13</title>
<a xlink:href="../../d4/df6/socket__timer_8c.html#a6130830815ae46fe4e6d45cf89bc3506" target="_top" xlink:title="Clears a Socket Timer entry.">
<polygon fill="none" stroke="black" points="708.5,-0.5 708.5,-21.5 803.5,-21.5 803.5,-0.5 708.5,-0.5"/>
<text text-anchor="middle" x="756" y="-8.5" font-family="Helvetica,sans-Serif" font-size="10.00">SocketTimerClear</text>
</a>
</g>
<!-- Node11&#45;&gt;Node13 -->
<g id="edge24" class="edge"><title>Node11&#45;&gt;Node13</title>
<path fill="none" stroke="midnightblue" d="M612.234,-40.4905C638.766,-35.048 671.248,-28.3849 698.621,-22.7701"/>
<polygon fill="midnightblue" stroke="midnightblue" points="699.361,-26.1913 708.454,-20.7531 697.954,-19.334 699.361,-26.1913"/>
</g>
<!-- Node14&#45;&gt;Node6 -->
<g id="edge28" class="edge"><title>Node14&#45;&gt;Node6</title>
<path fill="none" stroke="midnightblue" d="M236.83,-161.574C245.22,-164.341 254.012,-167.532 262,-171 278.79,-178.289 281.017,-184.173 298,-191 310.786,-196.14 325.313,-200.337 338.216,-203.535"/>
<polygon fill="midnightblue" stroke="midnightblue" points="337.616,-206.99 348.153,-205.885 339.227,-200.178 337.616,-206.99"/>
</g>
<!-- Node15 -->
<g id="node30" class="node"><title>Node15</title>
<a xlink:href="../../d2/dc9/group__CIP__API.html#ga5a14c8d76acacb09312b709bb0a76265" target="_top" xlink:title="Get a pointer to an instance&#39;s attribute.">
<polygon fill="none" stroke="black" points="332,-160.5 332,-181.5 416,-181.5 416,-160.5 332,-160.5"/>
<text text-anchor="middle" x="374" y="-168.5" font-family="Helvetica,sans-Serif" font-size="10.00">GetCipAttribute</text>
</a>
</g>
<!-- Node14&#45;&gt;Node15 -->
<g id="edge30" class="edge"><title>Node14&#45;&gt;Node15</title>
<path fill="none" stroke="midnightblue" d="M255.533,-157.383C276.815,-159.829 301.001,-162.609 321.946,-165.017"/>
<polygon fill="midnightblue" stroke="midnightblue" points="321.607,-168.501 331.941,-166.166 322.406,-161.547 321.607,-168.501"/>
</g>
<!-- Node16 -->
<g id="node32" class="node"><title>Node16</title>
<a xlink:href="../../d2/dc9/group__CIP__API.html#ga98bd609c80ece316406363575b4a89ea" target="_top" xlink:title="Get a pointer to a CIP object with given class code.">
<polygon fill="none" stroke="black" points="337.5,-120.5 337.5,-141.5 410.5,-141.5 410.5,-120.5 337.5,-120.5"/>
<text text-anchor="middle" x="374" y="-128.5" font-family="Helvetica,sans-Serif" font-size="10.00">GetCipClass</text>
</a>
</g>
<!-- Node14&#45;&gt;Node16 -->
<g id="edge32" class="edge"><title>Node14&#45;&gt;Node16</title>
<path fill="none" stroke="midnightblue" d="M255.533,-144.617C278.629,-141.962 305.145,-138.914 327.227,-136.376"/>
<polygon fill="midnightblue" stroke="midnightblue" points="327.819,-139.831 337.354,-135.212 327.02,-132.877 327.819,-139.831"/>
</g>
<!-- Node17 -->
<g id="node34" class="node"><title>Node17</title>
<a xlink:href="../../d9/d7d/cipmessagerouter_8c.html#a7a9f44f2d6f010b6f6ee922d378d9bb1" target="_top" xlink:title="Get the registered MessageRouter object corresponding to ClassID. given a class ID, return a pointer to the registration node for that object.">
<polygon fill="none" stroke="black" points="507,-120.5 507,-141.5 615,-141.5 615,-120.5 507,-120.5"/>
<text text-anchor="middle" x="561" y="-128.5" font-family="Helvetica,sans-Serif" font-size="10.00">GetRegisteredObject</text>
</a>
</g>
<!-- Node16&#45;&gt;Node17 -->
<g id="edge34" class="edge"><title>Node16&#45;&gt;Node17</title>
<path fill="none" stroke="midnightblue" d="M410.945,-131C435.308,-131 467.878,-131 496.447,-131"/>
<polygon fill="midnightblue" stroke="midnightblue" points="496.769,-134.5 506.769,-131 496.769,-127.5 496.769,-134.5"/>
</g>
<!-- Node18&#45;&gt;Node6 -->
<g id="edge38" class="edge"><title>Node18&#45;&gt;Node6</title>
<path fill="none" stroke="midnightblue" d="M261.836,-198.108C287.355,-201.041 316.035,-204.337 338.005,-206.863"/>
<polygon fill="midnightblue" stroke="midnightblue" points="337.874,-210.371 348.209,-208.035 338.674,-203.416 337.874,-210.371"/>
</g>
</g>
</svg>
        <g id="navigator" transform="translate(0 0)" fill="#404254">
                <rect fill="#f2f5e9" fill-opacity="0.5" stroke="#606060" stroke-width=".5" x="0" y="0" width="60" height="60"/>
                <use id="zoomplus" xlink:href="#zoomPlus" x="17" y="9" onmousedown="handleZoom(evt,'in')"/>
                <use id="zoomminus" xlink:href="#zoomMin" x="42" y="9" onmousedown="handleZoom(evt,'out')"/>
                <use id="reset" xlink:href="#resetDef" x="30" y="36" onmousedown="handleReset()"/>
                <g id="arrowUp" xlink:href="#dirArrow" transform="translate(30 24)" onmousedown="handlePan(0,-1)">
                  <use xlink:href="#rim" fill="#404040">
                        <set attributeName="fill" to="#808080" begin="arrowUp.mouseover" end="arrowUp.mouseout"/>
                  </use>
                  <path fill="none" stroke="white" stroke-width="1.5" d="M0,-3.0v7 M-2.5,-0.5L0,-3.0L2.5,-0.5"/>
                </g>
                <g id="arrowRight" xlink:href="#dirArrow" transform="rotate(90) translate(36 -43)" onmousedown="handlePan(1,0)">
                  <use xlink:href="#rim" fill="#404040">
                        <set attributeName="fill" to="#808080" begin="arrowRight.mouseover" end="arrowRight.mouseout"/>
                  </use>
                  <path fill="none" stroke="white" stroke-width="1.5" d="M0,-3.0v7 M-2.5,-0.5L0,-3.0L2.5,-0.5"/>
                </g>
                <g id="arrowDown" xlink:href="#dirArrow" transform="rotate(180) translate(-30 -48)" onmousedown="handlePan(0,1)">
                  <use xlink:href="#rim" fill="#404040">
                        <set attributeName="fill" to="#808080" begin="arrowDown.mouseover" end="arrowDown.mouseout"/>
                  </use>
                  <path fill="none" stroke="white" stroke-width="1.5" d="M0,-3.0v7 M-2.5,-0.5L0,-3.0L2.5,-0.5"/>
                </g>
                <g id="arrowLeft" xlink:href="#dirArrow" transform="rotate(270) translate(-36 17)" onmousedown="handlePan(-1,0)">
                  <use xlink:href="#rim" fill="#404040">
                        <set attributeName="fill" to="#808080" begin="arrowLeft.mouseover" end="arrowLeft.mouseout"/>
                  </use>
                  <path fill="none" stroke="white" stroke-width="1.5" d="M0,-3.0v7 M-2.5,-0.5L0,-3.0L2.5,-0.5"/>
                </g>
        </g>
</svg>
