<?xml version="1.0" encoding="UTF-8" standalone="no"?>
<!DOCTYPE svg PUBLIC "-//W3C//DTD SVG 1.1//EN"
 "http://www.w3.org/Graphics/SVG/1.1/DTD/svg11.dtd">
<!-- Generated by graphviz version 2.26.3 (20100126.1600)
 -->
<!-- Title: G Pages: 1 -->
<!--zoomable 383 -->
<svg id="main" version="1.1" xmlns="http://www.w3.org/2000/svg" xmlns:xlink="http://www.w3.org/1999/xlink" xml:space="preserve" onload="init(evt)">
        <defs>
                <circle id="rim" cx="0" cy="0" r="7"/>
                <circle id="rim2" cx="0" cy="0" r="3.5"/>
                <g id="zoomPlus">
                        <use xlink:href="#rim" fill="#404040">
                                <set attributeName="fill" to="#808080" begin="zoomplus.mouseover" end="zoomplus.mouseout"/>
                        </use>
                        <path d="M-4,0h8M0,-4v8" fill="none" stroke="white" stroke-width="1.5" pointer-events="none"/>
                </g>
                <g id="zoomMin">
                        <use xlink:href="#rim" fill="#404040">
                                <set attributeName="fill" to="#808080" begin="zoomminus.mouseover" end="zoomminus.mouseout"/>
                        </use>
                        <path d="M-4,0h8" fill="none" stroke="white" stroke-width="1.5" pointer-events="none"/>
                </g>
                <g id="dirArrow">
                        <path fill="none" stroke="white" stroke-width="1.5" d="M0,-3.0v7 M-2.5,-0.5L0,-3.0L2.5,-0.5"/>
                </g>
               <g id="resetDef">
                       <use xlink:href="#rim2" fill="#404040">
                               <set attributeName="fill" to="#808080" begin="reset.mouseover" end="reset.mouseout"/>
                       </use>
               </g>
        </defs>

<script type="text/javascript">
var viewWidth = 1024;
var viewHeight = 383;
var sectionId = 'dynsection-26';
</script>
<script xlink:href="../../svgpan.js"/>
<svg id="graph" class="graph">
<g id="viewport">
<title>G</title>
<!-- Node1 -->
<g id="node1" class="node"><title>Node1</title>
<polygon fill="#bfbfbf" stroke="black" points="0.5,-120.5 0.5,-141.5 73.5,-141.5 73.5,-120.5 0.5,-120.5"/>
<text text-anchor="middle" x="37" y="-128.5" font-family="Helvetica,sans-Serif" font-size="10.00">GetCipClass</text>
</g>
<!-- Node2 -->
<g id="node3" class="node"><title>Node2</title>
<a xlink:href="../../d2/dc9/group__CIP__API.html#gae61b613fed863d30428e78b2311bf593" target="_top" xlink:title="Create an instance of an assembly object.">
<polygon fill="none" stroke="black" points="672,-313.5 672,-334.5 790,-334.5 790,-313.5 672,-313.5"/>
<text text-anchor="middle" x="731" y="-321.5" font-family="Helvetica,sans-Serif" font-size="10.00">CreateAssemblyObject</text>
</a>
</g>
<!-- Node1&#45;&gt;Node2 -->
<g id="edge2" class="edge"><title>Node1&#45;&gt;Node2</title>
<path fill="none" stroke="midnightblue" d="M55.0608,-148.591C69.1433,-161.597 89.6636,-179.05 110,-191 229.402,-261.161 264.727,-275.326 400,-305 493.471,-325.504 605.135,-327.39 671.942,-326.192"/>
<polygon fill="midnightblue" stroke="midnightblue" points="57.2405,-145.836 47.5632,-141.523 52.4387,-150.93 57.2405,-145.836"/>
</g>
<!-- Node4 -->
<g id="node7" class="node"><title>Node4</title>
<a xlink:href="../../d2/dc9/group__CIP__API.html#ga446b7f612fe7baaf40d7f87274832922" target="_top" xlink:title="Allocate memory for new CIP Class and attributes.">
<polygon fill="none" stroke="black" points="194,-160.5 194,-181.5 280,-181.5 280,-160.5 194,-160.5"/>
<text text-anchor="middle" x="237" y="-168.5" font-family="Helvetica,sans-Serif" font-size="10.00">CreateCipClass</text>
</a>
</g>
<!-- Node1&#45;&gt;Node4 -->
<g id="edge6" class="edge"><title>Node1&#45;&gt;Node4</title>
<path fill="none" stroke="midnightblue" d="M82.1738,-144.217C91.3379,-146.661 100.943,-149.052 110,-151 137.713,-156.959 169.186,-161.928 193.867,-165.422"/>
<polygon fill="midnightblue" stroke="midnightblue" points="83.0181,-140.82 72.4495,-141.564 81.1755,-147.573 83.0181,-140.82"/>
</g>
<!-- Node14 -->
<g id="node33" class="node"><title>Node14</title>
<a xlink:href="../../df/d03/cipioconnection_8c.html#a092519d4bb79e85405f3bae92391ab71" target="_top" xlink:title="HandleConfigData">
<polygon fill="none" stroke="black" points="188.5,-120.5 188.5,-141.5 285.5,-141.5 285.5,-120.5 188.5,-120.5"/>
<text text-anchor="middle" x="237" y="-128.5" font-family="Helvetica,sans-Serif" font-size="10.00">HandleConfigData</text>
</a>
</g>
<!-- Node1&#45;&gt;Node14 -->
<g id="edge38" class="edge"><title>Node1&#45;&gt;Node14</title>
<path fill="none" stroke="midnightblue" d="M83.9439,-131C115.397,-131 156.707,-131 188.482,-131"/>
<polygon fill="midnightblue" stroke="midnightblue" points="83.6831,-127.5 73.6831,-131 83.683,-134.5 83.6831,-127.5"/>
</g>
<!-- Node16 -->
<g id="node38" class="node"><title>Node16</title>
<a xlink:href="../../d5/d35/cipconnectionmanager_8c.html#a96ebb3d0e93c8d4ee4a7d6529061ee68" target="_top" xlink:title="Parse the connection path of a forward open request.">
<polygon fill="none" stroke="black" points="181,-0.5 181,-21.5 293,-21.5 293,-0.5 181,-0.5"/>
<text text-anchor="middle" x="237" y="-8.5" font-family="Helvetica,sans-Serif" font-size="10.00">ParseConnectionPath</text>
</a>
</g>
<!-- Node1&#45;&gt;Node16 -->
<g id="edge44" class="edge"><title>Node1&#45;&gt;Node16</title>
<path fill="none" stroke="midnightblue" d="M45.6485,-111.117C56.8904,-87.8321 78.8386,-50.0285 110,-31 131.05,-18.1462 157.589,-12.6625 180.958,-10.5814"/>
<polygon fill="midnightblue" stroke="midnightblue" points="42.38,-109.847 41.3658,-120.393 48.7353,-112.781 42.38,-109.847"/>
</g>
<!-- Node18 -->
<g id="node42" class="node"><title>Node18</title>
<a xlink:href="../../df/d03/cipioconnection_8c.html#a198846e6013a89a27816d2eae392b0cc" target="_top" xlink:title="SetupIoConnectionOriginatorToTargetConnectionPoint">
<polygon fill="none" stroke="black" points="110.5,-80.5 110.5,-101.5 363.5,-101.5 363.5,-80.5 110.5,-80.5"/>
<text text-anchor="middle" x="237" y="-88.5" font-family="Helvetica,sans-Serif" font-size="10.00">SetupIoConnectionOriginatorToTargetConnectionPoint</text>
</a>
</g>
<!-- Node1&#45;&gt;Node18 -->
<g id="edge48" class="edge"><title>Node1&#45;&gt;Node18</title>
<path fill="none" stroke="midnightblue" d="M82.1738,-117.783C91.3379,-115.339 100.943,-112.948 110,-111 126.475,-107.457 144.279,-104.265 161.195,-101.524"/>
<polygon fill="midnightblue" stroke="midnightblue" points="81.1755,-114.427 72.4495,-120.436 83.0181,-121.18 81.1755,-114.427"/>
</g>
<!-- Node19 -->
<g id="node45" class="node"><title>Node19</title>
<a xlink:href="../../df/d03/cipioconnection_8c.html#a58143f4b37db19c4acac195032340b05" target="_top" xlink:title="SetupIoConnectionTargetToOriginatorConnectionPoint">
<polygon fill="none" stroke="black" points="110.5,-40.5 110.5,-61.5 363.5,-61.5 363.5,-40.5 110.5,-40.5"/>
<text text-anchor="middle" x="237" y="-48.5" font-family="Helvetica,sans-Serif" font-size="10.00">SetupIoConnectionTargetToOriginatorConnectionPoint</text>
</a>
</g>
<!-- Node1&#45;&gt;Node19 -->
<g id="edge52" class="edge"><title>Node1&#45;&gt;Node19</title>
<path fill="none" stroke="midnightblue" d="M53.9038,-112.566C67.6343,-98.8118 88.2324,-80.7752 110,-71 118.552,-67.1596 127.716,-64.0411 137.061,-61.5108"/>
<polygon fill="midnightblue" stroke="midnightblue" points="51.0828,-110.449 46.6562,-120.075 56.1194,-115.311 51.0828,-110.449"/>
</g>
<!-- Node20 -->
<g id="node48" class="node"><title>Node20</title>
<a xlink:href="../../de/df4/cipassembly_8h.html#adcacd62b6a866c5c74c3cdda19598b98" target="_top" xlink:title="clean up the data allocated in the assembly object instances">
<polygon fill="none" stroke="black" points="675.5,-353.5 675.5,-374.5 786.5,-374.5 786.5,-353.5 675.5,-353.5"/>
<text text-anchor="middle" x="731" y="-361.5" font-family="Helvetica,sans-Serif" font-size="10.00">ShutdownAssemblies</text>
</a>
</g>
<!-- Node1&#45;&gt;Node20 -->
<g id="edge56" class="edge"><title>Node1&#45;&gt;Node20</title>
<path fill="none" stroke="midnightblue" d="M43.1453,-151.324C52.7316,-179.478 73.9807,-229.928 110,-257 282.503,-386.652 557.853,-380.032 675.149,-370.166"/>
<polygon fill="midnightblue" stroke="midnightblue" points="46.4461,-150.157 40.0358,-141.721 39.7865,-152.313 46.4461,-150.157"/>
</g>
<!-- Node3 -->
<g id="node5" class="node"><title>Node3</title>
<a xlink:href="../../d5/dc5/group__CIP__CALLBACK__API.html#gae93106eb1647bff3ad56a7752799d878" target="_top" xlink:title="Callback for the application initialization.">
<polygon fill="none" stroke="black" points="826,-313.5 826,-334.5 942,-334.5 942,-313.5 826,-313.5"/>
<text text-anchor="middle" x="884" y="-321.5" font-family="Helvetica,sans-Serif" font-size="10.00">ApplicationInitialization</text>
</a>
</g>
<!-- Node2&#45;&gt;Node3 -->
<g id="edge4" class="edge"><title>Node2&#45;&gt;Node3</title>
<path fill="none" stroke="midnightblue" d="M800.405,-324C808.879,-324 817.471,-324 825.759,-324"/>
<polygon fill="midnightblue" stroke="midnightblue" points="800.154,-320.5 790.154,-324 800.154,-327.5 800.154,-320.5"/>
</g>
<!-- Node5 -->
<g id="node9" class="node"><title>Node5</title>
<a xlink:href="../../dd/d4d/cipethernetlink_8h.html#ad6d2028b90ec96ad148d092a30acb7d6" target="_top" xlink:title="Initialize the Ethernet Link Objects data.">
<polygon fill="none" stroke="black" points="681,-117.5 681,-138.5 781,-138.5 781,-117.5 681,-117.5"/>
<text text-anchor="middle" x="731" y="-125.5" font-family="Helvetica,sans-Serif" font-size="10.00">CipEthernetLinkInit</text>
</a>
</g>
<!-- Node4&#45;&gt;Node5 -->
<g id="edge8" class="edge"><title>Node4&#45;&gt;Node5</title>
<path fill="none" stroke="midnightblue" d="M290.084,-161.966C321.88,-156.859 363.154,-150.763 400,-147 499.35,-136.855 616.07,-131.734 680.982,-129.487"/>
<polygon fill="midnightblue" stroke="midnightblue" points="289.421,-158.528 280.111,-163.585 290.543,-165.437 289.421,-158.528"/>
</g>
<!-- Node8 -->
<g id="node15" class="node"><title>Node8</title>
<a xlink:href="../../dc/d72/cipidentity_8h.html#a5d5136e167300543aa046057b56ae813" target="_top" xlink:title="CIP Identity object constructor.">
<polygon fill="none" stroke="black" points="692.5,-233.5 692.5,-254.5 769.5,-254.5 769.5,-233.5 692.5,-233.5"/>
<text text-anchor="middle" x="731" y="-241.5" font-family="Helvetica,sans-Serif" font-size="10.00">CipIdentityInit</text>
</a>
</g>
<!-- Node4&#45;&gt;Node8 -->
<g id="edge14" class="edge"><title>Node4&#45;&gt;Node8</title>
<path fill="none" stroke="midnightblue" d="M270.159,-185.468C302.575,-198.869 353.676,-218.037 400,-227 504.23,-247.167 630.148,-247.095 692.354,-245.482"/>
<polygon fill="midnightblue" stroke="midnightblue" points="271.3,-182.151 260.724,-181.512 268.593,-188.607 271.3,-182.151"/>
</g>
<!-- Node9 -->
<g id="node18" class="node"><title>Node9</title>
<a xlink:href="../../d2/d75/cipmessagerouter_8h.html#aa3456b75c1b2289296323b578fee2d3d" target="_top" xlink:title="Initialize the data structures of the message router.">
<polygon fill="none" stroke="black" points="461,-196.5 461,-217.5 575,-217.5 575,-196.5 461,-196.5"/>
<text text-anchor="middle" x="518" y="-204.5" font-family="Helvetica,sans-Serif" font-size="10.00">CipMessageRouterInit</text>
</a>
</g>
<!-- Node4&#45;&gt;Node9 -->
<g id="edge18" class="edge"><title>Node4&#45;&gt;Node9</title>
<path fill="none" stroke="midnightblue" d="M290.32,-177.831C339.04,-184.073 410.884,-193.277 460.789,-199.671"/>
<polygon fill="midnightblue" stroke="midnightblue" points="290.654,-174.345 280.29,-176.546 289.765,-181.289 290.654,-174.345"/>
</g>
<!-- Node10 -->
<g id="node21" class="node"><title>Node10</title>
<a xlink:href="../../d1/dad/ciptcpipinterface_8h.html#a4c1f49654e48c5581513d990840933b0" target="_top" xlink:title="Initializing the data structures of the TCP/IP interface object.">
<polygon fill="none" stroke="black" points="464,-156.5 464,-177.5 572,-177.5 572,-156.5 464,-156.5"/>
<text text-anchor="middle" x="518" y="-164.5" font-family="Helvetica,sans-Serif" font-size="10.00">CipTcpIpInterfaceInit</text>
</a>
</g>
<!-- Node4&#45;&gt;Node10 -->
<g id="edge22" class="edge"><title>Node4&#45;&gt;Node10</title>
<path fill="none" stroke="midnightblue" d="M290.501,-170.238C340.132,-169.532 413.645,-168.485 463.571,-167.775"/>
<polygon fill="midnightblue" stroke="midnightblue" points="290.24,-166.742 280.29,-170.384 290.339,-173.741 290.24,-166.742"/>
</g>
<!-- Node11 -->
<g id="node24" class="node"><title>Node11</title>
<a xlink:href="../../d2/da3/cipconnectionmanager_8h.html#a5ab0de6894d23e8fe84a6b46797c2212" target="_top" xlink:title="Initialize the data of the connection manager object.">
<polygon fill="none" stroke="black" points="672.5,-77.5 672.5,-98.5 789.5,-98.5 789.5,-77.5 672.5,-77.5"/>
<text text-anchor="middle" x="731" y="-85.5" font-family="Helvetica,sans-Serif" font-size="10.00">ConnectionManagerInit</text>
</a>
</g>
<!-- Node4&#45;&gt;Node11 -->
<g id="edge26" class="edge"><title>Node4&#45;&gt;Node11</title>
<path fill="none" stroke="midnightblue" d="M290.279,-167.757C313.524,-165.047 340.725,-160.084 364,-151 381.914,-144.009 381.954,-133.642 400,-127 490.956,-93.5257 604.59,-87.1596 672.287,-86.7586"/>
<polygon fill="midnightblue" stroke="midnightblue" points="289.821,-164.286 280.245,-168.819 290.558,-171.247 289.821,-164.286"/>
</g>
<!-- Node12 -->
<g id="node27" class="node"><title>Node12</title>
<a xlink:href="../../df/d2e/cipassembly_8c.html#a5973ef42110a1bdf6c7699e35e04b7d4" target="_top" xlink:title="Constructor for the assembly object class.">
<polygon fill="none" stroke="black" points="460.5,-274.5 460.5,-295.5 575.5,-295.5 575.5,-274.5 460.5,-274.5"/>
<text text-anchor="middle" x="518" y="-282.5" font-family="Helvetica,sans-Serif" font-size="10.00">CreateAssemblyClass</text>
</a>
</g>
<!-- Node4&#45;&gt;Node12 -->
<g id="edge30" class="edge"><title>Node4&#45;&gt;Node12</title>
<path fill="none" stroke="midnightblue" d="M261.321,-187.238C292.273,-207.191 347.982,-240.759 400,-260 419.149,-267.083 440.829,-272.397 460.333,-276.262"/>
<polygon fill="midnightblue" stroke="midnightblue" points="263.195,-184.281 252.906,-181.754 259.373,-190.146 263.195,-184.281"/>
</g>
<!-- Node6 -->
<g id="node11" class="node"><title>Node6</title>
<a xlink:href="../../d2/dc9/group__CIP__API.html#ga5d4979945d124e28668b264c3823db1c" target="_top" xlink:title="Initialize and setup the CIP&#45;stack.">
<polygon fill="none" stroke="black" points="848.5,-194.5 848.5,-215.5 919.5,-215.5 919.5,-194.5 848.5,-194.5"/>
<text text-anchor="middle" x="884" y="-202.5" font-family="Helvetica,sans-Serif" font-size="10.00">CipStackInit</text>
</a>
</g>
<!-- Node5&#45;&gt;Node6 -->
<g id="edge10" class="edge"><title>Node5&#45;&gt;Node6</title>
<path fill="none" stroke="midnightblue" d="M767.111,-142.595C774.736,-145.873 782.686,-149.439 790,-153 817.165,-166.224 847.592,-183.535 866.274,-194.465"/>
<polygon fill="midnightblue" stroke="midnightblue" points="768.272,-139.286 757.698,-138.619 765.548,-145.734 768.272,-139.286"/>
</g>
<!-- Node7 -->
<g id="node13" class="node"><title>Node7</title>
<a xlink:href="../../d9/dfb/POSIX_2main_8c.html#ad338a7dbc41dc40bcecd0479377ef207" target="_top" xlink:title="main">
<polygon fill="none" stroke="black" points="978,-273.5 978,-294.5 1016,-294.5 1016,-273.5 978,-273.5"/>
<text text-anchor="middle" x="997" y="-281.5" font-family="Helvetica,sans-Serif" font-size="10.00">main</text>
</a>
</g>
<!-- Node6&#45;&gt;Node7 -->
<g id="edge12" class="edge"><title>Node6&#45;&gt;Node7</title>
<path fill="none" stroke="midnightblue" d="M907.492,-221.423C929.753,-236.987 962.544,-259.911 981.641,-273.262"/>
<polygon fill="midnightblue" stroke="midnightblue" points="909.441,-218.516 899.24,-215.654 905.43,-224.253 909.441,-218.516"/>
</g>
<!-- Node8&#45;&gt;Node6 -->
<g id="edge16" class="edge"><title>Node8&#45;&gt;Node6</title>
<path fill="none" stroke="midnightblue" d="M779.562,-231.622C801.859,-225.938 827.827,-219.319 848.291,-214.102"/>
<polygon fill="midnightblue" stroke="midnightblue" points="778.434,-228.297 769.608,-234.159 780.163,-235.08 778.434,-228.297"/>
</g>
<!-- Node9&#45;&gt;Node6 -->
<g id="edge20" class="edge"><title>Node9&#45;&gt;Node6</title>
<path fill="none" stroke="midnightblue" d="M585.34,-206.632C662.896,-206.208 787.418,-205.528 848.24,-205.195"/>
<polygon fill="midnightblue" stroke="midnightblue" points="585.168,-203.133 575.188,-206.688 585.207,-210.133 585.168,-203.133"/>
</g>
<!-- Node10&#45;&gt;Node6 -->
<g id="edge24" class="edge"><title>Node10&#45;&gt;Node6</title>
<path fill="none" stroke="midnightblue" d="M582.106,-173.656C659.422,-181.683 786.663,-194.894 848.311,-201.295"/>
<polygon fill="midnightblue" stroke="midnightblue" points="582.313,-170.159 572.005,-172.607 581.59,-177.121 582.313,-170.159"/>
</g>
<!-- Node11&#45;&gt;Node6 -->
<g id="edge28" class="edge"><title>Node11&#45;&gt;Node6</title>
<path fill="none" stroke="midnightblue" d="M779.982,-102.524C783.465,-104.182 786.844,-106.004 790,-108 828.052,-132.068 861.901,-174.596 876.447,-194.356"/>
<polygon fill="midnightblue" stroke="midnightblue" points="781.169,-99.2252 770.599,-98.5111 778.417,-105.661 781.169,-99.2252"/>
</g>
<!-- Node12&#45;&gt;Node2 -->
<g id="edge36" class="edge"><title>Node12&#45;&gt;Node2</title>
<path fill="none" stroke="midnightblue" d="M585.203,-297.305C613.585,-302.502 646.299,-308.491 673.537,-313.479"/>
<polygon fill="midnightblue" stroke="midnightblue" points="585.827,-293.861 575.36,-295.503 584.566,-300.746 585.827,-293.861"/>
</g>
<!-- Node13 -->
<g id="node29" class="node"><title>Node13</title>
<a xlink:href="../../de/df4/cipassembly_8h.html#a4dfbc2c7a8e9e77f05a0a7236210f5b4" target="_top" xlink:title="Setup the Assembly object.">
<polygon fill="none" stroke="black" points="675.5,-273.5 675.5,-294.5 786.5,-294.5 786.5,-273.5 675.5,-273.5"/>
<text text-anchor="middle" x="731" y="-281.5" font-family="Helvetica,sans-Serif" font-size="10.00">CipAssemblyInitialize</text>
</a>
</g>
<!-- Node12&#45;&gt;Node13 -->
<g id="edge32" class="edge"><title>Node12&#45;&gt;Node13</title>
<path fill="none" stroke="midnightblue" d="M585.643,-284.682C614.487,-284.547 647.739,-284.391 675.153,-284.262"/>
<polygon fill="midnightblue" stroke="midnightblue" points="585.624,-281.182 575.641,-284.729 585.657,-288.182 585.624,-281.182"/>
</g>
<!-- Node13&#45;&gt;Node6 -->
<g id="edge34" class="edge"><title>Node13&#45;&gt;Node6</title>
<path fill="none" stroke="midnightblue" d="M776.174,-269.91C780.905,-268.073 785.592,-266.095 790,-264 819.758,-249.857 851.702,-228.283 869.635,-215.516"/>
<polygon fill="midnightblue" stroke="midnightblue" points="774.655,-266.739 766.477,-273.475 777.07,-273.309 774.655,-266.739"/>
</g>
<!-- Node15 -->
<g id="node35" class="node"><title>Node15</title>
<a xlink:href="../../de/d45/cipioconnection_8h.html#a699fccd3dabdfec1b77560f22268c1e8" target="_top" xlink:title="Setup all data in order to establish an IO connection.">
<polygon fill="none" stroke="black" points="460.5,-40.5 460.5,-61.5 575.5,-61.5 575.5,-40.5 460.5,-40.5"/>
<text text-anchor="middle" x="518" y="-48.5" font-family="Helvetica,sans-Serif" font-size="10.00">EstablishIoConnection</text>
</a>
</g>
<!-- Node14&#45;&gt;Node15 -->
<g id="edge40" class="edge"><title>Node14&#45;&gt;Node15</title>
<path fill="none" stroke="midnightblue" d="M295.598,-129.271C317.941,-126.725 343.053,-121.476 364,-111 383.958,-101.018 380.311,-86.5031 400,-76 418.384,-66.1931 440.303,-60.2329 460.232,-56.6107"/>
<polygon fill="midnightblue" stroke="midnightblue" points="295.161,-125.797 285.552,-130.259 295.847,-132.763 295.161,-125.797"/>
</g>
<!-- Node15&#45;&gt;Node11 -->
<g id="edge42" class="edge"><title>Node15&#45;&gt;Node11</title>
<path fill="none" stroke="midnightblue" d="M585.684,-62.7572C613.491,-67.5876 645.388,-73.1284 672.201,-77.7861"/>
<polygon fill="midnightblue" stroke="midnightblue" points="586.092,-59.2759 575.641,-61.0127 584.894,-66.1726 586.092,-59.2759"/>
</g>
<!-- Node17 -->
<g id="node40" class="node"><title>Node17</title>
<a xlink:href="../../d5/d35/cipconnectionmanager_8c.html#ab0532e3b6d153312d4cf60746586058e" target="_top" xlink:title="Handles a Non Null Non Matching Forward Open Request.">
<polygon fill="none" stroke="black" points="400,-0.5 400,-21.5 636,-21.5 636,-0.5 400,-0.5"/>
<text text-anchor="middle" x="518" y="-8.5" font-family="Helvetica,sans-Serif" font-size="10.00">HandleNonNullNonMatchingForwardOpenRequest</text>
</a>
</g>
<!-- Node16&#45;&gt;Node17 -->
<g id="edge46" class="edge"><title>Node16&#45;&gt;Node17</title>
<path fill="none" stroke="midnightblue" d="M303.517,-11C332.298,-11 366.874,-11 399.777,-11"/>
<polygon fill="midnightblue" stroke="midnightblue" points="303.189,-7.5001 293.189,-11 303.189,-14.5001 303.189,-7.5001"/>
</g>
<!-- Node18&#45;&gt;Node15 -->
<g id="edge50" class="edge"><title>Node18&#45;&gt;Node15</title>
<path fill="none" stroke="midnightblue" d="M320.853,-79.0636C365.777,-72.6687 419.982,-64.9527 460.176,-59.2312"/>
<polygon fill="midnightblue" stroke="midnightblue" points="320.236,-75.616 310.829,-80.4905 321.223,-82.5462 320.236,-75.616"/>
</g>
<!-- Node19&#45;&gt;Node15 -->
<g id="edge54" class="edge"><title>Node19&#45;&gt;Node15</title>
<path fill="none" stroke="midnightblue" d="M373.848,-51C404.337,-51 435.056,-51 460.256,-51"/>
<polygon fill="midnightblue" stroke="midnightblue" points="373.525,-47.5001 363.525,-51 373.525,-54.5001 373.525,-47.5001"/>
</g>
<!-- Node21 -->
<g id="node50" class="node"><title>Node21</title>
<a xlink:href="../../d2/dc9/group__CIP__API.html#gaa57b527530adc2acda6febc500fd6831" target="_top" xlink:title="Shutdown of the CIP stack.">
<polygon fill="none" stroke="black" points="833.5,-353.5 833.5,-374.5 934.5,-374.5 934.5,-353.5 833.5,-353.5"/>
<text text-anchor="middle" x="884" y="-361.5" font-family="Helvetica,sans-Serif" font-size="10.00">ShutdownCipStack</text>
</a>
</g>
<!-- Node20&#45;&gt;Node21 -->
<g id="edge58" class="edge"><title>Node20&#45;&gt;Node21</title>
<path fill="none" stroke="midnightblue" d="M796.85,-364C809.109,-364 821.739,-364 833.449,-364"/>
<polygon fill="midnightblue" stroke="midnightblue" points="796.669,-360.5 786.669,-364 796.669,-367.5 796.669,-360.5"/>
</g>
<!-- Node21&#45;&gt;Node7 -->
<g id="edge60" class="edge"><title>Node21&#45;&gt;Node7</title>
<path fill="none" stroke="midnightblue" d="M932.666,-349.299C935.916,-347.691 939.061,-345.928 942,-344 962.324,-330.671 980.166,-308.168 989.686,-294.835"/>
<polygon fill="midnightblue" stroke="midnightblue" points="931.048,-346.188 923.318,-353.434 933.879,-352.59 931.048,-346.188"/>
</g>
</g>
</svg>
        <g id="navigator" transform="translate(0 0)" fill="#404254">
                <rect fill="#f2f5e9" fill-opacity="0.5" stroke="#606060" stroke-width=".5" x="0" y="0" width="60" height="60"/>
                <use id="zoomplus" xlink:href="#zoomPlus" x="17" y="9" onmousedown="handleZoom(evt,'in')"/>
                <use id="zoomminus" xlink:href="#zoomMin" x="42" y="9" onmousedown="handleZoom(evt,'out')"/>
                <use id="reset" xlink:href="#resetDef" x="30" y="36" onmousedown="handleReset()"/>
                <g id="arrowUp" xlink:href="#dirArrow" transform="translate(30 24)" onmousedown="handlePan(0,-1)">
                  <use xlink:href="#rim" fill="#404040">
                        <set attributeName="fill" to="#808080" begin="arrowUp.mouseover" end="arrowUp.mouseout"/>
                  </use>
                  <path fill="none" stroke="white" stroke-width="1.5" d="M0,-3.0v7 M-2.5,-0.5L0,-3.0L2.5,-0.5"/>
                </g>
                <g id="arrowRight" xlink:href="#dirArrow" transform="rotate(90) translate(36 -43)" onmousedown="handlePan(1,0)">
                  <use xlink:href="#rim" fill="#404040">
                        <set attributeName="fill" to="#808080" begin="arrowRight.mouseover" end="arrowRight.mouseout"/>
                  </use>
                  <path fill="none" stroke="white" stroke-width="1.5" d="M0,-3.0v7 M-2.5,-0.5L0,-3.0L2.5,-0.5"/>
                </g>
                <g id="arrowDown" xlink:href="#dirArrow" transform="rotate(180) translate(-30 -48)" onmousedown="handlePan(0,1)">
                  <use xlink:href="#rim" fill="#404040">
                        <set attributeName="fill" to="#808080" begin="arrowDown.mouseover" end="arrowDown.mouseout"/>
                  </use>
                  <path fill="none" stroke="white" stroke-width="1.5" d="M0,-3.0v7 M-2.5,-0.5L0,-3.0L2.5,-0.5"/>
                </g>
                <g id="arrowLeft" xlink:href="#dirArrow" transform="rotate(270) translate(-36 17)" onmousedown="handlePan(-1,0)">
                  <use xlink:href="#rim" fill="#404040">
                        <set attributeName="fill" to="#808080" begin="arrowLeft.mouseover" end="arrowLeft.mouseout"/>
                  </use>
                  <path fill="none" stroke="white" stroke-width="1.5" d="M0,-3.0v7 M-2.5,-0.5L0,-3.0L2.5,-0.5"/>
                </g>
        </g>
</svg>
