<?xml version="1.0" encoding="UTF-8" standalone="no"?>
<!DOCTYPE svg PUBLIC "-//W3C//DTD SVG 1.1//EN"
 "http://www.w3.org/Graphics/SVG/1.1/DTD/svg11.dtd">
<!-- Generated by graphviz version 2.26.3 (20100126.1600)
 -->
<!-- Title: G Pages: 1 -->
<!--zoomable 536 -->
<svg id="main" version="1.1" xmlns="http://www.w3.org/2000/svg" xmlns:xlink="http://www.w3.org/1999/xlink" xml:space="preserve" onload="init(evt)">
        <defs>
                <circle id="rim" cx="0" cy="0" r="7"/>
                <circle id="rim2" cx="0" cy="0" r="3.5"/>
                <g id="zoomPlus">
                        <use xlink:href="#rim" fill="#404040">
                                <set attributeName="fill" to="#808080" begin="zoomplus.mouseover" end="zoomplus.mouseout"/>
                        </use>
                        <path d="M-4,0h8M0,-4v8" fill="none" stroke="white" stroke-width="1.5" pointer-events="none"/>
                </g>
                <g id="zoomMin">
                        <use xlink:href="#rim" fill="#404040">
                                <set attributeName="fill" to="#808080" begin="zoomminus.mouseover" end="zoomminus.mouseout"/>
                        </use>
                        <path d="M-4,0h8" fill="none" stroke="white" stroke-width="1.5" pointer-events="none"/>
                </g>
                <g id="dirArrow">
                        <path fill="none" stroke="white" stroke-width="1.5" d="M0,-3.0v7 M-2.5,-0.5L0,-3.0L2.5,-0.5"/>
                </g>
               <g id="resetDef">
                       <use xlink:href="#rim2" fill="#404040">
                               <set attributeName="fill" to="#808080" begin="reset.mouseover" end="reset.mouseout"/>
                       </use>
               </g>
        </defs>

<script type="text/javascript">
var viewWidth = 1092;
var viewHeight = 536;
var sectionId = 'dynsection-26';
</script>
<script xlink:href="../../svgpan.js"/>
<svg id="graph" class="graph">
<g id="viewport">
<title>G</title>
<!-- Node1 -->
<g id="node1" class="node"><title>Node1</title>
<polygon fill="#bfbfbf" stroke="black" points="0,-176.5 0,-197.5 84,-197.5 84,-176.5 0,-176.5"/>
<text text-anchor="middle" x="42" y="-184.5" font-family="Helvetica,sans-Serif" font-size="10.00">GetCipAttribute</text>
</g>
<!-- Node2 -->
<g id="node3" class="node"><title>Node2</title>
<a xlink:href="../../db/d14/cipcommon_8h.html#ab0ed210dcfa6219a238c5a9f7a72aad1" target="_top" xlink:title="Generic implementation of the GetAttributeSingle CIP service.">
<polygon fill="none" stroke="black" points="199,-293.5 199,-314.5 295,-314.5 295,-293.5 199,-293.5"/>
<text text-anchor="middle" x="247" y="-301.5" font-family="Helvetica,sans-Serif" font-size="10.00">GetAttributeSingle</text>
</a>
</g>
<!-- Node1&#45;&gt;Node2 -->
<g id="edge2" class="edge"><title>Node1&#45;&gt;Node2</title>
<path fill="none" stroke="midnightblue" d="M55.4958,-205.625C69.6218,-223.82 93.418,-251.038 120,-267 144.02,-281.423 173.989,-290.503 198.782,-296.056"/>
<polygon fill="midnightblue" stroke="midnightblue" points="58.1863,-203.38 49.3683,-197.507 52.5992,-207.597 58.1863,-203.38"/>
</g>
<!-- Node17 -->
<g id="node45" class="node"><title>Node17</title>
<a xlink:href="../../dd/d20/ciptcpipinterface_8c.html#a01cd6d59afe7613e1c690d8b21207ce6" target="_top" xlink:title="GetAttributeSingleTcpIpInterface">
<polygon fill="none" stroke="black" points="167.5,-40.5 167.5,-61.5 326.5,-61.5 326.5,-40.5 167.5,-40.5"/>
<text text-anchor="middle" x="247" y="-48.5" font-family="Helvetica,sans-Serif" font-size="10.00">GetAttributeSingleTcpIpInterface</text>
</a>
</g>
<!-- Node1&#45;&gt;Node17 -->
<g id="edge56" class="edge"><title>Node1&#45;&gt;Node17</title>
<path fill="none" stroke="midnightblue" d="M50.3001,-167.014C61.946,-141.598 85.6327,-98.3356 120,-76 134.037,-66.877 150.66,-60.9466 167.175,-57.1233"/>
<polygon fill="midnightblue" stroke="midnightblue" points="46.9936,-165.839 46.1757,-176.402 53.4024,-168.654 46.9936,-165.839"/>
</g>
<!-- Node18 -->
<g id="node47" class="node"><title>Node18</title>
<a xlink:href="../../d1/dad/ciptcpipinterface_8h.html#ab17a8c773efeaebc86149f9a4dade5e2" target="_top" xlink:title="Public Method to get Encapsulation Inactivity Timeout Value.">
<polygon fill="none" stroke="black" points="162.5,-0.5 162.5,-21.5 331.5,-21.5 331.5,-0.5 162.5,-0.5"/>
<text text-anchor="middle" x="247" y="-8.5" font-family="Helvetica,sans-Serif" font-size="10.00">GetEncapsulationInactivityTimeout</text>
</a>
</g>
<!-- Node1&#45;&gt;Node18 -->
<g id="edge58" class="edge"><title>Node1&#45;&gt;Node18</title>
<path fill="none" stroke="midnightblue" d="M46.0122,-166.28C53.7938,-132.108 74.3548,-64.3977 120,-31 132.339,-21.9717 147.168,-16.3429 162.27,-12.9409"/>
<polygon fill="midnightblue" stroke="midnightblue" points="42.5785,-165.6 43.9192,-176.11 49.425,-167.058 42.5785,-165.6"/>
</g>
<!-- Node19 -->
<g id="node49" class="node"><title>Node19</title>
<a xlink:href="../../df/d03/cipioconnection_8c.html#a092519d4bb79e85405f3bae92391ab71" target="_top" xlink:title="HandleConfigData">
<polygon fill="none" stroke="black" points="198.5,-236.5 198.5,-257.5 295.5,-257.5 295.5,-236.5 198.5,-236.5"/>
<text text-anchor="middle" x="247" y="-244.5" font-family="Helvetica,sans-Serif" font-size="10.00">HandleConfigData</text>
</a>
</g>
<!-- Node1&#45;&gt;Node19 -->
<g id="edge60" class="edge"><title>Node1&#45;&gt;Node19</title>
<path fill="none" stroke="midnightblue" d="M67.6942,-202.807C82.4882,-211.225 101.721,-221.043 120,-227 145.148,-235.195 174.226,-240.089 198.208,-242.981"/>
<polygon fill="midnightblue" stroke="midnightblue" points="69.0678,-199.556 58.6681,-197.532 65.5358,-205.599 69.0678,-199.556"/>
</g>
<!-- Node21 -->
<g id="node54" class="node"><title>Node21</title>
<a xlink:href="../../df/d2e/cipassembly_8c.html#a92838d437910f316c6fd7b57cfda9e56" target="_top" xlink:title="Implementation of the SetAttributeSingle CIP service for Assembly Objects. Currently only supports At...">
<polygon fill="none" stroke="black" points="410.5,-116.5 410.5,-137.5 549.5,-137.5 549.5,-116.5 410.5,-116.5"/>
<text text-anchor="middle" x="480" y="-124.5" font-family="Helvetica,sans-Serif" font-size="10.00">SetAssemblyAttributeSingle</text>
</a>
</g>
<!-- Node1&#45;&gt;Node21 -->
<g id="edge66" class="edge"><title>Node1&#45;&gt;Node21</title>
<path fill="none" stroke="midnightblue" d="M66.2034,-171.233C81.0844,-162.412 100.903,-152.176 120,-147 218.177,-120.391 336.769,-119.504 410.3,-122.406"/>
<polygon fill="midnightblue" stroke="midnightblue" points="64.3271,-168.278 57.6265,-176.485 67.9824,-174.248 64.3271,-168.278"/>
</g>
<!-- Node22 -->
<g id="node57" class="node"><title>Node22</title>
<a xlink:href="../../dd/d34/cipqos_8c.html#a80f8dddb46d6119f9a76c0642c2519aa" target="_top" xlink:title="SetAttributeSingleQoS">
<polygon fill="none" stroke="black" points="422.5,-466.5 422.5,-487.5 537.5,-487.5 537.5,-466.5 422.5,-466.5"/>
<text text-anchor="middle" x="480" y="-474.5" font-family="Helvetica,sans-Serif" font-size="10.00">SetAttributeSingleQoS</text>
</a>
</g>
<!-- Node1&#45;&gt;Node22 -->
<g id="edge70" class="edge"><title>Node1&#45;&gt;Node22</title>
<path fill="none" stroke="midnightblue" d="M48.9538,-207.301C59.8935,-236.567 83.6918,-290.74 120,-324 210.262,-406.684 351.89,-448.783 427.802,-466.458"/>
<polygon fill="midnightblue" stroke="midnightblue" points="52.1882,-205.952 45.5058,-197.731 45.6026,-208.325 52.1882,-205.952"/>
</g>
<!-- Node23 -->
<g id="node60" class="node"><title>Node23</title>
<a xlink:href="../../dd/d20/ciptcpipinterface_8c.html#a811091b5f21066159f7a168504106f80" target="_top" xlink:title="SetAttributeSingleTcp">
<polygon fill="none" stroke="black" points="424,-506.5 424,-527.5 536,-527.5 536,-506.5 424,-506.5"/>
<text text-anchor="middle" x="480" y="-514.5" font-family="Helvetica,sans-Serif" font-size="10.00">SetAttributeSingleTcp</text>
</a>
</g>
<!-- Node1&#45;&gt;Node23 -->
<g id="edge74" class="edge"><title>Node1&#45;&gt;Node23</title>
<path fill="none" stroke="midnightblue" d="M43.6051,-207.68C48.007,-250.142 63.9834,-347.718 120,-402 203.988,-483.387 345.551,-507.19 423.792,-514.142"/>
<polygon fill="midnightblue" stroke="midnightblue" points="47.0871,-207.323 42.682,-197.687 40.1168,-207.967 47.0871,-207.323"/>
</g>
<!-- Node24 -->
<g id="node63" class="node"><title>Node24</title>
<a xlink:href="../../df/d03/cipioconnection_8c.html#a198846e6013a89a27816d2eae392b0cc" target="_top" xlink:title="SetupIoConnectionOriginatorToTargetConnectionPoint">
<polygon fill="none" stroke="black" points="120.5,-196.5 120.5,-217.5 373.5,-217.5 373.5,-196.5 120.5,-196.5"/>
<text text-anchor="middle" x="247" y="-204.5" font-family="Helvetica,sans-Serif" font-size="10.00">SetupIoConnectionOriginatorToTargetConnectionPoint</text>
</a>
</g>
<!-- Node1&#45;&gt;Node24 -->
<g id="edge78" class="edge"><title>Node1&#45;&gt;Node24</title>
<path fill="none" stroke="midnightblue" d="M94.6197,-192.134C108.315,-193.47 123.582,-194.959 139.015,-196.465"/>
<polygon fill="midnightblue" stroke="midnightblue" points="94.7688,-188.632 84.4761,-191.144 94.089,-195.599 94.7688,-188.632"/>
</g>
<!-- Node25 -->
<g id="node66" class="node"><title>Node25</title>
<a xlink:href="../../df/d03/cipioconnection_8c.html#a58143f4b37db19c4acac195032340b05" target="_top" xlink:title="SetupIoConnectionTargetToOriginatorConnectionPoint">
<polygon fill="none" stroke="black" points="120.5,-156.5 120.5,-177.5 373.5,-177.5 373.5,-156.5 120.5,-156.5"/>
<text text-anchor="middle" x="247" y="-164.5" font-family="Helvetica,sans-Serif" font-size="10.00">SetupIoConnectionTargetToOriginatorConnectionPoint</text>
</a>
</g>
<!-- Node1&#45;&gt;Node25 -->
<g id="edge82" class="edge"><title>Node1&#45;&gt;Node25</title>
<path fill="none" stroke="midnightblue" d="M94.6197,-181.866C108.315,-180.53 123.582,-179.041 139.015,-177.535"/>
<polygon fill="midnightblue" stroke="midnightblue" points="94.089,-178.401 84.4761,-182.856 94.7688,-185.368 94.089,-178.401"/>
</g>
<!-- Node26 -->
<g id="node69" class="node"><title>Node26</title>
<a xlink:href="../../de/df4/cipassembly_8h.html#adcacd62b6a866c5c74c3cdda19598b98" target="_top" xlink:title="clean up the data allocated in the assembly object instances">
<polygon fill="none" stroke="black" points="424.5,-76.5 424.5,-97.5 535.5,-97.5 535.5,-76.5 424.5,-76.5"/>
<text text-anchor="middle" x="480" y="-84.5" font-family="Helvetica,sans-Serif" font-size="10.00">ShutdownAssemblies</text>
</a>
</g>
<!-- Node1&#45;&gt;Node26 -->
<g id="edge86" class="edge"><title>Node1&#45;&gt;Node26</title>
<path fill="none" stroke="midnightblue" d="M56.5214,-168.395C70.7229,-151.728 93.9645,-128.231 120,-117 220.489,-73.6503 351.251,-75.4594 424.326,-81.0049"/>
<polygon fill="midnightblue" stroke="midnightblue" points="53.5981,-166.44 49.9521,-176.388 59.0058,-170.885 53.5981,-166.44"/>
</g>
<!-- Node3 -->
<g id="node5" class="node"><title>Node3</title>
<a xlink:href="../../dd/d4d/cipethernetlink_8h.html#ad6d2028b90ec96ad148d092a30acb7d6" target="_top" xlink:title="Initialize the Ethernet Link Objects data.">
<polygon fill="none" stroke="black" points="595,-314.5 595,-335.5 695,-335.5 695,-314.5 595,-314.5"/>
<text text-anchor="middle" x="645" y="-322.5" font-family="Helvetica,sans-Serif" font-size="10.00">CipEthernetLinkInit</text>
</a>
</g>
<!-- Node2&#45;&gt;Node3 -->
<g id="edge4" class="edge"><title>Node2&#45;&gt;Node3</title>
<path fill="none" stroke="midnightblue" d="M292.509,-317.201C324.944,-325.9 369.753,-336.489 410,-341 471.835,-347.93 487.994,-346.185 550,-341 564.667,-339.774 580.476,-337.5 594.909,-335.043"/>
<polygon fill="midnightblue" stroke="midnightblue" points="293.427,-313.823 282.859,-314.57 291.586,-320.577 293.427,-313.823"/>
</g>
<!-- Node6 -->
<g id="node11" class="node"><title>Node6</title>
<a xlink:href="../../dc/d72/cipidentity_8h.html#a5d5136e167300543aa046057b56ae813" target="_top" xlink:title="CIP Identity object constructor.">
<polygon fill="none" stroke="black" points="606.5,-274.5 606.5,-295.5 683.5,-295.5 683.5,-274.5 606.5,-274.5"/>
<text text-anchor="middle" x="645" y="-282.5" font-family="Helvetica,sans-Serif" font-size="10.00">CipIdentityInit</text>
</a>
</g>
<!-- Node2&#45;&gt;Node6 -->
<g id="edge10" class="edge"><title>Node2&#45;&gt;Node6</title>
<path fill="none" stroke="midnightblue" d="M305.213,-301.221C387.664,-297.285 536.213,-290.193 606.343,-286.845"/>
<polygon fill="midnightblue" stroke="midnightblue" points="304.83,-297.735 295.008,-301.708 305.164,-304.727 304.83,-297.735"/>
</g>
<!-- Node7 -->
<g id="node14" class="node"><title>Node7</title>
<a xlink:href="../../d2/d75/cipmessagerouter_8h.html#aa3456b75c1b2289296323b578fee2d3d" target="_top" xlink:title="Initialize the data structures of the message router.">
<polygon fill="none" stroke="black" points="588,-354.5 588,-375.5 702,-375.5 702,-354.5 588,-354.5"/>
<text text-anchor="middle" x="645" y="-362.5" font-family="Helvetica,sans-Serif" font-size="10.00">CipMessageRouterInit</text>
</a>
</g>
<!-- Node2&#45;&gt;Node7 -->
<g id="edge14" class="edge"><title>Node2&#45;&gt;Node7</title>
<path fill="none" stroke="midnightblue" d="M281.334,-318.291C313.835,-331.062 364.318,-348.961 410,-357 469.905,-367.542 539.685,-368.523 587.552,-367.501"/>
<polygon fill="midnightblue" stroke="midnightblue" points="282.435,-314.962 271.85,-314.509 279.842,-321.464 282.435,-314.962"/>
</g>
<!-- Node8 -->
<g id="node17" class="node"><title>Node8</title>
<a xlink:href="../../d2/da3/cipconnectionmanager_8h.html#a5ab0de6894d23e8fe84a6b46797c2212" target="_top" xlink:title="Initialize the data of the connection manager object.">
<polygon fill="none" stroke="black" points="586.5,-234.5 586.5,-255.5 703.5,-255.5 703.5,-234.5 586.5,-234.5"/>
<text text-anchor="middle" x="645" y="-242.5" font-family="Helvetica,sans-Serif" font-size="10.00">ConnectionManagerInit</text>
</a>
</g>
<!-- Node2&#45;&gt;Node8 -->
<g id="edge18" class="edge"><title>Node2&#45;&gt;Node8</title>
<path fill="none" stroke="midnightblue" d="M305.26,-295.363C380.59,-284.196 511.04,-264.858 586.491,-253.673"/>
<polygon fill="midnightblue" stroke="midnightblue" points="304.387,-291.955 295.008,-296.883 305.413,-298.879 304.387,-291.955"/>
</g>
<!-- Node9 -->
<g id="node20" class="node"><title>Node9</title>
<a xlink:href="../../df/d2e/cipassembly_8c.html#a5973ef42110a1bdf6c7699e35e04b7d4" target="_top" xlink:title="Constructor for the assembly object class.">
<polygon fill="none" stroke="black" points="587.5,-194.5 587.5,-215.5 702.5,-215.5 702.5,-194.5 587.5,-194.5"/>
<text text-anchor="middle" x="645" y="-202.5" font-family="Helvetica,sans-Serif" font-size="10.00">CreateAssemblyClass</text>
</a>
</g>
<!-- Node2&#45;&gt;Node9 -->
<g id="edge22" class="edge"><title>Node2&#45;&gt;Node9</title>
<path fill="none" stroke="midnightblue" d="M294.51,-290.625C318.422,-283.775 347.817,-275.175 374,-267 390.099,-261.974 393.726,-259.429 410,-255 469.769,-238.735 539.272,-224.516 587.104,-215.441"/>
<polygon fill="midnightblue" stroke="midnightblue" points="293.279,-287.337 284.623,-293.447 295.2,-294.068 293.279,-287.337"/>
</g>
<!-- Node13 -->
<g id="node29" class="node"><title>Node13</title>
<a xlink:href="../../d2/dc9/group__CIP__API.html#ga3dfa07bc40e59ba348d713272d1cbfdb" target="_top" xlink:title="Allocate memory for new CIP Class and attributes.">
<polygon fill="none" stroke="black" points="437,-310.5 437,-331.5 523,-331.5 523,-310.5 437,-310.5"/>
<text text-anchor="middle" x="480" y="-318.5" font-family="Helvetica,sans-Serif" font-size="10.00">CreateCipClass</text>
</a>
</g>
<!-- Node2&#45;&gt;Node13 -->
<g id="edge32" class="edge"><title>Node2&#45;&gt;Node13</title>
<path fill="none" stroke="midnightblue" d="M305.368,-308.259C346.215,-311.239 399.88,-315.154 436.884,-317.854"/>
<polygon fill="midnightblue" stroke="midnightblue" points="305.506,-304.759 295.278,-307.522 304.997,-311.741 305.506,-304.759"/>
</g>
<!-- Node16 -->
<g id="node42" class="node"><title>Node16</title>
<a xlink:href="../../dd/d34/cipqos_8c.html#aa58749a49dfadf249a11533f350ad420" target="_top" xlink:title="GetAttributeSingleQoS">
<polygon fill="none" stroke="black" points="422,-426.5 422,-447.5 538,-447.5 538,-426.5 422,-426.5"/>
<text text-anchor="middle" x="480" y="-434.5" font-family="Helvetica,sans-Serif" font-size="10.00">GetAttributeSingleQoS</text>
</a>
</g>
<!-- Node2&#45;&gt;Node16 -->
<g id="edge52" class="edge"><title>Node2&#45;&gt;Node16</title>
<path fill="none" stroke="midnightblue" d="M295.69,-317.819C320.951,-326.69 351.205,-340.132 374,-359 395.936,-377.157 387.48,-394.573 410,-412 417.96,-418.16 427.568,-422.887 437.081,-426.483"/>
<polygon fill="midnightblue" stroke="midnightblue" points="296.517,-314.404 285.923,-314.526 294.281,-321.037 296.517,-314.404"/>
</g>
<!-- Node4 -->
<g id="node7" class="node"><title>Node4</title>
<a xlink:href="../../d2/dc9/group__CIP__API.html#ga5d4979945d124e28668b264c3823db1c" target="_top" xlink:title="Initialize and setup the CIP&#45;stack.">
<polygon fill="none" stroke="black" points="916.5,-295.5 916.5,-316.5 987.5,-316.5 987.5,-295.5 916.5,-295.5"/>
<text text-anchor="middle" x="952" y="-303.5" font-family="Helvetica,sans-Serif" font-size="10.00">CipStackInit</text>
</a>
</g>
<!-- Node3&#45;&gt;Node4 -->
<g id="edge6" class="edge"><title>Node3&#45;&gt;Node4</title>
<path fill="none" stroke="midnightblue" d="M705.186,-321.275C768.087,-317.382 864.676,-311.404 916.396,-308.203"/>
<polygon fill="midnightblue" stroke="midnightblue" points="704.773,-317.794 695.008,-321.905 705.205,-324.781 704.773,-317.794"/>
</g>
<!-- Node5 -->
<g id="node9" class="node"><title>Node5</title>
<a xlink:href="../../d9/dfb/POSIX_2main_8c.html#ad338a7dbc41dc40bcecd0479377ef207" target="_top" xlink:title="main">
<polygon fill="none" stroke="black" points="1046,-204.5 1046,-225.5 1084,-225.5 1084,-204.5 1046,-204.5"/>
<text text-anchor="middle" x="1065" y="-212.5" font-family="Helvetica,sans-Serif" font-size="10.00">main</text>
</a>
</g>
<!-- Node4&#45;&gt;Node5 -->
<g id="edge8" class="edge"><title>Node4&#45;&gt;Node5</title>
<path fill="none" stroke="midnightblue" d="M973.286,-288.858C996.435,-270.216 1032.7,-241.012 1051.96,-225.501"/>
<polygon fill="midnightblue" stroke="midnightblue" points="971,-286.206 965.406,-295.204 975.39,-291.658 971,-286.206"/>
</g>
<!-- Node6&#45;&gt;Node4 -->
<g id="edge12" class="edge"><title>Node6&#45;&gt;Node4</title>
<path fill="none" stroke="midnightblue" d="M693.872,-288.343C755.84,-292.582 861.216,-299.79 916.204,-303.551"/>
<polygon fill="midnightblue" stroke="midnightblue" points="693.786,-284.829 683.571,-287.638 693.309,-291.813 693.786,-284.829"/>
</g>
<!-- Node7&#45;&gt;Node4 -->
<g id="edge16" class="edge"><title>Node7&#45;&gt;Node4</title>
<path fill="none" stroke="midnightblue" d="M712.283,-354.908C754.314,-348.288 809.479,-339.023 858,-329 877.415,-324.99 898.903,-319.79 916.429,-315.349"/>
<polygon fill="midnightblue" stroke="midnightblue" points="711.504,-351.488 702.165,-356.491 712.586,-358.403 711.504,-351.488"/>
</g>
<!-- Node8&#45;&gt;Node4 -->
<g id="edge20" class="edge"><title>Node8&#45;&gt;Node4</title>
<path fill="none" stroke="midnightblue" d="M708.742,-257.487C751.072,-265.799 807.87,-276.991 858,-287 877.266,-290.847 898.743,-295.184 916.299,-298.742"/>
<polygon fill="midnightblue" stroke="midnightblue" points="709.338,-254.037 698.851,-255.545 707.99,-260.906 709.338,-254.037"/>
</g>
<!-- Node10 -->
<g id="node22" class="node"><title>Node10</title>
<a xlink:href="../../de/df4/cipassembly_8h.html#a4dfbc2c7a8e9e77f05a0a7236210f5b4" target="_top" xlink:title="Setup the Assembly object.">
<polygon fill="none" stroke="black" points="743.5,-199.5 743.5,-220.5 854.5,-220.5 854.5,-199.5 743.5,-199.5"/>
<text text-anchor="middle" x="799" y="-207.5" font-family="Helvetica,sans-Serif" font-size="10.00">CipAssemblyInitialize</text>
</a>
</g>
<!-- Node9&#45;&gt;Node10 -->
<g id="edge24" class="edge"><title>Node9&#45;&gt;Node10</title>
<path fill="none" stroke="midnightblue" d="M712.894,-207.204C723.106,-207.536 733.534,-207.874 743.447,-208.196"/>
<polygon fill="midnightblue" stroke="midnightblue" points="712.89,-203.702 702.782,-206.876 712.663,-210.699 712.89,-203.702"/>
</g>
<!-- Node11 -->
<g id="node25" class="node"><title>Node11</title>
<a xlink:href="../../d2/dc9/group__CIP__API.html#gae61b613fed863d30428e78b2311bf593" target="_top" xlink:title="Create an instance of an assembly object.">
<polygon fill="none" stroke="black" points="740,-159.5 740,-180.5 858,-180.5 858,-159.5 740,-159.5"/>
<text text-anchor="middle" x="799" y="-167.5" font-family="Helvetica,sans-Serif" font-size="10.00">CreateAssemblyObject</text>
</a>
</g>
<!-- Node9&#45;&gt;Node11 -->
<g id="edge28" class="edge"><title>Node9&#45;&gt;Node11</title>
<path fill="none" stroke="midnightblue" d="M700.98,-192.277C717.916,-188.428 736.321,-184.245 752.562,-180.554"/>
<polygon fill="midnightblue" stroke="midnightblue" points="700.181,-188.87 691.205,-194.499 701.732,-195.696 700.181,-188.87"/>
</g>
<!-- Node10&#45;&gt;Node4 -->
<g id="edge26" class="edge"><title>Node10&#45;&gt;Node4</title>
<path fill="none" stroke="midnightblue" d="M837.321,-224.61C844.349,-227.743 851.51,-231.251 858,-235 889.522,-253.21 922.654,-280.422 939.917,-295.314"/>
<polygon fill="midnightblue" stroke="midnightblue" points="838.464,-221.293 827.893,-220.582 835.714,-227.73 838.464,-221.293"/>
</g>
<!-- Node12 -->
<g id="node27" class="node"><title>Node12</title>
<a xlink:href="../../d5/dc5/group__CIP__CALLBACK__API.html#gae93106eb1647bff3ad56a7752799d878" target="_top" xlink:title="Callback for the application initialization.">
<polygon fill="none" stroke="black" points="894,-159.5 894,-180.5 1010,-180.5 1010,-159.5 894,-159.5"/>
<text text-anchor="middle" x="952" y="-167.5" font-family="Helvetica,sans-Serif" font-size="10.00">ApplicationInitialization</text>
</a>
</g>
<!-- Node11&#45;&gt;Node12 -->
<g id="edge30" class="edge"><title>Node11&#45;&gt;Node12</title>
<path fill="none" stroke="midnightblue" d="M868.405,-170C876.879,-170 885.471,-170 893.759,-170"/>
<polygon fill="midnightblue" stroke="midnightblue" points="868.154,-166.5 858.154,-170 868.154,-173.5 868.154,-166.5"/>
</g>
<!-- Node13&#45;&gt;Node3 -->
<g id="edge34" class="edge"><title>Node13&#45;&gt;Node3</title>
<path fill="none" stroke="midnightblue" d="M533.421,-322.295C553.176,-322.774 575.481,-323.315 594.928,-323.786"/>
<polygon fill="midnightblue" stroke="midnightblue" points="533.434,-318.794 523.352,-322.051 533.264,-325.792 533.434,-318.794"/>
</g>
<!-- Node13&#45;&gt;Node6 -->
<g id="edge36" class="edge"><title>Node13&#45;&gt;Node6</title>
<path fill="none" stroke="midnightblue" d="M533.303,-309.37C557.119,-304.174 584.662,-298.165 606.439,-293.413"/>
<polygon fill="midnightblue" stroke="midnightblue" points="532.376,-305.99 523.352,-311.541 533.868,-312.829 532.376,-305.99"/>
</g>
<!-- Node13&#45;&gt;Node7 -->
<g id="edge38" class="edge"><title>Node13&#45;&gt;Node7</title>
<path fill="none" stroke="midnightblue" d="M529.297,-334.146C553.654,-340.641 582.646,-348.372 605.515,-354.471"/>
<polygon fill="midnightblue" stroke="midnightblue" points="530.086,-330.734 519.522,-331.539 528.282,-337.498 530.086,-330.734"/>
</g>
<!-- Node13&#45;&gt;Node8 -->
<g id="edge48" class="edge"><title>Node13&#45;&gt;Node8</title>
<path fill="none" stroke="midnightblue" d="M506.663,-305.391C527.757,-293.419 558.189,-276.97 586,-265 593.948,-261.579 602.69,-258.344 610.954,-255.511"/>
<polygon fill="midnightblue" stroke="midnightblue" points="504.887,-302.375 497.951,-310.383 508.367,-308.448 504.887,-302.375"/>
</g>
<!-- Node13&#45;&gt;Node9 -->
<g id="edge50" class="edge"><title>Node13&#45;&gt;Node9</title>
<path fill="none" stroke="midnightblue" d="M496.004,-302.495C515.374,-281.13 549.908,-246.214 586,-225 592.247,-221.328 599.266,-218.208 606.224,-215.603"/>
<polygon fill="midnightblue" stroke="midnightblue" points="493.159,-300.427 489.124,-310.223 498.387,-305.082 493.159,-300.427"/>
</g>
<!-- Node14 -->
<g id="node34" class="node"><title>Node14</title>
<a xlink:href="../../d0/d3c/cipqos_8h.html#ab9a656060dcf03c3f51dbd967dff3f52" target="_top" xlink:title="CipQoSInit">
<polygon fill="none" stroke="black" points="612.5,-394.5 612.5,-415.5 677.5,-415.5 677.5,-394.5 612.5,-394.5"/>
<text text-anchor="middle" x="645" y="-402.5" font-family="Helvetica,sans-Serif" font-size="10.00">CipQoSInit</text>
</a>
</g>
<!-- Node13&#45;&gt;Node14 -->
<g id="edge40" class="edge"><title>Node13&#45;&gt;Node14</title>
<path fill="none" stroke="midnightblue" d="M503.775,-337.406C524.735,-351.362 556.452,-371.269 586,-385 594.337,-388.874 603.642,-392.381 612.353,-395.336"/>
<polygon fill="midnightblue" stroke="midnightblue" points="505.468,-334.326 495.219,-331.641 501.556,-340.131 505.468,-334.326"/>
</g>
<!-- Node15 -->
<g id="node37" class="node"><title>Node15</title>
<a xlink:href="../../d1/dad/ciptcpipinterface_8h.html#a4c1f49654e48c5581513d990840933b0" target="_top" xlink:title="Initializing the data structures of the TCP/IP interface object.">
<polygon fill="none" stroke="black" points="591,-434.5 591,-455.5 699,-455.5 699,-434.5 591,-434.5"/>
<text text-anchor="middle" x="645" y="-442.5" font-family="Helvetica,sans-Serif" font-size="10.00">CipTcpIpInterfaceInit</text>
</a>
</g>
<!-- Node13&#45;&gt;Node15 -->
<g id="edge44" class="edge"><title>Node13&#45;&gt;Node15</title>
<path fill="none" stroke="midnightblue" d="M494.54,-339.731C513.352,-362.798 548.222,-401.768 586,-425 592.081,-428.739 598.947,-431.88 605.791,-434.482"/>
<polygon fill="midnightblue" stroke="midnightblue" points="497.124,-337.358 488.144,-331.735 491.657,-341.731 497.124,-337.358"/>
</g>
<!-- Node14&#45;&gt;Node4 -->
<g id="edge42" class="edge"><title>Node14&#45;&gt;Node4</title>
<path fill="none" stroke="midnightblue" d="M687.763,-397.492C731.375,-389.159 800.598,-374.054 858,-353 885.408,-342.947 915.275,-327.101 933.82,-316.63"/>
<polygon fill="midnightblue" stroke="midnightblue" points="686.97,-394.08 677.787,-399.365 688.262,-400.959 686.97,-394.08"/>
</g>
<!-- Node15&#45;&gt;Node4 -->
<g id="edge46" class="edge"><title>Node15&#45;&gt;Node4</title>
<path fill="none" stroke="midnightblue" d="M709.291,-433.364C752.949,-423.796 811.054,-407.727 858,-383 892.344,-364.911 925.879,-333.047 942.026,-316.554"/>
<polygon fill="midnightblue" stroke="midnightblue" points="708.414,-429.973 699.365,-435.483 709.875,-436.819 708.414,-429.973"/>
</g>
<!-- Node16&#45;&gt;Node14 -->
<g id="edge54" class="edge"><title>Node16&#45;&gt;Node14</title>
<path fill="none" stroke="midnightblue" d="M544.611,-424.469C567.771,-419.978 592.907,-415.103 612.233,-411.355"/>
<polygon fill="midnightblue" stroke="midnightblue" points="543.635,-421.093 534.484,-426.433 544.968,-427.965 543.635,-421.093"/>
</g>
<!-- Node20 -->
<g id="node51" class="node"><title>Node20</title>
<a xlink:href="../../de/d45/cipioconnection_8h.html#a699fccd3dabdfec1b77560f22268c1e8" target="_top" xlink:title="Setup all data in order to establish an IO connection.">
<polygon fill="none" stroke="black" points="422.5,-156.5 422.5,-177.5 537.5,-177.5 537.5,-156.5 422.5,-156.5"/>
<text text-anchor="middle" x="480" y="-164.5" font-family="Helvetica,sans-Serif" font-size="10.00">EstablishIoConnection</text>
</a>
</g>
<!-- Node19&#45;&gt;Node20 -->
<g id="edge62" class="edge"><title>Node19&#45;&gt;Node20</title>
<path fill="none" stroke="midnightblue" d="M305.598,-245.271C327.941,-242.725 353.053,-237.476 374,-227 393.958,-217.018 391.06,-203.8 410,-192 419.529,-186.063 430.666,-181.274 441.217,-177.539"/>
<polygon fill="midnightblue" stroke="midnightblue" points="305.161,-241.797 295.552,-246.259 305.847,-248.763 305.161,-241.797"/>
</g>
<!-- Node20&#45;&gt;Node8 -->
<g id="edge64" class="edge"><title>Node20&#45;&gt;Node8</title>
<path fill="none" stroke="midnightblue" d="M505.837,-182.793C526.915,-195.268 557.724,-212.584 586,-225 593.823,-228.435 602.437,-231.655 610.608,-234.465"/>
<polygon fill="midnightblue" stroke="midnightblue" points="507.538,-179.732 497.159,-177.604 503.946,-185.74 507.538,-179.732"/>
</g>
<!-- Node21&#45;&gt;Node9 -->
<g id="edge68" class="edge"><title>Node21&#45;&gt;Node9</title>
<path fill="none" stroke="midnightblue" d="M533.889,-140.788C539.404,-142.676 544.863,-144.748 550,-147 580.263,-160.269 612.484,-181.69 630.544,-194.452"/>
<polygon fill="midnightblue" stroke="midnightblue" points="534.549,-137.324 523.958,-137.593 532.405,-143.988 534.549,-137.324"/>
</g>
<!-- Node22&#45;&gt;Node14 -->
<g id="edge72" class="edge"><title>Node22&#45;&gt;Node14</title>
<path fill="none" stroke="midnightblue" d="M537.458,-462.907C541.799,-461.145 546.03,-459.182 550,-457 568.761,-446.69 567.494,-435.762 586,-425 594.134,-420.27 603.554,-416.445 612.446,-413.456"/>
<polygon fill="midnightblue" stroke="midnightblue" points="536.012,-459.71 527.839,-466.453 538.433,-466.278 536.012,-459.71"/>
</g>
<!-- Node23&#45;&gt;Node15 -->
<g id="edge76" class="edge"><title>Node23&#45;&gt;Node15</title>
<path fill="none" stroke="midnightblue" d="M532.648,-503.336C538.567,-501.394 544.457,-499.276 550,-497 578.699,-485.218 609.868,-467.022 628.401,-455.574"/>
<polygon fill="midnightblue" stroke="midnightblue" points="531.22,-500.115 522.715,-506.433 533.304,-506.797 531.22,-500.115"/>
</g>
<!-- Node24&#45;&gt;Node20 -->
<g id="edge80" class="edge"><title>Node24&#45;&gt;Node20</title>
<path fill="none" stroke="midnightblue" d="M326.51,-194.858C342.262,-192.345 358.665,-189.654 374,-187 390.885,-184.078 409.241,-180.69 425.86,-177.542"/>
<polygon fill="midnightblue" stroke="midnightblue" points="325.6,-191.458 316.271,-196.481 326.696,-198.372 325.6,-191.458"/>
</g>
<!-- Node25&#45;&gt;Node20 -->
<g id="edge84" class="edge"><title>Node25&#45;&gt;Node20</title>
<path fill="none" stroke="midnightblue" d="M384.021,-167C397.402,-167 410.411,-167 422.31,-167"/>
<polygon fill="midnightblue" stroke="midnightblue" points="383.728,-163.5 373.728,-167 383.728,-170.5 383.728,-163.5"/>
</g>
<!-- Node27 -->
<g id="node71" class="node"><title>Node27</title>
<a xlink:href="../../d2/dc9/group__CIP__API.html#gaa57b527530adc2acda6febc500fd6831" target="_top" xlink:title="Shutdown of the CIP stack.">
<polygon fill="none" stroke="black" points="748.5,-108.5 748.5,-129.5 849.5,-129.5 849.5,-108.5 748.5,-108.5"/>
<text text-anchor="middle" x="799" y="-116.5" font-family="Helvetica,sans-Serif" font-size="10.00">ShutdownCipStack</text>
</a>
</g>
<!-- Node26&#45;&gt;Node27 -->
<g id="edge88" class="edge"><title>Node26&#45;&gt;Node27</title>
<path fill="none" stroke="midnightblue" d="M545.706,-93.5912C605.793,-99.6187 693.426,-108.409 748.277,-113.912"/>
<polygon fill="midnightblue" stroke="midnightblue" points="545.865,-90.0897 535.566,-92.574 545.166,-97.0547 545.865,-90.0897"/>
</g>
<!-- Node27&#45;&gt;Node5 -->
<g id="edge90" class="edge"><title>Node27&#45;&gt;Node5</title>
<path fill="none" stroke="midnightblue" d="M859.973,-116.775C904.197,-117.723 964.062,-124.472 1010,-150 1033,-162.781 1050.61,-189.213 1059.2,-204.134"/>
<polygon fill="midnightblue" stroke="midnightblue" points="859.979,-113.275 849.937,-116.654 859.894,-120.275 859.979,-113.275"/>
</g>
</g>
</svg>
        <g id="navigator" transform="translate(0 0)" fill="#404254">
                <rect fill="#f2f5e9" fill-opacity="0.5" stroke="#606060" stroke-width=".5" x="0" y="0" width="60" height="60"/>
                <use id="zoomplus" xlink:href="#zoomPlus" x="17" y="9" onmousedown="handleZoom(evt,'in')"/>
                <use id="zoomminus" xlink:href="#zoomMin" x="42" y="9" onmousedown="handleZoom(evt,'out')"/>
                <use id="reset" xlink:href="#resetDef" x="30" y="36" onmousedown="handleReset()"/>
                <g id="arrowUp" xlink:href="#dirArrow" transform="translate(30 24)" onmousedown="handlePan(0,-1)">
                  <use xlink:href="#rim" fill="#404040">
                        <set attributeName="fill" to="#808080" begin="arrowUp.mouseover" end="arrowUp.mouseout"/>
                  </use>
                  <path fill="none" stroke="white" stroke-width="1.5" d="M0,-3.0v7 M-2.5,-0.5L0,-3.0L2.5,-0.5"/>
                </g>
                <g id="arrowRight" xlink:href="#dirArrow" transform="rotate(90) translate(36 -43)" onmousedown="handlePan(1,0)">
                  <use xlink:href="#rim" fill="#404040">
                        <set attributeName="fill" to="#808080" begin="arrowRight.mouseover" end="arrowRight.mouseout"/>
                  </use>
                  <path fill="none" stroke="white" stroke-width="1.5" d="M0,-3.0v7 M-2.5,-0.5L0,-3.0L2.5,-0.5"/>
                </g>
                <g id="arrowDown" xlink:href="#dirArrow" transform="rotate(180) translate(-30 -48)" onmousedown="handlePan(0,1)">
                  <use xlink:href="#rim" fill="#404040">
                        <set attributeName="fill" to="#808080" begin="arrowDown.mouseover" end="arrowDown.mouseout"/>
                  </use>
                  <path fill="none" stroke="white" stroke-width="1.5" d="M0,-3.0v7 M-2.5,-0.5L0,-3.0L2.5,-0.5"/>
                </g>
                <g id="arrowLeft" xlink:href="#dirArrow" transform="rotate(270) translate(-36 17)" onmousedown="handlePan(-1,0)">
                  <use xlink:href="#rim" fill="#404040">
                        <set attributeName="fill" to="#808080" begin="arrowLeft.mouseover" end="arrowLeft.mouseout"/>
                  </use>
                  <path fill="none" stroke="white" stroke-width="1.5" d="M0,-3.0v7 M-2.5,-0.5L0,-3.0L2.5,-0.5"/>
                </g>
        </g>
</svg>
