<?xml version="1.0" encoding="UTF-8" standalone="no"?>
<!DOCTYPE svg PUBLIC "-//W3C//DTD SVG 1.1//EN"
 "http://www.w3.org/Graphics/SVG/1.1/DTD/svg11.dtd">
<!-- Generated by graphviz version 2.38.0 (20140413.2041)
 -->
<!-- Title: createCIPClass Pages: 1 -->
<svg width="603pt" height="281pt"
 viewBox="0.00 0.00 603.00 280.88" xmlns="http://www.w3.org/2000/svg" xmlns:xlink="http://www.w3.org/1999/xlink">
<g id="graph0" class="graph" transform="scale(1 1) rotate(0) translate(4 276.878)">
<title>createCIPClass</title>
<!-- Node1 -->
<g id="node1" class="node"><title>Node1</title>
<polygon fill="#bfbfbf" stroke="black" points="0,-133.5 0,-152.5 86,-152.5 86,-133.5 0,-133.5"/>
<text text-anchor="middle" x="43" y="-140.5" font-family="Helvetica,sans-Serif" font-size="10.00">createCIPClass</text>
</g>
<!-- Node2 -->
<g id="node2" class="node"><title>Node2</title>
<g id="a_node2"><a xlink:href="../../d2/dc9/group__CIP__API.html#ga3b456f395f03608f51c592e2415e30b3" target="_top" xlink:title="Add a number of CIP instances to a given CIP class. ">
<polygon fill="none" stroke="black" points="123,-152.5 123,-171.5 215,-171.5 215,-152.5 123,-152.5"/>
<text text-anchor="middle" x="169" y="-159.5" font-family="Helvetica,sans-Serif" font-size="10.00">addCIPInstances</text>
</a>
</g>
</g>
<!-- Node1&#45;&gt;Node2 -->
<g id="edge1" class="edge"><title>Node1&#45;&gt;Node2</title>
<path fill="none" stroke="midnightblue" d="M86.3269,-149.486C94.8908,-150.798 104.013,-152.196 112.941,-153.564"/>
<polygon fill="midnightblue" stroke="midnightblue" points="112.484,-157.034 122.899,-155.089 113.544,-150.115 112.484,-157.034"/>
</g>
<!-- Node3 -->
<g id="node3" class="node"><title>Node3</title>
<g id="a_node3"><a xlink:href="../../d5/dc5/group__CIP__CALLBACK__API.html#ga17e4fa1e0e37455d4f3a9599fb323c0d" target="_top" xlink:title="Allocate memory for the cip stack. ">
<polygon fill="none" stroke="black" points="288.5,-228.5 288.5,-247.5 373.5,-247.5 373.5,-228.5 288.5,-228.5"/>
<text text-anchor="middle" x="331" y="-235.5" font-family="Helvetica,sans-Serif" font-size="10.00">IApp_CipCalloc</text>
</a>
</g>
</g>
<!-- Node1&#45;&gt;Node3 -->
<g id="edge15" class="edge"><title>Node1&#45;&gt;Node3</title>
<path fill="none" stroke="midnightblue" d="M47.1086,-152.715C55.1246,-175.913 78.9413,-234.288 122,-257 178.416,-286.757 255.504,-266.652 298.222,-251.157"/>
<polygon fill="midnightblue" stroke="midnightblue" points="299.68,-254.347 307.804,-247.547 297.213,-247.797 299.68,-254.347"/>
</g>
<!-- Node4 -->
<g id="node4" class="node"><title>Node4</title>
<g id="a_node4"><a xlink:href="../../d2/d3d/cipcommon_8c.html#a8160c94398cfbb8129e92374d8f782aa" target="_top" xlink:title="Generic implementation of the GetAttributeAll CIP service. ">
<polygon fill="none" stroke="black" points="130,-190.5 130,-209.5 208,-209.5 208,-190.5 130,-190.5"/>
<text text-anchor="middle" x="169" y="-197.5" font-family="Helvetica,sans-Serif" font-size="10.00">getAttributeAll</text>
</a>
</g>
</g>
<!-- Node1&#45;&gt;Node4 -->
<g id="edge3" class="edge"><title>Node1&#45;&gt;Node4</title>
<path fill="none" stroke="midnightblue" d="M62.76,-152.543C78.4647,-160.434 101.53,-171.797 122,-181 126.1,-182.844 130.434,-184.723 134.737,-186.547"/>
<polygon fill="midnightblue" stroke="midnightblue" points="133.429,-189.793 144.005,-190.416 136.126,-183.333 133.429,-189.793"/>
</g>
<!-- Node5 -->
<g id="node5" class="node"><title>Node5</title>
<g id="a_node5"><a xlink:href="../../d2/d3d/cipcommon_8c.html#aa0b39dfa2863eebb4fcdba0c4dcc2e9c" target="_top" xlink:title="Generic implementation of the GetAttributeSingle CIP service. ">
<polygon fill="none" stroke="black" points="122,-114.5 122,-133.5 216,-133.5 216,-114.5 122,-114.5"/>
<text text-anchor="middle" x="169" y="-121.5" font-family="Helvetica,sans-Serif" font-size="10.00">getAttributeSingle</text>
</a>
</g>
</g>
<!-- Node1&#45;&gt;Node5 -->
<g id="edge4" class="edge"><title>Node1&#45;&gt;Node5</title>
<path fill="none" stroke="midnightblue" d="M86.3269,-136.514C94.4962,-135.263 103.174,-133.933 111.706,-132.626"/>
<polygon fill="midnightblue" stroke="midnightblue" points="112.262,-136.081 121.616,-131.107 111.201,-129.162 112.262,-136.081"/>
</g>
<!-- Node12 -->
<g id="node12" class="node"><title>Node12</title>
<g id="a_node12"><a xlink:href="../../d2/dc9/group__CIP__API.html#ga1db1e5dc1fc04ac40a02f4f4ca550aa1" target="_top" xlink:title="Get a pointer to a CIP object with given class code. ">
<polygon fill="none" stroke="black" points="132.5,-0.5 132.5,-19.5 205.5,-19.5 205.5,-0.5 132.5,-0.5"/>
<text text-anchor="middle" x="169" y="-7.5" font-family="Helvetica,sans-Serif" font-size="10.00">getCIPClass</text>
</a>
</g>
</g>
<!-- Node1&#45;&gt;Node12 -->
<g id="edge13" class="edge"><title>Node1&#45;&gt;Node12</title>
<path fill="none" stroke="midnightblue" d="M48.2159,-133.357C58.0926,-111.794 84.743,-59.2037 122,-29 123.997,-27.3812 126.151,-25.8821 128.398,-24.4966"/>
<polygon fill="midnightblue" stroke="midnightblue" points="130.216,-27.494 137.397,-19.704 126.925,-21.3156 130.216,-27.494"/>
</g>
<!-- Node14 -->
<g id="node14" class="node"><title>Node14</title>
<g id="a_node14"><a xlink:href="../../d2/dc9/group__CIP__API.html#gaaf0d193e855cb7716c1fb32658e81b9a" target="_top" xlink:title="Insert an attribute in an instance of a CIP class. ">
<polygon fill="none" stroke="black" points="130.5,-76.5 130.5,-95.5 207.5,-95.5 207.5,-76.5 130.5,-76.5"/>
<text text-anchor="middle" x="169" y="-83.5" font-family="Helvetica,sans-Serif" font-size="10.00">insertAttribute</text>
</a>
</g>
</g>
<!-- Node1&#45;&gt;Node14 -->
<g id="edge16" class="edge"><title>Node1&#45;&gt;Node14</title>
<path fill="none" stroke="midnightblue" d="M62.76,-133.457C78.4647,-125.566 101.53,-114.203 122,-105 126.1,-103.156 130.434,-101.277 134.737,-99.4535"/>
<polygon fill="midnightblue" stroke="midnightblue" points="136.126,-102.667 144.005,-95.5838 133.429,-96.207 136.126,-102.667"/>
</g>
<!-- Node15 -->
<g id="node15" class="node"><title>Node15</title>
<g id="a_node15"><a xlink:href="../../d2/dc9/group__CIP__API.html#ga2da7a0d6cc8e11fbbca76ca159fdcf97" target="_top" xlink:title="Insert a service in an instance of a CIP object. ">
<polygon fill="none" stroke="black" points="132,-38.5 132,-57.5 206,-57.5 206,-38.5 132,-38.5"/>
<text text-anchor="middle" x="169" y="-45.5" font-family="Helvetica,sans-Serif" font-size="10.00">insertService</text>
</a>
</g>
</g>
<!-- Node1&#45;&gt;Node15 -->
<g id="edge17" class="edge"><title>Node1&#45;&gt;Node15</title>
<path fill="none" stroke="midnightblue" d="M51.7172,-133.397C64.7593,-117.692 92.624,-86.3327 122,-67 124.743,-65.195 127.685,-63.5072 130.707,-61.9416"/>
<polygon fill="midnightblue" stroke="midnightblue" points="132.335,-65.0433 139.891,-57.6163 129.353,-58.7103 132.335,-65.0433"/>
</g>
<!-- Node16 -->
<g id="node16" class="node"><title>Node16</title>
<g id="a_node16"><a xlink:href="../../d9/d7d/cipmessagerouter_8c.html#ac2a31f91abe28c7ddd75192df2d250da" target="_top" xlink:title="registerClass">
<polygon fill="none" stroke="black" points="132,-228.5 132,-247.5 206,-247.5 206,-228.5 132,-228.5"/>
<text text-anchor="middle" x="169" y="-235.5" font-family="Helvetica,sans-Serif" font-size="10.00">registerClass</text>
</a>
</g>
</g>
<!-- Node1&#45;&gt;Node16 -->
<g id="edge18" class="edge"><title>Node1&#45;&gt;Node16</title>
<path fill="none" stroke="midnightblue" d="M51.7172,-152.603C64.7593,-168.308 92.624,-199.667 122,-219 124.743,-220.805 127.685,-222.493 130.707,-224.058"/>
<polygon fill="midnightblue" stroke="midnightblue" points="129.353,-227.29 139.891,-228.384 132.335,-220.957 129.353,-227.29"/>
</g>
<!-- Node2&#45;&gt;Node3 -->
<g id="edge2" class="edge"><title>Node2&#45;&gt;Node3</title>
<path fill="none" stroke="midnightblue" d="M194.015,-171.538C201.138,-174.469 208.924,-177.775 216,-181 245.95,-194.652 279.584,-211.683 302.509,-223.558"/>
<polygon fill="midnightblue" stroke="midnightblue" points="301.15,-226.796 311.637,-228.306 304.381,-220.586 301.15,-226.796"/>
</g>
<!-- Node6 -->
<g id="node6" class="node"><title>Node6</title>
<g id="a_node6"><a xlink:href="../../d2/dc9/group__CIP__API.html#ga47c242c4c952714d8c76a2af1da76702" target="_top" xlink:title="Produce the data according to CIP encoding onto the message buffer. ">
<polygon fill="none" stroke="black" points="296.5,-58.5 296.5,-77.5 365.5,-77.5 365.5,-58.5 296.5,-58.5"/>
<text text-anchor="middle" x="331" y="-65.5" font-family="Helvetica,sans-Serif" font-size="10.00">encodeData</text>
</a>
</g>
</g>
<!-- Node5&#45;&gt;Node6 -->
<g id="edge5" class="edge"><title>Node5&#45;&gt;Node6</title>
<path fill="none" stroke="midnightblue" d="M197.505,-114.373C223.88,-105.142 263.885,-91.1402 293.036,-80.9375"/>
<polygon fill="midnightblue" stroke="midnightblue" points="294.572,-84.1082 302.854,-77.5011 292.259,-77.5012 294.572,-84.1082"/>
</g>
<!-- Node10 -->
<g id="node10" class="node"><title>Node10</title>
<g id="a_node10"><a xlink:href="../../d2/dc9/group__CIP__API.html#ga33fda1920669c922471cb6218c8b22b8" target="_top" xlink:title="Get a pointer to an instance&#39;s attribute. ">
<polygon fill="none" stroke="black" points="297.5,-152.5 297.5,-171.5 364.5,-171.5 364.5,-152.5 297.5,-152.5"/>
<text text-anchor="middle" x="331" y="-159.5" font-family="Helvetica,sans-Serif" font-size="10.00">getAttribute</text>
</a>
</g>
</g>
<!-- Node5&#45;&gt;Node10 -->
<g id="edge11" class="edge"><title>Node5&#45;&gt;Node10</title>
<path fill="none" stroke="midnightblue" d="M210.375,-133.589C233.947,-139.187 263.659,-146.244 287.575,-151.924"/>
<polygon fill="midnightblue" stroke="midnightblue" points="286.897,-155.36 297.435,-154.266 288.514,-148.55 286.897,-155.36"/>
</g>
<!-- Node11 -->
<g id="node11" class="node"><title>Node11</title>
<g id="a_node11"><a xlink:href="../../d5/dc5/group__CIP__CALLBACK__API.html#ga88bb762476768e89925e4d8b3e27fdc4" target="_top" xlink:title="Inform the application that the data of an assembly object will be sent. ">
<polygon fill="none" stroke="black" points="252,-114.5 252,-133.5 410,-133.5 410,-114.5 252,-114.5"/>
<text text-anchor="middle" x="331" y="-121.5" font-family="Helvetica,sans-Serif" font-size="10.00">IApp_BeforeAssemblyDataSend</text>
</a>
</g>
</g>
<!-- Node5&#45;&gt;Node11 -->
<g id="edge12" class="edge"><title>Node5&#45;&gt;Node11</title>
<path fill="none" stroke="midnightblue" d="M216.279,-124C224.305,-124 232.886,-124 241.602,-124"/>
<polygon fill="midnightblue" stroke="midnightblue" points="241.869,-127.5 251.869,-124 241.869,-120.5 241.869,-127.5"/>
</g>
<!-- Node6&#45;&gt;Node6 -->
<g id="edge10" class="edge"><title>Node6&#45;&gt;Node6</title>
<path fill="none" stroke="midnightblue" d="M307.572,-77.7571C296.175,-86.5653 303.984,-96 331,-96 348.729,-96 358.186,-91.9368 359.372,-86.6539"/>
<polygon fill="midnightblue" stroke="midnightblue" points="362.345,-84.7974 354.428,-77.7571 356.226,-88.1981 362.345,-84.7974"/>
</g>
<!-- Node7 -->
<g id="node7" class="node"><title>Node7</title>
<g id="a_node7"><a xlink:href="../../d4/d91/group__ENCAP.html#ga738d386bb3919d75bb14dcb40ca5389f" target="_top" xlink:title="converts UINT16 data from host to little endian an writes it to pa_buf. ">
<polygon fill="none" stroke="black" points="557,-58.5 557,-77.5 595,-77.5 595,-58.5 557,-58.5"/>
<text text-anchor="middle" x="576" y="-65.5" font-family="Helvetica,sans-Serif" font-size="10.00">htols</text>
</a>
</g>
</g>
<!-- Node6&#45;&gt;Node7 -->
<g id="edge6" class="edge"><title>Node6&#45;&gt;Node7</title>
<path fill="none" stroke="midnightblue" d="M365.646,-59.1889C403.589,-50.5087 467.038,-39.7836 521,-49 529.776,-50.4988 539.021,-53.2751 547.334,-56.2513"/>
<polygon fill="midnightblue" stroke="midnightblue" points="546.326,-59.6126 556.917,-59.9083 548.822,-53.0727 546.326,-59.6126"/>
</g>
<!-- Node8 -->
<g id="node8" class="node"><title>Node8</title>
<g id="a_node8"><a xlink:href="../../d4/d91/group__ENCAP.html#gaa00e394da5cd80135cdab7d4f3d88819" target="_top" xlink:title="Converts UINT32 data from host to little endian and writes it to pa_buf. ">
<polygon fill="none" stroke="black" points="466,-58.5 466,-77.5 501,-77.5 501,-58.5 466,-58.5"/>
<text text-anchor="middle" x="483.5" y="-65.5" font-family="Helvetica,sans-Serif" font-size="10.00">htoll</text>
</a>
</g>
</g>
<!-- Node6&#45;&gt;Node8 -->
<g id="edge7" class="edge"><title>Node6&#45;&gt;Node8</title>
<path fill="none" stroke="midnightblue" d="M365.775,-68C392.953,-68 430.627,-68 455.744,-68"/>
<polygon fill="midnightblue" stroke="midnightblue" points="455.995,-71.5001 465.995,-68 455.995,-64.5001 455.995,-71.5001"/>
</g>
<!-- Node9 -->
<g id="node9" class="node"><title>Node9</title>
<g id="a_node9"><a xlink:href="../../d2/d3d/cipcommon_8c.html#a77a31efaf2b18f8ed02cf820bcdab4f8" target="_top" xlink:title="encodeEPath">
<polygon fill="none" stroke="black" points="446,-96.5 446,-115.5 521,-115.5 521,-96.5 446,-96.5"/>
<text text-anchor="middle" x="483.5" y="-103.5" font-family="Helvetica,sans-Serif" font-size="10.00">encodeEPath</text>
</a>
</g>
</g>
<!-- Node6&#45;&gt;Node9 -->
<g id="edge8" class="edge"><title>Node6&#45;&gt;Node9</title>
<path fill="none" stroke="midnightblue" d="M365.775,-76.5279C386.536,-81.7698 413.421,-88.5582 436.156,-94.2985"/>
<polygon fill="midnightblue" stroke="midnightblue" points="435.39,-97.715 445.943,-96.7696 437.104,-90.928 435.39,-97.715"/>
</g>
<!-- Node9&#45;&gt;Node7 -->
<g id="edge9" class="edge"><title>Node9&#45;&gt;Node7</title>
<path fill="none" stroke="midnightblue" d="M507.337,-96.411C519.521,-91.295 534.606,-84.961 547.438,-79.5729"/>
<polygon fill="midnightblue" stroke="midnightblue" points="548.862,-82.7713 556.727,-75.6727 546.152,-76.3172 548.862,-82.7713"/>
</g>
<!-- Node13 -->
<g id="node13" class="node"><title>Node13</title>
<g id="a_node13"><a xlink:href="../../d9/d7d/cipmessagerouter_8c.html#a64741101a3f7edd3d30c645d7d80374b" target="_top" xlink:title="getRegisteredObject">
<polygon fill="none" stroke="black" points="278,-0.5 278,-19.5 384,-19.5 384,-0.5 278,-0.5"/>
<text text-anchor="middle" x="331" y="-7.5" font-family="Helvetica,sans-Serif" font-size="10.00">getRegisteredObject</text>
</a>
</g>
</g>
<!-- Node12&#45;&gt;Node13 -->
<g id="edge14" class="edge"><title>Node12&#45;&gt;Node13</title>
<path fill="none" stroke="midnightblue" d="M205.509,-10C223.786,-10 246.604,-10 267.696,-10"/>
<polygon fill="midnightblue" stroke="midnightblue" points="267.883,-13.5001 277.883,-10 267.883,-6.5001 267.883,-13.5001"/>
</g>
<!-- Node16&#45;&gt;Node3 -->
<g id="edge19" class="edge"><title>Node16&#45;&gt;Node3</title>
<path fill="none" stroke="midnightblue" d="M206.306,-238C227.59,-238 254.826,-238 278.32,-238"/>
<polygon fill="midnightblue" stroke="midnightblue" points="278.472,-241.5 288.472,-238 278.472,-234.5 278.472,-241.5"/>
</g>
</g>
</svg>
