<?xml version="1.0" encoding="UTF-8" standalone="no"?>
<!DOCTYPE svg PUBLIC "-//W3C//DTD SVG 1.1//EN"
 "http://www.w3.org/Graphics/SVG/1.1/DTD/svg11.dtd">
<!-- Generated by graphviz version 2.26.3 (20100126.1600)
 -->
<!-- Title: G Pages: 1 -->
<svg width="230pt" height="70pt"
 viewBox="0.00 0.00 230.00 70.00" xmlns="http://www.w3.org/2000/svg" xmlns:xlink="http://www.w3.org/1999/xlink">
<g id="graph1" class="graph" transform="scale(1 1) rotate(0) translate(4 66)">
<title>G</title>
<!-- Node1 -->
<g id="node1" class="node"><title>Node1</title>
<polygon fill="#bfbfbf" stroke="black" points="0.5,-20.5 0.5,-41.5 71.5,-41.5 71.5,-20.5 0.5,-20.5"/>
<text text-anchor="middle" x="36" y="-28.5" font-family="Helvetica,sans-Serif" font-size="10.00">DecodeData</text>
</g>
<!-- Node2 -->
<g id="node3" class="node"><title>Node2</title>
<a xlink:href="../../d4/d91/group__ENCAP.html#ga668f92389ee06510864585b97955f6f8" target="_top" xlink:title="Reads EIP_UINT32 from *buffer and converts little endian to host.">
<polygon fill="none" stroke="black" points="108.5,-40.5 108.5,-61.5 221.5,-61.5 221.5,-40.5 108.5,-40.5"/>
<text text-anchor="middle" x="165" y="-48.5" font-family="Helvetica,sans-Serif" font-size="10.00">GetDintFromMessage</text>
</a>
</g>
<!-- Node1&#45;&gt;Node2 -->
<g id="edge2" class="edge"><title>Node1&#45;&gt;Node2</title>
<path fill="none" stroke="midnightblue" d="M71.5913,-36.518C79.9159,-37.8087 89.0506,-39.2249 98.2464,-40.6506"/>
<polygon fill="midnightblue" stroke="midnightblue" points="97.7952,-44.1224 108.213,-42.1959 98.8677,-37.205 97.7952,-44.1224"/>
</g>
<!-- Node3 -->
<g id="node5" class="node"><title>Node3</title>
<a xlink:href="../../d4/d91/group__ENCAP.html#ga70322f970709ca9c9a1a1d474cfe2302" target="_top" xlink:title="Reads EIP_UINT16 from *buffer and converts little endian to host.">
<polygon fill="none" stroke="black" points="112,-0.5 112,-21.5 218,-21.5 218,-0.5 112,-0.5"/>
<text text-anchor="middle" x="165" y="-8.5" font-family="Helvetica,sans-Serif" font-size="10.00">GetIntFromMessage</text>
</a>
</g>
<!-- Node1&#45;&gt;Node3 -->
<g id="edge4" class="edge"><title>Node1&#45;&gt;Node3</title>
<path fill="none" stroke="midnightblue" d="M71.5913,-25.482C80.9728,-24.0275 91.3831,-22.4135 101.75,-20.8062"/>
<polygon fill="midnightblue" stroke="midnightblue" points="102.296,-24.2634 111.642,-19.2726 101.224,-17.3461 102.296,-24.2634"/>
</g>
</g>
</svg>
