<?xml version="1.0" encoding="UTF-8" standalone="no"?>
<!DOCTYPE svg PUBLIC "-//W3C//DTD SVG 1.1//EN"
 "http://www.w3.org/Graphics/SVG/1.1/DTD/svg11.dtd">
<!-- Generated by graphviz version 2.36.0 (20140111.2315)
 -->
<!-- Title: ShutdownCipStack Pages: 1 -->
<!--zoomable 284 -->
<svg id="main" version="1.1" xmlns="http://www.w3.org/2000/svg" xmlns:xlink="http://www.w3.org/1999/xlink" xml:space="preserve" onload="init(evt)">
<style type="text/css"><![CDATA[
.edge:hover path { stroke: red; }
.edge:hover polygon { stroke: red; fill: red; }
]]></style>
<script type="text/javascript"><![CDATA[
var edges = document.getElementsByTagName('g');
if (edges && edges.length) {
  for (var i=0;i<edges.length;i++) {
    if (edges[i].id.substr(0,4)=='edge') {
      edges[i].setAttribute('class','edge');
    }
  }
}
]]></script>
        <defs>
                <circle id="rim" cx="0" cy="0" r="7"/>
                <circle id="rim2" cx="0" cy="0" r="3.5"/>
                <g id="zoomPlus">
                        <use xlink:href="#rim" fill="#404040">
                                <set attributeName="fill" to="#808080" begin="zoomplus.mouseover" end="zoomplus.mouseout"/>
                        </use>
                        <path d="M-4,0h8M0,-4v8" fill="none" stroke="white" stroke-width="1.5" pointer-events="none"/>
                </g>
                <g id="zoomMin">
                        <use xlink:href="#rim" fill="#404040">
                                <set attributeName="fill" to="#808080" begin="zoomminus.mouseover" end="zoomminus.mouseout"/>
                        </use>
                        <path d="M-4,0h8" fill="none" stroke="white" stroke-width="1.5" pointer-events="none"/>
                </g>
                <g id="dirArrow">
                        <path fill="none" stroke="white" stroke-width="1.5" d="M0,-3.0v7 M-2.5,-0.5L0,-3.0L2.5,-0.5"/>
                </g>
               <g id="resetDef">
                       <use xlink:href="#rim2" fill="#404040">
                               <set attributeName="fill" to="#808080" begin="reset.mouseover" end="reset.mouseout"/>
                       </use>
               </g>
        </defs>

<script type="text/javascript">
var viewWidth = 758;
var viewHeight = 284;
var sectionId = 'dynsection-42';
</script>
<script xlink:href="../../svgpan.js"/>
<svg id="graph" class="graph">
<g id="viewport">
<title>ShutdownCipStack</title>
<!-- Node1 -->
<g id="node1" class="node"><title>Node1</title>
<polygon fill="#bfbfbf" stroke="black" points="0.5,-180.5 0.5,-199.5 101.5,-199.5 101.5,-180.5 0.5,-180.5"/>
<text text-anchor="middle" x="51" y="-187.5" font-family="Helvetica,sans-Serif" font-size="10.00">ShutdownCipStack</text>
</g>
<!-- Node2 -->
<g id="node2" class="node"><title>Node2</title>
<g id="a_node2"><a xlink:href="../../d1/dbc/appcontype_8c.html#a18d2a32030faf1d5e3d48e610b1c4fe7" target="_top" xlink:title="CloseAllConnections">
<polygon fill="none" stroke="black" points="146,-256.5 146,-275.5 254,-275.5 254,-256.5 146,-256.5"/>
<text text-anchor="middle" x="200" y="-263.5" font-family="Helvetica,sans-Serif" font-size="10.00">CloseAllConnections</text>
</a>
</g>
</g>
<!-- Node1&#45;&gt;Node2 -->
<g id="edge1" class="edge"><title>Node1&#45;&gt;Node2</title>
<path fill="none" stroke="midnightblue" d="M64.1535,-199.68C80.2364,-212.097 109.85,-233.622 138,-247 142.701,-249.234 147.728,-251.287 152.803,-253.151"/>
<polygon fill="midnightblue" stroke="midnightblue" points="151.956,-256.561 162.551,-256.5 154.23,-249.941 151.956,-256.561"/>
</g>
<!-- Node3 -->
<g id="node3" class="node"><title>Node3</title>
<g id="a_node3"><a xlink:href="../../d9/d7d/cipmessagerouter_8c.html#a16364f408990e2a5725f2fd5375ef3df" target="_top" xlink:title="Free all data allocated by the classes created in the CIP stack. ">
<polygon fill="none" stroke="black" points="154,-218.5 154,-237.5 246,-237.5 246,-218.5 154,-218.5"/>
<text text-anchor="middle" x="200" y="-225.5" font-family="Helvetica,sans-Serif" font-size="10.00">DeleteAllClasses</text>
</a>
</g>
</g>
<!-- Node1&#45;&gt;Node3 -->
<g id="edge2" class="edge"><title>Node1&#45;&gt;Node3</title>
<path fill="none" stroke="midnightblue" d="M89.0943,-199.589C108.318,-204.558 131.986,-210.677 152.429,-215.961"/>
<polygon fill="midnightblue" stroke="midnightblue" points="151.615,-219.366 162.172,-218.48 153.367,-212.588 151.615,-219.366"/>
</g>
<!-- Node5 -->
<g id="node5" class="node"><title>Node5</title>
<g id="a_node5"><a xlink:href="../../d4/d91/group__ENCAP.html#ga1261bd2441f744c38d7a3f8d8c16c391" target="_top" xlink:title="Shutdown the encapsulation layer. ">
<polygon fill="none" stroke="black" points="138,-85.5 138,-104.5 262,-104.5 262,-85.5 138,-85.5"/>
<text text-anchor="middle" x="200" y="-92.5" font-family="Helvetica,sans-Serif" font-size="10.00">EncapsulationShutDown</text>
</a>
</g>
</g>
<!-- Node1&#45;&gt;Node5 -->
<g id="edge4" class="edge"><title>Node1&#45;&gt;Node5</title>
<path fill="none" stroke="midnightblue" d="M66.223,-180.396C83.2118,-168.965 112.534,-149.367 138,-133 149.972,-125.306 163.386,-116.924 174.579,-109.995"/>
<polygon fill="midnightblue" stroke="midnightblue" points="176.708,-112.794 183.379,-104.563 173.031,-106.837 176.708,-112.794"/>
</g>
<!-- Node12 -->
<g id="node12" class="node"><title>Node12</title>
<g id="a_node12"><a xlink:href="../../df/d2e/cipassembly_8c.html#adcacd62b6a866c5c74c3cdda19598b98" target="_top" xlink:title="clean up the data allocated in the assembly object instances ">
<polygon fill="none" stroke="black" points="144.5,-142.5 144.5,-161.5 255.5,-161.5 255.5,-142.5 144.5,-142.5"/>
<text text-anchor="middle" x="200" y="-149.5" font-family="Helvetica,sans-Serif" font-size="10.00">ShutdownAssemblies</text>
</a>
</g>
</g>
<!-- Node1&#45;&gt;Node12 -->
<g id="edge11" class="edge"><title>Node1&#45;&gt;Node12</title>
<path fill="none" stroke="midnightblue" d="M89.0943,-180.411C108.318,-175.442 131.986,-169.323 152.429,-164.039"/>
<polygon fill="midnightblue" stroke="midnightblue" points="153.367,-167.412 162.172,-161.52 151.615,-160.634 153.367,-167.412"/>
</g>
<!-- Node16 -->
<g id="node16" class="node"><title>Node16</title>
<g id="a_node16"><a xlink:href="../../dd/d20/ciptcpipinterface_8c.html#a523c7909b1d929c0b9b288802189d391" target="_top" xlink:title="Clean up the allocated data of the TCP/IP interface object. ">
<polygon fill="none" stroke="black" points="138.5,-180.5 138.5,-199.5 261.5,-199.5 261.5,-180.5 138.5,-180.5"/>
<text text-anchor="middle" x="200" y="-187.5" font-family="Helvetica,sans-Serif" font-size="10.00">ShutdownTcpIpInterface</text>
</a>
</g>
</g>
<!-- Node1&#45;&gt;Node16 -->
<g id="edge16" class="edge"><title>Node1&#45;&gt;Node16</title>
<path fill="none" stroke="midnightblue" d="M101.767,-190C110.3,-190 119.311,-190 128.268,-190"/>
<polygon fill="midnightblue" stroke="midnightblue" points="128.328,-193.5 138.328,-190 128.328,-186.5 128.328,-193.5"/>
</g>
<!-- Node4 -->
<g id="node4" class="node"><title>Node4</title>
<g id="a_node4"><a xlink:href="../../d5/dc5/group__CIP__CALLBACK__API.html#ga729165f94320800eb9537def5a0e6af8" target="_top" xlink:title="Free memory allocated by the OpENer. ">
<polygon fill="none" stroke="black" points="317.5,-199.5 317.5,-218.5 368.5,-218.5 368.5,-199.5 317.5,-199.5"/>
<text text-anchor="middle" x="343" y="-206.5" font-family="Helvetica,sans-Serif" font-size="10.00">CipFree</text>
</a>
</g>
</g>
<!-- Node3&#45;&gt;Node4 -->
<g id="edge3" class="edge"><title>Node3&#45;&gt;Node4</title>
<path fill="none" stroke="midnightblue" d="M246.001,-221.936C265.901,-219.254 288.934,-216.151 307.449,-213.656"/>
<polygon fill="midnightblue" stroke="midnightblue" points="308.053,-217.106 317.496,-212.302 307.118,-210.169 308.053,-217.106"/>
</g>
<!-- Node6 -->
<g id="node6" class="node"><title>Node6</title>
<g id="a_node6"><a xlink:href="../../db/d4f/generic__networkhandler_8c.html#a1bfa5ef8e4802716459a56567ee16592" target="_top" xlink:title="CloseTcpSocket">
<polygon fill="none" stroke="black" points="298.5,-85.5 298.5,-104.5 387.5,-104.5 387.5,-85.5 298.5,-85.5"/>
<text text-anchor="middle" x="343" y="-92.5" font-family="Helvetica,sans-Serif" font-size="10.00">CloseTcpSocket</text>
</a>
</g>
</g>
<!-- Node5&#45;&gt;Node6 -->
<g id="edge5" class="edge"><title>Node5&#45;&gt;Node6</title>
<path fill="none" stroke="midnightblue" d="M262.025,-95C270.702,-95 279.575,-95 288.104,-95"/>
<polygon fill="midnightblue" stroke="midnightblue" points="288.301,-98.5001 298.301,-95 288.301,-91.5001 288.301,-98.5001"/>
</g>
<!-- Node7 -->
<g id="node7" class="node"><title>Node7</title>
<g id="a_node7"><a xlink:href="../../d5/dc5/group__CIP__CALLBACK__API.html#gae04e2a3e9937e910cbcdbff0b8d6ad2b" target="_top" xlink:title="Close the given socket and clean up the stack. ">
<polygon fill="none" stroke="black" points="461.5,-85.5 461.5,-104.5 534.5,-104.5 534.5,-85.5 461.5,-85.5"/>
<text text-anchor="middle" x="498" y="-92.5" font-family="Helvetica,sans-Serif" font-size="10.00">CloseSocket</text>
</a>
</g>
</g>
<!-- Node6&#45;&gt;Node7 -->
<g id="edge6" class="edge"><title>Node6&#45;&gt;Node7</title>
<path fill="none" stroke="midnightblue" d="M387.844,-95C407.695,-95 431.159,-95 451.235,-95"/>
<polygon fill="midnightblue" stroke="midnightblue" points="451.388,-98.5001 461.388,-95 451.388,-91.5001 451.388,-98.5001"/>
</g>
<!-- Node9 -->
<g id="node9" class="node"><title>Node9</title>
<g id="a_node9"><a xlink:href="../../db/d4f/generic__networkhandler_8c.html#aea539a75995234e379a1c25019ba378f" target="_top" xlink:title="RemoveSocketTimerFromList">
<polygon fill="none" stroke="black" points="424.5,-44.5 424.5,-63.5 571.5,-63.5 571.5,-44.5 424.5,-44.5"/>
<text text-anchor="middle" x="498" y="-51.5" font-family="Helvetica,sans-Serif" font-size="10.00">RemoveSocketTimerFromList</text>
</a>
</g>
</g>
<!-- Node6&#45;&gt;Node9 -->
<g id="edge8" class="edge"><title>Node6&#45;&gt;Node9</title>
<path fill="none" stroke="midnightblue" d="M379.486,-85.4907C400.94,-79.7415 428.505,-72.3549 451.545,-66.1807"/>
<polygon fill="midnightblue" stroke="midnightblue" points="452.689,-69.4978 461.442,-63.5286 450.877,-62.7364 452.689,-69.4978"/>
</g>
<!-- Node8 -->
<g id="node8" class="node"><title>Node8</title>
<g id="a_node8"><a xlink:href="../../d3/de3/MINGW_2networkhandler_8c.html#a2812ba0ecd1fd9a5549fbca397d76e3e" target="_top" xlink:title="Platform dependent code to close a socket. ">
<polygon fill="none" stroke="black" points="624,-88.5 624,-107.5 734,-107.5 734,-88.5 624,-88.5"/>
<text text-anchor="middle" x="679" y="-95.5" font-family="Helvetica,sans-Serif" font-size="10.00">CloseSocketPlatform</text>
</a>
</g>
</g>
<!-- Node7&#45;&gt;Node8 -->
<g id="edge7" class="edge"><title>Node7&#45;&gt;Node8</title>
<path fill="none" stroke="midnightblue" d="M534.793,-95.5999C557.41,-95.9789 587.288,-96.4797 613.899,-96.9257"/>
<polygon fill="midnightblue" stroke="midnightblue" points="613.859,-100.425 623.917,-97.0936 613.977,-93.4264 613.859,-100.425"/>
</g>
<!-- Node10 -->
<g id="node10" class="node"><title>Node10</title>
<g id="a_node10"><a xlink:href="../../d4/df6/socket__timer_8c.html#abe7542fdec4d4e4893a8c712192529ca" target="_top" xlink:title="Get the Socket Timer entry with the spezified socket value. ">
<polygon fill="none" stroke="black" points="608,-39 608,-69 750,-69 750,-39 608,-39"/>
<text text-anchor="start" x="616" y="-57" font-family="Helvetica,sans-Serif" font-size="10.00">SocketTimerArrayGetSocket</text>
<text text-anchor="middle" x="679" y="-46" font-family="Helvetica,sans-Serif" font-size="10.00">Timer</text>
</a>
</g>
</g>
<!-- Node9&#45;&gt;Node10 -->
<g id="edge9" class="edge"><title>Node9&#45;&gt;Node10</title>
<path fill="none" stroke="midnightblue" d="M571.548,-54C580.185,-54 589.041,-54 597.778,-54"/>
<polygon fill="midnightblue" stroke="midnightblue" points="597.959,-57.5001 607.959,-54 597.959,-50.5001 597.959,-57.5001"/>
</g>
<!-- Node11 -->
<g id="node11" class="node"><title>Node11</title>
<g id="a_node11"><a xlink:href="../../d4/df6/socket__timer_8c.html#a6130830815ae46fe4e6d45cf89bc3506" target="_top" xlink:title="Clears a Socket Timer entry. ">
<polygon fill="none" stroke="black" points="631.5,-0.5 631.5,-19.5 726.5,-19.5 726.5,-0.5 631.5,-0.5"/>
<text text-anchor="middle" x="679" y="-7.5" font-family="Helvetica,sans-Serif" font-size="10.00">SocketTimerClear</text>
</a>
</g>
</g>
<!-- Node9&#45;&gt;Node11 -->
<g id="edge10" class="edge"><title>Node9&#45;&gt;Node11</title>
<path fill="none" stroke="midnightblue" d="M537.84,-44.4527C564.698,-37.8508 600.631,-29.0181 629.389,-21.949"/>
<polygon fill="midnightblue" stroke="midnightblue" points="630.36,-25.3147 639.235,-19.5287 628.689,-18.517 630.36,-25.3147"/>
</g>
<!-- Node12&#45;&gt;Node4 -->
<g id="edge12" class="edge"><title>Node12&#45;&gt;Node4</title>
<path fill="none" stroke="midnightblue" d="M235.593,-161.564C244.323,-164.307 253.601,-167.51 262,-171 278.707,-177.942 281.683,-182.186 298,-190 301.799,-191.819 305.816,-193.662 309.817,-195.448"/>
<polygon fill="midnightblue" stroke="midnightblue" points="308.446,-198.669 319.011,-199.474 311.254,-192.257 308.446,-198.669"/>
</g>
<!-- Node13 -->
<g id="node13" class="node"><title>Node13</title>
<g id="a_node13"><a xlink:href="../../d2/dc9/group__CIP__API.html#ga5a14c8d76acacb09312b709bb0a76265" target="_top" xlink:title="Get a pointer to an instance&#39;s attribute. ">
<polygon fill="none" stroke="black" points="301,-161.5 301,-180.5 385,-180.5 385,-161.5 301,-161.5"/>
<text text-anchor="middle" x="343" y="-168.5" font-family="Helvetica,sans-Serif" font-size="10.00">GetCipAttribute</text>
</a>
</g>
</g>
<!-- Node12&#45;&gt;Node13 -->
<g id="edge13" class="edge"><title>Node12&#45;&gt;Node13</title>
<path fill="none" stroke="midnightblue" d="M255.514,-159.346C267.025,-160.897 279.135,-162.529 290.529,-164.064"/>
<polygon fill="midnightblue" stroke="midnightblue" points="290.376,-167.575 300.753,-165.442 291.31,-160.638 290.376,-167.575"/>
</g>
<!-- Node14 -->
<g id="node14" class="node"><title>Node14</title>
<g id="a_node14"><a xlink:href="../../d2/dc9/group__CIP__API.html#ga98bd609c80ece316406363575b4a89ea" target="_top" xlink:title="Get a pointer to a CIP object with given class code. ">
<polygon fill="none" stroke="black" points="306.5,-123.5 306.5,-142.5 379.5,-142.5 379.5,-123.5 306.5,-123.5"/>
<text text-anchor="middle" x="343" y="-130.5" font-family="Helvetica,sans-Serif" font-size="10.00">GetCipClass</text>
</a>
</g>
</g>
<!-- Node12&#45;&gt;Node14 -->
<g id="edge14" class="edge"><title>Node12&#45;&gt;Node14</title>
<path fill="none" stroke="midnightblue" d="M255.514,-144.654C268.967,-142.841 283.239,-140.918 296.229,-139.168"/>
<polygon fill="midnightblue" stroke="midnightblue" points="296.888,-142.611 306.331,-137.806 295.954,-135.673 296.888,-142.611"/>
</g>
<!-- Node15 -->
<g id="node15" class="node"><title>Node15</title>
<g id="a_node15"><a xlink:href="../../d9/d7d/cipmessagerouter_8c.html#a7a9f44f2d6f010b6f6ee922d378d9bb1" target="_top" xlink:title="Get the registered MessageRouter object corresponding to ClassID. given a class ID, return a pointer to the registration node for that object. ">
<polygon fill="none" stroke="black" points="444,-123.5 444,-142.5 552,-142.5 552,-123.5 444,-123.5"/>
<text text-anchor="middle" x="498" y="-130.5" font-family="Helvetica,sans-Serif" font-size="10.00">GetRegisteredObject</text>
</a>
</g>
</g>
<!-- Node14&#45;&gt;Node15 -->
<g id="edge15" class="edge"><title>Node14&#45;&gt;Node15</title>
<path fill="none" stroke="midnightblue" d="M379.872,-133C395.969,-133 415.447,-133 433.86,-133"/>
<polygon fill="midnightblue" stroke="midnightblue" points="433.951,-136.5 443.951,-133 433.951,-129.5 433.951,-136.5"/>
</g>
<!-- Node16&#45;&gt;Node4 -->
<g id="edge17" class="edge"><title>Node16&#45;&gt;Node4</title>
<path fill="none" stroke="midnightblue" d="M261.615,-198.168C277.198,-200.268 293.439,-202.456 307.21,-204.312"/>
<polygon fill="midnightblue" stroke="midnightblue" points="306.83,-207.792 317.208,-205.659 307.765,-200.855 306.83,-207.792"/>
</g>
</g>
</svg>
        <g id="navigator" transform="translate(0 0)" fill="#404254">
                <rect fill="#f2f5e9" fill-opacity="0.5" stroke="#606060" stroke-width=".5" x="0" y="0" width="60" height="60"/>
                <use id="zoomplus" xlink:href="#zoomPlus" x="17" y="9" onmousedown="handleZoom(evt,'in')"/>
                <use id="zoomminus" xlink:href="#zoomMin" x="42" y="9" onmousedown="handleZoom(evt,'out')"/>
                <use id="reset" xlink:href="#resetDef" x="30" y="36" onmousedown="handleReset()"/>
                <g id="arrowUp" xlink:href="#dirArrow" transform="translate(30 24)" onmousedown="handlePan(0,-1)">
                  <use xlink:href="#rim" fill="#404040">
                        <set attributeName="fill" to="#808080" begin="arrowUp.mouseover" end="arrowUp.mouseout"/>
                  </use>
                  <path fill="none" stroke="white" stroke-width="1.5" d="M0,-3.0v7 M-2.5,-0.5L0,-3.0L2.5,-0.5"/>
                </g>
                <g id="arrowRight" xlink:href="#dirArrow" transform="rotate(90) translate(36 -43)" onmousedown="handlePan(1,0)">
                  <use xlink:href="#rim" fill="#404040">
                        <set attributeName="fill" to="#808080" begin="arrowRight.mouseover" end="arrowRight.mouseout"/>
                  </use>
                  <path fill="none" stroke="white" stroke-width="1.5" d="M0,-3.0v7 M-2.5,-0.5L0,-3.0L2.5,-0.5"/>
                </g>
                <g id="arrowDown" xlink:href="#dirArrow" transform="rotate(180) translate(-30 -48)" onmousedown="handlePan(0,1)">
                  <use xlink:href="#rim" fill="#404040">
                        <set attributeName="fill" to="#808080" begin="arrowDown.mouseover" end="arrowDown.mouseout"/>
                  </use>
                  <path fill="none" stroke="white" stroke-width="1.5" d="M0,-3.0v7 M-2.5,-0.5L0,-3.0L2.5,-0.5"/>
                </g>
                <g id="arrowLeft" xlink:href="#dirArrow" transform="rotate(270) translate(-36 17)" onmousedown="handlePan(-1,0)">
                  <use xlink:href="#rim" fill="#404040">
                        <set attributeName="fill" to="#808080" begin="arrowLeft.mouseover" end="arrowLeft.mouseout"/>
                  </use>
                  <path fill="none" stroke="white" stroke-width="1.5" d="M0,-3.0v7 M-2.5,-0.5L0,-3.0L2.5,-0.5"/>
                </g>
        </g>
        <svg viewBox="0 0 15 15" width="100%" height="30px" preserveAspectRatio="xMaxYMin meet">
         <g id="arrow_out" transform="scale(0.3 0.3)">
          <a xlink:href="group__CIP__API_gaa57b527530adc2acda6febc500fd6831_cgraph_org.svg" target="_base">
           <rect id="button" ry="5" rx="5" y="6" x="6" height="38" width="38"
                fill="#f2f5e9" fill-opacity="0.5" stroke="#606060" stroke-width="1.0"/>
           <path id="arrow"
             d="M 11.500037,31.436501 C 11.940474,20.09759 22.043105,11.32322 32.158766,21.979434 L 37.068811,17.246167 C 37.068811,17.246167 37.088388,32 37.088388,32 L 22.160133,31.978069 C 22.160133,31.978069 26.997745,27.140456 26.997745,27.140456 C 18.528582,18.264221 13.291696,25.230495 11.500037,31.436501 z"
             style="fill:#404040;"/>
          </a>
         </g>
        </svg>
</svg>
