<?xml version="1.0" encoding="UTF-8" standalone="no"?>
<!DOCTYPE svg PUBLIC "-//W3C//DTD SVG 1.1//EN"
 "http://www.w3.org/Graphics/SVG/1.1/DTD/svg11.dtd">
<!-- Generated by graphviz version 2.26.3 (20100126.1600)
 -->
<!-- Title: G Pages: 1 -->
<!--zoomable 483 -->
<svg id="main" version="1.1" xmlns="http://www.w3.org/2000/svg" xmlns:xlink="http://www.w3.org/1999/xlink" xml:space="preserve" onload="init(evt)">
        <defs>
                <circle id="rim" cx="0" cy="0" r="7"/>
                <circle id="rim2" cx="0" cy="0" r="3.5"/>
                <g id="zoomPlus">
                        <use xlink:href="#rim" fill="#404040">
                                <set attributeName="fill" to="#808080" begin="zoomplus.mouseover" end="zoomplus.mouseout"/>
                        </use>
                        <path d="M-4,0h8M0,-4v8" fill="none" stroke="white" stroke-width="1.5" pointer-events="none"/>
                </g>
                <g id="zoomMin">
                        <use xlink:href="#rim" fill="#404040">
                                <set attributeName="fill" to="#808080" begin="zoomminus.mouseover" end="zoomminus.mouseout"/>
                        </use>
                        <path d="M-4,0h8" fill="none" stroke="white" stroke-width="1.5" pointer-events="none"/>
                </g>
                <g id="dirArrow">
                        <path fill="none" stroke="white" stroke-width="1.5" d="M0,-3.0v7 M-2.5,-0.5L0,-3.0L2.5,-0.5"/>
                </g>
               <g id="resetDef">
                       <use xlink:href="#rim2" fill="#404040">
                               <set attributeName="fill" to="#808080" begin="reset.mouseover" end="reset.mouseout"/>
                       </use>
               </g>
        </defs>

<script type="text/javascript">
var viewWidth = 1076;
var viewHeight = 483;
var sectionId = 'dynsection-20';
</script>
<script xlink:href="../../svgpan.js"/>
<svg id="graph" class="graph">
<g id="viewport">
<title>G</title>
<!-- Node1 -->
<g id="node1" class="node"><title>Node1</title>
<polygon fill="#bfbfbf" stroke="black" points="0,-354.649 0,-375.649 118,-375.649 118,-354.649 0,-354.649"/>
<text text-anchor="middle" x="59" y="-362.649" font-family="Helvetica,sans-Serif" font-size="10.00">CreateAssemblyObject</text>
</g>
<!-- Node2 -->
<g id="node3" class="node"><title>Node2</title>
<a xlink:href="../../d2/dc9/group__CIP__API.html#ga180023c8528628f7d83023e4db81287a" target="_top" xlink:title="Create one instance of a given class with a certain instance number.">
<polygon fill="none" stroke="black" points="167.5,-354.649 167.5,-375.649 256.5,-375.649 256.5,-354.649 167.5,-354.649"/>
<text text-anchor="middle" x="212" y="-362.649" font-family="Helvetica,sans-Serif" font-size="10.00">AddCIPInstance</text>
</a>
</g>
<!-- Node1&#45;&gt;Node2 -->
<g id="edge2" class="edge"><title>Node1&#45;&gt;Node2</title>
<path fill="none" stroke="midnightblue" d="M118.154,-365.149C130.899,-365.149 144.322,-365.149 156.904,-365.149"/>
<polygon fill="midnightblue" stroke="midnightblue" points="157.243,-368.649 167.243,-365.149 157.243,-361.649 157.243,-368.649"/>
</g>
<!-- Node5 -->
<g id="node9" class="node"><title>Node5</title>
<a xlink:href="../../d5/dc5/group__CIP__CALLBACK__API.html#ga70ee7034f390fd3759d42a50e60e1b1c" target="_top" xlink:title="Allocate memory for the CIP stack.">
<polygon fill="none" stroke="black" points="700.5,-335.649 700.5,-356.649 759.5,-356.649 759.5,-335.649 700.5,-335.649"/>
<text text-anchor="middle" x="730" y="-343.649" font-family="Helvetica,sans-Serif" font-size="10.00">CipCalloc</text>
</a>
</g>
<!-- Node1&#45;&gt;Node5 -->
<g id="edge10" class="edge"><title>Node1&#45;&gt;Node5</title>
<path fill="none" stroke="midnightblue" d="M95.0707,-375.728C186.211,-400.745 432.408,-457.643 628,-405.149 658.327,-397.01 688.956,-377.421 708.622,-363.038"/>
<polygon fill="midnightblue" stroke="midnightblue" points="710.955,-365.662 716.846,-356.856 706.749,-360.067 710.955,-365.662"/>
</g>
<!-- Node6 -->
<g id="node12" class="node"><title>Node6</title>
<a xlink:href="../../df/d2e/cipassembly_8c.html#a5973ef42110a1bdf6c7699e35e04b7d4" target="_top" xlink:title="Constructor for the assembly object class.">
<polygon fill="none" stroke="black" points="154.5,-136.649 154.5,-157.649 269.5,-157.649 269.5,-136.649 154.5,-136.649"/>
<text text-anchor="middle" x="212" y="-144.649" font-family="Helvetica,sans-Serif" font-size="10.00">CreateAssemblyClass</text>
</a>
</g>
<!-- Node1&#45;&gt;Node6 -->
<g id="edge12" class="edge"><title>Node1&#45;&gt;Node6</title>
<path fill="none" stroke="midnightblue" d="M62.3559,-354.609C72.2533,-324.844 103.815,-238.765 154,-184.149 161.655,-175.818 171.586,-168.587 181.061,-162.781"/>
<polygon fill="midnightblue" stroke="midnightblue" points="183.01,-165.698 189.916,-157.663 179.507,-159.637 183.01,-165.698"/>
</g>
<!-- Node8 -->
<g id="node16" class="node"><title>Node8</title>
<a xlink:href="../../d2/dc9/group__CIP__API.html#ga98bd609c80ece316406363575b4a89ea" target="_top" xlink:title="Get a pointer to a CIP object with given class code.">
<polygon fill="none" stroke="black" points="518.5,-452.649 518.5,-473.649 591.5,-473.649 591.5,-452.649 518.5,-452.649"/>
<text text-anchor="middle" x="555" y="-460.649" font-family="Helvetica,sans-Serif" font-size="10.00">GetCipClass</text>
</a>
</g>
<!-- Node1&#45;&gt;Node8 -->
<g id="edge78" class="edge"><title>Node1&#45;&gt;Node8</title>
<path fill="none" stroke="midnightblue" d="M68.5544,-375.763C84.4022,-392.533 117.969,-424.64 154,-438.149 275.171,-483.582 431.319,-476.294 508.11,-468.838"/>
<polygon fill="midnightblue" stroke="midnightblue" points="508.812,-472.285 518.407,-467.791 508.104,-465.321 508.812,-472.285"/>
</g>
<!-- Node13 -->
<g id="node30" class="node"><title>Node13</title>
<a xlink:href="../../d2/dc9/group__CIP__API.html#gac207feb53c1f98b45f3934bbea63d618" target="_top" xlink:title="Insert an attribute in an instance of a CIP class.">
<polygon fill="none" stroke="black" points="516,-176.649 516,-197.649 594,-197.649 594,-176.649 516,-176.649"/>
<text text-anchor="middle" x="555" y="-184.649" font-family="Helvetica,sans-Serif" font-size="10.00">InsertAttribute</text>
</a>
</g>
<!-- Node1&#45;&gt;Node13 -->
<g id="edge80" class="edge"><title>Node1&#45;&gt;Node13</title>
<path fill="none" stroke="midnightblue" d="M73.4461,-354.644C110.205,-328.475 211.112,-260.117 306,-227.149 372.745,-203.96 454.291,-194.111 505.453,-189.999"/>
<polygon fill="midnightblue" stroke="midnightblue" points="505.874,-193.477 515.579,-189.229 505.342,-186.498 505.874,-193.477"/>
</g>
<!-- Node3 -->
<g id="node5" class="node"><title>Node3</title>
<a xlink:href="../../d2/dc9/group__CIP__API.html#gaa50395aca91b378c297d6ad919df210e" target="_top" xlink:title="Get a pointer to an instance.">
<polygon fill="none" stroke="black" points="333.5,-374.649 333.5,-395.649 418.5,-395.649 418.5,-374.649 333.5,-374.649"/>
<text text-anchor="middle" x="376" y="-382.649" font-family="Helvetica,sans-Serif" font-size="10.00">GetCipInstance</text>
</a>
</g>
<!-- Node2&#45;&gt;Node3 -->
<g id="edge4" class="edge"><title>Node2&#45;&gt;Node3</title>
<path fill="none" stroke="midnightblue" d="M256.814,-370.614C277.446,-373.13 302.062,-376.132 323.552,-378.753"/>
<polygon fill="midnightblue" stroke="midnightblue" points="323.149,-382.23 333.499,-379.966 323.997,-375.281 323.149,-382.23"/>
</g>
<!-- Node4 -->
<g id="node7" class="node"><title>Node4</title>
<a xlink:href="../../d2/dc9/group__CIP__API.html#ga39dafca98f844a12511af11b1273d0a8" target="_top" xlink:title="Add a number of CIP instances to a given CIP class.">
<polygon fill="none" stroke="black" points="509,-374.649 509,-395.649 601,-395.649 601,-374.649 509,-374.649"/>
<text text-anchor="middle" x="555" y="-382.649" font-family="Helvetica,sans-Serif" font-size="10.00">AddCipInstances</text>
</a>
</g>
<!-- Node2&#45;&gt;Node4 -->
<g id="edge6" class="edge"><title>Node2&#45;&gt;Node4</title>
<path fill="none" stroke="midnightblue" d="M256.533,-362.755C303.691,-360.78 380.256,-359.168 446,-365.149 463.216,-366.716 481.774,-369.646 498.612,-372.79"/>
<polygon fill="midnightblue" stroke="midnightblue" points="498.364,-376.307 508.846,-374.766 499.691,-369.434 498.364,-376.307"/>
</g>
<!-- Node4&#45;&gt;Node5 -->
<g id="edge8" class="edge"><title>Node4&#45;&gt;Node5</title>
<path fill="none" stroke="midnightblue" d="M601.437,-374.8C629.149,-368.625 663.967,-360.865 690.378,-354.979"/>
<polygon fill="midnightblue" stroke="midnightblue" points="691.415,-358.334 700.414,-352.743 689.892,-351.502 691.415,-358.334"/>
</g>
<!-- Node7 -->
<g id="node14" class="node"><title>Node7</title>
<a xlink:href="../../d2/dc9/group__CIP__API.html#ga3dfa07bc40e59ba348d713272d1cbfdb" target="_top" xlink:title="Allocate memory for new CIP Class and attributes.">
<polygon fill="none" stroke="black" points="333,-236.649 333,-257.649 419,-257.649 419,-236.649 333,-236.649"/>
<text text-anchor="middle" x="376" y="-244.649" font-family="Helvetica,sans-Serif" font-size="10.00">CreateCipClass</text>
</a>
</g>
<!-- Node6&#45;&gt;Node7 -->
<g id="edge14" class="edge"><title>Node6&#45;&gt;Node7</title>
<path fill="none" stroke="midnightblue" d="M229.241,-157.662C257.956,-175.171 315.762,-210.419 349.624,-231.067"/>
<polygon fill="midnightblue" stroke="midnightblue" points="348.136,-234.259 358.496,-236.476 351.781,-228.282 348.136,-234.259"/>
</g>
<!-- Node14 -->
<g id="node33" class="node"><title>Node14</title>
<a xlink:href="../../d2/dc9/group__CIP__API.html#ga35f639b135ec3c3903f49fd65daed307" target="_top" xlink:title="Insert a service in an instance of a CIP object.">
<polygon fill="none" stroke="black" points="518,-136.649 518,-157.649 592,-157.649 592,-136.649 518,-136.649"/>
<text text-anchor="middle" x="555" y="-144.649" font-family="Helvetica,sans-Serif" font-size="10.00">InsertService</text>
</a>
</g>
<!-- Node6&#45;&gt;Node14 -->
<g id="edge68" class="edge"><title>Node6&#45;&gt;Node14</title>
<path fill="none" stroke="midnightblue" d="M269.797,-147.149C336.576,-147.149 445.213,-147.149 507.356,-147.149"/>
<polygon fill="midnightblue" stroke="midnightblue" points="507.657,-150.649 517.657,-147.149 507.657,-143.649 507.657,-150.649"/>
</g>
<!-- Node16 -->
<g id="node38" class="node"><title>Node16</title>
<a xlink:href="../../d2/d3d/cipcommon_8c.html#ab0ed210dcfa6219a238c5a9f7a72aad1" target="_top" xlink:title="Generic implementation of the GetAttributeSingle CIP service.">
<polygon fill="none" stroke="black" points="507,-96.6493 507,-117.649 603,-117.649 603,-96.6493 507,-96.6493"/>
<text text-anchor="middle" x="555" y="-104.649" font-family="Helvetica,sans-Serif" font-size="10.00">GetAttributeSingle</text>
</a>
</g>
<!-- Node6&#45;&gt;Node16 -->
<g id="edge66" class="edge"><title>Node6&#45;&gt;Node16</title>
<path fill="none" stroke="midnightblue" d="M269.797,-140.409C332.916,-133.048 433.431,-121.326 496.734,-113.944"/>
<polygon fill="midnightblue" stroke="midnightblue" points="497.42,-117.388 506.947,-112.753 496.609,-110.435 497.42,-117.388"/>
</g>
<!-- Node24 -->
<g id="node59" class="node"><title>Node24</title>
<a xlink:href="../../df/d2e/cipassembly_8c.html#a92838d437910f316c6fd7b57cfda9e56" target="_top" xlink:title="Implementation of the SetAttributeSingle CIP service for Assembly Objects. Currently only supports At...">
<polygon fill="none" stroke="black" points="306.5,-36.6493 306.5,-57.6493 445.5,-57.6493 445.5,-36.6493 306.5,-36.6493"/>
<text text-anchor="middle" x="376" y="-44.6493" font-family="Helvetica,sans-Serif" font-size="10.00">SetAssemblyAttributeSingle</text>
</a>
</g>
<!-- Node6&#45;&gt;Node24 -->
<g id="edge70" class="edge"><title>Node6&#45;&gt;Node24</title>
<path fill="none" stroke="midnightblue" d="M229.241,-136.637C257.956,-119.127 315.762,-83.8799 349.624,-63.2319"/>
<polygon fill="midnightblue" stroke="midnightblue" points="351.781,-66.0165 358.496,-57.8221 348.136,-60.04 351.781,-66.0165"/>
</g>
<!-- Node7&#45;&gt;Node4 -->
<g id="edge22" class="edge"><title>Node7&#45;&gt;Node4</title>
<path fill="none" stroke="midnightblue" d="M383.203,-257.806C398.714,-279.978 437.492,-331.392 482,-360.149 488.566,-364.392 495.933,-368 503.393,-371.041"/>
<polygon fill="midnightblue" stroke="midnightblue" points="502.248,-374.35 512.84,-374.596 504.713,-367.798 502.248,-374.35"/>
</g>
<!-- Node7&#45;&gt;Node5 -->
<g id="edge20" class="edge"><title>Node7&#45;&gt;Node5</title>
<path fill="none" stroke="midnightblue" d="M385.882,-257.839C403.295,-275.861 441.457,-311.82 482,-327.149 551.573,-353.455 639.797,-352.963 690.076,-349.826"/>
<polygon fill="midnightblue" stroke="midnightblue" points="690.474,-353.307 700.209,-349.125 689.991,-346.323 690.474,-353.307"/>
</g>
<!-- Node7&#45;&gt;Node8 -->
<g id="edge16" class="edge"><title>Node7&#45;&gt;Node8</title>
<path fill="none" stroke="midnightblue" d="M381.688,-257.928C396.126,-284.698 436.307,-355.623 482,-405.149 496.589,-420.962 515.707,-435.99 530.719,-446.785"/>
<polygon fill="midnightblue" stroke="midnightblue" points="528.825,-449.732 539.017,-452.626 532.854,-444.008 528.825,-449.732"/>
</g>
<!-- Node10 -->
<g id="node22" class="node"><title>Node10</title>
<a xlink:href="../../d9/d7d/cipmessagerouter_8c.html#ae00f521e394d00fd5fd99271a6983116" target="_top" xlink:title="Register an Class to the message router.">
<polygon fill="none" stroke="black" points="508,-296.649 508,-317.649 602,-317.649 602,-296.649 508,-296.649"/>
<text text-anchor="middle" x="555" y="-304.649" font-family="Helvetica,sans-Serif" font-size="10.00">RegisterCipClass</text>
</a>
</g>
<!-- Node7&#45;&gt;Node10 -->
<g id="edge24" class="edge"><title>Node7&#45;&gt;Node10</title>
<path fill="none" stroke="midnightblue" d="M401.896,-257.697C423.211,-266.191 454.314,-278.155 482,-287.149 489.126,-289.464 496.698,-291.74 504.165,-293.879"/>
<polygon fill="midnightblue" stroke="midnightblue" points="503.3,-297.272 513.874,-296.605 505.192,-290.532 503.3,-297.272"/>
</g>
<!-- Node11 -->
<g id="node25" class="node"><title>Node11</title>
<a xlink:href="../../d2/dc9/group__CIP__API.html#ga5ec1d2c432792c39f93c170943964302" target="_top" xlink:title="Allocates Attribute bitmasks.">
<polygon fill="none" stroke="black" points="496,-256.649 496,-277.649 614,-277.649 614,-256.649 496,-256.649"/>
<text text-anchor="middle" x="555" y="-264.649" font-family="Helvetica,sans-Serif" font-size="10.00">AllocateAttributeMasks</text>
</a>
</g>
<!-- Node7&#45;&gt;Node11 -->
<g id="edge28" class="edge"><title>Node7&#45;&gt;Node11</title>
<path fill="none" stroke="midnightblue" d="M419.331,-251.991C439.25,-254.216 463.371,-256.911 485.717,-259.408"/>
<polygon fill="midnightblue" stroke="midnightblue" points="485.511,-262.907 495.838,-260.539 486.289,-255.95 485.511,-262.907"/>
</g>
<!-- Node7&#45;&gt;Node13 -->
<g id="edge34" class="edge"><title>Node7&#45;&gt;Node13</title>
<path fill="none" stroke="midnightblue" d="M401.896,-236.601C423.211,-228.108 454.314,-216.144 482,-207.149 489.73,-204.638 497.986,-202.173 506.063,-199.878"/>
<polygon fill="midnightblue" stroke="midnightblue" points="507.084,-203.227 515.778,-197.171 505.206,-196.483 507.084,-203.227"/>
</g>
<!-- Node7&#45;&gt;Node14 -->
<g id="edge38" class="edge"><title>Node7&#45;&gt;Node14</title>
<path fill="none" stroke="midnightblue" d="M387.105,-236.445C405.412,-219.367 443.723,-185.969 482,-167.149 490.14,-163.147 499.197,-159.849 508.085,-157.167"/>
<polygon fill="midnightblue" stroke="midnightblue" points="509.304,-160.46 517.99,-154.395 507.417,-153.719 509.304,-160.46"/>
</g>
<!-- Node15 -->
<g id="node35" class="node"><title>Node15</title>
<a xlink:href="../../d2/d3d/cipcommon_8c.html#ad1ca841f8ea512a497ce36acbc96a441" target="_top" xlink:title="Generic implementation of the GetAttributeAll CIP service.">
<polygon fill="none" stroke="black" points="515,-216.649 515,-237.649 595,-237.649 595,-216.649 515,-216.649"/>
<text text-anchor="middle" x="555" y="-224.649" font-family="Helvetica,sans-Serif" font-size="10.00">GetAttributeAll</text>
</a>
</g>
<!-- Node7&#45;&gt;Node15 -->
<g id="edge40" class="edge"><title>Node7&#45;&gt;Node15</title>
<path fill="none" stroke="midnightblue" d="M419.331,-242.308C445.112,-239.427 477.931,-235.76 504.832,-232.755"/>
<polygon fill="midnightblue" stroke="midnightblue" points="505.276,-236.227 514.825,-231.638 504.499,-229.27 505.276,-236.227"/>
</g>
<!-- Node7&#45;&gt;Node16 -->
<g id="edge44" class="edge"><title>Node7&#45;&gt;Node16</title>
<path fill="none" stroke="midnightblue" d="M382.443,-236.303C397.043,-212.69 435.055,-156.408 482,-127.149 486.74,-124.195 491.917,-121.671 497.257,-119.515"/>
<polygon fill="midnightblue" stroke="midnightblue" points="498.758,-122.695 506.985,-116.019 496.39,-116.107 498.758,-122.695"/>
</g>
<!-- Node9 -->
<g id="node18" class="node"><title>Node9</title>
<a xlink:href="../../d9/d7d/cipmessagerouter_8c.html#a7a9f44f2d6f010b6f6ee922d378d9bb1" target="_top" xlink:title="Get the registered MessageRouter object corresponding to ClassID. given a class ID, return a pointer to the registration node for that object.">
<polygon fill="none" stroke="black" points="676,-452.649 676,-473.649 784,-473.649 784,-452.649 676,-452.649"/>
<text text-anchor="middle" x="730" y="-460.649" font-family="Helvetica,sans-Serif" font-size="10.00">GetRegisteredObject</text>
</a>
</g>
<!-- Node8&#45;&gt;Node9 -->
<g id="edge18" class="edge"><title>Node8&#45;&gt;Node9</title>
<path fill="none" stroke="midnightblue" d="M591.686,-463.149C613.091,-463.149 640.706,-463.149 665.625,-463.149"/>
<polygon fill="midnightblue" stroke="midnightblue" points="665.748,-466.649 675.748,-463.149 665.748,-459.649 665.748,-466.649"/>
</g>
<!-- Node10&#45;&gt;Node5 -->
<g id="edge26" class="edge"><title>Node10&#45;&gt;Node5</title>
<path fill="none" stroke="midnightblue" d="M602.358,-317.703C629.97,-323.857 664.393,-331.528 690.53,-337.353"/>
<polygon fill="midnightblue" stroke="midnightblue" points="689.944,-340.808 700.466,-339.567 691.467,-333.976 689.944,-340.808"/>
</g>
<!-- Node11&#45;&gt;Node5 -->
<g id="edge32" class="edge"><title>Node11&#45;&gt;Node5</title>
<path fill="none" stroke="midnightblue" d="M600.783,-277.75C609.943,-280.411 619.392,-283.551 628,-287.149 656.153,-298.917 686.126,-317.001 706.241,-330.046"/>
<polygon fill="midnightblue" stroke="midnightblue" points="704.47,-333.07 714.747,-335.644 708.318,-327.223 704.47,-333.07"/>
</g>
<!-- Node12 -->
<g id="node27" class="node"><title>Node12</title>
<a xlink:href="../../d2/dc9/group__CIP__API.html#ga1eb3004bbf086b276500e1d6e7a2f677" target="_top" xlink:title="Calculates Byte&#45;Index of Attribute.">
<polygon fill="none" stroke="black" points="689,-196.649 689,-217.649 771,-217.649 771,-196.649 689,-196.649"/>
<text text-anchor="middle" x="730" y="-204.649" font-family="Helvetica,sans-Serif" font-size="10.00">CalculateIndex</text>
</a>
</g>
<!-- Node11&#45;&gt;Node12 -->
<g id="edge30" class="edge"><title>Node11&#45;&gt;Node12</title>
<path fill="none" stroke="midnightblue" d="M596.538,-256.591C606.881,-253.737 617.898,-250.503 628,-247.149 650.856,-239.561 676.053,-229.694 695.685,-221.659"/>
<polygon fill="midnightblue" stroke="midnightblue" points="697.214,-224.815 705.121,-217.764 694.542,-218.345 697.214,-224.815"/>
</g>
<!-- Node13&#45;&gt;Node12 -->
<g id="edge36" class="edge"><title>Node13&#45;&gt;Node12</title>
<path fill="none" stroke="midnightblue" d="M594.273,-191.638C619.204,-194.487 651.731,-198.204 678.692,-201.286"/>
<polygon fill="midnightblue" stroke="midnightblue" points="678.393,-204.774 688.726,-202.432 679.188,-197.819 678.393,-204.774"/>
</g>
<!-- Node15&#45;&gt;Node12 -->
<g id="edge42" class="edge"><title>Node15&#45;&gt;Node12</title>
<path fill="none" stroke="midnightblue" d="M595.149,-222.561C619.914,-219.731 651.922,-216.072 678.538,-213.031"/>
<polygon fill="midnightblue" stroke="midnightblue" points="679.286,-216.468 688.823,-211.855 678.491,-209.513 679.286,-216.468"/>
</g>
<!-- Node16&#45;&gt;Node12 -->
<g id="edge48" class="edge"><title>Node16&#45;&gt;Node12</title>
<path fill="none" stroke="midnightblue" d="M603.185,-117.321C611.686,-119.958 620.278,-123.2 628,-127.149 646.292,-136.505 647.87,-143.423 664,-156.149 678.502,-167.591 694.939,-180.293 707.781,-190.159"/>
<polygon fill="midnightblue" stroke="midnightblue" points="705.965,-193.177 716.031,-196.485 710.225,-187.622 705.965,-193.177"/>
</g>
<!-- Node17 -->
<g id="node40" class="node"><title>Node17</title>
<a xlink:href="../../d5/dc5/group__CIP__CALLBACK__API.html#ga098272a8ae10facf3086c5c82a0080db" target="_top" xlink:title="Inform the application that the data of an assembly object will be sent.">
<polygon fill="none" stroke="black" points="664,-125.649 664,-146.649 796,-146.649 796,-125.649 664,-125.649"/>
<text text-anchor="middle" x="730" y="-133.649" font-family="Helvetica,sans-Serif" font-size="10.00">BeforeAssemblyDataSend</text>
</a>
</g>
<!-- Node16&#45;&gt;Node17 -->
<g id="edge46" class="edge"><title>Node16&#45;&gt;Node17</title>
<path fill="none" stroke="midnightblue" d="M603.283,-115.15C619.758,-117.881 638.571,-120.998 656.569,-123.981"/>
<polygon fill="midnightblue" stroke="midnightblue" points="656.027,-127.438 666.464,-125.62 657.171,-120.533 656.027,-127.438"/>
</g>
<!-- Node18 -->
<g id="node43" class="node"><title>Node18</title>
<a xlink:href="../../d2/dc9/group__CIP__API.html#gaece1b7dd2aeec306cb33b86b2ee21980" target="_top" xlink:title="Produce the data according to CIP encoding onto the message buffer.">
<polygon fill="none" stroke="black" points="694.5,-67.6493 694.5,-88.6493 765.5,-88.6493 765.5,-67.6493 694.5,-67.6493"/>
<text text-anchor="middle" x="730" y="-75.6493" font-family="Helvetica,sans-Serif" font-size="10.00">EncodeData</text>
</a>
</g>
<!-- Node16&#45;&gt;Node18 -->
<g id="edge50" class="edge"><title>Node16&#45;&gt;Node18</title>
<path fill="none" stroke="midnightblue" d="M603.283,-99.1481C628.625,-94.9486 659.5,-89.8321 684.429,-85.701"/>
<polygon fill="midnightblue" stroke="midnightblue" points="685.071,-89.1424 694.364,-84.0546 683.927,-82.2366 685.071,-89.1424"/>
</g>
<!-- Node23 -->
<g id="node55" class="node"><title>Node23</title>
<a xlink:href="../../d2/dc9/group__CIP__API.html#ga5a14c8d76acacb09312b709bb0a76265" target="_top" xlink:title="Get a pointer to an instance&#39;s attribute.">
<polygon fill="none" stroke="black" points="688,-17.6493 688,-38.6493 772,-38.6493 772,-17.6493 688,-17.6493"/>
<text text-anchor="middle" x="730" y="-25.6493" font-family="Helvetica,sans-Serif" font-size="10.00">GetCipAttribute</text>
</a>
</g>
<!-- Node16&#45;&gt;Node23 -->
<g id="edge64" class="edge"><title>Node16&#45;&gt;Node23</title>
<path fill="none" stroke="midnightblue" d="M603.185,-96.978C611.686,-94.3407 620.278,-91.0984 628,-87.1493 646.292,-77.7938 646.51,-68.9297 664,-58.1493 673.256,-52.4438 683.782,-47.1727 693.665,-42.6925"/>
<polygon fill="midnightblue" stroke="midnightblue" points="695.129,-45.8722 702.882,-38.651 692.318,-39.4614 695.129,-45.8722"/>
</g>
<!-- Node18&#45;&gt;Node18 -->
<g id="edge62" class="edge"><title>Node18&#45;&gt;Node18</title>
<path fill="none" stroke="midnightblue" d="M705.531,-88.8571C695.074,-97.8024 703.23,-107.149 730,-107.149 747.149,-107.149 756.66,-103.313 758.531,-98.2044"/>
<polygon fill="midnightblue" stroke="midnightblue" points="761.665,-96.6335 754.469,-88.8571 755.245,-99.4235 761.665,-96.6335"/>
</g>
<!-- Node19 -->
<g id="node45" class="node"><title>Node19</title>
<a xlink:href="../../d4/d91/group__ENCAP.html#gae267a8684cc6ee1b3bd83df03260b7aa" target="_top" xlink:title="converts UINT8 data from host to little endian an writes it to buffer.">
<polygon fill="none" stroke="black" points="833,-126.649 833,-147.649 935,-147.649 935,-126.649 833,-126.649"/>
<text text-anchor="middle" x="884" y="-134.649" font-family="Helvetica,sans-Serif" font-size="10.00">AddSintToMessage</text>
</a>
</g>
<!-- Node18&#45;&gt;Node19 -->
<g id="edge52" class="edge"><title>Node18&#45;&gt;Node19</title>
<path fill="none" stroke="midnightblue" d="M757.532,-88.6973C782.42,-98.2323 819.265,-112.348 846.774,-122.887"/>
<polygon fill="midnightblue" stroke="midnightblue" points="845.857,-126.284 856.447,-126.593 848.361,-119.747 845.857,-126.284"/>
</g>
<!-- Node20 -->
<g id="node47" class="node"><title>Node20</title>
<a xlink:href="../../d4/d91/group__ENCAP.html#gae689aac2a85bf49fb356ec94c8800799" target="_top" xlink:title="converts UINT16 data from host to little endian an writes it to buffer.">
<polygon fill="none" stroke="black" points="972,-67.6493 972,-88.6493 1068,-88.6493 1068,-67.6493 972,-67.6493"/>
<text text-anchor="middle" x="1020" y="-75.6493" font-family="Helvetica,sans-Serif" font-size="10.00">AddIntToMessage</text>
</a>
</g>
<!-- Node18&#45;&gt;Node20 -->
<g id="edge54" class="edge"><title>Node18&#45;&gt;Node20</title>
<path fill="none" stroke="midnightblue" d="M765.875,-78.5868C785.424,-78.8036 810.041,-79.0416 832,-79.1493 878.222,-79.3758 889.779,-79.4244 936,-79.1493 944.191,-79.1005 952.831,-79.025 961.329,-78.9369"/>
<polygon fill="midnightblue" stroke="midnightblue" points="961.623,-82.4339 971.584,-78.824 961.546,-75.4343 961.623,-82.4339"/>
</g>
<!-- Node21 -->
<g id="node49" class="node"><title>Node21</title>
<a xlink:href="../../d4/d91/group__ENCAP.html#gaafc3c9e3ff582c9b7e438ae2b1fdf822" target="_top" xlink:title="Converts UINT32 data from host to little endian and writes it to buffer.">
<polygon fill="none" stroke="black" points="832.5,-8.64925 832.5,-29.6493 935.5,-29.6493 935.5,-8.64925 832.5,-8.64925"/>
<text text-anchor="middle" x="884" y="-16.6493" font-family="Helvetica,sans-Serif" font-size="10.00">AddDintToMessage</text>
</a>
</g>
<!-- Node18&#45;&gt;Node21 -->
<g id="edge56" class="edge"><title>Node18&#45;&gt;Node21</title>
<path fill="none" stroke="midnightblue" d="M757.532,-67.6012C782.42,-58.0662 819.265,-43.9503 846.774,-33.4111"/>
<polygon fill="midnightblue" stroke="midnightblue" points="848.361,-36.5513 856.447,-29.7052 845.857,-30.0146 848.361,-36.5513"/>
</g>
<!-- Node22 -->
<g id="node51" class="node"><title>Node22</title>
<a xlink:href="../../d2/d3d/cipcommon_8c.html#a6eec1752e2cffbbab16bff95fa145bd3" target="_top" xlink:title="EncodeEPath">
<polygon fill="none" stroke="black" points="845.5,-48.6493 845.5,-69.6493 922.5,-69.6493 922.5,-48.6493 845.5,-48.6493"/>
<text text-anchor="middle" x="884" y="-56.6493" font-family="Helvetica,sans-Serif" font-size="10.00">EncodeEPath</text>
</a>
</g>
<!-- Node18&#45;&gt;Node22 -->
<g id="edge58" class="edge"><title>Node18&#45;&gt;Node22</title>
<path fill="none" stroke="midnightblue" d="M765.718,-73.7425C786.368,-71.1948 812.642,-67.9531 835.18,-65.1725"/>
<polygon fill="midnightblue" stroke="midnightblue" points="835.743,-68.6297 845.239,-63.9315 834.885,-61.6824 835.743,-68.6297"/>
</g>
<!-- Node22&#45;&gt;Node20 -->
<g id="edge60" class="edge"><title>Node22&#45;&gt;Node20</title>
<path fill="none" stroke="midnightblue" d="M922.608,-64.5431C934.749,-66.2391 948.437,-68.1514 961.631,-69.9948"/>
<polygon fill="midnightblue" stroke="midnightblue" points="961.203,-73.4688 971.591,-71.3862 962.171,-66.5361 961.203,-73.4688"/>
</g>
<!-- Node24&#45;&gt;Node23 -->
<g id="edge74" class="edge"><title>Node24&#45;&gt;Node23</title>
<path fill="none" stroke="midnightblue" d="M397.267,-36.5034C418.215,-26.6557 451.427,-12.7259 482,-7.14925 545.836,4.49449 563.445,-0.572876 628,-7.14925 644.683,-8.84876 662.666,-12.0733 678.817,-15.4948"/>
<polygon fill="midnightblue" stroke="midnightblue" points="678.092,-18.9189 688.609,-17.6388 679.589,-12.0809 678.092,-18.9189"/>
</g>
<!-- Node25 -->
<g id="node61" class="node"><title>Node25</title>
<a xlink:href="../../d5/dc5/group__CIP__CALLBACK__API.html#ga5307d18b1bd79f151588391cb4ebf30a" target="_top" xlink:title="Call back function to inform application on received data for an assembly object.">
<polygon fill="none" stroke="black" points="483.5,-56.6493 483.5,-77.6493 626.5,-77.6493 626.5,-56.6493 483.5,-56.6493"/>
<text text-anchor="middle" x="555" y="-64.6493" font-family="Helvetica,sans-Serif" font-size="10.00">AfterAssemblyDataReceived</text>
</a>
</g>
<!-- Node24&#45;&gt;Node25 -->
<g id="edge72" class="edge"><title>Node24&#45;&gt;Node25</title>
<path fill="none" stroke="midnightblue" d="M445.719,-54.939C454.802,-55.9539 464.171,-57.0008 473.427,-58.0349"/>
<polygon fill="midnightblue" stroke="midnightblue" points="473.079,-61.5178 483.406,-59.15 473.857,-54.5611 473.079,-61.5178"/>
</g>
<!-- Node26 -->
<g id="node64" class="node"><title>Node26</title>
<a xlink:href="../../d5/d35/cipconnectionmanager_8c.html#a2ca3eb3dc7fe805b410d849612720b4c" target="_top" xlink:title="IsConnectedOutputAssembly">
<polygon fill="none" stroke="black" points="482.5,-16.6493 482.5,-37.6493 627.5,-37.6493 627.5,-16.6493 482.5,-16.6493"/>
<text text-anchor="middle" x="555" y="-24.6493" font-family="Helvetica,sans-Serif" font-size="10.00">IsConnectedOutputAssembly</text>
</a>
</g>
<!-- Node24&#45;&gt;Node26 -->
<g id="edge76" class="edge"><title>Node24&#45;&gt;Node26</title>
<path fill="none" stroke="midnightblue" d="M445.719,-39.3595C454.42,-38.3872 463.384,-37.3857 472.259,-36.3941"/>
<polygon fill="midnightblue" stroke="midnightblue" points="472.673,-39.8697 482.222,-35.2809 471.895,-32.913 472.673,-39.8697"/>
</g>
</g>
</svg>
        <g id="navigator" transform="translate(0 0)" fill="#404254">
                <rect fill="#f2f5e9" fill-opacity="0.5" stroke="#606060" stroke-width=".5" x="0" y="0" width="60" height="60"/>
                <use id="zoomplus" xlink:href="#zoomPlus" x="17" y="9" onmousedown="handleZoom(evt,'in')"/>
                <use id="zoomminus" xlink:href="#zoomMin" x="42" y="9" onmousedown="handleZoom(evt,'out')"/>
                <use id="reset" xlink:href="#resetDef" x="30" y="36" onmousedown="handleReset()"/>
                <g id="arrowUp" xlink:href="#dirArrow" transform="translate(30 24)" onmousedown="handlePan(0,-1)">
                  <use xlink:href="#rim" fill="#404040">
                        <set attributeName="fill" to="#808080" begin="arrowUp.mouseover" end="arrowUp.mouseout"/>
                  </use>
                  <path fill="none" stroke="white" stroke-width="1.5" d="M0,-3.0v7 M-2.5,-0.5L0,-3.0L2.5,-0.5"/>
                </g>
                <g id="arrowRight" xlink:href="#dirArrow" transform="rotate(90) translate(36 -43)" onmousedown="handlePan(1,0)">
                  <use xlink:href="#rim" fill="#404040">
                        <set attributeName="fill" to="#808080" begin="arrowRight.mouseover" end="arrowRight.mouseout"/>
                  </use>
                  <path fill="none" stroke="white" stroke-width="1.5" d="M0,-3.0v7 M-2.5,-0.5L0,-3.0L2.5,-0.5"/>
                </g>
                <g id="arrowDown" xlink:href="#dirArrow" transform="rotate(180) translate(-30 -48)" onmousedown="handlePan(0,1)">
                  <use xlink:href="#rim" fill="#404040">
                        <set attributeName="fill" to="#808080" begin="arrowDown.mouseover" end="arrowDown.mouseout"/>
                  </use>
                  <path fill="none" stroke="white" stroke-width="1.5" d="M0,-3.0v7 M-2.5,-0.5L0,-3.0L2.5,-0.5"/>
                </g>
                <g id="arrowLeft" xlink:href="#dirArrow" transform="rotate(270) translate(-36 17)" onmousedown="handlePan(-1,0)">
                  <use xlink:href="#rim" fill="#404040">
                        <set attributeName="fill" to="#808080" begin="arrowLeft.mouseover" end="arrowLeft.mouseout"/>
                  </use>
                  <path fill="none" stroke="white" stroke-width="1.5" d="M0,-3.0v7 M-2.5,-0.5L0,-3.0L2.5,-0.5"/>
                </g>
        </g>
</svg>
