<?xml version="1.0" encoding="UTF-8" standalone="no"?>
<!DOCTYPE svg PUBLIC "-//W3C//DTD SVG 1.1//EN"
 "http://www.w3.org/Graphics/SVG/1.1/DTD/svg11.dtd">
<!-- Generated by graphviz version 2.26.3 (20100126.1600)
 -->
<!-- Title: G Pages: 1 -->
<!--zoomable 290 -->
<svg id="main" version="1.1" xmlns="http://www.w3.org/2000/svg" xmlns:xlink="http://www.w3.org/1999/xlink" xml:space="preserve" onload="init(evt)">
        <defs>
                <circle id="rim" cx="0" cy="0" r="7"/>
                <circle id="rim2" cx="0" cy="0" r="3.5"/>
                <g id="zoomPlus">
                        <use xlink:href="#rim" fill="#404040">
                                <set attributeName="fill" to="#808080" begin="zoomplus.mouseover" end="zoomplus.mouseout"/>
                        </use>
                        <path d="M-4,0h8M0,-4v8" fill="none" stroke="white" stroke-width="1.5" pointer-events="none"/>
                </g>
                <g id="zoomMin">
                        <use xlink:href="#rim" fill="#404040">
                                <set attributeName="fill" to="#808080" begin="zoomminus.mouseover" end="zoomminus.mouseout"/>
                        </use>
                        <path d="M-4,0h8" fill="none" stroke="white" stroke-width="1.5" pointer-events="none"/>
                </g>
                <g id="dirArrow">
                        <path fill="none" stroke="white" stroke-width="1.5" d="M0,-3.0v7 M-2.5,-0.5L0,-3.0L2.5,-0.5"/>
                </g>
               <g id="resetDef">
                       <use xlink:href="#rim2" fill="#404040">
                               <set attributeName="fill" to="#808080" begin="reset.mouseover" end="reset.mouseout"/>
                       </use>
               </g>
        </defs>

<script type="text/javascript">
var viewWidth = 784;
var viewHeight = 290;
var sectionId = 'dynsection-42';
</script>
<script xlink:href="../../svgpan.js"/>
<svg id="graph" class="graph">
<g id="viewport">
<title>G</title>
<!-- Node1 -->
<g id="node1" class="node"><title>Node1</title>
<polygon fill="#bfbfbf" stroke="black" points="0.5,-180.5 0.5,-201.5 101.5,-201.5 101.5,-180.5 0.5,-180.5"/>
<text text-anchor="middle" x="51" y="-188.5" font-family="Helvetica,sans-Serif" font-size="10.00">ShutdownCipStack</text>
</g>
<!-- Node2 -->
<g id="node3" class="node"><title>Node2</title>
<a xlink:href="../../d1/dbc/appcontype_8c.html#a18d2a32030faf1d5e3d48e610b1c4fe7" target="_top" xlink:title="CloseAllConnections">
<polygon fill="none" stroke="black" points="146,-260.5 146,-281.5 254,-281.5 254,-260.5 146,-260.5"/>
<text text-anchor="middle" x="200" y="-268.5" font-family="Helvetica,sans-Serif" font-size="10.00">CloseAllConnections</text>
</a>
</g>
<!-- Node1&#45;&gt;Node2 -->
<g id="edge2" class="edge"><title>Node1&#45;&gt;Node2</title>
<path fill="none" stroke="midnightblue" d="M63.8106,-201.634C80.1502,-214.76 109.693,-237.049 138,-251 142.337,-253.137 146.954,-255.119 151.638,-256.936"/>
<polygon fill="midnightblue" stroke="midnightblue" points="150.68,-260.312 161.275,-260.435 153.069,-253.733 150.68,-260.312"/>
</g>
<!-- Node3 -->
<g id="node5" class="node"><title>Node3</title>
<a xlink:href="../../d9/d7d/cipmessagerouter_8c.html#a16364f408990e2a5725f2fd5375ef3df" target="_top" xlink:title="Free all data allocated by the classes created in the CIP stack.">
<polygon fill="none" stroke="black" points="154,-220.5 154,-241.5 246,-241.5 246,-220.5 154,-220.5"/>
<text text-anchor="middle" x="200" y="-228.5" font-family="Helvetica,sans-Serif" font-size="10.00">DeleteAllClasses</text>
</a>
</g>
<!-- Node1&#45;&gt;Node3 -->
<g id="edge4" class="edge"><title>Node1&#45;&gt;Node3</title>
<path fill="none" stroke="midnightblue" d="M90.148,-201.51C108.81,-206.519 131.324,-212.563 151.099,-217.872"/>
<polygon fill="midnightblue" stroke="midnightblue" points="150.29,-221.279 160.855,-220.491 152.105,-214.518 150.29,-221.279"/>
</g>
<!-- Node5 -->
<g id="node9" class="node"><title>Node5</title>
<a xlink:href="../../d4/d91/group__ENCAP.html#ga1261bd2441f744c38d7a3f8d8c16c391" target="_top" xlink:title="Shutdown the encapsulation layer.">
<polygon fill="none" stroke="black" points="138,-80.5 138,-101.5 262,-101.5 262,-80.5 138,-80.5"/>
<text text-anchor="middle" x="200" y="-88.5" font-family="Helvetica,sans-Serif" font-size="10.00">EncapsulationShutDown</text>
</a>
</g>
<!-- Node1&#45;&gt;Node5 -->
<g id="edge8" class="edge"><title>Node1&#45;&gt;Node5</title>
<path fill="none" stroke="midnightblue" d="M65.9923,-180.453C83.2543,-168.357 112.511,-148.006 138,-131 150.023,-122.978 163.493,-114.257 174.798,-107.011"/>
<polygon fill="midnightblue" stroke="midnightblue" points="176.789,-109.892 183.331,-101.558 173.02,-103.994 176.789,-109.892"/>
</g>
<!-- Node12 -->
<g id="node23" class="node"><title>Node12</title>
<a xlink:href="../../df/d2e/cipassembly_8c.html#adcacd62b6a866c5c74c3cdda19598b98" target="_top" xlink:title="clean up the data allocated in the assembly object instances">
<polygon fill="none" stroke="black" points="144.5,-140.5 144.5,-161.5 255.5,-161.5 255.5,-140.5 144.5,-140.5"/>
<text text-anchor="middle" x="200" y="-148.5" font-family="Helvetica,sans-Serif" font-size="10.00">ShutdownAssemblies</text>
</a>
</g>
<!-- Node1&#45;&gt;Node12 -->
<g id="edge22" class="edge"><title>Node1&#45;&gt;Node12</title>
<path fill="none" stroke="midnightblue" d="M90.148,-180.49C108.81,-175.481 131.324,-169.437 151.099,-164.128"/>
<polygon fill="midnightblue" stroke="midnightblue" points="152.105,-167.482 160.855,-161.509 150.29,-160.721 152.105,-167.482"/>
</g>
<!-- Node16 -->
<g id="node32" class="node"><title>Node16</title>
<a xlink:href="../../dd/d20/ciptcpipinterface_8c.html#a523c7909b1d929c0b9b288802189d391" target="_top" xlink:title="Clean up the allocated data of the TCP/IP interface object.">
<polygon fill="none" stroke="black" points="138.5,-180.5 138.5,-201.5 261.5,-201.5 261.5,-180.5 138.5,-180.5"/>
<text text-anchor="middle" x="200" y="-188.5" font-family="Helvetica,sans-Serif" font-size="10.00">ShutdownTcpIpInterface</text>
</a>
</g>
<!-- Node1&#45;&gt;Node16 -->
<g id="edge32" class="edge"><title>Node1&#45;&gt;Node16</title>
<path fill="none" stroke="midnightblue" d="M101.861,-191C110.375,-191 119.348,-191 128.269,-191"/>
<polygon fill="midnightblue" stroke="midnightblue" points="128.291,-194.5 138.291,-191 128.291,-187.5 128.291,-194.5"/>
</g>
<!-- Node4 -->
<g id="node7" class="node"><title>Node4</title>
<a xlink:href="../../d5/dc5/group__CIP__CALLBACK__API.html#ga729165f94320800eb9537def5a0e6af8" target="_top" xlink:title="Free memory allocated by the OpENer.">
<polygon fill="none" stroke="black" points="317.5,-200.5 317.5,-221.5 368.5,-221.5 368.5,-200.5 317.5,-200.5"/>
<text text-anchor="middle" x="343" y="-208.5" font-family="Helvetica,sans-Serif" font-size="10.00">CipFree</text>
</a>
</g>
<!-- Node3&#45;&gt;Node4 -->
<g id="edge6" class="edge"><title>Node3&#45;&gt;Node4</title>
<path fill="none" stroke="midnightblue" d="M246.033,-224.562C265.919,-221.781 288.828,-218.577 307.383,-215.981"/>
<polygon fill="midnightblue" stroke="midnightblue" points="308.054,-219.422 317.473,-214.57 307.085,-212.489 308.054,-219.422"/>
</g>
<!-- Node6 -->
<g id="node11" class="node"><title>Node6</title>
<a xlink:href="../../db/d4f/generic__networkhandler_8c.html#a1bfa5ef8e4802716459a56567ee16592" target="_top" xlink:title="CloseTcpSocket">
<polygon fill="none" stroke="black" points="298.5,-80.5 298.5,-101.5 387.5,-101.5 387.5,-80.5 298.5,-80.5"/>
<text text-anchor="middle" x="343" y="-88.5" font-family="Helvetica,sans-Serif" font-size="10.00">CloseTcpSocket</text>
</a>
</g>
<!-- Node5&#45;&gt;Node6 -->
<g id="edge10" class="edge"><title>Node5&#45;&gt;Node6</title>
<path fill="none" stroke="midnightblue" d="M262.306,-91C270.867,-91 279.607,-91 288.024,-91"/>
<polygon fill="midnightblue" stroke="midnightblue" points="288.097,-94.5001 298.097,-91 288.097,-87.5001 288.097,-94.5001"/>
</g>
<!-- Node7 -->
<g id="node13" class="node"><title>Node7</title>
<a xlink:href="../../d5/dc5/group__CIP__CALLBACK__API.html#gaf4d26c1bca26c2e6e73481d57762df36" target="_top" xlink:title="Close the given socket and clean up the stack.">
<polygon fill="none" stroke="black" points="461.5,-80.5 461.5,-101.5 534.5,-101.5 534.5,-80.5 461.5,-80.5"/>
<text text-anchor="middle" x="498" y="-88.5" font-family="Helvetica,sans-Serif" font-size="10.00">CloseSocket</text>
</a>
</g>
<!-- Node6&#45;&gt;Node7 -->
<g id="edge12" class="edge"><title>Node6&#45;&gt;Node7</title>
<path fill="none" stroke="midnightblue" d="M387.832,-91C407.704,-91 431.084,-91 451.18,-91"/>
<polygon fill="midnightblue" stroke="midnightblue" points="451.355,-94.5001 461.355,-91 451.355,-87.5001 451.355,-94.5001"/>
</g>
<!-- Node9 -->
<g id="node17" class="node"><title>Node9</title>
<a xlink:href="../../db/d4f/generic__networkhandler_8c.html#aea539a75995234e379a1c25019ba378f" target="_top" xlink:title="RemoveSocketTimerFromList">
<polygon fill="none" stroke="black" points="424.5,-40.5 424.5,-61.5 571.5,-61.5 571.5,-40.5 424.5,-40.5"/>
<text text-anchor="middle" x="498" y="-48.5" font-family="Helvetica,sans-Serif" font-size="10.00">RemoveSocketTimerFromList</text>
</a>
</g>
<!-- Node6&#45;&gt;Node9 -->
<g id="edge16" class="edge"><title>Node6&#45;&gt;Node9</title>
<path fill="none" stroke="midnightblue" d="M383.724,-80.4905C403.226,-75.4578 426.772,-69.3814 447.411,-64.0552"/>
<polygon fill="midnightblue" stroke="midnightblue" points="448.471,-67.3965 457.279,-61.5087 446.721,-60.6186 448.471,-67.3965"/>
</g>
<!-- Node8 -->
<g id="node15" class="node"><title>Node8</title>
<a xlink:href="../../d2/d5e/POSIX_2networkhandler_8c.html#a2812ba0ecd1fd9a5549fbca397d76e3e" target="_top" xlink:title="Platform dependent code to close a socket.">
<polygon fill="none" stroke="black" points="637,-80.5 637,-101.5 747,-101.5 747,-80.5 637,-80.5"/>
<text text-anchor="middle" x="692" y="-88.5" font-family="Helvetica,sans-Serif" font-size="10.00">CloseSocketPlatform</text>
</a>
</g>
<!-- Node7&#45;&gt;Node8 -->
<g id="edge14" class="edge"><title>Node7&#45;&gt;Node8</title>
<path fill="none" stroke="midnightblue" d="M534.947,-91C560.825,-91 596.104,-91 626.67,-91"/>
<polygon fill="midnightblue" stroke="midnightblue" points="626.835,-94.5001 636.835,-91 626.835,-87.5001 626.835,-94.5001"/>
</g>
<!-- Node10 -->
<g id="node19" class="node"><title>Node10</title>
<a xlink:href="../../d4/df6/socket__timer_8c.html#abe7542fdec4d4e4893a8c712192529ca" target="_top" xlink:title="Get the Socket Timer entry with the spezified socket value.">
<polygon fill="none" stroke="black" points="608.5,-40.5 608.5,-61.5 775.5,-61.5 775.5,-40.5 608.5,-40.5"/>
<text text-anchor="middle" x="692" y="-48.5" font-family="Helvetica,sans-Serif" font-size="10.00">SocketTimerArrayGetSocketTimer</text>
</a>
</g>
<!-- Node9&#45;&gt;Node10 -->
<g id="edge18" class="edge"><title>Node9&#45;&gt;Node10</title>
<path fill="none" stroke="midnightblue" d="M571.62,-51C580.342,-51 589.333,-51 598.286,-51"/>
<polygon fill="midnightblue" stroke="midnightblue" points="598.363,-54.5001 608.363,-51 598.363,-47.5001 598.363,-54.5001"/>
</g>
<!-- Node11 -->
<g id="node21" class="node"><title>Node11</title>
<a xlink:href="../../d4/df6/socket__timer_8c.html#a6130830815ae46fe4e6d45cf89bc3506" target="_top" xlink:title="Clears a Socket Timer entry.">
<polygon fill="none" stroke="black" points="644.5,-0.5 644.5,-21.5 739.5,-21.5 739.5,-0.5 644.5,-0.5"/>
<text text-anchor="middle" x="692" y="-8.5" font-family="Helvetica,sans-Serif" font-size="10.00">SocketTimerClear</text>
</a>
</g>
<!-- Node9&#45;&gt;Node11 -->
<g id="edge20" class="edge"><title>Node9&#45;&gt;Node11</title>
<path fill="none" stroke="midnightblue" d="M548.971,-40.4905C575.152,-35.0924 607.156,-28.4936 634.248,-22.9077"/>
<polygon fill="midnightblue" stroke="midnightblue" points="635.28,-26.2685 644.368,-20.8211 633.867,-19.4127 635.28,-26.2685"/>
</g>
<!-- Node12&#45;&gt;Node4 -->
<g id="edge24" class="edge"><title>Node12&#45;&gt;Node4</title>
<path fill="none" stroke="midnightblue" d="M236.83,-161.574C245.22,-164.341 254.012,-167.532 262,-171 278.79,-178.289 281.621,-182.831 298,-191 301.514,-192.753 305.217,-194.521 308.926,-196.242"/>
<polygon fill="midnightblue" stroke="midnightblue" points="307.506,-199.441 318.058,-200.388 310.4,-193.067 307.506,-199.441"/>
</g>
<!-- Node13 -->
<g id="node26" class="node"><title>Node13</title>
<a xlink:href="../../d2/dc9/group__CIP__API.html#ga5a14c8d76acacb09312b709bb0a76265" target="_top" xlink:title="Get a pointer to an instance&#39;s attribute.">
<polygon fill="none" stroke="black" points="301,-160.5 301,-181.5 385,-181.5 385,-160.5 301,-160.5"/>
<text text-anchor="middle" x="343" y="-168.5" font-family="Helvetica,sans-Serif" font-size="10.00">GetCipAttribute</text>
</a>
</g>
<!-- Node12&#45;&gt;Node13 -->
<g id="edge26" class="edge"><title>Node12&#45;&gt;Node13</title>
<path fill="none" stroke="midnightblue" d="M255.697,-158.79C267.225,-160.402 279.33,-162.095 290.73,-163.69"/>
<polygon fill="midnightblue" stroke="midnightblue" points="290.577,-167.202 300.965,-165.121 291.546,-160.27 290.577,-167.202"/>
</g>
<!-- Node14 -->
<g id="node28" class="node"><title>Node14</title>
<a xlink:href="../../d2/dc9/group__CIP__API.html#ga98bd609c80ece316406363575b4a89ea" target="_top" xlink:title="Get a pointer to a CIP object with given class code.">
<polygon fill="none" stroke="black" points="306.5,-120.5 306.5,-141.5 379.5,-141.5 379.5,-120.5 306.5,-120.5"/>
<text text-anchor="middle" x="343" y="-128.5" font-family="Helvetica,sans-Serif" font-size="10.00">GetCipClass</text>
</a>
</g>
<!-- Node12&#45;&gt;Node14 -->
<g id="edge28" class="edge"><title>Node12&#45;&gt;Node14</title>
<path fill="none" stroke="midnightblue" d="M255.697,-143.21C269.063,-141.341 283.205,-139.363 296.124,-137.556"/>
<polygon fill="midnightblue" stroke="midnightblue" points="296.767,-141 306.186,-136.149 295.797,-134.068 296.767,-141"/>
</g>
<!-- Node15 -->
<g id="node30" class="node"><title>Node15</title>
<a xlink:href="../../d9/d7d/cipmessagerouter_8c.html#a7a9f44f2d6f010b6f6ee922d378d9bb1" target="_top" xlink:title="Get the registered MessageRouter object corresponding to ClassID. given a class ID, return a pointer to the registration node for that object.">
<polygon fill="none" stroke="black" points="444,-120.5 444,-141.5 552,-141.5 552,-120.5 444,-120.5"/>
<text text-anchor="middle" x="498" y="-128.5" font-family="Helvetica,sans-Serif" font-size="10.00">GetRegisteredObject</text>
</a>
</g>
<!-- Node14&#45;&gt;Node15 -->
<g id="edge30" class="edge"><title>Node14&#45;&gt;Node15</title>
<path fill="none" stroke="midnightblue" d="M379.733,-131C395.897,-131 415.369,-131 433.806,-131"/>
<polygon fill="midnightblue" stroke="midnightblue" points="433.914,-134.5 443.914,-131 433.914,-127.5 433.914,-134.5"/>
</g>
<!-- Node16&#45;&gt;Node4 -->
<g id="edge34" class="edge"><title>Node16&#45;&gt;Node4</title>
<path fill="none" stroke="midnightblue" d="M261.89,-199.656C277.409,-201.826 293.543,-204.083 307.296,-206.006"/>
<polygon fill="midnightblue" stroke="midnightblue" points="306.911,-209.487 317.299,-207.405 307.88,-202.554 306.911,-209.487"/>
</g>
</g>
</svg>
        <g id="navigator" transform="translate(0 0)" fill="#404254">
                <rect fill="#f2f5e9" fill-opacity="0.5" stroke="#606060" stroke-width=".5" x="0" y="0" width="60" height="60"/>
                <use id="zoomplus" xlink:href="#zoomPlus" x="17" y="9" onmousedown="handleZoom(evt,'in')"/>
                <use id="zoomminus" xlink:href="#zoomMin" x="42" y="9" onmousedown="handleZoom(evt,'out')"/>
                <use id="reset" xlink:href="#resetDef" x="30" y="36" onmousedown="handleReset()"/>
                <g id="arrowUp" xlink:href="#dirArrow" transform="translate(30 24)" onmousedown="handlePan(0,-1)">
                  <use xlink:href="#rim" fill="#404040">
                        <set attributeName="fill" to="#808080" begin="arrowUp.mouseover" end="arrowUp.mouseout"/>
                  </use>
                  <path fill="none" stroke="white" stroke-width="1.5" d="M0,-3.0v7 M-2.5,-0.5L0,-3.0L2.5,-0.5"/>
                </g>
                <g id="arrowRight" xlink:href="#dirArrow" transform="rotate(90) translate(36 -43)" onmousedown="handlePan(1,0)">
                  <use xlink:href="#rim" fill="#404040">
                        <set attributeName="fill" to="#808080" begin="arrowRight.mouseover" end="arrowRight.mouseout"/>
                  </use>
                  <path fill="none" stroke="white" stroke-width="1.5" d="M0,-3.0v7 M-2.5,-0.5L0,-3.0L2.5,-0.5"/>
                </g>
                <g id="arrowDown" xlink:href="#dirArrow" transform="rotate(180) translate(-30 -48)" onmousedown="handlePan(0,1)">
                  <use xlink:href="#rim" fill="#404040">
                        <set attributeName="fill" to="#808080" begin="arrowDown.mouseover" end="arrowDown.mouseout"/>
                  </use>
                  <path fill="none" stroke="white" stroke-width="1.5" d="M0,-3.0v7 M-2.5,-0.5L0,-3.0L2.5,-0.5"/>
                </g>
                <g id="arrowLeft" xlink:href="#dirArrow" transform="rotate(270) translate(-36 17)" onmousedown="handlePan(-1,0)">
                  <use xlink:href="#rim" fill="#404040">
                        <set attributeName="fill" to="#808080" begin="arrowLeft.mouseover" end="arrowLeft.mouseout"/>
                  </use>
                  <path fill="none" stroke="white" stroke-width="1.5" d="M0,-3.0v7 M-2.5,-0.5L0,-3.0L2.5,-0.5"/>
                </g>
        </g>
</svg>
