<?xml version="1.0" encoding="UTF-8" standalone="no"?>
<!DOCTYPE svg PUBLIC "-//W3C//DTD SVG 1.1//EN"
 "http://www.w3.org/Graphics/SVG/1.1/DTD/svg11.dtd">
<!-- Generated by graphviz version 2.36.0 (20140111.2315)
 -->
<!-- Title: GetCipClass Pages: 1 -->
<!--zoomable 370 -->
<svg id="main" version="1.1" xmlns="http://www.w3.org/2000/svg" xmlns:xlink="http://www.w3.org/1999/xlink" xml:space="preserve" onload="init(evt)">
<style type="text/css"><![CDATA[
.edge:hover path { stroke: red; }
.edge:hover polygon { stroke: red; fill: red; }
]]></style>
<script type="text/javascript"><![CDATA[
var edges = document.getElementsByTagName('g');
if (edges && edges.length) {
  for (var i=0;i<edges.length;i++) {
    if (edges[i].id.substr(0,4)=='edge') {
      edges[i].setAttribute('class','edge');
    }
  }
}
]]></script>
        <defs>
                <circle id="rim" cx="0" cy="0" r="7"/>
                <circle id="rim2" cx="0" cy="0" r="3.5"/>
                <g id="zoomPlus">
                        <use xlink:href="#rim" fill="#404040">
                                <set attributeName="fill" to="#808080" begin="zoomplus.mouseover" end="zoomplus.mouseout"/>
                        </use>
                        <path d="M-4,0h8M0,-4v8" fill="none" stroke="white" stroke-width="1.5" pointer-events="none"/>
                </g>
                <g id="zoomMin">
                        <use xlink:href="#rim" fill="#404040">
                                <set attributeName="fill" to="#808080" begin="zoomminus.mouseover" end="zoomminus.mouseout"/>
                        </use>
                        <path d="M-4,0h8" fill="none" stroke="white" stroke-width="1.5" pointer-events="none"/>
                </g>
                <g id="dirArrow">
                        <path fill="none" stroke="white" stroke-width="1.5" d="M0,-3.0v7 M-2.5,-0.5L0,-3.0L2.5,-0.5"/>
                </g>
               <g id="resetDef">
                       <use xlink:href="#rim2" fill="#404040">
                               <set attributeName="fill" to="#808080" begin="reset.mouseover" end="reset.mouseout"/>
                       </use>
               </g>
        </defs>

<script type="text/javascript">
var viewWidth = 792;
var viewHeight = 370;
var sectionId = 'dynsection-28';
</script>
<script xlink:href="../../svgpan.js"/>
<svg id="graph" class="graph">
<g id="viewport">
<title>GetCipClass</title>
<!-- Node1 -->
<g id="node1" class="node"><title>Node1</title>
<polygon fill="#bfbfbf" stroke="black" points="0.5,-122.5 0.5,-141.5 73.5,-141.5 73.5,-122.5 0.5,-122.5"/>
<text text-anchor="middle" x="37" y="-129.5" font-family="Helvetica,sans-Serif" font-size="10.00">GetCipClass</text>
</g>
<!-- Node2 -->
<g id="node2" class="node"><title>Node2</title>
<g id="a_node2"><a xlink:href="../../d2/dc9/group__CIP__API.html#gae61b613fed863d30428e78b2311bf593" target="_top" xlink:title="Create an instance of an assembly object. ">
<polygon fill="none" stroke="black" points="440,-304.5 440,-323.5 558,-323.5 558,-304.5 440,-304.5"/>
<text text-anchor="middle" x="499" y="-311.5" font-family="Helvetica,sans-Serif" font-size="10.00">CreateAssemblyObject</text>
</a>
</g>
</g>
<!-- Node1&#45;&gt;Node2 -->
<g id="edge1" class="edge"><title>Node1&#45;&gt;Node2</title>
<path fill="none" stroke="midnightblue" d="M56.2942,-148.602C95.4152,-182.976 191.523,-261.522 288,-295 337.283,-312.101 396.768,-316.051 439.828,-316.192"/>
<polygon fill="midnightblue" stroke="midnightblue" points="58.2187,-145.629 48.4203,-141.599 53.5667,-150.86 58.2187,-145.629"/>
</g>
<!-- Node4 -->
<g id="node4" class="node"><title>Node4</title>
<g id="a_node4"><a xlink:href="../../d2/d3d/cipcommon_8c.html#a3dfa07bc40e59ba348d713272d1cbfdb" target="_top" xlink:title="CreateCipClass">
<polygon fill="none" stroke="black" points="138,-145.5 138,-164.5 224,-164.5 224,-145.5 138,-145.5"/>
<text text-anchor="middle" x="181" y="-152.5" font-family="Helvetica,sans-Serif" font-size="10.00">CreateCipClass</text>
</a>
</g>
</g>
<!-- Node1&#45;&gt;Node4 -->
<g id="edge3" class="edge"><title>Node1&#45;&gt;Node4</title>
<path fill="none" stroke="midnightblue" d="M83.76,-139.412C101.14,-142.227 120.84,-145.418 137.87,-148.176"/>
<polygon fill="midnightblue" stroke="midnightblue" points="84.2636,-135.948 73.8326,-137.804 83.1443,-142.858 84.2636,-135.948"/>
</g>
<!-- Node15 -->
<g id="node15" class="node"><title>Node15</title>
<g id="a_node15"><a xlink:href="../../df/d03/cipioconnection_8c.html#a68b99df85d462657b12a854316c168f5" target="_top" xlink:title="HandleConfigData">
<polygon fill="none" stroke="black" points="132.5,-1.5 132.5,-20.5 229.5,-20.5 229.5,-1.5 132.5,-1.5"/>
<text text-anchor="middle" x="181" y="-8.5" font-family="Helvetica,sans-Serif" font-size="10.00">HandleConfigData</text>
</a>
</g>
</g>
<!-- Node1&#45;&gt;Node15 -->
<g id="edge21" class="edge"><title>Node1&#45;&gt;Node15</title>
<path fill="none" stroke="midnightblue" d="M47.0859,-113.372C58.7348,-91.3568 80.948,-55.0628 110,-34 117.974,-28.2185 127.485,-23.8341 136.885,-20.5294"/>
<polygon fill="midnightblue" stroke="midnightblue" points="43.9188,-111.878 42.4904,-122.376 50.1538,-115.06 43.9188,-111.878"/>
</g>
<!-- Node17 -->
<g id="node17" class="node"><title>Node17</title>
<g id="a_node17"><a xlink:href="../../df/d03/cipioconnection_8c.html#ac00a39ab755db54e4abf917618ff9849" target="_top" xlink:title="SetupIoConnectionOriginator\lToTargetConnectionPoint">
<polygon fill="none" stroke="black" points="110,-95 110,-125 252,-125 252,-95 110,-95"/>
<text text-anchor="start" x="118" y="-113" font-family="Helvetica,sans-Serif" font-size="10.00">SetupIoConnectionOriginator</text>
<text text-anchor="middle" x="181" y="-102" font-family="Helvetica,sans-Serif" font-size="10.00">ToTargetConnectionPoint</text>
</a>
</g>
</g>
<!-- Node1&#45;&gt;Node17 -->
<g id="edge24" class="edge"><title>Node1&#45;&gt;Node17</title>
<path fill="none" stroke="midnightblue" d="M83.721,-124.916C92.0767,-123.622 100.97,-122.244 109.845,-120.869"/>
<polygon fill="midnightblue" stroke="midnightblue" points="83.1788,-121.459 73.8326,-126.448 84.2506,-128.376 83.1788,-121.459"/>
</g>
<!-- Node18 -->
<g id="node18" class="node"><title>Node18</title>
<g id="a_node18"><a xlink:href="../../df/d03/cipioconnection_8c.html#a4efa3b0cf11b363c8c5f4f8c8070b43f" target="_top" xlink:title="SetupIoConnectionTargetTo\lOriginatorConnectionPoint">
<polygon fill="none" stroke="black" points="111.5,-44 111.5,-74 250.5,-74 250.5,-44 111.5,-44"/>
<text text-anchor="start" x="119.5" y="-62" font-family="Helvetica,sans-Serif" font-size="10.00">SetupIoConnectionTargetTo</text>
<text text-anchor="middle" x="181" y="-51" font-family="Helvetica,sans-Serif" font-size="10.00">OriginatorConnectionPoint</text>
</a>
</g>
</g>
<!-- Node1&#45;&gt;Node18 -->
<g id="edge26" class="edge"><title>Node1&#45;&gt;Node18</title>
<path fill="none" stroke="midnightblue" d="M59.1355,-116.403C73.0992,-106.559 92.068,-94.0408 110,-85 117.872,-81.0313 126.5,-77.3365 134.929,-74.0501"/>
<polygon fill="midnightblue" stroke="midnightblue" points="56.8292,-113.75 50.7433,-122.423 60.9091,-119.438 56.8292,-113.75"/>
</g>
<!-- Node19 -->
<g id="node19" class="node"><title>Node19</title>
<g id="a_node19"><a xlink:href="../../de/df4/cipassembly_8h.html#adcacd62b6a866c5c74c3cdda19598b98" target="_top" xlink:title="clean up the data allocated in the assembly object instances ">
<polygon fill="none" stroke="black" points="443.5,-342.5 443.5,-361.5 554.5,-361.5 554.5,-342.5 443.5,-342.5"/>
<text text-anchor="middle" x="499" y="-349.5" font-family="Helvetica,sans-Serif" font-size="10.00">ShutdownAssemblies</text>
</a>
</g>
</g>
<!-- Node1&#45;&gt;Node19 -->
<g id="edge28" class="edge"><title>Node1&#45;&gt;Node19</title>
<path fill="none" stroke="midnightblue" d="M44.8096,-151.121C55.0666,-177.349 76.8758,-224.371 110,-252 206.956,-332.871 361.463,-349.335 443.18,-352.069"/>
<polygon fill="midnightblue" stroke="midnightblue" points="48.0164,-149.704 41.2286,-141.569 41.4619,-152.162 48.0164,-149.704"/>
</g>
<!-- Node3 -->
<g id="node3" class="node"><title>Node3</title>
<g id="a_node3"><a xlink:href="../../d5/dc5/group__CIP__CALLBACK__API.html#gae93106eb1647bff3ad56a7752799d878" target="_top" xlink:title="Callback for the application initialization. ">
<polygon fill="none" stroke="black" points="594,-304.5 594,-323.5 710,-323.5 710,-304.5 594,-304.5"/>
<text text-anchor="middle" x="652" y="-311.5" font-family="Helvetica,sans-Serif" font-size="10.00">ApplicationInitialization</text>
</a>
</g>
</g>
<!-- Node2&#45;&gt;Node3 -->
<g id="edge2" class="edge"><title>Node2&#45;&gt;Node3</title>
<path fill="none" stroke="midnightblue" d="M568.571,-314C576.995,-314 585.536,-314 593.769,-314"/>
<polygon fill="midnightblue" stroke="midnightblue" points="568.381,-310.5 558.381,-314 568.381,-317.5 568.381,-310.5"/>
</g>
<!-- Node5 -->
<g id="node5" class="node"><title>Node5</title>
<g id="a_node5"><a xlink:href="../../dd/d4d/cipethernetlink_8h.html#ad6d2028b90ec96ad148d092a30acb7d6" target="_top" xlink:title="Initialize the Ethernet Link Objects data. ">
<polygon fill="none" stroke="black" points="449,-152.5 449,-171.5 549,-171.5 549,-152.5 449,-152.5"/>
<text text-anchor="middle" x="499" y="-159.5" font-family="Helvetica,sans-Serif" font-size="10.00">CipEthernetLinkInit</text>
</a>
</g>
</g>
<!-- Node4&#45;&gt;Node5 -->
<g id="edge4" class="edge"><title>Node4&#45;&gt;Node5</title>
<path fill="none" stroke="midnightblue" d="M234.622,-156.166C294.292,-157.487 390.813,-159.626 448.959,-160.914"/>
<polygon fill="midnightblue" stroke="midnightblue" points="234.364,-152.659 224.289,-155.937 234.209,-159.657 234.364,-152.659"/>
</g>
<!-- Node8 -->
<g id="node8" class="node"><title>Node8</title>
<g id="a_node8"><a xlink:href="../../dc/d72/cipidentity_8h.html#a5d5136e167300543aa046057b56ae813" target="_top" xlink:title="CIP Identity object constructor. ">
<polygon fill="none" stroke="black" points="460.5,-114.5 460.5,-133.5 537.5,-133.5 537.5,-114.5 460.5,-114.5"/>
<text text-anchor="middle" x="499" y="-121.5" font-family="Helvetica,sans-Serif" font-size="10.00">CipIdentityInit</text>
</a>
</g>
</g>
<!-- Node4&#45;&gt;Node8 -->
<g id="edge7" class="edge"><title>Node4&#45;&gt;Node8</title>
<path fill="none" stroke="midnightblue" d="M234.531,-149.847C298.298,-143.591 404.249,-133.197 460.396,-127.689"/>
<polygon fill="midnightblue" stroke="midnightblue" points="233.9,-146.392 224.289,-150.851 234.583,-153.358 233.9,-146.392"/>
</g>
<!-- Node9 -->
<g id="node9" class="node"><title>Node9</title>
<g id="a_node9"><a xlink:href="../../d2/d75/cipmessagerouter_8h.html#aa3456b75c1b2289296323b578fee2d3d" target="_top" xlink:title="Initialize the data structures of the message router. ">
<polygon fill="none" stroke="black" points="289,-76.5 289,-95.5 403,-95.5 403,-76.5 289,-76.5"/>
<text text-anchor="middle" x="346" y="-83.5" font-family="Helvetica,sans-Serif" font-size="10.00">CipMessageRouterInit</text>
</a>
</g>
</g>
<!-- Node4&#45;&gt;Node9 -->
<g id="edge9" class="edge"><title>Node4&#45;&gt;Node9</title>
<path fill="none" stroke="midnightblue" d="M230.992,-142.336C238.169,-139.9 245.37,-137.119 252,-134 269.4,-125.814 271.063,-119.105 288,-110 298.025,-104.611 309.52,-99.5698 319.55,-95.5126"/>
<polygon fill="midnightblue" stroke="midnightblue" points="229.734,-139.063 221.276,-145.443 231.867,-145.73 229.734,-139.063"/>
</g>
<!-- Node10 -->
<g id="node10" class="node"><title>Node10</title>
<g id="a_node10"><a xlink:href="../../d0/d3c/cipqos_8h.html#ab9a656060dcf03c3f51dbd967dff3f52" target="_top" xlink:title="CipQoSInit">
<polygon fill="none" stroke="black" points="313.5,-228.5 313.5,-247.5 378.5,-247.5 378.5,-228.5 313.5,-228.5"/>
<text text-anchor="middle" x="346" y="-235.5" font-family="Helvetica,sans-Serif" font-size="10.00">CipQoSInit</text>
</a>
</g>
</g>
<!-- Node4&#45;&gt;Node10 -->
<g id="edge11" class="edge"><title>Node4&#45;&gt;Node10</title>
<path fill="none" stroke="midnightblue" d="M203.979,-170.254C224.882,-184.274 257.567,-204.952 288,-219 296.05,-222.716 305.038,-226.059 313.454,-228.867"/>
<polygon fill="midnightblue" stroke="midnightblue" points="205.758,-167.231 195.518,-164.51 201.826,-173.023 205.758,-167.231"/>
</g>
<!-- Node11 -->
<g id="node11" class="node"><title>Node11</title>
<g id="a_node11"><a xlink:href="../../d1/dad/ciptcpipinterface_8h.html#a4c1f49654e48c5581513d990840933b0" target="_top" xlink:title="Initializing the data structures of the TCP/IP interface object. ">
<polygon fill="none" stroke="black" points="292,-190.5 292,-209.5 400,-209.5 400,-190.5 292,-190.5"/>
<text text-anchor="middle" x="346" y="-197.5" font-family="Helvetica,sans-Serif" font-size="10.00">CipTcpIpInterfaceInit</text>
</a>
</g>
</g>
<!-- Node4&#45;&gt;Node11 -->
<g id="edge13" class="edge"><title>Node4&#45;&gt;Node11</title>
<path fill="none" stroke="midnightblue" d="M226.358,-167.246C252.835,-174.556 285.965,-183.702 310.482,-190.47"/>
<polygon fill="midnightblue" stroke="midnightblue" points="227.139,-163.831 216.568,-164.543 225.276,-170.578 227.139,-163.831"/>
</g>
<!-- Node12 -->
<g id="node12" class="node"><title>Node12</title>
<g id="a_node12"><a xlink:href="../../d2/da3/cipconnectionmanager_8h.html#a5ab0de6894d23e8fe84a6b46797c2212" target="_top" xlink:title="Initialize the data of the connection manager object. ">
<polygon fill="none" stroke="black" points="440.5,-38.5 440.5,-57.5 557.5,-57.5 557.5,-38.5 440.5,-38.5"/>
<text text-anchor="middle" x="499" y="-45.5" font-family="Helvetica,sans-Serif" font-size="10.00">ConnectionManagerInit</text>
</a>
</g>
</g>
<!-- Node4&#45;&gt;Node12 -->
<g id="edge15" class="edge"><title>Node4&#45;&gt;Node12</title>
<path fill="none" stroke="midnightblue" d="M233.905,-144.566C240.413,-141.825 246.651,-138.366 252,-134 278.187,-112.624 259.798,-85.6381 288,-67 332.742,-37.431 395.048,-35.4824 440.162,-39.2252"/>
<polygon fill="midnightblue" stroke="midnightblue" points="232.445,-141.372 224.25,-148.088 234.844,-147.949 232.445,-141.372"/>
</g>
<!-- Node13 -->
<g id="node13" class="node"><title>Node13</title>
<g id="a_node13"><a xlink:href="../../df/d2e/cipassembly_8c.html#a5973ef42110a1bdf6c7699e35e04b7d4" target="_top" xlink:title="Constructor for the assembly object class. ">
<polygon fill="none" stroke="black" points="288.5,-266.5 288.5,-285.5 403.5,-285.5 403.5,-266.5 288.5,-266.5"/>
<text text-anchor="middle" x="346" y="-273.5" font-family="Helvetica,sans-Serif" font-size="10.00">CreateAssemblyClass</text>
</a>
</g>
</g>
<!-- Node4&#45;&gt;Node13 -->
<g id="edge17" class="edge"><title>Node4&#45;&gt;Node13</title>
<path fill="none" stroke="midnightblue" d="M195.984,-172.646C214.706,-195.184 249.995,-234.013 288,-257 294.248,-260.779 301.341,-263.912 308.349,-266.469"/>
<polygon fill="midnightblue" stroke="midnightblue" points="198.465,-170.15 189.436,-164.607 193.037,-174.571 198.465,-170.15"/>
</g>
<!-- Node6 -->
<g id="node6" class="node"><title>Node6</title>
<g id="a_node6"><a xlink:href="../../d2/dc9/group__CIP__API.html#ga5d4979945d124e28668b264c3823db1c" target="_top" xlink:title="Initialize and setup the CIP&#45;stack. ">
<polygon fill="none" stroke="black" points="616.5,-171.5 616.5,-190.5 687.5,-190.5 687.5,-171.5 616.5,-171.5"/>
<text text-anchor="middle" x="652" y="-178.5" font-family="Helvetica,sans-Serif" font-size="10.00">CipStackInit</text>
</a>
</g>
</g>
<!-- Node5&#45;&gt;Node6 -->
<g id="edge5" class="edge"><title>Node5&#45;&gt;Node6</title>
<path fill="none" stroke="midnightblue" d="M558.962,-169.419C578.282,-171.85 599.122,-174.472 616.077,-176.606"/>
<polygon fill="midnightblue" stroke="midnightblue" points="559.384,-165.945 549.025,-168.169 558.51,-172.89 559.384,-165.945"/>
</g>
<!-- Node7 -->
<g id="node7" class="node"><title>Node7</title>
<g id="a_node7"><a xlink:href="../../d5/dcb/MINGW_2main_8c.html#ad338a7dbc41dc40bcecd0479377ef207" target="_top" xlink:title="main">
<polygon fill="none" stroke="black" points="746,-266.5 746,-285.5 784,-285.5 784,-266.5 746,-266.5"/>
<text text-anchor="middle" x="765" y="-273.5" font-family="Helvetica,sans-Serif" font-size="10.00">main</text>
</a>
</g>
</g>
<!-- Node6&#45;&gt;Node7 -->
<g id="edge6" class="edge"><title>Node6&#45;&gt;Node7</title>
<path fill="none" stroke="midnightblue" d="M672.286,-197.506C695.549,-217.416 733.879,-250.221 752.767,-266.386"/>
<polygon fill="midnightblue" stroke="midnightblue" points="674.334,-194.652 664.461,-190.809 669.782,-199.97 674.334,-194.652"/>
</g>
<!-- Node8&#45;&gt;Node6 -->
<g id="edge8" class="edge"><title>Node8&#45;&gt;Node6</title>
<path fill="none" stroke="midnightblue" d="M540.373,-136.815C546.308,-138.817 552.33,-140.916 558,-143 582.556,-152.026 610.265,-163.521 629.001,-171.493"/>
<polygon fill="midnightblue" stroke="midnightblue" points="541.137,-133.381 530.544,-133.554 538.933,-140.025 541.137,-133.381"/>
</g>
<!-- Node9&#45;&gt;Node6 -->
<g id="edge10" class="edge"><title>Node9&#45;&gt;Node6</title>
<path fill="none" stroke="midnightblue" d="M413.328,-82.1462C456.113,-81.9997 512.13,-86.28 558,-105 594.681,-119.97 628.142,-154.583 642.957,-171.435"/>
<polygon fill="midnightblue" stroke="midnightblue" points="413.264,-78.6466 403.305,-82.2617 413.344,-85.6462 413.264,-78.6466"/>
</g>
<!-- Node10&#45;&gt;Node6 -->
<g id="edge12" class="edge"><title>Node10&#45;&gt;Node6</title>
<path fill="none" stroke="midnightblue" d="M388.656,-232.705C431.373,-226.99 499.634,-217.065 558,-205 577.759,-200.915 599.616,-195.33 617.174,-190.576"/>
<polygon fill="midnightblue" stroke="midnightblue" points="388.085,-229.25 378.631,-234.032 389.004,-236.189 388.085,-229.25"/>
</g>
<!-- Node11&#45;&gt;Node6 -->
<g id="edge14" class="edge"><title>Node11&#45;&gt;Node6</title>
<path fill="none" stroke="midnightblue" d="M410.444,-196.035C472.967,-192.127 566.186,-186.301 616.24,-183.172"/>
<polygon fill="midnightblue" stroke="midnightblue" points="410.063,-192.552 400.301,-196.669 410.5,-199.538 410.063,-192.552"/>
</g>
<!-- Node12&#45;&gt;Node6 -->
<g id="edge16" class="edge"><title>Node12&#45;&gt;Node6</title>
<path fill="none" stroke="midnightblue" d="M539.878,-61.5469C546.217,-64.5187 552.492,-67.9972 558,-72 597.845,-100.953 631.688,-150.324 644.978,-171.209"/>
<polygon fill="midnightblue" stroke="midnightblue" points="541.195,-58.3033 530.627,-57.5534 538.421,-64.7301 541.195,-58.3033"/>
</g>
<!-- Node13&#45;&gt;Node2 -->
<g id="edge20" class="edge"><title>Node13&#45;&gt;Node2</title>
<path fill="none" stroke="midnightblue" d="M394.843,-288.04C415.939,-293.349 440.377,-299.499 460.17,-304.48"/>
<polygon fill="midnightblue" stroke="midnightblue" points="395.656,-284.635 385.104,-285.589 393.947,-291.424 395.656,-284.635"/>
</g>
<!-- Node14 -->
<g id="node14" class="node"><title>Node14</title>
<g id="a_node14"><a xlink:href="../../de/df4/cipassembly_8h.html#a4dfbc2c7a8e9e77f05a0a7236210f5b4" target="_top" xlink:title="Setup the Assembly object. ">
<polygon fill="none" stroke="black" points="443.5,-266.5 443.5,-285.5 554.5,-285.5 554.5,-266.5 443.5,-266.5"/>
<text text-anchor="middle" x="499" y="-273.5" font-family="Helvetica,sans-Serif" font-size="10.00">CipAssemblyInitialize</text>
</a>
</g>
</g>
<!-- Node13&#45;&gt;Node14 -->
<g id="edge18" class="edge"><title>Node13&#45;&gt;Node14</title>
<path fill="none" stroke="midnightblue" d="M413.752,-276C423.536,-276 433.518,-276 443.03,-276"/>
<polygon fill="midnightblue" stroke="midnightblue" points="413.656,-272.5 403.656,-276 413.656,-279.5 413.656,-272.5"/>
</g>
<!-- Node14&#45;&gt;Node6 -->
<g id="edge19" class="edge"><title>Node14&#45;&gt;Node6</title>
<path fill="none" stroke="midnightblue" d="M536.853,-262.444C544.03,-259.336 551.377,-255.812 558,-252 590.219,-233.459 623.898,-205.145 640.486,-190.504"/>
<polygon fill="midnightblue" stroke="midnightblue" points="535.159,-259.357 527.255,-266.413 537.834,-265.826 535.159,-259.357"/>
</g>
<!-- Node16 -->
<g id="node16" class="node"><title>Node16</title>
<g id="a_node16"><a xlink:href="../../de/d45/cipioconnection_8h.html#a43e270b3f9b9f6296b12285c320c95aa" target="_top" xlink:title="Setup all data in order to establish an IO connection. ">
<polygon fill="none" stroke="black" points="288.5,-0.5 288.5,-19.5 403.5,-19.5 403.5,-0.5 288.5,-0.5"/>
<text text-anchor="middle" x="346" y="-7.5" font-family="Helvetica,sans-Serif" font-size="10.00">EstablishIoConnection</text>
</a>
</g>
</g>
<!-- Node15&#45;&gt;Node16 -->
<g id="edge22" class="edge"><title>Node15&#45;&gt;Node16</title>
<path fill="none" stroke="midnightblue" d="M239.757,-10.6457C255.566,-10.5487 272.681,-10.4437 288.423,-10.3471"/>
<polygon fill="midnightblue" stroke="midnightblue" points="239.563,-7.14669 229.585,-10.7081 239.606,-14.1466 239.563,-7.14669"/>
</g>
<!-- Node16&#45;&gt;Node12 -->
<g id="edge23" class="edge"><title>Node16&#45;&gt;Node12</title>
<path fill="none" stroke="midnightblue" d="M394.843,-22.04C415.939,-27.3488 440.377,-33.4988 460.17,-38.4799"/>
<polygon fill="midnightblue" stroke="midnightblue" points="395.656,-18.6354 385.104,-19.589 393.947,-25.4237 395.656,-18.6354"/>
</g>
<!-- Node17&#45;&gt;Node16 -->
<g id="edge25" class="edge"><title>Node17&#45;&gt;Node16</title>
<path fill="none" stroke="midnightblue" d="M240.648,-90.3914C244.638,-88.1566 248.47,-85.6981 252,-83 273.47,-66.5888 266.782,-50.7355 288,-34 295.672,-27.9489 305.092,-23.1672 314.048,-19.517"/>
<polygon fill="midnightblue" stroke="midnightblue" points="239.042,-87.2814 231.713,-94.9325 242.213,-93.5217 239.042,-87.2814"/>
</g>
<!-- Node18&#45;&gt;Node16 -->
<g id="edge27" class="edge"><title>Node18&#45;&gt;Node16</title>
<path fill="none" stroke="midnightblue" d="M242.021,-40.957C266.125,-33.7109 292.929,-25.6533 313.147,-19.5754"/>
<polygon fill="midnightblue" stroke="midnightblue" points="240.804,-37.6678 232.235,-43.8986 242.82,-44.3714 240.804,-37.6678"/>
</g>
<!-- Node20 -->
<g id="node20" class="node"><title>Node20</title>
<g id="a_node20"><a xlink:href="../../d2/dc9/group__CIP__API.html#gaa57b527530adc2acda6febc500fd6831" target="_top" xlink:title="Shutdown of the CIP stack. ">
<polygon fill="none" stroke="black" points="601.5,-342.5 601.5,-361.5 702.5,-361.5 702.5,-342.5 601.5,-342.5"/>
<text text-anchor="middle" x="652" y="-349.5" font-family="Helvetica,sans-Serif" font-size="10.00">ShutdownCipStack</text>
</a>
</g>
</g>
<!-- Node19&#45;&gt;Node20 -->
<g id="edge29" class="edge"><title>Node19&#45;&gt;Node20</title>
<path fill="none" stroke="midnightblue" d="M564.642,-352C576.84,-352 589.425,-352 601.086,-352"/>
<polygon fill="midnightblue" stroke="midnightblue" points="564.514,-348.5 554.514,-352 564.514,-355.5 564.514,-348.5"/>
</g>
<!-- Node20&#45;&gt;Node7 -->
<g id="edge30" class="edge"><title>Node20&#45;&gt;Node7</title>
<path fill="none" stroke="midnightblue" d="M699.881,-338.508C703.405,-336.855 706.822,-335.024 710,-333 730.006,-320.259 747.763,-298.505 757.086,-285.876"/>
<polygon fill="midnightblue" stroke="midnightblue" points="698.268,-335.389 690.392,-342.474 700.968,-341.847 698.268,-335.389"/>
</g>
</g>
</svg>
        <g id="navigator" transform="translate(0 0)" fill="#404254">
                <rect fill="#f2f5e9" fill-opacity="0.5" stroke="#606060" stroke-width=".5" x="0" y="0" width="60" height="60"/>
                <use id="zoomplus" xlink:href="#zoomPlus" x="17" y="9" onmousedown="handleZoom(evt,'in')"/>
                <use id="zoomminus" xlink:href="#zoomMin" x="42" y="9" onmousedown="handleZoom(evt,'out')"/>
                <use id="reset" xlink:href="#resetDef" x="30" y="36" onmousedown="handleReset()"/>
                <g id="arrowUp" xlink:href="#dirArrow" transform="translate(30 24)" onmousedown="handlePan(0,-1)">
                  <use xlink:href="#rim" fill="#404040">
                        <set attributeName="fill" to="#808080" begin="arrowUp.mouseover" end="arrowUp.mouseout"/>
                  </use>
                  <path fill="none" stroke="white" stroke-width="1.5" d="M0,-3.0v7 M-2.5,-0.5L0,-3.0L2.5,-0.5"/>
                </g>
                <g id="arrowRight" xlink:href="#dirArrow" transform="rotate(90) translate(36 -43)" onmousedown="handlePan(1,0)">
                  <use xlink:href="#rim" fill="#404040">
                        <set attributeName="fill" to="#808080" begin="arrowRight.mouseover" end="arrowRight.mouseout"/>
                  </use>
                  <path fill="none" stroke="white" stroke-width="1.5" d="M0,-3.0v7 M-2.5,-0.5L0,-3.0L2.5,-0.5"/>
                </g>
                <g id="arrowDown" xlink:href="#dirArrow" transform="rotate(180) translate(-30 -48)" onmousedown="handlePan(0,1)">
                  <use xlink:href="#rim" fill="#404040">
                        <set attributeName="fill" to="#808080" begin="arrowDown.mouseover" end="arrowDown.mouseout"/>
                  </use>
                  <path fill="none" stroke="white" stroke-width="1.5" d="M0,-3.0v7 M-2.5,-0.5L0,-3.0L2.5,-0.5"/>
                </g>
                <g id="arrowLeft" xlink:href="#dirArrow" transform="rotate(270) translate(-36 17)" onmousedown="handlePan(-1,0)">
                  <use xlink:href="#rim" fill="#404040">
                        <set attributeName="fill" to="#808080" begin="arrowLeft.mouseover" end="arrowLeft.mouseout"/>
                  </use>
                  <path fill="none" stroke="white" stroke-width="1.5" d="M0,-3.0v7 M-2.5,-0.5L0,-3.0L2.5,-0.5"/>
                </g>
        </g>
        <svg viewBox="0 0 15 15" width="100%" height="30px" preserveAspectRatio="xMaxYMin meet">
         <g id="arrow_out" transform="scale(0.3 0.3)">
          <a xlink:href="group__CIP__API_ga98bd609c80ece316406363575b4a89ea_icgraph_org.svg" target="_base">
           <rect id="button" ry="5" rx="5" y="6" x="6" height="38" width="38"
                fill="#f2f5e9" fill-opacity="0.5" stroke="#606060" stroke-width="1.0"/>
           <path id="arrow"
             d="M 11.500037,31.436501 C 11.940474,20.09759 22.043105,11.32322 32.158766,21.979434 L 37.068811,17.246167 C 37.068811,17.246167 37.088388,32 37.088388,32 L 22.160133,31.978069 C 22.160133,31.978069 26.997745,27.140456 26.997745,27.140456 C 18.528582,18.264221 13.291696,25.230495 11.500037,31.436501 z"
             style="fill:#404040;"/>
          </a>
         </g>
        </svg>
</svg>
