<?xml version="1.0" encoding="UTF-8" standalone="no"?>
<!DOCTYPE svg PUBLIC "-//W3C//DTD SVG 1.1//EN"
 "http://www.w3.org/Graphics/SVG/1.1/DTD/svg11.dtd">
<!-- Generated by graphviz version 2.26.3 (20100126.1600)
 -->
<!-- Title: G Pages: 1 -->
<svg width="462pt" height="30pt"
 viewBox="0.00 0.00 462.00 30.00" xmlns="http://www.w3.org/2000/svg" xmlns:xlink="http://www.w3.org/1999/xlink">
<g id="graph1" class="graph" transform="scale(1 1) rotate(0) translate(4 26)">
<title>G</title>
<!-- Node1 -->
<g id="node1" class="node"><title>Node1</title>
<polygon fill="#bfbfbf" stroke="black" points="0.5,-0.5 0.5,-21.5 117.5,-21.5 117.5,-0.5 0.5,-0.5"/>
<text text-anchor="middle" x="59" y="-8.5" font-family="Helvetica,sans-Serif" font-size="10.00">AddConnectableObject</text>
</g>
<!-- Node2 -->
<g id="node3" class="node"><title>Node2</title>
<a xlink:href="../../d2/da3/cipconnectionmanager_8h.html#a5ab0de6894d23e8fe84a6b46797c2212" target="_top" xlink:title="Initialize the data of the connection manager object.">
<polygon fill="none" stroke="black" points="154.5,-0.5 154.5,-21.5 271.5,-21.5 271.5,-0.5 154.5,-0.5"/>
<text text-anchor="middle" x="213" y="-8.5" font-family="Helvetica,sans-Serif" font-size="10.00">ConnectionManagerInit</text>
</a>
</g>
<!-- Node1&#45;&gt;Node2 -->
<g id="edge2" class="edge"><title>Node1&#45;&gt;Node2</title>
<path fill="none" stroke="midnightblue" d="M127.894,-11C136.691,-11 145.631,-11 154.248,-11"/>
<polygon fill="midnightblue" stroke="midnightblue" points="127.66,-7.5001 117.66,-11 127.66,-14.5001 127.66,-7.5001"/>
</g>
<!-- Node3 -->
<g id="node5" class="node"><title>Node3</title>
<a xlink:href="../../d2/dc9/group__CIP__API.html#ga5d4979945d124e28668b264c3823db1c" target="_top" xlink:title="Initialize and setup the CIP&#45;stack.">
<polygon fill="none" stroke="black" points="308.5,-0.5 308.5,-21.5 379.5,-21.5 379.5,-0.5 308.5,-0.5"/>
<text text-anchor="middle" x="344" y="-8.5" font-family="Helvetica,sans-Serif" font-size="10.00">CipStackInit</text>
</a>
</g>
<!-- Node2&#45;&gt;Node3 -->
<g id="edge4" class="edge"><title>Node2&#45;&gt;Node3</title>
<path fill="none" stroke="midnightblue" d="M281.629,-11C290.871,-11 300.029,-11 308.366,-11"/>
<polygon fill="midnightblue" stroke="midnightblue" points="281.603,-7.5001 271.603,-11 281.603,-14.5001 281.603,-7.5001"/>
</g>
<!-- Node4 -->
<g id="node7" class="node"><title>Node4</title>
<a xlink:href="../../d9/dfb/POSIX_2main_8c.html#ad338a7dbc41dc40bcecd0479377ef207" target="_top" xlink:title="main">
<polygon fill="none" stroke="black" points="416,-0.5 416,-21.5 454,-21.5 454,-0.5 416,-0.5"/>
<text text-anchor="middle" x="435" y="-8.5" font-family="Helvetica,sans-Serif" font-size="10.00">main</text>
</a>
</g>
<!-- Node3&#45;&gt;Node4 -->
<g id="edge6" class="edge"><title>Node3&#45;&gt;Node4</title>
<path fill="none" stroke="midnightblue" d="M389.982,-11C399.145,-11 408.282,-11 415.906,-11"/>
<polygon fill="midnightblue" stroke="midnightblue" points="389.704,-7.5001 379.704,-11 389.704,-14.5001 389.704,-7.5001"/>
</g>
</g>
</svg>
