<?xml version="1.0" encoding="UTF-8" standalone="no"?>
<!DOCTYPE svg PUBLIC "-//W3C//DTD SVG 1.1//EN"
 "http://www.w3.org/Graphics/SVG/1.1/DTD/svg11.dtd">
<!-- Generated by graphviz version 2.26.3 (20100126.1600)
 -->
<!-- Title: G Pages: 1 -->
<!--zoomable 270 -->
<svg id="main" version="1.1" xmlns="http://www.w3.org/2000/svg" xmlns:xlink="http://www.w3.org/1999/xlink" xml:space="preserve" onload="init(evt)">
        <defs>
                <circle id="rim" cx="0" cy="0" r="7"/>
                <circle id="rim2" cx="0" cy="0" r="3.5"/>
                <g id="zoomPlus">
                        <use xlink:href="#rim" fill="#404040">
                                <set attributeName="fill" to="#808080" begin="zoomplus.mouseover" end="zoomplus.mouseout"/>
                        </use>
                        <path d="M-4,0h8M0,-4v8" fill="none" stroke="white" stroke-width="1.5" pointer-events="none"/>
                </g>
                <g id="zoomMin">
                        <use xlink:href="#rim" fill="#404040">
                                <set attributeName="fill" to="#808080" begin="zoomminus.mouseover" end="zoomminus.mouseout"/>
                        </use>
                        <path d="M-4,0h8" fill="none" stroke="white" stroke-width="1.5" pointer-events="none"/>
                </g>
                <g id="dirArrow">
                        <path fill="none" stroke="white" stroke-width="1.5" d="M0,-3.0v7 M-2.5,-0.5L0,-3.0L2.5,-0.5"/>
                </g>
               <g id="resetDef">
                       <use xlink:href="#rim2" fill="#404040">
                               <set attributeName="fill" to="#808080" begin="reset.mouseover" end="reset.mouseout"/>
                       </use>
               </g>
        </defs>

<script type="text/javascript">
var viewWidth = 884;
var viewHeight = 270;
var sectionId = 'dynsection-39';
</script>
<script xlink:href="../../svgpan.js"/>
<svg id="graph" class="graph">
<g id="viewport">
<title>G</title>
<!-- Node1 -->
<g id="node1" class="node"><title>Node1</title>
<polygon fill="#bfbfbf" stroke="black" points="0.5,-120.5 0.5,-141.5 101.5,-141.5 101.5,-120.5 0.5,-120.5"/>
<text text-anchor="middle" x="51" y="-128.5" font-family="Helvetica,sans-Serif" font-size="10.00">ShutdownCipStack</text>
</g>
<!-- Node2 -->
<g id="node3" class="node"><title>Node2</title>
<a xlink:href="../../d1/dbc/appcontype_8c.html#a18d2a32030faf1d5e3d48e610b1c4fe7" target="_top" xlink:title="CloseAllConnections">
<polygon fill="none" stroke="black" points="146,-200.5 146,-221.5 254,-221.5 254,-200.5 146,-200.5"/>
<text text-anchor="middle" x="200" y="-208.5" font-family="Helvetica,sans-Serif" font-size="10.00">CloseAllConnections</text>
</a>
</g>
<!-- Node1&#45;&gt;Node2 -->
<g id="edge2" class="edge"><title>Node1&#45;&gt;Node2</title>
<path fill="none" stroke="midnightblue" d="M63.8106,-141.634C80.1502,-154.76 109.693,-177.049 138,-191 142.337,-193.137 146.954,-195.119 151.638,-196.936"/>
<polygon fill="midnightblue" stroke="midnightblue" points="150.68,-200.312 161.275,-200.435 153.069,-193.733 150.68,-200.312"/>
</g>
<!-- Node8 -->
<g id="node15" class="node"><title>Node8</title>
<a xlink:href="../../d9/d7d/cipmessagerouter_8c.html#a16364f408990e2a5725f2fd5375ef3df" target="_top" xlink:title="Free all data allocated by the classes created in the CIP stack.">
<polygon fill="none" stroke="black" points="154,-120.5 154,-141.5 246,-141.5 246,-120.5 154,-120.5"/>
<text text-anchor="middle" x="200" y="-128.5" font-family="Helvetica,sans-Serif" font-size="10.00">DeleteAllClasses</text>
</a>
</g>
<!-- Node1&#45;&gt;Node8 -->
<g id="edge14" class="edge"><title>Node1&#45;&gt;Node8</title>
<path fill="none" stroke="midnightblue" d="M101.861,-131C115.297,-131 129.877,-131 143.588,-131"/>
<polygon fill="midnightblue" stroke="midnightblue" points="143.87,-134.5 153.87,-131 143.869,-127.5 143.87,-134.5"/>
</g>
<!-- Node10 -->
<g id="node19" class="node"><title>Node10</title>
<a xlink:href="../../d4/d91/group__ENCAP.html#ga1261bd2441f744c38d7a3f8d8c16c391" target="_top" xlink:title="Shutdown the encapsulation layer.">
<polygon fill="none" stroke="black" points="138,-160.5 138,-181.5 262,-181.5 262,-160.5 138,-160.5"/>
<text text-anchor="middle" x="200" y="-168.5" font-family="Helvetica,sans-Serif" font-size="10.00">EncapsulationShutDown</text>
</a>
</g>
<!-- Node1&#45;&gt;Node10 -->
<g id="edge18" class="edge"><title>Node1&#45;&gt;Node10</title>
<path fill="none" stroke="midnightblue" d="M90.148,-141.51C108.81,-146.519 131.324,-152.563 151.099,-157.872"/>
<polygon fill="midnightblue" stroke="midnightblue" points="150.29,-161.279 160.855,-160.491 152.105,-154.518 150.29,-161.279"/>
</g>
<!-- Node14 -->
<g id="node28" class="node"><title>Node14</title>
<a xlink:href="../../df/d2e/cipassembly_8c.html#adcacd62b6a866c5c74c3cdda19598b98" target="_top" xlink:title="clean up the data allocated in the assembly object instances">
<polygon fill="none" stroke="black" points="144.5,-40.5 144.5,-61.5 255.5,-61.5 255.5,-40.5 144.5,-40.5"/>
<text text-anchor="middle" x="200" y="-48.5" font-family="Helvetica,sans-Serif" font-size="10.00">ShutdownAssemblies</text>
</a>
</g>
<!-- Node1&#45;&gt;Node14 -->
<g id="edge28" class="edge"><title>Node1&#45;&gt;Node14</title>
<path fill="none" stroke="midnightblue" d="M63.8106,-120.366C80.1502,-107.24 109.693,-84.9507 138,-71 142.337,-68.8626 146.954,-66.8813 151.638,-65.0637"/>
<polygon fill="midnightblue" stroke="midnightblue" points="153.069,-68.2675 161.275,-61.5648 150.68,-61.6877 153.069,-68.2675"/>
</g>
<!-- Node18 -->
<g id="node37" class="node"><title>Node18</title>
<a xlink:href="../../dd/d20/ciptcpipinterface_8c.html#a523c7909b1d929c0b9b288802189d391" target="_top" xlink:title="Clean up the allocated data of the TCP/IP interface object.">
<polygon fill="none" stroke="black" points="138.5,-80.5 138.5,-101.5 261.5,-101.5 261.5,-80.5 138.5,-80.5"/>
<text text-anchor="middle" x="200" y="-88.5" font-family="Helvetica,sans-Serif" font-size="10.00">ShutdownTcpIpInterface</text>
</a>
</g>
<!-- Node1&#45;&gt;Node18 -->
<g id="edge38" class="edge"><title>Node1&#45;&gt;Node18</title>
<path fill="none" stroke="midnightblue" d="M90.148,-120.49C108.81,-115.481 131.324,-109.437 151.099,-104.128"/>
<polygon fill="midnightblue" stroke="midnightblue" points="152.105,-107.482 160.855,-101.509 150.29,-100.721 152.105,-107.482"/>
</g>
<!-- Node3 -->
<g id="node5" class="node"><title>Node3</title>
<a xlink:href="../../d5/d35/cipconnectionmanager_8c.html#a0e955e3b8a41b27cf79520a6bd04d21c" target="_top" xlink:title="Close the given connection.">
<polygon fill="none" stroke="black" points="311,-200.5 311,-221.5 403,-221.5 403,-200.5 311,-200.5"/>
<text text-anchor="middle" x="357" y="-208.5" font-family="Helvetica,sans-Serif" font-size="10.00">CloseConnection</text>
</a>
</g>
<!-- Node2&#45;&gt;Node3 -->
<g id="edge4" class="edge"><title>Node2&#45;&gt;Node3</title>
<path fill="none" stroke="midnightblue" d="M254.03,-211C269.093,-211 285.491,-211 300.681,-211"/>
<polygon fill="midnightblue" stroke="midnightblue" points="300.974,-214.5 310.974,-211 300.974,-207.5 300.974,-214.5"/>
</g>
<!-- Node4 -->
<g id="node7" class="node"><title>Node4</title>
<a xlink:href="../../db/d4f/generic__networkhandler_8c.html#a37e718bdfa6e3b780b5135330b9cb5e5" target="_top" xlink:title="IApp_CloseSocket_udp">
<polygon fill="none" stroke="black" points="476.5,-240.5 476.5,-261.5 595.5,-261.5 595.5,-240.5 476.5,-240.5"/>
<text text-anchor="middle" x="536" y="-248.5" font-family="Helvetica,sans-Serif" font-size="10.00">IApp_CloseSocket_udp</text>
</a>
</g>
<!-- Node3&#45;&gt;Node4 -->
<g id="edge6" class="edge"><title>Node3&#45;&gt;Node4</title>
<path fill="none" stroke="midnightblue" d="M403.097,-221.301C426.222,-226.469 454.448,-232.776 478.93,-238.247"/>
<polygon fill="midnightblue" stroke="midnightblue" points="478.29,-241.69 488.813,-240.455 479.817,-234.859 478.29,-241.69"/>
</g>
<!-- Node7 -->
<g id="node13" class="node"><title>Node7</title>
<a xlink:href="../../d5/d35/cipconnectionmanager_8c.html#aef50a0eee3ff5df3320b49f872a7f3c4" target="_top" xlink:title="Removes connection from the list of active connections.">
<polygon fill="none" stroke="black" points="457,-200.5 457,-221.5 615,-221.5 615,-200.5 457,-200.5"/>
<text text-anchor="middle" x="536" y="-208.5" font-family="Helvetica,sans-Serif" font-size="10.00">RemoveFromActiveConnections</text>
</a>
</g>
<!-- Node3&#45;&gt;Node7 -->
<g id="edge12" class="edge"><title>Node3&#45;&gt;Node7</title>
<path fill="none" stroke="midnightblue" d="M403.097,-211C416.395,-211 431.38,-211 446.369,-211"/>
<polygon fill="midnightblue" stroke="midnightblue" points="446.727,-214.5 456.727,-211 446.727,-207.5 446.727,-214.5"/>
</g>
<!-- Node5 -->
<g id="node9" class="node"><title>Node5</title>
<a xlink:href="../../d5/dc5/group__CIP__CALLBACK__API.html#ga89293c1274a9092dec6be806b8d0779f" target="_top" xlink:title="Close the given socket and clean up the stack.">
<polygon fill="none" stroke="black" points="656.5,-200.5 656.5,-221.5 729.5,-221.5 729.5,-200.5 656.5,-200.5"/>
<text text-anchor="middle" x="693" y="-208.5" font-family="Helvetica,sans-Serif" font-size="10.00">CloseSocket</text>
</a>
</g>
<!-- Node4&#45;&gt;Node5 -->
<g id="edge8" class="edge"><title>Node4&#45;&gt;Node5</title>
<path fill="none" stroke="midnightblue" d="M581.407,-240.484C593.932,-237.503 607.51,-234.197 620,-231 628.602,-228.798 637.749,-226.365 646.553,-223.977"/>
<polygon fill="midnightblue" stroke="midnightblue" points="647.577,-227.326 656.302,-221.314 645.733,-220.573 647.577,-227.326"/>
</g>
<!-- Node6 -->
<g id="node11" class="node"><title>Node6</title>
<a xlink:href="../../d2/d5e/POSIX_2networkhandler_8c.html#a2812ba0ecd1fd9a5549fbca397d76e3e" target="_top" xlink:title="Platform dependent code to close a socket.">
<polygon fill="none" stroke="black" points="766,-200.5 766,-221.5 876,-221.5 876,-200.5 766,-200.5"/>
<text text-anchor="middle" x="821" y="-208.5" font-family="Helvetica,sans-Serif" font-size="10.00">CloseSocketPlatform</text>
</a>
</g>
<!-- Node5&#45;&gt;Node6 -->
<g id="edge10" class="edge"><title>Node5&#45;&gt;Node6</title>
<path fill="none" stroke="midnightblue" d="M729.68,-211C737.838,-211 746.726,-211 755.649,-211"/>
<polygon fill="midnightblue" stroke="midnightblue" points="755.701,-214.5 765.701,-211 755.701,-207.5 755.701,-214.5"/>
</g>
<!-- Node9 -->
<g id="node17" class="node"><title>Node9</title>
<a xlink:href="../../d5/dc5/group__CIP__CALLBACK__API.html#ga729165f94320800eb9537def5a0e6af8" target="_top" xlink:title="Free memory allocated by the OpENer.">
<polygon fill="none" stroke="black" points="331.5,-80.5 331.5,-101.5 382.5,-101.5 382.5,-80.5 331.5,-80.5"/>
<text text-anchor="middle" x="357" y="-88.5" font-family="Helvetica,sans-Serif" font-size="10.00">CipFree</text>
</a>
</g>
<!-- Node8&#45;&gt;Node9 -->
<g id="edge16" class="edge"><title>Node8&#45;&gt;Node9</title>
<path fill="none" stroke="midnightblue" d="M241.25,-120.49C266.212,-114.131 297.715,-106.104 321.551,-100.032"/>
<polygon fill="midnightblue" stroke="midnightblue" points="322.43,-103.42 331.256,-97.559 320.701,-96.6363 322.43,-103.42"/>
</g>
<!-- Node11 -->
<g id="node21" class="node"><title>Node11</title>
<a xlink:href="../../db/d4f/generic__networkhandler_8c.html#aac0abfde6f2872cae33998b90683cf78" target="_top" xlink:title="IApp_CloseSocket_tcp">
<polygon fill="none" stroke="black" points="298.5,-141.5 298.5,-162.5 415.5,-162.5 415.5,-141.5 298.5,-141.5"/>
<text text-anchor="middle" x="357" y="-149.5" font-family="Helvetica,sans-Serif" font-size="10.00">IApp_CloseSocket_tcp</text>
</a>
</g>
<!-- Node10&#45;&gt;Node11 -->
<g id="edge20" class="edge"><title>Node10&#45;&gt;Node11</title>
<path fill="none" stroke="midnightblue" d="M262.051,-163.491C270.675,-162.447 279.577,-161.37 288.315,-160.312"/>
<polygon fill="midnightblue" stroke="midnightblue" points="288.962,-163.76 298.469,-159.083 288.121,-156.81 288.962,-163.76"/>
</g>
<!-- Node11&#45;&gt;Node5 -->
<g id="edge22" class="edge"><title>Node11&#45;&gt;Node5</title>
<path fill="none" stroke="midnightblue" d="M415.594,-158.64C469.13,-165.191 550.324,-176.345 620,-191 629.16,-192.927 638.875,-195.33 648.126,-197.795"/>
<polygon fill="midnightblue" stroke="midnightblue" points="647.366,-201.215 657.935,-200.474 649.211,-194.463 647.366,-201.215"/>
</g>
<!-- Node12 -->
<g id="node24" class="node"><title>Node12</title>
<a xlink:href="../../d4/df6/socket__timer_8c.html#abe7542fdec4d4e4893a8c712192529ca" target="_top" xlink:title="Get the Socket Timer entry with the spezified socket value.">
<polygon fill="none" stroke="black" points="452.5,-122.5 452.5,-143.5 619.5,-143.5 619.5,-122.5 452.5,-122.5"/>
<text text-anchor="middle" x="536" y="-130.5" font-family="Helvetica,sans-Serif" font-size="10.00">SocketTimerArrayGetSocketTimer</text>
</a>
</g>
<!-- Node11&#45;&gt;Node12 -->
<g id="edge24" class="edge"><title>Node11&#45;&gt;Node12</title>
<path fill="none" stroke="midnightblue" d="M415.611,-145.779C424.131,-144.874 433.076,-143.925 442.08,-142.969"/>
<polygon fill="midnightblue" stroke="midnightblue" points="442.678,-146.425 452.253,-141.889 441.939,-139.465 442.678,-146.425"/>
</g>
<!-- Node13 -->
<g id="node26" class="node"><title>Node13</title>
<a xlink:href="../../d4/df6/socket__timer_8c.html#a6130830815ae46fe4e6d45cf89bc3506" target="_top" xlink:title="Clears a Socket Timer entry.">
<polygon fill="none" stroke="black" points="488.5,-82.5 488.5,-103.5 583.5,-103.5 583.5,-82.5 488.5,-82.5"/>
<text text-anchor="middle" x="536" y="-90.5" font-family="Helvetica,sans-Serif" font-size="10.00">SocketTimerClear</text>
</a>
</g>
<!-- Node11&#45;&gt;Node13 -->
<g id="edge26" class="edge"><title>Node11&#45;&gt;Node13</title>
<path fill="none" stroke="midnightblue" d="M380.048,-141.353C399.057,-132.862 426.884,-121.091 452,-113 460.397,-110.295 469.373,-107.776 478.218,-105.502"/>
<polygon fill="midnightblue" stroke="midnightblue" points="479.251,-108.852 488.11,-103.041 477.56,-102.059 479.251,-108.852"/>
</g>
<!-- Node14&#45;&gt;Node9 -->
<g id="edge30" class="edge"><title>Node14&#45;&gt;Node9</title>
<path fill="none" stroke="midnightblue" d="M241.25,-61.5095C266.212,-67.8692 297.715,-75.8955 321.551,-81.9685"/>
<polygon fill="midnightblue" stroke="midnightblue" points="320.701,-85.3637 331.256,-84.441 322.43,-78.5804 320.701,-85.3637"/>
</g>
<!-- Node15 -->
<g id="node31" class="node"><title>Node15</title>
<a xlink:href="../../d2/dc9/group__CIP__API.html#ga5a14c8d76acacb09312b709bb0a76265" target="_top" xlink:title="Get a pointer to an instance&#39;s attribute.">
<polygon fill="none" stroke="black" points="315,-40.5 315,-61.5 399,-61.5 399,-40.5 315,-40.5"/>
<text text-anchor="middle" x="357" y="-48.5" font-family="Helvetica,sans-Serif" font-size="10.00">GetCipAttribute</text>
</a>
</g>
<!-- Node14&#45;&gt;Node15 -->
<g id="edge32" class="edge"><title>Node14&#45;&gt;Node15</title>
<path fill="none" stroke="midnightblue" d="M255.794,-51C271.7,-51 288.967,-51 304.659,-51"/>
<polygon fill="midnightblue" stroke="midnightblue" points="304.714,-54.5001 314.714,-51 304.714,-47.5001 304.714,-54.5001"/>
</g>
<!-- Node16 -->
<g id="node33" class="node"><title>Node16</title>
<a xlink:href="../../d2/dc9/group__CIP__API.html#ga98bd609c80ece316406363575b4a89ea" target="_top" xlink:title="Get a pointer to a CIP object with given class code.">
<polygon fill="none" stroke="black" points="320.5,-0.5 320.5,-21.5 393.5,-21.5 393.5,-0.5 320.5,-0.5"/>
<text text-anchor="middle" x="357" y="-8.5" font-family="Helvetica,sans-Serif" font-size="10.00">GetCipClass</text>
</a>
</g>
<!-- Node14&#45;&gt;Node16 -->
<g id="edge34" class="edge"><title>Node14&#45;&gt;Node16</title>
<path fill="none" stroke="midnightblue" d="M241.25,-40.4905C262.522,-35.0708 288.545,-28.4407 310.525,-22.8407"/>
<polygon fill="midnightblue" stroke="midnightblue" points="311.482,-26.2089 320.308,-20.3482 309.754,-19.4256 311.482,-26.2089"/>
</g>
<!-- Node17 -->
<g id="node35" class="node"><title>Node17</title>
<a xlink:href="../../d9/d7d/cipmessagerouter_8c.html#a7a9f44f2d6f010b6f6ee922d378d9bb1" target="_top" xlink:title="Get the registered MessageRouter object corresponding to ClassID. given a class ID, return a pointer to the registration node for that object.">
<polygon fill="none" stroke="black" points="482,-0.5 482,-21.5 590,-21.5 590,-0.5 482,-0.5"/>
<text text-anchor="middle" x="536" y="-8.5" font-family="Helvetica,sans-Serif" font-size="10.00">GetRegisteredObject</text>
</a>
</g>
<!-- Node16&#45;&gt;Node17 -->
<g id="edge36" class="edge"><title>Node16&#45;&gt;Node17</title>
<path fill="none" stroke="midnightblue" d="M393.655,-11C416.049,-11 445.319,-11 471.49,-11"/>
<polygon fill="midnightblue" stroke="midnightblue" points="471.725,-14.5001 481.725,-11 471.725,-7.5001 471.725,-14.5001"/>
</g>
<!-- Node18&#45;&gt;Node9 -->
<g id="edge40" class="edge"><title>Node18&#45;&gt;Node9</title>
<path fill="none" stroke="midnightblue" d="M261.6,-91C281.662,-91 303.27,-91 320.84,-91"/>
<polygon fill="midnightblue" stroke="midnightblue" points="321.208,-94.5001 331.208,-91 321.208,-87.5001 321.208,-94.5001"/>
</g>
</g>
</svg>
        <g id="navigator" transform="translate(0 0)" fill="#404254">
                <rect fill="#f2f5e9" fill-opacity="0.5" stroke="#606060" stroke-width=".5" x="0" y="0" width="60" height="60"/>
                <use id="zoomplus" xlink:href="#zoomPlus" x="17" y="9" onmousedown="handleZoom(evt,'in')"/>
                <use id="zoomminus" xlink:href="#zoomMin" x="42" y="9" onmousedown="handleZoom(evt,'out')"/>
                <use id="reset" xlink:href="#resetDef" x="30" y="36" onmousedown="handleReset()"/>
                <g id="arrowUp" xlink:href="#dirArrow" transform="translate(30 24)" onmousedown="handlePan(0,-1)">
                  <use xlink:href="#rim" fill="#404040">
                        <set attributeName="fill" to="#808080" begin="arrowUp.mouseover" end="arrowUp.mouseout"/>
                  </use>
                  <path fill="none" stroke="white" stroke-width="1.5" d="M0,-3.0v7 M-2.5,-0.5L0,-3.0L2.5,-0.5"/>
                </g>
                <g id="arrowRight" xlink:href="#dirArrow" transform="rotate(90) translate(36 -43)" onmousedown="handlePan(1,0)">
                  <use xlink:href="#rim" fill="#404040">
                        <set attributeName="fill" to="#808080" begin="arrowRight.mouseover" end="arrowRight.mouseout"/>
                  </use>
                  <path fill="none" stroke="white" stroke-width="1.5" d="M0,-3.0v7 M-2.5,-0.5L0,-3.0L2.5,-0.5"/>
                </g>
                <g id="arrowDown" xlink:href="#dirArrow" transform="rotate(180) translate(-30 -48)" onmousedown="handlePan(0,1)">
                  <use xlink:href="#rim" fill="#404040">
                        <set attributeName="fill" to="#808080" begin="arrowDown.mouseover" end="arrowDown.mouseout"/>
                  </use>
                  <path fill="none" stroke="white" stroke-width="1.5" d="M0,-3.0v7 M-2.5,-0.5L0,-3.0L2.5,-0.5"/>
                </g>
                <g id="arrowLeft" xlink:href="#dirArrow" transform="rotate(270) translate(-36 17)" onmousedown="handlePan(-1,0)">
                  <use xlink:href="#rim" fill="#404040">
                        <set attributeName="fill" to="#808080" begin="arrowLeft.mouseover" end="arrowLeft.mouseout"/>
                  </use>
                  <path fill="none" stroke="white" stroke-width="1.5" d="M0,-3.0v7 M-2.5,-0.5L0,-3.0L2.5,-0.5"/>
                </g>
        </g>
</svg>
