<?xml version="1.0" encoding="UTF-8" standalone="no"?>
<!DOCTYPE svg PUBLIC "-//W3C//DTD SVG 1.1//EN"
 "http://www.w3.org/Graphics/SVG/1.1/DTD/svg11.dtd">
<!-- Generated by graphviz version 2.38.0 (20140413.2041)
 -->
<!-- Title: insertAttribute Pages: 1 -->
<!--zoomable 256 -->
<svg id="main" version="1.1" xmlns="http://www.w3.org/2000/svg" xmlns:xlink="http://www.w3.org/1999/xlink" xml:space="preserve" onload="init(evt)">
<style type="text/css"><![CDATA[
.edge:hover path { stroke: red; }
.edge:hover polygon { stroke: red; fill: red; }
]]></style>
<script type="text/javascript"><![CDATA[
var edges = document.getElementsByTagName('g');
if (edges && edges.length) {
  for (var i=0;i<edges.length;i++) {
    if (edges[i].id.substr(0,4)=='edge') {
      edges[i].setAttribute('class','edge');
    }
  }
}
]]></script>
        <defs>
                <circle id="rim" cx="0" cy="0" r="7"/>
                <circle id="rim2" cx="0" cy="0" r="3.5"/>
                <g id="zoomPlus">
                        <use xlink:href="#rim" fill="#404040">
                                <set attributeName="fill" to="#808080" begin="zoomplus.mouseover" end="zoomplus.mouseout"/>
                        </use>
                        <path d="M-4,0h8M0,-4v8" fill="none" stroke="white" stroke-width="1.5" pointer-events="none"/>
                </g>
                <g id="zoomMin">
                        <use xlink:href="#rim" fill="#404040">
                                <set attributeName="fill" to="#808080" begin="zoomminus.mouseover" end="zoomminus.mouseout"/>
                        </use>
                        <path d="M-4,0h8" fill="none" stroke="white" stroke-width="1.5" pointer-events="none"/>
                </g>
                <g id="dirArrow">
                        <path fill="none" stroke="white" stroke-width="1.5" d="M0,-3.0v7 M-2.5,-0.5L0,-3.0L2.5,-0.5"/>
                </g>
               <g id="resetDef">
                       <use xlink:href="#rim2" fill="#404040">
                               <set attributeName="fill" to="#808080" begin="reset.mouseover" end="reset.mouseout"/>
                       </use>
               </g>
        </defs>

<script type="text/javascript">
var viewWidth = 704;
var viewHeight = 256;
var sectionId = 'dynsection-36';
</script>
<script xlink:href="../../svgpan.js"/>
<svg id="graph" class="graph">
<g id="viewport">
<title>insertAttribute</title>
<!-- Node1 -->
<g id="node1" class="node"><title>Node1</title>
<polygon fill="#bfbfbf" stroke="black" points="0,-119.5 0,-138.5 77,-138.5 77,-119.5 0,-119.5"/>
<text text-anchor="middle" x="38.5" y="-126.5" font-family="Helvetica,sans-Serif" font-size="10.00">insertAttribute</text>
</g>
<!-- Node2 -->
<g id="node2" class="node"><title>Node2</title>
<g id="a_node2"><a xlink:href="../../dd/d4d/cipethernetlink_8h.html#a94ae89fe23718c8f8c2dbdf1b0f9728b" target="_top" xlink:title="CIP_Ethernet_Link_Init">
<polygon fill="none" stroke="black" points="241.5,-190.5 241.5,-209.5 359.5,-209.5 359.5,-190.5 241.5,-190.5"/>
<text text-anchor="middle" x="300.5" y="-197.5" font-family="Helvetica,sans-Serif" font-size="10.00">CIP_Ethernet_Link_Init</text>
</a>
</g>
</g>
<!-- Node1&#45;&gt;Node2 -->
<g id="edge1" class="edge"><title>Node1&#45;&gt;Node2</title>
<path fill="none" stroke="midnightblue" d="M84.0704,-141.171C135.153,-155.121 217.817,-177.694 264.496,-190.441"/>
<polygon fill="midnightblue" stroke="midnightblue" points="84.8638,-137.76 74.295,-138.502 83.0197,-144.512 84.8638,-137.76"/>
</g>
<!-- Node5 -->
<g id="node5" class="node"><title>Node5</title>
<g id="a_node5"><a xlink:href="../../dc/d72/cipidentity_8h.html#ab0d1a38dc36f2ff134a8f3c39e1011ac" target="_top" xlink:title="CIP_Identity_Init">
<polygon fill="none" stroke="black" points="255.5,-38.5 255.5,-57.5 345.5,-57.5 345.5,-38.5 255.5,-38.5"/>
<text text-anchor="middle" x="300.5" y="-45.5" font-family="Helvetica,sans-Serif" font-size="10.00">CIP_Identity_Init</text>
</a>
</g>
</g>
<!-- Node1&#45;&gt;Node5 -->
<g id="edge4" class="edge"><title>Node1&#45;&gt;Node5</title>
<path fill="none" stroke="midnightblue" d="M78.6647,-116.318C118.081,-103.616 180.654,-83.6201 235,-67 245.27,-63.8592 256.489,-60.522 266.648,-57.5351"/>
<polygon fill="midnightblue" stroke="midnightblue" points="77.3607,-113.061 68.9183,-119.462 79.5099,-119.723 77.3607,-113.061"/>
</g>
<!-- Node6 -->
<g id="node6" class="node"><title>Node6</title>
<g id="a_node6"><a xlink:href="../../d1/dad/ciptcpipinterface_8h.html#aee1012f01aecd02a81661214880f273e" target="_top" xlink:title="CIP_TCPIP_Interface_Init">
<polygon fill="none" stroke="black" points="235,-228.5 235,-247.5 366,-247.5 366,-228.5 235,-228.5"/>
<text text-anchor="middle" x="300.5" y="-235.5" font-family="Helvetica,sans-Serif" font-size="10.00">CIP_TCPIP_Interface_Init</text>
</a>
</g>
</g>
<!-- Node1&#45;&gt;Node6 -->
<g id="edge6" class="edge"><title>Node1&#45;&gt;Node6</title>
<path fill="none" stroke="midnightblue" d="M61.9963,-144.367C76.2218,-153.678 95.2186,-165.38 113,-174 165.005,-199.209 180.139,-200.825 235,-219 244.862,-222.267 255.663,-225.559 265.558,-228.464"/>
<polygon fill="midnightblue" stroke="midnightblue" points="63.6631,-141.272 53.3978,-138.651 59.7876,-147.102 63.6631,-141.272"/>
</g>
<!-- Node7 -->
<g id="node7" class="node"><title>Node7</title>
<g id="a_node7"><a xlink:href="../../d2/dc9/group__CIP__API.html#ga1b4ab5ecfa81f356a751555a067c5f71" target="_top" xlink:title="Create an instance of an assembly object. ">
<polygon fill="none" stroke="black" points="408,-0.5 408,-19.5 524,-19.5 524,-0.5 408,-0.5"/>
<text text-anchor="middle" x="466" y="-7.5" font-family="Helvetica,sans-Serif" font-size="10.00">createAssemblyObject</text>
</a>
</g>
</g>
<!-- Node1&#45;&gt;Node7 -->
<g id="edge8" class="edge"><title>Node1&#45;&gt;Node7</title>
<path fill="none" stroke="midnightblue" d="M58.8569,-112.491C73.1351,-100.899 93.4065,-85.6303 113,-75 163.935,-47.3656 178.467,-41.7305 235,-29 292.85,-15.9729 360.683,-11.658 407.622,-10.3359"/>
<polygon fill="midnightblue" stroke="midnightblue" points="56.2731,-110.086 50.8009,-119.158 60.7362,-115.479 56.2731,-110.086"/>
</g>
<!-- Node9 -->
<g id="node9" class="node"><title>Node9</title>
<g id="a_node9"><a xlink:href="../../d2/dc9/group__CIP__API.html#ga5f372afe536285966f0d07cda8eceda2" target="_top" xlink:title="Allocate memory for new CIP Class and attributes. ">
<polygon fill="none" stroke="black" points="113,-119.5 113,-138.5 199,-138.5 199,-119.5 113,-119.5"/>
<text text-anchor="middle" x="156" y="-126.5" font-family="Helvetica,sans-Serif" font-size="10.00">createCIPClass</text>
</a>
</g>
</g>
<!-- Node1&#45;&gt;Node9 -->
<g id="edge10" class="edge"><title>Node1&#45;&gt;Node9</title>
<path fill="none" stroke="midnightblue" d="M87.374,-129C95.775,-129 104.463,-129 112.699,-129"/>
<polygon fill="midnightblue" stroke="midnightblue" points="87.3191,-125.5 77.319,-129 87.319,-132.5 87.3191,-125.5"/>
</g>
<!-- Node3 -->
<g id="node3" class="node"><title>Node3</title>
<g id="a_node3"><a xlink:href="../../d2/dc9/group__CIP__API.html#ga8fe857c3e88bf986fda82fbac6702c9f" target="_top" xlink:title="Initialize and setup the CIP&#45;stack. ">
<polygon fill="none" stroke="black" points="567.5,-133.5 567.5,-152.5 620.5,-152.5 620.5,-133.5 567.5,-133.5"/>
<text text-anchor="middle" x="594" y="-140.5" font-family="Helvetica,sans-Serif" font-size="10.00">CIP_Init</text>
</a>
</g>
</g>
<!-- Node2&#45;&gt;Node3 -->
<g id="edge2" class="edge"><title>Node2&#45;&gt;Node3</title>
<path fill="none" stroke="midnightblue" d="M369.953,-202.382C416.203,-202.054 478.063,-197.801 530,-181 549.202,-174.789 568.699,-161.769 580.813,-152.712"/>
<polygon fill="midnightblue" stroke="midnightblue" points="369.735,-198.882 359.739,-202.393 369.742,-205.882 369.735,-198.882"/>
</g>
<!-- Node4 -->
<g id="node4" class="node"><title>Node4</title>
<g id="a_node4"><a xlink:href="../../d0/d17/LM3S8962_2sample__application_2main_8c.html#a840291bc02cba5474a4cb46a9b9566fe" target="_top" xlink:title="main">
<polygon fill="none" stroke="black" points="658,-133.5 658,-152.5 696,-152.5 696,-133.5 658,-133.5"/>
<text text-anchor="middle" x="677" y="-140.5" font-family="Helvetica,sans-Serif" font-size="10.00">main</text>
</a>
</g>
</g>
<!-- Node3&#45;&gt;Node4 -->
<g id="edge3" class="edge"><title>Node3&#45;&gt;Node4</title>
<path fill="none" stroke="midnightblue" d="M630.645,-143C640.096,-143 649.905,-143 657.973,-143"/>
<polygon fill="midnightblue" stroke="midnightblue" points="630.629,-139.5 620.629,-143 630.629,-146.5 630.629,-139.5"/>
</g>
<!-- Node5&#45;&gt;Node3 -->
<g id="edge5" class="edge"><title>Node5&#45;&gt;Node3</title>
<path fill="none" stroke="midnightblue" d="M355.492,-41.1454C403.959,-37.5305 475.632,-38.6399 530,-67 558.871,-82.0601 579.59,-116.629 588.354,-133.453"/>
<polygon fill="midnightblue" stroke="midnightblue" points="355.19,-37.6583 345.516,-41.9803 355.773,-44.6339 355.19,-37.6583"/>
</g>
<!-- Node6&#45;&gt;Node3 -->
<g id="edge7" class="edge"><title>Node6&#45;&gt;Node3</title>
<path fill="none" stroke="midnightblue" d="M376.237,-238.858C422.65,-236.639 482.329,-228.643 530,-205 554.746,-192.727 575.839,-167.061 586.182,-152.904"/>
<polygon fill="midnightblue" stroke="midnightblue" points="376.097,-235.361 366.245,-239.257 376.377,-242.355 376.097,-235.361"/>
</g>
<!-- Node8 -->
<g id="node8" class="node"><title>Node8</title>
<g id="a_node8"><a xlink:href="../../d5/dc5/group__CIP__CALLBACK__API.html#ga59b2842f01ca8f913ef0afe3f3c787aa" target="_top" xlink:title="Callback for the application initialization. ">
<polygon fill="none" stroke="black" points="566,-0.5 566,-19.5 622,-19.5 622,-0.5 566,-0.5"/>
<text text-anchor="middle" x="594" y="-7.5" font-family="Helvetica,sans-Serif" font-size="10.00">IApp_Init</text>
</a>
</g>
</g>
<!-- Node7&#45;&gt;Node8 -->
<g id="edge9" class="edge"><title>Node7&#45;&gt;Node8</title>
<path fill="none" stroke="midnightblue" d="M534.386,-10C545.573,-10 556.574,-10 565.97,-10"/>
<polygon fill="midnightblue" stroke="midnightblue" points="534.101,-6.5001 524.101,-10 534.101,-13.5001 534.101,-6.5001"/>
</g>
<!-- Node9&#45;&gt;Node2 -->
<g id="edge11" class="edge"><title>Node9&#45;&gt;Node2</title>
<path fill="none" stroke="midnightblue" d="M179.924,-144.365C195.139,-154.17 215.777,-166.732 235,-176 246.3,-181.448 259.182,-186.465 270.446,-190.487"/>
<polygon fill="midnightblue" stroke="midnightblue" points="181.497,-141.212 171.212,-138.67 177.667,-147.071 181.497,-141.212"/>
</g>
<!-- Node9&#45;&gt;Node5 -->
<g id="edge12" class="edge"><title>Node9&#45;&gt;Node5</title>
<path fill="none" stroke="midnightblue" d="M174.144,-112.117C189.095,-98.2385 211.944,-78.9749 235,-67 242.252,-63.2335 250.36,-60.1062 258.315,-57.5502"/>
<polygon fill="midnightblue" stroke="midnightblue" points="171.537,-109.766 166.701,-119.193 176.36,-114.84 171.537,-109.766"/>
</g>
<!-- Node9&#45;&gt;Node6 -->
<g id="edge15" class="edge"><title>Node9&#45;&gt;Node6</title>
<path fill="none" stroke="midnightblue" d="M168.291,-147.439C181.727,-167.863 206.026,-200.364 235,-219 240.989,-222.852 247.786,-225.947 254.666,-228.428"/>
<polygon fill="midnightblue" stroke="midnightblue" points="171.076,-145.297 162.749,-138.747 165.174,-149.06 171.076,-145.297"/>
</g>
<!-- Node10 -->
<g id="node10" class="node"><title>Node10</title>
<g id="a_node10"><a xlink:href="../../d2/d75/cipmessagerouter_8h.html#a38e5a73fe312fc30f7c79e19a954d49a" target="_top" xlink:title="CIP_MessageRouter_Init">
<polygon fill="none" stroke="black" points="402.5,-152.5 402.5,-171.5 529.5,-171.5 529.5,-152.5 402.5,-152.5"/>
<text text-anchor="middle" x="466" y="-159.5" font-family="Helvetica,sans-Serif" font-size="10.00">CIP_MessageRouter_Init</text>
</a>
</g>
</g>
<!-- Node9&#45;&gt;Node10 -->
<g id="edge13" class="edge"><title>Node9&#45;&gt;Node10</title>
<path fill="none" stroke="midnightblue" d="M209.063,-136.672C217.717,-137.852 226.605,-139.007 235,-140 291.566,-146.691 356.145,-152.728 402.444,-156.778"/>
<polygon fill="midnightblue" stroke="midnightblue" points="209.441,-133.191 199.055,-135.282 208.479,-140.124 209.441,-133.191"/>
</g>
<!-- Node11 -->
<g id="node11" class="node"><title>Node11</title>
<g id="a_node11"><a xlink:href="../../d2/da3/cipconnectionmanager_8h.html#abbdafd9e83df08856ba6de13890cf40f" target="_top" xlink:title="Connection_Manager_Init">
<polygon fill="none" stroke="black" points="402,-114.5 402,-133.5 530,-133.5 530,-114.5 402,-114.5"/>
<text text-anchor="middle" x="466" y="-121.5" font-family="Helvetica,sans-Serif" font-size="10.00">Connection_Manager_Init</text>
</a>
</g>
</g>
<!-- Node9&#45;&gt;Node11 -->
<g id="edge16" class="edge"><title>Node9&#45;&gt;Node11</title>
<path fill="none" stroke="midnightblue" d="M209.426,-128.149C262.689,-127.284 345.211,-125.945 401.995,-125.023"/>
<polygon fill="midnightblue" stroke="midnightblue" points="209.122,-124.653 199.18,-128.315 209.236,-131.652 209.122,-124.653"/>
</g>
<!-- Node12 -->
<g id="node12" class="node"><title>Node12</title>
<g id="a_node12"><a xlink:href="../../df/d2e/cipassembly_8c.html#a3c4ec5deffa8a629431f2d4f7587def6" target="_top" xlink:title="createAssemblyClass">
<polygon fill="none" stroke="black" points="244,-76.5 244,-95.5 357,-95.5 357,-76.5 244,-76.5"/>
<text text-anchor="middle" x="300.5" y="-83.5" font-family="Helvetica,sans-Serif" font-size="10.00">createAssemblyClass</text>
</a>
</g>
</g>
<!-- Node9&#45;&gt;Node12 -->
<g id="edge18" class="edge"><title>Node9&#45;&gt;Node12</title>
<path fill="none" stroke="midnightblue" d="M198.445,-116.494C220.624,-109.801 247.503,-101.69 267.963,-95.5164"/>
<polygon fill="midnightblue" stroke="midnightblue" points="197.188,-113.217 188.625,-119.457 199.21,-119.919 197.188,-113.217"/>
</g>
<!-- Node10&#45;&gt;Node3 -->
<g id="edge14" class="edge"><title>Node10&#45;&gt;Node3</title>
<path fill="none" stroke="midnightblue" d="M539.603,-151.052C549.505,-149.559 559.082,-148.115 567.326,-146.871"/>
<polygon fill="midnightblue" stroke="midnightblue" points="538.997,-147.604 529.631,-152.556 540.041,-154.525 538.997,-147.604"/>
</g>
<!-- Node11&#45;&gt;Node3 -->
<g id="edge17" class="edge"><title>Node11&#45;&gt;Node3</title>
<path fill="none" stroke="midnightblue" d="M540.469,-135.079C550.082,-136.528 559.361,-137.927 567.375,-139.136"/>
<polygon fill="midnightblue" stroke="midnightblue" points="540.779,-131.586 530.369,-133.556 539.735,-138.508 540.779,-131.586"/>
</g>
<!-- Node12&#45;&gt;Node7 -->
<g id="edge21" class="edge"><title>Node12&#45;&gt;Node7</title>
<path fill="none" stroke="midnightblue" d="M349.167,-73.3493C354.911,-71.4185 360.637,-69.2954 366,-67 397.725,-53.4207 432.059,-31.9682 450.8,-19.6184"/>
<polygon fill="midnightblue" stroke="midnightblue" points="348.011,-70.0441 339.544,-76.4134 350.135,-76.7141 348.011,-70.0441"/>
</g>
<!-- Node13 -->
<g id="node13" class="node"><title>Node13</title>
<g id="a_node13"><a xlink:href="../../de/df4/cipassembly_8h.html#a8bda91239ead4adcd1082d0c3b911b2c" target="_top" xlink:title="CIP_Assembly_Init">
<polygon fill="none" stroke="black" points="415.5,-76.5 415.5,-95.5 516.5,-95.5 516.5,-76.5 415.5,-76.5"/>
<text text-anchor="middle" x="466" y="-83.5" font-family="Helvetica,sans-Serif" font-size="10.00">CIP_Assembly_Init</text>
</a>
</g>
</g>
<!-- Node12&#45;&gt;Node13 -->
<g id="edge19" class="edge"><title>Node12&#45;&gt;Node13</title>
<path fill="none" stroke="midnightblue" d="M367.656,-86C383.62,-86 400.409,-86 415.463,-86"/>
<polygon fill="midnightblue" stroke="midnightblue" points="367.31,-82.5001 357.31,-86 367.31,-89.5001 367.31,-82.5001"/>
</g>
<!-- Node13&#45;&gt;Node3 -->
<g id="edge20" class="edge"><title>Node13&#45;&gt;Node3</title>
<path fill="none" stroke="midnightblue" d="M514.008,-98.752C519.474,-100.652 524.91,-102.74 530,-105 547.745,-112.878 566.628,-124.798 579.041,-133.182"/>
<polygon fill="midnightblue" stroke="midnightblue" points="514.799,-95.328 504.206,-95.539 512.618,-101.98 514.799,-95.328"/>
</g>
</g>
</svg>
        <g id="navigator" transform="translate(0 0)" fill="#404254">
                <rect fill="#f2f5e9" fill-opacity="0.5" stroke="#606060" stroke-width=".5" x="0" y="0" width="60" height="60"/>
                <use id="zoomplus" xlink:href="#zoomPlus" x="17" y="9" onmousedown="handleZoom(evt,'in')"/>
                <use id="zoomminus" xlink:href="#zoomMin" x="42" y="9" onmousedown="handleZoom(evt,'out')"/>
                <use id="reset" xlink:href="#resetDef" x="30" y="36" onmousedown="handleReset()"/>
                <g id="arrowUp" xlink:href="#dirArrow" transform="translate(30 24)" onmousedown="handlePan(0,-1)">
                  <use xlink:href="#rim" fill="#404040">
                        <set attributeName="fill" to="#808080" begin="arrowUp.mouseover" end="arrowUp.mouseout"/>
                  </use>
                  <path fill="none" stroke="white" stroke-width="1.5" d="M0,-3.0v7 M-2.5,-0.5L0,-3.0L2.5,-0.5"/>
                </g>
                <g id="arrowRight" xlink:href="#dirArrow" transform="rotate(90) translate(36 -43)" onmousedown="handlePan(1,0)">
                  <use xlink:href="#rim" fill="#404040">
                        <set attributeName="fill" to="#808080" begin="arrowRight.mouseover" end="arrowRight.mouseout"/>
                  </use>
                  <path fill="none" stroke="white" stroke-width="1.5" d="M0,-3.0v7 M-2.5,-0.5L0,-3.0L2.5,-0.5"/>
                </g>
                <g id="arrowDown" xlink:href="#dirArrow" transform="rotate(180) translate(-30 -48)" onmousedown="handlePan(0,1)">
                  <use xlink:href="#rim" fill="#404040">
                        <set attributeName="fill" to="#808080" begin="arrowDown.mouseover" end="arrowDown.mouseout"/>
                  </use>
                  <path fill="none" stroke="white" stroke-width="1.5" d="M0,-3.0v7 M-2.5,-0.5L0,-3.0L2.5,-0.5"/>
                </g>
                <g id="arrowLeft" xlink:href="#dirArrow" transform="rotate(270) translate(-36 17)" onmousedown="handlePan(-1,0)">
                  <use xlink:href="#rim" fill="#404040">
                        <set attributeName="fill" to="#808080" begin="arrowLeft.mouseover" end="arrowLeft.mouseout"/>
                  </use>
                  <path fill="none" stroke="white" stroke-width="1.5" d="M0,-3.0v7 M-2.5,-0.5L0,-3.0L2.5,-0.5"/>
                </g>
        </g>
        <svg viewBox="0 0 15 15" width="100%" height="30px" preserveAspectRatio="xMaxYMin meet">
         <g id="arrow_out" transform="scale(0.3 0.3)">
          <a xlink:href="group__CIP__API_gaaf0d193e855cb7716c1fb32658e81b9a_icgraph_org.svg" target="_base">
           <rect id="button" ry="5" rx="5" y="6" x="6" height="38" width="38"
                fill="#f2f5e9" fill-opacity="0.5" stroke="#606060" stroke-width="1.0"/>
           <path id="arrow"
             d="M 11.500037,31.436501 C 11.940474,20.09759 22.043105,11.32322 32.158766,21.979434 L 37.068811,17.246167 C 37.068811,17.246167 37.088388,32 37.088388,32 L 22.160133,31.978069 C 22.160133,31.978069 26.997745,27.140456 26.997745,27.140456 C 18.528582,18.264221 13.291696,25.230495 11.500037,31.436501 z"
             style="fill:#404040;"/>
          </a>
         </g>
        </svg>
</svg>
