<?xml version="1.0" encoding="UTF-8" standalone="no"?>
<!DOCTYPE svg PUBLIC "-//W3C//DTD SVG 1.1//EN"
 "http://www.w3.org/Graphics/SVG/1.1/DTD/svg11.dtd">
<!-- Generated by graphviz version 2.26.3 (20100126.1600)
 -->
<!-- Title: G Pages: 1 -->
<!--zoomable 269 -->
<svg id="main" version="1.1" xmlns="http://www.w3.org/2000/svg" xmlns:xlink="http://www.w3.org/1999/xlink" xml:space="preserve" onload="init(evt)">
        <defs>
                <circle id="rim" cx="0" cy="0" r="7"/>
                <circle id="rim2" cx="0" cy="0" r="3.5"/>
                <g id="zoomPlus">
                        <use xlink:href="#rim" fill="#404040">
                                <set attributeName="fill" to="#808080" begin="zoomplus.mouseover" end="zoomplus.mouseout"/>
                        </use>
                        <path d="M-4,0h8M0,-4v8" fill="none" stroke="white" stroke-width="1.5" pointer-events="none"/>
                </g>
                <g id="zoomMin">
                        <use xlink:href="#rim" fill="#404040">
                                <set attributeName="fill" to="#808080" begin="zoomminus.mouseover" end="zoomminus.mouseout"/>
                        </use>
                        <path d="M-4,0h8" fill="none" stroke="white" stroke-width="1.5" pointer-events="none"/>
                </g>
                <g id="dirArrow">
                        <path fill="none" stroke="white" stroke-width="1.5" d="M0,-3.0v7 M-2.5,-0.5L0,-3.0L2.5,-0.5"/>
                </g>
               <g id="resetDef">
                       <use xlink:href="#rim2" fill="#404040">
                               <set attributeName="fill" to="#808080" begin="reset.mouseover" end="reset.mouseout"/>
                       </use>
               </g>
        </defs>

<script type="text/javascript">
var viewWidth = 968;
var viewHeight = 269;
var sectionId = 'dynsection-42';
</script>
<script xlink:href="../../svgpan.js"/>
<svg id="graph" class="graph">
<g id="viewport">
<title>G</title>
<!-- Node1 -->
<g id="node1" class="node"><title>Node1</title>
<polygon fill="#bfbfbf" stroke="black" points="0.5,-120.5 0.5,-141.5 101.5,-141.5 101.5,-120.5 0.5,-120.5"/>
<text text-anchor="middle" x="51" y="-128.5" font-family="Helvetica,sans-Serif" font-size="10.00">ShutdownCipStack</text>
</g>
<!-- Node2 -->
<g id="node3" class="node"><title>Node2</title>
<a xlink:href="../../d1/dbc/appcontype_8c.html#a18d2a32030faf1d5e3d48e610b1c4fe7" target="_top" xlink:title="CloseAllConnections">
<polygon fill="none" stroke="black" points="146,-200.5 146,-221.5 254,-221.5 254,-200.5 146,-200.5"/>
<text text-anchor="middle" x="200" y="-208.5" font-family="Helvetica,sans-Serif" font-size="10.00">CloseAllConnections</text>
</a>
</g>
<!-- Node1&#45;&gt;Node2 -->
<g id="edge2" class="edge"><title>Node1&#45;&gt;Node2</title>
<path fill="none" stroke="midnightblue" d="M63.8106,-141.634C80.1502,-154.76 109.693,-177.049 138,-191 142.337,-193.137 146.954,-195.119 151.638,-196.936"/>
<polygon fill="midnightblue" stroke="midnightblue" points="150.68,-200.312 161.275,-200.435 153.069,-193.733 150.68,-200.312"/>
</g>
<!-- Node8 -->
<g id="node15" class="node"><title>Node8</title>
<a xlink:href="../../d9/d7d/cipmessagerouter_8c.html#a16364f408990e2a5725f2fd5375ef3df" target="_top" xlink:title="Free all data allocated by the classes created in the CIP stack.">
<polygon fill="none" stroke="black" points="154,-120.5 154,-141.5 246,-141.5 246,-120.5 154,-120.5"/>
<text text-anchor="middle" x="200" y="-128.5" font-family="Helvetica,sans-Serif" font-size="10.00">DeleteAllClasses</text>
</a>
</g>
<!-- Node1&#45;&gt;Node8 -->
<g id="edge14" class="edge"><title>Node1&#45;&gt;Node8</title>
<path fill="none" stroke="midnightblue" d="M101.861,-131C115.297,-131 129.877,-131 143.588,-131"/>
<polygon fill="midnightblue" stroke="midnightblue" points="143.87,-134.5 153.87,-131 143.869,-127.5 143.87,-134.5"/>
</g>
<!-- Node10 -->
<g id="node19" class="node"><title>Node10</title>
<a xlink:href="../../d4/d91/group__ENCAP.html#ga1261bd2441f744c38d7a3f8d8c16c391" target="_top" xlink:title="Shutdown the encapsulation layer.">
<polygon fill="none" stroke="black" points="138,-160.5 138,-181.5 262,-181.5 262,-160.5 138,-160.5"/>
<text text-anchor="middle" x="200" y="-168.5" font-family="Helvetica,sans-Serif" font-size="10.00">EncapsulationShutDown</text>
</a>
</g>
<!-- Node1&#45;&gt;Node10 -->
<g id="edge18" class="edge"><title>Node1&#45;&gt;Node10</title>
<path fill="none" stroke="midnightblue" d="M90.148,-141.51C108.81,-146.519 131.324,-152.563 151.099,-157.872"/>
<polygon fill="midnightblue" stroke="midnightblue" points="150.29,-161.279 160.855,-160.491 152.105,-154.518 150.29,-161.279"/>
</g>
<!-- Node15 -->
<g id="node30" class="node"><title>Node15</title>
<a xlink:href="../../df/d2e/cipassembly_8c.html#adcacd62b6a866c5c74c3cdda19598b98" target="_top" xlink:title="clean up the data allocated in the assembly object instances">
<polygon fill="none" stroke="black" points="144.5,-40.5 144.5,-61.5 255.5,-61.5 255.5,-40.5 144.5,-40.5"/>
<text text-anchor="middle" x="200" y="-48.5" font-family="Helvetica,sans-Serif" font-size="10.00">ShutdownAssemblies</text>
</a>
</g>
<!-- Node1&#45;&gt;Node15 -->
<g id="edge30" class="edge"><title>Node1&#45;&gt;Node15</title>
<path fill="none" stroke="midnightblue" d="M63.8106,-120.366C80.1502,-107.24 109.693,-84.9507 138,-71 142.337,-68.8626 146.954,-66.8813 151.638,-65.0637"/>
<polygon fill="midnightblue" stroke="midnightblue" points="153.069,-68.2675 161.275,-61.5648 150.68,-61.6877 153.069,-68.2675"/>
</g>
<!-- Node19 -->
<g id="node39" class="node"><title>Node19</title>
<a xlink:href="../../dd/d20/ciptcpipinterface_8c.html#a523c7909b1d929c0b9b288802189d391" target="_top" xlink:title="Clean up the allocated data of the TCP/IP interface object.">
<polygon fill="none" stroke="black" points="138.5,-80.5 138.5,-101.5 261.5,-101.5 261.5,-80.5 138.5,-80.5"/>
<text text-anchor="middle" x="200" y="-88.5" font-family="Helvetica,sans-Serif" font-size="10.00">ShutdownTcpIpInterface</text>
</a>
</g>
<!-- Node1&#45;&gt;Node19 -->
<g id="edge40" class="edge"><title>Node1&#45;&gt;Node19</title>
<path fill="none" stroke="midnightblue" d="M90.148,-120.49C108.81,-115.481 131.324,-109.437 151.099,-104.128"/>
<polygon fill="midnightblue" stroke="midnightblue" points="152.105,-107.482 160.855,-101.509 150.29,-100.721 152.105,-107.482"/>
</g>
<!-- Node3 -->
<g id="node5" class="node"><title>Node3</title>
<a xlink:href="../../d5/d35/cipconnectionmanager_8c.html#a0e955e3b8a41b27cf79520a6bd04d21c" target="_top" xlink:title="Close the given connection.">
<polygon fill="none" stroke="black" points="311,-200.5 311,-221.5 403,-221.5 403,-200.5 311,-200.5"/>
<text text-anchor="middle" x="357" y="-208.5" font-family="Helvetica,sans-Serif" font-size="10.00">CloseConnection</text>
</a>
</g>
<!-- Node2&#45;&gt;Node3 -->
<g id="edge4" class="edge"><title>Node2&#45;&gt;Node3</title>
<path fill="none" stroke="midnightblue" d="M254.03,-211C269.093,-211 285.491,-211 300.681,-211"/>
<polygon fill="midnightblue" stroke="midnightblue" points="300.974,-214.5 310.974,-211 300.974,-207.5 300.974,-214.5"/>
</g>
<!-- Node4 -->
<g id="node7" class="node"><title>Node4</title>
<a xlink:href="../../db/d4f/generic__networkhandler_8c.html#a37e718bdfa6e3b780b5135330b9cb5e5" target="_top" xlink:title="IApp_CloseSocket_udp">
<polygon fill="none" stroke="black" points="471.5,-239.5 471.5,-260.5 590.5,-260.5 590.5,-239.5 471.5,-239.5"/>
<text text-anchor="middle" x="531" y="-247.5" font-family="Helvetica,sans-Serif" font-size="10.00">IApp_CloseSocket_udp</text>
</a>
</g>
<!-- Node3&#45;&gt;Node4 -->
<g id="edge6" class="edge"><title>Node3&#45;&gt;Node4</title>
<path fill="none" stroke="midnightblue" d="M403.172,-221.349C424.922,-226.224 451.075,-232.086 474.043,-237.234"/>
<polygon fill="midnightblue" stroke="midnightblue" points="473.483,-240.695 484.006,-239.467 475.014,-233.864 473.483,-240.695"/>
</g>
<!-- Node7 -->
<g id="node13" class="node"><title>Node7</title>
<a xlink:href="../../d5/d35/cipconnectionmanager_8c.html#aef50a0eee3ff5df3320b49f872a7f3c4" target="_top" xlink:title="Removes connection from the list of active connections.">
<polygon fill="none" stroke="black" points="452,-199.5 452,-220.5 610,-220.5 610,-199.5 452,-199.5"/>
<text text-anchor="middle" x="531" y="-207.5" font-family="Helvetica,sans-Serif" font-size="10.00">RemoveFromActiveConnections</text>
</a>
</g>
<!-- Node3&#45;&gt;Node7 -->
<g id="edge12" class="edge"><title>Node3&#45;&gt;Node7</title>
<path fill="none" stroke="midnightblue" d="M403.172,-210.735C415.126,-210.666 428.41,-210.59 441.765,-210.513"/>
<polygon fill="midnightblue" stroke="midnightblue" points="441.99,-214.012 451.97,-210.454 441.95,-207.012 441.99,-214.012"/>
</g>
<!-- Node5 -->
<g id="node9" class="node"><title>Node5</title>
<a xlink:href="../../d5/dc5/group__CIP__CALLBACK__API.html#gaf4d26c1bca26c2e6e73481d57762df36" target="_top" xlink:title="Close the given socket and clean up the stack.">
<polygon fill="none" stroke="black" points="693.5,-210.5 693.5,-231.5 766.5,-231.5 766.5,-210.5 693.5,-210.5"/>
<text text-anchor="middle" x="730" y="-218.5" font-family="Helvetica,sans-Serif" font-size="10.00">CloseSocket</text>
</a>
</g>
<!-- Node4&#45;&gt;Node5 -->
<g id="edge8" class="edge"><title>Node4&#45;&gt;Node5</title>
<path fill="none" stroke="midnightblue" d="M590.707,-241.299C620.349,-236.979 655.634,-231.837 683.273,-227.809"/>
<polygon fill="midnightblue" stroke="midnightblue" points="684.073,-231.23 693.464,-226.324 683.064,-224.303 684.073,-231.23"/>
</g>
<!-- Node6 -->
<g id="node11" class="node"><title>Node6</title>
<a xlink:href="../../d2/d5e/POSIX_2networkhandler_8c.html#a2812ba0ecd1fd9a5549fbca397d76e3e" target="_top" xlink:title="Platform dependent code to close a socket.">
<polygon fill="none" stroke="black" points="850,-210.5 850,-231.5 960,-231.5 960,-210.5 850,-210.5"/>
<text text-anchor="middle" x="905" y="-218.5" font-family="Helvetica,sans-Serif" font-size="10.00">CloseSocketPlatform</text>
</a>
</g>
<!-- Node5&#45;&gt;Node6 -->
<g id="edge10" class="edge"><title>Node5&#45;&gt;Node6</title>
<path fill="none" stroke="midnightblue" d="M766.686,-221C787.827,-221 815.025,-221 839.701,-221"/>
<polygon fill="midnightblue" stroke="midnightblue" points="839.734,-224.5 849.734,-221 839.734,-217.5 839.734,-224.5"/>
</g>
<!-- Node9 -->
<g id="node17" class="node"><title>Node9</title>
<a xlink:href="../../d5/dc5/group__CIP__CALLBACK__API.html#ga729165f94320800eb9537def5a0e6af8" target="_top" xlink:title="Free memory allocated by the OpENer.">
<polygon fill="none" stroke="black" points="331.5,-80.5 331.5,-101.5 382.5,-101.5 382.5,-80.5 331.5,-80.5"/>
<text text-anchor="middle" x="357" y="-88.5" font-family="Helvetica,sans-Serif" font-size="10.00">CipFree</text>
</a>
</g>
<!-- Node8&#45;&gt;Node9 -->
<g id="edge16" class="edge"><title>Node8&#45;&gt;Node9</title>
<path fill="none" stroke="midnightblue" d="M241.25,-120.49C266.212,-114.131 297.715,-106.104 321.551,-100.032"/>
<polygon fill="midnightblue" stroke="midnightblue" points="322.43,-103.42 331.256,-97.559 320.701,-96.6363 322.43,-103.42"/>
</g>
<!-- Node11 -->
<g id="node21" class="node"><title>Node11</title>
<a xlink:href="../../db/d4f/generic__networkhandler_8c.html#aac0abfde6f2872cae33998b90683cf78" target="_top" xlink:title="IApp_CloseSocket_tcp">
<polygon fill="none" stroke="black" points="298.5,-160.5 298.5,-181.5 415.5,-181.5 415.5,-160.5 298.5,-160.5"/>
<text text-anchor="middle" x="357" y="-168.5" font-family="Helvetica,sans-Serif" font-size="10.00">IApp_CloseSocket_tcp</text>
</a>
</g>
<!-- Node10&#45;&gt;Node11 -->
<g id="edge20" class="edge"><title>Node10&#45;&gt;Node11</title>
<path fill="none" stroke="midnightblue" d="M262.051,-171C270.675,-171 279.577,-171 288.315,-171"/>
<polygon fill="midnightblue" stroke="midnightblue" points="288.469,-174.5 298.469,-171 288.469,-167.5 288.469,-174.5"/>
</g>
<!-- Node11&#45;&gt;Node5 -->
<g id="edge22" class="edge"><title>Node11&#45;&gt;Node5</title>
<path fill="none" stroke="midnightblue" d="M415.634,-172.451C467.138,-174.427 543.945,-179.077 610,-190 635.612,-194.235 663.735,-201.364 686.315,-207.718"/>
<polygon fill="midnightblue" stroke="midnightblue" points="685.371,-211.088 695.948,-210.476 687.298,-204.359 685.371,-211.088"/>
</g>
<!-- Node12 -->
<g id="node24" class="node"><title>Node12</title>
<a xlink:href="../../db/d4f/generic__networkhandler_8c.html#aea539a75995234e379a1c25019ba378f" target="_top" xlink:title="RemoveSocketTimerFromList">
<polygon fill="none" stroke="black" points="457.5,-121.5 457.5,-142.5 604.5,-142.5 604.5,-121.5 457.5,-121.5"/>
<text text-anchor="middle" x="531" y="-129.5" font-family="Helvetica,sans-Serif" font-size="10.00">RemoveSocketTimerFromList</text>
</a>
</g>
<!-- Node11&#45;&gt;Node12 -->
<g id="edge24" class="edge"><title>Node11&#45;&gt;Node12</title>
<path fill="none" stroke="midnightblue" d="M404.087,-160.446C425.654,-155.612 451.4,-149.841 474.048,-144.765"/>
<polygon fill="midnightblue" stroke="midnightblue" points="474.883,-148.165 483.875,-142.562 473.352,-141.334 474.883,-148.165"/>
</g>
<!-- Node13 -->
<g id="node26" class="node"><title>Node13</title>
<a xlink:href="../../d4/df6/socket__timer_8c.html#abe7542fdec4d4e4893a8c712192529ca" target="_top" xlink:title="Get the Socket Timer entry with the spezified socket value.">
<polygon fill="none" stroke="black" points="646.5,-141.5 646.5,-162.5 813.5,-162.5 813.5,-141.5 646.5,-141.5"/>
<text text-anchor="middle" x="730" y="-149.5" font-family="Helvetica,sans-Serif" font-size="10.00">SocketTimerArrayGetSocketTimer</text>
</a>
</g>
<!-- Node12&#45;&gt;Node13 -->
<g id="edge26" class="edge"><title>Node12&#45;&gt;Node13</title>
<path fill="none" stroke="midnightblue" d="M604.535,-139.39C614.855,-140.428 625.576,-141.505 636.209,-142.574"/>
<polygon fill="midnightblue" stroke="midnightblue" points="636.062,-146.077 646.362,-143.594 636.762,-139.112 636.062,-146.077"/>
</g>
<!-- Node14 -->
<g id="node28" class="node"><title>Node14</title>
<a xlink:href="../../d4/df6/socket__timer_8c.html#a6130830815ae46fe4e6d45cf89bc3506" target="_top" xlink:title="Clears a Socket Timer entry.">
<polygon fill="none" stroke="black" points="682.5,-101.5 682.5,-122.5 777.5,-122.5 777.5,-101.5 682.5,-101.5"/>
<text text-anchor="middle" x="730" y="-109.5" font-family="Helvetica,sans-Serif" font-size="10.00">SocketTimerClear</text>
</a>
</g>
<!-- Node12&#45;&gt;Node14 -->
<g id="edge28" class="edge"><title>Node12&#45;&gt;Node14</title>
<path fill="none" stroke="midnightblue" d="M604.535,-124.61C626.895,-122.362 651.136,-119.926 672.295,-117.8"/>
<polygon fill="midnightblue" stroke="midnightblue" points="672.813,-121.265 682.413,-116.783 672.113,-114.3 672.813,-121.265"/>
</g>
<!-- Node15&#45;&gt;Node9 -->
<g id="edge32" class="edge"><title>Node15&#45;&gt;Node9</title>
<path fill="none" stroke="midnightblue" d="M241.25,-61.5095C266.212,-67.8692 297.715,-75.8955 321.551,-81.9685"/>
<polygon fill="midnightblue" stroke="midnightblue" points="320.701,-85.3637 331.256,-84.441 322.43,-78.5804 320.701,-85.3637"/>
</g>
<!-- Node16 -->
<g id="node33" class="node"><title>Node16</title>
<a xlink:href="../../d2/dc9/group__CIP__API.html#ga5a14c8d76acacb09312b709bb0a76265" target="_top" xlink:title="Get a pointer to an instance&#39;s attribute.">
<polygon fill="none" stroke="black" points="315,-40.5 315,-61.5 399,-61.5 399,-40.5 315,-40.5"/>
<text text-anchor="middle" x="357" y="-48.5" font-family="Helvetica,sans-Serif" font-size="10.00">GetCipAttribute</text>
</a>
</g>
<!-- Node15&#45;&gt;Node16 -->
<g id="edge34" class="edge"><title>Node15&#45;&gt;Node16</title>
<path fill="none" stroke="midnightblue" d="M255.794,-51C271.7,-51 288.967,-51 304.659,-51"/>
<polygon fill="midnightblue" stroke="midnightblue" points="304.714,-54.5001 314.714,-51 304.714,-47.5001 304.714,-54.5001"/>
</g>
<!-- Node17 -->
<g id="node35" class="node"><title>Node17</title>
<a xlink:href="../../d2/dc9/group__CIP__API.html#ga98bd609c80ece316406363575b4a89ea" target="_top" xlink:title="Get a pointer to a CIP object with given class code.">
<polygon fill="none" stroke="black" points="320.5,-0.5 320.5,-21.5 393.5,-21.5 393.5,-0.5 320.5,-0.5"/>
<text text-anchor="middle" x="357" y="-8.5" font-family="Helvetica,sans-Serif" font-size="10.00">GetCipClass</text>
</a>
</g>
<!-- Node15&#45;&gt;Node17 -->
<g id="edge36" class="edge"><title>Node15&#45;&gt;Node17</title>
<path fill="none" stroke="midnightblue" d="M241.25,-40.4905C262.522,-35.0708 288.545,-28.4407 310.525,-22.8407"/>
<polygon fill="midnightblue" stroke="midnightblue" points="311.482,-26.2089 320.308,-20.3482 309.754,-19.4256 311.482,-26.2089"/>
</g>
<!-- Node18 -->
<g id="node37" class="node"><title>Node18</title>
<a xlink:href="../../d9/d7d/cipmessagerouter_8c.html#a7a9f44f2d6f010b6f6ee922d378d9bb1" target="_top" xlink:title="Get the registered MessageRouter object corresponding to ClassID. given a class ID, return a pointer to the registration node for that object.">
<polygon fill="none" stroke="black" points="477,-0.5 477,-21.5 585,-21.5 585,-0.5 477,-0.5"/>
<text text-anchor="middle" x="531" y="-8.5" font-family="Helvetica,sans-Serif" font-size="10.00">GetRegisteredObject</text>
</a>
</g>
<!-- Node17&#45;&gt;Node18 -->
<g id="edge38" class="edge"><title>Node17&#45;&gt;Node18</title>
<path fill="none" stroke="midnightblue" d="M393.901,-11C415.025,-11 442.126,-11 466.647,-11"/>
<polygon fill="midnightblue" stroke="midnightblue" points="466.973,-14.5001 476.973,-11 466.973,-7.5001 466.973,-14.5001"/>
</g>
<!-- Node19&#45;&gt;Node9 -->
<g id="edge42" class="edge"><title>Node19&#45;&gt;Node9</title>
<path fill="none" stroke="midnightblue" d="M261.6,-91C281.662,-91 303.27,-91 320.84,-91"/>
<polygon fill="midnightblue" stroke="midnightblue" points="321.208,-94.5001 331.208,-91 321.208,-87.5001 321.208,-94.5001"/>
</g>
</g>
</svg>
        <g id="navigator" transform="translate(0 0)" fill="#404254">
                <rect fill="#f2f5e9" fill-opacity="0.5" stroke="#606060" stroke-width=".5" x="0" y="0" width="60" height="60"/>
                <use id="zoomplus" xlink:href="#zoomPlus" x="17" y="9" onmousedown="handleZoom(evt,'in')"/>
                <use id="zoomminus" xlink:href="#zoomMin" x="42" y="9" onmousedown="handleZoom(evt,'out')"/>
                <use id="reset" xlink:href="#resetDef" x="30" y="36" onmousedown="handleReset()"/>
                <g id="arrowUp" xlink:href="#dirArrow" transform="translate(30 24)" onmousedown="handlePan(0,-1)">
                  <use xlink:href="#rim" fill="#404040">
                        <set attributeName="fill" to="#808080" begin="arrowUp.mouseover" end="arrowUp.mouseout"/>
                  </use>
                  <path fill="none" stroke="white" stroke-width="1.5" d="M0,-3.0v7 M-2.5,-0.5L0,-3.0L2.5,-0.5"/>
                </g>
                <g id="arrowRight" xlink:href="#dirArrow" transform="rotate(90) translate(36 -43)" onmousedown="handlePan(1,0)">
                  <use xlink:href="#rim" fill="#404040">
                        <set attributeName="fill" to="#808080" begin="arrowRight.mouseover" end="arrowRight.mouseout"/>
                  </use>
                  <path fill="none" stroke="white" stroke-width="1.5" d="M0,-3.0v7 M-2.5,-0.5L0,-3.0L2.5,-0.5"/>
                </g>
                <g id="arrowDown" xlink:href="#dirArrow" transform="rotate(180) translate(-30 -48)" onmousedown="handlePan(0,1)">
                  <use xlink:href="#rim" fill="#404040">
                        <set attributeName="fill" to="#808080" begin="arrowDown.mouseover" end="arrowDown.mouseout"/>
                  </use>
                  <path fill="none" stroke="white" stroke-width="1.5" d="M0,-3.0v7 M-2.5,-0.5L0,-3.0L2.5,-0.5"/>
                </g>
                <g id="arrowLeft" xlink:href="#dirArrow" transform="rotate(270) translate(-36 17)" onmousedown="handlePan(-1,0)">
                  <use xlink:href="#rim" fill="#404040">
                        <set attributeName="fill" to="#808080" begin="arrowLeft.mouseover" end="arrowLeft.mouseout"/>
                  </use>
                  <path fill="none" stroke="white" stroke-width="1.5" d="M0,-3.0v7 M-2.5,-0.5L0,-3.0L2.5,-0.5"/>
                </g>
        </g>
</svg>
