<?xml version="1.0" encoding="UTF-8" standalone="no"?>
<!DOCTYPE svg PUBLIC "-//W3C//DTD SVG 1.1//EN"
 "http://www.w3.org/Graphics/SVG/1.1/DTD/svg11.dtd">
<!-- Generated by graphviz version 2.26.3 (20100126.1600)
 -->
<!-- Title: G Pages: 1 -->
<!--zoomable 421 -->
<svg id="main" version="1.1" xmlns="http://www.w3.org/2000/svg" xmlns:xlink="http://www.w3.org/1999/xlink" xml:space="preserve" onload="init(evt)">
        <defs>
                <circle id="rim" cx="0" cy="0" r="7"/>
                <circle id="rim2" cx="0" cy="0" r="3.5"/>
                <g id="zoomPlus">
                        <use xlink:href="#rim" fill="#404040">
                                <set attributeName="fill" to="#808080" begin="zoomplus.mouseover" end="zoomplus.mouseout"/>
                        </use>
                        <path d="M-4,0h8M0,-4v8" fill="none" stroke="white" stroke-width="1.5" pointer-events="none"/>
                </g>
                <g id="zoomMin">
                        <use xlink:href="#rim" fill="#404040">
                                <set attributeName="fill" to="#808080" begin="zoomminus.mouseover" end="zoomminus.mouseout"/>
                        </use>
                        <path d="M-4,0h8" fill="none" stroke="white" stroke-width="1.5" pointer-events="none"/>
                </g>
                <g id="dirArrow">
                        <path fill="none" stroke="white" stroke-width="1.5" d="M0,-3.0v7 M-2.5,-0.5L0,-3.0L2.5,-0.5"/>
                </g>
               <g id="resetDef">
                       <use xlink:href="#rim2" fill="#404040">
                               <set attributeName="fill" to="#808080" begin="reset.mouseover" end="reset.mouseout"/>
                       </use>
               </g>
        </defs>

<script type="text/javascript">
var viewWidth = 1024;
var viewHeight = 421;
var sectionId = 'dynsection-29';
</script>
<script xlink:href="../../svgpan.js"/>
<svg id="graph" class="graph">
<g id="viewport">
<title>G</title>
<!-- Node1 -->
<g id="node1" class="node"><title>Node1</title>
<polygon fill="#bfbfbf" stroke="black" points="0.5,-120.5 0.5,-141.5 73.5,-141.5 73.5,-120.5 0.5,-120.5"/>
<text text-anchor="middle" x="37" y="-128.5" font-family="Helvetica,sans-Serif" font-size="10.00">GetCipClass</text>
</g>
<!-- Node2 -->
<g id="node3" class="node"><title>Node2</title>
<a xlink:href="../../d2/dc9/group__CIP__API.html#gae61b613fed863d30428e78b2311bf593" target="_top" xlink:title="Create an instance of an assembly object.">
<polygon fill="none" stroke="black" points="672,-351.5 672,-372.5 790,-372.5 790,-351.5 672,-351.5"/>
<text text-anchor="middle" x="731" y="-359.5" font-family="Helvetica,sans-Serif" font-size="10.00">CreateAssemblyObject</text>
</a>
</g>
<!-- Node1&#45;&gt;Node2 -->
<g id="edge2" class="edge"><title>Node1&#45;&gt;Node2</title>
<path fill="none" stroke="midnightblue" d="M51.3274,-149.685C64.995,-166.564 86.8759,-191.257 110,-208 225.459,-291.6 261.755,-310.241 400,-345 492.914,-368.361 604.983,-368.526 671.987,-365.785"/>
<polygon fill="midnightblue" stroke="midnightblue" points="53.9185,-147.319 44.9657,-141.653 48.4313,-151.665 53.9185,-147.319"/>
</g>
<!-- Node4 -->
<g id="node7" class="node"><title>Node4</title>
<a xlink:href="../../d2/dc9/group__CIP__API.html#ga3dfa07bc40e59ba348d713272d1cbfdb" target="_top" xlink:title="Allocate memory for new CIP Class and attributes.">
<polygon fill="none" stroke="black" points="194,-177.5 194,-198.5 280,-198.5 280,-177.5 194,-177.5"/>
<text text-anchor="middle" x="237" y="-185.5" font-family="Helvetica,sans-Serif" font-size="10.00">CreateCipClass</text>
</a>
</g>
<!-- Node1&#45;&gt;Node4 -->
<g id="edge6" class="edge"><title>Node1&#45;&gt;Node4</title>
<path fill="none" stroke="midnightblue" d="M83.314,-144.199C118.744,-154.297 166.954,-168.037 199.872,-177.419"/>
<polygon fill="midnightblue" stroke="midnightblue" points="84.2595,-140.83 73.6831,-141.455 82.3408,-147.562 84.2595,-140.83"/>
</g>
<!-- Node15 -->
<g id="node36" class="node"><title>Node15</title>
<a xlink:href="../../df/d03/cipioconnection_8c.html#a092519d4bb79e85405f3bae92391ab71" target="_top" xlink:title="HandleConfigData">
<polygon fill="none" stroke="black" points="188.5,-120.5 188.5,-141.5 285.5,-141.5 285.5,-120.5 188.5,-120.5"/>
<text text-anchor="middle" x="237" y="-128.5" font-family="Helvetica,sans-Serif" font-size="10.00">HandleConfigData</text>
</a>
</g>
<!-- Node1&#45;&gt;Node15 -->
<g id="edge42" class="edge"><title>Node1&#45;&gt;Node15</title>
<path fill="none" stroke="midnightblue" d="M83.9439,-131C115.397,-131 156.707,-131 188.482,-131"/>
<polygon fill="midnightblue" stroke="midnightblue" points="83.6831,-127.5 73.6831,-131 83.683,-134.5 83.6831,-127.5"/>
</g>
<!-- Node17 -->
<g id="node41" class="node"><title>Node17</title>
<a xlink:href="../../d5/d35/cipconnectionmanager_8c.html#a96ebb3d0e93c8d4ee4a7d6529061ee68" target="_top" xlink:title="Parse the connection path of a forward open request.">
<polygon fill="none" stroke="black" points="181,-0.5 181,-21.5 293,-21.5 293,-0.5 181,-0.5"/>
<text text-anchor="middle" x="237" y="-8.5" font-family="Helvetica,sans-Serif" font-size="10.00">ParseConnectionPath</text>
</a>
</g>
<!-- Node1&#45;&gt;Node17 -->
<g id="edge48" class="edge"><title>Node1&#45;&gt;Node17</title>
<path fill="none" stroke="midnightblue" d="M45.6485,-111.117C56.8904,-87.8321 78.8386,-50.0285 110,-31 131.05,-18.1462 157.589,-12.6625 180.958,-10.5814"/>
<polygon fill="midnightblue" stroke="midnightblue" points="42.38,-109.847 41.3658,-120.393 48.7353,-112.781 42.38,-109.847"/>
</g>
<!-- Node19 -->
<g id="node45" class="node"><title>Node19</title>
<a xlink:href="../../df/d03/cipioconnection_8c.html#a198846e6013a89a27816d2eae392b0cc" target="_top" xlink:title="SetupIoConnectionOriginatorToTargetConnectionPoint">
<polygon fill="none" stroke="black" points="110.5,-80.5 110.5,-101.5 363.5,-101.5 363.5,-80.5 110.5,-80.5"/>
<text text-anchor="middle" x="237" y="-88.5" font-family="Helvetica,sans-Serif" font-size="10.00">SetupIoConnectionOriginatorToTargetConnectionPoint</text>
</a>
</g>
<!-- Node1&#45;&gt;Node19 -->
<g id="edge52" class="edge"><title>Node1&#45;&gt;Node19</title>
<path fill="none" stroke="midnightblue" d="M82.1738,-117.783C91.3379,-115.339 100.943,-112.948 110,-111 126.475,-107.457 144.279,-104.265 161.195,-101.524"/>
<polygon fill="midnightblue" stroke="midnightblue" points="81.1755,-114.427 72.4495,-120.436 83.0181,-121.18 81.1755,-114.427"/>
</g>
<!-- Node20 -->
<g id="node48" class="node"><title>Node20</title>
<a xlink:href="../../df/d03/cipioconnection_8c.html#a58143f4b37db19c4acac195032340b05" target="_top" xlink:title="SetupIoConnectionTargetToOriginatorConnectionPoint">
<polygon fill="none" stroke="black" points="110.5,-40.5 110.5,-61.5 363.5,-61.5 363.5,-40.5 110.5,-40.5"/>
<text text-anchor="middle" x="237" y="-48.5" font-family="Helvetica,sans-Serif" font-size="10.00">SetupIoConnectionTargetToOriginatorConnectionPoint</text>
</a>
</g>
<!-- Node1&#45;&gt;Node20 -->
<g id="edge56" class="edge"><title>Node1&#45;&gt;Node20</title>
<path fill="none" stroke="midnightblue" d="M53.9038,-112.566C67.6343,-98.8118 88.2324,-80.7752 110,-71 118.552,-67.1596 127.716,-64.0411 137.061,-61.5108"/>
<polygon fill="midnightblue" stroke="midnightblue" points="51.0828,-110.449 46.6562,-120.075 56.1194,-115.311 51.0828,-110.449"/>
</g>
<!-- Node21 -->
<g id="node51" class="node"><title>Node21</title>
<a xlink:href="../../de/df4/cipassembly_8h.html#adcacd62b6a866c5c74c3cdda19598b98" target="_top" xlink:title="clean up the data allocated in the assembly object instances">
<polygon fill="none" stroke="black" points="675.5,-391.5 675.5,-412.5 786.5,-412.5 786.5,-391.5 675.5,-391.5"/>
<text text-anchor="middle" x="731" y="-399.5" font-family="Helvetica,sans-Serif" font-size="10.00">ShutdownAssemblies</text>
</a>
</g>
<!-- Node1&#45;&gt;Node21 -->
<g id="edge60" class="edge"><title>Node1&#45;&gt;Node21</title>
<path fill="none" stroke="midnightblue" d="M41.1014,-151.738C48.7371,-184.845 68.2951,-249.512 110,-285 275.435,-425.776 556.448,-418.779 675.291,-408.383"/>
<polygon fill="midnightblue" stroke="midnightblue" points="44.4887,-150.843 38.9541,-141.809 37.6468,-152.323 44.4887,-150.843"/>
</g>
<!-- Node3 -->
<g id="node5" class="node"><title>Node3</title>
<a xlink:href="../../d5/dc5/group__CIP__CALLBACK__API.html#gae93106eb1647bff3ad56a7752799d878" target="_top" xlink:title="Callback for the application initialization.">
<polygon fill="none" stroke="black" points="826,-351.5 826,-372.5 942,-372.5 942,-351.5 826,-351.5"/>
<text text-anchor="middle" x="884" y="-359.5" font-family="Helvetica,sans-Serif" font-size="10.00">ApplicationInitialization</text>
</a>
</g>
<!-- Node2&#45;&gt;Node3 -->
<g id="edge4" class="edge"><title>Node2&#45;&gt;Node3</title>
<path fill="none" stroke="midnightblue" d="M800.405,-362C808.879,-362 817.471,-362 825.759,-362"/>
<polygon fill="midnightblue" stroke="midnightblue" points="800.154,-358.5 790.154,-362 800.154,-365.5 800.154,-358.5"/>
</g>
<!-- Node5 -->
<g id="node9" class="node"><title>Node5</title>
<a xlink:href="../../dd/d4d/cipethernetlink_8h.html#ad6d2028b90ec96ad148d092a30acb7d6" target="_top" xlink:title="Initialize the Ethernet Link Objects data.">
<polygon fill="none" stroke="black" points="681,-157.5 681,-178.5 781,-178.5 781,-157.5 681,-157.5"/>
<text text-anchor="middle" x="731" y="-165.5" font-family="Helvetica,sans-Serif" font-size="10.00">CipEthernetLinkInit</text>
</a>
</g>
<!-- Node4&#45;&gt;Node5 -->
<g id="edge8" class="edge"><title>Node4&#45;&gt;Node5</title>
<path fill="none" stroke="midnightblue" d="M290.49,-185.834C386.645,-181.941 587.377,-173.815 680.963,-170.026"/>
<polygon fill="midnightblue" stroke="midnightblue" points="290.256,-182.341 280.406,-186.243 290.54,-189.335 290.256,-182.341"/>
</g>
<!-- Node8 -->
<g id="node15" class="node"><title>Node8</title>
<a xlink:href="../../dc/d72/cipidentity_8h.html#a5d5136e167300543aa046057b56ae813" target="_top" xlink:title="CIP Identity object constructor.">
<polygon fill="none" stroke="black" points="692.5,-117.5 692.5,-138.5 769.5,-138.5 769.5,-117.5 692.5,-117.5"/>
<text text-anchor="middle" x="731" y="-125.5" font-family="Helvetica,sans-Serif" font-size="10.00">CipIdentityInit</text>
</a>
</g>
<!-- Node4&#45;&gt;Node8 -->
<g id="edge14" class="edge"><title>Node4&#45;&gt;Node8</title>
<path fill="none" stroke="midnightblue" d="M290.23,-181.444C322.077,-177.528 363.353,-172.463 400,-168 505.724,-155.126 630.465,-140.094 692.269,-132.657"/>
<polygon fill="midnightblue" stroke="midnightblue" points="289.737,-177.978 280.239,-182.673 290.592,-184.926 289.737,-177.978"/>
</g>
<!-- Node9 -->
<g id="node18" class="node"><title>Node9</title>
<a xlink:href="../../d2/d75/cipmessagerouter_8h.html#aa3456b75c1b2289296323b578fee2d3d" target="_top" xlink:title="Initialize the data structures of the message router.">
<polygon fill="none" stroke="black" points="461,-274.5 461,-295.5 575,-295.5 575,-274.5 461,-274.5"/>
<text text-anchor="middle" x="518" y="-282.5" font-family="Helvetica,sans-Serif" font-size="10.00">CipMessageRouterInit</text>
</a>
</g>
<!-- Node4&#45;&gt;Node9 -->
<g id="edge18" class="edge"><title>Node4&#45;&gt;Node9</title>
<path fill="none" stroke="midnightblue" d="M264.468,-203.844C296.129,-221.417 350.214,-249.348 400,-265 419.425,-271.107 441.27,-275.469 460.836,-278.528"/>
<polygon fill="midnightblue" stroke="midnightblue" points="265.825,-200.592 255.392,-198.748 262.398,-206.695 265.825,-200.592"/>
</g>
<!-- Node10 -->
<g id="node21" class="node"><title>Node10</title>
<a xlink:href="../../d0/d3c/cipqos_8h.html#ab9a656060dcf03c3f51dbd967dff3f52" target="_top" xlink:title="CipQoSInit">
<polygon fill="none" stroke="black" points="485.5,-234.5 485.5,-255.5 550.5,-255.5 550.5,-234.5 485.5,-234.5"/>
<text text-anchor="middle" x="518" y="-242.5" font-family="Helvetica,sans-Serif" font-size="10.00">CipQoSInit</text>
</a>
</g>
<!-- Node4&#45;&gt;Node10 -->
<g id="edge22" class="edge"><title>Node4&#45;&gt;Node10</title>
<path fill="none" stroke="midnightblue" d="M290.075,-200.828C321.867,-208.318 363.141,-217.699 400,-225 428.739,-230.693 461.617,-236.182 485.356,-239.965"/>
<polygon fill="midnightblue" stroke="midnightblue" points="290.64,-197.366 280.103,-198.468 289.028,-204.177 290.64,-197.366"/>
</g>
<!-- Node11 -->
<g id="node24" class="node"><title>Node11</title>
<a xlink:href="../../d1/dad/ciptcpipinterface_8h.html#a4c1f49654e48c5581513d990840933b0" target="_top" xlink:title="Initializing the data structures of the TCP/IP interface object.">
<polygon fill="none" stroke="black" points="464,-194.5 464,-215.5 572,-215.5 572,-194.5 464,-194.5"/>
<text text-anchor="middle" x="518" y="-202.5" font-family="Helvetica,sans-Serif" font-size="10.00">CipTcpIpInterfaceInit</text>
</a>
</g>
<!-- Node4&#45;&gt;Node11 -->
<g id="edge26" class="edge"><title>Node4&#45;&gt;Node11</title>
<path fill="none" stroke="midnightblue" d="M290.501,-191.237C340.132,-194.239 413.645,-198.687 463.571,-201.707"/>
<polygon fill="midnightblue" stroke="midnightblue" points="290.484,-187.729 280.29,-190.619 290.061,-194.717 290.484,-187.729"/>
</g>
<!-- Node12 -->
<g id="node27" class="node"><title>Node12</title>
<a xlink:href="../../d2/da3/cipconnectionmanager_8h.html#a5ab0de6894d23e8fe84a6b46797c2212" target="_top" xlink:title="Initialize the data of the connection manager object.">
<polygon fill="none" stroke="black" points="672.5,-77.5 672.5,-98.5 789.5,-98.5 789.5,-77.5 672.5,-77.5"/>
<text text-anchor="middle" x="731" y="-85.5" font-family="Helvetica,sans-Serif" font-size="10.00">ConnectionManagerInit</text>
</a>
</g>
<!-- Node4&#45;&gt;Node12 -->
<g id="edge30" class="edge"><title>Node4&#45;&gt;Node12</title>
<path fill="none" stroke="midnightblue" d="M288.068,-174.815C311.449,-168.347 339.374,-160.013 364,-151 380.442,-144.982 383.171,-139.833 400,-135 493.025,-108.287 605.3,-96.4326 672.278,-91.414"/>
<polygon fill="midnightblue" stroke="midnightblue" points="287.073,-171.458 278.348,-177.469 288.917,-178.211 287.073,-171.458"/>
</g>
<!-- Node13 -->
<g id="node30" class="node"><title>Node13</title>
<a xlink:href="../../df/d2e/cipassembly_8c.html#a5973ef42110a1bdf6c7699e35e04b7d4" target="_top" xlink:title="Constructor for the assembly object class.">
<polygon fill="none" stroke="black" points="460.5,-314.5 460.5,-335.5 575.5,-335.5 575.5,-314.5 460.5,-314.5"/>
<text text-anchor="middle" x="518" y="-322.5" font-family="Helvetica,sans-Serif" font-size="10.00">CreateAssemblyClass</text>
</a>
</g>
<!-- Node4&#45;&gt;Node13 -->
<g id="edge34" class="edge"><title>Node4&#45;&gt;Node13</title>
<path fill="none" stroke="midnightblue" d="M255.733,-205.939C284.346,-232.224 341.772,-280.708 400,-305 418.889,-312.88 440.711,-317.657 460.414,-320.552"/>
<polygon fill="midnightblue" stroke="midnightblue" points="257.83,-203.109 248.129,-198.849 253.056,-208.228 257.83,-203.109"/>
</g>
<!-- Node6 -->
<g id="node11" class="node"><title>Node6</title>
<a xlink:href="../../d2/dc9/group__CIP__API.html#ga5d4979945d124e28668b264c3823db1c" target="_top" xlink:title="Initialize and setup the CIP&#45;stack.">
<polygon fill="none" stroke="black" points="848.5,-215.5 848.5,-236.5 919.5,-236.5 919.5,-215.5 848.5,-215.5"/>
<text text-anchor="middle" x="884" y="-223.5" font-family="Helvetica,sans-Serif" font-size="10.00">CipStackInit</text>
</a>
</g>
<!-- Node5&#45;&gt;Node6 -->
<g id="edge10" class="edge"><title>Node5&#45;&gt;Node6</title>
<path fill="none" stroke="midnightblue" d="M768.263,-182.126C795.413,-192.418 831.605,-206.138 856.241,-215.477"/>
<polygon fill="midnightblue" stroke="midnightblue" points="769.298,-178.775 758.707,-178.503 766.817,-185.321 769.298,-178.775"/>
</g>
<!-- Node7 -->
<g id="node13" class="node"><title>Node7</title>
<a xlink:href="../../d9/dfb/POSIX_2main_8c.html#ad338a7dbc41dc40bcecd0479377ef207" target="_top" xlink:title="main">
<polygon fill="none" stroke="black" points="978,-312.5 978,-333.5 1016,-333.5 1016,-312.5 978,-312.5"/>
<text text-anchor="middle" x="997" y="-320.5" font-family="Helvetica,sans-Serif" font-size="10.00">main</text>
</a>
</g>
<!-- Node6&#45;&gt;Node7 -->
<g id="edge12" class="edge"><title>Node6&#45;&gt;Node7</title>
<path fill="none" stroke="midnightblue" d="M904.145,-243.293C927.547,-263.381 965.411,-295.884 984.763,-312.495"/>
<polygon fill="midnightblue" stroke="midnightblue" points="906.392,-240.609 896.525,-236.751 901.833,-245.921 906.392,-240.609"/>
</g>
<!-- Node8&#45;&gt;Node6 -->
<g id="edge16" class="edge"><title>Node8&#45;&gt;Node6</title>
<path fill="none" stroke="midnightblue" d="M778.431,-142.337C782.427,-144.065 786.336,-145.952 790,-148 824.059,-167.039 857.719,-199.005 873.958,-215.479"/>
<polygon fill="midnightblue" stroke="midnightblue" points="779.61,-139.04 769.025,-138.595 777.023,-145.544 779.61,-139.04"/>
</g>
<!-- Node9&#45;&gt;Node6 -->
<g id="edge20" class="edge"><title>Node9&#45;&gt;Node6</title>
<path fill="none" stroke="midnightblue" d="M585.269,-277.142C640.464,-270.325 720.547,-259.588 790,-247 809.415,-243.481 830.904,-238.744 848.429,-234.66"/>
<polygon fill="midnightblue" stroke="midnightblue" points="584.761,-273.678 575.261,-278.368 585.613,-280.626 584.761,-273.678"/>
</g>
<!-- Node10&#45;&gt;Node6 -->
<g id="edge24" class="edge"><title>Node10&#45;&gt;Node6</title>
<path fill="none" stroke="midnightblue" d="M561.022,-242.767C634.041,-238.976 780.872,-231.354 848.462,-227.845"/>
<polygon fill="midnightblue" stroke="midnightblue" points="560.607,-239.283 550.802,-243.297 560.97,-246.274 560.607,-239.283"/>
</g>
<!-- Node11&#45;&gt;Node6 -->
<g id="edge28" class="edge"><title>Node11&#45;&gt;Node6</title>
<path fill="none" stroke="midnightblue" d="M582.106,-208.678C659.422,-213.114 786.663,-220.415 848.311,-223.952"/>
<polygon fill="midnightblue" stroke="midnightblue" points="582.189,-205.177 572.005,-208.099 581.788,-212.166 582.189,-205.177"/>
</g>
<!-- Node12&#45;&gt;Node6 -->
<g id="edge32" class="edge"><title>Node12&#45;&gt;Node6</title>
<path fill="none" stroke="midnightblue" d="M781.404,-102.802C784.407,-104.375 787.301,-106.104 790,-108 832.433,-137.814 865.459,-192.098 878.245,-215.165"/>
<polygon fill="midnightblue" stroke="midnightblue" points="782.697,-99.5434 772.15,-98.5324 779.764,-105.9 782.697,-99.5434"/>
</g>
<!-- Node13&#45;&gt;Node2 -->
<g id="edge40" class="edge"><title>Node13&#45;&gt;Node2</title>
<path fill="none" stroke="midnightblue" d="M585.641,-336.75C613.33,-341.56 645.08,-347.075 671.829,-351.721"/>
<polygon fill="midnightblue" stroke="midnightblue" points="586.092,-333.276 575.641,-335.013 584.894,-340.173 586.092,-333.276"/>
</g>
<!-- Node14 -->
<g id="node32" class="node"><title>Node14</title>
<a xlink:href="../../de/df4/cipassembly_8h.html#a4dfbc2c7a8e9e77f05a0a7236210f5b4" target="_top" xlink:title="Setup the Assembly object.">
<polygon fill="none" stroke="black" points="675.5,-311.5 675.5,-332.5 786.5,-332.5 786.5,-311.5 675.5,-311.5"/>
<text text-anchor="middle" x="731" y="-319.5" font-family="Helvetica,sans-Serif" font-size="10.00">CipAssemblyInitialize</text>
</a>
</g>
<!-- Node13&#45;&gt;Node14 -->
<g id="edge36" class="edge"><title>Node13&#45;&gt;Node14</title>
<path fill="none" stroke="midnightblue" d="M585.643,-324.047C614.487,-323.641 647.739,-323.173 675.153,-322.787"/>
<polygon fill="midnightblue" stroke="midnightblue" points="585.591,-320.548 575.641,-324.188 585.689,-327.547 585.591,-320.548"/>
</g>
<!-- Node14&#45;&gt;Node6 -->
<g id="edge38" class="edge"><title>Node14&#45;&gt;Node6</title>
<path fill="none" stroke="midnightblue" d="M769.321,-307.39C776.349,-304.257 783.51,-300.749 790,-297 821.522,-278.79 854.654,-251.578 871.917,-236.686"/>
<polygon fill="midnightblue" stroke="midnightblue" points="767.714,-304.27 759.893,-311.418 770.464,-310.707 767.714,-304.27"/>
</g>
<!-- Node16 -->
<g id="node38" class="node"><title>Node16</title>
<a xlink:href="../../de/d45/cipioconnection_8h.html#a699fccd3dabdfec1b77560f22268c1e8" target="_top" xlink:title="Setup all data in order to establish an IO connection.">
<polygon fill="none" stroke="black" points="460.5,-40.5 460.5,-61.5 575.5,-61.5 575.5,-40.5 460.5,-40.5"/>
<text text-anchor="middle" x="518" y="-48.5" font-family="Helvetica,sans-Serif" font-size="10.00">EstablishIoConnection</text>
</a>
</g>
<!-- Node15&#45;&gt;Node16 -->
<g id="edge44" class="edge"><title>Node15&#45;&gt;Node16</title>
<path fill="none" stroke="midnightblue" d="M295.598,-129.271C317.941,-126.725 343.053,-121.476 364,-111 383.958,-101.018 380.311,-86.5031 400,-76 418.384,-66.1931 440.303,-60.2329 460.232,-56.6107"/>
<polygon fill="midnightblue" stroke="midnightblue" points="295.161,-125.797 285.552,-130.259 295.847,-132.763 295.161,-125.797"/>
</g>
<!-- Node16&#45;&gt;Node12 -->
<g id="edge46" class="edge"><title>Node16&#45;&gt;Node12</title>
<path fill="none" stroke="midnightblue" d="M585.684,-62.7572C613.491,-67.5876 645.388,-73.1284 672.201,-77.7861"/>
<polygon fill="midnightblue" stroke="midnightblue" points="586.092,-59.2759 575.641,-61.0127 584.894,-66.1726 586.092,-59.2759"/>
</g>
<!-- Node18 -->
<g id="node43" class="node"><title>Node18</title>
<a xlink:href="../../d5/d35/cipconnectionmanager_8c.html#ab0532e3b6d153312d4cf60746586058e" target="_top" xlink:title="Handles a Non Null Non Matching Forward Open Request.">
<polygon fill="none" stroke="black" points="400,-0.5 400,-21.5 636,-21.5 636,-0.5 400,-0.5"/>
<text text-anchor="middle" x="518" y="-8.5" font-family="Helvetica,sans-Serif" font-size="10.00">HandleNonNullNonMatchingForwardOpenRequest</text>
</a>
</g>
<!-- Node17&#45;&gt;Node18 -->
<g id="edge50" class="edge"><title>Node17&#45;&gt;Node18</title>
<path fill="none" stroke="midnightblue" d="M303.517,-11C332.298,-11 366.874,-11 399.777,-11"/>
<polygon fill="midnightblue" stroke="midnightblue" points="303.189,-7.5001 293.189,-11 303.189,-14.5001 303.189,-7.5001"/>
</g>
<!-- Node19&#45;&gt;Node16 -->
<g id="edge54" class="edge"><title>Node19&#45;&gt;Node16</title>
<path fill="none" stroke="midnightblue" d="M320.853,-79.0636C365.777,-72.6687 419.982,-64.9527 460.176,-59.2312"/>
<polygon fill="midnightblue" stroke="midnightblue" points="320.236,-75.616 310.829,-80.4905 321.223,-82.5462 320.236,-75.616"/>
</g>
<!-- Node20&#45;&gt;Node16 -->
<g id="edge58" class="edge"><title>Node20&#45;&gt;Node16</title>
<path fill="none" stroke="midnightblue" d="M373.848,-51C404.337,-51 435.056,-51 460.256,-51"/>
<polygon fill="midnightblue" stroke="midnightblue" points="373.525,-47.5001 363.525,-51 373.525,-54.5001 373.525,-47.5001"/>
</g>
<!-- Node22 -->
<g id="node53" class="node"><title>Node22</title>
<a xlink:href="../../d2/dc9/group__CIP__API.html#gaa57b527530adc2acda6febc500fd6831" target="_top" xlink:title="Shutdown of the CIP stack.">
<polygon fill="none" stroke="black" points="833.5,-391.5 833.5,-412.5 934.5,-412.5 934.5,-391.5 833.5,-391.5"/>
<text text-anchor="middle" x="884" y="-399.5" font-family="Helvetica,sans-Serif" font-size="10.00">ShutdownCipStack</text>
</a>
</g>
<!-- Node21&#45;&gt;Node22 -->
<g id="edge62" class="edge"><title>Node21&#45;&gt;Node22</title>
<path fill="none" stroke="midnightblue" d="M796.85,-402C809.109,-402 821.739,-402 833.449,-402"/>
<polygon fill="midnightblue" stroke="midnightblue" points="796.669,-398.5 786.669,-402 796.669,-405.5 796.669,-398.5"/>
</g>
<!-- Node22&#45;&gt;Node7 -->
<g id="edge64" class="edge"><title>Node22&#45;&gt;Node7</title>
<path fill="none" stroke="midnightblue" d="M932.648,-387.271C935.902,-385.669 939.053,-383.915 942,-382 962.196,-368.876 980.082,-346.754 989.644,-333.649"/>
<polygon fill="midnightblue" stroke="midnightblue" points="931.032,-384.158 923.292,-391.393 933.854,-390.564 931.032,-384.158"/>
</g>
</g>
</svg>
        <g id="navigator" transform="translate(0 0)" fill="#404254">
                <rect fill="#f2f5e9" fill-opacity="0.5" stroke="#606060" stroke-width=".5" x="0" y="0" width="60" height="60"/>
                <use id="zoomplus" xlink:href="#zoomPlus" x="17" y="9" onmousedown="handleZoom(evt,'in')"/>
                <use id="zoomminus" xlink:href="#zoomMin" x="42" y="9" onmousedown="handleZoom(evt,'out')"/>
                <use id="reset" xlink:href="#resetDef" x="30" y="36" onmousedown="handleReset()"/>
                <g id="arrowUp" xlink:href="#dirArrow" transform="translate(30 24)" onmousedown="handlePan(0,-1)">
                  <use xlink:href="#rim" fill="#404040">
                        <set attributeName="fill" to="#808080" begin="arrowUp.mouseover" end="arrowUp.mouseout"/>
                  </use>
                  <path fill="none" stroke="white" stroke-width="1.5" d="M0,-3.0v7 M-2.5,-0.5L0,-3.0L2.5,-0.5"/>
                </g>
                <g id="arrowRight" xlink:href="#dirArrow" transform="rotate(90) translate(36 -43)" onmousedown="handlePan(1,0)">
                  <use xlink:href="#rim" fill="#404040">
                        <set attributeName="fill" to="#808080" begin="arrowRight.mouseover" end="arrowRight.mouseout"/>
                  </use>
                  <path fill="none" stroke="white" stroke-width="1.5" d="M0,-3.0v7 M-2.5,-0.5L0,-3.0L2.5,-0.5"/>
                </g>
                <g id="arrowDown" xlink:href="#dirArrow" transform="rotate(180) translate(-30 -48)" onmousedown="handlePan(0,1)">
                  <use xlink:href="#rim" fill="#404040">
                        <set attributeName="fill" to="#808080" begin="arrowDown.mouseover" end="arrowDown.mouseout"/>
                  </use>
                  <path fill="none" stroke="white" stroke-width="1.5" d="M0,-3.0v7 M-2.5,-0.5L0,-3.0L2.5,-0.5"/>
                </g>
                <g id="arrowLeft" xlink:href="#dirArrow" transform="rotate(270) translate(-36 17)" onmousedown="handlePan(-1,0)">
                  <use xlink:href="#rim" fill="#404040">
                        <set attributeName="fill" to="#808080" begin="arrowLeft.mouseover" end="arrowLeft.mouseout"/>
                  </use>
                  <path fill="none" stroke="white" stroke-width="1.5" d="M0,-3.0v7 M-2.5,-0.5L0,-3.0L2.5,-0.5"/>
                </g>
        </g>
</svg>
