<?xml version="1.0" encoding="UTF-8" standalone="no"?>
<!DOCTYPE svg PUBLIC "-//W3C//DTD SVG 1.1//EN"
 "http://www.w3.org/Graphics/SVG/1.1/DTD/svg11.dtd">
<!-- Generated by graphviz version 2.36.0 (20140111.2315)
 -->
<!-- Title: HandleReceivedExplictUdpData Pages: 1 -->
<!--zoomable 302 -->
<svg id="main" version="1.1" xmlns="http://www.w3.org/2000/svg" xmlns:xlink="http://www.w3.org/1999/xlink" xml:space="preserve" onload="init(evt)">
<style type="text/css"><![CDATA[
.edge:hover path { stroke: red; }
.edge:hover polygon { stroke: red; fill: red; }
]]></style>
<script type="text/javascript"><![CDATA[
var edges = document.getElementsByTagName('g');
if (edges && edges.length) {
  for (var i=0;i<edges.length;i++) {
    if (edges[i].id.substr(0,4)=='edge') {
      edges[i].setAttribute('class','edge');
    }
  }
}
]]></script>
        <defs>
                <circle id="rim" cx="0" cy="0" r="7"/>
                <circle id="rim2" cx="0" cy="0" r="3.5"/>
                <g id="zoomPlus">
                        <use xlink:href="#rim" fill="#404040">
                                <set attributeName="fill" to="#808080" begin="zoomplus.mouseover" end="zoomplus.mouseout"/>
                        </use>
                        <path d="M-4,0h8M0,-4v8" fill="none" stroke="white" stroke-width="1.5" pointer-events="none"/>
                </g>
                <g id="zoomMin">
                        <use xlink:href="#rim" fill="#404040">
                                <set attributeName="fill" to="#808080" begin="zoomminus.mouseover" end="zoomminus.mouseout"/>
                        </use>
                        <path d="M-4,0h8" fill="none" stroke="white" stroke-width="1.5" pointer-events="none"/>
                </g>
                <g id="dirArrow">
                        <path fill="none" stroke="white" stroke-width="1.5" d="M0,-3.0v7 M-2.5,-0.5L0,-3.0L2.5,-0.5"/>
                </g>
               <g id="resetDef">
                       <use xlink:href="#rim2" fill="#404040">
                               <set attributeName="fill" to="#808080" begin="reset.mouseover" end="reset.mouseout"/>
                       </use>
               </g>
        </defs>

<script type="text/javascript">
var viewWidth = 876;
var viewHeight = 302;
var sectionId = 'dynsection-34';
</script>
<script xlink:href="../../svgpan.js"/>
<svg id="graph" class="graph">
<g id="viewport">
<title>HandleReceivedExplictUdpData</title>
<!-- Node1 -->
<g id="node1" class="node"><title>Node1</title>
<polygon fill="#bfbfbf" stroke="black" points="0,-118.5 0,-137.5 158,-137.5 158,-118.5 0,-118.5"/>
<text text-anchor="middle" x="79" y="-125.5" font-family="Helvetica,sans-Serif" font-size="10.00">HandleReceivedExplictUdpData</text>
</g>
<!-- Node2 -->
<g id="node2" class="node"><title>Node2</title>
<g id="a_node2"><a xlink:href="../../d2/dbd/encap_8c.html#a86cfa03514f786d1315f7c4833cb2561" target="_top" xlink:title="copy data from pa_buf in little endian to host in structure. ">
<polygon fill="none" stroke="black" points="194.5,-236.5 194.5,-255.5 341.5,-255.5 341.5,-236.5 194.5,-236.5"/>
<text text-anchor="middle" x="268" y="-243.5" font-family="Helvetica,sans-Serif" font-size="10.00">CreateEncapsulationStructure</text>
</a>
</g>
</g>
<!-- Node1&#45;&gt;Node2 -->
<g id="edge1" class="edge"><title>Node1&#45;&gt;Node2</title>
<path fill="none" stroke="midnightblue" d="M94.7057,-137.531C116.372,-151.547 158.181,-178.494 194,-201 210.132,-211.136 228.377,-222.383 242.592,-231.098"/>
<polygon fill="midnightblue" stroke="midnightblue" points="240.932,-234.185 251.288,-236.421 244.586,-228.215 240.932,-234.185"/>
</g>
<!-- Node5 -->
<g id="node5" class="node"><title>Node5</title>
<g id="a_node5"><a xlink:href="../../d2/dbd/encap_8c.html#ae4d21e6254396c9cb1b5716b054e57de" target="_top" xlink:title="HandleReceivedListIdentity\lCommandTcp">
<polygon fill="none" stroke="black" points="199.5,-113 199.5,-143 336.5,-143 336.5,-113 199.5,-113"/>
<text text-anchor="start" x="207.5" y="-131" font-family="Helvetica,sans-Serif" font-size="10.00">HandleReceivedListIdentity</text>
<text text-anchor="middle" x="268" y="-120" font-family="Helvetica,sans-Serif" font-size="10.00">CommandTcp</text>
</a>
</g>
</g>
<!-- Node1&#45;&gt;Node5 -->
<g id="edge4" class="edge"><title>Node1&#45;&gt;Node5</title>
<path fill="none" stroke="midnightblue" d="M158.221,-128C168.505,-128 179.042,-128 189.317,-128"/>
<polygon fill="midnightblue" stroke="midnightblue" points="189.485,-131.5 199.485,-128 189.485,-124.5 189.485,-131.5"/>
</g>
<!-- Node12 -->
<g id="node12" class="node"><title>Node12</title>
<g id="a_node12"><a xlink:href="../../d2/dbd/encap_8c.html#aa042b74f0d2659164f5c6811e6cb4fda" target="_top" xlink:title="HandleReceivedListIdentity\lCommandUdp">
<polygon fill="none" stroke="black" points="199.5,-162 199.5,-192 336.5,-192 336.5,-162 199.5,-162"/>
<text text-anchor="start" x="207.5" y="-180" font-family="Helvetica,sans-Serif" font-size="10.00">HandleReceivedListIdentity</text>
<text text-anchor="middle" x="268" y="-169" font-family="Helvetica,sans-Serif" font-size="10.00">CommandUdp</text>
</a>
</g>
</g>
<!-- Node1&#45;&gt;Node12 -->
<g id="edge15" class="edge"><title>Node1&#45;&gt;Node12</title>
<path fill="none" stroke="midnightblue" d="M116.499,-137.564C140.174,-143.768 171.733,-152.037 199.836,-159.401"/>
<polygon fill="midnightblue" stroke="midnightblue" points="199.053,-162.814 209.614,-161.963 200.828,-156.043 199.053,-162.814"/>
</g>
<!-- Node14 -->
<g id="node14" class="node"><title>Node14</title>
<g id="a_node14"><a xlink:href="../../d2/dbd/encap_8c.html#a371a47e722a3aea264b6eb39cfc725aa" target="_top" xlink:title="HandleReceivedListInterfaces\lCommand">
<polygon fill="none" stroke="black" points="386,-49 386,-79 534,-79 534,-49 386,-49"/>
<text text-anchor="start" x="394" y="-67" font-family="Helvetica,sans-Serif" font-size="10.00">HandleReceivedListInterfaces</text>
<text text-anchor="middle" x="460" y="-56" font-family="Helvetica,sans-Serif" font-size="10.00">Command</text>
</a>
</g>
</g>
<!-- Node1&#45;&gt;Node14 -->
<g id="edge20" class="edge"><title>Node1&#45;&gt;Node14</title>
<path fill="none" stroke="midnightblue" d="M120.223,-118.461C141.989,-113.481 169.385,-107.505 194,-103 254.7,-91.8917 323.674,-81.8206 376.036,-74.6961"/>
<polygon fill="midnightblue" stroke="midnightblue" points="376.505,-78.1645 385.946,-73.3558 375.567,-71.2277 376.505,-78.1645"/>
</g>
<!-- Node15 -->
<g id="node15" class="node"><title>Node15</title>
<g id="a_node15"><a xlink:href="../../d2/dbd/encap_8c.html#a85c97a897b8f95d2a05e6480480bba5d" target="_top" xlink:title="generate reply with &quot;Communications Services&quot; + compatibility Flags. ">
<polygon fill="none" stroke="black" points="388.5,-0 388.5,-30 531.5,-30 531.5,-0 388.5,-0"/>
<text text-anchor="start" x="396.5" y="-18" font-family="Helvetica,sans-Serif" font-size="10.00">HandleReceivedListServices</text>
<text text-anchor="middle" x="460" y="-7" font-family="Helvetica,sans-Serif" font-size="10.00">Command</text>
</a>
</g>
</g>
<!-- Node1&#45;&gt;Node15 -->
<g id="edge23" class="edge"><title>Node1&#45;&gt;Node15</title>
<path fill="none" stroke="midnightblue" d="M98.5196,-118.39C120.718,-107.184 159.279,-88.7088 194,-77 254.568,-56.5751 325.125,-40.4233 378.199,-29.7322"/>
<polygon fill="midnightblue" stroke="midnightblue" points="379.112,-33.1193 388.235,-27.7335 377.744,-26.2541 379.112,-33.1193"/>
</g>
<!-- Node3 -->
<g id="node3" class="node"><title>Node3</title>
<g id="a_node3"><a xlink:href="../../d4/d91/group__ENCAP.html#ga668f92389ee06510864585b97955f6f8" target="_top" xlink:title="Reads EIP_UINT32 from *buffer and converts little endian to host. ">
<polygon fill="none" stroke="black" points="403.5,-274.5 403.5,-293.5 516.5,-293.5 516.5,-274.5 403.5,-274.5"/>
<text text-anchor="middle" x="460" y="-281.5" font-family="Helvetica,sans-Serif" font-size="10.00">GetDintFromMessage</text>
</a>
</g>
</g>
<!-- Node2&#45;&gt;Node3 -->
<g id="edge2" class="edge"><title>Node2&#45;&gt;Node3</title>
<path fill="none" stroke="midnightblue" d="M316.945,-255.589C342.582,-260.716 374.336,-267.067 401.316,-272.463"/>
<polygon fill="midnightblue" stroke="midnightblue" points="400.908,-275.951 411.4,-274.48 402.28,-269.087 400.908,-275.951"/>
</g>
<!-- Node4 -->
<g id="node4" class="node"><title>Node4</title>
<g id="a_node4"><a xlink:href="../../d4/d91/group__ENCAP.html#ga70322f970709ca9c9a1a1d474cfe2302" target="_top" xlink:title="Reads EIP_UINT16 from *buffer and converts little endian to host. ">
<polygon fill="none" stroke="black" points="600,-236.5 600,-255.5 706,-255.5 706,-236.5 600,-236.5"/>
<text text-anchor="middle" x="653" y="-243.5" font-family="Helvetica,sans-Serif" font-size="10.00">GetIntFromMessage</text>
</a>
</g>
</g>
<!-- Node2&#45;&gt;Node4 -->
<g id="edge3" class="edge"><title>Node2&#45;&gt;Node4</title>
<path fill="none" stroke="midnightblue" d="M341.941,-246C413.679,-246 522.014,-246 589.796,-246"/>
<polygon fill="midnightblue" stroke="midnightblue" points="589.904,-249.5 599.904,-246 589.904,-242.5 589.904,-249.5"/>
</g>
<!-- Node6 -->
<g id="node6" class="node"><title>Node6</title>
<g id="a_node6"><a xlink:href="../../d2/dbd/encap_8c.html#ae8d8af733e9ac70ea728d6255aced4b6" target="_top" xlink:title="EncapsulateListIdentityResponse\lMessage">
<polygon fill="none" stroke="black" points="378.5,-117 378.5,-147 541.5,-147 541.5,-117 378.5,-117"/>
<text text-anchor="start" x="386.5" y="-135" font-family="Helvetica,sans-Serif" font-size="10.00">EncapsulateListIdentityResponse</text>
<text text-anchor="middle" x="460" y="-124" font-family="Helvetica,sans-Serif" font-size="10.00">Message</text>
</a>
</g>
</g>
<!-- Node5&#45;&gt;Node6 -->
<g id="edge5" class="edge"><title>Node5&#45;&gt;Node6</title>
<path fill="none" stroke="midnightblue" d="M336.522,-129.422C346.787,-129.638 357.521,-129.864 368.185,-130.088"/>
<polygon fill="midnightblue" stroke="midnightblue" points="368.298,-133.591 378.369,-130.303 368.445,-126.593 368.298,-133.591"/>
</g>
<!-- Node7 -->
<g id="node7" class="node"><title>Node7</title>
<g id="a_node7"><a xlink:href="../../d4/d91/group__ENCAP.html#gaafc3c9e3ff582c9b7e438ae2b1fdf822" target="_top" xlink:title="Converts UINT32 data from host to little endian and writes it to buffer. ">
<polygon fill="none" stroke="black" points="764.5,-122.5 764.5,-141.5 867.5,-141.5 867.5,-122.5 764.5,-122.5"/>
<text text-anchor="middle" x="816" y="-129.5" font-family="Helvetica,sans-Serif" font-size="10.00">AddDintToMessage</text>
</a>
</g>
</g>
<!-- Node6&#45;&gt;Node7 -->
<g id="edge6" class="edge"><title>Node6&#45;&gt;Node7</title>
<path fill="none" stroke="midnightblue" d="M541.67,-146.839C553.807,-148.566 566.206,-150.049 578,-151 644.451,-156.36 661.718,-158.153 728,-151 741.719,-149.519 756.446,-146.762 769.812,-143.798"/>
<polygon fill="midnightblue" stroke="midnightblue" points="770.771,-147.168 779.727,-141.508 769.196,-140.348 770.771,-147.168"/>
</g>
<!-- Node8 -->
<g id="node8" class="node"><title>Node8</title>
<g id="a_node8"><a xlink:href="../../d4/d91/group__ENCAP.html#gae689aac2a85bf49fb356ec94c8800799" target="_top" xlink:title="converts UINT16 data from host to little endian an writes it to buffer. ">
<polygon fill="none" stroke="black" points="768,-46.5 768,-65.5 864,-65.5 864,-46.5 768,-46.5"/>
<text text-anchor="middle" x="816" y="-53.5" font-family="Helvetica,sans-Serif" font-size="10.00">AddIntToMessage</text>
</a>
</g>
</g>
<!-- Node6&#45;&gt;Node8 -->
<g id="edge7" class="edge"><title>Node6&#45;&gt;Node8</title>
<path fill="none" stroke="midnightblue" d="M531.851,-116.969C585.671,-105.528 661.515,-89.3564 728,-75 738.876,-72.6515 750.513,-70.1219 761.623,-67.6985"/>
<polygon fill="midnightblue" stroke="midnightblue" points="762.618,-71.0638 771.641,-65.5111 761.125,-64.2249 762.618,-71.0638"/>
</g>
<!-- Node9 -->
<g id="node9" class="node"><title>Node9</title>
<g id="a_node9"><a xlink:href="../../da/d73/endianconv_8c.html#a2e8bf172dd5ecba3cc0871278ab06538" target="_top" xlink:title="Encapsulate the sockaddr information as necessary for the Common Packet Format data items...">
<polygon fill="none" stroke="black" points="595.5,-122.5 595.5,-141.5 710.5,-141.5 710.5,-122.5 595.5,-122.5"/>
<text text-anchor="middle" x="653" y="-129.5" font-family="Helvetica,sans-Serif" font-size="10.00">EncapsulateIpAddress</text>
</a>
</g>
</g>
<!-- Node6&#45;&gt;Node9 -->
<g id="edge8" class="edge"><title>Node6&#45;&gt;Node9</title>
<path fill="none" stroke="midnightblue" d="M541.724,-132C556.226,-132 571.193,-132 585.244,-132"/>
<polygon fill="midnightblue" stroke="midnightblue" points="585.294,-135.5 595.294,-132 585.294,-128.5 585.294,-135.5"/>
</g>
<!-- Node10 -->
<g id="node10" class="node"><title>Node10</title>
<g id="a_node10"><a xlink:href="../../d2/dbd/encap_8c.html#ad558c3aae69a6ab80034278c108802e9" target="_top" xlink:title="GenerateEncapsulationHeader">
<polygon fill="none" stroke="black" points="578.5,-46.5 578.5,-65.5 727.5,-65.5 727.5,-46.5 578.5,-46.5"/>
<text text-anchor="middle" x="653" y="-53.5" font-family="Helvetica,sans-Serif" font-size="10.00">GenerateEncapsulationHeader</text>
</a>
</g>
</g>
<!-- Node6&#45;&gt;Node10 -->
<g id="edge11" class="edge"><title>Node6&#45;&gt;Node10</title>
<path fill="none" stroke="midnightblue" d="M492.406,-116.968C515.751,-106.058 548.526,-91.294 578,-80 588.428,-76.004 599.84,-72.0856 610.513,-68.6115"/>
<polygon fill="midnightblue" stroke="midnightblue" points="611.599,-71.9386 620.056,-65.5564 609.465,-65.2719 611.599,-71.9386"/>
</g>
<!-- Node11 -->
<g id="node11" class="node"><title>Node11</title>
<g id="a_node11"><a xlink:href="../../da/d73/endianconv_8c.html#af4e7ccbb21e333ad15028c531f0384c6" target="_top" xlink:title="MoveMessageNOctets">
<polygon fill="none" stroke="black" points="594.5,-198.5 594.5,-217.5 711.5,-217.5 711.5,-198.5 594.5,-198.5"/>
<text text-anchor="middle" x="653" y="-205.5" font-family="Helvetica,sans-Serif" font-size="10.00">MoveMessageNOctets</text>
</a>
</g>
</g>
<!-- Node6&#45;&gt;Node11 -->
<g id="edge14" class="edge"><title>Node6&#45;&gt;Node11</title>
<path fill="none" stroke="midnightblue" d="M492.406,-147.032C515.751,-157.942 548.526,-172.706 578,-184 588.428,-187.996 599.84,-191.914 610.513,-195.389"/>
<polygon fill="midnightblue" stroke="midnightblue" points="609.465,-198.728 620.056,-198.444 611.599,-192.061 609.465,-198.728"/>
</g>
<!-- Node9&#45;&gt;Node7 -->
<g id="edge9" class="edge"><title>Node9&#45;&gt;Node7</title>
<path fill="none" stroke="midnightblue" d="M710.763,-132C724.823,-132 739.944,-132 754.189,-132"/>
<polygon fill="midnightblue" stroke="midnightblue" points="754.379,-135.5 764.379,-132 754.379,-128.5 754.379,-135.5"/>
</g>
<!-- Node9&#45;&gt;Node8 -->
<g id="edge10" class="edge"><title>Node9&#45;&gt;Node8</title>
<path fill="none" stroke="midnightblue" d="M688.873,-122.461C701.441,-118.564 715.579,-113.639 728,-108 750.847,-97.6274 775.235,-82.6767 792.358,-71.4661"/>
<polygon fill="midnightblue" stroke="midnightblue" points="794.678,-74.1267 801.068,-65.6756 790.802,-68.2974 794.678,-74.1267"/>
</g>
<!-- Node10&#45;&gt;Node7 -->
<g id="edge12" class="edge"><title>Node10&#45;&gt;Node7</title>
<path fill="none" stroke="midnightblue" d="M674.391,-65.6255C702.456,-78.8739 753.17,-102.813 785.408,-118.031"/>
<polygon fill="midnightblue" stroke="midnightblue" points="784.238,-121.349 794.775,-122.453 787.226,-115.019 784.238,-121.349"/>
</g>
<!-- Node10&#45;&gt;Node8 -->
<g id="edge13" class="edge"><title>Node10&#45;&gt;Node8</title>
<path fill="none" stroke="midnightblue" d="M727.903,-56C737.859,-56 747.95,-56 757.563,-56"/>
<polygon fill="midnightblue" stroke="midnightblue" points="757.776,-59.5001 767.776,-56 757.776,-52.5001 757.776,-59.5001"/>
</g>
<!-- Node12&#45;&gt;Node6 -->
<g id="edge19" class="edge"><title>Node12&#45;&gt;Node6</title>
<path fill="none" stroke="midnightblue" d="M332.531,-161.953C349.485,-157.938 367.947,-153.565 385.393,-149.433"/>
<polygon fill="midnightblue" stroke="midnightblue" points="386.604,-152.743 395.528,-147.033 384.991,-145.932 386.604,-152.743"/>
</g>
<!-- Node13 -->
<g id="node13" class="node"><title>Node13</title>
<g id="a_node13"><a xlink:href="../../d2/dbd/encap_8c.html#a1e89285abfb378b98cd946a040dd8f5d" target="_top" xlink:title="DetermineDelayTime">
<polygon fill="none" stroke="black" points="405.5,-198.5 405.5,-217.5 514.5,-217.5 514.5,-198.5 405.5,-198.5"/>
<text text-anchor="middle" x="460" y="-205.5" font-family="Helvetica,sans-Serif" font-size="10.00">DetermineDelayTime</text>
</a>
</g>
</g>
<!-- Node12&#45;&gt;Node13 -->
<g id="edge16" class="edge"><title>Node12&#45;&gt;Node13</title>
<path fill="none" stroke="midnightblue" d="M336.522,-188.017C355.69,-191.144 376.49,-194.538 395.416,-197.626"/>
<polygon fill="midnightblue" stroke="midnightblue" points="394.985,-201.102 405.418,-199.258 396.113,-194.193 394.985,-201.102"/>
</g>
<!-- Node13&#45;&gt;Node4 -->
<g id="edge17" class="edge"><title>Node13&#45;&gt;Node4</title>
<path fill="none" stroke="midnightblue" d="M509.197,-217.589C534.97,-222.716 566.891,-229.067 594.012,-234.463"/>
<polygon fill="midnightblue" stroke="midnightblue" points="593.658,-237.961 604.149,-236.48 595.024,-231.096 593.658,-237.961"/>
</g>
<!-- Node13&#45;&gt;Node11 -->
<g id="edge18" class="edge"><title>Node13&#45;&gt;Node11</title>
<path fill="none" stroke="midnightblue" d="M514.712,-208C536.241,-208 561.299,-208 584.07,-208"/>
<polygon fill="midnightblue" stroke="midnightblue" points="584.351,-211.5 594.351,-208 584.351,-204.5 584.351,-211.5"/>
</g>
<!-- Node14&#45;&gt;Node8 -->
<g id="edge21" class="edge"><title>Node14&#45;&gt;Node8</title>
<path fill="none" stroke="midnightblue" d="M514.436,-48.9837C534.232,-44.1344 556.977,-39.3943 578,-37 644.238,-29.4562 661.718,-29.8466 728,-37 741.719,-38.4806 756.446,-41.2381 769.812,-44.2023"/>
<polygon fill="midnightblue" stroke="midnightblue" points="769.196,-47.6523 779.727,-46.4916 770.771,-40.8317 769.196,-47.6523"/>
</g>
<!-- Node14&#45;&gt;Node10 -->
<g id="edge22" class="edge"><title>Node14&#45;&gt;Node10</title>
<path fill="none" stroke="midnightblue" d="M534.026,-60.9413C545.153,-60.4753 556.712,-59.9911 568.05,-59.5162"/>
<polygon fill="midnightblue" stroke="midnightblue" points="568.537,-62.999 578.382,-59.0835 568.244,-56.0051 568.537,-62.999"/>
</g>
<!-- Node15&#45;&gt;Node8 -->
<g id="edge24" class="edge"><title>Node15&#45;&gt;Node8</title>
<path fill="none" stroke="midnightblue" d="M531.563,-13.4171C585.724,-13.4082 662.137,-16.0142 728,-28 746.099,-31.2936 765.648,-37.3468 781.622,-42.9846"/>
<polygon fill="midnightblue" stroke="midnightblue" points="780.467,-46.2887 791.061,-46.4128 782.857,-39.7092 780.467,-46.2887"/>
</g>
<!-- Node15&#45;&gt;Node10 -->
<g id="edge25" class="edge"><title>Node15&#45;&gt;Node10</title>
<path fill="none" stroke="midnightblue" d="M531.037,-30.0341C552.996,-34.7478 576.892,-39.8774 597.602,-44.3229"/>
<polygon fill="midnightblue" stroke="midnightblue" points="596.978,-47.7687 607.49,-46.4455 598.447,-40.9246 596.978,-47.7687"/>
</g>
</g>
</svg>
        <g id="navigator" transform="translate(0 0)" fill="#404254">
                <rect fill="#f2f5e9" fill-opacity="0.5" stroke="#606060" stroke-width=".5" x="0" y="0" width="60" height="60"/>
                <use id="zoomplus" xlink:href="#zoomPlus" x="17" y="9" onmousedown="handleZoom(evt,'in')"/>
                <use id="zoomminus" xlink:href="#zoomMin" x="42" y="9" onmousedown="handleZoom(evt,'out')"/>
                <use id="reset" xlink:href="#resetDef" x="30" y="36" onmousedown="handleReset()"/>
                <g id="arrowUp" xlink:href="#dirArrow" transform="translate(30 24)" onmousedown="handlePan(0,-1)">
                  <use xlink:href="#rim" fill="#404040">
                        <set attributeName="fill" to="#808080" begin="arrowUp.mouseover" end="arrowUp.mouseout"/>
                  </use>
                  <path fill="none" stroke="white" stroke-width="1.5" d="M0,-3.0v7 M-2.5,-0.5L0,-3.0L2.5,-0.5"/>
                </g>
                <g id="arrowRight" xlink:href="#dirArrow" transform="rotate(90) translate(36 -43)" onmousedown="handlePan(1,0)">
                  <use xlink:href="#rim" fill="#404040">
                        <set attributeName="fill" to="#808080" begin="arrowRight.mouseover" end="arrowRight.mouseout"/>
                  </use>
                  <path fill="none" stroke="white" stroke-width="1.5" d="M0,-3.0v7 M-2.5,-0.5L0,-3.0L2.5,-0.5"/>
                </g>
                <g id="arrowDown" xlink:href="#dirArrow" transform="rotate(180) translate(-30 -48)" onmousedown="handlePan(0,1)">
                  <use xlink:href="#rim" fill="#404040">
                        <set attributeName="fill" to="#808080" begin="arrowDown.mouseover" end="arrowDown.mouseout"/>
                  </use>
                  <path fill="none" stroke="white" stroke-width="1.5" d="M0,-3.0v7 M-2.5,-0.5L0,-3.0L2.5,-0.5"/>
                </g>
                <g id="arrowLeft" xlink:href="#dirArrow" transform="rotate(270) translate(-36 17)" onmousedown="handlePan(-1,0)">
                  <use xlink:href="#rim" fill="#404040">
                        <set attributeName="fill" to="#808080" begin="arrowLeft.mouseover" end="arrowLeft.mouseout"/>
                  </use>
                  <path fill="none" stroke="white" stroke-width="1.5" d="M0,-3.0v7 M-2.5,-0.5L0,-3.0L2.5,-0.5"/>
                </g>
        </g>
        <svg viewBox="0 0 15 15" width="100%" height="30px" preserveAspectRatio="xMaxYMin meet">
         <g id="arrow_out" transform="scale(0.3 0.3)">
          <a xlink:href="group__CIP__API_gaab62df9410a09727a82afa7672e3194a_cgraph_org.svg" target="_base">
           <rect id="button" ry="5" rx="5" y="6" x="6" height="38" width="38"
                fill="#f2f5e9" fill-opacity="0.5" stroke="#606060" stroke-width="1.0"/>
           <path id="arrow"
             d="M 11.500037,31.436501 C 11.940474,20.09759 22.043105,11.32322 32.158766,21.979434 L 37.068811,17.246167 C 37.068811,17.246167 37.088388,32 37.088388,32 L 22.160133,31.978069 C 22.160133,31.978069 26.997745,27.140456 26.997745,27.140456 C 18.528582,18.264221 13.291696,25.230495 11.500037,31.436501 z"
             style="fill:#404040;"/>
          </a>
         </g>
        </svg>
</svg>
