<?xml version="1.0" encoding="UTF-8" standalone="no"?>
<!DOCTYPE svg PUBLIC "-//W3C//DTD SVG 1.1//EN"
 "http://www.w3.org/Graphics/SVG/1.1/DTD/svg11.dtd">
<!-- Generated by graphviz version 2.38.0 (20140413.2041)
 -->
<!-- Title: createAssemblyClass Pages: 1 -->
<svg width="439pt" height="66pt"
 viewBox="0.00 0.00 439.00 66.00" xmlns="http://www.w3.org/2000/svg" xmlns:xlink="http://www.w3.org/1999/xlink">
<g id="graph0" class="graph" transform="scale(1 1) rotate(0) translate(4 62)">
<title>createAssemblyClass</title>
<!-- Node1 -->
<g id="node1" class="node"><title>Node1</title>
<polygon fill="#bfbfbf" stroke="black" points="0,-19.5 0,-38.5 113,-38.5 113,-19.5 0,-19.5"/>
<text text-anchor="middle" x="56.5" y="-26.5" font-family="Helvetica,sans-Serif" font-size="10.00">createAssemblyClass</text>
</g>
<!-- Node2 -->
<g id="node2" class="node"><title>Node2</title>
<g id="a_node2"><a xlink:href="../../de/df4/cipassembly_8h.html#a8bda91239ead4adcd1082d0c3b911b2c" target="_top" xlink:title="CIP_Assembly_Init">
<polygon fill="none" stroke="black" points="156.5,-38.5 156.5,-57.5 257.5,-57.5 257.5,-38.5 156.5,-38.5"/>
<text text-anchor="middle" x="207" y="-45.5" font-family="Helvetica,sans-Serif" font-size="10.00">CIP_Assembly_Init</text>
</a>
</g>
</g>
<!-- Node1&#45;&gt;Node2 -->
<g id="edge1" class="edge"><title>Node1&#45;&gt;Node2</title>
<path fill="none" stroke="midnightblue" d="M123.301,-37.419C134.389,-38.8376 145.732,-40.2889 156.323,-41.644"/>
<polygon fill="midnightblue" stroke="midnightblue" points="123.582,-33.9265 113.218,-36.129 122.693,-40.8699 123.582,-33.9265"/>
</g>
<!-- Node5 -->
<g id="node5" class="node"><title>Node5</title>
<g id="a_node5"><a xlink:href="../../d2/dc9/group__CIP__API.html#ga1b4ab5ecfa81f356a751555a067c5f71" target="_top" xlink:title="Create an instance of an assembly object. ">
<polygon fill="none" stroke="black" points="149,-0.5 149,-19.5 265,-19.5 265,-0.5 149,-0.5"/>
<text text-anchor="middle" x="207" y="-7.5" font-family="Helvetica,sans-Serif" font-size="10.00">createAssemblyObject</text>
</a>
</g>
</g>
<!-- Node1&#45;&gt;Node5 -->
<g id="edge4" class="edge"><title>Node1&#45;&gt;Node5</title>
<path fill="none" stroke="midnightblue" d="M123.206,-20.5932C131.799,-19.4938 140.546,-18.3746 148.979,-17.2956"/>
<polygon fill="midnightblue" stroke="midnightblue" points="122.693,-17.1301 113.218,-21.871 123.582,-24.0735 122.693,-17.1301"/>
</g>
<!-- Node3 -->
<g id="node3" class="node"><title>Node3</title>
<g id="a_node3"><a xlink:href="../../d2/dc9/group__CIP__API.html#ga8fe857c3e88bf986fda82fbac6702c9f" target="_top" xlink:title="Initialize and setup the CIP&#45;stack. ">
<polygon fill="none" stroke="black" points="302.5,-38.5 302.5,-57.5 355.5,-57.5 355.5,-38.5 302.5,-38.5"/>
<text text-anchor="middle" x="329" y="-45.5" font-family="Helvetica,sans-Serif" font-size="10.00">CIP_Init</text>
</a>
</g>
</g>
<!-- Node2&#45;&gt;Node3 -->
<g id="edge2" class="edge"><title>Node2&#45;&gt;Node3</title>
<path fill="none" stroke="midnightblue" d="M267.677,-48C279.849,-48 292.038,-48 302.241,-48"/>
<polygon fill="midnightblue" stroke="midnightblue" points="267.501,-44.5001 257.501,-48 267.501,-51.5001 267.501,-44.5001"/>
</g>
<!-- Node4 -->
<g id="node4" class="node"><title>Node4</title>
<g id="a_node4"><a xlink:href="../../d0/d17/LM3S8962_2sample__application_2main_8c.html#a840291bc02cba5474a4cb46a9b9566fe" target="_top" xlink:title="main">
<polygon fill="none" stroke="black" points="393,-38.5 393,-57.5 431,-57.5 431,-38.5 393,-38.5"/>
<text text-anchor="middle" x="412" y="-45.5" font-family="Helvetica,sans-Serif" font-size="10.00">main</text>
</a>
</g>
</g>
<!-- Node3&#45;&gt;Node4 -->
<g id="edge3" class="edge"><title>Node3&#45;&gt;Node4</title>
<path fill="none" stroke="midnightblue" d="M365.645,-48C375.096,-48 384.905,-48 392.973,-48"/>
<polygon fill="midnightblue" stroke="midnightblue" points="365.629,-44.5001 355.629,-48 365.629,-51.5001 365.629,-44.5001"/>
</g>
<!-- Node6 -->
<g id="node6" class="node"><title>Node6</title>
<g id="a_node6"><a xlink:href="../../d5/dc5/group__CIP__CALLBACK__API.html#ga59b2842f01ca8f913ef0afe3f3c787aa" target="_top" xlink:title="Callback for the application initialization. ">
<polygon fill="none" stroke="black" points="301,-0.5 301,-19.5 357,-19.5 357,-0.5 301,-0.5"/>
<text text-anchor="middle" x="329" y="-7.5" font-family="Helvetica,sans-Serif" font-size="10.00">IApp_Init</text>
</a>
</g>
</g>
<!-- Node5&#45;&gt;Node6 -->
<g id="edge5" class="edge"><title>Node5&#45;&gt;Node6</title>
<path fill="none" stroke="midnightblue" d="M275.382,-10C284.364,-10 293.123,-10 300.836,-10"/>
<polygon fill="midnightblue" stroke="midnightblue" points="275.188,-6.5001 265.188,-10 275.188,-13.5001 275.188,-6.5001"/>
</g>
</g>
</svg>
