<?xml version="1.0" encoding="UTF-8" standalone="no"?>
<!DOCTYPE svg PUBLIC "-//W3C//DTD SVG 1.1//EN"
 "http://www.w3.org/Graphics/SVG/1.1/DTD/svg11.dtd">
<!-- Generated by graphviz version 2.36.0 (20140111.2315)
 -->
<!-- Title: ShutdownAssemblies Pages: 1 -->
<svg width="384pt" height="104pt"
 viewBox="0.00 0.00 384.00 104.00" xmlns="http://www.w3.org/2000/svg" xmlns:xlink="http://www.w3.org/1999/xlink">
<g id="graph0" class="graph" transform="scale(1 1) rotate(0) translate(4 100)">
<title>ShutdownAssemblies</title>
<!-- Node1 -->
<g id="node1" class="node"><title>Node1</title>
<polygon fill="#bfbfbf" stroke="black" points="0.5,-38.5 0.5,-57.5 111.5,-57.5 111.5,-38.5 0.5,-38.5"/>
<text text-anchor="middle" x="56" y="-45.5" font-family="Helvetica,sans-Serif" font-size="10.00">ShutdownAssemblies</text>
</g>
<!-- Node2 -->
<g id="node2" class="node"><title>Node2</title>
<g id="a_node2"><a xlink:href="../../d5/dc5/group__CIP__CALLBACK__API.html#ga729165f94320800eb9537def5a0e6af8" target="_top" xlink:title="Free memory allocated by the OpENer. ">
<polygon fill="none" stroke="black" points="164.5,-76.5 164.5,-95.5 215.5,-95.5 215.5,-76.5 164.5,-76.5"/>
<text text-anchor="middle" x="190" y="-83.5" font-family="Helvetica,sans-Serif" font-size="10.00">CipFree</text>
</a>
</g>
</g>
<!-- Node1&#45;&gt;Node2 -->
<g id="edge1" class="edge"><title>Node1&#45;&gt;Node2</title>
<path fill="none" stroke="midnightblue" d="M90.3092,-57.589C109.951,-63.2434 134.76,-70.3854 154.59,-76.0941"/>
<polygon fill="midnightblue" stroke="midnightblue" points="153.874,-79.5301 164.452,-78.9332 155.811,-72.8033 153.874,-79.5301"/>
</g>
<!-- Node3 -->
<g id="node3" class="node"><title>Node3</title>
<g id="a_node3"><a xlink:href="../../d2/dc9/group__CIP__API.html#ga5a14c8d76acacb09312b709bb0a76265" target="_top" xlink:title="Get a pointer to an instance&#39;s attribute. ">
<polygon fill="none" stroke="black" points="148,-38.5 148,-57.5 232,-57.5 232,-38.5 148,-38.5"/>
<text text-anchor="middle" x="190" y="-45.5" font-family="Helvetica,sans-Serif" font-size="10.00">GetCipAttribute</text>
</a>
</g>
</g>
<!-- Node1&#45;&gt;Node3 -->
<g id="edge2" class="edge"><title>Node1&#45;&gt;Node3</title>
<path fill="none" stroke="midnightblue" d="M111.833,-48C120.394,-48 129.213,-48 137.691,-48"/>
<polygon fill="midnightblue" stroke="midnightblue" points="137.824,-51.5001 147.824,-48 137.824,-44.5001 137.824,-51.5001"/>
</g>
<!-- Node4 -->
<g id="node4" class="node"><title>Node4</title>
<g id="a_node4"><a xlink:href="../../d2/dc9/group__CIP__API.html#ga98bd609c80ece316406363575b4a89ea" target="_top" xlink:title="Get a pointer to a CIP object with given class code. ">
<polygon fill="none" stroke="black" points="153.5,-0.5 153.5,-19.5 226.5,-19.5 226.5,-0.5 153.5,-0.5"/>
<text text-anchor="middle" x="190" y="-7.5" font-family="Helvetica,sans-Serif" font-size="10.00">GetCipClass</text>
</a>
</g>
</g>
<!-- Node1&#45;&gt;Node4 -->
<g id="edge3" class="edge"><title>Node1&#45;&gt;Node4</title>
<path fill="none" stroke="midnightblue" d="M90.3092,-38.411C107.193,-33.5506 127.895,-27.5909 145.971,-22.3873"/>
<polygon fill="midnightblue" stroke="midnightblue" points="147.06,-25.7158 155.701,-19.5859 145.123,-18.989 147.06,-25.7158"/>
</g>
<!-- Node5 -->
<g id="node5" class="node"><title>Node5</title>
<g id="a_node5"><a xlink:href="../../d9/d7d/cipmessagerouter_8c.html#a7a9f44f2d6f010b6f6ee922d378d9bb1" target="_top" xlink:title="Get the registered MessageRouter object corresponding to ClassID. given a class ID, return a pointer to the registration node for that object. ">
<polygon fill="none" stroke="black" points="268,-0.5 268,-19.5 376,-19.5 376,-0.5 268,-0.5"/>
<text text-anchor="middle" x="322" y="-7.5" font-family="Helvetica,sans-Serif" font-size="10.00">GetRegisteredObject</text>
</a>
</g>
</g>
<!-- Node4&#45;&gt;Node5 -->
<g id="edge4" class="edge"><title>Node4&#45;&gt;Node5</title>
<path fill="none" stroke="midnightblue" d="M226.523,-10C236.208,-10 247.001,-10 257.73,-10"/>
<polygon fill="midnightblue" stroke="midnightblue" points="257.96,-13.5001 267.96,-10 257.96,-6.5001 257.96,-13.5001"/>
</g>
</g>
</svg>
