<?xml version="1.0" encoding="UTF-8" standalone="no"?>
<!DOCTYPE svg PUBLIC "-//W3C//DTD SVG 1.1//EN"
 "http://www.w3.org/Graphics/SVG/1.1/DTD/svg11.dtd">
<!-- Generated by graphviz version 2.36.0 (20140111.2315)
 -->
<!-- Title: SetAssemblyAttributeSingle Pages: 1 -->
<svg width="552pt" height="104pt"
 viewBox="0.00 0.00 552.00 104.00" xmlns="http://www.w3.org/2000/svg" xmlns:xlink="http://www.w3.org/1999/xlink">
<g id="graph0" class="graph" transform="scale(1 1) rotate(0) translate(4 100)">
<title>SetAssemblyAttributeSingle</title>
<!-- Node1 -->
<g id="node1" class="node"><title>Node1</title>
<polygon fill="#bfbfbf" stroke="black" points="0.5,-38.5 0.5,-57.5 139.5,-57.5 139.5,-38.5 0.5,-38.5"/>
<text text-anchor="middle" x="70" y="-45.5" font-family="Helvetica,sans-Serif" font-size="10.00">SetAssemblyAttributeSingle</text>
</g>
<!-- Node2 -->
<g id="node2" class="node"><title>Node2</title>
<g id="a_node2"><a xlink:href="../../d5/dc5/group__CIP__CALLBACK__API.html#ga5307d18b1bd79f151588391cb4ebf30a" target="_top" xlink:title="Call back function to inform application on received data for an assembly object. ...">
<polygon fill="none" stroke="black" points="177.5,-76.5 177.5,-95.5 320.5,-95.5 320.5,-76.5 177.5,-76.5"/>
<text text-anchor="middle" x="249" y="-83.5" font-family="Helvetica,sans-Serif" font-size="10.00">AfterAssemblyDataReceived</text>
</a>
</g>
</g>
<!-- Node1&#45;&gt;Node2 -->
<g id="edge1" class="edge"><title>Node1&#45;&gt;Node2</title>
<path fill="none" stroke="midnightblue" d="M115.665,-57.589C139.337,-62.6713 168.608,-68.9554 193.597,-74.3203"/>
<polygon fill="midnightblue" stroke="midnightblue" points="193.145,-77.8028 203.657,-76.4799 194.614,-70.9588 193.145,-77.8028"/>
</g>
<!-- Node3 -->
<g id="node3" class="node"><title>Node3</title>
<g id="a_node3"><a xlink:href="../../d2/dc9/group__CIP__API.html#ga5a14c8d76acacb09312b709bb0a76265" target="_top" xlink:title="Get a pointer to an instance&#39;s attribute. ">
<polygon fill="none" stroke="black" points="207,-38.5 207,-57.5 291,-57.5 291,-38.5 207,-38.5"/>
<text text-anchor="middle" x="249" y="-45.5" font-family="Helvetica,sans-Serif" font-size="10.00">GetCipAttribute</text>
</a>
</g>
</g>
<!-- Node1&#45;&gt;Node3 -->
<g id="edge2" class="edge"><title>Node1&#45;&gt;Node3</title>
<path fill="none" stroke="midnightblue" d="M139.686,-48C158.694,-48 178.988,-48 196.811,-48"/>
<polygon fill="midnightblue" stroke="midnightblue" points="196.99,-51.5001 206.99,-48 196.99,-44.5001 196.99,-51.5001"/>
</g>
<!-- Node4 -->
<g id="node4" class="node"><title>Node4</title>
<g id="a_node4"><a xlink:href="../../d5/d35/cipconnectionmanager_8c.html#a2ca3eb3dc7fe805b410d849612720b4c" target="_top" xlink:title="IsConnectedOutputAssembly">
<polygon fill="none" stroke="black" points="176.5,-0.5 176.5,-19.5 321.5,-19.5 321.5,-0.5 176.5,-0.5"/>
<text text-anchor="middle" x="249" y="-7.5" font-family="Helvetica,sans-Serif" font-size="10.00">IsConnectedOutputAssembly</text>
</a>
</g>
</g>
<!-- Node1&#45;&gt;Node4 -->
<g id="edge3" class="edge"><title>Node1&#45;&gt;Node4</title>
<path fill="none" stroke="midnightblue" d="M115.665,-38.411C139.337,-33.3287 168.608,-27.0446 193.597,-21.6797"/>
<polygon fill="midnightblue" stroke="midnightblue" points="194.614,-25.0412 203.657,-19.5201 193.145,-18.1972 194.614,-25.0412"/>
</g>
<!-- Node5 -->
<g id="node5" class="node"><title>Node5</title>
<g id="a_node5"><a xlink:href="../../df/d91/cipconnectionobject_8c.html#a4c3d0e8258e857f80e5b7111519f7daa" target="_top" xlink:title="ConnectionObjectIsTypeIOConnection">
<polygon fill="none" stroke="black" points="358.5,-0.5 358.5,-19.5 543.5,-19.5 543.5,-0.5 358.5,-0.5"/>
<text text-anchor="middle" x="451" y="-7.5" font-family="Helvetica,sans-Serif" font-size="10.00">ConnectionObjectIsTypeIOConnection</text>
</a>
</g>
</g>
<!-- Node4&#45;&gt;Node5 -->
<g id="edge4" class="edge"><title>Node4&#45;&gt;Node5</title>
<path fill="none" stroke="midnightblue" d="M321.64,-10C330.272,-10 339.212,-10 348.171,-10"/>
<polygon fill="midnightblue" stroke="midnightblue" points="348.279,-13.5001 358.279,-10 348.279,-6.5001 348.279,-13.5001"/>
</g>
</g>
</svg>
