<?xml version="1.0" encoding="UTF-8" standalone="no"?>
<!DOCTYPE svg PUBLIC "-//W3C//DTD SVG 1.1//EN"
 "http://www.w3.org/Graphics/SVG/1.1/DTD/svg11.dtd">
<!-- Generated by graphviz version 2.36.0 (20140111.2315)
 -->
<!-- Title: CipUnconnectedSendParameter Pages: 1 -->
<svg width="404pt" height="164pt"
 viewBox="0.00 0.00 404.00 164.00" xmlns="http://www.w3.org/2000/svg" xmlns:xlink="http://www.w3.org/1999/xlink">
<g id="graph0" class="graph" transform="scale(1 1) rotate(0) translate(4 160)">
<title>CipUnconnectedSendParameter</title>
<!-- Node1 -->
<g id="node1" class="node"><title>Node1</title>
<polygon fill="#bfbfbf" stroke="black" points="148.5,-0.5 148.5,-19.5 305.5,-19.5 305.5,-0.5 148.5,-0.5"/>
<text text-anchor="middle" x="227" y="-7.5" font-family="Helvetica,sans-Serif" font-size="10.00">CipUnconnectedSendParameter</text>
</g>
<!-- Node2 -->
<g id="node2" class="node"><title>Node2</title>
<g id="a_node2"><a xlink:href="../../dc/d16/structCipMessageRouterRequest.html" target="_top" xlink:title="CIP Message Router Request. ">
<polygon fill="none" stroke="black" points="-0.5,-68.5 -0.5,-87.5 136.5,-87.5 136.5,-68.5 -0.5,-68.5"/>
<text text-anchor="middle" x="68" y="-75.5" font-family="Helvetica,sans-Serif" font-size="10.00">CipMessageRouterRequest</text>
</a>
</g>
</g>
<!-- Node2&#45;&gt;Node1 -->
<g id="edge1" class="edge"><title>Node2&#45;&gt;Node1</title>
<path fill="none" stroke="#9a32cd" stroke-dasharray="5,2" d="M91.0649,-63.484C105.412,-55.4221 124.417,-45.3575 142,-38 159.283,-30.7681 179.218,-24.3407 195.436,-19.5729"/>
<polygon fill="#9a32cd" stroke="#9a32cd" points="89.3226,-60.4484 82.3713,-68.444 92.7915,-66.5284 89.3226,-60.4484"/>
<text text-anchor="middle" x="182.5" y="-41.5" font-family="Helvetica,sans-Serif" font-size="10.00"> message_request</text>
</g>
<!-- Node3 -->
<g id="node3" class="node"><title>Node3</title>
<g id="a_node3"><a xlink:href="../../d5/dd2/structCipEpath.html" target="_top" xlink:title="Struct for padded EPATHs. ">
<polygon fill="none" stroke="black" points="39.5,-136.5 39.5,-155.5 96.5,-155.5 96.5,-136.5 39.5,-136.5"/>
<text text-anchor="middle" x="68" y="-143.5" font-family="Helvetica,sans-Serif" font-size="10.00">CipEpath</text>
</a>
</g>
</g>
<!-- Node3&#45;&gt;Node2 -->
<g id="edge2" class="edge"><title>Node3&#45;&gt;Node2</title>
<path fill="none" stroke="#9a32cd" stroke-dasharray="5,2" d="M68,-126.041C68,-113.472 68,-97.5631 68,-87.8411"/>
<polygon fill="#9a32cd" stroke="#9a32cd" points="64.5001,-126.372 68,-136.372 71.5001,-126.372 64.5001,-126.372"/>
<text text-anchor="middle" x="98" y="-109.5" font-family="Helvetica,sans-Serif" font-size="10.00"> request_path</text>
</g>
<!-- Node4 -->
<g id="node4" class="node"><title>Node4</title>
<g id="a_node4"><a xlink:href="../../d0/d1f/structCipMessageRouterResponse.html" target="_top" xlink:title="CIP Message Router Response. ">
<polygon fill="none" stroke="black" points="154.5,-68.5 154.5,-87.5 299.5,-87.5 299.5,-68.5 154.5,-68.5"/>
<text text-anchor="middle" x="227" y="-75.5" font-family="Helvetica,sans-Serif" font-size="10.00">CipMessageRouterResponse</text>
</a>
</g>
</g>
<!-- Node4&#45;&gt;Node1 -->
<g id="edge3" class="edge"><title>Node4&#45;&gt;Node1</title>
<path fill="none" stroke="#9a32cd" stroke-dasharray="5,2" d="M227,-58.0413C227,-45.4724 227,-29.5631 227,-19.8411"/>
<polygon fill="#9a32cd" stroke="#9a32cd" points="223.5,-58.3716 227,-68.3717 230.5,-58.3717 223.5,-58.3716"/>
<text text-anchor="middle" x="271" y="-41.5" font-family="Helvetica,sans-Serif" font-size="10.00"> message_response</text>
</g>
<!-- Node5 -->
<g id="node5" class="node"><title>Node5</title>
<g id="a_node5"><a xlink:href="../../d4/d41/structCipRoutePath.html" target="_top" xlink:title="CipRoutePath">
<polygon fill="none" stroke="black" points="318,-68.5 318,-87.5 396,-87.5 396,-68.5 318,-68.5"/>
<text text-anchor="middle" x="357" y="-75.5" font-family="Helvetica,sans-Serif" font-size="10.00">CipRoutePath</text>
</a>
</g>
</g>
<!-- Node5&#45;&gt;Node1 -->
<g id="edge4" class="edge"><title>Node5&#45;&gt;Node1</title>
<path fill="none" stroke="#9a32cd" stroke-dasharray="5,2" d="M344.275,-60.4259C337.522,-52.6328 328.635,-43.8008 319,-38 305.024,-29.586 288.267,-23.6573 272.905,-19.544"/>
<polygon fill="#9a32cd" stroke="#9a32cd" points="341.659,-62.7565 350.699,-68.2818 347.078,-58.325 341.659,-62.7565"/>
<text text-anchor="middle" x="359.5" y="-41.5" font-family="Helvetica,sans-Serif" font-size="10.00"> route_path</text>
</g>
</g>
</svg>
