<?xml version="1.0" encoding="UTF-8" standalone="no"?>
<!DOCTYPE svg PUBLIC "-//W3C//DTD SVG 1.1//EN"
 "http://www.w3.org/Graphics/SVG/1.1/DTD/svg11.dtd">
<!-- Generated by graphviz version 2.26.3 (20100126.1600)
 -->
<!-- Title: G Pages: 1 -->
<!--zoomable 88 -->
<svg id="main" version="1.1" xmlns="http://www.w3.org/2000/svg" xmlns:xlink="http://www.w3.org/1999/xlink" xml:space="preserve" onload="init(evt)">
        <defs>
                <circle id="rim" cx="0" cy="0" r="7"/>
                <circle id="rim2" cx="0" cy="0" r="3.5"/>
                <g id="zoomPlus">
                        <use xlink:href="#rim" fill="#404040">
                                <set attributeName="fill" to="#808080" begin="zoomplus.mouseover" end="zoomplus.mouseout"/>
                        </use>
                        <path d="M-4,0h8M0,-4v8" fill="none" stroke="white" stroke-width="1.5" pointer-events="none"/>
                </g>
                <g id="zoomMin">
                        <use xlink:href="#rim" fill="#404040">
                                <set attributeName="fill" to="#808080" begin="zoomminus.mouseover" end="zoomminus.mouseout"/>
                        </use>
                        <path d="M-4,0h8" fill="none" stroke="white" stroke-width="1.5" pointer-events="none"/>
                </g>
                <g id="dirArrow">
                        <path fill="none" stroke="white" stroke-width="1.5" d="M0,-3.0v7 M-2.5,-0.5L0,-3.0L2.5,-0.5"/>
                </g>
               <g id="resetDef">
                       <use xlink:href="#rim2" fill="#404040">
                               <set attributeName="fill" to="#808080" begin="reset.mouseover" end="reset.mouseout"/>
                       </use>
               </g>
        </defs>

<script type="text/javascript">
var viewWidth = 1756;
var viewHeight = 88;
var sectionId = 'dynsection-1';
</script>
<script xlink:href="../../svgpan.js"/>
<svg id="graph" class="graph">
<g id="viewport">
<title>G</title>
<!-- Node1 -->
<g id="node1" class="node"><title>Node1</title>
<polygon fill="#bfbfbf" stroke="black" points="837.5,-58.5 837.5,-79.5 944.5,-79.5 944.5,-58.5 837.5,-58.5"/>
<text text-anchor="middle" x="891" y="-66.5" font-family="Helvetica,sans-Serif" font-size="10.00">src/cip/cipcommon.h</text>
</g>
<!-- Node2 -->
<g id="node3" class="node"><title>Node2</title>
<a xlink:href="../../df/d2e/cipassembly_8c.html" target="_top" xlink:title="src/cip/cipassembly.c">
<polygon fill="none" stroke="black" points="0,-0.5 0,-21.5 112,-21.5 112,-0.5 0,-0.5"/>
<text text-anchor="middle" x="56" y="-8.5" font-family="Helvetica,sans-Serif" font-size="10.00">src/cip/cipassembly.c</text>
</a>
</g>
<!-- Node1&#45;&gt;Node2 -->
<g id="edge2" class="edge"><title>Node1&#45;&gt;Node2</title>
<path fill="none" stroke="midnightblue" d="M826.797,-67.3954C694.425,-63.5779 381.714,-51.9308 121,-22 118.157,-21.6737 115.25,-21.3061 112.318,-20.9086"/>
<polygon fill="midnightblue" stroke="midnightblue" points="827.055,-70.904 837.15,-67.6885 827.253,-63.9068 827.055,-70.904"/>
</g>
<!-- Node3 -->
<g id="node5" class="node"><title>Node3</title>
<a xlink:href="../../d2/d3d/cipcommon_8c.html" target="_top" xlink:title="src/cip/cipcommon.c">
<polygon fill="none" stroke="black" points="129.5,-0.5 129.5,-21.5 236.5,-21.5 236.5,-0.5 129.5,-0.5"/>
<text text-anchor="middle" x="183" y="-8.5" font-family="Helvetica,sans-Serif" font-size="10.00">src/cip/cipcommon.c</text>
</a>
</g>
<!-- Node1&#45;&gt;Node3 -->
<g id="edge4" class="edge"><title>Node1&#45;&gt;Node3</title>
<path fill="none" stroke="midnightblue" d="M827.075,-66.533C710.849,-61.5626 457.298,-48.4844 245,-22 242.288,-21.6617 239.514,-21.2845 236.717,-20.8794"/>
<polygon fill="midnightblue" stroke="midnightblue" points="827.079,-70.0362 837.218,-66.9611 827.374,-63.0425 827.079,-70.0362"/>
</g>
<!-- Node4 -->
<g id="node7" class="node"><title>Node4</title>
<a xlink:href="../../d5/d35/cipconnectionmanager_8c.html" target="_top" xlink:title="src/cip/cipconnectionmanager.c">
<polygon fill="none" stroke="black" points="253.5,-0.5 253.5,-21.5 408.5,-21.5 408.5,-0.5 253.5,-0.5"/>
<text text-anchor="middle" x="331" y="-8.5" font-family="Helvetica,sans-Serif" font-size="10.00">src/cip/cipconnectionmanager.c</text>
</a>
</g>
<!-- Node1&#45;&gt;Node4 -->
<g id="edge6" class="edge"><title>Node1&#45;&gt;Node4</title>
<path fill="none" stroke="midnightblue" d="M827.114,-63.2455C736.012,-54.9077 563.567,-38.6366 417,-22 414.308,-21.6944 411.569,-21.3774 408.804,-21.0522"/>
<polygon fill="midnightblue" stroke="midnightblue" points="827.001,-66.7497 837.278,-64.1738 827.638,-59.7787 827.001,-66.7497"/>
</g>
<!-- Node5 -->
<g id="node9" class="node"><title>Node5</title>
<a xlink:href="../../d7/d65/cipethernetlink_8c.html" target="_top" xlink:title="src/cip/cipethernetlink.c">
<polygon fill="none" stroke="black" points="426,-0.5 426,-21.5 546,-21.5 546,-0.5 426,-0.5"/>
<text text-anchor="middle" x="486" y="-8.5" font-family="Helvetica,sans-Serif" font-size="10.00">src/cip/cipethernetlink.c</text>
</a>
</g>
<!-- Node1&#45;&gt;Node5 -->
<g id="edge8" class="edge"><title>Node1&#45;&gt;Node5</title>
<path fill="none" stroke="midnightblue" d="M827.347,-60.4649C759.734,-51.3124 649.748,-36.1778 555,-22 552.121,-21.5692 549.175,-21.1224 546.2,-20.6666"/>
<polygon fill="midnightblue" stroke="midnightblue" points="827.038,-63.9549 837.417,-61.8261 827.976,-57.018 827.038,-63.9549"/>
</g>
<!-- Node6 -->
<g id="node11" class="node"><title>Node6</title>
<a xlink:href="../../dd/dc4/cipidentity_8c.html" target="_top" xlink:title="src/cip/cipidentity.c">
<polygon fill="none" stroke="black" points="563.5,-0.5 563.5,-21.5 664.5,-21.5 664.5,-0.5 563.5,-0.5"/>
<text text-anchor="middle" x="614" y="-8.5" font-family="Helvetica,sans-Serif" font-size="10.00">src/cip/cipidentity.c</text>
</a>
</g>
<!-- Node1&#45;&gt;Node6 -->
<g id="edge10" class="edge"><title>Node1&#45;&gt;Node6</title>
<path fill="none" stroke="midnightblue" d="M830.846,-56.4045C781.046,-45.977 711.108,-31.333 664.257,-21.5231"/>
<polygon fill="midnightblue" stroke="midnightblue" points="830.332,-59.8729 840.837,-58.4966 831.767,-53.0214 830.332,-59.8729"/>
</g>
<!-- Node7 -->
<g id="node13" class="node"><title>Node7</title>
<a xlink:href="../../df/d03/cipioconnection_8c.html" target="_top" xlink:title="src/cip/cipioconnection.c">
<polygon fill="none" stroke="black" points="681.5,-0.5 681.5,-21.5 806.5,-21.5 806.5,-0.5 681.5,-0.5"/>
<text text-anchor="middle" x="744" y="-8.5" font-family="Helvetica,sans-Serif" font-size="10.00">src/cip/cipioconnection.c</text>
</a>
</g>
<!-- Node1&#45;&gt;Node7 -->
<g id="edge12" class="edge"><title>Node1&#45;&gt;Node7</title>
<path fill="none" stroke="midnightblue" d="M854.886,-54.7509C828.927,-44.5086 794.488,-30.9206 770.919,-21.6212"/>
<polygon fill="midnightblue" stroke="midnightblue" points="853.793,-58.0821 864.379,-58.4966 856.362,-51.5706 853.793,-58.0821"/>
</g>
<!-- Node8 -->
<g id="node15" class="node"><title>Node8</title>
<a xlink:href="../../d9/d7d/cipmessagerouter_8c.html" target="_top" xlink:title="src/cip/cipmessagerouter.c">
<polygon fill="none" stroke="black" points="824,-0.5 824,-21.5 958,-21.5 958,-0.5 824,-0.5"/>
<text text-anchor="middle" x="891" y="-8.5" font-family="Helvetica,sans-Serif" font-size="10.00">src/cip/cipmessagerouter.c</text>
</a>
</g>
<!-- Node1&#45;&gt;Node8 -->
<g id="edge14" class="edge"><title>Node1&#45;&gt;Node8</title>
<path fill="none" stroke="midnightblue" d="M891,-48.1906C891,-39.1684 891,-28.9941 891,-21.5707"/>
<polygon fill="midnightblue" stroke="midnightblue" points="887.5,-48.3619 891,-58.3619 894.5,-48.3619 887.5,-48.3619"/>
</g>
<!-- Node9 -->
<g id="node17" class="node"><title>Node9</title>
<a xlink:href="../../dd/d34/cipqos_8c.html" target="_top" xlink:title="src/cip/cipqos.c">
<polygon fill="none" stroke="black" points="976,-0.5 976,-21.5 1062,-21.5 1062,-0.5 976,-0.5"/>
<text text-anchor="middle" x="1019" y="-8.5" font-family="Helvetica,sans-Serif" font-size="10.00">src/cip/cipqos.c</text>
</a>
</g>
<!-- Node1&#45;&gt;Node9 -->
<g id="edge16" class="edge"><title>Node1&#45;&gt;Node9</title>
<path fill="none" stroke="midnightblue" d="M923.346,-54.3431C945.841,-44.1502 975.309,-30.7977 995.56,-21.6212"/>
<polygon fill="midnightblue" stroke="midnightblue" points="921.844,-51.1813 914.18,-58.4966 924.733,-57.5573 921.844,-51.1813"/>
</g>
<!-- Node10 -->
<g id="node19" class="node"><title>Node10</title>
<a xlink:href="../../dd/d20/ciptcpipinterface_8c.html" target="_top" xlink:title="src/cip/ciptcpipinterface.c">
<polygon fill="none" stroke="black" points="1080,-0.5 1080,-21.5 1208,-21.5 1208,-0.5 1080,-0.5"/>
<text text-anchor="middle" x="1144" y="-8.5" font-family="Helvetica,sans-Serif" font-size="10.00">src/cip/ciptcpipinterface.c</text>
</a>
</g>
<!-- Node1&#45;&gt;Node10 -->
<g id="edge18" class="edge"><title>Node1&#45;&gt;Node10</title>
<path fill="none" stroke="midnightblue" d="M946.799,-56.2081C992.227,-45.7938 1055.57,-31.2716 1098.1,-21.5231"/>
<polygon fill="midnightblue" stroke="midnightblue" points="945.781,-52.8505 936.816,-58.4966 947.346,-59.6735 945.781,-52.8505"/>
</g>
<!-- Node11 -->
<g id="node21" class="node"><title>Node11</title>
<a xlink:href="../../d3/d98/cpf_8c.html" target="_top" xlink:title="src/enet_encap/cpf.c">
<polygon fill="none" stroke="black" points="1226,-0.5 1226,-21.5 1334,-21.5 1334,-0.5 1226,-0.5"/>
<text text-anchor="middle" x="1280" y="-8.5" font-family="Helvetica,sans-Serif" font-size="10.00">src/enet_encap/cpf.c</text>
</a>
</g>
<!-- Node1&#45;&gt;Node11 -->
<g id="edge20" class="edge"><title>Node1&#45;&gt;Node11</title>
<path fill="none" stroke="midnightblue" d="M954.933,-60.3538C1020.72,-51.3223 1126.14,-36.478 1217,-22 1219.85,-21.5457 1222.77,-21.0703 1225.72,-20.5826"/>
<polygon fill="midnightblue" stroke="midnightblue" points="954.155,-56.9276 944.722,-61.7524 955.105,-63.8628 954.155,-56.9276"/>
</g>
<!-- Node12 -->
<g id="node23" class="node"><title>Node12</title>
<a xlink:href="../../d2/dbd/encap_8c.html" target="_top" xlink:title="src/enet_encap/encap.c">
<polygon fill="none" stroke="black" points="1351.5,-0.5 1351.5,-21.5 1472.5,-21.5 1472.5,-0.5 1351.5,-0.5"/>
<text text-anchor="middle" x="1412" y="-8.5" font-family="Helvetica,sans-Serif" font-size="10.00">src/enet_encap/encap.c</text>
</a>
</g>
<!-- Node1&#45;&gt;Node12 -->
<g id="edge22" class="edge"><title>Node1&#45;&gt;Node12</title>
<path fill="none" stroke="midnightblue" d="M954.738,-63.4754C1042.38,-55.6278 1204.93,-40.1701 1343,-22 1345.77,-21.636 1348.59,-21.2486 1351.45,-20.8449"/>
<polygon fill="midnightblue" stroke="midnightblue" points="954.337,-59.9972 944.687,-64.3714 954.958,-66.9695 954.337,-59.9972"/>
</g>
<!-- Node13 -->
<g id="node25" class="node"><title>Node13</title>
<a xlink:href="../../d9/dfb/POSIX_2main_8c.html" target="_top" xlink:title="src/ports/POSIX/main.c">
<polygon fill="none" stroke="black" points="1489.5,-0.5 1489.5,-21.5 1610.5,-21.5 1610.5,-0.5 1489.5,-0.5"/>
<text text-anchor="middle" x="1550" y="-8.5" font-family="Helvetica,sans-Serif" font-size="10.00">src/ports/POSIX/main.c</text>
</a>
</g>
<!-- Node1&#45;&gt;Node13 -->
<g id="edge24" class="edge"><title>Node1&#45;&gt;Node13</title>
<path fill="none" stroke="midnightblue" d="M954.952,-65.5573C1063.41,-59.3493 1290.23,-44.7686 1481,-22 1483.77,-21.6694 1486.6,-21.3093 1489.46,-20.9279"/>
<polygon fill="midnightblue" stroke="midnightblue" points="954.616,-62.0706 944.831,-66.1319 955.013,-69.0593 954.616,-62.0706"/>
</g>
<!-- Node14 -->
<g id="node27" class="node"><title>Node14</title>
<a xlink:href="../../dc/db2/WIN32_2main_8c.html" target="_top" xlink:title="src/ports/WIN32/main.c">
<polygon fill="none" stroke="black" points="1627.5,-0.5 1627.5,-21.5 1748.5,-21.5 1748.5,-0.5 1627.5,-0.5"/>
<text text-anchor="middle" x="1688" y="-8.5" font-family="Helvetica,sans-Serif" font-size="10.00">src/ports/WIN32/main.c</text>
</a>
</g>
<!-- Node1&#45;&gt;Node14 -->
<g id="edge26" class="edge"><title>Node1&#45;&gt;Node14</title>
<path fill="none" stroke="midnightblue" d="M954.885,-66.887C1081.78,-62.246 1374.45,-49.3263 1619,-22 1621.77,-21.6902 1624.6,-21.3472 1627.46,-20.9796"/>
<polygon fill="midnightblue" stroke="midnightblue" points="954.449,-63.4004 944.581,-67.2589 954.701,-70.3958 954.449,-63.4004"/>
</g>
</g>
</svg>
        <g id="navigator" transform="translate(0 0)" fill="#404254">
                <rect fill="#f2f5e9" fill-opacity="0.5" stroke="#606060" stroke-width=".5" x="0" y="0" width="60" height="60"/>
                <use id="zoomplus" xlink:href="#zoomPlus" x="17" y="9" onmousedown="handleZoom(evt,'in')"/>
                <use id="zoomminus" xlink:href="#zoomMin" x="42" y="9" onmousedown="handleZoom(evt,'out')"/>
                <use id="reset" xlink:href="#resetDef" x="30" y="36" onmousedown="handleReset()"/>
                <g id="arrowUp" xlink:href="#dirArrow" transform="translate(30 24)" onmousedown="handlePan(0,-1)">
                  <use xlink:href="#rim" fill="#404040">
                        <set attributeName="fill" to="#808080" begin="arrowUp.mouseover" end="arrowUp.mouseout"/>
                  </use>
                  <path fill="none" stroke="white" stroke-width="1.5" d="M0,-3.0v7 M-2.5,-0.5L0,-3.0L2.5,-0.5"/>
                </g>
                <g id="arrowRight" xlink:href="#dirArrow" transform="rotate(90) translate(36 -43)" onmousedown="handlePan(1,0)">
                  <use xlink:href="#rim" fill="#404040">
                        <set attributeName="fill" to="#808080" begin="arrowRight.mouseover" end="arrowRight.mouseout"/>
                  </use>
                  <path fill="none" stroke="white" stroke-width="1.5" d="M0,-3.0v7 M-2.5,-0.5L0,-3.0L2.5,-0.5"/>
                </g>
                <g id="arrowDown" xlink:href="#dirArrow" transform="rotate(180) translate(-30 -48)" onmousedown="handlePan(0,1)">
                  <use xlink:href="#rim" fill="#404040">
                        <set attributeName="fill" to="#808080" begin="arrowDown.mouseover" end="arrowDown.mouseout"/>
                  </use>
                  <path fill="none" stroke="white" stroke-width="1.5" d="M0,-3.0v7 M-2.5,-0.5L0,-3.0L2.5,-0.5"/>
                </g>
                <g id="arrowLeft" xlink:href="#dirArrow" transform="rotate(270) translate(-36 17)" onmousedown="handlePan(-1,0)">
                  <use xlink:href="#rim" fill="#404040">
                        <set attributeName="fill" to="#808080" begin="arrowLeft.mouseover" end="arrowLeft.mouseout"/>
                  </use>
                  <path fill="none" stroke="white" stroke-width="1.5" d="M0,-3.0v7 M-2.5,-0.5L0,-3.0L2.5,-0.5"/>
                </g>
        </g>
</svg>
