<?xml version="1.0" encoding="UTF-8" standalone="no"?>
<!DOCTYPE svg PUBLIC "-//W3C//DTD SVG 1.1//EN"
 "http://www.w3.org/Graphics/SVG/1.1/DTD/svg11.dtd">
<!-- Generated by graphviz version 2.36.0 (20140111.2315)
 -->
<!-- Title: src/cip/cipcommon.h Pages: 1 -->
<svg width="2122pt" height="84pt"
 viewBox="0.00 0.00 2122.00 84.00" xmlns="http://www.w3.org/2000/svg" xmlns:xlink="http://www.w3.org/1999/xlink">
<g id="graph0" class="graph" transform="scale(1 1) rotate(0) translate(4 80)">
<title>src/cip/cipcommon.h</title>
<!-- Node1 -->
<g id="node1" class="node"><title>Node1</title>
<polygon fill="#bfbfbf" stroke="black" points="970.5,-56.5 970.5,-75.5 1077.5,-75.5 1077.5,-56.5 970.5,-56.5"/>
<text text-anchor="middle" x="1024" y="-63.5" font-family="Helvetica,sans-Serif" font-size="10.00">src/cip/cipcommon.h</text>
</g>
<!-- Node2 -->
<g id="node2" class="node"><title>Node2</title>
<g id="a_node2"><a xlink:href="../../df/d2e/cipassembly_8c.html" target="_top" xlink:title="src/cip/cipassembly.c">
<polygon fill="none" stroke="black" points="0,-0.5 0,-19.5 112,-19.5 112,-0.5 0,-0.5"/>
<text text-anchor="middle" x="56" y="-7.5" font-family="Helvetica,sans-Serif" font-size="10.00">src/cip/cipassembly.c</text>
</a>
</g>
</g>
<!-- Node1&#45;&gt;Node2 -->
<g id="edge1" class="edge"><title>Node1&#45;&gt;Node2</title>
<path fill="none" stroke="midnightblue" d="M960.13,-63.7944C812.125,-60.5697 434.32,-49.8628 120,-20 117.431,-19.7559 114.807,-19.483 112.158,-19.1885"/>
<polygon fill="midnightblue" stroke="midnightblue" points="960.313,-67.299 970.386,-64.0138 960.463,-60.3006 960.313,-67.299"/>
</g>
<!-- Node3 -->
<g id="node3" class="node"><title>Node3</title>
<g id="a_node3"><a xlink:href="../../d2/d3d/cipcommon_8c.html" target="_top" xlink:title="src/cip/cipcommon.c">
<polygon fill="none" stroke="black" points="129.5,-0.5 129.5,-19.5 236.5,-19.5 236.5,-0.5 129.5,-0.5"/>
<text text-anchor="middle" x="183" y="-7.5" font-family="Helvetica,sans-Serif" font-size="10.00">src/cip/cipcommon.c</text>
</a>
</g>
</g>
<!-- Node1&#45;&gt;Node3 -->
<g id="edge2" class="edge"><title>Node1&#45;&gt;Node3</title>
<path fill="none" stroke="midnightblue" d="M960,-63.1765C826.703,-58.9662 509.684,-46.8052 245,-20 242.295,-19.726 239.526,-19.4197 236.733,-19.09"/>
<polygon fill="midnightblue" stroke="midnightblue" points="959.936,-66.676 970.04,-63.4894 960.154,-59.6794 959.936,-66.676"/>
</g>
<!-- Node4 -->
<g id="node4" class="node"><title>Node4</title>
<g id="a_node4"><a xlink:href="../../d5/d35/cipconnectionmanager_8c.html" target="_top" xlink:title="src/cip/cipconnectionmanager.c">
<polygon fill="none" stroke="black" points="254.5,-0.5 254.5,-19.5 409.5,-19.5 409.5,-0.5 254.5,-0.5"/>
<text text-anchor="middle" x="332" y="-7.5" font-family="Helvetica,sans-Serif" font-size="10.00">src/cip/cipconnectionmanager.c</text>
</a>
</g>
</g>
<!-- Node1&#45;&gt;Node4 -->
<g id="edge3" class="edge"><title>Node1&#45;&gt;Node4</title>
<path fill="none" stroke="midnightblue" d="M959.828,-60.8373C849.303,-53.5313 615.913,-37.5047 419,-20 415.975,-19.7311 412.892,-19.4493 409.777,-19.1582"/>
<polygon fill="midnightblue" stroke="midnightblue" points="959.927,-64.3513 970.135,-61.5169 960.387,-57.3665 959.927,-64.3513"/>
</g>
<!-- Node5 -->
<g id="node5" class="node"><title>Node5</title>
<g id="a_node5"><a xlink:href="../../d7/d65/cipethernetlink_8c.html" target="_top" xlink:title="src/cip/cipethernetlink.c">
<polygon fill="none" stroke="black" points="428,-0.5 428,-19.5 548,-19.5 548,-0.5 428,-0.5"/>
<text text-anchor="middle" x="488" y="-7.5" font-family="Helvetica,sans-Serif" font-size="10.00">src/cip/cipethernetlink.c</text>
</a>
</g>
</g>
<!-- Node1&#45;&gt;Node5 -->
<g id="edge4" class="edge"><title>Node1&#45;&gt;Node5</title>
<path fill="none" stroke="midnightblue" d="M960.319,-59.5474C870.361,-51.6894 700.976,-36.3218 557,-20 554.119,-19.6734 551.172,-19.3289 548.196,-18.9728"/>
<polygon fill="midnightblue" stroke="midnightblue" points="960.093,-63.0409 970.359,-60.4221 960.701,-56.0673 960.093,-63.0409"/>
</g>
<!-- Node6 -->
<g id="node6" class="node"><title>Node6</title>
<g id="a_node6"><a xlink:href="../../dd/dc4/cipidentity_8c.html" target="_top" xlink:title="src/cip/cipidentity.c">
<polygon fill="none" stroke="black" points="566.5,-0.5 566.5,-19.5 667.5,-19.5 667.5,-0.5 566.5,-0.5"/>
<text text-anchor="middle" x="617" y="-7.5" font-family="Helvetica,sans-Serif" font-size="10.00">src/cip/cipidentity.c</text>
</a>
</g>
</g>
<!-- Node1&#45;&gt;Node6 -->
<g id="edge5" class="edge"><title>Node1&#45;&gt;Node6</title>
<path fill="none" stroke="midnightblue" d="M960.33,-57.2085C890.507,-48.561 775.181,-33.9753 676,-20 673.23,-19.6097 670.388,-19.2015 667.519,-18.7837"/>
<polygon fill="midnightblue" stroke="midnightblue" points="959.94,-60.6869 970.294,-58.4405 960.799,-53.7398 959.94,-60.6869"/>
</g>
<!-- Node7 -->
<g id="node7" class="node"><title>Node7</title>
<g id="a_node7"><a xlink:href="../../df/d03/cipioconnection_8c.html" target="_top" xlink:title="src/cip/cipioconnection.c">
<polygon fill="none" stroke="black" points="685.5,-0.5 685.5,-19.5 810.5,-19.5 810.5,-0.5 685.5,-0.5"/>
<text text-anchor="middle" x="748" y="-7.5" font-family="Helvetica,sans-Serif" font-size="10.00">src/cip/cipioconnection.c</text>
</a>
</g>
</g>
<!-- Node1&#45;&gt;Node7 -->
<g id="edge6" class="edge"><title>Node1&#45;&gt;Node7</title>
<path fill="none" stroke="midnightblue" d="M970.197,-54.4734C918.036,-44.2678 839.895,-28.9794 791.528,-19.5164"/>
<polygon fill="midnightblue" stroke="midnightblue" points="969.781,-57.9582 980.267,-56.4435 971.125,-51.0885 969.781,-57.9582"/>
</g>
<!-- Node8 -->
<g id="node8" class="node"><title>Node8</title>
<g id="a_node8"><a xlink:href="../../d9/d7d/cipmessagerouter_8c.html" target="_top" xlink:title="src/cip/cipmessagerouter.c">
<polygon fill="none" stroke="black" points="829,-0.5 829,-19.5 963,-19.5 963,-0.5 829,-0.5"/>
<text text-anchor="middle" x="896" y="-7.5" font-family="Helvetica,sans-Serif" font-size="10.00">src/cip/cipmessagerouter.c</text>
</a>
</g>
</g>
<!-- Node1&#45;&gt;Node8 -->
<g id="edge7" class="edge"><title>Node1&#45;&gt;Node8</title>
<path fill="none" stroke="midnightblue" d="M994.377,-52.503C970.381,-42.3795 937.216,-28.388 916.187,-19.5164"/>
<polygon fill="midnightblue" stroke="midnightblue" points="993.144,-55.7813 1003.72,-56.4435 995.865,-49.3317 993.144,-55.7813"/>
</g>
<!-- Node9 -->
<g id="node9" class="node"><title>Node9</title>
<g id="a_node9"><a xlink:href="../../dd/d34/cipqos_8c.html" target="_top" xlink:title="src/cip/cipqos.c">
<polygon fill="none" stroke="black" points="981,-0.5 981,-19.5 1067,-19.5 1067,-0.5 981,-0.5"/>
<text text-anchor="middle" x="1024" y="-7.5" font-family="Helvetica,sans-Serif" font-size="10.00">src/cip/cipqos.c</text>
</a>
</g>
</g>
<!-- Node1&#45;&gt;Node9 -->
<g id="edge8" class="edge"><title>Node1&#45;&gt;Node9</title>
<path fill="none" stroke="midnightblue" d="M1024,-45.8045C1024,-36.9102 1024,-26.7798 1024,-19.7511"/>
<polygon fill="midnightblue" stroke="midnightblue" points="1020.5,-46.083 1024,-56.083 1027.5,-46.083 1020.5,-46.083"/>
</g>
<!-- Node10 -->
<g id="node10" class="node"><title>Node10</title>
<g id="a_node10"><a xlink:href="../../dd/d20/ciptcpipinterface_8c.html" target="_top" xlink:title="src/cip/ciptcpipinterface.c">
<polygon fill="none" stroke="black" points="1085,-0.5 1085,-19.5 1213,-19.5 1213,-0.5 1085,-0.5"/>
<text text-anchor="middle" x="1149" y="-7.5" font-family="Helvetica,sans-Serif" font-size="10.00">src/cip/ciptcpipinterface.c</text>
</a>
</g>
</g>
<!-- Node1&#45;&gt;Node10 -->
<g id="edge9" class="edge"><title>Node1&#45;&gt;Node10</title>
<path fill="none" stroke="midnightblue" d="M1053.24,-52.3678C1076.65,-42.2553 1108.84,-28.3486 1129.29,-19.5164"/>
<polygon fill="midnightblue" stroke="midnightblue" points="1051.6,-49.2647 1043.81,-56.4435 1054.37,-55.6907 1051.6,-49.2647"/>
</g>
<!-- Node11 -->
<g id="node11" class="node"><title>Node11</title>
<g id="a_node11"><a xlink:href="../../d3/d98/cpf_8c.html" target="_top" xlink:title="src/enet_encap/cpf.c">
<polygon fill="none" stroke="black" points="1231,-0.5 1231,-19.5 1339,-19.5 1339,-0.5 1231,-0.5"/>
<text text-anchor="middle" x="1285" y="-7.5" font-family="Helvetica,sans-Serif" font-size="10.00">src/enet_encap/cpf.c</text>
</a>
</g>
</g>
<!-- Node1&#45;&gt;Node11 -->
<g id="edge10" class="edge"><title>Node1&#45;&gt;Node11</title>
<path fill="none" stroke="midnightblue" d="M1075.19,-54.4096C1124.51,-44.2042 1198.19,-28.9597 1243.84,-19.5164"/>
<polygon fill="midnightblue" stroke="midnightblue" points="1074.44,-50.99 1065.36,-56.4435 1075.86,-57.8448 1074.44,-50.99"/>
</g>
<!-- Node12 -->
<g id="node12" class="node"><title>Node12</title>
<g id="a_node12"><a xlink:href="../../d2/dbd/encap_8c.html" target="_top" xlink:title="src/enet_encap/encap.c">
<polygon fill="none" stroke="black" points="1357.5,-0.5 1357.5,-19.5 1478.5,-19.5 1478.5,-0.5 1357.5,-0.5"/>
<text text-anchor="middle" x="1418" y="-7.5" font-family="Helvetica,sans-Serif" font-size="10.00">src/enet_encap/encap.c</text>
</a>
</g>
</g>
<!-- Node1&#45;&gt;Node12 -->
<g id="edge11" class="edge"><title>Node1&#45;&gt;Node12</title>
<path fill="none" stroke="midnightblue" d="M1087.72,-56.2663C1162.17,-46.0636 1284.42,-29.3082 1357.46,-19.2969"/>
<polygon fill="midnightblue" stroke="midnightblue" points="1086.98,-52.8356 1077.55,-57.6611 1087.93,-59.7708 1086.98,-52.8356"/>
</g>
<!-- Node13 -->
<g id="node13" class="node"><title>Node13</title>
<g id="a_node13"><a xlink:href="../../d9/dfb/POSIX_2main_8c.html" target="_top" xlink:title="src/ports/POSIX/main.c">
<polygon fill="none" stroke="black" points="1496.5,-0.5 1496.5,-19.5 1617.5,-19.5 1617.5,-0.5 1496.5,-0.5"/>
<text text-anchor="middle" x="1557" y="-7.5" font-family="Helvetica,sans-Serif" font-size="10.00">src/ports/POSIX/main.c</text>
</a>
</g>
</g>
<!-- Node1&#45;&gt;Node13 -->
<g id="edge12" class="edge"><title>Node1&#45;&gt;Node13</title>
<path fill="none" stroke="midnightblue" d="M1087.49,-59.4564C1176.77,-51.5192 1344.43,-36.0895 1487,-20 1490.04,-19.6565 1493.16,-19.2942 1496.31,-18.9202"/>
<polygon fill="midnightblue" stroke="midnightblue" points="1087.18,-55.9705 1077.53,-60.3403 1087.8,-62.9431 1087.18,-55.9705"/>
</g>
<!-- Node14 -->
<g id="node14" class="node"><title>Node14</title>
<g id="a_node14"><a xlink:href="../../df/def/POSIX_2networkconfig_8c.html" target="_top" xlink:title="src/ports/POSIX/networkconfig.c">
<polygon fill="none" stroke="black" points="1635.5,-0.5 1635.5,-19.5 1796.5,-19.5 1796.5,-0.5 1635.5,-0.5"/>
<text text-anchor="middle" x="1716" y="-7.5" font-family="Helvetica,sans-Serif" font-size="10.00">src/ports/POSIX/networkconfig.c</text>
</a>
</g>
</g>
<!-- Node1&#45;&gt;Node14 -->
<g id="edge13" class="edge"><title>Node1&#45;&gt;Node14</title>
<path fill="none" stroke="midnightblue" d="M1087.85,-60.7552C1197.81,-53.326 1430.03,-37.1201 1626,-20 1628.97,-19.7403 1632,-19.4696 1635.06,-19.191"/>
<polygon fill="midnightblue" stroke="midnightblue" points="1087.33,-57.2817 1077.59,-61.4465 1087.8,-64.2659 1087.33,-57.2817"/>
</g>
<!-- Node15 -->
<g id="node15" class="node"><title>Node15</title>
<g id="a_node15"><a xlink:href="../../dc/db2/WIN32_2main_8c.html" target="_top" xlink:title="src/ports/WIN32/main.c">
<polygon fill="none" stroke="black" points="1814.5,-0.5 1814.5,-19.5 1935.5,-19.5 1935.5,-0.5 1814.5,-0.5"/>
<text text-anchor="middle" x="1875" y="-7.5" font-family="Helvetica,sans-Serif" font-size="10.00">src/ports/WIN32/main.c</text>
</a>
</g>
</g>
<!-- Node1&#45;&gt;Node15 -->
<g id="edge14" class="edge"><title>Node1&#45;&gt;Node15</title>
<path fill="none" stroke="midnightblue" d="M1087.63,-62.8508C1220.92,-58.0152 1539.1,-44.7234 1805,-20 1808.05,-19.7164 1811.17,-19.4024 1814.32,-19.0666"/>
<polygon fill="midnightblue" stroke="midnightblue" points="1087.46,-59.3545 1077.6,-63.2115 1087.72,-66.35 1087.46,-59.3545"/>
</g>
<!-- Node16 -->
<g id="node16" class="node"><title>Node16</title>
<g id="a_node16"><a xlink:href="../../d2/d9c/WIN32_2networkconfig_8c.html" target="_top" xlink:title="src/ports/WIN32/networkconfig.c">
<polygon fill="none" stroke="black" points="1953.5,-0.5 1953.5,-19.5 2114.5,-19.5 2114.5,-0.5 1953.5,-0.5"/>
<text text-anchor="middle" x="2034" y="-7.5" font-family="Helvetica,sans-Serif" font-size="10.00">src/ports/WIN32/networkconfig.c</text>
</a>
</g>
</g>
<!-- Node1&#45;&gt;Node16 -->
<g id="edge15" class="edge"><title>Node1&#45;&gt;Node16</title>
<path fill="none" stroke="midnightblue" d="M1088.1,-62.9857C1237.99,-58.0309 1622.99,-43.8856 1944,-20 1946.98,-19.7786 1950,-19.5405 1953.06,-19.2894"/>
<polygon fill="midnightblue" stroke="midnightblue" points="1087.6,-59.5002 1077.72,-63.3265 1087.83,-66.4964 1087.6,-59.5002"/>
</g>
</g>
</svg>
