<?xml version="1.0" encoding="UTF-8" standalone="no"?>
<!DOCTYPE svg PUBLIC "-//W3C//DTD SVG 1.1//EN"
 "http://www.w3.org/Graphics/SVG/1.1/DTD/svg11.dtd">
<!-- Generated by graphviz version 2.26.3 (20100126.1600)
 -->
<!-- Title: G Pages: 1 -->
<!--zoomable 494 -->
<svg id="main" version="1.1" xmlns="http://www.w3.org/2000/svg" xmlns:xlink="http://www.w3.org/1999/xlink" xml:space="preserve" onload="init(evt)">
        <defs>
                <circle id="rim" cx="0" cy="0" r="7"/>
                <circle id="rim2" cx="0" cy="0" r="3.5"/>
                <g id="zoomPlus">
                        <use xlink:href="#rim" fill="#404040">
                                <set attributeName="fill" to="#808080" begin="zoomplus.mouseover" end="zoomplus.mouseout"/>
                        </use>
                        <path d="M-4,0h8M0,-4v8" fill="none" stroke="white" stroke-width="1.5" pointer-events="none"/>
                </g>
                <g id="zoomMin">
                        <use xlink:href="#rim" fill="#404040">
                                <set attributeName="fill" to="#808080" begin="zoomminus.mouseover" end="zoomminus.mouseout"/>
                        </use>
                        <path d="M-4,0h8" fill="none" stroke="white" stroke-width="1.5" pointer-events="none"/>
                </g>
                <g id="dirArrow">
                        <path fill="none" stroke="white" stroke-width="1.5" d="M0,-3.0v7 M-2.5,-0.5L0,-3.0L2.5,-0.5"/>
                </g>
               <g id="resetDef">
                       <use xlink:href="#rim2" fill="#404040">
                               <set attributeName="fill" to="#808080" begin="reset.mouseover" end="reset.mouseout"/>
                       </use>
               </g>
        </defs>

<script type="text/javascript">
var viewWidth = 1259;
var viewHeight = 494;
var sectionId = 'dynsection-0';
</script>
<script xlink:href="../../svgpan.js"/>
<svg id="graph" class="graph">
<g id="viewport">
<title>G</title>
<!-- Node1 -->
<g id="node1" class="node"><title>Node1</title>
<polygon fill="#bfbfbf" stroke="black" points="535.5,-464.5 535.5,-485.5 704.5,-485.5 704.5,-464.5 535.5,-464.5"/>
<text text-anchor="middle" x="620" y="-472.5" font-family="Helvetica,sans-Serif" font-size="10.00">src/ports/generic_networkhandler.c</text>
</g>
<!-- Node2 -->
<g id="node3" class="node"><title>Node2</title>
<polygon fill="none" stroke="#bfbfbf" points="144,-116.5 144,-137.5 196,-137.5 196,-116.5 144,-116.5"/>
<text text-anchor="middle" x="170" y="-124.5" font-family="Helvetica,sans-Serif" font-size="10.00">assert.h</text>
</g>
<!-- Node1&#45;&gt;Node2 -->
<g id="edge2" class="edge"><title>Node1&#45;&gt;Node2</title>
<path fill="none" stroke="midnightblue" d="M535.341,-471.166C400.991,-462.743 154,-436.692 154,-359 154,-359 154,-359 154,-243 154,-209.456 160.647,-170.964 165.372,-147.836"/>
<polygon fill="midnightblue" stroke="midnightblue" points="168.848,-148.315 167.5,-137.806 162.001,-146.862 168.848,-148.315"/>
</g>
<!-- Node3 -->
<g id="node5" class="node"><title>Node3</title>
<polygon fill="none" stroke="#bfbfbf" points="722,-0.5 722,-21.5 778,-21.5 778,-0.5 722,-0.5"/>
<text text-anchor="middle" x="750" y="-8.5" font-family="Helvetica,sans-Serif" font-size="10.00">stdbool.h</text>
</g>
<!-- Node1&#45;&gt;Node3 -->
<g id="edge4" class="edge"><title>Node1&#45;&gt;Node3</title>
<path fill="none" stroke="midnightblue" d="M704.758,-470.261C809.471,-463.59 981.121,-449.754 1041,-428 1093.14,-409.059 1145,-414.47 1145,-359 1145,-359 1145,-359 1145,-127 1145,-53.127 887.443,-22.9207 788.28,-14.0285"/>
<polygon fill="midnightblue" stroke="midnightblue" points="788.357,-10.522 778.091,-13.1403 787.749,-17.4956 788.357,-10.522"/>
</g>
<!-- Node4 -->
<g id="node7" class="node"><title>Node4</title>
<a xlink:href="../../da/dc2/generic__networkhandler_8h.html" target="_top" xlink:title="generic_networkhandler.h">
<polygon fill="none" stroke="black" points="452,-406.5 452,-427.5 580,-427.5 580,-406.5 452,-406.5"/>
<text text-anchor="middle" x="516" y="-414.5" font-family="Helvetica,sans-Serif" font-size="10.00">generic_networkhandler.h</text>
</a>
</g>
<!-- Node1&#45;&gt;Node4 -->
<g id="edge6" class="edge"><title>Node1&#45;&gt;Node4</title>
<path fill="none" stroke="midnightblue" d="M600.925,-464.362C584.945,-455.45 561.919,-442.609 543.873,-432.545"/>
<polygon fill="midnightblue" stroke="midnightblue" points="545.393,-429.385 534.954,-427.571 541.983,-435.498 545.393,-429.385"/>
</g>
<!-- Node10 -->
<g id="node21" class="node"><title>Node10</title>
<a xlink:href="../../d7/d69/typedefs_8h.html" target="_top" xlink:title="typedefs.h">
<polygon fill="none" stroke="black" points="338,-58.5 338,-79.5 400,-79.5 400,-58.5 338,-58.5"/>
<text text-anchor="middle" x="369" y="-66.5" font-family="Helvetica,sans-Serif" font-size="10.00">typedefs.h</text>
</a>
</g>
<!-- Node1&#45;&gt;Node10 -->
<g id="edge92" class="edge"><title>Node1&#45;&gt;Node10</title>
<path fill="none" stroke="midnightblue" d="M535.18,-470.229C428.275,-463.442 250.989,-449.399 189,-428 134.091,-409.046 78,-417.088 78,-359 78,-359 78,-359 78,-185 78,-150.203 86.8986,-136.523 115,-116 148.277,-91.6976 264.667,-78.0666 327.696,-72.3094"/>
<polygon fill="midnightblue" stroke="midnightblue" points="328.052,-75.7916 337.703,-71.4206 327.433,-68.8191 328.052,-75.7916"/>
</g>
<!-- Node16 -->
<g id="node35" class="node"><title>Node16</title>
<polygon fill="none" stroke="#bfbfbf" points="942,-116.5 942,-137.5 1044,-137.5 1044,-116.5 942,-116.5"/>
<text text-anchor="middle" x="993" y="-124.5" font-family="Helvetica,sans-Serif" font-size="10.00">opener_user_conf.h</text>
</g>
<!-- Node1&#45;&gt;Node16 -->
<g id="edge110" class="edge"><title>Node1&#45;&gt;Node16</title>
<path fill="none" stroke="midnightblue" d="M653.458,-464.397C698.866,-448.862 780.984,-416.612 839,-370 917.253,-307.128 942.286,-287.754 983,-196 989.741,-180.81 992.127,-162.066 992.891,-147.95"/>
<polygon fill="midnightblue" stroke="midnightblue" points="996.395,-147.882 993.209,-137.777 989.399,-147.663 996.395,-147.882"/>
</g>
<!-- Node25 -->
<g id="node72" class="node"><title>Node25</title>
<a xlink:href="../../d1/d1b/trace_8h.html" target="_top" xlink:title="Tracing infrastructure for OpENer.">
<polygon fill="none" stroke="black" points="1032.5,-290.5 1032.5,-311.5 1079.5,-311.5 1079.5,-290.5 1032.5,-290.5"/>
<text text-anchor="middle" x="1056" y="-298.5" font-family="Helvetica,sans-Serif" font-size="10.00">trace.h</text>
</a>
</g>
<!-- Node1&#45;&gt;Node25 -->
<g id="edge94" class="edge"><title>Node1&#45;&gt;Node25</title>
<path fill="none" stroke="midnightblue" d="M704.741,-469.969C814.745,-462.689 995.506,-447.881 1019,-428 1050.26,-401.546 1055.92,-350.321 1056.48,-321.673"/>
<polygon fill="midnightblue" stroke="midnightblue" points="1059.98,-321.569 1056.48,-311.569 1052.98,-321.568 1059.98,-321.569"/>
</g>
<!-- Node26 -->
<g id="node75" class="node"><title>Node26</title>
<a xlink:href="../../df/d94/opener__error_8h.html" target="_top" xlink:title="This file includes the prototypes for error resolution functions like strerror_r or WSAGetLastError...">
<polygon fill="none" stroke="black" points="1172.5,-406.5 1172.5,-427.5 1251.5,-427.5 1251.5,-406.5 1172.5,-406.5"/>
<text text-anchor="middle" x="1212" y="-414.5" font-family="Helvetica,sans-Serif" font-size="10.00">opener_error.h</text>
</a>
</g>
<!-- Node1&#45;&gt;Node26 -->
<g id="edge98" class="edge"><title>Node1&#45;&gt;Node26</title>
<path fill="none" stroke="midnightblue" d="M704.846,-470.695C811.334,-464.583 999.385,-451.44 1159,-428 1160.09,-427.84 1161.2,-427.671 1162.31,-427.494"/>
<polygon fill="midnightblue" stroke="midnightblue" points="1163.18,-430.895 1172.44,-425.741 1161.99,-423.997 1163.18,-430.895"/>
</g>
<!-- Node27 -->
<g id="node77" class="node"><title>Node27</title>
<a xlink:href="../../d7/df9/encap_8h.html" target="_top" xlink:title="This file contains the public interface of the encapsulation layer.">
<polygon fill="none" stroke="black" points="-0.5,-232.5 -0.5,-253.5 50.5,-253.5 50.5,-232.5 -0.5,-232.5"/>
<text text-anchor="middle" x="25" y="-240.5" font-family="Helvetica,sans-Serif" font-size="10.00">encap.h</text>
</a>
</g>
<!-- Node1&#45;&gt;Node27 -->
<g id="edge100" class="edge"><title>Node1&#45;&gt;Node27</title>
<path fill="none" stroke="midnightblue" d="M535.354,-473.322C388.429,-469.614 98.5046,-458.488 64,-428 16.7623,-386.261 18.4497,-303.035 22.2412,-264.056"/>
<polygon fill="midnightblue" stroke="midnightblue" points="25.7451,-264.216 23.3805,-253.888 18.7886,-263.436 25.7451,-264.216"/>
</g>
<!-- Node28 -->
<g id="node80" class="node"><title>Node28</title>
<a xlink:href="../../d1/dad/ciptcpipinterface_8h.html" target="_top" xlink:title="Public interface of the TCP/IP Interface Object.">
<polygon fill="none" stroke="black" points="285,-174.5 285,-195.5 381,-195.5 381,-174.5 285,-174.5"/>
<text text-anchor="middle" x="333" y="-182.5" font-family="Helvetica,sans-Serif" font-size="10.00">ciptcpipinterface.h</text>
</a>
</g>
<!-- Node1&#45;&gt;Node28 -->
<g id="edge104" class="edge"><title>Node1&#45;&gt;Node28</title>
<path fill="none" stroke="midnightblue" d="M545.013,-464.485C445.986,-448.453 284,-413.846 284,-359 284,-359 284,-359 284,-301 284,-264.463 304.883,-226.193 319.383,-204.025"/>
<polygon fill="midnightblue" stroke="midnightblue" points="322.407,-205.801 325.127,-195.562 316.615,-201.87 322.407,-205.801"/>
</g>
<!-- Node29 -->
<g id="node85" class="node"><title>Node29</title>
<a xlink:href="../../d0/d3c/cipqos_8h.html" target="_top" xlink:title="Public interface of the QoS Object.">
<polygon fill="none" stroke="black" points="777.5,-348.5 777.5,-369.5 830.5,-369.5 830.5,-348.5 777.5,-348.5"/>
<text text-anchor="middle" x="804" y="-356.5" font-family="Helvetica,sans-Serif" font-size="10.00">cipqos.h</text>
</a>
</g>
<!-- Node1&#45;&gt;Node29 -->
<g id="edge112" class="edge"><title>Node1&#45;&gt;Node29</title>
<path fill="none" stroke="midnightblue" d="M636.98,-464.295C669.514,-443.785 740.775,-398.859 778.847,-374.857"/>
<polygon fill="midnightblue" stroke="midnightblue" points="780.734,-377.805 787.326,-369.512 777,-371.884 780.734,-377.805"/>
</g>
<!-- Node5 -->
<g id="node9" class="node"><title>Node5</title>
<polygon fill="none" stroke="#bfbfbf" points="648,-348.5 648,-369.5 694,-369.5 694,-348.5 648,-348.5"/>
<text text-anchor="middle" x="671" y="-356.5" font-family="Helvetica,sans-Serif" font-size="10.00">stdio.h</text>
</g>
<!-- Node4&#45;&gt;Node5 -->
<g id="edge8" class="edge"><title>Node4&#45;&gt;Node5</title>
<path fill="none" stroke="midnightblue" d="M544.069,-406.497C570.487,-396.611 610.055,-381.805 637.978,-371.357"/>
<polygon fill="midnightblue" stroke="midnightblue" points="639.554,-374.504 647.693,-367.721 637.1,-367.948 639.554,-374.504"/>
</g>
<!-- Node6 -->
<g id="node11" class="node"><title>Node6</title>
<polygon fill="none" stroke="#bfbfbf" points="711.5,-348.5 711.5,-369.5 760.5,-369.5 760.5,-348.5 711.5,-348.5"/>
<text text-anchor="middle" x="736" y="-356.5" font-family="Helvetica,sans-Serif" font-size="10.00">string.h</text>
</g>
<!-- Node4&#45;&gt;Node6 -->
<g id="edge10" class="edge"><title>Node4&#45;&gt;Node6</title>
<path fill="none" stroke="midnightblue" d="M561.987,-406.465C597.772,-398.037 648.862,-385.504 701.378,-370.351"/>
<polygon fill="midnightblue" stroke="midnightblue" points="702.575,-373.647 711.197,-367.491 700.617,-366.927 702.575,-373.647"/>
</g>
<!-- Node7 -->
<g id="node13" class="node"><title>Node7</title>
<polygon fill="none" stroke="#bfbfbf" points="312,-348.5 312,-369.5 360,-369.5 360,-348.5 312,-348.5"/>
<text text-anchor="middle" x="336" y="-356.5" font-family="Helvetica,sans-Serif" font-size="10.00">stdlib.h</text>
</g>
<!-- Node4&#45;&gt;Node7 -->
<g id="edge12" class="edge"><title>Node4&#45;&gt;Node7</title>
<path fill="none" stroke="midnightblue" d="M483.403,-406.497C451.177,-396.113 402.098,-380.298 369.546,-369.809"/>
<polygon fill="midnightblue" stroke="midnightblue" points="370.602,-366.473 360.011,-366.737 368.456,-373.135 370.602,-366.473"/>
</g>
<!-- Node8 -->
<g id="node15" class="node"><title>Node8</title>
<polygon fill="none" stroke="#bfbfbf" points="453.5,-348.5 453.5,-369.5 500.5,-369.5 500.5,-348.5 453.5,-348.5"/>
<text text-anchor="middle" x="477" y="-356.5" font-family="Helvetica,sans-Serif" font-size="10.00">errno.h</text>
</g>
<!-- Node4&#45;&gt;Node8 -->
<g id="edge14" class="edge"><title>Node4&#45;&gt;Node8</title>
<path fill="none" stroke="midnightblue" d="M508.847,-406.362C503.514,-398.431 496.089,-387.389 489.749,-377.961"/>
<polygon fill="midnightblue" stroke="midnightblue" points="492.592,-375.916 484.108,-369.571 486.783,-379.822 492.592,-375.916"/>
</g>
<!-- Node9 -->
<g id="node17" class="node"><title>Node9</title>
<a xlink:href="../../d4/d38/opener__api_8h.html" target="_top" xlink:title="opener_api.h">
<polygon fill="none" stroke="black" points="475,-174.5 475,-195.5 547,-195.5 547,-174.5 475,-174.5"/>
<text text-anchor="middle" x="511" y="-182.5" font-family="Helvetica,sans-Serif" font-size="10.00">opener_api.h</text>
</a>
</g>
<!-- Node4&#45;&gt;Node9 -->
<g id="edge16" class="edge"><title>Node4&#45;&gt;Node9</title>
<path fill="none" stroke="midnightblue" d="M487.942,-406.353C472.262,-398.784 454.095,-386.929 445,-370 414.201,-312.676 465.992,-238.017 494.357,-203.719"/>
<polygon fill="midnightblue" stroke="midnightblue" points="497.19,-205.791 501,-195.904 491.857,-201.257 497.19,-205.791"/>
</g>
<!-- Node4&#45;&gt;Node10 -->
<g id="edge40" class="edge"><title>Node4&#45;&gt;Node10</title>
<path fill="none" stroke="midnightblue" d="M451.751,-412.992C401.423,-407.889 330.682,-396.301 274,-370 192.274,-332.079 116,-333.095 116,-243 116,-243 116,-243 116,-185 116,-153.192 111.73,-137.685 135,-116 162.453,-90.4167 268.196,-77.5073 327.702,-72.1444"/>
<polygon fill="midnightblue" stroke="midnightblue" points="328.235,-75.6114 337.894,-71.2589 327.629,-68.6377 328.235,-75.6114"/>
</g>
<!-- Node14 -->
<g id="node31" class="node"><title>Node14</title>
<polygon fill="none" stroke="#bfbfbf" points="619.5,-58.5 619.5,-79.5 710.5,-79.5 710.5,-58.5 619.5,-58.5"/>
<text text-anchor="middle" x="665" y="-66.5" font-family="Helvetica,sans-Serif" font-size="10.00">networkhandler.h</text>
</g>
<!-- Node4&#45;&gt;Node14 -->
<g id="edge82" class="edge"><title>Node4&#45;&gt;Node14</title>
<path fill="none" stroke="midnightblue" d="M580.187,-413.909C713.932,-406.13 1016.02,-381.169 1088,-312 1110.94,-289.961 1107,-274.808 1107,-243 1107,-243 1107,-243 1107,-185 1107,-146.058 1086.92,-135.134 1053,-116 997.462,-84.6677 814.327,-74.0084 720.894,-70.5556"/>
<polygon fill="midnightblue" stroke="midnightblue" points="720.894,-67.0535 710.776,-70.1969 720.646,-74.0491 720.894,-67.0535"/>
</g>
<!-- Node17 -->
<g id="node38" class="node"><title>Node17</title>
<a xlink:href="../../d0/dec/endianconv_8h.html" target="_top" xlink:title="Responsible for Endianess conversion.">
<polygon fill="none" stroke="black" points="182,-232.5 182,-253.5 256,-253.5 256,-232.5 182,-232.5"/>
<text text-anchor="middle" x="219" y="-240.5" font-family="Helvetica,sans-Serif" font-size="10.00">endianconv.h</text>
</a>
</g>
<!-- Node4&#45;&gt;Node17 -->
<g id="edge42" class="edge"><title>Node4&#45;&gt;Node17</title>
<path fill="none" stroke="midnightblue" d="M451.902,-408.262C398.298,-399.985 326.88,-386.401 303,-370 263.797,-343.076 238.209,-291.272 226.462,-262.855"/>
<polygon fill="midnightblue" stroke="midnightblue" points="229.704,-261.536 222.76,-253.533 223.198,-264.119 229.704,-261.536"/>
</g>
<!-- Node18 -->
<g id="node41" class="node"><title>Node18</title>
<a xlink:href="../../d2/da3/cipconnectionmanager_8h.html" target="_top" xlink:title="cipconnectionmanager.h">
<polygon fill="none" stroke="black" points="556,-290.5 556,-311.5 678,-311.5 678,-290.5 556,-290.5"/>
<text text-anchor="middle" x="617" y="-298.5" font-family="Helvetica,sans-Serif" font-size="10.00">cipconnectionmanager.h</text>
</a>
</g>
<!-- Node4&#45;&gt;Node18 -->
<g id="edge46" class="edge"><title>Node4&#45;&gt;Node18</title>
<path fill="none" stroke="midnightblue" d="M548.745,-406.419C566.743,-398.975 587.993,-387.225 601,-370 611.393,-356.237 615.201,-336.844 616.519,-322.121"/>
<polygon fill="midnightblue" stroke="midnightblue" points="620.024,-322.129 617.11,-311.943 613.036,-321.724 620.024,-322.129"/>
</g>
<!-- Node23 -->
<g id="node65" class="node"><title>Node23</title>
<a xlink:href="../../d1/dc0/appcontype_8h.html" target="_top" xlink:title="appcontype.h">
<polygon fill="none" stroke="black" points="517.5,-348.5 517.5,-369.5 592.5,-369.5 592.5,-348.5 517.5,-348.5"/>
<text text-anchor="middle" x="555" y="-356.5" font-family="Helvetica,sans-Serif" font-size="10.00">appcontype.h</text>
</a>
</g>
<!-- Node4&#45;&gt;Node23 -->
<g id="edge84" class="edge"><title>Node4&#45;&gt;Node23</title>
<path fill="none" stroke="midnightblue" d="M523.153,-406.362C528.486,-398.431 535.911,-387.389 542.251,-377.961"/>
<polygon fill="midnightblue" stroke="midnightblue" points="545.217,-379.822 547.892,-369.571 539.408,-375.916 545.217,-379.822"/>
</g>
<!-- Node24 -->
<g id="node68" class="node"><title>Node24</title>
<a xlink:href="../../d1/d84/socket__timer_8h.html" target="_top" xlink:title="socket_timer.h">
<polygon fill="none" stroke="black" points="314.5,-290.5 314.5,-311.5 395.5,-311.5 395.5,-290.5 314.5,-290.5"/>
<text text-anchor="middle" x="355" y="-298.5" font-family="Helvetica,sans-Serif" font-size="10.00">socket_timer.h</text>
</a>
</g>
<!-- Node4&#45;&gt;Node24 -->
<g id="edge88" class="edge"><title>Node4&#45;&gt;Node24</title>
<path fill="none" stroke="midnightblue" d="M482.983,-406.484C461.426,-398.601 433.413,-386.359 412,-370 393.8,-356.095 377.661,-335.326 367.243,-320.208"/>
<polygon fill="midnightblue" stroke="midnightblue" points="369.989,-318.016 361.529,-311.637 364.164,-321.899 369.989,-318.016"/>
</g>
<!-- Node9&#45;&gt;Node2 -->
<g id="edge18" class="edge"><title>Node9&#45;&gt;Node2</title>
<path fill="none" stroke="midnightblue" d="M474.83,-178.848C409.261,-167.695 271.509,-144.265 206.037,-133.13"/>
<polygon fill="midnightblue" stroke="midnightblue" points="206.618,-129.678 196.172,-131.452 205.444,-136.579 206.618,-129.678"/>
</g>
<!-- Node9&#45;&gt;Node3 -->
<g id="edge20" class="edge"><title>Node9&#45;&gt;Node3</title>
<path fill="none" stroke="midnightblue" d="M516.484,-174.439C529.555,-150.274 564.926,-90.5411 611,-58 641.433,-36.5064 682.461,-24.2312 712.046,-17.6567"/>
<polygon fill="midnightblue" stroke="midnightblue" points="712.932,-21.0471 721.997,-15.5632 711.49,-14.197 712.932,-21.0471"/>
</g>
<!-- Node9&#45;&gt;Node10 -->
<g id="edge22" class="edge"><title>Node9&#45;&gt;Node10</title>
<path fill="none" stroke="midnightblue" d="M512.397,-174.316C513.716,-159.488 513.781,-132.623 500,-116 488.21,-101.779 443.769,-87.7784 409.888,-78.8086"/>
<polygon fill="midnightblue" stroke="midnightblue" points="410.762,-75.4197 400.204,-76.304 409.009,-82.1967 410.762,-75.4197"/>
</g>
<!-- Node13 -->
<g id="node28" class="node"><title>Node13</title>
<a xlink:href="../../df/d28/ciptypes_8h.html" target="_top" xlink:title="ciptypes.h">
<polygon fill="none" stroke="black" points="623,-116.5 623,-137.5 685,-137.5 685,-116.5 623,-116.5"/>
<text text-anchor="middle" x="654" y="-124.5" font-family="Helvetica,sans-Serif" font-size="10.00">ciptypes.h</text>
</a>
</g>
<!-- Node9&#45;&gt;Node13 -->
<g id="edge30" class="edge"><title>Node9&#45;&gt;Node13</title>
<path fill="none" stroke="midnightblue" d="M536.896,-174.497C559.633,-165.275 592.93,-151.769 618.212,-141.515"/>
<polygon fill="midnightblue" stroke="midnightblue" points="619.862,-144.623 627.813,-137.621 617.231,-138.136 619.862,-144.623"/>
</g>
<!-- Node15 -->
<g id="node33" class="node"><title>Node15</title>
<a xlink:href="../../d6/d52/ciperror_8h.html" target="_top" xlink:title="ciperror.h">
<polygon fill="none" stroke="black" points="434.5,-116.5 434.5,-137.5 491.5,-137.5 491.5,-116.5 434.5,-116.5"/>
<text text-anchor="middle" x="463" y="-124.5" font-family="Helvetica,sans-Serif" font-size="10.00">ciperror.h</text>
</a>
</g>
<!-- Node9&#45;&gt;Node15 -->
<g id="edge36" class="edge"><title>Node9&#45;&gt;Node15</title>
<path fill="none" stroke="midnightblue" d="M502.196,-174.362C495.498,-166.268 486.116,-154.932 478.211,-145.38"/>
<polygon fill="midnightblue" stroke="midnightblue" points="480.82,-143.043 471.748,-137.571 475.427,-147.506 480.82,-143.043"/>
</g>
<!-- Node9&#45;&gt;Node16 -->
<g id="edge38" class="edge"><title>Node9&#45;&gt;Node16</title>
<path fill="none" stroke="midnightblue" d="M547.228,-180.641C629.249,-170.771 829.903,-146.626 931.668,-134.38"/>
<polygon fill="midnightblue" stroke="midnightblue" points="932.284,-137.831 941.794,-133.162 931.447,-130.882 932.284,-137.831"/>
</g>
<!-- Node10&#45;&gt;Node3 -->
<g id="edge28" class="edge"><title>Node10&#45;&gt;Node3</title>
<path fill="none" stroke="midnightblue" d="M400.179,-64.2536C469.517,-53.6982 636.31,-28.3072 711.772,-16.8195"/>
<polygon fill="midnightblue" stroke="midnightblue" points="712.435,-20.259 721.794,-15.2938 711.381,-13.3387 712.435,-20.259"/>
</g>
<!-- Node11 -->
<g id="node23" class="node"><title>Node11</title>
<polygon fill="none" stroke="#bfbfbf" points="376.5,-0.5 376.5,-21.5 435.5,-21.5 435.5,-0.5 376.5,-0.5"/>
<text text-anchor="middle" x="406" y="-8.5" font-family="Helvetica,sans-Serif" font-size="10.00">inttypes.h</text>
</g>
<!-- Node10&#45;&gt;Node11 -->
<g id="edge24" class="edge"><title>Node10&#45;&gt;Node11</title>
<path fill="none" stroke="midnightblue" d="M375.786,-58.3619C380.793,-50.5131 387.745,-39.6159 393.718,-30.2527"/>
<polygon fill="midnightblue" stroke="midnightblue" points="396.829,-31.8837 399.257,-21.5707 390.928,-28.1189 396.829,-31.8837"/>
</g>
<!-- Node12 -->
<g id="node25" class="node"><title>Node12</title>
<polygon fill="none" stroke="#bfbfbf" points="307,-0.5 307,-21.5 359,-21.5 359,-0.5 307,-0.5"/>
<text text-anchor="middle" x="333" y="-8.5" font-family="Helvetica,sans-Serif" font-size="10.00">stddef.h</text>
</g>
<!-- Node10&#45;&gt;Node12 -->
<g id="edge26" class="edge"><title>Node10&#45;&gt;Node12</title>
<path fill="none" stroke="midnightblue" d="M362.397,-58.3619C357.525,-50.5131 350.762,-39.6159 344.95,-30.2527"/>
<polygon fill="midnightblue" stroke="midnightblue" points="347.809,-28.2213 339.561,-21.5707 341.861,-31.9129 347.809,-28.2213"/>
</g>
<!-- Node13&#45;&gt;Node10 -->
<g id="edge32" class="edge"><title>Node13&#45;&gt;Node10</title>
<path fill="none" stroke="midnightblue" d="M622.572,-119.121C618.026,-118.038 613.399,-116.968 609,-116 539.463,-100.701 458.043,-85.2775 410.147,-76.4577"/>
<polygon fill="midnightblue" stroke="midnightblue" points="410.63,-72.9881 400.163,-74.6255 409.367,-79.8731 410.63,-72.9881"/>
</g>
<!-- Node13&#45;&gt;Node14 -->
<g id="edge34" class="edge"><title>Node13&#45;&gt;Node14</title>
<path fill="none" stroke="midnightblue" d="M656.018,-116.362C657.444,-108.84 659.402,-98.5187 661.125,-89.4308"/>
<polygon fill="midnightblue" stroke="midnightblue" points="664.571,-90.0477 662.995,-79.5707 657.693,-88.7433 664.571,-90.0477"/>
</g>
<!-- Node17&#45;&gt;Node10 -->
<g id="edge44" class="edge"><title>Node17&#45;&gt;Node10</title>
<path fill="none" stroke="midnightblue" d="M218.312,-232.341C217.365,-208.491 218.434,-150.232 248,-116 268.181,-92.6348 301.415,-80.8172 327.951,-74.8794"/>
<polygon fill="midnightblue" stroke="midnightblue" points="328.654,-78.3081 337.753,-72.8797 327.255,-71.4494 328.654,-78.3081"/>
</g>
<!-- Node18&#45;&gt;Node9 -->
<g id="edge50" class="edge"><title>Node18&#45;&gt;Node9</title>
<path fill="none" stroke="midnightblue" d="M607.218,-290.295C589.075,-270.441 550.027,-227.709 527.653,-203.224"/>
<polygon fill="midnightblue" stroke="midnightblue" points="530.088,-200.7 520.759,-195.679 524.921,-205.422 530.088,-200.7"/>
</g>
<!-- Node18&#45;&gt;Node10 -->
<g id="edge52" class="edge"><title>Node18&#45;&gt;Node10</title>
<path fill="none" stroke="midnightblue" d="M597.962,-290.391C567.891,-273.084 508.461,-236.606 466,-196 430.641,-162.186 397.969,-114.695 381.06,-88.4144"/>
<polygon fill="midnightblue" stroke="midnightblue" points="383.88,-86.3259 375.567,-79.7564 377.969,-90.0756 383.88,-86.3259"/>
</g>
<!-- Node18&#45;&gt;Node13 -->
<g id="edge54" class="edge"><title>Node18&#45;&gt;Node13</title>
<path fill="none" stroke="midnightblue" d="M619.259,-290.377C625.257,-262.172 641.664,-185.012 649.594,-147.72"/>
<polygon fill="midnightblue" stroke="midnightblue" points="653.02,-148.437 651.676,-137.928 646.173,-146.981 653.02,-148.437"/>
</g>
<!-- Node18&#45;&gt;Node16 -->
<g id="edge48" class="edge"><title>Node18&#45;&gt;Node16</title>
<path fill="none" stroke="midnightblue" d="M670.132,-290.445C755.543,-272.575 918.243,-234.532 962,-196 976.276,-183.429 984.321,-162.994 988.616,-147.619"/>
<polygon fill="midnightblue" stroke="midnightblue" points="992.115,-148.05 991.116,-137.502 985.319,-146.371 992.115,-148.05"/>
</g>
<!-- Node19 -->
<g id="node47" class="node"><title>Node19</title>
<a xlink:href="../../d1/d6c/cipconnectionobject_8h.html" target="_top" xlink:title="cipconnectionobject.h">
<polygon fill="none" stroke="black" points="640.5,-232.5 640.5,-253.5 751.5,-253.5 751.5,-232.5 640.5,-232.5"/>
<text text-anchor="middle" x="696" y="-240.5" font-family="Helvetica,sans-Serif" font-size="10.00">cipconnectionobject.h</text>
</a>
</g>
<!-- Node18&#45;&gt;Node19 -->
<g id="edge56" class="edge"><title>Node18&#45;&gt;Node19</title>
<path fill="none" stroke="midnightblue" d="M631.49,-290.362C643.183,-281.777 659.843,-269.546 673.303,-259.664"/>
<polygon fill="midnightblue" stroke="midnightblue" points="675.613,-262.31 681.602,-253.571 671.47,-256.667 675.613,-262.31"/>
</g>
<!-- Node19&#45;&gt;Node9 -->
<g id="edge64" class="edge"><title>Node19&#45;&gt;Node9</title>
<path fill="none" stroke="midnightblue" d="M662.498,-232.497C632.207,-223 587.43,-208.962 554.407,-198.609"/>
<polygon fill="midnightblue" stroke="midnightblue" points="555.154,-195.175 544.565,-195.523 553.06,-201.854 555.154,-195.175"/>
</g>
<!-- Node19&#45;&gt;Node10 -->
<g id="edge58" class="edge"><title>Node19&#45;&gt;Node10</title>
<path fill="none" stroke="midnightblue" d="M684.012,-232.277C656.641,-208.296 586.678,-149.785 519,-116 484.011,-98.533 441.192,-85.894 410.273,-78.1509"/>
<polygon fill="midnightblue" stroke="midnightblue" points="410.816,-74.681 400.272,-75.7128 409.158,-81.4818 410.816,-74.681"/>
</g>
<!-- Node19&#45;&gt;Node13 -->
<g id="edge60" class="edge"><title>Node19&#45;&gt;Node13</title>
<path fill="none" stroke="midnightblue" d="M690.774,-232.332C686.269,-222.908 679.758,-208.724 675,-196 669.048,-180.082 663.505,-161.649 659.61,-147.841"/>
<polygon fill="midnightblue" stroke="midnightblue" points="662.899,-146.603 656.863,-137.896 656.151,-148.467 662.899,-146.603"/>
</g>
<!-- Node19&#45;&gt;Node16 -->
<g id="edge62" class="edge"><title>Node19&#45;&gt;Node16</title>
<path fill="none" stroke="midnightblue" d="M751.534,-236.518C812.407,-228.652 905.49,-214.159 936,-196 956.013,-184.088 972.132,-162.471 982.055,-146.597"/>
<polygon fill="midnightblue" stroke="midnightblue" points="985.307,-147.977 987.412,-137.593 979.291,-144.397 985.307,-147.977"/>
</g>
<!-- Node20 -->
<g id="node53" class="node"><title>Node20</title>
<a xlink:href="../../d9/d31/doublylinkedlist_8h.html" target="_top" xlink:title="doublylinkedlist.h">
<polygon fill="none" stroke="black" points="717,-174.5 717,-195.5 809,-195.5 809,-174.5 717,-174.5"/>
<text text-anchor="middle" x="763" y="-182.5" font-family="Helvetica,sans-Serif" font-size="10.00">doublylinkedlist.h</text>
</a>
</g>
<!-- Node19&#45;&gt;Node20 -->
<g id="edge66" class="edge"><title>Node19&#45;&gt;Node20</title>
<path fill="none" stroke="midnightblue" d="M708.289,-232.362C718.017,-223.941 731.798,-212.011 743.095,-202.231"/>
<polygon fill="midnightblue" stroke="midnightblue" points="745.519,-204.762 750.789,-195.571 740.938,-199.469 745.519,-204.762"/>
</g>
<!-- Node21 -->
<g id="node55" class="node"><title>Node21</title>
<a xlink:href="../../d0/d23/cipelectronickey_8h.html" target="_top" xlink:title="cipelectronickey.h">
<polygon fill="none" stroke="black" points="702.5,-116.5 702.5,-137.5 797.5,-137.5 797.5,-116.5 702.5,-116.5"/>
<text text-anchor="middle" x="750" y="-124.5" font-family="Helvetica,sans-Serif" font-size="10.00">cipelectronickey.h</text>
</a>
</g>
<!-- Node19&#45;&gt;Node21 -->
<g id="edge68" class="edge"><title>Node19&#45;&gt;Node21</title>
<path fill="none" stroke="midnightblue" d="M696.068,-232.159C696.552,-218.076 698.784,-193.044 708,-174 713.22,-163.214 721.659,-153.056 729.607,-144.963"/>
<polygon fill="midnightblue" stroke="midnightblue" points="732.472,-147.064 737.256,-137.61 727.621,-142.017 732.472,-147.064"/>
</g>
<!-- Node22 -->
<g id="node59" class="node"><title>Node22</title>
<a xlink:href="../../d1/d02/cipepath_8h.html" target="_top" xlink:title="cipepath.h">
<polygon fill="none" stroke="black" points="865,-174.5 865,-195.5 927,-195.5 927,-174.5 865,-174.5"/>
<text text-anchor="middle" x="896" y="-182.5" font-family="Helvetica,sans-Serif" font-size="10.00">cipepath.h</text>
</a>
</g>
<!-- Node19&#45;&gt;Node22 -->
<g id="edge74" class="edge"><title>Node19&#45;&gt;Node22</title>
<path fill="none" stroke="midnightblue" d="M732.218,-232.497C766.894,-222.441 819.129,-207.293 855.243,-196.819"/>
<polygon fill="midnightblue" stroke="midnightblue" points="856.344,-200.144 864.974,-193.998 854.395,-193.421 856.344,-200.144"/>
</g>
<!-- Node21&#45;&gt;Node3 -->
<g id="edge70" class="edge"><title>Node21&#45;&gt;Node3</title>
<path fill="none" stroke="midnightblue" d="M750,-116.295C750,-97.1314 750,-56.654 750,-31.8434"/>
<polygon fill="midnightblue" stroke="midnightblue" points="753.5,-31.6792 750,-21.6792 746.5,-31.6792 753.5,-31.6792"/>
</g>
<!-- Node21&#45;&gt;Node10 -->
<g id="edge72" class="edge"><title>Node21&#45;&gt;Node10</title>
<path fill="none" stroke="midnightblue" d="M702.371,-117.475C699.541,-116.962 696.735,-116.466 694,-116 592.262,-98.6627 471.895,-82.3431 410.119,-74.2712"/>
<polygon fill="midnightblue" stroke="midnightblue" points="410.369,-70.7743 400.001,-72.9546 409.466,-77.7158 410.369,-70.7743"/>
</g>
<!-- Node22&#45;&gt;Node3 -->
<g id="edge76" class="edge"><title>Node22&#45;&gt;Node3</title>
<path fill="none" stroke="midnightblue" d="M887.087,-174.377C863.014,-145.688 796.442,-66.3484 765.804,-29.8354"/>
<polygon fill="midnightblue" stroke="midnightblue" points="768.278,-27.3385 759.169,-21.9277 762.916,-31.838 768.278,-27.3385"/>
</g>
<!-- Node22&#45;&gt;Node13 -->
<g id="edge78" class="edge"><title>Node22&#45;&gt;Node13</title>
<path fill="none" stroke="midnightblue" d="M864.543,-177.25C860.001,-176.148 855.383,-175.038 851,-174 784.332,-158.209 765.054,-155.694 695.141,-138.221"/>
<polygon fill="midnightblue" stroke="midnightblue" points="695.961,-134.818 685.409,-135.775 694.254,-141.607 695.961,-134.818"/>
</g>
<!-- Node22&#45;&gt;Node21 -->
<g id="edge80" class="edge"><title>Node22&#45;&gt;Node21</title>
<path fill="none" stroke="midnightblue" d="M869.561,-174.497C846.244,-165.234 812.05,-151.65 786.196,-141.379"/>
<polygon fill="midnightblue" stroke="midnightblue" points="787.322,-138.06 776.736,-137.621 784.737,-144.566 787.322,-138.06"/>
</g>
<!-- Node23&#45;&gt;Node18 -->
<g id="edge86" class="edge"><title>Node23&#45;&gt;Node18</title>
<path fill="none" stroke="midnightblue" d="M566.372,-348.362C575.286,-340.023 587.879,-328.242 598.276,-318.516"/>
<polygon fill="midnightblue" stroke="midnightblue" points="600.789,-320.958 605.7,-311.571 596.007,-315.846 600.789,-320.958"/>
</g>
<!-- Node24&#45;&gt;Node10 -->
<g id="edge90" class="edge"><title>Node24&#45;&gt;Node10</title>
<path fill="none" stroke="midnightblue" d="M339.773,-290.225C312.156,-269.247 258.232,-220.859 276,-174 290.01,-137.052 323.625,-104.757 346.362,-86.0609"/>
<polygon fill="midnightblue" stroke="midnightblue" points="348.849,-88.5543 354.48,-79.58 344.482,-83.0837 348.849,-88.5543"/>
</g>
<!-- Node25&#45;&gt;Node16 -->
<g id="edge96" class="edge"><title>Node25&#45;&gt;Node16</title>
<path fill="none" stroke="midnightblue" d="M1057.56,-290.44C1060.42,-267.754 1064.5,-213.243 1045,-174 1039.04,-161.995 1028.58,-151.619 1018.59,-143.693"/>
<polygon fill="midnightblue" stroke="midnightblue" points="1020.55,-140.783 1010.43,-137.63 1016.37,-146.402 1020.55,-140.783"/>
</g>
<!-- Node27&#45;&gt;Node10 -->
<g id="edge102" class="edge"><title>Node27&#45;&gt;Node10</title>
<path fill="none" stroke="midnightblue" d="M24.7691,-232.499C24.8487,-207.928 28.7546,-146.471 64,-116 102.727,-82.5195 253.596,-72.8341 327.6,-70.0751"/>
<polygon fill="midnightblue" stroke="midnightblue" points="328.066,-73.5611 337.939,-69.7163 327.824,-66.5653 328.066,-73.5611"/>
</g>
<!-- Node28&#45;&gt;Node10 -->
<g id="edge106" class="edge"><title>Node28&#45;&gt;Node10</title>
<path fill="none" stroke="midnightblue" d="M336.322,-174.295C342.296,-155.045 354.945,-114.289 362.635,-89.5091"/>
<polygon fill="midnightblue" stroke="midnightblue" points="366.064,-90.2673 365.686,-79.6792 359.379,-88.1924 366.064,-90.2673"/>
</g>
<!-- Node28&#45;&gt;Node13 -->
<g id="edge108" class="edge"><title>Node28&#45;&gt;Node13</title>
<path fill="none" stroke="midnightblue" d="M381.057,-176.317C443.919,-164.959 553.028,-145.244 612.476,-134.503"/>
<polygon fill="midnightblue" stroke="midnightblue" points="613.408,-137.891 622.626,-132.669 612.163,-131.003 613.408,-137.891"/>
</g>
<!-- Node29&#45;&gt;Node10 -->
<g id="edge114" class="edge"><title>Node29&#45;&gt;Node10</title>
<path fill="none" stroke="midnightblue" d="M777.357,-350.192C774.551,-349.395 771.727,-348.646 769,-348 671.737,-324.956 634.93,-359.534 547,-312 456.926,-263.307 446.558,-227.04 396,-138 387.193,-122.49 380.006,-103.539 375.267,-89.4252"/>
<polygon fill="midnightblue" stroke="midnightblue" points="378.535,-88.1549 372.134,-79.712 371.873,-90.3036 378.535,-88.1549"/>
</g>
<!-- Node29&#45;&gt;Node13 -->
<g id="edge116" class="edge"><title>Node29&#45;&gt;Node13</title>
<path fill="none" stroke="midnightblue" d="M809.137,-348.459C823.21,-317.901 858.711,-228.017 818,-174 817.043,-172.73 743.526,-152.002 695.259,-138.501"/>
<polygon fill="midnightblue" stroke="midnightblue" points="695.951,-135.06 685.378,-135.739 694.066,-141.802 695.951,-135.06"/>
</g>
<!-- Node29&#45;&gt;Node18 -->
<g id="edge118" class="edge"><title>Node29&#45;&gt;Node18</title>
<path fill="none" stroke="midnightblue" d="M777.251,-350.579C774.465,-349.706 771.676,-348.834 769,-348 732.633,-336.663 691.337,-323.901 660.976,-314.539"/>
<polygon fill="midnightblue" stroke="midnightblue" points="661.709,-311.103 651.122,-311.502 659.647,-317.792 661.709,-311.103"/>
</g>
</g>
</svg>
        <g id="navigator" transform="translate(0 0)" fill="#404254">
                <rect fill="#f2f5e9" fill-opacity="0.5" stroke="#606060" stroke-width=".5" x="0" y="0" width="60" height="60"/>
                <use id="zoomplus" xlink:href="#zoomPlus" x="17" y="9" onmousedown="handleZoom(evt,'in')"/>
                <use id="zoomminus" xlink:href="#zoomMin" x="42" y="9" onmousedown="handleZoom(evt,'out')"/>
                <use id="reset" xlink:href="#resetDef" x="30" y="36" onmousedown="handleReset()"/>
                <g id="arrowUp" xlink:href="#dirArrow" transform="translate(30 24)" onmousedown="handlePan(0,-1)">
                  <use xlink:href="#rim" fill="#404040">
                        <set attributeName="fill" to="#808080" begin="arrowUp.mouseover" end="arrowUp.mouseout"/>
                  </use>
                  <path fill="none" stroke="white" stroke-width="1.5" d="M0,-3.0v7 M-2.5,-0.5L0,-3.0L2.5,-0.5"/>
                </g>
                <g id="arrowRight" xlink:href="#dirArrow" transform="rotate(90) translate(36 -43)" onmousedown="handlePan(1,0)">
                  <use xlink:href="#rim" fill="#404040">
                        <set attributeName="fill" to="#808080" begin="arrowRight.mouseover" end="arrowRight.mouseout"/>
                  </use>
                  <path fill="none" stroke="white" stroke-width="1.5" d="M0,-3.0v7 M-2.5,-0.5L0,-3.0L2.5,-0.5"/>
                </g>
                <g id="arrowDown" xlink:href="#dirArrow" transform="rotate(180) translate(-30 -48)" onmousedown="handlePan(0,1)">
                  <use xlink:href="#rim" fill="#404040">
                        <set attributeName="fill" to="#808080" begin="arrowDown.mouseover" end="arrowDown.mouseout"/>
                  </use>
                  <path fill="none" stroke="white" stroke-width="1.5" d="M0,-3.0v7 M-2.5,-0.5L0,-3.0L2.5,-0.5"/>
                </g>
                <g id="arrowLeft" xlink:href="#dirArrow" transform="rotate(270) translate(-36 17)" onmousedown="handlePan(-1,0)">
                  <use xlink:href="#rim" fill="#404040">
                        <set attributeName="fill" to="#808080" begin="arrowLeft.mouseover" end="arrowLeft.mouseout"/>
                  </use>
                  <path fill="none" stroke="white" stroke-width="1.5" d="M0,-3.0v7 M-2.5,-0.5L0,-3.0L2.5,-0.5"/>
                </g>
        </g>
</svg>
