<?xml version="1.0" encoding="UTF-8" standalone="no"?>
<!DOCTYPE svg PUBLIC "-//W3C//DTD SVG 1.1//EN"
 "http://www.w3.org/Graphics/SVG/1.1/DTD/svg11.dtd">
<!-- Generated by graphviz version 2.26.3 (20100126.1600)
 -->
<!-- Title: G Pages: 1 -->
<!--zoomable 378 -->
<svg id="main" version="1.1" xmlns="http://www.w3.org/2000/svg" xmlns:xlink="http://www.w3.org/1999/xlink" xml:space="preserve" onload="init(evt)">
        <defs>
                <circle id="rim" cx="0" cy="0" r="7"/>
                <circle id="rim2" cx="0" cy="0" r="3.5"/>
                <g id="zoomPlus">
                        <use xlink:href="#rim" fill="#404040">
                                <set attributeName="fill" to="#808080" begin="zoomplus.mouseover" end="zoomplus.mouseout"/>
                        </use>
                        <path d="M-4,0h8M0,-4v8" fill="none" stroke="white" stroke-width="1.5" pointer-events="none"/>
                </g>
                <g id="zoomMin">
                        <use xlink:href="#rim" fill="#404040">
                                <set attributeName="fill" to="#808080" begin="zoomminus.mouseover" end="zoomminus.mouseout"/>
                        </use>
                        <path d="M-4,0h8" fill="none" stroke="white" stroke-width="1.5" pointer-events="none"/>
                </g>
                <g id="dirArrow">
                        <path fill="none" stroke="white" stroke-width="1.5" d="M0,-3.0v7 M-2.5,-0.5L0,-3.0L2.5,-0.5"/>
                </g>
               <g id="resetDef">
                       <use xlink:href="#rim2" fill="#404040">
                               <set attributeName="fill" to="#808080" begin="reset.mouseover" end="reset.mouseout"/>
                       </use>
               </g>
        </defs>

<script type="text/javascript">
var viewWidth = 615;
var viewHeight = 378;
var sectionId = 'dynsection-0';
</script>
<script xlink:href="../../svgpan.js"/>
<svg id="graph" class="graph">
<g id="viewport">
<title>G</title>
<!-- Node1 -->
<g id="node1" class="node"><title>Node1</title>
<polygon fill="#bfbfbf" stroke="black" points="167.72,-348.5 167.72,-369.5 313.72,-369.5 313.72,-348.5 167.72,-348.5"/>
<text text-anchor="middle" x="240.72" y="-356.5" font-family="Helvetica,sans-Serif" font-size="10.00">src/cip/cipclass3connection.h</text>
</g>
<!-- Node2 -->
<g id="node3" class="node"><title>Node2</title>
<a xlink:href="../../d4/d38/opener__api_8h.html" target="_top" xlink:title="opener_api.h">
<polygon fill="none" stroke="black" points="139.72,-174.5 139.72,-195.5 211.72,-195.5 211.72,-174.5 139.72,-174.5"/>
<text text-anchor="middle" x="175.72" y="-182.5" font-family="Helvetica,sans-Serif" font-size="10.00">opener_api.h</text>
</a>
</g>
<!-- Node1&#45;&gt;Node2 -->
<g id="edge2" class="edge"><title>Node1&#45;&gt;Node2</title>
<path fill="none" stroke="midnightblue" d="M213.402,-348.429C197.859,-340.832 179.74,-328.922 170.72,-312 152.656,-278.114 161.462,-231.612 168.953,-205.304"/>
<polygon fill="midnightblue" stroke="midnightblue" points="172.323,-206.252 171.901,-195.666 165.629,-204.205 172.323,-206.252"/>
</g>
<!-- Node12 -->
<g id="node25" class="node"><title>Node12</title>
<a xlink:href="../../d2/da3/cipconnectionmanager_8h.html" target="_top" xlink:title="cipconnectionmanager.h">
<polygon fill="none" stroke="black" points="179.72,-290.5 179.72,-311.5 301.72,-311.5 301.72,-290.5 179.72,-290.5"/>
<text text-anchor="middle" x="240.72" y="-298.5" font-family="Helvetica,sans-Serif" font-size="10.00">cipconnectionmanager.h</text>
</a>
</g>
<!-- Node1&#45;&gt;Node12 -->
<g id="edge26" class="edge"><title>Node1&#45;&gt;Node12</title>
<path fill="none" stroke="midnightblue" d="M240.72,-348.362C240.72,-340.922 240.72,-330.743 240.72,-321.728"/>
<polygon fill="midnightblue" stroke="midnightblue" points="244.22,-321.571 240.72,-311.571 237.22,-321.571 244.22,-321.571"/>
</g>
<!-- Node13 -->
<g id="node31" class="node"><title>Node13</title>
<a xlink:href="../../d1/d6c/cipconnectionobject_8h.html" target="_top" xlink:title="cipconnectionobject.h">
<polygon fill="none" stroke="black" points="359.22,-232.5 359.22,-253.5 470.22,-253.5 470.22,-232.5 359.22,-232.5"/>
<text text-anchor="middle" x="414.72" y="-240.5" font-family="Helvetica,sans-Serif" font-size="10.00">cipconnectionobject.h</text>
</a>
</g>
<!-- Node1&#45;&gt;Node13 -->
<g id="edge62" class="edge"><title>Node1&#45;&gt;Node13</title>
<path fill="none" stroke="midnightblue" d="M256.777,-348.295C287.413,-327.871 354.363,-283.238 390.476,-259.162"/>
<polygon fill="midnightblue" stroke="midnightblue" points="392.573,-261.971 398.952,-253.512 388.69,-256.147 392.573,-261.971"/>
</g>
<!-- Node3 -->
<g id="node5" class="node"><title>Node3</title>
<polygon fill="none" stroke="#bfbfbf" points="95.7197,-116.5 95.7197,-137.5 147.72,-137.5 147.72,-116.5 95.7197,-116.5"/>
<text text-anchor="middle" x="121.72" y="-124.5" font-family="Helvetica,sans-Serif" font-size="10.00">assert.h</text>
</g>
<!-- Node2&#45;&gt;Node3 -->
<g id="edge4" class="edge"><title>Node2&#45;&gt;Node3</title>
<path fill="none" stroke="midnightblue" d="M165.815,-174.362C158.203,-166.186 147.512,-154.702 138.563,-145.091"/>
<polygon fill="midnightblue" stroke="midnightblue" points="140.937,-142.505 131.561,-137.571 135.814,-147.275 140.937,-142.505"/>
</g>
<!-- Node4 -->
<g id="node7" class="node"><title>Node4</title>
<polygon fill="none" stroke="#bfbfbf" points="311.72,-0.5 311.72,-21.5 367.72,-21.5 367.72,-0.5 311.72,-0.5"/>
<text text-anchor="middle" x="339.72" y="-8.5" font-family="Helvetica,sans-Serif" font-size="10.00">stdbool.h</text>
</g>
<!-- Node2&#45;&gt;Node4 -->
<g id="edge6" class="edge"><title>Node2&#45;&gt;Node4</title>
<path fill="none" stroke="midnightblue" d="M176.475,-174.261C177.95,-159.844 182.257,-133.969 194.72,-116 223.496,-74.5076 274.146,-43.391 307.317,-26.1916"/>
<polygon fill="midnightblue" stroke="midnightblue" points="309.243,-29.1403 316.592,-21.5085 306.088,-22.8917 309.243,-29.1403"/>
</g>
<!-- Node5 -->
<g id="node9" class="node"><title>Node5</title>
<a xlink:href="../../d7/d69/typedefs_8h.html" target="_top" xlink:title="typedefs.h">
<polygon fill="none" stroke="black" points="85.7197,-58.5 85.7197,-79.5 147.72,-79.5 147.72,-58.5 85.7197,-58.5"/>
<text text-anchor="middle" x="116.72" y="-66.5" font-family="Helvetica,sans-Serif" font-size="10.00">typedefs.h</text>
</a>
</g>
<!-- Node2&#45;&gt;Node5 -->
<g id="edge8" class="edge"><title>Node2&#45;&gt;Node5</title>
<path fill="none" stroke="midnightblue" d="M139.507,-179.677C96.2939,-172.499 27.9478,-158.239 12.7197,-138 -8.26781,-110.106 38.3473,-89.9936 75.7907,-78.9158"/>
<polygon fill="midnightblue" stroke="midnightblue" points="76.8791,-82.2455 85.5542,-76.1634 74.9797,-75.5081 76.8791,-82.2455"/>
</g>
<!-- Node8 -->
<g id="node16" class="node"><title>Node8</title>
<a xlink:href="../../df/d28/ciptypes_8h.html" target="_top" xlink:title="ciptypes.h">
<polygon fill="none" stroke="black" points="361.72,-116.5 361.72,-137.5 423.72,-137.5 423.72,-116.5 361.72,-116.5"/>
<text text-anchor="middle" x="392.72" y="-124.5" font-family="Helvetica,sans-Serif" font-size="10.00">ciptypes.h</text>
</a>
</g>
<!-- Node2&#45;&gt;Node8 -->
<g id="edge16" class="edge"><title>Node2&#45;&gt;Node8</title>
<path fill="none" stroke="midnightblue" d="M212.041,-175.292C250.637,-164.976 311.534,-148.7 351.799,-137.937"/>
<polygon fill="midnightblue" stroke="midnightblue" points="352.808,-141.291 361.565,-135.327 351,-134.528 352.808,-141.291"/>
</g>
<!-- Node10 -->
<g id="node21" class="node"><title>Node10</title>
<a xlink:href="../../d6/d52/ciperror_8h.html" target="_top" xlink:title="ciperror.h">
<polygon fill="none" stroke="black" points="21.2197,-116.5 21.2197,-137.5 78.2197,-137.5 78.2197,-116.5 21.2197,-116.5"/>
<text text-anchor="middle" x="49.7197" y="-124.5" font-family="Helvetica,sans-Serif" font-size="10.00">ciperror.h</text>
</a>
</g>
<!-- Node2&#45;&gt;Node10 -->
<g id="edge22" class="edge"><title>Node2&#45;&gt;Node10</title>
<path fill="none" stroke="midnightblue" d="M152.902,-174.497C133.134,-165.397 104.307,-152.127 82.1437,-141.925"/>
<polygon fill="midnightblue" stroke="midnightblue" points="83.3408,-138.623 72.7934,-137.621 80.4137,-144.982 83.3408,-138.623"/>
</g>
<!-- Node11 -->
<g id="node23" class="node"><title>Node11</title>
<polygon fill="none" stroke="#bfbfbf" points="203.72,-116.5 203.72,-137.5 305.72,-137.5 305.72,-116.5 203.72,-116.5"/>
<text text-anchor="middle" x="254.72" y="-124.5" font-family="Helvetica,sans-Serif" font-size="10.00">opener_user_conf.h</text>
</g>
<!-- Node2&#45;&gt;Node11 -->
<g id="edge24" class="edge"><title>Node2&#45;&gt;Node11</title>
<path fill="none" stroke="midnightblue" d="M190.21,-174.362C201.902,-165.777 218.562,-153.546 232.023,-143.664"/>
<polygon fill="midnightblue" stroke="midnightblue" points="234.332,-146.31 240.322,-137.571 230.19,-140.667 234.332,-146.31"/>
</g>
<!-- Node5&#45;&gt;Node4 -->
<g id="edge14" class="edge"><title>Node5&#45;&gt;Node4</title>
<path fill="none" stroke="midnightblue" d="M147.727,-60.9353C187.945,-50.475 258.081,-32.2334 301.534,-20.9317"/>
<polygon fill="midnightblue" stroke="midnightblue" points="302.644,-24.2595 311.441,-18.3549 300.882,-17.4849 302.644,-24.2595"/>
</g>
<!-- Node6 -->
<g id="node11" class="node"><title>Node6</title>
<polygon fill="none" stroke="#bfbfbf" points="124.22,-0.5 124.22,-21.5 183.22,-21.5 183.22,-0.5 124.22,-0.5"/>
<text text-anchor="middle" x="153.72" y="-8.5" font-family="Helvetica,sans-Serif" font-size="10.00">inttypes.h</text>
</g>
<!-- Node5&#45;&gt;Node6 -->
<g id="edge10" class="edge"><title>Node5&#45;&gt;Node6</title>
<path fill="none" stroke="midnightblue" d="M123.506,-58.3619C128.513,-50.5131 135.465,-39.6159 141.438,-30.2527"/>
<polygon fill="midnightblue" stroke="midnightblue" points="144.549,-31.8837 146.976,-21.5707 138.647,-28.1189 144.549,-31.8837"/>
</g>
<!-- Node7 -->
<g id="node13" class="node"><title>Node7</title>
<polygon fill="none" stroke="#bfbfbf" points="54.7197,-0.5 54.7197,-21.5 106.72,-21.5 106.72,-0.5 54.7197,-0.5"/>
<text text-anchor="middle" x="80.7197" y="-8.5" font-family="Helvetica,sans-Serif" font-size="10.00">stddef.h</text>
</g>
<!-- Node5&#45;&gt;Node7 -->
<g id="edge12" class="edge"><title>Node5&#45;&gt;Node7</title>
<path fill="none" stroke="midnightblue" d="M110.117,-58.3619C105.245,-50.5131 98.4813,-39.6159 92.6697,-30.2527"/>
<polygon fill="midnightblue" stroke="midnightblue" points="95.5283,-28.2213 87.2808,-21.5707 89.5808,-31.9129 95.5283,-28.2213"/>
</g>
<!-- Node8&#45;&gt;Node5 -->
<g id="edge18" class="edge"><title>Node8&#45;&gt;Node5</title>
<path fill="none" stroke="midnightblue" d="M361.285,-119.15C356.74,-118.064 352.115,-116.984 347.72,-116 281.444,-101.163 204.024,-85.812 157.758,-76.8478"/>
<polygon fill="midnightblue" stroke="midnightblue" points="158.296,-73.3871 147.813,-74.9265 156.968,-80.26 158.296,-73.3871"/>
</g>
<!-- Node9 -->
<g id="node19" class="node"><title>Node9</title>
<polygon fill="none" stroke="#bfbfbf" points="333.22,-58.5 333.22,-79.5 424.22,-79.5 424.22,-58.5 333.22,-58.5"/>
<text text-anchor="middle" x="378.72" y="-66.5" font-family="Helvetica,sans-Serif" font-size="10.00">networkhandler.h</text>
</g>
<!-- Node8&#45;&gt;Node9 -->
<g id="edge20" class="edge"><title>Node8&#45;&gt;Node9</title>
<path fill="none" stroke="midnightblue" d="M390.152,-116.362C388.336,-108.84 385.845,-98.5187 383.651,-89.4308"/>
<polygon fill="midnightblue" stroke="midnightblue" points="387.02,-88.4702 381.271,-79.5707 380.215,-90.1127 387.02,-88.4702"/>
</g>
<!-- Node12&#45;&gt;Node2 -->
<g id="edge30" class="edge"><title>Node12&#45;&gt;Node2</title>
<path fill="none" stroke="midnightblue" d="M234.721,-290.295C223.79,-270.786 200.48,-229.188 186.656,-204.518"/>
<polygon fill="midnightblue" stroke="midnightblue" points="189.645,-202.692 181.704,-195.679 183.539,-206.114 189.645,-202.692"/>
</g>
<!-- Node12&#45;&gt;Node5 -->
<g id="edge32" class="edge"><title>Node12&#45;&gt;Node5</title>
<path fill="none" stroke="midnightblue" d="M209.117,-290.356C155.322,-270.31 47.5357,-221.314 3.71974,-138 -13.6647,-104.944 36.5381,-86.0536 75.5374,-76.6629"/>
<polygon fill="midnightblue" stroke="midnightblue" points="76.6875,-79.9912 85.6679,-74.3696 75.1419,-73.1639 76.6875,-79.9912"/>
</g>
<!-- Node12&#45;&gt;Node8 -->
<g id="edge34" class="edge"><title>Node12&#45;&gt;Node8</title>
<path fill="none" stroke="midnightblue" d="M249.999,-290.377C275.061,-261.688 344.369,-182.348 376.266,-145.835"/>
<polygon fill="midnightblue" stroke="midnightblue" points="379.231,-147.761 383.174,-137.928 373.959,-143.156 379.231,-147.761"/>
</g>
<!-- Node12&#45;&gt;Node11 -->
<g id="edge28" class="edge"><title>Node12&#45;&gt;Node11</title>
<path fill="none" stroke="midnightblue" d="M241.574,-290.377C243.834,-262.293 249.999,-185.673 253.014,-148.203"/>
<polygon fill="midnightblue" stroke="midnightblue" points="256.527,-148.176 253.841,-137.928 249.55,-147.615 256.527,-148.176"/>
</g>
<!-- Node12&#45;&gt;Node13 -->
<g id="edge36" class="edge"><title>Node12&#45;&gt;Node13</title>
<path fill="none" stroke="midnightblue" d="M272.23,-290.497C300.597,-281.041 342.471,-267.083 373.491,-256.743"/>
<polygon fill="midnightblue" stroke="midnightblue" points="374.771,-260.006 383.151,-253.523 372.557,-253.365 374.771,-260.006"/>
</g>
<!-- Node13&#45;&gt;Node2 -->
<g id="edge44" class="edge"><title>Node13&#45;&gt;Node2</title>
<path fill="none" stroke="midnightblue" d="M371.439,-232.497C329.222,-222.251 265.222,-206.72 222.007,-196.233"/>
<polygon fill="midnightblue" stroke="midnightblue" points="222.579,-192.77 212.036,-193.813 220.928,-199.573 222.579,-192.77"/>
</g>
<!-- Node13&#45;&gt;Node5 -->
<g id="edge38" class="edge"><title>Node13&#45;&gt;Node5</title>
<path fill="none" stroke="midnightblue" d="M409.438,-232.137C396.793,-207.339 362.257,-146.364 314.72,-116 289.023,-99.5864 207.965,-83.9397 157.882,-75.4876"/>
<polygon fill="midnightblue" stroke="midnightblue" points="158.439,-72.0322 148,-73.8452 157.291,-78.9374 158.439,-72.0322"/>
</g>
<!-- Node13&#45;&gt;Node8 -->
<g id="edge40" class="edge"><title>Node13&#45;&gt;Node8</title>
<path fill="none" stroke="midnightblue" d="M412.689,-232.295C409.039,-213.045 401.309,-172.289 396.609,-147.509"/>
<polygon fill="midnightblue" stroke="midnightblue" points="400.047,-146.852 394.745,-137.679 393.17,-148.156 400.047,-146.852"/>
</g>
<!-- Node13&#45;&gt;Node11 -->
<g id="edge42" class="edge"><title>Node13&#45;&gt;Node11</title>
<path fill="none" stroke="midnightblue" d="M375.256,-232.494C352.362,-225 323.951,-213.174 302.72,-196 286.154,-182.599 272.87,-162.038 264.513,-146.844"/>
<polygon fill="midnightblue" stroke="midnightblue" points="267.494,-144.992 259.748,-137.764 261.296,-148.245 267.494,-144.992"/>
</g>
<!-- Node14 -->
<g id="node37" class="node"><title>Node14</title>
<a xlink:href="../../d9/d31/doublylinkedlist_8h.html" target="_top" xlink:title="doublylinkedlist.h">
<polygon fill="none" stroke="black" points="500.72,-174.5 500.72,-195.5 592.72,-195.5 592.72,-174.5 500.72,-174.5"/>
<text text-anchor="middle" x="546.72" y="-182.5" font-family="Helvetica,sans-Serif" font-size="10.00">doublylinkedlist.h</text>
</a>
</g>
<!-- Node13&#45;&gt;Node14 -->
<g id="edge46" class="edge"><title>Node13&#45;&gt;Node14</title>
<path fill="none" stroke="midnightblue" d="M438.624,-232.497C459.519,-223.315 490.076,-209.889 513.375,-199.652"/>
<polygon fill="midnightblue" stroke="midnightblue" points="514.8,-202.848 522.547,-195.621 511.984,-196.44 514.8,-202.848"/>
</g>
<!-- Node15 -->
<g id="node39" class="node"><title>Node15</title>
<a xlink:href="../../d0/d23/cipelectronickey_8h.html" target="_top" xlink:title="cipelectronickey.h">
<polygon fill="none" stroke="black" points="479.22,-116.5 479.22,-137.5 574.22,-137.5 574.22,-116.5 479.22,-116.5"/>
<text text-anchor="middle" x="526.72" y="-124.5" font-family="Helvetica,sans-Serif" font-size="10.00">cipelectronickey.h</text>
</a>
</g>
<!-- Node13&#45;&gt;Node15 -->
<g id="edge48" class="edge"><title>Node13&#45;&gt;Node15</title>
<path fill="none" stroke="midnightblue" d="M470.68,-236.514C519.736,-229.539 585.664,-216.591 601.72,-196 618.07,-175.032 589.378,-154.904 562.892,-141.855"/>
<polygon fill="midnightblue" stroke="midnightblue" points="564.234,-138.619 553.693,-137.545 561.264,-144.957 564.234,-138.619"/>
</g>
<!-- Node16 -->
<g id="node43" class="node"><title>Node16</title>
<a xlink:href="../../d1/d02/cipepath_8h.html" target="_top" xlink:title="cipepath.h">
<polygon fill="none" stroke="black" points="420.72,-174.5 420.72,-195.5 482.72,-195.5 482.72,-174.5 420.72,-174.5"/>
<text text-anchor="middle" x="451.72" y="-182.5" font-family="Helvetica,sans-Serif" font-size="10.00">cipepath.h</text>
</a>
</g>
<!-- Node13&#45;&gt;Node16 -->
<g id="edge54" class="edge"><title>Node13&#45;&gt;Node16</title>
<path fill="none" stroke="midnightblue" d="M421.506,-232.362C426.513,-224.513 433.465,-213.616 439.438,-204.253"/>
<polygon fill="midnightblue" stroke="midnightblue" points="442.549,-205.884 444.976,-195.571 436.647,-202.119 442.549,-205.884"/>
</g>
<!-- Node15&#45;&gt;Node4 -->
<g id="edge50" class="edge"><title>Node15&#45;&gt;Node4</title>
<path fill="none" stroke="midnightblue" d="M519.886,-116.427C509.734,-101.484 489.31,-74.2063 465.72,-58 438.963,-39.6181 404.101,-27.3391 377.833,-19.9562"/>
<polygon fill="midnightblue" stroke="midnightblue" points="378.431,-16.4927 367.865,-17.2721 376.611,-23.2519 378.431,-16.4927"/>
</g>
<!-- Node15&#45;&gt;Node5 -->
<g id="edge52" class="edge"><title>Node15&#45;&gt;Node5</title>
<path fill="none" stroke="midnightblue" d="M478.885,-120.233C397.782,-108.76 234.659,-85.6841 158.134,-74.8586"/>
<polygon fill="midnightblue" stroke="midnightblue" points="158.32,-71.3501 147.928,-73.4149 157.339,-78.2811 158.32,-71.3501"/>
</g>
<!-- Node16&#45;&gt;Node4 -->
<g id="edge56" class="edge"><title>Node16&#45;&gt;Node4</title>
<path fill="none" stroke="midnightblue" d="M453.178,-174.264C455.771,-150.755 458.702,-93.9607 432.72,-58 419.487,-39.6854 397.03,-28.0542 377.498,-20.9443"/>
<polygon fill="midnightblue" stroke="midnightblue" points="378.502,-17.5893 367.908,-17.7174 376.27,-24.2238 378.502,-17.5893"/>
</g>
<!-- Node16&#45;&gt;Node8 -->
<g id="edge58" class="edge"><title>Node16&#45;&gt;Node8</title>
<path fill="none" stroke="midnightblue" d="M440.898,-174.362C432.498,-166.104 420.666,-154.472 410.83,-144.803"/>
<polygon fill="midnightblue" stroke="midnightblue" points="413.058,-142.085 403.473,-137.571 408.15,-147.077 413.058,-142.085"/>
</g>
<!-- Node16&#45;&gt;Node15 -->
<g id="edge60" class="edge"><title>Node16&#45;&gt;Node15</title>
<path fill="none" stroke="midnightblue" d="M465.476,-174.362C476.471,-165.859 492.092,-153.779 504.806,-143.947"/>
<polygon fill="midnightblue" stroke="midnightblue" points="507.281,-146.457 513.051,-137.571 502.999,-140.919 507.281,-146.457"/>
</g>
</g>
</svg>
        <g id="navigator" transform="translate(0 0)" fill="#404254">
                <rect fill="#f2f5e9" fill-opacity="0.5" stroke="#606060" stroke-width=".5" x="0" y="0" width="60" height="60"/>
                <use id="zoomplus" xlink:href="#zoomPlus" x="17" y="9" onmousedown="handleZoom(evt,'in')"/>
                <use id="zoomminus" xlink:href="#zoomMin" x="42" y="9" onmousedown="handleZoom(evt,'out')"/>
                <use id="reset" xlink:href="#resetDef" x="30" y="36" onmousedown="handleReset()"/>
                <g id="arrowUp" xlink:href="#dirArrow" transform="translate(30 24)" onmousedown="handlePan(0,-1)">
                  <use xlink:href="#rim" fill="#404040">
                        <set attributeName="fill" to="#808080" begin="arrowUp.mouseover" end="arrowUp.mouseout"/>
                  </use>
                  <path fill="none" stroke="white" stroke-width="1.5" d="M0,-3.0v7 M-2.5,-0.5L0,-3.0L2.5,-0.5"/>
                </g>
                <g id="arrowRight" xlink:href="#dirArrow" transform="rotate(90) translate(36 -43)" onmousedown="handlePan(1,0)">
                  <use xlink:href="#rim" fill="#404040">
                        <set attributeName="fill" to="#808080" begin="arrowRight.mouseover" end="arrowRight.mouseout"/>
                  </use>
                  <path fill="none" stroke="white" stroke-width="1.5" d="M0,-3.0v7 M-2.5,-0.5L0,-3.0L2.5,-0.5"/>
                </g>
                <g id="arrowDown" xlink:href="#dirArrow" transform="rotate(180) translate(-30 -48)" onmousedown="handlePan(0,1)">
                  <use xlink:href="#rim" fill="#404040">
                        <set attributeName="fill" to="#808080" begin="arrowDown.mouseover" end="arrowDown.mouseout"/>
                  </use>
                  <path fill="none" stroke="white" stroke-width="1.5" d="M0,-3.0v7 M-2.5,-0.5L0,-3.0L2.5,-0.5"/>
                </g>
                <g id="arrowLeft" xlink:href="#dirArrow" transform="rotate(270) translate(-36 17)" onmousedown="handlePan(-1,0)">
                  <use xlink:href="#rim" fill="#404040">
                        <set attributeName="fill" to="#808080" begin="arrowLeft.mouseover" end="arrowLeft.mouseout"/>
                  </use>
                  <path fill="none" stroke="white" stroke-width="1.5" d="M0,-3.0v7 M-2.5,-0.5L0,-3.0L2.5,-0.5"/>
                </g>
        </g>
</svg>
