<?xml version="1.0" encoding="UTF-8" standalone="no"?>
<!DOCTYPE svg PUBLIC "-//W3C//DTD SVG 1.1//EN"
 "http://www.w3.org/Graphics/SVG/1.1/DTD/svg11.dtd">
<!-- Generated by graphviz version 2.36.0 (20140111.2315)
 -->
<!-- Title: InitializeENIPMessage Pages: 1 -->
<svg width="968pt" height="213pt"
 viewBox="0.00 0.00 968.00 213.00" xmlns="http://www.w3.org/2000/svg" xmlns:xlink="http://www.w3.org/1999/xlink">
<g id="graph0" class="graph" transform="scale(1 1) rotate(0) translate(4 209)">
<title>InitializeENIPMessage</title>
<!-- Node1 -->
<g id="node1" class="node"><title>Node1</title>
<polygon fill="#bfbfbf" stroke="black" points="0,-98.5 0,-117.5 116,-117.5 116,-98.5 0,-98.5"/>
<text text-anchor="middle" x="58" y="-105.5" font-family="Helvetica,sans-Serif" font-size="10.00">InitializeENIPMessage</text>
</g>
<!-- Node2 -->
<g id="node2" class="node"><title>Node2</title>
<g id="a_node2"><a xlink:href="../../db/d4f/generic__networkhandler_8c.html#a5cae623dd720f3072dabdb78aa134262" target="_top" xlink:title="Checks and handles incoming messages via UDP broadcast. ">
<polygon fill="none" stroke="black" points="338.5,-175 338.5,-205 521.5,-205 521.5,-175 338.5,-175"/>
<text text-anchor="start" x="346.5" y="-193" font-family="Helvetica,sans-Serif" font-size="10.00">CheckAndHandleUdpGlobalBroadcast</text>
<text text-anchor="middle" x="430" y="-182" font-family="Helvetica,sans-Serif" font-size="10.00">Socket</text>
</a>
</g>
</g>
<!-- Node1&#45;&gt;Node2 -->
<g id="edge1" class="edge"><title>Node1&#45;&gt;Node2</title>
<path fill="none" stroke="midnightblue" d="M80.7009,-123.47C98.8473,-135.561 125.888,-151.668 152,-160 212.253,-179.225 283.216,-186.638 338.232,-189.289"/>
<polygon fill="midnightblue" stroke="midnightblue" points="82.3056,-120.328 72.0743,-117.576 78.3566,-126.108 82.3056,-120.328"/>
</g>
<!-- Node5 -->
<g id="node5" class="node"><title>Node5</title>
<g id="a_node5"><a xlink:href="../../db/d4f/generic__networkhandler_8c.html#ace1d8f3907ead0c43c1b5853132d5eb1" target="_top" xlink:title="Checks and processes request received via the UDP unicast socket, currently the implementation is por...">
<polygon fill="none" stroke="black" points="558.5,-131 558.5,-161 703.5,-161 703.5,-131 558.5,-131"/>
<text text-anchor="start" x="566.5" y="-149" font-family="Helvetica,sans-Serif" font-size="10.00">CheckAndHandleUdpUnicast</text>
<text text-anchor="middle" x="631" y="-138" font-family="Helvetica,sans-Serif" font-size="10.00">Socket</text>
</a>
</g>
</g>
<!-- Node1&#45;&gt;Node5 -->
<g id="edge4" class="edge"><title>Node1&#45;&gt;Node5</title>
<path fill="none" stroke="midnightblue" d="M126.46,-118.129C135.043,-119.212 143.718,-120.206 152,-121 295.727,-134.778 464.546,-141.37 558.189,-144.183"/>
<polygon fill="midnightblue" stroke="midnightblue" points="126.824,-114.647 116.456,-116.824 125.919,-121.589 126.824,-114.647"/>
</g>
<!-- Node6 -->
<g id="node6" class="node"><title>Node6</title>
<g id="a_node6"><a xlink:href="../../db/d4f/generic__networkhandler_8c.html#aca5593b7dd39d7a7b437999a367102d6" target="_top" xlink:title="Handles data on an established TCP connection, processed connection is given by socket. ">
<polygon fill="none" stroke="black" points="567,-92.5 567,-111.5 695,-111.5 695,-92.5 567,-92.5"/>
<text text-anchor="middle" x="631" y="-99.5" font-family="Helvetica,sans-Serif" font-size="10.00">HandleDataOnTcpSocket</text>
</a>
</g>
</g>
<!-- Node1&#45;&gt;Node6 -->
<g id="edge6" class="edge"><title>Node1&#45;&gt;Node6</title>
<path fill="none" stroke="midnightblue" d="M126.195,-107.294C237.482,-106.125 458.515,-103.802 566.983,-102.662"/>
<polygon fill="midnightblue" stroke="midnightblue" points="126.063,-103.795 116.1,-107.4 126.137,-110.795 126.063,-103.795"/>
</g>
<!-- Node7 -->
<g id="node7" class="node"><title>Node7</title>
<g id="a_node7"><a xlink:href="../../d2/dbd/encap_8c.html#a51dd68441ec427052986aef5c5c076e4" target="_top" xlink:title="Call UCMM or Message Router if UCMM not implemented. ">
<polygon fill="none" stroke="black" points="153,-49 153,-79 301,-79 301,-49 153,-49"/>
<text text-anchor="start" x="161" y="-67" font-family="Helvetica,sans-Serif" font-size="10.00">HandleReceivedSendRequest</text>
<text text-anchor="middle" x="227" y="-56" font-family="Helvetica,sans-Serif" font-size="10.00">ResponseDataCommand</text>
</a>
</g>
</g>
<!-- Node1&#45;&gt;Node7 -->
<g id="edge8" class="edge"><title>Node1&#45;&gt;Node7</title>
<path fill="none" stroke="midnightblue" d="M104.915,-95.9026C124.666,-90.6987 147.963,-84.5605 168.82,-79.0654"/>
<polygon fill="midnightblue" stroke="midnightblue" points="104.015,-92.5203 95.2365,-98.4527 105.798,-99.2893 104.015,-92.5203"/>
</g>
<!-- Node9 -->
<g id="node9" class="node"><title>Node9</title>
<g id="a_node9"><a xlink:href="../../d2/dbd/encap_8c.html#a49dc585614f655a5b313150a01fd7221" target="_top" xlink:title="Call Connection Manager. ">
<polygon fill="none" stroke="black" points="152,-0 152,-30 302,-30 302,-0 152,-0"/>
<text text-anchor="start" x="160" y="-18" font-family="Helvetica,sans-Serif" font-size="10.00">HandleReceivedSendUnitData</text>
<text text-anchor="middle" x="227" y="-7" font-family="Helvetica,sans-Serif" font-size="10.00">Command</text>
</a>
</g>
</g>
<!-- Node1&#45;&gt;Node9 -->
<g id="edge11" class="edge"><title>Node1&#45;&gt;Node9</title>
<path fill="none" stroke="midnightblue" d="M77.2894,-91.5907C95.2253,-76.2146 123.897,-53.4871 152,-39 158.483,-35.6582 165.523,-32.6584 172.597,-30.0049"/>
<polygon fill="midnightblue" stroke="midnightblue" points="74.6287,-89.2674 69.3965,-98.4801 79.2318,-94.541 74.6287,-89.2674"/>
</g>
<!-- Node3 -->
<g id="node3" class="node"><title>Node3</title>
<g id="a_node3"><a xlink:href="../../da/dc2/generic__networkhandler_8h.html#a2f01af81d3e5018d9980e2bc28c9078a" target="_top" xlink:title="NetworkHandlerProcessOnce">
<polygon fill="none" stroke="black" points="740,-136.5 740,-155.5 886,-155.5 886,-136.5 740,-136.5"/>
<text text-anchor="middle" x="813" y="-143.5" font-family="Helvetica,sans-Serif" font-size="10.00">NetworkHandlerProcessOnce</text>
</a>
</g>
</g>
<!-- Node2&#45;&gt;Node3 -->
<g id="edge2" class="edge"><title>Node2&#45;&gt;Node3</title>
<path fill="none" stroke="midnightblue" d="M531.906,-186.117C583.57,-183.242 647.358,-178.323 704,-170 727.944,-166.482 754.481,-160.613 775.258,-155.559"/>
<polygon fill="midnightblue" stroke="midnightblue" points="531.537,-182.632 521.74,-186.665 531.914,-189.622 531.537,-182.632"/>
</g>
<!-- Node4 -->
<g id="node4" class="node"><title>Node4</title>
<g id="a_node4"><a xlink:href="../../d9/dfb/POSIX_2main_8c.html#ad338a7dbc41dc40bcecd0479377ef207" target="_top" xlink:title="main">
<polygon fill="none" stroke="black" points="922,-136.5 922,-155.5 960,-155.5 960,-136.5 922,-136.5"/>
<text text-anchor="middle" x="941" y="-143.5" font-family="Helvetica,sans-Serif" font-size="10.00">main</text>
</a>
</g>
</g>
<!-- Node3&#45;&gt;Node4 -->
<g id="edge3" class="edge"><title>Node3&#45;&gt;Node4</title>
<path fill="none" stroke="midnightblue" d="M896.255,-146C905.721,-146 914.546,-146 921.754,-146"/>
<polygon fill="midnightblue" stroke="midnightblue" points="896.199,-142.5 886.199,-146 896.199,-149.5 896.199,-142.5"/>
</g>
<!-- Node5&#45;&gt;Node3 -->
<g id="edge5" class="edge"><title>Node5&#45;&gt;Node3</title>
<path fill="none" stroke="midnightblue" d="M713.753,-146C722.409,-146 731.168,-146 739.706,-146"/>
<polygon fill="midnightblue" stroke="midnightblue" points="713.658,-142.5 703.658,-146 713.658,-149.5 713.658,-142.5"/>
</g>
<!-- Node6&#45;&gt;Node3 -->
<g id="edge7" class="edge"><title>Node6&#45;&gt;Node3</title>
<path fill="none" stroke="midnightblue" d="M680.964,-113.969C709.897,-121.041 746.028,-129.874 773.019,-136.471"/>
<polygon fill="midnightblue" stroke="midnightblue" points="681.602,-110.522 671.057,-111.547 679.94,-117.322 681.602,-110.522"/>
</g>
<!-- Node8 -->
<g id="node8" class="node"><title>Node8</title>
<g id="a_node8"><a xlink:href="../../d2/dc9/group__CIP__API.html#ga7f1c28a4eb68c1d335df52494b7e5b76" target="_top" xlink:title="Notify the encapsulation layer that an explicit message has been received via TCP. ">
<polygon fill="none" stroke="black" points="352,-54.5 352,-73.5 508,-73.5 508,-54.5 352,-54.5"/>
<text text-anchor="middle" x="430" y="-61.5" font-family="Helvetica,sans-Serif" font-size="10.00">HandleReceivedExplictTcpData</text>
</a>
</g>
</g>
<!-- Node7&#45;&gt;Node8 -->
<g id="edge9" class="edge"><title>Node7&#45;&gt;Node8</title>
<path fill="none" stroke="midnightblue" d="M311.304,-64C324.733,-64 338.584,-64 351.86,-64"/>
<polygon fill="midnightblue" stroke="midnightblue" points="311.134,-60.5001 301.134,-64 311.134,-67.5001 311.134,-60.5001"/>
</g>
<!-- Node8&#45;&gt;Node6 -->
<g id="edge10" class="edge"><title>Node8&#45;&gt;Node6</title>
<path fill="none" stroke="midnightblue" d="M490.795,-75.4181C519.268,-80.8552 552.931,-87.2832 580.02,-92.4561"/>
<polygon fill="midnightblue" stroke="midnightblue" points="491.438,-71.9778 480.959,-73.54 490.125,-78.8536 491.438,-71.9778"/>
</g>
<!-- Node9&#45;&gt;Node8 -->
<g id="edge12" class="edge"><title>Node9&#45;&gt;Node8</title>
<path fill="none" stroke="midnightblue" d="M299.409,-32.4083C329.87,-39.834 364.233,-48.2109 389.916,-54.472"/>
<polygon fill="midnightblue" stroke="midnightblue" points="300.217,-29.0027 289.673,-30.0346 298.559,-35.8036 300.217,-29.0027"/>
</g>
</g>
</svg>
