<?xml version="1.0" encoding="UTF-8" standalone="no"?>
<!DOCTYPE svg PUBLIC "-//W3C//DTD SVG 1.1//EN"
 "http://www.w3.org/Graphics/SVG/1.1/DTD/svg11.dtd">
<!-- Generated by graphviz version 2.38.0 (20140413.2041)
 -->
<!-- Title: tcp_sent_callback Pages: 1 -->
<svg width="479pt" height="39pt"
 viewBox="0.00 0.00 479.00 39.00" xmlns="http://www.w3.org/2000/svg" xmlns:xlink="http://www.w3.org/1999/xlink">
<g id="graph0" class="graph" transform="scale(1 1) rotate(0) translate(4 35)">
<title>tcp_sent_callback</title>
<!-- Node1 -->
<g id="node1" class="node"><title>Node1</title>
<polygon fill="#bfbfbf" stroke="black" points="0,-6 0,-25 95,-25 95,-6 0,-6"/>
<text text-anchor="middle" x="47.5" y="-13" font-family="Helvetica,sans-Serif" font-size="10.00">tcp_sent_callback</text>
</g>
<!-- Node2 -->
<g id="node2" class="node"><title>Node2</title>
<g id="a_node2"><a xlink:href="../../d5/d07/LM3S8962_2networkhandler_8c.html#a44614e422def6d9b7eb8f3b0e430f7ef" target="_top" xlink:title="tcp_connection_accept\l_callback">
<polygon fill="none" stroke="black" points="131,-0.5 131,-30.5 248,-30.5 248,-0.5 131,-0.5"/>
<text text-anchor="start" x="139" y="-18.5" font-family="Helvetica,sans-Serif" font-size="10.00">tcp_connection_accept</text>
<text text-anchor="middle" x="189.5" y="-7.5" font-family="Helvetica,sans-Serif" font-size="10.00">_callback</text>
</a>
</g>
</g>
<!-- Node1&#45;&gt;Node2 -->
<g id="edge1" class="edge"><title>Node1&#45;&gt;Node2</title>
<path fill="none" stroke="midnightblue" d="M105.253,-15.5C113.698,-15.5 122.411,-15.5 130.875,-15.5"/>
<polygon fill="midnightblue" stroke="midnightblue" points="105.118,-12.0001 95.118,-15.5 105.118,-19.0001 105.118,-12.0001"/>
</g>
<!-- Node3 -->
<g id="node3" class="node"><title>Node3</title>
<g id="a_node3"><a xlink:href="../../d1/d31/LM3S8962_2networkhandler_8h.html#a6151b0813befe78de7bfd9d7e08866ba" target="_top" xlink:title="Start_NetworkHandler">
<polygon fill="none" stroke="black" points="284,-6 284,-25 397,-25 397,-6 284,-6"/>
<text text-anchor="middle" x="340.5" y="-13" font-family="Helvetica,sans-Serif" font-size="10.00">Start_NetworkHandler</text>
</a>
</g>
</g>
<!-- Node2&#45;&gt;Node3 -->
<g id="edge2" class="edge"><title>Node2&#45;&gt;Node3</title>
<path fill="none" stroke="midnightblue" d="M258.307,-15.5C266.741,-15.5 275.289,-15.5 283.516,-15.5"/>
<polygon fill="midnightblue" stroke="midnightblue" points="258.107,-12.0001 248.107,-15.5 258.107,-19.0001 258.107,-12.0001"/>
</g>
<!-- Node4 -->
<g id="node4" class="node"><title>Node4</title>
<g id="a_node4"><a xlink:href="../../d0/d17/LM3S8962_2sample__application_2main_8c.html#a840291bc02cba5474a4cb46a9b9566fe" target="_top" xlink:title="main">
<polygon fill="none" stroke="black" points="433,-6 433,-25 471,-25 471,-6 433,-6"/>
<text text-anchor="middle" x="452" y="-13" font-family="Helvetica,sans-Serif" font-size="10.00">main</text>
</a>
</g>
</g>
<!-- Node3&#45;&gt;Node4 -->
<g id="edge3" class="edge"><title>Node3&#45;&gt;Node4</title>
<path fill="none" stroke="midnightblue" d="M407.416,-15.5C416.707,-15.5 425.55,-15.5 432.813,-15.5"/>
<polygon fill="midnightblue" stroke="midnightblue" points="407.212,-12.0001 397.212,-15.5 407.212,-19.0001 407.212,-12.0001"/>
</g>
</g>
</svg>
