<?xml version="1.0" encoding="UTF-8" standalone="no"?>
<!DOCTYPE svg PUBLIC "-//W3C//DTD SVG 1.1//EN"
 "http://www.w3.org/Graphics/SVG/1.1/DTD/svg11.dtd">
<!-- Generated by graphviz version 2.26.3 (20100126.1600)
 -->
<!-- Title: G Pages: 1 -->
<!--zoomable 130 -->
<svg id="main" version="1.1" xmlns="http://www.w3.org/2000/svg" xmlns:xlink="http://www.w3.org/1999/xlink" xml:space="preserve" onload="init(evt)">
        <defs>
                <circle id="rim" cx="0" cy="0" r="7"/>
                <circle id="rim2" cx="0" cy="0" r="3.5"/>
                <g id="zoomPlus">
                        <use xlink:href="#rim" fill="#404040">
                                <set attributeName="fill" to="#808080" begin="zoomplus.mouseover" end="zoomplus.mouseout"/>
                        </use>
                        <path d="M-4,0h8M0,-4v8" fill="none" stroke="white" stroke-width="1.5" pointer-events="none"/>
                </g>
                <g id="zoomMin">
                        <use xlink:href="#rim" fill="#404040">
                                <set attributeName="fill" to="#808080" begin="zoomminus.mouseover" end="zoomminus.mouseout"/>
                        </use>
                        <path d="M-4,0h8" fill="none" stroke="white" stroke-width="1.5" pointer-events="none"/>
                </g>
                <g id="dirArrow">
                        <path fill="none" stroke="white" stroke-width="1.5" d="M0,-3.0v7 M-2.5,-0.5L0,-3.0L2.5,-0.5"/>
                </g>
               <g id="resetDef">
                       <use xlink:href="#rim2" fill="#404040">
                               <set attributeName="fill" to="#808080" begin="reset.mouseover" end="reset.mouseout"/>
                       </use>
               </g>
        </defs>

<script type="text/javascript">
var viewWidth = 1376;
var viewHeight = 130;
var sectionId = 'dynsection-10';
</script>
<script xlink:href="../../svgpan.js"/>
<svg id="graph" class="graph">
<g id="viewport">
<title>G</title>
<!-- Node1 -->
<g id="node1" class="node"><title>Node1</title>
<polygon fill="#bfbfbf" stroke="black" points="0.5,-60.0277 0.5,-81.0277 175.5,-81.0277 175.5,-60.0277 0.5,-60.0277"/>
<text text-anchor="middle" x="88" y="-68.0277" font-family="Helvetica,sans-Serif" font-size="10.00">GetPathLogicalSegmentLogicalType</text>
</g>
<!-- Node2 -->
<g id="node3" class="node"><title>Node2</title>
<a xlink:href="../../d1/d02/cipepath_8h.html#aaa27d71c8b2695044596be034bfbf9b6" target="_top" xlink:title="Gets the Extended Logical Type of a Logical Segment EPath message.">
<polygon fill="none" stroke="black" points="219,-100.028 219,-121.028 435,-121.028 435,-100.028 219,-100.028"/>
<text text-anchor="middle" x="327" y="-108.028" font-family="Helvetica,sans-Serif" font-size="10.00">GetPathLogicalSegmentExtendedLogicalType</text>
</a>
</g>
<!-- Node1&#45;&gt;Node2 -->
<g id="edge2" class="edge"><title>Node1&#45;&gt;Node2</title>
<path fill="none" stroke="midnightblue" d="M160.844,-82.7192C193.855,-88.244 232.501,-94.7119 264.21,-100.019"/>
<polygon fill="midnightblue" stroke="midnightblue" points="161.235,-79.236 150.794,-81.0372 160.079,-86.14 161.235,-79.236"/>
</g>
<!-- Node3 -->
<g id="node5" class="node"><title>Node3</title>
<a xlink:href="../../d1/d02/cipepath_8h.html#a73db576275384cc722a8346c4674a8db" target="_top" xlink:title="Gets the Special Type Logical Type of a Logical Segment EPath message.">
<polygon fill="none" stroke="black" points="212.5,-60.0277 212.5,-81.0277 441.5,-81.0277 441.5,-60.0277 212.5,-60.0277"/>
<text text-anchor="middle" x="327" y="-68.0277" font-family="Helvetica,sans-Serif" font-size="10.00">GetPathLogicalSegmentSpecialTypeLogicalType</text>
</a>
</g>
<!-- Node1&#45;&gt;Node3 -->
<g id="edge4" class="edge"><title>Node1&#45;&gt;Node3</title>
<path fill="none" stroke="midnightblue" d="M185.852,-70.5277C194.626,-70.5277 203.562,-70.5277 212.46,-70.5277"/>
<polygon fill="midnightblue" stroke="midnightblue" points="185.638,-67.0278 175.638,-70.5277 185.638,-74.0278 185.638,-67.0278"/>
</g>
<!-- Node4 -->
<g id="node7" class="node"><title>Node4</title>
<a xlink:href="../../d5/d35/cipconnectionmanager_8c.html#a96ebb3d0e93c8d4ee4a7d6529061ee68" target="_top" xlink:title="Parse the connection path of a forward open request.">
<polygon fill="none" stroke="black" points="984,-60.0277 984,-81.0277 1096,-81.0277 1096,-60.0277 984,-60.0277"/>
<text text-anchor="middle" x="1040" y="-68.0277" font-family="Helvetica,sans-Serif" font-size="10.00">ParseConnectionPath</text>
</a>
</g>
<!-- Node1&#45;&gt;Node4 -->
<g id="edge18" class="edge"><title>Node1&#45;&gt;Node4</title>
<path fill="none" stroke="midnightblue" d="M153.888,-58.3552C172.607,-55.3179 193.054,-52.3973 212,-50.5277 537.639,-18.3945 627.333,33.6332 948,-31.5277 974.691,-36.9514 1003.25,-50.3911 1021.34,-59.9746"/>
<polygon fill="midnightblue" stroke="midnightblue" points="153.274,-54.9092 143.982,-59.9987 154.42,-61.8149 153.274,-54.9092"/>
</g>
<!-- Node3&#45;&gt;Node4 -->
<g id="edge6" class="edge"><title>Node3&#45;&gt;Node4</title>
<path fill="none" stroke="midnightblue" d="M402.366,-82.4931C426.464,-85.7862 453.295,-88.8987 478,-90.5277 686.448,-104.272 739.956,-104.423 948,-85.5277 959.604,-84.4738 971.958,-82.8262 983.723,-81.0022"/>
<polygon fill="midnightblue" stroke="midnightblue" points="402.608,-78.993 392.22,-81.0746 401.639,-85.9256 402.608,-78.993"/>
</g>
<!-- Node6 -->
<g id="node11" class="node"><title>Node6</title>
<a xlink:href="../../d1/d02/cipepath_8h.html#a47d5d40a1e8a862c875efbfe7d49d059" target="_top" xlink:title="Gets the Electronic Key format of a Logical Segment Special Type EPath message.">
<polygon fill="none" stroke="black" points="478,-60.0277 478,-81.0277 692,-81.0277 692,-60.0277 478,-60.0277"/>
<text text-anchor="middle" x="585" y="-68.0277" font-family="Helvetica,sans-Serif" font-size="10.00">GetPathLogicalSegmentElectronicKeyFormat</text>
</a>
</g>
<!-- Node3&#45;&gt;Node6 -->
<g id="edge10" class="edge"><title>Node3&#45;&gt;Node6</title>
<path fill="none" stroke="midnightblue" d="M451.801,-70.5277C460.454,-70.5277 469.132,-70.5277 477.679,-70.5277"/>
<polygon fill="midnightblue" stroke="midnightblue" points="451.665,-67.0278 441.665,-70.5277 451.665,-74.0278 451.665,-67.0278"/>
</g>
<!-- Node5 -->
<g id="node9" class="node"><title>Node5</title>
<a xlink:href="../../d5/d35/cipconnectionmanager_8c.html#ab0532e3b6d153312d4cf60746586058e" target="_top" xlink:title="Handles a Non Null Non Matching Forward Open Request.">
<polygon fill="none" stroke="black" points="1132,-60.0277 1132,-81.0277 1368,-81.0277 1368,-60.0277 1132,-60.0277"/>
<text text-anchor="middle" x="1250" y="-68.0277" font-family="Helvetica,sans-Serif" font-size="10.00">HandleNonNullNonMatchingForwardOpenRequest</text>
</a>
</g>
<!-- Node4&#45;&gt;Node5 -->
<g id="edge8" class="edge"><title>Node4&#45;&gt;Node5</title>
<path fill="none" stroke="midnightblue" d="M1106.19,-70.5277C1114.4,-70.5277 1122.99,-70.5277 1131.7,-70.5277"/>
<polygon fill="midnightblue" stroke="midnightblue" points="1106,-67.0278 1096,-70.5277 1106,-74.0278 1106,-67.0278"/>
</g>
<!-- Node6&#45;&gt;Node4 -->
<g id="edge12" class="edge"><title>Node6&#45;&gt;Node4</title>
<path fill="none" stroke="midnightblue" d="M702.507,-71.4152C711.134,-71.4602 719.702,-71.4987 728,-71.5277 825.777,-71.8696 850.224,-72.0591 948,-71.5277 959.501,-71.4652 971.809,-71.3588 983.562,-71.238"/>
<polygon fill="midnightblue" stroke="midnightblue" points="702.384,-67.9146 692.365,-71.3596 702.346,-74.9145 702.384,-67.9146"/>
</g>
<!-- Node7 -->
<g id="node14" class="node"><title>Node7</title>
<a xlink:href="../../d1/d02/cipepath_8h.html#ae7344c52d0c796ecd8ec98d3b1b87791" target="_top" xlink:title="Gets the data for an Electronic Key of format 4 from the EPath message.">
<polygon fill="none" stroke="black" points="728.5,-41.0277 728.5,-62.0277 947.5,-62.0277 947.5,-41.0277 728.5,-41.0277"/>
<text text-anchor="middle" x="838" y="-49.0277" font-family="Helvetica,sans-Serif" font-size="10.00">GetPathLogicalSegmentElectronicKeyFormat4</text>
</a>
</g>
<!-- Node6&#45;&gt;Node7 -->
<g id="edge14" class="edge"><title>Node6&#45;&gt;Node7</title>
<path fill="none" stroke="midnightblue" d="M702.34,-61.7156C710.927,-61.0707 719.57,-60.4216 728.111,-59.7802"/>
<polygon fill="midnightblue" stroke="midnightblue" points="702.005,-58.2308 692.295,-62.47 702.529,-65.2112 702.005,-58.2308"/>
</g>
<!-- Node7&#45;&gt;Node4 -->
<g id="edge16" class="edge"><title>Node7&#45;&gt;Node4</title>
<path fill="none" stroke="midnightblue" d="M957.787,-62.7948C966.772,-63.6399 975.551,-64.4657 983.827,-65.2441"/>
<polygon fill="midnightblue" stroke="midnightblue" points="957.856,-59.2859 947.572,-61.834 957.2,-66.2551 957.856,-59.2859"/>
</g>
</g>
</svg>
        <g id="navigator" transform="translate(0 0)" fill="#404254">
                <rect fill="#f2f5e9" fill-opacity="0.5" stroke="#606060" stroke-width=".5" x="0" y="0" width="60" height="60"/>
                <use id="zoomplus" xlink:href="#zoomPlus" x="17" y="9" onmousedown="handleZoom(evt,'in')"/>
                <use id="zoomminus" xlink:href="#zoomMin" x="42" y="9" onmousedown="handleZoom(evt,'out')"/>
                <use id="reset" xlink:href="#resetDef" x="30" y="36" onmousedown="handleReset()"/>
                <g id="arrowUp" xlink:href="#dirArrow" transform="translate(30 24)" onmousedown="handlePan(0,-1)">
                  <use xlink:href="#rim" fill="#404040">
                        <set attributeName="fill" to="#808080" begin="arrowUp.mouseover" end="arrowUp.mouseout"/>
                  </use>
                  <path fill="none" stroke="white" stroke-width="1.5" d="M0,-3.0v7 M-2.5,-0.5L0,-3.0L2.5,-0.5"/>
                </g>
                <g id="arrowRight" xlink:href="#dirArrow" transform="rotate(90) translate(36 -43)" onmousedown="handlePan(1,0)">
                  <use xlink:href="#rim" fill="#404040">
                        <set attributeName="fill" to="#808080" begin="arrowRight.mouseover" end="arrowRight.mouseout"/>
                  </use>
                  <path fill="none" stroke="white" stroke-width="1.5" d="M0,-3.0v7 M-2.5,-0.5L0,-3.0L2.5,-0.5"/>
                </g>
                <g id="arrowDown" xlink:href="#dirArrow" transform="rotate(180) translate(-30 -48)" onmousedown="handlePan(0,1)">
                  <use xlink:href="#rim" fill="#404040">
                        <set attributeName="fill" to="#808080" begin="arrowDown.mouseover" end="arrowDown.mouseout"/>
                  </use>
                  <path fill="none" stroke="white" stroke-width="1.5" d="M0,-3.0v7 M-2.5,-0.5L0,-3.0L2.5,-0.5"/>
                </g>
                <g id="arrowLeft" xlink:href="#dirArrow" transform="rotate(270) translate(-36 17)" onmousedown="handlePan(-1,0)">
                  <use xlink:href="#rim" fill="#404040">
                        <set attributeName="fill" to="#808080" begin="arrowLeft.mouseover" end="arrowLeft.mouseout"/>
                  </use>
                  <path fill="none" stroke="white" stroke-width="1.5" d="M0,-3.0v7 M-2.5,-0.5L0,-3.0L2.5,-0.5"/>
                </g>
        </g>
</svg>
