<?xml version="1.0" encoding="UTF-8" standalone="no"?>
<!DOCTYPE svg PUBLIC "-//W3C//DTD SVG 1.1//EN"
 "http://www.w3.org/Graphics/SVG/1.1/DTD/svg11.dtd">
<!-- Generated by graphviz version 2.26.3 (20100126.1600)
 -->
<!-- Title: G Pages: 1 -->
<!--zoomable 230 -->
<svg id="main" version="1.1" xmlns="http://www.w3.org/2000/svg" xmlns:xlink="http://www.w3.org/1999/xlink" xml:space="preserve" onload="init(evt)">
        <defs>
                <circle id="rim" cx="0" cy="0" r="7"/>
                <circle id="rim2" cx="0" cy="0" r="3.5"/>
                <g id="zoomPlus">
                        <use xlink:href="#rim" fill="#404040">
                                <set attributeName="fill" to="#808080" begin="zoomplus.mouseover" end="zoomplus.mouseout"/>
                        </use>
                        <path d="M-4,0h8M0,-4v8" fill="none" stroke="white" stroke-width="1.5" pointer-events="none"/>
                </g>
                <g id="zoomMin">
                        <use xlink:href="#rim" fill="#404040">
                                <set attributeName="fill" to="#808080" begin="zoomminus.mouseover" end="zoomminus.mouseout"/>
                        </use>
                        <path d="M-4,0h8" fill="none" stroke="white" stroke-width="1.5" pointer-events="none"/>
                </g>
                <g id="dirArrow">
                        <path fill="none" stroke="white" stroke-width="1.5" d="M0,-3.0v7 M-2.5,-0.5L0,-3.0L2.5,-0.5"/>
                </g>
               <g id="resetDef">
                       <use xlink:href="#rim2" fill="#404040">
                               <set attributeName="fill" to="#808080" begin="reset.mouseover" end="reset.mouseout"/>
                       </use>
               </g>
        </defs>

<script type="text/javascript">
var viewWidth = 572;
var viewHeight = 230;
var sectionId = 'dynsection-1';
</script>
<script xlink:href="../../svgpan.js"/>
<svg id="graph" class="graph">
<g id="viewport">
<title>G</title>
<!-- Node1 -->
<g id="node1" class="node"><title>Node1</title>
<polygon fill="#bfbfbf" stroke="black" points="0.5,-100.5 0.5,-121.5 165.5,-121.5 165.5,-100.5 0.5,-100.5"/>
<text text-anchor="middle" x="83" y="-108.5" font-family="Helvetica,sans-Serif" font-size="10.00">CipEpathEncodeConnectionEpath</text>
</g>
<!-- Node2 -->
<g id="node3" class="node"><title>Node2</title>
<a xlink:href="../../de/ddc/cipepath_8c.html#a3def073e9e7b771cfbe1ef90ce3421f0" target="_top" xlink:title="CipEpathGetNeededLogicalFormatForValue">
<polygon fill="none" stroke="black" points="202.5,-198.5 202.5,-219.5 409.5,-219.5 409.5,-198.5 202.5,-198.5"/>
<text text-anchor="middle" x="306" y="-206.5" font-family="Helvetica,sans-Serif" font-size="10.00">CipEpathGetNeededLogicalFormatForValue</text>
</a>
</g>
<!-- Node1&#45;&gt;Node2 -->
<g id="edge2" class="edge"><title>Node1&#45;&gt;Node2</title>
<path fill="none" stroke="midnightblue" d="M96.8672,-121.537C118.296,-137.335 161.252,-167.104 202,-184 213.437,-188.743 225.972,-192.711 238.256,-195.986"/>
<polygon fill="midnightblue" stroke="midnightblue" points="237.475,-199.398 248.028,-198.466 239.196,-192.613 237.475,-199.398"/>
</g>
<!-- Node3 -->
<g id="node5" class="node"><title>Node3</title>
<a xlink:href="../../de/ddc/cipepath_8c.html#aef54869630b890374586301bb0340df0" target="_top" xlink:title="CipEpathSetLogicalValue">
<polygon fill="none" stroke="black" points="242,-120.5 242,-141.5 370,-141.5 370,-120.5 242,-120.5"/>
<text text-anchor="middle" x="306" y="-128.5" font-family="Helvetica,sans-Serif" font-size="10.00">CipEpathSetLogicalValue</text>
</a>
</g>
<!-- Node1&#45;&gt;Node3 -->
<g id="edge4" class="edge"><title>Node1&#45;&gt;Node3</title>
<path fill="none" stroke="midnightblue" d="M165.72,-118.419C187.344,-120.358 210.518,-122.437 231.675,-124.334"/>
<polygon fill="midnightblue" stroke="midnightblue" points="231.611,-127.842 241.884,-125.25 232.237,-120.87 231.611,-127.842"/>
</g>
<!-- Node5 -->
<g id="node9" class="node"><title>Node5</title>
<a xlink:href="../../da/d73/endianconv_8c.html#aaae1b23e05f0902b5080163e855cbe81" target="_top" xlink:title="MoveMessageNOctets">
<polygon fill="none" stroke="black" points="446.5,-200.5 446.5,-221.5 563.5,-221.5 563.5,-200.5 446.5,-200.5"/>
<text text-anchor="middle" x="505" y="-208.5" font-family="Helvetica,sans-Serif" font-size="10.00">MoveMessageNOctets</text>
</a>
</g>
<!-- Node1&#45;&gt;Node5 -->
<g id="edge14" class="edge"><title>Node1&#45;&gt;Node5</title>
<path fill="none" stroke="midnightblue" d="M110.552,-121.518C134.456,-130.339 170.132,-142.778 202,-151 292.995,-174.476 317.977,-169.95 410,-189 423.475,-191.79 437.97,-195.025 451.479,-198.143"/>
<polygon fill="midnightblue" stroke="midnightblue" points="451.051,-201.637 461.584,-200.495 452.638,-194.819 451.051,-201.637"/>
</g>
<!-- Node8 -->
<g id="node16" class="node"><title>Node8</title>
<a xlink:href="../../de/ddc/cipepath_8c.html#a57fd1c8eec1417d236293fecd5eeb76f" target="_top" xlink:title="SetPathLogicalSegmentLogicalFormat">
<polygon fill="none" stroke="black" points="214.5,-80.5 214.5,-101.5 397.5,-101.5 397.5,-80.5 214.5,-80.5"/>
<text text-anchor="middle" x="306" y="-88.5" font-family="Helvetica,sans-Serif" font-size="10.00">SetPathLogicalSegmentLogicalFormat</text>
</a>
</g>
<!-- Node1&#45;&gt;Node8 -->
<g id="edge16" class="edge"><title>Node1&#45;&gt;Node8</title>
<path fill="none" stroke="midnightblue" d="M165.72,-103.581C178.239,-102.458 191.278,-101.289 204.144,-100.135"/>
<polygon fill="midnightblue" stroke="midnightblue" points="204.765,-103.593 214.412,-99.2141 204.14,-96.6215 204.765,-103.593"/>
</g>
<!-- Node10 -->
<g id="node20" class="node"><title>Node10</title>
<a xlink:href="../../de/ddc/cipepath_8c.html#a92013da4716b44a660f776539d3954e9" target="_top" xlink:title="SetPathLogicalSegmentLogicalType">
<polygon fill="none" stroke="black" points="219,-40.5 219,-61.5 393,-61.5 393,-40.5 219,-40.5"/>
<text text-anchor="middle" x="306" y="-48.5" font-family="Helvetica,sans-Serif" font-size="10.00">SetPathLogicalSegmentLogicalType</text>
</a>
</g>
<!-- Node1&#45;&gt;Node10 -->
<g id="edge20" class="edge"><title>Node1&#45;&gt;Node10</title>
<path fill="none" stroke="midnightblue" d="M111.048,-100.382C134.96,-91.618 170.381,-79.3141 202,-71 212.279,-68.2972 223.218,-65.7953 233.996,-63.5413"/>
<polygon fill="midnightblue" stroke="midnightblue" points="234.723,-66.9652 243.824,-61.5424 233.327,-60.1056 234.723,-66.9652"/>
</g>
<!-- Node11 -->
<g id="node23" class="node"><title>Node11</title>
<a xlink:href="../../de/ddc/cipepath_8c.html#a4a1038d74a162dbbaa6c1a1a2892d573" target="_top" xlink:title="Sets the basic segment type of an CIP EPath to be sent.">
<polygon fill="none" stroke="black" points="249.5,-0.5 249.5,-21.5 362.5,-21.5 362.5,-0.5 249.5,-0.5"/>
<text text-anchor="middle" x="306" y="-8.5" font-family="Helvetica,sans-Serif" font-size="10.00">SetPathSegmentType</text>
</a>
</g>
<!-- Node1&#45;&gt;Node11 -->
<g id="edge24" class="edge"><title>Node1&#45;&gt;Node11</title>
<path fill="none" stroke="midnightblue" d="M95.224,-100.284C115.769,-82.8804 159.19,-48.6438 202,-31 213.737,-26.1628 226.707,-22.48 239.393,-19.6808"/>
<polygon fill="midnightblue" stroke="midnightblue" points="240.379,-23.0516 249.476,-17.6201 238.978,-16.1934 240.379,-23.0516"/>
</g>
<!-- Node4 -->
<g id="node7" class="node"><title>Node4</title>
<a xlink:href="../../d4/d91/group__ENCAP.html#gae267a8684cc6ee1b3bd83df03260b7aa" target="_top" xlink:title="converts UINT8 data from host to little endian an writes it to buffer.">
<polygon fill="none" stroke="black" points="454,-160.5 454,-181.5 556,-181.5 556,-160.5 454,-160.5"/>
<text text-anchor="middle" x="505" y="-168.5" font-family="Helvetica,sans-Serif" font-size="10.00">AddSintToMessage</text>
</a>
</g>
<!-- Node3&#45;&gt;Node4 -->
<g id="edge6" class="edge"><title>Node3&#45;&gt;Node4</title>
<path fill="none" stroke="midnightblue" d="M358.285,-141.51C384.541,-146.787 416.506,-153.212 443.89,-158.717"/>
<polygon fill="midnightblue" stroke="midnightblue" points="443.259,-162.16 453.753,-160.699 444.638,-155.297 443.259,-162.16"/>
</g>
<!-- Node3&#45;&gt;Node5 -->
<g id="edge8" class="edge"><title>Node3&#45;&gt;Node5</title>
<path fill="none" stroke="midnightblue" d="M370.158,-140.74C383.824,-144.35 397.802,-149.279 410,-156 429.545,-166.769 426.965,-179.354 446,-191 449.33,-193.037 452.894,-194.898 456.559,-196.591"/>
<polygon fill="midnightblue" stroke="midnightblue" points="455.229,-199.828 465.805,-200.459 457.931,-193.37 455.229,-199.828"/>
</g>
<!-- Node6 -->
<g id="node11" class="node"><title>Node6</title>
<a xlink:href="../../d4/d91/group__ENCAP.html#gae689aac2a85bf49fb356ec94c8800799" target="_top" xlink:title="converts UINT16 data from host to little endian an writes it to buffer.">
<polygon fill="none" stroke="black" points="457,-120.5 457,-141.5 553,-141.5 553,-120.5 457,-120.5"/>
<text text-anchor="middle" x="505" y="-128.5" font-family="Helvetica,sans-Serif" font-size="10.00">AddIntToMessage</text>
</a>
</g>
<!-- Node3&#45;&gt;Node6 -->
<g id="edge10" class="edge"><title>Node3&#45;&gt;Node6</title>
<path fill="none" stroke="midnightblue" d="M370.06,-131C394.716,-131 422.711,-131 446.787,-131"/>
<polygon fill="midnightblue" stroke="midnightblue" points="446.844,-134.5 456.844,-131 446.843,-127.5 446.844,-134.5"/>
</g>
<!-- Node7 -->
<g id="node13" class="node"><title>Node7</title>
<a xlink:href="../../d4/d91/group__ENCAP.html#gaafc3c9e3ff582c9b7e438ae2b1fdf822" target="_top" xlink:title="Converts UINT32 data from host to little endian and writes it to buffer.">
<polygon fill="none" stroke="black" points="453.5,-80.5 453.5,-101.5 556.5,-101.5 556.5,-80.5 453.5,-80.5"/>
<text text-anchor="middle" x="505" y="-88.5" font-family="Helvetica,sans-Serif" font-size="10.00">AddDintToMessage</text>
</a>
</g>
<!-- Node3&#45;&gt;Node7 -->
<g id="edge12" class="edge"><title>Node3&#45;&gt;Node7</title>
<path fill="none" stroke="midnightblue" d="M361.628,-120.489C377.284,-117.48 394.319,-114.158 410,-111 421.618,-108.66 434.02,-106.097 445.9,-103.61"/>
<polygon fill="midnightblue" stroke="midnightblue" points="446.66,-107.026 455.727,-101.544 445.221,-100.176 446.66,-107.026"/>
</g>
<!-- Node9 -->
<g id="node18" class="node"><title>Node9</title>
<a xlink:href="../../de/ddc/cipepath_8c.html#a7a8c1fe3015897c8552ec89e9ab3d39f" target="_top" xlink:title="Gets the basic segment type of a CIP EPath.">
<polygon fill="none" stroke="black" points="448.5,-40.5 448.5,-61.5 561.5,-61.5 561.5,-40.5 448.5,-40.5"/>
<text text-anchor="middle" x="505" y="-48.5" font-family="Helvetica,sans-Serif" font-size="10.00">GetPathSegmentType</text>
</a>
</g>
<!-- Node8&#45;&gt;Node9 -->
<g id="edge18" class="edge"><title>Node8&#45;&gt;Node9</title>
<path fill="none" stroke="midnightblue" d="M361.628,-80.4888C377.284,-77.4797 394.319,-74.1582 410,-71 421.618,-68.6602 434.02,-66.097 445.9,-63.6095"/>
<polygon fill="midnightblue" stroke="midnightblue" points="446.66,-67.0262 455.727,-61.5444 445.221,-60.1758 446.66,-67.0262"/>
</g>
<!-- Node10&#45;&gt;Node9 -->
<g id="edge22" class="edge"><title>Node10&#45;&gt;Node9</title>
<path fill="none" stroke="midnightblue" d="M393.284,-51C408.326,-51 423.747,-51 438.142,-51"/>
<polygon fill="midnightblue" stroke="midnightblue" points="438.423,-54.5001 448.423,-51 438.423,-47.5001 438.423,-54.5001"/>
</g>
</g>
</svg>
        <g id="navigator" transform="translate(0 0)" fill="#404254">
                <rect fill="#f2f5e9" fill-opacity="0.5" stroke="#606060" stroke-width=".5" x="0" y="0" width="60" height="60"/>
                <use id="zoomplus" xlink:href="#zoomPlus" x="17" y="9" onmousedown="handleZoom(evt,'in')"/>
                <use id="zoomminus" xlink:href="#zoomMin" x="42" y="9" onmousedown="handleZoom(evt,'out')"/>
                <use id="reset" xlink:href="#resetDef" x="30" y="36" onmousedown="handleReset()"/>
                <g id="arrowUp" xlink:href="#dirArrow" transform="translate(30 24)" onmousedown="handlePan(0,-1)">
                  <use xlink:href="#rim" fill="#404040">
                        <set attributeName="fill" to="#808080" begin="arrowUp.mouseover" end="arrowUp.mouseout"/>
                  </use>
                  <path fill="none" stroke="white" stroke-width="1.5" d="M0,-3.0v7 M-2.5,-0.5L0,-3.0L2.5,-0.5"/>
                </g>
                <g id="arrowRight" xlink:href="#dirArrow" transform="rotate(90) translate(36 -43)" onmousedown="handlePan(1,0)">
                  <use xlink:href="#rim" fill="#404040">
                        <set attributeName="fill" to="#808080" begin="arrowRight.mouseover" end="arrowRight.mouseout"/>
                  </use>
                  <path fill="none" stroke="white" stroke-width="1.5" d="M0,-3.0v7 M-2.5,-0.5L0,-3.0L2.5,-0.5"/>
                </g>
                <g id="arrowDown" xlink:href="#dirArrow" transform="rotate(180) translate(-30 -48)" onmousedown="handlePan(0,1)">
                  <use xlink:href="#rim" fill="#404040">
                        <set attributeName="fill" to="#808080" begin="arrowDown.mouseover" end="arrowDown.mouseout"/>
                  </use>
                  <path fill="none" stroke="white" stroke-width="1.5" d="M0,-3.0v7 M-2.5,-0.5L0,-3.0L2.5,-0.5"/>
                </g>
                <g id="arrowLeft" xlink:href="#dirArrow" transform="rotate(270) translate(-36 17)" onmousedown="handlePan(-1,0)">
                  <use xlink:href="#rim" fill="#404040">
                        <set attributeName="fill" to="#808080" begin="arrowLeft.mouseover" end="arrowLeft.mouseout"/>
                  </use>
                  <path fill="none" stroke="white" stroke-width="1.5" d="M0,-3.0v7 M-2.5,-0.5L0,-3.0L2.5,-0.5"/>
                </g>
        </g>
</svg>
