<?xml version="1.0" encoding="UTF-8" standalone="no"?>
<!DOCTYPE svg PUBLIC "-//W3C//DTD SVG 1.1//EN"
 "http://www.w3.org/Graphics/SVG/1.1/DTD/svg11.dtd">
<!-- Generated by graphviz version 2.36.0 (20140111.2315)
 -->
<!-- Title: CipEpathEncodeConnectionEpath Pages: 1 -->
<!--zoomable 241 -->
<svg id="main" version="1.1" xmlns="http://www.w3.org/2000/svg" xmlns:xlink="http://www.w3.org/1999/xlink" xml:space="preserve" onload="init(evt)">
<style type="text/css"><![CDATA[
.edge:hover path { stroke: red; }
.edge:hover polygon { stroke: red; fill: red; }
]]></style>
<script type="text/javascript"><![CDATA[
var edges = document.getElementsByTagName('g');
if (edges && edges.length) {
  for (var i=0;i<edges.length;i++) {
    if (edges[i].id.substr(0,4)=='edge') {
      edges[i].setAttribute('class','edge');
    }
  }
}
]]></script>
        <defs>
                <circle id="rim" cx="0" cy="0" r="7"/>
                <circle id="rim2" cx="0" cy="0" r="3.5"/>
                <g id="zoomPlus">
                        <use xlink:href="#rim" fill="#404040">
                                <set attributeName="fill" to="#808080" begin="zoomplus.mouseover" end="zoomplus.mouseout"/>
                        </use>
                        <path d="M-4,0h8M0,-4v8" fill="none" stroke="white" stroke-width="1.5" pointer-events="none"/>
                </g>
                <g id="zoomMin">
                        <use xlink:href="#rim" fill="#404040">
                                <set attributeName="fill" to="#808080" begin="zoomminus.mouseover" end="zoomminus.mouseout"/>
                        </use>
                        <path d="M-4,0h8" fill="none" stroke="white" stroke-width="1.5" pointer-events="none"/>
                </g>
                <g id="dirArrow">
                        <path fill="none" stroke="white" stroke-width="1.5" d="M0,-3.0v7 M-2.5,-0.5L0,-3.0L2.5,-0.5"/>
                </g>
               <g id="resetDef">
                       <use xlink:href="#rim2" fill="#404040">
                               <set attributeName="fill" to="#808080" begin="reset.mouseover" end="reset.mouseout"/>
                       </use>
               </g>
        </defs>

<script type="text/javascript">
var viewWidth = 512;
var viewHeight = 241;
var sectionId = 'dynsection-1';
</script>
<script xlink:href="../../svgpan.js"/>
<svg id="graph" class="graph">
<g id="viewport">
<title>CipEpathEncodeConnectionEpath</title>
<!-- Node1 -->
<g id="node1" class="node"><title>Node1</title>
<polygon fill="#bfbfbf" stroke="black" points="0,-99 0,-129 140,-129 140,-99 0,-99"/>
<text text-anchor="start" x="8" y="-117" font-family="Helvetica,sans-Serif" font-size="10.00">CipEpathEncodeConnection</text>
<text text-anchor="middle" x="70" y="-106" font-family="Helvetica,sans-Serif" font-size="10.00">Epath</text>
</g>
<!-- Node2 -->
<g id="node2" class="node"><title>Node2</title>
<g id="a_node2"><a xlink:href="../../de/ddc/cipepath_8c.html#a3def073e9e7b771cfbe1ef90ce3421f0" target="_top" xlink:title="CipEpathGetNeededLogical\lFormatForValue">
<polygon fill="none" stroke="black" points="194.5,-203 194.5,-233 331.5,-233 331.5,-203 194.5,-203"/>
<text text-anchor="start" x="202.5" y="-221" font-family="Helvetica,sans-Serif" font-size="10.00">CipEpathGetNeededLogical</text>
<text text-anchor="middle" x="263" y="-210" font-family="Helvetica,sans-Serif" font-size="10.00">FormatForValue</text>
</a>
</g>
</g>
<!-- Node1&#45;&gt;Node2 -->
<g id="edge1" class="edge"><title>Node1&#45;&gt;Node2</title>
<path fill="none" stroke="midnightblue" d="M88.9642,-129.027C109.114,-145.3 143.273,-171.178 176,-188 184.159,-192.194 193.037,-196.027 201.889,-199.449"/>
<polygon fill="midnightblue" stroke="midnightblue" points="200.856,-202.799 211.449,-202.997 203.292,-196.236 200.856,-202.799"/>
</g>
<!-- Node3 -->
<g id="node3" class="node"><title>Node3</title>
<g id="a_node3"><a xlink:href="../../de/ddc/cipepath_8c.html#aef54869630b890374586301bb0340df0" target="_top" xlink:title="CipEpathSetLogicalValue">
<polygon fill="none" stroke="black" points="199,-126.5 199,-145.5 327,-145.5 327,-126.5 199,-126.5"/>
<text text-anchor="middle" x="263" y="-133.5" font-family="Helvetica,sans-Serif" font-size="10.00">CipEpathSetLogicalValue</text>
</a>
</g>
</g>
<!-- Node1&#45;&gt;Node3 -->
<g id="edge2" class="edge"><title>Node1&#45;&gt;Node3</title>
<path fill="none" stroke="midnightblue" d="M140.225,-121.974C155.902,-123.779 172.602,-125.703 188.45,-127.528"/>
<polygon fill="midnightblue" stroke="midnightblue" points="188.387,-131.044 198.722,-128.711 189.188,-124.09 188.387,-131.044"/>
</g>
<!-- Node5 -->
<g id="node5" class="node"><title>Node5</title>
<g id="a_node5"><a xlink:href="../../da/d73/endianconv_8c.html#af4e7ccbb21e333ad15028c531f0384c6" target="_top" xlink:title="MoveMessageNOctets">
<polygon fill="none" stroke="black" points="386.5,-190.5 386.5,-209.5 503.5,-209.5 503.5,-190.5 386.5,-190.5"/>
<text text-anchor="middle" x="445" y="-197.5" font-family="Helvetica,sans-Serif" font-size="10.00">MoveMessageNOctets</text>
</a>
</g>
</g>
<!-- Node1&#45;&gt;Node5 -->
<g id="edge7" class="edge"><title>Node1&#45;&gt;Node5</title>
<path fill="none" stroke="midnightblue" d="M104.447,-129.1C124.783,-137.764 151.477,-148.231 176,-155 243.003,-173.494 321.649,-185.606 376.344,-192.556"/>
<polygon fill="midnightblue" stroke="midnightblue" points="375.914,-196.029 386.27,-193.794 376.78,-189.083 375.914,-196.029"/>
</g>
<!-- Node8 -->
<g id="node8" class="node"><title>Node8</title>
<g id="a_node8"><a xlink:href="../../de/ddc/cipepath_8c.html#a57fd1c8eec1417d236293fecd5eeb76f" target="_top" xlink:title="SetPathLogicalSegmentLogical\lFormat">
<polygon fill="none" stroke="black" points="187,-77 187,-107 339,-107 339,-77 187,-77"/>
<text text-anchor="start" x="195" y="-95" font-family="Helvetica,sans-Serif" font-size="10.00">SetPathLogicalSegmentLogical</text>
<text text-anchor="middle" x="263" y="-84" font-family="Helvetica,sans-Serif" font-size="10.00">Format</text>
</a>
</g>
</g>
<!-- Node1&#45;&gt;Node8 -->
<g id="edge8" class="edge"><title>Node1&#45;&gt;Node8</title>
<path fill="none" stroke="midnightblue" d="M140.225,-106.026C152.069,-104.662 164.497,-103.231 176.701,-101.825"/>
<polygon fill="midnightblue" stroke="midnightblue" points="177.347,-105.274 186.881,-100.652 176.546,-98.3198 177.347,-105.274"/>
</g>
<!-- Node10 -->
<g id="node10" class="node"><title>Node10</title>
<g id="a_node10"><a xlink:href="../../de/ddc/cipepath_8c.html#a92013da4716b44a660f776539d3954e9" target="_top" xlink:title="SetPathLogicalSegmentLogicalType">
<polygon fill="none" stroke="black" points="176,-38.5 176,-57.5 350,-57.5 350,-38.5 176,-38.5"/>
<text text-anchor="middle" x="263" y="-45.5" font-family="Helvetica,sans-Serif" font-size="10.00">SetPathLogicalSegmentLogicalType</text>
</a>
</g>
</g>
<!-- Node1&#45;&gt;Node10 -->
<g id="edge10" class="edge"><title>Node1&#45;&gt;Node10</title>
<path fill="none" stroke="midnightblue" d="M100.232,-98.9801C120.95,-88.8182 149.641,-75.7105 176,-67 183.931,-64.3793 192.393,-62.0119 200.798,-59.9091"/>
<polygon fill="midnightblue" stroke="midnightblue" points="201.693,-63.2938 210.604,-57.5627 200.064,-56.486 201.693,-63.2938"/>
</g>
<!-- Node11 -->
<g id="node11" class="node"><title>Node11</title>
<g id="a_node11"><a xlink:href="../../de/ddc/cipepath_8c.html#a4a1038d74a162dbbaa6c1a1a2892d573" target="_top" xlink:title="Sets the basic segment type of an CIP EPath to be sent. ">
<polygon fill="none" stroke="black" points="206.5,-0.5 206.5,-19.5 319.5,-19.5 319.5,-0.5 206.5,-0.5"/>
<text text-anchor="middle" x="263" y="-7.5" font-family="Helvetica,sans-Serif" font-size="10.00">SetPathSegmentType</text>
</a>
</g>
</g>
<!-- Node1&#45;&gt;Node11 -->
<g id="edge12" class="edge"><title>Node1&#45;&gt;Node11</title>
<path fill="none" stroke="midnightblue" d="M85.1014,-98.876C103.94,-79.6153 139.235,-46.7131 176,-29 182.44,-25.8973 189.396,-23.2942 196.464,-21.1116"/>
<polygon fill="midnightblue" stroke="midnightblue" points="197.458,-24.468 206.135,-18.3887 195.561,-17.7299 197.458,-24.468"/>
</g>
<!-- Node4 -->
<g id="node4" class="node"><title>Node4</title>
<g id="a_node4"><a xlink:href="../../d4/d91/group__ENCAP.html#gae267a8684cc6ee1b3bd83df03260b7aa" target="_top" xlink:title="converts UINT8 data from host to little endian an writes it to buffer. ">
<polygon fill="none" stroke="black" points="394,-152.5 394,-171.5 496,-171.5 496,-152.5 394,-152.5"/>
<text text-anchor="middle" x="445" y="-159.5" font-family="Helvetica,sans-Serif" font-size="10.00">AddSintToMessage</text>
</a>
</g>
</g>
<!-- Node3&#45;&gt;Node4 -->
<g id="edge3" class="edge"><title>Node3&#45;&gt;Node4</title>
<path fill="none" stroke="midnightblue" d="M327.208,-145.13C345.67,-147.797 365.787,-150.703 384.041,-153.339"/>
<polygon fill="midnightblue" stroke="midnightblue" points="383.571,-156.808 393.968,-154.773 384.571,-149.879 383.571,-156.808"/>
</g>
<!-- Node3&#45;&gt;Node5 -->
<g id="edge4" class="edge"><title>Node3&#45;&gt;Node5</title>
<path fill="none" stroke="midnightblue" d="M306.728,-145.614C320.774,-149.379 336.294,-154.204 350,-160 367.06,-167.215 369.104,-173.408 386,-181 390.771,-183.144 395.858,-185.167 400.962,-187.037"/>
<polygon fill="midnightblue" stroke="midnightblue" points="400.125,-190.452 410.72,-190.434 402.427,-183.841 400.125,-190.452"/>
</g>
<!-- Node6 -->
<g id="node6" class="node"><title>Node6</title>
<g id="a_node6"><a xlink:href="../../d4/d91/group__ENCAP.html#gae689aac2a85bf49fb356ec94c8800799" target="_top" xlink:title="converts UINT16 data from host to little endian an writes it to buffer. ">
<polygon fill="none" stroke="black" points="397,-114.5 397,-133.5 493,-133.5 493,-114.5 397,-114.5"/>
<text text-anchor="middle" x="445" y="-121.5" font-family="Helvetica,sans-Serif" font-size="10.00">AddIntToMessage</text>
</a>
</g>
</g>
<!-- Node3&#45;&gt;Node6 -->
<g id="edge5" class="edge"><title>Node3&#45;&gt;Node6</title>
<path fill="none" stroke="midnightblue" d="M327.208,-131.786C346.614,-130.492 367.849,-129.077 386.826,-127.812"/>
<polygon fill="midnightblue" stroke="midnightblue" points="387.071,-131.303 396.816,-127.146 386.606,-124.319 387.071,-131.303"/>
</g>
<!-- Node7 -->
<g id="node7" class="node"><title>Node7</title>
<g id="a_node7"><a xlink:href="../../d4/d91/group__ENCAP.html#gaafc3c9e3ff582c9b7e438ae2b1fdf822" target="_top" xlink:title="Converts UINT32 data from host to little endian and writes it to buffer. ">
<polygon fill="none" stroke="black" points="393.5,-76.5 393.5,-95.5 496.5,-95.5 496.5,-76.5 393.5,-76.5"/>
<text text-anchor="middle" x="445" y="-83.5" font-family="Helvetica,sans-Serif" font-size="10.00">AddDintToMessage</text>
</a>
</g>
</g>
<!-- Node3&#45;&gt;Node7 -->
<g id="edge6" class="edge"><title>Node3&#45;&gt;Node7</title>
<path fill="none" stroke="midnightblue" d="M308.365,-126.4C321.797,-123.301 336.551,-119.703 350,-116 360.622,-113.075 384.301,-105.515 405.235,-98.7172"/>
<polygon fill="midnightblue" stroke="midnightblue" points="406.486,-101.991 414.911,-95.566 404.319,-95.3346 406.486,-101.991"/>
</g>
<!-- Node9 -->
<g id="node9" class="node"><title>Node9</title>
<g id="a_node9"><a xlink:href="../../de/ddc/cipepath_8c.html#a7a8c1fe3015897c8552ec89e9ab3d39f" target="_top" xlink:title="Gets the basic segment type of a CIP EPath. ">
<polygon fill="none" stroke="black" points="388.5,-38.5 388.5,-57.5 501.5,-57.5 501.5,-38.5 388.5,-38.5"/>
<text text-anchor="middle" x="445" y="-45.5" font-family="Helvetica,sans-Serif" font-size="10.00">GetPathSegmentType</text>
</a>
</g>
</g>
<!-- Node8&#45;&gt;Node9 -->
<g id="edge9" class="edge"><title>Node8&#45;&gt;Node9</title>
<path fill="none" stroke="midnightblue" d="M325.442,-76.9808C348.214,-71.4144 373.706,-65.1829 395.201,-59.9287"/>
<polygon fill="midnightblue" stroke="midnightblue" points="396.203,-63.2869 405.086,-57.5124 394.54,-56.4871 396.203,-63.2869"/>
</g>
<!-- Node10&#45;&gt;Node9 -->
<g id="edge11" class="edge"><title>Node10&#45;&gt;Node9</title>
<path fill="none" stroke="midnightblue" d="M350.046,-48C359.503,-48 369.018,-48 378.173,-48"/>
<polygon fill="midnightblue" stroke="midnightblue" points="378.333,-51.5001 388.333,-48 378.333,-44.5001 378.333,-51.5001"/>
</g>
</g>
</svg>
        <g id="navigator" transform="translate(0 0)" fill="#404254">
                <rect fill="#f2f5e9" fill-opacity="0.5" stroke="#606060" stroke-width=".5" x="0" y="0" width="60" height="60"/>
                <use id="zoomplus" xlink:href="#zoomPlus" x="17" y="9" onmousedown="handleZoom(evt,'in')"/>
                <use id="zoomminus" xlink:href="#zoomMin" x="42" y="9" onmousedown="handleZoom(evt,'out')"/>
                <use id="reset" xlink:href="#resetDef" x="30" y="36" onmousedown="handleReset()"/>
                <g id="arrowUp" xlink:href="#dirArrow" transform="translate(30 24)" onmousedown="handlePan(0,-1)">
                  <use xlink:href="#rim" fill="#404040">
                        <set attributeName="fill" to="#808080" begin="arrowUp.mouseover" end="arrowUp.mouseout"/>
                  </use>
                  <path fill="none" stroke="white" stroke-width="1.5" d="M0,-3.0v7 M-2.5,-0.5L0,-3.0L2.5,-0.5"/>
                </g>
                <g id="arrowRight" xlink:href="#dirArrow" transform="rotate(90) translate(36 -43)" onmousedown="handlePan(1,0)">
                  <use xlink:href="#rim" fill="#404040">
                        <set attributeName="fill" to="#808080" begin="arrowRight.mouseover" end="arrowRight.mouseout"/>
                  </use>
                  <path fill="none" stroke="white" stroke-width="1.5" d="M0,-3.0v7 M-2.5,-0.5L0,-3.0L2.5,-0.5"/>
                </g>
                <g id="arrowDown" xlink:href="#dirArrow" transform="rotate(180) translate(-30 -48)" onmousedown="handlePan(0,1)">
                  <use xlink:href="#rim" fill="#404040">
                        <set attributeName="fill" to="#808080" begin="arrowDown.mouseover" end="arrowDown.mouseout"/>
                  </use>
                  <path fill="none" stroke="white" stroke-width="1.5" d="M0,-3.0v7 M-2.5,-0.5L0,-3.0L2.5,-0.5"/>
                </g>
                <g id="arrowLeft" xlink:href="#dirArrow" transform="rotate(270) translate(-36 17)" onmousedown="handlePan(-1,0)">
                  <use xlink:href="#rim" fill="#404040">
                        <set attributeName="fill" to="#808080" begin="arrowLeft.mouseover" end="arrowLeft.mouseout"/>
                  </use>
                  <path fill="none" stroke="white" stroke-width="1.5" d="M0,-3.0v7 M-2.5,-0.5L0,-3.0L2.5,-0.5"/>
                </g>
        </g>
        <svg viewBox="0 0 15 15" width="100%" height="30px" preserveAspectRatio="xMaxYMin meet">
         <g id="arrow_out" transform="scale(0.3 0.3)">
          <a xlink:href="cipepath_8c_a22b9f76d4ea85ca54024f5c4f46efd12_cgraph_org.svg" target="_base">
           <rect id="button" ry="5" rx="5" y="6" x="6" height="38" width="38"
                fill="#f2f5e9" fill-opacity="0.5" stroke="#606060" stroke-width="1.0"/>
           <path id="arrow"
             d="M 11.500037,31.436501 C 11.940474,20.09759 22.043105,11.32322 32.158766,21.979434 L 37.068811,17.246167 C 37.068811,17.246167 37.088388,32 37.088388,32 L 22.160133,31.978069 C 22.160133,31.978069 26.997745,27.140456 26.997745,27.140456 C 18.528582,18.264221 13.291696,25.230495 11.500037,31.436501 z"
             style="fill:#404040;"/>
          </a>
         </g>
        </svg>
</svg>
