<?xml version="1.0" encoding="UTF-8" standalone="no"?>
<!DOCTYPE svg PUBLIC "-//W3C//DTD SVG 1.1//EN"
 "http://www.w3.org/Graphics/SVG/1.1/DTD/svg11.dtd">
<!-- Generated by graphviz version 2.36.0 (20140111.2315)
 -->
<!-- Title: GetPathLogicalSegmentExtendedLogicalType Pages: 1 -->
<svg width="534pt" height="38pt"
 viewBox="0.00 0.00 534.00 38.00" xmlns="http://www.w3.org/2000/svg" xmlns:xlink="http://www.w3.org/1999/xlink">
<g id="graph0" class="graph" transform="scale(1 1) rotate(0) translate(4 34)">
<title>GetPathLogicalSegmentExtendedLogicalType</title>
<!-- Node1 -->
<g id="node1" class="node"><title>Node1</title>
<polygon fill="#bfbfbf" stroke="black" points="0,-0 0,-30 164,-30 164,-0 0,-0"/>
<text text-anchor="start" x="8" y="-18" font-family="Helvetica,sans-Serif" font-size="10.00">GetPathLogicalSegmentExtended</text>
<text text-anchor="middle" x="82" y="-7" font-family="Helvetica,sans-Serif" font-size="10.00">LogicalType</text>
</g>
<!-- Node2 -->
<g id="node2" class="node"><title>Node2</title>
<g id="a_node2"><a xlink:href="../../de/ddc/cipepath_8c.html#a4ba7b528ebba012c609a29069030e54b" target="_top" xlink:title="Gets the Logical Type of an EPath Logical Segment message. ">
<polygon fill="none" stroke="black" points="200.5,-5.5 200.5,-24.5 375.5,-24.5 375.5,-5.5 200.5,-5.5"/>
<text text-anchor="middle" x="288" y="-12.5" font-family="Helvetica,sans-Serif" font-size="10.00">GetPathLogicalSegmentLogicalType</text>
</a>
</g>
</g>
<!-- Node1&#45;&gt;Node2 -->
<g id="edge1" class="edge"><title>Node1&#45;&gt;Node2</title>
<path fill="none" stroke="midnightblue" d="M164.212,-15C172.758,-15 181.506,-15 190.204,-15"/>
<polygon fill="midnightblue" stroke="midnightblue" points="190.376,-18.5001 200.376,-15 190.376,-11.5001 190.376,-18.5001"/>
</g>
<!-- Node3 -->
<g id="node3" class="node"><title>Node3</title>
<g id="a_node3"><a xlink:href="../../de/ddc/cipepath_8c.html#a7a8c1fe3015897c8552ec89e9ab3d39f" target="_top" xlink:title="Gets the basic segment type of a CIP EPath. ">
<polygon fill="none" stroke="black" points="412.5,-5.5 412.5,-24.5 525.5,-24.5 525.5,-5.5 412.5,-5.5"/>
<text text-anchor="middle" x="469" y="-12.5" font-family="Helvetica,sans-Serif" font-size="10.00">GetPathSegmentType</text>
</a>
</g>
</g>
<!-- Node2&#45;&gt;Node3 -->
<g id="edge2" class="edge"><title>Node2&#45;&gt;Node3</title>
<path fill="none" stroke="midnightblue" d="M375.616,-15C384.596,-15 393.614,-15 402.309,-15"/>
<polygon fill="midnightblue" stroke="midnightblue" points="402.346,-18.5001 412.346,-15 402.346,-11.5001 402.346,-18.5001"/>
</g>
</g>
</svg>
