<?xml version="1.0" encoding="UTF-8" standalone="no"?>
<!DOCTYPE svg PUBLIC "-//W3C//DTD SVG 1.1//EN"
 "http://www.w3.org/Graphics/SVG/1.1/DTD/svg11.dtd">
<!-- Generated by graphviz version 2.36.0 (20140111.2315)
 -->
<!-- Title: GetPathSegmentType Pages: 1 -->
<!--zoomable 545 -->
<svg id="main" version="1.1" xmlns="http://www.w3.org/2000/svg" xmlns:xlink="http://www.w3.org/1999/xlink" xml:space="preserve" onload="init(evt)">
<style type="text/css"><![CDATA[
.edge:hover path { stroke: red; }
.edge:hover polygon { stroke: red; fill: red; }
]]></style>
<script type="text/javascript"><![CDATA[
var edges = document.getElementsByTagName('g');
if (edges && edges.length) {
  for (var i=0;i<edges.length;i++) {
    if (edges[i].id.substr(0,4)=='edge') {
      edges[i].setAttribute('class','edge');
    }
  }
}
]]></script>
        <defs>
                <circle id="rim" cx="0" cy="0" r="7"/>
                <circle id="rim2" cx="0" cy="0" r="3.5"/>
                <g id="zoomPlus">
                        <use xlink:href="#rim" fill="#404040">
                                <set attributeName="fill" to="#808080" begin="zoomplus.mouseover" end="zoomplus.mouseout"/>
                        </use>
                        <path d="M-4,0h8M0,-4v8" fill="none" stroke="white" stroke-width="1.5" pointer-events="none"/>
                </g>
                <g id="zoomMin">
                        <use xlink:href="#rim" fill="#404040">
                                <set attributeName="fill" to="#808080" begin="zoomminus.mouseover" end="zoomminus.mouseout"/>
                        </use>
                        <path d="M-4,0h8" fill="none" stroke="white" stroke-width="1.5" pointer-events="none"/>
                </g>
                <g id="dirArrow">
                        <path fill="none" stroke="white" stroke-width="1.5" d="M0,-3.0v7 M-2.5,-0.5L0,-3.0L2.5,-0.5"/>
                </g>
               <g id="resetDef">
                       <use xlink:href="#rim2" fill="#404040">
                               <set attributeName="fill" to="#808080" begin="reset.mouseover" end="reset.mouseout"/>
                       </use>
               </g>
        </defs>

<script type="text/javascript">
var viewWidth = 1260;
var viewHeight = 545;
var sectionId = 'dynsection-29';
</script>
<script xlink:href="../../svgpan.js"/>
<svg id="graph" class="graph">
<g id="viewport">
<title>GetPathSegmentType</title>
<!-- Node1 -->
<g id="node1" class="node"><title>Node1</title>
<polygon fill="#bfbfbf" stroke="black" points="0.5,-232.5 0.5,-251.5 113.5,-251.5 113.5,-232.5 0.5,-232.5"/>
<text text-anchor="middle" x="57" y="-239.5" font-family="Helvetica,sans-Serif" font-size="10.00">GetPathSegmentType</text>
</g>
<!-- Node2 -->
<g id="node2" class="node"><title>Node2</title>
<g id="a_node2"><a xlink:href="../../d1/d02/cipepath_8h.html#a27b1a3769281dfd32fe6db6d52d5173e" target="_top" xlink:title="Gets the data word length of a Simple Data segment. ">
<polygon fill="none" stroke="black" points="166.5,-507 166.5,-537 309.5,-537 309.5,-507 166.5,-507"/>
<text text-anchor="start" x="174.5" y="-525" font-family="Helvetica,sans-Serif" font-size="10.00">GetPathDataSegmentSimple</text>
<text text-anchor="middle" x="238" y="-514" font-family="Helvetica,sans-Serif" font-size="10.00">DataWordLength</text>
</a>
</g>
</g>
<!-- Node1&#45;&gt;Node2 -->
<g id="edge1" class="edge"><title>Node1&#45;&gt;Node2</title>
<path fill="none" stroke="midnightblue" d="M59.2122,-261.7C63.2237,-309.336 80.1536,-431.646 150,-497 154.82,-501.51 160.4,-505.213 166.361,-508.252"/>
<polygon fill="midnightblue" stroke="midnightblue" points="62.687,-261.228 58.4609,-251.513 55.706,-261.743 62.687,-261.228"/>
</g>
<!-- Node3 -->
<g id="node3" class="node"><title>Node3</title>
<g id="a_node3"><a xlink:href="../../d1/d02/cipepath_8h.html#adf48f3b41518803540b0414dcf5adb01" target="_top" xlink:title="Gets the Logical Format of a Logical Segment EPath message. ">
<polygon fill="none" stroke="black" points="161.5,-458 161.5,-488 314.5,-488 314.5,-458 161.5,-458"/>
<text text-anchor="start" x="169.5" y="-476" font-family="Helvetica,sans-Serif" font-size="10.00">GetPathLogicalSegmentLogical</text>
<text text-anchor="middle" x="238" y="-465" font-family="Helvetica,sans-Serif" font-size="10.00">Format</text>
</a>
</g>
</g>
<!-- Node1&#45;&gt;Node3 -->
<g id="edge2" class="edge"><title>Node1&#45;&gt;Node3</title>
<path fill="none" stroke="midnightblue" d="M61.5984,-261.556C69.9318,-301.39 94.2612,-392.431 150,-443 156.745,-449.119 164.799,-454.001 173.245,-457.892"/>
<polygon fill="midnightblue" stroke="midnightblue" points="64.9933,-260.681 59.6211,-251.549 58.126,-262.038 64.9933,-260.681"/>
</g>
<!-- Node5 -->
<g id="node5" class="node"><title>Node5</title>
<g id="a_node5"><a xlink:href="../../d5/d35/cipconnectionmanager_8c.html#ad7b34359aea58ef8d4e77008ea53098f" target="_top" xlink:title="Parse the connection path of a forward open request. ">
<polygon fill="none" stroke="black" points="964,-344.5 964,-363.5 1076,-363.5 1076,-344.5 964,-344.5"/>
<text text-anchor="middle" x="1020" y="-351.5" font-family="Helvetica,sans-Serif" font-size="10.00">ParseConnectionPath</text>
</a>
</g>
</g>
<!-- Node1&#45;&gt;Node5 -->
<g id="edge25" class="edge"><title>Node1&#45;&gt;Node5</title>
<path fill="none" stroke="midnightblue" d="M66.7217,-261.146C80.289,-288.521 109.197,-338.167 150,-362 232.171,-409.996 267.141,-384.422 362,-392 612.776,-412.035 681.115,-433.349 928,-385 952.077,-380.285 978.508,-370.763 996.651,-363.51"/>
<polygon fill="midnightblue" stroke="midnightblue" points="69.7477,-259.36 62.2801,-251.844 63.4309,-262.377 69.7477,-259.36"/>
</g>
<!-- Node7 -->
<g id="node7" class="node"><title>Node7</title>
<g id="a_node7"><a xlink:href="../../d1/d02/cipepath_8h.html#a4ba7b528ebba012c609a29069030e54b" target="_top" xlink:title="Gets the Logical Type of an EPath Logical Segment message. ">
<polygon fill="none" stroke="black" points="150.5,-333.5 150.5,-352.5 325.5,-352.5 325.5,-333.5 150.5,-333.5"/>
<text text-anchor="middle" x="238" y="-340.5" font-family="Helvetica,sans-Serif" font-size="10.00">GetPathLogicalSegmentLogicalType</text>
</a>
</g>
</g>
<!-- Node1&#45;&gt;Node7 -->
<g id="edge6" class="edge"><title>Node1&#45;&gt;Node7</title>
<path fill="none" stroke="midnightblue" d="M75.7478,-258.557C93.4298,-274.331 121.922,-297.855 150,-313 165.89,-321.571 184.703,-328.42 200.763,-333.398"/>
<polygon fill="midnightblue" stroke="midnightblue" points="77.7409,-255.64 67.9851,-251.507 73.0347,-260.821 77.7409,-255.64"/>
</g>
<!-- Node9 -->
<g id="node9" class="node"><title>Node9</title>
<g id="a_node9"><a xlink:href="../../d1/d02/cipepath_8h.html#a73db576275384cc722a8346c4674a8db" target="_top" xlink:title="Gets the Special Type Logical Type of a Logical Segment EPath message. ">
<polygon fill="none" stroke="black" points="372.5,-284 372.5,-314 527.5,-314 527.5,-284 372.5,-284"/>
<text text-anchor="start" x="380.5" y="-302" font-family="Helvetica,sans-Serif" font-size="10.00">GetPathLogicalSegmentSpecial</text>
<text text-anchor="middle" x="450" y="-291" font-family="Helvetica,sans-Serif" font-size="10.00">TypeLogicalType</text>
</a>
</g>
</g>
<!-- Node1&#45;&gt;Node9 -->
<g id="edge15" class="edge"><title>Node1&#45;&gt;Node9</title>
<path fill="none" stroke="midnightblue" d="M113.633,-253.475C125.604,-255.778 138.203,-258.079 150,-260 225.307,-272.266 311.783,-283.206 372.3,-290.355"/>
<polygon fill="midnightblue" stroke="midnightblue" points="114.242,-250.028 103.757,-251.547 112.901,-256.898 114.242,-250.028"/>
</g>
<!-- Node12 -->
<g id="node12" class="node"><title>Node12</title>
<g id="a_node12"><a xlink:href="../../d1/d02/cipepath_8h.html#af415c4c27f4de757ec66ef9a1fa91be9" target="_top" xlink:title="Gets the Production Inhibit Time in Microseconds. ">
<polygon fill="none" stroke="black" points="362.5,-235 362.5,-265 537.5,-265 537.5,-235 362.5,-235"/>
<text text-anchor="start" x="370.5" y="-253" font-family="Helvetica,sans-Serif" font-size="10.00">GetPathNetworkSegmentProduction</text>
<text text-anchor="middle" x="450" y="-242" font-family="Helvetica,sans-Serif" font-size="10.00">InhibitTimeInMicroseconds</text>
</a>
</g>
</g>
<!-- Node1&#45;&gt;Node12 -->
<g id="edge16" class="edge"><title>Node1&#45;&gt;Node12</title>
<path fill="none" stroke="midnightblue" d="M123.806,-243.346C189.317,-244.687 290.226,-246.751 362.252,-248.225"/>
<polygon fill="midnightblue" stroke="midnightblue" points="123.675,-239.843 113.606,-243.138 123.532,-246.842 123.675,-239.843"/>
</g>
<!-- Node13 -->
<g id="node13" class="node"><title>Node13</title>
<g id="a_node13"><a xlink:href="../../d1/d02/cipepath_8h.html#a622782ef5d9554ed97cf6191075a52b6" target="_top" xlink:title="Gets the Production Inhibit Time in Milliseconds. ">
<polygon fill="none" stroke="black" points="362.5,-147 362.5,-177 537.5,-177 537.5,-147 362.5,-147"/>
<text text-anchor="start" x="370.5" y="-165" font-family="Helvetica,sans-Serif" font-size="10.00">GetPathNetworkSegmentProduction</text>
<text text-anchor="middle" x="450" y="-154" font-family="Helvetica,sans-Serif" font-size="10.00">InhibitTimeInMilliseconds</text>
</a>
</g>
</g>
<!-- Node1&#45;&gt;Node13 -->
<g id="edge17" class="edge"><title>Node1&#45;&gt;Node13</title>
<path fill="none" stroke="midnightblue" d="M86.5043,-228.035C104.352,-219.848 128.052,-209.971 150,-204 220.181,-184.907 302.12,-174.173 362.455,-168.345"/>
<polygon fill="midnightblue" stroke="midnightblue" points="84.8107,-224.964 77.2392,-232.375 87.7797,-231.303 84.8107,-224.964"/>
</g>
<!-- Node14 -->
<g id="node14" class="node"><title>Node14</title>
<g id="a_node14"><a xlink:href="../../d1/d02/cipepath_8h.html#a8b23b9db19fa379a44d29b62ee1a6337" target="_top" xlink:title="Gets the Network Segment Subtype of a EPatch Network Segement EPath message. ">
<polygon fill="none" stroke="black" points="156,-213.5 156,-232.5 320,-232.5 320,-213.5 156,-213.5"/>
<text text-anchor="middle" x="238" y="-220.5" font-family="Helvetica,sans-Serif" font-size="10.00">GetPathNetworkSegmentSubtype</text>
</a>
</g>
</g>
<!-- Node1&#45;&gt;Node14 -->
<g id="edge18" class="edge"><title>Node1&#45;&gt;Node14</title>
<path fill="none" stroke="midnightblue" d="M123.86,-235.009C134.239,-233.908 145.075,-232.757 155.753,-231.624"/>
<polygon fill="midnightblue" stroke="midnightblue" points="123.23,-231.556 113.656,-236.092 123.969,-238.517 123.23,-231.556"/>
</g>
<!-- Node15 -->
<g id="node15" class="node"><title>Node15</title>
<g id="a_node15"><a xlink:href="../../d1/d02/cipepath_8h.html#ac6e66ab4f22749d2e736cec6c5fb97f4" target="_top" xlink:title="Only to be used on Port Segments. Returns the Port Identifier. ">
<polygon fill="none" stroke="black" points="155.5,-137.5 155.5,-156.5 320.5,-156.5 320.5,-137.5 155.5,-137.5"/>
<text text-anchor="middle" x="238" y="-144.5" font-family="Helvetica,sans-Serif" font-size="10.00">GetPathPortSegmentPortIdentifier</text>
</a>
</g>
</g>
<!-- Node1&#45;&gt;Node15 -->
<g id="edge22" class="edge"><title>Node1&#45;&gt;Node15</title>
<path fill="none" stroke="midnightblue" d="M75.2602,-225.313C92.7678,-209.246 121.304,-185.332 150,-171 162.195,-164.909 176.149,-160.186 189.258,-156.605"/>
<polygon fill="midnightblue" stroke="midnightblue" points="72.5018,-223.102 67.5991,-232.494 77.2888,-228.209 72.5018,-223.102"/>
</g>
<!-- Node17 -->
<g id="node17" class="node"><title>Node17</title>
<g id="a_node17"><a xlink:href="../../d1/d02/cipepath_8h.html#a9ba09ee71090f214ffe092f6f4b3f00e" target="_top" xlink:title="Gets the Extended Format subtype of a Symbolic Segment EPath message. ">
<polygon fill="none" stroke="black" points="151.5,-88 151.5,-118 324.5,-118 324.5,-88 151.5,-88"/>
<text text-anchor="start" x="159.5" y="-106" font-family="Helvetica,sans-Serif" font-size="10.00">GetPathSymbolicSegmentExtended</text>
<text text-anchor="middle" x="238" y="-95" font-family="Helvetica,sans-Serif" font-size="10.00">Format</text>
</a>
</g>
</g>
<!-- Node1&#45;&gt;Node17 -->
<g id="edge24" class="edge"><title>Node1&#45;&gt;Node17</title>
<path fill="none" stroke="midnightblue" d="M68.0492,-223.433C82.7202,-198.084 112.395,-152.951 150,-128 155.762,-124.177 162.113,-120.93 168.681,-118.173"/>
<polygon fill="midnightblue" stroke="midnightblue" points="64.8644,-221.956 63.0164,-232.389 70.9668,-225.386 64.8644,-221.956"/>
</g>
<!-- Node18 -->
<g id="node18" class="node"><title>Node18</title>
<g id="a_node18"><a xlink:href="../../d1/d02/cipepath_8h.html#a57fd1c8eec1417d236293fecd5eeb76f" target="_top" xlink:title="SetPathLogicalSegmentLogical\lFormat">
<polygon fill="none" stroke="black" points="162,-39 162,-69 314,-69 314,-39 162,-39"/>
<text text-anchor="start" x="170" y="-57" font-family="Helvetica,sans-Serif" font-size="10.00">SetPathLogicalSegmentLogical</text>
<text text-anchor="middle" x="238" y="-46" font-family="Helvetica,sans-Serif" font-size="10.00">Format</text>
</a>
</g>
</g>
<!-- Node1&#45;&gt;Node18 -->
<g id="edge26" class="edge"><title>Node1&#45;&gt;Node18</title>
<path fill="none" stroke="midnightblue" d="M63.5402,-222.267C74.2865,-187.674 101.295,-116.142 150,-78 154.441,-74.5222 159.353,-71.548 164.517,-69.0044"/>
<polygon fill="midnightblue" stroke="midnightblue" points="60.1084,-221.529 60.6156,-232.112 66.8185,-223.523 60.1084,-221.529"/>
</g>
<!-- Node20 -->
<g id="node20" class="node"><title>Node20</title>
<g id="a_node20"><a xlink:href="../../d1/d02/cipepath_8h.html#a92013da4716b44a660f776539d3954e9" target="_top" xlink:title="SetPathLogicalSegmentLogicalType">
<polygon fill="none" stroke="black" points="151,-0.5 151,-19.5 325,-19.5 325,-0.5 151,-0.5"/>
<text text-anchor="middle" x="238" y="-7.5" font-family="Helvetica,sans-Serif" font-size="10.00">SetPathLogicalSegmentLogicalType</text>
</a>
</g>
</g>
<!-- Node1&#45;&gt;Node20 -->
<g id="edge28" class="edge"><title>Node1&#45;&gt;Node20</title>
<path fill="none" stroke="midnightblue" d="M60.5199,-222.144C67.0099,-179.679 88.3521,-79.7813 150,-29 154.654,-25.1665 159.909,-22.06 165.474,-19.548"/>
<polygon fill="midnightblue" stroke="midnightblue" points="57.05,-221.685 59.1177,-232.076 63.9813,-222.664 57.05,-221.685"/>
</g>
<!-- Node4 -->
<g id="node4" class="node"><title>Node4</title>
<g id="a_node4"><a xlink:href="../../d1/d02/cipepath_8h.html#aec3040041f35cce28dfb9127869e5f6e" target="_top" xlink:title="CipEpathGetLogicalValue">
<polygon fill="none" stroke="black" points="593,-459.5 593,-478.5 721,-478.5 721,-459.5 593,-459.5"/>
<text text-anchor="middle" x="657" y="-466.5" font-family="Helvetica,sans-Serif" font-size="10.00">CipEpathGetLogicalValue</text>
</a>
</g>
</g>
<!-- Node3&#45;&gt;Node4 -->
<g id="edge3" class="edge"><title>Node3&#45;&gt;Node4</title>
<path fill="none" stroke="midnightblue" d="M324.538,-472.179C404.298,-471.414 521.413,-470.291 592.967,-469.605"/>
<polygon fill="midnightblue" stroke="midnightblue" points="324.481,-468.68 314.516,-472.276 324.549,-475.679 324.481,-468.68"/>
</g>
<!-- Node4&#45;&gt;Node5 -->
<g id="edge4" class="edge"><title>Node4&#45;&gt;Node5</title>
<path fill="none" stroke="midnightblue" d="M731.395,-475.239C787.751,-477.023 866.139,-472.829 928,-444 967.274,-425.697 999.516,-383.058 1012.65,-363.777"/>
<polygon fill="midnightblue" stroke="midnightblue" points="731.266,-471.731 721.138,-474.841 730.994,-478.726 731.266,-471.731"/>
</g>
<!-- Node6 -->
<g id="node6" class="node"><title>Node6</title>
<g id="a_node6"><a xlink:href="../../d5/d35/cipconnectionmanager_8c.html#af379a4b383c738a07d8e1ab0a4ac7510" target="_top" xlink:title="Handles a Non Null Non Matching Forward Open Request. ">
<polygon fill="none" stroke="black" points="1112,-339 1112,-369 1252,-369 1252,-339 1112,-339"/>
<text text-anchor="start" x="1120" y="-357" font-family="Helvetica,sans-Serif" font-size="10.00">HandleNonNullNonMatching</text>
<text text-anchor="middle" x="1182" y="-346" font-family="Helvetica,sans-Serif" font-size="10.00">ForwardOpenRequest</text>
</a>
</g>
</g>
<!-- Node5&#45;&gt;Node6 -->
<g id="edge5" class="edge"><title>Node5&#45;&gt;Node6</title>
<path fill="none" stroke="midnightblue" d="M1086.26,-354C1094.74,-354 1103.45,-354 1111.98,-354"/>
<polygon fill="midnightblue" stroke="midnightblue" points="1086.06,-350.5 1076.06,-354 1086.06,-357.5 1086.06,-350.5"/>
</g>
<!-- Node7&#45;&gt;Node5 -->
<g id="edge7" class="edge"><title>Node7&#45;&gt;Node5</title>
<path fill="none" stroke="midnightblue" d="M280.207,-355.237C303.896,-361.633 334.35,-368.785 362,-372 583.866,-397.801 850.572,-373.62 963.823,-360.809"/>
<polygon fill="midnightblue" stroke="midnightblue" points="281.068,-351.844 270.498,-352.556 279.205,-358.591 281.068,-351.844"/>
</g>
<!-- Node8 -->
<g id="node8" class="node"><title>Node8</title>
<g id="a_node8"><a xlink:href="../../d1/d02/cipepath_8h.html#aaa27d71c8b2695044596be034bfbf9b6" target="_top" xlink:title="Gets the Extended Logical Type of a Logical Segment EPath message. ">
<polygon fill="none" stroke="black" points="368,-333 368,-363 532,-363 532,-333 368,-333"/>
<text text-anchor="start" x="376" y="-351" font-family="Helvetica,sans-Serif" font-size="10.00">GetPathLogicalSegmentExtended</text>
<text text-anchor="middle" x="450" y="-340" font-family="Helvetica,sans-Serif" font-size="10.00">LogicalType</text>
</a>
</g>
</g>
<!-- Node7&#45;&gt;Node8 -->
<g id="edge8" class="edge"><title>Node7&#45;&gt;Node8</title>
<path fill="none" stroke="midnightblue" d="M335.871,-345.306C346.607,-345.562 357.457,-345.82 367.968,-346.071"/>
<polygon fill="midnightblue" stroke="midnightblue" points="335.708,-341.802 325.627,-345.063 335.541,-348.8 335.708,-341.802"/>
</g>
<!-- Node7&#45;&gt;Node9 -->
<g id="edge9" class="edge"><title>Node7&#45;&gt;Node9</title>
<path fill="none" stroke="midnightblue" d="M294.37,-331.399C319.699,-326.092 350.032,-319.736 377.097,-314.065"/>
<polygon fill="midnightblue" stroke="midnightblue" points="293.637,-327.976 284.567,-333.453 295.072,-334.827 293.637,-327.976"/>
</g>
<!-- Node9&#45;&gt;Node5 -->
<g id="edge10" class="edge"><title>Node9&#45;&gt;Node5</title>
<path fill="none" stroke="midnightblue" d="M530.019,-315.908C544.593,-318.601 559.717,-321.116 574,-323 713.738,-341.429 879.704,-349.323 963.976,-352.346"/>
<polygon fill="midnightblue" stroke="midnightblue" points="530.51,-312.439 520.034,-314.02 529.21,-319.317 530.51,-312.439"/>
</g>
<!-- Node10 -->
<g id="node10" class="node"><title>Node10</title>
<g id="a_node10"><a xlink:href="../../d1/d02/cipepath_8h.html#a47d5d40a1e8a862c875efbfe7d49d059" target="_top" xlink:title="Gets the Electronic Key format of a Logical Segment Special Type EPath message. ">
<polygon fill="none" stroke="black" points="574,-284 574,-314 740,-314 740,-284 574,-284"/>
<text text-anchor="start" x="582" y="-302" font-family="Helvetica,sans-Serif" font-size="10.00">GetPathLogicalSegmentElectronic</text>
<text text-anchor="middle" x="657" y="-291" font-family="Helvetica,sans-Serif" font-size="10.00">KeyFormat</text>
</a>
</g>
</g>
<!-- Node9&#45;&gt;Node10 -->
<g id="edge11" class="edge"><title>Node9&#45;&gt;Node10</title>
<path fill="none" stroke="midnightblue" d="M537.652,-299C549.69,-299 562.027,-299 573.977,-299"/>
<polygon fill="midnightblue" stroke="midnightblue" points="537.626,-295.5 527.626,-299 537.626,-302.5 537.626,-295.5"/>
</g>
<!-- Node10&#45;&gt;Node5 -->
<g id="edge12" class="edge"><title>Node10&#45;&gt;Node5</title>
<path fill="none" stroke="midnightblue" d="M725.888,-281.917C781.653,-271.054 861.929,-262.783 928,-285 963.33,-296.88 995.846,-328.523 1010.63,-344.496"/>
<polygon fill="midnightblue" stroke="midnightblue" points="724.874,-278.551 715.769,-283.968 726.265,-285.411 724.874,-278.551"/>
</g>
<!-- Node11 -->
<g id="node11" class="node"><title>Node11</title>
<g id="a_node11"><a xlink:href="../../d1/d02/cipepath_8h.html#a8194b2888502980a0c2b3c15aee9722a" target="_top" xlink:title="Gets the data for an Electronic Key of format 4 from the EPath message. ">
<polygon fill="none" stroke="black" points="776,-295 776,-325 928,-325 928,-295 776,-295"/>
<text text-anchor="start" x="784" y="-313" font-family="Helvetica,sans-Serif" font-size="10.00">GetElectronicKeyFormat4From</text>
<text text-anchor="middle" x="852" y="-302" font-family="Helvetica,sans-Serif" font-size="10.00">Message</text>
</a>
</g>
</g>
<!-- Node10&#45;&gt;Node11 -->
<g id="edge13" class="edge"><title>Node10&#45;&gt;Node11</title>
<path fill="none" stroke="midnightblue" d="M750.225,-304.256C758.857,-304.748 767.535,-305.243 775.982,-305.724"/>
<polygon fill="midnightblue" stroke="midnightblue" points="750.312,-300.756 740.129,-303.681 749.914,-307.744 750.312,-300.756"/>
</g>
<!-- Node11&#45;&gt;Node5 -->
<g id="edge14" class="edge"><title>Node11&#45;&gt;Node5</title>
<path fill="none" stroke="midnightblue" d="M919.473,-327.619C941.111,-333.355 964.311,-339.504 982.864,-344.422"/>
<polygon fill="midnightblue" stroke="midnightblue" points="920.226,-324.198 909.663,-325.019 918.433,-330.965 920.226,-324.198"/>
</g>
<!-- Node14&#45;&gt;Node5 -->
<g id="edge19" class="edge"><title>Node14&#45;&gt;Node5</title>
<path fill="none" stroke="midnightblue" d="M305.003,-212.041C432.353,-194.067 717.932,-169.357 928,-267 966.452,-284.873 998.885,-325.62 1012.34,-344.308"/>
<polygon fill="midnightblue" stroke="midnightblue" points="304.407,-208.591 295.01,-213.484 305.407,-215.519 304.407,-208.591"/>
</g>
<!-- Node14&#45;&gt;Node12 -->
<g id="edge21" class="edge"><title>Node14&#45;&gt;Node12</title>
<path fill="none" stroke="midnightblue" d="M323.25,-233.832C336.119,-235.487 349.421,-237.197 362.341,-238.858"/>
<polygon fill="midnightblue" stroke="midnightblue" points="323.403,-230.323 313.038,-232.519 322.51,-237.266 323.403,-230.323"/>
</g>
<!-- Node14&#45;&gt;Node13 -->
<g id="edge20" class="edge"><title>Node14&#45;&gt;Node13</title>
<path fill="none" stroke="midnightblue" d="M284.189,-210.747C297.66,-207.037 312.443,-202.908 326,-199 350.426,-191.958 377.489,-183.85 399.997,-177.023"/>
<polygon fill="midnightblue" stroke="midnightblue" points="282.904,-207.47 274.187,-213.491 284.756,-214.22 282.904,-207.47"/>
</g>
<!-- Node16 -->
<g id="node16" class="node"><title>Node16</title>
<g id="a_node16"><a xlink:href="../../d1/d02/cipepath_8h.html#a9c346728a5090aea52de63991d9e44dd" target="_top" xlink:title="Only to be used on Port Segments with Extended Port Number. Gets the Extended Port Number...">
<polygon fill="none" stroke="black" points="374.5,-98 374.5,-128 525.5,-128 525.5,-98 374.5,-98"/>
<text text-anchor="start" x="382.5" y="-116" font-family="Helvetica,sans-Serif" font-size="10.00">GetPathPortSegmentExtended</text>
<text text-anchor="middle" x="450" y="-105" font-family="Helvetica,sans-Serif" font-size="10.00">PortNumber</text>
</a>
</g>
</g>
<!-- Node15&#45;&gt;Node16 -->
<g id="edge23" class="edge"><title>Node15&#45;&gt;Node16</title>
<path fill="none" stroke="midnightblue" d="M307.735,-135.871C329.094,-132.413 352.736,-128.586 374.47,-125.067"/>
<polygon fill="midnightblue" stroke="midnightblue" points="307.088,-132.431 297.776,-137.484 308.207,-139.341 307.088,-132.431"/>
</g>
<!-- Node19 -->
<g id="node19" class="node"><title>Node19</title>
<g id="a_node19"><a xlink:href="../../d1/d02/cipepath_8h.html#a22b9f76d4ea85ca54024f5c4f46efd12" target="_top" xlink:title="CipEpathEncodeConnection\lEpath">
<polygon fill="none" stroke="black" points="380,-17 380,-47 520,-47 520,-17 380,-17"/>
<text text-anchor="start" x="388" y="-35" font-family="Helvetica,sans-Serif" font-size="10.00">CipEpathEncodeConnection</text>
<text text-anchor="middle" x="450" y="-24" font-family="Helvetica,sans-Serif" font-size="10.00">Epath</text>
</a>
</g>
</g>
<!-- Node18&#45;&gt;Node19 -->
<g id="edge27" class="edge"><title>Node18&#45;&gt;Node19</title>
<path fill="none" stroke="midnightblue" d="M324.379,-45.0555C342.845,-43.121 362.15,-41.0986 379.9,-39.2391"/>
<polygon fill="midnightblue" stroke="midnightblue" points="323.803,-41.5967 314.222,-46.1196 324.532,-48.5586 323.803,-41.5967"/>
</g>
<!-- Node20&#45;&gt;Node19 -->
<g id="edge29" class="edge"><title>Node20&#45;&gt;Node19</title>
<path fill="none" stroke="midnightblue" d="M335.347,-20.0935C350.339,-21.6641 365.568,-23.2595 379.801,-24.7505"/>
<polygon fill="midnightblue" stroke="midnightblue" points="335.331,-16.5728 325.021,-19.0117 334.602,-23.5347 335.331,-16.5728"/>
</g>
</g>
</svg>
        <g id="navigator" transform="translate(0 0)" fill="#404254">
                <rect fill="#f2f5e9" fill-opacity="0.5" stroke="#606060" stroke-width=".5" x="0" y="0" width="60" height="60"/>
                <use id="zoomplus" xlink:href="#zoomPlus" x="17" y="9" onmousedown="handleZoom(evt,'in')"/>
                <use id="zoomminus" xlink:href="#zoomMin" x="42" y="9" onmousedown="handleZoom(evt,'out')"/>
                <use id="reset" xlink:href="#resetDef" x="30" y="36" onmousedown="handleReset()"/>
                <g id="arrowUp" xlink:href="#dirArrow" transform="translate(30 24)" onmousedown="handlePan(0,-1)">
                  <use xlink:href="#rim" fill="#404040">
                        <set attributeName="fill" to="#808080" begin="arrowUp.mouseover" end="arrowUp.mouseout"/>
                  </use>
                  <path fill="none" stroke="white" stroke-width="1.5" d="M0,-3.0v7 M-2.5,-0.5L0,-3.0L2.5,-0.5"/>
                </g>
                <g id="arrowRight" xlink:href="#dirArrow" transform="rotate(90) translate(36 -43)" onmousedown="handlePan(1,0)">
                  <use xlink:href="#rim" fill="#404040">
                        <set attributeName="fill" to="#808080" begin="arrowRight.mouseover" end="arrowRight.mouseout"/>
                  </use>
                  <path fill="none" stroke="white" stroke-width="1.5" d="M0,-3.0v7 M-2.5,-0.5L0,-3.0L2.5,-0.5"/>
                </g>
                <g id="arrowDown" xlink:href="#dirArrow" transform="rotate(180) translate(-30 -48)" onmousedown="handlePan(0,1)">
                  <use xlink:href="#rim" fill="#404040">
                        <set attributeName="fill" to="#808080" begin="arrowDown.mouseover" end="arrowDown.mouseout"/>
                  </use>
                  <path fill="none" stroke="white" stroke-width="1.5" d="M0,-3.0v7 M-2.5,-0.5L0,-3.0L2.5,-0.5"/>
                </g>
                <g id="arrowLeft" xlink:href="#dirArrow" transform="rotate(270) translate(-36 17)" onmousedown="handlePan(-1,0)">
                  <use xlink:href="#rim" fill="#404040">
                        <set attributeName="fill" to="#808080" begin="arrowLeft.mouseover" end="arrowLeft.mouseout"/>
                  </use>
                  <path fill="none" stroke="white" stroke-width="1.5" d="M0,-3.0v7 M-2.5,-0.5L0,-3.0L2.5,-0.5"/>
                </g>
        </g>
        <svg viewBox="0 0 15 15" width="100%" height="30px" preserveAspectRatio="xMaxYMin meet">
         <g id="arrow_out" transform="scale(0.3 0.3)">
          <a xlink:href="cipepath_8c_a7a8c1fe3015897c8552ec89e9ab3d39f_icgraph_org.svg" target="_base">
           <rect id="button" ry="5" rx="5" y="6" x="6" height="38" width="38"
                fill="#f2f5e9" fill-opacity="0.5" stroke="#606060" stroke-width="1.0"/>
           <path id="arrow"
             d="M 11.500037,31.436501 C 11.940474,20.09759 22.043105,11.32322 32.158766,21.979434 L 37.068811,17.246167 C 37.068811,17.246167 37.088388,32 37.088388,32 L 22.160133,31.978069 C 22.160133,31.978069 26.997745,27.140456 26.997745,27.140456 C 18.528582,18.264221 13.291696,25.230495 11.500037,31.436501 z"
             style="fill:#404040;"/>
          </a>
         </g>
        </svg>
</svg>
