<?xml version="1.0" encoding="UTF-8" standalone="no"?>
<!DOCTYPE svg PUBLIC "-//W3C//DTD SVG 1.1//EN"
 "http://www.w3.org/Graphics/SVG/1.1/DTD/svg11.dtd">
<!-- Generated by graphviz version 2.36.0 (20140111.2315)
 -->
<!-- Title: src/ports/POSIX/main.c Pages: 1 -->
<!--zoomable 476 -->
<svg id="main" version="1.1" xmlns="http://www.w3.org/2000/svg" xmlns:xlink="http://www.w3.org/1999/xlink" xml:space="preserve" onload="init(evt)">
<style type="text/css"><![CDATA[
.edge:hover path { stroke: red; }
.edge:hover polygon { stroke: red; fill: red; }
]]></style>
<script type="text/javascript"><![CDATA[
var edges = document.getElementsByTagName('g');
if (edges && edges.length) {
  for (var i=0;i<edges.length;i++) {
    if (edges[i].id.substr(0,4)=='edge') {
      edges[i].setAttribute('class','edge');
    }
  }
}
]]></script>
        <defs>
                <circle id="rim" cx="0" cy="0" r="7"/>
                <circle id="rim2" cx="0" cy="0" r="3.5"/>
                <g id="zoomPlus">
                        <use xlink:href="#rim" fill="#404040">
                                <set attributeName="fill" to="#808080" begin="zoomplus.mouseover" end="zoomplus.mouseout"/>
                        </use>
                        <path d="M-4,0h8M0,-4v8" fill="none" stroke="white" stroke-width="1.5" pointer-events="none"/>
                </g>
                <g id="zoomMin">
                        <use xlink:href="#rim" fill="#404040">
                                <set attributeName="fill" to="#808080" begin="zoomminus.mouseover" end="zoomminus.mouseout"/>
                        </use>
                        <path d="M-4,0h8" fill="none" stroke="white" stroke-width="1.5" pointer-events="none"/>
                </g>
                <g id="dirArrow">
                        <path fill="none" stroke="white" stroke-width="1.5" d="M0,-3.0v7 M-2.5,-0.5L0,-3.0L2.5,-0.5"/>
                </g>
               <g id="resetDef">
                       <use xlink:href="#rim2" fill="#404040">
                               <set attributeName="fill" to="#808080" begin="reset.mouseover" end="reset.mouseout"/>
                       </use>
               </g>
        </defs>

<script type="text/javascript">
var viewWidth = 1003;
var viewHeight = 476;
var sectionId = 'dynsection-0';
</script>
<script xlink:href="../../svgpan.js"/>
<svg id="graph" class="graph">
<g id="viewport">
<title>src/ports/POSIX/main.c</title>
<!-- Node1 -->
<g id="node1" class="node"><title>Node1</title>
<polygon fill="#bfbfbf" stroke="black" points="403.5,-448.5 403.5,-467.5 524.5,-467.5 524.5,-448.5 403.5,-448.5"/>
<text text-anchor="middle" x="464" y="-455.5" font-family="Helvetica,sans-Serif" font-size="10.00">src/ports/POSIX/main.c</text>
</g>
<!-- Node2 -->
<g id="node2" class="node"><title>Node2</title>
<polygon fill="none" stroke="#bfbfbf" points="242,-336.5 242,-355.5 288,-355.5 288,-336.5 242,-336.5"/>
<text text-anchor="middle" x="265" y="-343.5" font-family="Helvetica,sans-Serif" font-size="10.00">stdio.h</text>
</g>
<!-- Node1&#45;&gt;Node2 -->
<g id="edge1" class="edge"><title>Node1&#45;&gt;Node2</title>
<path fill="none" stroke="midnightblue" d="M448.052,-448.439C431.315,-439.434 404.255,-424.819 381,-412 349.194,-394.468 312.671,-373.936 289.241,-360.712"/>
<polygon fill="midnightblue" stroke="midnightblue" points="290.777,-357.56 280.348,-355.69 287.334,-363.655 290.777,-357.56"/>
</g>
<!-- Node3 -->
<g id="node3" class="node"><title>Node3</title>
<polygon fill="none" stroke="#bfbfbf" points="306,-336.5 306,-355.5 354,-355.5 354,-336.5 306,-336.5"/>
<text text-anchor="middle" x="330" y="-343.5" font-family="Helvetica,sans-Serif" font-size="10.00">stdlib.h</text>
</g>
<!-- Node1&#45;&gt;Node3 -->
<g id="edge2" class="edge"><title>Node1&#45;&gt;Node3</title>
<path fill="none" stroke="midnightblue" d="M453.485,-448.368C430.784,-429.733 376.939,-385.532 348.436,-362.134"/>
<polygon fill="midnightblue" stroke="midnightblue" points="350.416,-359.231 340.466,-355.591 345.974,-364.642 350.416,-359.231"/>
</g>
<!-- Node4 -->
<g id="node4" class="node"><title>Node4</title>
<polygon fill="none" stroke="#bfbfbf" points="945,-392.5 945,-411.5 995,-411.5 995,-392.5 945,-392.5"/>
<text text-anchor="middle" x="970" y="-399.5" font-family="Helvetica,sans-Serif" font-size="10.00">signal.h</text>
</g>
<!-- Node1&#45;&gt;Node4 -->
<g id="edge3" class="edge"><title>Node1&#45;&gt;Node4</title>
<path fill="none" stroke="midnightblue" d="M524.777,-453.687C614.202,-448.239 786.293,-435.565 931,-412 932.273,-411.793 933.567,-411.568 934.871,-411.33"/>
<polygon fill="midnightblue" stroke="midnightblue" points="935.814,-414.71 944.92,-409.296 934.425,-407.849 935.814,-414.71"/>
</g>
<!-- Node5 -->
<g id="node5" class="node"><title>Node5</title>
<g id="a_node5"><a xlink:href="../../da/dc2/generic__networkhandler_8h.html" target="_top" xlink:title="generic_networkhandler.h">
<polygon fill="none" stroke="black" points="425,-392.5 425,-411.5 553,-411.5 553,-392.5 425,-392.5"/>
<text text-anchor="middle" x="489" y="-399.5" font-family="Helvetica,sans-Serif" font-size="10.00">generic_networkhandler.h</text>
</a>
</g>
</g>
<!-- Node1&#45;&gt;Node5 -->
<g id="edge4" class="edge"><title>Node1&#45;&gt;Node5</title>
<path fill="none" stroke="midnightblue" d="M468.128,-448.083C471.514,-440.77 476.416,-430.181 480.619,-421.103"/>
<polygon fill="midnightblue" stroke="midnightblue" points="483.923,-422.296 484.949,-411.751 477.571,-419.355 483.923,-422.296"/>
</g>
<!-- Node8 -->
<g id="node8" class="node"><title>Node8</title>
<g id="a_node8"><a xlink:href="../../d4/d38/opener__api_8h.html" target="_top" xlink:title="opener_api.h">
<polygon fill="none" stroke="black" points="655,-168.5 655,-187.5 727,-187.5 727,-168.5 655,-168.5"/>
<text text-anchor="middle" x="691" y="-175.5" font-family="Helvetica,sans-Serif" font-size="10.00">opener_api.h</text>
</a>
</g>
</g>
<!-- Node1&#45;&gt;Node8 -->
<g id="edge50" class="edge"><title>Node1&#45;&gt;Node8</title>
<path fill="none" stroke="midnightblue" d="M524.872,-449.614C621.209,-436.205 798,-403.853 798,-347 798,-347 798,-347 798,-289 798,-243.413 750.197,-209.624 718.494,-192.227"/>
<polygon fill="midnightblue" stroke="midnightblue" points="720.116,-189.125 709.638,-187.559 716.852,-195.318 720.116,-189.125"/>
</g>
<!-- Node21 -->
<g id="node21" class="node"><title>Node21</title>
<g id="a_node21"><a xlink:href="../../d1/d6c/cipconnectionobject_8h.html" target="_top" xlink:title="cipconnectionobject.h">
<polygon fill="none" stroke="black" points="458.5,-224.5 458.5,-243.5 569.5,-243.5 569.5,-224.5 458.5,-224.5"/>
<text text-anchor="middle" x="514" y="-231.5" font-family="Helvetica,sans-Serif" font-size="10.00">cipconnectionobject.h</text>
</a>
</g>
</g>
<!-- Node1&#45;&gt;Node21 -->
<g id="edge61" class="edge"><title>Node1&#45;&gt;Node21</title>
<path fill="none" stroke="midnightblue" d="M403.309,-449.077C320.112,-435.581 185.994,-402.845 233,-336 281.431,-267.128 381.511,-244.993 448.212,-238.012"/>
<polygon fill="midnightblue" stroke="midnightblue" points="448.589,-241.492 458.209,-237.053 447.921,-234.524 448.589,-241.492"/>
</g>
<!-- Node22 -->
<g id="node22" class="node"><title>Node22</title>
<g id="a_node22"><a xlink:href="../../d9/d31/doublylinkedlist_8h.html" target="_top" xlink:title="doublylinkedlist.h">
<polygon fill="none" stroke="black" points="788,-168.5 788,-187.5 880,-187.5 880,-168.5 788,-168.5"/>
<text text-anchor="middle" x="834" y="-175.5" font-family="Helvetica,sans-Serif" font-size="10.00">doublylinkedlist.h</text>
</a>
</g>
</g>
<!-- Node1&#45;&gt;Node22 -->
<g id="edge60" class="edge"><title>Node1&#45;&gt;Node22</title>
<path fill="none" stroke="midnightblue" d="M524.789,-453.523C640.059,-445.258 879,-419.394 879,-347 879,-347 879,-347 879,-289 879,-253.93 859.163,-216.939 845.831,-196.037"/>
<polygon fill="midnightblue" stroke="midnightblue" points="848.7,-194.031 840.257,-187.63 842.866,-197.899 848.7,-194.031"/>
</g>
<!-- Node27 -->
<g id="node27" class="node"><title>Node27</title>
<g id="a_node27"><a xlink:href="../../db/d14/cipcommon_8h.html" target="_top" xlink:title="cipcommon.h">
<polygon fill="none" stroke="black" points="292.5,-168.5 292.5,-187.5 367.5,-187.5 367.5,-168.5 292.5,-168.5"/>
<text text-anchor="middle" x="330" y="-175.5" font-family="Helvetica,sans-Serif" font-size="10.00">cipcommon.h</text>
</a>
</g>
</g>
<!-- Node1&#45;&gt;Node27 -->
<g id="edge51" class="edge"><title>Node1&#45;&gt;Node27</title>
<path fill="none" stroke="midnightblue" d="M403.459,-452.229C344.307,-446.34 259.795,-434.255 236,-412 170.158,-350.419 271.9,-236.402 313.546,-194.755"/>
<polygon fill="midnightblue" stroke="midnightblue" points="316.109,-197.144 320.788,-187.638 311.203,-192.151 316.109,-197.144"/>
</g>
<!-- Node28 -->
<g id="node28" class="node"><title>Node28</title>
<g id="a_node28"><a xlink:href="../../d1/d1b/trace_8h.html" target="_top" xlink:title="Tracing infrastructure for OpENer. ">
<polygon fill="none" stroke="black" points="917.5,-280.5 917.5,-299.5 964.5,-299.5 964.5,-280.5 917.5,-280.5"/>
<text text-anchor="middle" x="941" y="-287.5" font-family="Helvetica,sans-Serif" font-size="10.00">trace.h</text>
</a>
</g>
</g>
<!-- Node1&#45;&gt;Node28 -->
<g id="edge54" class="edge"><title>Node1&#45;&gt;Node28</title>
<path fill="none" stroke="midnightblue" d="M524.791,-454.087C636.183,-448.248 864.284,-433.777 893,-412 925.458,-387.385 936.005,-337.446 939.405,-310.048"/>
<polygon fill="midnightblue" stroke="midnightblue" points="942.915,-310.133 940.467,-299.825 935.952,-309.41 942.915,-310.133"/>
</g>
<!-- Node29 -->
<g id="node29" class="node"><title>Node29</title>
<g id="a_node29"><a xlink:href="../../dd/d6e/POSIX_2networkconfig_8h.html" target="_top" xlink:title="networkconfig.h">
<polygon fill="none" stroke="black" points="62,-392.5 62,-411.5 148,-411.5 148,-392.5 62,-392.5"/>
<text text-anchor="middle" x="105" y="-399.5" font-family="Helvetica,sans-Serif" font-size="10.00">networkconfig.h</text>
</a>
</g>
</g>
<!-- Node1&#45;&gt;Node29 -->
<g id="edge56" class="edge"><title>Node1&#45;&gt;Node29</title>
<path fill="none" stroke="midnightblue" d="M405.8,-448.481C344.968,-439.541 246.751,-425.005 162,-412 160.747,-411.808 159.478,-411.612 158.199,-411.415"/>
<polygon fill="midnightblue" stroke="midnightblue" points="158.673,-407.947 148.254,-409.87 157.598,-414.864 158.673,-407.947"/>
</g>
<!-- Node5&#45;&gt;Node2 -->
<g id="edge5" class="edge"><title>Node5&#45;&gt;Node2</title>
<path fill="none" stroke="midnightblue" d="M450.264,-392.447C413.448,-384.2 356.305,-371.1 297.817,-356.128"/>
<polygon fill="midnightblue" stroke="midnightblue" points="298.596,-352.714 288.039,-353.61 296.851,-359.493 298.596,-352.714"/>
</g>
<!-- Node5&#45;&gt;Node3 -->
<g id="edge7" class="edge"><title>Node5&#45;&gt;Node3</title>
<path fill="none" stroke="midnightblue" d="M463.806,-392.444C436.743,-383.252 393.596,-368.599 363.645,-358.426"/>
<polygon fill="midnightblue" stroke="midnightblue" points="364.63,-355.065 354.035,-355.163 362.379,-361.693 364.63,-355.065"/>
</g>
<!-- Node6 -->
<g id="node6" class="node"><title>Node6</title>
<polygon fill="none" stroke="#bfbfbf" points="486.5,-336.5 486.5,-355.5 535.5,-355.5 535.5,-336.5 486.5,-336.5"/>
<text text-anchor="middle" x="511" y="-343.5" font-family="Helvetica,sans-Serif" font-size="10.00">string.h</text>
</g>
<!-- Node5&#45;&gt;Node6 -->
<g id="edge6" class="edge"><title>Node5&#45;&gt;Node6</title>
<path fill="none" stroke="midnightblue" d="M492.633,-392.083C495.612,-384.77 499.926,-374.181 503.625,-365.103"/>
<polygon fill="midnightblue" stroke="midnightblue" points="506.903,-366.333 507.435,-355.751 500.42,-363.691 506.903,-366.333"/>
</g>
<!-- Node7 -->
<g id="node7" class="node"><title>Node7</title>
<polygon fill="none" stroke="#bfbfbf" points="553.5,-336.5 553.5,-355.5 600.5,-355.5 600.5,-336.5 553.5,-336.5"/>
<text text-anchor="middle" x="577" y="-343.5" font-family="Helvetica,sans-Serif" font-size="10.00">errno.h</text>
</g>
<!-- Node5&#45;&gt;Node7 -->
<g id="edge8" class="edge"><title>Node5&#45;&gt;Node7</title>
<path fill="none" stroke="midnightblue" d="M503.139,-392.324C516.866,-383.9 537.936,-370.971 554.064,-361.074"/>
<polygon fill="midnightblue" stroke="midnightblue" points="556.204,-363.868 562.896,-355.655 552.543,-357.902 556.204,-363.868"/>
</g>
<!-- Node5&#45;&gt;Node8 -->
<g id="edge9" class="edge"><title>Node5&#45;&gt;Node8</title>
<path fill="none" stroke="midnightblue" d="M553.25,-396.724C613.287,-391.315 696.894,-379.683 719,-356 760.525,-311.512 722.244,-231.67 701.872,-196.475"/>
<polygon fill="midnightblue" stroke="midnightblue" points="704.819,-194.584 696.682,-187.799 698.812,-198.178 704.819,-194.584"/>
</g>
<!-- Node11 -->
<g id="node11" class="node"><title>Node11</title>
<g id="a_node11"><a xlink:href="../../d7/d69/typedefs_8h.html" target="_top" xlink:title="typedefs.h">
<polygon fill="none" stroke="black" points="233,-56.5 233,-75.5 295,-75.5 295,-56.5 233,-56.5"/>
<text text-anchor="middle" x="264" y="-63.5" font-family="Helvetica,sans-Serif" font-size="10.00">typedefs.h</text>
</a>
</g>
</g>
<!-- Node5&#45;&gt;Node11 -->
<g id="edge24" class="edge"><title>Node5&#45;&gt;Node11</title>
<path fill="none" stroke="midnightblue" d="M469.855,-392.379C450.865,-383.678 421.059,-369.617 396,-356 380.931,-347.812 379.255,-341.469 363,-336 204.282,-282.597 0,-402.462 0,-235 0,-235 0,-235 0,-177 0,-81.7578 148.216,-67.4856 222.537,-66.3158"/>
<polygon fill="midnightblue" stroke="midnightblue" points="222.969,-69.8125 232.94,-66.2302 222.911,-62.8127 222.969,-69.8125"/>
</g>
<!-- Node15 -->
<g id="node15" class="node"><title>Node15</title>
<polygon fill="none" stroke="#bfbfbf" points="659.5,-56.5 659.5,-75.5 750.5,-75.5 750.5,-56.5 659.5,-56.5"/>
<text text-anchor="middle" x="705" y="-63.5" font-family="Helvetica,sans-Serif" font-size="10.00">networkhandler.h</text>
</g>
<!-- Node5&#45;&gt;Node15 -->
<g id="edge45" class="edge"><title>Node5&#45;&gt;Node15</title>
<path fill="none" stroke="midnightblue" d="M553.209,-400.931C606.375,-398.294 682.28,-388.387 740,-356 827.037,-307.163 853.584,-281.307 889,-188 912.245,-126.758 821.957,-93.2919 759.693,-77.8545"/>
<polygon fill="midnightblue" stroke="midnightblue" points="760.502,-74.4494 749.963,-75.5303 758.876,-81.2578 760.502,-74.4494"/>
</g>
<!-- Node19 -->
<g id="node19" class="node"><title>Node19</title>
<g id="a_node19"><a xlink:href="../../d0/dec/endianconv_8h.html" target="_top" xlink:title="Responsible for Endianess conversion. ">
<polygon fill="none" stroke="black" points="66,-224.5 66,-243.5 140,-243.5 140,-224.5 66,-224.5"/>
<text text-anchor="middle" x="103" y="-231.5" font-family="Helvetica,sans-Serif" font-size="10.00">endianconv.h</text>
</a>
</g>
</g>
<!-- Node5&#45;&gt;Node19 -->
<g id="edge25" class="edge"><title>Node5&#45;&gt;Node19</title>
<path fill="none" stroke="midnightblue" d="M482.967,-392.052C473.09,-378.077 452.138,-351.107 428,-336 338.86,-280.21 216.579,-253.176 150.323,-241.88"/>
<polygon fill="midnightblue" stroke="midnightblue" points="150.622,-238.382 140.184,-240.2 149.478,-245.287 150.622,-238.382"/>
</g>
<!-- Node20 -->
<g id="node20" class="node"><title>Node20</title>
<g id="a_node20"><a xlink:href="../../d2/da3/cipconnectionmanager_8h.html" target="_top" xlink:title="cipconnectionmanager.h">
<polygon fill="none" stroke="black" points="595,-280.5 595,-299.5 717,-299.5 717,-280.5 595,-280.5"/>
<text text-anchor="middle" x="656" y="-287.5" font-family="Helvetica,sans-Serif" font-size="10.00">cipconnectionmanager.h</text>
</a>
</g>
</g>
<!-- Node5&#45;&gt;Node20 -->
<g id="edge27" class="edge"><title>Node5&#45;&gt;Node20</title>
<path fill="none" stroke="midnightblue" d="M553.15,-396.193C608.88,-390.525 683.493,-378.826 702,-356 715.468,-339.389 695.865,-319.12 678.239,-305.678"/>
<polygon fill="midnightblue" stroke="midnightblue" points="680.06,-302.676 669.899,-299.674 675.97,-308.357 680.06,-302.676"/>
</g>
<!-- Node25 -->
<g id="node25" class="node"><title>Node25</title>
<g id="a_node25"><a xlink:href="../../d1/dc0/appcontype_8h.html" target="_top" xlink:title="appcontype.h">
<polygon fill="none" stroke="black" points="618.5,-336.5 618.5,-355.5 693.5,-355.5 693.5,-336.5 618.5,-336.5"/>
<text text-anchor="middle" x="656" y="-343.5" font-family="Helvetica,sans-Serif" font-size="10.00">appcontype.h</text>
</a>
</g>
</g>
<!-- Node5&#45;&gt;Node25 -->
<g id="edge46" class="edge"><title>Node5&#45;&gt;Node25</title>
<path fill="none" stroke="midnightblue" d="M515.462,-392.444C543.678,-383.32 588.54,-368.813 619.968,-358.651"/>
<polygon fill="midnightblue" stroke="midnightblue" points="621.224,-361.923 629.662,-355.516 619.07,-355.263 621.224,-361.923"/>
</g>
<!-- Node26 -->
<g id="node26" class="node"><title>Node26</title>
<g id="a_node26"><a xlink:href="../../d1/d84/socket__timer_8h.html" target="_top" xlink:title="socket_timer.h">
<polygon fill="none" stroke="black" points="28.5,-280.5 28.5,-299.5 109.5,-299.5 109.5,-280.5 28.5,-280.5"/>
<text text-anchor="middle" x="69" y="-287.5" font-family="Helvetica,sans-Serif" font-size="10.00">socket_timer.h</text>
</a>
</g>
</g>
<!-- Node5&#45;&gt;Node26 -->
<g id="edge48" class="edge"><title>Node5&#45;&gt;Node26</title>
<path fill="none" stroke="midnightblue" d="M479.848,-392.308C464.112,-377.926 430.298,-349.437 396,-336 370.812,-326.132 204.878,-306.339 119.529,-296.631"/>
<polygon fill="midnightblue" stroke="midnightblue" points="119.865,-293.147 109.534,-295.499 119.077,-300.102 119.865,-293.147"/>
</g>
<!-- Node9 -->
<g id="node9" class="node"><title>Node9</title>
<polygon fill="none" stroke="#bfbfbf" points="752,-112.5 752,-131.5 804,-131.5 804,-112.5 752,-112.5"/>
<text text-anchor="middle" x="778" y="-119.5" font-family="Helvetica,sans-Serif" font-size="10.00">assert.h</text>
</g>
<!-- Node8&#45;&gt;Node9 -->
<g id="edge10" class="edge"><title>Node8&#45;&gt;Node9</title>
<path fill="none" stroke="midnightblue" d="M704.978,-168.324C718.55,-159.9 739.38,-146.971 755.325,-137.074"/>
<polygon fill="midnightblue" stroke="midnightblue" points="757.406,-139.902 764.057,-131.655 753.714,-133.954 757.406,-139.902"/>
</g>
<!-- Node10 -->
<g id="node10" class="node"><title>Node10</title>
<polygon fill="none" stroke="#bfbfbf" points="401,-0.5 401,-19.5 457,-19.5 457,-0.5 401,-0.5"/>
<text text-anchor="middle" x="429" y="-7.5" font-family="Helvetica,sans-Serif" font-size="10.00">stdbool.h</text>
</g>
<!-- Node8&#45;&gt;Node10 -->
<g id="edge11" class="edge"><title>Node8&#45;&gt;Node10</title>
<path fill="none" stroke="midnightblue" d="M683.049,-168.379C671.995,-155.307 654.658,-130.083 667,-112 693.985,-72.4631 790.478,-92.0621 759,-56 721.549,-13.0958 546.344,-9.57485 467.555,-10.2315"/>
<polygon fill="midnightblue" stroke="midnightblue" points="467.062,-6.73674 457.102,-10.3483 467.141,-13.7363 467.062,-6.73674"/>
</g>
<!-- Node8&#45;&gt;Node11 -->
<g id="edge12" class="edge"><title>Node8&#45;&gt;Node11</title>
<path fill="none" stroke="midnightblue" d="M680.913,-168.329C663.605,-153.98 626.569,-125.536 590,-112 492.497,-75.9101 368.889,-68.3902 305.555,-67.059"/>
<polygon fill="midnightblue" stroke="midnightblue" points="305.242,-63.5533 295.185,-66.8857 305.125,-70.5524 305.242,-63.5533"/>
</g>
<!-- Node14 -->
<g id="node14" class="node"><title>Node14</title>
<g id="a_node14"><a xlink:href="../../df/d28/ciptypes_8h.html" target="_top" xlink:title="ciptypes.h">
<polygon fill="none" stroke="black" points="520,-112.5 520,-131.5 582,-131.5 582,-112.5 520,-112.5"/>
<text text-anchor="middle" x="551" y="-119.5" font-family="Helvetica,sans-Serif" font-size="10.00">ciptypes.h</text>
</a>
</g>
</g>
<!-- Node8&#45;&gt;Node14 -->
<g id="edge16" class="edge"><title>Node8&#45;&gt;Node14</title>
<path fill="none" stroke="midnightblue" d="M668.817,-168.444C645.572,-159.478 608.851,-145.314 582.585,-135.183"/>
<polygon fill="midnightblue" stroke="midnightblue" points="583.669,-131.85 573.08,-131.516 581.15,-138.381 583.669,-131.85"/>
</g>
<!-- Node17 -->
<g id="node17" class="node"><title>Node17</title>
<polygon fill="none" stroke="#bfbfbf" points="665,-0.5 665,-19.5 767,-19.5 767,-0.5 665,-0.5"/>
<text text-anchor="middle" x="716" y="-7.5" font-family="Helvetica,sans-Serif" font-size="10.00">opener_user_conf.h</text>
</g>
<!-- Node8&#45;&gt;Node17 -->
<g id="edge23" class="edge"><title>Node8&#45;&gt;Node17</title>
<path fill="none" stroke="midnightblue" d="M727.078,-168.538C759.276,-160.17 802.866,-146.539 813,-132 827.086,-111.79 805.225,-70.738 793,-56 781.294,-41.8874 763.941,-31.202 748.67,-23.793"/>
<polygon fill="midnightblue" stroke="midnightblue" points="750.051,-20.5756 739.501,-19.6019 747.141,-26.9421 750.051,-20.5756"/>
</g>
<!-- Node18 -->
<g id="node18" class="node"><title>Node18</title>
<g id="a_node18"><a xlink:href="../../d6/d52/ciperror_8h.html" target="_top" xlink:title="ciperror.h">
<polygon fill="none" stroke="black" points="676.5,-112.5 676.5,-131.5 733.5,-131.5 733.5,-112.5 676.5,-112.5"/>
<text text-anchor="middle" x="705" y="-119.5" font-family="Helvetica,sans-Serif" font-size="10.00">ciperror.h</text>
</a>
</g>
</g>
<!-- Node8&#45;&gt;Node18 -->
<g id="edge22" class="edge"><title>Node8&#45;&gt;Node18</title>
<path fill="none" stroke="midnightblue" d="M693.312,-168.083C695.167,-160.927 697.835,-150.635 700.154,-141.691"/>
<polygon fill="midnightblue" stroke="midnightblue" points="703.609,-142.309 702.731,-131.751 696.834,-140.553 703.609,-142.309"/>
</g>
<!-- Node11&#45;&gt;Node10 -->
<g id="edge15" class="edge"><title>Node11&#45;&gt;Node10</title>
<path fill="none" stroke="midnightblue" d="M290.145,-56.4435C318.023,-47.3196 362.348,-32.8133 393.4,-22.6509"/>
<polygon fill="midnightblue" stroke="midnightblue" points="394.562,-25.9533 402.978,-19.5164 392.385,-19.3005 394.562,-25.9533"/>
</g>
<!-- Node12 -->
<g id="node12" class="node"><title>Node12</title>
<polygon fill="none" stroke="#bfbfbf" points="299.5,-0.5 299.5,-19.5 358.5,-19.5 358.5,-0.5 299.5,-0.5"/>
<text text-anchor="middle" x="329" y="-7.5" font-family="Helvetica,sans-Serif" font-size="10.00">inttypes.h</text>
</g>
<!-- Node11&#45;&gt;Node12 -->
<g id="edge13" class="edge"><title>Node11&#45;&gt;Node12</title>
<path fill="none" stroke="midnightblue" d="M274.443,-56.324C284.146,-48.2631 298.815,-36.0765 310.5,-26.3695"/>
<polygon fill="midnightblue" stroke="midnightblue" points="312.911,-28.9163 318.367,-19.8339 308.438,-23.532 312.911,-28.9163"/>
</g>
<!-- Node13 -->
<g id="node13" class="node"><title>Node13</title>
<polygon fill="none" stroke="#bfbfbf" points="229,-0.5 229,-19.5 281,-19.5 281,-0.5 229,-0.5"/>
<text text-anchor="middle" x="255" y="-7.5" font-family="Helvetica,sans-Serif" font-size="10.00">stddef.h</text>
</g>
<!-- Node11&#45;&gt;Node13 -->
<g id="edge14" class="edge"><title>Node11&#45;&gt;Node13</title>
<path fill="none" stroke="midnightblue" d="M262.514,-56.083C261.321,-48.9272 259.606,-38.6353 258.115,-29.6911"/>
<polygon fill="midnightblue" stroke="midnightblue" points="261.555,-29.0396 256.459,-19.7511 254.65,-30.1904 261.555,-29.0396"/>
</g>
<!-- Node14&#45;&gt;Node11 -->
<g id="edge17" class="edge"><title>Node14&#45;&gt;Node11</title>
<path fill="none" stroke="midnightblue" d="M519.74,-115.118C467.66,-105.319 363.141,-85.6538 305.144,-74.7414"/>
<polygon fill="midnightblue" stroke="midnightblue" points="305.697,-71.284 295.222,-72.8745 304.402,-78.1633 305.697,-71.284"/>
</g>
<!-- Node14&#45;&gt;Node15 -->
<g id="edge18" class="edge"><title>Node14&#45;&gt;Node15</title>
<path fill="none" stroke="midnightblue" d="M575.402,-112.444C601.197,-103.399 642.077,-89.064 671.018,-78.9158"/>
<polygon fill="midnightblue" stroke="midnightblue" points="672.434,-82.1283 680.712,-75.5164 670.118,-75.5226 672.434,-82.1283"/>
</g>
<!-- Node16 -->
<g id="node16" class="node"><title>Node16</title>
<g id="a_node16"><a xlink:href="../../d8/d2c/enipmessage_8h.html" target="_top" xlink:title="enipmessage.h">
<polygon fill="none" stroke="black" points="558.5,-56.5 558.5,-75.5 641.5,-75.5 641.5,-56.5 558.5,-56.5"/>
<text text-anchor="middle" x="600" y="-63.5" font-family="Helvetica,sans-Serif" font-size="10.00">enipmessage.h</text>
</a>
</g>
</g>
<!-- Node14&#45;&gt;Node16 -->
<g id="edge19" class="edge"><title>Node14&#45;&gt;Node16</title>
<path fill="none" stroke="midnightblue" d="M559.091,-112.083C566.155,-104.298 576.588,-92.8015 585.149,-83.3665"/>
<polygon fill="midnightblue" stroke="midnightblue" points="587.931,-85.5087 592.059,-75.7511 582.747,-80.8047 587.931,-85.5087"/>
</g>
<!-- Node14&#45;&gt;Node17 -->
<g id="edge21" class="edge"><title>Node14&#45;&gt;Node17</title>
<path fill="none" stroke="midnightblue" d="M547.616,-112.38C542.926,-98.8546 536.365,-72.4898 549,-56 562.061,-38.954 612.66,-26.9082 654.772,-19.5965"/>
<polygon fill="midnightblue" stroke="midnightblue" points="655.43,-23.0352 664.713,-17.9292 654.272,-16.1316 655.43,-23.0352"/>
</g>
<!-- Node16&#45;&gt;Node17 -->
<g id="edge20" class="edge"><title>Node16&#45;&gt;Node17</title>
<path fill="none" stroke="midnightblue" d="M618.381,-56.4435C637.216,-47.6751 666.731,-33.9355 688.379,-23.8579"/>
<polygon fill="midnightblue" stroke="midnightblue" points="690.117,-26.9098 697.705,-19.5164 687.162,-20.5637 690.117,-26.9098"/>
</g>
<!-- Node19&#45;&gt;Node11 -->
<g id="edge26" class="edge"><title>Node19&#45;&gt;Node11</title>
<path fill="none" stroke="midnightblue" d="M100.072,-224.246C93.4306,-202.604 79.7491,-145.89 106,-112 120.32,-93.5129 181.122,-80.246 222.983,-73.097"/>
<polygon fill="midnightblue" stroke="midnightblue" points="223.62,-76.5393 232.914,-71.4539 222.477,-69.6332 223.62,-76.5393"/>
</g>
<!-- Node20&#45;&gt;Node8 -->
<g id="edge29" class="edge"><title>Node20&#45;&gt;Node8</title>
<path fill="none" stroke="midnightblue" d="M658.746,-280.368C664.42,-262.537 677.542,-221.295 685.186,-197.272"/>
<polygon fill="midnightblue" stroke="midnightblue" points="688.57,-198.182 688.266,-187.591 681.899,-196.059 688.57,-198.182"/>
</g>
<!-- Node20&#45;&gt;Node11 -->
<g id="edge30" class="edge"><title>Node20&#45;&gt;Node11</title>
<path fill="none" stroke="midnightblue" d="M594.928,-286.434C470.854,-279.805 196.194,-257.448 139,-188 103.343,-144.703 185.196,-100.549 232.836,-79.5657"/>
<polygon fill="midnightblue" stroke="midnightblue" points="234.339,-82.7295 242.146,-75.5666 231.576,-76.2978 234.339,-82.7295"/>
</g>
<!-- Node20&#45;&gt;Node14 -->
<g id="edge31" class="edge"><title>Node20&#45;&gt;Node14</title>
<path fill="none" stroke="midnightblue" d="M650.355,-280.075C633.612,-253.606 584.024,-175.209 561.886,-140.21"/>
<polygon fill="midnightblue" stroke="midnightblue" points="564.723,-138.148 556.42,-131.568 558.807,-141.89 564.723,-138.148"/>
</g>
<!-- Node20&#45;&gt;Node17 -->
<g id="edge28" class="edge"><title>Node20&#45;&gt;Node17</title>
<path fill="none" stroke="midnightblue" d="M663.911,-280.298C682.827,-259.702 732.562,-206.792 779,-168 800.293,-150.213 817.236,-156.634 830,-132 840.82,-111.118 821.733,-65.0096 814,-56 800.501,-40.2732 780.351,-29.733 761.826,-22.8347"/>
<polygon fill="midnightblue" stroke="midnightblue" points="762.926,-19.5116 752.331,-19.551 760.638,-26.1272 762.926,-19.5116"/>
</g>
<!-- Node20&#45;&gt;Node21 -->
<g id="edge32" class="edge"><title>Node20&#45;&gt;Node21</title>
<path fill="none" stroke="midnightblue" d="M633.5,-280.444C609.923,-271.478 572.678,-257.314 546.036,-247.183"/>
<polygon fill="midnightblue" stroke="midnightblue" points="546.986,-243.8 536.395,-243.516 544.498,-250.342 546.986,-243.8"/>
</g>
<!-- Node21&#45;&gt;Node8 -->
<g id="edge36" class="edge"><title>Node21&#45;&gt;Node8</title>
<path fill="none" stroke="midnightblue" d="M542.046,-224.444C572.082,-215.28 619.913,-200.688 653.243,-190.519"/>
<polygon fill="midnightblue" stroke="midnightblue" points="654.542,-193.782 663.085,-187.516 652.499,-187.087 654.542,-193.782"/>
</g>
<!-- Node21&#45;&gt;Node11 -->
<g id="edge33" class="edge"><title>Node21&#45;&gt;Node11</title>
<path fill="none" stroke="midnightblue" d="M458.239,-229.371C397.766,-224.228 306.678,-212.562 283,-188 256.646,-160.662 257.813,-112.587 260.931,-86.0075"/>
<polygon fill="midnightblue" stroke="midnightblue" points="264.445,-86.1442 262.36,-75.7567 257.512,-85.1777 264.445,-86.1442"/>
</g>
<!-- Node21&#45;&gt;Node14 -->
<g id="edge34" class="edge"><title>Node21&#45;&gt;Node14</title>
<path fill="none" stroke="midnightblue" d="M516.903,-224.368C522.901,-206.537 536.773,-165.295 544.854,-141.272"/>
<polygon fill="midnightblue" stroke="midnightblue" points="548.239,-142.185 548.11,-131.591 541.605,-139.954 548.239,-142.185"/>
</g>
<!-- Node21&#45;&gt;Node17 -->
<g id="edge35" class="edge"><title>Node21&#45;&gt;Node17</title>
<path fill="none" stroke="midnightblue" d="M511.774,-224.489C504.698,-195.245 486.11,-98.3561 538,-56 570.728,-29.2854 617.279,-18.1707 654.568,-13.6635"/>
<polygon fill="midnightblue" stroke="midnightblue" points="655.253,-17.1101 664.821,-12.56 654.503,-10.1503 655.253,-17.1101"/>
</g>
<!-- Node21&#45;&gt;Node22 -->
<g id="edge37" class="edge"><title>Node21&#45;&gt;Node22</title>
<path fill="none" stroke="midnightblue" d="M564.705,-224.444C622.763,-214.646 717.6,-198.643 777.848,-188.476"/>
<polygon fill="midnightblue" stroke="midnightblue" points="778.665,-191.887 787.944,-186.772 777.501,-184.985 778.665,-191.887"/>
</g>
<!-- Node23 -->
<g id="node23" class="node"><title>Node23</title>
<g id="a_node23"><a xlink:href="../../d0/d23/cipelectronickey_8h.html" target="_top" xlink:title="cipelectronickey.h">
<polygon fill="none" stroke="black" points="330.5,-112.5 330.5,-131.5 425.5,-131.5 425.5,-112.5 330.5,-112.5"/>
<text text-anchor="middle" x="378" y="-119.5" font-family="Helvetica,sans-Serif" font-size="10.00">cipelectronickey.h</text>
</a>
</g>
</g>
<!-- Node21&#45;&gt;Node23 -->
<g id="edge38" class="edge"><title>Node21&#45;&gt;Node23</title>
<path fill="none" stroke="midnightblue" d="M483.009,-224.481C461.901,-217.441 434.38,-205.695 415,-188 400.94,-175.163 390.848,-155.707 384.791,-141.427"/>
<polygon fill="midnightblue" stroke="midnightblue" points="387.88,-139.721 380.947,-131.71 381.371,-142.296 387.88,-139.721"/>
</g>
<!-- Node24 -->
<g id="node24" class="node"><title>Node24</title>
<g id="a_node24"><a xlink:href="../../d1/d02/cipepath_8h.html" target="_top" xlink:title="cipepath.h">
<polygon fill="none" stroke="black" points="424,-168.5 424,-187.5 486,-187.5 486,-168.5 424,-168.5"/>
<text text-anchor="middle" x="455" y="-175.5" font-family="Helvetica,sans-Serif" font-size="10.00">cipepath.h</text>
</a>
</g>
</g>
<!-- Node21&#45;&gt;Node24 -->
<g id="edge41" class="edge"><title>Node21&#45;&gt;Node24</title>
<path fill="none" stroke="midnightblue" d="M504.521,-224.324C495.799,-216.341 482.657,-204.313 472.102,-194.653"/>
<polygon fill="midnightblue" stroke="midnightblue" points="474.392,-192.004 464.652,-187.834 469.666,-197.167 474.392,-192.004"/>
</g>
<!-- Node23&#45;&gt;Node10 -->
<g id="edge39" class="edge"><title>Node23&#45;&gt;Node10</title>
<path fill="none" stroke="midnightblue" d="M382.002,-112.368C390.307,-94.4563 409.563,-52.9233 420.679,-28.9482"/>
<polygon fill="midnightblue" stroke="midnightblue" points="423.986,-30.136 425.017,-19.5914 417.635,-27.1916 423.986,-30.136"/>
</g>
<!-- Node23&#45;&gt;Node11 -->
<g id="edge40" class="edge"><title>Node23&#45;&gt;Node11</title>
<path fill="none" stroke="midnightblue" d="M359.936,-112.444C341.425,-103.675 312.419,-89.9355 291.145,-79.8579"/>
<polygon fill="midnightblue" stroke="midnightblue" points="292.515,-76.6343 281.979,-75.5164 289.518,-82.9604 292.515,-76.6343"/>
</g>
<!-- Node24&#45;&gt;Node10 -->
<g id="edge42" class="edge"><title>Node24&#45;&gt;Node10</title>
<path fill="none" stroke="midnightblue" d="M453.602,-168.075C449.51,-141.945 437.491,-65.2106 431.91,-29.577"/>
<polygon fill="midnightblue" stroke="midnightblue" points="435.347,-28.906 430.342,-19.5681 428.432,-29.9893 435.347,-28.906"/>
</g>
<!-- Node24&#45;&gt;Node14 -->
<g id="edge43" class="edge"><title>Node24&#45;&gt;Node14</title>
<path fill="none" stroke="midnightblue" d="M470.424,-168.324C485.54,-159.822 508.815,-146.729 526.471,-136.797"/>
<polygon fill="midnightblue" stroke="midnightblue" points="528.614,-139.608 535.614,-131.655 525.183,-133.507 528.614,-139.608"/>
</g>
<!-- Node24&#45;&gt;Node23 -->
<g id="edge44" class="edge"><title>Node24&#45;&gt;Node23</title>
<path fill="none" stroke="midnightblue" d="M442.629,-168.324C430.842,-160.058 412.868,-147.453 398.864,-137.632"/>
<polygon fill="midnightblue" stroke="midnightblue" points="400.538,-134.531 390.341,-131.655 396.518,-140.262 400.538,-134.531"/>
</g>
<!-- Node25&#45;&gt;Node20 -->
<g id="edge47" class="edge"><title>Node25&#45;&gt;Node20</title>
<path fill="none" stroke="midnightblue" d="M656,-336.083C656,-329.006 656,-318.861 656,-309.986"/>
<polygon fill="midnightblue" stroke="midnightblue" points="659.5,-309.751 656,-299.751 652.5,-309.751 659.5,-309.751"/>
</g>
<!-- Node26&#45;&gt;Node11 -->
<g id="edge49" class="edge"><title>Node26&#45;&gt;Node11</title>
<path fill="none" stroke="midnightblue" d="M65.9123,-280.173C62.9482,-271.198 58.6809,-256.827 57,-244 49.0989,-183.706 48.8629,-153.829 93,-112 127.929,-78.8972 184.201,-69.4616 222.579,-67.1207"/>
<polygon fill="midnightblue" stroke="midnightblue" points="223.073,-70.6014 232.897,-66.6348 222.744,-63.6092 223.073,-70.6014"/>
</g>
<!-- Node27&#45;&gt;Node11 -->
<g id="edge52" class="edge"><title>Node27&#45;&gt;Node11</title>
<path fill="none" stroke="midnightblue" d="M324.821,-168.368C313.977,-150.296 288.706,-108.176 274.384,-84.3074"/>
<polygon fill="midnightblue" stroke="midnightblue" points="277.301,-82.3656 269.155,-75.5914 271.299,-85.9671 277.301,-82.3656"/>
</g>
<!-- Node27&#45;&gt;Node14 -->
<g id="edge53" class="edge"><title>Node27&#45;&gt;Node14</title>
<path fill="none" stroke="midnightblue" d="M365.018,-168.444C404.372,-158.828 468.194,-143.233 509.884,-133.046"/>
<polygon fill="midnightblue" stroke="midnightblue" points="510.836,-136.417 519.719,-130.643 509.174,-129.617 510.836,-136.417"/>
</g>
<!-- Node28&#45;&gt;Node17 -->
<g id="edge55" class="edge"><title>Node28&#45;&gt;Node17</title>
<path fill="none" stroke="midnightblue" d="M941.654,-280.448C943.009,-261.954 946,-216.852 946,-179 946,-179 946,-179 946,-121 946,-46.0601 845.398,-22.131 777.263,-14.5182"/>
<polygon fill="midnightblue" stroke="midnightblue" points="777.349,-11.0088 767.044,-13.4701 776.635,-17.9723 777.349,-11.0088"/>
</g>
<!-- Node30 -->
<g id="node30" class="node"><title>Node30</title>
<g id="a_node30"><a xlink:href="../../dd/d4d/cipethernetlink_8h.html" target="_top" xlink:title="cipethernetlink.h">
<polygon fill="none" stroke="black" points="148,-168.5 148,-187.5 236,-187.5 236,-168.5 148,-168.5"/>
<text text-anchor="middle" x="192" y="-175.5" font-family="Helvetica,sans-Serif" font-size="10.00">cipethernetlink.h</text>
</a>
</g>
</g>
<!-- Node29&#45;&gt;Node30 -->
<g id="edge57" class="edge"><title>Node29&#45;&gt;Node30</title>
<path fill="none" stroke="midnightblue" d="M108.411,-392.297C121.266,-359.494 166.965,-242.884 184.798,-197.377"/>
<polygon fill="midnightblue" stroke="midnightblue" points="188.128,-198.471 188.519,-187.884 181.611,-195.917 188.128,-198.471"/>
</g>
<!-- Node30&#45;&gt;Node11 -->
<g id="edge58" class="edge"><title>Node30&#45;&gt;Node11</title>
<path fill="none" stroke="midnightblue" d="M197.65,-168.368C209.532,-150.215 237.294,-107.802 252.879,-83.9902"/>
<polygon fill="midnightblue" stroke="midnightblue" points="255.828,-85.8753 258.377,-75.5914 249.971,-82.0416 255.828,-85.8753"/>
</g>
<!-- Node30&#45;&gt;Node14 -->
<g id="edge59" class="edge"><title>Node30&#45;&gt;Node14</title>
<path fill="none" stroke="midnightblue" d="M236.02,-170.379C306.01,-159.851 441.699,-139.441 509.846,-129.19"/>
<polygon fill="midnightblue" stroke="midnightblue" points="510.421,-132.643 519.789,-127.695 509.379,-125.721 510.421,-132.643"/>
</g>
</g>
</svg>
        <g id="navigator" transform="translate(0 0)" fill="#404254">
                <rect fill="#f2f5e9" fill-opacity="0.5" stroke="#606060" stroke-width=".5" x="0" y="0" width="60" height="60"/>
                <use id="zoomplus" xlink:href="#zoomPlus" x="17" y="9" onmousedown="handleZoom(evt,'in')"/>
                <use id="zoomminus" xlink:href="#zoomMin" x="42" y="9" onmousedown="handleZoom(evt,'out')"/>
                <use id="reset" xlink:href="#resetDef" x="30" y="36" onmousedown="handleReset()"/>
                <g id="arrowUp" xlink:href="#dirArrow" transform="translate(30 24)" onmousedown="handlePan(0,-1)">
                  <use xlink:href="#rim" fill="#404040">
                        <set attributeName="fill" to="#808080" begin="arrowUp.mouseover" end="arrowUp.mouseout"/>
                  </use>
                  <path fill="none" stroke="white" stroke-width="1.5" d="M0,-3.0v7 M-2.5,-0.5L0,-3.0L2.5,-0.5"/>
                </g>
                <g id="arrowRight" xlink:href="#dirArrow" transform="rotate(90) translate(36 -43)" onmousedown="handlePan(1,0)">
                  <use xlink:href="#rim" fill="#404040">
                        <set attributeName="fill" to="#808080" begin="arrowRight.mouseover" end="arrowRight.mouseout"/>
                  </use>
                  <path fill="none" stroke="white" stroke-width="1.5" d="M0,-3.0v7 M-2.5,-0.5L0,-3.0L2.5,-0.5"/>
                </g>
                <g id="arrowDown" xlink:href="#dirArrow" transform="rotate(180) translate(-30 -48)" onmousedown="handlePan(0,1)">
                  <use xlink:href="#rim" fill="#404040">
                        <set attributeName="fill" to="#808080" begin="arrowDown.mouseover" end="arrowDown.mouseout"/>
                  </use>
                  <path fill="none" stroke="white" stroke-width="1.5" d="M0,-3.0v7 M-2.5,-0.5L0,-3.0L2.5,-0.5"/>
                </g>
                <g id="arrowLeft" xlink:href="#dirArrow" transform="rotate(270) translate(-36 17)" onmousedown="handlePan(-1,0)">
                  <use xlink:href="#rim" fill="#404040">
                        <set attributeName="fill" to="#808080" begin="arrowLeft.mouseover" end="arrowLeft.mouseout"/>
                  </use>
                  <path fill="none" stroke="white" stroke-width="1.5" d="M0,-3.0v7 M-2.5,-0.5L0,-3.0L2.5,-0.5"/>
                </g>
        </g>
        <svg viewBox="0 0 15 15" width="100%" height="30px" preserveAspectRatio="xMaxYMin meet">
         <g id="arrow_out" transform="scale(0.3 0.3)">
          <a xlink:href="POSIX_2main_8c__incl_org.svg" target="_base">
           <rect id="button" ry="5" rx="5" y="6" x="6" height="38" width="38"
                fill="#f2f5e9" fill-opacity="0.5" stroke="#606060" stroke-width="1.0"/>
           <path id="arrow"
             d="M 11.500037,31.436501 C 11.940474,20.09759 22.043105,11.32322 32.158766,21.979434 L 37.068811,17.246167 C 37.068811,17.246167 37.088388,32 37.088388,32 L 22.160133,31.978069 C 22.160133,31.978069 26.997745,27.140456 26.997745,27.140456 C 18.528582,18.264221 13.291696,25.230495 11.500037,31.436501 z"
             style="fill:#404040;"/>
          </a>
         </g>
        </svg>
</svg>
