<?xml version="1.0" encoding="UTF-8" standalone="no"?>
<!DOCTYPE svg PUBLIC "-//W3C//DTD SVG 1.1//EN"
 "http://www.w3.org/Graphics/SVG/1.1/DTD/svg11.dtd">
<!-- Generated by graphviz version 2.26.3 (20100126.1600)
 -->
<!-- Title: G Pages: 1 -->
<!--zoomable 378 -->
<svg id="main" version="1.1" xmlns="http://www.w3.org/2000/svg" xmlns:xlink="http://www.w3.org/1999/xlink" xml:space="preserve" onload="init(evt)">
        <defs>
                <circle id="rim" cx="0" cy="0" r="7"/>
                <circle id="rim2" cx="0" cy="0" r="3.5"/>
                <g id="zoomPlus">
                        <use xlink:href="#rim" fill="#404040">
                                <set attributeName="fill" to="#808080" begin="zoomplus.mouseover" end="zoomplus.mouseout"/>
                        </use>
                        <path d="M-4,0h8M0,-4v8" fill="none" stroke="white" stroke-width="1.5" pointer-events="none"/>
                </g>
                <g id="zoomMin">
                        <use xlink:href="#rim" fill="#404040">
                                <set attributeName="fill" to="#808080" begin="zoomminus.mouseover" end="zoomminus.mouseout"/>
                        </use>
                        <path d="M-4,0h8" fill="none" stroke="white" stroke-width="1.5" pointer-events="none"/>
                </g>
                <g id="dirArrow">
                        <path fill="none" stroke="white" stroke-width="1.5" d="M0,-3.0v7 M-2.5,-0.5L0,-3.0L2.5,-0.5"/>
                </g>
               <g id="resetDef">
                       <use xlink:href="#rim2" fill="#404040">
                               <set attributeName="fill" to="#808080" begin="reset.mouseover" end="reset.mouseout"/>
                       </use>
               </g>
        </defs>

<script type="text/javascript">
var viewWidth = 793;
var viewHeight = 378;
var sectionId = 'dynsection-0';
</script>
<script xlink:href="../../svgpan.js"/>
<svg id="graph" class="graph">
<g id="viewport">
<title>G</title>
<!-- Node1 -->
<g id="node1" class="node"><title>Node1</title>
<polygon fill="#bfbfbf" stroke="black" points="271.5,-348.5 271.5,-369.5 392.5,-369.5 392.5,-348.5 271.5,-348.5"/>
<text text-anchor="middle" x="332" y="-356.5" font-family="Helvetica,sans-Serif" font-size="10.00">src/ports/POSIX/main.c</text>
</g>
<!-- Node2 -->
<g id="node3" class="node"><title>Node2</title>
<polygon fill="none" stroke="#bfbfbf" points="0,-232.5 0,-253.5 46,-253.5 46,-232.5 0,-232.5"/>
<text text-anchor="middle" x="23" y="-240.5" font-family="Helvetica,sans-Serif" font-size="10.00">stdio.h</text>
</g>
<!-- Node1&#45;&gt;Node2 -->
<g id="edge2" class="edge"><title>Node1&#45;&gt;Node2</title>
<path fill="none" stroke="midnightblue" d="M276.01,-348.417C239.185,-340.54 190.338,-328.329 149,-312 112.183,-297.456 72.5835,-274.423 47.8052,-259.018"/>
<polygon fill="midnightblue" stroke="midnightblue" points="49.3986,-255.885 39.071,-253.52 45.67,-261.809 49.3986,-255.885"/>
</g>
<!-- Node3 -->
<g id="node5" class="node"><title>Node3</title>
<polygon fill="none" stroke="#bfbfbf" points="64,-232.5 64,-253.5 112,-253.5 112,-232.5 64,-232.5"/>
<text text-anchor="middle" x="88" y="-240.5" font-family="Helvetica,sans-Serif" font-size="10.00">stdlib.h</text>
</g>
<!-- Node1&#45;&gt;Node3 -->
<g id="edge4" class="edge"><title>Node1&#45;&gt;Node3</title>
<path fill="none" stroke="midnightblue" d="M290.744,-348.419C262.003,-340.293 223.202,-327.794 191,-312 161.037,-297.304 129.584,-275.097 109.439,-259.87"/>
<polygon fill="midnightblue" stroke="midnightblue" points="111.345,-256.921 101.279,-253.615 107.086,-262.476 111.345,-256.921"/>
</g>
<!-- Node4 -->
<g id="node7" class="node"><title>Node4</title>
<polygon fill="none" stroke="#bfbfbf" points="200,-290.5 200,-311.5 250,-311.5 250,-290.5 200,-290.5"/>
<text text-anchor="middle" x="225" y="-298.5" font-family="Helvetica,sans-Serif" font-size="10.00">signal.h</text>
</g>
<!-- Node1&#45;&gt;Node4 -->
<g id="edge6" class="edge"><title>Node1&#45;&gt;Node4</title>
<path fill="none" stroke="midnightblue" d="M312.375,-348.362C295.859,-339.409 272.026,-326.491 253.422,-316.406"/>
<polygon fill="midnightblue" stroke="midnightblue" points="254.96,-313.259 244.501,-311.571 251.625,-319.413 254.96,-313.259"/>
</g>
<!-- Node5 -->
<g id="node9" class="node"><title>Node5</title>
<a xlink:href="../../da/dc2/generic__networkhandler_8h.html" target="_top" xlink:title="generic_networkhandler.h">
<polygon fill="none" stroke="black" points="268,-290.5 268,-311.5 396,-311.5 396,-290.5 268,-290.5"/>
<text text-anchor="middle" x="332" y="-298.5" font-family="Helvetica,sans-Serif" font-size="10.00">generic_networkhandler.h</text>
</a>
</g>
<!-- Node1&#45;&gt;Node5 -->
<g id="edge8" class="edge"><title>Node1&#45;&gt;Node5</title>
<path fill="none" stroke="midnightblue" d="M332,-348.362C332,-340.922 332,-330.743 332,-321.728"/>
<polygon fill="midnightblue" stroke="midnightblue" points="335.5,-321.571 332,-311.571 328.5,-321.571 335.5,-321.571"/>
</g>
<!-- Node8 -->
<g id="node17" class="node"><title>Node8</title>
<a xlink:href="../../d4/d38/opener__api_8h.html" target="_top" xlink:title="opener_api.h">
<polygon fill="none" stroke="black" points="424,-174.5 424,-195.5 496,-195.5 496,-174.5 424,-174.5"/>
<text text-anchor="middle" x="460" y="-182.5" font-family="Helvetica,sans-Serif" font-size="10.00">opener_api.h</text>
</a>
</g>
<!-- Node1&#45;&gt;Node8 -->
<g id="edge54" class="edge"><title>Node1&#45;&gt;Node8</title>
<path fill="none" stroke="midnightblue" d="M354.636,-348.411C370.3,-340.204 390.801,-327.611 405,-312 433.276,-280.911 448.588,-233.022 455.451,-205.8"/>
<polygon fill="midnightblue" stroke="midnightblue" points="458.915,-206.362 457.819,-195.824 452.105,-204.745 458.915,-206.362"/>
</g>
<!-- Node19 -->
<g id="node47" class="node"><title>Node19</title>
<a xlink:href="../../db/d14/cipcommon_8h.html" target="_top" xlink:title="cipcommon.h">
<polygon fill="none" stroke="black" points="710.5,-174.5 710.5,-195.5 785.5,-195.5 785.5,-174.5 710.5,-174.5"/>
<text text-anchor="middle" x="748" y="-182.5" font-family="Helvetica,sans-Serif" font-size="10.00">cipcommon.h</text>
</a>
</g>
<!-- Node1&#45;&gt;Node19 -->
<g id="edge56" class="edge"><title>Node1&#45;&gt;Node19</title>
<path fill="none" stroke="midnightblue" d="M392.723,-352.835C442.196,-346.469 513.227,-334.234 572,-312 619.696,-293.956 629.804,-284.056 671,-254 692.733,-238.144 715.411,-217.204 730.478,-202.567"/>
<polygon fill="midnightblue" stroke="midnightblue" points="732.94,-205.055 737.618,-195.548 728.033,-200.063 732.94,-205.055"/>
</g>
<!-- Node20 -->
<g id="node51" class="node"><title>Node20</title>
<a xlink:href="../../d1/d1b/trace_8h.html" target="_top" xlink:title="Tracing infrastructure for OpENer.">
<polygon fill="none" stroke="black" points="646.5,-174.5 646.5,-195.5 693.5,-195.5 693.5,-174.5 646.5,-174.5"/>
<text text-anchor="middle" x="670" y="-182.5" font-family="Helvetica,sans-Serif" font-size="10.00">trace.h</text>
</a>
</g>
<!-- Node1&#45;&gt;Node20 -->
<g id="edge62" class="edge"><title>Node1&#45;&gt;Node20</title>
<path fill="none" stroke="midnightblue" d="M382.447,-348.48C462.564,-330.806 613.665,-293.222 651,-254 663.339,-241.037 667.808,-220.817 669.357,-205.611"/>
<polygon fill="midnightblue" stroke="midnightblue" points="672.851,-205.815 670.039,-195.6 665.867,-205.339 672.851,-205.815"/>
</g>
<!-- Node5&#45;&gt;Node2 -->
<g id="edge10" class="edge"><title>Node5&#45;&gt;Node2</title>
<path fill="none" stroke="midnightblue" d="M267.91,-291.365C203.493,-281.475 107.594,-266.139 56.2403,-253.964"/>
<polygon fill="midnightblue" stroke="midnightblue" points="56.8341,-250.505 46.2856,-251.496 55.1492,-257.3 56.8341,-250.505"/>
</g>
<!-- Node5&#45;&gt;Node3 -->
<g id="edge14" class="edge"><title>Node5&#45;&gt;Node3</title>
<path fill="none" stroke="midnightblue" d="M282.274,-290.494C240.43,-281.452 179.095,-267.73 126,-254 124.728,-253.671 123.435,-253.33 122.129,-252.98"/>
<polygon fill="midnightblue" stroke="midnightblue" points="122.637,-249.489 112.065,-250.192 120.768,-256.235 122.637,-249.489"/>
</g>
<!-- Node6 -->
<g id="node12" class="node"><title>Node6</title>
<polygon fill="none" stroke="#bfbfbf" points="275.5,-232.5 275.5,-253.5 324.5,-253.5 324.5,-232.5 275.5,-232.5"/>
<text text-anchor="middle" x="300" y="-240.5" font-family="Helvetica,sans-Serif" font-size="10.00">string.h</text>
</g>
<!-- Node5&#45;&gt;Node6 -->
<g id="edge12" class="edge"><title>Node5&#45;&gt;Node6</title>
<path fill="none" stroke="midnightblue" d="M326.131,-290.362C321.845,-282.595 315.913,-271.843 310.784,-262.546"/>
<polygon fill="midnightblue" stroke="midnightblue" points="313.727,-260.636 305.832,-253.571 307.598,-264.017 313.727,-260.636"/>
</g>
<!-- Node7 -->
<g id="node15" class="node"><title>Node7</title>
<polygon fill="none" stroke="#bfbfbf" points="341.5,-232.5 341.5,-253.5 388.5,-253.5 388.5,-232.5 341.5,-232.5"/>
<text text-anchor="middle" x="365" y="-240.5" font-family="Helvetica,sans-Serif" font-size="10.00">errno.h</text>
</g>
<!-- Node5&#45;&gt;Node7 -->
<g id="edge16" class="edge"><title>Node5&#45;&gt;Node7</title>
<path fill="none" stroke="midnightblue" d="M338.053,-290.362C342.472,-282.595 348.59,-271.843 353.879,-262.546"/>
<polygon fill="midnightblue" stroke="midnightblue" points="357.082,-263.993 358.986,-253.571 350.998,-260.531 357.082,-263.993"/>
</g>
<!-- Node5&#45;&gt;Node8 -->
<g id="edge18" class="edge"><title>Node5&#45;&gt;Node8</title>
<path fill="none" stroke="midnightblue" d="M355.839,-290.411C372.76,-282.124 395.336,-269.434 412,-254 427.457,-239.684 440.746,-219.57 449.397,-204.75"/>
<polygon fill="midnightblue" stroke="midnightblue" points="452.529,-206.321 454.388,-195.891 446.43,-202.885 452.529,-206.321"/>
</g>
<!-- Node10 -->
<g id="node21" class="node"><title>Node10</title>
<a xlink:href="../../d7/d69/typedefs_8h.html" target="_top" xlink:title="typedefs.h">
<polygon fill="none" stroke="black" points="485,-58.5 485,-79.5 547,-79.5 547,-58.5 485,-58.5"/>
<text text-anchor="middle" x="516" y="-66.5" font-family="Helvetica,sans-Serif" font-size="10.00">typedefs.h</text>
</a>
</g>
<!-- Node5&#45;&gt;Node10 -->
<g id="edge36" class="edge"><title>Node5&#45;&gt;Node10</title>
<path fill="none" stroke="midnightblue" d="M281.353,-290.498C233.073,-279.976 166.609,-263.952 159,-254 153.061,-246.232 155.462,-241.115 159,-232 184.267,-166.892 203.973,-149.957 265,-116 300.34,-96.336 412.793,-80.8285 474.496,-73.5405"/>
<polygon fill="midnightblue" stroke="midnightblue" points="475.141,-76.9892 484.671,-72.3589 474.334,-70.0359 475.141,-76.9892"/>
</g>
<!-- Node16 -->
<g id="node35" class="node"><title>Node16</title>
<a xlink:href="../../d0/dec/endianconv_8h.html" target="_top" xlink:title="Responsible for Endianess conversion.">
<polygon fill="none" stroke="black" points="271,-174.5 271,-195.5 345,-195.5 345,-174.5 271,-174.5"/>
<text text-anchor="middle" x="308" y="-182.5" font-family="Helvetica,sans-Serif" font-size="10.00">endianconv.h</text>
</a>
</g>
<!-- Node5&#45;&gt;Node16 -->
<g id="edge38" class="edge"><title>Node5&#45;&gt;Node16</title>
<path fill="none" stroke="midnightblue" d="M355.251,-290.314C379.205,-277.73 411.188,-255.538 397,-232 387.574,-216.363 371.015,-205.66 354.717,-198.47"/>
<polygon fill="midnightblue" stroke="midnightblue" points="355.789,-195.128 345.206,-194.631 353.169,-201.62 355.789,-195.128"/>
</g>
<!-- Node17 -->
<g id="node38" class="node"><title>Node17</title>
<a xlink:href="../../d2/da3/cipconnectionmanager_8h.html" target="_top" xlink:title="cipconnectionmanager.h">
<polygon fill="none" stroke="black" points="520,-232.5 520,-253.5 642,-253.5 642,-232.5 520,-232.5"/>
<text text-anchor="middle" x="581" y="-240.5" font-family="Helvetica,sans-Serif" font-size="10.00">cipconnectionmanager.h</text>
</a>
</g>
<!-- Node5&#45;&gt;Node17 -->
<g id="edge42" class="edge"><title>Node5&#45;&gt;Node17</title>
<path fill="none" stroke="midnightblue" d="M377.092,-290.497C418.916,-280.755 481.259,-266.233 525.993,-255.813"/>
<polygon fill="midnightblue" stroke="midnightblue" points="526.878,-259.2 535.823,-253.523 525.29,-252.383 526.878,-259.2"/>
</g>
<!-- Node18 -->
<g id="node44" class="node"><title>Node18</title>
<polygon fill="none" stroke="#bfbfbf" points="167.5,-232.5 167.5,-253.5 258.5,-253.5 258.5,-232.5 167.5,-232.5"/>
<text text-anchor="middle" x="213" y="-240.5" font-family="Helvetica,sans-Serif" font-size="10.00">networkhandler.h</text>
</g>
<!-- Node5&#45;&gt;Node18 -->
<g id="edge52" class="edge"><title>Node5&#45;&gt;Node18</title>
<path fill="none" stroke="midnightblue" d="M310.45,-290.497C291.864,-281.438 264.798,-268.246 243.905,-258.063"/>
<polygon fill="midnightblue" stroke="midnightblue" points="245.314,-254.856 234.792,-253.621 242.247,-261.149 245.314,-254.856"/>
</g>
<!-- Node9 -->
<g id="node19" class="node"><title>Node9</title>
<polygon fill="none" stroke="#bfbfbf" points="357,-116.5 357,-137.5 409,-137.5 409,-116.5 357,-116.5"/>
<text text-anchor="middle" x="383" y="-124.5" font-family="Helvetica,sans-Serif" font-size="10.00">assert.h</text>
</g>
<!-- Node8&#45;&gt;Node9 -->
<g id="edge20" class="edge"><title>Node8&#45;&gt;Node9</title>
<path fill="none" stroke="midnightblue" d="M445.877,-174.362C434.48,-165.777 418.242,-153.546 405.122,-143.664"/>
<polygon fill="midnightblue" stroke="midnightblue" points="407.127,-140.792 397.033,-137.571 402.915,-146.383 407.127,-140.792"/>
</g>
<!-- Node8&#45;&gt;Node10 -->
<g id="edge22" class="edge"><title>Node8&#45;&gt;Node10</title>
<path fill="none" stroke="midnightblue" d="M456.218,-174.075C451.992,-159.902 446.859,-134.772 456,-116 462.278,-103.107 473.994,-92.7071 485.418,-85.0001"/>
<polygon fill="midnightblue" stroke="midnightblue" points="487.377,-87.9028 494.002,-79.6346 483.667,-81.9668 487.377,-87.9028"/>
</g>
<!-- Node13 -->
<g id="node27" class="node"><title>Node13</title>
<a xlink:href="../../df/d28/ciptypes_8h.html" target="_top" xlink:title="ciptypes.h">
<polygon fill="none" stroke="black" points="623,-116.5 623,-137.5 685,-137.5 685,-116.5 623,-116.5"/>
<text text-anchor="middle" x="654" y="-124.5" font-family="Helvetica,sans-Serif" font-size="10.00">ciptypes.h</text>
</a>
</g>
<!-- Node8&#45;&gt;Node13 -->
<g id="edge28" class="edge"><title>Node8&#45;&gt;Node13</title>
<path fill="none" stroke="midnightblue" d="M495.132,-174.497C528.325,-164.573 578.107,-149.69 613.077,-139.235"/>
<polygon fill="midnightblue" stroke="midnightblue" points="614.392,-142.495 622.97,-136.277 612.387,-135.788 614.392,-142.495"/>
</g>
<!-- Node14 -->
<g id="node30" class="node"><title>Node14</title>
<a xlink:href="../../d6/d52/ciperror_8h.html" target="_top" xlink:title="ciperror.h">
<polygon fill="none" stroke="black" points="282.5,-116.5 282.5,-137.5 339.5,-137.5 339.5,-116.5 282.5,-116.5"/>
<text text-anchor="middle" x="311" y="-124.5" font-family="Helvetica,sans-Serif" font-size="10.00">ciperror.h</text>
</a>
</g>
<!-- Node8&#45;&gt;Node14 -->
<g id="edge32" class="edge"><title>Node8&#45;&gt;Node14</title>
<path fill="none" stroke="midnightblue" d="M433.017,-174.497C409.147,-165.205 374.106,-151.565 347.693,-141.283"/>
<polygon fill="midnightblue" stroke="midnightblue" points="348.622,-137.889 338.033,-137.523 346.083,-144.412 348.622,-137.889"/>
</g>
<!-- Node15 -->
<g id="node32" class="node"><title>Node15</title>
<polygon fill="none" stroke="#bfbfbf" points="465,-116.5 465,-137.5 567,-137.5 567,-116.5 465,-116.5"/>
<text text-anchor="middle" x="516" y="-124.5" font-family="Helvetica,sans-Serif" font-size="10.00">opener_user_conf.h</text>
</g>
<!-- Node8&#45;&gt;Node15 -->
<g id="edge34" class="edge"><title>Node8&#45;&gt;Node15</title>
<path fill="none" stroke="midnightblue" d="M470.271,-174.362C478.244,-166.104 489.475,-154.472 498.811,-144.803"/>
<polygon fill="midnightblue" stroke="midnightblue" points="501.366,-147.196 505.794,-137.571 496.33,-142.334 501.366,-147.196"/>
</g>
<!-- Node11 -->
<g id="node23" class="node"><title>Node11</title>
<polygon fill="none" stroke="#bfbfbf" points="450.5,-0.5 450.5,-21.5 509.5,-21.5 509.5,-0.5 450.5,-0.5"/>
<text text-anchor="middle" x="480" y="-8.5" font-family="Helvetica,sans-Serif" font-size="10.00">inttypes.h</text>
</g>
<!-- Node10&#45;&gt;Node11 -->
<g id="edge24" class="edge"><title>Node10&#45;&gt;Node11</title>
<path fill="none" stroke="midnightblue" d="M509.397,-58.3619C504.525,-50.5131 497.762,-39.6159 491.95,-30.2527"/>
<polygon fill="midnightblue" stroke="midnightblue" points="494.809,-28.2213 486.561,-21.5707 488.861,-31.9129 494.809,-28.2213"/>
</g>
<!-- Node12 -->
<g id="node25" class="node"><title>Node12</title>
<polygon fill="none" stroke="#bfbfbf" points="527,-0.5 527,-21.5 579,-21.5 579,-0.5 527,-0.5"/>
<text text-anchor="middle" x="553" y="-8.5" font-family="Helvetica,sans-Serif" font-size="10.00">stddef.h</text>
</g>
<!-- Node10&#45;&gt;Node12 -->
<g id="edge26" class="edge"><title>Node10&#45;&gt;Node12</title>
<path fill="none" stroke="midnightblue" d="M522.786,-58.3619C527.793,-50.5131 534.745,-39.6159 540.718,-30.2527"/>
<polygon fill="midnightblue" stroke="midnightblue" points="543.829,-31.8837 546.257,-21.5707 537.928,-28.1189 543.829,-31.8837"/>
</g>
<!-- Node13&#45;&gt;Node10 -->
<g id="edge30" class="edge"><title>Node13&#45;&gt;Node10</title>
<path fill="none" stroke="midnightblue" d="M629.009,-116.497C607.067,-107.275 574.934,-93.7695 550.536,-83.5153"/>
<polygon fill="midnightblue" stroke="midnightblue" points="551.846,-80.2693 541.271,-79.6212 549.134,-86.7225 551.846,-80.2693"/>
</g>
<!-- Node16&#45;&gt;Node10 -->
<g id="edge40" class="edge"><title>Node16&#45;&gt;Node10</title>
<path fill="none" stroke="midnightblue" d="M295.734,-174.31C280.725,-159.948 259.048,-134.135 274,-116 298.965,-85.7199 412.353,-74.7036 474.665,-70.8904"/>
<polygon fill="midnightblue" stroke="midnightblue" points="475.157,-74.3679 484.939,-70.2985 474.754,-67.3795 475.157,-74.3679"/>
</g>
<!-- Node17&#45;&gt;Node8 -->
<g id="edge46" class="edge"><title>Node17&#45;&gt;Node8</title>
<path fill="none" stroke="midnightblue" d="M559.088,-232.497C540.189,-223.438 512.669,-210.246 491.424,-200.063"/>
<polygon fill="midnightblue" stroke="midnightblue" points="492.689,-196.788 482.158,-195.621 489.663,-203.1 492.689,-196.788"/>
</g>
<!-- Node17&#45;&gt;Node10 -->
<g id="edge48" class="edge"><title>Node17&#45;&gt;Node10</title>
<path fill="none" stroke="midnightblue" d="M583.41,-232.387C588.007,-209.597 595.897,-154.897 576,-116 569.421,-103.139 557.542,-92.6999 546.079,-84.9558"/>
<polygon fill="midnightblue" stroke="midnightblue" points="547.82,-81.916 537.49,-79.5636 544.098,-87.8447 547.82,-81.916"/>
</g>
<!-- Node17&#45;&gt;Node13 -->
<g id="edge50" class="edge"><title>Node17&#45;&gt;Node13</title>
<path fill="none" stroke="midnightblue" d="M587.737,-232.295C600.068,-212.7 626.424,-170.82 641.923,-146.191"/>
<polygon fill="midnightblue" stroke="midnightblue" points="644.915,-148.007 647.279,-137.679 638.991,-144.279 644.915,-148.007"/>
</g>
<!-- Node17&#45;&gt;Node15 -->
<g id="edge44" class="edge"><title>Node17&#45;&gt;Node15</title>
<path fill="none" stroke="midnightblue" d="M575.001,-232.295C564.07,-212.786 540.761,-171.188 526.937,-146.518"/>
<polygon fill="midnightblue" stroke="midnightblue" points="529.926,-144.692 521.984,-137.679 523.819,-148.114 529.926,-144.692"/>
</g>
<!-- Node19&#45;&gt;Node10 -->
<g id="edge58" class="edge"><title>Node19&#45;&gt;Node10</title>
<path fill="none" stroke="midnightblue" d="M742.594,-174.349C734.274,-159.055 716.866,-131.061 694,-116 652.401,-88.5998 595.482,-77.1422 557.314,-72.371"/>
<polygon fill="midnightblue" stroke="midnightblue" points="557.408,-68.8588 547.074,-71.1949 556.609,-75.8131 557.408,-68.8588"/>
</g>
<!-- Node19&#45;&gt;Node13 -->
<g id="edge60" class="edge"><title>Node19&#45;&gt;Node13</title>
<path fill="none" stroke="midnightblue" d="M730.759,-174.362C716.448,-165.532 695.885,-152.844 679.643,-142.822"/>
<polygon fill="midnightblue" stroke="midnightblue" points="681.48,-139.843 671.132,-137.571 677.804,-145.8 681.48,-139.843"/>
</g>
<!-- Node20&#45;&gt;Node15 -->
<g id="edge64" class="edge"><title>Node20&#45;&gt;Node15</title>
<path fill="none" stroke="midnightblue" d="M646.275,-176.065C621.488,-166.729 582.253,-151.952 553.312,-141.053"/>
<polygon fill="midnightblue" stroke="midnightblue" points="554.52,-137.768 543.928,-137.518 552.053,-144.318 554.52,-137.768"/>
</g>
</g>
</svg>
        <g id="navigator" transform="translate(0 0)" fill="#404254">
                <rect fill="#f2f5e9" fill-opacity="0.5" stroke="#606060" stroke-width=".5" x="0" y="0" width="60" height="60"/>
                <use id="zoomplus" xlink:href="#zoomPlus" x="17" y="9" onmousedown="handleZoom(evt,'in')"/>
                <use id="zoomminus" xlink:href="#zoomMin" x="42" y="9" onmousedown="handleZoom(evt,'out')"/>
                <use id="reset" xlink:href="#resetDef" x="30" y="36" onmousedown="handleReset()"/>
                <g id="arrowUp" xlink:href="#dirArrow" transform="translate(30 24)" onmousedown="handlePan(0,-1)">
                  <use xlink:href="#rim" fill="#404040">
                        <set attributeName="fill" to="#808080" begin="arrowUp.mouseover" end="arrowUp.mouseout"/>
                  </use>
                  <path fill="none" stroke="white" stroke-width="1.5" d="M0,-3.0v7 M-2.5,-0.5L0,-3.0L2.5,-0.5"/>
                </g>
                <g id="arrowRight" xlink:href="#dirArrow" transform="rotate(90) translate(36 -43)" onmousedown="handlePan(1,0)">
                  <use xlink:href="#rim" fill="#404040">
                        <set attributeName="fill" to="#808080" begin="arrowRight.mouseover" end="arrowRight.mouseout"/>
                  </use>
                  <path fill="none" stroke="white" stroke-width="1.5" d="M0,-3.0v7 M-2.5,-0.5L0,-3.0L2.5,-0.5"/>
                </g>
                <g id="arrowDown" xlink:href="#dirArrow" transform="rotate(180) translate(-30 -48)" onmousedown="handlePan(0,1)">
                  <use xlink:href="#rim" fill="#404040">
                        <set attributeName="fill" to="#808080" begin="arrowDown.mouseover" end="arrowDown.mouseout"/>
                  </use>
                  <path fill="none" stroke="white" stroke-width="1.5" d="M0,-3.0v7 M-2.5,-0.5L0,-3.0L2.5,-0.5"/>
                </g>
                <g id="arrowLeft" xlink:href="#dirArrow" transform="rotate(270) translate(-36 17)" onmousedown="handlePan(-1,0)">
                  <use xlink:href="#rim" fill="#404040">
                        <set attributeName="fill" to="#808080" begin="arrowLeft.mouseover" end="arrowLeft.mouseout"/>
                  </use>
                  <path fill="none" stroke="white" stroke-width="1.5" d="M0,-3.0v7 M-2.5,-0.5L0,-3.0L2.5,-0.5"/>
                </g>
        </g>
</svg>
