<?xml version="1.0" encoding="UTF-8" standalone="no"?>
<!DOCTYPE svg PUBLIC "-//W3C//DTD SVG 1.1//EN"
 "http://www.w3.org/Graphics/SVG/1.1/DTD/svg11.dtd">
<!-- Generated by graphviz version 2.26.3 (20100126.1600)
 -->
<!-- Title: G Pages: 1 -->
<!--zoomable 294 -->
<svg id="main" version="1.1" xmlns="http://www.w3.org/2000/svg" xmlns:xlink="http://www.w3.org/1999/xlink" xml:space="preserve" onload="init(evt)">
        <defs>
                <circle id="rim" cx="0" cy="0" r="7"/>
                <circle id="rim2" cx="0" cy="0" r="3.5"/>
                <g id="zoomPlus">
                        <use xlink:href="#rim" fill="#404040">
                                <set attributeName="fill" to="#808080" begin="zoomplus.mouseover" end="zoomplus.mouseout"/>
                        </use>
                        <path d="M-4,0h8M0,-4v8" fill="none" stroke="white" stroke-width="1.5" pointer-events="none"/>
                </g>
                <g id="zoomMin">
                        <use xlink:href="#rim" fill="#404040">
                                <set attributeName="fill" to="#808080" begin="zoomminus.mouseover" end="zoomminus.mouseout"/>
                        </use>
                        <path d="M-4,0h8" fill="none" stroke="white" stroke-width="1.5" pointer-events="none"/>
                </g>
                <g id="dirArrow">
                        <path fill="none" stroke="white" stroke-width="1.5" d="M0,-3.0v7 M-2.5,-0.5L0,-3.0L2.5,-0.5"/>
                </g>
               <g id="resetDef">
                       <use xlink:href="#rim2" fill="#404040">
                               <set attributeName="fill" to="#808080" begin="reset.mouseover" end="reset.mouseout"/>
                       </use>
               </g>
        </defs>

<script type="text/javascript">
var viewWidth = 1748;
var viewHeight = 294;
var sectionId = 'dynsection-1';
</script>
<script xlink:href="../../svgpan.js"/>
<svg id="graph" class="graph">
<g id="viewport">
<title>G</title>
<!-- Node1 -->
<g id="node1" class="node"><title>Node1</title>
<polygon fill="#bfbfbf" stroke="black" points="0,-104.5 0,-125.5 110,-125.5 110,-104.5 0,-104.5"/>
<text text-anchor="middle" x="55" y="-112.5" font-family="Helvetica,sans-Serif" font-size="10.00">CloseSocketPlatform</text>
</g>
<!-- Node2 -->
<g id="node3" class="node"><title>Node2</title>
<a xlink:href="../../d5/dc5/group__CIP__CALLBACK__API.html#gaf4d26c1bca26c2e6e73481d57762df36" target="_top" xlink:title="Close the given socket and clean up the stack.">
<polygon fill="none" stroke="black" points="146.5,-104.5 146.5,-125.5 219.5,-125.5 219.5,-104.5 146.5,-104.5"/>
<text text-anchor="middle" x="183" y="-112.5" font-family="Helvetica,sans-Serif" font-size="10.00">CloseSocket</text>
</a>
</g>
<!-- Node1&#45;&gt;Node2 -->
<g id="edge2" class="edge"><title>Node1&#45;&gt;Node2</title>
<path fill="none" stroke="midnightblue" d="M120.094,-115C129.033,-115 137.943,-115 146.127,-115"/>
<polygon fill="midnightblue" stroke="midnightblue" points="120.026,-111.5 110.026,-115 120.026,-118.5 120.026,-111.5"/>
</g>
<!-- Node3 -->
<g id="node5" class="node"><title>Node3</title>
<a xlink:href="../../da/dc2/generic__networkhandler_8h.html#aab6e6c554aa10d27efe297ebef3ac1c9" target="_top" xlink:title="CloseUdpSocket">
<polygon fill="none" stroke="black" points="256.5,-224.5 256.5,-245.5 347.5,-245.5 347.5,-224.5 256.5,-224.5"/>
<text text-anchor="middle" x="302" y="-232.5" font-family="Helvetica,sans-Serif" font-size="10.00">CloseUdpSocket</text>
</a>
</g>
<!-- Node2&#45;&gt;Node3 -->
<g id="edge4" class="edge"><title>Node2&#45;&gt;Node3</title>
<path fill="none" stroke="midnightblue" d="M200.638,-132.786C225.676,-158.035 270.76,-203.498 291.292,-224.202"/>
<polygon fill="midnightblue" stroke="midnightblue" points="203.087,-130.285 193.56,-125.649 198.117,-135.214 203.087,-130.285"/>
</g>
<!-- Node15 -->
<g id="node30" class="node"><title>Node15</title>
<a xlink:href="../../da/dc2/generic__networkhandler_8h.html#a1bfa5ef8e4802716459a56567ee16592" target="_top" xlink:title="CloseTcpSocket">
<polygon fill="none" stroke="black" points="502.5,-104.5 502.5,-125.5 591.5,-125.5 591.5,-104.5 502.5,-104.5"/>
<text text-anchor="middle" x="547" y="-112.5" font-family="Helvetica,sans-Serif" font-size="10.00">CloseTcpSocket</text>
</a>
</g>
<!-- Node2&#45;&gt;Node15 -->
<g id="edge30" class="edge"><title>Node2&#45;&gt;Node15</title>
<path fill="none" stroke="midnightblue" d="M229.929,-115C300.498,-115 433.032,-115 502.281,-115"/>
<polygon fill="midnightblue" stroke="midnightblue" points="229.568,-111.5 219.568,-115 229.568,-118.5 229.568,-111.5"/>
</g>
<!-- Node23 -->
<g id="node50" class="node"><title>Node23</title>
<a xlink:href="../../da/dc2/generic__networkhandler_8h.html#aace33c0e7aa348969492ede822183bd5" target="_top" xlink:title="NetworkHandlerFinish">
<polygon fill="none" stroke="black" points="1552.5,-24.5 1552.5,-45.5 1665.5,-45.5 1665.5,-24.5 1552.5,-24.5"/>
<text text-anchor="middle" x="1609" y="-32.5" font-family="Helvetica,sans-Serif" font-size="10.00">NetworkHandlerFinish</text>
</a>
</g>
<!-- Node2&#45;&gt;Node23 -->
<g id="edge54" class="edge"><title>Node2&#45;&gt;Node23</title>
<path fill="none" stroke="midnightblue" d="M210.888,-99.6992C270.623,-68.4033 416.152,-1.34892e-14 547,-0 547,-0 547,-0 1261,-0 1364.07,-0 1483.46,-15.3889 1552.21,-25.7584"/>
<polygon fill="midnightblue" stroke="midnightblue" points="209.246,-96.6082 202.053,-104.387 212.527,-102.792 209.246,-96.6082"/>
</g>
<!-- Node4 -->
<g id="node7" class="node"><title>Node4</title>
<a xlink:href="../../de/d45/cipioconnection_8h.html#ab63a9cebd7f44ee474ac1fd446d5bc66" target="_top" xlink:title="close the communication channels of the given connection and remove it from the active connections li...">
<polygon fill="none" stroke="black" points="384,-264.5 384,-285.5 710,-285.5 710,-264.5 384,-264.5"/>
<text text-anchor="middle" x="547" y="-272.5" font-family="Helvetica,sans-Serif" font-size="10.00">CloseCommunicationChannelsAndRemoveFromActiveConnectionsList</text>
</a>
</g>
<!-- Node3&#45;&gt;Node4 -->
<g id="edge6" class="edge"><title>Node3&#45;&gt;Node4</title>
<path fill="none" stroke="midnightblue" d="M350.783,-247.891C361.665,-250.489 373.184,-253.024 384,-255 403.913,-258.637 425.319,-261.795 445.857,-264.46"/>
<polygon fill="midnightblue" stroke="midnightblue" points="351.552,-244.476 341.007,-245.503 349.89,-251.276 351.552,-244.476"/>
</g>
<!-- Node11 -->
<g id="node21" class="node"><title>Node11</title>
<a xlink:href="../../d2/da3/cipconnectionmanager_8h.html#a0e955e3b8a41b27cf79520a6bd04d21c" target="_top" xlink:title="Close the given connection.">
<polygon fill="none" stroke="black" points="501,-224.5 501,-245.5 593,-245.5 593,-224.5 501,-224.5"/>
<text text-anchor="middle" x="547" y="-232.5" font-family="Helvetica,sans-Serif" font-size="10.00">CloseConnection</text>
</a>
</g>
<!-- Node3&#45;&gt;Node11 -->
<g id="edge20" class="edge"><title>Node3&#45;&gt;Node11</title>
<path fill="none" stroke="midnightblue" d="M357.591,-235C400.876,-235 460.239,-235 500.904,-235"/>
<polygon fill="midnightblue" stroke="midnightblue" points="357.508,-231.5 347.508,-235 357.508,-238.5 357.508,-231.5"/>
</g>
<!-- Node5 -->
<g id="node9" class="node"><title>Node5</title>
<a xlink:href="../../df/d03/cipioconnection_8c.html#adb77dcdc1545600764cd212783f5c4e2" target="_top" xlink:title="CloseIoConnection">
<polygon fill="none" stroke="black" points="803,-264.5 803,-285.5 903,-285.5 903,-264.5 803,-264.5"/>
<text text-anchor="middle" x="853" y="-272.5" font-family="Helvetica,sans-Serif" font-size="10.00">CloseIoConnection</text>
</a>
</g>
<!-- Node4&#45;&gt;Node5 -->
<g id="edge8" class="edge"><title>Node4&#45;&gt;Node5</title>
<path fill="none" stroke="midnightblue" d="M720.559,-275C750.699,-275 779.755,-275 802.934,-275"/>
<polygon fill="midnightblue" stroke="midnightblue" points="720.303,-271.5 710.303,-275 720.303,-278.5 720.303,-271.5"/>
</g>
<!-- Node6 -->
<g id="node11" class="node"><title>Node6</title>
<a xlink:href="../../df/d03/cipioconnection_8c.html#ac788741792b008fa0699c7cfbe0979bc" target="_top" xlink:title="SetIoConnectionCallbacks">
<polygon fill="none" stroke="black" points="1007.5,-264.5 1007.5,-285.5 1140.5,-285.5 1140.5,-264.5 1007.5,-264.5"/>
<text text-anchor="middle" x="1074" y="-272.5" font-family="Helvetica,sans-Serif" font-size="10.00">SetIoConnectionCallbacks</text>
</a>
</g>
<!-- Node5&#45;&gt;Node6 -->
<g id="edge10" class="edge"><title>Node5&#45;&gt;Node6</title>
<path fill="none" stroke="midnightblue" d="M913.183,-275C942.303,-275 977.351,-275 1007.29,-275"/>
<polygon fill="midnightblue" stroke="midnightblue" points="913.148,-271.5 903.148,-275 913.148,-278.5 913.148,-271.5"/>
</g>
<!-- Node7 -->
<g id="node13" class="node"><title>Node7</title>
<a xlink:href="../../de/d45/cipioconnection_8h.html#a699fccd3dabdfec1b77560f22268c1e8" target="_top" xlink:title="Setup all data in order to establish an IO connection.">
<polygon fill="none" stroke="black" points="1203.5,-254.5 1203.5,-275.5 1318.5,-275.5 1318.5,-254.5 1203.5,-254.5"/>
<text text-anchor="middle" x="1261" y="-262.5" font-family="Helvetica,sans-Serif" font-size="10.00">EstablishIoConnection</text>
</a>
</g>
<!-- Node6&#45;&gt;Node7 -->
<g id="edge12" class="edge"><title>Node6&#45;&gt;Node7</title>
<path fill="none" stroke="midnightblue" d="M1150.92,-270.887C1168.43,-269.95 1186.74,-268.971 1203.29,-268.086"/>
<polygon fill="midnightblue" stroke="midnightblue" points="1150.52,-267.403 1140.72,-271.432 1150.89,-274.393 1150.52,-267.403"/>
</g>
<!-- Node8 -->
<g id="node15" class="node"><title>Node8</title>
<a xlink:href="../../d2/da3/cipconnectionmanager_8h.html#a5ab0de6894d23e8fe84a6b46797c2212" target="_top" xlink:title="Initialize the data of the connection manager object.">
<polygon fill="none" stroke="black" points="1384.5,-214.5 1384.5,-235.5 1501.5,-235.5 1501.5,-214.5 1384.5,-214.5"/>
<text text-anchor="middle" x="1443" y="-222.5" font-family="Helvetica,sans-Serif" font-size="10.00">ConnectionManagerInit</text>
</a>
</g>
<!-- Node7&#45;&gt;Node8 -->
<g id="edge14" class="edge"><title>Node7&#45;&gt;Node8</title>
<path fill="none" stroke="midnightblue" d="M1318.76,-252.306C1343.38,-246.894 1371.77,-240.656 1395.19,-235.509"/>
<polygon fill="midnightblue" stroke="midnightblue" points="1317.83,-248.925 1308.82,-254.49 1319.34,-255.762 1317.83,-248.925"/>
</g>
<!-- Node9 -->
<g id="node17" class="node"><title>Node9</title>
<a xlink:href="../../d2/dc9/group__CIP__API.html#ga5d4979945d124e28668b264c3823db1c" target="_top" xlink:title="Initialize and setup the CIP&#45;stack.">
<polygon fill="none" stroke="black" points="1573.5,-194.5 1573.5,-215.5 1644.5,-215.5 1644.5,-194.5 1573.5,-194.5"/>
<text text-anchor="middle" x="1609" y="-202.5" font-family="Helvetica,sans-Serif" font-size="10.00">CipStackInit</text>
</a>
</g>
<!-- Node8&#45;&gt;Node9 -->
<g id="edge16" class="edge"><title>Node8&#45;&gt;Node9</title>
<path fill="none" stroke="midnightblue" d="M1511.47,-216.751C1532.66,-214.198 1555.15,-211.488 1573.18,-209.315"/>
<polygon fill="midnightblue" stroke="midnightblue" points="1511.03,-213.278 1501.53,-217.949 1511.87,-220.227 1511.03,-213.278"/>
</g>
<!-- Node10 -->
<g id="node19" class="node"><title>Node10</title>
<a xlink:href="../../d9/dfb/POSIX_2main_8c.html#ad338a7dbc41dc40bcecd0479377ef207" target="_top" xlink:title="main">
<polygon fill="none" stroke="black" points="1702,-121.5 1702,-142.5 1740,-142.5 1740,-121.5 1702,-121.5"/>
<text text-anchor="middle" x="1721" y="-129.5" font-family="Helvetica,sans-Serif" font-size="10.00">main</text>
</a>
</g>
<!-- Node9&#45;&gt;Node10 -->
<g id="edge18" class="edge"><title>Node9&#45;&gt;Node10</title>
<path fill="none" stroke="midnightblue" d="M1635.64,-189.052C1645.28,-183.175 1656.19,-176.391 1666,-170 1679.81,-161.001 1695.22,-150.293 1706.21,-142.542"/>
<polygon fill="midnightblue" stroke="midnightblue" points="1633.61,-186.189 1626.87,-194.365 1637.24,-192.176 1633.61,-186.189"/>
</g>
<!-- Node12 -->
<g id="node23" class="node"><title>Node12</title>
<a xlink:href="../../d1/dc0/appcontype_8h.html#a18d2a32030faf1d5e3d48e610b1c4fe7" target="_top" xlink:title="CloseAllConnections">
<polygon fill="none" stroke="black" points="799,-224.5 799,-245.5 907,-245.5 907,-224.5 799,-224.5"/>
<text text-anchor="middle" x="853" y="-232.5" font-family="Helvetica,sans-Serif" font-size="10.00">CloseAllConnections</text>
</a>
</g>
<!-- Node11&#45;&gt;Node12 -->
<g id="edge22" class="edge"><title>Node11&#45;&gt;Node12</title>
<path fill="none" stroke="midnightblue" d="M603.21,-235C659.014,-235 743.967,-235 798.99,-235"/>
<polygon fill="midnightblue" stroke="midnightblue" points="603.143,-231.5 593.143,-235 603.143,-238.5 603.143,-231.5"/>
</g>
<!-- Node13 -->
<g id="node25" class="node"><title>Node13</title>
<a xlink:href="../../d5/dc5/group__CIP__CALLBACK__API.html#gacfb8706d76bc6fe1816546e122fdcac2" target="_top" xlink:title="Emulate as close a possible a power cycle of the device.">
<polygon fill="none" stroke="black" points="1037,-224.5 1037,-245.5 1111,-245.5 1111,-224.5 1037,-224.5"/>
<text text-anchor="middle" x="1074" y="-232.5" font-family="Helvetica,sans-Serif" font-size="10.00">ResetDevice</text>
</a>
</g>
<!-- Node12&#45;&gt;Node13 -->
<g id="edge24" class="edge"><title>Node12&#45;&gt;Node13</title>
<path fill="none" stroke="midnightblue" d="M917.227,-235C956.037,-235 1004.14,-235 1036.75,-235"/>
<polygon fill="midnightblue" stroke="midnightblue" points="917.063,-231.5 907.063,-235 917.063,-238.5 917.063,-231.5"/>
</g>
<!-- Node14 -->
<g id="node27" class="node"><title>Node14</title>
<a xlink:href="../../d2/dc9/group__CIP__API.html#gaa57b527530adc2acda6febc500fd6831" target="_top" xlink:title="Shutdown of the CIP stack.">
<polygon fill="none" stroke="black" points="1023.5,-145.5 1023.5,-166.5 1124.5,-166.5 1124.5,-145.5 1023.5,-145.5"/>
<text text-anchor="middle" x="1074" y="-153.5" font-family="Helvetica,sans-Serif" font-size="10.00">ShutdownCipStack</text>
</a>
</g>
<!-- Node12&#45;&gt;Node14 -->
<g id="edge26" class="edge"><title>Node12&#45;&gt;Node14</title>
<path fill="none" stroke="midnightblue" d="M917.367,-226.128C931.611,-223.295 946.482,-219.648 960,-215 996.458,-202.464 1035.7,-179.927 1057.32,-166.631"/>
<polygon fill="midnightblue" stroke="midnightblue" points="916.316,-222.764 907.134,-228.049 917.608,-229.644 916.316,-222.764"/>
</g>
<!-- Node14&#45;&gt;Node10 -->
<g id="edge28" class="edge"><title>Node14&#45;&gt;Node10</title>
<path fill="none" stroke="midnightblue" d="M1134.95,-153.739C1275.65,-148.52 1617.53,-135.838 1701.93,-132.708"/>
<polygon fill="midnightblue" stroke="midnightblue" points="1134.63,-150.248 1124.77,-154.117 1134.89,-157.244 1134.63,-150.248"/>
</g>
<!-- Node16 -->
<g id="node32" class="node"><title>Node16</title>
<a xlink:href="../../db/d4f/generic__networkhandler_8c.html#ab561fc66fe48a0cf95be3d152b297dd9" target="_top" xlink:title="CheckEncapsulationInactivity">
<polygon fill="none" stroke="black" points="1188,-66.5 1188,-87.5 1334,-87.5 1334,-66.5 1188,-66.5"/>
<text text-anchor="middle" x="1261" y="-74.5" font-family="Helvetica,sans-Serif" font-size="10.00">CheckEncapsulationInactivity</text>
</a>
</g>
<!-- Node15&#45;&gt;Node16 -->
<g id="edge32" class="edge"><title>Node15&#45;&gt;Node16</title>
<path fill="none" stroke="midnightblue" d="M601.646,-108.539C641.582,-104.053 697.081,-98.3096 746,-95 903.098,-84.3716 1087.6,-79.8494 1187.58,-78.061"/>
<polygon fill="midnightblue" stroke="midnightblue" points="601.127,-105.075 591.585,-109.679 601.915,-112.03 601.127,-105.075"/>
</g>
<!-- Node17 -->
<g id="node34" class="node"><title>Node17</title>
<a xlink:href="../../da/dc2/generic__networkhandler_8h.html#a2f01af81d3e5018d9980e2bc28c9078a" target="_top" xlink:title="NetworkHandlerProcessOnce">
<polygon fill="none" stroke="black" points="1370,-86.5 1370,-107.5 1516,-107.5 1516,-86.5 1370,-86.5"/>
<text text-anchor="middle" x="1443" y="-94.5" font-family="Helvetica,sans-Serif" font-size="10.00">NetworkHandlerProcessOnce</text>
</a>
</g>
<!-- Node15&#45;&gt;Node17 -->
<g id="edge52" class="edge"><title>Node15&#45;&gt;Node17</title>
<path fill="none" stroke="midnightblue" d="M601.855,-103.492C641.675,-95.5944 696.942,-85.5694 746,-80 1005.86,-50.4982 1076.5,-11.2442 1334,-57 1365.36,-62.572 1399.53,-76.5029 1421.1,-86.3522"/>
<polygon fill="midnightblue" stroke="midnightblue" points="600.94,-100.106 591.822,-105.502 602.315,-106.97 600.94,-100.106"/>
</g>
<!-- Node18 -->
<g id="node37" class="node"><title>Node18</title>
<a xlink:href="../../d2/dc9/group__CIP__API.html#gab9ff230d61fc6dedd90f8b95e9a27707" target="_top" xlink:title="Inform the encapsulation layer that the remote host has closed the connection.">
<polygon fill="none" stroke="black" points="814.5,-184.5 814.5,-205.5 891.5,-205.5 891.5,-184.5 814.5,-184.5"/>
<text text-anchor="middle" x="853" y="-192.5" font-family="Helvetica,sans-Serif" font-size="10.00">CloseSession</text>
</a>
</g>
<!-- Node15&#45;&gt;Node18 -->
<g id="edge38" class="edge"><title>Node15&#45;&gt;Node18</title>
<path fill="none" stroke="midnightblue" d="M587.729,-128.692C627.704,-141.794 690.568,-161.505 746,-175 768.493,-180.476 793.96,-185.291 814.405,-188.823"/>
<polygon fill="midnightblue" stroke="midnightblue" points="588.671,-125.317 578.078,-125.511 586.479,-131.965 588.671,-125.317"/>
</g>
<!-- Node19 -->
<g id="node39" class="node"><title>Node19</title>
<a xlink:href="../../d4/d91/group__ENCAP.html#ga1261bd2441f744c38d7a3f8d8c16c391" target="_top" xlink:title="Shutdown the encapsulation layer.">
<polygon fill="none" stroke="black" points="791,-144.5 791,-165.5 915,-165.5 915,-144.5 791,-144.5"/>
<text text-anchor="middle" x="853" y="-152.5" font-family="Helvetica,sans-Serif" font-size="10.00">EncapsulationShutDown</text>
</a>
</g>
<!-- Node15&#45;&gt;Node19 -->
<g id="edge40" class="edge"><title>Node15&#45;&gt;Node19</title>
<path fill="none" stroke="midnightblue" d="M602.067,-122.198C655.176,-129.141 735.441,-139.633 790.823,-146.872"/>
<polygon fill="midnightblue" stroke="midnightblue" points="602.192,-118.685 591.823,-120.859 601.285,-125.626 602.192,-118.685"/>
</g>
<!-- Node20 -->
<g id="node42" class="node"><title>Node20</title>
<a xlink:href="../../d2/dbd/encap_8c.html#ace57d7ca02ba16c620014fdd4f842949" target="_top" xlink:title="HandleReceivedUnregisterSessionCommand">
<polygon fill="none" stroke="black" points="746,-104.5 746,-125.5 960,-125.5 960,-104.5 746,-104.5"/>
<text text-anchor="middle" x="853" y="-112.5" font-family="Helvetica,sans-Serif" font-size="10.00">HandleReceivedUnregisterSessionCommand</text>
</a>
</g>
<!-- Node15&#45;&gt;Node20 -->
<g id="edge44" class="edge"><title>Node15&#45;&gt;Node20</title>
<path fill="none" stroke="midnightblue" d="M601.894,-115C641.861,-115 697.273,-115 745.878,-115"/>
<polygon fill="midnightblue" stroke="midnightblue" points="601.823,-111.5 591.823,-115 601.823,-118.5 601.823,-111.5"/>
</g>
<!-- Node16&#45;&gt;Node17 -->
<g id="edge34" class="edge"><title>Node16&#45;&gt;Node17</title>
<path fill="none" stroke="midnightblue" d="M1344.24,-86.1469C1352.8,-87.0884 1361.46,-88.04 1369.91,-88.9682"/>
<polygon fill="midnightblue" stroke="midnightblue" points="1344.56,-82.6617 1334.24,-85.0483 1343.8,-89.6198 1344.56,-82.6617"/>
</g>
<!-- Node17&#45;&gt;Node10 -->
<g id="edge36" class="edge"><title>Node17&#45;&gt;Node10</title>
<path fill="none" stroke="midnightblue" d="M1526.1,-107.462C1587.35,-115.173 1665.97,-125.072 1701.74,-129.575"/>
<polygon fill="midnightblue" stroke="midnightblue" points="1526.4,-103.972 1516.04,-106.196 1525.53,-110.918 1526.4,-103.972"/>
</g>
<!-- Node19&#45;&gt;Node14 -->
<g id="edge42" class="edge"><title>Node19&#45;&gt;Node14</title>
<path fill="none" stroke="midnightblue" d="M925.377,-155.327C957.459,-155.473 994.426,-155.64 1023.47,-155.771"/>
<polygon fill="midnightblue" stroke="midnightblue" points="925.165,-151.827 915.149,-155.281 925.133,-158.827 925.165,-151.827"/>
</g>
<!-- Node21 -->
<g id="node44" class="node"><title>Node21</title>
<a xlink:href="../../d2/dc9/group__CIP__API.html#gadeace7aa415ce7da686b522c85d131d1" target="_top" xlink:title="Notify the encapsulation layer that an explicit message has been received via TCP.">
<polygon fill="none" stroke="black" points="996,-104.5 996,-125.5 1152,-125.5 1152,-104.5 996,-104.5"/>
<text text-anchor="middle" x="1074" y="-112.5" font-family="Helvetica,sans-Serif" font-size="10.00">HandleReceivedExplictTcpData</text>
</a>
</g>
<!-- Node20&#45;&gt;Node21 -->
<g id="edge46" class="edge"><title>Node20&#45;&gt;Node21</title>
<path fill="none" stroke="midnightblue" d="M970.377,-115C978.981,-115 987.53,-115 995.813,-115"/>
<polygon fill="midnightblue" stroke="midnightblue" points="970.263,-111.5 960.263,-115 970.263,-118.5 970.263,-111.5"/>
</g>
<!-- Node22 -->
<g id="node46" class="node"><title>Node22</title>
<a xlink:href="../../db/d4f/generic__networkhandler_8c.html#aca5593b7dd39d7a7b437999a367102d6" target="_top" xlink:title="Handles data on an established TCP connection, processed connection is given by socket.">
<polygon fill="none" stroke="black" points="1197,-106.5 1197,-127.5 1325,-127.5 1325,-106.5 1197,-106.5"/>
<text text-anchor="middle" x="1261" y="-114.5" font-family="Helvetica,sans-Serif" font-size="10.00">HandleDataOnTcpSocket</text>
</a>
</g>
<!-- Node21&#45;&gt;Node22 -->
<g id="edge48" class="edge"><title>Node21&#45;&gt;Node22</title>
<path fill="none" stroke="midnightblue" d="M1162.42,-115.946C1174.08,-116.07 1185.84,-116.196 1196.98,-116.315"/>
<polygon fill="midnightblue" stroke="midnightblue" points="1162.26,-112.444 1152.22,-115.837 1162.18,-119.443 1162.26,-112.444"/>
</g>
<!-- Node22&#45;&gt;Node17 -->
<g id="edge50" class="edge"><title>Node22&#45;&gt;Node17</title>
<path fill="none" stroke="midnightblue" d="M1335.11,-108.856C1346.55,-107.599 1358.36,-106.301 1369.78,-105.046"/>
<polygon fill="midnightblue" stroke="midnightblue" points="1334.72,-105.377 1325.17,-109.949 1335.49,-112.335 1334.72,-105.377"/>
</g>
<!-- Node23&#45;&gt;Node10 -->
<g id="edge56" class="edge"><title>Node23&#45;&gt;Node10</title>
<path fill="none" stroke="midnightblue" d="M1629.27,-52.5565C1652.49,-72.6644 1689.77,-104.957 1708.87,-121.495"/>
<polygon fill="midnightblue" stroke="midnightblue" points="1631.26,-49.6524 1621.41,-45.7513 1626.68,-54.9438 1631.26,-49.6524"/>
</g>
</g>
</svg>
        <g id="navigator" transform="translate(0 0)" fill="#404254">
                <rect fill="#f2f5e9" fill-opacity="0.5" stroke="#606060" stroke-width=".5" x="0" y="0" width="60" height="60"/>
                <use id="zoomplus" xlink:href="#zoomPlus" x="17" y="9" onmousedown="handleZoom(evt,'in')"/>
                <use id="zoomminus" xlink:href="#zoomMin" x="42" y="9" onmousedown="handleZoom(evt,'out')"/>
                <use id="reset" xlink:href="#resetDef" x="30" y="36" onmousedown="handleReset()"/>
                <g id="arrowUp" xlink:href="#dirArrow" transform="translate(30 24)" onmousedown="handlePan(0,-1)">
                  <use xlink:href="#rim" fill="#404040">
                        <set attributeName="fill" to="#808080" begin="arrowUp.mouseover" end="arrowUp.mouseout"/>
                  </use>
                  <path fill="none" stroke="white" stroke-width="1.5" d="M0,-3.0v7 M-2.5,-0.5L0,-3.0L2.5,-0.5"/>
                </g>
                <g id="arrowRight" xlink:href="#dirArrow" transform="rotate(90) translate(36 -43)" onmousedown="handlePan(1,0)">
                  <use xlink:href="#rim" fill="#404040">
                        <set attributeName="fill" to="#808080" begin="arrowRight.mouseover" end="arrowRight.mouseout"/>
                  </use>
                  <path fill="none" stroke="white" stroke-width="1.5" d="M0,-3.0v7 M-2.5,-0.5L0,-3.0L2.5,-0.5"/>
                </g>
                <g id="arrowDown" xlink:href="#dirArrow" transform="rotate(180) translate(-30 -48)" onmousedown="handlePan(0,1)">
                  <use xlink:href="#rim" fill="#404040">
                        <set attributeName="fill" to="#808080" begin="arrowDown.mouseover" end="arrowDown.mouseout"/>
                  </use>
                  <path fill="none" stroke="white" stroke-width="1.5" d="M0,-3.0v7 M-2.5,-0.5L0,-3.0L2.5,-0.5"/>
                </g>
                <g id="arrowLeft" xlink:href="#dirArrow" transform="rotate(270) translate(-36 17)" onmousedown="handlePan(-1,0)">
                  <use xlink:href="#rim" fill="#404040">
                        <set attributeName="fill" to="#808080" begin="arrowLeft.mouseover" end="arrowLeft.mouseout"/>
                  </use>
                  <path fill="none" stroke="white" stroke-width="1.5" d="M0,-3.0v7 M-2.5,-0.5L0,-3.0L2.5,-0.5"/>
                </g>
        </g>
</svg>
