<?xml version="1.0" encoding="UTF-8" standalone="no"?>
<!DOCTYPE svg PUBLIC "-//W3C//DTD SVG 1.1//EN"
 "http://www.w3.org/Graphics/SVG/1.1/DTD/svg11.dtd">
<!-- Generated by graphviz version 2.26.3 (20100126.1600)
 -->
<!-- Title: G Pages: 1 -->
<svg width="484pt" height="70pt"
 viewBox="0.00 0.00 484.00 70.00" xmlns="http://www.w3.org/2000/svg" xmlns:xlink="http://www.w3.org/1999/xlink">
<g id="graph1" class="graph" transform="scale(1 1) rotate(0) translate(4 66)">
<title>G</title>
<!-- Node1 -->
<g id="node1" class="node"><title>Node1</title>
<polygon fill="#bfbfbf" stroke="black" points="0.5,-20.5 0.5,-41.5 95.5,-41.5 95.5,-20.5 0.5,-20.5"/>
<text text-anchor="middle" x="48" y="-28.5" font-family="Helvetica,sans-Serif" font-size="10.00">GetMicroSeconds</text>
</g>
<!-- Node2 -->
<g id="node3" class="node"><title>Node2</title>
<a xlink:href="../../dd/dc7/WIN32_2networkhandler_8h.html#a2d91de751b888e7b5a5c2e2692fd4492" target="_top" xlink:title="This function shall return the current time in milliseconds relative to epoch, and shall be implement...">
<polygon fill="none" stroke="black" points="132,-20.5 132,-41.5 220,-41.5 220,-20.5 132,-20.5"/>
<text text-anchor="middle" x="176" y="-28.5" font-family="Helvetica,sans-Serif" font-size="10.00">GetMilliSeconds</text>
</a>
</g>
<!-- Node1&#45;&gt;Node2 -->
<g id="edge2" class="edge"><title>Node1&#45;&gt;Node2</title>
<path fill="none" stroke="midnightblue" d="M105.767,-31C114.469,-31 123.326,-31 131.686,-31"/>
<polygon fill="midnightblue" stroke="midnightblue" points="105.663,-27.5001 95.6625,-31 105.662,-34.5001 105.663,-27.5001"/>
</g>
<!-- Node3 -->
<g id="node5" class="node"><title>Node3</title>
<a xlink:href="../../da/dc2/generic__networkhandler_8h.html#aa49065f73f4d0f0ab04fb0b35d791e5d" target="_top" xlink:title="The platform independent part of network handler initialization routine.">
<polygon fill="none" stroke="black" points="267.5,-40.5 267.5,-61.5 390.5,-61.5 390.5,-40.5 267.5,-40.5"/>
<text text-anchor="middle" x="329" y="-48.5" font-family="Helvetica,sans-Serif" font-size="10.00">NetworkHandlerInitialize</text>
</a>
</g>
<!-- Node2&#45;&gt;Node3 -->
<g id="edge4" class="edge"><title>Node2&#45;&gt;Node3</title>
<path fill="none" stroke="midnightblue" d="M230.177,-38.082C242.253,-39.6606 255.143,-41.3455 267.491,-42.9596"/>
<polygon fill="midnightblue" stroke="midnightblue" points="230.623,-34.6106 220.254,-36.7848 229.716,-41.5516 230.623,-34.6106"/>
</g>
<!-- Node5 -->
<g id="node9" class="node"><title>Node5</title>
<a xlink:href="../../da/dc2/generic__networkhandler_8h.html#a2f01af81d3e5018d9980e2bc28c9078a" target="_top" xlink:title="NetworkHandlerProcessOnce">
<polygon fill="none" stroke="black" points="256,-0.5 256,-21.5 402,-21.5 402,-0.5 256,-0.5"/>
<text text-anchor="middle" x="329" y="-8.5" font-family="Helvetica,sans-Serif" font-size="10.00">NetworkHandlerProcessOnce</text>
</a>
</g>
<!-- Node2&#45;&gt;Node5 -->
<g id="edge8" class="edge"><title>Node2&#45;&gt;Node5</title>
<path fill="none" stroke="midnightblue" d="M230.42,-23.8863C238.628,-22.8134 247.206,-21.692 255.731,-20.5776"/>
<polygon fill="midnightblue" stroke="midnightblue" points="229.716,-20.4484 220.254,-25.2152 230.623,-27.3894 229.716,-20.4484"/>
</g>
<!-- Node4 -->
<g id="node7" class="node"><title>Node4</title>
<a xlink:href="../../d9/dfb/POSIX_2main_8c.html#ad338a7dbc41dc40bcecd0479377ef207" target="_top" xlink:title="main">
<polygon fill="none" stroke="black" points="438,-20.5 438,-41.5 476,-41.5 476,-20.5 438,-20.5"/>
<text text-anchor="middle" x="457" y="-28.5" font-family="Helvetica,sans-Serif" font-size="10.00">main</text>
</a>
</g>
<!-- Node3&#45;&gt;Node4 -->
<g id="edge6" class="edge"><title>Node3&#45;&gt;Node4</title>
<path fill="none" stroke="midnightblue" d="M400.777,-39.7848C414.481,-37.6436 427.702,-35.5779 437.876,-33.9881"/>
<polygon fill="midnightblue" stroke="midnightblue" points="400.09,-36.3496 390.75,-41.3515 401.171,-43.2657 400.09,-36.3496"/>
</g>
<!-- Node5&#45;&gt;Node4 -->
<g id="edge10" class="edge"><title>Node5&#45;&gt;Node4</title>
<path fill="none" stroke="midnightblue" d="M406.339,-23.0842C418.071,-24.9174 429.178,-26.6528 437.985,-28.0289"/>
<polygon fill="midnightblue" stroke="midnightblue" points="406.794,-19.6129 396.374,-21.5271 405.713,-26.529 406.794,-19.6129"/>
</g>
</g>
</svg>
