<?xml version="1.0" encoding="UTF-8" standalone="no"?>
<!DOCTYPE svg PUBLIC "-//W3C//DTD SVG 1.1//EN"
 "http://www.w3.org/Graphics/SVG/1.1/DTD/svg11.dtd">
<!-- Generated by graphviz version 2.36.0 (20140111.2315)
 -->
<!-- Title: SetQosOnSocket Pages: 1 -->
<!--zoomable 345 -->
<svg id="main" version="1.1" xmlns="http://www.w3.org/2000/svg" xmlns:xlink="http://www.w3.org/1999/xlink" xml:space="preserve" onload="init(evt)">
<style type="text/css"><![CDATA[
.edge:hover path { stroke: red; }
.edge:hover polygon { stroke: red; fill: red; }
]]></style>
<script type="text/javascript"><![CDATA[
var edges = document.getElementsByTagName('g');
if (edges && edges.length) {
  for (var i=0;i<edges.length;i++) {
    if (edges[i].id.substr(0,4)=='edge') {
      edges[i].setAttribute('class','edge');
    }
  }
}
]]></script>
        <defs>
                <circle id="rim" cx="0" cy="0" r="7"/>
                <circle id="rim2" cx="0" cy="0" r="3.5"/>
                <g id="zoomPlus">
                        <use xlink:href="#rim" fill="#404040">
                                <set attributeName="fill" to="#808080" begin="zoomplus.mouseover" end="zoomplus.mouseout"/>
                        </use>
                        <path d="M-4,0h8M0,-4v8" fill="none" stroke="white" stroke-width="1.5" pointer-events="none"/>
                </g>
                <g id="zoomMin">
                        <use xlink:href="#rim" fill="#404040">
                                <set attributeName="fill" to="#808080" begin="zoomminus.mouseover" end="zoomminus.mouseout"/>
                        </use>
                        <path d="M-4,0h8" fill="none" stroke="white" stroke-width="1.5" pointer-events="none"/>
                </g>
                <g id="dirArrow">
                        <path fill="none" stroke="white" stroke-width="1.5" d="M0,-3.0v7 M-2.5,-0.5L0,-3.0L2.5,-0.5"/>
                </g>
               <g id="resetDef">
                       <use xlink:href="#rim2" fill="#404040">
                               <set attributeName="fill" to="#808080" begin="reset.mouseover" end="reset.mouseout"/>
                       </use>
               </g>
        </defs>

<script type="text/javascript">
var viewWidth = 1426;
var viewHeight = 345;
var sectionId = 'dynsection-5';
</script>
<script xlink:href="../../svgpan.js"/>
<svg id="graph" class="graph">
<g id="viewport">
<title>SetQosOnSocket</title>
<!-- Node1 -->
<g id="node1" class="node"><title>Node1</title>
<polygon fill="#bfbfbf" stroke="black" points="0.5,-215.5 0.5,-234.5 93.5,-234.5 93.5,-215.5 0.5,-215.5"/>
<text text-anchor="middle" x="47" y="-222.5" font-family="Helvetica,sans-Serif" font-size="10.00">SetQosOnSocket</text>
</g>
<!-- Node2 -->
<g id="node2" class="node"><title>Node2</title>
<g id="a_node2"><a xlink:href="../../db/d4f/generic__networkhandler_8c.html#a8c1688da4bc37416162f4ba5ac436294" target="_top" xlink:title="handle any connection request coming in the TCP server socket. ">
<polygon fill="none" stroke="black" points="130,-270 130,-300 274,-300 274,-270 130,-270"/>
<text text-anchor="start" x="138" y="-288" font-family="Helvetica,sans-Serif" font-size="10.00">CheckAndHandleTcpListener</text>
<text text-anchor="middle" x="202" y="-277" font-family="Helvetica,sans-Serif" font-size="10.00">Socket</text>
</a>
</g>
</g>
<!-- Node1&#45;&gt;Node2 -->
<g id="edge1" class="edge"><title>Node1&#45;&gt;Node2</title>
<path fill="none" stroke="midnightblue" d="M81.6099,-238.18C105.505,-247.551 137.649,-260.157 162.564,-269.927"/>
<polygon fill="midnightblue" stroke="midnightblue" points="82.8309,-234.9 72.2433,-234.507 80.2752,-241.417 82.8309,-234.9"/>
</g>
<!-- Node5 -->
<g id="node5" class="node"><title>Node5</title>
<g id="a_node5"><a xlink:href="../../d5/dc5/group__CIP__CALLBACK__API.html#ga5807bcc51621775c9aedbf58d3a7a6d3" target="_top" xlink:title="create a new UDP socket for the connection manager ">
<polygon fill="none" stroke="black" points="154.5,-156.5 154.5,-175.5 249.5,-175.5 249.5,-156.5 154.5,-156.5"/>
<text text-anchor="middle" x="202" y="-163.5" font-family="Helvetica,sans-Serif" font-size="10.00">CreateUdpSocket</text>
</a>
</g>
</g>
<!-- Node1&#45;&gt;Node5 -->
<g id="edge4" class="edge"><title>Node1&#45;&gt;Node5</title>
<path fill="none" stroke="midnightblue" d="M82.5075,-211.693C111.058,-200.684 150.915,-185.314 176.342,-175.509"/>
<polygon fill="midnightblue" stroke="midnightblue" points="80.9936,-208.526 72.9226,-215.389 83.5122,-215.057 80.9936,-208.526"/>
</g>
<!-- Node3 -->
<g id="node3" class="node"><title>Node3</title>
<g id="a_node3"><a xlink:href="../../da/dc2/generic__networkhandler_8h.html#a2f01af81d3e5018d9980e2bc28c9078a" target="_top" xlink:title="NetworkHandlerProcessOnce">
<polygon fill="none" stroke="black" points="936,-317.5 936,-336.5 1082,-336.5 1082,-317.5 936,-317.5"/>
<text text-anchor="middle" x="1009" y="-324.5" font-family="Helvetica,sans-Serif" font-size="10.00">NetworkHandlerProcessOnce</text>
</a>
</g>
</g>
<!-- Node2&#45;&gt;Node3 -->
<g id="edge2" class="edge"><title>Node2&#45;&gt;Node3</title>
<path fill="none" stroke="midnightblue" d="M284.206,-296.158C350.257,-304.699 445.953,-315.858 530,-321 673.724,-329.793 842.191,-329.423 935.847,-328.272"/>
<polygon fill="midnightblue" stroke="midnightblue" points="284.642,-292.686 274.273,-294.865 283.738,-299.627 284.642,-292.686"/>
</g>
<!-- Node4 -->
<g id="node4" class="node"><title>Node4</title>
<g id="a_node4"><a xlink:href="../../d9/dfb/POSIX_2main_8c.html#ad338a7dbc41dc40bcecd0479377ef207" target="_top" xlink:title="main">
<polygon fill="none" stroke="black" points="1380,-238.5 1380,-257.5 1418,-257.5 1418,-238.5 1380,-238.5"/>
<text text-anchor="middle" x="1399" y="-245.5" font-family="Helvetica,sans-Serif" font-size="10.00">main</text>
</a>
</g>
</g>
<!-- Node3&#45;&gt;Node4 -->
<g id="edge3" class="edge"><title>Node3&#45;&gt;Node4</title>
<path fill="none" stroke="midnightblue" d="M1066.74,-315.448C1155.8,-297.315 1323.99,-263.068 1379.62,-251.742"/>
<polygon fill="midnightblue" stroke="midnightblue" points="1065.9,-312.046 1056.8,-317.471 1067.3,-318.905 1065.9,-312.046"/>
</g>
<!-- Node6 -->
<g id="node6" class="node"><title>Node6</title>
<g id="a_node6"><a xlink:href="../../df/d03/cipioconnection_8c.html#add645b42730b2cea369523949c6b9745" target="_top" xlink:title="Open a Point2Point connection dependent on pa_direction. ">
<polygon fill="none" stroke="black" points="546,-282 546,-312 692,-312 692,-282 546,-282"/>
<text text-anchor="start" x="554" y="-300" font-family="Helvetica,sans-Serif" font-size="10.00">OpenConsumingPointToPoint</text>
<text text-anchor="middle" x="619" y="-289" font-family="Helvetica,sans-Serif" font-size="10.00">Connection</text>
</a>
</g>
</g>
<!-- Node5&#45;&gt;Node6 -->
<g id="edge5" class="edge"><title>Node5&#45;&gt;Node6</title>
<path fill="none" stroke="midnightblue" d="M222.695,-181.659C243.293,-197.253 277.143,-220.726 310,-234 387.3,-265.229 482.01,-281.62 545.832,-289.762"/>
<polygon fill="midnightblue" stroke="midnightblue" points="224.777,-178.845 214.72,-175.511 220.503,-184.389 224.777,-178.845"/>
</g>
<!-- Node8 -->
<g id="node8" class="node"><title>Node8</title>
<g id="a_node8"><a xlink:href="../../df/d03/cipioconnection_8c.html#aa3b58fd216ec6712abc29ef84b33006d" target="_top" xlink:title="OpenProducingPointToPoint\lConnection">
<polygon fill="none" stroke="black" points="549,-233 549,-263 689,-263 689,-233 549,-233"/>
<text text-anchor="start" x="557" y="-251" font-family="Helvetica,sans-Serif" font-size="10.00">OpenProducingPointToPoint</text>
<text text-anchor="middle" x="619" y="-240" font-family="Helvetica,sans-Serif" font-size="10.00">Connection</text>
</a>
</g>
</g>
<!-- Node5&#45;&gt;Node8 -->
<g id="edge7" class="edge"><title>Node5&#45;&gt;Node8</title>
<path fill="none" stroke="midnightblue" d="M235.356,-179.395C256.317,-187.594 284.388,-197.69 310,-204 390.768,-223.9 485.82,-235.78 548.743,-242.088"/>
<polygon fill="midnightblue" stroke="midnightblue" points="236.555,-176.105 225.969,-175.664 233.97,-182.61 236.555,-176.105"/>
</g>
<!-- Node9 -->
<g id="node9" class="node"><title>Node9</title>
<g id="a_node9"><a xlink:href="../../df/d03/cipioconnection_8c.html#a9e2ce4666173987646cf60ce3422d7b4" target="_top" xlink:title="OpenMulticastConnection">
<polygon fill="none" stroke="black" points="337.5,-175.5 337.5,-194.5 466.5,-194.5 466.5,-175.5 337.5,-175.5"/>
<text text-anchor="middle" x="402" y="-182.5" font-family="Helvetica,sans-Serif" font-size="10.00">OpenMulticastConnection</text>
</a>
</g>
</g>
<!-- Node5&#45;&gt;Node9 -->
<g id="edge9" class="edge"><title>Node5&#45;&gt;Node9</title>
<path fill="none" stroke="midnightblue" d="M259.79,-171.45C284.042,-173.777 312.453,-176.503 337.407,-178.898"/>
<polygon fill="midnightblue" stroke="midnightblue" points="259.961,-167.95 249.673,-170.479 259.292,-174.918 259.961,-167.95"/>
</g>
<!-- Node11 -->
<g id="node11" class="node"><title>Node11</title>
<g id="a_node11"><a xlink:href="../../df/d03/cipioconnection_8c.html#aeb3ea12ff2e504792175536552f0b85a" target="_top" xlink:title="OpenProducingMulticastConnection2">
<polygon fill="none" stroke="black" points="530,-118.5 530,-137.5 708,-137.5 708,-118.5 530,-118.5"/>
<text text-anchor="middle" x="619" y="-125.5" font-family="Helvetica,sans-Serif" font-size="10.00">OpenProducingMulticastConnection2</text>
</a>
</g>
</g>
<!-- Node5&#45;&gt;Node11 -->
<g id="edge25" class="edge"><title>Node5&#45;&gt;Node11</title>
<path fill="none" stroke="midnightblue" d="M260.129,-160.769C329.79,-154.39 448.286,-143.54 529.714,-136.084"/>
<polygon fill="midnightblue" stroke="midnightblue" points="259.438,-157.317 249.799,-161.715 260.077,-164.288 259.438,-157.317"/>
</g>
<!-- Node16 -->
<g id="node16" class="node"><title>Node16</title>
<g id="a_node16"><a xlink:href="../../df/d03/cipioconnection_8c.html#abadaf226b9a8603d441da66c826c8d01" target="_top" xlink:title="OpenConsumingPointToPoint\lConnection2">
<polygon fill="none" stroke="black" points="329,-88 329,-118 475,-118 475,-88 329,-88"/>
<text text-anchor="start" x="337" y="-106" font-family="Helvetica,sans-Serif" font-size="10.00">OpenConsumingPointToPoint</text>
<text text-anchor="middle" x="402" y="-95" font-family="Helvetica,sans-Serif" font-size="10.00">Connection2</text>
</a>
</g>
</g>
<!-- Node5&#45;&gt;Node16 -->
<g id="edge19" class="edge"><title>Node5&#45;&gt;Node16</title>
<path fill="none" stroke="midnightblue" d="M242.969,-153.282C274.949,-143.107 319.873,-128.813 353.653,-118.065"/>
<polygon fill="midnightblue" stroke="midnightblue" points="241.54,-150.064 233.072,-156.432 243.662,-156.735 241.54,-150.064"/>
</g>
<!-- Node17 -->
<g id="node17" class="node"><title>Node17</title>
<g id="a_node17"><a xlink:href="../../df/d03/cipioconnection_8c.html#a2d81164d758ab14b89a56106137d489f" target="_top" xlink:title="OpenProducingPointToPoint\lConnection2">
<polygon fill="none" stroke="black" points="332,-39 332,-69 472,-69 472,-39 332,-39"/>
<text text-anchor="start" x="340" y="-57" font-family="Helvetica,sans-Serif" font-size="10.00">OpenProducingPointToPoint</text>
<text text-anchor="middle" x="402" y="-46" font-family="Helvetica,sans-Serif" font-size="10.00">Connection2</text>
</a>
</g>
</g>
<!-- Node5&#45;&gt;Node17 -->
<g id="edge21" class="edge"><title>Node5&#45;&gt;Node17</title>
<path fill="none" stroke="midnightblue" d="M218.919,-149.056C238.514,-129.18 273.682,-96.5887 310,-78 316.836,-74.5012 324.229,-71.4781 331.744,-68.8741"/>
<polygon fill="midnightblue" stroke="midnightblue" points="216.178,-146.855 211.743,-156.477 221.21,-151.721 216.178,-146.855"/>
</g>
<!-- Node18 -->
<g id="node18" class="node"><title>Node18</title>
<g id="a_node18"><a xlink:href="../../df/d03/cipioconnection_8c.html#aa90ccc8c4124b8013429b65af9aed1e7" target="_top" xlink:title="OpenConsumingMulticastConnection2">
<polygon fill="none" stroke="black" points="310,-0.5 310,-19.5 494,-19.5 494,-0.5 310,-0.5"/>
<text text-anchor="middle" x="402" y="-7.5" font-family="Helvetica,sans-Serif" font-size="10.00">OpenConsumingMulticastConnection2</text>
</a>
</g>
</g>
<!-- Node5&#45;&gt;Node18 -->
<g id="edge23" class="edge"><title>Node5&#45;&gt;Node18</title>
<path fill="none" stroke="midnightblue" d="M211.942,-147.515C227.463,-117.529 262.351,-58.6606 310,-29 316.166,-25.162 322.976,-22.0862 330.013,-19.6232"/>
<polygon fill="midnightblue" stroke="midnightblue" points="208.793,-145.986 207.431,-156.492 215.048,-149.129 208.793,-145.986"/>
</g>
<!-- Node7 -->
<g id="node7" class="node"><title>Node7</title>
<g id="a_node7"><a xlink:href="../../df/d03/cipioconnection_8c.html#a7e2d3b42cbbf6cca784c55d10ba7063e" target="_top" xlink:title="OpenCommunicationChannels1">
<polygon fill="none" stroke="black" points="744.5,-216.5 744.5,-235.5 899.5,-235.5 899.5,-216.5 744.5,-216.5"/>
<text text-anchor="middle" x="822" y="-223.5" font-family="Helvetica,sans-Serif" font-size="10.00">OpenCommunicationChannels1</text>
</a>
</g>
</g>
<!-- Node6&#45;&gt;Node7 -->
<g id="edge6" class="edge"><title>Node6&#45;&gt;Node7</title>
<path fill="none" stroke="midnightblue" d="M686.523,-278.943C693.806,-276.717 701.083,-274.382 708,-272 740.443,-260.826 777.077,-245.373 799.605,-235.532"/>
<polygon fill="midnightblue" stroke="midnightblue" points="685.197,-275.687 676.62,-281.907 687.204,-282.393 685.197,-275.687"/>
</g>
<!-- Node8&#45;&gt;Node7 -->
<g id="edge8" class="edge"><title>Node8&#45;&gt;Node7</title>
<path fill="none" stroke="midnightblue" d="M699.339,-239.316C714.196,-237.69 729.7,-235.993 744.471,-234.376"/>
<polygon fill="midnightblue" stroke="midnightblue" points="698.733,-235.862 689.173,-240.429 699.494,-242.82 698.733,-235.862"/>
</g>
<!-- Node9&#45;&gt;Node7 -->
<g id="edge10" class="edge"><title>Node9&#45;&gt;Node7</title>
<path fill="none" stroke="midnightblue" d="M477.274,-192.285C552.473,-199.661 668.227,-211.015 744.289,-218.476"/>
<polygon fill="midnightblue" stroke="midnightblue" points="477.234,-188.765 466.94,-191.272 476.551,-195.731 477.234,-188.765"/>
</g>
<!-- Node10 -->
<g id="node10" class="node"><title>Node10</title>
<g id="a_node10"><a xlink:href="../../df/d03/cipioconnection_8c.html#a5dea6fc1be0ed4ecf5d9e4f932d52106" target="_top" xlink:title="OpenProducingMulticastConnection">
<polygon fill="none" stroke="black" points="532.5,-156.5 532.5,-175.5 705.5,-175.5 705.5,-156.5 532.5,-156.5"/>
<text text-anchor="middle" x="619" y="-163.5" font-family="Helvetica,sans-Serif" font-size="10.00">OpenProducingMulticastConnection</text>
</a>
</g>
</g>
<!-- Node9&#45;&gt;Node10 -->
<g id="edge11" class="edge"><title>Node9&#45;&gt;Node10</title>
<path fill="none" stroke="midnightblue" d="M476.943,-178.466C494.748,-176.892 513.917,-175.198 532.212,-173.581"/>
<polygon fill="midnightblue" stroke="midnightblue" points="476.287,-175.01 466.634,-179.376 476.904,-181.983 476.287,-175.01"/>
</g>
<!-- Node9&#45;&gt;Node11 -->
<g id="edge13" class="edge"><title>Node9&#45;&gt;Node11</title>
<path fill="none" stroke="midnightblue" d="M453.139,-172.862C466.504,-169.332 480.875,-165.268 494,-161 510.326,-155.691 513.558,-151.938 530,-147 541.826,-143.448 554.733,-140.279 566.928,-137.595"/>
<polygon fill="midnightblue" stroke="midnightblue" points="451.952,-169.554 443.151,-175.453 453.709,-176.33 451.952,-169.554"/>
</g>
<!-- Node10&#45;&gt;Node7 -->
<g id="edge12" class="edge"><title>Node10&#45;&gt;Node7</title>
<path fill="none" stroke="midnightblue" d="M666.481,-178.283C679.911,-181.939 694.567,-186.03 708,-190 736.828,-198.519 769.528,-209.03 792.307,-216.491"/>
<polygon fill="midnightblue" stroke="midnightblue" points="667.057,-174.813 656.49,-175.582 665.23,-181.571 667.057,-174.813"/>
</g>
<!-- Node12 -->
<g id="node12" class="node"><title>Node12</title>
<g id="a_node12"><a xlink:href="../../de/d45/cipioconnection_8h.html#a53b85bce88b582414fc282c95f5626f4" target="_top" xlink:title="Take the data given in the connection object structure and open the necessary communication channels...">
<polygon fill="none" stroke="black" points="747.5,-80.5 747.5,-99.5 896.5,-99.5 896.5,-80.5 747.5,-80.5"/>
<text text-anchor="middle" x="822" y="-87.5" font-family="Helvetica,sans-Serif" font-size="10.00">OpenCommunicationChannels</text>
</a>
</g>
</g>
<!-- Node11&#45;&gt;Node12 -->
<g id="edge14" class="edge"><title>Node11&#45;&gt;Node12</title>
<path fill="none" stroke="midnightblue" d="M680.396,-116.582C709.155,-111.145 743.156,-104.717 770.518,-99.5439"/>
<polygon fill="midnightblue" stroke="midnightblue" points="679.637,-113.163 670.461,-118.46 680.937,-120.041 679.637,-113.163"/>
</g>
<!-- Node13 -->
<g id="node13" class="node"><title>Node13</title>
<g id="a_node13"><a xlink:href="../../de/d45/cipioconnection_8h.html#a43e270b3f9b9f6296b12285c320c95aa" target="_top" xlink:title="Setup all data in order to establish an IO connection. ">
<polygon fill="none" stroke="black" points="951.5,-186.5 951.5,-205.5 1066.5,-205.5 1066.5,-186.5 951.5,-186.5"/>
<text text-anchor="middle" x="1009" y="-193.5" font-family="Helvetica,sans-Serif" font-size="10.00">EstablishIoConnection</text>
</a>
</g>
</g>
<!-- Node12&#45;&gt;Node13 -->
<g id="edge15" class="edge"><title>Node12&#45;&gt;Node13</title>
<path fill="none" stroke="midnightblue" d="M848.775,-104.769C887.264,-126.821 958.696,-167.75 991.161,-186.352"/>
<polygon fill="midnightblue" stroke="midnightblue" points="850.161,-101.528 839.744,-99.5937 846.68,-107.602 850.161,-101.528"/>
</g>
<!-- Node14 -->
<g id="node14" class="node"><title>Node14</title>
<g id="a_node14"><a xlink:href="../../d2/da3/cipconnectionmanager_8h.html#a5ab0de6894d23e8fe84a6b46797c2212" target="_top" xlink:title="Initialize the data of the connection manager object. ">
<polygon fill="none" stroke="black" points="1118.5,-199.5 1118.5,-218.5 1235.5,-218.5 1235.5,-199.5 1118.5,-199.5"/>
<text text-anchor="middle" x="1177" y="-206.5" font-family="Helvetica,sans-Serif" font-size="10.00">ConnectionManagerInit</text>
</a>
</g>
</g>
<!-- Node13&#45;&gt;Node14 -->
<g id="edge16" class="edge"><title>Node13&#45;&gt;Node14</title>
<path fill="none" stroke="midnightblue" d="M1077.02,-201.249C1090.76,-202.324 1105.1,-203.447 1118.46,-204.494"/>
<polygon fill="midnightblue" stroke="midnightblue" points="1076.91,-197.729 1066.66,-200.438 1076.36,-204.708 1076.91,-197.729"/>
</g>
<!-- Node15 -->
<g id="node15" class="node"><title>Node15</title>
<g id="a_node15"><a xlink:href="../../d2/dc9/group__CIP__API.html#ga5d4979945d124e28668b264c3823db1c" target="_top" xlink:title="Initialize and setup the CIP&#45;stack. ">
<polygon fill="none" stroke="black" points="1272.5,-213.5 1272.5,-232.5 1343.5,-232.5 1343.5,-213.5 1272.5,-213.5"/>
<text text-anchor="middle" x="1308" y="-220.5" font-family="Helvetica,sans-Serif" font-size="10.00">CipStackInit</text>
</a>
</g>
</g>
<!-- Node14&#45;&gt;Node15 -->
<g id="edge17" class="edge"><title>Node14&#45;&gt;Node15</title>
<path fill="none" stroke="midnightblue" d="M1245.69,-216.346C1254.89,-217.344 1264,-218.333 1272.27,-219.231"/>
<polygon fill="midnightblue" stroke="midnightblue" points="1246.03,-212.862 1235.71,-215.263 1245.27,-219.822 1246.03,-212.862"/>
</g>
<!-- Node15&#45;&gt;Node4 -->
<g id="edge18" class="edge"><title>Node15&#45;&gt;Node4</title>
<path fill="none" stroke="midnightblue" d="M1352.79,-235.301C1362.37,-237.992 1371.99,-240.694 1379.88,-242.911"/>
<polygon fill="midnightblue" stroke="midnightblue" points="1353.47,-231.858 1342.9,-232.523 1351.58,-238.597 1353.47,-231.858"/>
</g>
<!-- Node16&#45;&gt;Node12 -->
<g id="edge20" class="edge"><title>Node16&#45;&gt;Node12</title>
<path fill="none" stroke="midnightblue" d="M485.384,-100.438C561.682,-98.0649 674.109,-94.5684 747.448,-92.2875"/>
<polygon fill="midnightblue" stroke="midnightblue" points="485.219,-96.9412 475.333,-100.75 485.437,-103.938 485.219,-96.9412"/>
</g>
<!-- Node17&#45;&gt;Node12 -->
<g id="edge22" class="edge"><title>Node17&#45;&gt;Node12</title>
<path fill="none" stroke="midnightblue" d="M482.059,-60.8089C558.332,-67.3779 672.88,-77.2433 747.296,-83.6523"/>
<polygon fill="midnightblue" stroke="midnightblue" points="482.288,-57.3157 472.024,-59.9447 481.687,-64.2899 482.288,-57.3157"/>
</g>
<!-- Node18&#45;&gt;Node12 -->
<g id="edge24" class="edge"><title>Node18&#45;&gt;Node12</title>
<path fill="none" stroke="midnightblue" d="M477.3,-21.0921C539.238,-30.7155 629.677,-45.6429 708,-62 734.116,-67.454 763.343,-74.7279 785.529,-80.4949"/>
<polygon fill="midnightblue" stroke="midnightblue" points="477.645,-17.6039 467.228,-19.5349 476.575,-24.5218 477.645,-17.6039"/>
</g>
</g>
</svg>
        <g id="navigator" transform="translate(0 0)" fill="#404254">
                <rect fill="#f2f5e9" fill-opacity="0.5" stroke="#606060" stroke-width=".5" x="0" y="0" width="60" height="60"/>
                <use id="zoomplus" xlink:href="#zoomPlus" x="17" y="9" onmousedown="handleZoom(evt,'in')"/>
                <use id="zoomminus" xlink:href="#zoomMin" x="42" y="9" onmousedown="handleZoom(evt,'out')"/>
                <use id="reset" xlink:href="#resetDef" x="30" y="36" onmousedown="handleReset()"/>
                <g id="arrowUp" xlink:href="#dirArrow" transform="translate(30 24)" onmousedown="handlePan(0,-1)">
                  <use xlink:href="#rim" fill="#404040">
                        <set attributeName="fill" to="#808080" begin="arrowUp.mouseover" end="arrowUp.mouseout"/>
                  </use>
                  <path fill="none" stroke="white" stroke-width="1.5" d="M0,-3.0v7 M-2.5,-0.5L0,-3.0L2.5,-0.5"/>
                </g>
                <g id="arrowRight" xlink:href="#dirArrow" transform="rotate(90) translate(36 -43)" onmousedown="handlePan(1,0)">
                  <use xlink:href="#rim" fill="#404040">
                        <set attributeName="fill" to="#808080" begin="arrowRight.mouseover" end="arrowRight.mouseout"/>
                  </use>
                  <path fill="none" stroke="white" stroke-width="1.5" d="M0,-3.0v7 M-2.5,-0.5L0,-3.0L2.5,-0.5"/>
                </g>
                <g id="arrowDown" xlink:href="#dirArrow" transform="rotate(180) translate(-30 -48)" onmousedown="handlePan(0,1)">
                  <use xlink:href="#rim" fill="#404040">
                        <set attributeName="fill" to="#808080" begin="arrowDown.mouseover" end="arrowDown.mouseout"/>
                  </use>
                  <path fill="none" stroke="white" stroke-width="1.5" d="M0,-3.0v7 M-2.5,-0.5L0,-3.0L2.5,-0.5"/>
                </g>
                <g id="arrowLeft" xlink:href="#dirArrow" transform="rotate(270) translate(-36 17)" onmousedown="handlePan(-1,0)">
                  <use xlink:href="#rim" fill="#404040">
                        <set attributeName="fill" to="#808080" begin="arrowLeft.mouseover" end="arrowLeft.mouseout"/>
                  </use>
                  <path fill="none" stroke="white" stroke-width="1.5" d="M0,-3.0v7 M-2.5,-0.5L0,-3.0L2.5,-0.5"/>
                </g>
        </g>
        <svg viewBox="0 0 15 15" width="100%" height="30px" preserveAspectRatio="xMaxYMin meet">
         <g id="arrow_out" transform="scale(0.3 0.3)">
          <a xlink:href="POSIX_2networkhandler_8c_a20a53fded2d3f1e17272dbc7185988fd_icgraph_org.svg" target="_base">
           <rect id="button" ry="5" rx="5" y="6" x="6" height="38" width="38"
                fill="#f2f5e9" fill-opacity="0.5" stroke="#606060" stroke-width="1.0"/>
           <path id="arrow"
             d="M 11.500037,31.436501 C 11.940474,20.09759 22.043105,11.32322 32.158766,21.979434 L 37.068811,17.246167 C 37.068811,17.246167 37.088388,32 37.088388,32 L 22.160133,31.978069 C 22.160133,31.978069 26.997745,27.140456 26.997745,27.140456 C 18.528582,18.264221 13.291696,25.230495 11.500037,31.436501 z"
             style="fill:#404040;"/>
          </a>
         </g>
        </svg>
</svg>
