<?xml version="1.0" encoding="UTF-8" standalone="no"?>
<!DOCTYPE svg PUBLIC "-//W3C//DTD SVG 1.1//EN"
 "http://www.w3.org/Graphics/SVG/1.1/DTD/svg11.dtd">
<!-- Generated by graphviz version 2.26.3 (20100126.1600)
 -->
<!-- Title: G Pages: 1 -->
<!--zoomable 368 -->
<svg id="main" version="1.1" xmlns="http://www.w3.org/2000/svg" xmlns:xlink="http://www.w3.org/1999/xlink" xml:space="preserve" onload="init(evt)">
        <defs>
                <circle id="rim" cx="0" cy="0" r="7"/>
                <circle id="rim2" cx="0" cy="0" r="3.5"/>
                <g id="zoomPlus">
                        <use xlink:href="#rim" fill="#404040">
                                <set attributeName="fill" to="#808080" begin="zoomplus.mouseover" end="zoomplus.mouseout"/>
                        </use>
                        <path d="M-4,0h8M0,-4v8" fill="none" stroke="white" stroke-width="1.5" pointer-events="none"/>
                </g>
                <g id="zoomMin">
                        <use xlink:href="#rim" fill="#404040">
                                <set attributeName="fill" to="#808080" begin="zoomminus.mouseover" end="zoomminus.mouseout"/>
                        </use>
                        <path d="M-4,0h8" fill="none" stroke="white" stroke-width="1.5" pointer-events="none"/>
                </g>
                <g id="dirArrow">
                        <path fill="none" stroke="white" stroke-width="1.5" d="M0,-3.0v7 M-2.5,-0.5L0,-3.0L2.5,-0.5"/>
                </g>
               <g id="resetDef">
                       <use xlink:href="#rim2" fill="#404040">
                               <set attributeName="fill" to="#808080" begin="reset.mouseover" end="reset.mouseout"/>
                       </use>
               </g>
        </defs>

<script type="text/javascript">
var viewWidth = 912;
var viewHeight = 368;
var sectionId = 'dynsection-6';
</script>
<script xlink:href="../../svgpan.js"/>
<svg id="graph" class="graph">
<g id="viewport">
<title>G</title>
<!-- Node1 -->
<g id="node1" class="node"><title>Node1</title>
<polygon fill="#bfbfbf" stroke="black" points="0.5,-195.469 0.5,-216.469 59.5,-216.469 59.5,-195.469 0.5,-195.469"/>
<text text-anchor="middle" x="30" y="-203.469" font-family="Helvetica,sans-Serif" font-size="10.00">CipCalloc</text>
</g>
<!-- Node2 -->
<g id="node3" class="node"><title>Node2</title>
<a xlink:href="../../d2/dc9/group__CIP__API.html#ga39dafca98f844a12511af11b1273d0a8" target="_top" xlink:title="Add a number of CIP instances to a given CIP class.">
<polygon fill="none" stroke="black" points="109,-235.469 109,-256.469 201,-256.469 201,-235.469 109,-235.469"/>
<text text-anchor="middle" x="155" y="-243.469" font-family="Helvetica,sans-Serif" font-size="10.00">AddCipInstances</text>
</a>
</g>
<!-- Node1&#45;&gt;Node2 -->
<g id="edge2" class="edge"><title>Node1&#45;&gt;Node2</title>
<path fill="none" stroke="midnightblue" d="M69.2625,-218.533C86.2356,-223.964 105.875,-230.248 122.071,-235.431"/>
<polygon fill="midnightblue" stroke="midnightblue" points="70.2142,-215.162 59.6233,-215.448 68.0808,-221.829 70.2142,-215.162"/>
</g>
<!-- Node4 -->
<g id="node7" class="node"><title>Node4</title>
<a xlink:href="../../d2/dc9/group__CIP__API.html#gae61b613fed863d30428e78b2311bf593" target="_top" xlink:title="Create an instance of an assembly object.">
<polygon fill="none" stroke="black" points="560,-259.469 560,-280.469 678,-280.469 678,-259.469 560,-259.469"/>
<text text-anchor="middle" x="619" y="-267.469" font-family="Helvetica,sans-Serif" font-size="10.00">CreateAssemblyObject</text>
</a>
</g>
<!-- Node1&#45;&gt;Node4 -->
<g id="edge54" class="edge"><title>Node1&#45;&gt;Node4</title>
<path fill="none" stroke="midnightblue" d="M44.7494,-224.566C56.9125,-238.467 75.4572,-256.62 96,-265.969 260.671,-340.91 485.833,-301.618 577.568,-280.514"/>
<polygon fill="midnightblue" stroke="midnightblue" points="47.1514,-221.984 38.0401,-216.577 41.7909,-226.486 47.1514,-221.984"/>
</g>
<!-- Node6 -->
<g id="node11" class="node"><title>Node6</title>
<a xlink:href="../../d2/dc9/group__CIP__API.html#ga3dfa07bc40e59ba348d713272d1cbfdb" target="_top" xlink:title="Allocate memory for new CIP Class and attributes.">
<polygon fill="none" stroke="black" points="267,-151.469 267,-172.469 353,-172.469 353,-151.469 267,-151.469"/>
<text text-anchor="middle" x="310" y="-159.469" font-family="Helvetica,sans-Serif" font-size="10.00">CreateCipClass</text>
</a>
</g>
<!-- Node1&#45;&gt;Node6 -->
<g id="edge56" class="edge"><title>Node1&#45;&gt;Node6</title>
<path fill="none" stroke="midnightblue" d="M43.7218,-187.587C55.7029,-173.198 74.5083,-154.277 96,-145.969 157.334,-122.257 235.818,-138.847 278.649,-151.438"/>
<polygon fill="midnightblue" stroke="midnightblue" points="40.9757,-185.417 37.4873,-195.421 46.4529,-189.776 40.9757,-185.417"/>
</g>
<!-- Node16 -->
<g id="node37" class="node"><title>Node16</title>
<a xlink:href="../../d2/dc9/group__CIP__API.html#ga5ec1d2c432792c39f93c170943964302" target="_top" xlink:title="Allocates Attribute bitmasks.">
<polygon fill="none" stroke="black" points="96,-195.469 96,-216.469 214,-216.469 214,-195.469 96,-195.469"/>
<text text-anchor="middle" x="155" y="-203.469" font-family="Helvetica,sans-Serif" font-size="10.00">AllocateAttributeMasks</text>
</a>
</g>
<!-- Node1&#45;&gt;Node16 -->
<g id="edge42" class="edge"><title>Node1&#45;&gt;Node16</title>
<path fill="none" stroke="midnightblue" d="M69.7721,-205.969C78.0891,-205.969 87.0278,-205.969 95.876,-205.969"/>
<polygon fill="midnightblue" stroke="midnightblue" points="69.6233,-202.469 59.6233,-205.969 69.6232,-209.469 69.6233,-202.469"/>
</g>
<!-- Node17 -->
<g id="node40" class="node"><title>Node17</title>
<a xlink:href="../../dd/d20/ciptcpipinterface_8c.html#a0b2b502f5edf9117f7a8dae94fb6fd9e" target="_top" xlink:title="ConfigureDomainName">
<polygon fill="none" stroke="black" points="250.5,-18.4685 250.5,-39.4685 369.5,-39.4685 369.5,-18.4685 250.5,-18.4685"/>
<text text-anchor="middle" x="310" y="-26.4685" font-family="Helvetica,sans-Serif" font-size="10.00">ConfigureDomainName</text>
</a>
</g>
<!-- Node1&#45;&gt;Node17 -->
<g id="edge46" class="edge"><title>Node1&#45;&gt;Node17</title>
<path fill="none" stroke="midnightblue" d="M42.9041,-186.705C55.0215,-169.764 74.4703,-145.324 96,-128.969 153.31,-85.4326 232.617,-54.5911 276.827,-39.4995"/>
<polygon fill="midnightblue" stroke="midnightblue" points="39.7996,-185.038 36.9598,-195.245 45.545,-189.037 39.7996,-185.038"/>
</g>
<!-- Node18 -->
<g id="node43" class="node"><title>Node18</title>
<a xlink:href="../../d2/dc9/group__CIP__API.html#gab4a2d826ebe9be1b60c0206414a8f8ce" target="_top" xlink:title="Configure the host name of the device.">
<polygon fill="none" stroke="black" points="566,-317.469 566,-338.469 672,-338.469 672,-317.469 566,-317.469"/>
<text text-anchor="middle" x="619" y="-325.469" font-family="Helvetica,sans-Serif" font-size="10.00">ConfigureHostName</text>
</a>
</g>
<!-- Node1&#45;&gt;Node18 -->
<g id="edge50" class="edge"><title>Node1&#45;&gt;Node18</title>
<path fill="none" stroke="midnightblue" d="M38.939,-225.968C49.4406,-246.988 68.9304,-279.273 96,-295.969 248.917,-390.282 477.171,-358.119 573.505,-338.494"/>
<polygon fill="midnightblue" stroke="midnightblue" points="41.9715,-224.195 34.5119,-216.671 35.6516,-227.205 41.9715,-224.195"/>
</g>
<!-- Node19 -->
<g id="node48" class="node"><title>Node19</title>
<a xlink:href="../../d2/d75/cipmessagerouter_8h.html#ab2dba07e2f3b4f4bac30d10e8b2ceeb1" target="_top" xlink:title="Register an Class to the message router.">
<polygon fill="none" stroke="black" points="108,-155.469 108,-176.469 202,-176.469 202,-155.469 108,-155.469"/>
<text text-anchor="middle" x="155" y="-163.469" font-family="Helvetica,sans-Serif" font-size="10.00">RegisterCipClass</text>
</a>
</g>
<!-- Node1&#45;&gt;Node19 -->
<g id="edge58" class="edge"><title>Node1&#45;&gt;Node19</title>
<path fill="none" stroke="midnightblue" d="M69.2625,-193.405C86.2356,-187.973 105.875,-181.689 122.071,-176.506"/>
<polygon fill="midnightblue" stroke="midnightblue" points="68.0808,-190.108 59.6233,-196.489 70.2142,-196.775 68.0808,-190.108"/>
</g>
<!-- Node3 -->
<g id="node5" class="node"><title>Node3</title>
<a xlink:href="../../d2/dc9/group__CIP__API.html#ga180023c8528628f7d83023e4db81287a" target="_top" xlink:title="Create one instance of a given class with a certain instance number.">
<polygon fill="none" stroke="black" points="265.5,-253.469 265.5,-274.469 354.5,-274.469 354.5,-253.469 265.5,-253.469"/>
<text text-anchor="middle" x="310" y="-261.469" font-family="Helvetica,sans-Serif" font-size="10.00">AddCIPInstance</text>
</a>
</g>
<!-- Node2&#45;&gt;Node3 -->
<g id="edge4" class="edge"><title>Node2&#45;&gt;Node3</title>
<path fill="none" stroke="midnightblue" d="M211.349,-252.512C229.15,-254.58 248.564,-256.834 265.424,-258.792"/>
<polygon fill="midnightblue" stroke="midnightblue" points="211.422,-248.997 201.085,-251.32 210.615,-255.951 211.422,-248.997"/>
</g>
<!-- Node2&#45;&gt;Node6 -->
<g id="edge10" class="edge"><title>Node2&#45;&gt;Node6</title>
<path fill="none" stroke="midnightblue" d="M200.606,-231.854C205.198,-230.035 209.736,-228.067 214,-225.969 245.45,-210.488 278.763,-186.265 296.695,-172.486"/>
<polygon fill="midnightblue" stroke="midnightblue" points="199.317,-228.599 191.172,-235.375 201.765,-235.157 199.317,-228.599"/>
</g>
<!-- Node3&#45;&gt;Node4 -->
<g id="edge6" class="edge"><title>Node3&#45;&gt;Node4</title>
<path fill="none" stroke="midnightblue" d="M364.816,-265.033C419.609,-266.097 503.591,-267.728 559.86,-268.82"/>
<polygon fill="midnightblue" stroke="midnightblue" points="364.667,-261.529 354.601,-264.835 364.531,-268.528 364.667,-261.529"/>
</g>
<!-- Node5 -->
<g id="node9" class="node"><title>Node5</title>
<a xlink:href="../../d5/dc5/group__CIP__CALLBACK__API.html#gae93106eb1647bff3ad56a7752799d878" target="_top" xlink:title="Callback for the application initialization.">
<polygon fill="none" stroke="black" points="714,-259.469 714,-280.469 830,-280.469 830,-259.469 714,-259.469"/>
<text text-anchor="middle" x="772" y="-267.469" font-family="Helvetica,sans-Serif" font-size="10.00">ApplicationInitialization</text>
</a>
</g>
<!-- Node4&#45;&gt;Node5 -->
<g id="edge8" class="edge"><title>Node4&#45;&gt;Node5</title>
<path fill="none" stroke="midnightblue" d="M688.405,-269.969C696.879,-269.969 705.471,-269.969 713.759,-269.969"/>
<polygon fill="midnightblue" stroke="midnightblue" points="688.154,-266.469 678.154,-269.969 688.154,-273.469 688.154,-266.469"/>
</g>
<!-- Node7 -->
<g id="node13" class="node"><title>Node7</title>
<a xlink:href="../../dd/d4d/cipethernetlink_8h.html#ad6d2028b90ec96ad148d092a30acb7d6" target="_top" xlink:title="Initialize the Ethernet Link Objects data.">
<polygon fill="none" stroke="black" points="569,-179.469 569,-200.469 669,-200.469 669,-179.469 569,-179.469"/>
<text text-anchor="middle" x="619" y="-187.469" font-family="Helvetica,sans-Serif" font-size="10.00">CipEthernetLinkInit</text>
</a>
</g>
<!-- Node6&#45;&gt;Node7 -->
<g id="edge12" class="edge"><title>Node6&#45;&gt;Node7</title>
<path fill="none" stroke="midnightblue" d="M363.746,-168.457C377.51,-170.028 392.295,-171.637 406,-172.969 461.569,-178.368 525.417,-183.294 568.604,-186.438"/>
<polygon fill="midnightblue" stroke="midnightblue" points="363.79,-164.939 353.455,-167.269 362.987,-171.893 363.79,-164.939"/>
</g>
<!-- Node10 -->
<g id="node19" class="node"><title>Node10</title>
<a xlink:href="../../dc/d72/cipidentity_8h.html#a5d5136e167300543aa046057b56ae813" target="_top" xlink:title="CIP Identity object constructor.">
<polygon fill="none" stroke="black" points="580.5,-25.4685 580.5,-46.4685 657.5,-46.4685 657.5,-25.4685 580.5,-25.4685"/>
<text text-anchor="middle" x="619" y="-33.4685" font-family="Helvetica,sans-Serif" font-size="10.00">CipIdentityInit</text>
</a>
</g>
<!-- Node6&#45;&gt;Node10 -->
<g id="edge18" class="edge"><title>Node6&#45;&gt;Node10</title>
<path fill="none" stroke="midnightblue" d="M320.751,-142.321C335.971,-116.691 366.412,-72.7893 406,-52.9685 461.562,-25.1501 535.602,-26.4569 580.154,-30.6851"/>
<polygon fill="midnightblue" stroke="midnightblue" points="317.619,-140.746 315.675,-151.161 323.69,-144.231 317.619,-140.746"/>
</g>
<!-- Node11 -->
<g id="node22" class="node"><title>Node11</title>
<a xlink:href="../../d2/d75/cipmessagerouter_8h.html#aa3456b75c1b2289296323b578fee2d3d" target="_top" xlink:title="Initialize the data structures of the message router.">
<polygon fill="none" stroke="black" points="408,-142.469 408,-163.469 522,-163.469 522,-142.469 408,-142.469"/>
<text text-anchor="middle" x="465" y="-150.469" font-family="Helvetica,sans-Serif" font-size="10.00">CipMessageRouterInit</text>
</a>
</g>
<!-- Node6&#45;&gt;Node11 -->
<g id="edge22" class="edge"><title>Node6&#45;&gt;Node11</title>
<path fill="none" stroke="midnightblue" d="M363.377,-158.869C377.728,-158.036 393.306,-157.131 407.853,-156.287"/>
<polygon fill="midnightblue" stroke="midnightblue" points="362.956,-155.388 353.176,-159.462 363.362,-162.376 362.956,-155.388"/>
</g>
<!-- Node12 -->
<g id="node25" class="node"><title>Node12</title>
<a xlink:href="../../d1/dad/ciptcpipinterface_8h.html#a4c1f49654e48c5581513d990840933b0" target="_top" xlink:title="Initializing the data structures of the TCP/IP interface object.">
<polygon fill="none" stroke="black" points="411,-102.469 411,-123.469 519,-123.469 519,-102.469 411,-102.469"/>
<text text-anchor="middle" x="465" y="-110.469" font-family="Helvetica,sans-Serif" font-size="10.00">CipTcpIpInterfaceInit</text>
</a>
</g>
<!-- Node6&#45;&gt;Node12 -->
<g id="edge26" class="edge"><title>Node6&#45;&gt;Node12</title>
<path fill="none" stroke="midnightblue" d="M352.796,-148.44C377.639,-140.586 408.48,-130.836 431.537,-123.547"/>
<polygon fill="midnightblue" stroke="midnightblue" points="351.731,-145.105 343.251,-151.457 353.841,-151.78 351.731,-145.105"/>
</g>
<!-- Node13 -->
<g id="node28" class="node"><title>Node13</title>
<a xlink:href="../../d2/da3/cipconnectionmanager_8h.html#a5ab0de6894d23e8fe84a6b46797c2212" target="_top" xlink:title="Initialize the data of the connection manager object.">
<polygon fill="none" stroke="black" points="406.5,-62.4685 406.5,-83.4685 523.5,-83.4685 523.5,-62.4685 406.5,-62.4685"/>
<text text-anchor="middle" x="465" y="-70.4685" font-family="Helvetica,sans-Serif" font-size="10.00">ConnectionManagerInit</text>
</a>
</g>
<!-- Node6&#45;&gt;Node13 -->
<g id="edge30" class="edge"><title>Node6&#45;&gt;Node13</title>
<path fill="none" stroke="midnightblue" d="M330.058,-144.827C348.725,-129.561 377.825,-107.458 406,-92.9685 413.021,-89.3576 420.836,-86.1797 428.42,-83.4816"/>
<polygon fill="midnightblue" stroke="midnightblue" points="327.712,-142.226 322.257,-151.309 332.185,-147.61 327.712,-142.226"/>
</g>
<!-- Node14 -->
<g id="node31" class="node"><title>Node14</title>
<a xlink:href="../../df/d2e/cipassembly_8c.html#a5973ef42110a1bdf6c7699e35e04b7d4" target="_top" xlink:title="Constructor for the assembly object class.">
<polygon fill="none" stroke="black" points="407.5,-220.469 407.5,-241.469 522.5,-241.469 522.5,-220.469 407.5,-220.469"/>
<text text-anchor="middle" x="465" y="-228.469" font-family="Helvetica,sans-Serif" font-size="10.00">CreateAssemblyClass</text>
</a>
</g>
<!-- Node6&#45;&gt;Node14 -->
<g id="edge34" class="edge"><title>Node6&#45;&gt;Node14</title>
<path fill="none" stroke="midnightblue" d="M342.012,-176.921C360.627,-185.546 384.572,-196.52 406,-205.969 416.993,-210.816 429.212,-216.023 439.665,-220.423"/>
<polygon fill="midnightblue" stroke="midnightblue" points="343.348,-173.683 332.804,-172.646 340.4,-180.032 343.348,-173.683"/>
</g>
<!-- Node8 -->
<g id="node15" class="node"><title>Node8</title>
<a xlink:href="../../d2/dc9/group__CIP__API.html#ga5d4979945d124e28668b264c3823db1c" target="_top" xlink:title="Initialize and setup the CIP&#45;stack.">
<polygon fill="none" stroke="black" points="736.5,-121.469 736.5,-142.469 807.5,-142.469 807.5,-121.469 736.5,-121.469"/>
<text text-anchor="middle" x="772" y="-129.469" font-family="Helvetica,sans-Serif" font-size="10.00">CipStackInit</text>
</a>
</g>
<!-- Node7&#45;&gt;Node8 -->
<g id="edge14" class="edge"><title>Node7&#45;&gt;Node8</title>
<path fill="none" stroke="midnightblue" d="M656.263,-175.843C683.413,-165.55 719.605,-151.831 744.241,-142.492"/>
<polygon fill="midnightblue" stroke="midnightblue" points="654.817,-172.648 646.707,-179.465 657.298,-179.193 654.817,-172.648"/>
</g>
<!-- Node9 -->
<g id="node17" class="node"><title>Node9</title>
<a xlink:href="../../d9/dfb/POSIX_2main_8c.html#ad338a7dbc41dc40bcecd0479377ef207" target="_top" xlink:title="main">
<polygon fill="none" stroke="black" points="866,-121.469 866,-142.469 904,-142.469 904,-121.469 866,-121.469"/>
<text text-anchor="middle" x="885" y="-129.469" font-family="Helvetica,sans-Serif" font-size="10.00">main</text>
</a>
</g>
<!-- Node8&#45;&gt;Node9 -->
<g id="edge16" class="edge"><title>Node8&#45;&gt;Node9</title>
<path fill="none" stroke="midnightblue" d="M817.965,-131.969C834.72,-131.969 852.756,-131.969 865.895,-131.969"/>
<polygon fill="midnightblue" stroke="midnightblue" points="817.754,-128.469 807.754,-131.969 817.754,-135.469 817.754,-128.469"/>
</g>
<!-- Node10&#45;&gt;Node8 -->
<g id="edge20" class="edge"><title>Node10&#45;&gt;Node8</title>
<path fill="none" stroke="midnightblue" d="M657.321,-50.5788C664.349,-53.7119 671.51,-57.2193 678,-60.9685 709.522,-79.1781 742.654,-106.391 759.917,-121.283"/>
<polygon fill="midnightblue" stroke="midnightblue" points="658.464,-47.2614 647.893,-46.5507 655.714,-53.6984 658.464,-47.2614"/>
</g>
<!-- Node11&#45;&gt;Node8 -->
<g id="edge24" class="edge"><title>Node11&#45;&gt;Node8</title>
<path fill="none" stroke="midnightblue" d="M532.245,-148.369C595.106,-144.069 686.54,-137.814 736.368,-134.406"/>
<polygon fill="midnightblue" stroke="midnightblue" points="531.763,-144.893 522.025,-149.068 532.24,-151.877 531.763,-144.893"/>
</g>
<!-- Node12&#45;&gt;Node8 -->
<g id="edge28" class="edge"><title>Node12&#45;&gt;Node8</title>
<path fill="none" stroke="midnightblue" d="M529.373,-116.953C592.181,-120.84 685.45,-126.612 736.103,-129.747"/>
<polygon fill="midnightblue" stroke="midnightblue" points="529.376,-113.446 519.179,-116.322 528.943,-120.433 529.376,-113.446"/>
</g>
<!-- Node13&#45;&gt;Node8 -->
<g id="edge32" class="edge"><title>Node13&#45;&gt;Node8</title>
<path fill="none" stroke="midnightblue" d="M530.094,-85.4785C592.966,-97.5614 685.859,-115.414 736.279,-125.104"/>
<polygon fill="midnightblue" stroke="midnightblue" points="530.366,-81.9668 519.885,-83.5166 529.045,-88.841 530.366,-81.9668"/>
</g>
<!-- Node14&#45;&gt;Node4 -->
<g id="edge40" class="edge"><title>Node14&#45;&gt;Node4</title>
<path fill="none" stroke="midnightblue" d="M516.452,-243.999C536.229,-249.007 558.542,-254.658 577.292,-259.406"/>
<polygon fill="midnightblue" stroke="midnightblue" points="517.228,-240.585 506.675,-241.523 515.509,-247.37 517.228,-240.585"/>
</g>
<!-- Node15 -->
<g id="node33" class="node"><title>Node15</title>
<a xlink:href="../../de/df4/cipassembly_8h.html#a4dfbc2c7a8e9e77f05a0a7236210f5b4" target="_top" xlink:title="Setup the Assembly object.">
<polygon fill="none" stroke="black" points="563.5,-219.469 563.5,-240.469 674.5,-240.469 674.5,-219.469 563.5,-219.469"/>
<text text-anchor="middle" x="619" y="-227.469" font-family="Helvetica,sans-Serif" font-size="10.00">CipAssemblyInitialize</text>
</a>
</g>
<!-- Node14&#45;&gt;Node15 -->
<g id="edge36" class="edge"><title>Node14&#45;&gt;Node15</title>
<path fill="none" stroke="midnightblue" d="M532.894,-230.528C543.106,-230.461 553.534,-230.394 563.447,-230.329"/>
<polygon fill="midnightblue" stroke="midnightblue" points="532.759,-227.028 522.782,-230.593 532.805,-234.028 532.759,-227.028"/>
</g>
<!-- Node15&#45;&gt;Node8 -->
<g id="edge38" class="edge"><title>Node15&#45;&gt;Node8</title>
<path fill="none" stroke="midnightblue" d="M666.431,-215.631C670.427,-213.904 674.336,-212.017 678,-209.969 712.059,-190.929 745.719,-158.964 761.958,-142.49"/>
<polygon fill="midnightblue" stroke="midnightblue" points="665.023,-212.425 657.025,-219.373 667.61,-218.929 665.023,-212.425"/>
</g>
<!-- Node16&#45;&gt;Node6 -->
<g id="edge44" class="edge"><title>Node16&#45;&gt;Node6</title>
<path fill="none" stroke="midnightblue" d="M201.921,-192.649C224.674,-186.19 251.616,-178.542 272.908,-172.498"/>
<polygon fill="midnightblue" stroke="midnightblue" points="200.79,-189.332 192.126,-195.429 202.702,-196.066 200.79,-189.332"/>
</g>
<!-- Node17&#45;&gt;Node9 -->
<g id="edge48" class="edge"><title>Node17&#45;&gt;Node9</title>
<path fill="none" stroke="midnightblue" d="M369.223,-16.587C442.908,-3.50716 571.958,11.7183 678,-15.9685 758.516,-36.9907 840.85,-97.0611 872.002,-121.468"/>
<polygon fill="midnightblue" stroke="midnightblue" points="368.411,-13.1772 359.201,-18.4137 369.666,-20.0637 368.411,-13.1772"/>
</g>
<!-- Node18&#45;&gt;Node9 -->
<g id="edge52" class="edge"><title>Node18&#45;&gt;Node9</title>
<path fill="none" stroke="midnightblue" d="M682.219,-332.502C728.289,-332.366 789.483,-324.584 830,-289.969 853.408,-269.97 875.765,-174.739 882.759,-142.594"/>
<polygon fill="midnightblue" stroke="midnightblue" points="682.073,-329.001 672.041,-332.41 682.009,-336.001 682.073,-329.001"/>
</g>
<!-- Node19&#45;&gt;Node6 -->
<g id="edge60" class="edge"><title>Node19&#45;&gt;Node6</title>
<path fill="none" stroke="midnightblue" d="M212.457,-164.486C230.476,-164.021 250.048,-163.516 266.898,-163.081"/>
<polygon fill="midnightblue" stroke="midnightblue" points="212.254,-160.99 202.347,-164.747 212.434,-167.987 212.254,-160.99"/>
</g>
</g>
</svg>
        <g id="navigator" transform="translate(0 0)" fill="#404254">
                <rect fill="#f2f5e9" fill-opacity="0.5" stroke="#606060" stroke-width=".5" x="0" y="0" width="60" height="60"/>
                <use id="zoomplus" xlink:href="#zoomPlus" x="17" y="9" onmousedown="handleZoom(evt,'in')"/>
                <use id="zoomminus" xlink:href="#zoomMin" x="42" y="9" onmousedown="handleZoom(evt,'out')"/>
                <use id="reset" xlink:href="#resetDef" x="30" y="36" onmousedown="handleReset()"/>
                <g id="arrowUp" xlink:href="#dirArrow" transform="translate(30 24)" onmousedown="handlePan(0,-1)">
                  <use xlink:href="#rim" fill="#404040">
                        <set attributeName="fill" to="#808080" begin="arrowUp.mouseover" end="arrowUp.mouseout"/>
                  </use>
                  <path fill="none" stroke="white" stroke-width="1.5" d="M0,-3.0v7 M-2.5,-0.5L0,-3.0L2.5,-0.5"/>
                </g>
                <g id="arrowRight" xlink:href="#dirArrow" transform="rotate(90) translate(36 -43)" onmousedown="handlePan(1,0)">
                  <use xlink:href="#rim" fill="#404040">
                        <set attributeName="fill" to="#808080" begin="arrowRight.mouseover" end="arrowRight.mouseout"/>
                  </use>
                  <path fill="none" stroke="white" stroke-width="1.5" d="M0,-3.0v7 M-2.5,-0.5L0,-3.0L2.5,-0.5"/>
                </g>
                <g id="arrowDown" xlink:href="#dirArrow" transform="rotate(180) translate(-30 -48)" onmousedown="handlePan(0,1)">
                  <use xlink:href="#rim" fill="#404040">
                        <set attributeName="fill" to="#808080" begin="arrowDown.mouseover" end="arrowDown.mouseout"/>
                  </use>
                  <path fill="none" stroke="white" stroke-width="1.5" d="M0,-3.0v7 M-2.5,-0.5L0,-3.0L2.5,-0.5"/>
                </g>
                <g id="arrowLeft" xlink:href="#dirArrow" transform="rotate(270) translate(-36 17)" onmousedown="handlePan(-1,0)">
                  <use xlink:href="#rim" fill="#404040">
                        <set attributeName="fill" to="#808080" begin="arrowLeft.mouseover" end="arrowLeft.mouseout"/>
                  </use>
                  <path fill="none" stroke="white" stroke-width="1.5" d="M0,-3.0v7 M-2.5,-0.5L0,-3.0L2.5,-0.5"/>
                </g>
        </g>
</svg>
