<?xml version="1.0" encoding="UTF-8" standalone="no"?>
<!DOCTYPE svg PUBLIC "-//W3C//DTD SVG 1.1//EN"
 "http://www.w3.org/Graphics/SVG/1.1/DTD/svg11.dtd">
<!-- Generated by graphviz version 2.26.3 (20100126.1600)
 -->
<!-- Title: G Pages: 1 -->
<svg width="242pt" height="110pt"
 viewBox="0.00 0.00 242.00 110.00" xmlns="http://www.w3.org/2000/svg" xmlns:xlink="http://www.w3.org/1999/xlink">
<g id="graph1" class="graph" transform="scale(1 1) rotate(0) translate(4 106)">
<title>G</title>
<!-- Node1 -->
<g id="node1" class="node"><title>Node1</title>
<polygon fill="#bfbfbf" stroke="black" points="0,-40.5 0,-61.5 78,-61.5 78,-40.5 0,-40.5"/>
<text text-anchor="middle" x="39" y="-48.5" font-family="Helvetica,sans-Serif" font-size="10.00">SendUdpData</text>
</g>
<!-- Node2 -->
<g id="node3" class="node"><title>Node2</title>
<a xlink:href="../../df/d94/opener__error_8h.html#a99f5295ad12a2b986bab4b89a24cfc20" target="_top" xlink:title="Frees the space of the error message generated by GetErrorMessage(int)">
<polygon fill="none" stroke="black" points="125.5,-80.5 125.5,-101.5 222.5,-101.5 222.5,-80.5 125.5,-80.5"/>
<text text-anchor="middle" x="174" y="-88.5" font-family="Helvetica,sans-Serif" font-size="10.00">FreeErrorMessage</text>
</a>
</g>
<!-- Node1&#45;&gt;Node2 -->
<g id="edge2" class="edge"><title>Node1&#45;&gt;Node2</title>
<path fill="none" stroke="midnightblue" d="M74.4697,-61.5095C90.9264,-66.3856 110.69,-72.2415 128.253,-77.4454"/>
<polygon fill="midnightblue" stroke="midnightblue" points="127.716,-80.9366 138.299,-80.4218 129.705,-74.225 127.716,-80.9366"/>
</g>
<!-- Node3 -->
<g id="node5" class="node"><title>Node3</title>
<a xlink:href="../../df/d94/opener__error_8h.html#a0df2625909cb28076bc7df8e6c9cfcae" target="_top" xlink:title="Returns a human readable message for the given error number.">
<polygon fill="none" stroke="black" points="127.5,-40.5 127.5,-61.5 220.5,-61.5 220.5,-40.5 127.5,-40.5"/>
<text text-anchor="middle" x="174" y="-48.5" font-family="Helvetica,sans-Serif" font-size="10.00">GetErrorMessage</text>
</a>
</g>
<!-- Node1&#45;&gt;Node3 -->
<g id="edge4" class="edge"><title>Node1&#45;&gt;Node3</title>
<path fill="none" stroke="midnightblue" d="M78.0476,-51C90.2139,-51 103.89,-51 117.021,-51"/>
<polygon fill="midnightblue" stroke="midnightblue" points="117.396,-54.5001 127.396,-51 117.396,-47.5001 117.396,-54.5001"/>
</g>
<!-- Node4 -->
<g id="node7" class="node"><title>Node4</title>
<a xlink:href="../../df/d94/opener__error_8h.html#afbc52bcd5256264e75ba063f2e361e24" target="_top" xlink:title="Gets the error number or equivalent.">
<polygon fill="none" stroke="black" points="114.5,-0.5 114.5,-21.5 233.5,-21.5 233.5,-0.5 114.5,-0.5"/>
<text text-anchor="middle" x="174" y="-8.5" font-family="Helvetica,sans-Serif" font-size="10.00">GetSocketErrorNumber</text>
</a>
</g>
<!-- Node1&#45;&gt;Node4 -->
<g id="edge6" class="edge"><title>Node1&#45;&gt;Node4</title>
<path fill="none" stroke="midnightblue" d="M74.4697,-40.4905C90.9264,-35.6144 110.69,-29.7585 128.253,-24.5546"/>
<polygon fill="midnightblue" stroke="midnightblue" points="129.705,-27.775 138.299,-21.5782 127.716,-21.0634 129.705,-27.775"/>
</g>
</g>
</svg>
