<?xml version="1.0" encoding="UTF-8" standalone="no"?>
<!DOCTYPE svg PUBLIC "-//W3C//DTD SVG 1.1//EN"
 "http://www.w3.org/Graphics/SVG/1.1/DTD/svg11.dtd">
<!-- Generated by graphviz version 2.26.3 (20100126.1600)
 -->
<!-- Title: G Pages: 1 -->
<!--zoomable 407 -->
<svg id="main" version="1.1" xmlns="http://www.w3.org/2000/svg" xmlns:xlink="http://www.w3.org/1999/xlink" xml:space="preserve" onload="init(evt)">
        <defs>
                <circle id="rim" cx="0" cy="0" r="7"/>
                <circle id="rim2" cx="0" cy="0" r="3.5"/>
                <g id="zoomPlus">
                        <use xlink:href="#rim" fill="#404040">
                                <set attributeName="fill" to="#808080" begin="zoomplus.mouseover" end="zoomplus.mouseout"/>
                        </use>
                        <path d="M-4,0h8M0,-4v8" fill="none" stroke="white" stroke-width="1.5" pointer-events="none"/>
                </g>
                <g id="zoomMin">
                        <use xlink:href="#rim" fill="#404040">
                                <set attributeName="fill" to="#808080" begin="zoomminus.mouseover" end="zoomminus.mouseout"/>
                        </use>
                        <path d="M-4,0h8" fill="none" stroke="white" stroke-width="1.5" pointer-events="none"/>
                </g>
                <g id="dirArrow">
                        <path fill="none" stroke="white" stroke-width="1.5" d="M0,-3.0v7 M-2.5,-0.5L0,-3.0L2.5,-0.5"/>
                </g>
               <g id="resetDef">
                       <use xlink:href="#rim2" fill="#404040">
                               <set attributeName="fill" to="#808080" begin="reset.mouseover" end="reset.mouseout"/>
                       </use>
               </g>
        </defs>

<script type="text/javascript">
var viewWidth = 912;
var viewHeight = 407;
var sectionId = 'dynsection-6';
</script>
<script xlink:href="../../svgpan.js"/>
<svg id="graph" class="graph">
<g id="viewport">
<title>G</title>
<!-- Node1 -->
<g id="node1" class="node"><title>Node1</title>
<polygon fill="#bfbfbf" stroke="black" points="0.5,-232.479 0.5,-253.479 59.5,-253.479 59.5,-232.479 0.5,-232.479"/>
<text text-anchor="middle" x="30" y="-240.479" font-family="Helvetica,sans-Serif" font-size="10.00">CipCalloc</text>
</g>
<!-- Node2 -->
<g id="node3" class="node"><title>Node2</title>
<a xlink:href="../../d2/dc9/group__CIP__API.html#ga39dafca98f844a12511af11b1273d0a8" target="_top" xlink:title="Add a number of CIP instances to a given CIP class.">
<polygon fill="none" stroke="black" points="109,-272.479 109,-293.479 201,-293.479 201,-272.479 109,-272.479"/>
<text text-anchor="middle" x="155" y="-280.479" font-family="Helvetica,sans-Serif" font-size="10.00">AddCipInstances</text>
</a>
</g>
<!-- Node1&#45;&gt;Node2 -->
<g id="edge2" class="edge"><title>Node1&#45;&gt;Node2</title>
<path fill="none" stroke="midnightblue" d="M69.2625,-255.543C86.2356,-260.975 105.875,-267.259 122.071,-272.442"/>
<polygon fill="midnightblue" stroke="midnightblue" points="70.2142,-252.173 59.6233,-252.459 68.0808,-258.84 70.2142,-252.173"/>
</g>
<!-- Node4 -->
<g id="node7" class="node"><title>Node4</title>
<a xlink:href="../../d2/dc9/group__CIP__API.html#gae61b613fed863d30428e78b2311bf593" target="_top" xlink:title="Create an instance of an assembly object.">
<polygon fill="none" stroke="black" points="560,-300.479 560,-321.479 678,-321.479 678,-300.479 560,-300.479"/>
<text text-anchor="middle" x="619" y="-308.479" font-family="Helvetica,sans-Serif" font-size="10.00">CreateAssemblyObject</text>
</a>
</g>
<!-- Node1&#45;&gt;Node4 -->
<g id="edge58" class="edge"><title>Node1&#45;&gt;Node4</title>
<path fill="none" stroke="midnightblue" d="M44.7494,-261.577C56.9125,-275.478 75.4572,-293.63 96,-302.979 259.239,-377.269 481.889,-341.694 575.122,-321.555"/>
<polygon fill="midnightblue" stroke="midnightblue" points="47.1514,-258.995 38.0401,-253.588 41.7909,-263.497 47.1514,-258.995"/>
</g>
<!-- Node6 -->
<g id="node11" class="node"><title>Node6</title>
<a xlink:href="../../d2/dc9/group__CIP__API.html#ga3dfa07bc40e59ba348d713272d1cbfdb" target="_top" xlink:title="Allocate memory for new CIP Class and attributes.">
<polygon fill="none" stroke="black" points="267,-183.479 267,-204.479 353,-204.479 353,-183.479 267,-183.479"/>
<text text-anchor="middle" x="310" y="-191.479" font-family="Helvetica,sans-Serif" font-size="10.00">CreateCipClass</text>
</a>
</g>
<!-- Node1&#45;&gt;Node6 -->
<g id="edge60" class="edge"><title>Node1&#45;&gt;Node6</title>
<path fill="none" stroke="midnightblue" d="M43.7218,-224.598C55.7029,-210.209 74.5083,-191.288 96,-182.979 155.162,-160.107 230.444,-172.581 274.13,-183.464"/>
<polygon fill="midnightblue" stroke="midnightblue" points="40.9757,-222.428 37.4873,-232.432 46.4529,-226.786 40.9757,-222.428"/>
</g>
<!-- Node17 -->
<g id="node40" class="node"><title>Node17</title>
<a xlink:href="../../d2/dc9/group__CIP__API.html#ga5ec1d2c432792c39f93c170943964302" target="_top" xlink:title="Allocates Attribute bitmasks.">
<polygon fill="none" stroke="black" points="96,-232.479 96,-253.479 214,-253.479 214,-232.479 96,-232.479"/>
<text text-anchor="middle" x="155" y="-240.479" font-family="Helvetica,sans-Serif" font-size="10.00">AllocateAttributeMasks</text>
</a>
</g>
<!-- Node1&#45;&gt;Node17 -->
<g id="edge46" class="edge"><title>Node1&#45;&gt;Node17</title>
<path fill="none" stroke="midnightblue" d="M69.7721,-242.979C78.0891,-242.979 87.0278,-242.979 95.876,-242.979"/>
<polygon fill="midnightblue" stroke="midnightblue" points="69.6233,-239.48 59.6233,-242.979 69.6232,-246.48 69.6233,-239.48"/>
</g>
<!-- Node18 -->
<g id="node43" class="node"><title>Node18</title>
<a xlink:href="../../dd/d20/ciptcpipinterface_8c.html#a0b2b502f5edf9117f7a8dae94fb6fd9e" target="_top" xlink:title="ConfigureDomainName">
<polygon fill="none" stroke="black" points="250.5,-25.4794 250.5,-46.4794 369.5,-46.4794 369.5,-25.4794 250.5,-25.4794"/>
<text text-anchor="middle" x="310" y="-33.4794" font-family="Helvetica,sans-Serif" font-size="10.00">ConfigureDomainName</text>
</a>
</g>
<!-- Node1&#45;&gt;Node18 -->
<g id="edge50" class="edge"><title>Node1&#45;&gt;Node18</title>
<path fill="none" stroke="midnightblue" d="M43.5517,-223.992C55.9742,-207.426 75.5043,-183.385 96,-165.979 159.122,-112.375 246.802,-66.5624 287.538,-46.6281"/>
<polygon fill="midnightblue" stroke="midnightblue" points="40.5211,-222.206 37.4205,-232.337 46.1621,-226.35 40.5211,-222.206"/>
</g>
<!-- Node19 -->
<g id="node46" class="node"><title>Node19</title>
<a xlink:href="../../d2/dc9/group__CIP__API.html#gab4a2d826ebe9be1b60c0206414a8f8ce" target="_top" xlink:title="Configure the host name of the device.">
<polygon fill="none" stroke="black" points="566,-358.479 566,-379.479 672,-379.479 672,-358.479 566,-358.479"/>
<text text-anchor="middle" x="619" y="-366.479" font-family="Helvetica,sans-Serif" font-size="10.00">ConfigureHostName</text>
</a>
</g>
<!-- Node1&#45;&gt;Node19 -->
<g id="edge54" class="edge"><title>Node1&#45;&gt;Node19</title>
<path fill="none" stroke="midnightblue" d="M38.5556,-262.609C48.9132,-283.869 68.4581,-317.013 96,-333.979 247.861,-427.53 473.758,-398.348 571.305,-379.529"/>
<polygon fill="midnightblue" stroke="midnightblue" points="41.7177,-261.108 34.3305,-253.513 35.3692,-264.057 41.7177,-261.108"/>
</g>
<!-- Node20 -->
<g id="node51" class="node"><title>Node20</title>
<a xlink:href="../../d2/d75/cipmessagerouter_8h.html#ab2dba07e2f3b4f4bac30d10e8b2ceeb1" target="_top" xlink:title="Register an Class to the message router.">
<polygon fill="none" stroke="black" points="108,-192.479 108,-213.479 202,-213.479 202,-192.479 108,-192.479"/>
<text text-anchor="middle" x="155" y="-200.479" font-family="Helvetica,sans-Serif" font-size="10.00">RegisterCipClass</text>
</a>
</g>
<!-- Node1&#45;&gt;Node20 -->
<g id="edge62" class="edge"><title>Node1&#45;&gt;Node20</title>
<path fill="none" stroke="midnightblue" d="M69.2625,-230.415C86.2356,-224.984 105.875,-218.7 122.071,-213.517"/>
<polygon fill="midnightblue" stroke="midnightblue" points="68.0808,-227.119 59.6233,-233.5 70.2142,-233.786 68.0808,-227.119"/>
</g>
<!-- Node3 -->
<g id="node5" class="node"><title>Node3</title>
<a xlink:href="../../d2/dc9/group__CIP__API.html#ga180023c8528628f7d83023e4db81287a" target="_top" xlink:title="Create one instance of a given class with a certain instance number.">
<polygon fill="none" stroke="black" points="265.5,-290.479 265.5,-311.479 354.5,-311.479 354.5,-290.479 265.5,-290.479"/>
<text text-anchor="middle" x="310" y="-298.479" font-family="Helvetica,sans-Serif" font-size="10.00">AddCIPInstance</text>
</a>
</g>
<!-- Node2&#45;&gt;Node3 -->
<g id="edge4" class="edge"><title>Node2&#45;&gt;Node3</title>
<path fill="none" stroke="midnightblue" d="M211.349,-289.523C229.15,-291.59 248.564,-293.845 265.424,-295.803"/>
<polygon fill="midnightblue" stroke="midnightblue" points="211.422,-286.008 201.085,-288.331 210.615,-292.962 211.422,-286.008"/>
</g>
<!-- Node2&#45;&gt;Node6 -->
<g id="edge10" class="edge"><title>Node2&#45;&gt;Node6</title>
<path fill="none" stroke="midnightblue" d="M201.225,-268.799C205.617,-267.01 209.941,-265.067 214,-262.979 246.49,-246.27 280.211,-219.439 297.743,-204.639"/>
<polygon fill="midnightblue" stroke="midnightblue" points="199.683,-265.641 191.58,-272.466 202.171,-272.184 199.683,-265.641"/>
</g>
<!-- Node3&#45;&gt;Node4 -->
<g id="edge6" class="edge"><title>Node3&#45;&gt;Node4</title>
<path fill="none" stroke="midnightblue" d="M364.816,-302.753C419.609,-304.527 503.591,-307.245 559.86,-309.066"/>
<polygon fill="midnightblue" stroke="midnightblue" points="364.709,-299.248 354.601,-302.423 364.483,-306.245 364.709,-299.248"/>
</g>
<!-- Node5 -->
<g id="node9" class="node"><title>Node5</title>
<a xlink:href="../../d5/dc5/group__CIP__CALLBACK__API.html#gae93106eb1647bff3ad56a7752799d878" target="_top" xlink:title="Callback for the application initialization.">
<polygon fill="none" stroke="black" points="714,-300.479 714,-321.479 830,-321.479 830,-300.479 714,-300.479"/>
<text text-anchor="middle" x="772" y="-308.479" font-family="Helvetica,sans-Serif" font-size="10.00">ApplicationInitialization</text>
</a>
</g>
<!-- Node4&#45;&gt;Node5 -->
<g id="edge8" class="edge"><title>Node4&#45;&gt;Node5</title>
<path fill="none" stroke="midnightblue" d="M688.405,-310.979C696.879,-310.979 705.471,-310.979 713.759,-310.979"/>
<polygon fill="midnightblue" stroke="midnightblue" points="688.154,-307.48 678.154,-310.979 688.154,-314.48 688.154,-307.48"/>
</g>
<!-- Node7 -->
<g id="node13" class="node"><title>Node7</title>
<a xlink:href="../../dd/d4d/cipethernetlink_8h.html#ad6d2028b90ec96ad148d092a30acb7d6" target="_top" xlink:title="Initialize the Ethernet Link Objects data.">
<polygon fill="none" stroke="black" points="569,-26.4794 569,-47.4794 669,-47.4794 669,-26.4794 569,-26.4794"/>
<text text-anchor="middle" x="619" y="-34.4794" font-family="Helvetica,sans-Serif" font-size="10.00">CipEthernetLinkInit</text>
</a>
</g>
<!-- Node6&#45;&gt;Node7 -->
<g id="edge12" class="edge"><title>Node6&#45;&gt;Node7</title>
<path fill="none" stroke="midnightblue" d="M317.336,-173.525C329.95,-141.702 359.022,-81.1701 406,-53.9794 455.765,-25.1755 523.352,-25.0192 568.936,-29.3794"/>
<polygon fill="midnightblue" stroke="midnightblue" points="313.967,-172.537 313.686,-183.128 320.511,-175.023 313.967,-172.537"/>
</g>
<!-- Node10 -->
<g id="node19" class="node"><title>Node10</title>
<a xlink:href="../../dc/d72/cipidentity_8h.html#a5d5136e167300543aa046057b56ae813" target="_top" xlink:title="CIP Identity object constructor.">
<polygon fill="none" stroke="black" points="580.5,-220.479 580.5,-241.479 657.5,-241.479 657.5,-220.479 580.5,-220.479"/>
<text text-anchor="middle" x="619" y="-228.479" font-family="Helvetica,sans-Serif" font-size="10.00">CipIdentityInit</text>
</a>
</g>
<!-- Node6&#45;&gt;Node10 -->
<g id="edge18" class="edge"><title>Node6&#45;&gt;Node10</title>
<path fill="none" stroke="midnightblue" d="M363.166,-206.298C377.047,-209.172 392.033,-211.975 406,-213.979 466.589,-222.673 537.56,-227.222 580.359,-229.358"/>
<polygon fill="midnightblue" stroke="midnightblue" points="363.792,-202.853 353.284,-204.203 362.34,-209.701 363.792,-202.853"/>
</g>
<!-- Node11 -->
<g id="node22" class="node"><title>Node11</title>
<a xlink:href="../../d2/d75/cipmessagerouter_8h.html#aa3456b75c1b2289296323b578fee2d3d" target="_top" xlink:title="Initialize the data structures of the message router.">
<polygon fill="none" stroke="black" points="408,-63.4794 408,-84.4794 522,-84.4794 522,-63.4794 408,-63.4794"/>
<text text-anchor="middle" x="465" y="-71.4794" font-family="Helvetica,sans-Serif" font-size="10.00">CipMessageRouterInit</text>
</a>
</g>
<!-- Node6&#45;&gt;Node11 -->
<g id="edge22" class="edge"><title>Node6&#45;&gt;Node11</title>
<path fill="none" stroke="midnightblue" d="M323.42,-175.288C340.33,-152.992 371.397,-115.98 406,-93.9794 411.841,-90.2656 418.449,-87.1587 425.076,-84.5874"/>
<polygon fill="midnightblue" stroke="midnightblue" points="320.608,-173.203 317.459,-183.319 326.229,-177.375 320.608,-173.203"/>
</g>
<!-- Node12 -->
<g id="node25" class="node"><title>Node12</title>
<a xlink:href="../../d0/d3c/cipqos_8h.html#ab9a656060dcf03c3f51dbd967dff3f52" target="_top" xlink:title="CipQoSInit">
<polygon fill="none" stroke="black" points="432.5,-183.479 432.5,-204.479 497.5,-204.479 497.5,-183.479 432.5,-183.479"/>
<text text-anchor="middle" x="465" y="-191.479" font-family="Helvetica,sans-Serif" font-size="10.00">CipQoSInit</text>
</a>
</g>
<!-- Node6&#45;&gt;Node12 -->
<g id="edge26" class="edge"><title>Node6&#45;&gt;Node12</title>
<path fill="none" stroke="midnightblue" d="M363.455,-193.979C386.374,-193.979 412.408,-193.979 432.377,-193.979"/>
<polygon fill="midnightblue" stroke="midnightblue" points="363.176,-190.48 353.176,-193.979 363.176,-197.48 363.176,-190.48"/>
</g>
<!-- Node13 -->
<g id="node28" class="node"><title>Node13</title>
<a xlink:href="../../d1/dad/ciptcpipinterface_8h.html#a4c1f49654e48c5581513d990840933b0" target="_top" xlink:title="Initializing the data structures of the TCP/IP interface object.">
<polygon fill="none" stroke="black" points="411,-143.479 411,-164.479 519,-164.479 519,-143.479 411,-143.479"/>
<text text-anchor="middle" x="465" y="-151.479" font-family="Helvetica,sans-Serif" font-size="10.00">CipTcpIpInterfaceInit</text>
</a>
</g>
<!-- Node6&#45;&gt;Node13 -->
<g id="edge30" class="edge"><title>Node6&#45;&gt;Node13</title>
<path fill="none" stroke="midnightblue" d="M360.592,-180.923C381.232,-175.597 404.778,-169.521 424.279,-164.488"/>
<polygon fill="midnightblue" stroke="midnightblue" points="359.533,-177.582 350.724,-183.47 361.282,-184.36 359.533,-177.582"/>
</g>
<!-- Node14 -->
<g id="node31" class="node"><title>Node14</title>
<a xlink:href="../../d2/da3/cipconnectionmanager_8h.html#a5ab0de6894d23e8fe84a6b46797c2212" target="_top" xlink:title="Initialize the data of the connection manager object.">
<polygon fill="none" stroke="black" points="406.5,-103.479 406.5,-124.479 523.5,-124.479 523.5,-103.479 406.5,-103.479"/>
<text text-anchor="middle" x="465" y="-111.479" font-family="Helvetica,sans-Serif" font-size="10.00">ConnectionManagerInit</text>
</a>
</g>
<!-- Node6&#45;&gt;Node14 -->
<g id="edge34" class="edge"><title>Node6&#45;&gt;Node14</title>
<path fill="none" stroke="midnightblue" d="M332.953,-177.506C351.88,-164.455 379.783,-146.409 406,-133.979 413.427,-130.458 421.645,-127.265 429.528,-124.515"/>
<polygon fill="midnightblue" stroke="midnightblue" points="330.87,-174.692 324.678,-183.29 334.88,-180.43 330.87,-174.692"/>
</g>
<!-- Node15 -->
<g id="node34" class="node"><title>Node15</title>
<a xlink:href="../../df/d2e/cipassembly_8c.html#a5973ef42110a1bdf6c7699e35e04b7d4" target="_top" xlink:title="Constructor for the assembly object class.">
<polygon fill="none" stroke="black" points="407.5,-261.479 407.5,-282.479 522.5,-282.479 522.5,-261.479 407.5,-261.479"/>
<text text-anchor="middle" x="465" y="-269.479" font-family="Helvetica,sans-Serif" font-size="10.00">CreateAssemblyClass</text>
</a>
</g>
<!-- Node6&#45;&gt;Node15 -->
<g id="edge38" class="edge"><title>Node6&#45;&gt;Node15</title>
<path fill="none" stroke="midnightblue" d="M336.474,-209.566C355.537,-220.549 382.017,-235.317 406,-246.979 416.505,-252.088 428.318,-257.211 438.599,-261.478"/>
<polygon fill="midnightblue" stroke="midnightblue" points="338.16,-206.498 327.754,-204.508 334.648,-212.553 338.16,-206.498"/>
</g>
<!-- Node8 -->
<g id="node15" class="node"><title>Node8</title>
<a xlink:href="../../d2/dc9/group__CIP__API.html#ga5d4979945d124e28668b264c3823db1c" target="_top" xlink:title="Initialize and setup the CIP&#45;stack.">
<polygon fill="none" stroke="black" points="736.5,-143.479 736.5,-164.479 807.5,-164.479 807.5,-143.479 736.5,-143.479"/>
<text text-anchor="middle" x="772" y="-151.479" font-family="Helvetica,sans-Serif" font-size="10.00">CipStackInit</text>
</a>
</g>
<!-- Node7&#45;&gt;Node8 -->
<g id="edge14" class="edge"><title>Node7&#45;&gt;Node8</title>
<path fill="none" stroke="midnightblue" d="M657.913,-51.7705C664.836,-55.0532 671.806,-58.8132 678,-62.9794 713.621,-86.9395 747.881,-125.121 763.374,-143.466"/>
<polygon fill="midnightblue" stroke="midnightblue" points="659.139,-48.4845 648.581,-47.5966 656.281,-54.8745 659.139,-48.4845"/>
</g>
<!-- Node9 -->
<g id="node17" class="node"><title>Node9</title>
<a xlink:href="../../d9/dfb/POSIX_2main_8c.html#ad338a7dbc41dc40bcecd0479377ef207" target="_top" xlink:title="main">
<polygon fill="none" stroke="black" points="866,-143.479 866,-164.479 904,-164.479 904,-143.479 866,-143.479"/>
<text text-anchor="middle" x="885" y="-151.479" font-family="Helvetica,sans-Serif" font-size="10.00">main</text>
</a>
</g>
<!-- Node8&#45;&gt;Node9 -->
<g id="edge16" class="edge"><title>Node8&#45;&gt;Node9</title>
<path fill="none" stroke="midnightblue" d="M817.965,-153.979C834.72,-153.979 852.756,-153.979 865.895,-153.979"/>
<polygon fill="midnightblue" stroke="midnightblue" points="817.754,-150.48 807.754,-153.979 817.754,-157.48 817.754,-150.48"/>
</g>
<!-- Node10&#45;&gt;Node8 -->
<g id="edge20" class="edge"><title>Node10&#45;&gt;Node8</title>
<path fill="none" stroke="midnightblue" d="M655.111,-216.385C662.736,-213.106 670.686,-209.54 678,-205.979 705.165,-192.755 735.592,-175.444 754.274,-164.515"/>
<polygon fill="midnightblue" stroke="midnightblue" points="653.548,-213.245 645.698,-220.361 656.272,-219.694 653.548,-213.245"/>
</g>
<!-- Node11&#45;&gt;Node8 -->
<g id="edge24" class="edge"><title>Node11&#45;&gt;Node8</title>
<path fill="none" stroke="midnightblue" d="M526.953,-86.6482C569.66,-95.7672 627.587,-108.9 678,-122.979 699.681,-129.034 723.788,-137.01 742.16,-143.355"/>
<polygon fill="midnightblue" stroke="midnightblue" points="527.496,-83.1855 516.987,-84.534 526.043,-90.0331 527.496,-83.1855"/>
</g>
<!-- Node12&#45;&gt;Node8 -->
<g id="edge28" class="edge"><title>Node12&#45;&gt;Node8</title>
<path fill="none" stroke="midnightblue" d="M507.619,-189.112C550.649,-184.119 618.999,-175.973 678,-167.979 697.293,-165.366 718.772,-162.187 736.322,-159.519"/>
<polygon fill="midnightblue" stroke="midnightblue" points="507.043,-185.655 497.512,-190.281 507.847,-192.609 507.043,-185.655"/>
</g>
<!-- Node13&#45;&gt;Node8 -->
<g id="edge32" class="edge"><title>Node13&#45;&gt;Node8</title>
<path fill="none" stroke="midnightblue" d="M529.373,-153.979C592.181,-153.979 685.45,-153.979 736.103,-153.979"/>
<polygon fill="midnightblue" stroke="midnightblue" points="529.179,-150.48 519.179,-153.979 529.179,-157.48 529.179,-150.48"/>
</g>
<!-- Node14&#45;&gt;Node8 -->
<g id="edge36" class="edge"><title>Node14&#45;&gt;Node8</title>
<path fill="none" stroke="midnightblue" d="M534.051,-122.976C596.849,-131.158 687.024,-142.908 736.376,-149.338"/>
<polygon fill="midnightblue" stroke="midnightblue" points="534.198,-119.466 523.829,-121.644 533.293,-126.407 534.198,-119.466"/>
</g>
<!-- Node15&#45;&gt;Node4 -->
<g id="edge44" class="edge"><title>Node15&#45;&gt;Node4</title>
<path fill="none" stroke="midnightblue" d="M516.452,-285.009C536.229,-290.018 558.542,-295.669 577.292,-300.417"/>
<polygon fill="midnightblue" stroke="midnightblue" points="517.228,-281.596 506.675,-282.533 515.509,-288.381 517.228,-281.596"/>
</g>
<!-- Node16 -->
<g id="node36" class="node"><title>Node16</title>
<a xlink:href="../../de/df4/cipassembly_8h.html#a4dfbc2c7a8e9e77f05a0a7236210f5b4" target="_top" xlink:title="Setup the Assembly object.">
<polygon fill="none" stroke="black" points="563.5,-260.479 563.5,-281.479 674.5,-281.479 674.5,-260.479 563.5,-260.479"/>
<text text-anchor="middle" x="619" y="-268.479" font-family="Helvetica,sans-Serif" font-size="10.00">CipAssemblyInitialize</text>
</a>
</g>
<!-- Node15&#45;&gt;Node16 -->
<g id="edge40" class="edge"><title>Node15&#45;&gt;Node16</title>
<path fill="none" stroke="midnightblue" d="M532.894,-271.539C543.106,-271.472 553.534,-271.405 563.447,-271.34"/>
<polygon fill="midnightblue" stroke="midnightblue" points="532.759,-268.039 522.782,-271.604 532.805,-275.039 532.759,-268.039"/>
</g>
<!-- Node16&#45;&gt;Node8 -->
<g id="edge42" class="edge"><title>Node16&#45;&gt;Node8</title>
<path fill="none" stroke="midnightblue" d="M667.982,-256.455C671.465,-254.797 674.844,-252.976 678,-250.979 716.052,-226.912 749.901,-184.383 764.447,-164.623"/>
<polygon fill="midnightblue" stroke="midnightblue" points="666.417,-253.318 658.599,-260.468 669.169,-259.754 666.417,-253.318"/>
</g>
<!-- Node17&#45;&gt;Node6 -->
<g id="edge48" class="edge"><title>Node17&#45;&gt;Node6</title>
<path fill="none" stroke="midnightblue" d="M197.796,-229.45C222.639,-221.597 253.48,-211.847 276.537,-204.558"/>
<polygon fill="midnightblue" stroke="midnightblue" points="196.731,-226.116 188.251,-232.468 198.841,-232.791 196.731,-226.116"/>
</g>
<!-- Node18&#45;&gt;Node9 -->
<g id="edge52" class="edge"><title>Node18&#45;&gt;Node9</title>
<path fill="none" stroke="midnightblue" d="M359.29,-23.0833C431.107,-6.58406 567.938,16.1435 678,-16.9794 763.01,-42.563 845.244,-115.684 874.124,-143.27"/>
<polygon fill="midnightblue" stroke="midnightblue" points="358.108,-19.7658 349.177,-25.4651 359.713,-26.5794 358.108,-19.7658"/>
</g>
<!-- Node19&#45;&gt;Node9 -->
<g id="edge56" class="edge"><title>Node19&#45;&gt;Node9</title>
<path fill="none" stroke="midnightblue" d="M682.563,-373.908C728.808,-373.975 790.072,-366.272 830,-330.979 855.798,-308.177 876.898,-199.811 883.128,-164.868"/>
<polygon fill="midnightblue" stroke="midnightblue" points="682.39,-370.406 672.343,-373.769 682.294,-377.405 682.39,-370.406"/>
</g>
<!-- Node20&#45;&gt;Node6 -->
<g id="edge64" class="edge"><title>Node20&#45;&gt;Node6</title>
<path fill="none" stroke="midnightblue" d="M212.457,-199.643C230.476,-198.597 250.048,-197.461 266.898,-196.482"/>
<polygon fill="midnightblue" stroke="midnightblue" points="212.128,-196.156 202.347,-200.23 212.533,-203.145 212.128,-196.156"/>
</g>
</g>
</svg>
        <g id="navigator" transform="translate(0 0)" fill="#404254">
                <rect fill="#f2f5e9" fill-opacity="0.5" stroke="#606060" stroke-width=".5" x="0" y="0" width="60" height="60"/>
                <use id="zoomplus" xlink:href="#zoomPlus" x="17" y="9" onmousedown="handleZoom(evt,'in')"/>
                <use id="zoomminus" xlink:href="#zoomMin" x="42" y="9" onmousedown="handleZoom(evt,'out')"/>
                <use id="reset" xlink:href="#resetDef" x="30" y="36" onmousedown="handleReset()"/>
                <g id="arrowUp" xlink:href="#dirArrow" transform="translate(30 24)" onmousedown="handlePan(0,-1)">
                  <use xlink:href="#rim" fill="#404040">
                        <set attributeName="fill" to="#808080" begin="arrowUp.mouseover" end="arrowUp.mouseout"/>
                  </use>
                  <path fill="none" stroke="white" stroke-width="1.5" d="M0,-3.0v7 M-2.5,-0.5L0,-3.0L2.5,-0.5"/>
                </g>
                <g id="arrowRight" xlink:href="#dirArrow" transform="rotate(90) translate(36 -43)" onmousedown="handlePan(1,0)">
                  <use xlink:href="#rim" fill="#404040">
                        <set attributeName="fill" to="#808080" begin="arrowRight.mouseover" end="arrowRight.mouseout"/>
                  </use>
                  <path fill="none" stroke="white" stroke-width="1.5" d="M0,-3.0v7 M-2.5,-0.5L0,-3.0L2.5,-0.5"/>
                </g>
                <g id="arrowDown" xlink:href="#dirArrow" transform="rotate(180) translate(-30 -48)" onmousedown="handlePan(0,1)">
                  <use xlink:href="#rim" fill="#404040">
                        <set attributeName="fill" to="#808080" begin="arrowDown.mouseover" end="arrowDown.mouseout"/>
                  </use>
                  <path fill="none" stroke="white" stroke-width="1.5" d="M0,-3.0v7 M-2.5,-0.5L0,-3.0L2.5,-0.5"/>
                </g>
                <g id="arrowLeft" xlink:href="#dirArrow" transform="rotate(270) translate(-36 17)" onmousedown="handlePan(-1,0)">
                  <use xlink:href="#rim" fill="#404040">
                        <set attributeName="fill" to="#808080" begin="arrowLeft.mouseover" end="arrowLeft.mouseout"/>
                  </use>
                  <path fill="none" stroke="white" stroke-width="1.5" d="M0,-3.0v7 M-2.5,-0.5L0,-3.0L2.5,-0.5"/>
                </g>
        </g>
</svg>
