<?xml version="1.0" encoding="UTF-8" standalone="no"?>
<!DOCTYPE svg PUBLIC "-//W3C//DTD SVG 1.1//EN"
 "http://www.w3.org/Graphics/SVG/1.1/DTD/svg11.dtd">
<!-- Generated by graphviz version 2.36.0 (20140111.2315)
 -->
<!-- Title: src/ports/MINGW/networkhandler.c Pages: 1 -->
<svg width="1286pt" height="476pt"
 viewBox="0.00 0.00 1286.00 476.00" xmlns="http://www.w3.org/2000/svg" xmlns:xlink="http://www.w3.org/1999/xlink">
<g id="graph0" class="graph" transform="scale(1 1) rotate(0) translate(4 472)">
<title>src/ports/MINGW/networkhandler.c</title>
<!-- Node1 -->
<g id="node1" class="node"><title>Node1</title>
<polygon fill="#bfbfbf" stroke="black" points="149.5,-448.5 149.5,-467.5 320.5,-467.5 320.5,-448.5 149.5,-448.5"/>
<text text-anchor="middle" x="235" y="-455.5" font-family="Helvetica,sans-Serif" font-size="10.00">src/ports/MINGW/networkhandler.c</text>
</g>
<!-- Node2 -->
<g id="node2" class="node"><title>Node2</title>
<polygon fill="none" stroke="#bfbfbf" points="233.5,-336.5 233.5,-355.5 282.5,-355.5 282.5,-336.5 233.5,-336.5"/>
<text text-anchor="middle" x="258" y="-343.5" font-family="Helvetica,sans-Serif" font-size="10.00">string.h</text>
</g>
<!-- Node1&#45;&gt;Node2 -->
<g id="edge1" class="edge"><title>Node1&#45;&gt;Node2</title>
<path fill="none" stroke="midnightblue" d="M246.266,-448.427C255.966,-440.275 269.279,-427.046 275,-412 280.946,-396.361 274.892,-377.841 268.418,-364.578"/>
<polygon fill="midnightblue" stroke="midnightblue" points="271.403,-362.739 263.578,-355.596 265.241,-366.059 271.403,-362.739"/>
</g>
<!-- Node3 -->
<g id="node3" class="node"><title>Node3</title>
<polygon fill="none" stroke="#bfbfbf" points="301,-336.5 301,-355.5 349,-355.5 349,-336.5 301,-336.5"/>
<text text-anchor="middle" x="325" y="-343.5" font-family="Helvetica,sans-Serif" font-size="10.00">stdlib.h</text>
</g>
<!-- Node1&#45;&gt;Node3 -->
<g id="edge2" class="edge"><title>Node1&#45;&gt;Node3</title>
<path fill="none" stroke="midnightblue" d="M248.778,-448.328C261.017,-440.109 278.805,-426.839 291,-412 302.727,-397.73 312.079,-378.767 317.983,-365.008"/>
<polygon fill="midnightblue" stroke="midnightblue" points="321.259,-366.246 321.809,-355.665 314.781,-363.593 321.259,-366.246"/>
</g>
<!-- Node4 -->
<g id="node4" class="node"><title>Node4</title>
<polygon fill="none" stroke="#bfbfbf" points="0,-336.5 0,-355.5 66,-355.5 66,-336.5 0,-336.5"/>
<text text-anchor="middle" x="33" y="-343.5" font-family="Helvetica,sans-Serif" font-size="10.00">winsock2.h</text>
</g>
<!-- Node1&#45;&gt;Node4 -->
<g id="edge3" class="edge"><title>Node1&#45;&gt;Node4</title>
<path fill="none" stroke="midnightblue" d="M165.831,-448.432C118.956,-441.199 62.6233,-429.239 46,-412 34.402,-399.973 31.7779,-380.681 31.6793,-366.233"/>
<polygon fill="midnightblue" stroke="midnightblue" points="35.188,-366.025 32.0185,-355.915 28.1917,-365.795 35.188,-366.025"/>
</g>
<!-- Node5 -->
<g id="node5" class="node"><title>Node5</title>
<polygon fill="none" stroke="#bfbfbf" points="203.5,-392.5 203.5,-411.5 266.5,-411.5 266.5,-392.5 203.5,-392.5"/>
<text text-anchor="middle" x="235" y="-399.5" font-family="Helvetica,sans-Serif" font-size="10.00">windows.h</text>
</g>
<!-- Node1&#45;&gt;Node5 -->
<g id="edge4" class="edge"><title>Node1&#45;&gt;Node5</title>
<path fill="none" stroke="midnightblue" d="M235,-448.083C235,-441.006 235,-430.861 235,-421.986"/>
<polygon fill="midnightblue" stroke="midnightblue" points="238.5,-421.751 235,-411.751 231.5,-421.751 238.5,-421.751"/>
</g>
<!-- Node6 -->
<g id="node6" class="node"><title>Node6</title>
<polygon fill="none" stroke="#bfbfbf" points="138,-336.5 138,-355.5 204,-355.5 204,-336.5 138,-336.5"/>
<text text-anchor="middle" x="171" y="-343.5" font-family="Helvetica,sans-Serif" font-size="10.00">Ws2tcpip.h</text>
</g>
<!-- Node1&#45;&gt;Node6 -->
<g id="edge5" class="edge"><title>Node1&#45;&gt;Node6</title>
<path fill="none" stroke="midnightblue" d="M224.996,-448.24C215.842,-439.761 202.47,-426.146 194,-412 185.352,-397.558 179.265,-379.369 175.535,-365.907"/>
<polygon fill="midnightblue" stroke="midnightblue" points="178.839,-364.705 172.951,-355.897 172.061,-366.454 178.839,-364.705"/>
</g>
<!-- Node7 -->
<g id="node7" class="node"><title>Node7</title>
<g id="a_node7"><a xlink:href="../../d7/d74/MINGW_2networkhandler_8h.html" target="_top" xlink:title="networkhandler.h">
<polygon fill="none" stroke="black" points="55.5,-392.5 55.5,-411.5 146.5,-411.5 146.5,-392.5 55.5,-392.5"/>
<text text-anchor="middle" x="101" y="-399.5" font-family="Helvetica,sans-Serif" font-size="10.00">networkhandler.h</text>
</a>
</g>
</g>
<!-- Node1&#45;&gt;Node7 -->
<g id="edge6" class="edge"><title>Node1&#45;&gt;Node7</title>
<path fill="none" stroke="midnightblue" d="M213.767,-448.444C191.616,-439.517 156.681,-425.439 131.564,-415.317"/>
<polygon fill="midnightblue" stroke="midnightblue" points="132.717,-412.008 122.133,-411.516 130.1,-418.501 132.717,-412.008"/>
</g>
<!-- Node12 -->
<g id="node12" class="node"><title>Node12</title>
<g id="a_node12"><a xlink:href="../../da/dc2/generic__networkhandler_8h.html" target="_top" xlink:title="generic_networkhandler.h">
<polygon fill="none" stroke="black" points="434,-392.5 434,-411.5 562,-411.5 562,-392.5 434,-392.5"/>
<text text-anchor="middle" x="498" y="-399.5" font-family="Helvetica,sans-Serif" font-size="10.00">generic_networkhandler.h</text>
</a>
</g>
</g>
<!-- Node1&#45;&gt;Node12 -->
<g id="edge13" class="edge"><title>Node1&#45;&gt;Node12</title>
<path fill="none" stroke="midnightblue" d="M276.673,-448.444C322.745,-438.984 396.996,-423.738 446.631,-413.547"/>
<polygon fill="midnightblue" stroke="midnightblue" points="447.43,-416.956 456.522,-411.516 446.022,-410.099 447.43,-416.956"/>
</g>
<!-- Node7&#45;&gt;Node4 -->
<g id="edge7" class="edge"><title>Node7&#45;&gt;Node4</title>
<path fill="none" stroke="midnightblue" d="M90.0746,-392.324C79.8254,-384.185 64.2794,-371.839 51.999,-362.087"/>
<polygon fill="midnightblue" stroke="midnightblue" points="54.1319,-359.312 44.1242,-355.834 49.7787,-364.794 54.1319,-359.312"/>
</g>
<!-- Node7&#45;&gt;Node6 -->
<g id="edge12" class="edge"><title>Node7&#45;&gt;Node6</title>
<path fill="none" stroke="midnightblue" d="M112.247,-392.324C122.797,-384.185 138.801,-371.839 151.442,-362.087"/>
<polygon fill="midnightblue" stroke="midnightblue" points="153.769,-364.713 159.549,-355.834 149.493,-359.171 153.769,-364.713"/>
</g>
<!-- Node8 -->
<g id="node8" class="node"><title>Node8</title>
<g id="a_node8"><a xlink:href="../../d7/d69/typedefs_8h.html" target="_top" xlink:title="typedefs.h">
<polygon fill="none" stroke="black" points="512,-56.5 512,-75.5 574,-75.5 574,-56.5 512,-56.5"/>
<text text-anchor="middle" x="543" y="-63.5" font-family="Helvetica,sans-Serif" font-size="10.00">typedefs.h</text>
</a>
</g>
</g>
<!-- Node7&#45;&gt;Node8 -->
<g id="edge8" class="edge"><title>Node7&#45;&gt;Node8</title>
<path fill="none" stroke="midnightblue" d="M101.392,-392.444C102.205,-373.943 104,-328.827 104,-291 104,-291 104,-291 104,-177 104,-95.4606 392.569,-73.8325 501.786,-68.5667"/>
<polygon fill="midnightblue" stroke="midnightblue" points="501.952,-72.0629 511.78,-68.1068 501.63,-65.0703 501.952,-72.0629"/>
</g>
<!-- Node9 -->
<g id="node9" class="node"><title>Node9</title>
<polygon fill="none" stroke="#bfbfbf" points="476.5,-0.5 476.5,-19.5 535.5,-19.5 535.5,-0.5 476.5,-0.5"/>
<text text-anchor="middle" x="506" y="-7.5" font-family="Helvetica,sans-Serif" font-size="10.00">inttypes.h</text>
</g>
<!-- Node8&#45;&gt;Node9 -->
<g id="edge9" class="edge"><title>Node8&#45;&gt;Node9</title>
<path fill="none" stroke="midnightblue" d="M536.89,-56.083C531.718,-48.5341 524.154,-37.4948 517.806,-28.2298"/>
<polygon fill="midnightblue" stroke="midnightblue" points="520.536,-26.0221 511.996,-19.7511 514.761,-29.9787 520.536,-26.0221"/>
</g>
<!-- Node10 -->
<g id="node10" class="node"><title>Node10</title>
<polygon fill="none" stroke="#bfbfbf" points="554,-0.5 554,-19.5 606,-19.5 606,-0.5 554,-0.5"/>
<text text-anchor="middle" x="580" y="-7.5" font-family="Helvetica,sans-Serif" font-size="10.00">stddef.h</text>
</g>
<!-- Node8&#45;&gt;Node10 -->
<g id="edge10" class="edge"><title>Node8&#45;&gt;Node10</title>
<path fill="none" stroke="midnightblue" d="M549.11,-56.083C554.282,-48.5341 561.846,-37.4948 568.194,-28.2298"/>
<polygon fill="midnightblue" stroke="midnightblue" points="571.239,-29.9787 574.004,-19.7511 565.464,-26.0221 571.239,-29.9787"/>
</g>
<!-- Node11 -->
<g id="node11" class="node"><title>Node11</title>
<polygon fill="none" stroke="#bfbfbf" points="798,-0.5 798,-19.5 854,-19.5 854,-0.5 798,-0.5"/>
<text text-anchor="middle" x="826" y="-7.5" font-family="Helvetica,sans-Serif" font-size="10.00">stdbool.h</text>
</g>
<!-- Node8&#45;&gt;Node11 -->
<g id="edge11" class="edge"><title>Node8&#45;&gt;Node11</title>
<path fill="none" stroke="midnightblue" d="M574.095,-59.0666C626.272,-49.1107 731.275,-29.0747 787.837,-18.282"/>
<polygon fill="midnightblue" stroke="midnightblue" points="788.644,-21.6912 797.811,-16.3788 787.332,-14.8153 788.644,-21.6912"/>
</g>
<!-- Node12&#45;&gt;Node2 -->
<g id="edge15" class="edge"><title>Node12&#45;&gt;Node2</title>
<path fill="none" stroke="midnightblue" d="M456.449,-392.48C416.874,-384.241 355.398,-371.122 292.889,-356.133"/>
<polygon fill="midnightblue" stroke="midnightblue" points="293.393,-352.655 282.851,-353.712 291.751,-359.459 293.393,-352.655"/>
</g>
<!-- Node12&#45;&gt;Node3 -->
<g id="edge16" class="edge"><title>Node12&#45;&gt;Node3</title>
<path fill="none" stroke="midnightblue" d="M470.588,-392.444C440.281,-382.984 391.437,-367.738 358.788,-357.546"/>
<polygon fill="midnightblue" stroke="midnightblue" points="359.802,-354.197 349.214,-354.558 357.716,-360.879 359.802,-354.197"/>
</g>
<!-- Node12&#45;&gt;Node8 -->
<g id="edge30" class="edge"><title>Node12&#45;&gt;Node8</title>
<path fill="none" stroke="midnightblue" d="M519.808,-392.447C534.945,-385.221 553.955,-373.264 563,-356 567.125,-348.126 563.33,-344.883 563,-336 561.183,-287.054 548.982,-138.494 544.58,-85.7908"/>
<polygon fill="midnightblue" stroke="midnightblue" points="548.046,-85.235 543.723,-75.5623 541.07,-85.8196 548.046,-85.235"/>
</g>
<!-- Node13 -->
<g id="node13" class="node"><title>Node13</title>
<polygon fill="none" stroke="#bfbfbf" points="443,-336.5 443,-355.5 489,-355.5 489,-336.5 443,-336.5"/>
<text text-anchor="middle" x="466" y="-343.5" font-family="Helvetica,sans-Serif" font-size="10.00">stdio.h</text>
</g>
<!-- Node12&#45;&gt;Node13 -->
<g id="edge14" class="edge"><title>Node12&#45;&gt;Node13</title>
<path fill="none" stroke="midnightblue" d="M492.716,-392.083C488.289,-384.613 481.837,-373.724 476.382,-364.52"/>
<polygon fill="midnightblue" stroke="midnightblue" points="479.295,-362.57 471.186,-355.751 473.273,-366.138 479.295,-362.57"/>
</g>
<!-- Node14 -->
<g id="node14" class="node"><title>Node14</title>
<polygon fill="none" stroke="#bfbfbf" points="507.5,-336.5 507.5,-355.5 554.5,-355.5 554.5,-336.5 507.5,-336.5"/>
<text text-anchor="middle" x="531" y="-343.5" font-family="Helvetica,sans-Serif" font-size="10.00">errno.h</text>
</g>
<!-- Node12&#45;&gt;Node14 -->
<g id="edge17" class="edge"><title>Node12&#45;&gt;Node14</title>
<path fill="none" stroke="midnightblue" d="M503.449,-392.083C508.014,-384.613 514.668,-373.724 520.293,-364.52"/>
<polygon fill="midnightblue" stroke="midnightblue" points="523.424,-366.109 525.652,-355.751 517.451,-362.459 523.424,-366.109"/>
</g>
<!-- Node15 -->
<g id="node15" class="node"><title>Node15</title>
<g id="a_node15"><a xlink:href="../../d4/d38/opener__api_8h.html" target="_top" xlink:title="opener_api.h">
<polygon fill="none" stroke="black" points="651,-168.5 651,-187.5 723,-187.5 723,-168.5 651,-168.5"/>
<text text-anchor="middle" x="687" y="-175.5" font-family="Helvetica,sans-Serif" font-size="10.00">opener_api.h</text>
</a>
</g>
</g>
<!-- Node12&#45;&gt;Node15 -->
<g id="edge18" class="edge"><title>Node12&#45;&gt;Node15</title>
<path fill="none" stroke="midnightblue" d="M530.175,-392.463C551.276,-385.515 578.315,-373.885 597,-356 645.09,-309.97 671.839,-232.673 682.08,-197.468"/>
<polygon fill="midnightblue" stroke="midnightblue" points="685.514,-198.183 684.831,-187.61 678.772,-196.301 685.514,-198.183"/>
</g>
<!-- Node18 -->
<g id="node18" class="node"><title>Node18</title>
<polygon fill="none" stroke="#bfbfbf" points="1120.5,-56.5 1120.5,-75.5 1211.5,-75.5 1211.5,-56.5 1120.5,-56.5"/>
<text text-anchor="middle" x="1166" y="-63.5" font-family="Helvetica,sans-Serif" font-size="10.00">networkhandler.h</text>
</g>
<!-- Node12&#45;&gt;Node18 -->
<g id="edge51" class="edge"><title>Node12&#45;&gt;Node18</title>
<path fill="none" stroke="midnightblue" d="M562.162,-398.672C748.745,-391.055 1278,-363.096 1278,-291 1278,-291 1278,-291 1278,-177 1278,-130.614 1228.49,-97.2849 1195.31,-80.1547"/>
<polygon fill="midnightblue" stroke="midnightblue" points="1196.54,-76.8574 1186.02,-75.5583 1193.43,-83.131 1196.54,-76.8574"/>
</g>
<!-- Node22 -->
<g id="node22" class="node"><title>Node22</title>
<g id="a_node22"><a xlink:href="../../d0/dec/endianconv_8h.html" target="_top" xlink:title="Responsible for Endianess conversion. ">
<polygon fill="none" stroke="black" points="312,-280.5 312,-299.5 386,-299.5 386,-280.5 312,-280.5"/>
<text text-anchor="middle" x="349" y="-287.5" font-family="Helvetica,sans-Serif" font-size="10.00">endianconv.h</text>
</a>
</g>
</g>
<!-- Node12&#45;&gt;Node22 -->
<g id="edge31" class="edge"><title>Node12&#45;&gt;Node22</title>
<path fill="none" stroke="midnightblue" d="M471.475,-392.481C450.876,-385.013 422.325,-372.729 401,-356 384.001,-342.665 369.123,-322.737 359.685,-308.465"/>
<polygon fill="midnightblue" stroke="midnightblue" points="362.386,-306.191 354.061,-299.638 356.483,-309.952 362.386,-306.191"/>
</g>
<!-- Node23 -->
<g id="node23" class="node"><title>Node23</title>
<g id="a_node23"><a xlink:href="../../d2/da3/cipconnectionmanager_8h.html" target="_top" xlink:title="cipconnectionmanager.h">
<polygon fill="none" stroke="black" points="692,-280.5 692,-299.5 814,-299.5 814,-280.5 692,-280.5"/>
<text text-anchor="middle" x="753" y="-287.5" font-family="Helvetica,sans-Serif" font-size="10.00">cipconnectionmanager.h</text>
</a>
</g>
</g>
<!-- Node12&#45;&gt;Node23 -->
<g id="edge33" class="edge"><title>Node12&#45;&gt;Node23</title>
<path fill="none" stroke="midnightblue" d="M562.2,-396.091C622.91,-390.175 708.292,-378.145 733,-356 746.032,-344.32 750.678,-324.376 752.28,-309.652"/>
<polygon fill="midnightblue" stroke="midnightblue" points="755.774,-309.86 753,-299.634 748.792,-309.358 755.774,-309.86"/>
</g>
<!-- Node28 -->
<g id="node28" class="node"><title>Node28</title>
<g id="a_node28"><a xlink:href="../../d1/dc0/appcontype_8h.html" target="_top" xlink:title="appcontype.h">
<polygon fill="none" stroke="black" points="649.5,-336.5 649.5,-355.5 724.5,-355.5 724.5,-336.5 649.5,-336.5"/>
<text text-anchor="middle" x="687" y="-343.5" font-family="Helvetica,sans-Serif" font-size="10.00">appcontype.h</text>
</a>
</g>
</g>
<!-- Node12&#45;&gt;Node28 -->
<g id="edge52" class="edge"><title>Node12&#45;&gt;Node28</title>
<path fill="none" stroke="midnightblue" d="M527.948,-392.444C560.158,-383.241 611.534,-368.562 647.142,-358.388"/>
<polygon fill="midnightblue" stroke="midnightblue" points="648.539,-361.629 657.192,-355.516 646.616,-354.898 648.539,-361.629"/>
</g>
<!-- Node29 -->
<g id="node29" class="node"><title>Node29</title>
<g id="a_node29"><a xlink:href="../../d1/d84/socket__timer_8h.html" target="_top" xlink:title="socket_timer.h">
<polygon fill="none" stroke="black" points="376.5,-224.5 376.5,-243.5 457.5,-243.5 457.5,-224.5 376.5,-224.5"/>
<text text-anchor="middle" x="417" y="-231.5" font-family="Helvetica,sans-Serif" font-size="10.00">socket_timer.h</text>
</a>
</g>
</g>
<!-- Node12&#45;&gt;Node29 -->
<g id="edge54" class="edge"><title>Node12&#45;&gt;Node29</title>
<path fill="none" stroke="midnightblue" d="M478.132,-392.433C463.442,-385.008 444.274,-372.803 434,-356 414.52,-324.14 413.792,-278.88 415.238,-253.715"/>
<polygon fill="midnightblue" stroke="midnightblue" points="418.732,-253.923 415.996,-243.687 411.752,-253.395 418.732,-253.923"/>
</g>
<!-- Node15&#45;&gt;Node8 -->
<g id="edge21" class="edge"><title>Node15&#45;&gt;Node8</title>
<path fill="none" stroke="midnightblue" d="M652.418,-168.447C630.053,-161.539 601.412,-149.962 581,-132 566.47,-119.215 556.036,-99.4753 549.82,-85.1029"/>
<polygon fill="midnightblue" stroke="midnightblue" points="553.037,-83.7199 546.042,-75.7622 546.547,-86.345 553.037,-83.7199"/>
</g>
<!-- Node15&#45;&gt;Node11 -->
<g id="edge20" class="edge"><title>Node15&#45;&gt;Node11</title>
<path fill="none" stroke="midnightblue" d="M694.774,-168.465C702.912,-159.482 716.011,-144.884 727,-132 758.393,-95.1937 794.06,-50.9872 812.833,-27.5253"/>
<polygon fill="midnightblue" stroke="midnightblue" points="815.651,-29.6056 819.157,-19.6076 810.182,-25.2371 815.651,-29.6056"/>
</g>
<!-- Node16 -->
<g id="node16" class="node"><title>Node16</title>
<polygon fill="none" stroke="#bfbfbf" points="666,-112.5 666,-131.5 718,-131.5 718,-112.5 666,-112.5"/>
<text text-anchor="middle" x="692" y="-119.5" font-family="Helvetica,sans-Serif" font-size="10.00">assert.h</text>
</g>
<!-- Node15&#45;&gt;Node16 -->
<g id="edge19" class="edge"><title>Node15&#45;&gt;Node16</title>
<path fill="none" stroke="midnightblue" d="M687.826,-168.083C688.481,-161.006 689.42,-150.861 690.242,-141.986"/>
<polygon fill="midnightblue" stroke="midnightblue" points="693.753,-142.031 691.19,-131.751 686.783,-141.386 693.753,-142.031"/>
</g>
<!-- Node17 -->
<g id="node17" class="node"><title>Node17</title>
<g id="a_node17"><a xlink:href="../../df/d28/ciptypes_8h.html" target="_top" xlink:title="ciptypes.h">
<polygon fill="none" stroke="black" points="1002,-112.5 1002,-131.5 1064,-131.5 1064,-112.5 1002,-112.5"/>
<text text-anchor="middle" x="1033" y="-119.5" font-family="Helvetica,sans-Serif" font-size="10.00">ciptypes.h</text>
</a>
</g>
</g>
<!-- Node15&#45;&gt;Node17 -->
<g id="edge22" class="edge"><title>Node15&#45;&gt;Node17</title>
<path fill="none" stroke="midnightblue" d="M723.049,-171.374C787.75,-161.276 923.192,-140.138 991.591,-129.463"/>
<polygon fill="midnightblue" stroke="midnightblue" points="992.236,-132.905 1001.58,-127.904 991.156,-125.988 992.236,-132.905"/>
</g>
<!-- Node20 -->
<g id="node20" class="node"><title>Node20</title>
<polygon fill="none" stroke="#bfbfbf" points="971,-0.5 971,-19.5 1073,-19.5 1073,-0.5 971,-0.5"/>
<text text-anchor="middle" x="1022" y="-7.5" font-family="Helvetica,sans-Serif" font-size="10.00">opener_user_conf.h</text>
</g>
<!-- Node15&#45;&gt;Node20 -->
<g id="edge29" class="edge"><title>Node15&#45;&gt;Node20</title>
<path fill="none" stroke="midnightblue" d="M704.539,-168.309C759.602,-141.024 929.277,-56.9465 995.313,-24.2239"/>
<polygon fill="midnightblue" stroke="midnightblue" points="997.228,-27.1813 1004.63,-19.6051 994.12,-20.9091 997.228,-27.1813"/>
</g>
<!-- Node21 -->
<g id="node21" class="node"><title>Node21</title>
<g id="a_node21"><a xlink:href="../../d6/d52/ciperror_8h.html" target="_top" xlink:title="ciperror.h">
<polygon fill="none" stroke="black" points="590.5,-112.5 590.5,-131.5 647.5,-131.5 647.5,-112.5 590.5,-112.5"/>
<text text-anchor="middle" x="619" y="-119.5" font-family="Helvetica,sans-Serif" font-size="10.00">ciperror.h</text>
</a>
</g>
</g>
<!-- Node15&#45;&gt;Node21 -->
<g id="edge28" class="edge"><title>Node15&#45;&gt;Node21</title>
<path fill="none" stroke="midnightblue" d="M676.075,-168.324C665.825,-160.185 650.279,-147.839 637.999,-138.087"/>
<polygon fill="midnightblue" stroke="midnightblue" points="640.132,-135.312 630.124,-131.834 635.779,-140.794 640.132,-135.312"/>
</g>
<!-- Node17&#45;&gt;Node8 -->
<g id="edge23" class="edge"><title>Node17&#45;&gt;Node8</title>
<path fill="none" stroke="midnightblue" d="M1001.86,-117.421C987.321,-115.757 969.776,-113.762 954,-112 818.864,-96.9045 658.674,-79.5092 584.504,-71.4835"/>
<polygon fill="midnightblue" stroke="midnightblue" points="584.517,-67.9645 574.199,-70.3687 583.764,-74.924 584.517,-67.9645"/>
</g>
<!-- Node17&#45;&gt;Node18 -->
<g id="edge24" class="edge"><title>Node17&#45;&gt;Node18</title>
<path fill="none" stroke="midnightblue" d="M1054.07,-112.444C1076.06,-103.517 1110.73,-89.4387 1135.66,-79.3168"/>
<polygon fill="midnightblue" stroke="midnightblue" points="1137.08,-82.5213 1145.02,-75.5164 1134.44,-76.0355 1137.08,-82.5213"/>
</g>
<!-- Node19 -->
<g id="node19" class="node"><title>Node19</title>
<g id="a_node19"><a xlink:href="../../d8/d2c/enipmessage_8h.html" target="_top" xlink:title="enipmessage.h">
<polygon fill="none" stroke="black" points="980.5,-56.5 980.5,-75.5 1063.5,-75.5 1063.5,-56.5 980.5,-56.5"/>
<text text-anchor="middle" x="1022" y="-63.5" font-family="Helvetica,sans-Serif" font-size="10.00">enipmessage.h</text>
</a>
</g>
</g>
<!-- Node17&#45;&gt;Node19 -->
<g id="edge25" class="edge"><title>Node17&#45;&gt;Node19</title>
<path fill="none" stroke="midnightblue" d="M1031.18,-112.083C1029.73,-104.927 1027.63,-94.6353 1025.81,-85.6911"/>
<polygon fill="midnightblue" stroke="midnightblue" points="1029.21,-84.8512 1023.78,-75.7511 1022.35,-86.2485 1029.21,-84.8512"/>
</g>
<!-- Node17&#45;&gt;Node20 -->
<g id="edge27" class="edge"><title>Node17&#45;&gt;Node20</title>
<path fill="none" stroke="midnightblue" d="M1013.09,-112.41C998.775,-105.04 980.542,-92.9163 972,-76 962.382,-56.9527 981.163,-37.929 998.388,-25.4298"/>
<polygon fill="midnightblue" stroke="midnightblue" points="1000.78,-28.0334 1007.09,-19.5227 996.854,-22.2408 1000.78,-28.0334"/>
</g>
<!-- Node19&#45;&gt;Node20 -->
<g id="edge26" class="edge"><title>Node19&#45;&gt;Node20</title>
<path fill="none" stroke="midnightblue" d="M1022,-56.083C1022,-49.0059 1022,-38.8611 1022,-29.9865"/>
<polygon fill="midnightblue" stroke="midnightblue" points="1025.5,-29.751 1022,-19.7511 1018.5,-29.7511 1025.5,-29.751"/>
</g>
<!-- Node22&#45;&gt;Node8 -->
<g id="edge32" class="edge"><title>Node22&#45;&gt;Node8</title>
<path fill="none" stroke="midnightblue" d="M350.303,-280.189C352.455,-267.303 357.491,-242.81 367,-224 395.56,-167.504 406.127,-152.235 455,-112 471.543,-98.3809 492.886,-87.341 510.409,-79.6046"/>
<polygon fill="midnightblue" stroke="midnightblue" points="511.867,-82.7882 519.697,-75.6511 509.125,-76.3474 511.867,-82.7882"/>
</g>
<!-- Node23&#45;&gt;Node8 -->
<g id="edge36" class="edge"><title>Node23&#45;&gt;Node8</title>
<path fill="none" stroke="midnightblue" d="M737.196,-280.497C700.625,-260 609.659,-204.177 562,-132 552.789,-118.05 547.948,-99.5442 545.465,-85.8469"/>
<polygon fill="midnightblue" stroke="midnightblue" points="548.879,-85.0238 543.889,-75.6777 541.962,-86.0957 548.879,-85.0238"/>
</g>
<!-- Node23&#45;&gt;Node15 -->
<g id="edge35" class="edge"><title>Node23&#45;&gt;Node15</title>
<path fill="none" stroke="midnightblue" d="M747.821,-280.368C736.977,-262.296 711.706,-220.176 697.384,-196.307"/>
<polygon fill="midnightblue" stroke="midnightblue" points="700.301,-194.366 692.155,-187.591 694.299,-197.967 700.301,-194.366"/>
</g>
<!-- Node23&#45;&gt;Node17 -->
<g id="edge37" class="edge"><title>Node23&#45;&gt;Node17</title>
<path fill="none" stroke="midnightblue" d="M814.037,-288.452C885.09,-284.093 999.398,-264.704 1052,-188 1061.83,-173.662 1053.97,-154.2 1045.57,-140.318"/>
<polygon fill="midnightblue" stroke="midnightblue" points="1048.32,-138.134 1039.88,-131.73 1042.48,-142 1048.32,-138.134"/>
</g>
<!-- Node23&#45;&gt;Node20 -->
<g id="edge34" class="edge"><title>Node23&#45;&gt;Node20</title>
<path fill="none" stroke="midnightblue" d="M814.186,-287.911C944.984,-283.922 1240,-265.354 1240,-179 1240,-179 1240,-179 1240,-121 1240,-90.7745 1242.16,-76.5561 1220,-56 1200.29,-37.7203 1133.81,-25.2507 1083.27,-18.1556"/>
<polygon fill="midnightblue" stroke="midnightblue" points="1083.45,-14.6482 1073.07,-16.7656 1082.5,-21.5841 1083.45,-14.6482"/>
</g>
<!-- Node24 -->
<g id="node24" class="node"><title>Node24</title>
<g id="a_node24"><a xlink:href="../../d1/d6c/cipconnectionobject_8h.html" target="_top" xlink:title="cipconnectionobject.h">
<polygon fill="none" stroke="black" points="787.5,-224.5 787.5,-243.5 898.5,-243.5 898.5,-224.5 787.5,-224.5"/>
<text text-anchor="middle" x="843" y="-231.5" font-family="Helvetica,sans-Serif" font-size="10.00">cipconnectionobject.h</text>
</a>
</g>
</g>
<!-- Node23&#45;&gt;Node24 -->
<g id="edge38" class="edge"><title>Node23&#45;&gt;Node24</title>
<path fill="none" stroke="midnightblue" d="M767.46,-280.324C781.5,-271.9 803.048,-258.971 819.543,-249.074"/>
<polygon fill="midnightblue" stroke="midnightblue" points="821.802,-251.801 828.576,-243.655 818.2,-245.798 821.802,-251.801"/>
</g>
<!-- Node24&#45;&gt;Node8 -->
<g id="edge39" class="edge"><title>Node24&#45;&gt;Node8</title>
<path fill="none" stroke="midnightblue" d="M837.396,-224.383C822.397,-202.05 778.929,-141.952 727,-112 682.283,-86.208 623.224,-75.1268 584.224,-70.4131"/>
<polygon fill="midnightblue" stroke="midnightblue" points="584.602,-66.9336 574.274,-69.296 583.821,-73.8899 584.602,-66.9336"/>
</g>
<!-- Node24&#45;&gt;Node15 -->
<g id="edge42" class="edge"><title>Node24&#45;&gt;Node15</title>
<path fill="none" stroke="midnightblue" d="M818.281,-224.444C792.152,-215.399 750.741,-201.064 721.424,-190.916"/>
<polygon fill="midnightblue" stroke="midnightblue" points="722.198,-187.48 711.603,-187.516 719.908,-194.095 722.198,-187.48"/>
</g>
<!-- Node24&#45;&gt;Node17 -->
<g id="edge40" class="edge"><title>Node24&#45;&gt;Node17</title>
<path fill="none" stroke="midnightblue" d="M898.961,-227.524C949.437,-221.292 1018.25,-209.128 1035,-188 1045.28,-175.028 1043.13,-155.592 1039.41,-141.353"/>
<polygon fill="midnightblue" stroke="midnightblue" points="1042.72,-140.206 1036.45,-131.67 1036.03,-142.256 1042.72,-140.206"/>
</g>
<!-- Node24&#45;&gt;Node20 -->
<g id="edge41" class="edge"><title>Node24&#45;&gt;Node20</title>
<path fill="none" stroke="midnightblue" d="M898.702,-227.147C952.663,-220.419 1029.54,-207.7 1052,-188 1096.61,-148.878 1096.14,-110.204 1072,-56 1066.43,-43.4981 1055.48,-33.0124 1045.25,-25.3167"/>
<polygon fill="midnightblue" stroke="midnightblue" points="1047.16,-22.3794 1036.95,-19.5256 1043.15,-28.1193 1047.16,-22.3794"/>
</g>
<!-- Node25 -->
<g id="node25" class="node"><title>Node25</title>
<g id="a_node25"><a xlink:href="../../d9/d31/doublylinkedlist_8h.html" target="_top" xlink:title="doublylinkedlist.h">
<polygon fill="none" stroke="black" points="934,-168.5 934,-187.5 1026,-187.5 1026,-168.5 934,-168.5"/>
<text text-anchor="middle" x="980" y="-175.5" font-family="Helvetica,sans-Serif" font-size="10.00">doublylinkedlist.h</text>
</a>
</g>
</g>
<!-- Node24&#45;&gt;Node25 -->
<g id="edge43" class="edge"><title>Node24&#45;&gt;Node25</title>
<path fill="none" stroke="midnightblue" d="M864.708,-224.444C887.355,-215.517 923.072,-201.439 948.752,-191.317"/>
<polygon fill="midnightblue" stroke="midnightblue" points="950.374,-194.44 958.394,-187.516 947.807,-187.927 950.374,-194.44"/>
</g>
<!-- Node26 -->
<g id="node26" class="node"><title>Node26</title>
<g id="a_node26"><a xlink:href="../../d0/d23/cipelectronickey_8h.html" target="_top" xlink:title="cipelectronickey.h">
<polygon fill="none" stroke="black" points="850.5,-112.5 850.5,-131.5 945.5,-131.5 945.5,-112.5 850.5,-112.5"/>
<text text-anchor="middle" x="898" y="-119.5" font-family="Helvetica,sans-Serif" font-size="10.00">cipelectronickey.h</text>
</a>
</g>
</g>
<!-- Node24&#45;&gt;Node26 -->
<g id="edge44" class="edge"><title>Node24&#45;&gt;Node26</title>
<path fill="none" stroke="midnightblue" d="M841.17,-224.487C838.835,-211.556 836.084,-186.513 845,-168 851.158,-155.214 862.838,-144.681 873.67,-137.028"/>
<polygon fill="midnightblue" stroke="midnightblue" points="875.617,-139.936 882.053,-131.52 871.773,-134.086 875.617,-139.936"/>
</g>
<!-- Node27 -->
<g id="node27" class="node"><title>Node27</title>
<g id="a_node27"><a xlink:href="../../d1/d02/cipepath_8h.html" target="_top" xlink:title="cipepath.h">
<polygon fill="none" stroke="black" points="854,-168.5 854,-187.5 916,-187.5 916,-168.5 854,-168.5"/>
<text text-anchor="middle" x="885" y="-175.5" font-family="Helvetica,sans-Serif" font-size="10.00">cipepath.h</text>
</a>
</g>
</g>
<!-- Node24&#45;&gt;Node27 -->
<g id="edge47" class="edge"><title>Node24&#45;&gt;Node27</title>
<path fill="none" stroke="midnightblue" d="M849.935,-224.083C855.929,-216.377 864.752,-205.033 872.048,-195.653"/>
<polygon fill="midnightblue" stroke="midnightblue" points="874.817,-197.793 878.194,-187.751 869.291,-193.496 874.817,-197.793"/>
</g>
<!-- Node26&#45;&gt;Node8 -->
<g id="edge46" class="edge"><title>Node26&#45;&gt;Node8</title>
<path fill="none" stroke="midnightblue" d="M850.491,-113.773C780.37,-103.107 650.332,-83.3266 584.091,-73.2504"/>
<polygon fill="midnightblue" stroke="midnightblue" points="584.439,-69.7632 574.026,-71.7195 583.386,-76.6836 584.439,-69.7632"/>
</g>
<!-- Node26&#45;&gt;Node11 -->
<g id="edge45" class="edge"><title>Node26&#45;&gt;Node11</title>
<path fill="none" stroke="midnightblue" d="M892.35,-112.368C880.468,-94.2153 852.706,-51.8015 837.121,-27.9902"/>
<polygon fill="midnightblue" stroke="midnightblue" points="840.029,-26.0416 831.623,-19.5914 834.172,-29.8753 840.029,-26.0416"/>
</g>
<!-- Node27&#45;&gt;Node11 -->
<g id="edge48" class="edge"><title>Node27&#45;&gt;Node11</title>
<path fill="none" stroke="midnightblue" d="M907.261,-168.445C931.772,-157.578 966.204,-137.175 954,-112 933.522,-69.7562 885.857,-39.8581 854.825,-24.0388"/>
<polygon fill="midnightblue" stroke="midnightblue" points="856.294,-20.861 845.776,-19.5833 853.202,-27.1409 856.294,-20.861"/>
</g>
<!-- Node27&#45;&gt;Node17 -->
<g id="edge49" class="edge"><title>Node27&#45;&gt;Node17</title>
<path fill="none" stroke="midnightblue" d="M908.451,-168.444C933.133,-159.438 972.185,-145.189 999.977,-135.049"/>
<polygon fill="midnightblue" stroke="midnightblue" points="1001.46,-138.232 1009.66,-131.516 999.065,-131.656 1001.46,-138.232"/>
</g>
<!-- Node27&#45;&gt;Node26 -->
<g id="edge50" class="edge"><title>Node27&#45;&gt;Node26</title>
<path fill="none" stroke="midnightblue" d="M887.147,-168.083C888.869,-160.927 891.347,-150.635 893.5,-141.691"/>
<polygon fill="midnightblue" stroke="midnightblue" points="896.955,-142.293 895.893,-131.751 890.15,-140.654 896.955,-142.293"/>
</g>
<!-- Node28&#45;&gt;Node23 -->
<g id="edge53" class="edge"><title>Node28&#45;&gt;Node23</title>
<path fill="none" stroke="midnightblue" d="M697.604,-336.324C707.456,-328.263 722.351,-316.077 734.215,-306.369"/>
<polygon fill="midnightblue" stroke="midnightblue" points="736.68,-308.875 742.203,-299.834 732.247,-303.457 736.68,-308.875"/>
</g>
<!-- Node29&#45;&gt;Node8 -->
<g id="edge55" class="edge"><title>Node29&#45;&gt;Node8</title>
<path fill="none" stroke="midnightblue" d="M419.06,-224.446C424.519,-203.26 441.093,-147.506 472,-112 483.633,-98.6362 500.2,-87.827 514.406,-80.155"/>
<polygon fill="midnightblue" stroke="midnightblue" points="516.03,-83.2554 523.324,-75.5711 512.83,-77.0296 516.03,-83.2554"/>
</g>
</g>
</svg>
