<?xml version="1.0" encoding="UTF-8" standalone="no"?>
<!DOCTYPE svg PUBLIC "-//W3C//DTD SVG 1.1//EN"
 "http://www.w3.org/Graphics/SVG/1.1/DTD/svg11.dtd">
<!-- Generated by graphviz version 2.26.3 (20100126.1600)
 -->
<!-- Title: G Pages: 1 -->
<svg width="410pt" height="262pt"
 viewBox="0.00 0.00 410.00 262.00" xmlns="http://www.w3.org/2000/svg" xmlns:xlink="http://www.w3.org/1999/xlink">
<g id="graph1" class="graph" transform="scale(1 1) rotate(0) translate(4 258)">
<title>G</title>
<!-- Node1 -->
<g id="node1" class="node"><title>Node1</title>
<polygon fill="#bfbfbf" stroke="black" points="93,-232.5 93,-253.5 357,-253.5 357,-232.5 93,-232.5"/>
<text text-anchor="middle" x="225" y="-240.5" font-family="Helvetica,sans-Serif" font-size="10.00">src/ports/WIN32/sample_application/sampleapplication.c</text>
</g>
<!-- Node2 -->
<g id="node3" class="node"><title>Node2</title>
<a xlink:href="../../d4/d38/opener__api_8h.html" target="_top" xlink:title="opener_api.h">
<polygon fill="none" stroke="black" points="111,-174.5 111,-195.5 183,-195.5 183,-174.5 111,-174.5"/>
<text text-anchor="middle" x="147" y="-182.5" font-family="Helvetica,sans-Serif" font-size="10.00">opener_api.h</text>
</a>
</g>
<!-- Node1&#45;&gt;Node2 -->
<g id="edge2" class="edge"><title>Node1&#45;&gt;Node2</title>
<path fill="none" stroke="midnightblue" d="M210.694,-232.362C199.149,-223.777 182.7,-211.546 169.41,-201.664"/>
<polygon fill="midnightblue" stroke="midnightblue" points="171.329,-198.729 161.216,-195.571 167.152,-204.346 171.329,-198.729"/>
</g>
<!-- Node12 -->
<g id="node25" class="node"><title>Node12</title>
<polygon fill="none" stroke="#bfbfbf" points="200.5,-174.5 200.5,-195.5 249.5,-195.5 249.5,-174.5 200.5,-174.5"/>
<text text-anchor="middle" x="225" y="-182.5" font-family="Helvetica,sans-Serif" font-size="10.00">string.h</text>
</g>
<!-- Node1&#45;&gt;Node12 -->
<g id="edge26" class="edge"><title>Node1&#45;&gt;Node12</title>
<path fill="none" stroke="midnightblue" d="M225,-232.362C225,-224.922 225,-214.743 225,-205.728"/>
<polygon fill="midnightblue" stroke="midnightblue" points="228.5,-205.571 225,-195.571 221.5,-205.571 228.5,-205.571"/>
</g>
<!-- Node13 -->
<g id="node27" class="node"><title>Node13</title>
<polygon fill="none" stroke="#bfbfbf" points="267,-174.5 267,-195.5 315,-195.5 315,-174.5 267,-174.5"/>
<text text-anchor="middle" x="291" y="-182.5" font-family="Helvetica,sans-Serif" font-size="10.00">stdlib.h</text>
</g>
<!-- Node1&#45;&gt;Node13 -->
<g id="edge28" class="edge"><title>Node1&#45;&gt;Node13</title>
<path fill="none" stroke="midnightblue" d="M237.105,-232.362C246.688,-223.941 260.264,-212.011 271.393,-202.231"/>
<polygon fill="midnightblue" stroke="midnightblue" points="273.77,-204.801 278.971,-195.571 269.149,-199.543 273.77,-204.801"/>
</g>
<!-- Node3 -->
<g id="node5" class="node"><title>Node3</title>
<polygon fill="none" stroke="#bfbfbf" points="0,-116.5 0,-137.5 52,-137.5 52,-116.5 0,-116.5"/>
<text text-anchor="middle" x="26" y="-124.5" font-family="Helvetica,sans-Serif" font-size="10.00">assert.h</text>
</g>
<!-- Node2&#45;&gt;Node3 -->
<g id="edge4" class="edge"><title>Node2&#45;&gt;Node3</title>
<path fill="none" stroke="midnightblue" d="M125.088,-174.497C106.189,-165.438 78.6688,-152.246 57.424,-142.063"/>
<polygon fill="midnightblue" stroke="midnightblue" points="58.6885,-138.788 48.1581,-137.621 55.6627,-145.1 58.6885,-138.788"/>
</g>
<!-- Node4 -->
<g id="node7" class="node"><title>Node4</title>
<polygon fill="none" stroke="#bfbfbf" points="48,-0.5 48,-21.5 104,-21.5 104,-0.5 48,-0.5"/>
<text text-anchor="middle" x="76" y="-8.5" font-family="Helvetica,sans-Serif" font-size="10.00">stdbool.h</text>
</g>
<!-- Node2&#45;&gt;Node4 -->
<g id="edge6" class="edge"><title>Node2&#45;&gt;Node4</title>
<path fill="none" stroke="midnightblue" d="M142.666,-174.377C131.107,-146.051 99.401,-68.3488 84.2598,-31.2424"/>
<polygon fill="midnightblue" stroke="midnightblue" points="87.4777,-29.8642 80.459,-21.9277 80.9965,-32.5089 87.4777,-29.8642"/>
</g>
<!-- Node5 -->
<g id="node9" class="node"><title>Node5</title>
<a xlink:href="../../d7/d69/typedefs_8h.html" target="_top" xlink:title="typedefs.h">
<polygon fill="none" stroke="black" points="116,-58.5 116,-79.5 178,-79.5 178,-58.5 116,-58.5"/>
<text text-anchor="middle" x="147" y="-66.5" font-family="Helvetica,sans-Serif" font-size="10.00">typedefs.h</text>
</a>
</g>
<!-- Node2&#45;&gt;Node5 -->
<g id="edge8" class="edge"><title>Node2&#45;&gt;Node5</title>
<path fill="none" stroke="midnightblue" d="M144.047,-174.276C141.603,-164.816 138.327,-150.611 137,-138 135.977,-128.276 135.977,-125.724 137,-116 137.922,-107.232 139.788,-97.6925 141.66,-89.5135"/>
<polygon fill="midnightblue" stroke="midnightblue" points="145.078,-90.2687 144.047,-79.7243 138.277,-88.6106 145.078,-90.2687"/>
</g>
<!-- Node8 -->
<g id="node16" class="node"><title>Node8</title>
<a xlink:href="../../df/d28/ciptypes_8h.html" target="_top" xlink:title="ciptypes.h">
<polygon fill="none" stroke="black" points="146,-116.5 146,-137.5 208,-137.5 208,-116.5 146,-116.5"/>
<text text-anchor="middle" x="177" y="-124.5" font-family="Helvetica,sans-Serif" font-size="10.00">ciptypes.h</text>
</a>
</g>
<!-- Node2&#45;&gt;Node8 -->
<g id="edge16" class="edge"><title>Node2&#45;&gt;Node8</title>
<path fill="none" stroke="midnightblue" d="M152.502,-174.362C156.52,-166.595 162.081,-155.843 166.89,-146.546"/>
<polygon fill="midnightblue" stroke="midnightblue" points="170.047,-148.061 171.532,-137.571 163.829,-144.845 170.047,-148.061"/>
</g>
<!-- Node10 -->
<g id="node21" class="node"><title>Node10</title>
<a xlink:href="../../d6/d52/ciperror_8h.html" target="_top" xlink:title="ciperror.h">
<polygon fill="none" stroke="black" points="225.5,-116.5 225.5,-137.5 282.5,-137.5 282.5,-116.5 225.5,-116.5"/>
<text text-anchor="middle" x="254" y="-124.5" font-family="Helvetica,sans-Serif" font-size="10.00">ciperror.h</text>
</a>
</g>
<!-- Node2&#45;&gt;Node10 -->
<g id="edge22" class="edge"><title>Node2&#45;&gt;Node10</title>
<path fill="none" stroke="midnightblue" d="M166.625,-174.362C183.141,-165.409 206.974,-152.491 225.578,-142.406"/>
<polygon fill="midnightblue" stroke="midnightblue" points="227.375,-145.413 234.499,-137.571 224.04,-139.259 227.375,-145.413"/>
</g>
<!-- Node11 -->
<g id="node23" class="node"><title>Node11</title>
<polygon fill="none" stroke="#bfbfbf" points="300,-116.5 300,-137.5 402,-137.5 402,-116.5 300,-116.5"/>
<text text-anchor="middle" x="351" y="-124.5" font-family="Helvetica,sans-Serif" font-size="10.00">opener_user_conf.h</text>
</g>
<!-- Node2&#45;&gt;Node11 -->
<g id="edge24" class="edge"><title>Node2&#45;&gt;Node11</title>
<path fill="none" stroke="midnightblue" d="M183.002,-174.764C216.668,-165.192 267.145,-150.841 303.979,-140.369"/>
<polygon fill="midnightblue" stroke="midnightblue" points="305.32,-143.626 313.981,-137.525 303.405,-136.893 305.32,-143.626"/>
</g>
<!-- Node5&#45;&gt;Node4 -->
<g id="edge14" class="edge"><title>Node5&#45;&gt;Node4</title>
<path fill="none" stroke="midnightblue" d="M133.978,-58.3619C123.569,-49.859 108.781,-37.7785 96.7449,-27.9466"/>
<polygon fill="midnightblue" stroke="midnightblue" points="98.8987,-25.1866 88.9399,-21.5707 94.4701,-30.6077 98.8987,-25.1866"/>
</g>
<!-- Node6 -->
<g id="node11" class="node"><title>Node6</title>
<polygon fill="none" stroke="#bfbfbf" points="121.5,-0.5 121.5,-21.5 180.5,-21.5 180.5,-0.5 121.5,-0.5"/>
<text text-anchor="middle" x="151" y="-8.5" font-family="Helvetica,sans-Serif" font-size="10.00">inttypes.h</text>
</g>
<!-- Node5&#45;&gt;Node6 -->
<g id="edge10" class="edge"><title>Node5&#45;&gt;Node6</title>
<path fill="none" stroke="midnightblue" d="M147.734,-58.3619C148.247,-50.9219 148.949,-40.7427 149.571,-31.7276"/>
<polygon fill="midnightblue" stroke="midnightblue" points="153.075,-31.7878 150.271,-21.5707 146.091,-31.3061 153.075,-31.7878"/>
</g>
<!-- Node7 -->
<g id="node13" class="node"><title>Node7</title>
<polygon fill="none" stroke="#bfbfbf" points="198,-0.5 198,-21.5 250,-21.5 250,-0.5 198,-0.5"/>
<text text-anchor="middle" x="224" y="-8.5" font-family="Helvetica,sans-Serif" font-size="10.00">stddef.h</text>
</g>
<!-- Node5&#45;&gt;Node7 -->
<g id="edge12" class="edge"><title>Node5&#45;&gt;Node7</title>
<path fill="none" stroke="midnightblue" d="M161.123,-58.3619C172.52,-49.7773 188.758,-37.5459 201.878,-27.6636"/>
<polygon fill="midnightblue" stroke="midnightblue" points="204.085,-30.3829 209.967,-21.5707 199.873,-24.7916 204.085,-30.3829"/>
</g>
<!-- Node8&#45;&gt;Node5 -->
<g id="edge18" class="edge"><title>Node8&#45;&gt;Node5</title>
<path fill="none" stroke="midnightblue" d="M171.498,-116.362C167.48,-108.595 161.919,-97.8426 157.11,-88.5458"/>
<polygon fill="midnightblue" stroke="midnightblue" points="160.171,-86.8448 152.468,-79.5707 153.953,-90.0608 160.171,-86.8448"/>
</g>
<!-- Node9 -->
<g id="node19" class="node"><title>Node9</title>
<polygon fill="none" stroke="#bfbfbf" points="195.5,-58.5 195.5,-79.5 286.5,-79.5 286.5,-58.5 195.5,-58.5"/>
<text text-anchor="middle" x="241" y="-66.5" font-family="Helvetica,sans-Serif" font-size="10.00">networkhandler.h</text>
</g>
<!-- Node8&#45;&gt;Node9 -->
<g id="edge20" class="edge"><title>Node8&#45;&gt;Node9</title>
<path fill="none" stroke="midnightblue" d="M188.739,-116.362C197.941,-108.023 210.94,-96.2418 221.672,-86.5162"/>
<polygon fill="midnightblue" stroke="midnightblue" points="224.276,-88.8793 229.336,-79.5707 219.576,-83.6924 224.276,-88.8793"/>
</g>
</g>
</svg>
