<?xml version="1.0" encoding="UTF-8" standalone="no"?>
<!DOCTYPE svg PUBLIC "-//W3C//DTD SVG 1.1//EN"
 "http://www.w3.org/Graphics/SVG/1.1/DTD/svg11.dtd">
<!-- Generated by graphviz version 2.36.0 (20140111.2315)
 -->
<!-- Title: src/ports/WIN32/sample_application/sampleapplication.c Pages: 1 -->
<svg width="412pt" height="264pt"
 viewBox="0.00 0.00 412.00 264.00" xmlns="http://www.w3.org/2000/svg" xmlns:xlink="http://www.w3.org/1999/xlink">
<g id="graph0" class="graph" transform="scale(1 1) rotate(0) translate(4 260)">
<title>src/ports/WIN32/sample_application/sampleapplication.c</title>
<!-- Node1 -->
<g id="node1" class="node"><title>Node1</title>
<polygon fill="#bfbfbf" stroke="black" points="147,-225 147,-255 305,-255 305,-225 147,-225"/>
<text text-anchor="start" x="155" y="-243" font-family="Helvetica,sans-Serif" font-size="10.00">src/ports/WIN32/sample</text>
<text text-anchor="middle" x="226" y="-232" font-family="Helvetica,sans-Serif" font-size="10.00">_application/sampleapplication.c</text>
</g>
<!-- Node2 -->
<g id="node2" class="node"><title>Node2</title>
<g id="a_node2"><a xlink:href="../../d4/d38/opener__api_8h.html" target="_top" xlink:title="opener_api.h">
<polygon fill="none" stroke="black" points="111,-168.5 111,-187.5 183,-187.5 183,-168.5 111,-168.5"/>
<text text-anchor="middle" x="147" y="-175.5" font-family="Helvetica,sans-Serif" font-size="10.00">opener_api.h</text>
</a>
</g>
</g>
<!-- Node1&#45;&gt;Node2 -->
<g id="edge1" class="edge"><title>Node1&#45;&gt;Node2</title>
<path fill="none" stroke="midnightblue" d="M207.278,-224.781C195.088,-215.523 179.208,-203.462 166.807,-194.044"/>
<polygon fill="midnightblue" stroke="midnightblue" points="168.576,-190.992 158.495,-187.731 164.342,-196.566 168.576,-190.992"/>
</g>
<!-- Node12 -->
<g id="node12" class="node"><title>Node12</title>
<polygon fill="none" stroke="#bfbfbf" points="201.5,-168.5 201.5,-187.5 250.5,-187.5 250.5,-168.5 201.5,-168.5"/>
<text text-anchor="middle" x="226" y="-175.5" font-family="Helvetica,sans-Serif" font-size="10.00">string.h</text>
</g>
<!-- Node1&#45;&gt;Node12 -->
<g id="edge13" class="edge"><title>Node1&#45;&gt;Node12</title>
<path fill="none" stroke="midnightblue" d="M226,-224.781C226,-216.781 226,-206.689 226,-198.017"/>
<polygon fill="midnightblue" stroke="midnightblue" points="229.5,-197.73 226,-187.731 222.5,-197.731 229.5,-197.73"/>
</g>
<!-- Node13 -->
<g id="node13" class="node"><title>Node13</title>
<polygon fill="none" stroke="#bfbfbf" points="269,-168.5 269,-187.5 317,-187.5 317,-168.5 269,-168.5"/>
<text text-anchor="middle" x="293" y="-175.5" font-family="Helvetica,sans-Serif" font-size="10.00">stdlib.h</text>
</g>
<!-- Node1&#45;&gt;Node13 -->
<g id="edge14" class="edge"><title>Node1&#45;&gt;Node13</title>
<path fill="none" stroke="midnightblue" d="M241.878,-224.781C252.015,-215.703 265.162,-203.929 275.585,-194.595"/>
<polygon fill="midnightblue" stroke="midnightblue" points="278.136,-197.009 283.251,-187.731 273.466,-191.794 278.136,-197.009"/>
</g>
<!-- Node3 -->
<g id="node3" class="node"><title>Node3</title>
<polygon fill="none" stroke="#bfbfbf" points="0,-112.5 0,-131.5 52,-131.5 52,-112.5 0,-112.5"/>
<text text-anchor="middle" x="26" y="-119.5" font-family="Helvetica,sans-Serif" font-size="10.00">assert.h</text>
</g>
<!-- Node2&#45;&gt;Node3 -->
<g id="edge2" class="edge"><title>Node2&#45;&gt;Node3</title>
<path fill="none" stroke="midnightblue" d="M127.827,-168.444C108.091,-159.636 77.1148,-145.812 54.5066,-135.722"/>
<polygon fill="midnightblue" stroke="midnightblue" points="55.6414,-132.396 45.0831,-131.516 52.7886,-138.788 55.6414,-132.396"/>
</g>
<!-- Node4 -->
<g id="node4" class="node"><title>Node4</title>
<polygon fill="none" stroke="#bfbfbf" points="48,-0.5 48,-19.5 104,-19.5 104,-0.5 48,-0.5"/>
<text text-anchor="middle" x="76" y="-7.5" font-family="Helvetica,sans-Serif" font-size="10.00">stdbool.h</text>
</g>
<!-- Node2&#45;&gt;Node4 -->
<g id="edge3" class="edge"><title>Node2&#45;&gt;Node4</title>
<path fill="none" stroke="midnightblue" d="M143.183,-168.075C131.958,-141.832 98.9019,-64.5453 83.7486,-29.1165"/>
<polygon fill="midnightblue" stroke="midnightblue" points="86.8153,-27.386 79.6647,-19.5681 80.3792,-30.1388 86.8153,-27.386"/>
</g>
<!-- Node5 -->
<g id="node5" class="node"><title>Node5</title>
<g id="a_node5"><a xlink:href="../../d7/d69/typedefs_8h.html" target="_top" xlink:title="typedefs.h">
<polygon fill="none" stroke="black" points="116,-56.5 116,-75.5 178,-75.5 178,-56.5 116,-56.5"/>
<text text-anchor="middle" x="147" y="-63.5" font-family="Helvetica,sans-Serif" font-size="10.00">typedefs.h</text>
</a>
</g>
</g>
<!-- Node2&#45;&gt;Node5 -->
<g id="edge4" class="edge"><title>Node2&#45;&gt;Node5</title>
<path fill="none" stroke="midnightblue" d="M144.163,-168.201C140.483,-155.735 134.782,-132.202 137,-112 137.973,-103.14 139.992,-93.4716 141.963,-85.3755"/>
<polygon fill="midnightblue" stroke="midnightblue" points="145.393,-86.0919 144.518,-75.5332 138.617,-84.333 145.393,-86.0919"/>
</g>
<!-- Node8 -->
<g id="node8" class="node"><title>Node8</title>
<g id="a_node8"><a xlink:href="../../df/d28/ciptypes_8h.html" target="_top" xlink:title="ciptypes.h">
<polygon fill="none" stroke="black" points="146,-112.5 146,-131.5 208,-131.5 208,-112.5 146,-112.5"/>
<text text-anchor="middle" x="177" y="-119.5" font-family="Helvetica,sans-Serif" font-size="10.00">ciptypes.h</text>
</a>
</g>
</g>
<!-- Node2&#45;&gt;Node8 -->
<g id="edge8" class="edge"><title>Node2&#45;&gt;Node8</title>
<path fill="none" stroke="midnightblue" d="M151.954,-168.083C156.104,-160.613 162.153,-149.724 167.267,-140.52"/>
<polygon fill="midnightblue" stroke="midnightblue" points="170.341,-142.192 172.138,-131.751 164.222,-138.793 170.341,-142.192"/>
</g>
<!-- Node10 -->
<g id="node10" class="node"><title>Node10</title>
<g id="a_node10"><a xlink:href="../../d6/d52/ciperror_8h.html" target="_top" xlink:title="ciperror.h">
<polygon fill="none" stroke="black" points="226.5,-112.5 226.5,-131.5 283.5,-131.5 283.5,-112.5 226.5,-112.5"/>
<text text-anchor="middle" x="255" y="-119.5" font-family="Helvetica,sans-Serif" font-size="10.00">ciperror.h</text>
</a>
</g>
</g>
<!-- Node2&#45;&gt;Node10 -->
<g id="edge11" class="edge"><title>Node2&#45;&gt;Node10</title>
<path fill="none" stroke="midnightblue" d="M164.352,-168.324C181.672,-159.664 208.515,-146.242 228.502,-136.249"/>
<polygon fill="midnightblue" stroke="midnightblue" points="230.312,-139.257 237.691,-131.655 227.181,-132.996 230.312,-139.257"/>
</g>
<!-- Node11 -->
<g id="node11" class="node"><title>Node11</title>
<polygon fill="none" stroke="#bfbfbf" points="302,-112.5 302,-131.5 404,-131.5 404,-112.5 302,-112.5"/>
<text text-anchor="middle" x="353" y="-119.5" font-family="Helvetica,sans-Serif" font-size="10.00">opener_user_conf.h</text>
</g>
<!-- Node2&#45;&gt;Node11 -->
<g id="edge12" class="edge"><title>Node2&#45;&gt;Node11</title>
<path fill="none" stroke="midnightblue" d="M179.641,-168.444C215.05,-159.162 271.709,-144.309 310.553,-134.127"/>
<polygon fill="midnightblue" stroke="midnightblue" points="311.726,-137.438 320.511,-131.516 309.951,-130.667 311.726,-137.438"/>
</g>
<!-- Node5&#45;&gt;Node4 -->
<g id="edge7" class="edge"><title>Node5&#45;&gt;Node4</title>
<path fill="none" stroke="midnightblue" d="M135.593,-56.324C124.891,-48.1849 108.659,-35.8395 95.8372,-26.0874"/>
<polygon fill="midnightblue" stroke="midnightblue" points="97.6932,-23.1018 87.6149,-19.8339 93.4556,-28.6734 97.6932,-23.1018"/>
</g>
<!-- Node6 -->
<g id="node6" class="node"><title>Node6</title>
<polygon fill="none" stroke="#bfbfbf" points="122.5,-0.5 122.5,-19.5 181.5,-19.5 181.5,-0.5 122.5,-0.5"/>
<text text-anchor="middle" x="152" y="-7.5" font-family="Helvetica,sans-Serif" font-size="10.00">inttypes.h</text>
</g>
<!-- Node5&#45;&gt;Node6 -->
<g id="edge5" class="edge"><title>Node5&#45;&gt;Node6</title>
<path fill="none" stroke="midnightblue" d="M147.826,-56.083C148.481,-49.0059 149.42,-38.8611 150.242,-29.9865"/>
<polygon fill="midnightblue" stroke="midnightblue" points="153.753,-30.0312 151.19,-19.7511 146.783,-29.3858 153.753,-30.0312"/>
</g>
<!-- Node7 -->
<g id="node7" class="node"><title>Node7</title>
<polygon fill="none" stroke="#bfbfbf" points="200,-0.5 200,-19.5 252,-19.5 252,-0.5 200,-0.5"/>
<text text-anchor="middle" x="226" y="-7.5" font-family="Helvetica,sans-Serif" font-size="10.00">stddef.h</text>
</g>
<!-- Node5&#45;&gt;Node7 -->
<g id="edge6" class="edge"><title>Node5&#45;&gt;Node7</title>
<path fill="none" stroke="midnightblue" d="M159.693,-56.324C171.901,-47.979 190.578,-35.2122 205.003,-25.3524"/>
<polygon fill="midnightblue" stroke="midnightblue" points="207.058,-28.1871 213.339,-19.6545 203.108,-22.4082 207.058,-28.1871"/>
</g>
<!-- Node8&#45;&gt;Node5 -->
<g id="edge9" class="edge"><title>Node8&#45;&gt;Node5</title>
<path fill="none" stroke="midnightblue" d="M172.046,-112.083C167.896,-104.613 161.847,-93.7244 156.733,-84.5199"/>
<polygon fill="midnightblue" stroke="midnightblue" points="159.778,-82.7929 151.862,-75.7511 153.659,-86.1924 159.778,-82.7929"/>
</g>
<!-- Node9 -->
<g id="node9" class="node"><title>Node9</title>
<polygon fill="none" stroke="#bfbfbf" points="196.5,-56.5 196.5,-75.5 287.5,-75.5 287.5,-56.5 196.5,-56.5"/>
<text text-anchor="middle" x="242" y="-63.5" font-family="Helvetica,sans-Serif" font-size="10.00">networkhandler.h</text>
</g>
<!-- Node8&#45;&gt;Node9 -->
<g id="edge10" class="edge"><title>Node8&#45;&gt;Node9</title>
<path fill="none" stroke="midnightblue" d="M187.443,-112.324C197.146,-104.263 211.815,-92.0765 223.5,-82.3695"/>
<polygon fill="midnightblue" stroke="midnightblue" points="225.911,-84.9163 231.367,-75.8339 221.438,-79.532 225.911,-84.9163"/>
</g>
</g>
</svg>
