<?xml version="1.0" encoding="UTF-8" standalone="no"?>
<!DOCTYPE svg PUBLIC "-//W3C//DTD SVG 1.1//EN"
 "http://www.w3.org/Graphics/SVG/1.1/DTD/svg11.dtd">
<!-- Generated by graphviz version 2.38.0 (20140413.2041)
 -->
<!-- Title: CIP_MR_Object Pages: 1 -->
<svg width="482pt" height="173pt"
 viewBox="0.00 0.00 482.00 173.00" xmlns="http://www.w3.org/2000/svg" xmlns:xlink="http://www.w3.org/1999/xlink">
<g id="graph0" class="graph" transform="scale(1 1) rotate(0) translate(4 169)">
<title>CIP_MR_Object</title>
<!-- Node1 -->
<g id="node1" class="node"><title>Node1</title>
<polygon fill="#bfbfbf" stroke="black" points="345,-67.5 345,-86.5 434,-86.5 434,-67.5 345,-67.5"/>
<text text-anchor="middle" x="389.5" y="-74.5" font-family="Helvetica,sans-Serif" font-size="10.00">CIP_MR_Object</text>
</g>
<!-- Node1&#45;&gt;Node1 -->
<g id="edge8" class="edge"><title>Node1&#45;&gt;Node1</title>
<path fill="none" stroke="#9a32cd" stroke-dasharray="5,2" d="M444.326,-81.6871C449.049,-80.6913 452,-79.1289 452,-77 452,-73.5938 444.446,-71.6378 434.163,-71.1322"/>
<polygon fill="#9a32cd" stroke="#9a32cd" points="443.692,-78.2371 434.163,-82.8678 444.5,-85.1903 443.692,-78.2371"/>
<text text-anchor="middle" x="463" y="-74.5" font-family="Helvetica,sans-Serif" font-size="10.00"> next</text>
</g>
<!-- Node2 -->
<g id="node2" class="node"><title>Node2</title>
<g id="a_node2"><a xlink:href="../../d5/de9/structCIP__Class.html" target="_top" xlink:title="Class is a subclass of Instance. ">
<polygon fill="none" stroke="black" points="201,-145.5 201,-164.5 266,-164.5 266,-145.5 201,-145.5"/>
<text text-anchor="middle" x="233.5" y="-152.5" font-family="Helvetica,sans-Serif" font-size="10.00">CIP_Class</text>
</a>
</g>
</g>
<!-- Node2&#45;&gt;Node1 -->
<g id="edge1" class="edge"><title>Node2&#45;&gt;Node1</title>
<path fill="none" stroke="#9a32cd" stroke-dasharray="5,2" d="M260.276,-140.955C292.147,-125.428 344.473,-99.9362 371.733,-86.6557"/>
<polygon fill="#9a32cd" stroke="#9a32cd" points="258.549,-137.903 251.092,-145.43 261.615,-144.196 258.549,-137.903"/>
<text text-anchor="middle" x="351" y="-113.5" font-family="Helvetica,sans-Serif" font-size="10.00"> pt2Class</text>
</g>
<!-- Node3 -->
<g id="node3" class="node"><title>Node3</title>
<g id="a_node3"><a xlink:href="../../db/db2/structCIP__Instance.html" target="_top" xlink:title="CIP_Instance">
<polygon fill="none" stroke="black" points="97,-67.5 97,-86.5 174,-86.5 174,-67.5 97,-67.5"/>
<text text-anchor="middle" x="135.5" y="-74.5" font-family="Helvetica,sans-Serif" font-size="10.00">CIP_Instance</text>
</a>
</g>
</g>
<!-- Node2&#45;&gt;Node3 -->
<g id="edge4" class="edge"><title>Node2&#45;&gt;Node3</title>
<path fill="none" stroke="#9a32cd" stroke-dasharray="5,2" d="M190.911,-148.522C165.016,-144.219 135.448,-137.226 127.5,-127 118.402,-115.294 125.141,-97.1986 130.543,-86.5838"/>
<polygon fill="#9a32cd" stroke="#9a32cd" points="190.549,-152.008 200.969,-150.095 191.63,-145.092 190.549,-152.008"/>
<text text-anchor="middle" x="149" y="-113.5" font-family="Helvetica,sans-Serif" font-size="10.00"> pstClass</text>
</g>
<!-- Node3&#45;&gt;Node2 -->
<g id="edge2" class="edge"><title>Node3&#45;&gt;Node2</title>
<path fill="none" stroke="#9a32cd" stroke-dasharray="5,2" d="M157.4,-92.2645C163.099,-96.2167 169.14,-100.627 174.5,-105 185.46,-113.943 186.711,-117.851 197.5,-127 205.127,-133.468 214.127,-140.218 221.22,-145.351"/>
<polygon fill="#9a32cd" stroke="#9a32cd" points="159.12,-89.2022 148.874,-86.5022 155.2,-95.0018 159.12,-89.2022"/>
<text text-anchor="middle" x="227.5" y="-119" font-family="Helvetica,sans-Serif" font-size="10.00"> pstInstances</text>
<text text-anchor="middle" x="227.5" y="-108" font-family="Helvetica,sans-Serif" font-size="10.00">m_stSuper</text>
</g>
<!-- Node3&#45;&gt;Node3 -->
<g id="edge3" class="edge"><title>Node3&#45;&gt;Node3</title>
<path fill="none" stroke="#9a32cd" stroke-dasharray="5,2" d="M184.22,-81.872C188.979,-80.8896 192,-79.2656 192,-77 192,-73.375 184.266,-71.3926 174.055,-71.0527"/>
<polygon fill="#9a32cd" stroke="#9a32cd" points="183.631,-78.4146 174.055,-82.9473 184.368,-85.3758 183.631,-78.4146"/>
<text text-anchor="middle" x="211" y="-74.5" font-family="Helvetica,sans-Serif" font-size="10.00"> pstNext</text>
</g>
<!-- Node5 -->
<g id="node5" class="node"><title>Node5</title>
<g id="a_node5"><a xlink:href="../../df/dcd/structCIP__service__struct.html" target="_top" xlink:title="service descriptor. These are stored in an array ">
<polygon fill="none" stroke="black" points="164,-0.5 164,-19.5 265,-19.5 265,-0.5 164,-0.5"/>
<text text-anchor="middle" x="214.5" y="-7.5" font-family="Helvetica,sans-Serif" font-size="10.00">CIP_service_struct</text>
</a>
</g>
</g>
<!-- Node3&#45;&gt;Node5 -->
<g id="edge7" class="edge"><title>Node3&#45;&gt;Node5</title>
<path fill="none" stroke="#9a32cd" stroke-dasharray="5,2" d="M153.288,-60.7672C161.52,-53.7727 171.458,-45.4051 180.5,-38 188.081,-31.7914 196.73,-24.9258 203.408,-19.6715"/>
<polygon fill="#9a32cd" stroke="#9a32cd" points="150.776,-58.3099 145.437,-67.4613 155.317,-63.6367 150.776,-58.3099"/>
<text text-anchor="middle" x="219" y="-41" font-family="Helvetica,sans-Serif" font-size="10.00"> m_ptfuncService</text>
</g>
<!-- Node4 -->
<g id="node4" class="node"><title>Node4</title>
<g id="a_node4"><a xlink:href="../../d9/d11/structCIPAttributeStruct.html" target="_top" xlink:title="CIPAttributeStruct">
<polygon fill="none" stroke="black" points="0,-145.5 0,-164.5 97,-164.5 97,-145.5 0,-145.5"/>
<text text-anchor="middle" x="48.5" y="-152.5" font-family="Helvetica,sans-Serif" font-size="10.00">CIPAttributeStruct</text>
</a>
</g>
</g>
<!-- Node4&#45;&gt;Node3 -->
<g id="edge5" class="edge"><title>Node4&#45;&gt;Node3</title>
<path fill="none" stroke="#9a32cd" stroke-dasharray="5,2" d="M44.0035,-135.316C42.7307,-125.385 43.1201,-113.507 49.5,-105 60.4856,-90.3524 79.3931,-83.4539 96.6868,-80.2809"/>
<polygon fill="#9a32cd" stroke="#9a32cd" points="40.6168,-136.243 45.9161,-145.417 47.4946,-134.94 40.6168,-136.243"/>
<text text-anchor="middle" x="79" y="-113.5" font-family="Helvetica,sans-Serif" font-size="10.00"> pstAttributes</text>
</g>
<!-- Node5&#45;&gt;Node2 -->
<g id="edge6" class="edge"><title>Node5&#45;&gt;Node2</title>
<path fill="none" stroke="#9a32cd" stroke-dasharray="5,2" d="M245.338,-24.8245C250.218,-28.4023 254.604,-32.7615 257.5,-38 276.639,-72.617 271.557,-90.0266 257.5,-127 254.781,-134.152 249.203,-140.619 244.108,-145.43"/>
<polygon fill="#9a32cd" stroke="#9a32cd" points="247.17,-21.8423 236.832,-19.5239 243.468,-27.7832 247.17,-21.8423"/>
<text text-anchor="middle" x="298" y="-74.5" font-family="Helvetica,sans-Serif" font-size="10.00"> pstServices</text>
</g>
</g>
</svg>
