<?xml version="1.0" encoding="UTF-8" standalone="no"?>
<!DOCTYPE svg PUBLIC "-//W3C//DTD SVG 1.1//EN"
 "http://www.w3.org/Graphics/SVG/1.1/DTD/svg11.dtd">
<!-- Generated by graphviz version 2.38.0 (20140413.2041)
 -->
<!-- Title: addNewActiveConnection Pages: 1 -->
<svg width="637pt" height="66pt"
 viewBox="0.00 0.00 637.00 66.00" xmlns="http://www.w3.org/2000/svg" xmlns:xlink="http://www.w3.org/1999/xlink">
<g id="graph0" class="graph" transform="scale(1 1) rotate(0) translate(4 62)">
<title>addNewActiveConnection</title>
<!-- Node1 -->
<g id="node1" class="node"><title>Node1</title>
<polygon fill="#bfbfbf" stroke="black" points="0,-19.5 0,-38.5 130,-38.5 130,-19.5 0,-19.5"/>
<text text-anchor="middle" x="65" y="-26.5" font-family="Helvetica,sans-Serif" font-size="10.00">addNewActiveConnection</text>
</g>
<!-- Node2 -->
<g id="node2" class="node"><title>Node2</title>
<g id="a_node2"><a xlink:href="../../d2/d11/cipclass3connection_8h.html#a459e8982744d10e7c6cc3f2da6fb8acb" target="_top" xlink:title="Check if Class3 connection is available and if yes setup all data. ">
<polygon fill="none" stroke="black" points="166,-38.5 166,-57.5 302,-57.5 302,-38.5 166,-38.5"/>
<text text-anchor="middle" x="234" y="-45.5" font-family="Helvetica,sans-Serif" font-size="10.00">establishClass3Connection</text>
</a>
</g>
</g>
<!-- Node1&#45;&gt;Node2 -->
<g id="edge1" class="edge"><title>Node1&#45;&gt;Node2</title>
<path fill="none" stroke="midnightblue" d="M140.051,-37.4249C148.608,-38.3985 157.299,-39.3873 165.759,-40.3498"/>
<polygon fill="midnightblue" stroke="midnightblue" points="140.421,-33.9445 130.089,-36.2916 139.629,-40.8996 140.421,-33.9445"/>
</g>
<!-- Node6 -->
<g id="node6" class="node"><title>Node6</title>
<g id="a_node6"><a xlink:href="../../de/d45/cipioconnection_8h.html#ae83037a608b08d325fc34869395f37a3" target="_top" xlink:title="Setup all data in order to establish an IO connection. ">
<polygon fill="none" stroke="black" points="179,-0.5 179,-19.5 289,-19.5 289,-0.5 179,-0.5"/>
<text text-anchor="middle" x="234" y="-7.5" font-family="Helvetica,sans-Serif" font-size="10.00">establishIOConnction</text>
</a>
</g>
</g>
<!-- Node1&#45;&gt;Node6 -->
<g id="edge5" class="edge"><title>Node1&#45;&gt;Node6</title>
<path fill="none" stroke="midnightblue" d="M140.387,-20.5368C153.337,-19.0634 166.583,-17.5564 178.859,-16.1597"/>
<polygon fill="midnightblue" stroke="midnightblue" points="139.629,-17.1004 130.089,-21.7084 140.421,-24.0555 139.629,-17.1004"/>
</g>
<!-- Node3 -->
<g id="node3" class="node"><title>Node3</title>
<g id="a_node3"><a xlink:href="../../d2/da3/cipconnectionmanager_8h.html#abbdafd9e83df08856ba6de13890cf40f" target="_top" xlink:title="Connection_Manager_Init">
<polygon fill="none" stroke="black" points="338,-19.5 338,-38.5 466,-38.5 466,-19.5 338,-19.5"/>
<text text-anchor="middle" x="402" y="-26.5" font-family="Helvetica,sans-Serif" font-size="10.00">Connection_Manager_Init</text>
</a>
</g>
</g>
<!-- Node2&#45;&gt;Node3 -->
<g id="edge2" class="edge"><title>Node2&#45;&gt;Node3</title>
<path fill="none" stroke="midnightblue" d="M312.07,-39.1788C320.666,-38.1949 329.347,-37.2013 337.742,-36.2404"/>
<polygon fill="midnightblue" stroke="midnightblue" points="311.577,-35.7122 302.04,-40.3267 312.373,-42.6668 311.577,-35.7122"/>
</g>
<!-- Node4 -->
<g id="node4" class="node"><title>Node4</title>
<g id="a_node4"><a xlink:href="../../d2/dc9/group__CIP__API.html#ga8fe857c3e88bf986fda82fbac6702c9f" target="_top" xlink:title="Initialize and setup the CIP&#45;stack. ">
<polygon fill="none" stroke="black" points="502,-19.5 502,-38.5 555,-38.5 555,-19.5 502,-19.5"/>
<text text-anchor="middle" x="528.5" y="-26.5" font-family="Helvetica,sans-Serif" font-size="10.00">CIP_Init</text>
</a>
</g>
</g>
<!-- Node3&#45;&gt;Node4 -->
<g id="edge3" class="edge"><title>Node3&#45;&gt;Node4</title>
<path fill="none" stroke="midnightblue" d="M476.345,-29C485.478,-29 494.282,-29 501.936,-29"/>
<polygon fill="midnightblue" stroke="midnightblue" points="476.344,-25.5001 466.344,-29 476.344,-32.5001 476.344,-25.5001"/>
</g>
<!-- Node5 -->
<g id="node5" class="node"><title>Node5</title>
<g id="a_node5"><a xlink:href="../../d0/d17/LM3S8962_2sample__application_2main_8c.html#a840291bc02cba5474a4cb46a9b9566fe" target="_top" xlink:title="main">
<polygon fill="none" stroke="black" points="591,-19.5 591,-38.5 629,-38.5 629,-19.5 591,-19.5"/>
<text text-anchor="middle" x="610" y="-26.5" font-family="Helvetica,sans-Serif" font-size="10.00">main</text>
</a>
</g>
</g>
<!-- Node4&#45;&gt;Node5 -->
<g id="edge4" class="edge"><title>Node4&#45;&gt;Node5</title>
<path fill="none" stroke="midnightblue" d="M565.231,-29C574.063,-29 583.162,-29 590.761,-29"/>
<polygon fill="midnightblue" stroke="midnightblue" points="565.092,-25.5001 555.092,-29 565.092,-32.5001 565.092,-25.5001"/>
</g>
<!-- Node6&#45;&gt;Node3 -->
<g id="edge6" class="edge"><title>Node6&#45;&gt;Node3</title>
<path fill="none" stroke="midnightblue" d="M299.347,-17.365C311.999,-18.8131 325.261,-20.3311 337.873,-21.7746"/>
<polygon fill="midnightblue" stroke="midnightblue" points="299.688,-13.8813 289.355,-16.2213 298.892,-20.8358 299.688,-13.8813"/>
</g>
</g>
</svg>
