<?xml version="1.0" encoding="UTF-8" standalone="no"?>
<!DOCTYPE svg PUBLIC "-//W3C//DTD SVG 1.1//EN"
 "http://www.w3.org/Graphics/SVG/1.1/DTD/svg11.dtd">
<!-- Generated by graphviz version 2.26.3 (20100126.1600)
 -->
<!-- Title: G Pages: 1 -->
<svg width="398pt" height="88pt"
 viewBox="0.00 0.00 398.00 88.00" xmlns="http://www.w3.org/2000/svg" xmlns:xlink="http://www.w3.org/1999/xlink">
<g id="graph1" class="graph" transform="scale(1 1) rotate(0) translate(4 84)">
<title>G</title>
<!-- Node1 -->
<g id="node1" class="node"><title>Node1</title>
<polygon fill="#bfbfbf" stroke="black" points="154,-58.5 154,-79.5 248,-79.5 248,-58.5 154,-58.5"/>
<text text-anchor="middle" x="201" y="-66.5" font-family="Helvetica,sans-Serif" font-size="10.00">src/cip/cipepath.h</text>
</g>
<!-- Node2 -->
<g id="node3" class="node"><title>Node2</title>
<a xlink:href="../../d2/d3d/cipcommon_8c.html" target="_top" xlink:title="src/cip/cipcommon.c">
<polygon fill="none" stroke="black" points="-0.5,-0.5 -0.5,-21.5 106.5,-21.5 106.5,-0.5 -0.5,-0.5"/>
<text text-anchor="middle" x="53" y="-8.5" font-family="Helvetica,sans-Serif" font-size="10.00">src/cip/cipcommon.c</text>
</a>
</g>
<!-- Node1&#45;&gt;Node2 -->
<g id="edge2" class="edge"><title>Node1&#45;&gt;Node2</title>
<path fill="none" stroke="midnightblue" d="M164.64,-54.7509C138.505,-44.5086 103.832,-30.9206 80.1024,-21.6212"/>
<polygon fill="midnightblue" stroke="midnightblue" points="163.611,-58.1065 174.198,-58.4966 166.165,-51.5891 163.611,-58.1065"/>
</g>
<!-- Node3 -->
<g id="node5" class="node"><title>Node3</title>
<a xlink:href="../../d5/d35/cipconnectionmanager_8c.html" target="_top" xlink:title="src/cip/cipconnectionmanager.c">
<polygon fill="none" stroke="black" points="123.5,-0.5 123.5,-21.5 278.5,-21.5 278.5,-0.5 123.5,-0.5"/>
<text text-anchor="middle" x="201" y="-8.5" font-family="Helvetica,sans-Serif" font-size="10.00">src/cip/cipconnectionmanager.c</text>
</a>
</g>
<!-- Node1&#45;&gt;Node3 -->
<g id="edge4" class="edge"><title>Node1&#45;&gt;Node3</title>
<path fill="none" stroke="midnightblue" d="M201,-48.1906C201,-39.1684 201,-28.9941 201,-21.5707"/>
<polygon fill="midnightblue" stroke="midnightblue" points="197.5,-48.3619 201,-58.3619 204.5,-48.3619 197.5,-48.3619"/>
</g>
<!-- Node4 -->
<g id="node7" class="node"><title>Node4</title>
<a xlink:href="../../de/ddc/cipepath_8c.html" target="_top" xlink:title="src/cip/cipepath.c">
<polygon fill="none" stroke="black" points="296,-0.5 296,-21.5 390,-21.5 390,-0.5 296,-0.5"/>
<text text-anchor="middle" x="343" y="-8.5" font-family="Helvetica,sans-Serif" font-size="10.00">src/cip/cipepath.c</text>
</a>
</g>
<!-- Node1&#45;&gt;Node4 -->
<g id="edge6" class="edge"><title>Node1&#45;&gt;Node4</title>
<path fill="none" stroke="midnightblue" d="M236.218,-54.6153C261.255,-44.3889 294.329,-30.8796 316.996,-21.6212"/>
<polygon fill="midnightblue" stroke="midnightblue" points="234.649,-51.4752 226.715,-58.4966 237.296,-57.9555 234.649,-51.4752"/>
</g>
</g>
</svg>
