<?xml version="1.0" encoding="UTF-8" standalone="no"?>
<!DOCTYPE svg PUBLIC "-//W3C//DTD SVG 1.1//EN"
 "http://www.w3.org/Graphics/SVG/1.1/DTD/svg11.dtd">
<!-- Generated by graphviz version 2.26.3 (20100126.1600)
 -->
<!-- Title: G Pages: 1 -->
<!--zoomable 110 -->
<svg id="main" version="1.1" xmlns="http://www.w3.org/2000/svg" xmlns:xlink="http://www.w3.org/1999/xlink" xml:space="preserve" onload="init(evt)">
        <defs>
                <circle id="rim" cx="0" cy="0" r="7"/>
                <circle id="rim2" cx="0" cy="0" r="3.5"/>
                <g id="zoomPlus">
                        <use xlink:href="#rim" fill="#404040">
                                <set attributeName="fill" to="#808080" begin="zoomplus.mouseover" end="zoomplus.mouseout"/>
                        </use>
                        <path d="M-4,0h8M0,-4v8" fill="none" stroke="white" stroke-width="1.5" pointer-events="none"/>
                </g>
                <g id="zoomMin">
                        <use xlink:href="#rim" fill="#404040">
                                <set attributeName="fill" to="#808080" begin="zoomminus.mouseover" end="zoomminus.mouseout"/>
                        </use>
                        <path d="M-4,0h8" fill="none" stroke="white" stroke-width="1.5" pointer-events="none"/>
                </g>
                <g id="dirArrow">
                        <path fill="none" stroke="white" stroke-width="1.5" d="M0,-3.0v7 M-2.5,-0.5L0,-3.0L2.5,-0.5"/>
                </g>
               <g id="resetDef">
                       <use xlink:href="#rim2" fill="#404040">
                               <set attributeName="fill" to="#808080" begin="reset.mouseover" end="reset.mouseout"/>
                       </use>
               </g>
        </defs>

<script type="text/javascript">
var viewWidth = 1924;
var viewHeight = 110;
var sectionId = 'dynsection-5';
</script>
<script xlink:href="../../svgpan.js"/>
<svg id="graph" class="graph">
<g id="viewport">
<title>G</title>
<!-- Node1 -->
<g id="node1" class="node"><title>Node1</title>
<polygon fill="#bfbfbf" stroke="black" points="0.5,-40.5 0.5,-61.5 147.5,-61.5 147.5,-40.5 0.5,-40.5"/>
<text text-anchor="middle" x="74" y="-48.5" font-family="Helvetica,sans-Serif" font-size="10.00">FillNextNMessageOctetsWith</text>
</g>
<!-- Node2 -->
<g id="node3" class="node"><title>Node2</title>
<a xlink:href="../../d0/dec/endianconv_8h.html#a0ca9c3a411ccc35e03050e869aafd2bf" target="_top" xlink:title="FillNextNMessageOctetsWithValueAndMoveToNextPosition">
<polygon fill="none" stroke="black" points="184.5,-40.5 184.5,-61.5 465.5,-61.5 465.5,-40.5 184.5,-40.5"/>
<text text-anchor="middle" x="325" y="-48.5" font-family="Helvetica,sans-Serif" font-size="10.00">FillNextNMessageOctetsWithValueAndMoveToNextPosition</text>
</a>
</g>
<!-- Node1&#45;&gt;Node2 -->
<g id="edge2" class="edge"><title>Node1&#45;&gt;Node2</title>
<path fill="none" stroke="midnightblue" d="M157.661,-51C166.348,-51 175.338,-51 184.435,-51"/>
<polygon fill="midnightblue" stroke="midnightblue" points="157.612,-47.5001 147.612,-51 157.612,-54.5001 157.612,-47.5001"/>
</g>
<!-- Node3 -->
<g id="node5" class="node"><title>Node3</title>
<a xlink:href="../../d4/d91/group__ENCAP.html#gaa81c027561d86d2589b8002b36b88392" target="_top" xlink:title="Copy data from message_router_response struct and common_packet_format_data_item into linear memory i...">
<polygon fill="none" stroke="black" points="502,-40.5 502,-61.5 628,-61.5 628,-40.5 502,-40.5"/>
<text text-anchor="middle" x="565" y="-48.5" font-family="Helvetica,sans-Serif" font-size="10.00">AssembleLinearMessage</text>
</a>
</g>
<!-- Node2&#45;&gt;Node3 -->
<g id="edge4" class="edge"><title>Node2&#45;&gt;Node3</title>
<path fill="none" stroke="midnightblue" d="M475.891,-51C484.879,-51 493.618,-51 501.888,-51"/>
<polygon fill="midnightblue" stroke="midnightblue" points="475.65,-47.5001 465.65,-51 475.65,-54.5001 475.65,-47.5001"/>
</g>
<!-- Node4 -->
<g id="node7" class="node"><title>Node4</title>
<a xlink:href="../../d4/d91/group__ENCAP.html#ga86a32a262ea21cad9631fa02c81f1a03" target="_top" xlink:title="NotifyCommonPacketFormat">
<polygon fill="none" stroke="black" points="688,-80.5 688,-101.5 832,-101.5 832,-80.5 688,-80.5"/>
<text text-anchor="middle" x="760" y="-88.5" font-family="Helvetica,sans-Serif" font-size="10.00">NotifyCommonPacketFormat</text>
</a>
</g>
<!-- Node3&#45;&gt;Node4 -->
<g id="edge6" class="edge"><title>Node3&#45;&gt;Node4</title>
<path fill="none" stroke="midnightblue" d="M626.181,-63.55C652.724,-68.9946 683.456,-75.2986 708.77,-80.4913"/>
<polygon fill="midnightblue" stroke="midnightblue" points="626.733,-60.0904 616.234,-61.5095 625.327,-66.9477 626.733,-60.0904"/>
</g>
<!-- Node10 -->
<g id="node19" class="node"><title>Node10</title>
<a xlink:href="../../d4/d91/group__ENCAP.html#ga94ca28af85239d7dd63b3b044201fe51" target="_top" xlink:title="NotifyConnectedCommonPacketFormat">
<polygon fill="none" stroke="black" points="664.5,-40.5 664.5,-61.5 855.5,-61.5 855.5,-40.5 664.5,-40.5"/>
<text text-anchor="middle" x="760" y="-48.5" font-family="Helvetica,sans-Serif" font-size="10.00">NotifyConnectedCommonPacketFormat</text>
</a>
</g>
<!-- Node3&#45;&gt;Node10 -->
<g id="edge18" class="edge"><title>Node3&#45;&gt;Node10</title>
<path fill="none" stroke="midnightblue" d="M638.245,-51C646.731,-51 655.479,-51 664.209,-51"/>
<polygon fill="midnightblue" stroke="midnightblue" points="638.042,-47.5001 628.042,-51 638.042,-54.5001 638.042,-47.5001"/>
</g>
<!-- Node12 -->
<g id="node24" class="node"><title>Node12</title>
<a xlink:href="../../d4/d91/group__ENCAP.html#gad61fa4f84989cf27086d57557ad552c4" target="_top" xlink:title="AssembleIOMessage">
<polygon fill="none" stroke="black" points="705,-0.5 705,-21.5 815,-21.5 815,-0.5 705,-0.5"/>
<text text-anchor="middle" x="760" y="-8.5" font-family="Helvetica,sans-Serif" font-size="10.00">AssembleIOMessage</text>
</a>
</g>
<!-- Node3&#45;&gt;Node12 -->
<g id="edge24" class="edge"><title>Node3&#45;&gt;Node12</title>
<path fill="none" stroke="midnightblue" d="M626.181,-38.45C652.724,-33.0054 683.456,-26.7014 708.77,-21.5087"/>
<polygon fill="midnightblue" stroke="midnightblue" points="625.327,-35.0523 616.234,-40.4905 626.733,-41.9096 625.327,-35.0523"/>
</g>
<!-- Node5 -->
<g id="node9" class="node"><title>Node5</title>
<a xlink:href="../../d2/dbd/encap_8c.html#a638a3760c5969c8cd91977f1ac30058a" target="_top" xlink:title="Call UCMM or Message Router if UCMM not implemented.">
<polygon fill="none" stroke="black" points="892,-80.5 892,-101.5 1150,-101.5 1150,-80.5 892,-80.5"/>
<text text-anchor="middle" x="1021" y="-88.5" font-family="Helvetica,sans-Serif" font-size="10.00">HandleReceivedSendRequestResponseDataCommand</text>
</a>
</g>
<!-- Node4&#45;&gt;Node5 -->
<g id="edge8" class="edge"><title>Node4&#45;&gt;Node5</title>
<path fill="none" stroke="midnightblue" d="M842.238,-91C858.061,-91 874.986,-91 891.881,-91"/>
<polygon fill="midnightblue" stroke="midnightblue" points="842.01,-87.5001 832.01,-91 842.01,-94.5001 842.01,-87.5001"/>
</g>
<!-- Node6 -->
<g id="node11" class="node"><title>Node6</title>
<a xlink:href="../../d2/dc9/group__CIP__API.html#gaec144f1964be8be687227381e5dbadaf" target="_top" xlink:title="Notify the encapsulation layer that an explicit message has been received via TCP.">
<polygon fill="none" stroke="black" points="1186,-40.5 1186,-61.5 1342,-61.5 1342,-40.5 1186,-40.5"/>
<text text-anchor="middle" x="1264" y="-48.5" font-family="Helvetica,sans-Serif" font-size="10.00">HandleReceivedExplictTcpData</text>
</a>
</g>
<!-- Node5&#45;&gt;Node6 -->
<g id="edge10" class="edge"><title>Node5&#45;&gt;Node6</title>
<path fill="none" stroke="midnightblue" d="M1100.71,-78.8948C1117.03,-76.3462 1134.08,-73.6311 1150,-71 1168.04,-68.0192 1187.66,-64.6305 1205.46,-61.5004"/>
<polygon fill="midnightblue" stroke="midnightblue" points="1100.01,-75.4621 1090.67,-80.458 1101.09,-82.3788 1100.01,-75.4621"/>
</g>
<!-- Node7 -->
<g id="node13" class="node"><title>Node7</title>
<a xlink:href="../../db/d4f/generic__networkhandler_8c.html#aca5593b7dd39d7a7b437999a367102d6" target="_top" xlink:title="Handles data on an established TCP connection, processed connection is given by socket.">
<polygon fill="none" stroke="black" points="1378,-40.5 1378,-61.5 1506,-61.5 1506,-40.5 1378,-40.5"/>
<text text-anchor="middle" x="1442" y="-48.5" font-family="Helvetica,sans-Serif" font-size="10.00">HandleDataOnTcpSocket</text>
</a>
</g>
<!-- Node6&#45;&gt;Node7 -->
<g id="edge12" class="edge"><title>Node6&#45;&gt;Node7</title>
<path fill="none" stroke="midnightblue" d="M1352.21,-51C1360.86,-51 1369.52,-51 1377.86,-51"/>
<polygon fill="midnightblue" stroke="midnightblue" points="1352.07,-47.5001 1342.07,-51 1352.07,-54.5001 1352.07,-47.5001"/>
</g>
<!-- Node8 -->
<g id="node15" class="node"><title>Node8</title>
<a xlink:href="../../da/dc2/generic__networkhandler_8h.html#a2f01af81d3e5018d9980e2bc28c9078a" target="_top" xlink:title="NetworkHandlerProcessOnce">
<polygon fill="none" stroke="black" points="1696,-40.5 1696,-61.5 1842,-61.5 1842,-40.5 1696,-40.5"/>
<text text-anchor="middle" x="1769" y="-48.5" font-family="Helvetica,sans-Serif" font-size="10.00">NetworkHandlerProcessOnce</text>
</a>
</g>
<!-- Node7&#45;&gt;Node8 -->
<g id="edge14" class="edge"><title>Node7&#45;&gt;Node8</title>
<path fill="none" stroke="midnightblue" d="M1516.36,-51C1570.1,-51 1642.34,-51 1695.81,-51"/>
<polygon fill="midnightblue" stroke="midnightblue" points="1516.21,-47.5001 1506.21,-51 1516.21,-54.5001 1516.21,-47.5001"/>
</g>
<!-- Node9 -->
<g id="node17" class="node"><title>Node9</title>
<a xlink:href="../../d9/dfb/POSIX_2main_8c.html#ad338a7dbc41dc40bcecd0479377ef207" target="_top" xlink:title="main">
<polygon fill="none" stroke="black" points="1878,-20.5 1878,-41.5 1916,-41.5 1916,-20.5 1878,-20.5"/>
<text text-anchor="middle" x="1897" y="-28.5" font-family="Helvetica,sans-Serif" font-size="10.00">main</text>
</a>
</g>
<!-- Node8&#45;&gt;Node9 -->
<g id="edge16" class="edge"><title>Node8&#45;&gt;Node9</title>
<path fill="none" stroke="midnightblue" d="M1846.34,-38.9158C1858.07,-37.0826 1869.18,-35.3472 1877.99,-33.9711"/>
<polygon fill="midnightblue" stroke="midnightblue" points="1845.71,-35.471 1836.37,-40.4729 1846.79,-42.3871 1845.71,-35.471"/>
</g>
<!-- Node11 -->
<g id="node21" class="node"><title>Node11</title>
<a xlink:href="../../d2/dbd/encap_8c.html#a2a5e809a74a56268ad9f51638796fb3d" target="_top" xlink:title="Call Connection Manager.">
<polygon fill="none" stroke="black" points="923.5,-40.5 923.5,-61.5 1118.5,-61.5 1118.5,-40.5 923.5,-40.5"/>
<text text-anchor="middle" x="1021" y="-48.5" font-family="Helvetica,sans-Serif" font-size="10.00">HandleReceivedSendUnitDataCommand</text>
</a>
</g>
<!-- Node10&#45;&gt;Node11 -->
<g id="edge20" class="edge"><title>Node10&#45;&gt;Node11</title>
<path fill="none" stroke="midnightblue" d="M865.834,-51C884.768,-51 904.422,-51 923.12,-51"/>
<polygon fill="midnightblue" stroke="midnightblue" points="865.705,-47.5001 855.705,-51 865.705,-54.5001 865.705,-47.5001"/>
</g>
<!-- Node11&#45;&gt;Node6 -->
<g id="edge22" class="edge"><title>Node11&#45;&gt;Node6</title>
<path fill="none" stroke="midnightblue" d="M1129.04,-51C1148.16,-51 1167.72,-51 1185.81,-51"/>
<polygon fill="midnightblue" stroke="midnightblue" points="1128.79,-47.5001 1118.79,-51 1128.79,-54.5001 1128.79,-47.5001"/>
</g>
<!-- Node13 -->
<g id="node26" class="node"><title>Node13</title>
<a xlink:href="../../df/d03/cipioconnection_8c.html#a41f8d71772b5defa587ac0da6124cc47" target="_top" xlink:title="Send the data from the produced CIP Object of the connection via the socket of the connection object ...">
<polygon fill="none" stroke="black" points="967.5,-0.5 967.5,-21.5 1074.5,-21.5 1074.5,-0.5 967.5,-0.5"/>
<text text-anchor="middle" x="1021" y="-8.5" font-family="Helvetica,sans-Serif" font-size="10.00">SendConnectedData</text>
</a>
</g>
<!-- Node12&#45;&gt;Node13 -->
<g id="edge26" class="edge"><title>Node12&#45;&gt;Node13</title>
<path fill="none" stroke="midnightblue" d="M825.307,-11C869.15,-11 926.203,-11 967.383,-11"/>
<polygon fill="midnightblue" stroke="midnightblue" points="825.032,-7.5001 815.032,-11 825.032,-14.5001 825.032,-7.5001"/>
</g>
<!-- Node14 -->
<g id="node28" class="node"><title>Node14</title>
<a xlink:href="../../df/d03/cipioconnection_8c.html#ac788741792b008fa0699c7cfbe0979bc" target="_top" xlink:title="SetIoConnectionCallbacks">
<polygon fill="none" stroke="black" points="1197.5,-0.5 1197.5,-21.5 1330.5,-21.5 1330.5,-0.5 1197.5,-0.5"/>
<text text-anchor="middle" x="1264" y="-8.5" font-family="Helvetica,sans-Serif" font-size="10.00">SetIoConnectionCallbacks</text>
</a>
</g>
<!-- Node13&#45;&gt;Node14 -->
<g id="edge28" class="edge"><title>Node13&#45;&gt;Node14</title>
<path fill="none" stroke="midnightblue" d="M1084.66,-11C1119.38,-11 1162.33,-11 1197.5,-11"/>
<polygon fill="midnightblue" stroke="midnightblue" points="1084.63,-7.5001 1074.63,-11 1084.63,-14.5001 1084.63,-7.5001"/>
</g>
<!-- Node15 -->
<g id="node30" class="node"><title>Node15</title>
<a xlink:href="../../de/d45/cipioconnection_8h.html#a699fccd3dabdfec1b77560f22268c1e8" target="_top" xlink:title="Setup all data in order to establish an IO connection.">
<polygon fill="none" stroke="black" points="1384.5,-0.5 1384.5,-21.5 1499.5,-21.5 1499.5,-0.5 1384.5,-0.5"/>
<text text-anchor="middle" x="1442" y="-8.5" font-family="Helvetica,sans-Serif" font-size="10.00">EstablishIoConnection</text>
</a>
</g>
<!-- Node14&#45;&gt;Node15 -->
<g id="edge30" class="edge"><title>Node14&#45;&gt;Node15</title>
<path fill="none" stroke="midnightblue" d="M1340.59,-11C1355.25,-11 1370.37,-11 1384.31,-11"/>
<polygon fill="midnightblue" stroke="midnightblue" points="1340.53,-7.5001 1330.53,-11 1340.53,-14.5001 1340.53,-7.5001"/>
</g>
<!-- Node16 -->
<g id="node32" class="node"><title>Node16</title>
<a xlink:href="../../d2/da3/cipconnectionmanager_8h.html#a5ab0de6894d23e8fe84a6b46797c2212" target="_top" xlink:title="Initialize the data of the connection manager object.">
<polygon fill="none" stroke="black" points="1542.5,-0.5 1542.5,-21.5 1659.5,-21.5 1659.5,-0.5 1542.5,-0.5"/>
<text text-anchor="middle" x="1601" y="-8.5" font-family="Helvetica,sans-Serif" font-size="10.00">ConnectionManagerInit</text>
</a>
</g>
<!-- Node15&#45;&gt;Node16 -->
<g id="edge32" class="edge"><title>Node15&#45;&gt;Node16</title>
<path fill="none" stroke="midnightblue" d="M1510.06,-11C1520.82,-11 1531.87,-11 1542.39,-11"/>
<polygon fill="midnightblue" stroke="midnightblue" points="1509.85,-7.5001 1499.85,-11 1509.85,-14.5001 1509.85,-7.5001"/>
</g>
<!-- Node17 -->
<g id="node34" class="node"><title>Node17</title>
<a xlink:href="../../d2/dc9/group__CIP__API.html#ga5d4979945d124e28668b264c3823db1c" target="_top" xlink:title="Initialize and setup the CIP&#45;stack.">
<polygon fill="none" stroke="black" points="1733.5,-0.5 1733.5,-21.5 1804.5,-21.5 1804.5,-0.5 1733.5,-0.5"/>
<text text-anchor="middle" x="1769" y="-8.5" font-family="Helvetica,sans-Serif" font-size="10.00">CipStackInit</text>
</a>
</g>
<!-- Node16&#45;&gt;Node17 -->
<g id="edge34" class="edge"><title>Node16&#45;&gt;Node17</title>
<path fill="none" stroke="midnightblue" d="M1669.92,-11C1691.59,-11 1714.63,-11 1733.04,-11"/>
<polygon fill="midnightblue" stroke="midnightblue" points="1669.76,-7.5001 1659.76,-11 1669.76,-14.5001 1669.76,-7.5001"/>
</g>
<!-- Node17&#45;&gt;Node9 -->
<g id="edge36" class="edge"><title>Node17&#45;&gt;Node9</title>
<path fill="none" stroke="midnightblue" d="M1814.68,-18.138C1836.37,-21.5264 1861.12,-25.3934 1877.77,-27.995"/>
<polygon fill="midnightblue" stroke="midnightblue" points="1815.08,-14.6569 1804.66,-16.5711 1813.99,-21.573 1815.08,-14.6569"/>
</g>
</g>
</svg>
        <g id="navigator" transform="translate(0 0)" fill="#404254">
                <rect fill="#f2f5e9" fill-opacity="0.5" stroke="#606060" stroke-width=".5" x="0" y="0" width="60" height="60"/>
                <use id="zoomplus" xlink:href="#zoomPlus" x="17" y="9" onmousedown="handleZoom(evt,'in')"/>
                <use id="zoomminus" xlink:href="#zoomMin" x="42" y="9" onmousedown="handleZoom(evt,'out')"/>
                <use id="reset" xlink:href="#resetDef" x="30" y="36" onmousedown="handleReset()"/>
                <g id="arrowUp" xlink:href="#dirArrow" transform="translate(30 24)" onmousedown="handlePan(0,-1)">
                  <use xlink:href="#rim" fill="#404040">
                        <set attributeName="fill" to="#808080" begin="arrowUp.mouseover" end="arrowUp.mouseout"/>
                  </use>
                  <path fill="none" stroke="white" stroke-width="1.5" d="M0,-3.0v7 M-2.5,-0.5L0,-3.0L2.5,-0.5"/>
                </g>
                <g id="arrowRight" xlink:href="#dirArrow" transform="rotate(90) translate(36 -43)" onmousedown="handlePan(1,0)">
                  <use xlink:href="#rim" fill="#404040">
                        <set attributeName="fill" to="#808080" begin="arrowRight.mouseover" end="arrowRight.mouseout"/>
                  </use>
                  <path fill="none" stroke="white" stroke-width="1.5" d="M0,-3.0v7 M-2.5,-0.5L0,-3.0L2.5,-0.5"/>
                </g>
                <g id="arrowDown" xlink:href="#dirArrow" transform="rotate(180) translate(-30 -48)" onmousedown="handlePan(0,1)">
                  <use xlink:href="#rim" fill="#404040">
                        <set attributeName="fill" to="#808080" begin="arrowDown.mouseover" end="arrowDown.mouseout"/>
                  </use>
                  <path fill="none" stroke="white" stroke-width="1.5" d="M0,-3.0v7 M-2.5,-0.5L0,-3.0L2.5,-0.5"/>
                </g>
                <g id="arrowLeft" xlink:href="#dirArrow" transform="rotate(270) translate(-36 17)" onmousedown="handlePan(-1,0)">
                  <use xlink:href="#rim" fill="#404040">
                        <set attributeName="fill" to="#808080" begin="arrowLeft.mouseover" end="arrowLeft.mouseout"/>
                  </use>
                  <path fill="none" stroke="white" stroke-width="1.5" d="M0,-3.0v7 M-2.5,-0.5L0,-3.0L2.5,-0.5"/>
                </g>
        </g>
</svg>
