<?xml version="1.0" encoding="UTF-8" standalone="no"?>
<!DOCTYPE svg PUBLIC "-//W3C//DTD SVG 1.1//EN"
 "http://www.w3.org/Graphics/SVG/1.1/DTD/svg11.dtd">
<!-- Generated by graphviz version 2.38.0 (20140413.2041)
 -->
<!-- Title: src/ports/LM3S8962/networkhandler.c Pages: 1 -->
<svg width="771pt" height="319pt"
 viewBox="0.00 0.00 771.00 319.00" xmlns="http://www.w3.org/2000/svg" xmlns:xlink="http://www.w3.org/1999/xlink">
<g id="graph0" class="graph" transform="scale(1 1) rotate(0) translate(4 315)">
<title>src/ports/LM3S8962/networkhandler.c</title>
<!-- Node1 -->
<g id="node1" class="node"><title>Node1</title>
<polygon fill="#bfbfbf" stroke="black" points="227.5,-280.5 227.5,-310.5 331.5,-310.5 331.5,-280.5 227.5,-280.5"/>
<text text-anchor="start" x="235.5" y="-298.5" font-family="Helvetica,sans-Serif" font-size="10.00">src/ports/LM3S8962</text>
<text text-anchor="middle" x="279.5" y="-287.5" font-family="Helvetica,sans-Serif" font-size="10.00">/networkhandler.c</text>
</g>
<!-- Node2 -->
<g id="node2" class="node"><title>Node2</title>
<polygon fill="none" stroke="#bfbfbf" points="0,-224.5 0,-243.5 49,-243.5 49,-224.5 0,-224.5"/>
<text text-anchor="middle" x="24.5" y="-231.5" font-family="Helvetica,sans-Serif" font-size="10.00">string.h</text>
</g>
<!-- Node1&#45;&gt;Node2 -->
<g id="edge1" class="edge"><title>Node1&#45;&gt;Node2</title>
<path fill="none" stroke="midnightblue" d="M227.137,-283.063C184.472,-273.624 122.431,-259.627 59.1158,-244.089"/>
<polygon fill="midnightblue" stroke="midnightblue" points="59.9043,-240.679 49.3573,-241.685 58.2294,-247.476 59.9043,-240.679"/>
</g>
<!-- Node3 -->
<g id="node3" class="node"><title>Node3</title>
<polygon fill="none" stroke="#bfbfbf" points="67.5,-224.5 67.5,-243.5 115.5,-243.5 115.5,-224.5 67.5,-224.5"/>
<text text-anchor="middle" x="91.5" y="-231.5" font-family="Helvetica,sans-Serif" font-size="10.00">stdlib.h</text>
</g>
<!-- Node1&#45;&gt;Node3 -->
<g id="edge2" class="edge"><title>Node1&#45;&gt;Node3</title>
<path fill="none" stroke="midnightblue" d="M234.947,-280.399C201.388,-269.778 156.075,-255.437 125.426,-245.737"/>
<polygon fill="midnightblue" stroke="midnightblue" points="126.223,-242.318 115.633,-242.638 124.111,-248.992 126.223,-242.318"/>
</g>
<!-- Node4 -->
<g id="node4" class="node"><title>Node4</title>
<polygon fill="none" stroke="#bfbfbf" points="134,-224.5 134,-243.5 181,-243.5 181,-224.5 134,-224.5"/>
<text text-anchor="middle" x="157.5" y="-231.5" font-family="Helvetica,sans-Serif" font-size="10.00">errno.h</text>
</g>
<!-- Node1&#45;&gt;Node4 -->
<g id="edge3" class="edge"><title>Node1&#45;&gt;Node4</title>
<path fill="none" stroke="midnightblue" d="M250.588,-280.399C230.484,-270.595 203.879,-257.619 184.262,-248.052"/>
<polygon fill="midnightblue" stroke="midnightblue" points="185.774,-244.896 175.252,-243.658 182.706,-251.187 185.774,-244.896"/>
</g>
<!-- Node5 -->
<g id="node5" class="node"><title>Node5</title>
<polygon fill="none" stroke="#bfbfbf" points="199.5,-224.5 199.5,-243.5 251.5,-243.5 251.5,-224.5 199.5,-224.5"/>
<text text-anchor="middle" x="225.5" y="-231.5" font-family="Helvetica,sans-Serif" font-size="10.00">assert.h</text>
</g>
<!-- Node1&#45;&gt;Node5 -->
<g id="edge4" class="edge"><title>Node1&#45;&gt;Node5</title>
<path fill="none" stroke="midnightblue" d="M266.703,-280.399C258.775,-271.664 248.564,-260.413 240.29,-251.296"/>
<polygon fill="midnightblue" stroke="midnightblue" points="242.67,-248.711 233.357,-243.658 237.486,-253.415 242.67,-248.711"/>
</g>
<!-- Node6 -->
<g id="node6" class="node"><title>Node6</title>
<g id="a_node6"><a xlink:href="../../d1/d31/LM3S8962_2networkhandler_8h.html" target="_top" xlink:title="networkhandler.h">
<polygon fill="none" stroke="black" points="198,-168.5 198,-187.5 289,-187.5 289,-168.5 198,-168.5"/>
<text text-anchor="middle" x="243.5" y="-175.5" font-family="Helvetica,sans-Serif" font-size="10.00">networkhandler.h</text>
</a>
</g>
</g>
<!-- Node1&#45;&gt;Node6 -->
<g id="edge5" class="edge"><title>Node1&#45;&gt;Node6</title>
<path fill="none" stroke="midnightblue" d="M276.117,-280.336C272.595,-266.015 266.73,-243.301 260.5,-224 257.61,-215.048 253.972,-205.261 250.804,-197.108"/>
<polygon fill="midnightblue" stroke="midnightblue" points="253.95,-195.546 247.012,-187.538 247.442,-198.124 253.95,-195.546"/>
</g>
<!-- Node11 -->
<g id="node11" class="node"><title>Node11</title>
<g id="a_node11"><a xlink:href="../../db/d14/cipcommon_8h.html" target="_top" xlink:title="cipcommon.h">
<polygon fill="none" stroke="black" points="346,-168.5 346,-187.5 421,-187.5 421,-168.5 346,-168.5"/>
<text text-anchor="middle" x="383.5" y="-175.5" font-family="Helvetica,sans-Serif" font-size="10.00">cipcommon.h</text>
</a>
</g>
</g>
<!-- Node1&#45;&gt;Node11 -->
<g id="edge10" class="edge"><title>Node1&#45;&gt;Node11</title>
<path fill="none" stroke="midnightblue" d="M295.017,-280.397C305.625,-270.526 319.824,-256.855 331.5,-244 345.71,-228.355 360.656,-209.372 370.858,-195.97"/>
<polygon fill="midnightblue" stroke="midnightblue" points="373.872,-197.786 377.097,-187.694 368.282,-193.573 373.872,-197.786"/>
</g>
<!-- Node13 -->
<g id="node13" class="node"><title>Node13</title>
<g id="a_node13"><a xlink:href="../../d2/da3/cipconnectionmanager_8h.html" target="_top" xlink:title="cipconnectionmanager.h">
<polygon fill="none" stroke="black" points="426.5,-224.5 426.5,-243.5 548.5,-243.5 548.5,-224.5 426.5,-224.5"/>
<text text-anchor="middle" x="487.5" y="-231.5" font-family="Helvetica,sans-Serif" font-size="10.00">cipconnectionmanager.h</text>
</a>
</g>
</g>
<!-- Node1&#45;&gt;Node13 -->
<g id="edge14" class="edge"><title>Node1&#45;&gt;Node13</title>
<path fill="none" stroke="midnightblue" d="M328.53,-280.475C364.884,-270.075 413.814,-256.078 447.745,-246.372"/>
<polygon fill="midnightblue" stroke="midnightblue" points="449.112,-249.622 457.763,-243.506 447.186,-242.892 449.112,-249.622"/>
</g>
<!-- Node16 -->
<g id="node16" class="node"><title>Node16</title>
<g id="a_node16"><a xlink:href="../../d7/df9/encap_8h.html" target="_top" xlink:title="encap.h">
<polygon fill="none" stroke="black" points="296,-112.5 296,-131.5 347,-131.5 347,-112.5 296,-112.5"/>
<text text-anchor="middle" x="321.5" y="-119.5" font-family="Helvetica,sans-Serif" font-size="10.00">encap.h</text>
</a>
</g>
</g>
<!-- Node1&#45;&gt;Node16 -->
<g id="edge23" class="edge"><title>Node1&#45;&gt;Node16</title>
<path fill="none" stroke="midnightblue" d="M282.937,-280.465C290.471,-249.704 308.44,-176.329 316.92,-141.7"/>
<polygon fill="midnightblue" stroke="midnightblue" points="320.425,-142.105 319.404,-131.56 313.625,-140.44 320.425,-142.105"/>
</g>
<!-- Node17 -->
<g id="node17" class="node"><title>Node17</title>
<g id="a_node17"><a xlink:href="../../d1/d1b/trace_8h.html" target="_top" xlink:title="Tracing infrastructure for OpENer. ">
<polygon fill="none" stroke="black" points="716,-56.5 716,-75.5 763,-75.5 763,-56.5 716,-56.5"/>
<text text-anchor="middle" x="739.5" y="-63.5" font-family="Helvetica,sans-Serif" font-size="10.00">trace.h</text>
</a>
</g>
</g>
<!-- Node1&#45;&gt;Node17 -->
<g id="edge25" class="edge"><title>Node1&#45;&gt;Node17</title>
<path fill="none" stroke="midnightblue" d="M331.696,-293.142C389.513,-289.836 484.237,-278.977 557.5,-244 636.367,-206.347 702.246,-120.838 727.944,-84.1934"/>
<polygon fill="midnightblue" stroke="midnightblue" points="731.065,-85.8313 733.851,-75.6092 725.299,-81.8631 731.065,-85.8313"/>
</g>
<!-- Node7 -->
<g id="node7" class="node"><title>Node7</title>
<g id="a_node7"><a xlink:href="../../d7/d69/typedefs_8h.html" target="_top" xlink:title="typedefs.h">
<polygon fill="none" stroke="black" points="386.5,-56.5 386.5,-75.5 448.5,-75.5 448.5,-56.5 386.5,-56.5"/>
<text text-anchor="middle" x="417.5" y="-63.5" font-family="Helvetica,sans-Serif" font-size="10.00">typedefs.h</text>
</a>
</g>
</g>
<!-- Node6&#45;&gt;Node7 -->
<g id="edge6" class="edge"><title>Node6&#45;&gt;Node7</title>
<path fill="none" stroke="midnightblue" d="M247.263,-168.09C253.58,-154.165 267.607,-127.264 287.5,-112 313.543,-92.0174 349.093,-80.5205 376.435,-74.1575"/>
<polygon fill="midnightblue" stroke="midnightblue" points="377.454,-77.5176 386.476,-71.9632 375.959,-70.679 377.454,-77.5176"/>
</g>
<!-- Node8 -->
<g id="node8" class="node"><title>Node8</title>
<polygon fill="none" stroke="#bfbfbf" points="617.5,-0.5 617.5,-19.5 719.5,-19.5 719.5,-0.5 617.5,-0.5"/>
<text text-anchor="middle" x="668.5" y="-7.5" font-family="Helvetica,sans-Serif" font-size="10.00">opener_user_conf.h</text>
</g>
<!-- Node7&#45;&gt;Node8 -->
<g id="edge7" class="edge"><title>Node7&#45;&gt;Node8</title>
<path fill="none" stroke="midnightblue" d="M448.529,-58.3244C491.109,-49.1638 568.126,-32.5943 618.793,-21.694"/>
<polygon fill="midnightblue" stroke="midnightblue" points="619.829,-25.0511 628.87,-19.5261 618.357,-18.2077 619.829,-25.0511"/>
</g>
<!-- Node9 -->
<g id="node9" class="node"><title>Node9</title>
<polygon fill="none" stroke="#bfbfbf" points="425,-0.5 425,-19.5 484,-19.5 484,-0.5 425,-0.5"/>
<text text-anchor="middle" x="454.5" y="-7.5" font-family="Helvetica,sans-Serif" font-size="10.00">inttypes.h</text>
</g>
<!-- Node7&#45;&gt;Node9 -->
<g id="edge8" class="edge"><title>Node7&#45;&gt;Node9</title>
<path fill="none" stroke="midnightblue" d="M423.61,-56.083C428.782,-48.5341 436.346,-37.4948 442.694,-28.2298"/>
<polygon fill="midnightblue" stroke="midnightblue" points="445.739,-29.9787 448.504,-19.7511 439.964,-26.0221 445.739,-29.9787"/>
</g>
<!-- Node10 -->
<g id="node10" class="node"><title>Node10</title>
<polygon fill="none" stroke="#bfbfbf" points="354.5,-0.5 354.5,-19.5 406.5,-19.5 406.5,-0.5 354.5,-0.5"/>
<text text-anchor="middle" x="380.5" y="-7.5" font-family="Helvetica,sans-Serif" font-size="10.00">stddef.h</text>
</g>
<!-- Node7&#45;&gt;Node10 -->
<g id="edge9" class="edge"><title>Node7&#45;&gt;Node10</title>
<path fill="none" stroke="midnightblue" d="M411.39,-56.083C406.218,-48.5341 398.654,-37.4948 392.306,-28.2298"/>
<polygon fill="midnightblue" stroke="midnightblue" points="395.036,-26.0221 386.496,-19.7511 389.261,-29.9787 395.036,-26.0221"/>
</g>
<!-- Node11&#45;&gt;Node7 -->
<g id="edge11" class="edge"><title>Node11&#45;&gt;Node7</title>
<path fill="none" stroke="midnightblue" d="M386.209,-168.166C390.045,-155.659 397.288,-132.077 403.5,-112 406.224,-103.196 409.261,-93.4271 411.809,-85.2474"/>
<polygon fill="midnightblue" stroke="midnightblue" points="415.174,-86.2128 414.808,-75.6243 408.491,-84.1299 415.174,-86.2128"/>
</g>
<!-- Node12 -->
<g id="node12" class="node"><title>Node12</title>
<g id="a_node12"><a xlink:href="../../df/d28/ciptypes_8h.html" target="_top" xlink:title="ciptypes.h">
<polygon fill="none" stroke="black" points="445.5,-112.5 445.5,-131.5 507.5,-131.5 507.5,-112.5 445.5,-112.5"/>
<text text-anchor="middle" x="476.5" y="-119.5" font-family="Helvetica,sans-Serif" font-size="10.00">ciptypes.h</text>
</a>
</g>
</g>
<!-- Node11&#45;&gt;Node12 -->
<g id="edge12" class="edge"><title>Node11&#45;&gt;Node12</title>
<path fill="none" stroke="midnightblue" d="M398.442,-168.324C413.085,-159.822 435.634,-146.729 452.738,-136.797"/>
<polygon fill="midnightblue" stroke="midnightblue" points="454.705,-139.703 461.595,-131.655 451.19,-133.649 454.705,-139.703"/>
</g>
<!-- Node12&#45;&gt;Node7 -->
<g id="edge13" class="edge"><title>Node12&#45;&gt;Node7</title>
<path fill="none" stroke="midnightblue" d="M467.021,-112.324C458.299,-104.341 445.157,-92.3128 434.602,-82.6529"/>
<polygon fill="midnightblue" stroke="midnightblue" points="436.892,-80.0036 427.152,-75.8339 432.166,-85.1674 436.892,-80.0036"/>
</g>
<!-- Node13&#45;&gt;Node7 -->
<g id="edge21" class="edge"><title>Node13&#45;&gt;Node7</title>
<path fill="none" stroke="midnightblue" d="M482.437,-224.334C472.566,-207.171 450.493,-167.446 436.5,-132 430.429,-116.622 425.295,-98.5249 421.9,-85.3365"/>
<polygon fill="midnightblue" stroke="midnightblue" points="425.284,-84.4407 419.475,-75.5802 418.49,-86.1292 425.284,-84.4407"/>
</g>
<!-- Node13&#45;&gt;Node8 -->
<g id="edge15" class="edge"><title>Node13&#45;&gt;Node8</title>
<path fill="none" stroke="midnightblue" d="M526.33,-224.495C549.702,-217.775 578.834,-206.386 599.5,-188 641.849,-150.325 643.177,-129.97 660.5,-76 665.338,-60.9284 667.28,-43.026 668.045,-29.8291"/>
<polygon fill="midnightblue" stroke="midnightblue" points="671.55,-29.7659 668.457,-19.6325 664.556,-29.4828 671.55,-29.7659"/>
</g>
<!-- Node13&#45;&gt;Node12 -->
<g id="edge22" class="edge"><title>Node13&#45;&gt;Node12</title>
<path fill="none" stroke="midnightblue" d="M486.637,-224.368C484.862,-206.617 480.767,-165.666 478.36,-141.597"/>
<polygon fill="midnightblue" stroke="midnightblue" points="481.837,-141.193 477.359,-131.591 474.872,-141.89 481.837,-141.193"/>
</g>
<!-- Node14 -->
<g id="node14" class="node"><title>Node14</title>
<g id="a_node14"><a xlink:href="../../d4/d38/opener__api_8h.html" target="_top" xlink:title="opener_api.h">
<polygon fill="none" stroke="black" points="518.5,-168.5 518.5,-187.5 590.5,-187.5 590.5,-168.5 518.5,-168.5"/>
<text text-anchor="middle" x="554.5" y="-175.5" font-family="Helvetica,sans-Serif" font-size="10.00">opener_api.h</text>
</a>
</g>
</g>
<!-- Node13&#45;&gt;Node14 -->
<g id="edge16" class="edge"><title>Node13&#45;&gt;Node14</title>
<path fill="none" stroke="midnightblue" d="M498.265,-224.324C508.266,-216.263 523.387,-204.077 535.43,-194.369"/>
<polygon fill="midnightblue" stroke="midnightblue" points="537.95,-196.834 543.539,-187.834 533.557,-191.384 537.95,-196.834"/>
</g>
<!-- Node14&#45;&gt;Node7 -->
<g id="edge17" class="edge"><title>Node14&#45;&gt;Node7</title>
<path fill="none" stroke="midnightblue" d="M566.107,-168.346C581.999,-155.449 606.998,-130.697 592.5,-112 576.237,-91.0265 505.023,-78.1194 458.602,-71.7781"/>
<polygon fill="midnightblue" stroke="midnightblue" points="458.9,-68.2873 448.529,-70.4513 457.986,-75.2274 458.9,-68.2873"/>
</g>
<!-- Node14&#45;&gt;Node8 -->
<g id="edge20" class="edge"><title>Node14&#45;&gt;Node8</title>
<path fill="none" stroke="midnightblue" d="M567.841,-168.287C579.68,-160.04 596.856,-146.752 608.5,-132 634.189,-99.4539 653.017,-54.1368 662.205,-29.2208"/>
<polygon fill="midnightblue" stroke="midnightblue" points="665.571,-30.2018 665.642,-19.6072 658.98,-27.8454 665.571,-30.2018"/>
</g>
<!-- Node14&#45;&gt;Node12 -->
<g id="edge18" class="edge"><title>Node14&#45;&gt;Node12</title>
<path fill="none" stroke="midnightblue" d="M541.968,-168.324C529.914,-159.979 511.473,-147.212 497.231,-137.352"/>
<polygon fill="midnightblue" stroke="midnightblue" points="499.215,-134.469 489.001,-131.655 495.231,-140.224 499.215,-134.469"/>
</g>
<!-- Node15 -->
<g id="node15" class="node"><title>Node15</title>
<g id="a_node15"><a xlink:href="../../d6/d52/ciperror_8h.html" target="_top" xlink:title="ciperror.h">
<polygon fill="none" stroke="black" points="526,-112.5 526,-131.5 583,-131.5 583,-112.5 526,-112.5"/>
<text text-anchor="middle" x="554.5" y="-119.5" font-family="Helvetica,sans-Serif" font-size="10.00">ciperror.h</text>
</a>
</g>
</g>
<!-- Node14&#45;&gt;Node15 -->
<g id="edge19" class="edge"><title>Node14&#45;&gt;Node15</title>
<path fill="none" stroke="midnightblue" d="M554.5,-168.083C554.5,-161.006 554.5,-150.861 554.5,-141.986"/>
<polygon fill="midnightblue" stroke="midnightblue" points="558,-141.751 554.5,-131.751 551,-141.751 558,-141.751"/>
</g>
<!-- Node16&#45;&gt;Node7 -->
<g id="edge24" class="edge"><title>Node16&#45;&gt;Node7</title>
<path fill="none" stroke="midnightblue" d="M336.924,-112.324C352.04,-103.822 375.315,-90.7288 392.971,-80.7975"/>
<polygon fill="midnightblue" stroke="midnightblue" points="395.114,-83.6077 402.114,-75.6545 391.683,-77.5066 395.114,-83.6077"/>
</g>
<!-- Node17&#45;&gt;Node8 -->
<g id="edge26" class="edge"><title>Node17&#45;&gt;Node8</title>
<path fill="none" stroke="midnightblue" d="M728.093,-56.324C717.391,-48.1849 701.159,-35.8395 688.337,-26.0874"/>
<polygon fill="midnightblue" stroke="midnightblue" points="690.193,-23.1018 680.115,-19.8339 685.956,-28.6734 690.193,-23.1018"/>
</g>
</g>
</svg>
