<?xml version="1.0" encoding="UTF-8" standalone="no"?>
<!DOCTYPE svg PUBLIC "-//W3C//DTD SVG 1.1//EN"
 "http://www.w3.org/Graphics/SVG/1.1/DTD/svg11.dtd">
<!-- Generated by graphviz version 2.26.3 (20100126.1600)
 -->
<!-- Title: G Pages: 1 -->
<svg width="338pt" height="30pt"
 viewBox="0.00 0.00 338.00 30.00" xmlns="http://www.w3.org/2000/svg" xmlns:xlink="http://www.w3.org/1999/xlink">
<g id="graph1" class="graph" transform="scale(1 1) rotate(0) translate(4 26)">
<title>G</title>
<!-- Node1 -->
<g id="node1" class="node"><title>Node1</title>
<polygon fill="#bfbfbf" stroke="black" points="0.5,-0.5 0.5,-21.5 97.5,-21.5 97.5,-0.5 0.5,-0.5"/>
<text text-anchor="middle" x="49" y="-8.5" font-family="Helvetica,sans-Serif" font-size="10.00">InitializeCipIdentiy</text>
</g>
<!-- Node2 -->
<g id="node3" class="node"><title>Node2</title>
<a xlink:href="../../d2/dc9/group__CIP__API.html#gac207feb53c1f98b45f3934bbea63d618" target="_top" xlink:title="Insert an attribute in an instance of a CIP class.">
<polygon fill="none" stroke="black" points="134,-0.5 134,-21.5 212,-21.5 212,-0.5 134,-0.5"/>
<text text-anchor="middle" x="173" y="-8.5" font-family="Helvetica,sans-Serif" font-size="10.00">InsertAttribute</text>
</a>
</g>
<!-- Node1&#45;&gt;Node2 -->
<g id="edge2" class="edge"><title>Node1&#45;&gt;Node2</title>
<path fill="none" stroke="midnightblue" d="M97.6522,-11C106.142,-11 114.982,-11 123.495,-11"/>
<polygon fill="midnightblue" stroke="midnightblue" points="123.67,-14.5001 133.67,-11 123.67,-7.5001 123.67,-14.5001"/>
</g>
<!-- Node3 -->
<g id="node5" class="node"><title>Node3</title>
<a xlink:href="../../d2/dc9/group__CIP__API.html#ga1eb3004bbf086b276500e1d6e7a2f677" target="_top" xlink:title="Calculates Byte&#45;Index of Attribute.">
<polygon fill="none" stroke="black" points="248,-0.5 248,-21.5 330,-21.5 330,-0.5 248,-0.5"/>
<text text-anchor="middle" x="289" y="-8.5" font-family="Helvetica,sans-Serif" font-size="10.00">CalculateIndex</text>
</a>
</g>
<!-- Node2&#45;&gt;Node3 -->
<g id="edge4" class="edge"><title>Node2&#45;&gt;Node3</title>
<path fill="none" stroke="midnightblue" d="M212.272,-11C220.403,-11 229.084,-11 237.574,-11"/>
<polygon fill="midnightblue" stroke="midnightblue" points="237.786,-14.5001 247.786,-11 237.786,-7.5001 237.786,-14.5001"/>
</g>
</g>
</svg>
