<?xml version="1.0" encoding="UTF-8" standalone="no"?>
<!DOCTYPE svg PUBLIC "-//W3C//DTD SVG 1.1//EN"
 "http://www.w3.org/Graphics/SVG/1.1/DTD/svg11.dtd">
<!-- Generated by graphviz version 2.36.0 (20140111.2315)
 -->
<!-- Title: src/cip/cipepath.c Pages: 1 -->
<svg width="420pt" height="252pt"
 viewBox="0.00 0.00 420.19 252.00" xmlns="http://www.w3.org/2000/svg" xmlns:xlink="http://www.w3.org/1999/xlink">
<g id="graph0" class="graph" transform="scale(1 1) rotate(0) translate(4 248)">
<title>src/cip/cipepath.c</title>
<!-- Node1 -->
<g id="node1" class="node"><title>Node1</title>
<polygon fill="#bfbfbf" stroke="black" points="130,-224.5 130,-243.5 224,-243.5 224,-224.5 130,-224.5"/>
<text text-anchor="middle" x="177" y="-231.5" font-family="Helvetica,sans-Serif" font-size="10.00">src/cip/cipepath.c</text>
</g>
<!-- Node2 -->
<g id="node2" class="node"><title>Node2</title>
<polygon fill="none" stroke="#bfbfbf" points="0,-0.5 0,-19.5 56,-19.5 56,-0.5 0,-0.5"/>
<text text-anchor="middle" x="28" y="-7.5" font-family="Helvetica,sans-Serif" font-size="10.00">stdbool.h</text>
</g>
<!-- Node1&#45;&gt;Node2 -->
<g id="edge1" class="edge"><title>Node1&#45;&gt;Node2</title>
<path fill="none" stroke="midnightblue" d="M133.419,-224.438C109.208,-217.849 79.8563,-206.614 59,-188 13.8451,-147.7 19.3261,-66.8293 24.629,-30.0235"/>
<polygon fill="midnightblue" stroke="midnightblue" points="28.1522,-30.1573 26.28,-19.7292 21.2405,-29.0487 28.1522,-30.1573"/>
</g>
<!-- Node3 -->
<g id="node3" class="node"><title>Node3</title>
<polygon fill="none" stroke="#bfbfbf" points="290,-168.5 290,-187.5 338,-187.5 338,-168.5 290,-168.5"/>
<text text-anchor="middle" x="314" y="-175.5" font-family="Helvetica,sans-Serif" font-size="10.00">stdlib.h</text>
</g>
<!-- Node1&#45;&gt;Node3 -->
<g id="edge2" class="edge"><title>Node1&#45;&gt;Node3</title>
<path fill="none" stroke="midnightblue" d="M198.708,-224.444C221.355,-215.517 257.072,-201.439 282.752,-191.317"/>
<polygon fill="midnightblue" stroke="midnightblue" points="284.374,-194.44 292.394,-187.516 281.807,-187.927 284.374,-194.44"/>
</g>
<!-- Node4 -->
<g id="node4" class="node"><title>Node4</title>
<g id="a_node4"><a xlink:href="../../d1/d02/cipepath_8h.html" target="_top" xlink:title="cipepath.h">
<polygon fill="none" stroke="black" points="68,-168.5 68,-187.5 130,-187.5 130,-168.5 68,-168.5"/>
<text text-anchor="middle" x="99" y="-175.5" font-family="Helvetica,sans-Serif" font-size="10.00">cipepath.h</text>
</a>
</g>
</g>
<!-- Node1&#45;&gt;Node4 -->
<g id="edge3" class="edge"><title>Node1&#45;&gt;Node4</title>
<path fill="none" stroke="midnightblue" d="M164.468,-224.324C152.414,-215.979 133.973,-203.212 119.731,-193.352"/>
<polygon fill="midnightblue" stroke="midnightblue" points="121.715,-190.469 111.501,-187.655 117.731,-196.224 121.715,-190.469"/>
</g>
<!-- Node12 -->
<g id="node12" class="node"><title>Node12</title>
<g id="a_node12"><a xlink:href="../../d0/d23/cipelectronickey_8h.html" target="_top" xlink:title="cipelectronickey.h">
<polygon fill="none" stroke="black" points="51.5,-112.5 51.5,-131.5 146.5,-131.5 146.5,-112.5 51.5,-112.5"/>
<text text-anchor="middle" x="99" y="-119.5" font-family="Helvetica,sans-Serif" font-size="10.00">cipelectronickey.h</text>
</a>
</g>
</g>
<!-- Node1&#45;&gt;Node12 -->
<g id="edge19" class="edge"><title>Node1&#45;&gt;Node12</title>
<path fill="none" stroke="midnightblue" d="M172.405,-224.286C165.536,-211.523 151.903,-187.179 138,-168 130.719,-157.956 121.694,-147.44 114.161,-139.102"/>
<polygon fill="midnightblue" stroke="midnightblue" points="116.592,-136.575 107.244,-131.588 111.442,-141.316 116.592,-136.575"/>
</g>
<!-- Node13 -->
<g id="node13" class="node"><title>Node13</title>
<g id="a_node13"><a xlink:href="../../d0/dec/endianconv_8h.html" target="_top" xlink:title="Responsible for Endianess conversion. ">
<polygon fill="none" stroke="black" points="165,-112.5 165,-131.5 239,-131.5 239,-112.5 165,-112.5"/>
<text text-anchor="middle" x="202" y="-119.5" font-family="Helvetica,sans-Serif" font-size="10.00">endianconv.h</text>
</a>
</g>
</g>
<!-- Node1&#45;&gt;Node13 -->
<g id="edge17" class="edge"><title>Node1&#45;&gt;Node13</title>
<path fill="none" stroke="midnightblue" d="M178.962,-224.368C182.996,-206.617 192.303,-165.666 197.773,-141.597"/>
<polygon fill="midnightblue" stroke="midnightblue" points="201.244,-142.118 200.047,-131.591 194.418,-140.567 201.244,-142.118"/>
</g>
<!-- Node14 -->
<g id="node14" class="node"><title>Node14</title>
<g id="a_node14"><a xlink:href="../../d1/d1b/trace_8h.html" target="_top" xlink:title="Tracing infrastructure for OpENer. ">
<polygon fill="none" stroke="black" points="224.5,-168.5 224.5,-187.5 271.5,-187.5 271.5,-168.5 224.5,-168.5"/>
<text text-anchor="middle" x="248" y="-175.5" font-family="Helvetica,sans-Serif" font-size="10.00">trace.h</text>
</a>
</g>
</g>
<!-- Node1&#45;&gt;Node14 -->
<g id="edge20" class="edge"><title>Node1&#45;&gt;Node14</title>
<path fill="none" stroke="midnightblue" d="M188.407,-224.324C199.109,-216.185 215.341,-203.839 228.163,-194.087"/>
<polygon fill="midnightblue" stroke="midnightblue" points="230.544,-196.673 236.385,-187.834 226.307,-191.102 230.544,-196.673"/>
</g>
<!-- Node4&#45;&gt;Node2 -->
<g id="edge4" class="edge"><title>Node4&#45;&gt;Node2</title>
<path fill="none" stroke="midnightblue" d="M81.9791,-168.431C68.7212,-160.79 51.0906,-148.296 42,-132 23.9457,-99.6358 24.0491,-54.8792 25.9108,-29.8632"/>
<polygon fill="midnightblue" stroke="midnightblue" points="29.425,-29.871 26.8625,-19.5908 22.4549,-29.2252 29.425,-29.871"/>
</g>
<!-- Node5 -->
<g id="node5" class="node"><title>Node5</title>
<g id="a_node5"><a xlink:href="../../df/d28/ciptypes_8h.html" target="_top" xlink:title="ciptypes.h">
<polygon fill="none" stroke="black" points="257,-112.5 257,-131.5 319,-131.5 319,-112.5 257,-112.5"/>
<text text-anchor="middle" x="288" y="-119.5" font-family="Helvetica,sans-Serif" font-size="10.00">ciptypes.h</text>
</a>
</g>
</g>
<!-- Node4&#45;&gt;Node5 -->
<g id="edge5" class="edge"><title>Node4&#45;&gt;Node5</title>
<path fill="none" stroke="midnightblue" d="M128.948,-168.444C161.158,-159.241 212.534,-144.562 248.142,-134.388"/>
<polygon fill="midnightblue" stroke="midnightblue" points="249.539,-137.629 258.192,-131.516 247.616,-130.898 249.539,-137.629"/>
</g>
<!-- Node4&#45;&gt;Node12 -->
<g id="edge14" class="edge"><title>Node4&#45;&gt;Node12</title>
<path fill="none" stroke="midnightblue" d="M99,-168.083C99,-161.006 99,-150.861 99,-141.986"/>
<polygon fill="midnightblue" stroke="midnightblue" points="102.5,-141.751 99,-131.751 95.5001,-141.751 102.5,-141.751"/>
</g>
<!-- Node6 -->
<g id="node6" class="node"><title>Node6</title>
<g id="a_node6"><a xlink:href="../../d7/d69/typedefs_8h.html" target="_top" xlink:title="typedefs.h">
<polygon fill="none" stroke="black" points="89,-56.5 89,-75.5 151,-75.5 151,-56.5 89,-56.5"/>
<text text-anchor="middle" x="120" y="-63.5" font-family="Helvetica,sans-Serif" font-size="10.00">typedefs.h</text>
</a>
</g>
</g>
<!-- Node5&#45;&gt;Node6 -->
<g id="edge6" class="edge"><title>Node5&#45;&gt;Node6</title>
<path fill="none" stroke="midnightblue" d="M261.38,-112.444C232.994,-103.32 187.863,-88.8133 156.247,-78.6509"/>
<polygon fill="midnightblue" stroke="midnightblue" points="157.087,-75.2445 146.496,-75.5164 154.945,-81.9087 157.087,-75.2445"/>
</g>
<!-- Node9 -->
<g id="node9" class="node"><title>Node9</title>
<polygon fill="none" stroke="#bfbfbf" points="169.5,-56.5 169.5,-75.5 260.5,-75.5 260.5,-56.5 169.5,-56.5"/>
<text text-anchor="middle" x="215" y="-63.5" font-family="Helvetica,sans-Serif" font-size="10.00">networkhandler.h</text>
</g>
<!-- Node5&#45;&gt;Node9 -->
<g id="edge10" class="edge"><title>Node5&#45;&gt;Node9</title>
<path fill="none" stroke="midnightblue" d="M276.271,-112.324C265.163,-104.107 248.258,-91.6017 235.017,-81.8069"/>
<polygon fill="midnightblue" stroke="midnightblue" points="237.063,-78.9671 226.942,-75.8339 232.9,-84.5948 237.063,-78.9671"/>
</g>
<!-- Node10 -->
<g id="node10" class="node"><title>Node10</title>
<g id="a_node10"><a xlink:href="../../d8/d2c/enipmessage_8h.html" target="_top" xlink:title="enipmessage.h">
<polygon fill="none" stroke="black" points="317.5,-56.5 317.5,-75.5 400.5,-75.5 400.5,-56.5 317.5,-56.5"/>
<text text-anchor="middle" x="359" y="-63.5" font-family="Helvetica,sans-Serif" font-size="10.00">enipmessage.h</text>
</a>
</g>
</g>
<!-- Node5&#45;&gt;Node10 -->
<g id="edge11" class="edge"><title>Node5&#45;&gt;Node10</title>
<path fill="none" stroke="midnightblue" d="M299.407,-112.324C310.109,-104.185 326.341,-91.8395 339.163,-82.0874"/>
<polygon fill="midnightblue" stroke="midnightblue" points="341.544,-84.6734 347.385,-75.8339 337.307,-79.1018 341.544,-84.6734"/>
</g>
<!-- Node11 -->
<g id="node11" class="node"><title>Node11</title>
<polygon fill="none" stroke="#bfbfbf" points="308,-0.5 308,-19.5 410,-19.5 410,-0.5 308,-0.5"/>
<text text-anchor="middle" x="359" y="-7.5" font-family="Helvetica,sans-Serif" font-size="10.00">opener_user_conf.h</text>
</g>
<!-- Node5&#45;&gt;Node11 -->
<g id="edge13" class="edge"><title>Node5&#45;&gt;Node11</title>
<path fill="none" stroke="midnightblue" d="M289.126,-112.372C291.155,-99.2908 296.347,-74.0544 308,-56 315.604,-44.2187 327.127,-33.6846 337.298,-25.7755"/>
<polygon fill="midnightblue" stroke="midnightblue" points="339.447,-28.5392 345.407,-19.7796 335.285,-22.9107 339.447,-28.5392"/>
</g>
<!-- Node6&#45;&gt;Node2 -->
<g id="edge9" class="edge"><title>Node6&#45;&gt;Node2</title>
<path fill="none" stroke="midnightblue" d="M105.219,-56.324C90.7329,-47.8215 68.4269,-34.7288 51.5068,-24.7975"/>
<polygon fill="midnightblue" stroke="midnightblue" points="53.1406,-21.6981 42.7447,-19.6545 49.5972,-27.735 53.1406,-21.6981"/>
</g>
<!-- Node7 -->
<g id="node7" class="node"><title>Node7</title>
<polygon fill="none" stroke="#bfbfbf" points="80.5,-0.5 80.5,-19.5 139.5,-19.5 139.5,-0.5 80.5,-0.5"/>
<text text-anchor="middle" x="110" y="-7.5" font-family="Helvetica,sans-Serif" font-size="10.00">inttypes.h</text>
</g>
<!-- Node6&#45;&gt;Node7 -->
<g id="edge7" class="edge"><title>Node6&#45;&gt;Node7</title>
<path fill="none" stroke="midnightblue" d="M118.349,-56.083C117.024,-48.9272 115.118,-38.6353 113.461,-29.6911"/>
<polygon fill="midnightblue" stroke="midnightblue" points="116.883,-28.9466 111.621,-19.7511 110,-30.2212 116.883,-28.9466"/>
</g>
<!-- Node8 -->
<g id="node8" class="node"><title>Node8</title>
<polygon fill="none" stroke="#bfbfbf" points="158,-0.5 158,-19.5 210,-19.5 210,-0.5 158,-0.5"/>
<text text-anchor="middle" x="184" y="-7.5" font-family="Helvetica,sans-Serif" font-size="10.00">stddef.h</text>
</g>
<!-- Node6&#45;&gt;Node8 -->
<g id="edge8" class="edge"><title>Node6&#45;&gt;Node8</title>
<path fill="none" stroke="midnightblue" d="M130.283,-56.324C139.836,-48.2631 154.28,-36.0765 165.784,-26.3695"/>
<polygon fill="midnightblue" stroke="midnightblue" points="168.144,-28.9577 173.53,-19.8339 163.63,-23.6076 168.144,-28.9577"/>
</g>
<!-- Node10&#45;&gt;Node11 -->
<g id="edge12" class="edge"><title>Node10&#45;&gt;Node11</title>
<path fill="none" stroke="midnightblue" d="M359,-56.083C359,-49.0059 359,-38.8611 359,-29.9865"/>
<polygon fill="midnightblue" stroke="midnightblue" points="362.5,-29.751 359,-19.7511 355.5,-29.7511 362.5,-29.751"/>
</g>
<!-- Node12&#45;&gt;Node2 -->
<g id="edge15" class="edge"><title>Node12&#45;&gt;Node2</title>
<path fill="none" stroke="midnightblue" d="M93.4287,-112.368C81.7636,-94.2957 54.5775,-52.1764 39.1711,-28.3074"/>
<polygon fill="midnightblue" stroke="midnightblue" points="41.9091,-26.0952 33.5454,-19.5914 36.0278,-29.8913 41.9091,-26.0952"/>
</g>
<!-- Node12&#45;&gt;Node6 -->
<g id="edge16" class="edge"><title>Node12&#45;&gt;Node6</title>
<path fill="none" stroke="midnightblue" d="M102.468,-112.083C105.312,-104.77 109.429,-94.1814 112.96,-85.1034"/>
<polygon fill="midnightblue" stroke="midnightblue" points="116.234,-86.3397 116.597,-75.7511 109.71,-83.8025 116.234,-86.3397"/>
</g>
<!-- Node13&#45;&gt;Node6 -->
<g id="edge18" class="edge"><title>Node13&#45;&gt;Node6</title>
<path fill="none" stroke="midnightblue" d="M188.825,-112.324C176.153,-103.979 156.767,-91.2122 141.794,-81.3524"/>
<polygon fill="midnightblue" stroke="midnightblue" points="143.419,-78.2313 133.142,-75.6545 139.569,-84.0776 143.419,-78.2313"/>
</g>
<!-- Node14&#45;&gt;Node11 -->
<g id="edge21" class="edge"><title>Node14&#45;&gt;Node11</title>
<path fill="none" stroke="midnightblue" d="M271.706,-170.459C309.111,-158.687 380.498,-129.98 409,-76 419.055,-56.9578 399.775,-37.7272 382.314,-25.1778"/>
<polygon fill="midnightblue" stroke="midnightblue" points="384.271,-22.2766 374.024,-19.584 380.356,-28.079 384.271,-22.2766"/>
</g>
</g>
</svg>
