<?xml version="1.0" encoding="UTF-8" standalone="no"?>
<!DOCTYPE svg PUBLIC "-//W3C//DTD SVG 1.1//EN"
 "http://www.w3.org/Graphics/SVG/1.1/DTD/svg11.dtd">
<!-- Generated by graphviz version 2.38.0 (20140413.2041)
 -->
<!-- Title: src/ports/WIN32/main.c Pages: 1 -->
<!--zoomable 252 -->
<svg id="main" version="1.1" xmlns="http://www.w3.org/2000/svg" xmlns:xlink="http://www.w3.org/1999/xlink" xml:space="preserve" onload="init(evt)">
<style type="text/css"><![CDATA[
.edge:hover path { stroke: red; }
.edge:hover polygon { stroke: red; fill: red; }
]]></style>
<script type="text/javascript"><![CDATA[
var edges = document.getElementsByTagName('g');
if (edges && edges.length) {
  for (var i=0;i<edges.length;i++) {
    if (edges[i].id.substr(0,4)=='edge') {
      edges[i].setAttribute('class','edge');
    }
  }
}
]]></script>
        <defs>
                <circle id="rim" cx="0" cy="0" r="7"/>
                <circle id="rim2" cx="0" cy="0" r="3.5"/>
                <g id="zoomPlus">
                        <use xlink:href="#rim" fill="#404040">
                                <set attributeName="fill" to="#808080" begin="zoomplus.mouseover" end="zoomplus.mouseout"/>
                        </use>
                        <path d="M-4,0h8M0,-4v8" fill="none" stroke="white" stroke-width="1.5" pointer-events="none"/>
                </g>
                <g id="zoomMin">
                        <use xlink:href="#rim" fill="#404040">
                                <set attributeName="fill" to="#808080" begin="zoomminus.mouseover" end="zoomminus.mouseout"/>
                        </use>
                        <path d="M-4,0h8" fill="none" stroke="white" stroke-width="1.5" pointer-events="none"/>
                </g>
                <g id="dirArrow">
                        <path fill="none" stroke="white" stroke-width="1.5" d="M0,-3.0v7 M-2.5,-0.5L0,-3.0L2.5,-0.5"/>
                </g>
               <g id="resetDef">
                       <use xlink:href="#rim2" fill="#404040">
                               <set attributeName="fill" to="#808080" begin="reset.mouseover" end="reset.mouseout"/>
                       </use>
               </g>
        </defs>

<script type="text/javascript">
var viewWidth = 502;
var viewHeight = 252;
var sectionId = 'dynsection-0';
</script>
<script xlink:href="../../svgpan.js"/>
<svg id="graph" class="graph">
<g id="viewport">
<title>src/ports/WIN32/main.c</title>
<!-- Node1 -->
<g id="node1" class="node"><title>Node1</title>
<polygon fill="#bfbfbf" stroke="black" points="147.5,-224.5 147.5,-243.5 268.5,-243.5 268.5,-224.5 147.5,-224.5"/>
<text text-anchor="middle" x="208" y="-231.5" font-family="Helvetica,sans-Serif" font-size="10.00">src/ports/WIN32/main.c</text>
</g>
<!-- Node2 -->
<g id="node2" class="node"><title>Node2</title>
<polygon fill="none" stroke="#bfbfbf" points="0,-168.5 0,-187.5 46,-187.5 46,-168.5 0,-168.5"/>
<text text-anchor="middle" x="23" y="-175.5" font-family="Helvetica,sans-Serif" font-size="10.00">stdio.h</text>
</g>
<!-- Node1&#45;&gt;Node2 -->
<g id="edge1" class="edge"><title>Node1&#45;&gt;Node2</title>
<path fill="none" stroke="midnightblue" d="M178.686,-224.444C145.21,-214.672 90.5849,-198.727 55.7406,-188.557"/>
<polygon fill="midnightblue" stroke="midnightblue" points="56.6197,-185.167 46.0396,-185.725 54.6583,-191.887 56.6197,-185.167"/>
</g>
<!-- Node3 -->
<g id="node3" class="node"><title>Node3</title>
<polygon fill="none" stroke="#bfbfbf" points="64,-168.5 64,-187.5 112,-187.5 112,-168.5 64,-168.5"/>
<text text-anchor="middle" x="88" y="-175.5" font-family="Helvetica,sans-Serif" font-size="10.00">stdlib.h</text>
</g>
<!-- Node1&#45;&gt;Node3 -->
<g id="edge2" class="edge"><title>Node1&#45;&gt;Node3</title>
<path fill="none" stroke="midnightblue" d="M188.986,-224.444C169.412,-215.636 138.692,-201.812 116.271,-191.722"/>
<polygon fill="midnightblue" stroke="midnightblue" points="117.481,-188.428 106.925,-187.516 114.608,-194.812 117.481,-188.428"/>
</g>
<!-- Node4 -->
<g id="node4" class="node"><title>Node4</title>
<polygon fill="none" stroke="#bfbfbf" points="130,-168.5 130,-187.5 180,-187.5 180,-168.5 130,-168.5"/>
<text text-anchor="middle" x="155" y="-175.5" font-family="Helvetica,sans-Serif" font-size="10.00">signal.h</text>
</g>
<!-- Node1&#45;&gt;Node4 -->
<g id="edge3" class="edge"><title>Node1&#45;&gt;Node4</title>
<path fill="none" stroke="midnightblue" d="M199.248,-224.083C191.53,-216.22 180.095,-204.569 170.783,-195.081"/>
<polygon fill="midnightblue" stroke="midnightblue" points="173.092,-192.436 163.589,-187.751 168.096,-197.34 173.092,-192.436"/>
</g>
<!-- Node5 -->
<g id="node5" class="node"><title>Node5</title>
<g id="a_node5"><a xlink:href="../../dd/dc7/WIN32_2networkhandler_8h.html" target="_top" xlink:title="networkhandler.h">
<polygon fill="none" stroke="black" points="111.5,-112.5 111.5,-131.5 202.5,-131.5 202.5,-112.5 111.5,-112.5"/>
<text text-anchor="middle" x="157" y="-119.5" font-family="Helvetica,sans-Serif" font-size="10.00">networkhandler.h</text>
</a>
</g>
</g>
<!-- Node1&#45;&gt;Node5 -->
<g id="edge4" class="edge"><title>Node1&#45;&gt;Node5</title>
<path fill="none" stroke="midnightblue" d="M206.411,-224.251C203.873,-211.442 198.229,-187.044 189,-168 184.149,-157.99 177.122,-147.81 170.887,-139.67"/>
<polygon fill="midnightblue" stroke="midnightblue" points="173.542,-137.384 164.574,-131.742 168.066,-141.745 173.542,-137.384"/>
</g>
<!-- Node10 -->
<g id="node10" class="node"><title>Node10</title>
<g id="a_node10"><a xlink:href="../../d4/d38/opener__api_8h.html" target="_top" xlink:title="opener_api.h">
<polygon fill="none" stroke="black" points="330,-168.5 330,-187.5 402,-187.5 402,-168.5 330,-168.5"/>
<text text-anchor="middle" x="366" y="-175.5" font-family="Helvetica,sans-Serif" font-size="10.00">opener_api.h</text>
</a>
</g>
</g>
<!-- Node1&#45;&gt;Node10 -->
<g id="edge9" class="edge"><title>Node1&#45;&gt;Node10</title>
<path fill="none" stroke="midnightblue" d="M233.036,-224.444C259.616,-215.359 301.809,-200.939 331.523,-190.783"/>
<polygon fill="midnightblue" stroke="midnightblue" points="332.751,-194.062 341.082,-187.516 330.487,-187.439 332.751,-194.062"/>
</g>
<!-- Node13 -->
<g id="node13" class="node"><title>Node13</title>
<g id="a_node13"><a xlink:href="../../db/d14/cipcommon_8h.html" target="_top" xlink:title="cipcommon.h">
<polygon fill="none" stroke="black" points="236.5,-168.5 236.5,-187.5 311.5,-187.5 311.5,-168.5 236.5,-168.5"/>
<text text-anchor="middle" x="274" y="-175.5" font-family="Helvetica,sans-Serif" font-size="10.00">cipcommon.h</text>
</a>
</g>
</g>
<!-- Node1&#45;&gt;Node13 -->
<g id="edge15" class="edge"><title>Node1&#45;&gt;Node13</title>
<path fill="none" stroke="midnightblue" d="M218.604,-224.324C228.456,-216.263 243.351,-204.077 255.215,-194.369"/>
<polygon fill="midnightblue" stroke="midnightblue" points="257.68,-196.875 263.203,-187.834 253.247,-191.457 257.68,-196.875"/>
</g>
<!-- Node14 -->
<g id="node14" class="node"><title>Node14</title>
<g id="a_node14"><a xlink:href="../../d1/d1b/trace_8h.html" target="_top" xlink:title="Tracing infrastructure for OpENer. ">
<polygon fill="none" stroke="black" points="446.5,-56.5 446.5,-75.5 493.5,-75.5 493.5,-56.5 446.5,-56.5"/>
<text text-anchor="middle" x="470" y="-63.5" font-family="Helvetica,sans-Serif" font-size="10.00">trace.h</text>
</a>
</g>
</g>
<!-- Node1&#45;&gt;Node14 -->
<g id="edge18" class="edge"><title>Node1&#45;&gt;Node14</title>
<path fill="none" stroke="midnightblue" d="M268.942,-226.742C310.519,-220.762 365.992,-209.353 411,-188 447.31,-170.773 464.465,-168.163 482,-132 489.182,-117.189 484.548,-98.5694 479.085,-85.0587"/>
<polygon fill="midnightblue" stroke="midnightblue" points="482.239,-83.5385 474.928,-75.8706 475.861,-86.4242 482.239,-83.5385"/>
</g>
<!-- Node6 -->
<g id="node6" class="node"><title>Node6</title>
<g id="a_node6"><a xlink:href="../../d7/d69/typedefs_8h.html" target="_top" xlink:title="typedefs.h">
<polygon fill="none" stroke="black" points="259,-56.5 259,-75.5 321,-75.5 321,-56.5 259,-56.5"/>
<text text-anchor="middle" x="290" y="-63.5" font-family="Helvetica,sans-Serif" font-size="10.00">typedefs.h</text>
</a>
</g>
</g>
<!-- Node5&#45;&gt;Node6 -->
<g id="edge5" class="edge"><title>Node5&#45;&gt;Node6</title>
<path fill="none" stroke="midnightblue" d="M178.074,-112.444C200.06,-103.517 234.734,-89.4387 259.664,-79.3168"/>
<polygon fill="midnightblue" stroke="midnightblue" points="261.076,-82.5213 269.024,-75.5164 258.442,-76.0355 261.076,-82.5213"/>
</g>
<!-- Node7 -->
<g id="node7" class="node"><title>Node7</title>
<polygon fill="none" stroke="#bfbfbf" points="336,-0.5 336,-19.5 438,-19.5 438,-0.5 336,-0.5"/>
<text text-anchor="middle" x="387" y="-7.5" font-family="Helvetica,sans-Serif" font-size="10.00">opener_user_conf.h</text>
</g>
<!-- Node6&#45;&gt;Node7 -->
<g id="edge6" class="edge"><title>Node6&#45;&gt;Node7</title>
<path fill="none" stroke="midnightblue" d="M305.585,-56.324C320.999,-47.7428 344.812,-34.486 362.71,-24.5224"/>
<polygon fill="midnightblue" stroke="midnightblue" points="364.419,-27.5767 371.454,-19.6545 361.014,-21.4606 364.419,-27.5767"/>
</g>
<!-- Node8 -->
<g id="node8" class="node"><title>Node8</title>
<polygon fill="none" stroke="#bfbfbf" points="187.5,-0.5 187.5,-19.5 246.5,-19.5 246.5,-0.5 187.5,-0.5"/>
<text text-anchor="middle" x="217" y="-7.5" font-family="Helvetica,sans-Serif" font-size="10.00">inttypes.h</text>
</g>
<!-- Node6&#45;&gt;Node8 -->
<g id="edge7" class="edge"><title>Node6&#45;&gt;Node8</title>
<path fill="none" stroke="midnightblue" d="M278.271,-56.324C267.163,-48.1066 250.258,-35.6017 237.017,-25.8069"/>
<polygon fill="midnightblue" stroke="midnightblue" points="239.063,-22.9671 228.942,-19.8339 234.9,-28.5948 239.063,-22.9671"/>
</g>
<!-- Node9 -->
<g id="node9" class="node"><title>Node9</title>
<polygon fill="none" stroke="#bfbfbf" points="265,-0.5 265,-19.5 317,-19.5 317,-0.5 265,-0.5"/>
<text text-anchor="middle" x="291" y="-7.5" font-family="Helvetica,sans-Serif" font-size="10.00">stddef.h</text>
</g>
<!-- Node6&#45;&gt;Node9 -->
<g id="edge8" class="edge"><title>Node6&#45;&gt;Node9</title>
<path fill="none" stroke="midnightblue" d="M290.165,-56.083C290.296,-49.0059 290.484,-38.8611 290.648,-29.9865"/>
<polygon fill="midnightblue" stroke="midnightblue" points="294.152,-29.8142 290.838,-19.7511 287.153,-29.6845 294.152,-29.8142"/>
</g>
<!-- Node10&#45;&gt;Node6 -->
<g id="edge10" class="edge"><title>Node10&#45;&gt;Node6</title>
<path fill="none" stroke="midnightblue" d="M361.914,-168.225C355.766,-155.386 343.42,-130.949 330,-112 322.841,-101.892 313.739,-91.4994 306.027,-83.252"/>
<polygon fill="midnightblue" stroke="midnightblue" points="308.345,-80.6121 298.901,-75.8094 303.289,-85.4531 308.345,-80.6121"/>
</g>
<!-- Node10&#45;&gt;Node7 -->
<g id="edge14" class="edge"><title>Node10&#45;&gt;Node7</title>
<path fill="none" stroke="midnightblue" d="M367.129,-168.075C370.435,-141.945 380.142,-65.2106 384.65,-29.577"/>
<polygon fill="midnightblue" stroke="midnightblue" points="388.133,-29.9283 385.916,-19.5681 381.189,-29.0497 388.133,-29.9283"/>
</g>
<!-- Node11 -->
<g id="node11" class="node"><title>Node11</title>
<g id="a_node11"><a xlink:href="../../df/d28/ciptypes_8h.html" target="_top" xlink:title="ciptypes.h">
<polygon fill="none" stroke="black" points="259,-112.5 259,-131.5 321,-131.5 321,-112.5 259,-112.5"/>
<text text-anchor="middle" x="290" y="-119.5" font-family="Helvetica,sans-Serif" font-size="10.00">ciptypes.h</text>
</a>
</g>
</g>
<!-- Node10&#45;&gt;Node11 -->
<g id="edge11" class="edge"><title>Node10&#45;&gt;Node11</title>
<path fill="none" stroke="midnightblue" d="M353.789,-168.324C342.224,-160.107 324.625,-147.602 310.839,-137.807"/>
<polygon fill="midnightblue" stroke="midnightblue" points="312.612,-134.773 302.433,-131.834 308.557,-140.479 312.612,-134.773"/>
</g>
<!-- Node12 -->
<g id="node12" class="node"><title>Node12</title>
<g id="a_node12"><a xlink:href="../../d6/d52/ciperror_8h.html" target="_top" xlink:title="ciperror.h">
<polygon fill="none" stroke="black" points="415.5,-112.5 415.5,-131.5 472.5,-131.5 472.5,-112.5 415.5,-112.5"/>
<text text-anchor="middle" x="444" y="-119.5" font-family="Helvetica,sans-Serif" font-size="10.00">ciperror.h</text>
</a>
</g>
</g>
<!-- Node10&#45;&gt;Node12 -->
<g id="edge13" class="edge"><title>Node10&#45;&gt;Node12</title>
<path fill="none" stroke="midnightblue" d="M378.532,-168.324C390.586,-159.979 409.027,-147.212 423.269,-137.352"/>
<polygon fill="midnightblue" stroke="midnightblue" points="425.269,-140.224 431.499,-131.655 421.285,-134.469 425.269,-140.224"/>
</g>
<!-- Node11&#45;&gt;Node6 -->
<g id="edge12" class="edge"><title>Node11&#45;&gt;Node6</title>
<path fill="none" stroke="midnightblue" d="M290,-112.083C290,-105.006 290,-94.8611 290,-85.9865"/>
<polygon fill="midnightblue" stroke="midnightblue" points="293.5,-85.751 290,-75.7511 286.5,-85.7511 293.5,-85.751"/>
</g>
<!-- Node13&#45;&gt;Node6 -->
<g id="edge16" class="edge"><title>Node13&#45;&gt;Node6</title>
<path fill="none" stroke="midnightblue" d="M266.554,-168.149C256.966,-155.621 242.39,-132.015 250,-112 254.335,-100.598 263.031,-90.2394 271.21,-82.343"/>
<polygon fill="midnightblue" stroke="midnightblue" points="273.642,-84.8633 278.734,-75.5728 268.959,-79.6595 273.642,-84.8633"/>
</g>
<!-- Node13&#45;&gt;Node11 -->
<g id="edge17" class="edge"><title>Node13&#45;&gt;Node11</title>
<path fill="none" stroke="midnightblue" d="M276.642,-168.083C278.786,-160.849 281.879,-150.409 284.549,-141.397"/>
<polygon fill="midnightblue" stroke="midnightblue" points="287.922,-142.333 287.407,-131.751 281.21,-140.345 287.922,-142.333"/>
</g>
<!-- Node14&#45;&gt;Node7 -->
<g id="edge19" class="edge"><title>Node14&#45;&gt;Node7</title>
<path fill="none" stroke="midnightblue" d="M456.665,-56.324C443.838,-47.979 424.215,-35.2122 409.06,-25.3524"/>
<polygon fill="midnightblue" stroke="midnightblue" points="410.593,-22.1742 400.302,-19.6545 406.776,-28.0417 410.593,-22.1742"/>
</g>
</g>
</svg>
        <g id="navigator" transform="translate(0 0)" fill="#404254">
                <rect fill="#f2f5e9" fill-opacity="0.5" stroke="#606060" stroke-width=".5" x="0" y="0" width="60" height="60"/>
                <use id="zoomplus" xlink:href="#zoomPlus" x="17" y="9" onmousedown="handleZoom(evt,'in')"/>
                <use id="zoomminus" xlink:href="#zoomMin" x="42" y="9" onmousedown="handleZoom(evt,'out')"/>
                <use id="reset" xlink:href="#resetDef" x="30" y="36" onmousedown="handleReset()"/>
                <g id="arrowUp" xlink:href="#dirArrow" transform="translate(30 24)" onmousedown="handlePan(0,-1)">
                  <use xlink:href="#rim" fill="#404040">
                        <set attributeName="fill" to="#808080" begin="arrowUp.mouseover" end="arrowUp.mouseout"/>
                  </use>
                  <path fill="none" stroke="white" stroke-width="1.5" d="M0,-3.0v7 M-2.5,-0.5L0,-3.0L2.5,-0.5"/>
                </g>
                <g id="arrowRight" xlink:href="#dirArrow" transform="rotate(90) translate(36 -43)" onmousedown="handlePan(1,0)">
                  <use xlink:href="#rim" fill="#404040">
                        <set attributeName="fill" to="#808080" begin="arrowRight.mouseover" end="arrowRight.mouseout"/>
                  </use>
                  <path fill="none" stroke="white" stroke-width="1.5" d="M0,-3.0v7 M-2.5,-0.5L0,-3.0L2.5,-0.5"/>
                </g>
                <g id="arrowDown" xlink:href="#dirArrow" transform="rotate(180) translate(-30 -48)" onmousedown="handlePan(0,1)">
                  <use xlink:href="#rim" fill="#404040">
                        <set attributeName="fill" to="#808080" begin="arrowDown.mouseover" end="arrowDown.mouseout"/>
                  </use>
                  <path fill="none" stroke="white" stroke-width="1.5" d="M0,-3.0v7 M-2.5,-0.5L0,-3.0L2.5,-0.5"/>
                </g>
                <g id="arrowLeft" xlink:href="#dirArrow" transform="rotate(270) translate(-36 17)" onmousedown="handlePan(-1,0)">
                  <use xlink:href="#rim" fill="#404040">
                        <set attributeName="fill" to="#808080" begin="arrowLeft.mouseover" end="arrowLeft.mouseout"/>
                  </use>
                  <path fill="none" stroke="white" stroke-width="1.5" d="M0,-3.0v7 M-2.5,-0.5L0,-3.0L2.5,-0.5"/>
                </g>
        </g>
        <svg viewBox="0 0 15 15" width="100%" height="30px" preserveAspectRatio="xMaxYMin meet">
         <g id="arrow_out" transform="scale(0.3 0.3)">
          <a xlink:href="WIN32_2main_8c__incl_org.svg" target="_base">
           <rect id="button" ry="5" rx="5" y="6" x="6" height="38" width="38"
                fill="#f2f5e9" fill-opacity="0.5" stroke="#606060" stroke-width="1.0"/>
           <path id="arrow"
             d="M 11.500037,31.436501 C 11.940474,20.09759 22.043105,11.32322 32.158766,21.979434 L 37.068811,17.246167 C 37.068811,17.246167 37.088388,32 37.088388,32 L 22.160133,31.978069 C 22.160133,31.978069 26.997745,27.140456 26.997745,27.140456 C 18.528582,18.264221 13.291696,25.230495 11.500037,31.436501 z"
             style="fill:#404040;"/>
          </a>
         </g>
        </svg>
</svg>
