<?xml version="1.0" encoding="UTF-8" standalone="no"?>
<!DOCTYPE svg PUBLIC "-//W3C//DTD SVG 1.1//EN"
 "http://www.w3.org/Graphics/SVG/1.1/DTD/svg11.dtd">
<!-- Generated by graphviz version 2.36.0 (20140111.2315)
 -->
<!-- Title: GetRegisteredObject Pages: 1 -->
<!--zoomable 470 -->
<svg id="main" version="1.1" xmlns="http://www.w3.org/2000/svg" xmlns:xlink="http://www.w3.org/1999/xlink" xml:space="preserve" onload="init(evt)">
<style type="text/css"><![CDATA[
.edge:hover path { stroke: red; }
.edge:hover polygon { stroke: red; fill: red; }
]]></style>
<script type="text/javascript"><![CDATA[
var edges = document.getElementsByTagName('g');
if (edges && edges.length) {
  for (var i=0;i<edges.length;i++) {
    if (edges[i].id.substr(0,4)=='edge') {
      edges[i].setAttribute('class','edge');
    }
  }
}
]]></script>
        <defs>
                <circle id="rim" cx="0" cy="0" r="7"/>
                <circle id="rim2" cx="0" cy="0" r="3.5"/>
                <g id="zoomPlus">
                        <use xlink:href="#rim" fill="#404040">
                                <set attributeName="fill" to="#808080" begin="zoomplus.mouseover" end="zoomplus.mouseout"/>
                        </use>
                        <path d="M-4,0h8M0,-4v8" fill="none" stroke="white" stroke-width="1.5" pointer-events="none"/>
                </g>
                <g id="zoomMin">
                        <use xlink:href="#rim" fill="#404040">
                                <set attributeName="fill" to="#808080" begin="zoomminus.mouseover" end="zoomminus.mouseout"/>
                        </use>
                        <path d="M-4,0h8" fill="none" stroke="white" stroke-width="1.5" pointer-events="none"/>
                </g>
                <g id="dirArrow">
                        <path fill="none" stroke="white" stroke-width="1.5" d="M0,-3.0v7 M-2.5,-0.5L0,-3.0L2.5,-0.5"/>
                </g>
               <g id="resetDef">
                       <use xlink:href="#rim2" fill="#404040">
                               <set attributeName="fill" to="#808080" begin="reset.mouseover" end="reset.mouseout"/>
                       </use>
               </g>
        </defs>

<script type="text/javascript">
var viewWidth = 1260;
var viewHeight = 470;
var sectionId = 'dynsection-7';
</script>
<script xlink:href="../../svgpan.js"/>
<svg id="graph" class="graph">
<g id="viewport">
<title>GetRegisteredObject</title>
<!-- Node1 -->
<g id="node1" class="node"><title>Node1</title>
<polygon fill="#bfbfbf" stroke="black" points="0,-329.5 0,-348.5 108,-348.5 108,-329.5 0,-329.5"/>
<text text-anchor="middle" x="54" y="-336.5" font-family="Helvetica,sans-Serif" font-size="10.00">GetRegisteredObject</text>
</g>
<!-- Node2 -->
<g id="node2" class="node"><title>Node2</title>
<g id="a_node2"><a xlink:href="../../d2/dc9/group__CIP__API.html#ga98bd609c80ece316406363575b4a89ea" target="_top" xlink:title="Get a pointer to a CIP object with given class code. ">
<polygon fill="none" stroke="black" points="336.5,-154.5 336.5,-173.5 409.5,-173.5 409.5,-154.5 336.5,-154.5"/>
<text text-anchor="middle" x="373" y="-161.5" font-family="Helvetica,sans-Serif" font-size="10.00">GetCipClass</text>
</a>
</g>
</g>
<!-- Node1&#45;&gt;Node2 -->
<g id="edge1" class="edge"><title>Node1&#45;&gt;Node2</title>
<path fill="none" stroke="midnightblue" d="M81.4152,-324.417C144.369,-289.664 301.914,-202.691 354.559,-173.628"/>
<polygon fill="midnightblue" stroke="midnightblue" points="79.5579,-321.445 72.4948,-329.342 82.941,-327.573 79.5579,-321.445"/>
</g>
<!-- Node22 -->
<g id="node22" class="node"><title>Node22</title>
<g id="a_node22"><a xlink:href="../../d2/d75/cipmessagerouter_8h.html#a234c9436c4c2f2e9737b8bea98c4d83f" target="_top" xlink:title="Notify the MessageRouter that an explicit message (connected or unconnected) has been received...">
<polygon fill="none" stroke="black" points="144,-388.5 144,-407.5 256,-407.5 256,-388.5 144,-388.5"/>
<text text-anchor="middle" x="200" y="-395.5" font-family="Helvetica,sans-Serif" font-size="10.00">NotifyMessageRouter</text>
</a>
</g>
</g>
<!-- Node1&#45;&gt;Node22 -->
<g id="edge32" class="edge"><title>Node1&#45;&gt;Node22</title>
<path fill="none" stroke="midnightblue" d="M87.8009,-352.439C114.559,-363.403 151.708,-378.624 175.553,-388.393"/>
<polygon fill="midnightblue" stroke="midnightblue" points="89.037,-349.163 78.4566,-348.611 86.383,-355.641 89.037,-349.163"/>
</g>
<!-- Node3 -->
<g id="node3" class="node"><title>Node3</title>
<g id="a_node3"><a xlink:href="../../de/df4/cipassembly_8h.html#adcacd62b6a866c5c74c3cdda19598b98" target="_top" xlink:title="clean up the data allocated in the assembly object instances ">
<polygon fill="none" stroke="black" points="509.5,-344.5 509.5,-363.5 620.5,-363.5 620.5,-344.5 509.5,-344.5"/>
<text text-anchor="middle" x="565" y="-351.5" font-family="Helvetica,sans-Serif" font-size="10.00">ShutdownAssemblies</text>
</a>
</g>
</g>
<!-- Node2&#45;&gt;Node3 -->
<g id="edge2" class="edge"><title>Node2&#45;&gt;Node3</title>
<path fill="none" stroke="midnightblue" d="M382.37,-183.316C398.293,-217.829 436.221,-290.189 490,-330 498.467,-336.268 508.644,-340.944 518.703,-344.417"/>
<polygon fill="midnightblue" stroke="midnightblue" points="385.431,-181.587 378.142,-173.898 379.045,-184.454 385.431,-181.587"/>
</g>
<!-- Node6 -->
<g id="node6" class="node"><title>Node6</title>
<g id="a_node6"><a xlink:href="../../d2/dc9/group__CIP__API.html#gae61b613fed863d30428e78b2311bf593" target="_top" xlink:title="Create an instance of an assembly object. ">
<polygon fill="none" stroke="black" points="873,-306.5 873,-325.5 991,-325.5 991,-306.5 873,-306.5"/>
<text text-anchor="middle" x="932" y="-313.5" font-family="Helvetica,sans-Serif" font-size="10.00">CreateAssemblyObject</text>
</a>
</g>
</g>
<!-- Node2&#45;&gt;Node6 -->
<g id="edge5" class="edge"><title>Node2&#45;&gt;Node6</title>
<path fill="none" stroke="midnightblue" d="M399.221,-178.682C449.768,-207.282 567.907,-270.019 676,-297 742.116,-313.503 820.625,-317.046 872.894,-317.238"/>
<polygon fill="midnightblue" stroke="midnightblue" points="400.731,-175.514 390.311,-173.596 397.261,-181.593 400.731,-175.514"/>
</g>
<!-- Node8 -->
<g id="node8" class="node"><title>Node8</title>
<g id="a_node8"><a xlink:href="../../d2/d3d/cipcommon_8c.html#a3dfa07bc40e59ba348d713272d1cbfdb" target="_top" xlink:title="CreateCipClass">
<polygon fill="none" stroke="black" points="522,-154.5 522,-173.5 608,-173.5 608,-154.5 522,-154.5"/>
<text text-anchor="middle" x="565" y="-161.5" font-family="Helvetica,sans-Serif" font-size="10.00">CreateCipClass</text>
</a>
</g>
</g>
<!-- Node2&#45;&gt;Node8 -->
<g id="edge7" class="edge"><title>Node2&#45;&gt;Node8</title>
<path fill="none" stroke="midnightblue" d="M419.86,-164C450.886,-164 491.561,-164 521.789,-164"/>
<polygon fill="midnightblue" stroke="midnightblue" points="419.738,-160.5 409.738,-164 419.738,-167.5 419.738,-160.5"/>
</g>
<!-- Node18 -->
<g id="node18" class="node"><title>Node18</title>
<g id="a_node18"><a xlink:href="../../df/d03/cipioconnection_8c.html#ac00a39ab755db54e4abf917618ff9849" target="_top" xlink:title="SetupIoConnectionOriginator\lToTargetConnectionPoint">
<polygon fill="none" stroke="black" points="494,-52 494,-82 636,-82 636,-52 494,-52"/>
<text text-anchor="start" x="502" y="-70" font-family="Helvetica,sans-Serif" font-size="10.00">SetupIoConnectionOriginator</text>
<text text-anchor="middle" x="565" y="-59" font-family="Helvetica,sans-Serif" font-size="10.00">ToTargetConnectionPoint</text>
</a>
</g>
</g>
<!-- Node2&#45;&gt;Node18 -->
<g id="edge25" class="edge"><title>Node2&#45;&gt;Node18</title>
<path fill="none" stroke="midnightblue" d="M397.765,-148.97C420.847,-134.686 457.125,-113.062 490,-97 500.836,-91.7056 512.854,-86.5449 523.998,-82.0385"/>
<polygon fill="midnightblue" stroke="midnightblue" points="395.653,-146.162 389.019,-154.422 399.356,-152.102 395.653,-146.162"/>
</g>
<!-- Node20 -->
<g id="node20" class="node"><title>Node20</title>
<g id="a_node20"><a xlink:href="../../df/d03/cipioconnection_8c.html#a4efa3b0cf11b363c8c5f4f8c8070b43f" target="_top" xlink:title="SetupIoConnectionTargetTo\lOriginatorConnectionPoint">
<polygon fill="none" stroke="black" points="495.5,-0 495.5,-30 634.5,-30 634.5,-0 495.5,-0"/>
<text text-anchor="start" x="503.5" y="-18" font-family="Helvetica,sans-Serif" font-size="10.00">SetupIoConnectionTargetTo</text>
<text text-anchor="middle" x="565" y="-7" font-family="Helvetica,sans-Serif" font-size="10.00">OriginatorConnectionPoint</text>
</a>
</g>
</g>
<!-- Node2&#45;&gt;Node20 -->
<g id="edge28" class="edge"><title>Node2&#45;&gt;Node20</title>
<path fill="none" stroke="midnightblue" d="M386.742,-146.056C406.223,-119.815 445.832,-70.9518 490,-42 497.091,-37.3517 505.088,-33.3713 513.136,-30.0078"/>
<polygon fill="midnightblue" stroke="midnightblue" points="383.777,-144.182 380.716,-154.325 389.434,-148.305 383.777,-144.182"/>
</g>
<!-- Node21 -->
<g id="node21" class="node"><title>Node21</title>
<g id="a_node21"><a xlink:href="../../df/d03/cipioconnection_8c.html#a68b99df85d462657b12a854316c168f5" target="_top" xlink:title="HandleConfigData">
<polygon fill="none" stroke="black" points="516.5,-106.5 516.5,-125.5 613.5,-125.5 613.5,-106.5 516.5,-106.5"/>
<text text-anchor="middle" x="565" y="-113.5" font-family="Helvetica,sans-Serif" font-size="10.00">HandleConfigData</text>
</a>
</g>
</g>
<!-- Node2&#45;&gt;Node21 -->
<g id="edge30" class="edge"><title>Node2&#45;&gt;Node21</title>
<path fill="none" stroke="midnightblue" d="M419.478,-152.511C452.064,-144.279 495.441,-133.32 526.144,-125.564"/>
<polygon fill="midnightblue" stroke="midnightblue" points="418.576,-149.129 409.738,-154.972 420.29,-155.916 418.576,-149.129"/>
</g>
<!-- Node4 -->
<g id="node4" class="node"><title>Node4</title>
<g id="a_node4"><a xlink:href="../../d2/dc9/group__CIP__API.html#gaa57b527530adc2acda6febc500fd6831" target="_top" xlink:title="Shutdown of the CIP stack. ">
<polygon fill="none" stroke="black" points="1054.5,-344.5 1054.5,-363.5 1155.5,-363.5 1155.5,-344.5 1054.5,-344.5"/>
<text text-anchor="middle" x="1105" y="-351.5" font-family="Helvetica,sans-Serif" font-size="10.00">ShutdownCipStack</text>
</a>
</g>
</g>
<!-- Node3&#45;&gt;Node4 -->
<g id="edge3" class="edge"><title>Node3&#45;&gt;Node4</title>
<path fill="none" stroke="midnightblue" d="M630.731,-354C739.538,-354 956.757,-354 1054.42,-354"/>
<polygon fill="midnightblue" stroke="midnightblue" points="630.547,-350.5 620.547,-354 630.547,-357.5 630.547,-350.5"/>
</g>
<!-- Node5 -->
<g id="node5" class="node"><title>Node5</title>
<g id="a_node5"><a xlink:href="../../d9/dfb/POSIX_2main_8c.html#ad338a7dbc41dc40bcecd0479377ef207" target="_top" xlink:title="main">
<polygon fill="none" stroke="black" points="1214,-344.5 1214,-363.5 1252,-363.5 1252,-344.5 1214,-344.5"/>
<text text-anchor="middle" x="1233" y="-351.5" font-family="Helvetica,sans-Serif" font-size="10.00">main</text>
</a>
</g>
</g>
<!-- Node4&#45;&gt;Node5 -->
<g id="edge4" class="edge"><title>Node4&#45;&gt;Node5</title>
<path fill="none" stroke="midnightblue" d="M1166,-354C1183.47,-354 1201.24,-354 1213.93,-354"/>
<polygon fill="midnightblue" stroke="midnightblue" points="1165.8,-350.5 1155.8,-354 1165.8,-357.5 1165.8,-350.5"/>
</g>
<!-- Node7 -->
<g id="node7" class="node"><title>Node7</title>
<g id="a_node7"><a xlink:href="../../d5/dc5/group__CIP__CALLBACK__API.html#gae93106eb1647bff3ad56a7752799d878" target="_top" xlink:title="Callback for the application initialization. ">
<polygon fill="none" stroke="black" points="1047,-306.5 1047,-325.5 1163,-325.5 1163,-306.5 1047,-306.5"/>
<text text-anchor="middle" x="1105" y="-313.5" font-family="Helvetica,sans-Serif" font-size="10.00">ApplicationInitialization</text>
</a>
</g>
</g>
<!-- Node6&#45;&gt;Node7 -->
<g id="edge6" class="edge"><title>Node6&#45;&gt;Node7</title>
<path fill="none" stroke="midnightblue" d="M1001.6,-316C1016.58,-316 1032.28,-316 1046.76,-316"/>
<polygon fill="midnightblue" stroke="midnightblue" points="1001.37,-312.5 991.37,-316 1001.37,-319.5 1001.37,-312.5"/>
</g>
<!-- Node9 -->
<g id="node9" class="node"><title>Node9</title>
<g id="a_node9"><a xlink:href="../../dd/d4d/cipethernetlink_8h.html#ad6d2028b90ec96ad148d092a30acb7d6" target="_top" xlink:title="Initialize the Ethernet Link Objects data. ">
<polygon fill="none" stroke="black" points="882,-116.5 882,-135.5 982,-135.5 982,-116.5 882,-116.5"/>
<text text-anchor="middle" x="932" y="-123.5" font-family="Helvetica,sans-Serif" font-size="10.00">CipEthernetLinkInit</text>
</a>
</g>
</g>
<!-- Node8&#45;&gt;Node9 -->
<g id="edge8" class="edge"><title>Node8&#45;&gt;Node9</title>
<path fill="none" stroke="midnightblue" d="M618.042,-153.949C636.311,-150.703 657.012,-147.342 676,-145 747.377,-136.197 830.533,-130.927 881.976,-128.243"/>
<polygon fill="midnightblue" stroke="midnightblue" points="617.387,-150.51 608.169,-155.733 618.632,-157.399 617.387,-150.51"/>
</g>
<!-- Node11 -->
<g id="node11" class="node"><title>Node11</title>
<g id="a_node11"><a xlink:href="../../dc/d72/cipidentity_8h.html#a5d5136e167300543aa046057b56ae813" target="_top" xlink:title="CIP Identity object constructor. ">
<polygon fill="none" stroke="black" points="893.5,-78.5 893.5,-97.5 970.5,-97.5 970.5,-78.5 893.5,-78.5"/>
<text text-anchor="middle" x="932" y="-85.5" font-family="Helvetica,sans-Serif" font-size="10.00">CipIdentityInit</text>
</a>
</g>
</g>
<!-- Node8&#45;&gt;Node11 -->
<g id="edge11" class="edge"><title>Node8&#45;&gt;Node11</title>
<path fill="none" stroke="midnightblue" d="M601.078,-150.922C622.479,-143.345 650.532,-134.123 676,-128 752.249,-109.668 843.413,-97.7075 893.469,-91.9738"/>
<polygon fill="midnightblue" stroke="midnightblue" points="599.676,-147.706 591.447,-154.379 602.041,-154.294 599.676,-147.706"/>
</g>
<!-- Node12 -->
<g id="node12" class="node"><title>Node12</title>
<g id="a_node12"><a xlink:href="../../d2/d75/cipmessagerouter_8h.html#aa3456b75c1b2289296323b578fee2d3d" target="_top" xlink:title="Initialize the data structures of the message router. ">
<polygon fill="none" stroke="black" points="697,-230.5 697,-249.5 811,-249.5 811,-230.5 697,-230.5"/>
<text text-anchor="middle" x="754" y="-237.5" font-family="Helvetica,sans-Serif" font-size="10.00">CipMessageRouterInit</text>
</a>
</g>
</g>
<!-- Node8&#45;&gt;Node12 -->
<g id="edge13" class="edge"><title>Node8&#45;&gt;Node12</title>
<path fill="none" stroke="midnightblue" d="M590.373,-178.766C612.168,-191.443 645.313,-209.449 676,-221 685.794,-224.686 696.559,-227.859 706.855,-230.497"/>
<polygon fill="midnightblue" stroke="midnightblue" points="591.88,-175.591 581.488,-173.526 588.324,-181.62 591.88,-175.591"/>
</g>
<!-- Node13 -->
<g id="node13" class="node"><title>Node13</title>
<g id="a_node13"><a xlink:href="../../d0/d3c/cipqos_8h.html#ab9a656060dcf03c3f51dbd967dff3f52" target="_top" xlink:title="CipQoSInit">
<polygon fill="none" stroke="black" points="721.5,-192.5 721.5,-211.5 786.5,-211.5 786.5,-192.5 721.5,-192.5"/>
<text text-anchor="middle" x="754" y="-199.5" font-family="Helvetica,sans-Serif" font-size="10.00">CipQoSInit</text>
</a>
</g>
</g>
<!-- Node8&#45;&gt;Node13 -->
<g id="edge15" class="edge"><title>Node8&#45;&gt;Node13</title>
<path fill="none" stroke="midnightblue" d="M618.395,-174.647C651.457,-181.366 693.08,-189.824 721.222,-195.542"/>
<polygon fill="midnightblue" stroke="midnightblue" points="618.93,-171.184 608.433,-172.623 617.536,-178.044 618.93,-171.184"/>
</g>
<!-- Node14 -->
<g id="node14" class="node"><title>Node14</title>
<g id="a_node14"><a xlink:href="../../d1/dad/ciptcpipinterface_8h.html#a4c1f49654e48c5581513d990840933b0" target="_top" xlink:title="Initializing the data structures of the TCP/IP interface object. ">
<polygon fill="none" stroke="black" points="700,-154.5 700,-173.5 808,-173.5 808,-154.5 700,-154.5"/>
<text text-anchor="middle" x="754" y="-161.5" font-family="Helvetica,sans-Serif" font-size="10.00">CipTcpIpInterfaceInit</text>
</a>
</g>
</g>
<!-- Node8&#45;&gt;Node14 -->
<g id="edge17" class="edge"><title>Node8&#45;&gt;Node14</title>
<path fill="none" stroke="midnightblue" d="M618.595,-164C643.93,-164 674.256,-164 699.685,-164"/>
<polygon fill="midnightblue" stroke="midnightblue" points="618.433,-160.5 608.433,-164 618.433,-167.5 618.433,-160.5"/>
</g>
<!-- Node15 -->
<g id="node15" class="node"><title>Node15</title>
<g id="a_node15"><a xlink:href="../../d2/da3/cipconnectionmanager_8h.html#a5ab0de6894d23e8fe84a6b46797c2212" target="_top" xlink:title="Initialize the data of the connection manager object. ">
<polygon fill="none" stroke="black" points="873.5,-40.5 873.5,-59.5 990.5,-59.5 990.5,-40.5 873.5,-40.5"/>
<text text-anchor="middle" x="932" y="-47.5" font-family="Helvetica,sans-Serif" font-size="10.00">ConnectionManagerInit</text>
</a>
</g>
</g>
<!-- Node8&#45;&gt;Node15 -->
<g id="edge19" class="edge"><title>Node8&#45;&gt;Node15</title>
<path fill="none" stroke="midnightblue" d="M608.816,-150.889C619.468,-146.659 630.538,-141.376 640,-135 659.293,-121.999 655.554,-108.099 676,-97 737.916,-63.3884 819.429,-53.3073 873.439,-50.5484"/>
<polygon fill="midnightblue" stroke="midnightblue" points="607.352,-147.7 599.21,-154.479 609.802,-154.257 607.352,-147.7"/>
</g>
<!-- Node16 -->
<g id="node16" class="node"><title>Node16</title>
<g id="a_node16"><a xlink:href="../../df/d2e/cipassembly_8c.html#a5973ef42110a1bdf6c7699e35e04b7d4" target="_top" xlink:title="Constructor for the assembly object class. ">
<polygon fill="none" stroke="black" points="696.5,-268.5 696.5,-287.5 811.5,-287.5 811.5,-268.5 696.5,-268.5"/>
<text text-anchor="middle" x="754" y="-275.5" font-family="Helvetica,sans-Serif" font-size="10.00">CreateAssemblyClass</text>
</a>
</g>
</g>
<!-- Node8&#45;&gt;Node16 -->
<g id="edge21" class="edge"><title>Node8&#45;&gt;Node16</title>
<path fill="none" stroke="midnightblue" d="M581.254,-181.479C600.98,-202.973 637.413,-239.051 676,-259 683.461,-262.857 691.738,-265.955 700.019,-268.436"/>
<polygon fill="midnightblue" stroke="midnightblue" points="583.604,-178.858 574.315,-173.762 578.399,-183.538 583.604,-178.858"/>
</g>
<!-- Node10 -->
<g id="node10" class="node"><title>Node10</title>
<g id="a_node10"><a xlink:href="../../d2/dc9/group__CIP__API.html#ga5d4979945d124e28668b264c3823db1c" target="_top" xlink:title="Initialize and setup the CIP&#45;stack. ">
<polygon fill="none" stroke="black" points="1069.5,-173.5 1069.5,-192.5 1140.5,-192.5 1140.5,-173.5 1069.5,-173.5"/>
<text text-anchor="middle" x="1105" y="-180.5" font-family="Helvetica,sans-Serif" font-size="10.00">CipStackInit</text>
</a>
</g>
</g>
<!-- Node9&#45;&gt;Node10 -->
<g id="edge9" class="edge"><title>Node9&#45;&gt;Node10</title>
<path fill="none" stroke="midnightblue" d="M971.376,-138.792C1002.87,-149.29 1046.77,-163.923 1075.29,-173.428"/>
<polygon fill="midnightblue" stroke="midnightblue" points="972.215,-135.382 961.622,-135.541 970.002,-142.023 972.215,-135.382"/>
</g>
<!-- Node10&#45;&gt;Node5 -->
<g id="edge10" class="edge"><title>Node10&#45;&gt;Node5</title>
<path fill="none" stroke="midnightblue" d="M1119.12,-200.807C1145.59,-236.731 1204.6,-316.81 1224.94,-344.423"/>
<polygon fill="midnightblue" stroke="midnightblue" points="1121.89,-198.658 1113.14,-192.684 1116.25,-202.81 1121.89,-198.658"/>
</g>
<!-- Node11&#45;&gt;Node10 -->
<g id="edge12" class="edge"><title>Node11&#45;&gt;Node10</title>
<path fill="none" stroke="midnightblue" d="M980.38,-100.478C985.746,-102.42 991.057,-104.593 996,-107 1034.34,-125.666 1073.98,-157.328 1092.79,-173.247"/>
<polygon fill="midnightblue" stroke="midnightblue" points="981.324,-97.1026 970.73,-97.2298 979.091,-103.737 981.324,-97.1026"/>
</g>
<!-- Node12&#45;&gt;Node10 -->
<g id="edge14" class="edge"><title>Node12&#45;&gt;Node10</title>
<path fill="none" stroke="midnightblue" d="M821.27,-232.421C869.813,-226.506 937.206,-217.539 996,-207 1020.58,-202.594 1048.04,-196.474 1069.13,-191.517"/>
<polygon fill="midnightblue" stroke="midnightblue" points="820.716,-228.962 811.207,-233.636 821.555,-235.912 820.716,-228.962"/>
</g>
<!-- Node13&#45;&gt;Node10 -->
<g id="edge16" class="edge"><title>Node13&#45;&gt;Node10</title>
<path fill="none" stroke="midnightblue" d="M796.744,-199.727C866.358,-195.938 1004.87,-188.397 1069.41,-184.883"/>
<polygon fill="midnightblue" stroke="midnightblue" points="796.382,-196.242 786.587,-200.28 796.762,-203.231 796.382,-196.242"/>
</g>
<!-- Node14&#45;&gt;Node10 -->
<g id="edge18" class="edge"><title>Node14&#45;&gt;Node10</title>
<path fill="none" stroke="midnightblue" d="M818.068,-167.434C891.594,-171.436 1010.5,-177.91 1069.09,-181.099"/>
<polygon fill="midnightblue" stroke="midnightblue" points="818.181,-163.935 808.006,-166.886 817.801,-170.924 818.181,-163.935"/>
</g>
<!-- Node15&#45;&gt;Node10 -->
<g id="edge20" class="edge"><title>Node15&#45;&gt;Node10</title>
<path fill="none" stroke="midnightblue" d="M985.181,-63.3388C988.947,-65.0208 992.597,-66.901 996,-69 1042.64,-97.767 1082.62,-151.638 1097.65,-173.458"/>
<polygon fill="midnightblue" stroke="midnightblue" points="986.241,-59.9939 975.655,-59.5543 983.656,-66.4993 986.241,-59.9939"/>
</g>
<!-- Node16&#45;&gt;Node6 -->
<g id="edge24" class="edge"><title>Node16&#45;&gt;Node6</title>
<path fill="none" stroke="midnightblue" d="M809.433,-289.753C834.319,-295.126 863.419,-301.409 886.907,-306.48"/>
<polygon fill="midnightblue" stroke="midnightblue" points="809.926,-286.278 799.412,-287.589 808.448,-293.121 809.926,-286.278"/>
</g>
<!-- Node17 -->
<g id="node17" class="node"><title>Node17</title>
<g id="a_node17"><a xlink:href="../../de/df4/cipassembly_8h.html#a4dfbc2c7a8e9e77f05a0a7236210f5b4" target="_top" xlink:title="Setup the Assembly object. ">
<polygon fill="none" stroke="black" points="876.5,-268.5 876.5,-287.5 987.5,-287.5 987.5,-268.5 876.5,-268.5"/>
<text text-anchor="middle" x="932" y="-275.5" font-family="Helvetica,sans-Serif" font-size="10.00">CipAssemblyInitialize</text>
</a>
</g>
</g>
<!-- Node16&#45;&gt;Node17 -->
<g id="edge22" class="edge"><title>Node16&#45;&gt;Node17</title>
<path fill="none" stroke="midnightblue" d="M821.785,-278C839.768,-278 859.008,-278 876.251,-278"/>
<polygon fill="midnightblue" stroke="midnightblue" points="821.656,-274.5 811.656,-278 821.656,-281.5 821.656,-274.5"/>
</g>
<!-- Node17&#45;&gt;Node10 -->
<g id="edge23" class="edge"><title>Node17&#45;&gt;Node10</title>
<path fill="none" stroke="midnightblue" d="M971.548,-264.841C979.764,-261.616 988.286,-257.946 996,-254 1032.36,-235.404 1071.61,-207.363 1091.26,-192.706"/>
<polygon fill="midnightblue" stroke="midnightblue" points="970.225,-261.6 962.11,-268.412 972.701,-268.147 970.225,-261.6"/>
</g>
<!-- Node19 -->
<g id="node19" class="node"><title>Node19</title>
<g id="a_node19"><a xlink:href="../../de/d45/cipioconnection_8h.html#a43e270b3f9b9f6296b12285c320c95aa" target="_top" xlink:title="Setup all data in order to establish an IO connection. ">
<polygon fill="none" stroke="black" points="696.5,-2.5 696.5,-21.5 811.5,-21.5 811.5,-2.5 696.5,-2.5"/>
<text text-anchor="middle" x="754" y="-9.5" font-family="Helvetica,sans-Serif" font-size="10.00">EstablishIoConnection</text>
</a>
</g>
</g>
<!-- Node18&#45;&gt;Node19 -->
<g id="edge26" class="edge"><title>Node18&#45;&gt;Node19</title>
<path fill="none" stroke="midnightblue" d="M626.996,-49.06C658.139,-39.9002 694.777,-29.1243 720.494,-21.5606"/>
<polygon fill="midnightblue" stroke="midnightblue" points="625.705,-45.7915 617.099,-51.971 627.68,-52.5071 625.705,-45.7915"/>
</g>
<!-- Node19&#45;&gt;Node15 -->
<g id="edge27" class="edge"><title>Node19&#45;&gt;Node15</title>
<path fill="none" stroke="midnightblue" d="M809.433,-23.7526C834.319,-29.1258 863.419,-35.4086 886.907,-40.4799"/>
<polygon fill="midnightblue" stroke="midnightblue" points="809.926,-20.2784 799.412,-21.589 808.448,-27.1207 809.926,-20.2784"/>
</g>
<!-- Node20&#45;&gt;Node19 -->
<g id="edge29" class="edge"><title>Node20&#45;&gt;Node19</title>
<path fill="none" stroke="midnightblue" d="M644.693,-13.7376C662.054,-13.459 680.114,-13.1693 696.396,-12.9081"/>
<polygon fill="midnightblue" stroke="midnightblue" points="644.513,-10.2399 634.57,-13.8999 644.625,-17.239 644.513,-10.2399"/>
</g>
<!-- Node21&#45;&gt;Node19 -->
<g id="edge31" class="edge"><title>Node21&#45;&gt;Node19</title>
<path fill="none" stroke="midnightblue" d="M619.294,-102.849C626.664,-99.682 633.816,-95.7845 640,-91 663.106,-73.1219 652.684,-53.6036 676,-36 684.381,-29.6722 694.461,-24.9921 704.524,-21.5375"/>
<polygon fill="midnightblue" stroke="midnightblue" points="617.963,-99.6115 609.898,-106.482 620.487,-106.14 617.963,-99.6115"/>
</g>
<!-- Node23 -->
<g id="node23" class="node"><title>Node23</title>
<g id="a_node23"><a xlink:href="../../d4/d91/group__ENCAP.html#ga18376333d90074460a180facd602c3d9" target="_top" xlink:title="NotifyCommonPacketFormat">
<polygon fill="none" stroke="black" points="301,-388.5 301,-407.5 445,-407.5 445,-388.5 301,-388.5"/>
<text text-anchor="middle" x="373" y="-395.5" font-family="Helvetica,sans-Serif" font-size="10.00">NotifyCommonPacketFormat</text>
</a>
</g>
</g>
<!-- Node22&#45;&gt;Node23 -->
<g id="edge33" class="edge"><title>Node22&#45;&gt;Node23</title>
<path fill="none" stroke="midnightblue" d="M266.259,-398C277.559,-398 289.36,-398 300.808,-398"/>
<polygon fill="midnightblue" stroke="midnightblue" points="266.047,-394.5 256.047,-398 266.047,-401.5 266.047,-394.5"/>
</g>
<!-- Node28 -->
<g id="node28" class="node"><title>Node28</title>
<g id="a_node28"><a xlink:href="../../d4/d91/group__ENCAP.html#ga93b23ccc67639937716a8f436a96c2b5" target="_top" xlink:title="NotifyConnectedCommonPacket\lFormat">
<polygon fill="none" stroke="black" points="292.5,-429 292.5,-459 453.5,-459 453.5,-429 292.5,-429"/>
<text text-anchor="start" x="300.5" y="-447" font-family="Helvetica,sans-Serif" font-size="10.00">NotifyConnectedCommonPacket</text>
<text text-anchor="middle" x="373" y="-436" font-family="Helvetica,sans-Serif" font-size="10.00">Format</text>
</a>
</g>
</g>
<!-- Node22&#45;&gt;Node28 -->
<g id="edge39" class="edge"><title>Node22&#45;&gt;Node28</title>
<path fill="none" stroke="midnightblue" d="M246.249,-410.172C267.666,-415.934 293.45,-422.87 316.08,-428.957"/>
<polygon fill="midnightblue" stroke="midnightblue" points="246.997,-406.749 236.431,-407.531 245.179,-413.509 246.997,-406.749"/>
</g>
<!-- Node24 -->
<g id="node24" class="node"><title>Node24</title>
<g id="a_node24"><a xlink:href="../../d7/df9/encap_8h.html#a51dd68441ec427052986aef5c5c076e4" target="_top" xlink:title="Call UCMM or Message Router if UCMM not implemented. ">
<polygon fill="none" stroke="black" points="491,-383 491,-413 639,-413 639,-383 491,-383"/>
<text text-anchor="start" x="499" y="-401" font-family="Helvetica,sans-Serif" font-size="10.00">HandleReceivedSendRequest</text>
<text text-anchor="middle" x="565" y="-390" font-family="Helvetica,sans-Serif" font-size="10.00">ResponseDataCommand</text>
</a>
</g>
</g>
<!-- Node23&#45;&gt;Node24 -->
<g id="edge34" class="edge"><title>Node23&#45;&gt;Node24</title>
<path fill="none" stroke="midnightblue" d="M455.304,-398C467.114,-398 479.212,-398 490.848,-398"/>
<polygon fill="midnightblue" stroke="midnightblue" points="455.019,-394.5 445.019,-398 455.019,-401.5 455.019,-394.5"/>
</g>
<!-- Node25 -->
<g id="node25" class="node"><title>Node25</title>
<g id="a_node25"><a xlink:href="../../d2/dc9/group__CIP__API.html#ga16eaeeb12ba23b5a75c8e5902a33d70a" target="_top" xlink:title="Notify the encapsulation layer that an explicit message has been received via TCP. ">
<polygon fill="none" stroke="black" points="676,-388.5 676,-407.5 832,-407.5 832,-388.5 676,-388.5"/>
<text text-anchor="middle" x="754" y="-395.5" font-family="Helvetica,sans-Serif" font-size="10.00">HandleReceivedExplictTcpData</text>
</a>
</g>
</g>
<!-- Node24&#45;&gt;Node25 -->
<g id="edge35" class="edge"><title>Node24&#45;&gt;Node25</title>
<path fill="none" stroke="midnightblue" d="M649.108,-398C658.033,-398 667.087,-398 675.937,-398"/>
<polygon fill="midnightblue" stroke="midnightblue" points="649.103,-394.5 639.103,-398 649.102,-401.5 649.103,-394.5"/>
</g>
<!-- Node26 -->
<g id="node26" class="node"><title>Node26</title>
<g id="a_node26"><a xlink:href="../../db/d4f/generic__networkhandler_8c.html#aca5593b7dd39d7a7b437999a367102d6" target="_top" xlink:title="Handles data on an established TCP connection, processed connection is given by socket. ">
<polygon fill="none" stroke="black" points="868,-387.5 868,-406.5 996,-406.5 996,-387.5 868,-387.5"/>
<text text-anchor="middle" x="932" y="-394.5" font-family="Helvetica,sans-Serif" font-size="10.00">HandleDataOnTcpSocket</text>
</a>
</g>
</g>
<!-- Node25&#45;&gt;Node26 -->
<g id="edge36" class="edge"><title>Node25&#45;&gt;Node26</title>
<path fill="none" stroke="midnightblue" d="M842.293,-397.504C850.914,-397.455 859.545,-397.406 867.853,-397.359"/>
<polygon fill="midnightblue" stroke="midnightblue" points="842.176,-394.005 832.196,-397.561 842.216,-401.004 842.176,-394.005"/>
</g>
<!-- Node27 -->
<g id="node27" class="node"><title>Node27</title>
<g id="a_node27"><a xlink:href="../../da/dc2/generic__networkhandler_8h.html#a2f01af81d3e5018d9980e2bc28c9078a" target="_top" xlink:title="NetworkHandlerProcessOnce">
<polygon fill="none" stroke="black" points="1032,-385.5 1032,-404.5 1178,-404.5 1178,-385.5 1032,-385.5"/>
<text text-anchor="middle" x="1105" y="-392.5" font-family="Helvetica,sans-Serif" font-size="10.00">NetworkHandlerProcessOnce</text>
</a>
</g>
</g>
<!-- Node26&#45;&gt;Node27 -->
<g id="edge37" class="edge"><title>Node26&#45;&gt;Node27</title>
<path fill="none" stroke="midnightblue" d="M1006.38,-396.142C1014.82,-396.043 1023.42,-395.942 1031.84,-395.844"/>
<polygon fill="midnightblue" stroke="midnightblue" points="1006.15,-392.644 996.188,-396.261 1006.23,-399.644 1006.15,-392.644"/>
</g>
<!-- Node27&#45;&gt;Node5 -->
<g id="edge38" class="edge"><title>Node27&#45;&gt;Node5</title>
<path fill="none" stroke="midnightblue" d="M1147.97,-382.498C1157.85,-379.468 1168.31,-376.182 1178,-373 1189.9,-369.091 1203.16,-364.428 1213.57,-360.699"/>
<polygon fill="midnightblue" stroke="midnightblue" points="1146.89,-379.168 1138.35,-385.43 1148.93,-385.864 1146.89,-379.168"/>
</g>
<!-- Node29 -->
<g id="node29" class="node"><title>Node29</title>
<g id="a_node29"><a xlink:href="../../d2/dbd/encap_8c.html#a49dc585614f655a5b313150a01fd7221" target="_top" xlink:title="Call Connection Manager. ">
<polygon fill="none" stroke="black" points="490,-432 490,-462 640,-462 640,-432 490,-432"/>
<text text-anchor="start" x="498" y="-450" font-family="Helvetica,sans-Serif" font-size="10.00">HandleReceivedSendUnitData</text>
<text text-anchor="middle" x="565" y="-439" font-family="Helvetica,sans-Serif" font-size="10.00">Command</text>
</a>
</g>
</g>
<!-- Node28&#45;&gt;Node29 -->
<g id="edge40" class="edge"><title>Node28&#45;&gt;Node29</title>
<path fill="none" stroke="midnightblue" d="M463.924,-445.42C472.626,-445.557 481.386,-445.696 489.909,-445.83"/>
<polygon fill="midnightblue" stroke="midnightblue" points="463.805,-441.918 453.751,-445.259 463.695,-448.917 463.805,-441.918"/>
</g>
<!-- Node29&#45;&gt;Node25 -->
<g id="edge41" class="edge"><title>Node29&#45;&gt;Node25</title>
<path fill="none" stroke="midnightblue" d="M633.173,-429.399C661.328,-422.021 692.951,-413.735 716.638,-407.528"/>
<polygon fill="midnightblue" stroke="midnightblue" points="632.163,-426.045 623.377,-431.965 633.938,-432.816 632.163,-426.045"/>
</g>
</g>
</svg>
        <g id="navigator" transform="translate(0 0)" fill="#404254">
                <rect fill="#f2f5e9" fill-opacity="0.5" stroke="#606060" stroke-width=".5" x="0" y="0" width="60" height="60"/>
                <use id="zoomplus" xlink:href="#zoomPlus" x="17" y="9" onmousedown="handleZoom(evt,'in')"/>
                <use id="zoomminus" xlink:href="#zoomMin" x="42" y="9" onmousedown="handleZoom(evt,'out')"/>
                <use id="reset" xlink:href="#resetDef" x="30" y="36" onmousedown="handleReset()"/>
                <g id="arrowUp" xlink:href="#dirArrow" transform="translate(30 24)" onmousedown="handlePan(0,-1)">
                  <use xlink:href="#rim" fill="#404040">
                        <set attributeName="fill" to="#808080" begin="arrowUp.mouseover" end="arrowUp.mouseout"/>
                  </use>
                  <path fill="none" stroke="white" stroke-width="1.5" d="M0,-3.0v7 M-2.5,-0.5L0,-3.0L2.5,-0.5"/>
                </g>
                <g id="arrowRight" xlink:href="#dirArrow" transform="rotate(90) translate(36 -43)" onmousedown="handlePan(1,0)">
                  <use xlink:href="#rim" fill="#404040">
                        <set attributeName="fill" to="#808080" begin="arrowRight.mouseover" end="arrowRight.mouseout"/>
                  </use>
                  <path fill="none" stroke="white" stroke-width="1.5" d="M0,-3.0v7 M-2.5,-0.5L0,-3.0L2.5,-0.5"/>
                </g>
                <g id="arrowDown" xlink:href="#dirArrow" transform="rotate(180) translate(-30 -48)" onmousedown="handlePan(0,1)">
                  <use xlink:href="#rim" fill="#404040">
                        <set attributeName="fill" to="#808080" begin="arrowDown.mouseover" end="arrowDown.mouseout"/>
                  </use>
                  <path fill="none" stroke="white" stroke-width="1.5" d="M0,-3.0v7 M-2.5,-0.5L0,-3.0L2.5,-0.5"/>
                </g>
                <g id="arrowLeft" xlink:href="#dirArrow" transform="rotate(270) translate(-36 17)" onmousedown="handlePan(-1,0)">
                  <use xlink:href="#rim" fill="#404040">
                        <set attributeName="fill" to="#808080" begin="arrowLeft.mouseover" end="arrowLeft.mouseout"/>
                  </use>
                  <path fill="none" stroke="white" stroke-width="1.5" d="M0,-3.0v7 M-2.5,-0.5L0,-3.0L2.5,-0.5"/>
                </g>
        </g>
        <svg viewBox="0 0 15 15" width="100%" height="30px" preserveAspectRatio="xMaxYMin meet">
         <g id="arrow_out" transform="scale(0.3 0.3)">
          <a xlink:href="cipmessagerouter_8c_a7a9f44f2d6f010b6f6ee922d378d9bb1_icgraph_org.svg" target="_base">
           <rect id="button" ry="5" rx="5" y="6" x="6" height="38" width="38"
                fill="#f2f5e9" fill-opacity="0.5" stroke="#606060" stroke-width="1.0"/>
           <path id="arrow"
             d="M 11.500037,31.436501 C 11.940474,20.09759 22.043105,11.32322 32.158766,21.979434 L 37.068811,17.246167 C 37.068811,17.246167 37.088388,32 37.088388,32 L 22.160133,31.978069 C 22.160133,31.978069 26.997745,27.140456 26.997745,27.140456 C 18.528582,18.264221 13.291696,25.230495 11.500037,31.436501 z"
             style="fill:#404040;"/>
          </a>
         </g>
        </svg>
</svg>
