<?xml version="1.0" encoding="UTF-8" standalone="no"?>
<!DOCTYPE svg PUBLIC "-//W3C//DTD SVG 1.1//EN"
 "http://www.w3.org/Graphics/SVG/1.1/DTD/svg11.dtd">
<!-- Generated by graphviz version 2.36.0 (20140111.2315)
 -->
<!-- Title: src/enet_encap/encap.h Pages: 1 -->
<svg width="789pt" height="140pt"
 viewBox="0.00 0.00 789.00 140.00" xmlns="http://www.w3.org/2000/svg" xmlns:xlink="http://www.w3.org/1999/xlink">
<g id="graph0" class="graph" transform="scale(1 1) rotate(0) translate(4 136)">
<title>src/enet_encap/encap.h</title>
<!-- Node1 -->
<g id="node1" class="node"><title>Node1</title>
<polygon fill="#bfbfbf" stroke="black" points="257.5,-112.5 257.5,-131.5 378.5,-131.5 378.5,-112.5 257.5,-112.5"/>
<text text-anchor="middle" x="318" y="-119.5" font-family="Helvetica,sans-Serif" font-size="10.00">src/enet_encap/encap.h</text>
</g>
<!-- Node2 -->
<g id="node2" class="node"><title>Node2</title>
<g id="a_node2"><a xlink:href="../../dc/d93/cipclass3connection_8c.html" target="_top" xlink:title="src/cip/cipclass3connection.c">
<polygon fill="none" stroke="black" points="24,-56.5 24,-75.5 170,-75.5 170,-56.5 24,-56.5"/>
<text text-anchor="middle" x="97" y="-63.5" font-family="Helvetica,sans-Serif" font-size="10.00">src/cip/cipclass3connection.c</text>
</a>
</g>
</g>
<!-- Node1&#45;&gt;Node2 -->
<g id="edge1" class="edge"><title>Node1&#45;&gt;Node2</title>
<path fill="none" stroke="midnightblue" d="M273.079,-110.024C231.332,-99.8232 170.018,-84.8414 131.854,-75.5164"/>
<polygon fill="midnightblue" stroke="midnightblue" points="272.437,-113.47 282.982,-112.444 274.098,-106.67 272.437,-113.47"/>
</g>
<!-- Node3 -->
<g id="node3" class="node"><title>Node3</title>
<g id="a_node3"><a xlink:href="../../d2/d3d/cipcommon_8c.html" target="_top" xlink:title="src/cip/cipcommon.c">
<polygon fill="none" stroke="black" points="-0.5,-0.5 -0.5,-19.5 106.5,-19.5 106.5,-0.5 -0.5,-0.5"/>
<text text-anchor="middle" x="53" y="-7.5" font-family="Helvetica,sans-Serif" font-size="10.00">src/cip/cipcommon.c</text>
</a>
</g>
</g>
<!-- Node1&#45;&gt;Node3 -->
<g id="edge2" class="edge"><title>Node1&#45;&gt;Node3</title>
<path fill="none" stroke="midnightblue" d="M292.096,-107.988C264.421,-94.3006 219.111,-72.4981 179,-56 145.058,-42.0394 105.017,-28.17 79.3351,-19.5971"/>
<polygon fill="midnightblue" stroke="midnightblue" points="290.599,-111.153 301.111,-112.469 293.714,-104.884 290.599,-111.153"/>
</g>
<!-- Node4 -->
<g id="node4" class="node"><title>Node4</title>
<g id="a_node4"><a xlink:href="../../d5/d35/cipconnectionmanager_8c.html" target="_top" xlink:title="src/cip/cipconnectionmanager.c">
<polygon fill="none" stroke="black" points="124.5,-0.5 124.5,-19.5 279.5,-19.5 279.5,-0.5 124.5,-0.5"/>
<text text-anchor="middle" x="202" y="-7.5" font-family="Helvetica,sans-Serif" font-size="10.00">src/cip/cipconnectionmanager.c</text>
</a>
</g>
</g>
<!-- Node1&#45;&gt;Node4 -->
<g id="edge3" class="edge"><title>Node1&#45;&gt;Node4</title>
<path fill="none" stroke="midnightblue" d="M295.417,-107.003C282.888,-98.7287 267.384,-87.6183 255,-76 235.673,-57.8687 217.039,-32.6648 207.881,-19.6087"/>
<polygon fill="midnightblue" stroke="midnightblue" points="293.626,-110.013 303.927,-112.493 297.421,-104.131 293.626,-110.013"/>
</g>
<!-- Node5 -->
<g id="node5" class="node"><title>Node5</title>
<g id="a_node5"><a xlink:href="../../d0/dff/cpf_8h.html" target="_top" xlink:title="src/enet_encap/cpf.h">
<polygon fill="none" stroke="black" points="264,-56.5 264,-75.5 372,-75.5 372,-56.5 264,-56.5"/>
<text text-anchor="middle" x="318" y="-63.5" font-family="Helvetica,sans-Serif" font-size="10.00">src/enet_encap/cpf.h</text>
</a>
</g>
</g>
<!-- Node1&#45;&gt;Node5 -->
<g id="edge4" class="edge"><title>Node1&#45;&gt;Node5</title>
<path fill="none" stroke="midnightblue" d="M318,-101.805C318,-92.9102 318,-82.7798 318,-75.7511"/>
<polygon fill="midnightblue" stroke="midnightblue" points="314.5,-102.083 318,-112.083 321.5,-102.083 314.5,-102.083"/>
</g>
<!-- Node8 -->
<g id="node8" class="node"><title>Node8</title>
<g id="a_node8"><a xlink:href="../../d2/dbd/encap_8c.html" target="_top" xlink:title="src/enet_encap/encap.c">
<polygon fill="none" stroke="black" points="567.5,-0.5 567.5,-19.5 688.5,-19.5 688.5,-0.5 567.5,-0.5"/>
<text text-anchor="middle" x="628" y="-7.5" font-family="Helvetica,sans-Serif" font-size="10.00">src/enet_encap/encap.c</text>
</a>
</g>
</g>
<!-- Node1&#45;&gt;Node8 -->
<g id="edge10" class="edge"><title>Node1&#45;&gt;Node8</title>
<path fill="none" stroke="midnightblue" d="M338.561,-106.513C362.994,-89.5244 402.523,-62.8105 419,-56 447.299,-44.3029 525.942,-28.9902 578.276,-19.5818"/>
<polygon fill="midnightblue" stroke="midnightblue" points="336.504,-103.68 330.313,-112.278 340.514,-109.418 336.504,-103.68"/>
</g>
<!-- Node9 -->
<g id="node9" class="node"><title>Node9</title>
<g id="a_node9"><a xlink:href="../../db/d4f/generic__networkhandler_8c.html" target="_top" xlink:title="This file includes all platform&#45;independent functions of the network handler to reduce code duplicati...">
<polygon fill="none" stroke="black" points="427.5,-56.5 427.5,-75.5 596.5,-75.5 596.5,-56.5 427.5,-56.5"/>
<text text-anchor="middle" x="512" y="-63.5" font-family="Helvetica,sans-Serif" font-size="10.00">src/ports/generic_networkhandler.c</text>
</a>
</g>
</g>
<!-- Node1&#45;&gt;Node9 -->
<g id="edge11" class="edge"><title>Node1&#45;&gt;Node9</title>
<path fill="none" stroke="midnightblue" d="M358.601,-109.699C395.215,-99.507 448.257,-84.7429 481.404,-75.5164"/>
<polygon fill="midnightblue" stroke="midnightblue" points="357.435,-106.39 348.74,-112.444 359.312,-113.134 357.435,-106.39"/>
</g>
<!-- Node10 -->
<g id="node10" class="node"><title>Node10</title>
<g id="a_node10"><a xlink:href="../../d2/d5e/POSIX_2networkhandler_8c.html" target="_top" xlink:title="src/ports/POSIX/networkhandler.c">
<polygon fill="none" stroke="black" points="615,-56.5 615,-75.5 781,-75.5 781,-56.5 615,-56.5"/>
<text text-anchor="middle" x="698" y="-63.5" font-family="Helvetica,sans-Serif" font-size="10.00">src/ports/POSIX/networkhandler.c</text>
</a>
</g>
</g>
<!-- Node1&#45;&gt;Node10 -->
<g id="edge12" class="edge"><title>Node1&#45;&gt;Node10</title>
<path fill="none" stroke="midnightblue" d="M388.515,-110.979C460.296,-100.779 570.368,-85.1372 638.07,-75.5164"/>
<polygon fill="midnightblue" stroke="midnightblue" points="387.62,-107.571 378.212,-112.444 388.605,-114.502 387.62,-107.571"/>
</g>
<!-- Node5&#45;&gt;Node3 -->
<g id="edge5" class="edge"><title>Node5&#45;&gt;Node3</title>
<path fill="none" stroke="midnightblue" d="M266.028,-54.4096C215.946,-44.2042 141.136,-28.9597 94.7936,-19.5164"/>
<polygon fill="midnightblue" stroke="midnightblue" points="265.512,-57.8763 276.01,-56.4435 266.91,-51.0172 265.512,-57.8763"/>
</g>
<!-- Node5&#45;&gt;Node4 -->
<g id="edge6" class="edge"><title>Node5&#45;&gt;Node4</title>
<path fill="none" stroke="midnightblue" d="M290.28,-52.096C268.608,-42.0073 239.098,-28.2697 220.295,-19.5164"/>
<polygon fill="midnightblue" stroke="midnightblue" points="289.077,-55.3962 299.619,-56.4435 292.031,-49.0501 289.077,-55.3962"/>
</g>
<!-- Node6 -->
<g id="node6" class="node"><title>Node6</title>
<g id="a_node6"><a xlink:href="../../df/d03/cipioconnection_8c.html" target="_top" xlink:title="src/cip/cipioconnection.c">
<polygon fill="none" stroke="black" points="424.5,-0.5 424.5,-19.5 549.5,-19.5 549.5,-0.5 424.5,-0.5"/>
<text text-anchor="middle" x="487" y="-7.5" font-family="Helvetica,sans-Serif" font-size="10.00">src/cip/cipioconnection.c</text>
</a>
</g>
</g>
<!-- Node5&#45;&gt;Node6 -->
<g id="edge7" class="edge"><title>Node5&#45;&gt;Node6</title>
<path fill="none" stroke="midnightblue" d="M354.603,-53.3044C386.447,-43.1294 431.842,-28.6246 460.347,-19.5164"/>
<polygon fill="midnightblue" stroke="midnightblue" points="353.239,-50.0659 344.779,-56.4435 355.369,-56.7337 353.239,-50.0659"/>
</g>
<!-- Node7 -->
<g id="node7" class="node"><title>Node7</title>
<g id="a_node7"><a xlink:href="../../d3/d98/cpf_8c.html" target="_top" xlink:title="src/enet_encap/cpf.c">
<polygon fill="none" stroke="black" points="298,-0.5 298,-19.5 406,-19.5 406,-0.5 298,-0.5"/>
<text text-anchor="middle" x="352" y="-7.5" font-family="Helvetica,sans-Serif" font-size="10.00">src/enet_encap/cpf.c</text>
</a>
</g>
</g>
<!-- Node5&#45;&gt;Node7 -->
<g id="edge8" class="edge"><title>Node5&#45;&gt;Node7</title>
<path fill="none" stroke="midnightblue" d="M328.977,-47.5656C334.827,-38.2747 341.77,-27.2484 346.49,-19.7511"/>
<polygon fill="midnightblue" stroke="midnightblue" points="325.981,-45.7558 323.614,-56.083 331.904,-49.4855 325.981,-45.7558"/>
</g>
<!-- Node5&#45;&gt;Node8 -->
<g id="edge9" class="edge"><title>Node5&#45;&gt;Node8</title>
<path fill="none" stroke="midnightblue" d="M377.335,-54.6642C435.92,-44.4592 524.445,-29.0386 579.109,-19.5164"/>
<polygon fill="midnightblue" stroke="midnightblue" points="376.371,-51.2793 367.12,-56.4435 377.573,-58.1754 376.371,-51.2793"/>
</g>
</g>
</svg>
