<?xml version="1.0" encoding="UTF-8" standalone="no"?>
<!DOCTYPE svg PUBLIC "-//W3C//DTD SVG 1.1//EN"
 "http://www.w3.org/Graphics/SVG/1.1/DTD/svg11.dtd">
<!-- Generated by graphviz version 2.36.0 (20140111.2315)
 -->
<!-- Title: EncodeNullAddressItem Pages: 1 -->
<svg width="1442pt" height="126pt"
 viewBox="0.00 0.00 1442.00 126.00" xmlns="http://www.w3.org/2000/svg" xmlns:xlink="http://www.w3.org/1999/xlink">
<g id="graph0" class="graph" transform="scale(1 1) rotate(0) translate(4 122)">
<title>EncodeNullAddressItem</title>
<!-- Node1 -->
<g id="node1" class="node"><title>Node1</title>
<polygon fill="#bfbfbf" stroke="black" points="0,-44.5 0,-63.5 122,-63.5 122,-44.5 0,-44.5"/>
<text text-anchor="middle" x="61" y="-51.5" font-family="Helvetica,sans-Serif" font-size="10.00">EncodeNullAddressItem</text>
</g>
<!-- Node2 -->
<g id="node2" class="node"><title>Node2</title>
<g id="a_node2"><a xlink:href="../../d4/d91/group__ENCAP.html#ga928d72bf57f65ff512f102466edad450" target="_top" xlink:title="Copy data from message_router_response struct and common_packet_format_data_item into linear memory i...">
<polygon fill="none" stroke="black" points="158,-44.5 158,-63.5 284,-63.5 284,-44.5 158,-44.5"/>
<text text-anchor="middle" x="221" y="-51.5" font-family="Helvetica,sans-Serif" font-size="10.00">AssembleLinearMessage</text>
</a>
</g>
</g>
<!-- Node1&#45;&gt;Node2 -->
<g id="edge1" class="edge"><title>Node1&#45;&gt;Node2</title>
<path fill="none" stroke="midnightblue" d="M132.437,-54C140.919,-54 149.534,-54 157.886,-54"/>
<polygon fill="midnightblue" stroke="midnightblue" points="132.184,-50.5001 122.184,-54 132.184,-57.5001 132.184,-50.5001"/>
</g>
<!-- Node3 -->
<g id="node3" class="node"><title>Node3</title>
<g id="a_node3"><a xlink:href="../../d4/d91/group__ENCAP.html#ga86a32a262ea21cad9631fa02c81f1a03" target="_top" xlink:title="NotifyCommonPacketFormat">
<polygon fill="none" stroke="black" points="329,-90.5 329,-109.5 473,-109.5 473,-90.5 329,-90.5"/>
<text text-anchor="middle" x="401" y="-97.5" font-family="Helvetica,sans-Serif" font-size="10.00">NotifyCommonPacketFormat</text>
</a>
</g>
</g>
<!-- Node2&#45;&gt;Node3 -->
<g id="edge2" class="edge"><title>Node2&#45;&gt;Node3</title>
<path fill="none" stroke="midnightblue" d="M268.94,-66.1306C298.402,-73.7444 335.85,-83.4219 363.166,-90.481"/>
<polygon fill="midnightblue" stroke="midnightblue" points="269.439,-62.6447 258.882,-63.5312 267.688,-69.422 269.439,-62.6447"/>
</g>
<!-- Node9 -->
<g id="node9" class="node"><title>Node9</title>
<g id="a_node9"><a xlink:href="../../d4/d91/group__ENCAP.html#ga93b23ccc67639937716a8f436a96c2b5" target="_top" xlink:title="NotifyConnectedCommonPacket\lFormat">
<polygon fill="none" stroke="black" points="320.5,-39 320.5,-69 481.5,-69 481.5,-39 320.5,-39"/>
<text text-anchor="start" x="328.5" y="-57" font-family="Helvetica,sans-Serif" font-size="10.00">NotifyConnectedCommonPacket</text>
<text text-anchor="middle" x="401" y="-46" font-family="Helvetica,sans-Serif" font-size="10.00">Format</text>
</a>
</g>
</g>
<!-- Node2&#45;&gt;Node9 -->
<g id="edge8" class="edge"><title>Node2&#45;&gt;Node9</title>
<path fill="none" stroke="midnightblue" d="M294.487,-54C302.978,-54 311.676,-54 320.258,-54"/>
<polygon fill="midnightblue" stroke="midnightblue" points="294.256,-50.5001 284.256,-54 294.256,-57.5001 294.256,-50.5001"/>
</g>
<!-- Node11 -->
<g id="node11" class="node"><title>Node11</title>
<g id="a_node11"><a xlink:href="../../d4/d91/group__ENCAP.html#gad61fa4f84989cf27086d57557ad552c4" target="_top" xlink:title="AssembleIOMessage">
<polygon fill="none" stroke="black" points="346,-0.5 346,-19.5 456,-19.5 456,-0.5 346,-0.5"/>
<text text-anchor="middle" x="401" y="-7.5" font-family="Helvetica,sans-Serif" font-size="10.00">AssembleIOMessage</text>
</a>
</g>
</g>
<!-- Node2&#45;&gt;Node11 -->
<g id="edge11" class="edge"><title>Node2&#45;&gt;Node11</title>
<path fill="none" stroke="midnightblue" d="M268.547,-41.9577C284.81,-37.7947 303.198,-33.1379 320,-29 332.752,-25.8594 346.671,-22.5222 359.27,-19.5354"/>
<polygon fill="midnightblue" stroke="midnightblue" points="267.544,-38.6014 258.728,-44.4769 269.284,-45.3818 267.544,-38.6014"/>
</g>
<!-- Node4 -->
<g id="node4" class="node"><title>Node4</title>
<g id="a_node4"><a xlink:href="../../d2/dbd/encap_8c.html#a51dd68441ec427052986aef5c5c076e4" target="_top" xlink:title="Call UCMM or Message Router if UCMM not implemented. ">
<polygon fill="none" stroke="black" points="519,-88 519,-118 667,-118 667,-88 519,-88"/>
<text text-anchor="start" x="527" y="-106" font-family="Helvetica,sans-Serif" font-size="10.00">HandleReceivedSendRequest</text>
<text text-anchor="middle" x="593" y="-95" font-family="Helvetica,sans-Serif" font-size="10.00">ResponseDataCommand</text>
</a>
</g>
</g>
<!-- Node3&#45;&gt;Node4 -->
<g id="edge3" class="edge"><title>Node3&#45;&gt;Node4</title>
<path fill="none" stroke="midnightblue" d="M483.304,-101.284C495.114,-101.47 507.212,-101.661 518.848,-101.845"/>
<polygon fill="midnightblue" stroke="midnightblue" points="483.073,-97.7798 473.019,-101.121 482.963,-104.779 483.073,-97.7798"/>
</g>
<!-- Node5 -->
<g id="node5" class="node"><title>Node5</title>
<g id="a_node5"><a xlink:href="../../d2/dc9/group__CIP__API.html#ga7f1c28a4eb68c1d335df52494b7e5b76" target="_top" xlink:title="Notify the encapsulation layer that an explicit message has been received via TCP. ">
<polygon fill="none" stroke="black" points="704,-44.5 704,-63.5 860,-63.5 860,-44.5 704,-44.5"/>
<text text-anchor="middle" x="782" y="-51.5" font-family="Helvetica,sans-Serif" font-size="10.00">HandleReceivedExplictTcpData</text>
</a>
</g>
</g>
<!-- Node4&#45;&gt;Node5 -->
<g id="edge4" class="edge"><title>Node4&#45;&gt;Node5</title>
<path fill="none" stroke="midnightblue" d="M661.173,-85.3986C689.328,-78.0211 720.951,-69.7348 744.638,-63.528"/>
<polygon fill="midnightblue" stroke="midnightblue" points="660.163,-82.0449 651.377,-87.9654 661.938,-88.8163 660.163,-82.0449"/>
</g>
<!-- Node6 -->
<g id="node6" class="node"><title>Node6</title>
<g id="a_node6"><a xlink:href="../../db/d4f/generic__networkhandler_8c.html#aca5593b7dd39d7a7b437999a367102d6" target="_top" xlink:title="Handles data on an established TCP connection, processed connection is given by socket. ">
<polygon fill="none" stroke="black" points="896,-41.5 896,-60.5 1024,-60.5 1024,-41.5 896,-41.5"/>
<text text-anchor="middle" x="960" y="-48.5" font-family="Helvetica,sans-Serif" font-size="10.00">HandleDataOnTcpSocket</text>
</a>
</g>
</g>
<!-- Node5&#45;&gt;Node6 -->
<g id="edge5" class="edge"><title>Node5&#45;&gt;Node6</title>
<path fill="none" stroke="midnightblue" d="M870.293,-52.5121C878.914,-52.3651 887.545,-52.218 895.853,-52.0764"/>
<polygon fill="midnightblue" stroke="midnightblue" points="870.135,-49.0141 860.196,-52.6842 870.254,-56.0131 870.135,-49.0141"/>
</g>
<!-- Node7 -->
<g id="node7" class="node"><title>Node7</title>
<g id="a_node7"><a xlink:href="../../da/dc2/generic__networkhandler_8h.html#a2f01af81d3e5018d9980e2bc28c9078a" target="_top" xlink:title="NetworkHandlerProcessOnce">
<polygon fill="none" stroke="black" points="1214,-40.5 1214,-59.5 1360,-59.5 1360,-40.5 1214,-40.5"/>
<text text-anchor="middle" x="1287" y="-47.5" font-family="Helvetica,sans-Serif" font-size="10.00">NetworkHandlerProcessOnce</text>
</a>
</g>
</g>
<!-- Node6&#45;&gt;Node7 -->
<g id="edge6" class="edge"><title>Node6&#45;&gt;Node7</title>
<path fill="none" stroke="midnightblue" d="M1034.18,-50.7748C1087.84,-50.6097 1160.35,-50.3866 1213.78,-50.2222"/>
<polygon fill="midnightblue" stroke="midnightblue" points="1034.04,-47.2752 1024.05,-50.806 1034.06,-54.2751 1034.04,-47.2752"/>
</g>
<!-- Node8 -->
<g id="node8" class="node"><title>Node8</title>
<g id="a_node8"><a xlink:href="../../d9/dfb/POSIX_2main_8c.html#ad338a7dbc41dc40bcecd0479377ef207" target="_top" xlink:title="main">
<polygon fill="none" stroke="black" points="1396,-21.5 1396,-40.5 1434,-40.5 1434,-21.5 1396,-21.5"/>
<text text-anchor="middle" x="1415" y="-28.5" font-family="Helvetica,sans-Serif" font-size="10.00">main</text>
</a>
</g>
</g>
<!-- Node7&#45;&gt;Node8 -->
<g id="edge7" class="edge"><title>Node7&#45;&gt;Node8</title>
<path fill="none" stroke="midnightblue" d="M1361.26,-38.9526C1374.1,-37.017 1386.35,-35.1695 1395.81,-33.7433"/>
<polygon fill="midnightblue" stroke="midnightblue" points="1360.74,-35.4923 1351.37,-40.4443 1361.78,-42.414 1360.74,-35.4923"/>
</g>
<!-- Node10 -->
<g id="node10" class="node"><title>Node10</title>
<g id="a_node10"><a xlink:href="../../d2/dbd/encap_8c.html#a49dc585614f655a5b313150a01fd7221" target="_top" xlink:title="Call Connection Manager. ">
<polygon fill="none" stroke="black" points="518,-39 518,-69 668,-69 668,-39 518,-39"/>
<text text-anchor="start" x="526" y="-57" font-family="Helvetica,sans-Serif" font-size="10.00">HandleReceivedSendUnitData</text>
<text text-anchor="middle" x="593" y="-46" font-family="Helvetica,sans-Serif" font-size="10.00">Command</text>
</a>
</g>
</g>
<!-- Node9&#45;&gt;Node10 -->
<g id="edge9" class="edge"><title>Node9&#45;&gt;Node10</title>
<path fill="none" stroke="midnightblue" d="M491.924,-54C500.626,-54 509.386,-54 517.909,-54"/>
<polygon fill="midnightblue" stroke="midnightblue" points="491.751,-50.5001 481.751,-54 491.751,-57.5001 491.751,-50.5001"/>
</g>
<!-- Node10&#45;&gt;Node5 -->
<g id="edge10" class="edge"><title>Node10&#45;&gt;Node5</title>
<path fill="none" stroke="midnightblue" d="M678.433,-54C686.897,-54 695.462,-54 703.846,-54"/>
<polygon fill="midnightblue" stroke="midnightblue" points="678.176,-50.5001 668.176,-54 678.176,-57.5001 678.176,-50.5001"/>
</g>
<!-- Node12 -->
<g id="node12" class="node"><title>Node12</title>
<g id="a_node12"><a xlink:href="../../df/d03/cipioconnection_8c.html#a20f1bc1c4cc4470cf371f94d51814de2" target="_top" xlink:title="Send the data from the produced CIP Object of the connection via the socket of the connection object ...">
<polygon fill="none" stroke="black" points="539.5,-0.5 539.5,-19.5 646.5,-19.5 646.5,-0.5 539.5,-0.5"/>
<text text-anchor="middle" x="593" y="-7.5" font-family="Helvetica,sans-Serif" font-size="10.00">SendConnectedData</text>
</a>
</g>
</g>
<!-- Node11&#45;&gt;Node12 -->
<g id="edge12" class="edge"><title>Node11&#45;&gt;Node12</title>
<path fill="none" stroke="midnightblue" d="M466.199,-10C490.01,-10 516.715,-10 539.375,-10"/>
<polygon fill="midnightblue" stroke="midnightblue" points="466.192,-6.5001 456.192,-10 466.192,-13.5001 466.192,-6.5001"/>
</g>
<!-- Node13 -->
<g id="node13" class="node"><title>Node13</title>
<g id="a_node13"><a xlink:href="../../df/d03/cipioconnection_8c.html#ab3282f146a3ea91c90cf14c32206ee8c" target="_top" xlink:title="SetIoConnectionCallbacks">
<polygon fill="none" stroke="black" points="715.5,-1.5 715.5,-20.5 848.5,-20.5 848.5,-1.5 715.5,-1.5"/>
<text text-anchor="middle" x="782" y="-8.5" font-family="Helvetica,sans-Serif" font-size="10.00">SetIoConnectionCallbacks</text>
</a>
</g>
</g>
<!-- Node12&#45;&gt;Node13 -->
<g id="edge13" class="edge"><title>Node12&#45;&gt;Node13</title>
<path fill="none" stroke="midnightblue" d="M656.59,-10.3347C675.523,-10.436 696.361,-10.5474 715.48,-10.6496"/>
<polygon fill="midnightblue" stroke="midnightblue" points="656.606,-6.83484 646.588,-10.2812 656.569,-13.8347 656.606,-6.83484"/>
</g>
<!-- Node14 -->
<g id="node14" class="node"><title>Node14</title>
<g id="a_node14"><a xlink:href="../../de/d45/cipioconnection_8h.html#a43e270b3f9b9f6296b12285c320c95aa" target="_top" xlink:title="Setup all data in order to establish an IO connection. ">
<polygon fill="none" stroke="black" points="902.5,-1.5 902.5,-20.5 1017.5,-20.5 1017.5,-1.5 902.5,-1.5"/>
<text text-anchor="middle" x="960" y="-8.5" font-family="Helvetica,sans-Serif" font-size="10.00">EstablishIoConnection</text>
</a>
</g>
</g>
<!-- Node13&#45;&gt;Node14 -->
<g id="edge14" class="edge"><title>Node13&#45;&gt;Node14</title>
<path fill="none" stroke="midnightblue" d="M858.603,-11C873.282,-11 888.43,-11 902.37,-11"/>
<polygon fill="midnightblue" stroke="midnightblue" points="858.536,-7.5001 848.536,-11 858.536,-14.5001 858.536,-7.5001"/>
</g>
<!-- Node15 -->
<g id="node15" class="node"><title>Node15</title>
<g id="a_node15"><a xlink:href="../../d2/da3/cipconnectionmanager_8h.html#a5ab0de6894d23e8fe84a6b46797c2212" target="_top" xlink:title="Initialize the data of the connection manager object. ">
<polygon fill="none" stroke="black" points="1060.5,-2.5 1060.5,-21.5 1177.5,-21.5 1177.5,-2.5 1060.5,-2.5"/>
<text text-anchor="middle" x="1119" y="-9.5" font-family="Helvetica,sans-Serif" font-size="10.00">ConnectionManagerInit</text>
</a>
</g>
</g>
<!-- Node14&#45;&gt;Node15 -->
<g id="edge15" class="edge"><title>Node14&#45;&gt;Node15</title>
<path fill="none" stroke="midnightblue" d="M1027.91,-11.4262C1038.7,-11.4949 1049.8,-11.5656 1060.35,-11.6328"/>
<polygon fill="midnightblue" stroke="midnightblue" points="1027.7,-7.92488 1017.68,-11.361 1027.66,-14.9247 1027.7,-7.92488"/>
</g>
<!-- Node16 -->
<g id="node16" class="node"><title>Node16</title>
<g id="a_node16"><a xlink:href="../../d2/dc9/group__CIP__API.html#ga5d4979945d124e28668b264c3823db1c" target="_top" xlink:title="Initialize and setup the CIP&#45;stack. ">
<polygon fill="none" stroke="black" points="1251.5,-2.5 1251.5,-21.5 1322.5,-21.5 1322.5,-2.5 1251.5,-2.5"/>
<text text-anchor="middle" x="1287" y="-9.5" font-family="Helvetica,sans-Serif" font-size="10.00">CipStackInit</text>
</a>
</g>
</g>
<!-- Node15&#45;&gt;Node16 -->
<g id="edge16" class="edge"><title>Node15&#45;&gt;Node16</title>
<path fill="none" stroke="midnightblue" d="M1187.81,-12C1209.61,-12 1232.85,-12 1251.25,-12"/>
<polygon fill="midnightblue" stroke="midnightblue" points="1187.59,-8.5001 1177.59,-12 1187.59,-15.5001 1187.59,-8.5001"/>
</g>
<!-- Node16&#45;&gt;Node8 -->
<g id="edge17" class="edge"><title>Node16&#45;&gt;Node8</title>
<path fill="none" stroke="midnightblue" d="M1332.77,-18.7513C1354.43,-22.0173 1379.24,-25.7577 1395.68,-28.2369"/>
<polygon fill="midnightblue" stroke="midnightblue" points="1333.17,-15.2724 1322.76,-17.2421 1332.13,-22.1942 1333.17,-15.2724"/>
</g>
</g>
</svg>
