<?xml version="1.0" encoding="UTF-8" standalone="no"?>
<!DOCTYPE svg PUBLIC "-//W3C//DTD SVG 1.1//EN"
 "http://www.w3.org/Graphics/SVG/1.1/DTD/svg11.dtd">
<!-- Generated by graphviz version 2.36.0 (20140111.2315)
 -->
<!-- Title: EncodeConnectedDataItemLength Pages: 1 -->
<svg width="1486pt" height="126pt"
 viewBox="0.00 0.00 1486.00 126.00" xmlns="http://www.w3.org/2000/svg" xmlns:xlink="http://www.w3.org/1999/xlink">
<g id="graph0" class="graph" transform="scale(1 1) rotate(0) translate(4 122)">
<title>EncodeConnectedDataItemLength</title>
<!-- Node1 -->
<g id="node1" class="node"><title>Node1</title>
<polygon fill="#bfbfbf" stroke="black" points="0.5,-54.5 0.5,-73.5 167.5,-73.5 167.5,-54.5 0.5,-54.5"/>
<text text-anchor="middle" x="84" y="-61.5" font-family="Helvetica,sans-Serif" font-size="10.00">EncodeConnectedDataItemLength</text>
</g>
<!-- Node2 -->
<g id="node2" class="node"><title>Node2</title>
<g id="a_node2"><a xlink:href="../../d3/d98/cpf_8c.html#aa28ed48b18b92a64faf70093eb74d891" target="_top" xlink:title="AssembleLinearMessage">
<polygon fill="none" stroke="black" points="204,-54.5 204,-73.5 330,-73.5 330,-54.5 204,-54.5"/>
<text text-anchor="middle" x="267" y="-61.5" font-family="Helvetica,sans-Serif" font-size="10.00">AssembleLinearMessage</text>
</a>
</g>
</g>
<!-- Node1&#45;&gt;Node2 -->
<g id="edge1" class="edge"><title>Node1&#45;&gt;Node2</title>
<path fill="none" stroke="midnightblue" d="M177.599,-64C186.502,-64 195.378,-64 203.881,-64"/>
<polygon fill="midnightblue" stroke="midnightblue" points="177.555,-60.5001 167.555,-64 177.555,-67.5001 177.555,-60.5001"/>
</g>
<!-- Node3 -->
<g id="node3" class="node"><title>Node3</title>
<g id="a_node3"><a xlink:href="../../d4/d91/group__ENCAP.html#ga137d29fba9dd744ed2e9323bf75e0bba" target="_top" xlink:title="AssembleIOMessage">
<polygon fill="none" stroke="black" points="392,-95.5 392,-114.5 502,-114.5 502,-95.5 392,-95.5"/>
<text text-anchor="middle" x="447" y="-102.5" font-family="Helvetica,sans-Serif" font-size="10.00">AssembleIOMessage</text>
</a>
</g>
</g>
<!-- Node2&#45;&gt;Node3 -->
<g id="edge2" class="edge"><title>Node2&#45;&gt;Node3</title>
<path fill="none" stroke="midnightblue" d="M319.355,-75.8291C346.432,-82.0658 379.208,-89.6153 404.632,-95.4714"/>
<polygon fill="midnightblue" stroke="midnightblue" points="319.815,-72.3433 309.284,-73.5093 318.243,-79.1646 319.815,-72.3433"/>
</g>
<!-- Node10 -->
<g id="node10" class="node"><title>Node10</title>
<g id="a_node10"><a xlink:href="../../d4/d91/group__ENCAP.html#ga18376333d90074460a180facd602c3d9" target="_top" xlink:title="NotifyCommonPacketFormat">
<polygon fill="none" stroke="black" points="375,-54.5 375,-73.5 519,-73.5 519,-54.5 375,-54.5"/>
<text text-anchor="middle" x="447" y="-61.5" font-family="Helvetica,sans-Serif" font-size="10.00">NotifyCommonPacketFormat</text>
</a>
</g>
</g>
<!-- Node2&#45;&gt;Node10 -->
<g id="edge9" class="edge"><title>Node2&#45;&gt;Node10</title>
<path fill="none" stroke="midnightblue" d="M340.555,-64C351.907,-64 363.629,-64 374.946,-64"/>
<polygon fill="midnightblue" stroke="midnightblue" points="340.256,-60.5001 330.256,-64 340.256,-67.5001 340.256,-60.5001"/>
</g>
<!-- Node15 -->
<g id="node15" class="node"><title>Node15</title>
<g id="a_node15"><a xlink:href="../../d4/d91/group__ENCAP.html#ga93b23ccc67639937716a8f436a96c2b5" target="_top" xlink:title="NotifyConnectedCommonPacket\lFormat">
<polygon fill="none" stroke="black" points="366.5,-3 366.5,-33 527.5,-33 527.5,-3 366.5,-3"/>
<text text-anchor="start" x="374.5" y="-21" font-family="Helvetica,sans-Serif" font-size="10.00">NotifyConnectedCommonPacket</text>
<text text-anchor="middle" x="447" y="-10" font-family="Helvetica,sans-Serif" font-size="10.00">Format</text>
</a>
</g>
</g>
<!-- Node2&#45;&gt;Node15 -->
<g id="edge15" class="edge"><title>Node2&#45;&gt;Node15</title>
<path fill="none" stroke="midnightblue" d="M314.799,-51.906C337.152,-46.1292 364.128,-39.1579 387.791,-33.0427"/>
<polygon fill="midnightblue" stroke="midnightblue" points="313.688,-48.578 304.882,-54.4688 315.439,-55.3553 313.688,-48.578"/>
</g>
<!-- Node4 -->
<g id="node4" class="node"><title>Node4</title>
<g id="a_node4"><a xlink:href="../../df/d03/cipioconnection_8c.html#a20f1bc1c4cc4470cf371f94d51814de2" target="_top" xlink:title="Send the data from the produced CIP Object of the connection via the socket of the connection object ...">
<polygon fill="none" stroke="black" points="585.5,-98.5 585.5,-117.5 692.5,-117.5 692.5,-98.5 585.5,-98.5"/>
<text text-anchor="middle" x="639" y="-105.5" font-family="Helvetica,sans-Serif" font-size="10.00">SendConnectedData</text>
</a>
</g>
</g>
<!-- Node3&#45;&gt;Node4 -->
<g id="edge3" class="edge"><title>Node3&#45;&gt;Node4</title>
<path fill="none" stroke="midnightblue" d="M512.199,-106.014C536.01,-106.39 562.715,-106.811 585.375,-107.169"/>
<polygon fill="midnightblue" stroke="midnightblue" points="512.246,-102.514 502.192,-105.856 512.136,-109.513 512.246,-102.514"/>
</g>
<!-- Node5 -->
<g id="node5" class="node"><title>Node5</title>
<g id="a_node5"><a xlink:href="../../df/d03/cipioconnection_8c.html#ab3282f146a3ea91c90cf14c32206ee8c" target="_top" xlink:title="SetIoConnectionCallbacks">
<polygon fill="none" stroke="black" points="761.5,-97.5 761.5,-116.5 894.5,-116.5 894.5,-97.5 761.5,-97.5"/>
<text text-anchor="middle" x="828" y="-104.5" font-family="Helvetica,sans-Serif" font-size="10.00">SetIoConnectionCallbacks</text>
</a>
</g>
</g>
<!-- Node4&#45;&gt;Node5 -->
<g id="edge4" class="edge"><title>Node4&#45;&gt;Node5</title>
<path fill="none" stroke="midnightblue" d="M702.59,-107.665C721.523,-107.564 742.361,-107.453 761.48,-107.35"/>
<polygon fill="midnightblue" stroke="midnightblue" points="702.569,-104.165 692.588,-107.719 702.606,-111.165 702.569,-104.165"/>
</g>
<!-- Node6 -->
<g id="node6" class="node"><title>Node6</title>
<g id="a_node6"><a xlink:href="../../de/d45/cipioconnection_8h.html#a43e270b3f9b9f6296b12285c320c95aa" target="_top" xlink:title="Setup all data in order to establish an IO connection. ">
<polygon fill="none" stroke="black" points="942.5,-94.5 942.5,-113.5 1057.5,-113.5 1057.5,-94.5 942.5,-94.5"/>
<text text-anchor="middle" x="1000" y="-101.5" font-family="Helvetica,sans-Serif" font-size="10.00">EstablishIoConnection</text>
</a>
</g>
</g>
<!-- Node5&#45;&gt;Node6 -->
<g id="edge5" class="edge"><title>Node5&#45;&gt;Node6</title>
<path fill="none" stroke="midnightblue" d="M904.762,-105.663C917.375,-105.44 930.263,-105.213 942.296,-105.001"/>
<polygon fill="midnightblue" stroke="midnightblue" points="904.663,-102.164 894.726,-105.84 904.787,-109.163 904.663,-102.164"/>
</g>
<!-- Node7 -->
<g id="node7" class="node"><title>Node7</title>
<g id="a_node7"><a xlink:href="../../d2/da3/cipconnectionmanager_8h.html#a5ab0de6894d23e8fe84a6b46797c2212" target="_top" xlink:title="Initialize the data of the connection manager object. ">
<polygon fill="none" stroke="black" points="1099.5,-93.5 1099.5,-112.5 1216.5,-112.5 1216.5,-93.5 1099.5,-93.5"/>
<text text-anchor="middle" x="1158" y="-100.5" font-family="Helvetica,sans-Serif" font-size="10.00">ConnectionManagerInit</text>
</a>
</g>
</g>
<!-- Node6&#45;&gt;Node7 -->
<g id="edge6" class="edge"><title>Node6&#45;&gt;Node7</title>
<path fill="none" stroke="midnightblue" d="M1067.77,-103.572C1078.33,-103.504 1089.17,-103.435 1099.5,-103.369"/>
<polygon fill="midnightblue" stroke="midnightblue" points="1067.74,-100.072 1057.76,-103.636 1067.78,-107.072 1067.74,-100.072"/>
</g>
<!-- Node8 -->
<g id="node8" class="node"><title>Node8</title>
<g id="a_node8"><a xlink:href="../../d2/dc9/group__CIP__API.html#ga5d4979945d124e28668b264c3823db1c" target="_top" xlink:title="Initialize and setup the CIP&#45;stack. ">
<polygon fill="none" stroke="black" points="1295.5,-93.5 1295.5,-112.5 1366.5,-112.5 1366.5,-93.5 1295.5,-93.5"/>
<text text-anchor="middle" x="1331" y="-100.5" font-family="Helvetica,sans-Serif" font-size="10.00">CipStackInit</text>
</a>
</g>
</g>
<!-- Node7&#45;&gt;Node8 -->
<g id="edge7" class="edge"><title>Node7&#45;&gt;Node8</title>
<path fill="none" stroke="midnightblue" d="M1227.14,-103C1250.54,-103 1275.76,-103 1295.36,-103"/>
<polygon fill="midnightblue" stroke="midnightblue" points="1226.89,-99.5001 1216.89,-103 1226.89,-106.5 1226.89,-99.5001"/>
</g>
<!-- Node9 -->
<g id="node9" class="node"><title>Node9</title>
<g id="a_node9"><a xlink:href="../../d9/dfb/POSIX_2main_8c.html#ad338a7dbc41dc40bcecd0479377ef207" target="_top" xlink:title="main">
<polygon fill="none" stroke="black" points="1440,-74.5 1440,-93.5 1478,-93.5 1478,-74.5 1440,-74.5"/>
<text text-anchor="middle" x="1459" y="-81.5" font-family="Helvetica,sans-Serif" font-size="10.00">main</text>
</a>
</g>
</g>
<!-- Node8&#45;&gt;Node9 -->
<g id="edge8" class="edge"><title>Node8&#45;&gt;Node9</title>
<path fill="none" stroke="midnightblue" d="M1376.77,-96.2487C1398.43,-92.9827 1423.24,-89.2423 1439.68,-86.7631"/>
<polygon fill="midnightblue" stroke="midnightblue" points="1376.13,-92.8058 1366.76,-97.7579 1377.17,-99.7276 1376.13,-92.8058"/>
</g>
<!-- Node11 -->
<g id="node11" class="node"><title>Node11</title>
<g id="a_node11"><a xlink:href="../../d7/df9/encap_8h.html#a51dd68441ec427052986aef5c5c076e4" target="_top" xlink:title="Call UCMM or Message Router if UCMM not implemented. ">
<polygon fill="none" stroke="black" points="565,-49 565,-79 713,-79 713,-49 565,-49"/>
<text text-anchor="start" x="573" y="-67" font-family="Helvetica,sans-Serif" font-size="10.00">HandleReceivedSendRequest</text>
<text text-anchor="middle" x="639" y="-56" font-family="Helvetica,sans-Serif" font-size="10.00">ResponseDataCommand</text>
</a>
</g>
</g>
<!-- Node10&#45;&gt;Node11 -->
<g id="edge10" class="edge"><title>Node10&#45;&gt;Node11</title>
<path fill="none" stroke="midnightblue" d="M529.304,-64C541.114,-64 553.212,-64 564.848,-64"/>
<polygon fill="midnightblue" stroke="midnightblue" points="529.019,-60.5001 519.019,-64 529.019,-67.5001 529.019,-60.5001"/>
</g>
<!-- Node12 -->
<g id="node12" class="node"><title>Node12</title>
<g id="a_node12"><a xlink:href="../../d2/dc9/group__CIP__API.html#ga16eaeeb12ba23b5a75c8e5902a33d70a" target="_top" xlink:title="Notify the encapsulation layer that an explicit message has been received via TCP. ">
<polygon fill="none" stroke="black" points="750,-54.5 750,-73.5 906,-73.5 906,-54.5 750,-54.5"/>
<text text-anchor="middle" x="828" y="-61.5" font-family="Helvetica,sans-Serif" font-size="10.00">HandleReceivedExplictTcpData</text>
</a>
</g>
</g>
<!-- Node11&#45;&gt;Node12 -->
<g id="edge11" class="edge"><title>Node11&#45;&gt;Node12</title>
<path fill="none" stroke="midnightblue" d="M723.108,-64C732.033,-64 741.087,-64 749.937,-64"/>
<polygon fill="midnightblue" stroke="midnightblue" points="723.103,-60.5001 713.103,-64 723.102,-67.5001 723.103,-60.5001"/>
</g>
<!-- Node13 -->
<g id="node13" class="node"><title>Node13</title>
<g id="a_node13"><a xlink:href="../../db/d4f/generic__networkhandler_8c.html#aca5593b7dd39d7a7b437999a367102d6" target="_top" xlink:title="Handles data on an established TCP connection, processed connection is given by socket. ">
<polygon fill="none" stroke="black" points="1094,-55.5 1094,-74.5 1222,-74.5 1222,-55.5 1094,-55.5"/>
<text text-anchor="middle" x="1158" y="-62.5" font-family="Helvetica,sans-Serif" font-size="10.00">HandleDataOnTcpSocket</text>
</a>
</g>
</g>
<!-- Node12&#45;&gt;Node13 -->
<g id="edge12" class="edge"><title>Node12&#45;&gt;Node13</title>
<path fill="none" stroke="midnightblue" d="M916.565,-64.267C972.45,-64.4373 1043.59,-64.6542 1093.94,-64.8078"/>
<polygon fill="midnightblue" stroke="midnightblue" points="916.327,-60.7663 906.316,-64.2357 916.305,-67.7663 916.327,-60.7663"/>
</g>
<!-- Node14 -->
<g id="node14" class="node"><title>Node14</title>
<g id="a_node14"><a xlink:href="../../da/dc2/generic__networkhandler_8h.html#a2f01af81d3e5018d9980e2bc28c9078a" target="_top" xlink:title="NetworkHandlerProcessOnce">
<polygon fill="none" stroke="black" points="1258,-55.5 1258,-74.5 1404,-74.5 1404,-55.5 1258,-55.5"/>
<text text-anchor="middle" x="1331" y="-62.5" font-family="Helvetica,sans-Serif" font-size="10.00">NetworkHandlerProcessOnce</text>
</a>
</g>
</g>
<!-- Node13&#45;&gt;Node14 -->
<g id="edge13" class="edge"><title>Node13&#45;&gt;Node14</title>
<path fill="none" stroke="midnightblue" d="M1232.38,-65C1240.82,-65 1249.42,-65 1257.84,-65"/>
<polygon fill="midnightblue" stroke="midnightblue" points="1232.19,-61.5001 1222.19,-65 1232.19,-68.5001 1232.19,-61.5001"/>
</g>
<!-- Node14&#45;&gt;Node9 -->
<g id="edge14" class="edge"><title>Node14&#45;&gt;Node9</title>
<path fill="none" stroke="midnightblue" d="M1405.26,-76.0474C1418.1,-77.983 1430.35,-79.8305 1439.81,-81.2567"/>
<polygon fill="midnightblue" stroke="midnightblue" points="1405.78,-72.586 1395.37,-74.5557 1404.74,-79.5077 1405.78,-72.586"/>
</g>
<!-- Node16 -->
<g id="node16" class="node"><title>Node16</title>
<g id="a_node16"><a xlink:href="../../d2/dbd/encap_8c.html#a49dc585614f655a5b313150a01fd7221" target="_top" xlink:title="Call Connection Manager. ">
<polygon fill="none" stroke="black" points="564,-0 564,-30 714,-30 714,-0 564,-0"/>
<text text-anchor="start" x="572" y="-18" font-family="Helvetica,sans-Serif" font-size="10.00">HandleReceivedSendUnitData</text>
<text text-anchor="middle" x="639" y="-7" font-family="Helvetica,sans-Serif" font-size="10.00">Command</text>
</a>
</g>
</g>
<!-- Node15&#45;&gt;Node16 -->
<g id="edge16" class="edge"><title>Node15&#45;&gt;Node16</title>
<path fill="none" stroke="midnightblue" d="M537.924,-16.5802C546.626,-16.4427 555.386,-16.3044 563.909,-16.1699"/>
<polygon fill="midnightblue" stroke="midnightblue" points="537.695,-13.0832 527.751,-16.7408 537.805,-20.0824 537.695,-13.0832"/>
</g>
<!-- Node16&#45;&gt;Node12 -->
<g id="edge17" class="edge"><title>Node16&#45;&gt;Node12</title>
<path fill="none" stroke="midnightblue" d="M707.173,-32.6014C735.328,-39.9789 766.951,-48.2652 790.638,-54.472"/>
<polygon fill="midnightblue" stroke="midnightblue" points="707.938,-29.1837 697.377,-30.0346 706.163,-35.9551 707.938,-29.1837"/>
</g>
</g>
</svg>
