<?xml version="1.0" encoding="UTF-8" standalone="no"?>
<!DOCTYPE svg PUBLIC "-//W3C//DTD SVG 1.1//EN"
 "http://www.w3.org/Graphics/SVG/1.1/DTD/svg11.dtd">
<!-- Generated by graphviz version 2.36.0 (20140111.2315)
 -->
<!-- Title: EncodeItemCount Pages: 1 -->
<svg width="1414pt" height="126pt"
 viewBox="0.00 0.00 1414.00 126.00" xmlns="http://www.w3.org/2000/svg" xmlns:xlink="http://www.w3.org/1999/xlink">
<g id="graph0" class="graph" transform="scale(1 1) rotate(0) translate(4 122)">
<title>EncodeItemCount</title>
<!-- Node1 -->
<g id="node1" class="node"><title>Node1</title>
<polygon fill="#bfbfbf" stroke="black" points="0.5,-54.5 0.5,-73.5 95.5,-73.5 95.5,-54.5 0.5,-54.5"/>
<text text-anchor="middle" x="48" y="-61.5" font-family="Helvetica,sans-Serif" font-size="10.00">EncodeItemCount</text>
</g>
<!-- Node2 -->
<g id="node2" class="node"><title>Node2</title>
<g id="a_node2"><a xlink:href="../../d3/d98/cpf_8c.html#aa28ed48b18b92a64faf70093eb74d891" target="_top" xlink:title="AssembleLinearMessage">
<polygon fill="none" stroke="black" points="132,-54.5 132,-73.5 258,-73.5 258,-54.5 132,-54.5"/>
<text text-anchor="middle" x="195" y="-61.5" font-family="Helvetica,sans-Serif" font-size="10.00">AssembleLinearMessage</text>
</a>
</g>
</g>
<!-- Node1&#45;&gt;Node2 -->
<g id="edge1" class="edge"><title>Node1&#45;&gt;Node2</title>
<path fill="none" stroke="midnightblue" d="M105.873,-64C114.382,-64 123.193,-64 131.805,-64"/>
<polygon fill="midnightblue" stroke="midnightblue" points="105.677,-60.5001 95.6771,-64 105.677,-67.5001 105.677,-60.5001"/>
</g>
<!-- Node3 -->
<g id="node3" class="node"><title>Node3</title>
<g id="a_node3"><a xlink:href="../../d4/d91/group__ENCAP.html#ga137d29fba9dd744ed2e9323bf75e0bba" target="_top" xlink:title="AssembleIOMessage">
<polygon fill="none" stroke="black" points="320,-95.5 320,-114.5 430,-114.5 430,-95.5 320,-95.5"/>
<text text-anchor="middle" x="375" y="-102.5" font-family="Helvetica,sans-Serif" font-size="10.00">AssembleIOMessage</text>
</a>
</g>
</g>
<!-- Node2&#45;&gt;Node3 -->
<g id="edge2" class="edge"><title>Node2&#45;&gt;Node3</title>
<path fill="none" stroke="midnightblue" d="M247.355,-75.8291C274.432,-82.0658 307.208,-89.6153 332.632,-95.4714"/>
<polygon fill="midnightblue" stroke="midnightblue" points="247.815,-72.3433 237.284,-73.5093 246.243,-79.1646 247.815,-72.3433"/>
</g>
<!-- Node10 -->
<g id="node10" class="node"><title>Node10</title>
<g id="a_node10"><a xlink:href="../../d4/d91/group__ENCAP.html#ga18376333d90074460a180facd602c3d9" target="_top" xlink:title="NotifyCommonPacketFormat">
<polygon fill="none" stroke="black" points="303,-54.5 303,-73.5 447,-73.5 447,-54.5 303,-54.5"/>
<text text-anchor="middle" x="375" y="-61.5" font-family="Helvetica,sans-Serif" font-size="10.00">NotifyCommonPacketFormat</text>
</a>
</g>
</g>
<!-- Node2&#45;&gt;Node10 -->
<g id="edge9" class="edge"><title>Node2&#45;&gt;Node10</title>
<path fill="none" stroke="midnightblue" d="M268.555,-64C279.907,-64 291.629,-64 302.946,-64"/>
<polygon fill="midnightblue" stroke="midnightblue" points="268.256,-60.5001 258.256,-64 268.256,-67.5001 268.256,-60.5001"/>
</g>
<!-- Node15 -->
<g id="node15" class="node"><title>Node15</title>
<g id="a_node15"><a xlink:href="../../d4/d91/group__ENCAP.html#ga93b23ccc67639937716a8f436a96c2b5" target="_top" xlink:title="NotifyConnectedCommonPacket\lFormat">
<polygon fill="none" stroke="black" points="294.5,-3 294.5,-33 455.5,-33 455.5,-3 294.5,-3"/>
<text text-anchor="start" x="302.5" y="-21" font-family="Helvetica,sans-Serif" font-size="10.00">NotifyConnectedCommonPacket</text>
<text text-anchor="middle" x="375" y="-10" font-family="Helvetica,sans-Serif" font-size="10.00">Format</text>
</a>
</g>
</g>
<!-- Node2&#45;&gt;Node15 -->
<g id="edge15" class="edge"><title>Node2&#45;&gt;Node15</title>
<path fill="none" stroke="midnightblue" d="M242.799,-51.906C265.152,-46.1292 292.128,-39.1579 315.791,-33.0427"/>
<polygon fill="midnightblue" stroke="midnightblue" points="241.688,-48.578 232.882,-54.4688 243.439,-55.3553 241.688,-48.578"/>
</g>
<!-- Node4 -->
<g id="node4" class="node"><title>Node4</title>
<g id="a_node4"><a xlink:href="../../df/d03/cipioconnection_8c.html#a20f1bc1c4cc4470cf371f94d51814de2" target="_top" xlink:title="Send the data from the produced CIP Object of the connection via the socket of the connection object ...">
<polygon fill="none" stroke="black" points="513.5,-98.5 513.5,-117.5 620.5,-117.5 620.5,-98.5 513.5,-98.5"/>
<text text-anchor="middle" x="567" y="-105.5" font-family="Helvetica,sans-Serif" font-size="10.00">SendConnectedData</text>
</a>
</g>
</g>
<!-- Node3&#45;&gt;Node4 -->
<g id="edge3" class="edge"><title>Node3&#45;&gt;Node4</title>
<path fill="none" stroke="midnightblue" d="M440.199,-106.014C464.01,-106.39 490.715,-106.811 513.375,-107.169"/>
<polygon fill="midnightblue" stroke="midnightblue" points="440.246,-102.514 430.192,-105.856 440.136,-109.513 440.246,-102.514"/>
</g>
<!-- Node5 -->
<g id="node5" class="node"><title>Node5</title>
<g id="a_node5"><a xlink:href="../../df/d03/cipioconnection_8c.html#ab3282f146a3ea91c90cf14c32206ee8c" target="_top" xlink:title="SetIoConnectionCallbacks">
<polygon fill="none" stroke="black" points="689.5,-97.5 689.5,-116.5 822.5,-116.5 822.5,-97.5 689.5,-97.5"/>
<text text-anchor="middle" x="756" y="-104.5" font-family="Helvetica,sans-Serif" font-size="10.00">SetIoConnectionCallbacks</text>
</a>
</g>
</g>
<!-- Node4&#45;&gt;Node5 -->
<g id="edge4" class="edge"><title>Node4&#45;&gt;Node5</title>
<path fill="none" stroke="midnightblue" d="M630.59,-107.665C649.523,-107.564 670.361,-107.453 689.48,-107.35"/>
<polygon fill="midnightblue" stroke="midnightblue" points="630.569,-104.165 620.588,-107.719 630.606,-111.165 630.569,-104.165"/>
</g>
<!-- Node6 -->
<g id="node6" class="node"><title>Node6</title>
<g id="a_node6"><a xlink:href="../../de/d45/cipioconnection_8h.html#a43e270b3f9b9f6296b12285c320c95aa" target="_top" xlink:title="Setup all data in order to establish an IO connection. ">
<polygon fill="none" stroke="black" points="870.5,-94.5 870.5,-113.5 985.5,-113.5 985.5,-94.5 870.5,-94.5"/>
<text text-anchor="middle" x="928" y="-101.5" font-family="Helvetica,sans-Serif" font-size="10.00">EstablishIoConnection</text>
</a>
</g>
</g>
<!-- Node5&#45;&gt;Node6 -->
<g id="edge5" class="edge"><title>Node5&#45;&gt;Node6</title>
<path fill="none" stroke="midnightblue" d="M832.762,-105.663C845.375,-105.44 858.263,-105.213 870.296,-105.001"/>
<polygon fill="midnightblue" stroke="midnightblue" points="832.663,-102.164 822.726,-105.84 832.787,-109.163 832.663,-102.164"/>
</g>
<!-- Node7 -->
<g id="node7" class="node"><title>Node7</title>
<g id="a_node7"><a xlink:href="../../d2/da3/cipconnectionmanager_8h.html#a5ab0de6894d23e8fe84a6b46797c2212" target="_top" xlink:title="Initialize the data of the connection manager object. ">
<polygon fill="none" stroke="black" points="1027.5,-93.5 1027.5,-112.5 1144.5,-112.5 1144.5,-93.5 1027.5,-93.5"/>
<text text-anchor="middle" x="1086" y="-100.5" font-family="Helvetica,sans-Serif" font-size="10.00">ConnectionManagerInit</text>
</a>
</g>
</g>
<!-- Node6&#45;&gt;Node7 -->
<g id="edge6" class="edge"><title>Node6&#45;&gt;Node7</title>
<path fill="none" stroke="midnightblue" d="M995.773,-103.572C1006.33,-103.504 1017.17,-103.435 1027.5,-103.369"/>
<polygon fill="midnightblue" stroke="midnightblue" points="995.738,-100.072 985.761,-103.636 995.783,-107.072 995.738,-100.072"/>
</g>
<!-- Node8 -->
<g id="node8" class="node"><title>Node8</title>
<g id="a_node8"><a xlink:href="../../d2/dc9/group__CIP__API.html#ga5d4979945d124e28668b264c3823db1c" target="_top" xlink:title="Initialize and setup the CIP&#45;stack. ">
<polygon fill="none" stroke="black" points="1223.5,-93.5 1223.5,-112.5 1294.5,-112.5 1294.5,-93.5 1223.5,-93.5"/>
<text text-anchor="middle" x="1259" y="-100.5" font-family="Helvetica,sans-Serif" font-size="10.00">CipStackInit</text>
</a>
</g>
</g>
<!-- Node7&#45;&gt;Node8 -->
<g id="edge7" class="edge"><title>Node7&#45;&gt;Node8</title>
<path fill="none" stroke="midnightblue" d="M1155.14,-103C1178.54,-103 1203.76,-103 1223.36,-103"/>
<polygon fill="midnightblue" stroke="midnightblue" points="1154.89,-99.5001 1144.89,-103 1154.89,-106.5 1154.89,-99.5001"/>
</g>
<!-- Node9 -->
<g id="node9" class="node"><title>Node9</title>
<g id="a_node9"><a xlink:href="../../d9/dfb/POSIX_2main_8c.html#ad338a7dbc41dc40bcecd0479377ef207" target="_top" xlink:title="main">
<polygon fill="none" stroke="black" points="1368,-74.5 1368,-93.5 1406,-93.5 1406,-74.5 1368,-74.5"/>
<text text-anchor="middle" x="1387" y="-81.5" font-family="Helvetica,sans-Serif" font-size="10.00">main</text>
</a>
</g>
</g>
<!-- Node8&#45;&gt;Node9 -->
<g id="edge8" class="edge"><title>Node8&#45;&gt;Node9</title>
<path fill="none" stroke="midnightblue" d="M1304.77,-96.2487C1326.43,-92.9827 1351.24,-89.2423 1367.68,-86.7631"/>
<polygon fill="midnightblue" stroke="midnightblue" points="1304.13,-92.8058 1294.76,-97.7579 1305.17,-99.7276 1304.13,-92.8058"/>
</g>
<!-- Node11 -->
<g id="node11" class="node"><title>Node11</title>
<g id="a_node11"><a xlink:href="../../d7/df9/encap_8h.html#a51dd68441ec427052986aef5c5c076e4" target="_top" xlink:title="Call UCMM or Message Router if UCMM not implemented. ">
<polygon fill="none" stroke="black" points="493,-49 493,-79 641,-79 641,-49 493,-49"/>
<text text-anchor="start" x="501" y="-67" font-family="Helvetica,sans-Serif" font-size="10.00">HandleReceivedSendRequest</text>
<text text-anchor="middle" x="567" y="-56" font-family="Helvetica,sans-Serif" font-size="10.00">ResponseDataCommand</text>
</a>
</g>
</g>
<!-- Node10&#45;&gt;Node11 -->
<g id="edge10" class="edge"><title>Node10&#45;&gt;Node11</title>
<path fill="none" stroke="midnightblue" d="M457.304,-64C469.114,-64 481.212,-64 492.848,-64"/>
<polygon fill="midnightblue" stroke="midnightblue" points="457.019,-60.5001 447.019,-64 457.019,-67.5001 457.019,-60.5001"/>
</g>
<!-- Node12 -->
<g id="node12" class="node"><title>Node12</title>
<g id="a_node12"><a xlink:href="../../d2/dc9/group__CIP__API.html#ga16eaeeb12ba23b5a75c8e5902a33d70a" target="_top" xlink:title="Notify the encapsulation layer that an explicit message has been received via TCP. ">
<polygon fill="none" stroke="black" points="678,-54.5 678,-73.5 834,-73.5 834,-54.5 678,-54.5"/>
<text text-anchor="middle" x="756" y="-61.5" font-family="Helvetica,sans-Serif" font-size="10.00">HandleReceivedExplictTcpData</text>
</a>
</g>
</g>
<!-- Node11&#45;&gt;Node12 -->
<g id="edge11" class="edge"><title>Node11&#45;&gt;Node12</title>
<path fill="none" stroke="midnightblue" d="M651.108,-64C660.033,-64 669.087,-64 677.937,-64"/>
<polygon fill="midnightblue" stroke="midnightblue" points="651.103,-60.5001 641.103,-64 651.102,-67.5001 651.103,-60.5001"/>
</g>
<!-- Node13 -->
<g id="node13" class="node"><title>Node13</title>
<g id="a_node13"><a xlink:href="../../db/d4f/generic__networkhandler_8c.html#aca5593b7dd39d7a7b437999a367102d6" target="_top" xlink:title="Handles data on an established TCP connection, processed connection is given by socket. ">
<polygon fill="none" stroke="black" points="1022,-55.5 1022,-74.5 1150,-74.5 1150,-55.5 1022,-55.5"/>
<text text-anchor="middle" x="1086" y="-62.5" font-family="Helvetica,sans-Serif" font-size="10.00">HandleDataOnTcpSocket</text>
</a>
</g>
</g>
<!-- Node12&#45;&gt;Node13 -->
<g id="edge12" class="edge"><title>Node12&#45;&gt;Node13</title>
<path fill="none" stroke="midnightblue" d="M844.565,-64.267C900.45,-64.4373 971.587,-64.6542 1021.94,-64.8078"/>
<polygon fill="midnightblue" stroke="midnightblue" points="844.327,-60.7663 834.316,-64.2357 844.305,-67.7663 844.327,-60.7663"/>
</g>
<!-- Node14 -->
<g id="node14" class="node"><title>Node14</title>
<g id="a_node14"><a xlink:href="../../da/dc2/generic__networkhandler_8h.html#a2f01af81d3e5018d9980e2bc28c9078a" target="_top" xlink:title="NetworkHandlerProcessOnce">
<polygon fill="none" stroke="black" points="1186,-55.5 1186,-74.5 1332,-74.5 1332,-55.5 1186,-55.5"/>
<text text-anchor="middle" x="1259" y="-62.5" font-family="Helvetica,sans-Serif" font-size="10.00">NetworkHandlerProcessOnce</text>
</a>
</g>
</g>
<!-- Node13&#45;&gt;Node14 -->
<g id="edge13" class="edge"><title>Node13&#45;&gt;Node14</title>
<path fill="none" stroke="midnightblue" d="M1160.38,-65C1168.82,-65 1177.42,-65 1185.84,-65"/>
<polygon fill="midnightblue" stroke="midnightblue" points="1160.19,-61.5001 1150.19,-65 1160.19,-68.5001 1160.19,-61.5001"/>
</g>
<!-- Node14&#45;&gt;Node9 -->
<g id="edge14" class="edge"><title>Node14&#45;&gt;Node9</title>
<path fill="none" stroke="midnightblue" d="M1333.26,-76.0474C1346.1,-77.983 1358.35,-79.8305 1367.81,-81.2567"/>
<polygon fill="midnightblue" stroke="midnightblue" points="1333.78,-72.586 1323.37,-74.5557 1332.74,-79.5077 1333.78,-72.586"/>
</g>
<!-- Node16 -->
<g id="node16" class="node"><title>Node16</title>
<g id="a_node16"><a xlink:href="../../d2/dbd/encap_8c.html#a49dc585614f655a5b313150a01fd7221" target="_top" xlink:title="Call Connection Manager. ">
<polygon fill="none" stroke="black" points="492,-0 492,-30 642,-30 642,-0 492,-0"/>
<text text-anchor="start" x="500" y="-18" font-family="Helvetica,sans-Serif" font-size="10.00">HandleReceivedSendUnitData</text>
<text text-anchor="middle" x="567" y="-7" font-family="Helvetica,sans-Serif" font-size="10.00">Command</text>
</a>
</g>
</g>
<!-- Node15&#45;&gt;Node16 -->
<g id="edge16" class="edge"><title>Node15&#45;&gt;Node16</title>
<path fill="none" stroke="midnightblue" d="M465.924,-16.5802C474.626,-16.4427 483.386,-16.3044 491.909,-16.1699"/>
<polygon fill="midnightblue" stroke="midnightblue" points="465.695,-13.0832 455.751,-16.7408 465.805,-20.0824 465.695,-13.0832"/>
</g>
<!-- Node16&#45;&gt;Node12 -->
<g id="edge17" class="edge"><title>Node16&#45;&gt;Node12</title>
<path fill="none" stroke="midnightblue" d="M635.173,-32.6014C663.328,-39.9789 694.951,-48.2652 718.638,-54.472"/>
<polygon fill="midnightblue" stroke="midnightblue" points="635.938,-29.1837 625.377,-30.0346 634.163,-35.9551 635.938,-29.1837"/>
</g>
</g>
</svg>
