<?xml version="1.0" encoding="UTF-8" standalone="no"?>
<!DOCTYPE svg PUBLIC "-//W3C//DTD SVG 1.1//EN"
 "http://www.w3.org/Graphics/SVG/1.1/DTD/svg11.dtd">
<!-- Generated by graphviz version 2.26.3 (20100126.1600)
 -->
<!-- Title: G Pages: 1 -->
<!--zoomable 110 -->
<svg id="main" version="1.1" xmlns="http://www.w3.org/2000/svg" xmlns:xlink="http://www.w3.org/1999/xlink" xml:space="preserve" onload="init(evt)">
        <defs>
                <circle id="rim" cx="0" cy="0" r="7"/>
                <circle id="rim2" cx="0" cy="0" r="3.5"/>
                <g id="zoomPlus">
                        <use xlink:href="#rim" fill="#404040">
                                <set attributeName="fill" to="#808080" begin="zoomplus.mouseover" end="zoomplus.mouseout"/>
                        </use>
                        <path d="M-4,0h8M0,-4v8" fill="none" stroke="white" stroke-width="1.5" pointer-events="none"/>
                </g>
                <g id="zoomMin">
                        <use xlink:href="#rim" fill="#404040">
                                <set attributeName="fill" to="#808080" begin="zoomminus.mouseover" end="zoomminus.mouseout"/>
                        </use>
                        <path d="M-4,0h8" fill="none" stroke="white" stroke-width="1.5" pointer-events="none"/>
                </g>
                <g id="dirArrow">
                        <path fill="none" stroke="white" stroke-width="1.5" d="M0,-3.0v7 M-2.5,-0.5L0,-3.0L2.5,-0.5"/>
                </g>
               <g id="resetDef">
                       <use xlink:href="#rim2" fill="#404040">
                               <set attributeName="fill" to="#808080" begin="reset.mouseover" end="reset.mouseout"/>
                       </use>
               </g>
        </defs>

<script type="text/javascript">
var viewWidth = 1586;
var viewHeight = 110;
var sectionId = 'dynsection-32';
</script>
<script xlink:href="../../svgpan.js"/>
<svg id="graph" class="graph">
<g id="viewport">
<title>G</title>
<!-- Node1 -->
<g id="node1" class="node"><title>Node1</title>
<polygon fill="#bfbfbf" stroke="black" points="0,-40.5 0,-61.5 128,-61.5 128,-40.5 0,-40.5"/>
<text text-anchor="middle" x="64" y="-48.5" font-family="Helvetica,sans-Serif" font-size="10.00">EncodeSequenceNumber</text>
</g>
<!-- Node2 -->
<g id="node3" class="node"><title>Node2</title>
<a xlink:href="../../d4/d91/group__ENCAP.html#gaa81c027561d86d2589b8002b36b88392" target="_top" xlink:title="Copy data from message_router_response struct and common_packet_format_data_item into linear memory i...">
<polygon fill="none" stroke="black" points="164,-40.5 164,-61.5 290,-61.5 290,-40.5 164,-40.5"/>
<text text-anchor="middle" x="227" y="-48.5" font-family="Helvetica,sans-Serif" font-size="10.00">AssembleLinearMessage</text>
</a>
</g>
<!-- Node1&#45;&gt;Node2 -->
<g id="edge2" class="edge"><title>Node1&#45;&gt;Node2</title>
<path fill="none" stroke="midnightblue" d="M138.629,-51C147.057,-51 155.584,-51 163.845,-51"/>
<polygon fill="midnightblue" stroke="midnightblue" points="138.422,-47.5001 128.422,-51 138.422,-54.5001 138.422,-47.5001"/>
</g>
<!-- Node3 -->
<g id="node5" class="node"><title>Node3</title>
<a xlink:href="../../d4/d91/group__ENCAP.html#ga86a32a262ea21cad9631fa02c81f1a03" target="_top" xlink:title="NotifyCommonPacketFormat">
<polygon fill="none" stroke="black" points="350,-80.5 350,-101.5 494,-101.5 494,-80.5 350,-80.5"/>
<text text-anchor="middle" x="422" y="-88.5" font-family="Helvetica,sans-Serif" font-size="10.00">NotifyCommonPacketFormat</text>
</a>
</g>
<!-- Node2&#45;&gt;Node3 -->
<g id="edge4" class="edge"><title>Node2&#45;&gt;Node3</title>
<path fill="none" stroke="midnightblue" d="M288.181,-63.55C314.724,-68.9946 345.456,-75.2986 370.77,-80.4913"/>
<polygon fill="midnightblue" stroke="midnightblue" points="288.733,-60.0904 278.234,-61.5095 287.327,-66.9477 288.733,-60.0904"/>
</g>
<!-- Node9 -->
<g id="node17" class="node"><title>Node9</title>
<a xlink:href="../../d4/d91/group__ENCAP.html#ga94ca28af85239d7dd63b3b044201fe51" target="_top" xlink:title="NotifyConnectedCommonPacketFormat">
<polygon fill="none" stroke="black" points="326.5,-40.5 326.5,-61.5 517.5,-61.5 517.5,-40.5 326.5,-40.5"/>
<text text-anchor="middle" x="422" y="-48.5" font-family="Helvetica,sans-Serif" font-size="10.00">NotifyConnectedCommonPacketFormat</text>
</a>
</g>
<!-- Node2&#45;&gt;Node9 -->
<g id="edge16" class="edge"><title>Node2&#45;&gt;Node9</title>
<path fill="none" stroke="midnightblue" d="M300.245,-51C308.731,-51 317.479,-51 326.209,-51"/>
<polygon fill="midnightblue" stroke="midnightblue" points="300.042,-47.5001 290.042,-51 300.042,-54.5001 300.042,-47.5001"/>
</g>
<!-- Node11 -->
<g id="node22" class="node"><title>Node11</title>
<a xlink:href="../../d4/d91/group__ENCAP.html#gad61fa4f84989cf27086d57557ad552c4" target="_top" xlink:title="AssembleIOMessage">
<polygon fill="none" stroke="black" points="367,-0.5 367,-21.5 477,-21.5 477,-0.5 367,-0.5"/>
<text text-anchor="middle" x="422" y="-8.5" font-family="Helvetica,sans-Serif" font-size="10.00">AssembleIOMessage</text>
</a>
</g>
<!-- Node2&#45;&gt;Node11 -->
<g id="edge22" class="edge"><title>Node2&#45;&gt;Node11</title>
<path fill="none" stroke="midnightblue" d="M288.181,-38.45C314.724,-33.0054 345.456,-26.7014 370.77,-21.5087"/>
<polygon fill="midnightblue" stroke="midnightblue" points="287.327,-35.0523 278.234,-40.4905 288.733,-41.9096 287.327,-35.0523"/>
</g>
<!-- Node4 -->
<g id="node7" class="node"><title>Node4</title>
<a xlink:href="../../d2/dbd/encap_8c.html#a638a3760c5969c8cd91977f1ac30058a" target="_top" xlink:title="Call UCMM or Message Router if UCMM not implemented.">
<polygon fill="none" stroke="black" points="554,-80.5 554,-101.5 812,-101.5 812,-80.5 554,-80.5"/>
<text text-anchor="middle" x="683" y="-88.5" font-family="Helvetica,sans-Serif" font-size="10.00">HandleReceivedSendRequestResponseDataCommand</text>
</a>
</g>
<!-- Node3&#45;&gt;Node4 -->
<g id="edge6" class="edge"><title>Node3&#45;&gt;Node4</title>
<path fill="none" stroke="midnightblue" d="M504.238,-91C520.061,-91 536.986,-91 553.881,-91"/>
<polygon fill="midnightblue" stroke="midnightblue" points="504.01,-87.5001 494.01,-91 504.01,-94.5001 504.01,-87.5001"/>
</g>
<!-- Node5 -->
<g id="node9" class="node"><title>Node5</title>
<a xlink:href="../../d2/dc9/group__CIP__API.html#gadeace7aa415ce7da686b522c85d131d1" target="_top" xlink:title="Notify the encapsulation layer that an explicit message has been received via TCP.">
<polygon fill="none" stroke="black" points="848,-40.5 848,-61.5 1004,-61.5 1004,-40.5 848,-40.5"/>
<text text-anchor="middle" x="926" y="-48.5" font-family="Helvetica,sans-Serif" font-size="10.00">HandleReceivedExplictTcpData</text>
</a>
</g>
<!-- Node4&#45;&gt;Node5 -->
<g id="edge8" class="edge"><title>Node4&#45;&gt;Node5</title>
<path fill="none" stroke="midnightblue" d="M762.713,-78.8948C779.027,-76.3462 796.075,-73.6311 812,-71 830.041,-68.0192 849.661,-64.6305 867.457,-61.5004"/>
<polygon fill="midnightblue" stroke="midnightblue" points="762.01,-75.4621 752.667,-80.458 763.086,-82.3788 762.01,-75.4621"/>
</g>
<!-- Node6 -->
<g id="node11" class="node"><title>Node6</title>
<a xlink:href="../../db/d4f/generic__networkhandler_8c.html#aca5593b7dd39d7a7b437999a367102d6" target="_top" xlink:title="Handles data on an established TCP connection, processed connection is given by socket.">
<polygon fill="none" stroke="black" points="1040,-40.5 1040,-61.5 1168,-61.5 1168,-40.5 1040,-40.5"/>
<text text-anchor="middle" x="1104" y="-48.5" font-family="Helvetica,sans-Serif" font-size="10.00">HandleDataOnTcpSocket</text>
</a>
</g>
<!-- Node5&#45;&gt;Node6 -->
<g id="edge10" class="edge"><title>Node5&#45;&gt;Node6</title>
<path fill="none" stroke="midnightblue" d="M1014.21,-51C1022.86,-51 1031.52,-51 1039.86,-51"/>
<polygon fill="midnightblue" stroke="midnightblue" points="1014.07,-47.5001 1004.07,-51 1014.07,-54.5001 1014.07,-47.5001"/>
</g>
<!-- Node7 -->
<g id="node13" class="node"><title>Node7</title>
<a xlink:href="../../da/dc2/generic__networkhandler_8h.html#a2f01af81d3e5018d9980e2bc28c9078a" target="_top" xlink:title="NetworkHandlerProcessOnce">
<polygon fill="none" stroke="black" points="1358,-40.5 1358,-61.5 1504,-61.5 1504,-40.5 1358,-40.5"/>
<text text-anchor="middle" x="1431" y="-48.5" font-family="Helvetica,sans-Serif" font-size="10.00">NetworkHandlerProcessOnce</text>
</a>
</g>
<!-- Node6&#45;&gt;Node7 -->
<g id="edge12" class="edge"><title>Node6&#45;&gt;Node7</title>
<path fill="none" stroke="midnightblue" d="M1178.36,-51C1232.1,-51 1304.34,-51 1357.81,-51"/>
<polygon fill="midnightblue" stroke="midnightblue" points="1178.21,-47.5001 1168.21,-51 1178.21,-54.5001 1178.21,-47.5001"/>
</g>
<!-- Node8 -->
<g id="node15" class="node"><title>Node8</title>
<a xlink:href="../../d9/dfb/POSIX_2main_8c.html#ad338a7dbc41dc40bcecd0479377ef207" target="_top" xlink:title="main">
<polygon fill="none" stroke="black" points="1540,-20.5 1540,-41.5 1578,-41.5 1578,-20.5 1540,-20.5"/>
<text text-anchor="middle" x="1559" y="-28.5" font-family="Helvetica,sans-Serif" font-size="10.00">main</text>
</a>
</g>
<!-- Node7&#45;&gt;Node8 -->
<g id="edge14" class="edge"><title>Node7&#45;&gt;Node8</title>
<path fill="none" stroke="midnightblue" d="M1508.34,-38.9158C1520.07,-37.0826 1531.18,-35.3472 1539.99,-33.9711"/>
<polygon fill="midnightblue" stroke="midnightblue" points="1507.71,-35.471 1498.37,-40.4729 1508.79,-42.3871 1507.71,-35.471"/>
</g>
<!-- Node10 -->
<g id="node19" class="node"><title>Node10</title>
<a xlink:href="../../d2/dbd/encap_8c.html#a2a5e809a74a56268ad9f51638796fb3d" target="_top" xlink:title="Call Connection Manager.">
<polygon fill="none" stroke="black" points="585.5,-40.5 585.5,-61.5 780.5,-61.5 780.5,-40.5 585.5,-40.5"/>
<text text-anchor="middle" x="683" y="-48.5" font-family="Helvetica,sans-Serif" font-size="10.00">HandleReceivedSendUnitDataCommand</text>
</a>
</g>
<!-- Node9&#45;&gt;Node10 -->
<g id="edge18" class="edge"><title>Node9&#45;&gt;Node10</title>
<path fill="none" stroke="midnightblue" d="M527.834,-51C546.768,-51 566.422,-51 585.12,-51"/>
<polygon fill="midnightblue" stroke="midnightblue" points="527.705,-47.5001 517.705,-51 527.705,-54.5001 527.705,-47.5001"/>
</g>
<!-- Node10&#45;&gt;Node5 -->
<g id="edge20" class="edge"><title>Node10&#45;&gt;Node5</title>
<path fill="none" stroke="midnightblue" d="M791.039,-51C810.156,-51 829.722,-51 847.814,-51"/>
<polygon fill="midnightblue" stroke="midnightblue" points="790.787,-47.5001 780.787,-51 790.787,-54.5001 790.787,-47.5001"/>
</g>
<!-- Node12 -->
<g id="node24" class="node"><title>Node12</title>
<a xlink:href="../../df/d03/cipioconnection_8c.html#a20f1bc1c4cc4470cf371f94d51814de2" target="_top" xlink:title="Send the data from the produced CIP Object of the connection via the socket of the connection object ...">
<polygon fill="none" stroke="black" points="629.5,-0.5 629.5,-21.5 736.5,-21.5 736.5,-0.5 629.5,-0.5"/>
<text text-anchor="middle" x="683" y="-8.5" font-family="Helvetica,sans-Serif" font-size="10.00">SendConnectedData</text>
</a>
</g>
<!-- Node11&#45;&gt;Node12 -->
<g id="edge24" class="edge"><title>Node11&#45;&gt;Node12</title>
<path fill="none" stroke="midnightblue" d="M487.307,-11C531.15,-11 588.203,-11 629.383,-11"/>
<polygon fill="midnightblue" stroke="midnightblue" points="487.032,-7.5001 477.032,-11 487.032,-14.5001 487.032,-7.5001"/>
</g>
<!-- Node13 -->
<g id="node26" class="node"><title>Node13</title>
<a xlink:href="../../df/d03/cipioconnection_8c.html#ab3282f146a3ea91c90cf14c32206ee8c" target="_top" xlink:title="SetIoConnectionCallbacks">
<polygon fill="none" stroke="black" points="859.5,-0.5 859.5,-21.5 992.5,-21.5 992.5,-0.5 859.5,-0.5"/>
<text text-anchor="middle" x="926" y="-8.5" font-family="Helvetica,sans-Serif" font-size="10.00">SetIoConnectionCallbacks</text>
</a>
</g>
<!-- Node12&#45;&gt;Node13 -->
<g id="edge26" class="edge"><title>Node12&#45;&gt;Node13</title>
<path fill="none" stroke="midnightblue" d="M746.656,-11C781.383,-11 824.334,-11 859.496,-11"/>
<polygon fill="midnightblue" stroke="midnightblue" points="746.628,-7.5001 736.628,-11 746.628,-14.5001 746.628,-7.5001"/>
</g>
<!-- Node14 -->
<g id="node28" class="node"><title>Node14</title>
<a xlink:href="../../de/d45/cipioconnection_8h.html#a43e270b3f9b9f6296b12285c320c95aa" target="_top" xlink:title="Setup all data in order to establish an IO connection.">
<polygon fill="none" stroke="black" points="1046.5,-0.5 1046.5,-21.5 1161.5,-21.5 1161.5,-0.5 1046.5,-0.5"/>
<text text-anchor="middle" x="1104" y="-8.5" font-family="Helvetica,sans-Serif" font-size="10.00">EstablishIoConnection</text>
</a>
</g>
<!-- Node13&#45;&gt;Node14 -->
<g id="edge28" class="edge"><title>Node13&#45;&gt;Node14</title>
<path fill="none" stroke="midnightblue" d="M1002.59,-11C1017.25,-11 1032.37,-11 1046.31,-11"/>
<polygon fill="midnightblue" stroke="midnightblue" points="1002.53,-7.5001 992.534,-11 1002.53,-14.5001 1002.53,-7.5001"/>
</g>
<!-- Node15 -->
<g id="node30" class="node"><title>Node15</title>
<a xlink:href="../../d2/da3/cipconnectionmanager_8h.html#a5ab0de6894d23e8fe84a6b46797c2212" target="_top" xlink:title="Initialize the data of the connection manager object.">
<polygon fill="none" stroke="black" points="1204.5,-0.5 1204.5,-21.5 1321.5,-21.5 1321.5,-0.5 1204.5,-0.5"/>
<text text-anchor="middle" x="1263" y="-8.5" font-family="Helvetica,sans-Serif" font-size="10.00">ConnectionManagerInit</text>
</a>
</g>
<!-- Node14&#45;&gt;Node15 -->
<g id="edge30" class="edge"><title>Node14&#45;&gt;Node15</title>
<path fill="none" stroke="midnightblue" d="M1172.06,-11C1182.82,-11 1193.87,-11 1204.39,-11"/>
<polygon fill="midnightblue" stroke="midnightblue" points="1171.85,-7.5001 1161.85,-11 1171.85,-14.5001 1171.85,-7.5001"/>
</g>
<!-- Node16 -->
<g id="node32" class="node"><title>Node16</title>
<a xlink:href="../../d2/dc9/group__CIP__API.html#ga5d4979945d124e28668b264c3823db1c" target="_top" xlink:title="Initialize and setup the CIP&#45;stack.">
<polygon fill="none" stroke="black" points="1395.5,-0.5 1395.5,-21.5 1466.5,-21.5 1466.5,-0.5 1395.5,-0.5"/>
<text text-anchor="middle" x="1431" y="-8.5" font-family="Helvetica,sans-Serif" font-size="10.00">CipStackInit</text>
</a>
</g>
<!-- Node15&#45;&gt;Node16 -->
<g id="edge32" class="edge"><title>Node15&#45;&gt;Node16</title>
<path fill="none" stroke="midnightblue" d="M1331.92,-11C1353.59,-11 1376.63,-11 1395.04,-11"/>
<polygon fill="midnightblue" stroke="midnightblue" points="1331.76,-7.5001 1321.76,-11 1331.76,-14.5001 1331.76,-7.5001"/>
</g>
<!-- Node16&#45;&gt;Node8 -->
<g id="edge34" class="edge"><title>Node16&#45;&gt;Node8</title>
<path fill="none" stroke="midnightblue" d="M1476.68,-18.138C1498.37,-21.5264 1523.12,-25.3934 1539.77,-27.995"/>
<polygon fill="midnightblue" stroke="midnightblue" points="1477.08,-14.6569 1466.66,-16.5711 1475.99,-21.573 1477.08,-14.6569"/>
</g>
</g>
</svg>
        <g id="navigator" transform="translate(0 0)" fill="#404254">
                <rect fill="#f2f5e9" fill-opacity="0.5" stroke="#606060" stroke-width=".5" x="0" y="0" width="60" height="60"/>
                <use id="zoomplus" xlink:href="#zoomPlus" x="17" y="9" onmousedown="handleZoom(evt,'in')"/>
                <use id="zoomminus" xlink:href="#zoomMin" x="42" y="9" onmousedown="handleZoom(evt,'out')"/>
                <use id="reset" xlink:href="#resetDef" x="30" y="36" onmousedown="handleReset()"/>
                <g id="arrowUp" xlink:href="#dirArrow" transform="translate(30 24)" onmousedown="handlePan(0,-1)">
                  <use xlink:href="#rim" fill="#404040">
                        <set attributeName="fill" to="#808080" begin="arrowUp.mouseover" end="arrowUp.mouseout"/>
                  </use>
                  <path fill="none" stroke="white" stroke-width="1.5" d="M0,-3.0v7 M-2.5,-0.5L0,-3.0L2.5,-0.5"/>
                </g>
                <g id="arrowRight" xlink:href="#dirArrow" transform="rotate(90) translate(36 -43)" onmousedown="handlePan(1,0)">
                  <use xlink:href="#rim" fill="#404040">
                        <set attributeName="fill" to="#808080" begin="arrowRight.mouseover" end="arrowRight.mouseout"/>
                  </use>
                  <path fill="none" stroke="white" stroke-width="1.5" d="M0,-3.0v7 M-2.5,-0.5L0,-3.0L2.5,-0.5"/>
                </g>
                <g id="arrowDown" xlink:href="#dirArrow" transform="rotate(180) translate(-30 -48)" onmousedown="handlePan(0,1)">
                  <use xlink:href="#rim" fill="#404040">
                        <set attributeName="fill" to="#808080" begin="arrowDown.mouseover" end="arrowDown.mouseout"/>
                  </use>
                  <path fill="none" stroke="white" stroke-width="1.5" d="M0,-3.0v7 M-2.5,-0.5L0,-3.0L2.5,-0.5"/>
                </g>
                <g id="arrowLeft" xlink:href="#dirArrow" transform="rotate(270) translate(-36 17)" onmousedown="handlePan(-1,0)">
                  <use xlink:href="#rim" fill="#404040">
                        <set attributeName="fill" to="#808080" begin="arrowLeft.mouseover" end="arrowLeft.mouseout"/>
                  </use>
                  <path fill="none" stroke="white" stroke-width="1.5" d="M0,-3.0v7 M-2.5,-0.5L0,-3.0L2.5,-0.5"/>
                </g>
        </g>
</svg>
