<?xml version="1.0" encoding="UTF-8" standalone="no"?>
<!DOCTYPE svg PUBLIC "-//W3C//DTD SVG 1.1//EN"
 "http://www.w3.org/Graphics/SVG/1.1/DTD/svg11.dtd">
<!-- Generated by graphviz version 2.36.0 (20140111.2315)
 -->
<!-- Title: EncodeDataItemData Pages: 1 -->
<!--zoomable 126 -->
<svg id="main" version="1.1" xmlns="http://www.w3.org/2000/svg" xmlns:xlink="http://www.w3.org/1999/xlink" xml:space="preserve" onload="init(evt)">
<style type="text/css"><![CDATA[
.edge:hover path { stroke: red; }
.edge:hover polygon { stroke: red; fill: red; }
]]></style>
<script type="text/javascript"><![CDATA[
var edges = document.getElementsByTagName('g');
if (edges && edges.length) {
  for (var i=0;i<edges.length;i++) {
    if (edges[i].id.substr(0,4)=='edge') {
      edges[i].setAttribute('class','edge');
    }
  }
}
]]></script>
        <defs>
                <circle id="rim" cx="0" cy="0" r="7"/>
                <circle id="rim2" cx="0" cy="0" r="3.5"/>
                <g id="zoomPlus">
                        <use xlink:href="#rim" fill="#404040">
                                <set attributeName="fill" to="#808080" begin="zoomplus.mouseover" end="zoomplus.mouseout"/>
                        </use>
                        <path d="M-4,0h8M0,-4v8" fill="none" stroke="white" stroke-width="1.5" pointer-events="none"/>
                </g>
                <g id="zoomMin">
                        <use xlink:href="#rim" fill="#404040">
                                <set attributeName="fill" to="#808080" begin="zoomminus.mouseover" end="zoomminus.mouseout"/>
                        </use>
                        <path d="M-4,0h8" fill="none" stroke="white" stroke-width="1.5" pointer-events="none"/>
                </g>
                <g id="dirArrow">
                        <path fill="none" stroke="white" stroke-width="1.5" d="M0,-3.0v7 M-2.5,-0.5L0,-3.0L2.5,-0.5"/>
                </g>
               <g id="resetDef">
                       <use xlink:href="#rim2" fill="#404040">
                               <set attributeName="fill" to="#808080" begin="reset.mouseover" end="reset.mouseout"/>
                       </use>
               </g>
        </defs>

<script type="text/javascript">
var viewWidth = 1432;
var viewHeight = 126;
var sectionId = 'dynsection-6';
</script>
<script xlink:href="../../svgpan.js"/>
<svg id="graph" class="graph">
<g id="viewport">
<title>EncodeDataItemData</title>
<!-- Node1 -->
<g id="node1" class="node"><title>Node1</title>
<polygon fill="#bfbfbf" stroke="black" points="0.5,-44.5 0.5,-63.5 111.5,-63.5 111.5,-44.5 0.5,-44.5"/>
<text text-anchor="middle" x="56" y="-51.5" font-family="Helvetica,sans-Serif" font-size="10.00">EncodeDataItemData</text>
</g>
<!-- Node2 -->
<g id="node2" class="node"><title>Node2</title>
<g id="a_node2"><a xlink:href="../../d4/d91/group__ENCAP.html#ga928d72bf57f65ff512f102466edad450" target="_top" xlink:title="Copy data from message_router_response struct and common_packet_format_data_item into linear memory i...">
<polygon fill="none" stroke="black" points="148,-44.5 148,-63.5 274,-63.5 274,-44.5 148,-44.5"/>
<text text-anchor="middle" x="211" y="-51.5" font-family="Helvetica,sans-Serif" font-size="10.00">AssembleLinearMessage</text>
</a>
</g>
</g>
<!-- Node1&#45;&gt;Node2 -->
<g id="edge1" class="edge"><title>Node1&#45;&gt;Node2</title>
<path fill="none" stroke="midnightblue" d="M122.071,-54C130.591,-54 139.305,-54 147.776,-54"/>
<polygon fill="midnightblue" stroke="midnightblue" points="121.804,-50.5001 111.804,-54 121.804,-57.5001 121.804,-50.5001"/>
</g>
<!-- Node3 -->
<g id="node3" class="node"><title>Node3</title>
<g id="a_node3"><a xlink:href="../../d4/d91/group__ENCAP.html#ga86a32a262ea21cad9631fa02c81f1a03" target="_top" xlink:title="NotifyCommonPacketFormat">
<polygon fill="none" stroke="black" points="319,-90.5 319,-109.5 463,-109.5 463,-90.5 319,-90.5"/>
<text text-anchor="middle" x="391" y="-97.5" font-family="Helvetica,sans-Serif" font-size="10.00">NotifyCommonPacketFormat</text>
</a>
</g>
</g>
<!-- Node2&#45;&gt;Node3 -->
<g id="edge2" class="edge"><title>Node2&#45;&gt;Node3</title>
<path fill="none" stroke="midnightblue" d="M258.94,-66.1306C288.402,-73.7444 325.85,-83.4219 353.166,-90.481"/>
<polygon fill="midnightblue" stroke="midnightblue" points="259.439,-62.6447 248.882,-63.5312 257.688,-69.422 259.439,-62.6447"/>
</g>
<!-- Node9 -->
<g id="node9" class="node"><title>Node9</title>
<g id="a_node9"><a xlink:href="../../d4/d91/group__ENCAP.html#ga93b23ccc67639937716a8f436a96c2b5" target="_top" xlink:title="NotifyConnectedCommonPacket\lFormat">
<polygon fill="none" stroke="black" points="310.5,-39 310.5,-69 471.5,-69 471.5,-39 310.5,-39"/>
<text text-anchor="start" x="318.5" y="-57" font-family="Helvetica,sans-Serif" font-size="10.00">NotifyConnectedCommonPacket</text>
<text text-anchor="middle" x="391" y="-46" font-family="Helvetica,sans-Serif" font-size="10.00">Format</text>
</a>
</g>
</g>
<!-- Node2&#45;&gt;Node9 -->
<g id="edge8" class="edge"><title>Node2&#45;&gt;Node9</title>
<path fill="none" stroke="midnightblue" d="M284.487,-54C292.978,-54 301.676,-54 310.258,-54"/>
<polygon fill="midnightblue" stroke="midnightblue" points="284.256,-50.5001 274.256,-54 284.256,-57.5001 284.256,-50.5001"/>
</g>
<!-- Node11 -->
<g id="node11" class="node"><title>Node11</title>
<g id="a_node11"><a xlink:href="../../d4/d91/group__ENCAP.html#gad61fa4f84989cf27086d57557ad552c4" target="_top" xlink:title="AssembleIOMessage">
<polygon fill="none" stroke="black" points="336,-0.5 336,-19.5 446,-19.5 446,-0.5 336,-0.5"/>
<text text-anchor="middle" x="391" y="-7.5" font-family="Helvetica,sans-Serif" font-size="10.00">AssembleIOMessage</text>
</a>
</g>
</g>
<!-- Node2&#45;&gt;Node11 -->
<g id="edge11" class="edge"><title>Node2&#45;&gt;Node11</title>
<path fill="none" stroke="midnightblue" d="M258.547,-41.9577C274.81,-37.7947 293.198,-33.1379 310,-29 322.752,-25.8594 336.671,-22.5222 349.27,-19.5354"/>
<polygon fill="midnightblue" stroke="midnightblue" points="257.544,-38.6014 248.728,-44.4769 259.284,-45.3818 257.544,-38.6014"/>
</g>
<!-- Node4 -->
<g id="node4" class="node"><title>Node4</title>
<g id="a_node4"><a xlink:href="../../d2/dbd/encap_8c.html#a51dd68441ec427052986aef5c5c076e4" target="_top" xlink:title="Call UCMM or Message Router if UCMM not implemented. ">
<polygon fill="none" stroke="black" points="509,-88 509,-118 657,-118 657,-88 509,-88"/>
<text text-anchor="start" x="517" y="-106" font-family="Helvetica,sans-Serif" font-size="10.00">HandleReceivedSendRequest</text>
<text text-anchor="middle" x="583" y="-95" font-family="Helvetica,sans-Serif" font-size="10.00">ResponseDataCommand</text>
</a>
</g>
</g>
<!-- Node3&#45;&gt;Node4 -->
<g id="edge3" class="edge"><title>Node3&#45;&gt;Node4</title>
<path fill="none" stroke="midnightblue" d="M473.304,-101.284C485.114,-101.47 497.212,-101.661 508.848,-101.845"/>
<polygon fill="midnightblue" stroke="midnightblue" points="473.073,-97.7798 463.019,-101.121 472.963,-104.779 473.073,-97.7798"/>
</g>
<!-- Node5 -->
<g id="node5" class="node"><title>Node5</title>
<g id="a_node5"><a xlink:href="../../d2/dc9/group__CIP__API.html#ga7f1c28a4eb68c1d335df52494b7e5b76" target="_top" xlink:title="Notify the encapsulation layer that an explicit message has been received via TCP. ">
<polygon fill="none" stroke="black" points="694,-44.5 694,-63.5 850,-63.5 850,-44.5 694,-44.5"/>
<text text-anchor="middle" x="772" y="-51.5" font-family="Helvetica,sans-Serif" font-size="10.00">HandleReceivedExplictTcpData</text>
</a>
</g>
</g>
<!-- Node4&#45;&gt;Node5 -->
<g id="edge4" class="edge"><title>Node4&#45;&gt;Node5</title>
<path fill="none" stroke="midnightblue" d="M651.173,-85.3986C679.328,-78.0211 710.951,-69.7348 734.638,-63.528"/>
<polygon fill="midnightblue" stroke="midnightblue" points="650.163,-82.0449 641.377,-87.9654 651.938,-88.8163 650.163,-82.0449"/>
</g>
<!-- Node6 -->
<g id="node6" class="node"><title>Node6</title>
<g id="a_node6"><a xlink:href="../../db/d4f/generic__networkhandler_8c.html#aca5593b7dd39d7a7b437999a367102d6" target="_top" xlink:title="Handles data on an established TCP connection, processed connection is given by socket. ">
<polygon fill="none" stroke="black" points="886,-41.5 886,-60.5 1014,-60.5 1014,-41.5 886,-41.5"/>
<text text-anchor="middle" x="950" y="-48.5" font-family="Helvetica,sans-Serif" font-size="10.00">HandleDataOnTcpSocket</text>
</a>
</g>
</g>
<!-- Node5&#45;&gt;Node6 -->
<g id="edge5" class="edge"><title>Node5&#45;&gt;Node6</title>
<path fill="none" stroke="midnightblue" d="M860.293,-52.5121C868.914,-52.3651 877.545,-52.218 885.853,-52.0764"/>
<polygon fill="midnightblue" stroke="midnightblue" points="860.135,-49.0141 850.196,-52.6842 860.254,-56.0131 860.135,-49.0141"/>
</g>
<!-- Node7 -->
<g id="node7" class="node"><title>Node7</title>
<g id="a_node7"><a xlink:href="../../da/dc2/generic__networkhandler_8h.html#a2f01af81d3e5018d9980e2bc28c9078a" target="_top" xlink:title="NetworkHandlerProcessOnce">
<polygon fill="none" stroke="black" points="1204,-40.5 1204,-59.5 1350,-59.5 1350,-40.5 1204,-40.5"/>
<text text-anchor="middle" x="1277" y="-47.5" font-family="Helvetica,sans-Serif" font-size="10.00">NetworkHandlerProcessOnce</text>
</a>
</g>
</g>
<!-- Node6&#45;&gt;Node7 -->
<g id="edge6" class="edge"><title>Node6&#45;&gt;Node7</title>
<path fill="none" stroke="midnightblue" d="M1024.18,-50.7748C1077.84,-50.6097 1150.35,-50.3866 1203.78,-50.2222"/>
<polygon fill="midnightblue" stroke="midnightblue" points="1024.04,-47.2752 1014.05,-50.806 1024.06,-54.2751 1024.04,-47.2752"/>
</g>
<!-- Node8 -->
<g id="node8" class="node"><title>Node8</title>
<g id="a_node8"><a xlink:href="../../d9/dfb/POSIX_2main_8c.html#ad338a7dbc41dc40bcecd0479377ef207" target="_top" xlink:title="main">
<polygon fill="none" stroke="black" points="1386,-21.5 1386,-40.5 1424,-40.5 1424,-21.5 1386,-21.5"/>
<text text-anchor="middle" x="1405" y="-28.5" font-family="Helvetica,sans-Serif" font-size="10.00">main</text>
</a>
</g>
</g>
<!-- Node7&#45;&gt;Node8 -->
<g id="edge7" class="edge"><title>Node7&#45;&gt;Node8</title>
<path fill="none" stroke="midnightblue" d="M1351.26,-38.9526C1364.1,-37.017 1376.35,-35.1695 1385.81,-33.7433"/>
<polygon fill="midnightblue" stroke="midnightblue" points="1350.74,-35.4923 1341.37,-40.4443 1351.78,-42.414 1350.74,-35.4923"/>
</g>
<!-- Node10 -->
<g id="node10" class="node"><title>Node10</title>
<g id="a_node10"><a xlink:href="../../d2/dbd/encap_8c.html#a49dc585614f655a5b313150a01fd7221" target="_top" xlink:title="Call Connection Manager. ">
<polygon fill="none" stroke="black" points="508,-39 508,-69 658,-69 658,-39 508,-39"/>
<text text-anchor="start" x="516" y="-57" font-family="Helvetica,sans-Serif" font-size="10.00">HandleReceivedSendUnitData</text>
<text text-anchor="middle" x="583" y="-46" font-family="Helvetica,sans-Serif" font-size="10.00">Command</text>
</a>
</g>
</g>
<!-- Node9&#45;&gt;Node10 -->
<g id="edge9" class="edge"><title>Node9&#45;&gt;Node10</title>
<path fill="none" stroke="midnightblue" d="M481.924,-54C490.626,-54 499.386,-54 507.909,-54"/>
<polygon fill="midnightblue" stroke="midnightblue" points="481.751,-50.5001 471.751,-54 481.751,-57.5001 481.751,-50.5001"/>
</g>
<!-- Node10&#45;&gt;Node5 -->
<g id="edge10" class="edge"><title>Node10&#45;&gt;Node5</title>
<path fill="none" stroke="midnightblue" d="M668.433,-54C676.897,-54 685.462,-54 693.846,-54"/>
<polygon fill="midnightblue" stroke="midnightblue" points="668.176,-50.5001 658.176,-54 668.176,-57.5001 668.176,-50.5001"/>
</g>
<!-- Node12 -->
<g id="node12" class="node"><title>Node12</title>
<g id="a_node12"><a xlink:href="../../df/d03/cipioconnection_8c.html#a20f1bc1c4cc4470cf371f94d51814de2" target="_top" xlink:title="Send the data from the produced CIP Object of the connection via the socket of the connection object ...">
<polygon fill="none" stroke="black" points="529.5,-0.5 529.5,-19.5 636.5,-19.5 636.5,-0.5 529.5,-0.5"/>
<text text-anchor="middle" x="583" y="-7.5" font-family="Helvetica,sans-Serif" font-size="10.00">SendConnectedData</text>
</a>
</g>
</g>
<!-- Node11&#45;&gt;Node12 -->
<g id="edge12" class="edge"><title>Node11&#45;&gt;Node12</title>
<path fill="none" stroke="midnightblue" d="M456.199,-10C480.01,-10 506.715,-10 529.375,-10"/>
<polygon fill="midnightblue" stroke="midnightblue" points="456.192,-6.5001 446.192,-10 456.192,-13.5001 456.192,-6.5001"/>
</g>
<!-- Node13 -->
<g id="node13" class="node"><title>Node13</title>
<g id="a_node13"><a xlink:href="../../df/d03/cipioconnection_8c.html#ab3282f146a3ea91c90cf14c32206ee8c" target="_top" xlink:title="SetIoConnectionCallbacks">
<polygon fill="none" stroke="black" points="705.5,-1.5 705.5,-20.5 838.5,-20.5 838.5,-1.5 705.5,-1.5"/>
<text text-anchor="middle" x="772" y="-8.5" font-family="Helvetica,sans-Serif" font-size="10.00">SetIoConnectionCallbacks</text>
</a>
</g>
</g>
<!-- Node12&#45;&gt;Node13 -->
<g id="edge13" class="edge"><title>Node12&#45;&gt;Node13</title>
<path fill="none" stroke="midnightblue" d="M646.59,-10.3347C665.523,-10.436 686.361,-10.5474 705.48,-10.6496"/>
<polygon fill="midnightblue" stroke="midnightblue" points="646.606,-6.83484 636.588,-10.2812 646.569,-13.8347 646.606,-6.83484"/>
</g>
<!-- Node14 -->
<g id="node14" class="node"><title>Node14</title>
<g id="a_node14"><a xlink:href="../../de/d45/cipioconnection_8h.html#a43e270b3f9b9f6296b12285c320c95aa" target="_top" xlink:title="Setup all data in order to establish an IO connection. ">
<polygon fill="none" stroke="black" points="892.5,-1.5 892.5,-20.5 1007.5,-20.5 1007.5,-1.5 892.5,-1.5"/>
<text text-anchor="middle" x="950" y="-8.5" font-family="Helvetica,sans-Serif" font-size="10.00">EstablishIoConnection</text>
</a>
</g>
</g>
<!-- Node13&#45;&gt;Node14 -->
<g id="edge14" class="edge"><title>Node13&#45;&gt;Node14</title>
<path fill="none" stroke="midnightblue" d="M848.603,-11C863.282,-11 878.43,-11 892.37,-11"/>
<polygon fill="midnightblue" stroke="midnightblue" points="848.536,-7.5001 838.536,-11 848.536,-14.5001 848.536,-7.5001"/>
</g>
<!-- Node15 -->
<g id="node15" class="node"><title>Node15</title>
<g id="a_node15"><a xlink:href="../../d2/da3/cipconnectionmanager_8h.html#a5ab0de6894d23e8fe84a6b46797c2212" target="_top" xlink:title="Initialize the data of the connection manager object. ">
<polygon fill="none" stroke="black" points="1050.5,-2.5 1050.5,-21.5 1167.5,-21.5 1167.5,-2.5 1050.5,-2.5"/>
<text text-anchor="middle" x="1109" y="-9.5" font-family="Helvetica,sans-Serif" font-size="10.00">ConnectionManagerInit</text>
</a>
</g>
</g>
<!-- Node14&#45;&gt;Node15 -->
<g id="edge15" class="edge"><title>Node14&#45;&gt;Node15</title>
<path fill="none" stroke="midnightblue" d="M1017.91,-11.4262C1028.7,-11.4949 1039.8,-11.5656 1050.35,-11.6328"/>
<polygon fill="midnightblue" stroke="midnightblue" points="1017.7,-7.92488 1007.68,-11.361 1017.66,-14.9247 1017.7,-7.92488"/>
</g>
<!-- Node16 -->
<g id="node16" class="node"><title>Node16</title>
<g id="a_node16"><a xlink:href="../../d2/dc9/group__CIP__API.html#ga5d4979945d124e28668b264c3823db1c" target="_top" xlink:title="Initialize and setup the CIP&#45;stack. ">
<polygon fill="none" stroke="black" points="1241.5,-2.5 1241.5,-21.5 1312.5,-21.5 1312.5,-2.5 1241.5,-2.5"/>
<text text-anchor="middle" x="1277" y="-9.5" font-family="Helvetica,sans-Serif" font-size="10.00">CipStackInit</text>
</a>
</g>
</g>
<!-- Node15&#45;&gt;Node16 -->
<g id="edge16" class="edge"><title>Node15&#45;&gt;Node16</title>
<path fill="none" stroke="midnightblue" d="M1177.81,-12C1199.61,-12 1222.85,-12 1241.25,-12"/>
<polygon fill="midnightblue" stroke="midnightblue" points="1177.59,-8.5001 1167.59,-12 1177.59,-15.5001 1177.59,-8.5001"/>
</g>
<!-- Node16&#45;&gt;Node8 -->
<g id="edge17" class="edge"><title>Node16&#45;&gt;Node8</title>
<path fill="none" stroke="midnightblue" d="M1322.77,-18.7513C1344.43,-22.0173 1369.24,-25.7577 1385.68,-28.2369"/>
<polygon fill="midnightblue" stroke="midnightblue" points="1323.17,-15.2724 1312.76,-17.2421 1322.13,-22.1942 1323.17,-15.2724"/>
</g>
</g>
</svg>
        <g id="navigator" transform="translate(0 0)" fill="#404254">
                <rect fill="#f2f5e9" fill-opacity="0.5" stroke="#606060" stroke-width=".5" x="0" y="0" width="60" height="60"/>
                <use id="zoomplus" xlink:href="#zoomPlus" x="17" y="9" onmousedown="handleZoom(evt,'in')"/>
                <use id="zoomminus" xlink:href="#zoomMin" x="42" y="9" onmousedown="handleZoom(evt,'out')"/>
                <use id="reset" xlink:href="#resetDef" x="30" y="36" onmousedown="handleReset()"/>
                <g id="arrowUp" xlink:href="#dirArrow" transform="translate(30 24)" onmousedown="handlePan(0,-1)">
                  <use xlink:href="#rim" fill="#404040">
                        <set attributeName="fill" to="#808080" begin="arrowUp.mouseover" end="arrowUp.mouseout"/>
                  </use>
                  <path fill="none" stroke="white" stroke-width="1.5" d="M0,-3.0v7 M-2.5,-0.5L0,-3.0L2.5,-0.5"/>
                </g>
                <g id="arrowRight" xlink:href="#dirArrow" transform="rotate(90) translate(36 -43)" onmousedown="handlePan(1,0)">
                  <use xlink:href="#rim" fill="#404040">
                        <set attributeName="fill" to="#808080" begin="arrowRight.mouseover" end="arrowRight.mouseout"/>
                  </use>
                  <path fill="none" stroke="white" stroke-width="1.5" d="M0,-3.0v7 M-2.5,-0.5L0,-3.0L2.5,-0.5"/>
                </g>
                <g id="arrowDown" xlink:href="#dirArrow" transform="rotate(180) translate(-30 -48)" onmousedown="handlePan(0,1)">
                  <use xlink:href="#rim" fill="#404040">
                        <set attributeName="fill" to="#808080" begin="arrowDown.mouseover" end="arrowDown.mouseout"/>
                  </use>
                  <path fill="none" stroke="white" stroke-width="1.5" d="M0,-3.0v7 M-2.5,-0.5L0,-3.0L2.5,-0.5"/>
                </g>
                <g id="arrowLeft" xlink:href="#dirArrow" transform="rotate(270) translate(-36 17)" onmousedown="handlePan(-1,0)">
                  <use xlink:href="#rim" fill="#404040">
                        <set attributeName="fill" to="#808080" begin="arrowLeft.mouseover" end="arrowLeft.mouseout"/>
                  </use>
                  <path fill="none" stroke="white" stroke-width="1.5" d="M0,-3.0v7 M-2.5,-0.5L0,-3.0L2.5,-0.5"/>
                </g>
        </g>
        <svg viewBox="0 0 15 15" width="100%" height="30px" preserveAspectRatio="xMaxYMin meet">
         <g id="arrow_out" transform="scale(0.3 0.3)">
          <a xlink:href="cpf_8c_a0abf0f8ed39e52fbd224c555dd23a0ac_icgraph_org.svg" target="_base">
           <rect id="button" ry="5" rx="5" y="6" x="6" height="38" width="38"
                fill="#f2f5e9" fill-opacity="0.5" stroke="#606060" stroke-width="1.0"/>
           <path id="arrow"
             d="M 11.500037,31.436501 C 11.940474,20.09759 22.043105,11.32322 32.158766,21.979434 L 37.068811,17.246167 C 37.068811,17.246167 37.088388,32 37.088388,32 L 22.160133,31.978069 C 22.160133,31.978069 26.997745,27.140456 26.997745,27.140456 C 18.528582,18.264221 13.291696,25.230495 11.500037,31.436501 z"
             style="fill:#404040;"/>
          </a>
         </g>
        </svg>
</svg>
