<?xml version="1.0" encoding="UTF-8" standalone="no"?>
<!DOCTYPE svg PUBLIC "-//W3C//DTD SVG 1.1//EN"
 "http://www.w3.org/Graphics/SVG/1.1/DTD/svg11.dtd">
<!-- Generated by graphviz version 2.26.3 (20100126.1600)
 -->
<!-- Title: G Pages: 1 -->
<!--zoomable 110 -->
<svg id="main" version="1.1" xmlns="http://www.w3.org/2000/svg" xmlns:xlink="http://www.w3.org/1999/xlink" xml:space="preserve" onload="init(evt)">
        <defs>
                <circle id="rim" cx="0" cy="0" r="7"/>
                <circle id="rim2" cx="0" cy="0" r="3.5"/>
                <g id="zoomPlus">
                        <use xlink:href="#rim" fill="#404040">
                                <set attributeName="fill" to="#808080" begin="zoomplus.mouseover" end="zoomplus.mouseout"/>
                        </use>
                        <path d="M-4,0h8M0,-4v8" fill="none" stroke="white" stroke-width="1.5" pointer-events="none"/>
                </g>
                <g id="zoomMin">
                        <use xlink:href="#rim" fill="#404040">
                                <set attributeName="fill" to="#808080" begin="zoomminus.mouseover" end="zoomminus.mouseout"/>
                        </use>
                        <path d="M-4,0h8" fill="none" stroke="white" stroke-width="1.5" pointer-events="none"/>
                </g>
                <g id="dirArrow">
                        <path fill="none" stroke="white" stroke-width="1.5" d="M0,-3.0v7 M-2.5,-0.5L0,-3.0L2.5,-0.5"/>
                </g>
               <g id="resetDef">
                       <use xlink:href="#rim2" fill="#404040">
                               <set attributeName="fill" to="#808080" begin="reset.mouseover" end="reset.mouseout"/>
                       </use>
               </g>
        </defs>

<script type="text/javascript">
var viewWidth = 1482;
var viewHeight = 110;
var sectionId = 'dynsection-38';
</script>
<script xlink:href="../../svgpan.js"/>
<svg id="graph" class="graph">
<g id="viewport">
<title>G</title>
<!-- Node1 -->
<g id="node1" class="node"><title>Node1</title>
<polygon fill="#bfbfbf" stroke="black" points="0.5,-40.5 0.5,-61.5 177.5,-61.5 177.5,-40.5 0.5,-40.5"/>
<text text-anchor="middle" x="89" y="-48.5" font-family="Helvetica,sans-Serif" font-size="10.00">EncodeUnconnectedDataItemLength</text>
</g>
<!-- Node2 -->
<g id="node3" class="node"><title>Node2</title>
<a xlink:href="../../d4/d91/group__ENCAP.html#gaa81c027561d86d2589b8002b36b88392" target="_top" xlink:title="Copy data from message_router_response struct and common_packet_format_data_item into linear memory i...">
<polygon fill="none" stroke="black" points="214,-40.5 214,-61.5 340,-61.5 340,-40.5 214,-40.5"/>
<text text-anchor="middle" x="277" y="-48.5" font-family="Helvetica,sans-Serif" font-size="10.00">AssembleLinearMessage</text>
</a>
</g>
<!-- Node1&#45;&gt;Node2 -->
<g id="edge2" class="edge"><title>Node1&#45;&gt;Node2</title>
<path fill="none" stroke="midnightblue" d="M188.047,-51C196.795,-51 205.484,-51 213.81,-51"/>
<polygon fill="midnightblue" stroke="midnightblue" points="187.77,-47.5001 177.77,-51 187.77,-54.5001 187.77,-47.5001"/>
</g>
<!-- Node3 -->
<g id="node5" class="node"><title>Node3</title>
<a xlink:href="../../d4/d91/group__ENCAP.html#ga401f152f47e54b0a6dddcfe723c086f9" target="_top" xlink:title="NotifyCommonPacketFormat">
<polygon fill="none" stroke="black" points="400,-80.5 400,-101.5 544,-101.5 544,-80.5 400,-80.5"/>
<text text-anchor="middle" x="472" y="-88.5" font-family="Helvetica,sans-Serif" font-size="10.00">NotifyCommonPacketFormat</text>
</a>
</g>
<!-- Node2&#45;&gt;Node3 -->
<g id="edge4" class="edge"><title>Node2&#45;&gt;Node3</title>
<path fill="none" stroke="midnightblue" d="M338.181,-63.55C364.724,-68.9946 395.456,-75.2986 420.77,-80.4913"/>
<polygon fill="midnightblue" stroke="midnightblue" points="338.733,-60.0904 328.234,-61.5095 337.327,-66.9477 338.733,-60.0904"/>
</g>
<!-- Node9 -->
<g id="node17" class="node"><title>Node9</title>
<a xlink:href="../../d4/d91/group__ENCAP.html#ga045feac9b8747e049e2420df1ec0844b" target="_top" xlink:title="NotifyConnectedCommonPacketFormat">
<polygon fill="none" stroke="black" points="376.5,-40.5 376.5,-61.5 567.5,-61.5 567.5,-40.5 376.5,-40.5"/>
<text text-anchor="middle" x="472" y="-48.5" font-family="Helvetica,sans-Serif" font-size="10.00">NotifyConnectedCommonPacketFormat</text>
</a>
</g>
<!-- Node2&#45;&gt;Node9 -->
<g id="edge16" class="edge"><title>Node2&#45;&gt;Node9</title>
<path fill="none" stroke="midnightblue" d="M350.245,-51C358.731,-51 367.479,-51 376.209,-51"/>
<polygon fill="midnightblue" stroke="midnightblue" points="350.042,-47.5001 340.042,-51 350.042,-54.5001 350.042,-47.5001"/>
</g>
<!-- Node11 -->
<g id="node22" class="node"><title>Node11</title>
<a xlink:href="../../d4/d91/group__ENCAP.html#gad61fa4f84989cf27086d57557ad552c4" target="_top" xlink:title="AssembleIOMessage">
<polygon fill="none" stroke="black" points="417,-0.5 417,-21.5 527,-21.5 527,-0.5 417,-0.5"/>
<text text-anchor="middle" x="472" y="-8.5" font-family="Helvetica,sans-Serif" font-size="10.00">AssembleIOMessage</text>
</a>
</g>
<!-- Node2&#45;&gt;Node11 -->
<g id="edge22" class="edge"><title>Node2&#45;&gt;Node11</title>
<path fill="none" stroke="midnightblue" d="M338.181,-38.45C364.724,-33.0054 395.456,-26.7014 420.77,-21.5087"/>
<polygon fill="midnightblue" stroke="midnightblue" points="337.327,-35.0523 328.234,-40.4905 338.733,-41.9096 337.327,-35.0523"/>
</g>
<!-- Node4 -->
<g id="node7" class="node"><title>Node4</title>
<a xlink:href="../../d2/dbd/encap_8c.html#a8f504a25dc1b6319392fa18a81d5d923" target="_top" xlink:title="Call UCMM or Message Router if UCMM not implemented.">
<polygon fill="none" stroke="black" points="604,-80.5 604,-101.5 862,-101.5 862,-80.5 604,-80.5"/>
<text text-anchor="middle" x="733" y="-88.5" font-family="Helvetica,sans-Serif" font-size="10.00">HandleReceivedSendRequestResponseDataCommand</text>
</a>
</g>
<!-- Node3&#45;&gt;Node4 -->
<g id="edge6" class="edge"><title>Node3&#45;&gt;Node4</title>
<path fill="none" stroke="midnightblue" d="M554.238,-91C570.061,-91 586.986,-91 603.881,-91"/>
<polygon fill="midnightblue" stroke="midnightblue" points="554.01,-87.5001 544.01,-91 554.01,-94.5001 554.01,-87.5001"/>
</g>
<!-- Node5 -->
<g id="node9" class="node"><title>Node5</title>
<a xlink:href="../../d2/dc9/group__CIP__API.html#gacbbc9669d41357e1c8497c34ee8eeffb" target="_top" xlink:title="Notify the encapsulation layer that an explicit message has been received via TCP.">
<polygon fill="none" stroke="black" points="898,-40.5 898,-61.5 1054,-61.5 1054,-40.5 898,-40.5"/>
<text text-anchor="middle" x="976" y="-48.5" font-family="Helvetica,sans-Serif" font-size="10.00">HandleReceivedExplictTcpData</text>
</a>
</g>
<!-- Node4&#45;&gt;Node5 -->
<g id="edge8" class="edge"><title>Node4&#45;&gt;Node5</title>
<path fill="none" stroke="midnightblue" d="M812.713,-78.8948C829.027,-76.3462 846.075,-73.6311 862,-71 880.041,-68.0192 899.661,-64.6305 917.457,-61.5004"/>
<polygon fill="midnightblue" stroke="midnightblue" points="812.01,-75.4621 802.667,-80.458 813.086,-82.3788 812.01,-75.4621"/>
</g>
<!-- Node6 -->
<g id="node11" class="node"><title>Node6</title>
<a xlink:href="../../db/d4f/generic__networkhandler_8c.html#aca5593b7dd39d7a7b437999a367102d6" target="_top" xlink:title="Handles data on an established TCP connection, processed connection is given by socket.">
<polygon fill="none" stroke="black" points="1090,-40.5 1090,-61.5 1218,-61.5 1218,-40.5 1090,-40.5"/>
<text text-anchor="middle" x="1154" y="-48.5" font-family="Helvetica,sans-Serif" font-size="10.00">HandleDataOnTcpSocket</text>
</a>
</g>
<!-- Node5&#45;&gt;Node6 -->
<g id="edge10" class="edge"><title>Node5&#45;&gt;Node6</title>
<path fill="none" stroke="midnightblue" d="M1064.21,-51C1072.86,-51 1081.52,-51 1089.86,-51"/>
<polygon fill="midnightblue" stroke="midnightblue" points="1064.07,-47.5001 1054.07,-51 1064.07,-54.5001 1064.07,-47.5001"/>
</g>
<!-- Node7 -->
<g id="node13" class="node"><title>Node7</title>
<a xlink:href="../../da/dc2/generic__networkhandler_8h.html#a2f01af81d3e5018d9980e2bc28c9078a" target="_top" xlink:title="NetworkHandlerProcessOnce">
<polygon fill="none" stroke="black" points="1254,-40.5 1254,-61.5 1400,-61.5 1400,-40.5 1254,-40.5"/>
<text text-anchor="middle" x="1327" y="-48.5" font-family="Helvetica,sans-Serif" font-size="10.00">NetworkHandlerProcessOnce</text>
</a>
</g>
<!-- Node6&#45;&gt;Node7 -->
<g id="edge12" class="edge"><title>Node6&#45;&gt;Node7</title>
<path fill="none" stroke="midnightblue" d="M1228.53,-51C1236.91,-51 1245.43,-51 1253.79,-51"/>
<polygon fill="midnightblue" stroke="midnightblue" points="1228.42,-47.5001 1218.42,-51 1228.42,-54.5001 1228.42,-47.5001"/>
</g>
<!-- Node8 -->
<g id="node15" class="node"><title>Node8</title>
<a xlink:href="../../d9/dfb/POSIX_2main_8c.html#ad338a7dbc41dc40bcecd0479377ef207" target="_top" xlink:title="main">
<polygon fill="none" stroke="black" points="1436,-20.5 1436,-41.5 1474,-41.5 1474,-20.5 1436,-20.5"/>
<text text-anchor="middle" x="1455" y="-28.5" font-family="Helvetica,sans-Serif" font-size="10.00">main</text>
</a>
</g>
<!-- Node7&#45;&gt;Node8 -->
<g id="edge14" class="edge"><title>Node7&#45;&gt;Node8</title>
<path fill="none" stroke="midnightblue" d="M1404.34,-38.9158C1416.07,-37.0826 1427.18,-35.3472 1435.99,-33.9711"/>
<polygon fill="midnightblue" stroke="midnightblue" points="1403.71,-35.471 1394.37,-40.4729 1404.79,-42.3871 1403.71,-35.471"/>
</g>
<!-- Node10 -->
<g id="node19" class="node"><title>Node10</title>
<a xlink:href="../../d2/dbd/encap_8c.html#a10ebe924ba34755ccdf5fde6f1c2340b" target="_top" xlink:title="Call Connection Manager.">
<polygon fill="none" stroke="black" points="635.5,-40.5 635.5,-61.5 830.5,-61.5 830.5,-40.5 635.5,-40.5"/>
<text text-anchor="middle" x="733" y="-48.5" font-family="Helvetica,sans-Serif" font-size="10.00">HandleReceivedSendUnitDataCommand</text>
</a>
</g>
<!-- Node9&#45;&gt;Node10 -->
<g id="edge18" class="edge"><title>Node9&#45;&gt;Node10</title>
<path fill="none" stroke="midnightblue" d="M577.834,-51C596.768,-51 616.422,-51 635.12,-51"/>
<polygon fill="midnightblue" stroke="midnightblue" points="577.705,-47.5001 567.705,-51 577.705,-54.5001 577.705,-47.5001"/>
</g>
<!-- Node10&#45;&gt;Node5 -->
<g id="edge20" class="edge"><title>Node10&#45;&gt;Node5</title>
<path fill="none" stroke="midnightblue" d="M841.039,-51C860.156,-51 879.722,-51 897.814,-51"/>
<polygon fill="midnightblue" stroke="midnightblue" points="840.787,-47.5001 830.787,-51 840.787,-54.5001 840.787,-47.5001"/>
</g>
<!-- Node12 -->
<g id="node24" class="node"><title>Node12</title>
<a xlink:href="../../df/d03/cipioconnection_8c.html#a41f8d71772b5defa587ac0da6124cc47" target="_top" xlink:title="Send the data from the produced CIP Object of the connection via the socket of the connection object ...">
<polygon fill="none" stroke="black" points="679.5,-0.5 679.5,-21.5 786.5,-21.5 786.5,-0.5 679.5,-0.5"/>
<text text-anchor="middle" x="733" y="-8.5" font-family="Helvetica,sans-Serif" font-size="10.00">SendConnectedData</text>
</a>
</g>
<!-- Node11&#45;&gt;Node12 -->
<g id="edge24" class="edge"><title>Node11&#45;&gt;Node12</title>
<path fill="none" stroke="midnightblue" d="M537.307,-11C581.15,-11 638.203,-11 679.383,-11"/>
<polygon fill="midnightblue" stroke="midnightblue" points="537.032,-7.5001 527.032,-11 537.032,-14.5001 537.032,-7.5001"/>
</g>
<!-- Node13 -->
<g id="node26" class="node"><title>Node13</title>
<a xlink:href="../../de/d45/cipioconnection_8h.html#aacd202b378a3fa8d5770536b698a0f51" target="_top" xlink:title="Setup all data in order to establish an IO connection.">
<polygon fill="none" stroke="black" points="921,-0.5 921,-21.5 1031,-21.5 1031,-0.5 921,-0.5"/>
<text text-anchor="middle" x="976" y="-8.5" font-family="Helvetica,sans-Serif" font-size="10.00">EstablishIoConnction</text>
</a>
</g>
<!-- Node12&#45;&gt;Node13 -->
<g id="edge26" class="edge"><title>Node12&#45;&gt;Node13</title>
<path fill="none" stroke="midnightblue" d="M796.705,-11C835.254,-11 883.924,-11 920.825,-11"/>
<polygon fill="midnightblue" stroke="midnightblue" points="796.628,-7.5001 786.628,-11 796.628,-14.5001 796.628,-7.5001"/>
</g>
<!-- Node14 -->
<g id="node28" class="node"><title>Node14</title>
<a xlink:href="../../d2/da3/cipconnectionmanager_8h.html#a5ab0de6894d23e8fe84a6b46797c2212" target="_top" xlink:title="Initialize the data of the connection manager object.">
<polygon fill="none" stroke="black" points="1095.5,-0.5 1095.5,-21.5 1212.5,-21.5 1212.5,-0.5 1095.5,-0.5"/>
<text text-anchor="middle" x="1154" y="-8.5" font-family="Helvetica,sans-Serif" font-size="10.00">ConnectionManagerInit</text>
</a>
</g>
<!-- Node13&#45;&gt;Node14 -->
<g id="edge28" class="edge"><title>Node13&#45;&gt;Node14</title>
<path fill="none" stroke="midnightblue" d="M1041.54,-11C1059.15,-11 1078.08,-11 1095.3,-11"/>
<polygon fill="midnightblue" stroke="midnightblue" points="1041.34,-7.5001 1031.34,-11 1041.34,-14.5001 1041.34,-7.5001"/>
</g>
<!-- Node15 -->
<g id="node30" class="node"><title>Node15</title>
<a xlink:href="../../d2/dc9/group__CIP__API.html#ga5d4979945d124e28668b264c3823db1c" target="_top" xlink:title="Initialize and setup the CIP&#45;stack.">
<polygon fill="none" stroke="black" points="1291.5,-0.5 1291.5,-21.5 1362.5,-21.5 1362.5,-0.5 1291.5,-0.5"/>
<text text-anchor="middle" x="1327" y="-8.5" font-family="Helvetica,sans-Serif" font-size="10.00">CipStackInit</text>
</a>
</g>
<!-- Node14&#45;&gt;Node15 -->
<g id="edge30" class="edge"><title>Node14&#45;&gt;Node15</title>
<path fill="none" stroke="midnightblue" d="M1222.86,-11C1246.35,-11 1271.66,-11 1291.45,-11"/>
<polygon fill="midnightblue" stroke="midnightblue" points="1222.57,-7.5001 1212.57,-11 1222.57,-14.5001 1222.57,-7.5001"/>
</g>
<!-- Node15&#45;&gt;Node8 -->
<g id="edge32" class="edge"><title>Node15&#45;&gt;Node8</title>
<path fill="none" stroke="midnightblue" d="M1372.68,-18.138C1394.37,-21.5264 1419.12,-25.3934 1435.77,-27.995"/>
<polygon fill="midnightblue" stroke="midnightblue" points="1373.08,-14.6569 1362.66,-16.5711 1371.99,-21.573 1373.08,-14.6569"/>
</g>
</g>
</svg>
        <g id="navigator" transform="translate(0 0)" fill="#404254">
                <rect fill="#f2f5e9" fill-opacity="0.5" stroke="#606060" stroke-width=".5" x="0" y="0" width="60" height="60"/>
                <use id="zoomplus" xlink:href="#zoomPlus" x="17" y="9" onmousedown="handleZoom(evt,'in')"/>
                <use id="zoomminus" xlink:href="#zoomMin" x="42" y="9" onmousedown="handleZoom(evt,'out')"/>
                <use id="reset" xlink:href="#resetDef" x="30" y="36" onmousedown="handleReset()"/>
                <g id="arrowUp" xlink:href="#dirArrow" transform="translate(30 24)" onmousedown="handlePan(0,-1)">
                  <use xlink:href="#rim" fill="#404040">
                        <set attributeName="fill" to="#808080" begin="arrowUp.mouseover" end="arrowUp.mouseout"/>
                  </use>
                  <path fill="none" stroke="white" stroke-width="1.5" d="M0,-3.0v7 M-2.5,-0.5L0,-3.0L2.5,-0.5"/>
                </g>
                <g id="arrowRight" xlink:href="#dirArrow" transform="rotate(90) translate(36 -43)" onmousedown="handlePan(1,0)">
                  <use xlink:href="#rim" fill="#404040">
                        <set attributeName="fill" to="#808080" begin="arrowRight.mouseover" end="arrowRight.mouseout"/>
                  </use>
                  <path fill="none" stroke="white" stroke-width="1.5" d="M0,-3.0v7 M-2.5,-0.5L0,-3.0L2.5,-0.5"/>
                </g>
                <g id="arrowDown" xlink:href="#dirArrow" transform="rotate(180) translate(-30 -48)" onmousedown="handlePan(0,1)">
                  <use xlink:href="#rim" fill="#404040">
                        <set attributeName="fill" to="#808080" begin="arrowDown.mouseover" end="arrowDown.mouseout"/>
                  </use>
                  <path fill="none" stroke="white" stroke-width="1.5" d="M0,-3.0v7 M-2.5,-0.5L0,-3.0L2.5,-0.5"/>
                </g>
                <g id="arrowLeft" xlink:href="#dirArrow" transform="rotate(270) translate(-36 17)" onmousedown="handlePan(-1,0)">
                  <use xlink:href="#rim" fill="#404040">
                        <set attributeName="fill" to="#808080" begin="arrowLeft.mouseover" end="arrowLeft.mouseout"/>
                  </use>
                  <path fill="none" stroke="white" stroke-width="1.5" d="M0,-3.0v7 M-2.5,-0.5L0,-3.0L2.5,-0.5"/>
                </g>
        </g>
</svg>
