<?xml version="1.0" encoding="UTF-8" standalone="no"?>
<!DOCTYPE svg PUBLIC "-//W3C//DTD SVG 1.1//EN"
 "http://www.w3.org/Graphics/SVG/1.1/DTD/svg11.dtd">
<!-- Generated by graphviz version 2.36.0 (20140111.2315)
 -->
<!-- Title: EncodeExtendedStatus Pages: 1 -->
<svg width="1440pt" height="126pt"
 viewBox="0.00 0.00 1440.00 126.00" xmlns="http://www.w3.org/2000/svg" xmlns:xlink="http://www.w3.org/1999/xlink">
<g id="graph0" class="graph" transform="scale(1 1) rotate(0) translate(4 122)">
<title>EncodeExtendedStatus</title>
<!-- Node1 -->
<g id="node1" class="node"><title>Node1</title>
<polygon fill="#bfbfbf" stroke="black" points="0.5,-44.5 0.5,-63.5 119.5,-63.5 119.5,-44.5 0.5,-44.5"/>
<text text-anchor="middle" x="60" y="-51.5" font-family="Helvetica,sans-Serif" font-size="10.00">EncodeExtendedStatus</text>
</g>
<!-- Node2 -->
<g id="node2" class="node"><title>Node2</title>
<g id="a_node2"><a xlink:href="../../d4/d91/group__ENCAP.html#gaa28ed48b18b92a64faf70093eb74d891" target="_top" xlink:title="Copy data from message_router_response struct and common_packet_format_data_item into linear memory i...">
<polygon fill="none" stroke="black" points="156,-44.5 156,-63.5 282,-63.5 282,-44.5 156,-44.5"/>
<text text-anchor="middle" x="219" y="-51.5" font-family="Helvetica,sans-Serif" font-size="10.00">AssembleLinearMessage</text>
</a>
</g>
</g>
<!-- Node1&#45;&gt;Node2 -->
<g id="edge1" class="edge"><title>Node1&#45;&gt;Node2</title>
<path fill="none" stroke="midnightblue" d="M129.942,-54C138.572,-54 147.359,-54 155.876,-54"/>
<polygon fill="midnightblue" stroke="midnightblue" points="129.908,-50.5001 119.908,-54 129.908,-57.5001 129.908,-50.5001"/>
</g>
<!-- Node3 -->
<g id="node3" class="node"><title>Node3</title>
<g id="a_node3"><a xlink:href="../../d4/d91/group__ENCAP.html#ga75b2c48c742099adcf72364108be9847" target="_top" xlink:title="NotifyCommonPacketFormat">
<polygon fill="none" stroke="black" points="327,-90.5 327,-109.5 471,-109.5 471,-90.5 327,-90.5"/>
<text text-anchor="middle" x="399" y="-97.5" font-family="Helvetica,sans-Serif" font-size="10.00">NotifyCommonPacketFormat</text>
</a>
</g>
</g>
<!-- Node2&#45;&gt;Node3 -->
<g id="edge2" class="edge"><title>Node2&#45;&gt;Node3</title>
<path fill="none" stroke="midnightblue" d="M266.94,-66.1306C296.402,-73.7444 333.85,-83.4219 361.166,-90.481"/>
<polygon fill="midnightblue" stroke="midnightblue" points="267.439,-62.6447 256.882,-63.5312 265.688,-69.422 267.439,-62.6447"/>
</g>
<!-- Node9 -->
<g id="node9" class="node"><title>Node9</title>
<g id="a_node9"><a xlink:href="../../d4/d91/group__ENCAP.html#ga93b23ccc67639937716a8f436a96c2b5" target="_top" xlink:title="NotifyConnectedCommonPacket\lFormat">
<polygon fill="none" stroke="black" points="318.5,-39 318.5,-69 479.5,-69 479.5,-39 318.5,-39"/>
<text text-anchor="start" x="326.5" y="-57" font-family="Helvetica,sans-Serif" font-size="10.00">NotifyConnectedCommonPacket</text>
<text text-anchor="middle" x="399" y="-46" font-family="Helvetica,sans-Serif" font-size="10.00">Format</text>
</a>
</g>
</g>
<!-- Node2&#45;&gt;Node9 -->
<g id="edge8" class="edge"><title>Node2&#45;&gt;Node9</title>
<path fill="none" stroke="midnightblue" d="M292.487,-54C300.978,-54 309.676,-54 318.258,-54"/>
<polygon fill="midnightblue" stroke="midnightblue" points="292.256,-50.5001 282.256,-54 292.256,-57.5001 292.256,-50.5001"/>
</g>
<!-- Node11 -->
<g id="node11" class="node"><title>Node11</title>
<g id="a_node11"><a xlink:href="../../d4/d91/group__ENCAP.html#gad61fa4f84989cf27086d57557ad552c4" target="_top" xlink:title="AssembleIOMessage">
<polygon fill="none" stroke="black" points="344,-0.5 344,-19.5 454,-19.5 454,-0.5 344,-0.5"/>
<text text-anchor="middle" x="399" y="-7.5" font-family="Helvetica,sans-Serif" font-size="10.00">AssembleIOMessage</text>
</a>
</g>
</g>
<!-- Node2&#45;&gt;Node11 -->
<g id="edge11" class="edge"><title>Node2&#45;&gt;Node11</title>
<path fill="none" stroke="midnightblue" d="M266.547,-41.9577C282.81,-37.7947 301.198,-33.1379 318,-29 330.752,-25.8594 344.671,-22.5222 357.27,-19.5354"/>
<polygon fill="midnightblue" stroke="midnightblue" points="265.544,-38.6014 256.728,-44.4769 267.284,-45.3818 265.544,-38.6014"/>
</g>
<!-- Node4 -->
<g id="node4" class="node"><title>Node4</title>
<g id="a_node4"><a xlink:href="../../d7/df9/encap_8h.html#a51dd68441ec427052986aef5c5c076e4" target="_top" xlink:title="Call UCMM or Message Router if UCMM not implemented. ">
<polygon fill="none" stroke="black" points="517,-88 517,-118 665,-118 665,-88 517,-88"/>
<text text-anchor="start" x="525" y="-106" font-family="Helvetica,sans-Serif" font-size="10.00">HandleReceivedSendRequest</text>
<text text-anchor="middle" x="591" y="-95" font-family="Helvetica,sans-Serif" font-size="10.00">ResponseDataCommand</text>
</a>
</g>
</g>
<!-- Node3&#45;&gt;Node4 -->
<g id="edge3" class="edge"><title>Node3&#45;&gt;Node4</title>
<path fill="none" stroke="midnightblue" d="M481.304,-101.284C493.114,-101.47 505.212,-101.661 516.848,-101.845"/>
<polygon fill="midnightblue" stroke="midnightblue" points="481.073,-97.7798 471.019,-101.121 480.963,-104.779 481.073,-97.7798"/>
</g>
<!-- Node5 -->
<g id="node5" class="node"><title>Node5</title>
<g id="a_node5"><a xlink:href="../../d2/dc9/group__CIP__API.html#ga7f1c28a4eb68c1d335df52494b7e5b76" target="_top" xlink:title="Notify the encapsulation layer that an explicit message has been received via TCP. ">
<polygon fill="none" stroke="black" points="702,-44.5 702,-63.5 858,-63.5 858,-44.5 702,-44.5"/>
<text text-anchor="middle" x="780" y="-51.5" font-family="Helvetica,sans-Serif" font-size="10.00">HandleReceivedExplictTcpData</text>
</a>
</g>
</g>
<!-- Node4&#45;&gt;Node5 -->
<g id="edge4" class="edge"><title>Node4&#45;&gt;Node5</title>
<path fill="none" stroke="midnightblue" d="M659.173,-85.3986C687.328,-78.0211 718.951,-69.7348 742.638,-63.528"/>
<polygon fill="midnightblue" stroke="midnightblue" points="658.163,-82.0449 649.377,-87.9654 659.938,-88.8163 658.163,-82.0449"/>
</g>
<!-- Node6 -->
<g id="node6" class="node"><title>Node6</title>
<g id="a_node6"><a xlink:href="../../db/d4f/generic__networkhandler_8c.html#aca5593b7dd39d7a7b437999a367102d6" target="_top" xlink:title="Handles data on an established TCP connection, processed connection is given by socket. ">
<polygon fill="none" stroke="black" points="894,-41.5 894,-60.5 1022,-60.5 1022,-41.5 894,-41.5"/>
<text text-anchor="middle" x="958" y="-48.5" font-family="Helvetica,sans-Serif" font-size="10.00">HandleDataOnTcpSocket</text>
</a>
</g>
</g>
<!-- Node5&#45;&gt;Node6 -->
<g id="edge5" class="edge"><title>Node5&#45;&gt;Node6</title>
<path fill="none" stroke="midnightblue" d="M868.293,-52.5121C876.914,-52.3651 885.545,-52.218 893.853,-52.0764"/>
<polygon fill="midnightblue" stroke="midnightblue" points="868.135,-49.0141 858.196,-52.6842 868.254,-56.0131 868.135,-49.0141"/>
</g>
<!-- Node7 -->
<g id="node7" class="node"><title>Node7</title>
<g id="a_node7"><a xlink:href="../../da/dc2/generic__networkhandler_8h.html#a2f01af81d3e5018d9980e2bc28c9078a" target="_top" xlink:title="NetworkHandlerProcessOnce">
<polygon fill="none" stroke="black" points="1212,-40.5 1212,-59.5 1358,-59.5 1358,-40.5 1212,-40.5"/>
<text text-anchor="middle" x="1285" y="-47.5" font-family="Helvetica,sans-Serif" font-size="10.00">NetworkHandlerProcessOnce</text>
</a>
</g>
</g>
<!-- Node6&#45;&gt;Node7 -->
<g id="edge6" class="edge"><title>Node6&#45;&gt;Node7</title>
<path fill="none" stroke="midnightblue" d="M1032.18,-50.7748C1085.84,-50.6097 1158.35,-50.3866 1211.78,-50.2222"/>
<polygon fill="midnightblue" stroke="midnightblue" points="1032.04,-47.2752 1022.05,-50.806 1032.06,-54.2751 1032.04,-47.2752"/>
</g>
<!-- Node8 -->
<g id="node8" class="node"><title>Node8</title>
<g id="a_node8"><a xlink:href="../../d9/dfb/POSIX_2main_8c.html#ad338a7dbc41dc40bcecd0479377ef207" target="_top" xlink:title="main">
<polygon fill="none" stroke="black" points="1394,-21.5 1394,-40.5 1432,-40.5 1432,-21.5 1394,-21.5"/>
<text text-anchor="middle" x="1413" y="-28.5" font-family="Helvetica,sans-Serif" font-size="10.00">main</text>
</a>
</g>
</g>
<!-- Node7&#45;&gt;Node8 -->
<g id="edge7" class="edge"><title>Node7&#45;&gt;Node8</title>
<path fill="none" stroke="midnightblue" d="M1359.26,-38.9526C1372.1,-37.017 1384.35,-35.1695 1393.81,-33.7433"/>
<polygon fill="midnightblue" stroke="midnightblue" points="1358.74,-35.4923 1349.37,-40.4443 1359.78,-42.414 1358.74,-35.4923"/>
</g>
<!-- Node10 -->
<g id="node10" class="node"><title>Node10</title>
<g id="a_node10"><a xlink:href="../../d2/dbd/encap_8c.html#a49dc585614f655a5b313150a01fd7221" target="_top" xlink:title="Call Connection Manager. ">
<polygon fill="none" stroke="black" points="516,-39 516,-69 666,-69 666,-39 516,-39"/>
<text text-anchor="start" x="524" y="-57" font-family="Helvetica,sans-Serif" font-size="10.00">HandleReceivedSendUnitData</text>
<text text-anchor="middle" x="591" y="-46" font-family="Helvetica,sans-Serif" font-size="10.00">Command</text>
</a>
</g>
</g>
<!-- Node9&#45;&gt;Node10 -->
<g id="edge9" class="edge"><title>Node9&#45;&gt;Node10</title>
<path fill="none" stroke="midnightblue" d="M489.924,-54C498.626,-54 507.386,-54 515.909,-54"/>
<polygon fill="midnightblue" stroke="midnightblue" points="489.751,-50.5001 479.751,-54 489.751,-57.5001 489.751,-50.5001"/>
</g>
<!-- Node10&#45;&gt;Node5 -->
<g id="edge10" class="edge"><title>Node10&#45;&gt;Node5</title>
<path fill="none" stroke="midnightblue" d="M676.433,-54C684.897,-54 693.462,-54 701.846,-54"/>
<polygon fill="midnightblue" stroke="midnightblue" points="676.176,-50.5001 666.176,-54 676.176,-57.5001 676.176,-50.5001"/>
</g>
<!-- Node12 -->
<g id="node12" class="node"><title>Node12</title>
<g id="a_node12"><a xlink:href="../../df/d03/cipioconnection_8c.html#a20f1bc1c4cc4470cf371f94d51814de2" target="_top" xlink:title="Send the data from the produced CIP Object of the connection via the socket of the connection object ...">
<polygon fill="none" stroke="black" points="537.5,-0.5 537.5,-19.5 644.5,-19.5 644.5,-0.5 537.5,-0.5"/>
<text text-anchor="middle" x="591" y="-7.5" font-family="Helvetica,sans-Serif" font-size="10.00">SendConnectedData</text>
</a>
</g>
</g>
<!-- Node11&#45;&gt;Node12 -->
<g id="edge12" class="edge"><title>Node11&#45;&gt;Node12</title>
<path fill="none" stroke="midnightblue" d="M464.199,-10C488.01,-10 514.715,-10 537.375,-10"/>
<polygon fill="midnightblue" stroke="midnightblue" points="464.192,-6.5001 454.192,-10 464.192,-13.5001 464.192,-6.5001"/>
</g>
<!-- Node13 -->
<g id="node13" class="node"><title>Node13</title>
<g id="a_node13"><a xlink:href="../../df/d03/cipioconnection_8c.html#ab3282f146a3ea91c90cf14c32206ee8c" target="_top" xlink:title="SetIoConnectionCallbacks">
<polygon fill="none" stroke="black" points="713.5,-1.5 713.5,-20.5 846.5,-20.5 846.5,-1.5 713.5,-1.5"/>
<text text-anchor="middle" x="780" y="-8.5" font-family="Helvetica,sans-Serif" font-size="10.00">SetIoConnectionCallbacks</text>
</a>
</g>
</g>
<!-- Node12&#45;&gt;Node13 -->
<g id="edge13" class="edge"><title>Node12&#45;&gt;Node13</title>
<path fill="none" stroke="midnightblue" d="M654.59,-10.3347C673.523,-10.436 694.361,-10.5474 713.48,-10.6496"/>
<polygon fill="midnightblue" stroke="midnightblue" points="654.606,-6.83484 644.588,-10.2812 654.569,-13.8347 654.606,-6.83484"/>
</g>
<!-- Node14 -->
<g id="node14" class="node"><title>Node14</title>
<g id="a_node14"><a xlink:href="../../de/d45/cipioconnection_8h.html#a43e270b3f9b9f6296b12285c320c95aa" target="_top" xlink:title="Setup all data in order to establish an IO connection. ">
<polygon fill="none" stroke="black" points="900.5,-1.5 900.5,-20.5 1015.5,-20.5 1015.5,-1.5 900.5,-1.5"/>
<text text-anchor="middle" x="958" y="-8.5" font-family="Helvetica,sans-Serif" font-size="10.00">EstablishIoConnection</text>
</a>
</g>
</g>
<!-- Node13&#45;&gt;Node14 -->
<g id="edge14" class="edge"><title>Node13&#45;&gt;Node14</title>
<path fill="none" stroke="midnightblue" d="M856.603,-11C871.282,-11 886.43,-11 900.37,-11"/>
<polygon fill="midnightblue" stroke="midnightblue" points="856.536,-7.5001 846.536,-11 856.536,-14.5001 856.536,-7.5001"/>
</g>
<!-- Node15 -->
<g id="node15" class="node"><title>Node15</title>
<g id="a_node15"><a xlink:href="../../d2/da3/cipconnectionmanager_8h.html#a5ab0de6894d23e8fe84a6b46797c2212" target="_top" xlink:title="Initialize the data of the connection manager object. ">
<polygon fill="none" stroke="black" points="1058.5,-2.5 1058.5,-21.5 1175.5,-21.5 1175.5,-2.5 1058.5,-2.5"/>
<text text-anchor="middle" x="1117" y="-9.5" font-family="Helvetica,sans-Serif" font-size="10.00">ConnectionManagerInit</text>
</a>
</g>
</g>
<!-- Node14&#45;&gt;Node15 -->
<g id="edge15" class="edge"><title>Node14&#45;&gt;Node15</title>
<path fill="none" stroke="midnightblue" d="M1025.91,-11.4262C1036.7,-11.4949 1047.8,-11.5656 1058.35,-11.6328"/>
<polygon fill="midnightblue" stroke="midnightblue" points="1025.7,-7.92488 1015.68,-11.361 1025.66,-14.9247 1025.7,-7.92488"/>
</g>
<!-- Node16 -->
<g id="node16" class="node"><title>Node16</title>
<g id="a_node16"><a xlink:href="../../d2/dc9/group__CIP__API.html#ga5d4979945d124e28668b264c3823db1c" target="_top" xlink:title="Initialize and setup the CIP&#45;stack. ">
<polygon fill="none" stroke="black" points="1249.5,-2.5 1249.5,-21.5 1320.5,-21.5 1320.5,-2.5 1249.5,-2.5"/>
<text text-anchor="middle" x="1285" y="-9.5" font-family="Helvetica,sans-Serif" font-size="10.00">CipStackInit</text>
</a>
</g>
</g>
<!-- Node15&#45;&gt;Node16 -->
<g id="edge16" class="edge"><title>Node15&#45;&gt;Node16</title>
<path fill="none" stroke="midnightblue" d="M1185.81,-12C1207.61,-12 1230.85,-12 1249.25,-12"/>
<polygon fill="midnightblue" stroke="midnightblue" points="1185.59,-8.5001 1175.59,-12 1185.59,-15.5001 1185.59,-8.5001"/>
</g>
<!-- Node16&#45;&gt;Node8 -->
<g id="edge17" class="edge"><title>Node16&#45;&gt;Node8</title>
<path fill="none" stroke="midnightblue" d="M1330.77,-18.7513C1352.43,-22.0173 1377.24,-25.7577 1393.68,-28.2369"/>
<polygon fill="midnightblue" stroke="midnightblue" points="1331.17,-15.2724 1320.76,-17.2421 1330.13,-22.1942 1331.17,-15.2724"/>
</g>
</g>
</svg>
