<?xml version="1.0" encoding="UTF-8" standalone="no"?>
<!DOCTYPE svg PUBLIC "-//W3C//DTD SVG 1.1//EN"
 "http://www.w3.org/Graphics/SVG/1.1/DTD/svg11.dtd">
<!-- Generated by graphviz version 2.26.3 (20100126.1600)
 -->
<!-- Title: G Pages: 1 -->
<!--zoomable 210 -->
<svg id="main" version="1.1" xmlns="http://www.w3.org/2000/svg" xmlns:xlink="http://www.w3.org/1999/xlink" xml:space="preserve" onload="init(evt)">
        <defs>
                <circle id="rim" cx="0" cy="0" r="7"/>
                <circle id="rim2" cx="0" cy="0" r="3.5"/>
                <g id="zoomPlus">
                        <use xlink:href="#rim" fill="#404040">
                                <set attributeName="fill" to="#808080" begin="zoomplus.mouseover" end="zoomplus.mouseout"/>
                        </use>
                        <path d="M-4,0h8M0,-4v8" fill="none" stroke="white" stroke-width="1.5" pointer-events="none"/>
                </g>
                <g id="zoomMin">
                        <use xlink:href="#rim" fill="#404040">
                                <set attributeName="fill" to="#808080" begin="zoomminus.mouseover" end="zoomminus.mouseout"/>
                        </use>
                        <path d="M-4,0h8" fill="none" stroke="white" stroke-width="1.5" pointer-events="none"/>
                </g>
                <g id="dirArrow">
                        <path fill="none" stroke="white" stroke-width="1.5" d="M0,-3.0v7 M-2.5,-0.5L0,-3.0L2.5,-0.5"/>
                </g>
               <g id="resetDef">
                       <use xlink:href="#rim2" fill="#404040">
                               <set attributeName="fill" to="#808080" begin="reset.mouseover" end="reset.mouseout"/>
                       </use>
               </g>
        </defs>

<script type="text/javascript">
var viewWidth = 774;
var viewHeight = 210;
var sectionId = 'dynsection-1';
</script>
<script xlink:href="../../svgpan.js"/>
<svg id="graph" class="graph">
<g id="viewport">
<title>G</title>
<!-- Node1 -->
<g id="node1" class="node"><title>Node1</title>
<polygon fill="#bfbfbf" stroke="black" points="0.5,-100.5 0.5,-121.5 197.5,-121.5 197.5,-100.5 0.5,-100.5"/>
<text text-anchor="middle" x="99" y="-108.5" font-family="Helvetica,sans-Serif" font-size="10.00">CheckAndHandleConsumingUdpSockets</text>
</g>
<!-- Node2 -->
<g id="node3" class="node"><title>Node2</title>
<a xlink:href="../../db/d4f/generic__networkhandler_8c.html#acebcfe03d5528a69d288c446ff3048b1" target="_top" xlink:title="check if the given socket is set in the read set">
<polygon fill="none" stroke="black" points="267.5,-180.5 267.5,-201.5 358.5,-201.5 358.5,-180.5 267.5,-180.5"/>
<text text-anchor="middle" x="313" y="-188.5" font-family="Helvetica,sans-Serif" font-size="10.00">CheckSocketSet</text>
</a>
</g>
<!-- Node1&#45;&gt;Node2 -->
<g id="edge2" class="edge"><title>Node1&#45;&gt;Node2</title>
<path fill="none" stroke="midnightblue" d="M120.058,-121.709C146.242,-134.706 192.552,-156.66 234,-171 241.604,-173.631 249.729,-176.08 257.768,-178.298"/>
<polygon fill="midnightblue" stroke="midnightblue" points="256.926,-181.696 267.49,-180.886 258.727,-174.932 256.926,-181.696"/>
</g>
<!-- Node3 -->
<g id="node5" class="node"><title>Node3</title>
<a xlink:href="../../df/d94/opener__error_8h.html#a99f5295ad12a2b986bab4b89a24cfc20" target="_top" xlink:title="Frees the space of the error message generated by GetErrorMessage(int)">
<polygon fill="none" stroke="black" points="264.5,-140.5 264.5,-161.5 361.5,-161.5 361.5,-140.5 264.5,-140.5"/>
<text text-anchor="middle" x="313" y="-148.5" font-family="Helvetica,sans-Serif" font-size="10.00">FreeErrorMessage</text>
</a>
</g>
<!-- Node1&#45;&gt;Node3 -->
<g id="edge4" class="edge"><title>Node1&#45;&gt;Node3</title>
<path fill="none" stroke="midnightblue" d="M155.226,-121.51C185.711,-127.208 223.355,-134.244 254.225,-140.014"/>
<polygon fill="midnightblue" stroke="midnightblue" points="253.942,-143.522 264.415,-141.919 255.228,-136.641 253.942,-143.522"/>
</g>
<!-- Node4 -->
<g id="node7" class="node"><title>Node4</title>
<a xlink:href="../../df/d94/opener__error_8h.html#a0df2625909cb28076bc7df8e6c9cfcae" target="_top" xlink:title="Returns a human readable message for the given error number.">
<polygon fill="none" stroke="black" points="266.5,-100.5 266.5,-121.5 359.5,-121.5 359.5,-100.5 266.5,-100.5"/>
<text text-anchor="middle" x="313" y="-108.5" font-family="Helvetica,sans-Serif" font-size="10.00">GetErrorMessage</text>
</a>
</g>
<!-- Node1&#45;&gt;Node4 -->
<g id="edge6" class="edge"><title>Node1&#45;&gt;Node4</title>
<path fill="none" stroke="midnightblue" d="M197.544,-111C217.72,-111 238.3,-111 256.389,-111"/>
<polygon fill="midnightblue" stroke="midnightblue" points="256.446,-114.5 266.446,-111 256.446,-107.5 256.446,-114.5"/>
</g>
<!-- Node5 -->
<g id="node9" class="node"><title>Node5</title>
<a xlink:href="../../df/d94/opener__error_8h.html#afbc52bcd5256264e75ba063f2e361e24" target="_top" xlink:title="Gets the error number or equivalent.">
<polygon fill="none" stroke="black" points="253.5,-60.5 253.5,-81.5 372.5,-81.5 372.5,-60.5 253.5,-60.5"/>
<text text-anchor="middle" x="313" y="-68.5" font-family="Helvetica,sans-Serif" font-size="10.00">GetSocketErrorNumber</text>
</a>
</g>
<!-- Node1&#45;&gt;Node5 -->
<g id="edge8" class="edge"><title>Node1&#45;&gt;Node5</title>
<path fill="none" stroke="midnightblue" d="M155.226,-100.49C183.252,-95.2519 217.329,-88.8825 246.631,-83.4055"/>
<polygon fill="midnightblue" stroke="midnightblue" points="247.592,-86.7865 256.778,-81.5087 246.306,-79.9057 247.592,-86.7865"/>
</g>
<!-- Node6 -->
<g id="node11" class="node"><title>Node6</title>
<a xlink:href="../../d2/dc9/group__CIP__API.html#ga34f1582ed424a2c875b8a317d828e181" target="_top" xlink:title="Notify the connection manager that data for a connection has been received.">
<polygon fill="none" stroke="black" points="234.5,-20.5 234.5,-41.5 391.5,-41.5 391.5,-20.5 234.5,-20.5"/>
<text text-anchor="middle" x="313" y="-28.5" font-family="Helvetica,sans-Serif" font-size="10.00">HandleReceivedConnectedData</text>
</a>
</g>
<!-- Node1&#45;&gt;Node6 -->
<g id="edge10" class="edge"><title>Node1&#45;&gt;Node6</title>
<path fill="none" stroke="midnightblue" d="M120.058,-100.291C146.242,-87.2936 192.552,-65.3401 234,-51 241.065,-48.5555 248.58,-46.268 256.057,-44.1769"/>
<polygon fill="midnightblue" stroke="midnightblue" points="257.08,-47.5261 265.825,-41.5442 255.259,-40.7673 257.08,-47.5261"/>
</g>
<!-- Node7 -->
<g id="node13" class="node"><title>Node7</title>
<a xlink:href="../../d4/d91/group__ENCAP.html#ga5fd76bfeb985480d68d6fd4d97129606" target="_top" xlink:title="Creates Common Packet Format structure out of data.">
<polygon fill="none" stroke="black" points="428.5,-40.5 428.5,-61.5 615.5,-61.5 615.5,-40.5 428.5,-40.5"/>
<text text-anchor="middle" x="522" y="-48.5" font-family="Helvetica,sans-Serif" font-size="10.00">CreateCommonPacketFormatStructure</text>
</a>
</g>
<!-- Node6&#45;&gt;Node7 -->
<g id="edge12" class="edge"><title>Node6&#45;&gt;Node7</title>
<path fill="none" stroke="midnightblue" d="M391.716,-38.5326C400.376,-39.3613 409.287,-40.2141 418.192,-41.0662"/>
<polygon fill="midnightblue" stroke="midnightblue" points="417.941,-44.5581 428.229,-42.0267 418.608,-37.5899 417.941,-44.5581"/>
</g>
<!-- Node10 -->
<g id="node19" class="node"><title>Node10</title>
<a xlink:href="../../d5/d35/cipconnectionmanager_8c.html#a2c52d1bd0f41c535d953eb17b223fa03" target="_top" xlink:title="GetConnectedObject">
<polygon fill="none" stroke="black" points="468,-0.5 468,-21.5 576,-21.5 576,-0.5 468,-0.5"/>
<text text-anchor="middle" x="522" y="-8.5" font-family="Helvetica,sans-Serif" font-size="10.00">GetConnectedObject</text>
</a>
</g>
<!-- Node6&#45;&gt;Node10 -->
<g id="edge18" class="edge"><title>Node6&#45;&gt;Node10</title>
<path fill="none" stroke="midnightblue" d="M391.716,-23.4674C413.494,-21.3834 436.865,-19.1469 457.715,-17.1516"/>
<polygon fill="midnightblue" stroke="midnightblue" points="458.11,-20.63 467.731,-16.1932 457.443,-13.6618 458.11,-20.63"/>
</g>
<!-- Node8 -->
<g id="node15" class="node"><title>Node8</title>
<a xlink:href="../../d4/d91/group__ENCAP.html#ga70322f970709ca9c9a1a1d474cfe2302" target="_top" xlink:title="Reads EIP_UINT16 from *buffer and converts little endian to host.">
<polygon fill="none" stroke="black" points="656,-60.5 656,-81.5 762,-81.5 762,-60.5 656,-60.5"/>
<text text-anchor="middle" x="709" y="-68.5" font-family="Helvetica,sans-Serif" font-size="10.00">GetIntFromMessage</text>
</a>
</g>
<!-- Node7&#45;&gt;Node8 -->
<g id="edge14" class="edge"><title>Node7&#45;&gt;Node8</title>
<path fill="none" stroke="midnightblue" d="M615.774,-61.0293C625.879,-62.1101 635.981,-63.1904 645.605,-64.2198"/>
<polygon fill="midnightblue" stroke="midnightblue" points="645.524,-67.731 655.84,-65.3144 646.269,-60.7707 645.524,-67.731"/>
</g>
<!-- Node9 -->
<g id="node17" class="node"><title>Node9</title>
<a xlink:href="../../d4/d91/group__ENCAP.html#ga668f92389ee06510864585b97955f6f8" target="_top" xlink:title="Reads EIP_UINT32 from *buffer and converts little endian to host.">
<polygon fill="none" stroke="black" points="652.5,-20.5 652.5,-41.5 765.5,-41.5 765.5,-20.5 652.5,-20.5"/>
<text text-anchor="middle" x="709" y="-28.5" font-family="Helvetica,sans-Serif" font-size="10.00">GetDintFromMessage</text>
</a>
</g>
<!-- Node7&#45;&gt;Node9 -->
<g id="edge16" class="edge"><title>Node7&#45;&gt;Node9</title>
<path fill="none" stroke="midnightblue" d="M615.774,-40.9707C624.747,-40.011 633.717,-39.0516 642.354,-38.128"/>
<polygon fill="midnightblue" stroke="midnightblue" points="642.747,-41.6059 652.318,-37.0622 642.003,-34.6456 642.747,-41.6059"/>
</g>
</g>
</svg>
        <g id="navigator" transform="translate(0 0)" fill="#404254">
                <rect fill="#f2f5e9" fill-opacity="0.5" stroke="#606060" stroke-width=".5" x="0" y="0" width="60" height="60"/>
                <use id="zoomplus" xlink:href="#zoomPlus" x="17" y="9" onmousedown="handleZoom(evt,'in')"/>
                <use id="zoomminus" xlink:href="#zoomMin" x="42" y="9" onmousedown="handleZoom(evt,'out')"/>
                <use id="reset" xlink:href="#resetDef" x="30" y="36" onmousedown="handleReset()"/>
                <g id="arrowUp" xlink:href="#dirArrow" transform="translate(30 24)" onmousedown="handlePan(0,-1)">
                  <use xlink:href="#rim" fill="#404040">
                        <set attributeName="fill" to="#808080" begin="arrowUp.mouseover" end="arrowUp.mouseout"/>
                  </use>
                  <path fill="none" stroke="white" stroke-width="1.5" d="M0,-3.0v7 M-2.5,-0.5L0,-3.0L2.5,-0.5"/>
                </g>
                <g id="arrowRight" xlink:href="#dirArrow" transform="rotate(90) translate(36 -43)" onmousedown="handlePan(1,0)">
                  <use xlink:href="#rim" fill="#404040">
                        <set attributeName="fill" to="#808080" begin="arrowRight.mouseover" end="arrowRight.mouseout"/>
                  </use>
                  <path fill="none" stroke="white" stroke-width="1.5" d="M0,-3.0v7 M-2.5,-0.5L0,-3.0L2.5,-0.5"/>
                </g>
                <g id="arrowDown" xlink:href="#dirArrow" transform="rotate(180) translate(-30 -48)" onmousedown="handlePan(0,1)">
                  <use xlink:href="#rim" fill="#404040">
                        <set attributeName="fill" to="#808080" begin="arrowDown.mouseover" end="arrowDown.mouseout"/>
                  </use>
                  <path fill="none" stroke="white" stroke-width="1.5" d="M0,-3.0v7 M-2.5,-0.5L0,-3.0L2.5,-0.5"/>
                </g>
                <g id="arrowLeft" xlink:href="#dirArrow" transform="rotate(270) translate(-36 17)" onmousedown="handlePan(-1,0)">
                  <use xlink:href="#rim" fill="#404040">
                        <set attributeName="fill" to="#808080" begin="arrowLeft.mouseover" end="arrowLeft.mouseout"/>
                  </use>
                  <path fill="none" stroke="white" stroke-width="1.5" d="M0,-3.0v7 M-2.5,-0.5L0,-3.0L2.5,-0.5"/>
                </g>
        </g>
</svg>
