<?xml version="1.0" encoding="UTF-8" standalone="no"?>
<!DOCTYPE svg PUBLIC "-//W3C//DTD SVG 1.1//EN"
 "http://www.w3.org/Graphics/SVG/1.1/DTD/svg11.dtd">
<!-- Generated by graphviz version 2.26.3 (20100126.1600)
 -->
<!-- Title: G Pages: 1 -->
<svg width="410pt" height="30pt"
 viewBox="0.00 0.00 410.00 30.00" xmlns="http://www.w3.org/2000/svg" xmlns:xlink="http://www.w3.org/1999/xlink">
<g id="graph1" class="graph" transform="scale(1 1) rotate(0) translate(4 26)">
<title>G</title>
<!-- Node1 -->
<g id="node1" class="node"><title>Node1</title>
<polygon fill="#bfbfbf" stroke="black" points="0,-0.5 0,-21.5 146,-21.5 146,-0.5 0,-0.5"/>
<text text-anchor="middle" x="73" y="-8.5" font-family="Helvetica,sans-Serif" font-size="10.00">CheckEncapsulationInactivity</text>
</g>
<!-- Node2 -->
<g id="node3" class="node"><title>Node2</title>
<a xlink:href="../../da/dc2/generic__networkhandler_8h.html#a2f01af81d3e5018d9980e2bc28c9078a" target="_top" xlink:title="NetworkHandlerProcessOnce">
<polygon fill="none" stroke="black" points="182,-0.5 182,-21.5 328,-21.5 328,-0.5 182,-0.5"/>
<text text-anchor="middle" x="255" y="-8.5" font-family="Helvetica,sans-Serif" font-size="10.00">NetworkHandlerProcessOnce</text>
</a>
</g>
<!-- Node1&#45;&gt;Node2 -->
<g id="edge2" class="edge"><title>Node1&#45;&gt;Node2</title>
<path fill="none" stroke="midnightblue" d="M156.516,-11C164.992,-11 173.556,-11 181.91,-11"/>
<polygon fill="midnightblue" stroke="midnightblue" points="156.24,-7.5001 146.24,-11 156.24,-14.5001 156.24,-7.5001"/>
</g>
<!-- Node3 -->
<g id="node5" class="node"><title>Node3</title>
<a xlink:href="../../d9/dfb/POSIX_2main_8c.html#ad338a7dbc41dc40bcecd0479377ef207" target="_top" xlink:title="main">
<polygon fill="none" stroke="black" points="364,-0.5 364,-21.5 402,-21.5 402,-0.5 364,-0.5"/>
<text text-anchor="middle" x="383" y="-8.5" font-family="Helvetica,sans-Serif" font-size="10.00">main</text>
</a>
</g>
<!-- Node2&#45;&gt;Node3 -->
<g id="edge4" class="edge"><title>Node2&#45;&gt;Node3</title>
<path fill="none" stroke="midnightblue" d="M338.394,-11C347.857,-11 356.696,-11 363.969,-11"/>
<polygon fill="midnightblue" stroke="midnightblue" points="338.345,-7.5001 328.345,-11 338.345,-14.5001 338.345,-7.5001"/>
</g>
</g>
</svg>
