<?xml version="1.0" encoding="UTF-8" standalone="no"?>
<!DOCTYPE svg PUBLIC "-//W3C//DTD SVG 1.1//EN"
 "http://www.w3.org/Graphics/SVG/1.1/DTD/svg11.dtd">
<!-- Generated by graphviz version 2.36.0 (20140111.2315)
 -->
<!-- Title: NetworkHandlerInitialize Pages: 1 -->
<svg width="432pt" height="306pt"
 viewBox="0.00 0.00 432.00 306.00" xmlns="http://www.w3.org/2000/svg" xmlns:xlink="http://www.w3.org/1999/xlink">
<g id="graph0" class="graph" transform="scale(1 1) rotate(0) translate(4 302)">
<title>NetworkHandlerInitialize</title>
<!-- Node1 -->
<g id="node1" class="node"><title>Node1</title>
<polygon fill="#bfbfbf" stroke="black" points="0.5,-145.5 0.5,-164.5 123.5,-164.5 123.5,-145.5 0.5,-145.5"/>
<text text-anchor="middle" x="62" y="-152.5" font-family="Helvetica,sans-Serif" font-size="10.00">NetworkHandlerInitialize</text>
</g>
<!-- Node2 -->
<g id="node2" class="node"><title>Node2</title>
<g id="a_node2"><a xlink:href="../../d8/d60/MINGW_2opener__error_8c.html#a99f5295ad12a2b986bab4b89a24cfc20" target="_top" xlink:title="Frees the space of the error message generated by GetErrorMessage(int) ">
<polygon fill="none" stroke="black" points="177.5,-278.5 177.5,-297.5 274.5,-297.5 274.5,-278.5 177.5,-278.5"/>
<text text-anchor="middle" x="226" y="-285.5" font-family="Helvetica,sans-Serif" font-size="10.00">FreeErrorMessage</text>
</a>
</g>
</g>
<!-- Node1&#45;&gt;Node2 -->
<g id="edge1" class="edge"><title>Node1&#45;&gt;Node2</title>
<path fill="none" stroke="midnightblue" d="M68.4386,-164.591C81.3687,-186.515 116.169,-240.59 160,-269 163.145,-271.038 166.514,-272.864 170.003,-274.497"/>
<polygon fill="midnightblue" stroke="midnightblue" points="168.868,-277.815 179.448,-278.389 171.535,-271.343 168.868,-277.815"/>
</g>
<!-- Node3 -->
<g id="node3" class="node"><title>Node3</title>
<g id="a_node3"><a xlink:href="../../d8/d60/MINGW_2opener__error_8c.html#a0df2625909cb28076bc7df8e6c9cfcae" target="_top" xlink:title="Returns a human readable message for the given error number. ">
<polygon fill="none" stroke="black" points="179.5,-240.5 179.5,-259.5 272.5,-259.5 272.5,-240.5 179.5,-240.5"/>
<text text-anchor="middle" x="226" y="-247.5" font-family="Helvetica,sans-Serif" font-size="10.00">GetErrorMessage</text>
</a>
</g>
</g>
<!-- Node1&#45;&gt;Node3 -->
<g id="edge2" class="edge"><title>Node1&#45;&gt;Node3</title>
<path fill="none" stroke="midnightblue" d="M72.5859,-164.604C89.059,-180.594 124.414,-212.722 160,-231 164.347,-233.233 168.995,-235.241 173.733,-237.039"/>
<polygon fill="midnightblue" stroke="midnightblue" points="172.921,-240.462 183.516,-240.44 175.219,-233.85 172.921,-240.462"/>
</g>
<!-- Node4 -->
<g id="node4" class="node"><title>Node4</title>
<g id="a_node4"><a xlink:href="../../db/d4f/generic__networkhandler_8c.html#afd95c5a901db3aca5977f359ccd95aa2" target="_top" xlink:title="Returns the socket with the highest id. ">
<polygon fill="none" stroke="black" points="185,-202.5 185,-221.5 267,-221.5 267,-202.5 185,-202.5"/>
<text text-anchor="middle" x="226" y="-209.5" font-family="Helvetica,sans-Serif" font-size="10.00">GetMaxSocket</text>
</a>
</g>
</g>
<!-- Node1&#45;&gt;Node4 -->
<g id="edge3" class="edge"><title>Node1&#45;&gt;Node4</title>
<path fill="none" stroke="midnightblue" d="M85.9132,-164.643C105.435,-172.697 134.324,-184.238 160,-193 166.504,-195.22 173.427,-197.416 180.238,-199.485"/>
<polygon fill="midnightblue" stroke="midnightblue" points="179.492,-202.914 190.075,-202.411 181.488,-196.205 179.492,-202.914"/>
</g>
<!-- Node5 -->
<g id="node5" class="node"><title>Node5</title>
<g id="a_node5"><a xlink:href="../../d3/de3/MINGW_2networkhandler_8c.html#a2d91de751b888e7b5a5c2e2692fd4492" target="_top" xlink:title="This function shall return the current time in milliseconds relative to epoch, and shall be implement...">
<polygon fill="none" stroke="black" points="182,-164.5 182,-183.5 270,-183.5 270,-164.5 182,-164.5"/>
<text text-anchor="middle" x="226" y="-171.5" font-family="Helvetica,sans-Serif" font-size="10.00">GetMilliSeconds</text>
</a>
</g>
</g>
<!-- Node1&#45;&gt;Node5 -->
<g id="edge4" class="edge"><title>Node1&#45;&gt;Node5</title>
<path fill="none" stroke="midnightblue" d="M123.784,-162.129C139.394,-163.96 156.076,-165.916 171.299,-167.702"/>
<polygon fill="midnightblue" stroke="midnightblue" points="171.236,-171.218 181.575,-168.907 172.051,-164.266 171.236,-171.218"/>
</g>
<!-- Node6 -->
<g id="node6" class="node"><title>Node6</title>
<g id="a_node6"><a xlink:href="../../d8/d60/MINGW_2opener__error_8c.html#afbc52bcd5256264e75ba063f2e361e24" target="_top" xlink:title="Gets the error number or equivalent. ">
<polygon fill="none" stroke="black" points="166.5,-126.5 166.5,-145.5 285.5,-145.5 285.5,-126.5 166.5,-126.5"/>
<text text-anchor="middle" x="226" y="-133.5" font-family="Helvetica,sans-Serif" font-size="10.00">GetSocketErrorNumber</text>
</a>
</g>
</g>
<!-- Node1&#45;&gt;Node6 -->
<g id="edge5" class="edge"><title>Node1&#45;&gt;Node6</title>
<path fill="none" stroke="midnightblue" d="M123.784,-147.871C134.33,-146.634 145.364,-145.34 156.107,-144.08"/>
<polygon fill="midnightblue" stroke="midnightblue" points="156.769,-147.526 166.293,-142.885 155.954,-140.574 156.769,-147.526"/>
</g>
<!-- Node7 -->
<g id="node7" class="node"><title>Node7</title>
<g id="a_node7"><a xlink:href="../../d3/de3/MINGW_2networkhandler_8c.html#a443a5019c1bb91b2490f96b0d0158e04" target="_top" xlink:title="Executes platform dependent network handler initialization code. ">
<polygon fill="none" stroke="black" points="164.5,-77 164.5,-107 287.5,-107 287.5,-77 164.5,-77"/>
<text text-anchor="start" x="172.5" y="-95" font-family="Helvetica,sans-Serif" font-size="10.00">NetworkHandlerInitialize</text>
<text text-anchor="middle" x="226" y="-84" font-family="Helvetica,sans-Serif" font-size="10.00">Platform</text>
</a>
</g>
</g>
<!-- Node1&#45;&gt;Node7 -->
<g id="edge6" class="edge"><title>Node1&#45;&gt;Node7</title>
<path fill="none" stroke="midnightblue" d="M87.3006,-145.432C106.91,-137.723 135.215,-126.621 160,-117 165.213,-114.976 170.664,-112.868 176.097,-110.772"/>
<polygon fill="midnightblue" stroke="midnightblue" points="177.728,-113.894 185.801,-107.032 175.211,-107.362 177.728,-113.894"/>
</g>
<!-- Node8 -->
<g id="node8" class="node"><title>Node8</title>
<g id="a_node8"><a xlink:href="../../d3/de3/MINGW_2networkhandler_8c.html#a4af2b184144f7d807e8157ee8b474ecf" target="_top" xlink:title="SetSocketToNonBlocking">
<polygon fill="none" stroke="black" points="161.5,-38.5 161.5,-57.5 290.5,-57.5 290.5,-38.5 161.5,-38.5"/>
<text text-anchor="middle" x="226" y="-45.5" font-family="Helvetica,sans-Serif" font-size="10.00">SetSocketToNonBlocking</text>
</a>
</g>
</g>
<!-- Node1&#45;&gt;Node8 -->
<g id="edge7" class="edge"><title>Node1&#45;&gt;Node8</title>
<path fill="none" stroke="midnightblue" d="M71.068,-145.416C86.5356,-127.63 122.196,-89.3849 160,-68 164.571,-65.414 169.517,-63.1229 174.568,-61.1021"/>
<polygon fill="midnightblue" stroke="midnightblue" points="176.143,-64.2534 184.342,-57.5431 173.748,-57.6759 176.143,-64.2534"/>
</g>
<!-- Node9 -->
<g id="node9" class="node"><title>Node9</title>
<g id="a_node9"><a xlink:href="../../d4/df6/socket__timer_8c.html#a187bcd772200d8f1e4e937cb3a587782" target="_top" xlink:title="Initializes an array of Socket Timer entries. ">
<polygon fill="none" stroke="black" points="160.5,-0.5 160.5,-19.5 291.5,-19.5 291.5,-0.5 160.5,-0.5"/>
<text text-anchor="middle" x="226" y="-7.5" font-family="Helvetica,sans-Serif" font-size="10.00">SocketTimerArrayInitialize</text>
</a>
</g>
</g>
<!-- Node1&#45;&gt;Node9 -->
<g id="edge8" class="edge"><title>Node1&#45;&gt;Node9</title>
<path fill="none" stroke="midnightblue" d="M67.6256,-145.449C79.5156,-121.921 113.505,-60.7781 160,-29 162.903,-27.016 166.014,-25.2362 169.247,-23.6401"/>
<polygon fill="midnightblue" stroke="midnightblue" points="170.801,-26.7814 178.601,-19.6108 168.032,-20.3524 170.801,-26.7814"/>
</g>
<!-- Node10 -->
<g id="node10" class="node"><title>Node10</title>
<g id="a_node10"><a xlink:href="../../d4/df6/socket__timer_8c.html#a6130830815ae46fe4e6d45cf89bc3506" target="_top" xlink:title="Clears a Socket Timer entry. ">
<polygon fill="none" stroke="black" points="328.5,-0.5 328.5,-19.5 423.5,-19.5 423.5,-0.5 328.5,-0.5"/>
<text text-anchor="middle" x="376" y="-7.5" font-family="Helvetica,sans-Serif" font-size="10.00">SocketTimerClear</text>
</a>
</g>
</g>
<!-- Node9&#45;&gt;Node10 -->
<g id="edge9" class="edge"><title>Node9&#45;&gt;Node10</title>
<path fill="none" stroke="midnightblue" d="M291.915,-10C300.639,-10 309.534,-10 318.106,-10"/>
<polygon fill="midnightblue" stroke="midnightblue" points="318.367,-13.5001 328.367,-10 318.367,-6.5001 318.367,-13.5001"/>
</g>
</g>
</svg>
