<?xml version="1.0" encoding="UTF-8" standalone="no"?>
<!DOCTYPE svg PUBLIC "-//W3C//DTD SVG 1.1//EN"
 "http://www.w3.org/Graphics/SVG/1.1/DTD/svg11.dtd">
<!-- Generated by graphviz version 2.36.0 (20140111.2315)
 -->
<!-- Title: RemoveSocketTimerFromList Pages: 1 -->
<svg width="1064pt" height="206pt"
 viewBox="0.00 0.00 1064.00 206.33" xmlns="http://www.w3.org/2000/svg" xmlns:xlink="http://www.w3.org/1999/xlink">
<g id="graph0" class="graph" transform="scale(1 1) rotate(0) translate(4 202.334)">
<title>RemoveSocketTimerFromList</title>
<!-- Node1 -->
<g id="node1" class="node"><title>Node1</title>
<polygon fill="#bfbfbf" stroke="black" points="0.5,-158.5 0.5,-177.5 147.5,-177.5 147.5,-158.5 0.5,-158.5"/>
<text text-anchor="middle" x="74" y="-165.5" font-family="Helvetica,sans-Serif" font-size="10.00">RemoveSocketTimerFromList</text>
</g>
<!-- Node2 -->
<g id="node2" class="node"><title>Node2</title>
<g id="a_node2"><a xlink:href="../../da/dc2/generic__networkhandler_8h.html#a1bfa5ef8e4802716459a56567ee16592" target="_top" xlink:title="CloseTcpSocket">
<polygon fill="none" stroke="black" points="184.5,-95.5 184.5,-114.5 273.5,-114.5 273.5,-95.5 184.5,-95.5"/>
<text text-anchor="middle" x="229" y="-102.5" font-family="Helvetica,sans-Serif" font-size="10.00">CloseTcpSocket</text>
</a>
</g>
</g>
<!-- Node1&#45;&gt;Node2 -->
<g id="edge1" class="edge"><title>Node1&#45;&gt;Node2</title>
<path fill="none" stroke="midnightblue" d="M107.575,-154.587C136.68,-142.602 178.617,-125.334 204.544,-114.658"/>
<polygon fill="midnightblue" stroke="midnightblue" points="106.152,-151.388 98.2374,-158.432 108.817,-157.86 106.152,-151.388"/>
</g>
<!-- Node5 -->
<g id="node5" class="node"><title>Node5</title>
<g id="a_node5"><a xlink:href="../../db/d4f/generic__networkhandler_8c.html#aca5593b7dd39d7a7b437999a367102d6" target="_top" xlink:title="Handles data on an established TCP connection, processed connection is given by socket. ">
<polygon fill="none" stroke="black" points="672,-158.5 672,-177.5 800,-177.5 800,-158.5 672,-158.5"/>
<text text-anchor="middle" x="736" y="-165.5" font-family="Helvetica,sans-Serif" font-size="10.00">HandleDataOnTcpSocket</text>
</a>
</g>
</g>
<!-- Node1&#45;&gt;Node5 -->
<g id="edge14" class="edge"><title>Node1&#45;&gt;Node5</title>
<path fill="none" stroke="midnightblue" d="M157.627,-178.514C202.599,-183.713 259.261,-189.416 310,-192 454.718,-199.371 491.936,-202.594 636,-187 654.965,-184.947 675.728,-181.198 693.32,-177.569"/>
<polygon fill="midnightblue" stroke="midnightblue" points="157.971,-175.031 147.632,-177.345 157.157,-181.983 157.971,-175.031"/>
</g>
<!-- Node3 -->
<g id="node3" class="node"><title>Node3</title>
<g id="a_node3"><a xlink:href="../../d2/dbd/encap_8c.html#ace57d7ca02ba16c620014fdd4f842949" target="_top" xlink:title="HandleReceivedUnregister\lSessionCommand">
<polygon fill="none" stroke="black" points="310,-153 310,-183 444,-183 444,-153 310,-153"/>
<text text-anchor="start" x="318" y="-171" font-family="Helvetica,sans-Serif" font-size="10.00">HandleReceivedUnregister</text>
<text text-anchor="middle" x="377" y="-160" font-family="Helvetica,sans-Serif" font-size="10.00">SessionCommand</text>
</a>
</g>
</g>
<!-- Node2&#45;&gt;Node3 -->
<g id="edge2" class="edge"><title>Node2&#45;&gt;Node3</title>
<path fill="none" stroke="midnightblue" d="M261.642,-118.654C285.053,-128.756 316.934,-142.513 341.087,-152.935"/>
<polygon fill="midnightblue" stroke="midnightblue" points="262.743,-115.317 252.174,-114.568 259.969,-121.744 262.743,-115.317"/>
</g>
<!-- Node6 -->
<g id="node6" class="node"><title>Node6</title>
<g id="a_node6"><a xlink:href="../../da/dc2/generic__networkhandler_8h.html#a2f01af81d3e5018d9980e2bc28c9078a" target="_top" xlink:title="NetworkHandlerProcessOnce">
<polygon fill="none" stroke="black" points="836,-61.5 836,-80.5 982,-80.5 982,-61.5 836,-61.5"/>
<text text-anchor="middle" x="909" y="-68.5" font-family="Helvetica,sans-Serif" font-size="10.00">NetworkHandlerProcessOnce</text>
</a>
</g>
</g>
<!-- Node2&#45;&gt;Node6 -->
<g id="edge11" class="edge"><title>Node2&#45;&gt;Node6</title>
<path fill="none" stroke="midnightblue" d="M253.727,-90.2913C269.134,-81.628 290.001,-71.5083 310,-67 501.42,-23.8482 736.142,-46.593 845.892,-61.4542"/>
<polygon fill="midnightblue" stroke="midnightblue" points="251.777,-87.3769 244.897,-95.434 255.3,-93.4258 251.777,-87.3769"/>
</g>
<!-- Node8 -->
<g id="node8" class="node"><title>Node8</title>
<g id="a_node8"><a xlink:href="../../d2/dc9/group__CIP__API.html#gab9ff230d61fc6dedd90f8b95e9a27707" target="_top" xlink:title="Inform the encapsulation layer that the remote host has closed the connection. ">
<polygon fill="none" stroke="black" points="338.5,-76.5 338.5,-95.5 415.5,-95.5 415.5,-76.5 338.5,-76.5"/>
<text text-anchor="middle" x="377" y="-83.5" font-family="Helvetica,sans-Serif" font-size="10.00">CloseSession</text>
</a>
</g>
</g>
<!-- Node2&#45;&gt;Node8 -->
<g id="edge7" class="edge"><title>Node2&#45;&gt;Node8</title>
<path fill="none" stroke="midnightblue" d="M283.901,-97.9855C301.927,-95.6397 321.623,-93.0764 338.158,-90.9246"/>
<polygon fill="midnightblue" stroke="midnightblue" points="283.269,-94.5381 273.805,-99.2994 284.173,-101.48 283.269,-94.5381"/>
</g>
<!-- Node9 -->
<g id="node9" class="node"><title>Node9</title>
<g id="a_node9"><a xlink:href="../../d4/d91/group__ENCAP.html#ga1261bd2441f744c38d7a3f8d8c16c391" target="_top" xlink:title="Shutdown the encapsulation layer. ">
<polygon fill="none" stroke="black" points="496,-0.5 496,-19.5 620,-19.5 620,-0.5 496,-0.5"/>
<text text-anchor="middle" x="558" y="-7.5" font-family="Helvetica,sans-Serif" font-size="10.00">EncapsulationShutDown</text>
</a>
</g>
</g>
<!-- Node2&#45;&gt;Node9 -->
<g id="edge8" class="edge"><title>Node2&#45;&gt;Node9</title>
<path fill="none" stroke="midnightblue" d="M244.03,-87.3066C258.557,-70.4105 282.896,-45.8243 310,-34 369.333,-8.11565 444.103,-4.34784 495.751,-5.65189"/>
<polygon fill="midnightblue" stroke="midnightblue" points="241.061,-85.4034 237.366,-95.3328 246.447,-89.8753 241.061,-85.4034"/>
</g>
<!-- Node11 -->
<g id="node11" class="node"><title>Node11</title>
<g id="a_node11"><a xlink:href="../../db/d4f/generic__networkhandler_8c.html#ab561fc66fe48a0cf95be3d152b297dd9" target="_top" xlink:title="CheckEncapsulationInactivity">
<polygon fill="none" stroke="black" points="485,-95.5 485,-114.5 631,-114.5 631,-95.5 485,-95.5"/>
<text text-anchor="middle" x="558" y="-102.5" font-family="Helvetica,sans-Serif" font-size="10.00">CheckEncapsulationInactivity</text>
</a>
</g>
</g>
<!-- Node2&#45;&gt;Node11 -->
<g id="edge12" class="edge"><title>Node2&#45;&gt;Node11</title>
<path fill="none" stroke="midnightblue" d="M283.97,-105C338.805,-105 424.073,-105 484.718,-105"/>
<polygon fill="midnightblue" stroke="midnightblue" points="283.761,-101.5 273.761,-105 283.761,-108.5 283.761,-101.5"/>
</g>
<!-- Node4 -->
<g id="node4" class="node"><title>Node4</title>
<g id="a_node4"><a xlink:href="../../d2/dc9/group__CIP__API.html#gadeace7aa415ce7da686b522c85d131d1" target="_top" xlink:title="Notify the encapsulation layer that an explicit message has been received via TCP. ">
<polygon fill="none" stroke="black" points="480,-158.5 480,-177.5 636,-177.5 636,-158.5 480,-158.5"/>
<text text-anchor="middle" x="558" y="-165.5" font-family="Helvetica,sans-Serif" font-size="10.00">HandleReceivedExplictTcpData</text>
</a>
</g>
</g>
<!-- Node3&#45;&gt;Node4 -->
<g id="edge3" class="edge"><title>Node3&#45;&gt;Node4</title>
<path fill="none" stroke="midnightblue" d="M454.37,-168C462.836,-168 471.462,-168 479.936,-168"/>
<polygon fill="midnightblue" stroke="midnightblue" points="454.144,-164.5 444.144,-168 454.144,-171.5 454.144,-164.5"/>
</g>
<!-- Node4&#45;&gt;Node5 -->
<g id="edge4" class="edge"><title>Node4&#45;&gt;Node5</title>
<path fill="none" stroke="midnightblue" d="M646.293,-168C654.914,-168 663.545,-168 671.853,-168"/>
<polygon fill="midnightblue" stroke="midnightblue" points="646.196,-164.5 636.196,-168 646.196,-171.5 646.196,-164.5"/>
</g>
<!-- Node5&#45;&gt;Node6 -->
<g id="edge5" class="edge"><title>Node5&#45;&gt;Node6</title>
<path fill="none" stroke="midnightblue" d="M762.827,-153.35C798.272,-133.243 861.009,-97.6558 891.048,-80.6163"/>
<polygon fill="midnightblue" stroke="midnightblue" points="760.992,-150.366 754.021,-158.345 764.446,-156.455 760.992,-150.366"/>
</g>
<!-- Node7 -->
<g id="node7" class="node"><title>Node7</title>
<g id="a_node7"><a xlink:href="../../d9/dfb/POSIX_2main_8c.html#ad338a7dbc41dc40bcecd0479377ef207" target="_top" xlink:title="main">
<polygon fill="none" stroke="black" points="1018,-42.5 1018,-61.5 1056,-61.5 1056,-42.5 1018,-42.5"/>
<text text-anchor="middle" x="1037" y="-49.5" font-family="Helvetica,sans-Serif" font-size="10.00">main</text>
</a>
</g>
</g>
<!-- Node6&#45;&gt;Node7 -->
<g id="edge6" class="edge"><title>Node6&#45;&gt;Node7</title>
<path fill="none" stroke="midnightblue" d="M983.262,-59.9526C996.098,-58.017 1008.35,-56.1695 1017.81,-54.7433"/>
<polygon fill="midnightblue" stroke="midnightblue" points="982.735,-56.4923 973.369,-61.4443 983.779,-63.414 982.735,-56.4923"/>
</g>
<!-- Node10 -->
<g id="node10" class="node"><title>Node10</title>
<g id="a_node10"><a xlink:href="../../d2/dc9/group__CIP__API.html#gaa57b527530adc2acda6febc500fd6831" target="_top" xlink:title="Shutdown of the CIP stack. ">
<polygon fill="none" stroke="black" points="685.5,-0.5 685.5,-19.5 786.5,-19.5 786.5,-0.5 685.5,-0.5"/>
<text text-anchor="middle" x="736" y="-7.5" font-family="Helvetica,sans-Serif" font-size="10.00">ShutdownCipStack</text>
</a>
</g>
</g>
<!-- Node9&#45;&gt;Node10 -->
<g id="edge9" class="edge"><title>Node9&#45;&gt;Node10</title>
<path fill="none" stroke="midnightblue" d="M630.218,-10C648.727,-10 668.266,-10 685.391,-10"/>
<polygon fill="midnightblue" stroke="midnightblue" points="630.062,-6.5001 620.062,-10 630.062,-13.5001 630.062,-6.5001"/>
</g>
<!-- Node10&#45;&gt;Node7 -->
<g id="edge10" class="edge"><title>Node10&#45;&gt;Node7</title>
<path fill="none" stroke="midnightblue" d="M796.98,-18.4252C865.818,-28.0949 974.741,-43.3951 1017.71,-49.4305"/>
<polygon fill="midnightblue" stroke="midnightblue" points="797.099,-14.9077 786.709,-16.9826 796.125,-21.8397 797.099,-14.9077"/>
</g>
<!-- Node11&#45;&gt;Node6 -->
<g id="edge13" class="edge"><title>Node11&#45;&gt;Node6</title>
<path fill="none" stroke="midnightblue" d="M641.354,-96.9769C700.4,-91.2247 779.182,-83.5496 835.78,-78.0358"/>
<polygon fill="midnightblue" stroke="midnightblue" points="640.927,-93.502 631.313,-97.9552 641.605,-100.469 640.927,-93.502"/>
</g>
</g>
</svg>
