<?xml version="1.0" encoding="UTF-8" standalone="no"?>
<!DOCTYPE svg PUBLIC "-//W3C//DTD SVG 1.1//EN"
 "http://www.w3.org/Graphics/SVG/1.1/DTD/svg11.dtd">
<!-- Generated by graphviz version 2.26.3 (20100126.1600)
 -->
<!-- Title: G Pages: 1 -->
<!--zoomable 464 -->
<svg id="main" version="1.1" xmlns="http://www.w3.org/2000/svg" xmlns:xlink="http://www.w3.org/1999/xlink" xml:space="preserve" onload="init(evt)">
        <defs>
                <circle id="rim" cx="0" cy="0" r="7"/>
                <circle id="rim2" cx="0" cy="0" r="3.5"/>
                <g id="zoomPlus">
                        <use xlink:href="#rim" fill="#404040">
                                <set attributeName="fill" to="#808080" begin="zoomplus.mouseover" end="zoomplus.mouseout"/>
                        </use>
                        <path d="M-4,0h8M0,-4v8" fill="none" stroke="white" stroke-width="1.5" pointer-events="none"/>
                </g>
                <g id="zoomMin">
                        <use xlink:href="#rim" fill="#404040">
                                <set attributeName="fill" to="#808080" begin="zoomminus.mouseover" end="zoomminus.mouseout"/>
                        </use>
                        <path d="M-4,0h8" fill="none" stroke="white" stroke-width="1.5" pointer-events="none"/>
                </g>
                <g id="dirArrow">
                        <path fill="none" stroke="white" stroke-width="1.5" d="M0,-3.0v7 M-2.5,-0.5L0,-3.0L2.5,-0.5"/>
                </g>
               <g id="resetDef">
                       <use xlink:href="#rim2" fill="#404040">
                               <set attributeName="fill" to="#808080" begin="reset.mouseover" end="reset.mouseout"/>
                       </use>
               </g>
        </defs>

<script type="text/javascript">
var viewWidth = 1076;
var viewHeight = 464;
var sectionId = 'dynsection-2';
</script>
<script xlink:href="../../svgpan.js"/>
<svg id="graph" class="graph">
<g id="viewport">
<title>G</title>
<!-- Node1 -->
<g id="node1" class="node"><title>Node1</title>
<polygon fill="#bfbfbf" stroke="black" points="0,-119.5 0,-140.5 108,-140.5 108,-119.5 0,-119.5"/>
<text text-anchor="middle" x="54" y="-127.5" font-family="Helvetica,sans-Serif" font-size="10.00">CipTcpIpInterfaceInit</text>
</g>
<!-- Node2 -->
<g id="node3" class="node"><title>Node2</title>
<a xlink:href="../../d2/dc9/group__CIP__API.html#ga446b7f612fe7baaf40d7f87274832922" target="_top" xlink:title="Allocate memory for new CIP Class and attributes.">
<polygon fill="none" stroke="black" points="173,-276.5 173,-297.5 259,-297.5 259,-276.5 173,-276.5"/>
<text text-anchor="middle" x="216" y="-284.5" font-family="Helvetica,sans-Serif" font-size="10.00">CreateCipClass</text>
</a>
</g>
<!-- Node1&#45;&gt;Node2 -->
<g id="edge2" class="edge"><title>Node1&#45;&gt;Node2</title>
<path fill="none" stroke="midnightblue" d="M64.0497,-140.696C80.4646,-158.07 114.191,-193.362 144,-222 161.156,-238.482 181.304,-256.568 195.917,-269.468"/>
<polygon fill="midnightblue" stroke="midnightblue" points="193.995,-272.439 203.816,-276.413 198.617,-267.182 193.995,-272.439"/>
</g>
<!-- Node8 -->
<g id="node17" class="node"><title>Node8</title>
<a xlink:href="../../d2/dc9/group__CIP__API.html#gac207feb53c1f98b45f3934bbea63d618" target="_top" xlink:title="Insert an attribute in an instance of a CIP class.">
<polygon fill="none" stroke="black" points="365,-198.5 365,-219.5 443,-219.5 443,-198.5 365,-198.5"/>
<text text-anchor="middle" x="404" y="-206.5" font-family="Helvetica,sans-Serif" font-size="10.00">InsertAttribute</text>
</a>
</g>
<!-- Node1&#45;&gt;Node8 -->
<g id="edge56" class="edge"><title>Node1&#45;&gt;Node8</title>
<path fill="none" stroke="midnightblue" d="M73.7865,-140.661C91.6418,-149.823 118.884,-162.681 144,-170 215.689,-190.891 301.93,-201.008 354.849,-205.59"/>
<polygon fill="midnightblue" stroke="midnightblue" points="354.718,-209.091 364.974,-206.434 355.3,-202.115 354.718,-209.091"/>
</g>
<!-- Node9 -->
<g id="node19" class="node"><title>Node9</title>
<a xlink:href="../../d2/dc9/group__CIP__API.html#ga35f639b135ec3c3903f49fd65daed307" target="_top" xlink:title="Insert a service in an instance of a CIP object.">
<polygon fill="none" stroke="black" points="367,-158.5 367,-179.5 441,-179.5 441,-158.5 367,-158.5"/>
<text text-anchor="middle" x="404" y="-166.5" font-family="Helvetica,sans-Serif" font-size="10.00">InsertService</text>
</a>
</g>
<!-- Node1&#45;&gt;Node9 -->
<g id="edge58" class="edge"><title>Node1&#45;&gt;Node9</title>
<path fill="none" stroke="midnightblue" d="M95.4365,-140.534C110.623,-144.043 128.005,-147.651 144,-150 217.731,-160.827 304.176,-165.587 356.478,-167.605"/>
<polygon fill="midnightblue" stroke="midnightblue" points="356.665,-171.114 366.786,-167.984 356.922,-164.119 356.665,-171.114"/>
</g>
<!-- Node19 -->
<g id="node41" class="node"><title>Node19</title>
<a xlink:href="../../dd/d20/ciptcpipinterface_8c.html#afe7be65662a3542da6008a2ca78270e3" target="_top" xlink:title="GetAttributeAllTcpIpInterface">
<polygon fill="none" stroke="black" points="144.5,-119.5 144.5,-140.5 287.5,-140.5 287.5,-119.5 144.5,-119.5"/>
<text text-anchor="middle" x="216" y="-127.5" font-family="Helvetica,sans-Serif" font-size="10.00">GetAttributeAllTcpIpInterface</text>
</a>
</g>
<!-- Node1&#45;&gt;Node19 -->
<g id="edge44" class="edge"><title>Node1&#45;&gt;Node19</title>
<path fill="none" stroke="midnightblue" d="M108.394,-130C116.719,-130 125.465,-130 134.223,-130"/>
<polygon fill="midnightblue" stroke="midnightblue" points="134.486,-133.5 144.486,-130 134.486,-126.5 134.486,-133.5"/>
</g>
<!-- Node20 -->
<g id="node43" class="node"><title>Node20</title>
<a xlink:href="../../dd/d20/ciptcpipinterface_8c.html#a35086299e6713b99a218e37f982ce676" target="_top" xlink:title="GetAttributeSingleTcpIpInterface">
<polygon fill="none" stroke="black" points="324.5,-118.5 324.5,-139.5 483.5,-139.5 483.5,-118.5 324.5,-118.5"/>
<text text-anchor="middle" x="404" y="-126.5" font-family="Helvetica,sans-Serif" font-size="10.00">GetAttributeSingleTcpIpInterface</text>
</a>
</g>
<!-- Node1&#45;&gt;Node20 -->
<g id="edge52" class="edge"><title>Node1&#45;&gt;Node20</title>
<path fill="none" stroke="midnightblue" d="M92.6734,-119.46C108.46,-115.669 126.976,-111.869 144,-110 207.618,-103.017 224.211,-104.81 288,-110 305.343,-111.411 324.002,-113.99 341.176,-116.802"/>
<polygon fill="midnightblue" stroke="midnightblue" points="340.651,-120.263 351.095,-118.478 341.817,-113.361 340.651,-120.263"/>
</g>
<!-- Node21 -->
<g id="node48" class="node"><title>Node21</title>
<a xlink:href="../../d2/dc9/group__CIP__API.html#gaa50395aca91b378c297d6ad919df210e" target="_top" xlink:title="Get a pointer to an instance.">
<polygon fill="none" stroke="black" points="173.5,-1.5 173.5,-22.5 258.5,-22.5 258.5,-1.5 173.5,-1.5"/>
<text text-anchor="middle" x="216" y="-9.5" font-family="Helvetica,sans-Serif" font-size="10.00">GetCipInstance</text>
</a>
</g>
<!-- Node1&#45;&gt;Node21 -->
<g id="edge54" class="edge"><title>Node1&#45;&gt;Node21</title>
<path fill="none" stroke="midnightblue" d="M60.7611,-119.346C74.1327,-99.1596 105.979,-55.2816 144,-32 149.947,-28.3586 156.57,-25.3646 163.325,-22.9067"/>
<polygon fill="midnightblue" stroke="midnightblue" points="164.824,-26.0994 173.25,-19.6762 162.658,-19.4431 164.824,-26.0994"/>
</g>
<!-- Node22 -->
<g id="node52" class="node"><title>Node22</title>
<a xlink:href="../../dd/d20/ciptcpipinterface_8c.html#a3ce93313245a6e9c12c9958c176e9008" target="_top" xlink:title="SetAttributeSingleTcp">
<polygon fill="none" stroke="black" points="160,-41.5 160,-62.5 272,-62.5 272,-41.5 160,-41.5"/>
<text text-anchor="middle" x="216" y="-49.5" font-family="Helvetica,sans-Serif" font-size="10.00">SetAttributeSingleTcp</text>
</a>
</g>
<!-- Node1&#45;&gt;Node22 -->
<g id="edge60" class="edge"><title>Node1&#45;&gt;Node22</title>
<path fill="none" stroke="midnightblue" d="M69.7377,-119.431C87.3062,-107.946 116.844,-89.5596 144,-77 152.735,-72.9599 162.319,-69.1975 171.564,-65.881"/>
<polygon fill="midnightblue" stroke="midnightblue" points="172.728,-69.1818 181.025,-62.5935 170.431,-62.5696 172.728,-69.1818"/>
</g>
<!-- Node3 -->
<g id="node5" class="node"><title>Node3</title>
<a xlink:href="../../d2/dc9/group__CIP__API.html#ga98bd609c80ece316406363575b4a89ea" target="_top" xlink:title="Get a pointer to a CIP object with given class code.">
<polygon fill="none" stroke="black" points="367.5,-434.5 367.5,-455.5 440.5,-455.5 440.5,-434.5 367.5,-434.5"/>
<text text-anchor="middle" x="404" y="-442.5" font-family="Helvetica,sans-Serif" font-size="10.00">GetCipClass</text>
</a>
</g>
<!-- Node2&#45;&gt;Node3 -->
<g id="edge4" class="edge"><title>Node2&#45;&gt;Node3</title>
<path fill="none" stroke="midnightblue" d="M221.751,-297.756C235.777,-322.967 274.27,-386.282 324,-420 334.068,-426.826 346.091,-431.86 357.719,-435.544"/>
<polygon fill="midnightblue" stroke="midnightblue" points="356.762,-438.911 367.341,-438.331 358.71,-432.188 356.762,-438.911"/>
</g>
<!-- Node5 -->
<g id="node9" class="node"><title>Node5</title>
<a xlink:href="../../d5/dc5/group__CIP__CALLBACK__API.html#ga438b4350c32d6181990b1f0c83f2e343" target="_top" xlink:title="Allocate memory for the CIP stack.">
<polygon fill="none" stroke="black" points="544.5,-356.5 544.5,-377.5 603.5,-377.5 603.5,-356.5 544.5,-356.5"/>
<text text-anchor="middle" x="574" y="-364.5" font-family="Helvetica,sans-Serif" font-size="10.00">CipCalloc</text>
</a>
</g>
<!-- Node2&#45;&gt;Node5 -->
<g id="edge8" class="edge"><title>Node2&#45;&gt;Node5</title>
<path fill="none" stroke="midnightblue" d="M223.097,-297.56C238.441,-319.316 277.13,-368.633 324,-387 394.311,-414.553 484.1,-395.592 534.703,-380.496"/>
<polygon fill="midnightblue" stroke="midnightblue" points="535.758,-383.834 544.284,-377.544 533.696,-377.144 535.758,-383.834"/>
</g>
<!-- Node6 -->
<g id="node11" class="node"><title>Node6</title>
<a xlink:href="../../d2/dc9/group__CIP__API.html#ga39dafca98f844a12511af11b1273d0a8" target="_top" xlink:title="Add a number of CIP instances to a given CIP class.">
<polygon fill="none" stroke="black" points="358,-356.5 358,-377.5 450,-377.5 450,-356.5 358,-356.5"/>
<text text-anchor="middle" x="404" y="-364.5" font-family="Helvetica,sans-Serif" font-size="10.00">AddCipInstances</text>
</a>
</g>
<!-- Node2&#45;&gt;Node6 -->
<g id="edge10" class="edge"><title>Node2&#45;&gt;Node6</title>
<path fill="none" stroke="midnightblue" d="M231.812,-297.534C252.298,-310.763 289.486,-333.373 324,-347 331.573,-349.99 339.73,-352.639 347.838,-354.95"/>
<polygon fill="midnightblue" stroke="midnightblue" points="347.093,-358.375 357.66,-357.603 348.918,-351.617 347.093,-358.375"/>
</g>
<!-- Node7 -->
<g id="node14" class="node"><title>Node7</title>
<a xlink:href="../../d9/d7d/cipmessagerouter_8c.html#ae00f521e394d00fd5fd99271a6983116" target="_top" xlink:title="Register an Class to the message router.">
<polygon fill="none" stroke="black" points="357,-316.5 357,-337.5 451,-337.5 451,-316.5 357,-316.5"/>
<text text-anchor="middle" x="404" y="-324.5" font-family="Helvetica,sans-Serif" font-size="10.00">RegisterCipClass</text>
</a>
</g>
<!-- Node2&#45;&gt;Node7 -->
<g id="edge14" class="edge"><title>Node2&#45;&gt;Node7</title>
<path fill="none" stroke="midnightblue" d="M259.131,-296.177C285.103,-301.703 318.489,-308.806 346.663,-314.801"/>
<polygon fill="midnightblue" stroke="midnightblue" points="346.275,-318.296 356.784,-316.954 347.732,-311.45 346.275,-318.296"/>
</g>
<!-- Node2&#45;&gt;Node8 -->
<g id="edge18" class="edge"><title>Node2&#45;&gt;Node8</title>
<path fill="none" stroke="midnightblue" d="M235.493,-276.302C256.809,-264.873 292.185,-246.691 324,-234 334.348,-229.872 345.662,-225.977 356.438,-222.545"/>
<polygon fill="midnightblue" stroke="midnightblue" points="357.63,-225.84 366.141,-219.53 355.553,-219.156 357.63,-225.84"/>
</g>
<!-- Node2&#45;&gt;Node9 -->
<g id="edge20" class="edge"><title>Node2&#45;&gt;Node9</title>
<path fill="none" stroke="midnightblue" d="M224.573,-276.302C241.405,-256.039 280.906,-212.037 324,-189 334.053,-183.626 345.592,-179.66 356.72,-176.746"/>
<polygon fill="midnightblue" stroke="midnightblue" points="357.85,-180.075 366.769,-174.356 356.23,-173.265 357.85,-180.075"/>
</g>
<!-- Node10 -->
<g id="node21" class="node"><title>Node10</title>
<a xlink:href="../../d2/d3d/cipcommon_8c.html#a8aa8e5e3dc4c505af8ba8ca4e37d9d3e" target="_top" xlink:title="Generic implementation of the GetAttributeAll CIP service.">
<polygon fill="none" stroke="black" points="364,-276.5 364,-297.5 444,-297.5 444,-276.5 364,-276.5"/>
<text text-anchor="middle" x="404" y="-284.5" font-family="Helvetica,sans-Serif" font-size="10.00">GetAttributeAll</text>
</a>
</g>
<!-- Node2&#45;&gt;Node10 -->
<g id="edge22" class="edge"><title>Node2&#45;&gt;Node10</title>
<path fill="none" stroke="midnightblue" d="M259.131,-287C287.35,-287 324.322,-287 353.852,-287"/>
<polygon fill="midnightblue" stroke="midnightblue" points="353.96,-290.5 363.96,-287 353.96,-283.5 353.96,-290.5"/>
</g>
<!-- Node11 -->
<g id="node23" class="node"><title>Node11</title>
<a xlink:href="../../d2/d3d/cipcommon_8c.html#a92cbf8f0a7c9d1e251d22c046f0526bb" target="_top" xlink:title="Generic implementation of the GetAttributeSingle CIP service.">
<polygon fill="none" stroke="black" points="526,-157.5 526,-178.5 622,-178.5 622,-157.5 526,-157.5"/>
<text text-anchor="middle" x="574" y="-165.5" font-family="Helvetica,sans-Serif" font-size="10.00">GetAttributeSingle</text>
</a>
</g>
<!-- Node2&#45;&gt;Node11 -->
<g id="edge24" class="edge"><title>Node2&#45;&gt;Node11</title>
<path fill="none" stroke="midnightblue" d="M259.171,-278.595C329.613,-264.74 463.512,-237.768 484,-229 510.098,-217.831 536.593,-198.733 554.012,-184.876"/>
<polygon fill="midnightblue" stroke="midnightblue" points="556.239,-187.576 561.792,-178.553 551.824,-182.144 556.239,-187.576"/>
</g>
<!-- Node4 -->
<g id="node7" class="node"><title>Node4</title>
<a xlink:href="../../d9/d7d/cipmessagerouter_8c.html#a7a9f44f2d6f010b6f6ee922d378d9bb1" target="_top" xlink:title="Get the registered MessageRouter object corresponding to ClassID. given a class ID, return a pointer to the registration node for that object.">
<polygon fill="none" stroke="black" points="520,-434.5 520,-455.5 628,-455.5 628,-434.5 520,-434.5"/>
<text text-anchor="middle" x="574" y="-442.5" font-family="Helvetica,sans-Serif" font-size="10.00">GetRegisteredObject</text>
</a>
</g>
<!-- Node3&#45;&gt;Node4 -->
<g id="edge6" class="edge"><title>Node3&#45;&gt;Node4</title>
<path fill="none" stroke="midnightblue" d="M440.887,-445C460.963,-445 486.377,-445 509.606,-445"/>
<polygon fill="midnightblue" stroke="midnightblue" points="509.751,-448.5 519.751,-445 509.751,-441.5 509.751,-448.5"/>
</g>
<!-- Node6&#45;&gt;Node5 -->
<g id="edge12" class="edge"><title>Node6&#45;&gt;Node5</title>
<path fill="none" stroke="midnightblue" d="M450.004,-367C476.247,-367 508.821,-367 533.996,-367"/>
<polygon fill="midnightblue" stroke="midnightblue" points="534.292,-370.5 544.292,-367 534.292,-363.5 534.292,-370.5"/>
</g>
<!-- Node7&#45;&gt;Node5 -->
<g id="edge16" class="edge"><title>Node7&#45;&gt;Node5</title>
<path fill="none" stroke="midnightblue" d="M448.665,-337.51C475.327,-343.783 508.882,-351.678 534.561,-357.72"/>
<polygon fill="midnightblue" stroke="midnightblue" points="533.801,-361.137 544.337,-360.02 535.404,-354.323 533.801,-361.137"/>
</g>
<!-- Node12 -->
<g id="node25" class="node"><title>Node12</title>
<a xlink:href="../../d5/dc5/group__CIP__CALLBACK__API.html#ga098272a8ae10facf3086c5c82a0080db" target="_top" xlink:title="Inform the application that the data of an assembly object will be sent.">
<polygon fill="none" stroke="black" points="664,-177.5 664,-198.5 796,-198.5 796,-177.5 664,-177.5"/>
<text text-anchor="middle" x="730" y="-185.5" font-family="Helvetica,sans-Serif" font-size="10.00">BeforeAssemblyDataSend</text>
</a>
</g>
<!-- Node11&#45;&gt;Node12 -->
<g id="edge26" class="edge"><title>Node11&#45;&gt;Node12</title>
<path fill="none" stroke="midnightblue" d="M622.078,-174.164C632.051,-175.442 642.793,-176.82 653.497,-178.192"/>
<polygon fill="midnightblue" stroke="midnightblue" points="653.359,-181.703 663.723,-179.503 654.249,-174.76 653.359,-181.703"/>
</g>
<!-- Node13 -->
<g id="node27" class="node"><title>Node13</title>
<a xlink:href="../../d2/dc9/group__CIP__API.html#gaece1b7dd2aeec306cb33b86b2ee21980" target="_top" xlink:title="Produce the data according to CIP encoding onto the message buffer.">
<polygon fill="none" stroke="black" points="694.5,-119.5 694.5,-140.5 765.5,-140.5 765.5,-119.5 694.5,-119.5"/>
<text text-anchor="middle" x="730" y="-127.5" font-family="Helvetica,sans-Serif" font-size="10.00">EncodeData</text>
</a>
</g>
<!-- Node11&#45;&gt;Node13 -->
<g id="edge28" class="edge"><title>Node11&#45;&gt;Node13</title>
<path fill="none" stroke="midnightblue" d="M617.455,-157.415C638.391,-152.315 663.488,-146.202 684.664,-141.043"/>
<polygon fill="midnightblue" stroke="midnightblue" points="685.511,-144.44 694.398,-138.672 683.854,-137.638 685.511,-144.44"/>
</g>
<!-- Node18 -->
<g id="node39" class="node"><title>Node18</title>
<a xlink:href="../../d2/dc9/group__CIP__API.html#ga5a14c8d76acacb09312b709bb0a76265" target="_top" xlink:title="Get a pointer to an instance&#39;s attribute.">
<polygon fill="none" stroke="black" points="688,-79.5 688,-100.5 772,-100.5 772,-79.5 688,-79.5"/>
<text text-anchor="middle" x="730" y="-87.5" font-family="Helvetica,sans-Serif" font-size="10.00">GetCipAttribute</text>
</a>
</g>
<!-- Node11&#45;&gt;Node18 -->
<g id="edge42" class="edge"><title>Node11&#45;&gt;Node18</title>
<path fill="none" stroke="midnightblue" d="M587.636,-157.478C604.687,-144.742 635.152,-123.347 664,-110 668.89,-107.738 674.1,-105.653 679.366,-103.753"/>
<polygon fill="midnightblue" stroke="midnightblue" points="680.506,-107.062 688.851,-100.534 678.256,-100.433 680.506,-107.062"/>
</g>
<!-- Node13&#45;&gt;Node13 -->
<g id="edge40" class="edge"><title>Node13&#45;&gt;Node13</title>
<path fill="none" stroke="midnightblue" d="M705.531,-140.708C695.074,-149.653 703.23,-159 730,-159 747.149,-159 756.66,-155.164 758.531,-150.055"/>
<polygon fill="midnightblue" stroke="midnightblue" points="761.665,-148.484 754.469,-140.708 755.245,-151.274 761.665,-148.484"/>
</g>
<!-- Node14 -->
<g id="node29" class="node"><title>Node14</title>
<a xlink:href="../../d4/d91/group__ENCAP.html#gae267a8684cc6ee1b3bd83df03260b7aa" target="_top" xlink:title="converts UINT8 data from host to little endian an writes it to buffer.">
<polygon fill="none" stroke="black" points="833,-178.5 833,-199.5 935,-199.5 935,-178.5 833,-178.5"/>
<text text-anchor="middle" x="884" y="-186.5" font-family="Helvetica,sans-Serif" font-size="10.00">AddSintToMessage</text>
</a>
</g>
<!-- Node13&#45;&gt;Node14 -->
<g id="edge30" class="edge"><title>Node13&#45;&gt;Node14</title>
<path fill="none" stroke="midnightblue" d="M757.532,-140.548C782.42,-150.083 819.265,-164.199 846.774,-174.738"/>
<polygon fill="midnightblue" stroke="midnightblue" points="845.857,-178.135 856.447,-178.444 848.361,-171.598 845.857,-178.135"/>
</g>
<!-- Node15 -->
<g id="node31" class="node"><title>Node15</title>
<a xlink:href="../../d4/d91/group__ENCAP.html#gae689aac2a85bf49fb356ec94c8800799" target="_top" xlink:title="converts UINT16 data from host to little endian an writes it to buffer.">
<polygon fill="none" stroke="black" points="972,-119.5 972,-140.5 1068,-140.5 1068,-119.5 972,-119.5"/>
<text text-anchor="middle" x="1020" y="-127.5" font-family="Helvetica,sans-Serif" font-size="10.00">AddIntToMessage</text>
</a>
</g>
<!-- Node13&#45;&gt;Node15 -->
<g id="edge32" class="edge"><title>Node13&#45;&gt;Node15</title>
<path fill="none" stroke="midnightblue" d="M765.875,-130.438C785.424,-130.654 810.041,-130.892 832,-131 878.222,-131.227 889.779,-131.275 936,-131 944.191,-130.951 952.831,-130.876 961.329,-130.788"/>
<polygon fill="midnightblue" stroke="midnightblue" points="961.623,-134.285 971.584,-130.675 961.546,-127.285 961.623,-134.285"/>
</g>
<!-- Node16 -->
<g id="node33" class="node"><title>Node16</title>
<a xlink:href="../../d4/d91/group__ENCAP.html#gaafc3c9e3ff582c9b7e438ae2b1fdf822" target="_top" xlink:title="Converts UINT32 data from host to little endian and writes it to buffer.">
<polygon fill="none" stroke="black" points="832.5,-60.5 832.5,-81.5 935.5,-81.5 935.5,-60.5 832.5,-60.5"/>
<text text-anchor="middle" x="884" y="-68.5" font-family="Helvetica,sans-Serif" font-size="10.00">AddDintToMessage</text>
</a>
</g>
<!-- Node13&#45;&gt;Node16 -->
<g id="edge34" class="edge"><title>Node13&#45;&gt;Node16</title>
<path fill="none" stroke="midnightblue" d="M765.717,-120.536C775.657,-117.538 786.365,-113.96 796,-110 812.734,-103.123 815.528,-98.4826 832,-91 836.34,-89.0285 840.936,-87.0749 845.529,-85.2053"/>
<polygon fill="midnightblue" stroke="midnightblue" points="846.859,-88.443 854.868,-81.5071 844.282,-81.9347 846.859,-88.443"/>
</g>
<!-- Node17 -->
<g id="node35" class="node"><title>Node17</title>
<a xlink:href="../../d2/d3d/cipcommon_8c.html#a6eec1752e2cffbbab16bff95fa145bd3" target="_top" xlink:title="EncodeEPath">
<polygon fill="none" stroke="black" points="845.5,-100.5 845.5,-121.5 922.5,-121.5 922.5,-100.5 845.5,-100.5"/>
<text text-anchor="middle" x="884" y="-108.5" font-family="Helvetica,sans-Serif" font-size="10.00">EncodeEPath</text>
</a>
</g>
<!-- Node13&#45;&gt;Node17 -->
<g id="edge36" class="edge"><title>Node13&#45;&gt;Node17</title>
<path fill="none" stroke="midnightblue" d="M765.718,-125.593C786.368,-123.046 812.642,-119.804 835.18,-117.023"/>
<polygon fill="midnightblue" stroke="midnightblue" points="835.743,-120.48 845.239,-115.782 834.885,-113.533 835.743,-120.48"/>
</g>
<!-- Node17&#45;&gt;Node15 -->
<g id="edge38" class="edge"><title>Node17&#45;&gt;Node15</title>
<path fill="none" stroke="midnightblue" d="M922.608,-116.394C934.749,-118.09 948.437,-120.002 961.631,-121.846"/>
<polygon fill="midnightblue" stroke="midnightblue" points="961.203,-125.32 971.591,-123.237 962.171,-118.387 961.203,-125.32"/>
</g>
<!-- Node19&#45;&gt;Node20 -->
<g id="edge46" class="edge"><title>Node19&#45;&gt;Node20</title>
<path fill="none" stroke="midnightblue" d="M287.611,-129.619C296.357,-129.573 305.377,-129.525 314.344,-129.477"/>
<polygon fill="midnightblue" stroke="midnightblue" points="314.447,-132.976 324.429,-129.423 314.41,-125.977 314.447,-132.976"/>
</g>
<!-- Node20&#45;&gt;Node11 -->
<g id="edge50" class="edge"><title>Node20&#45;&gt;Node11</title>
<path fill="none" stroke="midnightblue" d="M450.004,-139.554C470.982,-144.366 496.004,-150.107 518.059,-155.167"/>
<polygon fill="midnightblue" stroke="midnightblue" points="517.429,-158.613 527.959,-157.438 518.995,-151.79 517.429,-158.613"/>
</g>
<!-- Node20&#45;&gt;Node13 -->
<g id="edge48" class="edge"><title>Node20&#45;&gt;Node13</title>
<path fill="none" stroke="midnightblue" d="M483.749,-129.245C546.706,-129.438 632.313,-129.7 684.229,-129.86"/>
<polygon fill="midnightblue" stroke="midnightblue" points="684.451,-133.36 694.461,-129.891 684.472,-126.36 684.451,-133.36"/>
</g>
<!-- Node22&#45;&gt;Node18 -->
<g id="edge62" class="edge"><title>Node22&#45;&gt;Node18</title>
<path fill="none" stroke="midnightblue" d="M267.993,-62.528C285.695,-65.7436 305.646,-68.9644 324,-71 450.262,-85.0032 599.729,-88.7075 677.318,-89.6729"/>
<polygon fill="midnightblue" stroke="midnightblue" points="677.74,-93.1779 687.779,-89.7918 677.82,-86.1783 677.74,-93.1779"/>
</g>
<!-- Node23 -->
<g id="node55" class="node"><title>Node23</title>
<a xlink:href="../../d4/d91/group__ENCAP.html#ga668f92389ee06510864585b97955f6f8" target="_top" xlink:title="Reads EIP_UINT32 from *buffer and converts little endian to host.">
<polygon fill="none" stroke="black" points="347.5,-40.5 347.5,-61.5 460.5,-61.5 460.5,-40.5 347.5,-40.5"/>
<text text-anchor="middle" x="404" y="-48.5" font-family="Helvetica,sans-Serif" font-size="10.00">GetDintFromMessage</text>
</a>
</g>
<!-- Node22&#45;&gt;Node23 -->
<g id="edge64" class="edge"><title>Node22&#45;&gt;Node23</title>
<path fill="none" stroke="midnightblue" d="M272.152,-51.7013C292.608,-51.5925 315.935,-51.4684 337.223,-51.3552"/>
<polygon fill="midnightblue" stroke="midnightblue" points="337.507,-54.8538 347.488,-51.3006 337.47,-47.8539 337.507,-54.8538"/>
</g>
<!-- Node24 -->
<g id="node57" class="node"><title>Node24</title>
<a xlink:href="../../d4/d91/group__ENCAP.html#ga70322f970709ca9c9a1a1d474cfe2302" target="_top" xlink:title="Reads EIP_UINT16 from *buffer and converts little endian to host.">
<polygon fill="none" stroke="black" points="351,-0.5 351,-21.5 457,-21.5 457,-0.5 351,-0.5"/>
<text text-anchor="middle" x="404" y="-8.5" font-family="Helvetica,sans-Serif" font-size="10.00">GetIntFromMessage</text>
</a>
</g>
<!-- Node22&#45;&gt;Node24 -->
<g id="edge66" class="edge"><title>Node22&#45;&gt;Node24</title>
<path fill="none" stroke="midnightblue" d="M264.415,-41.4415C289.304,-36.0135 319.82,-29.3585 345.964,-23.6568"/>
<polygon fill="midnightblue" stroke="midnightblue" points="346.725,-27.0732 355.749,-21.5227 345.233,-20.234 346.725,-27.0732"/>
</g>
</g>
</svg>
        <g id="navigator" transform="translate(0 0)" fill="#404254">
                <rect fill="#f2f5e9" fill-opacity="0.5" stroke="#606060" stroke-width=".5" x="0" y="0" width="60" height="60"/>
                <use id="zoomplus" xlink:href="#zoomPlus" x="17" y="9" onmousedown="handleZoom(evt,'in')"/>
                <use id="zoomminus" xlink:href="#zoomMin" x="42" y="9" onmousedown="handleZoom(evt,'out')"/>
                <use id="reset" xlink:href="#resetDef" x="30" y="36" onmousedown="handleReset()"/>
                <g id="arrowUp" xlink:href="#dirArrow" transform="translate(30 24)" onmousedown="handlePan(0,-1)">
                  <use xlink:href="#rim" fill="#404040">
                        <set attributeName="fill" to="#808080" begin="arrowUp.mouseover" end="arrowUp.mouseout"/>
                  </use>
                  <path fill="none" stroke="white" stroke-width="1.5" d="M0,-3.0v7 M-2.5,-0.5L0,-3.0L2.5,-0.5"/>
                </g>
                <g id="arrowRight" xlink:href="#dirArrow" transform="rotate(90) translate(36 -43)" onmousedown="handlePan(1,0)">
                  <use xlink:href="#rim" fill="#404040">
                        <set attributeName="fill" to="#808080" begin="arrowRight.mouseover" end="arrowRight.mouseout"/>
                  </use>
                  <path fill="none" stroke="white" stroke-width="1.5" d="M0,-3.0v7 M-2.5,-0.5L0,-3.0L2.5,-0.5"/>
                </g>
                <g id="arrowDown" xlink:href="#dirArrow" transform="rotate(180) translate(-30 -48)" onmousedown="handlePan(0,1)">
                  <use xlink:href="#rim" fill="#404040">
                        <set attributeName="fill" to="#808080" begin="arrowDown.mouseover" end="arrowDown.mouseout"/>
                  </use>
                  <path fill="none" stroke="white" stroke-width="1.5" d="M0,-3.0v7 M-2.5,-0.5L0,-3.0L2.5,-0.5"/>
                </g>
                <g id="arrowLeft" xlink:href="#dirArrow" transform="rotate(270) translate(-36 17)" onmousedown="handlePan(-1,0)">
                  <use xlink:href="#rim" fill="#404040">
                        <set attributeName="fill" to="#808080" begin="arrowLeft.mouseover" end="arrowLeft.mouseout"/>
                  </use>
                  <path fill="none" stroke="white" stroke-width="1.5" d="M0,-3.0v7 M-2.5,-0.5L0,-3.0L2.5,-0.5"/>
                </g>
        </g>
</svg>
