<?xml version="1.0" encoding="UTF-8" standalone="no"?>
<!DOCTYPE svg PUBLIC "-//W3C//DTD SVG 1.1//EN"
 "http://www.w3.org/Graphics/SVG/1.1/DTD/svg11.dtd">
<!-- Generated by graphviz version 2.36.0 (20140111.2315)
 -->
<!-- Title: CipTcpIpInterfaceInit Pages: 1 -->
<svg width="932pt" height="455pt"
 viewBox="0.00 0.00 932.00 455.00" xmlns="http://www.w3.org/2000/svg" xmlns:xlink="http://www.w3.org/1999/xlink">
<g id="graph0" class="graph" transform="scale(1 1) rotate(0) translate(4 451)">
<title>CipTcpIpInterfaceInit</title>
<!-- Node1 -->
<g id="node1" class="node"><title>Node1</title>
<polygon fill="#bfbfbf" stroke="black" points="0,-123.5 0,-142.5 108,-142.5 108,-123.5 0,-123.5"/>
<text text-anchor="middle" x="54" y="-130.5" font-family="Helvetica,sans-Serif" font-size="10.00">CipTcpIpInterfaceInit</text>
</g>
<!-- Node2 -->
<g id="node2" class="node"><title>Node2</title>
<g id="a_node2"><a xlink:href="../../d2/dc9/group__CIP__API.html#ga3dfa07bc40e59ba348d713272d1cbfdb" target="_top" xlink:title="Allocate memory for new CIP Class and attributes. ">
<polygon fill="none" stroke="black" points="173,-256.5 173,-275.5 259,-275.5 259,-256.5 173,-256.5"/>
<text text-anchor="middle" x="216" y="-263.5" font-family="Helvetica,sans-Serif" font-size="10.00">CreateCipClass</text>
</a>
</g>
</g>
<!-- Node1&#45;&gt;Node2 -->
<g id="edge1" class="edge"><title>Node1&#45;&gt;Node2</title>
<path fill="none" stroke="midnightblue" d="M63.1594,-142.706C78.0709,-160.093 111.216,-197.146 144,-223 157.515,-233.658 173.874,-243.731 187.481,-251.445"/>
<polygon fill="midnightblue" stroke="midnightblue" points="185.95,-254.598 196.393,-256.386 189.344,-248.476 185.95,-254.598"/>
</g>
<!-- Node10 -->
<g id="node10" class="node"><title>Node10</title>
<g id="a_node10"><a xlink:href="../../d2/dc9/group__CIP__API.html#gac207feb53c1f98b45f3934bbea63d618" target="_top" xlink:title="Insert an attribute in an instance of a CIP class. ">
<polygon fill="none" stroke="black" points="365,-199.5 365,-218.5 443,-218.5 443,-199.5 365,-199.5"/>
<text text-anchor="middle" x="404" y="-206.5" font-family="Helvetica,sans-Serif" font-size="10.00">InsertAttribute</text>
</a>
</g>
</g>
<!-- Node1&#45;&gt;Node10 -->
<g id="edge32" class="edge"><title>Node1&#45;&gt;Node10</title>
<path fill="none" stroke="midnightblue" d="M75.4265,-142.51C93.192,-150.42 119.81,-161.413 144,-168 216.066,-187.622 302.137,-198.933 354.664,-204.527"/>
<polygon fill="midnightblue" stroke="midnightblue" points="354.4,-208.018 364.708,-205.57 355.123,-201.055 354.4,-208.018"/>
</g>
<!-- Node11 -->
<g id="node11" class="node"><title>Node11</title>
<g id="a_node11"><a xlink:href="../../d2/dc9/group__CIP__API.html#ga35f639b135ec3c3903f49fd65daed307" target="_top" xlink:title="Insert a service in an instance of a CIP object. ">
<polygon fill="none" stroke="black" points="367,-123.5 367,-142.5 441,-142.5 441,-123.5 367,-123.5"/>
<text text-anchor="middle" x="404" y="-130.5" font-family="Helvetica,sans-Serif" font-size="10.00">InsertService</text>
</a>
</g>
</g>
<!-- Node1&#45;&gt;Node11 -->
<g id="edge33" class="edge"><title>Node1&#45;&gt;Node11</title>
<path fill="none" stroke="midnightblue" d="M91.0962,-142.509C107.167,-146.274 126.402,-150.143 144,-152 207.646,-158.718 224.214,-157.234 288,-152 310.878,-150.123 336.061,-146.179 357.015,-142.368"/>
<polygon fill="midnightblue" stroke="midnightblue" points="357.744,-145.792 366.933,-140.517 356.46,-138.911 357.744,-145.792"/>
</g>
<!-- Node21 -->
<g id="node21" class="node"><title>Node21</title>
<g id="a_node21"><a xlink:href="../../dd/d20/ciptcpipinterface_8c.html#ac8e8bb2bf60fd22d322a9422f191b35e" target="_top" xlink:title="GetAttributeAllTcpIpInterface">
<polygon fill="none" stroke="black" points="144.5,-123.5 144.5,-142.5 287.5,-142.5 287.5,-123.5 144.5,-123.5"/>
<text text-anchor="middle" x="216" y="-130.5" font-family="Helvetica,sans-Serif" font-size="10.00">GetAttributeAllTcpIpInterface</text>
</a>
</g>
</g>
<!-- Node1&#45;&gt;Node21 -->
<g id="edge28" class="edge"><title>Node1&#45;&gt;Node21</title>
<path fill="none" stroke="midnightblue" d="M108.278,-133C116.576,-133 125.307,-133 134.054,-133"/>
<polygon fill="midnightblue" stroke="midnightblue" points="134.303,-136.5 144.303,-133 134.303,-129.5 134.303,-136.5"/>
</g>
<!-- Node22 -->
<g id="node22" class="node"><title>Node22</title>
<g id="a_node22"><a xlink:href="../../dd/d20/ciptcpipinterface_8c.html#a53467d0ad09ef542d7c0e8423134782f" target="_top" xlink:title="GetAttributeSingleTcpIpInterface">
<polygon fill="none" stroke="black" points="324.5,-85.5 324.5,-104.5 483.5,-104.5 483.5,-85.5 324.5,-85.5"/>
<text text-anchor="middle" x="404" y="-92.5" font-family="Helvetica,sans-Serif" font-size="10.00">GetAttributeSingleTcpIpInterface</text>
</a>
</g>
</g>
<!-- Node1&#45;&gt;Node22 -->
<g id="edge30" class="edge"><title>Node1&#45;&gt;Node22</title>
<path fill="none" stroke="midnightblue" d="M94.2235,-123.414C109.654,-119.962 127.577,-116.344 144,-114 200.372,-105.954 264.161,-101.222 314.329,-98.4932"/>
<polygon fill="midnightblue" stroke="midnightblue" points="314.695,-101.979 324.496,-97.9573 314.326,-94.9886 314.695,-101.979"/>
</g>
<!-- Node23 -->
<g id="node23" class="node"><title>Node23</title>
<g id="a_node23"><a xlink:href="../../d2/dc9/group__CIP__API.html#gaa50395aca91b378c297d6ad919df210e" target="_top" xlink:title="Get a pointer to an instance. ">
<polygon fill="none" stroke="black" points="173.5,-47.5 173.5,-66.5 258.5,-66.5 258.5,-47.5 173.5,-47.5"/>
<text text-anchor="middle" x="216" y="-54.5" font-family="Helvetica,sans-Serif" font-size="10.00">GetCipInstance</text>
</a>
</g>
</g>
<!-- Node1&#45;&gt;Node23 -->
<g id="edge31" class="edge"><title>Node1&#45;&gt;Node23</title>
<path fill="none" stroke="midnightblue" d="M69.3141,-123.408C86.5061,-112.182 116.477,-93.5352 144,-81 153.052,-76.8773 163.029,-73.0767 172.572,-69.7734"/>
<polygon fill="midnightblue" stroke="midnightblue" points="173.928,-73.0103 182.301,-66.5185 171.708,-66.3719 173.928,-73.0103"/>
</g>
<!-- Node24 -->
<g id="node24" class="node"><title>Node24</title>
<g id="a_node24"><a xlink:href="../../dd/d20/ciptcpipinterface_8c.html#a811091b5f21066159f7a168504106f80" target="_top" xlink:title="SetAttributeSingleTcp">
<polygon fill="none" stroke="black" points="348,-38.5 348,-57.5 460,-57.5 460,-38.5 348,-38.5"/>
<text text-anchor="middle" x="404" y="-45.5" font-family="Helvetica,sans-Serif" font-size="10.00">SetAttributeSingleTcp</text>
</a>
</g>
</g>
<!-- Node1&#45;&gt;Node24 -->
<g id="edge34" class="edge"><title>Node1&#45;&gt;Node24</title>
<path fill="none" stroke="midnightblue" d="M60.3127,-123.321C72.1556,-102.893 102.943,-55.7959 144,-38 215.757,-6.89773 309.457,-22.6353 362.233,-35.9487"/>
<polygon fill="midnightblue" stroke="midnightblue" points="361.35,-39.3354 371.91,-38.4794 363.121,-32.5632 361.35,-39.3354"/>
</g>
<!-- Node3 -->
<g id="node3" class="node"><title>Node3</title>
<g id="a_node3"><a xlink:href="../../d2/dc9/group__CIP__API.html#ga98bd609c80ece316406363575b4a89ea" target="_top" xlink:title="Get a pointer to a CIP object with given class code. ">
<polygon fill="none" stroke="black" points="367.5,-427.5 367.5,-446.5 440.5,-446.5 440.5,-427.5 367.5,-427.5"/>
<text text-anchor="middle" x="404" y="-434.5" font-family="Helvetica,sans-Serif" font-size="10.00">GetCipClass</text>
</a>
</g>
</g>
<!-- Node2&#45;&gt;Node3 -->
<g id="edge2" class="edge"><title>Node2&#45;&gt;Node3</title>
<path fill="none" stroke="midnightblue" d="M221.232,-275.552C233.3,-301.686 270.497,-374.944 324,-413 333.947,-420.075 346.018,-425.099 357.699,-428.653"/>
<polygon fill="midnightblue" stroke="midnightblue" points="356.794,-432.034 367.364,-431.306 358.647,-425.284 356.794,-432.034"/>
</g>
<!-- Node5 -->
<g id="node5" class="node"><title>Node5</title>
<g id="a_node5"><a xlink:href="../../d5/dc5/group__CIP__CALLBACK__API.html#ga70ee7034f390fd3759d42a50e60e1b1c" target="_top" xlink:title="Allocate memory for the CIP stack. ">
<polygon fill="none" stroke="black" points="556.5,-332.5 556.5,-351.5 615.5,-351.5 615.5,-332.5 556.5,-332.5"/>
<text text-anchor="middle" x="586" y="-339.5" font-family="Helvetica,sans-Serif" font-size="10.00">CipCalloc</text>
</a>
</g>
</g>
<!-- Node2&#45;&gt;Node5 -->
<g id="edge4" class="edge"><title>Node2&#45;&gt;Node5</title>
<path fill="none" stroke="midnightblue" d="M222.357,-275.821C235.78,-299.253 273.432,-358.11 324,-380 403.185,-414.278 507.211,-377.504 556.604,-355.706"/>
<polygon fill="midnightblue" stroke="midnightblue" points="558.066,-358.886 565.731,-351.571 555.178,-352.51 558.066,-358.886"/>
</g>
<!-- Node6 -->
<g id="node6" class="node"><title>Node6</title>
<g id="a_node6"><a xlink:href="../../d2/dc9/group__CIP__API.html#ga39dafca98f844a12511af11b1273d0a8" target="_top" xlink:title="Add a number of CIP instances to a given CIP class. ">
<polygon fill="none" stroke="black" points="358,-351.5 358,-370.5 450,-370.5 450,-351.5 358,-351.5"/>
<text text-anchor="middle" x="404" y="-358.5" font-family="Helvetica,sans-Serif" font-size="10.00">AddCipInstances</text>
</a>
</g>
</g>
<!-- Node2&#45;&gt;Node6 -->
<g id="edge5" class="edge"><title>Node2&#45;&gt;Node6</title>
<path fill="none" stroke="midnightblue" d="M227.676,-275.743C245.998,-291.939 285.214,-324.361 324,-342 331.486,-345.404 339.659,-348.243 347.818,-350.598"/>
<polygon fill="midnightblue" stroke="midnightblue" points="347.153,-354.043 357.717,-353.236 348.955,-347.279 347.153,-354.043"/>
</g>
<!-- Node7 -->
<g id="node7" class="node"><title>Node7</title>
<g id="a_node7"><a xlink:href="../../d9/d7d/cipmessagerouter_8c.html#ae00f521e394d00fd5fd99271a6983116" target="_top" xlink:title="Register an Class to the message router. ">
<polygon fill="none" stroke="black" points="357,-313.5 357,-332.5 451,-332.5 451,-313.5 357,-313.5"/>
<text text-anchor="middle" x="404" y="-320.5" font-family="Helvetica,sans-Serif" font-size="10.00">RegisterCipClass</text>
</a>
</g>
</g>
<!-- Node2&#45;&gt;Node7 -->
<g id="edge7" class="edge"><title>Node2&#45;&gt;Node7</title>
<path fill="none" stroke="midnightblue" d="M241.834,-275.658C263.365,-283.829 295.465,-295.527 324,-304 332.351,-306.48 341.271,-308.869 349.999,-311.067"/>
<polygon fill="midnightblue" stroke="midnightblue" points="349.184,-314.47 359.73,-313.461 350.856,-307.673 349.184,-314.47"/>
</g>
<!-- Node8 -->
<g id="node8" class="node"><title>Node8</title>
<g id="a_node8"><a xlink:href="../../d2/dc9/group__CIP__API.html#ga5ec1d2c432792c39f93c170943964302" target="_top" xlink:title="Allocates Attribute bitmasks. ">
<polygon fill="none" stroke="black" points="345,-275.5 345,-294.5 463,-294.5 463,-275.5 345,-275.5"/>
<text text-anchor="middle" x="404" y="-282.5" font-family="Helvetica,sans-Serif" font-size="10.00">AllocateAttributeMasks</text>
</a>
</g>
</g>
<!-- Node2&#45;&gt;Node8 -->
<g id="edge9" class="edge"><title>Node2&#45;&gt;Node8</title>
<path fill="none" stroke="midnightblue" d="M259.206,-270.311C281.438,-272.582 309.257,-275.424 334.487,-278.001"/>
<polygon fill="midnightblue" stroke="midnightblue" points="334.442,-281.515 344.746,-279.049 335.154,-274.551 334.442,-281.515"/>
</g>
<!-- Node2&#45;&gt;Node10 -->
<g id="edge12" class="edge"><title>Node2&#45;&gt;Node10</title>
<path fill="none" stroke="midnightblue" d="M241.834,-256.342C263.365,-248.171 295.465,-236.473 324,-228 333.838,-225.079 344.464,-222.284 354.636,-219.779"/>
<polygon fill="midnightblue" stroke="midnightblue" points="355.709,-223.12 364.611,-217.376 354.07,-216.315 355.709,-223.12"/>
</g>
<!-- Node2&#45;&gt;Node11 -->
<g id="edge14" class="edge"><title>Node2&#45;&gt;Node11</title>
<path fill="none" stroke="midnightblue" d="M225.587,-256.228C248.787,-229.918 311.797,-159.093 324,-152 333.898,-146.247 345.459,-142.232 356.635,-139.431"/>
<polygon fill="midnightblue" stroke="midnightblue" points="357.73,-142.773 366.731,-137.185 356.21,-135.94 357.73,-142.773"/>
</g>
<!-- Node12 -->
<g id="node12" class="node"><title>Node12</title>
<g id="a_node12"><a xlink:href="../../d2/d3d/cipcommon_8c.html#ad1ca841f8ea512a497ce36acbc96a441" target="_top" xlink:title="Generic implementation of the GetAttributeAll CIP service. ">
<polygon fill="none" stroke="black" points="364,-237.5 364,-256.5 444,-256.5 444,-237.5 364,-237.5"/>
<text text-anchor="middle" x="404" y="-244.5" font-family="Helvetica,sans-Serif" font-size="10.00">GetAttributeAll</text>
</a>
</g>
</g>
<!-- Node2&#45;&gt;Node12 -->
<g id="edge15" class="edge"><title>Node2&#45;&gt;Node12</title>
<path fill="none" stroke="midnightblue" d="M259.206,-261.689C287.299,-258.819 324.311,-255.038 353.749,-252.031"/>
<polygon fill="midnightblue" stroke="midnightblue" points="354.226,-255.501 363.819,-251.002 353.515,-248.537 354.226,-255.501"/>
</g>
<!-- Node13 -->
<g id="node13" class="node"><title>Node13</title>
<g id="a_node13"><a xlink:href="../../d2/d3d/cipcommon_8c.html#ab0ed210dcfa6219a238c5a9f7a72aad1" target="_top" xlink:title="Generic implementation of the GetAttributeSingle CIP service. ">
<polygon fill="none" stroke="black" points="356,-161.5 356,-180.5 452,-180.5 452,-161.5 356,-161.5"/>
<text text-anchor="middle" x="404" y="-168.5" font-family="Helvetica,sans-Serif" font-size="10.00">GetAttributeSingle</text>
</a>
</g>
</g>
<!-- Node2&#45;&gt;Node13 -->
<g id="edge17" class="edge"><title>Node2&#45;&gt;Node13</title>
<path fill="none" stroke="midnightblue" d="M227.676,-256.257C245.998,-240.061 285.214,-207.639 324,-190 330.875,-186.874 338.33,-184.224 345.821,-181.988"/>
<polygon fill="midnightblue" stroke="midnightblue" points="346.933,-185.312 355.644,-179.282 345.074,-178.564 346.933,-185.312"/>
</g>
<!-- Node4 -->
<g id="node4" class="node"><title>Node4</title>
<g id="a_node4"><a xlink:href="../../d9/d7d/cipmessagerouter_8c.html#a7a9f44f2d6f010b6f6ee922d378d9bb1" target="_top" xlink:title="Get the registered MessageRouter object corresponding to ClassID. given a class ID, return a pointer to the registration node for that object. ">
<polygon fill="none" stroke="black" points="532,-427.5 532,-446.5 640,-446.5 640,-427.5 532,-427.5"/>
<text text-anchor="middle" x="586" y="-434.5" font-family="Helvetica,sans-Serif" font-size="10.00">GetRegisteredObject</text>
</a>
</g>
</g>
<!-- Node3&#45;&gt;Node4 -->
<g id="edge3" class="edge"><title>Node3&#45;&gt;Node4</title>
<path fill="none" stroke="midnightblue" d="M440.562,-437C463.638,-437 494.362,-437 521.54,-437"/>
<polygon fill="midnightblue" stroke="midnightblue" points="521.759,-440.5 531.759,-437 521.759,-433.5 521.759,-440.5"/>
</g>
<!-- Node6&#45;&gt;Node5 -->
<g id="edge6" class="edge"><title>Node6&#45;&gt;Node5</title>
<path fill="none" stroke="midnightblue" d="M450.422,-356.205C479.973,-353.086 518.104,-349.061 546.228,-346.093"/>
<polygon fill="midnightblue" stroke="midnightblue" points="546.901,-349.541 556.478,-345.011 546.166,-342.58 546.901,-349.541"/>
</g>
<!-- Node7&#45;&gt;Node5 -->
<g id="edge8" class="edge"><title>Node7&#45;&gt;Node5</title>
<path fill="none" stroke="midnightblue" d="M451.354,-327.893C480.727,-330.993 518.282,-334.958 546.099,-337.894"/>
<polygon fill="midnightblue" stroke="midnightblue" points="545.933,-341.396 556.245,-338.965 546.668,-334.434 545.933,-341.396"/>
</g>
<!-- Node8&#45;&gt;Node5 -->
<g id="edge11" class="edge"><title>Node8&#45;&gt;Node5</title>
<path fill="none" stroke="midnightblue" d="M449.138,-294.595C460.568,-297.357 472.808,-300.563 484,-304 507.288,-311.151 532.976,-320.842 552.618,-328.647"/>
<polygon fill="midnightblue" stroke="midnightblue" points="551.431,-331.942 562.015,-332.42 554.039,-325.446 551.431,-331.942"/>
</g>
<!-- Node9 -->
<g id="node9" class="node"><title>Node9</title>
<g id="a_node9"><a xlink:href="../../d2/dc9/group__CIP__API.html#ga1eb3004bbf086b276500e1d6e7a2f677" target="_top" xlink:title="Calculates Byte&#45;Index of Attribute. ">
<polygon fill="none" stroke="black" points="545,-208.5 545,-227.5 627,-227.5 627,-208.5 545,-208.5"/>
<text text-anchor="middle" x="586" y="-215.5" font-family="Helvetica,sans-Serif" font-size="10.00">CalculateIndex</text>
</a>
</g>
</g>
<!-- Node8&#45;&gt;Node9 -->
<g id="edge10" class="edge"><title>Node8&#45;&gt;Node9</title>
<path fill="none" stroke="midnightblue" d="M451.838,-275.433C462.532,-272.782 473.759,-269.621 484,-266 510.112,-256.768 538.485,-242.92 558.491,-232.467"/>
<polygon fill="midnightblue" stroke="midnightblue" points="560.397,-235.418 567.594,-227.643 557.119,-229.233 560.397,-235.418"/>
</g>
<!-- Node10&#45;&gt;Node9 -->
<g id="edge13" class="edge"><title>Node10&#45;&gt;Node9</title>
<path fill="none" stroke="midnightblue" d="M443.173,-210.909C469.736,-212.237 505.434,-214.022 534.37,-215.469"/>
<polygon fill="midnightblue" stroke="midnightblue" points="534.533,-218.981 544.696,-215.985 534.883,-211.99 534.533,-218.981"/>
</g>
<!-- Node12&#45;&gt;Node9 -->
<g id="edge16" class="edge"><title>Node12&#45;&gt;Node9</title>
<path fill="none" stroke="midnightblue" d="M444.057,-240.707C470.579,-236.435 505.9,-230.744 534.549,-226.128"/>
<polygon fill="midnightblue" stroke="midnightblue" points="535.457,-229.527 544.773,-224.481 534.343,-222.616 535.457,-229.527"/>
</g>
<!-- Node13&#45;&gt;Node9 -->
<g id="edge19" class="edge"><title>Node13&#45;&gt;Node9</title>
<path fill="none" stroke="midnightblue" d="M446.069,-180.594C458.296,-183.527 471.709,-186.819 484,-190 502.849,-194.878 523.586,-200.57 541.34,-205.543"/>
<polygon fill="midnightblue" stroke="midnightblue" points="540.837,-209.037 551.411,-208.376 542.733,-202.299 540.837,-209.037"/>
</g>
<!-- Node14 -->
<g id="node14" class="node"><title>Node14</title>
<g id="a_node14"><a xlink:href="../../d5/dc5/group__CIP__CALLBACK__API.html#ga098272a8ae10facf3086c5c82a0080db" target="_top" xlink:title="Inform the application that the data of an assembly object will be sent. ">
<polygon fill="none" stroke="black" points="520,-170.5 520,-189.5 652,-189.5 652,-170.5 520,-170.5"/>
<text text-anchor="middle" x="586" y="-177.5" font-family="Helvetica,sans-Serif" font-size="10.00">BeforeAssemblyDataSend</text>
</a>
</g>
</g>
<!-- Node13&#45;&gt;Node14 -->
<g id="edge18" class="edge"><title>Node13&#45;&gt;Node14</title>
<path fill="none" stroke="midnightblue" d="M452.293,-173.365C469.856,-174.243 490.243,-175.262 509.69,-176.234"/>
<polygon fill="midnightblue" stroke="midnightblue" points="509.591,-179.734 519.753,-176.738 509.941,-172.743 509.591,-179.734"/>
</g>
<!-- Node15 -->
<g id="node15" class="node"><title>Node15</title>
<g id="a_node15"><a xlink:href="../../d2/dc9/group__CIP__API.html#gaece1b7dd2aeec306cb33b86b2ee21980" target="_top" xlink:title="Produce the data according to CIP encoding onto the message buffer. ">
<polygon fill="none" stroke="black" points="550.5,-114.5 550.5,-133.5 621.5,-133.5 621.5,-114.5 550.5,-114.5"/>
<text text-anchor="middle" x="586" y="-121.5" font-family="Helvetica,sans-Serif" font-size="10.00">EncodeData</text>
</a>
</g>
</g>
<!-- Node13&#45;&gt;Node15 -->
<g id="edge20" class="edge"><title>Node13&#45;&gt;Node15</title>
<path fill="none" stroke="midnightblue" d="M446.069,-161.406C458.296,-158.473 471.709,-155.181 484,-152 502.849,-147.122 523.586,-141.43 541.34,-136.457"/>
<polygon fill="midnightblue" stroke="midnightblue" points="542.733,-139.701 551.411,-133.624 540.837,-132.963 542.733,-139.701"/>
</g>
<!-- Node20 -->
<g id="node20" class="node"><title>Node20</title>
<g id="a_node20"><a xlink:href="../../d2/dc9/group__CIP__API.html#ga5a14c8d76acacb09312b709bb0a76265" target="_top" xlink:title="Get a pointer to an instance&#39;s attribute. ">
<polygon fill="none" stroke="black" points="544,-76.5 544,-95.5 628,-95.5 628,-76.5 544,-76.5"/>
<text text-anchor="middle" x="586" y="-83.5" font-family="Helvetica,sans-Serif" font-size="10.00">GetCipAttribute</text>
</a>
</g>
</g>
<!-- Node13&#45;&gt;Node20 -->
<g id="edge27" class="edge"><title>Node13&#45;&gt;Node20</title>
<path fill="none" stroke="midnightblue" d="M452.262,-165.131C463.277,-162.315 474.539,-158.152 484,-152 506.058,-137.655 498.295,-119.874 520,-105 524.314,-102.044 529.092,-99.5409 534.041,-97.4236"/>
<polygon fill="midnightblue" stroke="midnightblue" points="535.558,-100.593 543.695,-93.8088 533.103,-94.0377 535.558,-100.593"/>
</g>
<!-- Node15&#45;&gt;Node15 -->
<g id="edge26" class="edge"><title>Node15&#45;&gt;Node15</title>
<path fill="none" stroke="midnightblue" d="M562.264,-133.757C550.717,-142.565 558.629,-152 586,-152 603.962,-152 613.544,-147.937 614.746,-142.654"/>
<polygon fill="midnightblue" stroke="midnightblue" points="617.692,-140.753 609.736,-133.757 611.593,-144.188 617.692,-140.753"/>
</g>
<!-- Node16 -->
<g id="node16" class="node"><title>Node16</title>
<g id="a_node16"><a xlink:href="../../d4/d91/group__ENCAP.html#gae267a8684cc6ee1b3bd83df03260b7aa" target="_top" xlink:title="converts UINT8 data from host to little endian an writes it to buffer. ">
<polygon fill="none" stroke="black" points="689,-171.5 689,-190.5 791,-190.5 791,-171.5 689,-171.5"/>
<text text-anchor="middle" x="740" y="-178.5" font-family="Helvetica,sans-Serif" font-size="10.00">AddSintToMessage</text>
</a>
</g>
</g>
<!-- Node15&#45;&gt;Node16 -->
<g id="edge21" class="edge"><title>Node15&#45;&gt;Node16</title>
<path fill="none" stroke="midnightblue" d="M612.441,-133.541C637.54,-142.953 676.104,-157.414 704.066,-167.9"/>
<polygon fill="midnightblue" stroke="midnightblue" points="702.883,-171.194 713.476,-171.428 705.341,-164.64 702.883,-171.194"/>
</g>
<!-- Node17 -->
<g id="node17" class="node"><title>Node17</title>
<g id="a_node17"><a xlink:href="../../d4/d91/group__ENCAP.html#gae689aac2a85bf49fb356ec94c8800799" target="_top" xlink:title="converts UINT16 data from host to little endian an writes it to buffer. ">
<polygon fill="none" stroke="black" points="828,-95.5 828,-114.5 924,-114.5 924,-95.5 828,-95.5"/>
<text text-anchor="middle" x="876" y="-102.5" font-family="Helvetica,sans-Serif" font-size="10.00">AddIntToMessage</text>
</a>
</g>
</g>
<!-- Node15&#45;&gt;Node17 -->
<g id="edge22" class="edge"><title>Node15&#45;&gt;Node17</title>
<path fill="none" stroke="midnightblue" d="M621.591,-126.36C662.452,-128.603 732.41,-130.734 792,-124 804.981,-122.533 818.891,-119.815 831.542,-116.884"/>
<polygon fill="midnightblue" stroke="midnightblue" points="832.477,-120.258 841.375,-114.507 830.833,-113.454 832.477,-120.258"/>
</g>
<!-- Node18 -->
<g id="node18" class="node"><title>Node18</title>
<g id="a_node18"><a xlink:href="../../d4/d91/group__ENCAP.html#gaafc3c9e3ff582c9b7e438ae2b1fdf822" target="_top" xlink:title="Converts UINT32 data from host to little endian and writes it to buffer. ">
<polygon fill="none" stroke="black" points="688.5,-95.5 688.5,-114.5 791.5,-114.5 791.5,-95.5 688.5,-95.5"/>
<text text-anchor="middle" x="740" y="-102.5" font-family="Helvetica,sans-Serif" font-size="10.00">AddDintToMessage</text>
</a>
</g>
</g>
<!-- Node15&#45;&gt;Node18 -->
<g id="edge23" class="edge"><title>Node15&#45;&gt;Node18</title>
<path fill="none" stroke="midnightblue" d="M621.872,-119.641C638.588,-117.551 659.103,-114.987 678.268,-112.592"/>
<polygon fill="midnightblue" stroke="midnightblue" points="678.951,-116.033 688.44,-111.32 678.083,-109.087 678.951,-116.033"/>
</g>
<!-- Node19 -->
<g id="node19" class="node"><title>Node19</title>
<g id="a_node19"><a xlink:href="../../d2/d3d/cipcommon_8c.html#a6eec1752e2cffbbab16bff95fa145bd3" target="_top" xlink:title="EncodeEPath">
<polygon fill="none" stroke="black" points="701.5,-57.5 701.5,-76.5 778.5,-76.5 778.5,-57.5 701.5,-57.5"/>
<text text-anchor="middle" x="740" y="-64.5" font-family="Helvetica,sans-Serif" font-size="10.00">EncodeEPath</text>
</a>
</g>
</g>
<!-- Node15&#45;&gt;Node19 -->
<g id="edge24" class="edge"><title>Node15&#45;&gt;Node19</title>
<path fill="none" stroke="midnightblue" d="M621.513,-115.31C631.491,-112.424 642.302,-108.93 652,-105 668.767,-98.2054 671.489,-93.3956 688,-86 692.454,-84.0048 697.188,-82.0412 701.906,-80.1776"/>
<polygon fill="midnightblue" stroke="midnightblue" points="703.387,-83.3583 711.475,-76.515 700.885,-76.8208 703.387,-83.3583"/>
</g>
<!-- Node19&#45;&gt;Node17 -->
<g id="edge25" class="edge"><title>Node19&#45;&gt;Node17</title>
<path fill="none" stroke="midnightblue" d="M774.814,-76.589C792.033,-81.4719 813.164,-87.4643 831.573,-92.685"/>
<polygon fill="midnightblue" stroke="midnightblue" points="830.621,-96.053 841.197,-95.4141 832.531,-89.3185 830.621,-96.053"/>
</g>
<!-- Node21&#45;&gt;Node22 -->
<g id="edge29" class="edge"><title>Node21&#45;&gt;Node22</title>
<path fill="none" stroke="midnightblue" d="M263.936,-123.411C289.033,-118.284 320.119,-111.933 346.53,-106.537"/>
<polygon fill="midnightblue" stroke="midnightblue" points="347.305,-109.951 356.402,-104.52 345.904,-103.093 347.305,-109.951"/>
</g>
<!-- Node24&#45;&gt;Node9 -->
<g id="edge35" class="edge"><title>Node24&#45;&gt;Node9</title>
<path fill="none" stroke="midnightblue" d="M454.336,-57.5124C465.288,-61.6356 476.002,-67.5418 484,-76 523.136,-117.386 479.716,-158.73 520,-199 524.315,-203.313 529.551,-206.658 535.158,-209.251"/>
<polygon fill="midnightblue" stroke="midnightblue" points="534.255,-212.652 544.846,-212.941 536.747,-206.111 534.255,-212.652"/>
</g>
<!-- Node24&#45;&gt;Node20 -->
<g id="edge36" class="edge"><title>Node24&#45;&gt;Node20</title>
<path fill="none" stroke="midnightblue" d="M450.422,-57.589C475.91,-62.9699 507.78,-69.6981 534.108,-75.2561"/>
<polygon fill="midnightblue" stroke="midnightblue" points="533.394,-78.6826 543.902,-77.3237 534.84,-71.8335 533.394,-78.6826"/>
</g>
<!-- Node25 -->
<g id="node25" class="node"><title>Node25</title>
<g id="a_node25"><a xlink:href="../../d4/d91/group__ENCAP.html#ga668f92389ee06510864585b97955f6f8" target="_top" xlink:title="Reads EIP_UINT32 from *buffer and converts little endian to host. ">
<polygon fill="none" stroke="black" points="529.5,-38.5 529.5,-57.5 642.5,-57.5 642.5,-38.5 529.5,-38.5"/>
<text text-anchor="middle" x="586" y="-45.5" font-family="Helvetica,sans-Serif" font-size="10.00">GetDintFromMessage</text>
</a>
</g>
</g>
<!-- Node24&#45;&gt;Node25 -->
<g id="edge37" class="edge"><title>Node24&#45;&gt;Node25</title>
<path fill="none" stroke="midnightblue" d="M460.475,-48C479.038,-48 499.91,-48 519.184,-48"/>
<polygon fill="midnightblue" stroke="midnightblue" points="519.399,-51.5001 529.399,-48 519.399,-44.5001 519.399,-51.5001"/>
</g>
<!-- Node26 -->
<g id="node26" class="node"><title>Node26</title>
<g id="a_node26"><a xlink:href="../../d4/d91/group__ENCAP.html#ga70322f970709ca9c9a1a1d474cfe2302" target="_top" xlink:title="Reads EIP_UINT16 from *buffer and converts little endian to host. ">
<polygon fill="none" stroke="black" points="533,-0.5 533,-19.5 639,-19.5 639,-0.5 533,-0.5"/>
<text text-anchor="middle" x="586" y="-7.5" font-family="Helvetica,sans-Serif" font-size="10.00">GetIntFromMessage</text>
</a>
</g>
</g>
<!-- Node24&#45;&gt;Node26 -->
<g id="edge38" class="edge"><title>Node24&#45;&gt;Node26</title>
<path fill="none" stroke="midnightblue" d="M450.422,-38.411C474.603,-33.3061 504.527,-26.9887 530.014,-21.6082"/>
<polygon fill="midnightblue" stroke="midnightblue" points="530.844,-25.0102 539.905,-19.5201 529.398,-18.1612 530.844,-25.0102"/>
</g>
</g>
</svg>
