<?xml version="1.0" encoding="UTF-8" standalone="no"?>
<!DOCTYPE svg PUBLIC "-//W3C//DTD SVG 1.1//EN"
 "http://www.w3.org/Graphics/SVG/1.1/DTD/svg11.dtd">
<!-- Generated by graphviz version 2.38.0 (20140413.2041)
 -->
<!-- Title: CIP_TCPIP_Interface_Init Pages: 1 -->
<svg width="1048pt" height="443pt"
 viewBox="0.00 0.00 1048.00 443.00" xmlns="http://www.w3.org/2000/svg" xmlns:xlink="http://www.w3.org/1999/xlink">
<g id="graph0" class="graph" transform="scale(1 1) rotate(0) translate(4 439)">
<title>CIP_TCPIP_Interface_Init</title>
<!-- Node1 -->
<g id="node1" class="node"><title>Node1</title>
<polygon fill="#bfbfbf" stroke="black" points="0,-114.5 0,-133.5 131,-133.5 131,-114.5 0,-114.5"/>
<text text-anchor="middle" x="65.5" y="-121.5" font-family="Helvetica,sans-Serif" font-size="10.00">CIP_TCPIP_Interface_Init</text>
</g>
<!-- Node2 -->
<g id="node2" class="node"><title>Node2</title>
<g id="a_node2"><a xlink:href="../../d2/dc9/group__CIP__API.html#ga5f372afe536285966f0d07cda8eceda2" target="_top" xlink:title="Allocate memory for new CIP Class and attributes. ">
<polygon fill="none" stroke="black" points="197,-263.5 197,-282.5 283,-282.5 283,-263.5 197,-263.5"/>
<text text-anchor="middle" x="240" y="-270.5" font-family="Helvetica,sans-Serif" font-size="10.00">createCIPClass</text>
</a>
</g>
</g>
<!-- Node1&#45;&gt;Node2 -->
<g id="edge1" class="edge"><title>Node1&#45;&gt;Node2</title>
<path fill="none" stroke="midnightblue" d="M76.9279,-133.613C95.0356,-150.243 133.562,-185.351 167,-214 184.338,-228.854 204.467,-245.282 219.026,-257.022"/>
<polygon fill="midnightblue" stroke="midnightblue" points="216.905,-259.808 226.891,-263.346 221.291,-254.352 216.905,-259.808"/>
</g>
<!-- Node8 -->
<g id="node8" class="node"><title>Node8</title>
<g id="a_node8"><a xlink:href="../../d2/dc9/group__CIP__API.html#gaaf0d193e855cb7716c1fb32658e81b9a" target="_top" xlink:title="Insert an attribute in an instance of a CIP class. ">
<polygon fill="none" stroke="black" points="391.5,-187.5 391.5,-206.5 468.5,-206.5 468.5,-187.5 391.5,-187.5"/>
<text text-anchor="middle" x="430" y="-194.5" font-family="Helvetica,sans-Serif" font-size="10.00">insertAttribute</text>
</a>
</g>
</g>
<!-- Node1&#45;&gt;Node8 -->
<g id="edge27" class="edge"><title>Node1&#45;&gt;Node8</title>
<path fill="none" stroke="midnightblue" d="M93.9422,-133.608C113.986,-140.343 141.927,-149.154 167,-155 241.025,-172.26 328.467,-184.719 381.28,-191.395"/>
<polygon fill="midnightblue" stroke="midnightblue" points="381.01,-194.888 391.366,-192.653 381.876,-187.942 381.01,-194.888"/>
</g>
<!-- Node9 -->
<g id="node9" class="node"><title>Node9</title>
<g id="a_node9"><a xlink:href="../../d2/dc9/group__CIP__API.html#ga2da7a0d6cc8e11fbbca76ca159fdcf97" target="_top" xlink:title="Insert a service in an instance of a CIP object. ">
<polygon fill="none" stroke="black" points="393,-149.5 393,-168.5 467,-168.5 467,-149.5 393,-149.5"/>
<text text-anchor="middle" x="430" y="-156.5" font-family="Helvetica,sans-Serif" font-size="10.00">insertService</text>
</a>
</g>
</g>
<!-- Node1&#45;&gt;Node9 -->
<g id="edge28" class="edge"><title>Node1&#45;&gt;Node9</title>
<path fill="none" stroke="midnightblue" d="M131.308,-130.257C203.649,-137.242 318.905,-148.37 382.707,-154.53"/>
<polygon fill="midnightblue" stroke="midnightblue" points="382.577,-158.034 392.867,-155.511 383.25,-151.066 382.577,-158.034"/>
</g>
<!-- Node18 -->
<g id="node18" class="node"><title>Node18</title>
<g id="a_node18"><a xlink:href="../../dd/d20/ciptcpipinterface_8c.html#a84d58e10c15a940a95d2fffa1f92e49a" target="_top" xlink:title="getAttributeAllTCPIPInterface">
<polygon fill="none" stroke="black" points="167,-76.5 167,-95.5 313,-95.5 313,-76.5 167,-76.5"/>
<text text-anchor="middle" x="240" y="-83.5" font-family="Helvetica,sans-Serif" font-size="10.00">getAttributeAllTCPIPInterface</text>
</a>
</g>
</g>
<!-- Node1&#45;&gt;Node18 -->
<g id="edge21" class="edge"><title>Node1&#45;&gt;Node18</title>
<path fill="none" stroke="midnightblue" d="M110.029,-114.411C133.1,-109.329 161.627,-103.045 185.981,-97.6797"/>
<polygon fill="midnightblue" stroke="midnightblue" points="186.771,-101.089 195.784,-95.5201 185.265,-94.2534 186.771,-101.089"/>
</g>
<!-- Node19 -->
<g id="node19" class="node"><title>Node19</title>
<g id="a_node19"><a xlink:href="../../dd/d20/ciptcpipinterface_8c.html#ab07f807823492b9dd41d9963f719cae0" target="_top" xlink:title="getAttributeSingleTCPIPInterface">
<polygon fill="none" stroke="black" points="349,-92.5 349,-111.5 511,-111.5 511,-92.5 349,-92.5"/>
<text text-anchor="middle" x="430" y="-99.5" font-family="Helvetica,sans-Serif" font-size="10.00">getAttributeSingleTCPIPInterface</text>
</a>
</g>
</g>
<!-- Node1&#45;&gt;Node19 -->
<g id="edge25" class="edge"><title>Node1&#45;&gt;Node19</title>
<path fill="none" stroke="midnightblue" d="M131.308,-120.067C189.106,-116.559 274.301,-111.389 338.759,-107.477"/>
<polygon fill="midnightblue" stroke="midnightblue" points="339.149,-110.96 348.918,-106.86 338.725,-103.972 339.149,-110.96"/>
</g>
<!-- Node20 -->
<g id="node20" class="node"><title>Node20</title>
<g id="a_node20"><a xlink:href="../../d2/dc9/group__CIP__API.html#ga9919da1c597955301da602a23a470801" target="_top" xlink:title="Get a pointer to an instance. ">
<polygon fill="none" stroke="black" points="197.5,-0.5 197.5,-19.5 282.5,-19.5 282.5,-0.5 197.5,-0.5"/>
<text text-anchor="middle" x="240" y="-7.5" font-family="Helvetica,sans-Serif" font-size="10.00">getCIPInstance</text>
</a>
</g>
</g>
<!-- Node1&#45;&gt;Node20 -->
<g id="edge26" class="edge"><title>Node1&#45;&gt;Node20</title>
<path fill="none" stroke="midnightblue" d="M74.6613,-114.455C90.6377,-96.3251 127.908,-56.6974 167,-34 174.453,-29.6728 182.797,-25.99 191.091,-22.905"/>
<polygon fill="midnightblue" stroke="midnightblue" points="192.448,-26.1392 200.748,-19.5551 190.153,-19.5258 192.448,-26.1392"/>
</g>
<!-- Node21 -->
<g id="node21" class="node"><title>Node21</title>
<g id="a_node21"><a xlink:href="../../dd/d20/ciptcpipinterface_8c.html#ac56a8a3b9d3ac2a212f2ea50cbb844e1" target="_top" xlink:title="setAttributeSingleTCP">
<polygon fill="none" stroke="black" points="547,-40.5 547,-59.5 661,-59.5 661,-40.5 547,-40.5"/>
<text text-anchor="middle" x="604" y="-47.5" font-family="Helvetica,sans-Serif" font-size="10.00">setAttributeSingleTCP</text>
</a>
</g>
</g>
<!-- Node1&#45;&gt;Node21 -->
<g id="edge29" class="edge"><title>Node1&#45;&gt;Node21</title>
<path fill="none" stroke="midnightblue" d="M78.9347,-114.301C97.0916,-100.784 132.468,-76.8346 167,-67 294.02,-30.8254 450.253,-36.0388 536.994,-43.0446"/>
<polygon fill="midnightblue" stroke="midnightblue" points="536.707,-46.5327 546.965,-43.8828 537.293,-39.5573 536.707,-46.5327"/>
</g>
<!-- Node3 -->
<g id="node3" class="node"><title>Node3</title>
<g id="a_node3"><a xlink:href="../../d2/dc9/group__CIP__API.html#ga1db1e5dc1fc04ac40a02f4f4ca550aa1" target="_top" xlink:title="Get a pointer to a CIP object with given class code. ">
<polygon fill="none" stroke="black" points="393.5,-377.5 393.5,-396.5 466.5,-396.5 466.5,-377.5 393.5,-377.5"/>
<text text-anchor="middle" x="430" y="-384.5" font-family="Helvetica,sans-Serif" font-size="10.00">getCIPClass</text>
</a>
</g>
</g>
<!-- Node2&#45;&gt;Node3 -->
<g id="edge2" class="edge"><title>Node2&#45;&gt;Node3</title>
<path fill="none" stroke="midnightblue" d="M249.864,-282.618C267.193,-300.872 307.506,-340.702 349,-363 359.571,-368.68 371.667,-373.196 383.199,-376.707"/>
<polygon fill="midnightblue" stroke="midnightblue" points="382.558,-380.164 393.134,-379.537 384.476,-373.431 382.558,-380.164"/>
</g>
<!-- Node5 -->
<g id="node5" class="node"><title>Node5</title>
<g id="a_node5"><a xlink:href="../../d5/dc5/group__CIP__CALLBACK__API.html#ga17e4fa1e0e37455d4f3a9599fb323c0d" target="_top" xlink:title="Allocate memory for the cip stack. ">
<polygon fill="none" stroke="black" points="561.5,-301.5 561.5,-320.5 646.5,-320.5 646.5,-301.5 561.5,-301.5"/>
<text text-anchor="middle" x="604" y="-308.5" font-family="Helvetica,sans-Serif" font-size="10.00">IApp_CipCalloc</text>
</a>
</g>
</g>
<!-- Node2&#45;&gt;Node5 -->
<g id="edge4" class="edge"><title>Node2&#45;&gt;Node5</title>
<path fill="none" stroke="midnightblue" d="M254.11,-282.662C273.612,-296.372 311.957,-320.825 349,-330 420.427,-347.692 506.318,-334.356 557.69,-322.854"/>
<polygon fill="midnightblue" stroke="midnightblue" points="558.535,-326.251 567.489,-320.587 556.958,-319.431 558.535,-326.251"/>
</g>
<!-- Node6 -->
<g id="node6" class="node"><title>Node6</title>
<g id="a_node6"><a xlink:href="../../d2/dc9/group__CIP__API.html#ga3b456f395f03608f51c592e2415e30b3" target="_top" xlink:title="Add a number of CIP instances to a given CIP class. ">
<polygon fill="none" stroke="black" points="384,-301.5 384,-320.5 476,-320.5 476,-301.5 384,-301.5"/>
<text text-anchor="middle" x="430" y="-308.5" font-family="Helvetica,sans-Serif" font-size="10.00">addCIPInstances</text>
</a>
</g>
</g>
<!-- Node2&#45;&gt;Node6 -->
<g id="edge5" class="edge"><title>Node2&#45;&gt;Node6</title>
<path fill="none" stroke="midnightblue" d="M283.191,-281.528C310.016,-286.95 345.027,-294.027 374.018,-299.887"/>
<polygon fill="midnightblue" stroke="midnightblue" points="373.503,-303.353 383.998,-301.904 374.89,-296.492 373.503,-303.353"/>
</g>
<!-- Node7 -->
<g id="node7" class="node"><title>Node7</title>
<g id="a_node7"><a xlink:href="../../d9/d7d/cipmessagerouter_8c.html#ac2a31f91abe28c7ddd75192df2d250da" target="_top" xlink:title="registerClass">
<polygon fill="none" stroke="black" points="393,-263.5 393,-282.5 467,-282.5 467,-263.5 393,-263.5"/>
<text text-anchor="middle" x="430" y="-270.5" font-family="Helvetica,sans-Serif" font-size="10.00">registerClass</text>
</a>
</g>
</g>
<!-- Node2&#45;&gt;Node7 -->
<g id="edge7" class="edge"><title>Node2&#45;&gt;Node7</title>
<path fill="none" stroke="midnightblue" d="M283.191,-273C312.727,-273 352.189,-273 382.61,-273"/>
<polygon fill="midnightblue" stroke="midnightblue" points="382.963,-276.5 392.963,-273 382.963,-269.5 382.963,-276.5"/>
</g>
<!-- Node2&#45;&gt;Node8 -->
<g id="edge9" class="edge"><title>Node2&#45;&gt;Node8</title>
<path fill="none" stroke="midnightblue" d="M258.582,-263.472C279.647,-252.308 316.212,-233.721 349,-221 359.874,-216.781 371.813,-212.844 383.074,-209.428"/>
<polygon fill="midnightblue" stroke="midnightblue" points="384.154,-212.759 392.751,-206.567 382.169,-206.046 384.154,-212.759"/>
</g>
<!-- Node2&#45;&gt;Node9 -->
<g id="edge10" class="edge"><title>Node2&#45;&gt;Node9</title>
<path fill="none" stroke="midnightblue" d="M248.853,-263.496C265.314,-244.227 305.526,-200.485 349,-178 359.395,-172.624 371.337,-168.742 382.769,-165.949"/>
<polygon fill="midnightblue" stroke="midnightblue" points="383.626,-169.345 392.632,-163.765 382.112,-162.51 383.626,-169.345"/>
</g>
<!-- Node10 -->
<g id="node10" class="node"><title>Node10</title>
<g id="a_node10"><a xlink:href="../../d2/d3d/cipcommon_8c.html#a8160c94398cfbb8129e92374d8f782aa" target="_top" xlink:title="Generic implementation of the GetAttributeAll CIP service. ">
<polygon fill="none" stroke="black" points="391,-415.5 391,-434.5 469,-434.5 469,-415.5 391,-415.5"/>
<text text-anchor="middle" x="430" y="-422.5" font-family="Helvetica,sans-Serif" font-size="10.00">getAttributeAll</text>
</a>
</g>
</g>
<!-- Node2&#45;&gt;Node10 -->
<g id="edge11" class="edge"><title>Node2&#45;&gt;Node10</title>
<path fill="none" stroke="midnightblue" d="M245.813,-282.508C258.801,-307.146 297.118,-373.402 349,-406 358.532,-411.989 369.783,-416.091 380.789,-418.901"/>
<polygon fill="midnightblue" stroke="midnightblue" points="380.248,-422.366 390.771,-421.134 381.777,-415.535 380.248,-422.366"/>
</g>
<!-- Node11 -->
<g id="node11" class="node"><title>Node11</title>
<g id="a_node11"><a xlink:href="../../d2/d3d/cipcommon_8c.html#aa0b39dfa2863eebb4fcdba0c4dcc2e9c" target="_top" xlink:title="Generic implementation of the GetAttributeSingle CIP service. ">
<polygon fill="none" stroke="black" points="557,-121.5 557,-140.5 651,-140.5 651,-121.5 557,-121.5"/>
<text text-anchor="middle" x="604" y="-128.5" font-family="Helvetica,sans-Serif" font-size="10.00">getAttributeSingle</text>
</a>
</g>
</g>
<!-- Node2&#45;&gt;Node11 -->
<g id="edge12" class="edge"><title>Node2&#45;&gt;Node11</title>
<path fill="none" stroke="midnightblue" d="M283.231,-265.363C354.035,-252.37 490.943,-226.365 511,-216 543.311,-199.303 572.671,-168.143 589.145,-148.544"/>
<polygon fill="midnightblue" stroke="midnightblue" points="591.951,-150.641 595.58,-140.687 586.536,-146.206 591.951,-150.641"/>
</g>
<!-- Node4 -->
<g id="node4" class="node"><title>Node4</title>
<g id="a_node4"><a xlink:href="../../d9/d7d/cipmessagerouter_8c.html#a64741101a3f7edd3d30c645d7d80374b" target="_top" xlink:title="getRegisteredObject">
<polygon fill="none" stroke="black" points="551,-377.5 551,-396.5 657,-396.5 657,-377.5 551,-377.5"/>
<text text-anchor="middle" x="604" y="-384.5" font-family="Helvetica,sans-Serif" font-size="10.00">getRegisteredObject</text>
</a>
</g>
</g>
<!-- Node3&#45;&gt;Node4 -->
<g id="edge3" class="edge"><title>Node3&#45;&gt;Node4</title>
<path fill="none" stroke="midnightblue" d="M466.639,-387C488,-387 515.761,-387 540.656,-387"/>
<polygon fill="midnightblue" stroke="midnightblue" points="540.758,-390.5 550.758,-387 540.758,-383.5 540.758,-390.5"/>
</g>
<!-- Node6&#45;&gt;Node5 -->
<g id="edge6" class="edge"><title>Node6&#45;&gt;Node5</title>
<path fill="none" stroke="midnightblue" d="M476.191,-311C499.167,-311 527.202,-311 551.064,-311"/>
<polygon fill="midnightblue" stroke="midnightblue" points="551.353,-314.5 561.353,-311 551.353,-307.5 551.353,-314.5"/>
</g>
<!-- Node7&#45;&gt;Node5 -->
<g id="edge8" class="edge"><title>Node7&#45;&gt;Node5</title>
<path fill="none" stroke="midnightblue" d="M467.057,-280.966C491.427,-286.35 523.986,-293.543 551.13,-299.54"/>
<polygon fill="midnightblue" stroke="midnightblue" points="550.72,-303.034 561.239,-301.774 552.23,-296.199 550.72,-303.034"/>
</g>
<!-- Node12 -->
<g id="node12" class="node"><title>Node12</title>
<g id="a_node12"><a xlink:href="../../d2/dc9/group__CIP__API.html#ga47c242c4c952714d8c76a2af1da76702" target="_top" xlink:title="Produce the data according to CIP encoding onto the message buffer. ">
<polygon fill="none" stroke="black" points="741.5,-83.5 741.5,-102.5 810.5,-102.5 810.5,-83.5 741.5,-83.5"/>
<text text-anchor="middle" x="776" y="-90.5" font-family="Helvetica,sans-Serif" font-size="10.00">encodeData</text>
</a>
</g>
</g>
<!-- Node11&#45;&gt;Node12 -->
<g id="edge13" class="edge"><title>Node11&#45;&gt;Node12</title>
<path fill="none" stroke="midnightblue" d="M647.898,-121.411C673.514,-115.685 705.956,-108.433 731.651,-102.69"/>
<polygon fill="midnightblue" stroke="midnightblue" points="732.5,-106.086 741.496,-100.489 730.973,-99.255 732.5,-106.086"/>
</g>
<!-- Node16 -->
<g id="node16" class="node"><title>Node16</title>
<g id="a_node16"><a xlink:href="../../d2/dc9/group__CIP__API.html#ga33fda1920669c922471cb6218c8b22b8" target="_top" xlink:title="Get a pointer to an instance&#39;s attribute. ">
<polygon fill="none" stroke="black" points="742.5,-43.5 742.5,-62.5 809.5,-62.5 809.5,-43.5 742.5,-43.5"/>
<text text-anchor="middle" x="776" y="-50.5" font-family="Helvetica,sans-Serif" font-size="10.00">getAttribute</text>
</a>
</g>
</g>
<!-- Node11&#45;&gt;Node16 -->
<g id="edge19" class="edge"><title>Node11&#45;&gt;Node16</title>
<path fill="none" stroke="midnightblue" d="M617.741,-121.418C634.916,-108.908 666.829,-87.0718 697,-74 708.147,-69.1706 720.681,-65.205 732.387,-62.0716"/>
<polygon fill="midnightblue" stroke="midnightblue" points="733.573,-65.3819 742.406,-59.5315 731.852,-58.5966 733.573,-65.3819"/>
</g>
<!-- Node17 -->
<g id="node17" class="node"><title>Node17</title>
<g id="a_node17"><a xlink:href="../../d5/dc5/group__CIP__CALLBACK__API.html#ga88bb762476768e89925e4d8b3e27fdc4" target="_top" xlink:title="Inform the application that the data of an assembly object will be sent. ">
<polygon fill="none" stroke="black" points="697,-139.5 697,-158.5 855,-158.5 855,-139.5 697,-139.5"/>
<text text-anchor="middle" x="776" y="-146.5" font-family="Helvetica,sans-Serif" font-size="10.00">IApp_BeforeAssemblyDataSend</text>
</a>
</g>
</g>
<!-- Node11&#45;&gt;Node17 -->
<g id="edge20" class="edge"><title>Node11&#45;&gt;Node17</title>
<path fill="none" stroke="midnightblue" d="M651.004,-135.871C662.177,-137.054 674.498,-138.359 686.907,-139.672"/>
<polygon fill="midnightblue" stroke="midnightblue" points="686.544,-143.154 696.857,-140.726 687.281,-136.192 686.544,-143.154"/>
</g>
<!-- Node12&#45;&gt;Node12 -->
<g id="edge18" class="edge"><title>Node12&#45;&gt;Node12</title>
<path fill="none" stroke="midnightblue" d="M752.572,-102.757C741.175,-111.565 748.984,-121 776,-121 793.729,-121 803.186,-116.937 804.372,-111.654"/>
<polygon fill="midnightblue" stroke="midnightblue" points="807.345,-109.797 799.428,-102.757 801.226,-113.198 807.345,-109.797"/>
</g>
<!-- Node13 -->
<g id="node13" class="node"><title>Node13</title>
<g id="a_node13"><a xlink:href="../../d4/d91/group__ENCAP.html#ga738d386bb3919d75bb14dcb40ca5389f" target="_top" xlink:title="converts UINT16 data from host to little endian an writes it to pa_buf. ">
<polygon fill="none" stroke="black" points="1002,-102.5 1002,-121.5 1040,-121.5 1040,-102.5 1002,-102.5"/>
<text text-anchor="middle" x="1021" y="-109.5" font-family="Helvetica,sans-Serif" font-size="10.00">htols</text>
</a>
</g>
</g>
<!-- Node12&#45;&gt;Node13 -->
<g id="edge14" class="edge"><title>Node12&#45;&gt;Node13</title>
<path fill="none" stroke="midnightblue" d="M810.737,-100.127C833.331,-104.528 863.805,-109.749 891,-112 925.372,-114.845 965.072,-114.267 991.252,-113.355"/>
<polygon fill="midnightblue" stroke="midnightblue" points="991.733,-116.839 1001.59,-112.952 991.46,-109.844 991.733,-116.839"/>
</g>
<!-- Node14 -->
<g id="node14" class="node"><title>Node14</title>
<g id="a_node14"><a xlink:href="../../d4/d91/group__ENCAP.html#gaa00e394da5cd80135cdab7d4f3d88819" target="_top" xlink:title="Converts UINT32 data from host to little endian and writes it to pa_buf. ">
<polygon fill="none" stroke="black" points="911,-45.5 911,-64.5 946,-64.5 946,-45.5 911,-45.5"/>
<text text-anchor="middle" x="928.5" y="-52.5" font-family="Helvetica,sans-Serif" font-size="10.00">htoll</text>
</a>
</g>
</g>
<!-- Node12&#45;&gt;Node14 -->
<g id="edge15" class="edge"><title>Node12&#45;&gt;Node14</title>
<path fill="none" stroke="midnightblue" d="M810.775,-84.4721C838.075,-77.5792 875.965,-68.0122 901.081,-61.6706"/>
<polygon fill="midnightblue" stroke="midnightblue" points="902.156,-65.0091 910.995,-59.1674 900.442,-58.2221 902.156,-65.0091"/>
</g>
<!-- Node15 -->
<g id="node15" class="node"><title>Node15</title>
<g id="a_node15"><a xlink:href="../../d2/d3d/cipcommon_8c.html#a77a31efaf2b18f8ed02cf820bcdab4f8" target="_top" xlink:title="encodeEPath">
<polygon fill="none" stroke="black" points="891,-83.5 891,-102.5 966,-102.5 966,-83.5 891,-83.5"/>
<text text-anchor="middle" x="928.5" y="-90.5" font-family="Helvetica,sans-Serif" font-size="10.00">encodeEPath</text>
</a>
</g>
</g>
<!-- Node12&#45;&gt;Node15 -->
<g id="edge16" class="edge"><title>Node12&#45;&gt;Node15</title>
<path fill="none" stroke="midnightblue" d="M810.775,-93C831.443,-93 858.18,-93 880.85,-93"/>
<polygon fill="midnightblue" stroke="midnightblue" points="880.943,-96.5001 890.943,-93 880.943,-89.5001 880.943,-96.5001"/>
</g>
<!-- Node15&#45;&gt;Node13 -->
<g id="edge17" class="edge"><title>Node15&#45;&gt;Node13</title>
<path fill="none" stroke="midnightblue" d="M966.049,-100.673C974.741,-102.498 983.879,-104.417 992.112,-106.145"/>
<polygon fill="midnightblue" stroke="midnightblue" points="991.45,-109.582 1001.96,-108.212 992.889,-102.732 991.45,-109.582"/>
</g>
<!-- Node18&#45;&gt;Node19 -->
<g id="edge22" class="edge"><title>Node18&#45;&gt;Node19</title>
<path fill="none" stroke="midnightblue" d="M313.148,-92.1403C321.558,-92.856 330.215,-93.5928 338.83,-94.3259"/>
<polygon fill="midnightblue" stroke="midnightblue" points="338.644,-97.8227 348.905,-95.1834 339.238,-90.8479 338.644,-97.8227"/>
</g>
<!-- Node19&#45;&gt;Node11 -->
<g id="edge24" class="edge"><title>Node19&#45;&gt;Node11</title>
<path fill="none" stroke="midnightblue" d="M487.796,-111.576C506.79,-114.779 527.941,-118.345 546.883,-121.538"/>
<polygon fill="midnightblue" stroke="midnightblue" points="546.414,-125.009 556.857,-123.22 547.578,-118.106 546.414,-125.009"/>
</g>
<!-- Node19&#45;&gt;Node12 -->
<g id="edge23" class="edge"><title>Node19&#45;&gt;Node12</title>
<path fill="none" stroke="midnightblue" d="M511.219,-99.9013C579.855,-98.1055 676.069,-95.5883 731.323,-94.1427"/>
<polygon fill="midnightblue" stroke="midnightblue" points="731.573,-97.6375 741.478,-93.877 731.39,-90.6399 731.573,-97.6375"/>
</g>
<!-- Node21&#45;&gt;Node16 -->
<g id="edge30" class="edge"><title>Node21&#45;&gt;Node16</title>
<path fill="none" stroke="midnightblue" d="M661.135,-50.9906C684.241,-51.3984 710.575,-51.8631 732.095,-52.2428"/>
<polygon fill="midnightblue" stroke="midnightblue" points="732.176,-55.7447 742.236,-52.4218 732.3,-48.7458 732.176,-55.7447"/>
</g>
</g>
</svg>
