<?xml version="1.0" encoding="UTF-8" standalone="no"?>
<!DOCTYPE svg PUBLIC "-//W3C//DTD SVG 1.1//EN"
 "http://www.w3.org/Graphics/SVG/1.1/DTD/svg11.dtd">
<!-- Generated by graphviz version 2.26.3 (20100126.1600)
 -->
<!-- Title: G Pages: 1 -->
<!--zoomable 412 -->
<svg id="main" version="1.1" xmlns="http://www.w3.org/2000/svg" xmlns:xlink="http://www.w3.org/1999/xlink" xml:space="preserve" onload="init(evt)">
        <defs>
                <circle id="rim" cx="0" cy="0" r="7"/>
                <circle id="rim2" cx="0" cy="0" r="3.5"/>
                <g id="zoomPlus">
                        <use xlink:href="#rim" fill="#404040">
                                <set attributeName="fill" to="#808080" begin="zoomplus.mouseover" end="zoomplus.mouseout"/>
                        </use>
                        <path d="M-4,0h8M0,-4v8" fill="none" stroke="white" stroke-width="1.5" pointer-events="none"/>
                </g>
                <g id="zoomMin">
                        <use xlink:href="#rim" fill="#404040">
                                <set attributeName="fill" to="#808080" begin="zoomminus.mouseover" end="zoomminus.mouseout"/>
                        </use>
                        <path d="M-4,0h8" fill="none" stroke="white" stroke-width="1.5" pointer-events="none"/>
                </g>
                <g id="dirArrow">
                        <path fill="none" stroke="white" stroke-width="1.5" d="M0,-3.0v7 M-2.5,-0.5L0,-3.0L2.5,-0.5"/>
                </g>
               <g id="resetDef">
                       <use xlink:href="#rim2" fill="#404040">
                               <set attributeName="fill" to="#808080" begin="reset.mouseover" end="reset.mouseout"/>
                       </use>
               </g>
        </defs>

<script type="text/javascript">
var viewWidth = 1736;
var viewHeight = 412;
var sectionId = 'dynsection-10';
</script>
<script xlink:href="../../svgpan.js"/>
<svg id="graph" class="graph">
<g id="viewport">
<title>G</title>
<!-- Node1 -->
<g id="node1" class="node"><title>Node1</title>
<polygon fill="#bfbfbf" stroke="black" points="0,-304.525 0,-325.525 182,-325.525 182,-304.525 0,-304.525"/>
<text text-anchor="middle" x="91" y="-312.525" font-family="Helvetica,sans-Serif" font-size="10.00">ConnectionObjectGetConnectionType</text>
</g>
<!-- Node2 -->
<g id="node3" class="node"><title>Node2</title>
<a xlink:href="../../d1/d6c/cipconnectionobject_8h.html#aa896ebb7d03c6e75027402b3e0d6dc6e" target="_top" xlink:title="ConnectionObjectGetOToTConnectionType">
<polygon fill="none" stroke="black" points="692,-343.525 692,-364.525 898,-364.525 898,-343.525 692,-343.525"/>
<text text-anchor="middle" x="795" y="-351.525" font-family="Helvetica,sans-Serif" font-size="10.00">ConnectionObjectGetOToTConnectionType</text>
</a>
</g>
<!-- Node1&#45;&gt;Node2 -->
<g id="edge2" class="edge"><title>Node1&#45;&gt;Node2</title>
<path fill="none" stroke="midnightblue" d="M192.512,-320.649C325.629,-328.023 557.925,-340.892 691.85,-348.311"/>
<polygon fill="midnightblue" stroke="midnightblue" points="192.492,-317.142 182.314,-320.084 192.105,-324.132 192.492,-317.142"/>
</g>
<!-- Node13 -->
<g id="node29" class="node"><title>Node13</title>
<a xlink:href="../../d1/d6c/cipconnectionobject_8h.html#ad61ad2b2c18480a141e5df346e32be02" target="_top" xlink:title="ConnectionObjectGetTToOConnectionType">
<polygon fill="none" stroke="black" points="218,-189.525 218,-210.525 424,-210.525 424,-189.525 218,-189.525"/>
<text text-anchor="middle" x="321" y="-197.525" font-family="Helvetica,sans-Serif" font-size="10.00">ConnectionObjectGetTToOConnectionType</text>
</a>
</g>
<!-- Node1&#45;&gt;Node13 -->
<g id="edge32" class="edge"><title>Node1&#45;&gt;Node13</title>
<path fill="none" stroke="midnightblue" d="M121.368,-299.841C168.7,-276.175 258.875,-231.088 299.826,-210.612"/>
<polygon fill="midnightblue" stroke="midnightblue" points="119.605,-296.81 112.226,-304.412 122.735,-303.071 119.605,-296.81"/>
</g>
<!-- Node3 -->
<g id="node5" class="node"><title>Node3</title>
<a xlink:href="../../d5/d35/cipconnectionmanager_8c.html#aa7b5f5390e3872191f824a666d50ef80" target="_top" xlink:title="Check if resources for new connection available, generate ForwardOpen Reply message.">
<polygon fill="none" stroke="black" points="989.5,-304.525 989.5,-325.525 1064.5,-325.525 1064.5,-304.525 989.5,-304.525"/>
<text text-anchor="middle" x="1027" y="-312.525" font-family="Helvetica,sans-Serif" font-size="10.00">ForwardOpen</text>
</a>
</g>
<!-- Node2&#45;&gt;Node3 -->
<g id="edge4" class="edge"><title>Node2&#45;&gt;Node3</title>
<path fill="none" stroke="midnightblue" d="M867.56,-341.828C907.976,-335.034 956.614,-326.857 989.458,-321.336"/>
<polygon fill="midnightblue" stroke="midnightblue" points="866.758,-338.413 857.477,-343.523 867.919,-345.316 866.758,-338.413"/>
</g>
<!-- Node7 -->
<g id="node13" class="node"><title>Node7</title>
<a xlink:href="../../d5/d35/cipconnectionmanager_8c.html#ad7b34359aea58ef8d4e77008ea53098f" target="_top" xlink:title="Parse the connection path of a forward open request.">
<polygon fill="none" stroke="black" points="971,-382.525 971,-403.525 1083,-403.525 1083,-382.525 971,-382.525"/>
<text text-anchor="middle" x="1027" y="-390.525" font-family="Helvetica,sans-Serif" font-size="10.00">ParseConnectionPath</text>
</a>
</g>
<!-- Node2&#45;&gt;Node7 -->
<g id="edge12" class="edge"><title>Node2&#45;&gt;Node7</title>
<path fill="none" stroke="midnightblue" d="M867.613,-366.232C900.896,-371.827 939.747,-378.358 970.759,-383.571"/>
<polygon fill="midnightblue" stroke="midnightblue" points="867.919,-362.734 857.477,-364.528 866.758,-369.637 867.919,-362.734"/>
</g>
<!-- Node9 -->
<g id="node17" class="node"><title>Node9</title>
<a xlink:href="../../d1/d6c/cipconnectionobject_8h.html#a65b85bb4b72c902af06e054e24d6292c" target="_top" xlink:title="Generate the ConnectionIDs and set the general configuration parameter in the given connection object...">
<polygon fill="none" stroke="black" points="934,-264.525 934,-285.525 1120,-285.525 1120,-264.525 934,-264.525"/>
<text text-anchor="middle" x="1027" y="-272.525" font-family="Helvetica,sans-Serif" font-size="10.00">ConnectionObjectGeneralConfiguration</text>
</a>
</g>
<!-- Node2&#45;&gt;Node9 -->
<g id="edge16" class="edge"><title>Node2&#45;&gt;Node9</title>
<path fill="none" stroke="midnightblue" d="M825.846,-338.929C853.599,-325.833 895.769,-307.129 934,-295.025 945.336,-291.436 957.652,-288.284 969.5,-285.607"/>
<polygon fill="midnightblue" stroke="midnightblue" points="824.182,-335.844 816.661,-343.307 827.194,-342.163 824.182,-335.844"/>
</g>
<!-- Node11 -->
<g id="node22" class="node"><title>Node11</title>
<a xlink:href="../../de/d45/cipioconnection_8h.html#a43e270b3f9b9f6296b12285c320c95aa" target="_top" xlink:title="Setup all data in order to establish an IO connection.">
<polygon fill="none" stroke="black" points="1216.5,-224.525 1216.5,-245.525 1331.5,-245.525 1331.5,-224.525 1216.5,-224.525"/>
<text text-anchor="middle" x="1274" y="-232.525" font-family="Helvetica,sans-Serif" font-size="10.00">EstablishIoConnection</text>
</a>
</g>
<!-- Node2&#45;&gt;Node11 -->
<g id="edge26" class="edge"><title>Node2&#45;&gt;Node11</title>
<path fill="none" stroke="midnightblue" d="M908.199,-359.558C988.052,-361.229 1086.52,-358.085 1120,-335.025 1152.11,-312.908 1125.15,-278.866 1156,-255.025 1173.02,-241.875 1195.56,-236.089 1216.38,-233.862"/>
<polygon fill="midnightblue" stroke="midnightblue" points="908.142,-356.056 898.062,-359.318 907.977,-363.054 908.142,-356.056"/>
</g>
<!-- Node12 -->
<g id="node26" class="node"><title>Node12</title>
<a xlink:href="../../de/d45/cipioconnection_8h.html#a53b85bce88b582414fc282c95f5626f4" target="_top" xlink:title="Take the data given in the connection object structure and open the necessary communication channels...">
<polygon fill="none" stroke="black" points="952.5,-224.525 952.5,-245.525 1101.5,-245.525 1101.5,-224.525 952.5,-224.525"/>
<text text-anchor="middle" x="1027" y="-232.525" font-family="Helvetica,sans-Serif" font-size="10.00">OpenCommunicationChannels</text>
</a>
</g>
<!-- Node2&#45;&gt;Node12 -->
<g id="edge28" class="edge"><title>Node2&#45;&gt;Node12</title>
<path fill="none" stroke="midnightblue" d="M814,-336.577C839.407,-314.218 886.752,-275.862 934,-255.025 942.613,-251.227 952.001,-248.128 961.392,-245.606"/>
<polygon fill="midnightblue" stroke="midnightblue" points="811.38,-334.225 806.256,-343.499 816.044,-339.444 811.38,-334.225"/>
</g>
<!-- Node4 -->
<g id="node7" class="node"><title>Node4</title>
<a xlink:href="../../d2/da3/cipconnectionmanager_8h.html#a5ab0de6894d23e8fe84a6b46797c2212" target="_top" xlink:title="Initialize the data of the connection manager object.">
<polygon fill="none" stroke="black" points="1428.5,-264.525 1428.5,-285.525 1545.5,-285.525 1545.5,-264.525 1428.5,-264.525"/>
<text text-anchor="middle" x="1487" y="-272.525" font-family="Helvetica,sans-Serif" font-size="10.00">ConnectionManagerInit</text>
</a>
</g>
<!-- Node3&#45;&gt;Node4 -->
<g id="edge6" class="edge"><title>Node3&#45;&gt;Node4</title>
<path fill="none" stroke="midnightblue" d="M1075.01,-314.725C1145,-313.761 1279.04,-309.922 1392,-295.025 1409.04,-292.778 1427.59,-289.146 1443.73,-285.59"/>
<polygon fill="midnightblue" stroke="midnightblue" points="1074.7,-311.229 1064.74,-314.852 1074.79,-318.228 1074.7,-311.229"/>
</g>
<!-- Node5 -->
<g id="node9" class="node"><title>Node5</title>
<a xlink:href="../../d2/dc9/group__CIP__API.html#ga5d4979945d124e28668b264c3823db1c" target="_top" xlink:title="Initialize and setup the CIP&#45;stack.">
<polygon fill="none" stroke="black" points="1582.5,-264.525 1582.5,-285.525 1653.5,-285.525 1653.5,-264.525 1582.5,-264.525"/>
<text text-anchor="middle" x="1618" y="-272.525" font-family="Helvetica,sans-Serif" font-size="10.00">CipStackInit</text>
</a>
</g>
<!-- Node4&#45;&gt;Node5 -->
<g id="edge8" class="edge"><title>Node4&#45;&gt;Node5</title>
<path fill="none" stroke="midnightblue" d="M1555.63,-275.025C1564.87,-275.025 1574.03,-275.025 1582.37,-275.025"/>
<polygon fill="midnightblue" stroke="midnightblue" points="1555.6,-271.525 1545.6,-275.025 1555.6,-278.525 1555.6,-271.525"/>
</g>
<!-- Node6 -->
<g id="node11" class="node"><title>Node6</title>
<a xlink:href="../../d9/dfb/POSIX_2main_8c.html#ad338a7dbc41dc40bcecd0479377ef207" target="_top" xlink:title="main">
<polygon fill="none" stroke="black" points="1690,-264.525 1690,-285.525 1728,-285.525 1728,-264.525 1690,-264.525"/>
<text text-anchor="middle" x="1709" y="-272.525" font-family="Helvetica,sans-Serif" font-size="10.00">main</text>
</a>
</g>
<!-- Node5&#45;&gt;Node6 -->
<g id="edge10" class="edge"><title>Node5&#45;&gt;Node6</title>
<path fill="none" stroke="midnightblue" d="M1663.98,-275.025C1673.14,-275.025 1682.28,-275.025 1689.91,-275.025"/>
<polygon fill="midnightblue" stroke="midnightblue" points="1663.7,-271.525 1653.7,-275.025 1663.7,-278.525 1663.7,-271.525"/>
</g>
<!-- Node8 -->
<g id="node15" class="node"><title>Node8</title>
<a xlink:href="../../d5/d35/cipconnectionmanager_8c.html#af379a4b383c738a07d8e1ab0a4ac7510" target="_top" xlink:title="Handles a Non Null Non Matching Forward Open Request.">
<polygon fill="none" stroke="black" points="1156,-382.525 1156,-403.525 1392,-403.525 1392,-382.525 1156,-382.525"/>
<text text-anchor="middle" x="1274" y="-390.525" font-family="Helvetica,sans-Serif" font-size="10.00">HandleNonNullNonMatchingForwardOpenRequest</text>
</a>
</g>
<!-- Node7&#45;&gt;Node8 -->
<g id="edge14" class="edge"><title>Node7&#45;&gt;Node8</title>
<path fill="none" stroke="midnightblue" d="M1093.2,-393.025C1112.48,-393.025 1134.16,-393.025 1155.63,-393.025"/>
<polygon fill="midnightblue" stroke="midnightblue" points="1093.05,-389.525 1083.05,-393.025 1093.05,-396.525 1093.05,-389.525"/>
</g>
<!-- Node10 -->
<g id="node19" class="node"><title>Node10</title>
<a xlink:href="../../d2/d11/cipclass3connection_8h.html#a45bd741b44137164c07a6ce09a7a9a9d" target="_top" xlink:title="Check if Class3 connection is available and if yes setup all data.">
<polygon fill="none" stroke="black" points="1205.5,-264.525 1205.5,-285.525 1342.5,-285.525 1342.5,-264.525 1205.5,-264.525"/>
<text text-anchor="middle" x="1274" y="-272.525" font-family="Helvetica,sans-Serif" font-size="10.00">EstablishClass3Connection</text>
</a>
</g>
<!-- Node9&#45;&gt;Node10 -->
<g id="edge18" class="edge"><title>Node9&#45;&gt;Node10</title>
<path fill="none" stroke="midnightblue" d="M1130.06,-275.025C1155.45,-275.025 1182.01,-275.025 1205.32,-275.025"/>
<polygon fill="midnightblue" stroke="midnightblue" points="1130.03,-271.525 1120.03,-275.025 1130.03,-278.525 1130.03,-271.525"/>
</g>
<!-- Node9&#45;&gt;Node11 -->
<g id="edge22" class="edge"><title>Node9&#45;&gt;Node11</title>
<path fill="none" stroke="midnightblue" d="M1102.05,-262.871C1138.75,-256.929 1182.22,-249.888 1216.27,-244.374"/>
<polygon fill="midnightblue" stroke="midnightblue" points="1101.21,-259.462 1091.9,-264.516 1102.33,-266.372 1101.21,-259.462"/>
</g>
<!-- Node10&#45;&gt;Node4 -->
<g id="edge20" class="edge"><title>Node10&#45;&gt;Node4</title>
<path fill="none" stroke="midnightblue" d="M1352.75,-275.025C1377.73,-275.025 1404.9,-275.025 1428.23,-275.025"/>
<polygon fill="midnightblue" stroke="midnightblue" points="1352.57,-271.525 1342.57,-275.025 1352.57,-278.525 1352.57,-271.525"/>
</g>
<!-- Node11&#45;&gt;Node4 -->
<g id="edge24" class="edge"><title>Node11&#45;&gt;Node4</title>
<path fill="none" stroke="midnightblue" d="M1341.79,-246.041C1358.24,-248.846 1375.77,-251.943 1392,-255.025 1407.23,-257.919 1423.79,-261.315 1438.75,-264.48"/>
<polygon fill="midnightblue" stroke="midnightblue" points="1342.14,-242.552 1331.7,-244.335 1340.98,-249.454 1342.14,-242.552"/>
</g>
<!-- Node12&#45;&gt;Node11 -->
<g id="edge30" class="edge"><title>Node12&#45;&gt;Node11</title>
<path fill="none" stroke="midnightblue" d="M1111.84,-235.025C1146.32,-235.025 1185.26,-235.025 1216.34,-235.025"/>
<polygon fill="midnightblue" stroke="midnightblue" points="1111.78,-231.525 1101.78,-235.025 1111.78,-238.525 1111.78,-231.525"/>
</g>
<!-- Node13&#45;&gt;Node3 -->
<g id="edge60" class="edge"><title>Node13&#45;&gt;Node3</title>
<path fill="none" stroke="midnightblue" d="M347.591,-215.62C374.832,-230.777 418.897,-253.065 460,-264.025 654.099,-315.785 897.398,-317.504 989.423,-316.014"/>
<polygon fill="midnightblue" stroke="midnightblue" points="349.117,-212.462 338.69,-210.587 345.672,-218.556 349.117,-212.462"/>
</g>
<!-- Node13&#45;&gt;Node7 -->
<g id="edge62" class="edge"><title>Node13&#45;&gt;Node7</title>
<path fill="none" stroke="midnightblue" d="M342.149,-217.202C368.46,-237.909 415.377,-272.701 460,-295.025 557.415,-343.76 585.085,-353.194 692,-374.025 788.631,-392.853 903.674,-395.102 970.707,-394.457"/>
<polygon fill="midnightblue" stroke="midnightblue" points="344.054,-214.245 334.049,-210.758 339.696,-219.723 344.054,-214.245"/>
</g>
<!-- Node13&#45;&gt;Node9 -->
<g id="edge64" class="edge"><title>Node13&#45;&gt;Node9</title>
<path fill="none" stroke="midnightblue" d="M361.144,-213.71C388.635,-222.479 426.11,-233.261 460,-239.025 625.307,-267.142 821.1,-273.791 933.994,-275.086"/>
<polygon fill="midnightblue" stroke="midnightblue" points="362.085,-210.335 351.493,-210.583 359.928,-216.995 362.085,-210.335"/>
</g>
<!-- Node13&#45;&gt;Node11 -->
<g id="edge66" class="edge"><title>Node13&#45;&gt;Node11</title>
<path fill="none" stroke="midnightblue" d="M362.003,-186.382C389.44,-177.785 426.52,-167.184 460,-161.025 748.496,-107.959 837.47,-79.14 1120,-158.025 1173.55,-172.977 1230.58,-206.85 1257.77,-224.256"/>
<polygon fill="midnightblue" stroke="midnightblue" points="360.827,-183.083 352.356,-189.446 362.946,-189.754 360.827,-183.083"/>
</g>
<!-- Node13&#45;&gt;Node12 -->
<g id="edge72" class="edge"><title>Node13&#45;&gt;Node12</title>
<path fill="none" stroke="midnightblue" d="M393.118,-212.03C414.581,-215.161 438.189,-218.174 460,-220.025 635.879,-234.954 843.443,-236.331 952.093,-235.814"/>
<polygon fill="midnightblue" stroke="midnightblue" points="393.504,-208.549 383.097,-210.537 392.472,-215.472 393.504,-208.549"/>
</g>
<!-- Node14 -->
<g id="node31" class="node"><title>Node14</title>
<a xlink:href="../../d1/dbc/appcontype_8c.html#ae76893528b0e064cf220f6eb19ac5bdf" target="_top" xlink:title="Takes an ConnectionObject and searches and returns an Listen Only Connection based on the ConnectionO...">
<polygon fill="none" stroke="black" points="731,-149.525 731,-170.525 859,-170.525 859,-149.525 731,-149.525"/>
<text text-anchor="middle" x="795" y="-157.525" font-family="Helvetica,sans-Serif" font-size="10.00">GetListenOnlyConnection</text>
</a>
</g>
<!-- Node13&#45;&gt;Node14 -->
<g id="edge34" class="edge"><title>Node13&#45;&gt;Node14</title>
<path fill="none" stroke="midnightblue" d="M396.239,-188.033C416.867,-185.064 439.26,-182.133 460,-180.025 554.048,-170.469 663.448,-164.992 730.963,-162.262"/>
<polygon fill="midnightblue" stroke="midnightblue" points="395.658,-184.581 386.27,-189.49 396.671,-191.507 395.658,-184.581"/>
</g>
<!-- Node16 -->
<g id="node36" class="node"><title>Node16</title>
<a xlink:href="../../d1/dc0/appcontype_8h.html#ac568876f2c5ba2da91a0e62e17e27432" target="_top" xlink:title="Check if there exists already an exclusive owner or listen only connection which produces the input a...">
<polygon fill="none" stroke="black" points="460,-189.525 460,-210.525 656,-210.525 656,-189.525 460,-189.525"/>
<text text-anchor="middle" x="558" y="-197.525" font-family="Helvetica,sans-Serif" font-size="10.00">GetExistingProducerMulticastConnection</text>
</a>
</g>
<!-- Node13&#45;&gt;Node16 -->
<g id="edge40" class="edge"><title>Node13&#45;&gt;Node16</title>
<path fill="none" stroke="midnightblue" d="M434.299,-200.025C442.873,-200.025 451.482,-200.025 459.948,-200.025"/>
<polygon fill="midnightblue" stroke="midnightblue" points="434.262,-196.525 424.262,-200.025 434.262,-203.525 434.262,-196.525"/>
</g>
<!-- Node18 -->
<g id="node42" class="node"><title>Node18</title>
<a xlink:href="../../d1/dc0/appcontype_8h.html#acda34462cc2d60ebb7b48a633bfe3c49" target="_top" xlink:title="check if there exists an producing multicast exclusive owner or listen only connection that should pr...">
<polygon fill="none" stroke="black" points="467,-34.5253 467,-55.5253 649,-55.5253 649,-34.5253 467,-34.5253"/>
<text text-anchor="middle" x="558" y="-42.5253" font-family="Helvetica,sans-Serif" font-size="10.00">GetNextNonControlMasterConnection</text>
</a>
</g>
<!-- Node13&#45;&gt;Node18 -->
<g id="edge48" class="edge"><title>Node13&#45;&gt;Node18</title>
<path fill="none" stroke="midnightblue" d="M335.5,-181.453C358.689,-153.051 406.943,-99.0698 460,-70.0253 471.32,-63.8282 484.219,-59.1288 496.856,-55.5779"/>
<polygon fill="midnightblue" stroke="midnightblue" points="332.659,-179.401 329.13,-189.391 338.119,-183.782 332.659,-179.401"/>
</g>
<!-- Node19 -->
<g id="node44" class="node"><title>Node19</title>
<a xlink:href="../../df/d03/cipioconnection_8c.html#a730b410a0cdbc6a456973c0e51568968" target="_top" xlink:title="CloseIoConnection">
<polygon fill="none" stroke="black" points="745,-71.5253 745,-92.5253 845,-92.5253 845,-71.5253 745,-71.5253"/>
<text text-anchor="middle" x="795" y="-79.5253" font-family="Helvetica,sans-Serif" font-size="10.00">CloseIoConnection</text>
</a>
</g>
<!-- Node13&#45;&gt;Node19 -->
<g id="edge68" class="edge"><title>Node13&#45;&gt;Node19</title>
<path fill="none" stroke="midnightblue" d="M340.254,-182.566C365.605,-160.759 412.545,-124.336 460,-108.025 556.68,-74.7948 677.985,-74.877 744.892,-78.2351"/>
<polygon fill="midnightblue" stroke="midnightblue" points="337.727,-180.127 332.515,-189.351 342.341,-185.391 337.727,-180.127"/>
</g>
<!-- Node21 -->
<g id="node49" class="node"><title>Node21</title>
<a xlink:href="../../df/d03/cipioconnection_8c.html#a7e4923f4b027d489d9933b52f6fd7007" target="_top" xlink:title="HandleIoConnectionTimeOut">
<polygon fill="none" stroke="black" points="723.5,-31.5253 723.5,-52.5253 866.5,-52.5253 866.5,-31.5253 723.5,-31.5253"/>
<text text-anchor="middle" x="795" y="-39.5253" font-family="Helvetica,sans-Serif" font-size="10.00">HandleIoConnectionTimeOut</text>
</a>
</g>
<!-- Node13&#45;&gt;Node21 -->
<g id="edge70" class="edge"><title>Node13&#45;&gt;Node21</title>
<path fill="none" stroke="midnightblue" d="M329.416,-180.324C347.06,-141.901 392.002,-57.8532 460,-25.0253 562.788,24.5984 704.553,-11.7293 765.359,-31.4838"/>
<polygon fill="midnightblue" stroke="midnightblue" points="326.217,-178.904 325.342,-189.463 332.61,-181.754 326.217,-178.904"/>
</g>
<!-- Node15 -->
<g id="node33" class="node"><title>Node15</title>
<a xlink:href="../../d1/dc0/appcontype_8h.html#ab3a019a2217375c098345317da123323" target="_top" xlink:title="check if for the given connection data received in a forward_open request a suitable connection is av...">
<polygon fill="none" stroke="black" points="939.5,-167.525 939.5,-188.525 1114.5,-188.525 1114.5,-167.525 939.5,-167.525"/>
<text text-anchor="middle" x="1027" y="-175.525" font-family="Helvetica,sans-Serif" font-size="10.00">GetIoConnectionForConnectionData</text>
</a>
</g>
<!-- Node14&#45;&gt;Node15 -->
<g id="edge36" class="edge"><title>Node14&#45;&gt;Node15</title>
<path fill="none" stroke="midnightblue" d="M869.093,-165.774C891.438,-167.508 916.18,-169.427 939.32,-171.223"/>
<polygon fill="midnightblue" stroke="midnightblue" points="869.25,-162.276 859.009,-164.992 868.708,-169.255 869.25,-162.276"/>
</g>
<!-- Node15&#45;&gt;Node11 -->
<g id="edge38" class="edge"><title>Node15&#45;&gt;Node11</title>
<path fill="none" stroke="midnightblue" d="M1082.54,-190.842C1126.48,-200.982 1187.08,-214.968 1228.26,-224.469"/>
<polygon fill="midnightblue" stroke="midnightblue" points="1083.12,-187.385 1072.59,-188.546 1081.55,-194.205 1083.12,-187.385"/>
</g>
<!-- Node16&#45;&gt;Node14 -->
<g id="edge42" class="edge"><title>Node16&#45;&gt;Node14</title>
<path fill="none" stroke="midnightblue" d="M630.235,-187.834C662.969,-182.309 701.291,-175.841 732.736,-170.534"/>
<polygon fill="midnightblue" stroke="midnightblue" points="629.547,-184.4 620.269,-189.516 630.712,-191.303 629.547,-184.4"/>
</g>
<!-- Node17 -->
<g id="node39" class="node"><title>Node17</title>
<a xlink:href="../../df/d03/cipioconnection_8c.html#a5dea6fc1be0ed4ecf5d9e4f932d52106" target="_top" xlink:title="OpenProducingMulticastConnection">
<polygon fill="none" stroke="black" points="708.5,-189.525 708.5,-210.525 881.5,-210.525 881.5,-189.525 708.5,-189.525"/>
<text text-anchor="middle" x="795" y="-197.525" font-family="Helvetica,sans-Serif" font-size="10.00">OpenProducingMulticastConnection</text>
</a>
</g>
<!-- Node16&#45;&gt;Node17 -->
<g id="edge44" class="edge"><title>Node16&#45;&gt;Node17</title>
<path fill="none" stroke="midnightblue" d="M666.313,-200.025C680.39,-200.025 694.66,-200.025 708.321,-200.025"/>
<polygon fill="midnightblue" stroke="midnightblue" points="666.108,-196.525 656.108,-200.025 666.108,-203.525 666.108,-196.525"/>
</g>
<!-- Node17&#45;&gt;Node12 -->
<g id="edge46" class="edge"><title>Node17&#45;&gt;Node12</title>
<path fill="none" stroke="midnightblue" d="M874.709,-212.05C901.466,-216.087 931.089,-220.556 957.041,-224.471"/>
<polygon fill="midnightblue" stroke="midnightblue" points="875.018,-208.557 864.608,-210.526 873.974,-215.479 875.018,-208.557"/>
</g>
<!-- Node18&#45;&gt;Node19 -->
<g id="edge50" class="edge"><title>Node18&#45;&gt;Node19</title>
<path fill="none" stroke="midnightblue" d="M635.269,-57.0884C671.275,-62.7095 713.082,-69.2364 744.892,-74.2026"/>
<polygon fill="midnightblue" stroke="midnightblue" points="635.701,-53.6135 625.281,-55.529 634.621,-60.5297 635.701,-53.6135"/>
</g>
<!-- Node18&#45;&gt;Node21 -->
<g id="edge56" class="edge"><title>Node18&#45;&gt;Node21</title>
<path fill="none" stroke="midnightblue" d="M659.427,-43.7414C680.905,-43.4695 703.147,-43.188 723.252,-42.9335"/>
<polygon fill="midnightblue" stroke="midnightblue" points="659.246,-40.2433 649.291,-43.8697 659.335,-47.2427 659.246,-40.2433"/>
</g>
<!-- Node20 -->
<g id="node46" class="node"><title>Node20</title>
<a xlink:href="../../df/d03/cipioconnection_8c.html#ab3282f146a3ea91c90cf14c32206ee8c" target="_top" xlink:title="SetIoConnectionCallbacks">
<polygon fill="none" stroke="black" points="960.5,-71.5253 960.5,-92.5253 1093.5,-92.5253 1093.5,-71.5253 960.5,-71.5253"/>
<text text-anchor="middle" x="1027" y="-79.5253" font-family="Helvetica,sans-Serif" font-size="10.00">SetIoConnectionCallbacks</text>
</a>
</g>
<!-- Node19&#45;&gt;Node20 -->
<g id="edge52" class="edge"><title>Node19&#45;&gt;Node20</title>
<path fill="none" stroke="midnightblue" d="M855.229,-82.0253C887.433,-82.0253 927.164,-82.0253 960.3,-82.0253"/>
<polygon fill="midnightblue" stroke="midnightblue" points="855.055,-78.5254 845.055,-82.0253 855.055,-85.5254 855.055,-78.5254"/>
</g>
<!-- Node20&#45;&gt;Node11 -->
<g id="edge54" class="edge"><title>Node20&#45;&gt;Node11</title>
<path fill="none" stroke="midnightblue" d="M1091.77,-95.5523C1101.5,-98.6813 1111.2,-102.468 1120,-107.025 1182.05,-139.172 1241.6,-199.747 1264.32,-224.291"/>
<polygon fill="midnightblue" stroke="midnightblue" points="1092.66,-92.1645 1082.08,-92.6384 1090.65,-98.8683 1092.66,-92.1645"/>
</g>
<!-- Node21&#45;&gt;Node20 -->
<g id="edge58" class="edge"><title>Node21&#45;&gt;Node20</title>
<path fill="none" stroke="midnightblue" d="M866.126,-54.2883C898.078,-59.7974 935.401,-66.2324 966.049,-71.5166"/>
<polygon fill="midnightblue" stroke="midnightblue" points="866.405,-50.7848 855.955,-52.5348 865.215,-57.6831 866.405,-50.7848"/>
</g>
</g>
</svg>
        <g id="navigator" transform="translate(0 0)" fill="#404254">
                <rect fill="#f2f5e9" fill-opacity="0.5" stroke="#606060" stroke-width=".5" x="0" y="0" width="60" height="60"/>
                <use id="zoomplus" xlink:href="#zoomPlus" x="17" y="9" onmousedown="handleZoom(evt,'in')"/>
                <use id="zoomminus" xlink:href="#zoomMin" x="42" y="9" onmousedown="handleZoom(evt,'out')"/>
                <use id="reset" xlink:href="#resetDef" x="30" y="36" onmousedown="handleReset()"/>
                <g id="arrowUp" xlink:href="#dirArrow" transform="translate(30 24)" onmousedown="handlePan(0,-1)">
                  <use xlink:href="#rim" fill="#404040">
                        <set attributeName="fill" to="#808080" begin="arrowUp.mouseover" end="arrowUp.mouseout"/>
                  </use>
                  <path fill="none" stroke="white" stroke-width="1.5" d="M0,-3.0v7 M-2.5,-0.5L0,-3.0L2.5,-0.5"/>
                </g>
                <g id="arrowRight" xlink:href="#dirArrow" transform="rotate(90) translate(36 -43)" onmousedown="handlePan(1,0)">
                  <use xlink:href="#rim" fill="#404040">
                        <set attributeName="fill" to="#808080" begin="arrowRight.mouseover" end="arrowRight.mouseout"/>
                  </use>
                  <path fill="none" stroke="white" stroke-width="1.5" d="M0,-3.0v7 M-2.5,-0.5L0,-3.0L2.5,-0.5"/>
                </g>
                <g id="arrowDown" xlink:href="#dirArrow" transform="rotate(180) translate(-30 -48)" onmousedown="handlePan(0,1)">
                  <use xlink:href="#rim" fill="#404040">
                        <set attributeName="fill" to="#808080" begin="arrowDown.mouseover" end="arrowDown.mouseout"/>
                  </use>
                  <path fill="none" stroke="white" stroke-width="1.5" d="M0,-3.0v7 M-2.5,-0.5L0,-3.0L2.5,-0.5"/>
                </g>
                <g id="arrowLeft" xlink:href="#dirArrow" transform="rotate(270) translate(-36 17)" onmousedown="handlePan(-1,0)">
                  <use xlink:href="#rim" fill="#404040">
                        <set attributeName="fill" to="#808080" begin="arrowLeft.mouseover" end="arrowLeft.mouseout"/>
                  </use>
                  <path fill="none" stroke="white" stroke-width="1.5" d="M0,-3.0v7 M-2.5,-0.5L0,-3.0L2.5,-0.5"/>
                </g>
        </g>
</svg>
