<?xml version="1.0" encoding="UTF-8" standalone="no"?>
<!DOCTYPE svg PUBLIC "-//W3C//DTD SVG 1.1//EN"
 "http://www.w3.org/Graphics/SVG/1.1/DTD/svg11.dtd">
<!-- Generated by graphviz version 2.36.0 (20140111.2315)
 -->
<!-- Title: ConnectionObjectIsTypeIOConnection Pages: 1 -->
<!--zoomable 180 -->
<svg id="main" version="1.1" xmlns="http://www.w3.org/2000/svg" xmlns:xlink="http://www.w3.org/1999/xlink" xml:space="preserve" onload="init(evt)">
<style type="text/css"><![CDATA[
.edge:hover path { stroke: red; }
.edge:hover polygon { stroke: red; fill: red; }
]]></style>
<script type="text/javascript"><![CDATA[
var edges = document.getElementsByTagName('g');
if (edges && edges.length) {
  for (var i=0;i<edges.length;i++) {
    if (edges[i].id.substr(0,4)=='edge') {
      edges[i].setAttribute('class','edge');
    }
  }
}
]]></script>
        <defs>
                <circle id="rim" cx="0" cy="0" r="7"/>
                <circle id="rim2" cx="0" cy="0" r="3.5"/>
                <g id="zoomPlus">
                        <use xlink:href="#rim" fill="#404040">
                                <set attributeName="fill" to="#808080" begin="zoomplus.mouseover" end="zoomplus.mouseout"/>
                        </use>
                        <path d="M-4,0h8M0,-4v8" fill="none" stroke="white" stroke-width="1.5" pointer-events="none"/>
                </g>
                <g id="zoomMin">
                        <use xlink:href="#rim" fill="#404040">
                                <set attributeName="fill" to="#808080" begin="zoomminus.mouseover" end="zoomminus.mouseout"/>
                        </use>
                        <path d="M-4,0h8" fill="none" stroke="white" stroke-width="1.5" pointer-events="none"/>
                </g>
                <g id="dirArrow">
                        <path fill="none" stroke="white" stroke-width="1.5" d="M0,-3.0v7 M-2.5,-0.5L0,-3.0L2.5,-0.5"/>
                </g>
               <g id="resetDef">
                       <use xlink:href="#rim2" fill="#404040">
                               <set attributeName="fill" to="#808080" begin="reset.mouseover" end="reset.mouseout"/>
                       </use>
               </g>
        </defs>

<script type="text/javascript">
var viewWidth = 1324;
var viewHeight = 180;
var sectionId = 'dynsection-40';
</script>
<script xlink:href="../../svgpan.js"/>
<svg id="graph" class="graph">
<g id="viewport">
<title>ConnectionObjectIsTypeIOConnection</title>
<!-- Node1 -->
<g id="node1" class="node"><title>Node1</title>
<polygon fill="#bfbfbf" stroke="black" points="0.5,-54.5 0.5,-73.5 185.5,-73.5 185.5,-54.5 0.5,-54.5"/>
<text text-anchor="middle" x="93" y="-61.5" font-family="Helvetica,sans-Serif" font-size="10.00">ConnectionObjectIsTypeIOConnection</text>
</g>
<!-- Node2 -->
<g id="node2" class="node"><title>Node2</title>
<g id="a_node2"><a xlink:href="../../d1/dc0/appcontype_8h.html#ac568876f2c5ba2da91a0e62e17e27432" target="_top" xlink:title="Check if there exists already an exclusive owner or listen only connection which produces the input a...">
<polygon fill="none" stroke="black" points="240,-109 240,-139 386,-139 386,-109 240,-109"/>
<text text-anchor="start" x="248" y="-127" font-family="Helvetica,sans-Serif" font-size="10.00">GetExistingProducerMulticast</text>
<text text-anchor="middle" x="313" y="-116" font-family="Helvetica,sans-Serif" font-size="10.00">Connection</text>
</a>
</g>
</g>
<!-- Node1&#45;&gt;Node2 -->
<g id="edge1" class="edge"><title>Node1&#45;&gt;Node2</title>
<path fill="none" stroke="midnightblue" d="M138.302,-76.1933C172.666,-85.6511 220.473,-98.8092 257.236,-108.927"/>
<polygon fill="midnightblue" stroke="midnightblue" points="139.113,-72.7863 128.543,-73.5072 137.255,-79.5354 139.113,-72.7863"/>
</g>
<!-- Node11 -->
<g id="node11" class="node"><title>Node11</title>
<g id="a_node11"><a xlink:href="../../d1/dc0/appcontype_8h.html#acda34462cc2d60ebb7b48a633bfe3c49" target="_top" xlink:title="check if there exists an producing multicast exclusive owner or listen only connection that should pr...">
<polygon fill="none" stroke="black" points="222,-54.5 222,-73.5 404,-73.5 404,-54.5 222,-54.5"/>
<text text-anchor="middle" x="313" y="-61.5" font-family="Helvetica,sans-Serif" font-size="10.00">GetNextNonControlMasterConnection</text>
</a>
</g>
</g>
<!-- Node1&#45;&gt;Node11 -->
<g id="edge11" class="edge"><title>Node1&#45;&gt;Node11</title>
<path fill="none" stroke="midnightblue" d="M195.686,-64C204.395,-64 213.167,-64 221.778,-64"/>
<polygon fill="midnightblue" stroke="midnightblue" points="195.504,-60.5001 185.504,-64 195.504,-67.5001 195.504,-60.5001"/>
</g>
<!-- Node15 -->
<g id="node15" class="node"><title>Node15</title>
<g id="a_node15"><a xlink:href="../../d2/da3/cipconnectionmanager_8h.html#a2ca3eb3dc7fe805b410d849612720b4c" target="_top" xlink:title="IsConnectedOutputAssembly">
<polygon fill="none" stroke="black" points="240.5,-16.5 240.5,-35.5 385.5,-35.5 385.5,-16.5 240.5,-16.5"/>
<text text-anchor="middle" x="313" y="-23.5" font-family="Helvetica,sans-Serif" font-size="10.00">IsConnectedOutputAssembly</text>
</a>
</g>
</g>
<!-- Node1&#45;&gt;Node15 -->
<g id="edge17" class="edge"><title>Node1&#45;&gt;Node15</title>
<path fill="none" stroke="midnightblue" d="M158.688,-52.7241C190.051,-47.2571 227.313,-40.7619 257.248,-35.5439"/>
<polygon fill="midnightblue" stroke="midnightblue" points="157.98,-49.2947 148.729,-54.46 159.182,-56.1907 157.98,-49.2947"/>
</g>
<!-- Node3 -->
<g id="node3" class="node"><title>Node3</title>
<g id="a_node3"><a xlink:href="../../d1/dbc/appcontype_8c.html#ae76893528b0e064cf220f6eb19ac5bdf" target="_top" xlink:title="Takes an ConnectionObject and searches and returns an Listen Only Connection based on the ConnectionO...">
<polygon fill="none" stroke="black" points="463,-152.5 463,-171.5 591,-171.5 591,-152.5 463,-152.5"/>
<text text-anchor="middle" x="527" y="-159.5" font-family="Helvetica,sans-Serif" font-size="10.00">GetListenOnlyConnection</text>
</a>
</g>
</g>
<!-- Node2&#45;&gt;Node3 -->
<g id="edge2" class="edge"><title>Node2&#45;&gt;Node3</title>
<path fill="none" stroke="midnightblue" d="M396.206,-138.735C421.96,-143.351 449.691,-148.322 472.881,-152.479"/>
<polygon fill="midnightblue" stroke="midnightblue" points="396.53,-135.237 386.069,-136.918 395.295,-142.128 396.53,-135.237"/>
</g>
<!-- Node9 -->
<g id="node9" class="node"><title>Node9</title>
<g id="a_node9"><a xlink:href="../../df/d03/cipioconnection_8c.html#a5dea6fc1be0ed4ecf5d9e4f932d52106" target="_top" xlink:title="OpenProducingMulticastConnection">
<polygon fill="none" stroke="black" points="440.5,-114.5 440.5,-133.5 613.5,-133.5 613.5,-114.5 440.5,-114.5"/>
<text text-anchor="middle" x="527" y="-121.5" font-family="Helvetica,sans-Serif" font-size="10.00">OpenProducingMulticastConnection</text>
</a>
</g>
</g>
<!-- Node2&#45;&gt;Node9 -->
<g id="edge8" class="edge"><title>Node2&#45;&gt;Node9</title>
<path fill="none" stroke="midnightblue" d="M396.408,-124C410.776,-124 425.754,-124 440.21,-124"/>
<polygon fill="midnightblue" stroke="midnightblue" points="396.069,-120.5 386.069,-124 396.069,-127.5 396.069,-120.5"/>
</g>
<!-- Node4 -->
<g id="node4" class="node"><title>Node4</title>
<g id="a_node4"><a xlink:href="../../d1/dc0/appcontype_8h.html#ab3a019a2217375c098345317da123323" target="_top" xlink:title="check if for the given connection data received in a forward_open request a suitable connection is av...">
<polygon fill="none" stroke="black" points="650.5,-152.5 650.5,-171.5 825.5,-171.5 825.5,-152.5 650.5,-152.5"/>
<text text-anchor="middle" x="738" y="-159.5" font-family="Helvetica,sans-Serif" font-size="10.00">GetIoConnectionForConnectionData</text>
</a>
</g>
</g>
<!-- Node3&#45;&gt;Node4 -->
<g id="edge3" class="edge"><title>Node3&#45;&gt;Node4</title>
<path fill="none" stroke="midnightblue" d="M601.497,-162C617.308,-162 634.16,-162 650.416,-162"/>
<polygon fill="midnightblue" stroke="midnightblue" points="601.274,-158.5 591.274,-162 601.274,-165.5 601.274,-158.5"/>
</g>
<!-- Node5 -->
<g id="node5" class="node"><title>Node5</title>
<g id="a_node5"><a xlink:href="../../de/d45/cipioconnection_8h.html#a43e270b3f9b9f6296b12285c320c95aa" target="_top" xlink:title="Setup all data in order to establish an IO connection. ">
<polygon fill="none" stroke="black" points="863.5,-95.5 863.5,-114.5 978.5,-114.5 978.5,-95.5 863.5,-95.5"/>
<text text-anchor="middle" x="921" y="-102.5" font-family="Helvetica,sans-Serif" font-size="10.00">EstablishIoConnection</text>
</a>
</g>
</g>
<!-- Node4&#45;&gt;Node5 -->
<g id="edge4" class="edge"><title>Node4&#45;&gt;Node5</title>
<path fill="none" stroke="midnightblue" d="M799.532,-150.166C808.471,-148.019 817.521,-145.619 826,-143 851.732,-135.052 880.283,-123.031 899.091,-114.644"/>
<polygon fill="midnightblue" stroke="midnightblue" points="798.477,-146.817 789.523,-152.481 800.054,-153.637 798.477,-146.817"/>
</g>
<!-- Node6 -->
<g id="node6" class="node"><title>Node6</title>
<g id="a_node6"><a xlink:href="../../d2/da3/cipconnectionmanager_8h.html#a5ab0de6894d23e8fe84a6b46797c2212" target="_top" xlink:title="Initialize the data of the connection manager object. ">
<polygon fill="none" stroke="black" points="1016.5,-90.5 1016.5,-109.5 1133.5,-109.5 1133.5,-90.5 1016.5,-90.5"/>
<text text-anchor="middle" x="1075" y="-97.5" font-family="Helvetica,sans-Serif" font-size="10.00">ConnectionManagerInit</text>
</a>
</g>
</g>
<!-- Node5&#45;&gt;Node6 -->
<g id="edge5" class="edge"><title>Node5&#45;&gt;Node6</title>
<path fill="none" stroke="midnightblue" d="M988.843,-102.801C998.009,-102.5 1007.36,-102.192 1016.34,-101.897"/>
<polygon fill="midnightblue" stroke="midnightblue" points="988.479,-99.3112 978.599,-103.138 988.709,-106.307 988.479,-99.3112"/>
</g>
<!-- Node7 -->
<g id="node7" class="node"><title>Node7</title>
<g id="a_node7"><a xlink:href="../../d2/dc9/group__CIP__API.html#ga5d4979945d124e28668b264c3823db1c" target="_top" xlink:title="Initialize and setup the CIP&#45;stack. ">
<polygon fill="none" stroke="black" points="1170.5,-70.5 1170.5,-89.5 1241.5,-89.5 1241.5,-70.5 1170.5,-70.5"/>
<text text-anchor="middle" x="1206" y="-77.5" font-family="Helvetica,sans-Serif" font-size="10.00">CipStackInit</text>
</a>
</g>
</g>
<!-- Node6&#45;&gt;Node7 -->
<g id="edge6" class="edge"><title>Node6&#45;&gt;Node7</title>
<path fill="none" stroke="midnightblue" d="M1143.69,-89.5056C1152.89,-88.0795 1162,-86.6668 1170.27,-85.3839"/>
<polygon fill="midnightblue" stroke="midnightblue" points="1143.05,-86.0621 1133.71,-91.0529 1144.13,-92.9795 1143.05,-86.0621"/>
</g>
<!-- Node8 -->
<g id="node8" class="node"><title>Node8</title>
<g id="a_node8"><a xlink:href="../../d5/dcb/MINGW_2main_8c.html#ad338a7dbc41dc40bcecd0479377ef207" target="_top" xlink:title="main">
<polygon fill="none" stroke="black" points="1278,-70.5 1278,-89.5 1316,-89.5 1316,-70.5 1278,-70.5"/>
<text text-anchor="middle" x="1297" y="-77.5" font-family="Helvetica,sans-Serif" font-size="10.00">main</text>
</a>
</g>
</g>
<!-- Node7&#45;&gt;Node8 -->
<g id="edge7" class="edge"><title>Node7&#45;&gt;Node8</title>
<path fill="none" stroke="midnightblue" d="M1251.91,-80C1261.05,-80 1270.16,-80 1277.71,-80"/>
<polygon fill="midnightblue" stroke="midnightblue" points="1251.66,-76.5001 1241.66,-80 1251.66,-83.5001 1251.66,-76.5001"/>
</g>
<!-- Node10 -->
<g id="node10" class="node"><title>Node10</title>
<g id="a_node10"><a xlink:href="../../de/d45/cipioconnection_8h.html#a53b85bce88b582414fc282c95f5626f4" target="_top" xlink:title="Take the data given in the connection object structure and open the necessary communication channels...">
<polygon fill="none" stroke="black" points="663.5,-114.5 663.5,-133.5 812.5,-133.5 812.5,-114.5 663.5,-114.5"/>
<text text-anchor="middle" x="738" y="-121.5" font-family="Helvetica,sans-Serif" font-size="10.00">OpenCommunicationChannels</text>
</a>
</g>
</g>
<!-- Node9&#45;&gt;Node10 -->
<g id="edge9" class="edge"><title>Node9&#45;&gt;Node10</title>
<path fill="none" stroke="midnightblue" d="M623.707,-124C636.975,-124 650.434,-124 663.22,-124"/>
<polygon fill="midnightblue" stroke="midnightblue" points="623.611,-120.5 613.611,-124 623.611,-127.5 623.611,-120.5"/>
</g>
<!-- Node10&#45;&gt;Node5 -->
<g id="edge10" class="edge"><title>Node10&#45;&gt;Node5</title>
<path fill="none" stroke="midnightblue" d="M822.616,-115.223C836.421,-113.773 850.442,-112.302 863.382,-110.943"/>
<polygon fill="midnightblue" stroke="midnightblue" points="822.2,-111.747 812.62,-116.272 822.93,-118.709 822.2,-111.747"/>
</g>
<!-- Node12 -->
<g id="node12" class="node"><title>Node12</title>
<g id="a_node12"><a xlink:href="../../df/d03/cipioconnection_8c.html#a730b410a0cdbc6a456973c0e51568968" target="_top" xlink:title="CloseIoConnection">
<polygon fill="none" stroke="black" points="477,-76.5 477,-95.5 577,-95.5 577,-76.5 477,-76.5"/>
<text text-anchor="middle" x="527" y="-83.5" font-family="Helvetica,sans-Serif" font-size="10.00">CloseIoConnection</text>
</a>
</g>
</g>
<!-- Node11&#45;&gt;Node12 -->
<g id="edge12" class="edge"><title>Node11&#45;&gt;Node12</title>
<path fill="none" stroke="midnightblue" d="M414.188,-74.3968C435.973,-76.6576 458.087,-78.9524 476.834,-80.8978"/>
<polygon fill="midnightblue" stroke="midnightblue" points="414.522,-70.9129 404.214,-73.3619 413.8,-77.8755 414.522,-70.9129"/>
</g>
<!-- Node14 -->
<g id="node14" class="node"><title>Node14</title>
<g id="a_node14"><a xlink:href="../../df/d03/cipioconnection_8c.html#a7e4923f4b027d489d9933b52f6fd7007" target="_top" xlink:title="HandleIoConnectionTimeOut">
<polygon fill="none" stroke="black" points="455.5,-38.5 455.5,-57.5 598.5,-57.5 598.5,-38.5 455.5,-38.5"/>
<text text-anchor="middle" x="527" y="-45.5" font-family="Helvetica,sans-Serif" font-size="10.00">HandleIoConnectionTimeOut</text>
</a>
</g>
</g>
<!-- Node11&#45;&gt;Node14 -->
<g id="edge15" class="edge"><title>Node11&#45;&gt;Node14</title>
<path fill="none" stroke="midnightblue" d="M414.302,-56.43C428.207,-55.3806 442.242,-54.3213 455.448,-53.3246"/>
<polygon fill="midnightblue" stroke="midnightblue" points="413.923,-52.9486 404.214,-57.1914 414.45,-59.9288 413.923,-52.9486"/>
</g>
<!-- Node13 -->
<g id="node13" class="node"><title>Node13</title>
<g id="a_node13"><a xlink:href="../../df/d03/cipioconnection_8c.html#ab3282f146a3ea91c90cf14c32206ee8c" target="_top" xlink:title="SetIoConnectionCallbacks">
<polygon fill="none" stroke="black" points="671.5,-76.5 671.5,-95.5 804.5,-95.5 804.5,-76.5 671.5,-76.5"/>
<text text-anchor="middle" x="738" y="-83.5" font-family="Helvetica,sans-Serif" font-size="10.00">SetIoConnectionCallbacks</text>
</a>
</g>
</g>
<!-- Node12&#45;&gt;Node13 -->
<g id="edge13" class="edge"><title>Node12&#45;&gt;Node13</title>
<path fill="none" stroke="midnightblue" d="M587.175,-86C613.401,-86 644.35,-86 671.291,-86"/>
<polygon fill="midnightblue" stroke="midnightblue" points="587.001,-82.5001 577.001,-86 587.001,-89.5001 587.001,-82.5001"/>
</g>
<!-- Node13&#45;&gt;Node5 -->
<g id="edge14" class="edge"><title>Node13&#45;&gt;Node5</title>
<path fill="none" stroke="midnightblue" d="M814.637,-93.9398C830.924,-95.6495 847.871,-97.4284 863.29,-99.047"/>
<polygon fill="midnightblue" stroke="midnightblue" points="814.912,-90.4495 804.601,-92.8863 814.181,-97.4113 814.912,-90.4495"/>
</g>
<!-- Node14&#45;&gt;Node13 -->
<g id="edge16" class="edge"><title>Node14&#45;&gt;Node13</title>
<path fill="none" stroke="midnightblue" d="M590.408,-59.347C620.395,-64.7991 655.934,-71.2607 684.509,-76.4561"/>
<polygon fill="midnightblue" stroke="midnightblue" points="590.935,-55.8853 580.47,-57.54 589.682,-62.7724 590.935,-55.8853"/>
</g>
<!-- Node16 -->
<g id="node16" class="node"><title>Node16</title>
<g id="a_node16"><a xlink:href="../../df/d2e/cipassembly_8c.html#a67ceeb31f4af6f6d7e6c1825227533cb" target="_top" xlink:title="Implementation of the SetAttributeSingle CIP service for Assembly Objects. Currently only supports At...">
<polygon fill="none" stroke="black" points="457.5,-0.5 457.5,-19.5 596.5,-19.5 596.5,-0.5 457.5,-0.5"/>
<text text-anchor="middle" x="527" y="-7.5" font-family="Helvetica,sans-Serif" font-size="10.00">SetAssemblyAttributeSingle</text>
</a>
</g>
</g>
<!-- Node15&#45;&gt;Node16 -->
<g id="edge18" class="edge"><title>Node15&#45;&gt;Node16</title>
<path fill="none" stroke="midnightblue" d="M395.91,-19.8181C416.149,-18.2907 437.624,-16.6699 457.17,-15.1947"/>
<polygon fill="midnightblue" stroke="midnightblue" points="395.482,-16.3404 385.774,-20.5831 396.009,-23.3205 395.482,-16.3404"/>
</g>
<!-- Node17 -->
<g id="node17" class="node"><title>Node17</title>
<g id="a_node17"><a xlink:href="../../df/d2e/cipassembly_8c.html#a5973ef42110a1bdf6c7699e35e04b7d4" target="_top" xlink:title="Constructor for the assembly object class. ">
<polygon fill="none" stroke="black" points="680.5,-2.5 680.5,-21.5 795.5,-21.5 795.5,-2.5 680.5,-2.5"/>
<text text-anchor="middle" x="738" y="-9.5" font-family="Helvetica,sans-Serif" font-size="10.00">CreateAssemblyClass</text>
</a>
</g>
</g>
<!-- Node16&#45;&gt;Node17 -->
<g id="edge19" class="edge"><title>Node16&#45;&gt;Node17</title>
<path fill="none" stroke="midnightblue" d="M606.724,-10.7533C631.233,-10.9879 657.759,-11.2417 680.439,-11.4588"/>
<polygon fill="midnightblue" stroke="midnightblue" points="606.757,-7.25359 596.724,-10.6576 606.69,-14.2533 606.757,-7.25359"/>
</g>
<!-- Node18 -->
<g id="node18" class="node"><title>Node18</title>
<g id="a_node18"><a xlink:href="../../de/df4/cipassembly_8h.html#a4dfbc2c7a8e9e77f05a0a7236210f5b4" target="_top" xlink:title="Setup the Assembly object. ">
<polygon fill="none" stroke="black" points="1019.5,-50.5 1019.5,-69.5 1130.5,-69.5 1130.5,-50.5 1019.5,-50.5"/>
<text text-anchor="middle" x="1075" y="-57.5" font-family="Helvetica,sans-Serif" font-size="10.00">CipAssemblyInitialize</text>
</a>
</g>
</g>
<!-- Node17&#45;&gt;Node18 -->
<g id="edge20" class="edge"><title>Node17&#45;&gt;Node18</title>
<path fill="none" stroke="midnightblue" d="M805.586,-22.501C823.863,-25.3247 843.688,-28.3334 862,-31 915.487,-38.7888 976.657,-47.0918 1019.5,-52.8086"/>
<polygon fill="midnightblue" stroke="midnightblue" points="806.03,-19.028 795.611,-20.9547 804.957,-25.9454 806.03,-19.028"/>
</g>
<!-- Node19 -->
<g id="node19" class="node"><title>Node19</title>
<g id="a_node19"><a xlink:href="../../d2/dc9/group__CIP__API.html#gae61b613fed863d30428e78b2311bf593" target="_top" xlink:title="Create an instance of an assembly object. ">
<polygon fill="none" stroke="black" points="862,-2.5 862,-21.5 980,-21.5 980,-2.5 862,-2.5"/>
<text text-anchor="middle" x="921" y="-9.5" font-family="Helvetica,sans-Serif" font-size="10.00">CreateAssemblyObject</text>
</a>
</g>
</g>
<!-- Node17&#45;&gt;Node19 -->
<g id="edge22" class="edge"><title>Node17&#45;&gt;Node19</title>
<path fill="none" stroke="midnightblue" d="M805.825,-12C824.217,-12 844.012,-12 861.87,-12"/>
<polygon fill="midnightblue" stroke="midnightblue" points="805.773,-8.5001 795.773,-12 805.773,-15.5001 805.773,-8.5001"/>
</g>
<!-- Node18&#45;&gt;Node7 -->
<g id="edge21" class="edge"><title>Node18&#45;&gt;Node7</title>
<path fill="none" stroke="midnightblue" d="M1140.87,-70.0579C1151.07,-71.6392 1161.26,-73.2186 1170.41,-74.6379"/>
<polygon fill="midnightblue" stroke="midnightblue" points="1141.13,-66.5553 1130.71,-68.4818 1140.05,-73.4726 1141.13,-66.5553"/>
</g>
<!-- Node20 -->
<g id="node20" class="node"><title>Node20</title>
<g id="a_node20"><a xlink:href="../../d5/dc5/group__CIP__CALLBACK__API.html#gae93106eb1647bff3ad56a7752799d878" target="_top" xlink:title="Callback for the application initialization. ">
<polygon fill="none" stroke="black" points="1017,-2.5 1017,-21.5 1133,-21.5 1133,-2.5 1017,-2.5"/>
<text text-anchor="middle" x="1075" y="-9.5" font-family="Helvetica,sans-Serif" font-size="10.00">ApplicationInitialization</text>
</a>
</g>
</g>
<!-- Node19&#45;&gt;Node20 -->
<g id="edge23" class="edge"><title>Node19&#45;&gt;Node20</title>
<path fill="none" stroke="midnightblue" d="M990.552,-12C999.335,-12 1008.25,-12 1016.83,-12"/>
<polygon fill="midnightblue" stroke="midnightblue" points="990.332,-8.5001 980.332,-12 990.332,-15.5001 990.332,-8.5001"/>
</g>
</g>
</svg>
        <g id="navigator" transform="translate(0 0)" fill="#404254">
                <rect fill="#f2f5e9" fill-opacity="0.5" stroke="#606060" stroke-width=".5" x="0" y="0" width="60" height="60"/>
                <use id="zoomplus" xlink:href="#zoomPlus" x="17" y="9" onmousedown="handleZoom(evt,'in')"/>
                <use id="zoomminus" xlink:href="#zoomMin" x="42" y="9" onmousedown="handleZoom(evt,'out')"/>
                <use id="reset" xlink:href="#resetDef" x="30" y="36" onmousedown="handleReset()"/>
                <g id="arrowUp" xlink:href="#dirArrow" transform="translate(30 24)" onmousedown="handlePan(0,-1)">
                  <use xlink:href="#rim" fill="#404040">
                        <set attributeName="fill" to="#808080" begin="arrowUp.mouseover" end="arrowUp.mouseout"/>
                  </use>
                  <path fill="none" stroke="white" stroke-width="1.5" d="M0,-3.0v7 M-2.5,-0.5L0,-3.0L2.5,-0.5"/>
                </g>
                <g id="arrowRight" xlink:href="#dirArrow" transform="rotate(90) translate(36 -43)" onmousedown="handlePan(1,0)">
                  <use xlink:href="#rim" fill="#404040">
                        <set attributeName="fill" to="#808080" begin="arrowRight.mouseover" end="arrowRight.mouseout"/>
                  </use>
                  <path fill="none" stroke="white" stroke-width="1.5" d="M0,-3.0v7 M-2.5,-0.5L0,-3.0L2.5,-0.5"/>
                </g>
                <g id="arrowDown" xlink:href="#dirArrow" transform="rotate(180) translate(-30 -48)" onmousedown="handlePan(0,1)">
                  <use xlink:href="#rim" fill="#404040">
                        <set attributeName="fill" to="#808080" begin="arrowDown.mouseover" end="arrowDown.mouseout"/>
                  </use>
                  <path fill="none" stroke="white" stroke-width="1.5" d="M0,-3.0v7 M-2.5,-0.5L0,-3.0L2.5,-0.5"/>
                </g>
                <g id="arrowLeft" xlink:href="#dirArrow" transform="rotate(270) translate(-36 17)" onmousedown="handlePan(-1,0)">
                  <use xlink:href="#rim" fill="#404040">
                        <set attributeName="fill" to="#808080" begin="arrowLeft.mouseover" end="arrowLeft.mouseout"/>
                  </use>
                  <path fill="none" stroke="white" stroke-width="1.5" d="M0,-3.0v7 M-2.5,-0.5L0,-3.0L2.5,-0.5"/>
                </g>
        </g>
        <svg viewBox="0 0 15 15" width="100%" height="30px" preserveAspectRatio="xMaxYMin meet">
         <g id="arrow_out" transform="scale(0.3 0.3)">
          <a xlink:href="cipconnectionobject_8c_a4c3d0e8258e857f80e5b7111519f7daa_icgraph_org.svg" target="_base">
           <rect id="button" ry="5" rx="5" y="6" x="6" height="38" width="38"
                fill="#f2f5e9" fill-opacity="0.5" stroke="#606060" stroke-width="1.0"/>
           <path id="arrow"
             d="M 11.500037,31.436501 C 11.940474,20.09759 22.043105,11.32322 32.158766,21.979434 L 37.068811,17.246167 C 37.068811,17.246167 37.088388,32 37.088388,32 L 22.160133,31.978069 C 22.160133,31.978069 26.997745,27.140456 26.997745,27.140456 C 18.528582,18.264221 13.291696,25.230495 11.500037,31.436501 z"
             style="fill:#404040;"/>
          </a>
         </g>
        </svg>
</svg>
