<?xml version="1.0" encoding="UTF-8" standalone="no"?>
<!DOCTYPE svg PUBLIC "-//W3C//DTD SVG 1.1//EN"
 "http://www.w3.org/Graphics/SVG/1.1/DTD/svg11.dtd">
<!-- Generated by graphviz version 2.36.0 (20140111.2315)
 -->
<!-- Title: ConnectionObjectGetConnectionSizeType Pages: 1 -->
<svg width="1054pt" height="87pt"
 viewBox="0.00 0.00 1054.00 87.00" xmlns="http://www.w3.org/2000/svg" xmlns:xlink="http://www.w3.org/1999/xlink">
<g id="graph0" class="graph" transform="scale(1 1) rotate(0) translate(4 83)">
<title>ConnectionObjectGetConnectionSizeType</title>
<!-- Node1 -->
<g id="node1" class="node"><title>Node1</title>
<polygon fill="#bfbfbf" stroke="black" points="0,-24 0,-54 160,-54 160,-24 0,-24"/>
<text text-anchor="start" x="8" y="-42" font-family="Helvetica,sans-Serif" font-size="10.00">ConnectionObjectGetConnection</text>
<text text-anchor="middle" x="80" y="-31" font-family="Helvetica,sans-Serif" font-size="10.00">SizeType</text>
</g>
<!-- Node2 -->
<g id="node2" class="node"><title>Node2</title>
<g id="a_node2"><a xlink:href="../../d1/d6c/cipconnectionobject_8h.html#a1517213d7c0fd7399eaf954734acf869" target="_top" xlink:title="ConnectionObjectGetOToTConnection\lSizeType">
<polygon fill="none" stroke="black" points="196.5,-49 196.5,-79 381.5,-79 381.5,-49 196.5,-49"/>
<text text-anchor="start" x="204.5" y="-67" font-family="Helvetica,sans-Serif" font-size="10.00">ConnectionObjectGetOToTConnection</text>
<text text-anchor="middle" x="289" y="-56" font-family="Helvetica,sans-Serif" font-size="10.00">SizeType</text>
</a>
</g>
</g>
<!-- Node1&#45;&gt;Node2 -->
<g id="edge1" class="edge"><title>Node1&#45;&gt;Node2</title>
<path fill="none" stroke="midnightblue" d="M170.252,-49.7792C178.928,-50.8271 187.741,-51.8914 196.439,-52.942"/>
<polygon fill="midnightblue" stroke="midnightblue" points="170.491,-46.2828 160.144,-48.5584 169.652,-53.2323 170.491,-46.2828"/>
</g>
<!-- Node3 -->
<g id="node3" class="node"><title>Node3</title>
<g id="a_node3"><a xlink:href="../../d1/d6c/cipconnectionobject_8h.html#a3eb72e7befca17493e2cec4ebfda8552" target="_top" xlink:title="ConnectionObjectGetTToOConnection\lSizeType">
<polygon fill="none" stroke="black" points="196.5,-0 196.5,-30 381.5,-30 381.5,-0 196.5,-0"/>
<text text-anchor="start" x="204.5" y="-18" font-family="Helvetica,sans-Serif" font-size="10.00">ConnectionObjectGetTToOConnection</text>
<text text-anchor="middle" x="289" y="-7" font-family="Helvetica,sans-Serif" font-size="10.00">SizeType</text>
</a>
</g>
</g>
<!-- Node1&#45;&gt;Node3 -->
<g id="edge2" class="edge"><title>Node1&#45;&gt;Node3</title>
<path fill="none" stroke="midnightblue" d="M170.252,-28.652C178.928,-27.646 187.741,-26.6243 196.439,-25.6157"/>
<polygon fill="midnightblue" stroke="midnightblue" points="169.674,-25.1954 160.144,-29.8239 170.48,-32.1488 169.674,-25.1954"/>
</g>
<!-- Node4 -->
<g id="node4" class="node"><title>Node4</title>
<g id="a_node4"><a xlink:href="../../df/d03/cipioconnection_8c.html#a4efa3b0cf11b363c8c5f4f8c8070b43f" target="_top" xlink:title="SetupIoConnectionTargetTo\lOriginatorConnectionPoint">
<polygon fill="none" stroke="black" points="418.5,-0 418.5,-30 557.5,-30 557.5,-0 418.5,-0"/>
<text text-anchor="start" x="426.5" y="-18" font-family="Helvetica,sans-Serif" font-size="10.00">SetupIoConnectionTargetTo</text>
<text text-anchor="middle" x="488" y="-7" font-family="Helvetica,sans-Serif" font-size="10.00">OriginatorConnectionPoint</text>
</a>
</g>
</g>
<!-- Node3&#45;&gt;Node4 -->
<g id="edge3" class="edge"><title>Node3&#45;&gt;Node4</title>
<path fill="none" stroke="midnightblue" d="M391.734,-15C400.729,-15 409.688,-15 418.311,-15"/>
<polygon fill="midnightblue" stroke="midnightblue" points="391.579,-11.5001 381.579,-15 391.579,-18.5001 391.579,-11.5001"/>
</g>
<!-- Node5 -->
<g id="node5" class="node"><title>Node5</title>
<g id="a_node5"><a xlink:href="../../de/d45/cipioconnection_8h.html#a43e270b3f9b9f6296b12285c320c95aa" target="_top" xlink:title="Setup all data in order to establish an IO connection. ">
<polygon fill="none" stroke="black" points="594.5,-5.5 594.5,-24.5 709.5,-24.5 709.5,-5.5 594.5,-5.5"/>
<text text-anchor="middle" x="652" y="-12.5" font-family="Helvetica,sans-Serif" font-size="10.00">EstablishIoConnection</text>
</a>
</g>
</g>
<!-- Node4&#45;&gt;Node5 -->
<g id="edge4" class="edge"><title>Node4&#45;&gt;Node5</title>
<path fill="none" stroke="midnightblue" d="M567.81,-15C576.797,-15 585.82,-15 594.436,-15"/>
<polygon fill="midnightblue" stroke="midnightblue" points="567.703,-11.5001 557.703,-15 567.703,-18.5001 567.703,-11.5001"/>
</g>
<!-- Node6 -->
<g id="node6" class="node"><title>Node6</title>
<g id="a_node6"><a xlink:href="../../d2/da3/cipconnectionmanager_8h.html#a5ab0de6894d23e8fe84a6b46797c2212" target="_top" xlink:title="Initialize the data of the connection manager object. ">
<polygon fill="none" stroke="black" points="746.5,-5.5 746.5,-24.5 863.5,-24.5 863.5,-5.5 746.5,-5.5"/>
<text text-anchor="middle" x="805" y="-12.5" font-family="Helvetica,sans-Serif" font-size="10.00">ConnectionManagerInit</text>
</a>
</g>
</g>
<!-- Node5&#45;&gt;Node6 -->
<g id="edge5" class="edge"><title>Node5&#45;&gt;Node6</title>
<path fill="none" stroke="midnightblue" d="M719.885,-15C728.684,-15 737.642,-15 746.271,-15"/>
<polygon fill="midnightblue" stroke="midnightblue" points="719.656,-11.5001 709.656,-15 719.656,-18.5001 719.656,-11.5001"/>
</g>
<!-- Node7 -->
<g id="node7" class="node"><title>Node7</title>
<g id="a_node7"><a xlink:href="../../d2/dc9/group__CIP__API.html#ga5d4979945d124e28668b264c3823db1c" target="_top" xlink:title="Initialize and setup the CIP&#45;stack. ">
<polygon fill="none" stroke="black" points="900.5,-5.5 900.5,-24.5 971.5,-24.5 971.5,-5.5 900.5,-5.5"/>
<text text-anchor="middle" x="936" y="-12.5" font-family="Helvetica,sans-Serif" font-size="10.00">CipStackInit</text>
</a>
</g>
</g>
<!-- Node6&#45;&gt;Node7 -->
<g id="edge6" class="edge"><title>Node6&#45;&gt;Node7</title>
<path fill="none" stroke="midnightblue" d="M873.982,-15C883.081,-15 892.087,-15 900.274,-15"/>
<polygon fill="midnightblue" stroke="midnightblue" points="873.709,-11.5001 863.708,-15 873.708,-18.5001 873.709,-11.5001"/>
</g>
<!-- Node8 -->
<g id="node8" class="node"><title>Node8</title>
<g id="a_node8"><a xlink:href="../../d5/dcb/MINGW_2main_8c.html#ad338a7dbc41dc40bcecd0479377ef207" target="_top" xlink:title="main">
<polygon fill="none" stroke="black" points="1008,-5.5 1008,-24.5 1046,-24.5 1046,-5.5 1008,-5.5"/>
<text text-anchor="middle" x="1027" y="-12.5" font-family="Helvetica,sans-Serif" font-size="10.00">main</text>
</a>
</g>
</g>
<!-- Node7&#45;&gt;Node8 -->
<g id="edge7" class="edge"><title>Node7&#45;&gt;Node8</title>
<path fill="none" stroke="midnightblue" d="M981.909,-15C991.046,-15 1000.16,-15 1007.71,-15"/>
<polygon fill="midnightblue" stroke="midnightblue" points="981.665,-11.5001 971.665,-15 981.665,-18.5001 981.665,-11.5001"/>
</g>
</g>
</svg>
