<?xml version="1.0" encoding="UTF-8" standalone="no"?>
<!DOCTYPE svg PUBLIC "-//W3C//DTD SVG 1.1//EN"
 "http://www.w3.org/Graphics/SVG/1.1/DTD/svg11.dtd">
<!-- Generated by graphviz version 2.26.3 (20100126.1600)
 -->
<!-- Title: G Pages: 1 -->
<!--zoomable 70 -->
<svg id="main" version="1.1" xmlns="http://www.w3.org/2000/svg" xmlns:xlink="http://www.w3.org/1999/xlink" xml:space="preserve" onload="init(evt)">
        <defs>
                <circle id="rim" cx="0" cy="0" r="7"/>
                <circle id="rim2" cx="0" cy="0" r="3.5"/>
                <g id="zoomPlus">
                        <use xlink:href="#rim" fill="#404040">
                                <set attributeName="fill" to="#808080" begin="zoomplus.mouseover" end="zoomplus.mouseout"/>
                        </use>
                        <path d="M-4,0h8M0,-4v8" fill="none" stroke="white" stroke-width="1.5" pointer-events="none"/>
                </g>
                <g id="zoomMin">
                        <use xlink:href="#rim" fill="#404040">
                                <set attributeName="fill" to="#808080" begin="zoomminus.mouseover" end="zoomminus.mouseout"/>
                        </use>
                        <path d="M-4,0h8" fill="none" stroke="white" stroke-width="1.5" pointer-events="none"/>
                </g>
                <g id="dirArrow">
                        <path fill="none" stroke="white" stroke-width="1.5" d="M0,-3.0v7 M-2.5,-0.5L0,-3.0L2.5,-0.5"/>
                </g>
               <g id="resetDef">
                       <use xlink:href="#rim2" fill="#404040">
                               <set attributeName="fill" to="#808080" begin="reset.mouseover" end="reset.mouseout"/>
                       </use>
               </g>
        </defs>

<script type="text/javascript">
var viewWidth = 992;
var viewHeight = 70;
var sectionId = 'dynsection-20';
</script>
<script xlink:href="../../svgpan.js"/>
<svg id="graph" class="graph">
<g id="viewport">
<title>G</title>
<!-- Node1 -->
<g id="node1" class="node"><title>Node1</title>
<polygon fill="#bfbfbf" stroke="black" points="0.5,-20.5 0.5,-41.5 205.5,-41.5 205.5,-20.5 0.5,-20.5"/>
<text text-anchor="middle" x="103" y="-28.5" font-family="Helvetica,sans-Serif" font-size="10.00">ConnectionObjectGetProductionInhibitTime</text>
</g>
<!-- Node2 -->
<g id="node3" class="node"><title>Node2</title>
<a xlink:href="../../df/d03/cipioconnection_8c.html#ac1ef9c10ff4921452840b0de66bb12cf" target="_top" xlink:title="ProcessProductionInhibitTime">
<polygon fill="none" stroke="black" points="295.5,-40.5 295.5,-61.5 442.5,-61.5 442.5,-40.5 295.5,-40.5"/>
<text text-anchor="middle" x="369" y="-48.5" font-family="Helvetica,sans-Serif" font-size="10.00">ProcessProductionInhibitTime</text>
</a>
</g>
<!-- Node1&#45;&gt;Node2 -->
<g id="edge2" class="edge"><title>Node1&#45;&gt;Node2</title>
<path fill="none" stroke="midnightblue" d="M216.051,-39.5001C242.852,-41.5152 270.759,-43.6135 295.285,-45.4575"/>
<polygon fill="midnightblue" stroke="midnightblue" points="216.077,-35.9922 205.843,-38.7325 215.552,-42.9725 216.077,-35.9922"/>
</g>
<!-- Node7 -->
<g id="node13" class="node"><title>Node7</title>
<a xlink:href="../../df/d03/cipioconnection_8c.html#a4efa3b0cf11b363c8c5f4f8c8070b43f" target="_top" xlink:title="SetupIoConnectionTargetToOriginatorConnectionPoint">
<polygon fill="none" stroke="black" points="242.5,-0.5 242.5,-21.5 495.5,-21.5 495.5,-0.5 242.5,-0.5"/>
<text text-anchor="middle" x="369" y="-8.5" font-family="Helvetica,sans-Serif" font-size="10.00">SetupIoConnectionTargetToOriginatorConnectionPoint</text>
</a>
</g>
<!-- Node1&#45;&gt;Node7 -->
<g id="edge12" class="edge"><title>Node1&#45;&gt;Node7</title>
<path fill="none" stroke="midnightblue" d="M216.03,-22.5015C224.762,-21.8449 233.612,-21.1796 242.424,-20.517"/>
<polygon fill="midnightblue" stroke="midnightblue" points="215.552,-19.0275 205.843,-23.2675 216.077,-26.0078 215.552,-19.0275"/>
</g>
<!-- Node3 -->
<g id="node5" class="node"><title>Node3</title>
<a xlink:href="../../de/d45/cipioconnection_8h.html#a43e270b3f9b9f6296b12285c320c95aa" target="_top" xlink:title="Setup all data in order to establish an IO connection.">
<polygon fill="none" stroke="black" points="532.5,-20.5 532.5,-41.5 647.5,-41.5 647.5,-20.5 532.5,-20.5"/>
<text text-anchor="middle" x="590" y="-28.5" font-family="Helvetica,sans-Serif" font-size="10.00">EstablishIoConnection</text>
</a>
</g>
<!-- Node2&#45;&gt;Node3 -->
<g id="edge4" class="edge"><title>Node2&#45;&gt;Node3</title>
<path fill="none" stroke="midnightblue" d="M452.669,-43.4282C479.285,-41.0194 508.112,-38.4107 532.451,-36.2081"/>
<polygon fill="midnightblue" stroke="midnightblue" points="452.234,-39.9532 442.59,-44.3403 452.865,-46.9247 452.234,-39.9532"/>
</g>
<!-- Node4 -->
<g id="node7" class="node"><title>Node4</title>
<a xlink:href="../../d2/da3/cipconnectionmanager_8h.html#a5ab0de6894d23e8fe84a6b46797c2212" target="_top" xlink:title="Initialize the data of the connection manager object.">
<polygon fill="none" stroke="black" points="684.5,-20.5 684.5,-41.5 801.5,-41.5 801.5,-20.5 684.5,-20.5"/>
<text text-anchor="middle" x="743" y="-28.5" font-family="Helvetica,sans-Serif" font-size="10.00">ConnectionManagerInit</text>
</a>
</g>
<!-- Node3&#45;&gt;Node4 -->
<g id="edge6" class="edge"><title>Node3&#45;&gt;Node4</title>
<path fill="none" stroke="midnightblue" d="M658.035,-31C666.8,-31 675.715,-31 684.313,-31"/>
<polygon fill="midnightblue" stroke="midnightblue" points="657.843,-27.5001 647.843,-31 657.843,-34.5001 657.843,-27.5001"/>
</g>
<!-- Node5 -->
<g id="node9" class="node"><title>Node5</title>
<a xlink:href="../../d2/dc9/group__CIP__API.html#ga5d4979945d124e28668b264c3823db1c" target="_top" xlink:title="Initialize and setup the CIP&#45;stack.">
<polygon fill="none" stroke="black" points="838.5,-20.5 838.5,-41.5 909.5,-41.5 909.5,-20.5 838.5,-20.5"/>
<text text-anchor="middle" x="874" y="-28.5" font-family="Helvetica,sans-Serif" font-size="10.00">CipStackInit</text>
</a>
</g>
<!-- Node4&#45;&gt;Node5 -->
<g id="edge8" class="edge"><title>Node4&#45;&gt;Node5</title>
<path fill="none" stroke="midnightblue" d="M811.629,-31C820.871,-31 830.029,-31 838.366,-31"/>
<polygon fill="midnightblue" stroke="midnightblue" points="811.603,-27.5001 801.603,-31 811.603,-34.5001 811.603,-27.5001"/>
</g>
<!-- Node6 -->
<g id="node11" class="node"><title>Node6</title>
<a xlink:href="../../d9/dfb/POSIX_2main_8c.html#ad338a7dbc41dc40bcecd0479377ef207" target="_top" xlink:title="main">
<polygon fill="none" stroke="black" points="946,-20.5 946,-41.5 984,-41.5 984,-20.5 946,-20.5"/>
<text text-anchor="middle" x="965" y="-28.5" font-family="Helvetica,sans-Serif" font-size="10.00">main</text>
</a>
</g>
<!-- Node5&#45;&gt;Node6 -->
<g id="edge10" class="edge"><title>Node5&#45;&gt;Node6</title>
<path fill="none" stroke="midnightblue" d="M919.982,-31C929.145,-31 938.282,-31 945.906,-31"/>
<polygon fill="midnightblue" stroke="midnightblue" points="919.704,-27.5001 909.704,-31 919.704,-34.5001 919.704,-27.5001"/>
</g>
<!-- Node7&#45;&gt;Node3 -->
<g id="edge14" class="edge"><title>Node7&#45;&gt;Node3</title>
<path fill="none" stroke="midnightblue" d="M495.62,-22.4588C508.395,-23.615 520.877,-24.7445 532.362,-25.7839"/>
<polygon fill="midnightblue" stroke="midnightblue" points="495.6,-18.9428 485.325,-21.5271 494.969,-25.9143 495.6,-18.9428"/>
</g>
</g>
</svg>
        <g id="navigator" transform="translate(0 0)" fill="#404254">
                <rect fill="#f2f5e9" fill-opacity="0.5" stroke="#606060" stroke-width=".5" x="0" y="0" width="60" height="60"/>
                <use id="zoomplus" xlink:href="#zoomPlus" x="17" y="9" onmousedown="handleZoom(evt,'in')"/>
                <use id="zoomminus" xlink:href="#zoomMin" x="42" y="9" onmousedown="handleZoom(evt,'out')"/>
                <use id="reset" xlink:href="#resetDef" x="30" y="36" onmousedown="handleReset()"/>
                <g id="arrowUp" xlink:href="#dirArrow" transform="translate(30 24)" onmousedown="handlePan(0,-1)">
                  <use xlink:href="#rim" fill="#404040">
                        <set attributeName="fill" to="#808080" begin="arrowUp.mouseover" end="arrowUp.mouseout"/>
                  </use>
                  <path fill="none" stroke="white" stroke-width="1.5" d="M0,-3.0v7 M-2.5,-0.5L0,-3.0L2.5,-0.5"/>
                </g>
                <g id="arrowRight" xlink:href="#dirArrow" transform="rotate(90) translate(36 -43)" onmousedown="handlePan(1,0)">
                  <use xlink:href="#rim" fill="#404040">
                        <set attributeName="fill" to="#808080" begin="arrowRight.mouseover" end="arrowRight.mouseout"/>
                  </use>
                  <path fill="none" stroke="white" stroke-width="1.5" d="M0,-3.0v7 M-2.5,-0.5L0,-3.0L2.5,-0.5"/>
                </g>
                <g id="arrowDown" xlink:href="#dirArrow" transform="rotate(180) translate(-30 -48)" onmousedown="handlePan(0,1)">
                  <use xlink:href="#rim" fill="#404040">
                        <set attributeName="fill" to="#808080" begin="arrowDown.mouseover" end="arrowDown.mouseout"/>
                  </use>
                  <path fill="none" stroke="white" stroke-width="1.5" d="M0,-3.0v7 M-2.5,-0.5L0,-3.0L2.5,-0.5"/>
                </g>
                <g id="arrowLeft" xlink:href="#dirArrow" transform="rotate(270) translate(-36 17)" onmousedown="handlePan(-1,0)">
                  <use xlink:href="#rim" fill="#404040">
                        <set attributeName="fill" to="#808080" begin="arrowLeft.mouseover" end="arrowLeft.mouseout"/>
                  </use>
                  <path fill="none" stroke="white" stroke-width="1.5" d="M0,-3.0v7 M-2.5,-0.5L0,-3.0L2.5,-0.5"/>
                </g>
        </g>
</svg>
