<?xml version="1.0" encoding="UTF-8" standalone="no"?>
<!DOCTYPE svg PUBLIC "-//W3C//DTD SVG 1.1//EN"
 "http://www.w3.org/Graphics/SVG/1.1/DTD/svg11.dtd">
<!-- Generated by graphviz version 2.26.3 (20100126.1600)
 -->
<!-- Title: G Pages: 1 -->
<!--zoomable 70 -->
<svg id="main" version="1.1" xmlns="http://www.w3.org/2000/svg" xmlns:xlink="http://www.w3.org/1999/xlink" xml:space="preserve" onload="init(evt)">
        <defs>
                <circle id="rim" cx="0" cy="0" r="7"/>
                <circle id="rim2" cx="0" cy="0" r="3.5"/>
                <g id="zoomPlus">
                        <use xlink:href="#rim" fill="#404040">
                                <set attributeName="fill" to="#808080" begin="zoomplus.mouseover" end="zoomplus.mouseout"/>
                        </use>
                        <path d="M-4,0h8M0,-4v8" fill="none" stroke="white" stroke-width="1.5" pointer-events="none"/>
                </g>
                <g id="zoomMin">
                        <use xlink:href="#rim" fill="#404040">
                                <set attributeName="fill" to="#808080" begin="zoomminus.mouseover" end="zoomminus.mouseout"/>
                        </use>
                        <path d="M-4,0h8" fill="none" stroke="white" stroke-width="1.5" pointer-events="none"/>
                </g>
                <g id="dirArrow">
                        <path fill="none" stroke="white" stroke-width="1.5" d="M0,-3.0v7 M-2.5,-0.5L0,-3.0L2.5,-0.5"/>
                </g>
               <g id="resetDef">
                       <use xlink:href="#rim2" fill="#404040">
                               <set attributeName="fill" to="#808080" begin="reset.mouseover" end="reset.mouseout"/>
                       </use>
               </g>
        </defs>

<script type="text/javascript">
var viewWidth = 1206;
var viewHeight = 70;
var sectionId = 'dynsection-8';
</script>
<script xlink:href="../../svgpan.js"/>
<svg id="graph" class="graph">
<g id="viewport">
<title>G</title>
<!-- Node1 -->
<g id="node1" class="node"><title>Node1</title>
<polygon fill="#bfbfbf" stroke="black" points="0.5,-20.5 0.5,-41.5 179.5,-41.5 179.5,-20.5 0.5,-20.5"/>
<text text-anchor="middle" x="90" y="-28.5" font-family="Helvetica,sans-Serif" font-size="10.00">ConnectionObjectGetConnectionSize</text>
</g>
<!-- Node2 -->
<g id="node3" class="node"><title>Node2</title>
<a xlink:href="../../d1/d6c/cipconnectionobject_8h.html#ac8eec747e3eb538b8208f84bb1cd876c" target="_top" xlink:title="ConnectionObjectGetOToTConnectionSize">
<polygon fill="none" stroke="black" points="216,-40.5 216,-61.5 420,-61.5 420,-40.5 216,-40.5"/>
<text text-anchor="middle" x="318" y="-48.5" font-family="Helvetica,sans-Serif" font-size="10.00">ConnectionObjectGetOToTConnectionSize</text>
</a>
</g>
<!-- Node1&#45;&gt;Node2 -->
<g id="edge2" class="edge"><title>Node1&#45;&gt;Node2</title>
<path fill="none" stroke="midnightblue" d="M189.848,-39.7586C198.473,-40.5152 207.209,-41.2815 215.852,-42.0397"/>
<polygon fill="midnightblue" stroke="midnightblue" points="190.052,-36.2631 179.784,-38.8758 189.44,-43.2364 190.052,-36.2631"/>
</g>
<!-- Node8 -->
<g id="node15" class="node"><title>Node8</title>
<a xlink:href="../../d1/d6c/cipconnectionobject_8h.html#ae90368c85cedeaa7a56fb0eae81eeef2" target="_top" xlink:title="ConnectionObjectGetTToOConnectionSize">
<polygon fill="none" stroke="black" points="216,-0.5 216,-21.5 420,-21.5 420,-0.5 216,-0.5"/>
<text text-anchor="middle" x="318" y="-8.5" font-family="Helvetica,sans-Serif" font-size="10.00">ConnectionObjectGetTToOConnectionSize</text>
</a>
</g>
<!-- Node1&#45;&gt;Node8 -->
<g id="edge14" class="edge"><title>Node1&#45;&gt;Node8</title>
<path fill="none" stroke="midnightblue" d="M189.848,-22.2414C198.473,-21.4848 207.209,-20.7185 215.852,-19.9603"/>
<polygon fill="midnightblue" stroke="midnightblue" points="189.44,-18.7636 179.784,-23.1242 190.052,-25.7369 189.44,-18.7636"/>
</g>
<!-- Node3 -->
<g id="node5" class="node"><title>Node3</title>
<a xlink:href="../../df/d03/cipioconnection_8c.html#ac00a39ab755db54e4abf917618ff9849" target="_top" xlink:title="SetupIoConnectionOriginatorToTargetConnectionPoint">
<polygon fill="none" stroke="black" points="456.5,-40.5 456.5,-61.5 709.5,-61.5 709.5,-40.5 456.5,-40.5"/>
<text text-anchor="middle" x="583" y="-48.5" font-family="Helvetica,sans-Serif" font-size="10.00">SetupIoConnectionOriginatorToTargetConnectionPoint</text>
</a>
</g>
<!-- Node2&#45;&gt;Node3 -->
<g id="edge4" class="edge"><title>Node2&#45;&gt;Node3</title>
<path fill="none" stroke="midnightblue" d="M430.114,-51C438.717,-51 447.438,-51 456.126,-51"/>
<polygon fill="midnightblue" stroke="midnightblue" points="430.077,-47.5001 420.077,-51 430.077,-54.5001 430.077,-47.5001"/>
</g>
<!-- Node4 -->
<g id="node7" class="node"><title>Node4</title>
<a xlink:href="../../de/d45/cipioconnection_8h.html#a43e270b3f9b9f6296b12285c320c95aa" target="_top" xlink:title="Setup all data in order to establish an IO connection.">
<polygon fill="none" stroke="black" points="746.5,-20.5 746.5,-41.5 861.5,-41.5 861.5,-20.5 746.5,-20.5"/>
<text text-anchor="middle" x="804" y="-28.5" font-family="Helvetica,sans-Serif" font-size="10.00">EstablishIoConnection</text>
</a>
</g>
<!-- Node3&#45;&gt;Node4 -->
<g id="edge6" class="edge"><title>Node3&#45;&gt;Node4</title>
<path fill="none" stroke="midnightblue" d="M709.62,-39.5412C722.395,-38.385 734.877,-37.2555 746.362,-36.2161"/>
<polygon fill="midnightblue" stroke="midnightblue" points="708.969,-36.0857 699.325,-40.4729 709.6,-43.0572 708.969,-36.0857"/>
</g>
<!-- Node5 -->
<g id="node9" class="node"><title>Node5</title>
<a xlink:href="../../d2/da3/cipconnectionmanager_8h.html#a5ab0de6894d23e8fe84a6b46797c2212" target="_top" xlink:title="Initialize the data of the connection manager object.">
<polygon fill="none" stroke="black" points="898.5,-20.5 898.5,-41.5 1015.5,-41.5 1015.5,-20.5 898.5,-20.5"/>
<text text-anchor="middle" x="957" y="-28.5" font-family="Helvetica,sans-Serif" font-size="10.00">ConnectionManagerInit</text>
</a>
</g>
<!-- Node4&#45;&gt;Node5 -->
<g id="edge8" class="edge"><title>Node4&#45;&gt;Node5</title>
<path fill="none" stroke="midnightblue" d="M872.035,-31C880.8,-31 889.715,-31 898.313,-31"/>
<polygon fill="midnightblue" stroke="midnightblue" points="871.843,-27.5001 861.843,-31 871.843,-34.5001 871.843,-27.5001"/>
</g>
<!-- Node6 -->
<g id="node11" class="node"><title>Node6</title>
<a xlink:href="../../d2/dc9/group__CIP__API.html#ga5d4979945d124e28668b264c3823db1c" target="_top" xlink:title="Initialize and setup the CIP&#45;stack.">
<polygon fill="none" stroke="black" points="1052.5,-20.5 1052.5,-41.5 1123.5,-41.5 1123.5,-20.5 1052.5,-20.5"/>
<text text-anchor="middle" x="1088" y="-28.5" font-family="Helvetica,sans-Serif" font-size="10.00">CipStackInit</text>
</a>
</g>
<!-- Node5&#45;&gt;Node6 -->
<g id="edge10" class="edge"><title>Node5&#45;&gt;Node6</title>
<path fill="none" stroke="midnightblue" d="M1025.63,-31C1034.87,-31 1044.03,-31 1052.37,-31"/>
<polygon fill="midnightblue" stroke="midnightblue" points="1025.6,-27.5001 1015.6,-31 1025.6,-34.5001 1025.6,-27.5001"/>
</g>
<!-- Node7 -->
<g id="node13" class="node"><title>Node7</title>
<a xlink:href="../../d9/dfb/POSIX_2main_8c.html#ad338a7dbc41dc40bcecd0479377ef207" target="_top" xlink:title="main">
<polygon fill="none" stroke="black" points="1160,-20.5 1160,-41.5 1198,-41.5 1198,-20.5 1160,-20.5"/>
<text text-anchor="middle" x="1179" y="-28.5" font-family="Helvetica,sans-Serif" font-size="10.00">main</text>
</a>
</g>
<!-- Node6&#45;&gt;Node7 -->
<g id="edge12" class="edge"><title>Node6&#45;&gt;Node7</title>
<path fill="none" stroke="midnightblue" d="M1133.98,-31C1143.14,-31 1152.28,-31 1159.91,-31"/>
<polygon fill="midnightblue" stroke="midnightblue" points="1133.7,-27.5001 1123.7,-31 1133.7,-34.5001 1133.7,-27.5001"/>
</g>
<!-- Node9 -->
<g id="node17" class="node"><title>Node9</title>
<a xlink:href="../../df/d03/cipioconnection_8c.html#a4efa3b0cf11b363c8c5f4f8c8070b43f" target="_top" xlink:title="SetupIoConnectionTargetToOriginatorConnectionPoint">
<polygon fill="none" stroke="black" points="456.5,-0.5 456.5,-21.5 709.5,-21.5 709.5,-0.5 456.5,-0.5"/>
<text text-anchor="middle" x="583" y="-8.5" font-family="Helvetica,sans-Serif" font-size="10.00">SetupIoConnectionTargetToOriginatorConnectionPoint</text>
</a>
</g>
<!-- Node8&#45;&gt;Node9 -->
<g id="edge16" class="edge"><title>Node8&#45;&gt;Node9</title>
<path fill="none" stroke="midnightblue" d="M430.114,-11C438.717,-11 447.438,-11 456.126,-11"/>
<polygon fill="midnightblue" stroke="midnightblue" points="430.077,-7.5001 420.077,-11 430.077,-14.5001 430.077,-7.5001"/>
</g>
<!-- Node9&#45;&gt;Node4 -->
<g id="edge18" class="edge"><title>Node9&#45;&gt;Node4</title>
<path fill="none" stroke="midnightblue" d="M709.62,-22.4588C722.395,-23.615 734.877,-24.7445 746.362,-25.7839"/>
<polygon fill="midnightblue" stroke="midnightblue" points="709.6,-18.9428 699.325,-21.5271 708.969,-25.9143 709.6,-18.9428"/>
</g>
</g>
</svg>
        <g id="navigator" transform="translate(0 0)" fill="#404254">
                <rect fill="#f2f5e9" fill-opacity="0.5" stroke="#606060" stroke-width=".5" x="0" y="0" width="60" height="60"/>
                <use id="zoomplus" xlink:href="#zoomPlus" x="17" y="9" onmousedown="handleZoom(evt,'in')"/>
                <use id="zoomminus" xlink:href="#zoomMin" x="42" y="9" onmousedown="handleZoom(evt,'out')"/>
                <use id="reset" xlink:href="#resetDef" x="30" y="36" onmousedown="handleReset()"/>
                <g id="arrowUp" xlink:href="#dirArrow" transform="translate(30 24)" onmousedown="handlePan(0,-1)">
                  <use xlink:href="#rim" fill="#404040">
                        <set attributeName="fill" to="#808080" begin="arrowUp.mouseover" end="arrowUp.mouseout"/>
                  </use>
                  <path fill="none" stroke="white" stroke-width="1.5" d="M0,-3.0v7 M-2.5,-0.5L0,-3.0L2.5,-0.5"/>
                </g>
                <g id="arrowRight" xlink:href="#dirArrow" transform="rotate(90) translate(36 -43)" onmousedown="handlePan(1,0)">
                  <use xlink:href="#rim" fill="#404040">
                        <set attributeName="fill" to="#808080" begin="arrowRight.mouseover" end="arrowRight.mouseout"/>
                  </use>
                  <path fill="none" stroke="white" stroke-width="1.5" d="M0,-3.0v7 M-2.5,-0.5L0,-3.0L2.5,-0.5"/>
                </g>
                <g id="arrowDown" xlink:href="#dirArrow" transform="rotate(180) translate(-30 -48)" onmousedown="handlePan(0,1)">
                  <use xlink:href="#rim" fill="#404040">
                        <set attributeName="fill" to="#808080" begin="arrowDown.mouseover" end="arrowDown.mouseout"/>
                  </use>
                  <path fill="none" stroke="white" stroke-width="1.5" d="M0,-3.0v7 M-2.5,-0.5L0,-3.0L2.5,-0.5"/>
                </g>
                <g id="arrowLeft" xlink:href="#dirArrow" transform="rotate(270) translate(-36 17)" onmousedown="handlePan(-1,0)">
                  <use xlink:href="#rim" fill="#404040">
                        <set attributeName="fill" to="#808080" begin="arrowLeft.mouseover" end="arrowLeft.mouseout"/>
                  </use>
                  <path fill="none" stroke="white" stroke-width="1.5" d="M0,-3.0v7 M-2.5,-0.5L0,-3.0L2.5,-0.5"/>
                </g>
        </g>
</svg>
