<?xml version="1.0" encoding="UTF-8" standalone="no"?>
<!DOCTYPE svg PUBLIC "-//W3C//DTD SVG 1.1//EN"
 "http://www.w3.org/Graphics/SVG/1.1/DTD/svg11.dtd">
<!-- Generated by graphviz version 2.26.3 (20100126.1600)
 -->
<!-- Title: G Pages: 1 -->
<!--zoomable 110 -->
<svg id="main" version="1.1" xmlns="http://www.w3.org/2000/svg" xmlns:xlink="http://www.w3.org/1999/xlink" xml:space="preserve" onload="init(evt)">
        <defs>
                <circle id="rim" cx="0" cy="0" r="7"/>
                <circle id="rim2" cx="0" cy="0" r="3.5"/>
                <g id="zoomPlus">
                        <use xlink:href="#rim" fill="#404040">
                                <set attributeName="fill" to="#808080" begin="zoomplus.mouseover" end="zoomplus.mouseout"/>
                        </use>
                        <path d="M-4,0h8M0,-4v8" fill="none" stroke="white" stroke-width="1.5" pointer-events="none"/>
                </g>
                <g id="zoomMin">
                        <use xlink:href="#rim" fill="#404040">
                                <set attributeName="fill" to="#808080" begin="zoomminus.mouseover" end="zoomminus.mouseout"/>
                        </use>
                        <path d="M-4,0h8" fill="none" stroke="white" stroke-width="1.5" pointer-events="none"/>
                </g>
                <g id="dirArrow">
                        <path fill="none" stroke="white" stroke-width="1.5" d="M0,-3.0v7 M-2.5,-0.5L0,-3.0L2.5,-0.5"/>
                </g>
               <g id="resetDef">
                       <use xlink:href="#rim2" fill="#404040">
                               <set attributeName="fill" to="#808080" begin="reset.mouseover" end="reset.mouseout"/>
                       </use>
               </g>
        </defs>

<script type="text/javascript">
var viewWidth = 1730;
var viewHeight = 110;
var sectionId = 'dynsection-3';
</script>
<script xlink:href="../../svgpan.js"/>
<svg id="graph" class="graph">
<g id="viewport">
<title>G</title>
<!-- Node1 -->
<g id="node1" class="node"><title>Node1</title>
<polygon fill="#bfbfbf" stroke="black" points="0.5,-20.5 0.5,-41.5 303.5,-41.5 303.5,-20.5 0.5,-20.5"/>
<text text-anchor="middle" x="152" y="-28.5" font-family="Helvetica,sans-Serif" font-size="10.00">ConnectionObjectCalculateRegularInactivityWatchdogTimerValue</text>
</g>
<!-- Node2 -->
<g id="node3" class="node"><title>Node2</title>
<a xlink:href="../../d1/d6c/cipconnectionobject_8h.html#a1a249bd20f91d8bb584e02aa13182c2b" target="_top" xlink:title="ConnectionObjectResetInactivityWatchdogTimerValue">
<polygon fill="none" stroke="black" points="346,-40.5 346,-61.5 600,-61.5 600,-40.5 346,-40.5"/>
<text text-anchor="middle" x="473" y="-48.5" font-family="Helvetica,sans-Serif" font-size="10.00">ConnectionObjectResetInactivityWatchdogTimerValue</text>
</a>
</g>
<!-- Node1&#45;&gt;Node2 -->
<g id="edge2" class="edge"><title>Node1&#45;&gt;Node2</title>
<path fill="none" stroke="midnightblue" d="M313.841,-41.0836C324.558,-41.7513 335.267,-42.4185 345.777,-43.0733"/>
<polygon fill="midnightblue" stroke="midnightblue" points="313.768,-37.5723 303.57,-40.4436 313.333,-44.5588 313.768,-37.5723"/>
</g>
<!-- Node11 -->
<g id="node22" class="node"><title>Node11</title>
<a xlink:href="../../df/d91/cipconnectionobject_8c.html#aff88fa3ae6c57c3d9bee691560d9f670" target="_top" xlink:title="ConnectionObjectSetInitialInactivityWatchdogTimerValue">
<polygon fill="none" stroke="black" points="340,-0.5 340,-21.5 606,-21.5 606,-0.5 340,-0.5"/>
<text text-anchor="middle" x="473" y="-8.5" font-family="Helvetica,sans-Serif" font-size="10.00">ConnectionObjectSetInitialInactivityWatchdogTimerValue</text>
</a>
</g>
<!-- Node1&#45;&gt;Node11 -->
<g id="edge22" class="edge"><title>Node1&#45;&gt;Node11</title>
<path fill="none" stroke="midnightblue" d="M313.715,-20.9243C322.361,-20.3856 331.002,-19.8472 339.538,-19.3154"/>
<polygon fill="midnightblue" stroke="midnightblue" points="313.333,-17.4412 303.57,-21.5564 313.768,-24.4277 313.333,-17.4412"/>
</g>
<!-- Node3 -->
<g id="node5" class="node"><title>Node3</title>
<a xlink:href="../../d2/dc9/group__CIP__API.html#ga34f1582ed424a2c875b8a317d828e181" target="_top" xlink:title="Notify the connection manager that data for a connection has been received.">
<polygon fill="none" stroke="black" points="660.5,-80.5 660.5,-101.5 817.5,-101.5 817.5,-80.5 660.5,-80.5"/>
<text text-anchor="middle" x="739" y="-88.5" font-family="Helvetica,sans-Serif" font-size="10.00">HandleReceivedConnectedData</text>
</a>
</g>
<!-- Node2&#45;&gt;Node3 -->
<g id="edge4" class="edge"><title>Node2&#45;&gt;Node3</title>
<path fill="none" stroke="midnightblue" d="M553.125,-63.0489C590.072,-68.6047 633.521,-75.1385 669.117,-80.4913"/>
<polygon fill="midnightblue" stroke="midnightblue" points="553.298,-59.5356 542.888,-61.5095 552.257,-66.4577 553.298,-59.5356"/>
</g>
<!-- Node7 -->
<g id="node13" class="node"><title>Node7</title>
<a xlink:href="../../d4/d91/group__ENCAP.html#ga94ca28af85239d7dd63b3b044201fe51" target="_top" xlink:title="NotifyConnectedCommonPacketFormat">
<polygon fill="none" stroke="black" points="643.5,-40.5 643.5,-61.5 834.5,-61.5 834.5,-40.5 643.5,-40.5"/>
<text text-anchor="middle" x="739" y="-48.5" font-family="Helvetica,sans-Serif" font-size="10.00">NotifyConnectedCommonPacketFormat</text>
</a>
</g>
<!-- Node2&#45;&gt;Node7 -->
<g id="edge12" class="edge"><title>Node2&#45;&gt;Node7</title>
<path fill="none" stroke="midnightblue" d="M610.4,-51C621.552,-51 632.662,-51 643.416,-51"/>
<polygon fill="midnightblue" stroke="midnightblue" points="610.157,-47.5001 600.157,-51 610.157,-54.5001 610.157,-47.5001"/>
</g>
<!-- Node4 -->
<g id="node7" class="node"><title>Node4</title>
<a xlink:href="../../db/d4f/generic__networkhandler_8c.html#af0c95ade149818d252c292b489cfe190" target="_top" xlink:title="check if on one of the UDP consuming sockets data has been received and if yes handle it correctly...">
<polygon fill="none" stroke="black" points="1104.5,-80.5 1104.5,-101.5 1301.5,-101.5 1301.5,-80.5 1104.5,-80.5"/>
<text text-anchor="middle" x="1203" y="-88.5" font-family="Helvetica,sans-Serif" font-size="10.00">CheckAndHandleConsumingUdpSockets</text>
</a>
</g>
<!-- Node3&#45;&gt;Node4 -->
<g id="edge6" class="edge"><title>Node3&#45;&gt;Node4</title>
<path fill="none" stroke="midnightblue" d="M828.142,-91C907.261,-91 1022.67,-91 1104.5,-91"/>
<polygon fill="midnightblue" stroke="midnightblue" points="827.711,-87.5001 817.711,-91 827.711,-94.5001 827.711,-87.5001"/>
</g>
<!-- Node5 -->
<g id="node9" class="node"><title>Node5</title>
<a xlink:href="../../da/dc2/generic__networkhandler_8h.html#a2f01af81d3e5018d9980e2bc28c9078a" target="_top" xlink:title="NetworkHandlerProcessOnce">
<polygon fill="none" stroke="black" points="1502,-40.5 1502,-61.5 1648,-61.5 1648,-40.5 1502,-40.5"/>
<text text-anchor="middle" x="1575" y="-48.5" font-family="Helvetica,sans-Serif" font-size="10.00">NetworkHandlerProcessOnce</text>
</a>
</g>
<!-- Node4&#45;&gt;Node5 -->
<g id="edge8" class="edge"><title>Node4&#45;&gt;Node5</title>
<path fill="none" stroke="midnightblue" d="M1311.6,-85.3255C1359.12,-82.1767 1415.44,-77.5422 1466,-71 1484.99,-68.5434 1505.68,-64.9751 1523.88,-61.5304"/>
<polygon fill="midnightblue" stroke="midnightblue" points="1311.36,-81.8341 1301.6,-85.975 1311.81,-88.8194 1311.36,-81.8341"/>
</g>
<!-- Node6 -->
<g id="node11" class="node"><title>Node6</title>
<a xlink:href="../../d9/dfb/POSIX_2main_8c.html#ad338a7dbc41dc40bcecd0479377ef207" target="_top" xlink:title="main">
<polygon fill="none" stroke="black" points="1684,-20.5 1684,-41.5 1722,-41.5 1722,-20.5 1684,-20.5"/>
<text text-anchor="middle" x="1703" y="-28.5" font-family="Helvetica,sans-Serif" font-size="10.00">main</text>
</a>
</g>
<!-- Node5&#45;&gt;Node6 -->
<g id="edge10" class="edge"><title>Node5&#45;&gt;Node6</title>
<path fill="none" stroke="midnightblue" d="M1652.34,-38.9158C1664.07,-37.0826 1675.18,-35.3472 1683.99,-33.9711"/>
<polygon fill="midnightblue" stroke="midnightblue" points="1651.71,-35.471 1642.37,-40.4729 1652.79,-42.3871 1651.71,-35.471"/>
</g>
<!-- Node8 -->
<g id="node15" class="node"><title>Node8</title>
<a xlink:href="../../d2/dbd/encap_8c.html#a2a5e809a74a56268ad9f51638796fb3d" target="_top" xlink:title="Call Connection Manager.">
<polygon fill="none" stroke="black" points="872.5,-40.5 872.5,-61.5 1067.5,-61.5 1067.5,-40.5 872.5,-40.5"/>
<text text-anchor="middle" x="970" y="-48.5" font-family="Helvetica,sans-Serif" font-size="10.00">HandleReceivedSendUnitDataCommand</text>
</a>
</g>
<!-- Node7&#45;&gt;Node8 -->
<g id="edge14" class="edge"><title>Node7&#45;&gt;Node8</title>
<path fill="none" stroke="midnightblue" d="M844.864,-51C853.976,-51 863.167,-51 872.21,-51"/>
<polygon fill="midnightblue" stroke="midnightblue" points="844.624,-47.5001 834.624,-51 844.624,-54.5001 844.624,-47.5001"/>
</g>
<!-- Node9 -->
<g id="node17" class="node"><title>Node9</title>
<a xlink:href="../../d2/dc9/group__CIP__API.html#gadeace7aa415ce7da686b522c85d131d1" target="_top" xlink:title="Notify the encapsulation layer that an explicit message has been received via TCP.">
<polygon fill="none" stroke="black" points="1125,-40.5 1125,-61.5 1281,-61.5 1281,-40.5 1125,-40.5"/>
<text text-anchor="middle" x="1203" y="-48.5" font-family="Helvetica,sans-Serif" font-size="10.00">HandleReceivedExplictTcpData</text>
</a>
</g>
<!-- Node8&#45;&gt;Node9 -->
<g id="edge16" class="edge"><title>Node8&#45;&gt;Node9</title>
<path fill="none" stroke="midnightblue" d="M1078.13,-51C1093.9,-51 1109.88,-51 1124.91,-51"/>
<polygon fill="midnightblue" stroke="midnightblue" points="1077.8,-47.5001 1067.8,-51 1077.8,-54.5001 1077.8,-47.5001"/>
</g>
<!-- Node10 -->
<g id="node19" class="node"><title>Node10</title>
<a xlink:href="../../db/d4f/generic__networkhandler_8c.html#aca5593b7dd39d7a7b437999a367102d6" target="_top" xlink:title="Handles data on an established TCP connection, processed connection is given by socket.">
<polygon fill="none" stroke="black" points="1338,-40.5 1338,-61.5 1466,-61.5 1466,-40.5 1338,-40.5"/>
<text text-anchor="middle" x="1402" y="-48.5" font-family="Helvetica,sans-Serif" font-size="10.00">HandleDataOnTcpSocket</text>
</a>
</g>
<!-- Node9&#45;&gt;Node10 -->
<g id="edge18" class="edge"><title>Node9&#45;&gt;Node10</title>
<path fill="none" stroke="midnightblue" d="M1291.32,-51C1307.01,-51 1323.08,-51 1337.94,-51"/>
<polygon fill="midnightblue" stroke="midnightblue" points="1291.08,-47.5001 1281.08,-51 1291.08,-54.5001 1291.08,-47.5001"/>
</g>
<!-- Node10&#45;&gt;Node5 -->
<g id="edge20" class="edge"><title>Node10&#45;&gt;Node5</title>
<path fill="none" stroke="midnightblue" d="M1476.53,-51C1484.91,-51 1493.43,-51 1501.79,-51"/>
<polygon fill="midnightblue" stroke="midnightblue" points="1476.42,-47.5001 1466.42,-51 1476.42,-54.5001 1476.42,-47.5001"/>
</g>
<!-- Node12 -->
<g id="node24" class="node"><title>Node12</title>
<a xlink:href="../../d1/d6c/cipconnectionobject_8h.html#ad1ae63909621ed91670ae33862edd214" target="_top" xlink:title="ConnectionObjectInitializeFromMessage">
<polygon fill="none" stroke="black" points="642.5,-0.5 642.5,-21.5 835.5,-21.5 835.5,-0.5 642.5,-0.5"/>
<text text-anchor="middle" x="739" y="-8.5" font-family="Helvetica,sans-Serif" font-size="10.00">ConnectionObjectInitializeFromMessage</text>
</a>
</g>
<!-- Node11&#45;&gt;Node12 -->
<g id="edge24" class="edge"><title>Node11&#45;&gt;Node12</title>
<path fill="none" stroke="midnightblue" d="M616.552,-11C625.192,-11 633.773,-11 642.147,-11"/>
<polygon fill="midnightblue" stroke="midnightblue" points="616.39,-7.5001 606.39,-11 616.39,-14.5001 616.39,-7.5001"/>
</g>
<!-- Node13 -->
<g id="node26" class="node"><title>Node13</title>
<a xlink:href="../../d5/d35/cipconnectionmanager_8c.html#aa7b5f5390e3872191f824a666d50ef80" target="_top" xlink:title="Check if resources for new connection available, generate ForwardOpen Reply message.">
<polygon fill="none" stroke="black" points="932.5,-0.5 932.5,-21.5 1007.5,-21.5 1007.5,-0.5 932.5,-0.5"/>
<text text-anchor="middle" x="970" y="-8.5" font-family="Helvetica,sans-Serif" font-size="10.00">ForwardOpen</text>
</a>
</g>
<!-- Node12&#45;&gt;Node13 -->
<g id="edge26" class="edge"><title>Node12&#45;&gt;Node13</title>
<path fill="none" stroke="midnightblue" d="M845.676,-11C876.759,-11 908.698,-11 932.42,-11"/>
<polygon fill="midnightblue" stroke="midnightblue" points="845.626,-7.5001 835.626,-11 845.626,-14.5001 845.626,-7.5001"/>
</g>
<!-- Node14 -->
<g id="node28" class="node"><title>Node14</title>
<a xlink:href="../../d2/da3/cipconnectionmanager_8h.html#a5ab0de6894d23e8fe84a6b46797c2212" target="_top" xlink:title="Initialize the data of the connection manager object.">
<polygon fill="none" stroke="black" points="1343.5,-0.5 1343.5,-21.5 1460.5,-21.5 1460.5,-0.5 1343.5,-0.5"/>
<text text-anchor="middle" x="1402" y="-8.5" font-family="Helvetica,sans-Serif" font-size="10.00">ConnectionManagerInit</text>
</a>
</g>
<!-- Node13&#45;&gt;Node14 -->
<g id="edge28" class="edge"><title>Node13&#45;&gt;Node14</title>
<path fill="none" stroke="midnightblue" d="M1017.8,-11C1097.38,-11 1256.78,-11 1343.14,-11"/>
<polygon fill="midnightblue" stroke="midnightblue" points="1017.58,-7.5001 1007.58,-11 1017.58,-14.5001 1017.58,-7.5001"/>
</g>
<!-- Node15 -->
<g id="node30" class="node"><title>Node15</title>
<a xlink:href="../../d2/dc9/group__CIP__API.html#ga5d4979945d124e28668b264c3823db1c" target="_top" xlink:title="Initialize and setup the CIP&#45;stack.">
<polygon fill="none" stroke="black" points="1539.5,-0.5 1539.5,-21.5 1610.5,-21.5 1610.5,-0.5 1539.5,-0.5"/>
<text text-anchor="middle" x="1575" y="-8.5" font-family="Helvetica,sans-Serif" font-size="10.00">CipStackInit</text>
</a>
</g>
<!-- Node14&#45;&gt;Node15 -->
<g id="edge30" class="edge"><title>Node14&#45;&gt;Node15</title>
<path fill="none" stroke="midnightblue" d="M1470.86,-11C1494.35,-11 1519.66,-11 1539.45,-11"/>
<polygon fill="midnightblue" stroke="midnightblue" points="1470.57,-7.5001 1460.57,-11 1470.57,-14.5001 1470.57,-7.5001"/>
</g>
<!-- Node15&#45;&gt;Node6 -->
<g id="edge32" class="edge"><title>Node15&#45;&gt;Node6</title>
<path fill="none" stroke="midnightblue" d="M1620.68,-18.138C1642.37,-21.5264 1667.12,-25.3934 1683.77,-27.995"/>
<polygon fill="midnightblue" stroke="midnightblue" points="1621.08,-14.6569 1610.66,-16.5711 1619.99,-21.573 1621.08,-14.6569"/>
</g>
</g>
</svg>
        <g id="navigator" transform="translate(0 0)" fill="#404254">
                <rect fill="#f2f5e9" fill-opacity="0.5" stroke="#606060" stroke-width=".5" x="0" y="0" width="60" height="60"/>
                <use id="zoomplus" xlink:href="#zoomPlus" x="17" y="9" onmousedown="handleZoom(evt,'in')"/>
                <use id="zoomminus" xlink:href="#zoomMin" x="42" y="9" onmousedown="handleZoom(evt,'out')"/>
                <use id="reset" xlink:href="#resetDef" x="30" y="36" onmousedown="handleReset()"/>
                <g id="arrowUp" xlink:href="#dirArrow" transform="translate(30 24)" onmousedown="handlePan(0,-1)">
                  <use xlink:href="#rim" fill="#404040">
                        <set attributeName="fill" to="#808080" begin="arrowUp.mouseover" end="arrowUp.mouseout"/>
                  </use>
                  <path fill="none" stroke="white" stroke-width="1.5" d="M0,-3.0v7 M-2.5,-0.5L0,-3.0L2.5,-0.5"/>
                </g>
                <g id="arrowRight" xlink:href="#dirArrow" transform="rotate(90) translate(36 -43)" onmousedown="handlePan(1,0)">
                  <use xlink:href="#rim" fill="#404040">
                        <set attributeName="fill" to="#808080" begin="arrowRight.mouseover" end="arrowRight.mouseout"/>
                  </use>
                  <path fill="none" stroke="white" stroke-width="1.5" d="M0,-3.0v7 M-2.5,-0.5L0,-3.0L2.5,-0.5"/>
                </g>
                <g id="arrowDown" xlink:href="#dirArrow" transform="rotate(180) translate(-30 -48)" onmousedown="handlePan(0,1)">
                  <use xlink:href="#rim" fill="#404040">
                        <set attributeName="fill" to="#808080" begin="arrowDown.mouseover" end="arrowDown.mouseout"/>
                  </use>
                  <path fill="none" stroke="white" stroke-width="1.5" d="M0,-3.0v7 M-2.5,-0.5L0,-3.0L2.5,-0.5"/>
                </g>
                <g id="arrowLeft" xlink:href="#dirArrow" transform="rotate(270) translate(-36 17)" onmousedown="handlePan(-1,0)">
                  <use xlink:href="#rim" fill="#404040">
                        <set attributeName="fill" to="#808080" begin="arrowLeft.mouseover" end="arrowLeft.mouseout"/>
                  </use>
                  <path fill="none" stroke="white" stroke-width="1.5" d="M0,-3.0v7 M-2.5,-0.5L0,-3.0L2.5,-0.5"/>
                </g>
        </g>
</svg>
