<?xml version="1.0" encoding="UTF-8" standalone="no"?>
<!DOCTYPE svg PUBLIC "-//W3C//DTD SVG 1.1//EN"
 "http://www.w3.org/Graphics/SVG/1.1/DTD/svg11.dtd">
<!-- Generated by graphviz version 2.36.0 (20140111.2315)
 -->
<!-- Title: src/cip/cipioconnection.h Pages: 1 -->
<svg width="700pt" height="364pt"
 viewBox="0.00 0.00 700.00 364.00" xmlns="http://www.w3.org/2000/svg" xmlns:xlink="http://www.w3.org/1999/xlink">
<g id="graph0" class="graph" transform="scale(1 1) rotate(0) translate(4 360)">
<title>src/cip/cipioconnection.h</title>
<!-- Node1 -->
<g id="node1" class="node"><title>Node1</title>
<polygon fill="#bfbfbf" stroke="black" points="249.5,-336.5 249.5,-355.5 374.5,-355.5 374.5,-336.5 249.5,-336.5"/>
<text text-anchor="middle" x="312" y="-343.5" font-family="Helvetica,sans-Serif" font-size="10.00">src/cip/cipioconnection.h</text>
</g>
<!-- Node2 -->
<g id="node2" class="node"><title>Node2</title>
<g id="a_node2"><a xlink:href="../../d4/d38/opener__api_8h.html" target="_top" xlink:title="opener_api.h">
<polygon fill="none" stroke="black" points="187,-168.5 187,-187.5 259,-187.5 259,-168.5 187,-168.5"/>
<text text-anchor="middle" x="223" y="-175.5" font-family="Helvetica,sans-Serif" font-size="10.00">opener_api.h</text>
</a>
</g>
</g>
<!-- Node1&#45;&gt;Node2 -->
<g id="edge1" class="edge"><title>Node1&#45;&gt;Node2</title>
<path fill="none" stroke="midnightblue" d="M289.383,-336.401C273.514,-329.153 253.202,-317.187 242,-300 221.561,-268.639 220.247,-223.192 221.421,-197.861"/>
<polygon fill="midnightblue" stroke="midnightblue" points="224.921,-197.967 222.075,-187.761 217.936,-197.514 224.921,-197.967"/>
</g>
<!-- Node13 -->
<g id="node13" class="node"><title>Node13</title>
<g id="a_node13"><a xlink:href="../../d2/da3/cipconnectionmanager_8h.html" target="_top" xlink:title="cipconnectionmanager.h">
<polygon fill="none" stroke="black" points="251,-280.5 251,-299.5 373,-299.5 373,-280.5 251,-280.5"/>
<text text-anchor="middle" x="312" y="-287.5" font-family="Helvetica,sans-Serif" font-size="10.00">cipconnectionmanager.h</text>
</a>
</g>
</g>
<!-- Node1&#45;&gt;Node13 -->
<g id="edge16" class="edge"><title>Node1&#45;&gt;Node13</title>
<path fill="none" stroke="midnightblue" d="M312,-336.083C312,-329.006 312,-318.861 312,-309.986"/>
<polygon fill="midnightblue" stroke="midnightblue" points="315.5,-309.751 312,-299.751 308.5,-309.751 315.5,-309.751"/>
</g>
<!-- Node14 -->
<g id="node14" class="node"><title>Node14</title>
<g id="a_node14"><a xlink:href="../../d1/d6c/cipconnectionobject_8h.html" target="_top" xlink:title="cipconnectionobject.h">
<polygon fill="none" stroke="black" points="417.5,-224.5 417.5,-243.5 528.5,-243.5 528.5,-224.5 417.5,-224.5"/>
<text text-anchor="middle" x="473" y="-231.5" font-family="Helvetica,sans-Serif" font-size="10.00">cipconnectionobject.h</text>
</a>
</g>
</g>
<!-- Node1&#45;&gt;Node14 -->
<g id="edge34" class="edge"><title>Node1&#45;&gt;Node14</title>
<path fill="none" stroke="midnightblue" d="M325.811,-336.401C340.024,-327.486 362.747,-313.053 382,-300 406.858,-283.147 434.901,-262.928 453.203,-249.564"/>
<polygon fill="midnightblue" stroke="midnightblue" points="455.349,-252.331 461.349,-243.6 451.213,-246.684 455.349,-252.331"/>
</g>
<!-- Node3 -->
<g id="node3" class="node"><title>Node3</title>
<polygon fill="none" stroke="#bfbfbf" points="66,-112.5 66,-131.5 118,-131.5 118,-112.5 66,-112.5"/>
<text text-anchor="middle" x="92" y="-119.5" font-family="Helvetica,sans-Serif" font-size="10.00">assert.h</text>
</g>
<!-- Node2&#45;&gt;Node3 -->
<g id="edge2" class="edge"><title>Node2&#45;&gt;Node3</title>
<path fill="none" stroke="midnightblue" d="M202.243,-168.444C180.684,-159.557 146.737,-145.563 122.206,-135.451"/>
<polygon fill="midnightblue" stroke="midnightblue" points="123.239,-132.092 112.66,-131.516 120.572,-138.563 123.239,-132.092"/>
</g>
<!-- Node4 -->
<g id="node4" class="node"><title>Node4</title>
<polygon fill="none" stroke="#bfbfbf" points="494,-0.5 494,-19.5 550,-19.5 550,-0.5 494,-0.5"/>
<text text-anchor="middle" x="522" y="-7.5" font-family="Helvetica,sans-Serif" font-size="10.00">stdbool.h</text>
</g>
<!-- Node2&#45;&gt;Node4 -->
<g id="edge3" class="edge"><title>Node2&#45;&gt;Node4</title>
<path fill="none" stroke="midnightblue" d="M222.471,-168.265C221.193,-154.581 216.834,-128.003 202,-112 170.485,-78.0004 82.856,-90.3393 114,-56 169.201,4.8644 400.874,-33.0434 482,-20 482.593,-19.9047 483.19,-19.8058 483.791,-19.7038"/>
<polygon fill="midnightblue" stroke="midnightblue" points="484.505,-23.1309 493.677,-17.8279 483.2,-16.2537 484.505,-23.1309"/>
</g>
<!-- Node5 -->
<g id="node5" class="node"><title>Node5</title>
<g id="a_node5"><a xlink:href="../../d7/d69/typedefs_8h.html" target="_top" xlink:title="typedefs.h">
<polygon fill="none" stroke="black" points="415,-56.5 415,-75.5 477,-75.5 477,-56.5 415,-56.5"/>
<text text-anchor="middle" x="446" y="-63.5" font-family="Helvetica,sans-Serif" font-size="10.00">typedefs.h</text>
</a>
</g>
</g>
<!-- Node2&#45;&gt;Node5 -->
<g id="edge4" class="edge"><title>Node2&#45;&gt;Node5</title>
<path fill="none" stroke="midnightblue" d="M228.011,-168.386C236.613,-154.379 255.548,-126.75 279,-112 317.634,-87.7015 369.263,-76.3933 404.835,-71.2155"/>
<polygon fill="midnightblue" stroke="midnightblue" points="405.433,-74.6665 414.873,-69.8548 404.493,-67.73 405.433,-74.6665"/>
</g>
<!-- Node8 -->
<g id="node8" class="node"><title>Node8</title>
<g id="a_node8"><a xlink:href="../../df/d28/ciptypes_8h.html" target="_top" xlink:title="ciptypes.h">
<polygon fill="none" stroke="black" points="288,-112.5 288,-131.5 350,-131.5 350,-112.5 288,-112.5"/>
<text text-anchor="middle" x="319" y="-119.5" font-family="Helvetica,sans-Serif" font-size="10.00">ciptypes.h</text>
</a>
</g>
</g>
<!-- Node2&#45;&gt;Node8 -->
<g id="edge8" class="edge"><title>Node2&#45;&gt;Node8</title>
<path fill="none" stroke="midnightblue" d="M238.424,-168.324C253.54,-159.822 276.815,-146.729 294.471,-136.797"/>
<polygon fill="midnightblue" stroke="midnightblue" points="296.614,-139.608 303.614,-131.655 293.183,-133.507 296.614,-139.608"/>
</g>
<!-- Node11 -->
<g id="node11" class="node"><title>Node11</title>
<polygon fill="none" stroke="#bfbfbf" points="114,-0.5 114,-19.5 216,-19.5 216,-0.5 114,-0.5"/>
<text text-anchor="middle" x="165" y="-7.5" font-family="Helvetica,sans-Serif" font-size="10.00">opener_user_conf.h</text>
</g>
<!-- Node2&#45;&gt;Node11 -->
<g id="edge15" class="edge"><title>Node2&#45;&gt;Node11</title>
<path fill="none" stroke="midnightblue" d="M186.915,-172.346C142.985,-165.853 72.6935,-152.514 57,-132 40.6262,-110.597 66.6219,-71.6855 81,-56 94.2701,-41.5234 113.294,-30.7968 129.883,-23.4551"/>
<polygon fill="midnightblue" stroke="midnightblue" points="131.427,-26.6032 139.307,-19.5208 128.73,-20.1435 131.427,-26.6032"/>
</g>
<!-- Node12 -->
<g id="node12" class="node"><title>Node12</title>
<g id="a_node12"><a xlink:href="../../d6/d52/ciperror_8h.html" target="_top" xlink:title="ciperror.h">
<polygon fill="none" stroke="black" points="136.5,-112.5 136.5,-131.5 193.5,-131.5 193.5,-112.5 136.5,-112.5"/>
<text text-anchor="middle" x="165" y="-119.5" font-family="Helvetica,sans-Serif" font-size="10.00">ciperror.h</text>
</a>
</g>
</g>
<!-- Node2&#45;&gt;Node12 -->
<g id="edge14" class="edge"><title>Node2&#45;&gt;Node12</title>
<path fill="none" stroke="midnightblue" d="M213.681,-168.324C205.107,-160.341 192.188,-148.313 181.812,-138.653"/>
<polygon fill="midnightblue" stroke="midnightblue" points="184.192,-136.086 174.488,-131.834 179.422,-141.21 184.192,-136.086"/>
</g>
<!-- Node5&#45;&gt;Node4 -->
<g id="edge7" class="edge"><title>Node5&#45;&gt;Node4</title>
<path fill="none" stroke="midnightblue" d="M458.211,-56.324C469.776,-48.1066 487.375,-35.6017 501.161,-25.8069"/>
<polygon fill="midnightblue" stroke="midnightblue" points="503.443,-28.4791 509.567,-19.8339 499.388,-22.7729 503.443,-28.4791"/>
</g>
<!-- Node6 -->
<g id="node6" class="node"><title>Node6</title>
<polygon fill="none" stroke="#bfbfbf" points="343.5,-0.5 343.5,-19.5 402.5,-19.5 402.5,-0.5 343.5,-0.5"/>
<text text-anchor="middle" x="373" y="-7.5" font-family="Helvetica,sans-Serif" font-size="10.00">inttypes.h</text>
</g>
<!-- Node5&#45;&gt;Node6 -->
<g id="edge5" class="edge"><title>Node5&#45;&gt;Node6</title>
<path fill="none" stroke="midnightblue" d="M434.271,-56.324C423.163,-48.1066 406.258,-35.6017 393.017,-25.8069"/>
<polygon fill="midnightblue" stroke="midnightblue" points="395.063,-22.9671 384.942,-19.8339 390.9,-28.5948 395.063,-22.9671"/>
</g>
<!-- Node7 -->
<g id="node7" class="node"><title>Node7</title>
<polygon fill="none" stroke="#bfbfbf" points="421,-0.5 421,-19.5 473,-19.5 473,-0.5 421,-0.5"/>
<text text-anchor="middle" x="447" y="-7.5" font-family="Helvetica,sans-Serif" font-size="10.00">stddef.h</text>
</g>
<!-- Node5&#45;&gt;Node7 -->
<g id="edge6" class="edge"><title>Node5&#45;&gt;Node7</title>
<path fill="none" stroke="midnightblue" d="M446.165,-56.083C446.296,-49.0059 446.484,-38.8611 446.648,-29.9865"/>
<polygon fill="midnightblue" stroke="midnightblue" points="450.152,-29.8142 446.838,-19.7511 443.153,-29.6845 450.152,-29.8142"/>
</g>
<!-- Node8&#45;&gt;Node5 -->
<g id="edge9" class="edge"><title>Node8&#45;&gt;Node5</title>
<path fill="none" stroke="midnightblue" d="M339.124,-112.444C360.024,-103.557 392.935,-89.5632 416.716,-79.4514"/>
<polygon fill="midnightblue" stroke="midnightblue" points="418.138,-82.6504 425.971,-75.5164 415.398,-76.2085 418.138,-82.6504"/>
</g>
<!-- Node9 -->
<g id="node9" class="node"><title>Node9</title>
<polygon fill="none" stroke="#bfbfbf" points="224.5,-56.5 224.5,-75.5 315.5,-75.5 315.5,-56.5 224.5,-56.5"/>
<text text-anchor="middle" x="270" y="-63.5" font-family="Helvetica,sans-Serif" font-size="10.00">networkhandler.h</text>
</g>
<!-- Node8&#45;&gt;Node9 -->
<g id="edge10" class="edge"><title>Node8&#45;&gt;Node9</title>
<path fill="none" stroke="midnightblue" d="M310.909,-112.083C303.845,-104.298 293.412,-92.8015 284.851,-83.3665"/>
<polygon fill="midnightblue" stroke="midnightblue" points="287.253,-80.8047 277.941,-75.7511 282.069,-85.5087 287.253,-80.8047"/>
</g>
<!-- Node10 -->
<g id="node10" class="node"><title>Node10</title>
<g id="a_node10"><a xlink:href="../../d8/d2c/enipmessage_8h.html" target="_top" xlink:title="enipmessage.h">
<polygon fill="none" stroke="black" points="123.5,-56.5 123.5,-75.5 206.5,-75.5 206.5,-56.5 123.5,-56.5"/>
<text text-anchor="middle" x="165" y="-63.5" font-family="Helvetica,sans-Serif" font-size="10.00">enipmessage.h</text>
</a>
</g>
</g>
<!-- Node8&#45;&gt;Node10 -->
<g id="edge11" class="edge"><title>Node8&#45;&gt;Node10</title>
<path fill="none" stroke="midnightblue" d="M294.598,-112.444C268.803,-103.399 227.923,-89.064 198.982,-78.9158"/>
<polygon fill="midnightblue" stroke="midnightblue" points="199.882,-75.5226 189.288,-75.5164 197.566,-82.1283 199.882,-75.5226"/>
</g>
<!-- Node8&#45;&gt;Node11 -->
<g id="edge13" class="edge"><title>Node8&#45;&gt;Node11</title>
<path fill="none" stroke="midnightblue" d="M322.945,-112.409C328.483,-98.9223 336.562,-72.6101 324,-56 311.916,-40.0212 265.692,-28.0835 226.177,-20.5335"/>
<polygon fill="midnightblue" stroke="midnightblue" points="226.769,-17.0838 216.3,-18.7088 225.497,-23.9673 226.769,-17.0838"/>
</g>
<!-- Node10&#45;&gt;Node11 -->
<g id="edge12" class="edge"><title>Node10&#45;&gt;Node11</title>
<path fill="none" stroke="midnightblue" d="M165,-56.083C165,-49.0059 165,-38.8611 165,-29.9865"/>
<polygon fill="midnightblue" stroke="midnightblue" points="168.5,-29.751 165,-19.7511 161.5,-29.7511 168.5,-29.751"/>
</g>
<!-- Node13&#45;&gt;Node2 -->
<g id="edge18" class="edge"><title>Node13&#45;&gt;Node2</title>
<path fill="none" stroke="midnightblue" d="M305.016,-280.368C290.264,-262.135 255.708,-219.426 236.492,-195.675"/>
<polygon fill="midnightblue" stroke="midnightblue" points="238.962,-193.164 229.951,-187.591 233.52,-197.567 238.962,-193.164"/>
</g>
<!-- Node13&#45;&gt;Node5 -->
<g id="edge19" class="edge"><title>Node13&#45;&gt;Node5</title>
<path fill="none" stroke="midnightblue" d="M317.253,-280.297C337.178,-247.286 408.333,-129.404 435.424,-84.522"/>
<polygon fill="midnightblue" stroke="midnightblue" points="438.467,-86.2537 440.638,-75.8837 432.474,-82.6364 438.467,-86.2537"/>
</g>
<!-- Node13&#45;&gt;Node8 -->
<g id="edge20" class="edge"><title>Node13&#45;&gt;Node8</title>
<path fill="none" stroke="midnightblue" d="M312.376,-280.075C313.478,-253.945 316.714,-177.211 318.217,-141.577"/>
<polygon fill="midnightblue" stroke="midnightblue" points="321.714,-141.707 318.639,-131.568 314.72,-141.412 321.714,-141.707"/>
</g>
<!-- Node13&#45;&gt;Node11 -->
<g id="edge17" class="edge"><title>Node13&#45;&gt;Node11</title>
<path fill="none" stroke="midnightblue" d="M252.581,-280.45C162.057,-265.732 0,-231.983 0,-179 0,-179 0,-179 0,-121 0,-65.4395 65.5712,-36.2152 114.042,-22.2025"/>
<polygon fill="midnightblue" stroke="midnightblue" points="115.077,-25.5478 123.789,-19.5193 113.219,-18.7989 115.077,-25.5478"/>
</g>
<!-- Node13&#45;&gt;Node14 -->
<g id="edge21" class="edge"><title>Node13&#45;&gt;Node14</title>
<path fill="none" stroke="midnightblue" d="M337.511,-280.444C364.596,-271.359 407.59,-256.939 437.869,-246.783"/>
<polygon fill="midnightblue" stroke="midnightblue" points="439.24,-250.015 447.608,-243.516 437.014,-243.378 439.24,-250.015"/>
</g>
<!-- Node14&#45;&gt;Node2 -->
<g id="edge25" class="edge"><title>Node14&#45;&gt;Node2</title>
<path fill="none" stroke="midnightblue" d="M433.387,-224.444C388.749,-214.802 316.283,-199.149 269.131,-188.964"/>
<polygon fill="midnightblue" stroke="midnightblue" points="269.695,-185.505 259.181,-186.815 268.217,-192.348 269.695,-185.505"/>
</g>
<!-- Node14&#45;&gt;Node5 -->
<g id="edge22" class="edge"><title>Node14&#45;&gt;Node5</title>
<path fill="none" stroke="midnightblue" d="M471.548,-224.075C467.298,-197.945 454.817,-121.211 449.022,-85.577"/>
<polygon fill="midnightblue" stroke="midnightblue" points="452.454,-84.8765 447.394,-75.5681 445.544,-86.0003 452.454,-84.8765"/>
</g>
<!-- Node14&#45;&gt;Node8 -->
<g id="edge23" class="edge"><title>Node14&#45;&gt;Node8</title>
<path fill="none" stroke="midnightblue" d="M438.894,-224.432C415.953,-217.421 385.997,-205.73 364,-188 348.024,-175.123 335.361,-155.119 327.59,-140.703"/>
<polygon fill="midnightblue" stroke="midnightblue" points="330.687,-139.073 323.01,-131.772 324.458,-142.267 330.687,-139.073"/>
</g>
<!-- Node14&#45;&gt;Node11 -->
<g id="edge24" class="edge"><title>Node14&#45;&gt;Node11</title>
<path fill="none" stroke="midnightblue" d="M469.247,-224.36C456.257,-195.521 410.239,-101.819 342,-56 307.593,-32.8971 262.177,-21.6548 225.965,-16.1843"/>
<polygon fill="midnightblue" stroke="midnightblue" points="226.401,-12.7113 216.012,-14.7893 225.429,-19.6435 226.401,-12.7113"/>
</g>
<!-- Node15 -->
<g id="node15" class="node"><title>Node15</title>
<g id="a_node15"><a xlink:href="../../d9/d31/doublylinkedlist_8h.html" target="_top" xlink:title="doublylinkedlist.h">
<polygon fill="none" stroke="black" points="520,-168.5 520,-187.5 612,-187.5 612,-168.5 520,-168.5"/>
<text text-anchor="middle" x="566" y="-175.5" font-family="Helvetica,sans-Serif" font-size="10.00">doublylinkedlist.h</text>
</a>
</g>
</g>
<!-- Node14&#45;&gt;Node15 -->
<g id="edge26" class="edge"><title>Node14&#45;&gt;Node15</title>
<path fill="none" stroke="midnightblue" d="M487.942,-224.324C502.585,-215.822 525.134,-202.729 542.238,-192.797"/>
<polygon fill="midnightblue" stroke="midnightblue" points="544.205,-195.703 551.095,-187.655 540.69,-189.649 544.205,-195.703"/>
</g>
<!-- Node16 -->
<g id="node16" class="node"><title>Node16</title>
<g id="a_node16"><a xlink:href="../../d0/d23/cipelectronickey_8h.html" target="_top" xlink:title="cipelectronickey.h">
<polygon fill="none" stroke="black" points="482.5,-112.5 482.5,-131.5 577.5,-131.5 577.5,-112.5 482.5,-112.5"/>
<text text-anchor="middle" x="530" y="-119.5" font-family="Helvetica,sans-Serif" font-size="10.00">cipelectronickey.h</text>
</a>
</g>
</g>
<!-- Node14&#45;&gt;Node16 -->
<g id="edge27" class="edge"><title>Node14&#45;&gt;Node16</title>
<path fill="none" stroke="midnightblue" d="M477.473,-224.368C486.796,-206.376 508.469,-164.55 520.866,-140.627"/>
<polygon fill="midnightblue" stroke="midnightblue" points="524.055,-142.081 525.548,-131.591 517.84,-138.86 524.055,-142.081"/>
</g>
<!-- Node17 -->
<g id="node17" class="node"><title>Node17</title>
<g id="a_node17"><a xlink:href="../../d1/d02/cipepath_8h.html" target="_top" xlink:title="cipepath.h">
<polygon fill="none" stroke="black" points="630,-168.5 630,-187.5 692,-187.5 692,-168.5 630,-168.5"/>
<text text-anchor="middle" x="661" y="-175.5" font-family="Helvetica,sans-Serif" font-size="10.00">cipepath.h</text>
</a>
</g>
</g>
<!-- Node14&#45;&gt;Node17 -->
<g id="edge30" class="edge"><title>Node14&#45;&gt;Node17</title>
<path fill="none" stroke="midnightblue" d="M502.789,-224.444C534.829,-215.241 585.933,-200.562 621.353,-190.388"/>
<polygon fill="midnightblue" stroke="midnightblue" points="622.705,-193.641 631.35,-187.516 620.773,-186.913 622.705,-193.641"/>
</g>
<!-- Node16&#45;&gt;Node4 -->
<g id="edge28" class="edge"><title>Node16&#45;&gt;Node4</title>
<path fill="none" stroke="midnightblue" d="M529.372,-112.368C528.081,-94.617 525.103,-53.6664 523.353,-29.5974"/>
<polygon fill="midnightblue" stroke="midnightblue" points="526.841,-29.3112 522.625,-19.5914 519.859,-29.819 526.841,-29.3112"/>
</g>
<!-- Node16&#45;&gt;Node5 -->
<g id="edge29" class="edge"><title>Node16&#45;&gt;Node5</title>
<path fill="none" stroke="midnightblue" d="M516.504,-112.324C503.4,-103.9 483.288,-90.9709 467.893,-81.0741"/>
<polygon fill="midnightblue" stroke="midnightblue" points="469.767,-78.118 459.463,-75.6545 465.982,-84.0063 469.767,-78.118"/>
</g>
<!-- Node17&#45;&gt;Node4 -->
<g id="edge31" class="edge"><title>Node17&#45;&gt;Node4</title>
<path fill="none" stroke="midnightblue" d="M653.527,-168.075C631.173,-141.38 564.592,-61.865 535.667,-27.3218"/>
<polygon fill="midnightblue" stroke="midnightblue" points="538.278,-24.9882 529.175,-19.5681 532.911,-29.4822 538.278,-24.9882"/>
</g>
<!-- Node17&#45;&gt;Node8 -->
<g id="edge32" class="edge"><title>Node17&#45;&gt;Node8</title>
<path fill="none" stroke="midnightblue" d="M629.602,-169.707C626.7,-169.102 623.799,-168.523 621,-168 528.339,-150.696 418.692,-135.719 360.365,-128.185"/>
<polygon fill="midnightblue" stroke="midnightblue" points="360.793,-124.712 350.429,-126.91 359.902,-131.655 360.793,-124.712"/>
</g>
<!-- Node17&#45;&gt;Node16 -->
<g id="edge33" class="edge"><title>Node17&#45;&gt;Node16</title>
<path fill="none" stroke="midnightblue" d="M640.243,-168.444C618.684,-159.557 584.737,-145.563 560.206,-135.451"/>
<polygon fill="midnightblue" stroke="midnightblue" points="561.239,-132.092 550.66,-131.516 558.572,-138.563 561.239,-132.092"/>
</g>
</g>
</svg>
