<?xml version="1.0" encoding="UTF-8" standalone="no"?>
<!DOCTYPE svg PUBLIC "-//W3C//DTD SVG 1.1//EN"
 "http://www.w3.org/Graphics/SVG/1.1/DTD/svg11.dtd">
<!-- Generated by graphviz version 2.36.0 (20140111.2315)
 -->
<!-- Title: DoublyLinkedListRemoveNode Pages: 1 -->
<svg width="1380pt" height="74pt"
 viewBox="0.00 0.00 1380.00 74.00" xmlns="http://www.w3.org/2000/svg" xmlns:xlink="http://www.w3.org/1999/xlink">
<g id="graph0" class="graph" transform="scale(1 1) rotate(0) translate(4 70)">
<title>DoublyLinkedListRemoveNode</title>
<!-- Node1 -->
<g id="node1" class="node"><title>Node1</title>
<polygon fill="#bfbfbf" stroke="black" points="0,-19.5 0,-38.5 152,-38.5 152,-19.5 0,-19.5"/>
<text text-anchor="middle" x="76" y="-26.5" font-family="Helvetica,sans-Serif" font-size="10.00">DoublyLinkedListRemoveNode</text>
</g>
<!-- Node2 -->
<g id="node2" class="node"><title>Node2</title>
<g id="a_node2"><a xlink:href="../../d2/da3/cipconnectionmanager_8h.html#a144782b4e2a5afc89ec32854511bbea7" target="_top" xlink:title="Removes connection from the list of active connections. ">
<polygon fill="none" stroke="black" points="188,-19.5 188,-38.5 346,-38.5 346,-19.5 188,-19.5"/>
<text text-anchor="middle" x="267" y="-26.5" font-family="Helvetica,sans-Serif" font-size="10.00">RemoveFromActiveConnections</text>
</a>
</g>
</g>
<!-- Node1&#45;&gt;Node2 -->
<g id="edge1" class="edge"><title>Node1&#45;&gt;Node2</title>
<path fill="none" stroke="midnightblue" d="M162.503,-29C170.97,-29 179.535,-29 187.922,-29"/>
<polygon fill="midnightblue" stroke="midnightblue" points="162.241,-25.5001 152.241,-29 162.241,-32.5001 162.241,-25.5001"/>
</g>
<!-- Node3 -->
<g id="node3" class="node"><title>Node3</title>
<g id="a_node3"><a xlink:href="../../de/d45/cipioconnection_8h.html#a62fc61ed294b1d1543960582f0071b22" target="_top" xlink:title="close the communication channels of the given connection and remove it from the active connections li...">
<polygon fill="none" stroke="black" points="382.5,-36 382.5,-66 573.5,-66 573.5,-36 382.5,-36"/>
<text text-anchor="start" x="390.5" y="-54" font-family="Helvetica,sans-Serif" font-size="10.00">CloseCommunicationChannels</text>
<text text-anchor="middle" x="478" y="-43" font-family="Helvetica,sans-Serif" font-size="10.00">AndRemoveFromActiveConnectionsList</text>
</a>
</g>
</g>
<!-- Node2&#45;&gt;Node3 -->
<g id="edge2" class="edge"><title>Node2&#45;&gt;Node3</title>
<path fill="none" stroke="midnightblue" d="M356.199,-38.2841C364.857,-39.1955 373.667,-40.1229 382.385,-41.0406"/>
<polygon fill="midnightblue" stroke="midnightblue" points="356.433,-34.7894 346.121,-37.2233 355.7,-41.751 356.433,-34.7894"/>
</g>
<!-- Node10 -->
<g id="node10" class="node"><title>Node10</title>
<g id="a_node10"><a xlink:href="../../d2/da3/cipconnectionmanager_8h.html#a9367d6d6edfd5bd276ead18619f4d74e" target="_top" xlink:title="Close the given connection. ">
<polygon fill="none" stroke="black" points="614,-0.5 614,-19.5 706,-19.5 706,-0.5 614,-0.5"/>
<text text-anchor="middle" x="660" y="-7.5" font-family="Helvetica,sans-Serif" font-size="10.00">CloseConnection</text>
</a>
</g>
</g>
<!-- Node2&#45;&gt;Node10 -->
<g id="edge9" class="edge"><title>Node2&#45;&gt;Node10</title>
<path fill="none" stroke="midnightblue" d="M356.261,-24.7111C436.331,-20.8202 551.154,-15.2406 613.873,-12.1929"/>
<polygon fill="midnightblue" stroke="midnightblue" points="356.003,-21.2194 346.185,-25.2007 356.343,-28.2112 356.003,-21.2194"/>
</g>
<!-- Node4 -->
<g id="node4" class="node"><title>Node4</title>
<g id="a_node4"><a xlink:href="../../df/d03/cipioconnection_8c.html#a730b410a0cdbc6a456973c0e51568968" target="_top" xlink:title="CloseIoConnection">
<polygon fill="none" stroke="black" points="610,-40.5 610,-59.5 710,-59.5 710,-40.5 610,-40.5"/>
<text text-anchor="middle" x="660" y="-47.5" font-family="Helvetica,sans-Serif" font-size="10.00">CloseIoConnection</text>
</a>
</g>
</g>
<!-- Node3&#45;&gt;Node4 -->
<g id="edge3" class="edge"><title>Node3&#45;&gt;Node4</title>
<path fill="none" stroke="midnightblue" d="M583.842,-50.4175C592.728,-50.3682 601.415,-50.3199 609.544,-50.2748"/>
<polygon fill="midnightblue" stroke="midnightblue" points="583.725,-46.918 573.744,-50.4736 583.763,-53.9179 583.725,-46.918"/>
</g>
<!-- Node5 -->
<g id="node5" class="node"><title>Node5</title>
<g id="a_node5"><a xlink:href="../../df/d03/cipioconnection_8c.html#ab3282f146a3ea91c90cf14c32206ee8c" target="_top" xlink:title="SetIoConnectionCallbacks">
<polygon fill="none" stroke="black" points="748.5,-39.5 748.5,-58.5 881.5,-58.5 881.5,-39.5 748.5,-39.5"/>
<text text-anchor="middle" x="815" y="-46.5" font-family="Helvetica,sans-Serif" font-size="10.00">SetIoConnectionCallbacks</text>
</a>
</g>
</g>
<!-- Node4&#45;&gt;Node5 -->
<g id="edge4" class="edge"><title>Node4&#45;&gt;Node5</title>
<path fill="none" stroke="midnightblue" d="M720.419,-49.6116C729.581,-49.5518 739.086,-49.4896 748.374,-49.4289"/>
<polygon fill="midnightblue" stroke="midnightblue" points="720.229,-46.1127 710.252,-49.6781 720.275,-53.1126 720.229,-46.1127"/>
</g>
<!-- Node6 -->
<g id="node6" class="node"><title>Node6</title>
<g id="a_node6"><a xlink:href="../../de/d45/cipioconnection_8h.html#a43e270b3f9b9f6296b12285c320c95aa" target="_top" xlink:title="Setup all data in order to establish an IO connection. ">
<polygon fill="none" stroke="black" points="920.5,-38.5 920.5,-57.5 1035.5,-57.5 1035.5,-38.5 920.5,-38.5"/>
<text text-anchor="middle" x="978" y="-45.5" font-family="Helvetica,sans-Serif" font-size="10.00">EstablishIoConnection</text>
</a>
</g>
</g>
<!-- Node5&#45;&gt;Node6 -->
<g id="edge5" class="edge"><title>Node5&#45;&gt;Node6</title>
<path fill="none" stroke="midnightblue" d="M892.204,-48.5267C901.706,-48.4677 911.288,-48.4081 920.419,-48.3514"/>
<polygon fill="midnightblue" stroke="midnightblue" points="891.927,-45.0282 881.949,-48.5904 891.971,-52.0281 891.927,-45.0282"/>
</g>
<!-- Node7 -->
<g id="node7" class="node"><title>Node7</title>
<g id="a_node7"><a xlink:href="../../d2/da3/cipconnectionmanager_8h.html#a5ab0de6894d23e8fe84a6b46797c2212" target="_top" xlink:title="Initialize the data of the connection manager object. ">
<polygon fill="none" stroke="black" points="1072.5,-19.5 1072.5,-38.5 1189.5,-38.5 1189.5,-19.5 1072.5,-19.5"/>
<text text-anchor="middle" x="1131" y="-26.5" font-family="Helvetica,sans-Serif" font-size="10.00">ConnectionManagerInit</text>
</a>
</g>
</g>
<!-- Node6&#45;&gt;Node7 -->
<g id="edge6" class="edge"><title>Node6&#45;&gt;Node7</title>
<path fill="none" stroke="midnightblue" d="M1045.6,-39.6202C1054.49,-38.5013 1063.55,-37.3615 1072.27,-36.2639"/>
<polygon fill="midnightblue" stroke="midnightblue" points="1045.14,-36.1499 1035.66,-40.871 1046.02,-43.0951 1045.14,-36.1499"/>
</g>
<!-- Node8 -->
<g id="node8" class="node"><title>Node8</title>
<g id="a_node8"><a xlink:href="../../d2/dc9/group__CIP__API.html#ga5d4979945d124e28668b264c3823db1c" target="_top" xlink:title="Initialize and setup the CIP&#45;stack. ">
<polygon fill="none" stroke="black" points="1226.5,-19.5 1226.5,-38.5 1297.5,-38.5 1297.5,-19.5 1226.5,-19.5"/>
<text text-anchor="middle" x="1262" y="-26.5" font-family="Helvetica,sans-Serif" font-size="10.00">CipStackInit</text>
</a>
</g>
</g>
<!-- Node7&#45;&gt;Node8 -->
<g id="edge7" class="edge"><title>Node7&#45;&gt;Node8</title>
<path fill="none" stroke="midnightblue" d="M1199.98,-29C1209.08,-29 1218.09,-29 1226.27,-29"/>
<polygon fill="midnightblue" stroke="midnightblue" points="1199.71,-25.5001 1189.71,-29 1199.71,-32.5001 1199.71,-25.5001"/>
</g>
<!-- Node9 -->
<g id="node9" class="node"><title>Node9</title>
<g id="a_node9"><a xlink:href="../../d9/dfb/POSIX_2main_8c.html#ad338a7dbc41dc40bcecd0479377ef207" target="_top" xlink:title="main">
<polygon fill="none" stroke="black" points="1334,-19.5 1334,-38.5 1372,-38.5 1372,-19.5 1334,-19.5"/>
<text text-anchor="middle" x="1353" y="-26.5" font-family="Helvetica,sans-Serif" font-size="10.00">main</text>
</a>
</g>
</g>
<!-- Node8&#45;&gt;Node9 -->
<g id="edge8" class="edge"><title>Node8&#45;&gt;Node9</title>
<path fill="none" stroke="midnightblue" d="M1307.91,-29C1317.05,-29 1326.16,-29 1333.71,-29"/>
<polygon fill="midnightblue" stroke="midnightblue" points="1307.66,-25.5001 1297.66,-29 1307.66,-32.5001 1307.66,-25.5001"/>
</g>
<!-- Node11 -->
<g id="node11" class="node"><title>Node11</title>
<g id="a_node11"><a xlink:href="../../d2/d11/cipclass3connection_8h.html#a45bd741b44137164c07a6ce09a7a9a9d" target="_top" xlink:title="Check if Class3 connection is available and if yes setup all data. ">
<polygon fill="none" stroke="black" points="746.5,-0.5 746.5,-19.5 883.5,-19.5 883.5,-0.5 746.5,-0.5"/>
<text text-anchor="middle" x="815" y="-7.5" font-family="Helvetica,sans-Serif" font-size="10.00">EstablishClass3Connection</text>
</a>
</g>
</g>
<!-- Node10&#45;&gt;Node11 -->
<g id="edge10" class="edge"><title>Node10&#45;&gt;Node11</title>
<path fill="none" stroke="midnightblue" d="M716.381,-10C726.084,-10 736.28,-10 746.273,-10"/>
<polygon fill="midnightblue" stroke="midnightblue" points="716.078,-6.5001 706.078,-10 716.077,-13.5001 716.078,-6.5001"/>
</g>
<!-- Node11&#45;&gt;Node7 -->
<g id="edge11" class="edge"><title>Node11&#45;&gt;Node7</title>
<path fill="none" stroke="midnightblue" d="M893.86,-14.7113C949.182,-18.0588 1022.25,-22.4804 1072.38,-25.5134"/>
<polygon fill="midnightblue" stroke="midnightblue" points="893.94,-11.2098 883.747,-14.0993 893.517,-18.197 893.94,-11.2098"/>
</g>
</g>
</svg>
