<?xml version="1.0" encoding="UTF-8" standalone="no"?>
<!DOCTYPE svg PUBLIC "-//W3C//DTD SVG 1.1//EN"
 "http://www.w3.org/Graphics/SVG/1.1/DTD/svg11.dtd">
<!-- Generated by graphviz version 2.36.0 (20140111.2315)
 -->
<!-- Title: src/utils/doublylinkedlist.h Pages: 1 -->
<svg width="1836pt" height="320pt"
 viewBox="0.00 0.00 1836.30 320.00" xmlns="http://www.w3.org/2000/svg" xmlns:xlink="http://www.w3.org/1999/xlink">
<g id="graph0" class="graph" transform="scale(1 1) rotate(0) translate(4 316)">
<title>src/utils/doublylinkedlist.h</title>
<!-- Node1 -->
<g id="node1" class="node"><title>Node1</title>
<polygon fill="#bfbfbf" stroke="black" points="1605.8,-292.5 1605.8,-311.5 1734.8,-311.5 1734.8,-292.5 1605.8,-292.5"/>
<text text-anchor="middle" x="1670.3" y="-299.5" font-family="Helvetica,sans-Serif" font-size="10.00">src/utils/doublylinkedlist.h</text>
</g>
<!-- Node2 -->
<g id="node2" class="node"><title>Node2</title>
<g id="a_node2"><a xlink:href="../../d1/d6c/cipconnectionobject_8h.html" target="_top" xlink:title="src/cip/cipconnectionobject.h">
<polygon fill="none" stroke="black" points="962.803,-236.5 962.803,-255.5 1105.8,-255.5 1105.8,-236.5 962.803,-236.5"/>
<text text-anchor="middle" x="1034.3" y="-243.5" font-family="Helvetica,sans-Serif" font-size="10.00">src/cip/cipconnectionobject.h</text>
</a>
</g>
</g>
<!-- Node1&#45;&gt;Node2 -->
<g id="edge1" class="edge"><title>Node1&#45;&gt;Node2</title>
<path fill="none" stroke="midnightblue" d="M1595.41,-294.641C1472,-284.163 1227.53,-263.406 1106.15,-253.1"/>
<polygon fill="midnightblue" stroke="midnightblue" points="1595.26,-298.141 1605.52,-295.5 1595.86,-291.166 1595.26,-298.141"/>
</g>
<!-- Node12 -->
<g id="node12" class="node"><title>Node12</title>
<g id="a_node12"><a xlink:href="../../d9/dfb/POSIX_2main_8c.html" target="_top" xlink:title="src/ports/POSIX/main.c">
<polygon fill="none" stroke="black" points="1584.8,-0.5 1584.8,-19.5 1705.8,-19.5 1705.8,-0.5 1584.8,-0.5"/>
<text text-anchor="middle" x="1645.3" y="-7.5" font-family="Helvetica,sans-Serif" font-size="10.00">src/ports/POSIX/main.c</text>
</a>
</g>
</g>
<!-- Node1&#45;&gt;Node12 -->
<g id="edge56" class="edge"><title>Node1&#45;&gt;Node12</title>
<path fill="none" stroke="midnightblue" d="M1670.3,-282.251C1670.3,-260.357 1670.3,-223.052 1670.3,-191 1670.3,-191 1670.3,-191 1670.3,-133 1670.3,-89.7586 1655.04,-39.619 1648.37,-19.7521"/>
<polygon fill="midnightblue" stroke="midnightblue" points="1666.8,-282.442 1670.3,-292.442 1673.8,-282.442 1666.8,-282.442"/>
</g>
<!-- Node27 -->
<g id="node27" class="node"><title>Node27</title>
<g id="a_node27"><a xlink:href="../../d9/ddc/doublylinkedlist_8c.html" target="_top" xlink:title="src/utils/doublylinkedlist.c">
<polygon fill="none" stroke="black" points="1698.8,-236.5 1698.8,-255.5 1827.8,-255.5 1827.8,-236.5 1698.8,-236.5"/>
<text text-anchor="middle" x="1763.3" y="-243.5" font-family="Helvetica,sans-Serif" font-size="10.00">src/utils/doublylinkedlist.c</text>
</a>
</g>
</g>
<!-- Node1&#45;&gt;Node27 -->
<g id="edge57" class="edge"><title>Node1&#45;&gt;Node27</title>
<path fill="none" stroke="midnightblue" d="M1694.11,-287.177C1711.22,-277.241 1733.77,-264.149 1748.4,-255.655"/>
<polygon fill="midnightblue" stroke="midnightblue" points="1692.14,-284.276 1685.24,-292.324 1695.65,-290.329 1692.14,-284.276"/>
</g>
<!-- Node3 -->
<g id="node3" class="node"><title>Node3</title>
<g id="a_node3"><a xlink:href="../../d2/da3/cipconnectionmanager_8h.html" target="_top" xlink:title="src/cip/cipconnectionmanager.h">
<polygon fill="none" stroke="black" points="956.803,-180.5 956.803,-199.5 1111.8,-199.5 1111.8,-180.5 956.803,-180.5"/>
<text text-anchor="middle" x="1034.3" y="-187.5" font-family="Helvetica,sans-Serif" font-size="10.00">src/cip/cipconnectionmanager.h</text>
</a>
</g>
</g>
<!-- Node2&#45;&gt;Node3 -->
<g id="edge2" class="edge"><title>Node2&#45;&gt;Node3</title>
<path fill="none" stroke="midnightblue" d="M1034.3,-225.805C1034.3,-216.91 1034.3,-206.78 1034.3,-199.751"/>
<polygon fill="midnightblue" stroke="midnightblue" points="1030.8,-226.083 1034.3,-236.083 1037.8,-226.083 1030.8,-226.083"/>
</g>
<!-- Node5 -->
<g id="node5" class="node"><title>Node5</title>
<g id="a_node5"><a xlink:href="../../d1/dbc/appcontype_8c.html" target="_top" xlink:title="src/cip/appcontype.c">
<polygon fill="none" stroke="black" points="906.803,-62.5 906.803,-81.5 1013.8,-81.5 1013.8,-62.5 906.803,-62.5"/>
<text text-anchor="middle" x="960.303" y="-69.5" font-family="Helvetica,sans-Serif" font-size="10.00">src/cip/appcontype.c</text>
</a>
</g>
</g>
<!-- Node2&#45;&gt;Node5 -->
<g id="edge37" class="edge"><title>Node2&#45;&gt;Node5</title>
<path fill="none" stroke="midnightblue" d="M997.117,-232.867C960.08,-218.429 905.861,-190.272 885.303,-144 872.708,-115.653 911.387,-93.1945 937.792,-81.6113"/>
<polygon fill="midnightblue" stroke="midnightblue" points="996.006,-236.188 1006.6,-236.412 998.457,-229.632 996.006,-236.188"/>
</g>
<!-- Node7 -->
<g id="node7" class="node"><title>Node7</title>
<g id="a_node7"><a xlink:href="../../d5/d35/cipconnectionmanager_8c.html" target="_top" xlink:title="src/cip/cipconnectionmanager.c">
<polygon fill="none" stroke="black" points="869.803,-0.5 869.803,-19.5 1024.8,-19.5 1024.8,-0.5 869.803,-0.5"/>
<text text-anchor="middle" x="947.303" y="-7.5" font-family="Helvetica,sans-Serif" font-size="10.00">src/cip/cipconnectionmanager.c</text>
</a>
</g>
</g>
<!-- Node2&#45;&gt;Node7 -->
<g id="edge39" class="edge"><title>Node2&#45;&gt;Node7</title>
<path fill="none" stroke="midnightblue" d="M952.539,-237.911C840.373,-226.252 647.995,-198.663 607.303,-144 601.995,-136.87 601.567,-130.791 607.303,-124 668.966,-50.983 733.431,-129.951 819.303,-88 838.241,-78.7482 836.855,-67.8254 854.303,-56 877.019,-40.603 905.801,-27.5365 925.285,-19.5146"/>
<polygon fill="midnightblue" stroke="midnightblue" points="952.499,-241.425 962.802,-238.957 953.208,-234.461 952.499,-241.425"/>
</g>
<!-- Node2&#45;&gt;Node12 -->
<g id="edge55" class="edge"><title>Node2&#45;&gt;Node12</title>
<path fill="none" stroke="midnightblue" d="M1116.21,-241.47C1258.21,-233.651 1541.7,-210.003 1612.3,-144 1648.45,-110.206 1647.64,-43.5264 1646.07,-19.7097"/>
<polygon fill="midnightblue" stroke="midnightblue" points="1115.62,-237.996 1105.82,-242.027 1115.99,-244.986 1115.62,-237.996"/>
</g>
<!-- Node17 -->
<g id="node17" class="node"><title>Node17</title>
<g id="a_node17"><a xlink:href="../../d2/d11/cipclass3connection_8h.html" target="_top" xlink:title="CIP Class 3 connection. ">
<polygon fill="none" stroke="black" points="616.303,-124.5 616.303,-143.5 762.303,-143.5 762.303,-124.5 616.303,-124.5"/>
<text text-anchor="middle" x="689.303" y="-131.5" font-family="Helvetica,sans-Serif" font-size="10.00">src/cip/cipclass3connection.h</text>
</a>
</g>
</g>
<!-- Node2&#45;&gt;Node17 -->
<g id="edge38" class="edge"><title>Node2&#45;&gt;Node17</title>
<path fill="none" stroke="midnightblue" d="M983.027,-234.296C946.272,-226.146 895.782,-213.972 852.303,-200 799.224,-182.943 738.738,-157.057 708.558,-143.681"/>
<polygon fill="midnightblue" stroke="midnightblue" points="982.495,-237.762 993.013,-236.486 983.995,-230.925 982.495,-237.762"/>
</g>
<!-- Node21 -->
<g id="node21" class="node"><title>Node21</title>
<g id="a_node21"><a xlink:href="../../de/d45/cipioconnection_8h.html" target="_top" xlink:title="src/cip/cipioconnection.h">
<polygon fill="none" stroke="black" points="1317.8,-124.5 1317.8,-143.5 1442.8,-143.5 1442.8,-124.5 1317.8,-124.5"/>
<text text-anchor="middle" x="1380.3" y="-131.5" font-family="Helvetica,sans-Serif" font-size="10.00">src/cip/cipioconnection.h</text>
</a>
</g>
</g>
<!-- Node2&#45;&gt;Node21 -->
<g id="edge40" class="edge"><title>Node2&#45;&gt;Node21</title>
<path fill="none" stroke="midnightblue" d="M1070.86,-233.378C1140.68,-211.179 1291.56,-163.212 1353.22,-143.61"/>
<polygon fill="midnightblue" stroke="midnightblue" points="1069.63,-230.095 1061.16,-236.46 1071.76,-236.766 1069.63,-230.095"/>
</g>
<!-- Node22 -->
<g id="node22" class="node"><title>Node22</title>
<g id="a_node22"><a xlink:href="../../df/d91/cipconnectionobject_8c.html" target="_top" xlink:title="src/cip/cipconnectionobject.c">
<polygon fill="none" stroke="black" points="1460.8,-124.5 1460.8,-143.5 1603.8,-143.5 1603.8,-124.5 1460.8,-124.5"/>
<text text-anchor="middle" x="1532.3" y="-131.5" font-family="Helvetica,sans-Serif" font-size="10.00">src/cip/cipconnectionobject.c</text>
</a>
</g>
</g>
<!-- Node2&#45;&gt;Node22 -->
<g id="edge41" class="edge"><title>Node2&#45;&gt;Node22</title>
<path fill="none" stroke="midnightblue" d="M1082.98,-234.249C1181.76,-212.43 1403.97,-163.347 1493.66,-143.535"/>
<polygon fill="midnightblue" stroke="midnightblue" points="1081.98,-230.885 1072.97,-236.46 1083.48,-237.721 1081.98,-230.885"/>
</g>
<!-- Node24 -->
<g id="node24" class="node"><title>Node24</title>
<g id="a_node24"><a xlink:href="../../d7/df9/encap_8h.html" target="_top" xlink:title="This file contains the public interface of the encapsulation layer. ">
<polygon fill="none" stroke="black" points="340.803,-124.5 340.803,-143.5 461.803,-143.5 461.803,-124.5 340.803,-124.5"/>
<text text-anchor="middle" x="401.303" y="-131.5" font-family="Helvetica,sans-Serif" font-size="10.00">src/enet_encap/encap.h</text>
</a>
</g>
</g>
<!-- Node2&#45;&gt;Node24 -->
<g id="edge42" class="edge"><title>Node2&#45;&gt;Node24</title>
<path fill="none" stroke="midnightblue" d="M952.27,-243.427C859.442,-240.165 704.253,-230.216 574.303,-200 515.707,-186.375 450.14,-157.84 419.247,-143.545"/>
<polygon fill="midnightblue" stroke="midnightblue" points="952.331,-246.931 962.442,-243.766 952.564,-239.934 952.331,-246.931"/>
</g>
<!-- Node4 -->
<g id="node4" class="node"><title>Node4</title>
<g id="a_node4"><a xlink:href="../../d1/dc0/appcontype_8h.html" target="_top" xlink:title="src/cip/appcontype.h">
<polygon fill="none" stroke="black" points="1100.8,-124.5 1100.8,-143.5 1207.8,-143.5 1207.8,-124.5 1100.8,-124.5"/>
<text text-anchor="middle" x="1154.3" y="-131.5" font-family="Helvetica,sans-Serif" font-size="10.00">src/cip/appcontype.h</text>
</a>
</g>
</g>
<!-- Node3&#45;&gt;Node4 -->
<g id="edge3" class="edge"><title>Node3&#45;&gt;Node4</title>
<path fill="none" stroke="midnightblue" d="M1062.68,-176.232C1085.12,-166.131 1115.84,-152.309 1135.38,-143.516"/>
<polygon fill="midnightblue" stroke="midnightblue" points="1061,-173.148 1053.32,-180.444 1063.87,-179.532 1061,-173.148"/>
</g>
<!-- Node3&#45;&gt;Node5 -->
<g id="edge17" class="edge"><title>Node3&#45;&gt;Node5</title>
<path fill="none" stroke="midnightblue" d="M1031.21,-170.335C1028.35,-156.729 1023.17,-138.257 1014.3,-124 1003.41,-106.478 985.039,-90.9366 972.793,-81.7446"/>
<polygon fill="midnightblue" stroke="midnightblue" points="1027.82,-171.234 1033.1,-180.421 1034.7,-169.948 1027.82,-171.234"/>
</g>
<!-- Node6 -->
<g id="node6" class="node"><title>Node6</title>
<g id="a_node6"><a xlink:href="../../d2/d3d/cipcommon_8c.html" target="_top" xlink:title="src/cip/cipcommon.c">
<polygon fill="none" stroke="black" points="452.803,-0.5 452.803,-19.5 559.803,-19.5 559.803,-0.5 452.803,-0.5"/>
<text text-anchor="middle" x="506.303" y="-7.5" font-family="Helvetica,sans-Serif" font-size="10.00">src/cip/cipcommon.c</text>
</a>
</g>
</g>
<!-- Node3&#45;&gt;Node6 -->
<g id="edge22" class="edge"><title>Node3&#45;&gt;Node6</title>
<path fill="none" stroke="midnightblue" d="M981.592,-178.434C941.087,-170.003 883.866,-157.416 834.303,-144 805.946,-136.324 799.503,-132.231 771.303,-124 711.693,-106.601 690.335,-118.601 636.303,-88 618.526,-77.9321 620.139,-67.5725 603.303,-56 580.355,-40.2265 550.996,-27.488 530.619,-19.6433"/>
<polygon fill="midnightblue" stroke="midnightblue" points="981.013,-181.888 991.515,-180.486 982.431,-175.033 981.013,-181.888"/>
</g>
<!-- Node3&#45;&gt;Node7 -->
<g id="edge28" class="edge"><title>Node3&#45;&gt;Node7</title>
<path fill="none" stroke="midnightblue" d="M1037.87,-170.413C1042.09,-142.874 1045.84,-90.7534 1022.3,-56 1010.38,-38.3991 989.068,-26.591 972.201,-19.5037"/>
<polygon fill="midnightblue" stroke="midnightblue" points="1034.42,-169.838 1036.17,-180.286 1041.32,-171.025 1034.42,-169.838"/>
</g>
<!-- Node8 -->
<g id="node8" class="node"><title>Node8</title>
<g id="a_node8"><a xlink:href="../../df/d03/cipioconnection_8c.html" target="_top" xlink:title="src/cip/cipioconnection.c">
<polygon fill="none" stroke="black" points="1441.8,-0.5 1441.8,-19.5 1566.8,-19.5 1566.8,-0.5 1441.8,-0.5"/>
<text text-anchor="middle" x="1504.3" y="-7.5" font-family="Helvetica,sans-Serif" font-size="10.00">src/cip/cipioconnection.c</text>
</a>
</g>
</g>
<!-- Node3&#45;&gt;Node8 -->
<g id="edge33" class="edge"><title>Node3&#45;&gt;Node8</title>
<path fill="none" stroke="midnightblue" d="M1097.8,-178.668C1142.08,-170.819 1202.31,-158.851 1254.3,-144 1278.91,-136.971 1283.68,-130.976 1308.3,-124 1386.8,-101.764 1430.4,-145.473 1488.3,-88 1506.91,-69.5327 1506.61,-35.4539 1505.29,-19.5686"/>
<polygon fill="midnightblue" stroke="midnightblue" points="1097,-175.255 1087.75,-180.427 1098.21,-182.15 1097,-175.255"/>
</g>
<!-- Node9 -->
<g id="node9" class="node"><title>Node9</title>
<g id="a_node9"><a xlink:href="../../da/dc2/generic__networkhandler_8h.html" target="_top" xlink:title="src/ports/generic_networkhandler.h">
<polygon fill="none" stroke="black" points="1283.8,-62.5 1283.8,-81.5 1452.8,-81.5 1452.8,-62.5 1283.8,-62.5"/>
<text text-anchor="middle" x="1368.3" y="-69.5" font-family="Helvetica,sans-Serif" font-size="10.00">src/ports/generic_networkhandler.h</text>
</a>
</g>
</g>
<!-- Node3&#45;&gt;Node9 -->
<g id="edge36" class="edge"><title>Node3&#45;&gt;Node9</title>
<path fill="none" stroke="midnightblue" d="M1089.11,-178.363C1125.67,-170.561 1174.51,-158.77 1216.3,-144 1267.93,-125.755 1325.7,-96.0168 1352.75,-81.5054"/>
<polygon fill="midnightblue" stroke="midnightblue" points="1088.21,-174.976 1079.14,-180.456 1089.65,-181.826 1088.21,-174.976"/>
</g>
<!-- Node10 -->
<g id="node10" class="node"><title>Node10</title>
<g id="a_node10"><a xlink:href="../../d2/dbd/encap_8c.html" target="_top" xlink:title="src/enet_encap/encap.c">
<polygon fill="none" stroke="black" points="198.803,-0.5 198.803,-19.5 319.803,-19.5 319.803,-0.5 198.803,-0.5"/>
<text text-anchor="middle" x="259.303" y="-7.5" font-family="Helvetica,sans-Serif" font-size="10.00">src/enet_encap/encap.c</text>
</a>
</g>
</g>
<!-- Node3&#45;&gt;Node10 -->
<g id="edge35" class="edge"><title>Node3&#45;&gt;Node10</title>
<path fill="none" stroke="midnightblue" d="M946.218,-187.143C709.719,-181.222 74.6679,-158.811 15.3026,-88 6.1654,-77.1012 6.20351,-66.9306 15.3026,-56 38.1764,-28.5219 133.981,-17.7583 198.516,-13.5863"/>
<polygon fill="midnightblue" stroke="midnightblue" points="946.415,-190.649 956.498,-187.396 946.588,-183.651 946.415,-190.649"/>
</g>
<!-- Node16 -->
<g id="node16" class="node"><title>Node16</title>
<g id="a_node16"><a xlink:href="../../df/d2e/cipassembly_8c.html" target="_top" xlink:title="src/cip/cipassembly.c">
<polygon fill="none" stroke="black" points="894.303,-124.5 894.303,-143.5 1006.3,-143.5 1006.3,-124.5 894.303,-124.5"/>
<text text-anchor="middle" x="950.303" y="-131.5" font-family="Helvetica,sans-Serif" font-size="10.00">src/cip/cipassembly.c</text>
</a>
</g>
</g>
<!-- Node3&#45;&gt;Node16 -->
<g id="edge18" class="edge"><title>Node3&#45;&gt;Node16</title>
<path fill="none" stroke="midnightblue" d="M1012.37,-174.901C996.967,-164.999 976.857,-152.071 963.765,-143.655"/>
<polygon fill="midnightblue" stroke="midnightblue" points="1010.5,-177.86 1020.81,-180.324 1014.29,-171.972 1010.5,-177.86"/>
</g>
<!-- Node3&#45;&gt;Node17 -->
<g id="edge19" class="edge"><title>Node3&#45;&gt;Node17</title>
<path fill="none" stroke="midnightblue" d="M969.479,-178.854C904.295,-168.651 804.927,-153.098 743.713,-143.516"/>
<polygon fill="midnightblue" stroke="midnightblue" points="969.215,-182.355 979.636,-180.444 970.298,-175.439 969.215,-182.355"/>
</g>
<!-- Node19 -->
<g id="node19" class="node"><title>Node19</title>
<g id="a_node19"><a xlink:href="../../d0/d3c/cipqos_8h.html" target="_top" xlink:title="Public interface of the QoS Object. ">
<polygon fill="none" stroke="black" points="688.303,-62.5 688.303,-81.5 774.303,-81.5 774.303,-62.5 688.303,-62.5"/>
<text text-anchor="middle" x="731.303" y="-69.5" font-family="Helvetica,sans-Serif" font-size="10.00">src/cip/cipqos.h</text>
</a>
</g>
</g>
<!-- Node3&#45;&gt;Node19 -->
<g id="edge23" class="edge"><title>Node3&#45;&gt;Node19</title>
<path fill="none" stroke="midnightblue" d="M991.556,-177.789C961.482,-169.491 920.485,-157.349 885.303,-144 834.104,-124.574 776.008,-95.8959 748.065,-81.6651"/>
<polygon fill="midnightblue" stroke="midnightblue" points="990.743,-181.195 1001.31,-180.452 992.586,-174.442 990.743,-181.195"/>
</g>
<!-- Node3&#45;&gt;Node21 -->
<g id="edge29" class="edge"><title>Node3&#45;&gt;Node21</title>
<path fill="none" stroke="midnightblue" d="M1099.31,-178.854C1164.69,-168.651 1264.34,-153.098 1325.73,-143.516"/>
<polygon fill="midnightblue" stroke="midnightblue" points="1098.47,-175.443 1089.13,-180.444 1099.55,-182.36 1098.47,-175.443"/>
</g>
<!-- Node3&#45;&gt;Node22 -->
<g id="edge32" class="edge"><title>Node3&#45;&gt;Node22</title>
<path fill="none" stroke="midnightblue" d="M1121.99,-179.619C1206.38,-170.571 1337.58,-156.454 1451.3,-144 1454.4,-143.661 1457.56,-143.314 1460.75,-142.963"/>
<polygon fill="midnightblue" stroke="midnightblue" points="1121.5,-176.151 1111.93,-180.697 1122.25,-183.111 1121.5,-176.151"/>
</g>
<!-- Node23 -->
<g id="node23" class="node"><title>Node23</title>
<g id="a_node23"><a xlink:href="../../d3/d98/cpf_8c.html" target="_top" xlink:title="src/enet_encap/cpf.c">
<polygon fill="none" stroke="black" points="9.30258,-0.5 9.30258,-19.5 117.303,-19.5 117.303,-0.5 9.30258,-0.5"/>
<text text-anchor="middle" x="63.3026" y="-7.5" font-family="Helvetica,sans-Serif" font-size="10.00">src/enet_encap/cpf.c</text>
</a>
</g>
</g>
<!-- Node3&#45;&gt;Node23 -->
<g id="edge34" class="edge"><title>Node3&#45;&gt;Node23</title>
<path fill="none" stroke="midnightblue" d="M946.619,-189.285C748.63,-189.188 272.167,-184.591 117.303,-144 63.4678,-129.89 34.5612,-135.341 5.30258,-88 -2.17449,-75.9019 -0.953606,-68.7723 5.30258,-56 13.4877,-39.2896 31.2016,-27.003 44.9131,-19.5294"/>
<polygon fill="midnightblue" stroke="midnightblue" points="946.69,-192.785 956.691,-189.286 946.691,-185.785 946.69,-192.785"/>
</g>
<!-- Node4&#45;&gt;Node5 -->
<g id="edge4" class="edge"><title>Node4&#45;&gt;Node5</title>
<path fill="none" stroke="midnightblue" d="M1116.9,-121.432C1079.2,-109.771 1021.88,-92.0436 988.046,-81.5806"/>
<polygon fill="midnightblue" stroke="midnightblue" points="1115.92,-124.792 1126.51,-124.403 1117.99,-118.105 1115.92,-124.792"/>
</g>
<!-- Node4&#45;&gt;Node6 -->
<g id="edge5" class="edge"><title>Node4&#45;&gt;Node6</title>
<path fill="none" stroke="midnightblue" d="M1090.53,-128.879C969.857,-120.799 716.771,-102.408 679.303,-88 657.068,-79.4496 657.361,-67.1379 636.303,-56 605.162,-39.5295 566.75,-27.0998 539.783,-19.5224"/>
<polygon fill="midnightblue" stroke="midnightblue" points="1090.53,-132.386 1100.74,-129.559 1090.99,-125.402 1090.53,-132.386"/>
</g>
<!-- Node4&#45;&gt;Node7 -->
<g id="edge6" class="edge"><title>Node4&#45;&gt;Node7</title>
<path fill="none" stroke="midnightblue" d="M1195.67,-120.496C1211.24,-113.552 1227.33,-103.16 1236.3,-88 1243.55,-75.761 1245.55,-66.8026 1236.3,-56 1222.64,-40.0421 1105.86,-25.9099 1024.99,-17.9123"/>
<polygon fill="midnightblue" stroke="midnightblue" points="1194.05,-117.373 1186.11,-124.385 1196.69,-123.857 1194.05,-117.373"/>
</g>
<!-- Node4&#45;&gt;Node8 -->
<g id="edge7" class="edge"><title>Node4&#45;&gt;Node8</title>
<path fill="none" stroke="midnightblue" d="M1217.94,-126.697C1301.97,-117.916 1441.64,-101.551 1461.3,-88 1485.51,-71.3155 1497.59,-36.3453 1502.12,-19.9029"/>
<polygon fill="midnightblue" stroke="midnightblue" points="1217.57,-123.217 1207.98,-127.73 1218.29,-130.18 1217.57,-123.217"/>
</g>
<!-- Node4&#45;&gt;Node9 -->
<g id="edge8" class="edge"><title>Node4&#45;&gt;Node9</title>
<path fill="none" stroke="midnightblue" d="M1194.77,-121.655C1236.34,-109.998 1300.14,-92.1103 1337.7,-81.5806"/>
<polygon fill="midnightblue" stroke="midnightblue" points="1193.65,-118.334 1184.96,-124.403 1195.54,-125.074 1193.65,-118.334"/>
</g>
<!-- Node15 -->
<g id="node15" class="node"><title>Node15</title>
<g id="a_node15"><a xlink:href="../../d2/daa/POSIX_2sample__application_2sampleapplication_8c.html" target="_top" xlink:title="src/ports/POSIX/sample\l_application/sampleapplication.c">
<polygon fill="none" stroke="black" points="1070.3,-57 1070.3,-87 1228.3,-87 1228.3,-57 1070.3,-57"/>
<text text-anchor="start" x="1078.3" y="-75" font-family="Helvetica,sans-Serif" font-size="10.00">src/ports/POSIX/sample</text>
<text text-anchor="middle" x="1149.3" y="-64" font-family="Helvetica,sans-Serif" font-size="10.00">_application/sampleapplication.c</text>
</a>
</g>
</g>
<!-- Node4&#45;&gt;Node15 -->
<g id="edge16" class="edge"><title>Node4&#45;&gt;Node15</title>
<path fill="none" stroke="midnightblue" d="M1152.75,-114.371C1152.02,-105.585 1151.16,-95.2721 1150.48,-87.1408"/>
<polygon fill="midnightblue" stroke="midnightblue" points="1149.27,-114.729 1153.59,-124.403 1156.24,-114.147 1149.27,-114.729"/>
</g>
<!-- Node9&#45;&gt;Node7 -->
<g id="edge9" class="edge"><title>Node9&#45;&gt;Node7</title>
<path fill="none" stroke="midnightblue" d="M1303.57,-60.9657C1292.48,-59.2823 1281.06,-57.5726 1270.3,-56 1179.97,-42.7943 1075.28,-28.3709 1010.17,-19.5031"/>
<polygon fill="midnightblue" stroke="midnightblue" points="1303.22,-64.4536 1313.64,-62.4997 1304.28,-57.5335 1303.22,-64.4536"/>
</g>
<!-- Node9&#45;&gt;Node8 -->
<g id="edge10" class="edge"><title>Node9&#45;&gt;Node8</title>
<path fill="none" stroke="midnightblue" d="M1397.27,-58.2207C1423.67,-46.5726 1461.94,-29.6874 1484.85,-19.5806"/>
<polygon fill="midnightblue" stroke="midnightblue" points="1395.52,-55.1648 1387.79,-62.4035 1398.35,-61.5692 1395.52,-55.1648"/>
</g>
<!-- Node9&#45;&gt;Node10 -->
<g id="edge11" class="edge"><title>Node9&#45;&gt;Node10</title>
<path fill="none" stroke="midnightblue" d="M1291.1,-61.3378C1273.13,-59.3366 1254.07,-57.411 1236.3,-56 884.603,-28.0663 795.718,-36.6182 443.303,-20 402.251,-18.0642 356.051,-15.8041 320.215,-14.0331"/>
<polygon fill="midnightblue" stroke="midnightblue" points="1290.91,-64.8385 1301.24,-62.4878 1291.69,-57.8831 1290.91,-64.8385"/>
</g>
<!-- Node11 -->
<g id="node11" class="node"><title>Node11</title>
<g id="a_node11"><a xlink:href="../../db/d4f/generic__networkhandler_8c.html" target="_top" xlink:title="This file includes all platform&#45;independent functions of the network handler to reduce code duplicati...">
<polygon fill="none" stroke="black" points="577.803,-0.5 577.803,-19.5 746.803,-19.5 746.803,-0.5 577.803,-0.5"/>
<text text-anchor="middle" x="662.303" y="-7.5" font-family="Helvetica,sans-Serif" font-size="10.00">src/ports/generic_networkhandler.c</text>
</a>
</g>
</g>
<!-- Node9&#45;&gt;Node11 -->
<g id="edge12" class="edge"><title>Node9&#45;&gt;Node11</title>
<path fill="none" stroke="midnightblue" d="M1287.41,-61.3116C1270.53,-59.4297 1252.85,-57.5598 1236.3,-56 1023.31,-35.9188 969.46,-38.1958 756.303,-20 753.199,-19.7351 750.038,-19.4599 746.846,-19.1774"/>
<polygon fill="midnightblue" stroke="midnightblue" points="1287.47,-64.8401 1297.79,-62.4823 1288.25,-57.8841 1287.47,-64.8401"/>
</g>
<!-- Node9&#45;&gt;Node12 -->
<g id="edge13" class="edge"><title>Node9&#45;&gt;Node12</title>
<path fill="none" stroke="midnightblue" d="M1417.7,-60.3007C1471.53,-48.6399 1556.58,-30.2185 1606.05,-19.5034"/>
<polygon fill="midnightblue" stroke="midnightblue" points="1416.73,-56.9295 1407.7,-62.4672 1418.21,-63.7708 1416.73,-56.9295"/>
</g>
<!-- Node13 -->
<g id="node13" class="node"><title>Node13</title>
<g id="a_node13"><a xlink:href="../../dc/db2/WIN32_2main_8c.html" target="_top" xlink:title="src/ports/WIN32/main.c">
<polygon fill="none" stroke="black" points="1117.8,-0.5 1117.8,-19.5 1238.8,-19.5 1238.8,-0.5 1117.8,-0.5"/>
<text text-anchor="middle" x="1178.3" y="-7.5" font-family="Helvetica,sans-Serif" font-size="10.00">src/ports/WIN32/main.c</text>
</a>
</g>
</g>
<!-- Node9&#45;&gt;Node13 -->
<g id="edge14" class="edge"><title>Node9&#45;&gt;Node13</title>
<path fill="none" stroke="midnightblue" d="M1331.2,-59.283C1294.27,-47.6204 1238.47,-29.999 1205.47,-19.5806"/>
<polygon fill="midnightblue" stroke="midnightblue" points="1330.49,-62.7296 1341.08,-62.4035 1332.6,-56.0545 1330.49,-62.7296"/>
</g>
<!-- Node14 -->
<g id="node14" class="node"><title>Node14</title>
<g id="a_node14"><a xlink:href="../../d8/d6c/WIN32_2networkhandler_8c.html" target="_top" xlink:title="src/ports/WIN32/networkhandler.c">
<polygon fill="none" stroke="black" points="1257.3,-0.5 1257.3,-19.5 1423.3,-19.5 1423.3,-0.5 1257.3,-0.5"/>
<text text-anchor="middle" x="1340.3" y="-7.5" font-family="Helvetica,sans-Serif" font-size="10.00">src/ports/WIN32/networkhandler.c</text>
</a>
</g>
</g>
<!-- Node9&#45;&gt;Node14 -->
<g id="edge15" class="edge"><title>Node9&#45;&gt;Node14</title>
<path fill="none" stroke="midnightblue" d="M1359.99,-53.1861C1354.81,-42.0872 1348.38,-28.3072 1344.31,-19.5806"/>
<polygon fill="midnightblue" stroke="midnightblue" points="1356.89,-54.8217 1364.29,-62.4035 1363.23,-51.8615 1356.89,-54.8217"/>
</g>
<!-- Node17&#45;&gt;Node7 -->
<g id="edge21" class="edge"><title>Node17&#45;&gt;Node7</title>
<path fill="none" stroke="midnightblue" d="M752.387,-122.375C784.154,-115.417 822.559,-104.482 854.303,-88 872.72,-78.4373 918.281,-37.6051 937.981,-19.5938"/>
<polygon fill="midnightblue" stroke="midnightblue" points="751.386,-119.009 742.323,-124.497 752.829,-125.859 751.386,-119.009"/>
</g>
<!-- Node18 -->
<g id="node18" class="node"><title>Node18</title>
<g id="a_node18"><a xlink:href="../../dc/d93/cipclass3connection_8c.html" target="_top" xlink:title="src/cip/cipclass3connection.c">
<polygon fill="none" stroke="black" points="448.303,-62.5 448.303,-81.5 594.303,-81.5 594.303,-62.5 448.303,-62.5"/>
<text text-anchor="middle" x="521.303" y="-69.5" font-family="Helvetica,sans-Serif" font-size="10.00">src/cip/cipclass3connection.c</text>
</a>
</g>
</g>
<!-- Node17&#45;&gt;Node18 -->
<g id="edge20" class="edge"><title>Node17&#45;&gt;Node18</title>
<path fill="none" stroke="midnightblue" d="M655.654,-120.983C622.998,-109.32 574.251,-91.91 545.328,-81.5806"/>
<polygon fill="midnightblue" stroke="midnightblue" points="654.638,-124.336 665.232,-124.403 656.992,-117.744 654.638,-124.336"/>
</g>
<!-- Node19&#45;&gt;Node6 -->
<g id="edge24" class="edge"><title>Node19&#45;&gt;Node6</title>
<path fill="none" stroke="midnightblue" d="M689.311,-59.8022C645.612,-48.1491 578.133,-30.1549 538.48,-19.5806"/>
<polygon fill="midnightblue" stroke="midnightblue" points="688.501,-63.2086 699.066,-62.4035 690.305,-56.4449 688.501,-63.2086"/>
</g>
<!-- Node19&#45;&gt;Node7 -->
<g id="edge25" class="edge"><title>Node19&#45;&gt;Node7</title>
<path fill="none" stroke="midnightblue" d="M772.146,-59.6547C814.111,-47.9977 878.505,-30.1103 916.412,-19.5806"/>
<polygon fill="midnightblue" stroke="midnightblue" points="770.949,-56.3546 762.25,-62.4035 772.822,-63.0993 770.949,-56.3546"/>
</g>
<!-- Node19&#45;&gt;Node11 -->
<g id="edge27" class="edge"><title>Node19&#45;&gt;Node11</title>
<path fill="none" stroke="midnightblue" d="M713.501,-55.5206C700.346,-44.0815 682.923,-28.9305 672.17,-19.5806"/>
<polygon fill="midnightblue" stroke="midnightblue" points="711.574,-58.4828 721.417,-62.4035 716.167,-53.2005 711.574,-58.4828"/>
</g>
<!-- Node20 -->
<g id="node20" class="node"><title>Node20</title>
<g id="a_node20"><a xlink:href="../../dd/d34/cipqos_8c.html" target="_top" xlink:title="src/cip/cipqos.c">
<polygon fill="none" stroke="black" points="765.303,-0.5 765.303,-19.5 851.303,-19.5 851.303,-0.5 765.303,-0.5"/>
<text text-anchor="middle" x="808.303" y="-7.5" font-family="Helvetica,sans-Serif" font-size="10.00">src/cip/cipqos.c</text>
</a>
</g>
</g>
<!-- Node19&#45;&gt;Node20 -->
<g id="edge26" class="edge"><title>Node19&#45;&gt;Node20</title>
<path fill="none" stroke="midnightblue" d="M750.334,-56.1702C765.105,-44.6608 785.063,-29.1086 797.291,-19.5806"/>
<polygon fill="midnightblue" stroke="midnightblue" points="748.072,-53.4961 742.335,-62.4035 752.374,-59.0177 748.072,-53.4961"/>
</g>
<!-- Node21&#45;&gt;Node7 -->
<g id="edge30" class="edge"><title>Node21&#45;&gt;Node7</title>
<path fill="none" stroke="midnightblue" d="M1420.82,-120.536C1436.31,-113.574 1452.38,-103.156 1461.3,-88 1468.52,-75.7423 1470.91,-66.486 1461.3,-56 1454.02,-48.0488 1166.69,-26.5856 1024.87,-16.4462"/>
<polygon fill="midnightblue" stroke="midnightblue" points="1419.25,-117.4 1411.33,-124.436 1421.91,-123.876 1419.25,-117.4"/>
</g>
<!-- Node21&#45;&gt;Node8 -->
<g id="edge31" class="edge"><title>Node21&#45;&gt;Node8</title>
<path fill="none" stroke="midnightblue" d="M1439.98,-122.677C1492.56,-112.976 1562.06,-98.4288 1570.3,-88 1579.12,-76.8445 1576.95,-68.5742 1570.3,-56 1561.17,-38.7117 1542.07,-26.8163 1526.76,-19.6178"/>
<polygon fill="midnightblue" stroke="midnightblue" points="1439.25,-119.252 1430.05,-124.49 1440.51,-126.138 1439.25,-119.252"/>
</g>
<!-- Node24&#45;&gt;Node6 -->
<g id="edge44" class="edge"><title>Node24&#45;&gt;Node6</title>
<path fill="none" stroke="midnightblue" d="M397.469,-114.265C395.127,-97.4922 394.517,-72.9933 406.303,-56 419.431,-37.0712 442.489,-25.9828 463.158,-19.552"/>
<polygon fill="midnightblue" stroke="midnightblue" points="394.079,-115.2 399.236,-124.455 400.976,-114.005 394.079,-115.2"/>
</g>
<!-- Node24&#45;&gt;Node7 -->
<g id="edge45" class="edge"><title>Node24&#45;&gt;Node7</title>
<path fill="none" stroke="midnightblue" d="M472.217,-129.033C566.708,-122.998 728.372,-109.845 783.303,-88 805.439,-79.1966 805.373,-67.3773 826.303,-56 855.741,-39.9974 892.062,-27.3386 917.187,-19.5757"/>
<polygon fill="midnightblue" stroke="midnightblue" points="471.925,-125.544 462.164,-129.665 472.364,-132.531 471.925,-125.544"/>
</g>
<!-- Node24&#45;&gt;Node10 -->
<g id="edge52" class="edge"><title>Node24&#45;&gt;Node10</title>
<path fill="none" stroke="midnightblue" d="M332.537,-122.666C293.148,-115.185 249.227,-103.637 237.303,-88 221.285,-66.9949 241.162,-34.7544 252.476,-19.5265"/>
<polygon fill="midnightblue" stroke="midnightblue" points="331.964,-126.119 342.432,-124.48 333.227,-119.234 331.964,-126.119"/>
</g>
<!-- Node24&#45;&gt;Node11 -->
<g id="edge53" class="edge"><title>Node24&#45;&gt;Node11</title>
<path fill="none" stroke="midnightblue" d="M405.444,-114.438C410.407,-96.6557 420.516,-70.4526 439.303,-56 461.646,-38.8113 528.41,-26.7998 583.108,-19.5364"/>
<polygon fill="midnightblue" stroke="midnightblue" points="402.023,-113.69 402.986,-124.241 408.813,-115.392 402.023,-113.69"/>
</g>
<!-- Node24&#45;&gt;Node18 -->
<g id="edge43" class="edge"><title>Node24&#45;&gt;Node18</title>
<path fill="none" stroke="midnightblue" d="M427.479,-119.912C450.751,-108.276 484.106,-91.5983 504.141,-81.5806"/>
<polygon fill="midnightblue" stroke="midnightblue" points="425.875,-116.801 418.496,-124.403 429.005,-123.062 425.875,-116.801"/>
</g>
<!-- Node25 -->
<g id="node25" class="node"><title>Node25</title>
<g id="a_node25"><a xlink:href="../../d0/dff/cpf_8h.html" target="_top" xlink:title="src/enet_encap/cpf.h">
<polygon fill="none" stroke="black" points="246.303,-62.5 246.303,-81.5 354.303,-81.5 354.303,-62.5 246.303,-62.5"/>
<text text-anchor="middle" x="300.303" y="-69.5" font-family="Helvetica,sans-Serif" font-size="10.00">src/enet_encap/cpf.h</text>
</a>
</g>
</g>
<!-- Node24&#45;&gt;Node25 -->
<g id="edge46" class="edge"><title>Node24&#45;&gt;Node25</title>
<path fill="none" stroke="midnightblue" d="M378.218,-119.286C358.688,-107.685 331.31,-91.4202 314.747,-81.5806"/>
<polygon fill="midnightblue" stroke="midnightblue" points="376.447,-122.305 386.832,-124.403 380.022,-116.287 376.447,-122.305"/>
</g>
<!-- Node26 -->
<g id="node26" class="node"><title>Node26</title>
<g id="a_node26"><a xlink:href="../../d2/d5e/POSIX_2networkhandler_8c.html" target="_top" xlink:title="src/ports/POSIX/networkhandler.c">
<polygon fill="none" stroke="black" points="24.3026,-62.5 24.3026,-81.5 190.303,-81.5 190.303,-62.5 24.3026,-62.5"/>
<text text-anchor="middle" x="107.303" y="-69.5" font-family="Helvetica,sans-Serif" font-size="10.00">src/ports/POSIX/networkhandler.c</text>
</a>
</g>
</g>
<!-- Node24&#45;&gt;Node26 -->
<g id="edge54" class="edge"><title>Node24&#45;&gt;Node26</title>
<path fill="none" stroke="midnightblue" d="M349.587,-122.446C292.49,-110.793 201.692,-92.2631 148.969,-81.5034"/>
<polygon fill="midnightblue" stroke="midnightblue" points="348.994,-125.897 359.492,-124.467 350.394,-119.038 348.994,-125.897"/>
</g>
<!-- Node25&#45;&gt;Node6 -->
<g id="edge47" class="edge"><title>Node25&#45;&gt;Node6</title>
<path fill="none" stroke="midnightblue" d="M339.509,-59.5807C379.537,-47.9221 440.767,-30.0881 476.843,-19.5806"/>
<polygon fill="midnightblue" stroke="midnightblue" points="338.44,-56.2466 329.817,-62.4035 340.397,-62.9673 338.44,-56.2466"/>
</g>
<!-- Node25&#45;&gt;Node7 -->
<g id="edge48" class="edge"><title>Node25&#45;&gt;Node7</title>
<path fill="none" stroke="midnightblue" d="M364.598,-63.7607C388.094,-61.1948 414.89,-58.3607 439.303,-56 626.225,-37.9246 673.341,-37.6626 860.303,-20 863.326,-19.7144 866.408,-19.4184 869.521,-19.1155"/>
<polygon fill="midnightblue" stroke="midnightblue" points="363.961,-60.3095 354.403,-64.8799 364.725,-67.2677 363.961,-60.3095"/>
</g>
<!-- Node25&#45;&gt;Node8 -->
<g id="edge49" class="edge"><title>Node25&#45;&gt;Node8</title>
<path fill="none" stroke="midnightblue" d="M364.543,-63.1018C388.032,-60.469 414.84,-57.7611 439.303,-56 879.786,-24.2888 992.102,-55.4227 1432.3,-20 1435.32,-19.7575 1438.4,-19.4814 1441.51,-19.18"/>
<polygon fill="midnightblue" stroke="midnightblue" points="363.891,-59.6533 354.351,-64.2623 364.683,-66.6084 363.891,-59.6533"/>
</g>
<!-- Node25&#45;&gt;Node10 -->
<g id="edge51" class="edge"><title>Node25&#45;&gt;Node10</title>
<path fill="none" stroke="midnightblue" d="M288.592,-53.8622C280.931,-42.6517 271.251,-28.4852 265.166,-19.5806"/>
<polygon fill="midnightblue" stroke="midnightblue" points="285.897,-56.1217 294.428,-62.4035 291.676,-52.1723 285.897,-56.1217"/>
</g>
<!-- Node25&#45;&gt;Node23 -->
<g id="edge50" class="edge"><title>Node25&#45;&gt;Node23</title>
<path fill="none" stroke="midnightblue" d="M256.886,-60.0084C210.772,-48.3341 138.864,-30.1294 96.8909,-19.5034"/>
<polygon fill="midnightblue" stroke="midnightblue" points="256.045,-63.4058 266.598,-62.4672 257.763,-56.6199 256.045,-63.4058"/>
</g>
</g>
</svg>
