<?xml version="1.0" encoding="UTF-8" standalone="no"?>
<!DOCTYPE svg PUBLIC "-//W3C//DTD SVG 1.1//EN"
 "http://www.w3.org/Graphics/SVG/1.1/DTD/svg11.dtd">
<!-- Generated by graphviz version 2.36.0 (20140111.2315)
 -->
<!-- Title: src/utils/doublylinkedlist.h Pages: 1 -->
<!--zoomable 320 -->
<svg id="main" version="1.1" xmlns="http://www.w3.org/2000/svg" xmlns:xlink="http://www.w3.org/1999/xlink" xml:space="preserve" onload="init(evt)">
<style type="text/css"><![CDATA[
.edge:hover path { stroke: red; }
.edge:hover polygon { stroke: red; fill: red; }
]]></style>
<script type="text/javascript"><![CDATA[
var edges = document.getElementsByTagName('g');
if (edges && edges.length) {
  for (var i=0;i<edges.length;i++) {
    if (edges[i].id.substr(0,4)=='edge') {
      edges[i].setAttribute('class','edge');
    }
  }
}
]]></script>
        <defs>
                <circle id="rim" cx="0" cy="0" r="7"/>
                <circle id="rim2" cx="0" cy="0" r="3.5"/>
                <g id="zoomPlus">
                        <use xlink:href="#rim" fill="#404040">
                                <set attributeName="fill" to="#808080" begin="zoomplus.mouseover" end="zoomplus.mouseout"/>
                        </use>
                        <path d="M-4,0h8M0,-4v8" fill="none" stroke="white" stroke-width="1.5" pointer-events="none"/>
                </g>
                <g id="zoomMin">
                        <use xlink:href="#rim" fill="#404040">
                                <set attributeName="fill" to="#808080" begin="zoomminus.mouseover" end="zoomminus.mouseout"/>
                        </use>
                        <path d="M-4,0h8" fill="none" stroke="white" stroke-width="1.5" pointer-events="none"/>
                </g>
                <g id="dirArrow">
                        <path fill="none" stroke="white" stroke-width="1.5" d="M0,-3.0v7 M-2.5,-0.5L0,-3.0L2.5,-0.5"/>
                </g>
               <g id="resetDef">
                       <use xlink:href="#rim2" fill="#404040">
                               <set attributeName="fill" to="#808080" begin="reset.mouseover" end="reset.mouseout"/>
                       </use>
               </g>
        </defs>

<script type="text/javascript">
var viewWidth = 1843;
var viewHeight = 320;
var sectionId = 'dynsection-0';
</script>
<script xlink:href="../../svgpan.js"/>
<svg id="graph" class="graph">
<g id="viewport">
<title>src/utils/doublylinkedlist.h</title>
<!-- Node1 -->
<g id="node1" class="node"><title>Node1</title>
<polygon fill="#bfbfbf" stroke="black" points="1613.82,-292.5 1613.82,-311.5 1742.82,-311.5 1742.82,-292.5 1613.82,-292.5"/>
<text text-anchor="middle" x="1678.32" y="-299.5" font-family="Helvetica,sans-Serif" font-size="10.00">src/utils/doublylinkedlist.h</text>
</g>
<!-- Node2 -->
<g id="node2" class="node"><title>Node2</title>
<g id="a_node2"><a xlink:href="../../d1/d6c/cipconnectionobject_8h.html" target="_top" xlink:title="src/cip/cipconnectionobject.h">
<polygon fill="none" stroke="black" points="587.82,-236.5 587.82,-255.5 730.82,-255.5 730.82,-236.5 587.82,-236.5"/>
<text text-anchor="middle" x="659.32" y="-243.5" font-family="Helvetica,sans-Serif" font-size="10.00">src/cip/cipconnectionobject.h</text>
</a>
</g>
</g>
<!-- Node1&#45;&gt;Node2 -->
<g id="edge1" class="edge"><title>Node1&#45;&gt;Node2</title>
<path fill="none" stroke="midnightblue" d="M1603.67,-297.044C1414.28,-287.008 916.98,-260.654 730.933,-250.795"/>
<polygon fill="midnightblue" stroke="midnightblue" points="1603.63,-300.547 1613.8,-297.581 1604,-293.557 1603.63,-300.547"/>
</g>
<!-- Node12 -->
<g id="node12" class="node"><title>Node12</title>
<g id="a_node12"><a xlink:href="../../d9/dfb/POSIX_2main_8c.html" target="_top" xlink:title="src/ports/POSIX/main.c">
<polygon fill="none" stroke="black" points="1623.82,-0.5 1623.82,-19.5 1744.82,-19.5 1744.82,-0.5 1623.82,-0.5"/>
<text text-anchor="middle" x="1684.32" y="-7.5" font-family="Helvetica,sans-Serif" font-size="10.00">src/ports/POSIX/main.c</text>
</a>
</g>
</g>
<!-- Node1&#45;&gt;Node12 -->
<g id="edge57" class="edge"><title>Node1&#45;&gt;Node12</title>
<path fill="none" stroke="midnightblue" d="M1678.32,-282.251C1678.32,-260.357 1678.32,-223.052 1678.32,-191 1678.32,-191 1678.32,-191 1678.32,-133 1678.32,-90.3756 1682.02,-39.4755 1683.61,-19.5717"/>
<polygon fill="midnightblue" stroke="midnightblue" points="1674.82,-282.442 1678.32,-292.442 1681.82,-282.442 1674.82,-282.442"/>
</g>
<!-- Node27 -->
<g id="node27" class="node"><title>Node27</title>
<g id="a_node27"><a xlink:href="../../d9/ddc/doublylinkedlist_8c.html" target="_top" xlink:title="src/utils/doublylinkedlist.c">
<polygon fill="none" stroke="black" points="1706.82,-236.5 1706.82,-255.5 1835.82,-255.5 1835.82,-236.5 1706.82,-236.5"/>
<text text-anchor="middle" x="1771.32" y="-243.5" font-family="Helvetica,sans-Serif" font-size="10.00">src/utils/doublylinkedlist.c</text>
</a>
</g>
</g>
<!-- Node1&#45;&gt;Node27 -->
<g id="edge58" class="edge"><title>Node1&#45;&gt;Node27</title>
<path fill="none" stroke="midnightblue" d="M1702.13,-287.177C1719.24,-277.241 1741.78,-264.149 1756.41,-255.655"/>
<polygon fill="midnightblue" stroke="midnightblue" points="1700.15,-284.276 1693.26,-292.324 1703.67,-290.329 1700.15,-284.276"/>
</g>
<!-- Node3 -->
<g id="node3" class="node"><title>Node3</title>
<g id="a_node3"><a xlink:href="../../d2/da3/cipconnectionmanager_8h.html" target="_top" xlink:title="src/cip/cipconnectionmanager.h">
<polygon fill="none" stroke="black" points="698.82,-180.5 698.82,-199.5 853.82,-199.5 853.82,-180.5 698.82,-180.5"/>
<text text-anchor="middle" x="776.32" y="-187.5" font-family="Helvetica,sans-Serif" font-size="10.00">src/cip/cipconnectionmanager.h</text>
</a>
</g>
</g>
<!-- Node2&#45;&gt;Node3 -->
<g id="edge2" class="edge"><title>Node2&#45;&gt;Node3</title>
<path fill="none" stroke="midnightblue" d="M686.983,-232.232C708.869,-222.131 738.816,-208.309 757.867,-199.516"/>
<polygon fill="midnightblue" stroke="midnightblue" points="685.472,-229.075 677.859,-236.444 688.405,-235.431 685.472,-229.075"/>
</g>
<!-- Node5 -->
<g id="node5" class="node"><title>Node5</title>
<g id="a_node5"><a xlink:href="../../d1/dbc/appcontype_8c.html" target="_top" xlink:title="src/cip/appcontype.c">
<polygon fill="none" stroke="black" points="1463.82,-62.5 1463.82,-81.5 1570.82,-81.5 1570.82,-62.5 1463.82,-62.5"/>
<text text-anchor="middle" x="1517.32" y="-69.5" font-family="Helvetica,sans-Serif" font-size="10.00">src/cip/appcontype.c</text>
</a>
</g>
</g>
<!-- Node2&#45;&gt;Node5 -->
<g id="edge37" class="edge"><title>Node2&#45;&gt;Node5</title>
<path fill="none" stroke="midnightblue" d="M741.205,-244.398C880.216,-241.074 1169.55,-224.124 1398.32,-144 1441.46,-128.891 1486.11,-97.0995 1506.27,-81.7114"/>
<polygon fill="midnightblue" stroke="midnightblue" points="740.975,-240.902 731.055,-244.623 741.13,-247.9 740.975,-240.902"/>
</g>
<!-- Node7 -->
<g id="node7" class="node"><title>Node7</title>
<g id="a_node7"><a xlink:href="../../d5/d35/cipconnectionmanager_8c.html" target="_top" xlink:title="src/cip/cipconnectionmanager.c">
<polygon fill="none" stroke="black" points="427.82,-0.5 427.82,-19.5 582.82,-19.5 582.82,-0.5 427.82,-0.5"/>
<text text-anchor="middle" x="505.32" y="-7.5" font-family="Helvetica,sans-Serif" font-size="10.00">src/cip/cipconnectionmanager.c</text>
</a>
</g>
</g>
<!-- Node2&#45;&gt;Node7 -->
<g id="edge39" class="edge"><title>Node2&#45;&gt;Node7</title>
<path fill="none" stroke="midnightblue" d="M577.517,-239.135C432.782,-227.505 138.678,-197.873 52.3196,-144 25.9236,-127.533 20.1578,-117.515 10.3196,-88 5.82218,-74.5076 0.729054,-66.502 10.3196,-56 24.1852,-40.8167 291.865,-23.294 427.676,-15.3346"/>
<polygon fill="midnightblue" stroke="midnightblue" points="577.429,-242.639 587.675,-239.941 577.983,-235.661 577.429,-242.639"/>
</g>
<!-- Node2&#45;&gt;Node12 -->
<g id="edge56" class="edge"><title>Node2&#45;&gt;Node12</title>
<path fill="none" stroke="midnightblue" d="M740.87,-242.697C854.337,-238.592 1066,-227.668 1244.32,-200 1351.7,-183.339 1379.95,-180.456 1482.32,-144 1535.87,-124.928 1550.04,-119.573 1597.32,-88 1628.85,-66.9396 1660.99,-35.2851 1675.84,-19.9545"/>
<polygon fill="midnightblue" stroke="midnightblue" points="740.739,-239.199 730.869,-243.05 740.986,-246.195 740.739,-239.199"/>
</g>
<!-- Node17 -->
<g id="node17" class="node"><title>Node17</title>
<g id="a_node17"><a xlink:href="../../d2/d11/cipclass3connection_8h.html" target="_top" xlink:title="CIP Class 3 connection. ">
<polygon fill="none" stroke="black" points="61.3196,-124.5 61.3196,-143.5 207.32,-143.5 207.32,-124.5 61.3196,-124.5"/>
<text text-anchor="middle" x="134.32" y="-131.5" font-family="Helvetica,sans-Serif" font-size="10.00">src/cip/cipclass3connection.h</text>
</a>
</g>
</g>
<!-- Node2&#45;&gt;Node17 -->
<g id="edge38" class="edge"><title>Node2&#45;&gt;Node17</title>
<path fill="none" stroke="midnightblue" d="M608.636,-234.381C504.819,-212.628 269.805,-163.387 175.053,-143.535"/>
<polygon fill="midnightblue" stroke="midnightblue" points="608.055,-237.835 618.561,-236.46 609.491,-230.984 608.055,-237.835"/>
</g>
<!-- Node21 -->
<g id="node21" class="node"><title>Node21</title>
<g id="a_node21"><a xlink:href="../../de/d45/cipioconnection_8h.html" target="_top" xlink:title="src/cip/cipioconnection.h">
<polygon fill="none" stroke="black" points="596.82,-124.5 596.82,-143.5 721.82,-143.5 721.82,-124.5 596.82,-124.5"/>
<text text-anchor="middle" x="659.32" y="-131.5" font-family="Helvetica,sans-Serif" font-size="10.00">src/cip/cipioconnection.h</text>
</a>
</g>
</g>
<!-- Node2&#45;&gt;Node21 -->
<g id="edge40" class="edge"><title>Node2&#45;&gt;Node21</title>
<path fill="none" stroke="midnightblue" d="M659.32,-226.348C659.32,-202.254 659.32,-161.308 659.32,-143.591"/>
<polygon fill="midnightblue" stroke="midnightblue" points="655.82,-226.368 659.32,-236.368 662.82,-226.369 655.82,-226.368"/>
</g>
<!-- Node22 -->
<g id="node22" class="node"><title>Node22</title>
<g id="a_node22"><a xlink:href="../../df/d91/cipconnectionobject_8c.html" target="_top" xlink:title="src/cip/cipconnectionobject.c">
<polygon fill="none" stroke="black" points="396.82,-124.5 396.82,-143.5 539.82,-143.5 539.82,-124.5 396.82,-124.5"/>
<text text-anchor="middle" x="468.32" y="-131.5" font-family="Helvetica,sans-Serif" font-size="10.00">src/cip/cipconnectionobject.c</text>
</a>
</g>
</g>
<!-- Node2&#45;&gt;Node22 -->
<g id="edge41" class="edge"><title>Node2&#45;&gt;Node22</title>
<path fill="none" stroke="midnightblue" d="M635.533,-231.301C595.603,-208.304 516.227,-162.591 483.237,-143.591"/>
<polygon fill="midnightblue" stroke="midnightblue" points="633.92,-234.411 644.332,-236.368 637.413,-228.345 633.92,-234.411"/>
</g>
<!-- Node24 -->
<g id="node24" class="node"><title>Node24</title>
<g id="a_node24"><a xlink:href="../../d7/df9/encap_8h.html" target="_top" xlink:title="This file contains the public interface of the encapsulation layer. ">
<polygon fill="none" stroke="black" points="257.82,-124.5 257.82,-143.5 378.82,-143.5 378.82,-124.5 257.82,-124.5"/>
<text text-anchor="middle" x="318.32" y="-131.5" font-family="Helvetica,sans-Serif" font-size="10.00">src/enet_encap/encap.h</text>
</a>
</g>
</g>
<!-- Node2&#45;&gt;Node24 -->
<g id="edge42" class="edge"><title>Node2&#45;&gt;Node24</title>
<path fill="none" stroke="midnightblue" d="M623.292,-233.378C554.475,-211.179 405.777,-163.212 345.012,-143.61"/>
<polygon fill="midnightblue" stroke="midnightblue" points="622.254,-236.721 632.846,-236.46 624.403,-230.059 622.254,-236.721"/>
</g>
<!-- Node4 -->
<g id="node4" class="node"><title>Node4</title>
<g id="a_node4"><a xlink:href="../../d1/dc0/appcontype_8h.html" target="_top" xlink:title="src/cip/appcontype.h">
<polygon fill="none" stroke="black" points="1076.82,-124.5 1076.82,-143.5 1183.82,-143.5 1183.82,-124.5 1076.82,-124.5"/>
<text text-anchor="middle" x="1130.32" y="-131.5" font-family="Helvetica,sans-Serif" font-size="10.00">src/cip/appcontype.h</text>
</a>
</g>
</g>
<!-- Node3&#45;&gt;Node4 -->
<g id="edge3" class="edge"><title>Node3&#45;&gt;Node4</title>
<path fill="none" stroke="midnightblue" d="M842.543,-178.898C910.25,-168.57 1014.12,-152.725 1076.81,-143.163"/>
<polygon fill="midnightblue" stroke="midnightblue" points="841.77,-175.476 832.412,-180.444 842.825,-182.395 841.77,-175.476"/>
</g>
<!-- Node3&#45;&gt;Node5 -->
<g id="edge17" class="edge"><title>Node3&#45;&gt;Node5</title>
<path fill="none" stroke="midnightblue" d="M863.977,-189.375C956.307,-187.68 1105.11,-178.969 1228.32,-144 1247.82,-138.464 1250.09,-130.436 1269.32,-124 1348.75,-97.4106 1372.45,-105.705 1454.32,-88 1463.55,-86.0038 1473.51,-83.7027 1482.72,-81.5116"/>
<polygon fill="midnightblue" stroke="midnightblue" points="863.779,-185.878 853.836,-189.537 863.891,-192.877 863.779,-185.878"/>
</g>
<!-- Node6 -->
<g id="node6" class="node"><title>Node6</title>
<g id="a_node6"><a xlink:href="../../d2/d3d/cipcommon_8c.html" target="_top" xlink:title="src/cip/cipcommon.c">
<polygon fill="none" stroke="black" points="600.82,-0.5 600.82,-19.5 707.82,-19.5 707.82,-0.5 600.82,-0.5"/>
<text text-anchor="middle" x="654.32" y="-7.5" font-family="Helvetica,sans-Serif" font-size="10.00">src/cip/cipcommon.c</text>
</a>
</g>
</g>
<!-- Node3&#45;&gt;Node6 -->
<g id="edge22" class="edge"><title>Node3&#45;&gt;Node6</title>
<path fill="none" stroke="midnightblue" d="M772.493,-170.455C766.064,-142.969 750.899,-90.9154 722.32,-56 709.049,-39.7871 688.395,-27.2801 673.33,-19.6128"/>
<polygon fill="midnightblue" stroke="midnightblue" points="769.095,-171.296 774.666,-180.307 775.93,-169.788 769.095,-171.296"/>
</g>
<!-- Node3&#45;&gt;Node7 -->
<g id="edge28" class="edge"><title>Node3&#45;&gt;Node7</title>
<path fill="none" stroke="midnightblue" d="M689.011,-178.556C655.676,-171.976 618.273,-161.297 587.32,-144 556.593,-126.83 549.883,-117.905 531.32,-88 517.33,-65.4628 509.866,-34.5005 506.887,-19.6419"/>
<polygon fill="midnightblue" stroke="midnightblue" points="688.741,-182.066 699.215,-180.469 690.031,-175.186 688.741,-182.066"/>
</g>
<!-- Node8 -->
<g id="node8" class="node"><title>Node8</title>
<g id="a_node8"><a xlink:href="../../df/d03/cipioconnection_8c.html" target="_top" xlink:title="src/cip/cipioconnection.c">
<polygon fill="none" stroke="black" points="1156.82,-0.5 1156.82,-19.5 1281.82,-19.5 1281.82,-0.5 1156.82,-0.5"/>
<text text-anchor="middle" x="1219.32" y="-7.5" font-family="Helvetica,sans-Serif" font-size="10.00">src/cip/cipioconnection.c</text>
</a>
</g>
</g>
<!-- Node3&#45;&gt;Node8 -->
<g id="edge33" class="edge"><title>Node3&#45;&gt;Node8</title>
<path fill="none" stroke="midnightblue" d="M864.475,-188.91C985.756,-187.364 1210.42,-179.385 1398.32,-144 1481.07,-128.416 1529.34,-155.774 1579.32,-88 1587.76,-76.5532 1588.73,-66.6621 1579.32,-56 1579.32,-56 1385.17,-31.7312 1282.03,-18.8384"/>
<polygon fill="midnightblue" stroke="midnightblue" points="864.097,-185.414 854.138,-189.03 864.178,-192.414 864.097,-185.414"/>
</g>
<!-- Node9 -->
<g id="node9" class="node"><title>Node9</title>
<g id="a_node9"><a xlink:href="../../da/dc2/generic__networkhandler_8h.html" target="_top" xlink:title="src/ports/generic_networkhandler.h">
<polygon fill="none" stroke="black" points="1276.82,-62.5 1276.82,-81.5 1445.82,-81.5 1445.82,-62.5 1276.82,-62.5"/>
<text text-anchor="middle" x="1361.32" y="-69.5" font-family="Helvetica,sans-Serif" font-size="10.00">src/ports/generic_networkhandler.h</text>
</a>
</g>
</g>
<!-- Node3&#45;&gt;Node9 -->
<g id="edge36" class="edge"><title>Node3&#45;&gt;Node9</title>
<path fill="none" stroke="midnightblue" d="M864.133,-187.578C949.377,-184.322 1081.73,-174.272 1192.32,-144 1213.04,-138.329 1216.59,-132.503 1236.32,-124 1272.26,-108.505 1314.51,-91.5232 1339.53,-81.5881"/>
<polygon fill="midnightblue" stroke="midnightblue" points="863.843,-184.086 853.975,-187.942 864.094,-191.081 863.843,-184.086"/>
</g>
<!-- Node10 -->
<g id="node10" class="node"><title>Node10</title>
<g id="a_node10"><a xlink:href="../../d2/dbd/encap_8c.html" target="_top" xlink:title="src/enet_encap/encap.c">
<polygon fill="none" stroke="black" points="1017.82,-0.5 1017.82,-19.5 1138.82,-19.5 1138.82,-0.5 1017.82,-0.5"/>
<text text-anchor="middle" x="1078.32" y="-7.5" font-family="Helvetica,sans-Serif" font-size="10.00">src/enet_encap/encap.c</text>
</a>
</g>
</g>
<!-- Node3&#45;&gt;Node10 -->
<g id="edge35" class="edge"><title>Node3&#45;&gt;Node10</title>
<path fill="none" stroke="midnightblue" d="M799.55,-175.308C858.893,-140.331 1014.81,-48.4309 1063.55,-19.7077"/>
<polygon fill="midnightblue" stroke="midnightblue" points="797.723,-172.322 790.886,-180.415 801.278,-178.352 797.723,-172.322"/>
</g>
<!-- Node16 -->
<g id="node16" class="node"><title>Node16</title>
<g id="a_node16"><a xlink:href="../../df/d2e/cipassembly_8c.html" target="_top" xlink:title="src/cip/cipassembly.c">
<polygon fill="none" stroke="black" points="1278.32,-124.5 1278.32,-143.5 1390.32,-143.5 1390.32,-124.5 1278.32,-124.5"/>
<text text-anchor="middle" x="1334.32" y="-131.5" font-family="Helvetica,sans-Serif" font-size="10.00">src/cip/cipassembly.c</text>
</a>
</g>
</g>
<!-- Node3&#45;&gt;Node16 -->
<g id="edge18" class="edge"><title>Node3&#45;&gt;Node16</title>
<path fill="none" stroke="midnightblue" d="M864.298,-181.845C962.086,-173.668 1124.65,-159.413 1264.32,-144 1268.83,-143.503 1273.49,-142.961 1278.18,-142.399"/>
<polygon fill="midnightblue" stroke="midnightblue" points="863.838,-178.371 854.164,-182.69 864.42,-185.346 863.838,-178.371"/>
</g>
<!-- Node3&#45;&gt;Node17 -->
<g id="edge19" class="edge"><title>Node3&#45;&gt;Node17</title>
<path fill="none" stroke="midnightblue" d="M688.427,-181.607C560.756,-170.868 326.316,-151.149 207.494,-141.155"/>
<polygon fill="midnightblue" stroke="midnightblue" points="688.302,-185.109 698.56,-182.459 688.888,-178.134 688.302,-185.109"/>
</g>
<!-- Node19 -->
<g id="node19" class="node"><title>Node19</title>
<g id="a_node19"><a xlink:href="../../d0/d3c/cipqos_8h.html" target="_top" xlink:title="Public interface of the QoS Object. ">
<polygon fill="none" stroke="black" points="769.32,-62.5 769.32,-81.5 855.32,-81.5 855.32,-62.5 769.32,-62.5"/>
<text text-anchor="middle" x="812.32" y="-69.5" font-family="Helvetica,sans-Serif" font-size="10.00">src/cip/cipqos.h</text>
</a>
</g>
</g>
<!-- Node3&#45;&gt;Node19 -->
<g id="edge23" class="edge"><title>Node3&#45;&gt;Node19</title>
<path fill="none" stroke="midnightblue" d="M781.995,-170.711C789.892,-145.267 803.876,-100.208 809.68,-81.5048"/>
<polygon fill="midnightblue" stroke="midnightblue" points="778.647,-169.693 779.025,-180.281 785.332,-171.768 778.647,-169.693"/>
</g>
<!-- Node3&#45;&gt;Node21 -->
<g id="edge29" class="edge"><title>Node3&#45;&gt;Node21</title>
<path fill="none" stroke="midnightblue" d="M748.656,-176.232C726.771,-166.131 696.823,-152.309 677.772,-143.516"/>
<polygon fill="midnightblue" stroke="midnightblue" points="747.234,-179.431 757.781,-180.444 750.168,-173.075 747.234,-179.431"/>
</g>
<!-- Node3&#45;&gt;Node22 -->
<g id="edge32" class="edge"><title>Node3&#45;&gt;Node22</title>
<path fill="none" stroke="midnightblue" d="M717.367,-178.664C659.161,-168.459 571.206,-153.039 516.895,-143.516"/>
<polygon fill="midnightblue" stroke="midnightblue" points="717.062,-182.164 727.516,-180.444 718.271,-175.269 717.062,-182.164"/>
</g>
<!-- Node23 -->
<g id="node23" class="node"><title>Node23</title>
<g id="a_node23"><a xlink:href="../../d3/d98/cpf_8c.html" target="_top" xlink:title="src/enet_encap/cpf.c">
<polygon fill="none" stroke="black" points="149.32,-0.5 149.32,-19.5 257.32,-19.5 257.32,-0.5 149.32,-0.5"/>
<text text-anchor="middle" x="203.32" y="-7.5" font-family="Helvetica,sans-Serif" font-size="10.00">src/enet_encap/cpf.c</text>
</a>
</g>
</g>
<!-- Node3&#45;&gt;Node23 -->
<g id="edge34" class="edge"><title>Node3&#45;&gt;Node23</title>
<path fill="none" stroke="midnightblue" d="M688.525,-187.645C507.913,-184.266 107.024,-173.509 52.3196,-144 14.1777,-123.425 -16.6216,-89.9455 10.3196,-56 27.3772,-34.5078 98.0996,-22.3285 148.994,-16.2003"/>
<polygon fill="midnightblue" stroke="midnightblue" points="688.728,-191.149 698.791,-187.833 688.857,-184.15 688.728,-191.149"/>
</g>
<!-- Node4&#45;&gt;Node5 -->
<g id="edge4" class="edge"><title>Node4&#45;&gt;Node5</title>
<path fill="none" stroke="midnightblue" d="M1194.07,-125.974C1259.62,-118.321 1364.52,-104.886 1454.32,-88 1464.04,-86.1715 1474.53,-83.8277 1484.1,-81.5388"/>
<polygon fill="midnightblue" stroke="midnightblue" points="1193.42,-122.525 1183.89,-127.152 1194.23,-129.478 1193.42,-122.525"/>
</g>
<!-- Node4&#45;&gt;Node6 -->
<g id="edge5" class="edge"><title>Node4&#45;&gt;Node6</title>
<path fill="none" stroke="midnightblue" d="M1093.7,-121.508C1042.61,-105.682 946.932,-76.7807 864.32,-56 807.549,-41.7196 741.427,-28.0299 698.776,-19.5774"/>
<polygon fill="midnightblue" stroke="midnightblue" points="1092.72,-124.868 1103.3,-124.493 1094.79,-118.183 1092.72,-124.868"/>
</g>
<!-- Node4&#45;&gt;Node7 -->
<g id="edge6" class="edge"><title>Node4&#45;&gt;Node7</title>
<path fill="none" stroke="midnightblue" d="M1066.53,-132.942C943.558,-131.967 678.583,-125.434 596.32,-88 577.724,-79.5383 578.747,-69.3932 563.32,-56 547.921,-42.632 529.115,-28.3958 517.175,-19.5986"/>
<polygon fill="midnightblue" stroke="midnightblue" points="1066.53,-136.442 1076.56,-133.011 1066.58,-129.442 1066.53,-136.442"/>
</g>
<!-- Node4&#45;&gt;Node8 -->
<g id="edge7" class="edge"><title>Node4&#45;&gt;Node8</title>
<path fill="none" stroke="midnightblue" d="M1183.99,-121.084C1201.47,-114.383 1219.01,-104.005 1229.32,-88 1243.04,-66.6923 1231.22,-35.1537 1223.97,-19.9022"/>
<polygon fill="midnightblue" stroke="midnightblue" points="1182.62,-117.853 1174.33,-124.441 1184.92,-124.465 1182.62,-117.853"/>
</g>
<!-- Node4&#45;&gt;Node9 -->
<g id="edge8" class="edge"><title>Node4&#45;&gt;Node9</title>
<path fill="none" stroke="midnightblue" d="M1173.15,-121.876C1218,-110.225 1287.49,-92.1771 1328.28,-81.5806"/>
<polygon fill="midnightblue" stroke="midnightblue" points="1172.22,-118.502 1163.42,-124.403 1173.98,-125.277 1172.22,-118.502"/>
</g>
<!-- Node15 -->
<g id="node15" class="node"><title>Node15</title>
<g id="a_node15"><a xlink:href="../../d2/daa/POSIX_2sample__application_2sampleapplication_8c.html" target="_top" xlink:title="src/ports/POSIX/sample\l_application/sampleapplication.c">
<polygon fill="none" stroke="black" points="1063.32,-57 1063.32,-87 1221.32,-87 1221.32,-57 1063.32,-57"/>
<text text-anchor="start" x="1071.32" y="-75" font-family="Helvetica,sans-Serif" font-size="10.00">src/ports/POSIX/sample</text>
<text text-anchor="middle" x="1142.32" y="-64" font-family="Helvetica,sans-Serif" font-size="10.00">_application/sampleapplication.c</text>
</a>
</g>
</g>
<!-- Node4&#45;&gt;Node15 -->
<g id="edge16" class="edge"><title>Node4&#45;&gt;Node15</title>
<path fill="none" stroke="midnightblue" d="M1134.05,-114.371C1135.8,-105.585 1137.87,-95.2721 1139.49,-87.1408"/>
<polygon fill="midnightblue" stroke="midnightblue" points="1130.57,-113.911 1132.04,-124.403 1137.43,-115.284 1130.57,-113.911"/>
</g>
<!-- Node9&#45;&gt;Node7 -->
<g id="edge9" class="edge"><title>Node9&#45;&gt;Node7</title>
<path fill="none" stroke="midnightblue" d="M1282.68,-61.3224C1265.14,-59.3701 1246.61,-57.469 1229.32,-56 946.333,-31.9568 874.411,-42.7866 591.32,-20 588.626,-19.7832 585.886,-19.5524 583.12,-19.3106"/>
<polygon fill="midnightblue" stroke="midnightblue" points="1282.55,-64.8299 1292.88,-62.475 1283.34,-57.8742 1282.55,-64.8299"/>
</g>
<!-- Node9&#45;&gt;Node8 -->
<g id="edge10" class="edge"><title>Node9&#45;&gt;Node8</title>
<path fill="none" stroke="midnightblue" d="M1331.44,-58.3743C1303.86,-46.7215 1263.65,-29.7319 1239.63,-19.5806"/>
<polygon fill="midnightblue" stroke="midnightblue" points="1330.4,-61.7353 1340.97,-62.4035 1333.13,-55.2872 1330.4,-61.7353"/>
</g>
<!-- Node9&#45;&gt;Node10 -->
<g id="edge11" class="edge"><title>Node9&#45;&gt;Node10</title>
<path fill="none" stroke="midnightblue" d="M1311.2,-60.3734C1256.22,-48.7166 1169.07,-30.2408 1118.43,-19.5034"/>
<polygon fill="midnightblue" stroke="midnightblue" points="1310.56,-63.817 1321.07,-62.4672 1312.02,-56.9692 1310.56,-63.817"/>
</g>
<!-- Node11 -->
<g id="node11" class="node"><title>Node11</title>
<g id="a_node11"><a xlink:href="../../db/d4f/generic__networkhandler_8c.html" target="_top" xlink:title="This file includes all platform&#45;independent functions of the network handler to reduce code duplicati...">
<polygon fill="none" stroke="black" points="830.82,-0.5 830.82,-19.5 999.82,-19.5 999.82,-0.5 830.82,-0.5"/>
<text text-anchor="middle" x="915.32" y="-7.5" font-family="Helvetica,sans-Serif" font-size="10.00">src/ports/generic_networkhandler.c</text>
</a>
</g>
</g>
<!-- Node9&#45;&gt;Node11 -->
<g id="edge12" class="edge"><title>Node9&#45;&gt;Node11</title>
<path fill="none" stroke="midnightblue" d="M1287.92,-61.1253C1201.69,-49.5252 1060.08,-30.4747 978.528,-19.5034"/>
<polygon fill="midnightblue" stroke="midnightblue" points="1287.51,-64.6026 1297.89,-62.4672 1288.45,-57.6651 1287.51,-64.6026"/>
</g>
<!-- Node9&#45;&gt;Node12 -->
<g id="edge13" class="edge"><title>Node9&#45;&gt;Node12</title>
<path fill="none" stroke="midnightblue" d="M1417.36,-60.5902C1480.04,-48.9469 1580.38,-30.3077 1638.54,-19.5034"/>
<polygon fill="midnightblue" stroke="midnightblue" points="1416.45,-57.1996 1407.25,-62.4672 1417.73,-64.0819 1416.45,-57.1996"/>
</g>
<!-- Node13 -->
<g id="node13" class="node"><title>Node13</title>
<g id="a_node13"><a xlink:href="../../dc/db2/WIN32_2main_8c.html" target="_top" xlink:title="src/ports/WIN32/main.c">
<polygon fill="none" stroke="black" points="1484.82,-0.5 1484.82,-19.5 1605.82,-19.5 1605.82,-0.5 1484.82,-0.5"/>
<text text-anchor="middle" x="1545.32" y="-7.5" font-family="Helvetica,sans-Serif" font-size="10.00">src/ports/WIN32/main.c</text>
</a>
</g>
</g>
<!-- Node9&#45;&gt;Node13 -->
<g id="edge14" class="edge"><title>Node9&#45;&gt;Node13</title>
<path fill="none" stroke="midnightblue" d="M1397.25,-59.283C1433.02,-47.6204 1487.06,-29.999 1519.01,-19.5806"/>
<polygon fill="midnightblue" stroke="midnightblue" points="1396.1,-55.9756 1387.68,-62.4035 1398.27,-62.6307 1396.1,-55.9756"/>
</g>
<!-- Node14 -->
<g id="node14" class="node"><title>Node14</title>
<g id="a_node14"><a xlink:href="../../d8/d6c/WIN32_2networkhandler_8c.html" target="_top" xlink:title="src/ports/WIN32/networkhandler.c">
<polygon fill="none" stroke="black" points="1300.32,-0.5 1300.32,-19.5 1466.32,-19.5 1466.32,-0.5 1300.32,-0.5"/>
<text text-anchor="middle" x="1383.32" y="-7.5" font-family="Helvetica,sans-Serif" font-size="10.00">src/ports/WIN32/networkhandler.c</text>
</a>
</g>
</g>
<!-- Node9&#45;&gt;Node14 -->
<g id="edge15" class="edge"><title>Node9&#45;&gt;Node14</title>
<path fill="none" stroke="midnightblue" d="M1367.98,-52.8455C1372.02,-41.8065 1377.01,-28.2181 1380.17,-19.5806"/>
<polygon fill="midnightblue" stroke="midnightblue" points="1364.63,-51.8098 1364.47,-62.4035 1371.2,-54.2196 1364.63,-51.8098"/>
</g>
<!-- Node17&#45;&gt;Node7 -->
<g id="edge21" class="edge"><title>Node17&#45;&gt;Node7</title>
<path fill="none" stroke="midnightblue" d="M67.9541,-121.362C49.4695,-114.733 31.4293,-104.329 20.3196,-88 12.3195,-76.2412 10.7388,-66.5109 20.3196,-56 33.8402,-41.1669 294.111,-23.5819 427.666,-15.4871"/>
<polygon fill="midnightblue" stroke="midnightblue" points="67.0345,-124.743 77.6265,-124.495 69.192,-118.083 67.0345,-124.743"/>
</g>
<!-- Node18 -->
<g id="node18" class="node"><title>Node18</title>
<g id="a_node18"><a xlink:href="../../dc/d93/cipclass3connection_8c.html" target="_top" xlink:title="src/cip/cipclass3connection.c">
<polygon fill="none" stroke="black" points="29.3196,-62.5 29.3196,-81.5 175.32,-81.5 175.32,-62.5 29.3196,-62.5"/>
<text text-anchor="middle" x="102.32" y="-69.5" font-family="Helvetica,sans-Serif" font-size="10.00">src/cip/cipclass3connection.c</text>
</a>
</g>
</g>
<!-- Node17&#45;&gt;Node18 -->
<g id="edge20" class="edge"><title>Node17&#45;&gt;Node18</title>
<path fill="none" stroke="midnightblue" d="M125,-115.525C119.05,-104.369 111.598,-90.3962 106.896,-81.5806"/>
<polygon fill="midnightblue" stroke="midnightblue" points="121.941,-117.227 129.735,-124.403 128.117,-113.933 121.941,-117.227"/>
</g>
<!-- Node19&#45;&gt;Node6 -->
<g id="edge24" class="edge"><title>Node19&#45;&gt;Node6</title>
<path fill="none" stroke="midnightblue" d="M780.276,-58.8315C749.567,-47.1697 703.999,-29.8655 676.915,-19.5806"/>
<polygon fill="midnightblue" stroke="midnightblue" points="779.091,-62.1253 789.682,-62.4035 781.576,-55.5813 779.091,-62.1253"/>
</g>
<!-- Node19&#45;&gt;Node7 -->
<g id="edge25" class="edge"><title>Node19&#45;&gt;Node7</title>
<path fill="none" stroke="midnightblue" d="M759.362,-60.6499C699.88,-49.0248 604.437,-30.3716 549.031,-19.5429"/>
<polygon fill="midnightblue" stroke="midnightblue" points="758.824,-64.1109 769.309,-62.5941 760.166,-57.2409 758.824,-64.1109"/>
</g>
<!-- Node19&#45;&gt;Node11 -->
<g id="edge27" class="edge"><title>Node19&#45;&gt;Node11</title>
<path fill="none" stroke="midnightblue" d="M835.862,-57.2863C855.778,-45.6847 883.698,-29.4202 900.59,-19.5806"/>
<polygon fill="midnightblue" stroke="midnightblue" points="833.956,-54.3456 827.077,-62.4035 837.48,-60.3942 833.956,-54.3456"/>
</g>
<!-- Node20 -->
<g id="node20" class="node"><title>Node20</title>
<g id="a_node20"><a xlink:href="../../dd/d34/cipqos_8c.html" target="_top" xlink:title="src/cip/cipqos.c">
<polygon fill="none" stroke="black" points="726.32,-0.5 726.32,-19.5 812.32,-19.5 812.32,-0.5 726.32,-0.5"/>
<text text-anchor="middle" x="769.32" y="-7.5" font-family="Helvetica,sans-Serif" font-size="10.00">src/cip/cipqos.c</text>
</a>
</g>
</g>
<!-- Node19&#45;&gt;Node20 -->
<g id="edge26" class="edge"><title>Node19&#45;&gt;Node20</title>
<path fill="none" stroke="midnightblue" d="M800.278,-54.1977C792.207,-42.9356 781.915,-28.5743 775.469,-19.5806"/>
<polygon fill="midnightblue" stroke="midnightblue" points="797.489,-56.3141 806.159,-62.4035 803.178,-52.2364 797.489,-56.3141"/>
</g>
<!-- Node21&#45;&gt;Node7 -->
<g id="edge30" class="edge"><title>Node21&#45;&gt;Node7</title>
<path fill="none" stroke="midnightblue" d="M622.964,-120.822C603.924,-113.298 580.967,-102.323 563.32,-88 538.629,-67.9613 518.64,-35.2527 509.974,-19.7192"/>
<polygon fill="midnightblue" stroke="midnightblue" points="621.923,-124.171 632.514,-124.442 624.404,-117.625 621.923,-124.171"/>
</g>
<!-- Node21&#45;&gt;Node8 -->
<g id="edge31" class="edge"><title>Node21&#45;&gt;Node8</title>
<path fill="none" stroke="midnightblue" d="M731.878,-127.451C796.145,-121.394 892.098,-109.545 973.32,-88 1010.73,-78.0755 1017.59,-68.2219 1054.32,-56 1098.27,-41.3746 1149.93,-27.8637 1183.58,-19.54"/>
<polygon fill="midnightblue" stroke="midnightblue" points="731.48,-123.972 721.843,-128.373 732.121,-130.943 731.48,-123.972"/>
</g>
<!-- Node24&#45;&gt;Node6 -->
<g id="edge44" class="edge"><title>Node24&#45;&gt;Node6</title>
<path fill="none" stroke="midnightblue" d="M352.031,-121.047C377.423,-112.023 413.082,-99.3047 444.32,-88 512.236,-63.4212 592.319,-33.9107 631.036,-19.6098"/>
<polygon fill="midnightblue" stroke="midnightblue" points="350.748,-117.788 342.496,-124.434 353.091,-124.385 350.748,-117.788"/>
</g>
<!-- Node24&#45;&gt;Node7 -->
<g id="edge45" class="edge"><title>Node24&#45;&gt;Node7</title>
<path fill="none" stroke="midnightblue" d="M291.193,-119.324C279.416,-111.823 266.842,-101.316 260.32,-88 254.063,-75.2277 251.217,-66.9273 260.32,-56 281.391,-30.7058 364.055,-19.5813 427.598,-14.719"/>
<polygon fill="midnightblue" stroke="midnightblue" points="289.537,-122.411 299.93,-124.471 293.09,-116.379 289.537,-122.411"/>
</g>
<!-- Node24&#45;&gt;Node10 -->
<g id="edge53" class="edge"><title>Node24&#45;&gt;Node10</title>
<path fill="none" stroke="midnightblue" d="M389.018,-123.903C613.949,-102.502 677.774,-139.528 894.32,-88 902.826,-85.9759 1012.47,-39.2044 1058.35,-19.5627"/>
<polygon fill="midnightblue" stroke="midnightblue" points="388.489,-120.438 378.878,-124.896 389.172,-127.404 388.489,-120.438"/>
</g>
<!-- Node24&#45;&gt;Node11 -->
<g id="edge54" class="edge"><title>Node24&#45;&gt;Node11</title>
<path fill="none" stroke="midnightblue" d="M388.971,-124.004C508.747,-114.679 775.229,-140.267 864.32,-88 891.15,-72.2594 906.604,-36.1561 912.516,-19.5918"/>
<polygon fill="midnightblue" stroke="midnightblue" points="388.526,-120.53 378.88,-124.912 389.153,-127.502 388.526,-120.53"/>
</g>
<!-- Node24&#45;&gt;Node18 -->
<g id="edge43" class="edge"><title>Node24&#45;&gt;Node18</title>
<path fill="none" stroke="midnightblue" d="M277.477,-121.655C235.511,-109.998 171.117,-92.1103 133.21,-81.5806"/>
<polygon fill="midnightblue" stroke="midnightblue" points="276.8,-125.099 287.372,-124.403 278.674,-118.355 276.8,-125.099"/>
</g>
<!-- Node24&#45;&gt;Node23 -->
<g id="edge52" class="edge"><title>Node24&#45;&gt;Node23</title>
<path fill="none" stroke="midnightblue" d="M277.386,-120.908C259.809,-113.856 240.358,-103.266 227.32,-88 210.042,-67.7696 205.19,-35.1539 203.837,-19.681"/>
<polygon fill="midnightblue" stroke="midnightblue" points="276.312,-124.244 286.905,-124.47 278.765,-117.688 276.312,-124.244"/>
</g>
<!-- Node25 -->
<g id="node25" class="node"><title>Node25</title>
<g id="a_node25"><a xlink:href="../../d0/dff/cpf_8h.html" target="_top" xlink:title="src/enet_encap/cpf.h">
<polygon fill="none" stroke="black" points="605.32,-62.5 605.32,-81.5 713.32,-81.5 713.32,-62.5 605.32,-62.5"/>
<text text-anchor="middle" x="659.32" y="-69.5" font-family="Helvetica,sans-Serif" font-size="10.00">src/enet_encap/cpf.h</text>
</a>
</g>
</g>
<!-- Node24&#45;&gt;Node25 -->
<g id="edge46" class="edge"><title>Node24&#45;&gt;Node25</title>
<path fill="none" stroke="midnightblue" d="M376.665,-122.734C442.781,-111.101 549.335,-92.3522 610.992,-81.5034"/>
<polygon fill="midnightblue" stroke="midnightblue" points="376.057,-119.287 366.814,-124.467 377.27,-126.181 376.057,-119.287"/>
</g>
<!-- Node26 -->
<g id="node26" class="node"><title>Node26</title>
<g id="a_node26"><a xlink:href="../../d2/d5e/POSIX_2networkhandler_8c.html" target="_top" xlink:title="src/ports/POSIX/networkhandler.c">
<polygon fill="none" stroke="black" points="269.32,-62.5 269.32,-81.5 435.32,-81.5 435.32,-62.5 269.32,-62.5"/>
<text text-anchor="middle" x="352.32" y="-69.5" font-family="Helvetica,sans-Serif" font-size="10.00">src/ports/POSIX/networkhandler.c</text>
</a>
</g>
</g>
<!-- Node24&#45;&gt;Node26 -->
<g id="edge55" class="edge"><title>Node24&#45;&gt;Node26</title>
<path fill="none" stroke="midnightblue" d="M328.222,-115.525C334.544,-104.369 342.462,-90.3962 347.457,-81.5806"/>
<polygon fill="midnightblue" stroke="midnightblue" points="325.076,-113.978 323.191,-124.403 331.166,-117.429 325.076,-113.978"/>
</g>
<!-- Node25&#45;&gt;Node6 -->
<g id="edge47" class="edge"><title>Node25&#45;&gt;Node6</title>
<path fill="none" stroke="midnightblue" d="M657.75,-52.1595C656.84,-41.2482 655.74,-28.04 655.035,-19.5806"/>
<polygon fill="midnightblue" stroke="midnightblue" points="654.285,-52.7287 658.603,-62.4035 661.261,-52.1473 654.285,-52.7287"/>
</g>
<!-- Node25&#45;&gt;Node7 -->
<g id="edge48" class="edge"><title>Node25&#45;&gt;Node7</title>
<path fill="none" stroke="midnightblue" d="M627.698,-58.6797C597.771,-47.0201 553.627,-29.8209 527.343,-19.5806"/>
<polygon fill="midnightblue" stroke="midnightblue" points="626.667,-62.0343 637.255,-62.4035 629.208,-55.5119 626.667,-62.0343"/>
</g>
<!-- Node25&#45;&gt;Node8 -->
<g id="edge49" class="edge"><title>Node25&#45;&gt;Node8</title>
<path fill="none" stroke="midnightblue" d="M723.17,-60.9775C735.481,-59.1979 748.289,-57.4518 760.32,-56 931.818,-35.304 975.594,-38.7154 1147.32,-20 1150.33,-19.6724 1153.4,-19.3272 1156.5,-18.9705"/>
<polygon fill="midnightblue" stroke="midnightblue" points="722.359,-57.559 712.973,-62.4745 723.375,-64.4848 722.359,-57.559"/>
</g>
<!-- Node25&#45;&gt;Node10 -->
<g id="edge51" class="edge"><title>Node25&#45;&gt;Node10</title>
<path fill="none" stroke="midnightblue" d="M723.654,-61.3779C735.83,-59.576 748.464,-57.7192 760.32,-56 849.851,-43.017 953.631,-28.415 1017.64,-19.4613"/>
<polygon fill="midnightblue" stroke="midnightblue" points="722.939,-57.9455 713.561,-62.8744 723.966,-64.8698 722.939,-57.9455"/>
</g>
<!-- Node25&#45;&gt;Node23 -->
<g id="edge50" class="edge"><title>Node25&#45;&gt;Node23</title>
<path fill="none" stroke="midnightblue" d="M595.108,-62.5512C504.78,-50.6659 341.81,-29.2224 257.349,-18.1091"/>
<polygon fill="midnightblue" stroke="midnightblue" points="594.849,-66.0471 605.22,-63.8816 595.762,-59.1069 594.849,-66.0471"/>
</g>
</g>
</svg>
        <g id="navigator" transform="translate(0 0)" fill="#404254">
                <rect fill="#f2f5e9" fill-opacity="0.5" stroke="#606060" stroke-width=".5" x="0" y="0" width="60" height="60"/>
                <use id="zoomplus" xlink:href="#zoomPlus" x="17" y="9" onmousedown="handleZoom(evt,'in')"/>
                <use id="zoomminus" xlink:href="#zoomMin" x="42" y="9" onmousedown="handleZoom(evt,'out')"/>
                <use id="reset" xlink:href="#resetDef" x="30" y="36" onmousedown="handleReset()"/>
                <g id="arrowUp" xlink:href="#dirArrow" transform="translate(30 24)" onmousedown="handlePan(0,-1)">
                  <use xlink:href="#rim" fill="#404040">
                        <set attributeName="fill" to="#808080" begin="arrowUp.mouseover" end="arrowUp.mouseout"/>
                  </use>
                  <path fill="none" stroke="white" stroke-width="1.5" d="M0,-3.0v7 M-2.5,-0.5L0,-3.0L2.5,-0.5"/>
                </g>
                <g id="arrowRight" xlink:href="#dirArrow" transform="rotate(90) translate(36 -43)" onmousedown="handlePan(1,0)">
                  <use xlink:href="#rim" fill="#404040">
                        <set attributeName="fill" to="#808080" begin="arrowRight.mouseover" end="arrowRight.mouseout"/>
                  </use>
                  <path fill="none" stroke="white" stroke-width="1.5" d="M0,-3.0v7 M-2.5,-0.5L0,-3.0L2.5,-0.5"/>
                </g>
                <g id="arrowDown" xlink:href="#dirArrow" transform="rotate(180) translate(-30 -48)" onmousedown="handlePan(0,1)">
                  <use xlink:href="#rim" fill="#404040">
                        <set attributeName="fill" to="#808080" begin="arrowDown.mouseover" end="arrowDown.mouseout"/>
                  </use>
                  <path fill="none" stroke="white" stroke-width="1.5" d="M0,-3.0v7 M-2.5,-0.5L0,-3.0L2.5,-0.5"/>
                </g>
                <g id="arrowLeft" xlink:href="#dirArrow" transform="rotate(270) translate(-36 17)" onmousedown="handlePan(-1,0)">
                  <use xlink:href="#rim" fill="#404040">
                        <set attributeName="fill" to="#808080" begin="arrowLeft.mouseover" end="arrowLeft.mouseout"/>
                  </use>
                  <path fill="none" stroke="white" stroke-width="1.5" d="M0,-3.0v7 M-2.5,-0.5L0,-3.0L2.5,-0.5"/>
                </g>
        </g>
        <svg viewBox="0 0 15 15" width="100%" height="30px" preserveAspectRatio="xMaxYMin meet">
         <g id="arrow_out" transform="scale(0.3 0.3)">
          <a xlink:href="doublylinkedlist_8h__dep__incl_org.svg" target="_base">
           <rect id="button" ry="5" rx="5" y="6" x="6" height="38" width="38"
                fill="#f2f5e9" fill-opacity="0.5" stroke="#606060" stroke-width="1.0"/>
           <path id="arrow"
             d="M 11.500037,31.436501 C 11.940474,20.09759 22.043105,11.32322 32.158766,21.979434 L 37.068811,17.246167 C 37.068811,17.246167 37.088388,32 37.088388,32 L 22.160133,31.978069 C 22.160133,31.978069 26.997745,27.140456 26.997745,27.140456 C 18.528582,18.264221 13.291696,25.230495 11.500037,31.436501 z"
             style="fill:#404040;"/>
          </a>
         </g>
        </svg>
</svg>
