<?xml version="1.0" encoding="UTF-8" standalone="no"?>
<!DOCTYPE svg PUBLIC "-//W3C//DTD SVG 1.1//EN"
 "http://www.w3.org/Graphics/SVG/1.1/DTD/svg11.dtd">
<!-- Generated by graphviz version 2.26.3 (20100126.1600)
 -->
<!-- Title: G Pages: 1 -->
<!--zoomable 262 -->
<svg id="main" version="1.1" xmlns="http://www.w3.org/2000/svg" xmlns:xlink="http://www.w3.org/1999/xlink" xml:space="preserve" onload="init(evt)">
        <defs>
                <circle id="rim" cx="0" cy="0" r="7"/>
                <circle id="rim2" cx="0" cy="0" r="3.5"/>
                <g id="zoomPlus">
                        <use xlink:href="#rim" fill="#404040">
                                <set attributeName="fill" to="#808080" begin="zoomplus.mouseover" end="zoomplus.mouseout"/>
                        </use>
                        <path d="M-4,0h8M0,-4v8" fill="none" stroke="white" stroke-width="1.5" pointer-events="none"/>
                </g>
                <g id="zoomMin">
                        <use xlink:href="#rim" fill="#404040">
                                <set attributeName="fill" to="#808080" begin="zoomminus.mouseover" end="zoomminus.mouseout"/>
                        </use>
                        <path d="M-4,0h8" fill="none" stroke="white" stroke-width="1.5" pointer-events="none"/>
                </g>
                <g id="dirArrow">
                        <path fill="none" stroke="white" stroke-width="1.5" d="M0,-3.0v7 M-2.5,-0.5L0,-3.0L2.5,-0.5"/>
                </g>
               <g id="resetDef">
                       <use xlink:href="#rim2" fill="#404040">
                               <set attributeName="fill" to="#808080" begin="reset.mouseover" end="reset.mouseout"/>
                       </use>
               </g>
        </defs>

<script type="text/javascript">
var viewWidth = 626;
var viewHeight = 262;
var sectionId = 'dynsection-0';
</script>
<script xlink:href="../../svgpan.js"/>
<svg id="graph" class="graph">
<g id="viewport">
<title>G</title>
<!-- Node1 -->
<g id="node1" class="node"><title>Node1</title>
<polygon fill="#bfbfbf" stroke="black" points="187,-232.5 187,-253.5 307,-253.5 307,-232.5 187,-232.5"/>
<text text-anchor="middle" x="247" y="-240.5" font-family="Helvetica,sans-Serif" font-size="10.00">src/cip/cipethernetlink.c</text>
</g>
<!-- Node2 -->
<g id="node3" class="node"><title>Node2</title>
<polygon fill="none" stroke="#bfbfbf" points="-0.5,-174.5 -0.5,-195.5 48.5,-195.5 48.5,-174.5 -0.5,-174.5"/>
<text text-anchor="middle" x="24" y="-182.5" font-family="Helvetica,sans-Serif" font-size="10.00">string.h</text>
</g>
<!-- Node1&#45;&gt;Node2 -->
<g id="edge2" class="edge"><title>Node1&#45;&gt;Node2</title>
<path fill="none" stroke="midnightblue" d="M203.906,-232.479C166.345,-223.207 110.448,-209.163 62,-196 60.9395,-195.712 59.8632,-195.417 58.7771,-195.117"/>
<polygon fill="midnightblue" stroke="midnightblue" points="59.4788,-191.678 48.9045,-192.337 57.5813,-198.416 59.4788,-191.678"/>
</g>
<!-- Node3 -->
<g id="node5" class="node"><title>Node3</title>
<a xlink:href="../../dd/d4d/cipethernetlink_8h.html" target="_top" xlink:title="cipethernetlink.h">
<polygon fill="none" stroke="black" points="104,-174.5 104,-195.5 192,-195.5 192,-174.5 104,-174.5"/>
<text text-anchor="middle" x="148" y="-182.5" font-family="Helvetica,sans-Serif" font-size="10.00">cipethernetlink.h</text>
</a>
</g>
<!-- Node1&#45;&gt;Node3 -->
<g id="edge4" class="edge"><title>Node1&#45;&gt;Node3</title>
<path fill="none" stroke="midnightblue" d="M228.842,-232.362C213.77,-223.532 192.113,-210.844 175.007,-200.822"/>
<polygon fill="midnightblue" stroke="midnightblue" points="176.441,-197.606 166.043,-195.571 172.902,-203.646 176.441,-197.606"/>
</g>
<!-- Node8 -->
<g id="node16" class="node"><title>Node8</title>
<a xlink:href="../../db/d14/cipcommon_8h.html" target="_top" xlink:title="cipcommon.h">
<polygon fill="none" stroke="black" points="209.5,-174.5 209.5,-195.5 284.5,-195.5 284.5,-174.5 209.5,-174.5"/>
<text text-anchor="middle" x="247" y="-182.5" font-family="Helvetica,sans-Serif" font-size="10.00">cipcommon.h</text>
</a>
</g>
<!-- Node1&#45;&gt;Node8 -->
<g id="edge16" class="edge"><title>Node1&#45;&gt;Node8</title>
<path fill="none" stroke="midnightblue" d="M247,-232.362C247,-224.922 247,-214.743 247,-205.728"/>
<polygon fill="midnightblue" stroke="midnightblue" points="250.5,-205.571 247,-195.571 243.5,-205.571 250.5,-205.571"/>
</g>
<!-- Node9 -->
<g id="node20" class="node"><title>Node9</title>
<a xlink:href="../../d2/d75/cipmessagerouter_8h.html" target="_top" xlink:title="cipmessagerouter.h">
<polygon fill="none" stroke="black" points="302,-174.5 302,-195.5 404,-195.5 404,-174.5 302,-174.5"/>
<text text-anchor="middle" x="353" y="-182.5" font-family="Helvetica,sans-Serif" font-size="10.00">cipmessagerouter.h</text>
</a>
</g>
<!-- Node1&#45;&gt;Node9 -->
<g id="edge22" class="edge"><title>Node1&#45;&gt;Node9</title>
<path fill="none" stroke="midnightblue" d="M266.442,-232.362C282.804,-223.409 306.413,-210.491 324.843,-200.406"/>
<polygon fill="midnightblue" stroke="midnightblue" points="326.589,-203.441 333.681,-195.571 323.229,-197.3 326.589,-203.441"/>
</g>
<!-- Node10 -->
<g id="node24" class="node"><title>Node10</title>
<a xlink:href="../../d6/d52/ciperror_8h.html" target="_top" xlink:title="ciperror.h">
<polygon fill="none" stroke="black" points="561.5,-116.5 561.5,-137.5 618.5,-137.5 618.5,-116.5 561.5,-116.5"/>
<text text-anchor="middle" x="590" y="-124.5" font-family="Helvetica,sans-Serif" font-size="10.00">ciperror.h</text>
</a>
</g>
<!-- Node1&#45;&gt;Node10 -->
<g id="edge28" class="edge"><title>Node1&#45;&gt;Node10</title>
<path fill="none" stroke="midnightblue" d="M307.011,-235.405C371.346,-226.661 468.847,-211.5 503,-196 530.306,-183.608 556.548,-160.801 572.939,-144.81"/>
<polygon fill="midnightblue" stroke="midnightblue" points="575.566,-147.133 580.155,-137.584 570.612,-142.187 575.566,-147.133"/>
</g>
<!-- Node11 -->
<g id="node26" class="node"><title>Node11</title>
<a xlink:href="../../d0/dec/endianconv_8h.html" target="_top" xlink:title="Responsible for Endianess conversion.">
<polygon fill="none" stroke="black" points="44,-116.5 44,-137.5 118,-137.5 118,-116.5 44,-116.5"/>
<text text-anchor="middle" x="81" y="-124.5" font-family="Helvetica,sans-Serif" font-size="10.00">endianconv.h</text>
</a>
</g>
<!-- Node1&#45;&gt;Node11 -->
<g id="edge30" class="edge"><title>Node1&#45;&gt;Node11</title>
<path fill="none" stroke="midnightblue" d="M193.235,-232.44C155.093,-223.864 108.391,-210.797 95,-196 83.301,-183.072 80.2927,-163.129 79.9224,-148.002"/>
<polygon fill="midnightblue" stroke="midnightblue" points="83.4275,-147.612 80.0532,-137.569 76.428,-147.524 83.4275,-147.612"/>
</g>
<!-- Node12 -->
<g id="node29" class="node"><title>Node12</title>
<a xlink:href="../../d4/d38/opener__api_8h.html" target="_top" xlink:title="opener_api.h">
<polygon fill="none" stroke="black" points="422,-174.5 422,-195.5 494,-195.5 494,-174.5 422,-174.5"/>
<text text-anchor="middle" x="458" y="-182.5" font-family="Helvetica,sans-Serif" font-size="10.00">opener_api.h</text>
</a>
</g>
<!-- Node1&#45;&gt;Node12 -->
<g id="edge34" class="edge"><title>Node1&#45;&gt;Node12</title>
<path fill="none" stroke="midnightblue" d="M285.211,-232.497C320.859,-222.698 374.1,-208.063 412.051,-197.631"/>
<polygon fill="midnightblue" stroke="midnightblue" points="413.121,-200.966 421.836,-194.941 411.266,-194.217 413.121,-200.966"/>
</g>
<!-- Node4 -->
<g id="node7" class="node"><title>Node4</title>
<a xlink:href="../../d7/d69/typedefs_8h.html" target="_top" xlink:title="typedefs.h">
<polygon fill="none" stroke="black" points="186,-58.5 186,-79.5 248,-79.5 248,-58.5 186,-58.5"/>
<text text-anchor="middle" x="217" y="-66.5" font-family="Helvetica,sans-Serif" font-size="10.00">typedefs.h</text>
</a>
</g>
<!-- Node3&#45;&gt;Node4 -->
<g id="edge6" class="edge"><title>Node3&#45;&gt;Node4</title>
<path fill="none" stroke="midnightblue" d="M154.368,-174.295C165.972,-154.786 190.716,-113.188 205.39,-88.5177"/>
<polygon fill="midnightblue" stroke="midnightblue" points="208.544,-90.063 210.648,-79.6792 202.527,-86.4844 208.544,-90.063"/>
</g>
<!-- Node7 -->
<g id="node13" class="node"><title>Node7</title>
<a xlink:href="../../df/d28/ciptypes_8h.html" target="_top" xlink:title="ciptypes.h">
<polygon fill="none" stroke="black" points="216,-116.5 216,-137.5 278,-137.5 278,-116.5 216,-116.5"/>
<text text-anchor="middle" x="247" y="-124.5" font-family="Helvetica,sans-Serif" font-size="10.00">ciptypes.h</text>
</a>
</g>
<!-- Node3&#45;&gt;Node7 -->
<g id="edge12" class="edge"><title>Node3&#45;&gt;Node7</title>
<path fill="none" stroke="midnightblue" d="M166.158,-174.362C181.23,-165.532 202.887,-152.844 219.993,-142.822"/>
<polygon fill="midnightblue" stroke="midnightblue" points="222.098,-145.646 228.957,-137.571 218.559,-139.606 222.098,-145.646"/>
</g>
<!-- Node5 -->
<g id="node9" class="node"><title>Node5</title>
<polygon fill="none" stroke="#bfbfbf" points="151.5,-0.5 151.5,-21.5 210.5,-21.5 210.5,-0.5 151.5,-0.5"/>
<text text-anchor="middle" x="181" y="-8.5" font-family="Helvetica,sans-Serif" font-size="10.00">inttypes.h</text>
</g>
<!-- Node4&#45;&gt;Node5 -->
<g id="edge8" class="edge"><title>Node4&#45;&gt;Node5</title>
<path fill="none" stroke="midnightblue" d="M210.397,-58.3619C205.525,-50.5131 198.762,-39.6159 192.95,-30.2527"/>
<polygon fill="midnightblue" stroke="midnightblue" points="195.809,-28.2213 187.561,-21.5707 189.861,-31.9129 195.809,-28.2213"/>
</g>
<!-- Node6 -->
<g id="node11" class="node"><title>Node6</title>
<polygon fill="none" stroke="#bfbfbf" points="228,-0.5 228,-21.5 280,-21.5 280,-0.5 228,-0.5"/>
<text text-anchor="middle" x="254" y="-8.5" font-family="Helvetica,sans-Serif" font-size="10.00">stddef.h</text>
</g>
<!-- Node4&#45;&gt;Node6 -->
<g id="edge10" class="edge"><title>Node4&#45;&gt;Node6</title>
<path fill="none" stroke="midnightblue" d="M223.786,-58.3619C228.793,-50.5131 235.745,-39.6159 241.718,-30.2527"/>
<polygon fill="midnightblue" stroke="midnightblue" points="244.829,-31.8837 247.257,-21.5707 238.928,-28.1189 244.829,-31.8837"/>
</g>
<!-- Node7&#45;&gt;Node4 -->
<g id="edge14" class="edge"><title>Node7&#45;&gt;Node4</title>
<path fill="none" stroke="midnightblue" d="M241.498,-116.362C237.48,-108.595 231.919,-97.8426 227.11,-88.5458"/>
<polygon fill="midnightblue" stroke="midnightblue" points="230.171,-86.8448 222.468,-79.5707 223.953,-90.0608 230.171,-86.8448"/>
</g>
<!-- Node8&#45;&gt;Node4 -->
<g id="edge18" class="edge"><title>Node8&#45;&gt;Node4</title>
<path fill="none" stroke="midnightblue" d="M233.79,-174.198C224.318,-165.541 212.328,-152.48 207,-138 201.205,-122.249 204.621,-103.318 208.97,-89.2734"/>
<polygon fill="midnightblue" stroke="midnightblue" points="212.349,-90.2138 212.341,-79.619 205.74,-87.9064 212.349,-90.2138"/>
</g>
<!-- Node8&#45;&gt;Node7 -->
<g id="edge20" class="edge"><title>Node8&#45;&gt;Node7</title>
<path fill="none" stroke="midnightblue" d="M247,-174.362C247,-166.922 247,-156.743 247,-147.728"/>
<polygon fill="midnightblue" stroke="midnightblue" points="250.5,-147.571 247,-137.571 243.5,-147.571 250.5,-147.571"/>
</g>
<!-- Node9&#45;&gt;Node4 -->
<g id="edge24" class="edge"><title>Node9&#45;&gt;Node4</title>
<path fill="none" stroke="midnightblue" d="M344.233,-174.499C332.148,-160.353 309.325,-134.783 287,-116 273.531,-104.668 257.27,-93.6113 243.813,-85.0721"/>
<polygon fill="midnightblue" stroke="midnightblue" points="245.351,-81.9067 235.012,-79.59 241.65,-87.8482 245.351,-81.9067"/>
</g>
<!-- Node9&#45;&gt;Node7 -->
<g id="edge26" class="edge"><title>Node9&#45;&gt;Node7</title>
<path fill="none" stroke="midnightblue" d="M333.558,-174.362C317.196,-165.409 293.587,-152.491 275.157,-142.406"/>
<polygon fill="midnightblue" stroke="midnightblue" points="276.771,-139.3 266.319,-137.571 273.411,-145.441 276.771,-139.3"/>
</g>
<!-- Node11&#45;&gt;Node4 -->
<g id="edge32" class="edge"><title>Node11&#45;&gt;Node4</title>
<path fill="none" stroke="midnightblue" d="M105.629,-116.497C127.157,-107.315 158.64,-93.8889 182.645,-83.6516"/>
<polygon fill="midnightblue" stroke="midnightblue" points="184.27,-86.7636 192.095,-79.6212 181.524,-80.3247 184.27,-86.7636"/>
</g>
<!-- Node12&#45;&gt;Node4 -->
<g id="edge38" class="edge"><title>Node12&#45;&gt;Node4</title>
<path fill="none" stroke="midnightblue" d="M435.759,-174.295C392.608,-153.525 297.44,-107.718 248.073,-83.9562"/>
<polygon fill="midnightblue" stroke="midnightblue" points="249.367,-80.695 238.839,-79.5117 246.331,-87.0024 249.367,-80.695"/>
</g>
<!-- Node12&#45;&gt;Node7 -->
<g id="edge40" class="edge"><title>Node12&#45;&gt;Node7</title>
<path fill="none" stroke="midnightblue" d="M421.728,-175.029C384.628,-164.831 327.079,-149.012 288.263,-138.342"/>
<polygon fill="midnightblue" stroke="midnightblue" points="288.903,-134.889 278.333,-135.613 287.048,-141.638 288.903,-134.889"/>
</g>
<!-- Node12&#45;&gt;Node10 -->
<g id="edge42" class="edge"><title>Node12&#45;&gt;Node10</title>
<path fill="none" stroke="midnightblue" d="M481.904,-174.497C502.8,-165.315 533.356,-151.889 556.655,-141.652"/>
<polygon fill="midnightblue" stroke="midnightblue" points="558.08,-144.848 565.828,-137.621 555.264,-138.44 558.08,-144.848"/>
</g>
<!-- Node13 -->
<g id="node31" class="node"><title>Node13</title>
<polygon fill="none" stroke="#bfbfbf" points="372,-116.5 372,-137.5 424,-137.5 424,-116.5 372,-116.5"/>
<text text-anchor="middle" x="398" y="-124.5" font-family="Helvetica,sans-Serif" font-size="10.00">assert.h</text>
</g>
<!-- Node12&#45;&gt;Node13 -->
<g id="edge36" class="edge"><title>Node12&#45;&gt;Node13</title>
<path fill="none" stroke="midnightblue" d="M446.995,-174.362C438.453,-166.104 426.42,-154.472 416.417,-144.803"/>
<polygon fill="midnightblue" stroke="midnightblue" points="418.558,-142.004 408.935,-137.571 413.692,-147.037 418.558,-142.004"/>
</g>
<!-- Node14 -->
<g id="node36" class="node"><title>Node14</title>
<polygon fill="none" stroke="#bfbfbf" points="442,-116.5 442,-137.5 544,-137.5 544,-116.5 442,-116.5"/>
<text text-anchor="middle" x="493" y="-124.5" font-family="Helvetica,sans-Serif" font-size="10.00">opener_user_conf.h</text>
</g>
<!-- Node12&#45;&gt;Node14 -->
<g id="edge44" class="edge"><title>Node12&#45;&gt;Node14</title>
<path fill="none" stroke="midnightblue" d="M464.42,-174.362C469.156,-166.513 475.732,-155.616 481.382,-146.253"/>
<polygon fill="midnightblue" stroke="midnightblue" points="484.451,-147.941 486.621,-137.571 478.458,-144.324 484.451,-147.941"/>
</g>
</g>
</svg>
        <g id="navigator" transform="translate(0 0)" fill="#404254">
                <rect fill="#f2f5e9" fill-opacity="0.5" stroke="#606060" stroke-width=".5" x="0" y="0" width="60" height="60"/>
                <use id="zoomplus" xlink:href="#zoomPlus" x="17" y="9" onmousedown="handleZoom(evt,'in')"/>
                <use id="zoomminus" xlink:href="#zoomMin" x="42" y="9" onmousedown="handleZoom(evt,'out')"/>
                <use id="reset" xlink:href="#resetDef" x="30" y="36" onmousedown="handleReset()"/>
                <g id="arrowUp" xlink:href="#dirArrow" transform="translate(30 24)" onmousedown="handlePan(0,-1)">
                  <use xlink:href="#rim" fill="#404040">
                        <set attributeName="fill" to="#808080" begin="arrowUp.mouseover" end="arrowUp.mouseout"/>
                  </use>
                  <path fill="none" stroke="white" stroke-width="1.5" d="M0,-3.0v7 M-2.5,-0.5L0,-3.0L2.5,-0.5"/>
                </g>
                <g id="arrowRight" xlink:href="#dirArrow" transform="rotate(90) translate(36 -43)" onmousedown="handlePan(1,0)">
                  <use xlink:href="#rim" fill="#404040">
                        <set attributeName="fill" to="#808080" begin="arrowRight.mouseover" end="arrowRight.mouseout"/>
                  </use>
                  <path fill="none" stroke="white" stroke-width="1.5" d="M0,-3.0v7 M-2.5,-0.5L0,-3.0L2.5,-0.5"/>
                </g>
                <g id="arrowDown" xlink:href="#dirArrow" transform="rotate(180) translate(-30 -48)" onmousedown="handlePan(0,1)">
                  <use xlink:href="#rim" fill="#404040">
                        <set attributeName="fill" to="#808080" begin="arrowDown.mouseover" end="arrowDown.mouseout"/>
                  </use>
                  <path fill="none" stroke="white" stroke-width="1.5" d="M0,-3.0v7 M-2.5,-0.5L0,-3.0L2.5,-0.5"/>
                </g>
                <g id="arrowLeft" xlink:href="#dirArrow" transform="rotate(270) translate(-36 17)" onmousedown="handlePan(-1,0)">
                  <use xlink:href="#rim" fill="#404040">
                        <set attributeName="fill" to="#808080" begin="arrowLeft.mouseover" end="arrowLeft.mouseout"/>
                  </use>
                  <path fill="none" stroke="white" stroke-width="1.5" d="M0,-3.0v7 M-2.5,-0.5L0,-3.0L2.5,-0.5"/>
                </g>
        </g>
</svg>
