<?xml version="1.0" encoding="UTF-8" standalone="no"?>
<!DOCTYPE svg PUBLIC "-//W3C//DTD SVG 1.1//EN"
 "http://www.w3.org/Graphics/SVG/1.1/DTD/svg11.dtd">
<!-- Generated by graphviz version 2.36.0 (20140111.2315)
 -->
<!-- Title: src/ports/WIN32/networkhandler.c Pages: 1 -->
<!--zoomable 476 -->
<svg id="main" version="1.1" xmlns="http://www.w3.org/2000/svg" xmlns:xlink="http://www.w3.org/1999/xlink" xml:space="preserve" onload="init(evt)">
<style type="text/css"><![CDATA[
.edge:hover path { stroke: red; }
.edge:hover polygon { stroke: red; fill: red; }
]]></style>
<script type="text/javascript"><![CDATA[
var edges = document.getElementsByTagName('g');
if (edges && edges.length) {
  for (var i=0;i<edges.length;i++) {
    if (edges[i].id.substr(0,4)=='edge') {
      edges[i].setAttribute('class','edge');
    }
  }
}
]]></script>
        <defs>
                <circle id="rim" cx="0" cy="0" r="7"/>
                <circle id="rim2" cx="0" cy="0" r="3.5"/>
                <g id="zoomPlus">
                        <use xlink:href="#rim" fill="#404040">
                                <set attributeName="fill" to="#808080" begin="zoomplus.mouseover" end="zoomplus.mouseout"/>
                        </use>
                        <path d="M-4,0h8M0,-4v8" fill="none" stroke="white" stroke-width="1.5" pointer-events="none"/>
                </g>
                <g id="zoomMin">
                        <use xlink:href="#rim" fill="#404040">
                                <set attributeName="fill" to="#808080" begin="zoomminus.mouseover" end="zoomminus.mouseout"/>
                        </use>
                        <path d="M-4,0h8" fill="none" stroke="white" stroke-width="1.5" pointer-events="none"/>
                </g>
                <g id="dirArrow">
                        <path fill="none" stroke="white" stroke-width="1.5" d="M0,-3.0v7 M-2.5,-0.5L0,-3.0L2.5,-0.5"/>
                </g>
               <g id="resetDef">
                       <use xlink:href="#rim2" fill="#404040">
                               <set attributeName="fill" to="#808080" begin="reset.mouseover" end="reset.mouseout"/>
                       </use>
               </g>
        </defs>

<script type="text/javascript">
var viewWidth = 1078;
var viewHeight = 476;
var sectionId = 'dynsection-0';
</script>
<script xlink:href="../../svgpan.js"/>
<svg id="graph" class="graph">
<g id="viewport">
<title>src/ports/WIN32/networkhandler.c</title>
<!-- Node1 -->
<g id="node1" class="node"><title>Node1</title>
<polygon fill="#bfbfbf" stroke="black" points="92,-448.5 92,-467.5 258,-467.5 258,-448.5 92,-448.5"/>
<text text-anchor="middle" x="175" y="-455.5" font-family="Helvetica,sans-Serif" font-size="10.00">src/ports/WIN32/networkhandler.c</text>
</g>
<!-- Node2 -->
<g id="node2" class="node"><title>Node2</title>
<polygon fill="none" stroke="#bfbfbf" points="43.5,-336.5 43.5,-355.5 92.5,-355.5 92.5,-336.5 43.5,-336.5"/>
<text text-anchor="middle" x="68" y="-343.5" font-family="Helvetica,sans-Serif" font-size="10.00">string.h</text>
</g>
<!-- Node1&#45;&gt;Node2 -->
<g id="edge1" class="edge"><title>Node1&#45;&gt;Node2</title>
<path fill="none" stroke="midnightblue" d="M107.75,-448.447C85.6776,-442.084 63.3952,-431.059 50,-412 40.0435,-397.834 47.5954,-378.345 55.7509,-364.41"/>
<polygon fill="midnightblue" stroke="midnightblue" points="58.8314,-366.09 61.2857,-355.783 52.9398,-362.31 58.8314,-366.09"/>
</g>
<!-- Node3 -->
<g id="node3" class="node"><title>Node3</title>
<polygon fill="none" stroke="#bfbfbf" points="122,-336.5 122,-355.5 170,-355.5 170,-336.5 122,-336.5"/>
<text text-anchor="middle" x="146" y="-343.5" font-family="Helvetica,sans-Serif" font-size="10.00">stdlib.h</text>
</g>
<!-- Node1&#45;&gt;Node3 -->
<g id="edge2" class="edge"><title>Node1&#45;&gt;Node3</title>
<path fill="none" stroke="midnightblue" d="M230.323,-448.443C273.414,-439.314 322.447,-421.945 300,-392 296.309,-387.076 224.317,-367.504 180.089,-355.855"/>
<polygon fill="midnightblue" stroke="midnightblue" points="180.865,-352.44 170.304,-353.288 179.089,-359.211 180.865,-352.44"/>
</g>
<!-- Node4 -->
<g id="node4" class="node"><title>Node4</title>
<polygon fill="none" stroke="#bfbfbf" points="59,-392.5 59,-411.5 125,-411.5 125,-392.5 59,-392.5"/>
<text text-anchor="middle" x="92" y="-399.5" font-family="Helvetica,sans-Serif" font-size="10.00">winsock2.h</text>
</g>
<!-- Node1&#45;&gt;Node4 -->
<g id="edge3" class="edge"><title>Node1&#45;&gt;Node4</title>
<path fill="none" stroke="midnightblue" d="M161.665,-448.324C148.838,-439.979 129.215,-427.212 114.06,-417.352"/>
<polygon fill="midnightblue" stroke="midnightblue" points="115.593,-414.174 105.302,-411.655 111.776,-420.042 115.593,-414.174"/>
</g>
<!-- Node5 -->
<g id="node5" class="node"><title>Node5</title>
<polygon fill="none" stroke="#bfbfbf" points="143.5,-392.5 143.5,-411.5 206.5,-411.5 206.5,-392.5 143.5,-392.5"/>
<text text-anchor="middle" x="175" y="-399.5" font-family="Helvetica,sans-Serif" font-size="10.00">windows.h</text>
</g>
<!-- Node1&#45;&gt;Node5 -->
<g id="edge4" class="edge"><title>Node1&#45;&gt;Node5</title>
<path fill="none" stroke="midnightblue" d="M175,-448.083C175,-441.006 175,-430.861 175,-421.986"/>
<polygon fill="midnightblue" stroke="midnightblue" points="178.5,-421.751 175,-411.751 171.5,-421.751 178.5,-421.751"/>
</g>
<!-- Node6 -->
<g id="node6" class="node"><title>Node6</title>
<polygon fill="none" stroke="#bfbfbf" points="225,-392.5 225,-411.5 291,-411.5 291,-392.5 225,-392.5"/>
<text text-anchor="middle" x="258" y="-399.5" font-family="Helvetica,sans-Serif" font-size="10.00">Ws2tcpip.h</text>
</g>
<!-- Node1&#45;&gt;Node6 -->
<g id="edge5" class="edge"><title>Node1&#45;&gt;Node6</title>
<path fill="none" stroke="midnightblue" d="M188.335,-448.324C201.162,-439.979 220.785,-427.212 235.94,-417.352"/>
<polygon fill="midnightblue" stroke="midnightblue" points="238.224,-420.042 244.698,-411.655 234.407,-414.174 238.224,-420.042"/>
</g>
<!-- Node7 -->
<g id="node7" class="node"><title>Node7</title>
<g id="a_node7"><a xlink:href="../../dd/dc7/WIN32_2networkhandler_8h.html" target="_top" xlink:title="networkhandler.h">
<polygon fill="none" stroke="black" points="-0.5,-280.5 -0.5,-299.5 90.5,-299.5 90.5,-280.5 -0.5,-280.5"/>
<text text-anchor="middle" x="45" y="-287.5" font-family="Helvetica,sans-Serif" font-size="10.00">networkhandler.h</text>
</a>
</g>
</g>
<!-- Node1&#45;&gt;Node7 -->
<g id="edge6" class="edge"><title>Node1&#45;&gt;Node7</title>
<path fill="none" stroke="midnightblue" d="M105.42,-448.408C81.9912,-442.045 57.8104,-431.031 42,-412 17.9137,-383.007 29.054,-335.238 37.8809,-309.239"/>
<polygon fill="midnightblue" stroke="midnightblue" points="41.277,-310.142 41.4127,-299.548 34.7001,-307.745 41.277,-310.142"/>
</g>
<!-- Node12 -->
<g id="node12" class="node"><title>Node12</title>
<g id="a_node12"><a xlink:href="../../da/dc2/generic__networkhandler_8h.html" target="_top" xlink:title="generic_networkhandler.h">
<polygon fill="none" stroke="black" points="347,-392.5 347,-411.5 475,-411.5 475,-392.5 347,-392.5"/>
<text text-anchor="middle" x="411" y="-399.5" font-family="Helvetica,sans-Serif" font-size="10.00">generic_networkhandler.h</text>
</a>
</g>
</g>
<!-- Node1&#45;&gt;Node12 -->
<g id="edge11" class="edge"><title>Node1&#45;&gt;Node12</title>
<path fill="none" stroke="midnightblue" d="M212.395,-448.444C253.392,-439.063 319.254,-423.993 363.784,-413.804"/>
<polygon fill="midnightblue" stroke="midnightblue" points="364.813,-417.159 373.78,-411.516 363.251,-410.335 364.813,-417.159"/>
</g>
<!-- Node8 -->
<g id="node8" class="node"><title>Node8</title>
<g id="a_node8"><a xlink:href="../../d7/d69/typedefs_8h.html" target="_top" xlink:title="typedefs.h">
<polygon fill="none" stroke="black" points="269,-56.5 269,-75.5 331,-75.5 331,-56.5 269,-56.5"/>
<text text-anchor="middle" x="300" y="-63.5" font-family="Helvetica,sans-Serif" font-size="10.00">typedefs.h</text>
</a>
</g>
</g>
<!-- Node7&#45;&gt;Node8 -->
<g id="edge7" class="edge"><title>Node7&#45;&gt;Node8</title>
<path fill="none" stroke="midnightblue" d="M49.1258,-280.221C62.9406,-251.737 110.422,-160.916 176,-112 200.552,-93.6861 233.295,-82.2256 258.97,-75.4561"/>
<polygon fill="midnightblue" stroke="midnightblue" points="259.932,-78.8234 268.785,-73.0032 258.235,-72.0323 259.932,-78.8234"/>
</g>
<!-- Node9 -->
<g id="node9" class="node"><title>Node9</title>
<polygon fill="none" stroke="#bfbfbf" points="307.5,-0.5 307.5,-19.5 366.5,-19.5 366.5,-0.5 307.5,-0.5"/>
<text text-anchor="middle" x="337" y="-7.5" font-family="Helvetica,sans-Serif" font-size="10.00">inttypes.h</text>
</g>
<!-- Node8&#45;&gt;Node9 -->
<g id="edge8" class="edge"><title>Node8&#45;&gt;Node9</title>
<path fill="none" stroke="midnightblue" d="M306.11,-56.083C311.282,-48.5341 318.846,-37.4948 325.194,-28.2298"/>
<polygon fill="midnightblue" stroke="midnightblue" points="328.239,-29.9787 331.004,-19.7511 322.464,-26.0221 328.239,-29.9787"/>
</g>
<!-- Node10 -->
<g id="node10" class="node"><title>Node10</title>
<polygon fill="none" stroke="#bfbfbf" points="237,-0.5 237,-19.5 289,-19.5 289,-0.5 237,-0.5"/>
<text text-anchor="middle" x="263" y="-7.5" font-family="Helvetica,sans-Serif" font-size="10.00">stddef.h</text>
</g>
<!-- Node8&#45;&gt;Node10 -->
<g id="edge9" class="edge"><title>Node8&#45;&gt;Node10</title>
<path fill="none" stroke="midnightblue" d="M293.89,-56.083C288.718,-48.5341 281.154,-37.4948 274.806,-28.2298"/>
<polygon fill="midnightblue" stroke="midnightblue" points="277.536,-26.0221 268.996,-19.7511 271.761,-29.9787 277.536,-26.0221"/>
</g>
<!-- Node11 -->
<g id="node11" class="node"><title>Node11</title>
<polygon fill="none" stroke="#bfbfbf" points="563,-0.5 563,-19.5 619,-19.5 619,-0.5 563,-0.5"/>
<text text-anchor="middle" x="591" y="-7.5" font-family="Helvetica,sans-Serif" font-size="10.00">stdbool.h</text>
</g>
<!-- Node8&#45;&gt;Node11 -->
<g id="edge10" class="edge"><title>Node8&#45;&gt;Node11</title>
<path fill="none" stroke="midnightblue" d="M331.142,-59.2211C384.809,-49.2623 494.549,-28.8982 552.762,-18.0956"/>
<polygon fill="midnightblue" stroke="midnightblue" points="553.474,-21.5234 562.668,-16.2576 552.197,-14.6409 553.474,-21.5234"/>
</g>
<!-- Node12&#45;&gt;Node2 -->
<g id="edge13" class="edge"><title>Node12&#45;&gt;Node2</title>
<path fill="none" stroke="midnightblue" d="M348.648,-392.464C288.259,-383.989 194.169,-370.237 113,-356 109.601,-355.404 106.064,-354.752 102.533,-354.08"/>
<polygon fill="midnightblue" stroke="midnightblue" points="103.203,-350.645 92.7176,-352.163 101.861,-357.515 103.203,-350.645"/>
</g>
<!-- Node12&#45;&gt;Node3 -->
<g id="edge14" class="edge"><title>Node12&#45;&gt;Node3</title>
<path fill="none" stroke="midnightblue" d="M365.245,-392.443C319.327,-383.734 246.618,-369.617 184,-356 182.733,-355.724 181.443,-355.44 180.141,-355.149"/>
<polygon fill="midnightblue" stroke="midnightblue" points="180.621,-351.669 170.092,-352.847 179.058,-358.492 180.621,-351.669"/>
</g>
<!-- Node12&#45;&gt;Node8 -->
<g id="edge25" class="edge"><title>Node12&#45;&gt;Node8</title>
<path fill="none" stroke="midnightblue" d="M392.265,-392.363C352.246,-372.724 259.209,-320.424 224,-244 196.897,-185.169 254.313,-114.037 283.868,-82.8968"/>
<polygon fill="midnightblue" stroke="midnightblue" points="286.564,-85.1452 291.044,-75.5438 281.554,-80.2562 286.564,-85.1452"/>
</g>
<!-- Node13 -->
<g id="node13" class="node"><title>Node13</title>
<polygon fill="none" stroke="#bfbfbf" points="959,-336.5 959,-355.5 1005,-355.5 1005,-336.5 959,-336.5"/>
<text text-anchor="middle" x="982" y="-343.5" font-family="Helvetica,sans-Serif" font-size="10.00">stdio.h</text>
</g>
<!-- Node12&#45;&gt;Node13 -->
<g id="edge12" class="edge"><title>Node12&#45;&gt;Node13</title>
<path fill="none" stroke="midnightblue" d="M475.095,-398.798C575.738,-394.624 776.724,-383.388 945,-356 946.248,-355.797 947.516,-355.574 948.794,-355.335"/>
<polygon fill="midnightblue" stroke="midnightblue" points="949.56,-358.751 958.624,-353.264 948.117,-351.901 949.56,-358.751"/>
</g>
<!-- Node14 -->
<g id="node14" class="node"><title>Node14</title>
<polygon fill="none" stroke="#bfbfbf" points="1023.5,-336.5 1023.5,-355.5 1070.5,-355.5 1070.5,-336.5 1023.5,-336.5"/>
<text text-anchor="middle" x="1047" y="-343.5" font-family="Helvetica,sans-Serif" font-size="10.00">errno.h</text>
</g>
<!-- Node12&#45;&gt;Node14 -->
<g id="edge15" class="edge"><title>Node12&#45;&gt;Node14</title>
<path fill="none" stroke="midnightblue" d="M475.306,-400.236C584.306,-398.058 812.258,-389.693 1013.47,-355.729"/>
<polygon fill="midnightblue" stroke="midnightblue" points="1014.06,-359.177 1023.33,-354.039 1012.88,-352.278 1014.06,-359.177"/>
</g>
<!-- Node15 -->
<g id="node15" class="node"><title>Node15</title>
<g id="a_node15"><a xlink:href="../../d4/d38/opener__api_8h.html" target="_top" xlink:title="opener_api.h">
<polygon fill="none" stroke="black" points="411,-168.5 411,-187.5 483,-187.5 483,-168.5 411,-168.5"/>
<text text-anchor="middle" x="447" y="-175.5" font-family="Helvetica,sans-Serif" font-size="10.00">opener_api.h</text>
</a>
</g>
</g>
<!-- Node12&#45;&gt;Node15 -->
<g id="edge16" class="edge"><title>Node12&#45;&gt;Node15</title>
<path fill="none" stroke="midnightblue" d="M411.936,-392.148C413.296,-379.62 415.986,-356.013 419,-336 426.535,-285.968 437.58,-227.364 443.285,-197.921"/>
<polygon fill="midnightblue" stroke="midnightblue" points="446.775,-198.31 445.253,-187.825 439.904,-196.97 446.775,-198.31"/>
</g>
<!-- Node18 -->
<g id="node18" class="node"><title>Node18</title>
<polygon fill="none" stroke="#bfbfbf" points="921.5,-56.5 921.5,-75.5 1012.5,-75.5 1012.5,-56.5 921.5,-56.5"/>
<text text-anchor="middle" x="967" y="-63.5" font-family="Helvetica,sans-Serif" font-size="10.00">networkhandler.h</text>
</g>
<!-- Node12&#45;&gt;Node18 -->
<g id="edge46" class="edge"><title>Node12&#45;&gt;Node18</title>
<path fill="none" stroke="midnightblue" d="M475.023,-400.754C614.014,-398.49 931,-383.218 931,-291 931,-291 931,-291 931,-177 931,-142.982 946.744,-105.85 957.409,-84.6"/>
<polygon fill="midnightblue" stroke="midnightblue" points="960.62,-86.0118 962.145,-75.5273 954.415,-82.7725 960.62,-86.0118"/>
</g>
<!-- Node21 -->
<g id="node21" class="node"><title>Node21</title>
<g id="a_node21"><a xlink:href="../../d0/dec/endianconv_8h.html" target="_top" xlink:title="Responsible for Endianess conversion. ">
<polygon fill="none" stroke="black" points="233,-224.5 233,-243.5 307,-243.5 307,-224.5 233,-224.5"/>
<text text-anchor="middle" x="270" y="-231.5" font-family="Helvetica,sans-Serif" font-size="10.00">endianconv.h</text>
</a>
</g>
</g>
<!-- Node12&#45;&gt;Node21 -->
<g id="edge26" class="edge"><title>Node12&#45;&gt;Node21</title>
<path fill="none" stroke="midnightblue" d="M403.419,-392.075C380.744,-365.38 313.205,-285.865 283.864,-251.322"/>
<polygon fill="midnightblue" stroke="midnightblue" points="286.419,-248.924 277.278,-243.568 281.084,-253.456 286.419,-248.924"/>
</g>
<!-- Node22 -->
<g id="node22" class="node"><title>Node22</title>
<g id="a_node22"><a xlink:href="../../d2/da3/cipconnectionmanager_8h.html" target="_top" xlink:title="cipconnectionmanager.h">
<polygon fill="none" stroke="black" points="450,-280.5 450,-299.5 572,-299.5 572,-280.5 450,-280.5"/>
<text text-anchor="middle" x="511" y="-287.5" font-family="Helvetica,sans-Serif" font-size="10.00">cipconnectionmanager.h</text>
</a>
</g>
</g>
<!-- Node12&#45;&gt;Node22 -->
<g id="edge28" class="edge"><title>Node12&#45;&gt;Node22</title>
<path fill="none" stroke="midnightblue" d="M456.653,-392.431C477.243,-386.044 499.665,-374.999 512,-356 520.826,-342.406 519.435,-323.609 516.512,-309.724"/>
<polygon fill="midnightblue" stroke="midnightblue" points="519.856,-308.669 514.006,-299.835 513.07,-310.388 519.856,-308.669"/>
</g>
<!-- Node27 -->
<g id="node27" class="node"><title>Node27</title>
<g id="a_node27"><a xlink:href="../../d1/dc0/appcontype_8h.html" target="_top" xlink:title="appcontype.h">
<polygon fill="none" stroke="black" points="428.5,-336.5 428.5,-355.5 503.5,-355.5 503.5,-336.5 428.5,-336.5"/>
<text text-anchor="middle" x="466" y="-343.5" font-family="Helvetica,sans-Serif" font-size="10.00">appcontype.h</text>
</a>
</g>
</g>
<!-- Node12&#45;&gt;Node27 -->
<g id="edge47" class="edge"><title>Node12&#45;&gt;Node27</title>
<path fill="none" stroke="midnightblue" d="M420.082,-392.083C428.171,-384.141 440.195,-372.335 449.91,-362.797"/>
<polygon fill="midnightblue" stroke="midnightblue" points="452.403,-365.254 457.087,-355.751 447.499,-360.26 452.403,-365.254"/>
</g>
<!-- Node28 -->
<g id="node28" class="node"><title>Node28</title>
<g id="a_node28"><a xlink:href="../../d1/d84/socket__timer_8h.html" target="_top" xlink:title="socket_timer.h">
<polygon fill="none" stroke="black" points="126.5,-280.5 126.5,-299.5 207.5,-299.5 207.5,-280.5 126.5,-280.5"/>
<text text-anchor="middle" x="167" y="-287.5" font-family="Helvetica,sans-Serif" font-size="10.00">socket_timer.h</text>
</a>
</g>
</g>
<!-- Node12&#45;&gt;Node28 -->
<g id="edge49" class="edge"><title>Node12&#45;&gt;Node28</title>
<path fill="none" stroke="midnightblue" d="M346.746,-395.841C308.252,-390.38 259.643,-379.138 222,-356 202.785,-344.189 186.937,-323.367 177.268,-308.471"/>
<polygon fill="midnightblue" stroke="midnightblue" points="180.073,-306.353 171.834,-299.692 174.122,-310.037 180.073,-306.353"/>
</g>
<!-- Node15&#45;&gt;Node8 -->
<g id="edge19" class="edge"><title>Node15&#45;&gt;Node8</title>
<path fill="none" stroke="midnightblue" d="M410.933,-168.511C388.012,-161.676 358.84,-150.155 338,-132 323.407,-119.287 312.983,-99.5364 306.787,-85.1415"/>
<polygon fill="midnightblue" stroke="midnightblue" points="310.002,-83.7554 303.023,-75.7835 303.507,-86.3673 310.002,-83.7554"/>
</g>
<!-- Node15&#45;&gt;Node11 -->
<g id="edge18" class="edge"><title>Node15&#45;&gt;Node11</title>
<path fill="none" stroke="midnightblue" d="M454.742,-168.075C477.9,-141.38 546.876,-61.865 576.841,-27.3218"/>
<polygon fill="midnightblue" stroke="midnightblue" points="579.658,-29.4155 583.567,-19.5681 574.371,-24.8285 579.658,-29.4155"/>
</g>
<!-- Node16 -->
<g id="node16" class="node"><title>Node16</title>
<polygon fill="none" stroke="#bfbfbf" points="347,-112.5 347,-131.5 399,-131.5 399,-112.5 347,-112.5"/>
<text text-anchor="middle" x="373" y="-119.5" font-family="Helvetica,sans-Serif" font-size="10.00">assert.h</text>
</g>
<!-- Node15&#45;&gt;Node16 -->
<g id="edge17" class="edge"><title>Node15&#45;&gt;Node16</title>
<path fill="none" stroke="midnightblue" d="M435.111,-168.324C423.85,-160.107 406.713,-147.602 393.291,-137.807"/>
<polygon fill="midnightblue" stroke="midnightblue" points="395.247,-134.901 385.106,-131.834 391.12,-140.556 395.247,-134.901"/>
</g>
<!-- Node17 -->
<g id="node17" class="node"><title>Node17</title>
<g id="a_node17"><a xlink:href="../../df/d28/ciptypes_8h.html" target="_top" xlink:title="ciptypes.h">
<polygon fill="none" stroke="black" points="689,-112.5 689,-131.5 751,-131.5 751,-112.5 689,-112.5"/>
<text text-anchor="middle" x="720" y="-119.5" font-family="Helvetica,sans-Serif" font-size="10.00">ciptypes.h</text>
</a>
</g>
</g>
<!-- Node15&#45;&gt;Node17 -->
<g id="edge20" class="edge"><title>Node15&#45;&gt;Node17</title>
<path fill="none" stroke="midnightblue" d="M483.252,-169.829C533.836,-159.824 625.353,-141.721 678.57,-131.195"/>
<polygon fill="midnightblue" stroke="midnightblue" points="679.549,-134.569 688.679,-129.195 678.19,-127.702 679.549,-134.569"/>
</g>
<!-- Node19 -->
<g id="node19" class="node"><title>Node19</title>
<g id="a_node19"><a xlink:href="../../d6/d52/ciperror_8h.html" target="_top" xlink:title="ciperror.h">
<polygon fill="none" stroke="black" points="417.5,-112.5 417.5,-131.5 474.5,-131.5 474.5,-112.5 417.5,-112.5"/>
<text text-anchor="middle" x="446" y="-119.5" font-family="Helvetica,sans-Serif" font-size="10.00">ciperror.h</text>
</a>
</g>
</g>
<!-- Node15&#45;&gt;Node19 -->
<g id="edge23" class="edge"><title>Node15&#45;&gt;Node19</title>
<path fill="none" stroke="midnightblue" d="M446.835,-168.083C446.704,-161.006 446.516,-150.861 446.352,-141.986"/>
<polygon fill="midnightblue" stroke="midnightblue" points="449.847,-141.685 446.162,-131.751 442.848,-141.814 449.847,-141.685"/>
</g>
<!-- Node20 -->
<g id="node20" class="node"><title>Node20</title>
<polygon fill="none" stroke="#bfbfbf" points="531,-112.5 531,-131.5 633,-131.5 633,-112.5 531,-112.5"/>
<text text-anchor="middle" x="582" y="-119.5" font-family="Helvetica,sans-Serif" font-size="10.00">opener_user_conf.h</text>
</g>
<!-- Node15&#45;&gt;Node20 -->
<g id="edge24" class="edge"><title>Node15&#45;&gt;Node20</title>
<path fill="none" stroke="midnightblue" d="M468.391,-168.444C490.707,-159.517 525.903,-145.439 551.208,-135.317"/>
<polygon fill="midnightblue" stroke="midnightblue" points="552.724,-138.48 560.709,-131.516 550.124,-131.981 552.724,-138.48"/>
</g>
<!-- Node17&#45;&gt;Node8 -->
<g id="edge21" class="edge"><title>Node17&#45;&gt;Node8</title>
<path fill="none" stroke="midnightblue" d="M688.585,-114.392C684.037,-113.53 679.406,-112.704 675,-112 554.286,-92.7159 410.514,-77.6537 341.287,-70.8913"/>
<polygon fill="midnightblue" stroke="midnightblue" points="341.519,-67.3975 331.228,-69.916 340.843,-74.3648 341.519,-67.3975"/>
</g>
<!-- Node17&#45;&gt;Node18 -->
<g id="edge22" class="edge"><title>Node17&#45;&gt;Node18</title>
<path fill="none" stroke="midnightblue" d="M751.339,-114.117C754.601,-113.402 757.868,-112.686 761,-112 814.684,-100.244 876.245,-86.8014 917.984,-77.6926"/>
<polygon fill="midnightblue" stroke="midnightblue" points="918.865,-81.0829 927.889,-75.5313 917.373,-74.2438 918.865,-81.0829"/>
</g>
<!-- Node21&#45;&gt;Node8 -->
<g id="edge27" class="edge"><title>Node21&#45;&gt;Node8</title>
<path fill="none" stroke="midnightblue" d="M267.824,-224.203C263.203,-203.841 253.859,-152.141 267,-112 270.49,-101.34 277.573,-91.1174 284.286,-83.1175"/>
<polygon fill="midnightblue" stroke="midnightblue" points="286.904,-85.4395 290.98,-75.66 281.695,-80.7633 286.904,-85.4395"/>
</g>
<!-- Node22&#45;&gt;Node8 -->
<g id="edge31" class="edge"><title>Node22&#45;&gt;Node8</title>
<path fill="none" stroke="midnightblue" d="M494.681,-280.436C457.392,-260.01 365.508,-204.667 318,-132 308.889,-118.065 304.346,-99.5572 302.108,-85.8556"/>
<polygon fill="midnightblue" stroke="midnightblue" points="305.539,-85.1173 300.719,-75.6824 298.604,-86.0638 305.539,-85.1173"/>
</g>
<!-- Node22&#45;&gt;Node15 -->
<g id="edge30" class="edge"><title>Node22&#45;&gt;Node15</title>
<path fill="none" stroke="midnightblue" d="M505.978,-280.368C495.463,-262.296 470.957,-220.176 457.07,-196.307"/>
<polygon fill="midnightblue" stroke="midnightblue" points="460.053,-194.475 451.999,-187.591 454.002,-197.995 460.053,-194.475"/>
</g>
<!-- Node22&#45;&gt;Node17 -->
<g id="edge32" class="edge"><title>Node22&#45;&gt;Node17</title>
<path fill="none" stroke="midnightblue" d="M572.117,-283.44C626.354,-277.197 700.012,-265.071 720,-244 746.049,-216.54 735.431,-167.796 726.856,-141.33"/>
<polygon fill="midnightblue" stroke="midnightblue" points="730.122,-140.067 723.529,-131.773 723.511,-142.368 730.122,-140.067"/>
</g>
<!-- Node22&#45;&gt;Node20 -->
<g id="edge29" class="edge"><title>Node22&#45;&gt;Node20</title>
<path fill="none" stroke="midnightblue" d="M510.973,-280.491C511.255,-259.87 514.101,-206.122 535,-168 541.384,-156.354 551.817,-145.915 561.233,-138.029"/>
<polygon fill="midnightblue" stroke="midnightblue" points="563.447,-140.74 569.119,-131.791 559.105,-135.25 563.447,-140.74"/>
</g>
<!-- Node23 -->
<g id="node23" class="node"><title>Node23</title>
<g id="a_node23"><a xlink:href="../../d1/d6c/cipconnectionobject_8h.html" target="_top" xlink:title="cipconnectionobject.h">
<polygon fill="none" stroke="black" points="600.5,-224.5 600.5,-243.5 711.5,-243.5 711.5,-224.5 600.5,-224.5"/>
<text text-anchor="middle" x="656" y="-231.5" font-family="Helvetica,sans-Serif" font-size="10.00">cipconnectionobject.h</text>
</a>
</g>
</g>
<!-- Node22&#45;&gt;Node23 -->
<g id="edge33" class="edge"><title>Node22&#45;&gt;Node23</title>
<path fill="none" stroke="midnightblue" d="M533.976,-280.444C558.157,-271.438 596.418,-257.189 623.646,-247.049"/>
<polygon fill="midnightblue" stroke="midnightblue" points="624.982,-250.286 633.132,-243.516 622.539,-243.727 624.982,-250.286"/>
</g>
<!-- Node23&#45;&gt;Node8 -->
<g id="edge34" class="edge"><title>Node23&#45;&gt;Node8</title>
<path fill="none" stroke="midnightblue" d="M620.148,-224.397C601.119,-217.81 579.373,-206.589 568,-188 539.723,-141.781 631.227,-147.717 641,-132 645.694,-124.452 646.86,-118.684 641,-112 621.491,-89.7475 427.729,-74.9748 341.275,-69.4408"/>
<polygon fill="midnightblue" stroke="midnightblue" points="341.238,-65.9316 331.038,-68.7967 340.798,-72.9178 341.238,-65.9316"/>
</g>
<!-- Node23&#45;&gt;Node15 -->
<g id="edge37" class="edge"><title>Node23&#45;&gt;Node15</title>
<path fill="none" stroke="midnightblue" d="M622.883,-224.444C586.882,-215.142 529.23,-200.246 489.814,-190.062"/>
<polygon fill="midnightblue" stroke="midnightblue" points="490.519,-186.629 479.962,-187.516 488.768,-193.407 490.519,-186.629"/>
</g>
<!-- Node23&#45;&gt;Node17 -->
<g id="edge35" class="edge"><title>Node23&#45;&gt;Node17</title>
<path fill="none" stroke="midnightblue" d="M672.079,-224.389C684.849,-216.646 702.005,-204.031 711,-188 718.927,-173.873 720.824,-155.387 720.945,-141.742"/>
<polygon fill="midnightblue" stroke="midnightblue" points="724.442,-141.541 720.722,-131.621 717.443,-141.696 724.442,-141.541"/>
</g>
<!-- Node23&#45;&gt;Node20 -->
<g id="edge36" class="edge"><title>Node23&#45;&gt;Node20</title>
<path fill="none" stroke="midnightblue" d="M663.368,-224.433C673.605,-211.432 689.632,-186.299 678,-168 667.835,-152.01 650.324,-141.603 633.017,-134.875"/>
<polygon fill="midnightblue" stroke="midnightblue" points="634.065,-131.533 623.471,-131.503 631.734,-138.134 634.065,-131.533"/>
</g>
<!-- Node24 -->
<g id="node24" class="node"><title>Node24</title>
<g id="a_node24"><a xlink:href="../../d9/d31/doublylinkedlist_8h.html" target="_top" xlink:title="doublylinkedlist.h">
<polygon fill="none" stroke="black" points="577,-168.5 577,-187.5 669,-187.5 669,-168.5 577,-168.5"/>
<text text-anchor="middle" x="623" y="-175.5" font-family="Helvetica,sans-Serif" font-size="10.00">doublylinkedlist.h</text>
</a>
</g>
</g>
<!-- Node23&#45;&gt;Node24 -->
<g id="edge38" class="edge"><title>Node23&#45;&gt;Node24</title>
<path fill="none" stroke="midnightblue" d="M650.551,-224.083C645.986,-216.613 639.332,-205.724 633.707,-196.52"/>
<polygon fill="midnightblue" stroke="midnightblue" points="636.549,-194.459 628.348,-187.751 630.576,-198.109 636.549,-194.459"/>
</g>
<!-- Node25 -->
<g id="node25" class="node"><title>Node25</title>
<g id="a_node25"><a xlink:href="../../d0/d23/cipelectronickey_8h.html" target="_top" xlink:title="cipelectronickey.h">
<polygon fill="none" stroke="black" points="769.5,-112.5 769.5,-131.5 864.5,-131.5 864.5,-112.5 769.5,-112.5"/>
<text text-anchor="middle" x="817" y="-119.5" font-family="Helvetica,sans-Serif" font-size="10.00">cipelectronickey.h</text>
</a>
</g>
</g>
<!-- Node23&#45;&gt;Node25 -->
<g id="edge39" class="edge"><title>Node23&#45;&gt;Node25</title>
<path fill="none" stroke="midnightblue" d="M670.771,-224.389C685.682,-215.582 709.263,-201.338 729,-188 753.256,-171.608 780.204,-151.392 797.809,-137.899"/>
<polygon fill="midnightblue" stroke="midnightblue" points="800.315,-140.387 806.101,-131.511 796.043,-134.842 800.315,-140.387"/>
</g>
<!-- Node26 -->
<g id="node26" class="node"><title>Node26</title>
<g id="a_node26"><a xlink:href="../../d1/d02/cipepath_8h.html" target="_top" xlink:title="cipepath.h">
<polygon fill="none" stroke="black" points="839,-168.5 839,-187.5 901,-187.5 901,-168.5 839,-168.5"/>
<text text-anchor="middle" x="870" y="-175.5" font-family="Helvetica,sans-Serif" font-size="10.00">cipepath.h</text>
</a>
</g>
</g>
<!-- Node23&#45;&gt;Node26 -->
<g id="edge42" class="edge"><title>Node23&#45;&gt;Node26</title>
<path fill="none" stroke="midnightblue" d="M689.909,-224.444C727.61,-214.93 788.501,-199.565 828.887,-189.374"/>
<polygon fill="midnightblue" stroke="midnightblue" points="829.847,-192.742 838.687,-186.902 828.134,-185.955 829.847,-192.742"/>
</g>
<!-- Node25&#45;&gt;Node8 -->
<g id="edge41" class="edge"><title>Node25&#45;&gt;Node8</title>
<path fill="none" stroke="midnightblue" d="M769.237,-113.371C765.776,-112.885 762.336,-112.422 759,-112 605.433,-92.5732 422.05,-76.8251 341.456,-70.2782"/>
<polygon fill="midnightblue" stroke="midnightblue" points="341.483,-66.7691 331.234,-69.4525 340.92,-73.7463 341.483,-66.7691"/>
</g>
<!-- Node25&#45;&gt;Node11 -->
<g id="edge40" class="edge"><title>Node25&#45;&gt;Node11</title>
<path fill="none" stroke="midnightblue" d="M799.266,-112.368C759.824,-93.1711 664.639,-46.8418 617.861,-24.074"/>
<polygon fill="midnightblue" stroke="midnightblue" points="619.175,-20.8208 608.651,-19.5914 616.111,-27.1149 619.175,-20.8208"/>
</g>
<!-- Node26&#45;&gt;Node11 -->
<g id="edge43" class="edge"><title>Node26&#45;&gt;Node11</title>
<path fill="none" stroke="midnightblue" d="M873.568,-168.065C878.313,-154.582 884.813,-128.828 873,-112 817.217,-32.5341 692.811,-15.2574 629.544,-11.7269"/>
<polygon fill="midnightblue" stroke="midnightblue" points="629.356,-8.21437 619.203,-11.2429 629.028,-15.2067 629.356,-8.21437"/>
</g>
<!-- Node26&#45;&gt;Node17 -->
<g id="edge44" class="edge"><title>Node26&#45;&gt;Node17</title>
<path fill="none" stroke="midnightblue" d="M846.232,-168.444C821.107,-159.399 781.289,-145.064 753.1,-134.916"/>
<polygon fill="midnightblue" stroke="midnightblue" points="754.251,-131.611 743.657,-131.516 751.88,-138.197 754.251,-131.611"/>
</g>
<!-- Node26&#45;&gt;Node25 -->
<g id="edge45" class="edge"><title>Node26&#45;&gt;Node25</title>
<path fill="none" stroke="midnightblue" d="M861.248,-168.083C853.53,-160.22 842.095,-148.569 832.783,-139.081"/>
<polygon fill="midnightblue" stroke="midnightblue" points="835.092,-136.436 825.589,-131.751 830.096,-141.34 835.092,-136.436"/>
</g>
<!-- Node27&#45;&gt;Node22 -->
<g id="edge48" class="edge"><title>Node27&#45;&gt;Node22</title>
<path fill="none" stroke="midnightblue" d="M473.431,-336.083C479.853,-328.377 489.306,-317.033 497.122,-307.653"/>
<polygon fill="midnightblue" stroke="midnightblue" points="499.994,-309.674 503.707,-299.751 494.617,-305.193 499.994,-309.674"/>
</g>
<!-- Node28&#45;&gt;Node8 -->
<g id="edge50" class="edge"><title>Node28&#45;&gt;Node8</title>
<path fill="none" stroke="midnightblue" d="M165.389,-280.123C160.833,-252.103 150.658,-164.301 191,-112 207.357,-90.7943 235.458,-79.5104 259.03,-73.5455"/>
<polygon fill="midnightblue" stroke="midnightblue" points="259.844,-76.9498 268.808,-71.3013 258.279,-70.1271 259.844,-76.9498"/>
</g>
</g>
</svg>
        <g id="navigator" transform="translate(0 0)" fill="#404254">
                <rect fill="#f2f5e9" fill-opacity="0.5" stroke="#606060" stroke-width=".5" x="0" y="0" width="60" height="60"/>
                <use id="zoomplus" xlink:href="#zoomPlus" x="17" y="9" onmousedown="handleZoom(evt,'in')"/>
                <use id="zoomminus" xlink:href="#zoomMin" x="42" y="9" onmousedown="handleZoom(evt,'out')"/>
                <use id="reset" xlink:href="#resetDef" x="30" y="36" onmousedown="handleReset()"/>
                <g id="arrowUp" xlink:href="#dirArrow" transform="translate(30 24)" onmousedown="handlePan(0,-1)">
                  <use xlink:href="#rim" fill="#404040">
                        <set attributeName="fill" to="#808080" begin="arrowUp.mouseover" end="arrowUp.mouseout"/>
                  </use>
                  <path fill="none" stroke="white" stroke-width="1.5" d="M0,-3.0v7 M-2.5,-0.5L0,-3.0L2.5,-0.5"/>
                </g>
                <g id="arrowRight" xlink:href="#dirArrow" transform="rotate(90) translate(36 -43)" onmousedown="handlePan(1,0)">
                  <use xlink:href="#rim" fill="#404040">
                        <set attributeName="fill" to="#808080" begin="arrowRight.mouseover" end="arrowRight.mouseout"/>
                  </use>
                  <path fill="none" stroke="white" stroke-width="1.5" d="M0,-3.0v7 M-2.5,-0.5L0,-3.0L2.5,-0.5"/>
                </g>
                <g id="arrowDown" xlink:href="#dirArrow" transform="rotate(180) translate(-30 -48)" onmousedown="handlePan(0,1)">
                  <use xlink:href="#rim" fill="#404040">
                        <set attributeName="fill" to="#808080" begin="arrowDown.mouseover" end="arrowDown.mouseout"/>
                  </use>
                  <path fill="none" stroke="white" stroke-width="1.5" d="M0,-3.0v7 M-2.5,-0.5L0,-3.0L2.5,-0.5"/>
                </g>
                <g id="arrowLeft" xlink:href="#dirArrow" transform="rotate(270) translate(-36 17)" onmousedown="handlePan(-1,0)">
                  <use xlink:href="#rim" fill="#404040">
                        <set attributeName="fill" to="#808080" begin="arrowLeft.mouseover" end="arrowLeft.mouseout"/>
                  </use>
                  <path fill="none" stroke="white" stroke-width="1.5" d="M0,-3.0v7 M-2.5,-0.5L0,-3.0L2.5,-0.5"/>
                </g>
        </g>
        <svg viewBox="0 0 15 15" width="100%" height="30px" preserveAspectRatio="xMaxYMin meet">
         <g id="arrow_out" transform="scale(0.3 0.3)">
          <a xlink:href="WIN32_2networkhandler_8c__incl_org.svg" target="_base">
           <rect id="button" ry="5" rx="5" y="6" x="6" height="38" width="38"
                fill="#f2f5e9" fill-opacity="0.5" stroke="#606060" stroke-width="1.0"/>
           <path id="arrow"
             d="M 11.500037,31.436501 C 11.940474,20.09759 22.043105,11.32322 32.158766,21.979434 L 37.068811,17.246167 C 37.068811,17.246167 37.088388,32 37.088388,32 L 22.160133,31.978069 C 22.160133,31.978069 26.997745,27.140456 26.997745,27.140456 C 18.528582,18.264221 13.291696,25.230495 11.500037,31.436501 z"
             style="fill:#404040;"/>
          </a>
         </g>
        </svg>
</svg>
