<?xml version="1.0" encoding="UTF-8" standalone="no"?>
<!DOCTYPE svg PUBLIC "-//W3C//DTD SVG 1.1//EN"
 "http://www.w3.org/Graphics/SVG/1.1/DTD/svg11.dtd">
<!-- Generated by graphviz version 2.26.3 (20100126.1600)
 -->
<!-- Title: G Pages: 1 -->
<!--zoomable 204 -->
<svg id="main" version="1.1" xmlns="http://www.w3.org/2000/svg" xmlns:xlink="http://www.w3.org/1999/xlink" xml:space="preserve" onload="init(evt)">
        <defs>
                <circle id="rim" cx="0" cy="0" r="7"/>
                <circle id="rim2" cx="0" cy="0" r="3.5"/>
                <g id="zoomPlus">
                        <use xlink:href="#rim" fill="#404040">
                                <set attributeName="fill" to="#808080" begin="zoomplus.mouseover" end="zoomplus.mouseout"/>
                        </use>
                        <path d="M-4,0h8M0,-4v8" fill="none" stroke="white" stroke-width="1.5" pointer-events="none"/>
                </g>
                <g id="zoomMin">
                        <use xlink:href="#rim" fill="#404040">
                                <set attributeName="fill" to="#808080" begin="zoomminus.mouseover" end="zoomminus.mouseout"/>
                        </use>
                        <path d="M-4,0h8" fill="none" stroke="white" stroke-width="1.5" pointer-events="none"/>
                </g>
                <g id="dirArrow">
                        <path fill="none" stroke="white" stroke-width="1.5" d="M0,-3.0v7 M-2.5,-0.5L0,-3.0L2.5,-0.5"/>
                </g>
               <g id="resetDef">
                       <use xlink:href="#rim2" fill="#404040">
                               <set attributeName="fill" to="#808080" begin="reset.mouseover" end="reset.mouseout"/>
                       </use>
               </g>
        </defs>

<script type="text/javascript">
var viewWidth = 1320;
var viewHeight = 204;
var sectionId = 'dynsection-1';
</script>
<script xlink:href="../../svgpan.js"/>
<svg id="graph" class="graph">
<g id="viewport">
<title>G</title>
<!-- Node1 -->
<g id="node1" class="node"><title>Node1</title>
<polygon fill="#bfbfbf" stroke="black" points="678.5,-174.5 678.5,-195.5 833.5,-195.5 833.5,-174.5 678.5,-174.5"/>
<text text-anchor="middle" x="756" y="-182.5" font-family="Helvetica,sans-Serif" font-size="10.00">src/cip/cipconnectionmanager.h</text>
</g>
<!-- Node2 -->
<g id="node3" class="node"><title>Node2</title>
<a xlink:href="../../d1/dc0/appcontype_8h.html" target="_top" xlink:title="src/cip/appcontype.h">
<polygon fill="none" stroke="black" points="583.5,-116.5 583.5,-137.5 690.5,-137.5 690.5,-116.5 583.5,-116.5"/>
<text text-anchor="middle" x="637" y="-124.5" font-family="Helvetica,sans-Serif" font-size="10.00">src/cip/appcontype.h</text>
</a>
</g>
<!-- Node1&#45;&gt;Node2 -->
<g id="edge2" class="edge"><title>Node1&#45;&gt;Node2</title>
<path fill="none" stroke="midnightblue" d="M725.366,-170.069C704.526,-159.912 677.451,-146.716 658.792,-137.621"/>
<polygon fill="midnightblue" stroke="midnightblue" points="723.927,-173.262 734.45,-174.497 726.994,-166.969 723.927,-173.262"/>
</g>
<!-- Node3 -->
<g id="node5" class="node"><title>Node3</title>
<a xlink:href="../../d1/dbc/appcontype_8c.html" target="_top" xlink:title="src/cip/appcontype.c">
<polygon fill="none" stroke="black" points="235.5,-58.5 235.5,-79.5 342.5,-79.5 342.5,-58.5 235.5,-58.5"/>
<text text-anchor="middle" x="289" y="-66.5" font-family="Helvetica,sans-Serif" font-size="10.00">src/cip/appcontype.c</text>
</a>
</g>
<!-- Node1&#45;&gt;Node3 -->
<g id="edge28" class="edge"><title>Node1&#45;&gt;Node3</title>
<path fill="none" stroke="midnightblue" d="M675.241,-172.817C625.034,-164.563 559.345,-152.528 502,-138 434.928,-121.008 358.151,-94.2867 317.592,-79.581"/>
<polygon fill="midnightblue" stroke="midnightblue" points="674.957,-176.317 685.389,-174.469 676.081,-169.408 674.957,-176.317"/>
</g>
<!-- Node4 -->
<g id="node7" class="node"><title>Node4</title>
<a xlink:href="../../d2/d3d/cipcommon_8c.html" target="_top" xlink:title="src/cip/cipcommon.c">
<polygon fill="none" stroke="black" points="359.5,-58.5 359.5,-79.5 466.5,-79.5 466.5,-58.5 359.5,-58.5"/>
<text text-anchor="middle" x="413" y="-66.5" font-family="Helvetica,sans-Serif" font-size="10.00">src/cip/cipcommon.c</text>
</a>
</g>
<!-- Node1&#45;&gt;Node4 -->
<g id="edge38" class="edge"><title>Node1&#45;&gt;Node4</title>
<path fill="none" stroke="midnightblue" d="M689.284,-172.371C651.17,-164.305 602.793,-152.614 561,-138 513.366,-121.343 460.421,-94.4912 432.58,-79.6744"/>
<polygon fill="midnightblue" stroke="midnightblue" points="688.74,-175.833 699.244,-174.446 690.168,-168.98 688.74,-175.833"/>
</g>
<!-- Node5 -->
<g id="node9" class="node"><title>Node5</title>
<a xlink:href="../../d5/d35/cipconnectionmanager_8c.html" target="_top" xlink:title="src/cip/cipconnectionmanager.c">
<polygon fill="none" stroke="black" points="783.5,-0.5 783.5,-21.5 938.5,-21.5 938.5,-0.5 783.5,-0.5"/>
<text text-anchor="middle" x="861" y="-8.5" font-family="Helvetica,sans-Serif" font-size="10.00">src/cip/cipconnectionmanager.c</text>
</a>
</g>
<!-- Node1&#45;&gt;Node5 -->
<g id="edge40" class="edge"><title>Node1&#45;&gt;Node5</title>
<path fill="none" stroke="midnightblue" d="M759.41,-164.025C762.265,-149.898 767.161,-131.151 775,-116 795.14,-77.0742 831.413,-39.2837 849.744,-21.5274"/>
<polygon fill="midnightblue" stroke="midnightblue" points="755.904,-163.74 757.541,-174.207 762.789,-165.003 755.904,-163.74"/>
</g>
<!-- Node6 -->
<g id="node11" class="node"><title>Node6</title>
<a xlink:href="../../df/d03/cipioconnection_8c.html" target="_top" xlink:title="src/cip/cipioconnection.c">
<polygon fill="none" stroke="black" points="989.5,-0.5 989.5,-21.5 1114.5,-21.5 1114.5,-0.5 989.5,-0.5"/>
<text text-anchor="middle" x="1052" y="-8.5" font-family="Helvetica,sans-Serif" font-size="10.00">src/cip/cipioconnection.c</text>
</a>
</g>
<!-- Node1&#45;&gt;Node6 -->
<g id="edge48" class="edge"><title>Node1&#45;&gt;Node6</title>
<path fill="none" stroke="midnightblue" d="M843.779,-178.187C927.345,-170.705 1046.48,-157.153 1089,-138 1131.55,-118.835 1182.38,-97.1615 1157,-58 1145.11,-39.6469 1124.18,-28.3953 1104.12,-21.528"/>
<polygon fill="midnightblue" stroke="midnightblue" points="843.426,-174.705 833.772,-179.07 844.041,-181.678 843.426,-174.705"/>
</g>
<!-- Node7 -->
<g id="node13" class="node"><title>Node7</title>
<a xlink:href="../../da/dc2/generic__networkhandler_8h.html" target="_top" xlink:title="src/ports/generic_networkhandler.h">
<polygon fill="none" stroke="black" points="483.5,-58.5 483.5,-79.5 652.5,-79.5 652.5,-58.5 483.5,-58.5"/>
<text text-anchor="middle" x="568" y="-66.5" font-family="Helvetica,sans-Serif" font-size="10.00">src/ports/generic_networkhandler.h</text>
</a>
</g>
<!-- Node1&#45;&gt;Node7 -->
<g id="edge54" class="edge"><title>Node1&#45;&gt;Node7</title>
<path fill="none" stroke="midnightblue" d="M671.962,-172.634C631.156,-164.831 588.131,-153.31 575,-138 561.047,-121.731 563.113,-94.7276 565.668,-79.7825"/>
<polygon fill="midnightblue" stroke="midnightblue" points="671.523,-176.112 681.993,-174.488 672.796,-169.228 671.523,-176.112"/>
</g>
<!-- Node8 -->
<g id="node17" class="node"><title>Node8</title>
<a xlink:href="../../d2/dbd/encap_8c.html" target="_top" xlink:title="src/enet_encap/encap.c">
<polygon fill="none" stroke="black" points="645.5,-0.5 645.5,-21.5 766.5,-21.5 766.5,-0.5 645.5,-0.5"/>
<text text-anchor="middle" x="706" y="-8.5" font-family="Helvetica,sans-Serif" font-size="10.00">src/enet_encap/encap.c</text>
</a>
</g>
<!-- Node1&#45;&gt;Node8 -->
<g id="edge52" class="edge"><title>Node1&#45;&gt;Node8</title>
<path fill="none" stroke="midnightblue" d="M749.786,-164.354C747.335,-156.157 744.511,-146.641 742,-138 729.463,-94.867 715.021,-43.3364 708.94,-21.5507"/>
<polygon fill="midnightblue" stroke="midnightblue" points="746.509,-165.612 752.734,-174.185 753.214,-163.601 746.509,-165.612"/>
</g>
<!-- Node13 -->
<g id="node28" class="node"><title>Node13</title>
<a xlink:href="../../df/d2e/cipassembly_8c.html" target="_top" xlink:title="src/cip/cipassembly.c">
<polygon fill="none" stroke="black" points="948,-116.5 948,-137.5 1060,-137.5 1060,-116.5 948,-116.5"/>
<text text-anchor="middle" x="1004" y="-124.5" font-family="Helvetica,sans-Serif" font-size="10.00">src/cip/cipassembly.c</text>
</a>
</g>
<!-- Node1&#45;&gt;Node13 -->
<g id="edge30" class="edge"><title>Node1&#45;&gt;Node13</title>
<path fill="none" stroke="midnightblue" d="M810.697,-172.208C855.227,-161.794 917.321,-147.272 959.005,-137.523"/>
<polygon fill="midnightblue" stroke="midnightblue" points="809.851,-168.811 800.911,-174.497 811.445,-175.627 809.851,-168.811"/>
</g>
<!-- Node14 -->
<g id="node30" class="node"><title>Node14</title>
<a xlink:href="../../d2/d11/cipclass3connection_8h.html" target="_top" xlink:title="CIP Class 3 connection.">
<polygon fill="none" stroke="black" points="784,-116.5 784,-137.5 930,-137.5 930,-116.5 784,-116.5"/>
<text text-anchor="middle" x="857" y="-124.5" font-family="Helvetica,sans-Serif" font-size="10.00">src/cip/cipclass3connection.h</text>
</a>
</g>
<!-- Node1&#45;&gt;Node14 -->
<g id="edge32" class="edge"><title>Node1&#45;&gt;Node14</title>
<path fill="none" stroke="midnightblue" d="M783.202,-169.379C800.752,-159.301 823.109,-146.462 838.592,-137.571"/>
<polygon fill="midnightblue" stroke="midnightblue" points="781.454,-166.347 774.525,-174.362 784.94,-172.417 781.454,-166.347"/>
</g>
<!-- Node16 -->
<g id="node37" class="node"><title>Node16</title>
<a xlink:href="../../de/d45/cipioconnection_8h.html" target="_top" xlink:title="src/cip/cipioconnection.h">
<polygon fill="none" stroke="black" points="1023.5,-58.5 1023.5,-79.5 1148.5,-79.5 1148.5,-58.5 1023.5,-58.5"/>
<text text-anchor="middle" x="1086" y="-66.5" font-family="Helvetica,sans-Serif" font-size="10.00">src/cip/cipioconnection.h</text>
</a>
</g>
<!-- Node1&#45;&gt;Node16 -->
<g id="edge42" class="edge"><title>Node1&#45;&gt;Node16</title>
<path fill="none" stroke="midnightblue" d="M843.671,-176.839C930.377,-167.978 1052.47,-153.066 1069,-138 1085.41,-123.04 1087.15,-95.005 1086.73,-79.6776"/>
<polygon fill="midnightblue" stroke="midnightblue" points="843.145,-173.374 833.548,-177.862 843.849,-180.338 843.145,-173.374"/>
</g>
<!-- Node17 -->
<g id="node42" class="node"><title>Node17</title>
<a xlink:href="../../d3/d98/cpf_8c.html" target="_top" xlink:title="src/enet_encap/cpf.c">
<polygon fill="none" stroke="black" points="1204,-116.5 1204,-137.5 1312,-137.5 1312,-116.5 1204,-116.5"/>
<text text-anchor="middle" x="1258" y="-124.5" font-family="Helvetica,sans-Serif" font-size="10.00">src/enet_encap/cpf.c</text>
</a>
</g>
<!-- Node1&#45;&gt;Node17 -->
<g id="edge50" class="edge"><title>Node1&#45;&gt;Node17</title>
<path fill="none" stroke="midnightblue" d="M843.948,-176.842C931.74,-168.377 1070.43,-154.134 1190,-138 1194.5,-137.392 1199.17,-136.723 1203.85,-136.023"/>
<polygon fill="midnightblue" stroke="midnightblue" points="843.383,-173.38 833.764,-177.82 844.052,-180.348 843.383,-173.38"/>
</g>
<!-- Node2&#45;&gt;Node3 -->
<g id="edge4" class="edge"><title>Node2&#45;&gt;Node3</title>
<path fill="none" stroke="midnightblue" d="M573.353,-116.778C515.369,-107.409 427.386,-93.052 351,-80 348.306,-79.5397 345.547,-79.0644 342.761,-78.5814"/>
<polygon fill="midnightblue" stroke="midnightblue" points="573.034,-120.272 583.464,-118.411 574.15,-113.361 573.034,-120.272"/>
</g>
<!-- Node2&#45;&gt;Node4 -->
<g id="edge6" class="edge"><title>Node2&#45;&gt;Node4</title>
<path fill="none" stroke="midnightblue" d="M586.579,-113.945C546.435,-103.55 490.974,-89.1897 453.641,-79.5231"/>
<polygon fill="midnightblue" stroke="midnightblue" points="585.877,-117.378 596.435,-116.497 587.632,-110.602 585.877,-117.378"/>
</g>
<!-- Node2&#45;&gt;Node5 -->
<g id="edge8" class="edge"><title>Node2&#45;&gt;Node5</title>
<path fill="none" stroke="midnightblue" d="M659.172,-110.491C679.881,-95.5496 712.016,-73.5632 742,-58 770.488,-43.2132 804.73,-30.1448 829.154,-21.566"/>
<polygon fill="midnightblue" stroke="midnightblue" points="657.054,-107.704 651.036,-116.424 661.178,-113.36 657.054,-107.704"/>
</g>
<!-- Node2&#45;&gt;Node6 -->
<g id="edge10" class="edge"><title>Node2&#45;&gt;Node6</title>
<path fill="none" stroke="midnightblue" d="M676.712,-113.113C719.455,-98.4208 789.584,-75.0506 851,-58 901.933,-43.8596 960.901,-30.4111 1001.74,-21.5513"/>
<polygon fill="midnightblue" stroke="midnightblue" points="675.551,-109.811 667.239,-116.381 677.834,-116.428 675.551,-109.811"/>
</g>
<!-- Node2&#45;&gt;Node7 -->
<g id="edge12" class="edge"><title>Node2&#45;&gt;Node7</title>
<path fill="none" stroke="midnightblue" d="M616.408,-109.691C604.76,-99.8996 590.571,-87.973 580.575,-79.5707"/>
<polygon fill="midnightblue" stroke="midnightblue" points="614.437,-112.607 624.344,-116.362 618.942,-107.248 614.437,-112.607"/>
</g>
<!-- Node7&#45;&gt;Node5 -->
<g id="edge14" class="edge"><title>Node7&#45;&gt;Node5</title>
<path fill="none" stroke="midnightblue" d="M630.97,-56.5349C683.687,-46.0994 758.076,-31.374 807.84,-21.5231"/>
<polygon fill="midnightblue" stroke="midnightblue" points="630.19,-53.1213 621.06,-58.4966 631.549,-59.9881 630.19,-53.1213"/>
</g>
<!-- Node7&#45;&gt;Node6 -->
<g id="edge16" class="edge"><title>Node7&#45;&gt;Node6</title>
<path fill="none" stroke="midnightblue" d="M662.647,-57.658C759.282,-46.0778 906.533,-28.432 989.499,-18.4898"/>
<polygon fill="midnightblue" stroke="midnightblue" points="662.096,-54.1989 652.583,-58.864 662.929,-61.1492 662.096,-54.1989"/>
</g>
<!-- Node7&#45;&gt;Node8 -->
<g id="edge18" class="edge"><title>Node7&#45;&gt;Node8</title>
<path fill="none" stroke="midnightblue" d="M602.226,-54.6153C626.557,-44.3889 658.7,-30.8796 680.729,-21.6212"/>
<polygon fill="midnightblue" stroke="midnightblue" points="600.854,-51.3954 592.991,-58.4966 603.566,-57.8486 600.854,-51.3954"/>
</g>
<!-- Node9 -->
<g id="node19" class="node"><title>Node9</title>
<a xlink:href="../../db/d4f/generic__networkhandler_8c.html" target="_top" xlink:title="This file includes all platform&#45;independent functions of the network handler to reduce code duplicati...">
<polygon fill="none" stroke="black" points="321.5,-0.5 321.5,-21.5 490.5,-21.5 490.5,-0.5 321.5,-0.5"/>
<text text-anchor="middle" x="406" y="-8.5" font-family="Helvetica,sans-Serif" font-size="10.00">src/ports/generic_networkhandler.c</text>
</a>
</g>
<!-- Node7&#45;&gt;Node9 -->
<g id="edge20" class="edge"><title>Node7&#45;&gt;Node9</title>
<path fill="none" stroke="midnightblue" d="M528.923,-55.0095C500.134,-44.7023 461.591,-30.903 435.392,-21.5231"/>
<polygon fill="midnightblue" stroke="midnightblue" points="528.068,-58.421 538.663,-58.4966 530.428,-51.8307 528.068,-58.421"/>
</g>
<!-- Node10 -->
<g id="node21" class="node"><title>Node10</title>
<a xlink:href="../../d9/dfb/POSIX_2main_8c.html" target="_top" xlink:title="src/ports/POSIX/main.c">
<polygon fill="none" stroke="black" points="507.5,-0.5 507.5,-21.5 628.5,-21.5 628.5,-0.5 507.5,-0.5"/>
<text text-anchor="middle" x="568" y="-8.5" font-family="Helvetica,sans-Serif" font-size="10.00">src/ports/POSIX/main.c</text>
</a>
</g>
<!-- Node7&#45;&gt;Node10 -->
<g id="edge22" class="edge"><title>Node7&#45;&gt;Node10</title>
<path fill="none" stroke="midnightblue" d="M568,-48.1906C568,-39.1684 568,-28.9941 568,-21.5707"/>
<polygon fill="midnightblue" stroke="midnightblue" points="564.5,-48.3619 568,-58.3619 571.5,-48.3619 564.5,-48.3619"/>
</g>
<!-- Node11 -->
<g id="node23" class="node"><title>Node11</title>
<a xlink:href="../../dc/db2/WIN32_2main_8c.html" target="_top" xlink:title="src/ports/WIN32/main.c">
<polygon fill="none" stroke="black" points="-0.5,-0.5 -0.5,-21.5 120.5,-21.5 120.5,-0.5 -0.5,-0.5"/>
<text text-anchor="middle" x="60" y="-8.5" font-family="Helvetica,sans-Serif" font-size="10.00">src/ports/WIN32/main.c</text>
</a>
</g>
<!-- Node7&#45;&gt;Node11 -->
<g id="edge24" class="edge"><title>Node7&#45;&gt;Node11</title>
<path fill="none" stroke="midnightblue" d="M473.084,-57.8025C319.608,-40.9636 278.992,-41.7441 129,-22 126.234,-21.6359 123.408,-21.2484 120.555,-20.8447"/>
<polygon fill="midnightblue" stroke="midnightblue" points="473.035,-61.3183 483.359,-58.9375 473.804,-54.3606 473.035,-61.3183"/>
</g>
<!-- Node12 -->
<g id="node25" class="node"><title>Node12</title>
<a xlink:href="../../d8/d6c/WIN32_2networkhandler_8c.html" target="_top" xlink:title="src/ports/WIN32/networkhandler.c">
<polygon fill="none" stroke="black" points="138,-0.5 138,-21.5 304,-21.5 304,-0.5 138,-0.5"/>
<text text-anchor="middle" x="221" y="-8.5" font-family="Helvetica,sans-Serif" font-size="10.00">src/ports/WIN32/networkhandler.c</text>
</a>
</g>
<!-- Node7&#45;&gt;Node12 -->
<g id="edge26" class="edge"><title>Node7&#45;&gt;Node12</title>
<path fill="none" stroke="midnightblue" d="M494.976,-56.7943C432.459,-46.3447 343.383,-31.4559 283.957,-21.5231"/>
<polygon fill="midnightblue" stroke="midnightblue" points="494.721,-60.3001 505.161,-58.4966 495.875,-53.3958 494.721,-60.3001"/>
</g>
<!-- Node14&#45;&gt;Node5 -->
<g id="edge36" class="edge"><title>Node14&#45;&gt;Node5</title>
<path fill="none" stroke="midnightblue" d="M853.14,-106.365C851.082,-92.6442 849.293,-74.2298 851,-58 852.327,-45.3892 855.603,-31.1844 858.047,-21.7243"/>
<polygon fill="midnightblue" stroke="midnightblue" points="849.688,-106.945 854.787,-116.232 856.593,-105.792 849.688,-106.945"/>
</g>
<!-- Node15 -->
<g id="node32" class="node"><title>Node15</title>
<a xlink:href="../../dc/d93/cipclass3connection_8c.html" target="_top" xlink:title="src/cip/cipclass3connection.c">
<polygon fill="none" stroke="black" points="860,-58.5 860,-79.5 1006,-79.5 1006,-58.5 860,-58.5"/>
<text text-anchor="middle" x="933" y="-66.5" font-family="Helvetica,sans-Serif" font-size="10.00">src/cip/cipclass3connection.c</text>
</a>
</g>
<!-- Node14&#45;&gt;Node15 -->
<g id="edge34" class="edge"><title>Node14&#45;&gt;Node15</title>
<path fill="none" stroke="midnightblue" d="M878.937,-110.259C891.902,-100.364 907.925,-88.1361 919.149,-79.5707"/>
<polygon fill="midnightblue" stroke="midnightblue" points="876.766,-107.513 870.94,-116.362 881.012,-113.077 876.766,-107.513"/>
</g>
<!-- Node16&#45;&gt;Node5 -->
<g id="edge44" class="edge"><title>Node16&#45;&gt;Node5</title>
<path fill="none" stroke="midnightblue" d="M1035.35,-55.9447C995.03,-45.5501 939.322,-31.1897 901.822,-21.5231"/>
<polygon fill="midnightblue" stroke="midnightblue" points="1034.7,-59.3896 1045.25,-58.4966 1036.44,-52.6112 1034.7,-59.3896"/>
</g>
<!-- Node16&#45;&gt;Node6 -->
<g id="edge46" class="edge"><title>Node16&#45;&gt;Node6</title>
<path fill="none" stroke="midnightblue" d="M1074.67,-49.6667C1069.17,-40.2948 1062.79,-29.4019 1058.2,-21.5707"/>
<polygon fill="midnightblue" stroke="midnightblue" points="1071.69,-51.5049 1079.76,-58.3619 1077.73,-47.9649 1071.69,-51.5049"/>
</g>
</g>
</svg>
        <g id="navigator" transform="translate(0 0)" fill="#404254">
                <rect fill="#f2f5e9" fill-opacity="0.5" stroke="#606060" stroke-width=".5" x="0" y="0" width="60" height="60"/>
                <use id="zoomplus" xlink:href="#zoomPlus" x="17" y="9" onmousedown="handleZoom(evt,'in')"/>
                <use id="zoomminus" xlink:href="#zoomMin" x="42" y="9" onmousedown="handleZoom(evt,'out')"/>
                <use id="reset" xlink:href="#resetDef" x="30" y="36" onmousedown="handleReset()"/>
                <g id="arrowUp" xlink:href="#dirArrow" transform="translate(30 24)" onmousedown="handlePan(0,-1)">
                  <use xlink:href="#rim" fill="#404040">
                        <set attributeName="fill" to="#808080" begin="arrowUp.mouseover" end="arrowUp.mouseout"/>
                  </use>
                  <path fill="none" stroke="white" stroke-width="1.5" d="M0,-3.0v7 M-2.5,-0.5L0,-3.0L2.5,-0.5"/>
                </g>
                <g id="arrowRight" xlink:href="#dirArrow" transform="rotate(90) translate(36 -43)" onmousedown="handlePan(1,0)">
                  <use xlink:href="#rim" fill="#404040">
                        <set attributeName="fill" to="#808080" begin="arrowRight.mouseover" end="arrowRight.mouseout"/>
                  </use>
                  <path fill="none" stroke="white" stroke-width="1.5" d="M0,-3.0v7 M-2.5,-0.5L0,-3.0L2.5,-0.5"/>
                </g>
                <g id="arrowDown" xlink:href="#dirArrow" transform="rotate(180) translate(-30 -48)" onmousedown="handlePan(0,1)">
                  <use xlink:href="#rim" fill="#404040">
                        <set attributeName="fill" to="#808080" begin="arrowDown.mouseover" end="arrowDown.mouseout"/>
                  </use>
                  <path fill="none" stroke="white" stroke-width="1.5" d="M0,-3.0v7 M-2.5,-0.5L0,-3.0L2.5,-0.5"/>
                </g>
                <g id="arrowLeft" xlink:href="#dirArrow" transform="rotate(270) translate(-36 17)" onmousedown="handlePan(-1,0)">
                  <use xlink:href="#rim" fill="#404040">
                        <set attributeName="fill" to="#808080" begin="arrowLeft.mouseover" end="arrowLeft.mouseout"/>
                  </use>
                  <path fill="none" stroke="white" stroke-width="1.5" d="M0,-3.0v7 M-2.5,-0.5L0,-3.0L2.5,-0.5"/>
                </g>
        </g>
</svg>
