<?xml version="1.0" encoding="UTF-8" standalone="no"?>
<!DOCTYPE svg PUBLIC "-//W3C//DTD SVG 1.1//EN"
 "http://www.w3.org/Graphics/SVG/1.1/DTD/svg11.dtd">
<!-- Generated by graphviz version 2.36.0 (20140111.2315)
 -->
<!-- Title: FreeErrorMessage Pages: 1 -->
<!--zoomable 566 -->
<svg id="main" version="1.1" xmlns="http://www.w3.org/2000/svg" xmlns:xlink="http://www.w3.org/1999/xlink" xml:space="preserve" onload="init(evt)">
<style type="text/css"><![CDATA[
.edge:hover path { stroke: red; }
.edge:hover polygon { stroke: red; fill: red; }
]]></style>
<script type="text/javascript"><![CDATA[
var edges = document.getElementsByTagName('g');
if (edges && edges.length) {
  for (var i=0;i<edges.length;i++) {
    if (edges[i].id.substr(0,4)=='edge') {
      edges[i].setAttribute('class','edge');
    }
  }
}
]]></script>
        <defs>
                <circle id="rim" cx="0" cy="0" r="7"/>
                <circle id="rim2" cx="0" cy="0" r="3.5"/>
                <g id="zoomPlus">
                        <use xlink:href="#rim" fill="#404040">
                                <set attributeName="fill" to="#808080" begin="zoomplus.mouseover" end="zoomplus.mouseout"/>
                        </use>
                        <path d="M-4,0h8M0,-4v8" fill="none" stroke="white" stroke-width="1.5" pointer-events="none"/>
                </g>
                <g id="zoomMin">
                        <use xlink:href="#rim" fill="#404040">
                                <set attributeName="fill" to="#808080" begin="zoomminus.mouseover" end="zoomminus.mouseout"/>
                        </use>
                        <path d="M-4,0h8" fill="none" stroke="white" stroke-width="1.5" pointer-events="none"/>
                </g>
                <g id="dirArrow">
                        <path fill="none" stroke="white" stroke-width="1.5" d="M0,-3.0v7 M-2.5,-0.5L0,-3.0L2.5,-0.5"/>
                </g>
               <g id="resetDef">
                       <use xlink:href="#rim2" fill="#404040">
                               <set attributeName="fill" to="#808080" begin="reset.mouseover" end="reset.mouseout"/>
                       </use>
               </g>
        </defs>

<script type="text/javascript">
var viewWidth = 1384;
var viewHeight = 566;
var sectionId = 'dynsection-1';
</script>
<script xlink:href="../../svgpan.js"/>
<svg id="graph" class="graph">
<g id="viewport">
<title>FreeErrorMessage</title>
<!-- Node1 -->
<g id="node1" class="node"><title>Node1</title>
<polygon fill="#bfbfbf" stroke="black" points="0.5,-310.5 0.5,-329.5 97.5,-329.5 97.5,-310.5 0.5,-310.5"/>
<text text-anchor="middle" x="49" y="-317.5" font-family="Helvetica,sans-Serif" font-size="10.00">FreeErrorMessage</text>
</g>
<!-- Node2 -->
<g id="node2" class="node"><title>Node2</title>
<g id="a_node2"><a xlink:href="../../db/d4f/generic__networkhandler_8c.html#af0c95ade149818d252c292b489cfe190" target="_top" xlink:title="check if on one of the UDP consuming sockets data has been received and if yes handle it correctly ...">
<polygon fill="none" stroke="black" points="521.5,-481 521.5,-511 682.5,-511 682.5,-481 521.5,-481"/>
<text text-anchor="start" x="529.5" y="-499" font-family="Helvetica,sans-Serif" font-size="10.00">CheckAndHandleConsumingUdp</text>
<text text-anchor="middle" x="602" y="-488" font-family="Helvetica,sans-Serif" font-size="10.00">Sockets</text>
</a>
</g>
</g>
<!-- Node1&#45;&gt;Node2 -->
<g id="edge1" class="edge"><title>Node1&#45;&gt;Node2</title>
<path fill="none" stroke="midnightblue" d="M56.0125,-339.235C66.5163,-369.322 91.2631,-426.873 134,-454 252.211,-529.034 422.387,-522.2 521.338,-509.637"/>
<polygon fill="midnightblue" stroke="midnightblue" points="59.2532,-337.888 52.7802,-329.501 52.6099,-340.094 59.2532,-337.888"/>
</g>
<!-- Node3 -->
<g id="node3" class="node"><title>Node3</title>
<g id="a_node3"><a xlink:href="../../da/dc2/generic__networkhandler_8h.html#a2f01af81d3e5018d9980e2bc28c9078a" target="_top" xlink:title="NetworkHandlerProcessOnce">
<polygon fill="none" stroke="black" points="732,-376.5 732,-395.5 878,-395.5 878,-376.5 732,-376.5"/>
<text text-anchor="middle" x="805" y="-383.5" font-family="Helvetica,sans-Serif" font-size="10.00">NetworkHandlerProcessOnce</text>
</a>
</g>
</g>
<!-- Node1&#45;&gt;Node3 -->
<g id="edge32" class="edge"><title>Node1&#45;&gt;Node3</title>
<path fill="none" stroke="midnightblue" d="M53.4228,-339.968C60.8885,-376.984 82.299,-456.023 134,-495 199.52,-544.396 234.238,-519.087 316,-526 483.424,-540.157 543.099,-593.892 694,-520 749.955,-492.6 787.341,-421.899 799.603,-395.837"/>
<polygon fill="midnightblue" stroke="midnightblue" points="56.8215,-339.102 51.5355,-329.92 49.9418,-340.395 56.8215,-339.102"/>
</g>
<!-- Node5 -->
<g id="node5" class="node"><title>Node5</title>
<g id="a_node5"><a xlink:href="../../db/d4f/generic__networkhandler_8c.html#a8c1688da4bc37416162f4ba5ac436294" target="_top" xlink:title="handle any connection request coming in the TCP server socket. ">
<polygon fill="none" stroke="black" points="323,-437 323,-467 467,-467 467,-437 323,-437"/>
<text text-anchor="start" x="331" y="-455" font-family="Helvetica,sans-Serif" font-size="10.00">CheckAndHandleTcpListener</text>
<text text-anchor="middle" x="395" y="-444" font-family="Helvetica,sans-Serif" font-size="10.00">Socket</text>
</a>
</g>
</g>
<!-- Node1&#45;&gt;Node5 -->
<g id="edge4" class="edge"><title>Node1&#45;&gt;Node5</title>
<path fill="none" stroke="midnightblue" d="M59.5139,-338.767C72.6956,-362.598 98.914,-402.906 134,-422 192.071,-453.602 268.12,-458.972 322.952,-457.721"/>
<polygon fill="midnightblue" stroke="midnightblue" points="62.4622,-336.857 54.6749,-329.673 56.2825,-340.145 62.4622,-336.857"/>
</g>
<!-- Node6 -->
<g id="node6" class="node"><title>Node6</title>
<g id="a_node6"><a xlink:href="../../db/d4f/generic__networkhandler_8c.html#a5cae623dd720f3072dabdb78aa134262" target="_top" xlink:title="Checks and handles incoming messages via UDP broadcast. ">
<polygon fill="none" stroke="black" points="510.5,-393 510.5,-423 693.5,-423 693.5,-393 510.5,-393"/>
<text text-anchor="start" x="518.5" y="-411" font-family="Helvetica,sans-Serif" font-size="10.00">CheckAndHandleUdpGlobalBroadcast</text>
<text text-anchor="middle" x="602" y="-400" font-family="Helvetica,sans-Serif" font-size="10.00">Socket</text>
</a>
</g>
</g>
<!-- Node1&#45;&gt;Node6 -->
<g id="edge6" class="edge"><title>Node1&#45;&gt;Node6</title>
<path fill="none" stroke="midnightblue" d="M65.2002,-337.533C80.6477,-353.951 106.204,-377.485 134,-388 257.909,-434.875 413.693,-430.099 510.312,-420.485"/>
<polygon fill="midnightblue" stroke="midnightblue" points="67.4007,-334.75 58.0853,-329.702 62.2199,-339.457 67.4007,-334.75"/>
</g>
<!-- Node7 -->
<g id="node7" class="node"><title>Node7</title>
<g id="a_node7"><a xlink:href="../../db/d4f/generic__networkhandler_8c.html#ace1d8f3907ead0c43c1b5853132d5eb1" target="_top" xlink:title="Checks and processes request received via the UDP unicast socket, currently the implementation is por...">
<polygon fill="none" stroke="black" points="134.5,-349 134.5,-379 279.5,-379 279.5,-349 134.5,-349"/>
<text text-anchor="start" x="142.5" y="-367" font-family="Helvetica,sans-Serif" font-size="10.00">CheckAndHandleUdpUnicast</text>
<text text-anchor="middle" x="207" y="-356" font-family="Helvetica,sans-Serif" font-size="10.00">Socket</text>
</a>
</g>
</g>
<!-- Node1&#45;&gt;Node7 -->
<g id="edge8" class="edge"><title>Node1&#45;&gt;Node7</title>
<path fill="none" stroke="midnightblue" d="M93.6508,-332.312C111.937,-337.469 133.371,-343.515 152.586,-348.935"/>
<polygon fill="midnightblue" stroke="midnightblue" points="94.4243,-328.893 83.8497,-329.547 92.524,-335.631 94.4243,-328.893"/>
</g>
<!-- Node8 -->
<g id="node8" class="node"><title>Node8</title>
<g id="a_node8"><a xlink:href="../../d7/df9/encap_8h.html#a0101714be726ab1b21125b6a82ac7a56" target="_top" xlink:title="CloseEncapsulationSession\lBySockAddr">
<polygon fill="none" stroke="black" points="137.5,-210 137.5,-240 276.5,-240 276.5,-210 137.5,-210"/>
<text text-anchor="start" x="145.5" y="-228" font-family="Helvetica,sans-Serif" font-size="10.00">CloseEncapsulationSession</text>
<text text-anchor="middle" x="207" y="-217" font-family="Helvetica,sans-Serif" font-size="10.00">BySockAddr</text>
</a>
</g>
</g>
<!-- Node1&#45;&gt;Node8 -->
<g id="edge10" class="edge"><title>Node1&#45;&gt;Node8</title>
<path fill="none" stroke="midnightblue" d="M71.5758,-304.389C88.2927,-292.534 112.202,-276.093 134,-263 147.328,-254.994 162.496,-246.853 175.461,-240.17"/>
<polygon fill="midnightblue" stroke="midnightblue" points="69.1898,-301.792 63.0877,-310.453 73.2591,-307.488 69.1898,-301.792"/>
</g>
<!-- Node14 -->
<g id="node14" class="node"><title>Node14</title>
<g id="a_node14"><a xlink:href="../../d2/d5e/POSIX_2networkhandler_8c.html#a2812ba0ecd1fd9a5549fbca397d76e3e" target="_top" xlink:title="Platform dependent code to close a socket. ">
<polygon fill="none" stroke="black" points="152,-0.5 152,-19.5 262,-19.5 262,-0.5 152,-0.5"/>
<text text-anchor="middle" x="207" y="-7.5" font-family="Helvetica,sans-Serif" font-size="10.00">CloseSocketPlatform</text>
</a>
</g>
</g>
<!-- Node1&#45;&gt;Node14 -->
<g id="edge17" class="edge"><title>Node1&#45;&gt;Node14</title>
<path fill="none" stroke="midnightblue" d="M49.8925,-300.257C50.705,-249.064 60.0174,-110.701 134,-34 140.129,-27.6461 147.981,-22.9741 156.235,-19.5389"/>
<polygon fill="midnightblue" stroke="midnightblue" points="46.3923,-300.291 49.8297,-310.312 53.3922,-300.334 46.3923,-300.291"/>
</g>
<!-- Node15 -->
<g id="node15" class="node"><title>Node15</title>
<g id="a_node15"><a xlink:href="../../d5/dc5/group__CIP__CALLBACK__API.html#ga5807bcc51621775c9aedbf58d3a7a6d3" target="_top" xlink:title="create a new UDP socket for the connection manager ">
<polygon fill="none" stroke="black" points="159.5,-139.5 159.5,-158.5 254.5,-158.5 254.5,-139.5 159.5,-139.5"/>
<text text-anchor="middle" x="207" y="-146.5" font-family="Helvetica,sans-Serif" font-size="10.00">CreateUdpSocket</text>
</a>
</g>
</g>
<!-- Node1&#45;&gt;Node15 -->
<g id="edge18" class="edge"><title>Node1&#45;&gt;Node15</title>
<path fill="none" stroke="midnightblue" d="M60.0993,-301.704C74.3938,-276.841 102.339,-231.838 134,-200 150.85,-183.056 173.9,-167.824 189.337,-158.51"/>
<polygon fill="midnightblue" stroke="midnightblue" points="57.0226,-300.034 55.1517,-310.463 63.1174,-303.477 57.0226,-300.034"/>
</g>
<!-- Node21 -->
<g id="node21" class="node"><title>Node21</title>
<g id="a_node21"><a xlink:href="../../db/d4f/generic__networkhandler_8c.html#aca5593b7dd39d7a7b437999a367102d6" target="_top" xlink:title="Handles data on an established TCP connection, processed connection is given by socket. ">
<polygon fill="none" stroke="black" points="143,-310.5 143,-329.5 271,-329.5 271,-310.5 143,-310.5"/>
<text text-anchor="middle" x="207" y="-317.5" font-family="Helvetica,sans-Serif" font-size="10.00">HandleDataOnTcpSocket</text>
</a>
</g>
</g>
<!-- Node1&#45;&gt;Node21 -->
<g id="edge28" class="edge"><title>Node1&#45;&gt;Node21</title>
<path fill="none" stroke="midnightblue" d="M107.903,-320C119.286,-320 131.281,-320 142.826,-320"/>
<polygon fill="midnightblue" stroke="midnightblue" points="107.653,-316.5 97.6528,-320 107.653,-323.5 107.653,-316.5"/>
</g>
<!-- Node22 -->
<g id="node22" class="node"><title>Node22</title>
<g id="a_node22"><a xlink:href="../../da/dc2/generic__networkhandler_8h.html#aa49065f73f4d0f0ab04fb0b35d791e5d" target="_top" xlink:title="The platform independent part of network handler initialization routine. ">
<polygon fill="none" stroke="black" points="916.5,-65.5 916.5,-84.5 1039.5,-84.5 1039.5,-65.5 916.5,-65.5"/>
<text text-anchor="middle" x="978" y="-72.5" font-family="Helvetica,sans-Serif" font-size="10.00">NetworkHandlerInitialize</text>
</a>
</g>
</g>
<!-- Node1&#45;&gt;Node22 -->
<g id="edge30" class="edge"><title>Node1&#45;&gt;Node22</title>
<path fill="none" stroke="midnightblue" d="M53.3507,-300.221C60.8528,-261.943 82.5508,-177.346 134,-130 223.159,-47.9519 272.834,-48 394,-48 394,-48 394,-48 603,-48 713.669,-48 842.282,-59.9064 916.204,-67.9061"/>
<polygon fill="midnightblue" stroke="midnightblue" points="49.8964,-299.654 51.5291,-310.122 56.7809,-300.92 49.8964,-299.654"/>
</g>
<!-- Node23 -->
<g id="node23" class="node"><title>Node23</title>
<g id="a_node23"><a xlink:href="../../d5/dc5/group__CIP__CALLBACK__API.html#gad0abf9de45d75f3548e1eecfa3eac96b" target="_top" xlink:title="Create a producing or consuming UDP socket. ">
<polygon fill="none" stroke="black" points="168,-272.5 168,-291.5 246,-291.5 246,-272.5 168,-272.5"/>
<text text-anchor="middle" x="207" y="-279.5" font-family="Helvetica,sans-Serif" font-size="10.00">SendUdpData</text>
</a>
</g>
</g>
<!-- Node1&#45;&gt;Node23 -->
<g id="edge33" class="edge"><title>Node1&#45;&gt;Node23</title>
<path fill="none" stroke="midnightblue" d="M99.2845,-307.995C121.495,-302.585 147.315,-296.295 167.994,-291.258"/>
<polygon fill="midnightblue" stroke="midnightblue" points="98.2529,-304.644 89.3654,-310.411 99.9097,-311.445 98.2529,-304.644"/>
</g>
<!-- Node2&#45;&gt;Node3 -->
<g id="edge2" class="edge"><title>Node2&#45;&gt;Node3</title>
<path fill="none" stroke="midnightblue" d="M667.465,-477.532C676.561,-474.13 685.65,-470.28 694,-466 733.507,-445.751 774.312,-412.098 793.202,-395.649"/>
<polygon fill="midnightblue" stroke="midnightblue" points="666.25,-474.25 658.014,-480.915 668.609,-480.84 666.25,-474.25"/>
</g>
<!-- Node4 -->
<g id="node4" class="node"><title>Node4</title>
<g id="a_node4"><a xlink:href="../../d5/dcb/MINGW_2main_8c.html#ad338a7dbc41dc40bcecd0479377ef207" target="_top" xlink:title="main">
<polygon fill="none" stroke="black" points="1338,-183.5 1338,-202.5 1376,-202.5 1376,-183.5 1338,-183.5"/>
<text text-anchor="middle" x="1357" y="-190.5" font-family="Helvetica,sans-Serif" font-size="10.00">main</text>
</a>
</g>
</g>
<!-- Node3&#45;&gt;Node4 -->
<g id="edge3" class="edge"><title>Node3&#45;&gt;Node4</title>
<path fill="none" stroke="midnightblue" d="M842.8,-373.103C925.1,-344.259 1130.3,-272.325 1302,-212 1313.81,-207.849 1327.08,-203.182 1337.51,-199.512"/>
<polygon fill="midnightblue" stroke="midnightblue" points="841.435,-369.873 833.155,-376.484 843.75,-376.479 841.435,-369.873"/>
</g>
<!-- Node5&#45;&gt;Node3 -->
<g id="edge5" class="edge"><title>Node5&#45;&gt;Node3</title>
<path fill="none" stroke="midnightblue" d="M477.372,-453.691C537.887,-453.233 622.079,-448.957 694,-432 728.049,-423.972 765.081,-406.496 786.319,-395.546"/>
<polygon fill="midnightblue" stroke="midnightblue" points="477.1,-450.192 467.114,-453.734 477.129,-457.192 477.1,-450.192"/>
</g>
<!-- Node6&#45;&gt;Node3 -->
<g id="edge7" class="edge"><title>Node6&#45;&gt;Node3</title>
<path fill="none" stroke="midnightblue" d="M703.446,-397.006C713.001,-395.96 722.556,-394.914 731.766,-393.906"/>
<polygon fill="midnightblue" stroke="midnightblue" points="703.064,-393.527 693.504,-398.094 703.825,-400.485 703.064,-393.527"/>
</g>
<!-- Node7&#45;&gt;Node3 -->
<g id="edge9" class="edge"><title>Node7&#45;&gt;Node3</title>
<path fill="none" stroke="midnightblue" d="M289.927,-367.024C407.002,-371.346 620.298,-379.219 731.771,-383.334"/>
<polygon fill="midnightblue" stroke="midnightblue" points="289.718,-363.514 279.595,-366.643 289.459,-370.509 289.718,-363.514"/>
</g>
<!-- Node9 -->
<g id="node9" class="node"><title>Node9</title>
<g id="a_node9"><a xlink:href="../../df/d03/cipioconnection_8c.html#a7e4923f4b027d489d9933b52f6fd7007" target="_top" xlink:title="HandleIoConnectionTimeOut">
<polygon fill="none" stroke="black" points="323.5,-202.5 323.5,-221.5 466.5,-221.5 466.5,-202.5 323.5,-202.5"/>
<text text-anchor="middle" x="395" y="-209.5" font-family="Helvetica,sans-Serif" font-size="10.00">HandleIoConnectionTimeOut</text>
</a>
</g>
</g>
<!-- Node8&#45;&gt;Node9 -->
<g id="edge11" class="edge"><title>Node8&#45;&gt;Node9</title>
<path fill="none" stroke="midnightblue" d="M286.829,-219.49C298.965,-218.642 311.431,-217.771 323.374,-216.936"/>
<polygon fill="midnightblue" stroke="midnightblue" points="286.463,-216.007 276.731,-220.196 286.951,-222.99 286.463,-216.007"/>
</g>
<!-- Node10 -->
<g id="node10" class="node"><title>Node10</title>
<g id="a_node10"><a xlink:href="../../df/d03/cipioconnection_8c.html#ab3282f146a3ea91c90cf14c32206ee8c" target="_top" xlink:title="SetIoConnectionCallbacks">
<polygon fill="none" stroke="black" points="535.5,-240.5 535.5,-259.5 668.5,-259.5 668.5,-240.5 535.5,-240.5"/>
<text text-anchor="middle" x="602" y="-247.5" font-family="Helvetica,sans-Serif" font-size="10.00">SetIoConnectionCallbacks</text>
</a>
</g>
</g>
<!-- Node9&#45;&gt;Node10 -->
<g id="edge12" class="edge"><title>Node9&#45;&gt;Node10</title>
<path fill="none" stroke="midnightblue" d="M457.598,-223.418C486.93,-228.855 521.607,-235.283 549.513,-240.456"/>
<polygon fill="midnightblue" stroke="midnightblue" points="457.936,-219.921 447.466,-221.54 456.66,-226.804 457.936,-219.921"/>
</g>
<!-- Node11 -->
<g id="node11" class="node"><title>Node11</title>
<g id="a_node11"><a xlink:href="../../de/d45/cipioconnection_8h.html#a43e270b3f9b9f6296b12285c320c95aa" target="_top" xlink:title="Setup all data in order to establish an IO connection. ">
<polygon fill="none" stroke="black" points="920.5,-183.5 920.5,-202.5 1035.5,-202.5 1035.5,-183.5 920.5,-183.5"/>
<text text-anchor="middle" x="978" y="-190.5" font-family="Helvetica,sans-Serif" font-size="10.00">EstablishIoConnection</text>
</a>
</g>
</g>
<!-- Node10&#45;&gt;Node11 -->
<g id="edge13" class="edge"><title>Node10&#45;&gt;Node11</title>
<path fill="none" stroke="midnightblue" d="M675.88,-238.893C747.401,-227.992 854.981,-211.596 920.328,-201.637"/>
<polygon fill="midnightblue" stroke="midnightblue" points="674.958,-235.493 665.599,-240.459 676.012,-242.413 674.958,-235.493"/>
</g>
<!-- Node12 -->
<g id="node12" class="node"><title>Node12</title>
<g id="a_node12"><a xlink:href="../../d2/da3/cipconnectionmanager_8h.html#a5ab0de6894d23e8fe84a6b46797c2212" target="_top" xlink:title="Initialize the data of the connection manager object. ">
<polygon fill="none" stroke="black" points="1076.5,-183.5 1076.5,-202.5 1193.5,-202.5 1193.5,-183.5 1076.5,-183.5"/>
<text text-anchor="middle" x="1135" y="-190.5" font-family="Helvetica,sans-Serif" font-size="10.00">ConnectionManagerInit</text>
</a>
</g>
</g>
<!-- Node11&#45;&gt;Node12 -->
<g id="edge14" class="edge"><title>Node11&#45;&gt;Node12</title>
<path fill="none" stroke="midnightblue" d="M1045.89,-193C1056.05,-193 1066.45,-193 1076.39,-193"/>
<polygon fill="midnightblue" stroke="midnightblue" points="1045.84,-189.5 1035.84,-193 1045.84,-196.5 1045.84,-189.5"/>
</g>
<!-- Node13 -->
<g id="node13" class="node"><title>Node13</title>
<g id="a_node13"><a xlink:href="../../d2/dc9/group__CIP__API.html#ga5d4979945d124e28668b264c3823db1c" target="_top" xlink:title="Initialize and setup the CIP&#45;stack. ">
<polygon fill="none" stroke="black" points="1230.5,-183.5 1230.5,-202.5 1301.5,-202.5 1301.5,-183.5 1230.5,-183.5"/>
<text text-anchor="middle" x="1266" y="-190.5" font-family="Helvetica,sans-Serif" font-size="10.00">CipStackInit</text>
</a>
</g>
</g>
<!-- Node12&#45;&gt;Node13 -->
<g id="edge15" class="edge"><title>Node12&#45;&gt;Node13</title>
<path fill="none" stroke="midnightblue" d="M1203.98,-193C1213.08,-193 1222.09,-193 1230.27,-193"/>
<polygon fill="midnightblue" stroke="midnightblue" points="1203.71,-189.5 1193.71,-193 1203.71,-196.5 1203.71,-189.5"/>
</g>
<!-- Node13&#45;&gt;Node4 -->
<g id="edge16" class="edge"><title>Node13&#45;&gt;Node4</title>
<path fill="none" stroke="midnightblue" d="M1311.91,-193C1321.05,-193 1330.16,-193 1337.71,-193"/>
<polygon fill="midnightblue" stroke="midnightblue" points="1311.66,-189.5 1301.66,-193 1311.66,-196.5 1311.66,-189.5"/>
</g>
<!-- Node16 -->
<g id="node16" class="node"><title>Node16</title>
<g id="a_node16"><a xlink:href="../../df/d03/cipioconnection_8c.html#add645b42730b2cea369523949c6b9745" target="_top" xlink:title="Open a Point2Point connection dependent on pa_direction. ">
<polygon fill="none" stroke="black" points="529,-191 529,-221 675,-221 675,-191 529,-191"/>
<text text-anchor="start" x="537" y="-209" font-family="Helvetica,sans-Serif" font-size="10.00">OpenConsumingPointToPoint</text>
<text text-anchor="middle" x="602" y="-198" font-family="Helvetica,sans-Serif" font-size="10.00">Connection</text>
</a>
</g>
</g>
<!-- Node15&#45;&gt;Node16 -->
<g id="edge19" class="edge"><title>Node15&#45;&gt;Node16</title>
<path fill="none" stroke="midnightblue" d="M264.537,-157.2C334.185,-167.302 452.611,-184.478 528.78,-195.525"/>
<polygon fill="midnightblue" stroke="midnightblue" points="265.024,-153.734 254.626,-155.762 264.02,-160.662 265.024,-153.734"/>
</g>
<!-- Node18 -->
<g id="node18" class="node"><title>Node18</title>
<g id="a_node18"><a xlink:href="../../df/d03/cipioconnection_8c.html#aa3b58fd216ec6712abc29ef84b33006d" target="_top" xlink:title="OpenProducingPointToPoint\lConnection">
<polygon fill="none" stroke="black" points="325,-115 325,-145 465,-145 465,-115 325,-115"/>
<text text-anchor="start" x="333" y="-133" font-family="Helvetica,sans-Serif" font-size="10.00">OpenProducingPointToPoint</text>
<text text-anchor="middle" x="395" y="-122" font-family="Helvetica,sans-Serif" font-size="10.00">Connection</text>
</a>
</g>
</g>
<!-- Node15&#45;&gt;Node18 -->
<g id="edge22" class="edge"><title>Node15&#45;&gt;Node18</title>
<path fill="none" stroke="midnightblue" d="M264.9,-143.188C283.848,-141.252 305.163,-139.075 324.93,-137.055"/>
<polygon fill="midnightblue" stroke="midnightblue" points="264.528,-139.707 254.936,-144.205 265.24,-146.671 264.528,-139.707"/>
</g>
<!-- Node19 -->
<g id="node19" class="node"><title>Node19</title>
<g id="a_node19"><a xlink:href="../../df/d03/cipioconnection_8c.html#a9e2ce4666173987646cf60ce3422d7b4" target="_top" xlink:title="Open a Multicast connection dependent on direction. ">
<polygon fill="none" stroke="black" points="330.5,-76.5 330.5,-95.5 459.5,-95.5 459.5,-76.5 330.5,-76.5"/>
<text text-anchor="middle" x="395" y="-83.5" font-family="Helvetica,sans-Serif" font-size="10.00">OpenMulticastConnection</text>
</a>
</g>
</g>
<!-- Node15&#45;&gt;Node19 -->
<g id="edge24" class="edge"><title>Node15&#45;&gt;Node19</title>
<path fill="none" stroke="midnightblue" d="M237.993,-135.382C259.423,-125.999 289.105,-113.701 316,-105 326.874,-101.482 338.785,-98.2682 349.952,-95.5248"/>
<polygon fill="midnightblue" stroke="midnightblue" points="236.495,-132.217 228.767,-139.465 239.328,-138.619 236.495,-132.217"/>
</g>
<!-- Node17 -->
<g id="node17" class="node"><title>Node17</title>
<g id="a_node17"><a xlink:href="../../de/d45/cipioconnection_8h.html#a53b85bce88b582414fc282c95f5626f4" target="_top" xlink:title="Take the data given in the connection object structure and open the necessary communication channels...">
<polygon fill="none" stroke="black" points="730.5,-152.5 730.5,-171.5 879.5,-171.5 879.5,-152.5 730.5,-152.5"/>
<text text-anchor="middle" x="805" y="-159.5" font-family="Helvetica,sans-Serif" font-size="10.00">OpenCommunicationChannels</text>
</a>
</g>
</g>
<!-- Node16&#45;&gt;Node17 -->
<g id="edge20" class="edge"><title>Node16&#45;&gt;Node17</title>
<path fill="none" stroke="midnightblue" d="M681.407,-188.836C708.31,-182.947 737.436,-176.571 760.546,-171.512"/>
<polygon fill="midnightblue" stroke="midnightblue" points="680.631,-185.423 671.611,-190.981 682.128,-192.261 680.631,-185.423"/>
</g>
<!-- Node17&#45;&gt;Node11 -->
<g id="edge21" class="edge"><title>Node17&#45;&gt;Node11</title>
<path fill="none" stroke="midnightblue" d="M868.701,-173.367C887.023,-176.688 906.851,-180.283 924.473,-183.478"/>
<polygon fill="midnightblue" stroke="midnightblue" points="869.165,-169.894 858.701,-171.554 867.916,-176.782 869.165,-169.894"/>
</g>
<!-- Node18&#45;&gt;Node17 -->
<g id="edge23" class="edge"><title>Node18&#45;&gt;Node17</title>
<path fill="none" stroke="midnightblue" d="M475.388,-136.227C549.222,-142.017 658.36,-150.577 730.306,-156.22"/>
<polygon fill="midnightblue" stroke="midnightblue" points="475.455,-132.721 465.212,-135.428 474.907,-139.7 475.455,-132.721"/>
</g>
<!-- Node19&#45;&gt;Node17 -->
<g id="edge25" class="edge"><title>Node19&#45;&gt;Node17</title>
<path fill="none" stroke="midnightblue" d="M462.275,-97.2302C536.099,-109.799 650.748,-129.512 694,-138 716.633,-142.442 741.772,-147.888 762.299,-152.469"/>
<polygon fill="midnightblue" stroke="midnightblue" points="462.587,-93.7329 452.141,-95.506 461.412,-100.634 462.587,-93.7329"/>
</g>
<!-- Node20 -->
<g id="node20" class="node"><title>Node20</title>
<g id="a_node20"><a xlink:href="../../df/d03/cipioconnection_8c.html#a5dea6fc1be0ed4ecf5d9e4f932d52106" target="_top" xlink:title="OpenProducingMulticastConnection">
<polygon fill="none" stroke="black" points="515.5,-76.5 515.5,-95.5 688.5,-95.5 688.5,-76.5 515.5,-76.5"/>
<text text-anchor="middle" x="602" y="-83.5" font-family="Helvetica,sans-Serif" font-size="10.00">OpenProducingMulticastConnection</text>
</a>
</g>
</g>
<!-- Node19&#45;&gt;Node20 -->
<g id="edge26" class="edge"><title>Node19&#45;&gt;Node20</title>
<path fill="none" stroke="midnightblue" d="M469.829,-86C484.627,-86 500.292,-86 515.449,-86"/>
<polygon fill="midnightblue" stroke="midnightblue" points="469.74,-82.5001 459.74,-86 469.74,-89.5001 469.74,-82.5001"/>
</g>
<!-- Node20&#45;&gt;Node17 -->
<g id="edge27" class="edge"><title>Node20&#45;&gt;Node17</title>
<path fill="none" stroke="midnightblue" d="M655.627,-98.122C668.331,-101.529 681.767,-105.538 694,-110 727.538,-122.232 764.734,-140.976 786.142,-152.303"/>
<polygon fill="midnightblue" stroke="midnightblue" points="656.192,-94.6524 645.633,-95.522 654.43,-101.427 656.192,-94.6524"/>
</g>
<!-- Node21&#45;&gt;Node3 -->
<g id="edge29" class="edge"><title>Node21&#45;&gt;Node3</title>
<path fill="none" stroke="midnightblue" d="M281.444,-327.396C376.658,-337.091 547.832,-354.88 694,-372 706.237,-373.433 719.231,-375.025 731.838,-376.606"/>
<polygon fill="midnightblue" stroke="midnightblue" points="281.646,-323.899 271.343,-326.369 280.938,-330.863 281.646,-323.899"/>
</g>
<!-- Node22&#45;&gt;Node4 -->
<g id="edge31" class="edge"><title>Node22&#45;&gt;Node4</title>
<path fill="none" stroke="midnightblue" d="M1021.49,-87.4211C1083.42,-105.659 1201.99,-141.095 1302,-174 1313.9,-177.914 1327.16,-182.578 1337.57,-186.305"/>
<polygon fill="midnightblue" stroke="midnightblue" points="1022.27,-84.0018 1011.69,-84.5384 1020.3,-90.7174 1022.27,-84.0018"/>
</g>
<!-- Node24 -->
<g id="node24" class="node"><title>Node24</title>
<g id="a_node24"><a xlink:href="../../df/d03/cipioconnection_8c.html#a20f1bc1c4cc4470cf371f94d51814de2" target="_top" xlink:title="Send the data from the produced CIP Object of the connection via the socket of the connection object ...">
<polygon fill="none" stroke="black" points="341.5,-240.5 341.5,-259.5 448.5,-259.5 448.5,-240.5 341.5,-240.5"/>
<text text-anchor="middle" x="395" y="-247.5" font-family="Helvetica,sans-Serif" font-size="10.00">SendConnectedData</text>
</a>
</g>
</g>
<!-- Node23&#45;&gt;Node24 -->
<g id="edge34" class="edge"><title>Node23&#45;&gt;Node24</title>
<path fill="none" stroke="midnightblue" d="M256.11,-273.723C282.165,-269.24 314.404,-263.694 341.157,-259.091"/>
<polygon fill="midnightblue" stroke="midnightblue" points="255.35,-270.302 246.089,-275.447 256.537,-277.201 255.35,-270.302"/>
</g>
<!-- Node25 -->
<g id="node25" class="node"><title>Node25</title>
<g id="a_node25"><a xlink:href="../../d4/d91/group__ENCAP.html#ga3b9c0d7d9d1413e4cd8ca5634b4bc9ac" target="_top" xlink:title="Handle delayed encapsulation message responses. ">
<polygon fill="none" stroke="black" points="316,-278.5 316,-297.5 474,-297.5 474,-278.5 316,-278.5"/>
<text text-anchor="middle" x="395" y="-285.5" font-family="Helvetica,sans-Serif" font-size="10.00">ManageEncapsulationMessages</text>
</a>
</g>
</g>
<!-- Node23&#45;&gt;Node25 -->
<g id="edge36" class="edge"><title>Node23&#45;&gt;Node25</title>
<path fill="none" stroke="midnightblue" d="M256.122,-283.552C274.282,-284.138 295.443,-284.821 315.657,-285.473"/>
<polygon fill="midnightblue" stroke="midnightblue" points="256.196,-280.053 246.089,-283.229 255.971,-287.049 256.196,-280.053"/>
</g>
<!-- Node24&#45;&gt;Node10 -->
<g id="edge35" class="edge"><title>Node24&#45;&gt;Node10</title>
<path fill="none" stroke="midnightblue" d="M458.703,-250C482.998,-250 510.825,-250 535.39,-250"/>
<polygon fill="midnightblue" stroke="midnightblue" points="458.526,-246.5 448.526,-250 458.526,-253.5 458.526,-246.5"/>
</g>
<!-- Node26 -->
<g id="node26" class="node"><title>Node26</title>
<g id="a_node26"><a xlink:href="../../d2/dc9/group__CIP__API.html#ga9f57b09260efb5bfb188b9d0ca0c6091" target="_top" xlink:title="Check if any of the connection timers (TransmissionTrigger or WatchdogTimeout) have timed out...">
<polygon fill="none" stroke="black" points="549,-278.5 549,-297.5 655,-297.5 655,-278.5 549,-278.5"/>
<text text-anchor="middle" x="602" y="-285.5" font-family="Helvetica,sans-Serif" font-size="10.00">ManageConnections</text>
</a>
</g>
</g>
<!-- Node25&#45;&gt;Node26 -->
<g id="edge37" class="edge"><title>Node25&#45;&gt;Node26</title>
<path fill="none" stroke="midnightblue" d="M484.144,-288C506.205,-288 529.17,-288 548.844,-288"/>
<polygon fill="midnightblue" stroke="midnightblue" points="484.087,-284.5 474.087,-288 484.086,-291.5 484.087,-284.5"/>
</g>
<!-- Node26&#45;&gt;Node3 -->
<g id="edge38" class="edge"><title>Node26&#45;&gt;Node3</title>
<path fill="none" stroke="midnightblue" d="M660.996,-300.183C672.184,-303.396 683.639,-307.31 694,-312 733.002,-329.653 773.397,-360.718 792.573,-376.387"/>
<polygon fill="midnightblue" stroke="midnightblue" points="661.836,-296.785 651.268,-297.538 659.999,-303.539 661.836,-296.785"/>
</g>
</g>
</svg>
        <g id="navigator" transform="translate(0 0)" fill="#404254">
                <rect fill="#f2f5e9" fill-opacity="0.5" stroke="#606060" stroke-width=".5" x="0" y="0" width="60" height="60"/>
                <use id="zoomplus" xlink:href="#zoomPlus" x="17" y="9" onmousedown="handleZoom(evt,'in')"/>
                <use id="zoomminus" xlink:href="#zoomMin" x="42" y="9" onmousedown="handleZoom(evt,'out')"/>
                <use id="reset" xlink:href="#resetDef" x="30" y="36" onmousedown="handleReset()"/>
                <g id="arrowUp" xlink:href="#dirArrow" transform="translate(30 24)" onmousedown="handlePan(0,-1)">
                  <use xlink:href="#rim" fill="#404040">
                        <set attributeName="fill" to="#808080" begin="arrowUp.mouseover" end="arrowUp.mouseout"/>
                  </use>
                  <path fill="none" stroke="white" stroke-width="1.5" d="M0,-3.0v7 M-2.5,-0.5L0,-3.0L2.5,-0.5"/>
                </g>
                <g id="arrowRight" xlink:href="#dirArrow" transform="rotate(90) translate(36 -43)" onmousedown="handlePan(1,0)">
                  <use xlink:href="#rim" fill="#404040">
                        <set attributeName="fill" to="#808080" begin="arrowRight.mouseover" end="arrowRight.mouseout"/>
                  </use>
                  <path fill="none" stroke="white" stroke-width="1.5" d="M0,-3.0v7 M-2.5,-0.5L0,-3.0L2.5,-0.5"/>
                </g>
                <g id="arrowDown" xlink:href="#dirArrow" transform="rotate(180) translate(-30 -48)" onmousedown="handlePan(0,1)">
                  <use xlink:href="#rim" fill="#404040">
                        <set attributeName="fill" to="#808080" begin="arrowDown.mouseover" end="arrowDown.mouseout"/>
                  </use>
                  <path fill="none" stroke="white" stroke-width="1.5" d="M0,-3.0v7 M-2.5,-0.5L0,-3.0L2.5,-0.5"/>
                </g>
                <g id="arrowLeft" xlink:href="#dirArrow" transform="rotate(270) translate(-36 17)" onmousedown="handlePan(-1,0)">
                  <use xlink:href="#rim" fill="#404040">
                        <set attributeName="fill" to="#808080" begin="arrowLeft.mouseover" end="arrowLeft.mouseout"/>
                  </use>
                  <path fill="none" stroke="white" stroke-width="1.5" d="M0,-3.0v7 M-2.5,-0.5L0,-3.0L2.5,-0.5"/>
                </g>
        </g>
        <svg viewBox="0 0 15 15" width="100%" height="30px" preserveAspectRatio="xMaxYMin meet">
         <g id="arrow_out" transform="scale(0.3 0.3)">
          <a xlink:href="opener__error_8h_a99f5295ad12a2b986bab4b89a24cfc20_icgraph_org.svg" target="_base">
           <rect id="button" ry="5" rx="5" y="6" x="6" height="38" width="38"
                fill="#f2f5e9" fill-opacity="0.5" stroke="#606060" stroke-width="1.0"/>
           <path id="arrow"
             d="M 11.500037,31.436501 C 11.940474,20.09759 22.043105,11.32322 32.158766,21.979434 L 37.068811,17.246167 C 37.068811,17.246167 37.088388,32 37.088388,32 L 22.160133,31.978069 C 22.160133,31.978069 26.997745,27.140456 26.997745,27.140456 C 18.528582,18.264221 13.291696,25.230495 11.500037,31.436501 z"
             style="fill:#404040;"/>
          </a>
         </g>
        </svg>
</svg>
