<?xml version="1.0" encoding="UTF-8" standalone="no"?>
<!DOCTYPE svg PUBLIC "-//W3C//DTD SVG 1.1//EN"
 "http://www.w3.org/Graphics/SVG/1.1/DTD/svg11.dtd">
<!-- Generated by graphviz version 2.26.3 (20100126.1600)
 -->
<!-- Title: G Pages: 1 -->
<!--zoomable 110 -->
<svg id="main" version="1.1" xmlns="http://www.w3.org/2000/svg" xmlns:xlink="http://www.w3.org/1999/xlink" xml:space="preserve" onload="init(evt)">
        <defs>
                <circle id="rim" cx="0" cy="0" r="7"/>
                <circle id="rim2" cx="0" cy="0" r="3.5"/>
                <g id="zoomPlus">
                        <use xlink:href="#rim" fill="#404040">
                                <set attributeName="fill" to="#808080" begin="zoomplus.mouseover" end="zoomplus.mouseout"/>
                        </use>
                        <path d="M-4,0h8M0,-4v8" fill="none" stroke="white" stroke-width="1.5" pointer-events="none"/>
                </g>
                <g id="zoomMin">
                        <use xlink:href="#rim" fill="#404040">
                                <set attributeName="fill" to="#808080" begin="zoomminus.mouseover" end="zoomminus.mouseout"/>
                        </use>
                        <path d="M-4,0h8" fill="none" stroke="white" stroke-width="1.5" pointer-events="none"/>
                </g>
                <g id="dirArrow">
                        <path fill="none" stroke="white" stroke-width="1.5" d="M0,-3.0v7 M-2.5,-0.5L0,-3.0L2.5,-0.5"/>
                </g>
               <g id="resetDef">
                       <use xlink:href="#rim2" fill="#404040">
                               <set attributeName="fill" to="#808080" begin="reset.mouseover" end="reset.mouseout"/>
                       </use>
               </g>
        </defs>

<script type="text/javascript">
var viewWidth = 772;
var viewHeight = 110;
var sectionId = 'dynsection-17';
</script>
<script xlink:href="../../svgpan.js"/>
<svg id="graph" class="graph">
<g id="viewport">
<title>G</title>
<!-- Node1 -->
<g id="node1" class="node"><title>Node1</title>
<polygon fill="#bfbfbf" stroke="black" points="0,-40.5 0,-61.5 164,-61.5 164,-40.5 0,-40.5"/>
<text text-anchor="middle" x="82" y="-48.5" font-family="Helvetica,sans-Serif" font-size="10.00">GetPathNetworkSegmentSubtype</text>
</g>
<!-- Node2 -->
<g id="node3" class="node"><title>Node2</title>
<a xlink:href="../../d1/d02/cipepath_8h.html#af415c4c27f4de757ec66ef9a1fa91be9" target="_top" xlink:title="Gets the Production Inhibit Time in Microseconds.">
<polygon fill="none" stroke="black" points="200,-80.5 200,-101.5 492,-101.5 492,-80.5 200,-80.5"/>
<text text-anchor="middle" x="346" y="-88.5" font-family="Helvetica,sans-Serif" font-size="10.00">GetPathNetworkSegmentProductionInhibitTimeInMicroseconds</text>
</a>
</g>
<!-- Node1&#45;&gt;Node2 -->
<g id="edge2" class="edge"><title>Node1&#45;&gt;Node2</title>
<path fill="none" stroke="midnightblue" d="M152.156,-63.2676C167.883,-65.9127 184.5,-68.6254 200,-71 221.243,-74.2544 244.264,-77.5264 265.61,-80.4541"/>
<polygon fill="midnightblue" stroke="midnightblue" points="152.414,-59.7616 141.97,-61.5434 151.246,-66.6634 152.414,-59.7616"/>
</g>
<!-- Node3 -->
<g id="node5" class="node"><title>Node3</title>
<a xlink:href="../../d1/d02/cipepath_8h.html#a622782ef5d9554ed97cf6191075a52b6" target="_top" xlink:title="Gets the Production Inhibit Time in Milliseconds.">
<polygon fill="none" stroke="black" points="203.5,-40.5 203.5,-61.5 488.5,-61.5 488.5,-40.5 203.5,-40.5"/>
<text text-anchor="middle" x="346" y="-48.5" font-family="Helvetica,sans-Serif" font-size="10.00">GetPathNetworkSegmentProductionInhibitTimeInMilliseconds</text>
</a>
</g>
<!-- Node1&#45;&gt;Node3 -->
<g id="edge4" class="edge"><title>Node1&#45;&gt;Node3</title>
<path fill="none" stroke="midnightblue" d="M174.235,-51C183.708,-51 193.482,-51 203.336,-51"/>
<polygon fill="midnightblue" stroke="midnightblue" points="174.084,-47.5001 164.084,-51 174.084,-54.5001 174.084,-47.5001"/>
</g>
<!-- Node4 -->
<g id="node7" class="node"><title>Node4</title>
<a xlink:href="../../d5/d35/cipconnectionmanager_8c.html#a96ebb3d0e93c8d4ee4a7d6529061ee68" target="_top" xlink:title="Parse the connection path of a forward open request.">
<polygon fill="none" stroke="black" points="290,-0.5 290,-21.5 402,-21.5 402,-0.5 290,-0.5"/>
<text text-anchor="middle" x="346" y="-8.5" font-family="Helvetica,sans-Serif" font-size="10.00">ParseConnectionPath</text>
</a>
</g>
<!-- Node1&#45;&gt;Node4 -->
<g id="edge6" class="edge"><title>Node1&#45;&gt;Node4</title>
<path fill="none" stroke="midnightblue" d="M152.156,-38.7324C167.883,-36.0873 184.5,-33.3746 200,-31 229.588,-26.4671 262.627,-21.9 289.782,-18.2768"/>
<polygon fill="midnightblue" stroke="midnightblue" points="151.246,-35.3366 141.97,-40.4566 152.414,-42.2384 151.246,-35.3366"/>
</g>
<!-- Node5 -->
<g id="node9" class="node"><title>Node5</title>
<a xlink:href="../../d5/d35/cipconnectionmanager_8c.html#ab0532e3b6d153312d4cf60746586058e" target="_top" xlink:title="Handles a Non Null Non Matching Forward Open Request.">
<polygon fill="none" stroke="black" points="528,-0.5 528,-21.5 764,-21.5 764,-0.5 528,-0.5"/>
<text text-anchor="middle" x="646" y="-8.5" font-family="Helvetica,sans-Serif" font-size="10.00">HandleNonNullNonMatchingForwardOpenRequest</text>
</a>
</g>
<!-- Node4&#45;&gt;Node5 -->
<g id="edge8" class="edge"><title>Node4&#45;&gt;Node5</title>
<path fill="none" stroke="midnightblue" d="M412.315,-11C446.218,-11 488.508,-11 527.757,-11"/>
<polygon fill="midnightblue" stroke="midnightblue" points="412.076,-7.5001 402.076,-11 412.076,-14.5001 412.076,-7.5001"/>
</g>
</g>
</svg>
        <g id="navigator" transform="translate(0 0)" fill="#404254">
                <rect fill="#f2f5e9" fill-opacity="0.5" stroke="#606060" stroke-width=".5" x="0" y="0" width="60" height="60"/>
                <use id="zoomplus" xlink:href="#zoomPlus" x="17" y="9" onmousedown="handleZoom(evt,'in')"/>
                <use id="zoomminus" xlink:href="#zoomMin" x="42" y="9" onmousedown="handleZoom(evt,'out')"/>
                <use id="reset" xlink:href="#resetDef" x="30" y="36" onmousedown="handleReset()"/>
                <g id="arrowUp" xlink:href="#dirArrow" transform="translate(30 24)" onmousedown="handlePan(0,-1)">
                  <use xlink:href="#rim" fill="#404040">
                        <set attributeName="fill" to="#808080" begin="arrowUp.mouseover" end="arrowUp.mouseout"/>
                  </use>
                  <path fill="none" stroke="white" stroke-width="1.5" d="M0,-3.0v7 M-2.5,-0.5L0,-3.0L2.5,-0.5"/>
                </g>
                <g id="arrowRight" xlink:href="#dirArrow" transform="rotate(90) translate(36 -43)" onmousedown="handlePan(1,0)">
                  <use xlink:href="#rim" fill="#404040">
                        <set attributeName="fill" to="#808080" begin="arrowRight.mouseover" end="arrowRight.mouseout"/>
                  </use>
                  <path fill="none" stroke="white" stroke-width="1.5" d="M0,-3.0v7 M-2.5,-0.5L0,-3.0L2.5,-0.5"/>
                </g>
                <g id="arrowDown" xlink:href="#dirArrow" transform="rotate(180) translate(-30 -48)" onmousedown="handlePan(0,1)">
                  <use xlink:href="#rim" fill="#404040">
                        <set attributeName="fill" to="#808080" begin="arrowDown.mouseover" end="arrowDown.mouseout"/>
                  </use>
                  <path fill="none" stroke="white" stroke-width="1.5" d="M0,-3.0v7 M-2.5,-0.5L0,-3.0L2.5,-0.5"/>
                </g>
                <g id="arrowLeft" xlink:href="#dirArrow" transform="rotate(270) translate(-36 17)" onmousedown="handlePan(-1,0)">
                  <use xlink:href="#rim" fill="#404040">
                        <set attributeName="fill" to="#808080" begin="arrowLeft.mouseover" end="arrowLeft.mouseout"/>
                  </use>
                  <path fill="none" stroke="white" stroke-width="1.5" d="M0,-3.0v7 M-2.5,-0.5L0,-3.0L2.5,-0.5"/>
                </g>
        </g>
</svg>
