<?xml version="1.0" encoding="UTF-8" standalone="no"?>
<!DOCTYPE svg PUBLIC "-//W3C//DTD SVG 1.1//EN"
 "http://www.w3.org/Graphics/SVG/1.1/DTD/svg11.dtd">
<!-- Generated by graphviz version 2.36.0 (20140111.2315)
 -->
<!-- Title: src/ports/udp_protocol.c Pages: 1 -->
<svg width="130pt" height="140pt"
 viewBox="0.00 0.00 130.00 140.00" xmlns="http://www.w3.org/2000/svg" xmlns:xlink="http://www.w3.org/1999/xlink">
<g id="graph0" class="graph" transform="scale(1 1) rotate(0) translate(4 136)">
<title>src/ports/udp_protocol.c</title>
<!-- Node1 -->
<g id="node1" class="node"><title>Node1</title>
<polygon fill="#bfbfbf" stroke="black" points="0,-112.5 0,-131.5 122,-131.5 122,-112.5 0,-112.5"/>
<text text-anchor="middle" x="61" y="-119.5" font-family="Helvetica,sans-Serif" font-size="10.00">src/ports/udp_protocol.c</text>
</g>
<!-- Node2 -->
<g id="node2" class="node"><title>Node2</title>
<g id="a_node2"><a xlink:href="../../d6/ddb/udp__protocol_8h.html" target="_top" xlink:title="Includes a basic set of operations for UDP header creation and checksum calculation. ">
<polygon fill="none" stroke="black" points="21,-56.5 21,-75.5 101,-75.5 101,-56.5 21,-56.5"/>
<text text-anchor="middle" x="61" y="-63.5" font-family="Helvetica,sans-Serif" font-size="10.00">udp_protocol.h</text>
</a>
</g>
</g>
<!-- Node1&#45;&gt;Node2 -->
<g id="edge1" class="edge"><title>Node1&#45;&gt;Node2</title>
<path fill="none" stroke="midnightblue" d="M61,-112.083C61,-105.006 61,-94.8611 61,-85.9865"/>
<polygon fill="midnightblue" stroke="midnightblue" points="64.5001,-85.751 61,-75.7511 57.5001,-85.7511 64.5001,-85.751"/>
</g>
<!-- Node3 -->
<g id="node3" class="node"><title>Node3</title>
<polygon fill="none" stroke="#bfbfbf" points="2.5,-0.5 2.5,-19.5 51.5,-19.5 51.5,-0.5 2.5,-0.5"/>
<text text-anchor="middle" x="27" y="-7.5" font-family="Helvetica,sans-Serif" font-size="10.00">stdint.h</text>
</g>
<!-- Node2&#45;&gt;Node3 -->
<g id="edge2" class="edge"><title>Node2&#45;&gt;Node3</title>
<path fill="none" stroke="midnightblue" d="M55.3856,-56.083C50.6326,-48.5341 43.6819,-37.4948 37.8484,-28.2298"/>
<polygon fill="midnightblue" stroke="midnightblue" points="40.7999,-26.3486 32.5099,-19.7511 34.8763,-30.0783 40.7999,-26.3486"/>
</g>
<!-- Node4 -->
<g id="node4" class="node"><title>Node4</title>
<polygon fill="none" stroke="#bfbfbf" points="70,-0.5 70,-19.5 122,-19.5 122,-0.5 70,-0.5"/>
<text text-anchor="middle" x="96" y="-7.5" font-family="Helvetica,sans-Serif" font-size="10.00">stddef.h</text>
</g>
<!-- Node2&#45;&gt;Node4 -->
<g id="edge3" class="edge"><title>Node2&#45;&gt;Node4</title>
<path fill="none" stroke="midnightblue" d="M66.7795,-56.083C71.6724,-48.5341 78.8274,-37.4948 84.8326,-28.2298"/>
<polygon fill="midnightblue" stroke="midnightblue" points="87.826,-30.0463 90.328,-19.7511 81.952,-26.239 87.826,-30.0463"/>
</g>
</g>
</svg>
