<?xml version="1.0" encoding="UTF-8" standalone="no"?>
<!DOCTYPE svg PUBLIC "-//W3C//DTD SVG 1.1//EN"
 "http://www.w3.org/Graphics/SVG/1.1/DTD/svg11.dtd">
<!-- Generated by graphviz version 2.38.0 (20140413.2041)
 -->
<!-- Title: src/enet_encap/endianconv.h Pages: 1 -->
<svg width="1784pt" height="84pt"
 viewBox="0.00 0.00 1783.50 84.00" xmlns="http://www.w3.org/2000/svg" xmlns:xlink="http://www.w3.org/1999/xlink">
<g id="graph0" class="graph" transform="scale(1 1) rotate(0) translate(4 80)">
<title>src/enet_encap/endianconv.h</title>
<!-- Node1 -->
<g id="node1" class="node"><title>Node1</title>
<polygon fill="#bfbfbf" stroke="black" points="768.5,-56.5 768.5,-75.5 912.5,-75.5 912.5,-56.5 768.5,-56.5"/>
<text text-anchor="middle" x="840.5" y="-63.5" font-family="Helvetica,sans-Serif" font-size="10.00">src/enet_encap/endianconv.h</text>
</g>
<!-- Node2 -->
<g id="node2" class="node"><title>Node2</title>
<g id="a_node2"><a xlink:href="../../d2/d3d/cipcommon_8c.html" target="_top" xlink:title="src/cip/cipcommon.c">
<polygon fill="none" stroke="black" points="0,-0.5 0,-19.5 107,-19.5 107,-0.5 0,-0.5"/>
<text text-anchor="middle" x="53.5" y="-7.5" font-family="Helvetica,sans-Serif" font-size="10.00">src/cip/cipcommon.c</text>
</a>
</g>
</g>
<!-- Node1&#45;&gt;Node2 -->
<g id="edge1" class="edge"><title>Node1&#45;&gt;Node2</title>
<path fill="none" stroke="midnightblue" d="M758.068,-62.0901C623.365,-56.8398 347.786,-44.0273 115.5,-20 112.795,-19.7202 110.028,-19.4093 107.235,-19.0759"/>
<polygon fill="midnightblue" stroke="midnightblue" points="758.178,-65.5968 768.306,-62.4851 758.448,-58.602 758.178,-65.5968"/>
</g>
<!-- Node3 -->
<g id="node3" class="node"><title>Node3</title>
<g id="a_node3"><a xlink:href="../../d5/d35/cipconnectionmanager_8c.html" target="_top" xlink:title="src/cip/cipconnectionmanager.c">
<polygon fill="none" stroke="black" points="125,-0.5 125,-19.5 280,-19.5 280,-0.5 125,-0.5"/>
<text text-anchor="middle" x="202.5" y="-7.5" font-family="Helvetica,sans-Serif" font-size="10.00">src/cip/cipconnectionmanager.c</text>
</a>
</g>
</g>
<!-- Node1&#45;&gt;Node3 -->
<g id="edge2" class="edge"><title>Node1&#45;&gt;Node3</title>
<path fill="none" stroke="midnightblue" d="M758.1,-58.8283C650.334,-50.6289 455.687,-35.3803 289.5,-20 286.476,-19.7201 283.393,-19.4291 280.28,-19.1302"/>
<polygon fill="midnightblue" stroke="midnightblue" points="758.017,-62.332 768.253,-59.5996 758.547,-55.3522 758.017,-62.332"/>
</g>
<!-- Node4 -->
<g id="node4" class="node"><title>Node4</title>
<g id="a_node4"><a xlink:href="../../d7/d65/cipethernetlink_8c.html" target="_top" xlink:title="src/cip/cipethernetlink.c">
<polygon fill="none" stroke="black" points="298.5,-0.5 298.5,-19.5 418.5,-19.5 418.5,-0.5 298.5,-0.5"/>
<text text-anchor="middle" x="358.5" y="-7.5" font-family="Helvetica,sans-Serif" font-size="10.00">src/cip/cipethernetlink.c</text>
</a>
</g>
</g>
<!-- Node1&#45;&gt;Node4 -->
<g id="edge3" class="edge"><title>Node1&#45;&gt;Node4</title>
<path fill="none" stroke="midnightblue" d="M758.279,-56.5592C674.888,-47.8764 542.136,-33.72 427.5,-20 424.621,-19.6555 421.676,-19.2964 418.701,-18.9286"/>
<polygon fill="midnightblue" stroke="midnightblue" points="758.143,-60.0638 768.451,-57.6166 758.867,-53.1013 758.143,-60.0638"/>
</g>
<!-- Node5 -->
<g id="node5" class="node"><title>Node5</title>
<g id="a_node5"><a xlink:href="../../dd/dc4/cipidentity_8c.html" target="_top" xlink:title="src/cip/cipidentity.c">
<polygon fill="none" stroke="black" points="437,-0.5 437,-19.5 538,-19.5 538,-0.5 437,-0.5"/>
<text text-anchor="middle" x="487.5" y="-7.5" font-family="Helvetica,sans-Serif" font-size="10.00">src/cip/cipidentity.c</text>
</a>
</g>
</g>
<!-- Node1&#45;&gt;Node5 -->
<g id="edge4" class="edge"><title>Node1&#45;&gt;Node5</title>
<path fill="none" stroke="midnightblue" d="M774.313,-54.875C705.76,-44.3883 600.15,-28.2325 538.025,-18.729"/>
<polygon fill="midnightblue" stroke="midnightblue" points="774.152,-58.3911 784.566,-56.4435 775.21,-51.4716 774.152,-58.3911"/>
</g>
<!-- Node6 -->
<g id="node6" class="node"><title>Node6</title>
<g id="a_node6"><a xlink:href="../../df/d03/cipioconnection_8c.html" target="_top" xlink:title="src/cip/cipioconnection.c">
<polygon fill="none" stroke="black" points="556,-0.5 556,-19.5 681,-19.5 681,-0.5 556,-0.5"/>
<text text-anchor="middle" x="618.5" y="-7.5" font-family="Helvetica,sans-Serif" font-size="10.00">src/cip/cipioconnection.c</text>
</a>
</g>
</g>
<!-- Node1&#45;&gt;Node6 -->
<g id="edge5" class="edge"><title>Node1&#45;&gt;Node6</title>
<path fill="none" stroke="midnightblue" d="M795.375,-54.0237C753.44,-43.8232 691.848,-28.8414 653.512,-19.5164"/>
<polygon fill="midnightblue" stroke="midnightblue" points="794.78,-57.4808 805.323,-56.4435 796.434,-50.6791 794.78,-57.4808"/>
</g>
<!-- Node7 -->
<g id="node7" class="node"><title>Node7</title>
<g id="a_node7"><a xlink:href="../../d9/d7d/cipmessagerouter_8c.html" target="_top" xlink:title="src/cip/cipmessagerouter.c">
<polygon fill="none" stroke="black" points="699.5,-0.5 699.5,-19.5 833.5,-19.5 833.5,-0.5 699.5,-0.5"/>
<text text-anchor="middle" x="766.5" y="-7.5" font-family="Helvetica,sans-Serif" font-size="10.00">src/cip/cipmessagerouter.c</text>
</a>
</g>
</g>
<!-- Node1&#45;&gt;Node7 -->
<g id="edge6" class="edge"><title>Node1&#45;&gt;Node7</title>
<path fill="none" stroke="midnightblue" d="M820.466,-50.3804C807.091,-40.6204 789.941,-28.1057 778.606,-19.8339"/>
<polygon fill="midnightblue" stroke="midnightblue" points="818.47,-53.2565 828.611,-56.324 822.596,-47.602 818.47,-53.2565"/>
</g>
<!-- Node8 -->
<g id="node8" class="node"><title>Node8</title>
<g id="a_node8"><a xlink:href="../../dd/d20/ciptcpipinterface_8c.html" target="_top" xlink:title="src/cip/ciptcpipinterface.c">
<polygon fill="none" stroke="black" points="851.5,-0.5 851.5,-19.5 979.5,-19.5 979.5,-0.5 851.5,-0.5"/>
<text text-anchor="middle" x="915.5" y="-7.5" font-family="Helvetica,sans-Serif" font-size="10.00">src/cip/ciptcpipinterface.c</text>
</a>
</g>
</g>
<!-- Node1&#45;&gt;Node8 -->
<g id="edge7" class="edge"><title>Node1&#45;&gt;Node8</title>
<path fill="none" stroke="midnightblue" d="M860.805,-50.3804C874.361,-40.6204 891.742,-28.1057 903.231,-19.8339"/>
<polygon fill="midnightblue" stroke="midnightblue" points="858.62,-47.6405 852.55,-56.324 862.71,-53.3213 858.62,-47.6405"/>
</g>
<!-- Node9 -->
<g id="node9" class="node"><title>Node9</title>
<g id="a_node9"><a xlink:href="../../d3/d98/cpf_8c.html" target="_top" xlink:title="src/enet_encap/cpf.c">
<polygon fill="none" stroke="black" points="997.5,-0.5 997.5,-19.5 1105.5,-19.5 1105.5,-0.5 997.5,-0.5"/>
<text text-anchor="middle" x="1051.5" y="-7.5" font-family="Helvetica,sans-Serif" font-size="10.00">src/enet_encap/cpf.c</text>
</a>
</g>
</g>
<!-- Node1&#45;&gt;Node9 -->
<g id="edge8" class="edge"><title>Node1&#45;&gt;Node9</title>
<path fill="none" stroke="midnightblue" d="M883.642,-53.959C923.494,-43.7598 981.863,-28.8217 1018.22,-19.5164"/>
<polygon fill="midnightblue" stroke="midnightblue" points="882.754,-50.5734 873.934,-56.4435 884.489,-57.3549 882.754,-50.5734"/>
</g>
<!-- Node10 -->
<g id="node10" class="node"><title>Node10</title>
<g id="a_node10"><a xlink:href="../../d2/dbd/encap_8c.html" target="_top" xlink:title="src/enet_encap/encap.c">
<polygon fill="none" stroke="black" points="1124,-0.5 1124,-19.5 1245,-19.5 1245,-0.5 1124,-0.5"/>
<text text-anchor="middle" x="1184.5" y="-7.5" font-family="Helvetica,sans-Serif" font-size="10.00">src/enet_encap/encap.c</text>
</a>
</g>
</g>
<!-- Node1&#45;&gt;Node10 -->
<g id="edge9" class="edge"><title>Node1&#45;&gt;Node10</title>
<path fill="none" stroke="midnightblue" d="M905.136,-54.8537C970.131,-44.6509 1069.21,-29.0977 1130.25,-19.5164"/>
<polygon fill="midnightblue" stroke="midnightblue" points="904.344,-51.435 895.008,-56.4435 905.43,-58.3503 904.344,-51.435"/>
</g>
<!-- Node11 -->
<g id="node11" class="node"><title>Node11</title>
<g id="a_node11"><a xlink:href="../../da/d73/endianconv_8c.html" target="_top" xlink:title="src/enet_encap/endianconv.c">
<polygon fill="none" stroke="black" points="1263.5,-0.5 1263.5,-19.5 1407.5,-19.5 1407.5,-0.5 1263.5,-0.5"/>
<text text-anchor="middle" x="1335.5" y="-7.5" font-family="Helvetica,sans-Serif" font-size="10.00">src/enet_encap/endianconv.c</text>
</a>
</g>
</g>
<!-- Node1&#45;&gt;Node11 -->
<g id="edge10" class="edge"><title>Node1&#45;&gt;Node11</title>
<path fill="none" stroke="midnightblue" d="M922.868,-56.1055C1006.42,-47.0693 1139.46,-32.643 1254.5,-20 1257.31,-19.6909 1260.18,-19.3751 1263.08,-19.0556"/>
<polygon fill="midnightblue" stroke="midnightblue" points="922.242,-52.6527 912.676,-57.2075 922.995,-59.6121 922.242,-52.6527"/>
</g>
<!-- Node12 -->
<g id="node12" class="node"><title>Node12</title>
<g id="a_node12"><a xlink:href="../../d2/d5e/POSIX_2networkhandler_8c.html" target="_top" xlink:title="src/ports/POSIX/networkhandler.c">
<polygon fill="none" stroke="black" points="1425.5,-0.5 1425.5,-19.5 1591.5,-19.5 1591.5,-0.5 1425.5,-0.5"/>
<text text-anchor="middle" x="1508.5" y="-7.5" font-family="Helvetica,sans-Serif" font-size="10.00">src/ports/POSIX/networkhandler.c</text>
</a>
</g>
</g>
<!-- Node1&#45;&gt;Node12 -->
<g id="edge11" class="edge"><title>Node1&#45;&gt;Node12</title>
<path fill="none" stroke="midnightblue" d="M923.025,-59.0621C1034.89,-50.8964 1240.88,-35.4488 1416.5,-20 1419.38,-19.7469 1422.31,-19.4848 1425.26,-19.2164"/>
<polygon fill="midnightblue" stroke="midnightblue" points="922.546,-55.5877 912.827,-59.8054 923.055,-62.5691 922.546,-55.5877"/>
</g>
<!-- Node13 -->
<g id="node13" class="node"><title>Node13</title>
<g id="a_node13"><a xlink:href="../../d8/d6c/WIN32_2networkhandler_8c.html" target="_top" xlink:title="src/ports/WIN32/networkhandler.c">
<polygon fill="none" stroke="black" points="1609.5,-0.5 1609.5,-19.5 1775.5,-19.5 1775.5,-0.5 1609.5,-0.5"/>
<text text-anchor="middle" x="1692.5" y="-7.5" font-family="Helvetica,sans-Serif" font-size="10.00">src/ports/WIN32/networkhandler.c</text>
</a>
</g>
</g>
<!-- Node1&#45;&gt;Node13 -->
<g id="edge12" class="edge"><title>Node1&#45;&gt;Node13</title>
<path fill="none" stroke="midnightblue" d="M922.789,-61.1642C1062.31,-54.4285 1354.16,-39.335 1600.5,-20 1603.38,-19.774 1606.31,-19.5352 1609.27,-19.2867"/>
<polygon fill="midnightblue" stroke="midnightblue" points="922.424,-57.6777 912.604,-61.6542 922.76,-64.6696 922.424,-57.6777"/>
</g>
</g>
</svg>
