<?xml version="1.0" encoding="UTF-8" standalone="no"?>
<!DOCTYPE svg PUBLIC "-//W3C//DTD SVG 1.1//EN"
 "http://www.w3.org/Graphics/SVG/1.1/DTD/svg11.dtd">
<!-- Generated by graphviz version 2.36.0 (20140111.2315)
 -->
<!-- Title: EncodeInterfaceCounters Pages: 1 -->
<svg width="516pt" height="142pt"
 viewBox="0.00 0.00 516.00 142.00" xmlns="http://www.w3.org/2000/svg" xmlns:xlink="http://www.w3.org/1999/xlink">
<g id="graph0" class="graph" transform="scale(1 1) rotate(0) translate(4 138)">
<title>EncodeInterfaceCounters</title>
<!-- Node1 -->
<g id="node1" class="node"><title>Node1</title>
<polygon fill="#bfbfbf" stroke="black" points="0,-57.5 0,-76.5 128,-76.5 128,-57.5 0,-57.5"/>
<text text-anchor="middle" x="64" y="-64.5" font-family="Helvetica,sans-Serif" font-size="10.00">EncodeInterfaceCounters</text>
</g>
<!-- Node2 -->
<g id="node2" class="node"><title>Node2</title>
<g id="a_node2"><a xlink:href="../../d2/dc9/group__CIP__API.html#gaece1b7dd2aeec306cb33b86b2ee21980" target="_top" xlink:title="Produce the data according to CIP encoding onto the message buffer. ">
<polygon fill="none" stroke="black" points="164.5,-57.5 164.5,-76.5 235.5,-76.5 235.5,-57.5 164.5,-57.5"/>
<text text-anchor="middle" x="200" y="-64.5" font-family="Helvetica,sans-Serif" font-size="10.00">EncodeData</text>
</a>
</g>
</g>
<!-- Node1&#45;&gt;Node2 -->
<g id="edge1" class="edge"><title>Node1&#45;&gt;Node2</title>
<path fill="none" stroke="midnightblue" d="M128.076,-67C136.858,-67 145.731,-67 154.087,-67"/>
<polygon fill="midnightblue" stroke="midnightblue" points="154.35,-70.5001 164.35,-67 154.35,-63.5001 154.35,-70.5001"/>
</g>
<!-- Node2&#45;&gt;Node2 -->
<g id="edge7" class="edge"><title>Node2&#45;&gt;Node2</title>
<path fill="none" stroke="midnightblue" d="M180.888,-76.7571C171.59,-85.5653 177.961,-95 200,-95 214.119,-95 221.807,-91.128 223.065,-86.0292"/>
<polygon fill="midnightblue" stroke="midnightblue" points="226.254,-84.5831 219.112,-76.7571 219.815,-87.3286 226.254,-84.5831"/>
</g>
<!-- Node3 -->
<g id="node3" class="node"><title>Node3</title>
<g id="a_node3"><a xlink:href="../../d4/d91/group__ENCAP.html#gae267a8684cc6ee1b3bd83df03260b7aa" target="_top" xlink:title="converts UINT8 data from host to little endian an writes it to buffer. ">
<polygon fill="none" stroke="black" points="273,-114.5 273,-133.5 375,-133.5 375,-114.5 273,-114.5"/>
<text text-anchor="middle" x="324" y="-121.5" font-family="Helvetica,sans-Serif" font-size="10.00">AddSintToMessage</text>
</a>
</g>
</g>
<!-- Node2&#45;&gt;Node3 -->
<g id="edge2" class="edge"><title>Node2&#45;&gt;Node3</title>
<path fill="none" stroke="midnightblue" d="M221.42,-76.5405C241.038,-85.7061 270.903,-99.6595 293.18,-110.068"/>
<polygon fill="midnightblue" stroke="midnightblue" points="291.972,-113.366 302.513,-114.428 294.935,-107.024 291.972,-113.366"/>
</g>
<!-- Node4 -->
<g id="node4" class="node"><title>Node4</title>
<g id="a_node4"><a xlink:href="../../d4/d91/group__ENCAP.html#gae689aac2a85bf49fb356ec94c8800799" target="_top" xlink:title="converts UINT16 data from host to little endian an writes it to buffer. ">
<polygon fill="none" stroke="black" points="412,-38.5 412,-57.5 508,-57.5 508,-38.5 412,-38.5"/>
<text text-anchor="middle" x="460" y="-45.5" font-family="Helvetica,sans-Serif" font-size="10.00">AddIntToMessage</text>
</a>
</g>
</g>
<!-- Node2&#45;&gt;Node4 -->
<g id="edge3" class="edge"><title>Node2&#45;&gt;Node4</title>
<path fill="none" stroke="midnightblue" d="M235.662,-69.2859C271.061,-71.085 327.545,-72.4752 376,-67 388.981,-65.5332 402.891,-62.8148 415.542,-59.8838"/>
<polygon fill="midnightblue" stroke="midnightblue" points="416.477,-63.2585 425.375,-57.5074 414.833,-56.4544 416.477,-63.2585"/>
</g>
<!-- Node5 -->
<g id="node5" class="node"><title>Node5</title>
<g id="a_node5"><a xlink:href="../../d4/d91/group__ENCAP.html#gaafc3c9e3ff582c9b7e438ae2b1fdf822" target="_top" xlink:title="Converts UINT32 data from host to little endian and writes it to buffer. ">
<polygon fill="none" stroke="black" points="272.5,-38.5 272.5,-57.5 375.5,-57.5 375.5,-38.5 272.5,-38.5"/>
<text text-anchor="middle" x="324" y="-45.5" font-family="Helvetica,sans-Serif" font-size="10.00">AddDintToMessage</text>
</a>
</g>
</g>
<!-- Node2&#45;&gt;Node5 -->
<g id="edge4" class="edge"><title>Node2&#45;&gt;Node5</title>
<path fill="none" stroke="midnightblue" d="M235.634,-61.6062C244.015,-60.301 253.218,-58.8677 262.409,-57.4363"/>
<polygon fill="midnightblue" stroke="midnightblue" points="262.995,-60.8873 272.337,-55.8901 261.918,-53.9707 262.995,-60.8873"/>
</g>
<!-- Node6 -->
<g id="node6" class="node"><title>Node6</title>
<g id="a_node6"><a xlink:href="../../d2/d3d/cipcommon_8c.html#a6eec1752e2cffbbab16bff95fa145bd3" target="_top" xlink:title="EncodeEPath">
<polygon fill="none" stroke="black" points="285.5,-0.5 285.5,-19.5 362.5,-19.5 362.5,-0.5 285.5,-0.5"/>
<text text-anchor="middle" x="324" y="-7.5" font-family="Helvetica,sans-Serif" font-size="10.00">EncodeEPath</text>
</a>
</g>
</g>
<!-- Node2&#45;&gt;Node6 -->
<g id="edge5" class="edge"><title>Node2&#45;&gt;Node6</title>
<path fill="none" stroke="midnightblue" d="M217.324,-57.4495C231.514,-49.3457 252.759,-37.6856 272,-29 276.397,-27.015 281.07,-25.0659 285.732,-23.2174"/>
<polygon fill="midnightblue" stroke="midnightblue" points="287.115,-26.4356 295.198,-19.5851 284.607,-19.9002 287.115,-26.4356"/>
</g>
<!-- Node6&#45;&gt;Node4 -->
<g id="edge6" class="edge"><title>Node6&#45;&gt;Node4</title>
<path fill="none" stroke="midnightblue" d="M358.814,-19.589C376.033,-24.4719 397.164,-30.4643 415.573,-35.685"/>
<polygon fill="midnightblue" stroke="midnightblue" points="414.621,-39.053 425.197,-38.4141 416.531,-32.3185 414.621,-39.053"/>
</g>
</g>
</svg>
