<?xml version="1.0" encoding="UTF-8" standalone="no"?>
<!DOCTYPE svg PUBLIC "-//W3C//DTD SVG 1.1//EN"
 "http://www.w3.org/Graphics/SVG/1.1/DTD/svg11.dtd">
<!-- Generated by graphviz version 2.36.0 (20140111.2315)
 -->
<!-- Title: CipEthernetLinkInit Pages: 1 -->
<!--zoomable 544 -->
<svg id="main" version="1.1" xmlns="http://www.w3.org/2000/svg" xmlns:xlink="http://www.w3.org/1999/xlink" xml:space="preserve" onload="init(evt)">
<style type="text/css"><![CDATA[
.edge:hover path { stroke: red; }
.edge:hover polygon { stroke: red; fill: red; }
]]></style>
<script type="text/javascript"><![CDATA[
var edges = document.getElementsByTagName('g');
if (edges && edges.length) {
  for (var i=0;i<edges.length;i++) {
    if (edges[i].id.substr(0,4)=='edge') {
      edges[i].setAttribute('class','edge');
    }
  }
}
]]></script>
        <defs>
                <circle id="rim" cx="0" cy="0" r="7"/>
                <circle id="rim2" cx="0" cy="0" r="3.5"/>
                <g id="zoomPlus">
                        <use xlink:href="#rim" fill="#404040">
                                <set attributeName="fill" to="#808080" begin="zoomplus.mouseover" end="zoomplus.mouseout"/>
                        </use>
                        <path d="M-4,0h8M0,-4v8" fill="none" stroke="white" stroke-width="1.5" pointer-events="none"/>
                </g>
                <g id="zoomMin">
                        <use xlink:href="#rim" fill="#404040">
                                <set attributeName="fill" to="#808080" begin="zoomminus.mouseover" end="zoomminus.mouseout"/>
                        </use>
                        <path d="M-4,0h8" fill="none" stroke="white" stroke-width="1.5" pointer-events="none"/>
                </g>
                <g id="dirArrow">
                        <path fill="none" stroke="white" stroke-width="1.5" d="M0,-3.0v7 M-2.5,-0.5L0,-3.0L2.5,-0.5"/>
                </g>
               <g id="resetDef">
                       <use xlink:href="#rim2" fill="#404040">
                               <set attributeName="fill" to="#808080" begin="reset.mouseover" end="reset.mouseout"/>
                       </use>
               </g>
        </defs>

<script type="text/javascript">
var viewWidth = 904;
var viewHeight = 544;
var sectionId = 'dynsection-1';
</script>
<script xlink:href="../../svgpan.js"/>
<svg id="graph" class="graph">
<g id="viewport">
<title>CipEthernetLinkInit</title>
<!-- Node1 -->
<g id="node1" class="node"><title>Node1</title>
<polygon fill="#bfbfbf" stroke="black" points="0,-285.5 0,-304.5 100,-304.5 100,-285.5 0,-285.5"/>
<text text-anchor="middle" x="50" y="-292.5" font-family="Helvetica,sans-Serif" font-size="10.00">CipEthernetLinkInit</text>
</g>
<!-- Node2 -->
<g id="node2" class="node"><title>Node2</title>
<g id="a_node2"><a xlink:href="../../d2/d3d/cipcommon_8c.html#a3dfa07bc40e59ba348d713272d1cbfdb" target="_top" xlink:title="CreateCipClass">
<polygon fill="none" stroke="black" points="169,-380.5 169,-399.5 255,-399.5 255,-380.5 169,-380.5"/>
<text text-anchor="middle" x="212" y="-387.5" font-family="Helvetica,sans-Serif" font-size="10.00">CreateCipClass</text>
</a>
</g>
</g>
<!-- Node1&#45;&gt;Node2 -->
<g id="edge1" class="edge"><title>Node1&#45;&gt;Node2</title>
<path fill="none" stroke="midnightblue" d="M60.0323,-304.644C74.6511,-319.732 105,-348.952 136,-366 144.006,-370.403 152.942,-374.142 161.779,-377.265"/>
<polygon fill="midnightblue" stroke="midnightblue" points="160.685,-380.59 171.279,-380.413 162.888,-373.945 160.685,-380.59"/>
</g>
<!-- Node7 -->
<g id="node7" class="node"><title>Node7</title>
<g id="a_node7"><a xlink:href="../../d2/d3d/cipcommon_8c.html#ab5e27f4fb889d26a7dcd993cf2d3ddfe" target="_top" xlink:title="Generic implementation of the GetAttributeAll CIP service. ">
<polygon fill="none" stroke="black" points="350,-342.5 350,-361.5 430,-361.5 430,-342.5 350,-342.5"/>
<text text-anchor="middle" x="390" y="-349.5" font-family="Helvetica,sans-Serif" font-size="10.00">GetAttributeAll</text>
</a>
</g>
</g>
<!-- Node1&#45;&gt;Node7 -->
<g id="edge29" class="edge"><title>Node1&#45;&gt;Node7</title>
<path fill="none" stroke="midnightblue" d="M82.253,-304.507C98.2159,-309.094 118.017,-314.375 136,-318 206.112,-332.134 288.369,-341.959 339.597,-347.292"/>
<polygon fill="midnightblue" stroke="midnightblue" points="339.424,-350.792 349.729,-348.33 340.138,-343.829 339.424,-350.792"/>
</g>
<!-- Node19 -->
<g id="node19" class="node"><title>Node19</title>
<g id="a_node19"><a xlink:href="../../d2/dc9/group__CIP__API.html#gac207feb53c1f98b45f3934bbea63d618" target="_top" xlink:title="Insert an attribute in an instance of a CIP class. ">
<polygon fill="none" stroke="black" points="351,-266.5 351,-285.5 429,-285.5 429,-266.5 351,-266.5"/>
<text text-anchor="middle" x="390" y="-273.5" font-family="Helvetica,sans-Serif" font-size="10.00">InsertAttribute</text>
</a>
</g>
</g>
<!-- Node1&#45;&gt;Node19 -->
<g id="edge43" class="edge"><title>Node1&#45;&gt;Node19</title>
<path fill="none" stroke="midnightblue" d="M100.148,-292.237C164.493,-288.62 276.596,-282.319 340.579,-278.722"/>
<polygon fill="midnightblue" stroke="midnightblue" points="341.013,-282.203 350.801,-278.147 340.62,-275.214 341.013,-282.203"/>
</g>
<!-- Node20 -->
<g id="node20" class="node"><title>Node20</title>
<g id="a_node20"><a xlink:href="../../d2/dc9/group__CIP__API.html#ga35f639b135ec3c3903f49fd65daed307" target="_top" xlink:title="Insert a service in an instance of a CIP object. ">
<polygon fill="none" stroke="black" points="353,-304.5 353,-323.5 427,-323.5 427,-304.5 353,-304.5"/>
<text text-anchor="middle" x="390" y="-311.5" font-family="Helvetica,sans-Serif" font-size="10.00">InsertService</text>
</a>
</g>
</g>
<!-- Node1&#45;&gt;Node20 -->
<g id="edge44" class="edge"><title>Node1&#45;&gt;Node20</title>
<path fill="none" stroke="midnightblue" d="M100.44,-297.937C112.101,-298.622 124.488,-299.343 136,-300 208.316,-304.128 292.27,-308.737 342.975,-311.501"/>
<polygon fill="midnightblue" stroke="midnightblue" points="342.791,-314.996 352.967,-312.046 343.172,-308.007 342.791,-314.996"/>
</g>
<!-- Node22 -->
<g id="node22" class="node"><title>Node22</title>
<g id="a_node22"><a xlink:href="../../d7/d65/cipethernetlink_8c.html#ab32c3ac78db693933538f44ed0b1fb42" target="_top" xlink:title="GetAttributeSingleEthernetLink">
<polygon fill="none" stroke="black" points="136.5,-152.5 136.5,-171.5 287.5,-171.5 287.5,-152.5 136.5,-152.5"/>
<text text-anchor="middle" x="212" y="-159.5" font-family="Helvetica,sans-Serif" font-size="10.00">GetAttributeSingleEthernetLink</text>
</a>
</g>
</g>
<!-- Node1&#45;&gt;Node22 -->
<g id="edge30" class="edge"><title>Node1&#45;&gt;Node22</title>
<path fill="none" stroke="midnightblue" d="M62.5068,-285.435C89.5896,-262.922 157.61,-206.38 191.367,-178.32"/>
<polygon fill="midnightblue" stroke="midnightblue" points="193.713,-180.921 199.166,-171.837 189.238,-175.538 193.713,-180.921"/>
</g>
<!-- Node27 -->
<g id="node27" class="node"><title>Node27</title>
<g id="a_node27"><a xlink:href="../../d2/dc9/group__CIP__API.html#gaa50395aca91b378c297d6ad919df210e" target="_top" xlink:title="Get a pointer to an instance. ">
<polygon fill="none" stroke="black" points="169.5,-114.5 169.5,-133.5 254.5,-133.5 254.5,-114.5 169.5,-114.5"/>
<text text-anchor="middle" x="212" y="-121.5" font-family="Helvetica,sans-Serif" font-size="10.00">GetCipInstance</text>
</a>
</g>
</g>
<!-- Node1&#45;&gt;Node27 -->
<g id="edge42" class="edge"><title>Node1&#45;&gt;Node27</title>
<path fill="none" stroke="midnightblue" d="M53.4738,-285.401C60.938,-258.436 85.868,-181.469 136,-143 142.893,-137.71 151.092,-133.881 159.495,-131.111"/>
<polygon fill="midnightblue" stroke="midnightblue" points="160.714,-134.404 169.389,-128.323 158.815,-127.667 160.714,-134.404"/>
</g>
<!-- Node3 -->
<g id="node3" class="node"><title>Node3</title>
<g id="a_node3"><a xlink:href="../../d2/dc9/group__CIP__API.html#ga39dafca98f844a12511af11b1273d0a8" target="_top" xlink:title="Add a number of CIP instances to a given CIP class. ">
<polygon fill="none" stroke="black" points="344,-494.5 344,-513.5 436,-513.5 436,-494.5 344,-494.5"/>
<text text-anchor="middle" x="390" y="-501.5" font-family="Helvetica,sans-Serif" font-size="10.00">AddCipInstances</text>
</a>
</g>
</g>
<!-- Node2&#45;&gt;Node3 -->
<g id="edge2" class="edge"><title>Node2&#45;&gt;Node3</title>
<path fill="none" stroke="midnightblue" d="M221.494,-399.601C238.866,-418.659 280.502,-461.455 324,-485 328.175,-487.26 332.649,-489.279 337.225,-491.078"/>
<polygon fill="midnightblue" stroke="midnightblue" points="336.103,-494.394 346.697,-494.467 338.461,-487.803 336.103,-494.394"/>
</g>
<!-- Node4 -->
<g id="node4" class="node"><title>Node4</title>
<g id="a_node4"><a xlink:href="../../d5/dc5/group__CIP__CALLBACK__API.html#ga70ee7034f390fd3759d42a50e60e1b1c" target="_top" xlink:title="Allocate memory for the CIP stack. ">
<polygon fill="none" stroke="black" points="528.5,-475.5 528.5,-494.5 587.5,-494.5 587.5,-475.5 528.5,-475.5"/>
<text text-anchor="middle" x="558" y="-482.5" font-family="Helvetica,sans-Serif" font-size="10.00">CipCalloc</text>
</a>
</g>
</g>
<!-- Node2&#45;&gt;Node4 -->
<g id="edge7" class="edge"><title>Node2&#45;&gt;Node4</title>
<path fill="none" stroke="midnightblue" d="M217.446,-399.853C229.839,-425.941 267.612,-496.615 324,-523 393.17,-555.366 485.084,-520.487 529.99,-499.104"/>
<polygon fill="midnightblue" stroke="midnightblue" points="531.647,-502.189 539.088,-494.647 528.568,-495.903 531.647,-502.189"/>
</g>
<!-- Node5 -->
<g id="node5" class="node"><title>Node5</title>
<g id="a_node5"><a xlink:href="../../d2/dc9/group__CIP__API.html#ga5ec1d2c432792c39f93c170943964302" target="_top" xlink:title="Allocates Attribute bitmasks. ">
<polygon fill="none" stroke="black" points="331,-418.5 331,-437.5 449,-437.5 449,-418.5 331,-418.5"/>
<text text-anchor="middle" x="390" y="-425.5" font-family="Helvetica,sans-Serif" font-size="10.00">AllocateAttributeMasks</text>
</a>
</g>
</g>
<!-- Node2&#45;&gt;Node5 -->
<g id="edge4" class="edge"><title>Node2&#45;&gt;Node5</title>
<path fill="none" stroke="midnightblue" d="M255.156,-399.102C279.037,-404.258 309.167,-410.763 334.791,-416.296"/>
<polygon fill="midnightblue" stroke="midnightblue" points="334.218,-419.753 344.732,-418.442 335.695,-412.91 334.218,-419.753"/>
</g>
<!-- Node2&#45;&gt;Node7 -->
<g id="edge8" class="edge"><title>Node2&#45;&gt;Node7</title>
<path fill="none" stroke="midnightblue" d="M255.156,-380.898C280.676,-375.388 313.332,-368.337 339.998,-362.58"/>
<polygon fill="midnightblue" stroke="midnightblue" points="340.862,-365.974 349.898,-360.442 339.385,-359.132 340.862,-365.974"/>
</g>
<!-- Node9 -->
<g id="node9" class="node"><title>Node9</title>
<g id="a_node9"><a xlink:href="../../d2/d3d/cipcommon_8c.html#a4d2d00f2e1252b192ef73aa388898e7d" target="_top" xlink:title="Generic implementation of the GetAttributeSingle CIP service. ">
<polygon fill="none" stroke="black" points="342,-190.5 342,-209.5 438,-209.5 438,-190.5 342,-190.5"/>
<text text-anchor="middle" x="390" y="-197.5" font-family="Helvetica,sans-Serif" font-size="10.00">GetAttributeSingle</text>
</a>
</g>
</g>
<!-- Node2&#45;&gt;Node9 -->
<g id="edge11" class="edge"><title>Node2&#45;&gt;Node9</title>
<path fill="none" stroke="midnightblue" d="M220.323,-380.212C237.43,-357.581 281.78,-300.265 324,-257 338.274,-242.373 355.754,-227.179 368.99,-216.16"/>
<polygon fill="midnightblue" stroke="midnightblue" points="371.502,-218.626 377,-209.57 367.054,-213.221 371.502,-218.626"/>
</g>
<!-- Node17 -->
<g id="node17" class="node"><title>Node17</title>
<g id="a_node17"><a xlink:href="../../d2/dc9/group__CIP__API.html#ga98bd609c80ece316406363575b4a89ea" target="_top" xlink:title="Get a pointer to a CIP object with given class code. ">
<polygon fill="none" stroke="black" points="353.5,-380.5 353.5,-399.5 426.5,-399.5 426.5,-380.5 353.5,-380.5"/>
<text text-anchor="middle" x="390" y="-387.5" font-family="Helvetica,sans-Serif" font-size="10.00">GetCipClass</text>
</a>
</g>
</g>
<!-- Node2&#45;&gt;Node17 -->
<g id="edge22" class="edge"><title>Node2&#45;&gt;Node17</title>
<path fill="none" stroke="midnightblue" d="M255.156,-390C281.758,-390 316.114,-390 343.357,-390"/>
<polygon fill="midnightblue" stroke="midnightblue" points="343.419,-393.5 353.419,-390 343.419,-386.5 343.419,-393.5"/>
</g>
<!-- Node2&#45;&gt;Node19 -->
<g id="edge24" class="edge"><title>Node2&#45;&gt;Node19</title>
<path fill="none" stroke="midnightblue" d="M221.494,-380.399C238.866,-361.341 280.502,-318.545 324,-295 329.299,-292.132 335.081,-289.65 340.941,-287.516"/>
<polygon fill="midnightblue" stroke="midnightblue" points="342.415,-290.715 350.804,-284.245 340.211,-284.071 342.415,-290.715"/>
</g>
<!-- Node2&#45;&gt;Node20 -->
<g id="edge26" class="edge"><title>Node2&#45;&gt;Node20</title>
<path fill="none" stroke="midnightblue" d="M229.093,-380.499C250.29,-368.276 288.987,-346.96 324,-333 330.02,-330.6 336.462,-328.352 342.864,-326.303"/>
<polygon fill="midnightblue" stroke="midnightblue" points="344.289,-329.527 352.826,-323.252 342.239,-322.834 344.289,-329.527"/>
</g>
<!-- Node21 -->
<g id="node21" class="node"><title>Node21</title>
<g id="a_node21"><a xlink:href="../../d9/d7d/cipmessagerouter_8c.html#ae00f521e394d00fd5fd99271a6983116" target="_top" xlink:title="Register a CIP Class to the message router. ">
<polygon fill="none" stroke="black" points="343,-456.5 343,-475.5 437,-475.5 437,-456.5 343,-456.5"/>
<text text-anchor="middle" x="390" y="-463.5" font-family="Helvetica,sans-Serif" font-size="10.00">RegisterCipClass</text>
</a>
</g>
</g>
<!-- Node2&#45;&gt;Node21 -->
<g id="edge27" class="edge"><title>Node2&#45;&gt;Node21</title>
<path fill="none" stroke="midnightblue" d="M229.093,-399.501C250.29,-411.724 288.987,-433.04 324,-447 329.805,-449.315 336.002,-451.487 342.178,-453.477"/>
<polygon fill="midnightblue" stroke="midnightblue" points="341.218,-456.843 351.805,-456.447 343.282,-450.155 341.218,-456.843"/>
</g>
<!-- Node3&#45;&gt;Node4 -->
<g id="edge3" class="edge"><title>Node3&#45;&gt;Node4</title>
<path fill="none" stroke="midnightblue" d="M436.36,-498.808C462.063,-495.866 493.875,-492.225 518.378,-489.421"/>
<polygon fill="midnightblue" stroke="midnightblue" points="518.856,-492.889 528.393,-488.274 518.06,-485.934 518.856,-492.889"/>
</g>
<!-- Node5&#45;&gt;Node4 -->
<g id="edge6" class="edge"><title>Node5&#45;&gt;Node4</title>
<path fill="none" stroke="midnightblue" d="M425.559,-437.576C435.438,-440.456 446.186,-443.725 456,-447 478.804,-454.611 504.123,-464.139 523.707,-471.751"/>
<polygon fill="midnightblue" stroke="midnightblue" points="522.514,-475.042 533.102,-475.426 525.064,-468.523 522.514,-475.042"/>
</g>
<!-- Node6 -->
<g id="node6" class="node"><title>Node6</title>
<g id="a_node6"><a xlink:href="../../d2/dc9/group__CIP__API.html#ga1eb3004bbf086b276500e1d6e7a2f677" target="_top" xlink:title="Calculates Byte&#45;Index of Attribute. ">
<polygon fill="none" stroke="black" points="517,-266.5 517,-285.5 599,-285.5 599,-266.5 517,-266.5"/>
<text text-anchor="middle" x="558" y="-273.5" font-family="Helvetica,sans-Serif" font-size="10.00">CalculateIndex</text>
</a>
</g>
</g>
<!-- Node5&#45;&gt;Node6 -->
<g id="edge5" class="edge"><title>Node5&#45;&gt;Node6</title>
<path fill="none" stroke="midnightblue" d="M440.514,-418.449C446.115,-415.987 451.439,-412.892 456,-409 484.432,-384.739 469.481,-362.83 492,-333 504.017,-317.081 521.074,-302.329 534.699,-291.823"/>
<polygon fill="midnightblue" stroke="midnightblue" points="537.158,-294.354 543.07,-285.562 532.966,-288.749 537.158,-294.354"/>
</g>
<!-- Node7&#45;&gt;Node6 -->
<g id="edge9" class="edge"><title>Node7&#45;&gt;Node6</title>
<path fill="none" stroke="midnightblue" d="M428.977,-342.487C437.976,-339.8 447.442,-336.609 456,-333 483.867,-321.248 513.805,-303.663 533.789,-291.136"/>
<polygon fill="midnightblue" stroke="midnightblue" points="535.924,-293.926 542.487,-285.608 532.17,-288.018 535.924,-293.926"/>
</g>
<!-- Node8 -->
<g id="node8" class="node"><title>Node8</title>
<g id="a_node8"><a xlink:href="../../d2/d3d/cipcommon_8c.html#a1150da559a1729bf2a1ccf1634f17ad2" target="_top" xlink:title="GetCipService">
<polygon fill="none" stroke="black" points="518,-342.5 518,-361.5 598,-361.5 598,-342.5 518,-342.5"/>
<text text-anchor="middle" x="558" y="-349.5" font-family="Helvetica,sans-Serif" font-size="10.00">GetCipService</text>
</a>
</g>
</g>
<!-- Node7&#45;&gt;Node8 -->
<g id="edge10" class="edge"><title>Node7&#45;&gt;Node8</title>
<path fill="none" stroke="midnightblue" d="M430.34,-352C453.494,-352 482.985,-352 507.683,-352"/>
<polygon fill="midnightblue" stroke="midnightblue" points="507.943,-355.5 517.943,-352 507.943,-348.5 507.943,-355.5"/>
</g>
<!-- Node9&#45;&gt;Node6 -->
<g id="edge13" class="edge"><title>Node9&#45;&gt;Node6</title>
<path fill="none" stroke="midnightblue" d="M419.132,-209.542C430.682,-213.678 444.109,-218.767 456,-224 482.024,-235.453 510.769,-250.498 530.916,-261.457"/>
<polygon fill="midnightblue" stroke="midnightblue" points="529.345,-264.587 539.797,-266.326 532.711,-258.449 529.345,-264.587"/>
</g>
<!-- Node10 -->
<g id="node10" class="node"><title>Node10</title>
<g id="a_node10"><a xlink:href="../../d5/dc5/group__CIP__CALLBACK__API.html#ga098272a8ae10facf3086c5c82a0080db" target="_top" xlink:title="Inform the application that the data of an assembly object will be sent. ">
<polygon fill="none" stroke="black" points="492,-190.5 492,-209.5 624,-209.5 624,-190.5 492,-190.5"/>
<text text-anchor="middle" x="558" y="-197.5" font-family="Helvetica,sans-Serif" font-size="10.00">BeforeAssemblyDataSend</text>
</a>
</g>
</g>
<!-- Node9&#45;&gt;Node10 -->
<g id="edge12" class="edge"><title>Node9&#45;&gt;Node10</title>
<path fill="none" stroke="midnightblue" d="M438.125,-200C451.676,-200 466.807,-200 481.613,-200"/>
<polygon fill="midnightblue" stroke="midnightblue" points="481.787,-203.5 491.787,-200 481.787,-196.5 481.787,-203.5"/>
</g>
<!-- Node11 -->
<g id="node11" class="node"><title>Node11</title>
<g id="a_node11"><a xlink:href="../../d2/dc9/group__CIP__API.html#gaece1b7dd2aeec306cb33b86b2ee21980" target="_top" xlink:title="Produce the data according to CIP encoding onto the message buffer. ">
<polygon fill="none" stroke="black" points="522.5,-76.5 522.5,-95.5 593.5,-95.5 593.5,-76.5 522.5,-76.5"/>
<text text-anchor="middle" x="558" y="-83.5" font-family="Helvetica,sans-Serif" font-size="10.00">EncodeData</text>
</a>
</g>
</g>
<!-- Node9&#45;&gt;Node11 -->
<g id="edge14" class="edge"><title>Node9&#45;&gt;Node11</title>
<path fill="none" stroke="midnightblue" d="M404.868,-190.477C433.48,-170.827 499.298,-125.627 534.241,-101.63"/>
<polygon fill="midnightblue" stroke="midnightblue" points="536.558,-104.284 542.82,-95.738 532.595,-98.514 536.558,-104.284"/>
</g>
<!-- Node16 -->
<g id="node16" class="node"><title>Node16</title>
<g id="a_node16"><a xlink:href="../../d2/dc9/group__CIP__API.html#ga5a14c8d76acacb09312b709bb0a76265" target="_top" xlink:title="Get a pointer to an instance&#39;s attribute. ">
<polygon fill="none" stroke="black" points="516,-152.5 516,-171.5 600,-171.5 600,-152.5 516,-152.5"/>
<text text-anchor="middle" x="558" y="-159.5" font-family="Helvetica,sans-Serif" font-size="10.00">GetCipAttribute</text>
</a>
</g>
</g>
<!-- Node9&#45;&gt;Node16 -->
<g id="edge21" class="edge"><title>Node9&#45;&gt;Node16</title>
<path fill="none" stroke="midnightblue" d="M432.889,-190.411C455.16,-185.313 482.714,-179.005 506.198,-173.629"/>
<polygon fill="midnightblue" stroke="midnightblue" points="507.019,-177.032 515.986,-171.389 505.457,-170.208 507.019,-177.032"/>
</g>
<!-- Node11&#45;&gt;Node11 -->
<g id="edge20" class="edge"><title>Node11&#45;&gt;Node11</title>
<path fill="none" stroke="midnightblue" d="M534.264,-95.7571C522.717,-104.565 530.629,-114 558,-114 575.962,-114 585.544,-109.937 586.746,-104.654"/>
<polygon fill="midnightblue" stroke="midnightblue" points="589.692,-102.753 581.736,-95.7571 583.593,-106.188 589.692,-102.753"/>
</g>
<!-- Node12 -->
<g id="node12" class="node"><title>Node12</title>
<g id="a_node12"><a xlink:href="../../d4/d91/group__ENCAP.html#gae267a8684cc6ee1b3bd83df03260b7aa" target="_top" xlink:title="converts UINT8 data from host to little endian an writes it to buffer. ">
<polygon fill="none" stroke="black" points="661,-133.5 661,-152.5 763,-152.5 763,-133.5 661,-133.5"/>
<text text-anchor="middle" x="712" y="-140.5" font-family="Helvetica,sans-Serif" font-size="10.00">AddSintToMessage</text>
</a>
</g>
</g>
<!-- Node11&#45;&gt;Node12 -->
<g id="edge15" class="edge"><title>Node11&#45;&gt;Node12</title>
<path fill="none" stroke="midnightblue" d="M584.441,-95.5405C609.54,-104.953 648.104,-119.414 676.066,-129.9"/>
<polygon fill="midnightblue" stroke="midnightblue" points="674.883,-133.194 685.476,-133.428 677.341,-126.64 674.883,-133.194"/>
</g>
<!-- Node13 -->
<g id="node13" class="node"><title>Node13</title>
<g id="a_node13"><a xlink:href="../../d4/d91/group__ENCAP.html#gae689aac2a85bf49fb356ec94c8800799" target="_top" xlink:title="converts UINT16 data from host to little endian an writes it to buffer. ">
<polygon fill="none" stroke="black" points="800,-76.5 800,-95.5 896,-95.5 896,-76.5 800,-76.5"/>
<text text-anchor="middle" x="848" y="-83.5" font-family="Helvetica,sans-Serif" font-size="10.00">AddIntToMessage</text>
</a>
</g>
</g>
<!-- Node11&#45;&gt;Node13 -->
<g id="edge16" class="edge"><title>Node11&#45;&gt;Node13</title>
<path fill="none" stroke="midnightblue" d="M593.74,-86C642.36,-86 731.295,-86 789.778,-86"/>
<polygon fill="midnightblue" stroke="midnightblue" points="789.967,-89.5001 799.967,-86 789.967,-82.5001 789.967,-89.5001"/>
</g>
<!-- Node14 -->
<g id="node14" class="node"><title>Node14</title>
<g id="a_node14"><a xlink:href="../../d4/d91/group__ENCAP.html#gaafc3c9e3ff582c9b7e438ae2b1fdf822" target="_top" xlink:title="Converts UINT32 data from host to little endian and writes it to buffer. ">
<polygon fill="none" stroke="black" points="660.5,-19.5 660.5,-38.5 763.5,-38.5 763.5,-19.5 660.5,-19.5"/>
<text text-anchor="middle" x="712" y="-26.5" font-family="Helvetica,sans-Serif" font-size="10.00">AddDintToMessage</text>
</a>
</g>
</g>
<!-- Node11&#45;&gt;Node14 -->
<g id="edge17" class="edge"><title>Node11&#45;&gt;Node14</title>
<path fill="none" stroke="midnightblue" d="M584.311,-76.4511C604.734,-68.7525 634.208,-57.6562 660,-48 665.143,-46.0744 670.58,-44.0437 675.912,-42.0549"/>
<polygon fill="midnightblue" stroke="midnightblue" points="677.163,-45.3242 685.311,-38.5521 674.718,-38.7649 677.163,-45.3242"/>
</g>
<!-- Node15 -->
<g id="node15" class="node"><title>Node15</title>
<g id="a_node15"><a xlink:href="../../d2/d3d/cipcommon_8c.html#a6eec1752e2cffbbab16bff95fa145bd3" target="_top" xlink:title="EncodeEPath">
<polygon fill="none" stroke="black" points="673.5,-57.5 673.5,-76.5 750.5,-76.5 750.5,-57.5 673.5,-57.5"/>
<text text-anchor="middle" x="712" y="-64.5" font-family="Helvetica,sans-Serif" font-size="10.00">EncodeEPath</text>
</a>
</g>
</g>
<!-- Node11&#45;&gt;Node15 -->
<g id="edge18" class="edge"><title>Node11&#45;&gt;Node15</title>
<path fill="none" stroke="midnightblue" d="M593.872,-81.641C614.47,-79.0663 640.835,-75.7706 663.334,-72.9582"/>
<polygon fill="midnightblue" stroke="midnightblue" points="663.877,-76.4178 673.365,-71.7044 663.008,-69.4718 663.877,-76.4178"/>
</g>
<!-- Node15&#45;&gt;Node13 -->
<g id="edge19" class="edge"><title>Node15&#45;&gt;Node13</title>
<path fill="none" stroke="midnightblue" d="M750.683,-72.3431C762.774,-74.0574 776.451,-75.9967 789.621,-77.8642"/>
<polygon fill="midnightblue" stroke="midnightblue" points="789.167,-81.3347 799.559,-79.2733 790.15,-74.404 789.167,-81.3347"/>
</g>
<!-- Node18 -->
<g id="node18" class="node"><title>Node18</title>
<g id="a_node18"><a xlink:href="../../d9/d7d/cipmessagerouter_8c.html#a7a9f44f2d6f010b6f6ee922d378d9bb1" target="_top" xlink:title="Get the registered MessageRouter object corresponding to ClassID. given a class ID, return a pointer to the registration node for that object. ">
<polygon fill="none" stroke="black" points="504,-380.5 504,-399.5 612,-399.5 612,-380.5 504,-380.5"/>
<text text-anchor="middle" x="558" y="-387.5" font-family="Helvetica,sans-Serif" font-size="10.00">GetRegisteredObject</text>
</a>
</g>
</g>
<!-- Node17&#45;&gt;Node18 -->
<g id="edge23" class="edge"><title>Node17&#45;&gt;Node18</title>
<path fill="none" stroke="midnightblue" d="M426.611,-390C446.108,-390 470.851,-390 493.532,-390"/>
<polygon fill="midnightblue" stroke="midnightblue" points="493.781,-393.5 503.781,-390 493.781,-386.5 493.781,-393.5"/>
</g>
<!-- Node19&#45;&gt;Node6 -->
<g id="edge25" class="edge"><title>Node19&#45;&gt;Node6</title>
<path fill="none" stroke="midnightblue" d="M429.084,-276C452.135,-276 481.801,-276 506.76,-276"/>
<polygon fill="midnightblue" stroke="midnightblue" points="506.778,-279.5 516.778,-276 506.778,-272.5 506.778,-279.5"/>
</g>
<!-- Node21&#45;&gt;Node4 -->
<g id="edge28" class="edge"><title>Node21&#45;&gt;Node4</title>
<path fill="none" stroke="midnightblue" d="M437.24,-471.293C462.645,-474.2 493.807,-477.767 517.975,-480.533"/>
<polygon fill="midnightblue" stroke="midnightblue" points="517.87,-484.044 528.204,-481.704 518.666,-477.089 517.87,-484.044"/>
</g>
<!-- Node22&#45;&gt;Node6 -->
<g id="edge32" class="edge"><title>Node22&#45;&gt;Node6</title>
<path fill="none" stroke="midnightblue" d="M228.638,-171.527C249.653,-183.976 288.482,-205.746 324,-219 385.248,-241.856 458.994,-258.114 506.88,-267.272"/>
<polygon fill="midnightblue" stroke="midnightblue" points="506.513,-270.764 516.988,-269.173 507.807,-263.885 506.513,-270.764"/>
</g>
<!-- Node22&#45;&gt;Node9 -->
<g id="edge41" class="edge"><title>Node22&#45;&gt;Node9</title>
<path fill="none" stroke="midnightblue" d="M257.412,-171.589C280.951,-176.671 310.057,-182.955 334.905,-188.32"/>
<polygon fill="midnightblue" stroke="midnightblue" points="334.394,-191.791 344.907,-190.48 335.871,-184.948 334.394,-191.791"/>
</g>
<!-- Node22&#45;&gt;Node16 -->
<g id="edge31" class="edge"><title>Node22&#45;&gt;Node16</title>
<path fill="none" stroke="midnightblue" d="M287.643,-162C353.496,-162 447.739,-162 505.515,-162"/>
<polygon fill="midnightblue" stroke="midnightblue" points="505.863,-165.5 515.863,-162 505.863,-158.5 505.863,-165.5"/>
</g>
<!-- Node23 -->
<g id="node23" class="node"><title>Node23</title>
<g id="a_node23"><a xlink:href="../../d7/d65/cipethernetlink_8c.html#a841bea27e0f777e8b8beaa35fbaa80c7" target="_top" xlink:title="EncodeInterfaceCounters">
<polygon fill="none" stroke="black" points="326,-38.5 326,-57.5 454,-57.5 454,-38.5 326,-38.5"/>
<text text-anchor="middle" x="390" y="-45.5" font-family="Helvetica,sans-Serif" font-size="10.00">EncodeInterfaceCounters</text>
</a>
</g>
</g>
<!-- Node22&#45;&gt;Node23 -->
<g id="edge33" class="edge"><title>Node22&#45;&gt;Node23</title>
<path fill="none" stroke="midnightblue" d="M272.348,-152.38C277.987,-149.916 283.332,-146.839 288,-143 316.867,-119.259 295.568,-91.2606 324,-67 325.996,-65.2972 328.137,-63.7469 330.384,-62.3355"/>
<polygon fill="midnightblue" stroke="midnightblue" points="332.263,-65.3019 339.486,-57.5509 329.006,-59.1058 332.263,-65.3019"/>
</g>
<!-- Node24 -->
<g id="node24" class="node"><title>Node24</title>
<g id="a_node24"><a xlink:href="../../d7/d65/cipethernetlink_8c.html#ad7df5a954d504d818bf33ef2f2ae909d" target="_top" xlink:title="EncodeMediaCounters">
<polygon fill="none" stroke="black" points="332,-0.5 332,-19.5 448,-19.5 448,-0.5 332,-0.5"/>
<text text-anchor="middle" x="390" y="-7.5" font-family="Helvetica,sans-Serif" font-size="10.00">EncodeMediaCounters</text>
</a>
</g>
</g>
<!-- Node22&#45;&gt;Node24 -->
<g id="edge35" class="edge"><title>Node22&#45;&gt;Node24</title>
<path fill="none" stroke="midnightblue" d="M274.005,-152.484C279.122,-149.985 283.897,-146.872 288,-143 326.64,-106.53 286.028,-66.1647 324,-29 325.481,-27.5506 327.066,-26.2107 328.734,-24.9721"/>
<polygon fill="midnightblue" stroke="midnightblue" points="330.909,-27.7473 337.665,-19.5854 327.294,-21.7533 330.909,-27.7473"/>
</g>
<!-- Node25 -->
<g id="node25" class="node"><title>Node25</title>
<g id="a_node25"><a xlink:href="../../d7/d65/cipethernetlink_8c.html#afd1fc559145db95d7dfd4992ff38edd5" target="_top" xlink:title="EncodeInterfaceControl">
<polygon fill="none" stroke="black" points="330.5,-114.5 330.5,-133.5 449.5,-133.5 449.5,-114.5 330.5,-114.5"/>
<text text-anchor="middle" x="390" y="-121.5" font-family="Helvetica,sans-Serif" font-size="10.00">EncodeInterfaceControl</text>
</a>
</g>
</g>
<!-- Node22&#45;&gt;Node25 -->
<g id="edge37" class="edge"><title>Node22&#45;&gt;Node25</title>
<path fill="none" stroke="midnightblue" d="M257.412,-152.411C280.951,-147.329 310.057,-141.045 334.905,-135.68"/>
<polygon fill="midnightblue" stroke="midnightblue" points="335.871,-139.052 344.907,-133.52 334.394,-132.209 335.871,-139.052"/>
</g>
<!-- Node26 -->
<g id="node26" class="node"><title>Node26</title>
<g id="a_node26"><a xlink:href="../../d7/d65/cipethernetlink_8c.html#a5b19ab196dbce19ecc33cc387cfdcdd4" target="_top" xlink:title="EncodeInterfaceCapability">
<polygon fill="none" stroke="black" points="324.5,-76.5 324.5,-95.5 455.5,-95.5 455.5,-76.5 324.5,-76.5"/>
<text text-anchor="middle" x="390" y="-83.5" font-family="Helvetica,sans-Serif" font-size="10.00">EncodeInterfaceCapability</text>
</a>
</g>
</g>
<!-- Node22&#45;&gt;Node26 -->
<g id="edge39" class="edge"><title>Node22&#45;&gt;Node26</title>
<path fill="none" stroke="midnightblue" d="M266.528,-152.426C274.013,-149.962 281.395,-146.872 288,-143 308.07,-131.234 304.147,-117.128 324,-105 327.555,-102.828 331.372,-100.893 335.309,-99.1716"/>
<polygon fill="midnightblue" stroke="midnightblue" points="336.604,-102.424 344.65,-95.5302 334.061,-95.9016 336.604,-102.424"/>
</g>
<!-- Node23&#45;&gt;Node11 -->
<g id="edge34" class="edge"><title>Node23&#45;&gt;Node11</title>
<path fill="none" stroke="midnightblue" d="M432.889,-57.589C457.201,-63.1544 487.809,-70.161 512.545,-75.8235"/>
<polygon fill="midnightblue" stroke="midnightblue" points="511.874,-79.2604 522.403,-78.0802 513.436,-72.4369 511.874,-79.2604"/>
</g>
<!-- Node24&#45;&gt;Node11 -->
<g id="edge36" class="edge"><title>Node24&#45;&gt;Node11</title>
<path fill="none" stroke="midnightblue" d="M428.977,-19.5126C437.976,-22.1999 447.442,-25.3909 456,-29 483.867,-40.7523 513.805,-58.3375 533.789,-70.8643"/>
<polygon fill="midnightblue" stroke="midnightblue" points="532.17,-73.9823 542.487,-76.3921 535.924,-68.0744 532.17,-73.9823"/>
</g>
<!-- Node25&#45;&gt;Node11 -->
<g id="edge38" class="edge"><title>Node25&#45;&gt;Node11</title>
<path fill="none" stroke="midnightblue" d="M432.889,-114.411C457.201,-108.846 487.809,-101.839 512.545,-96.1765"/>
<polygon fill="midnightblue" stroke="midnightblue" points="513.436,-99.5631 522.403,-93.9198 511.874,-92.7396 513.436,-99.5631"/>
</g>
<!-- Node26&#45;&gt;Node11 -->
<g id="edge40" class="edge"><title>Node26&#45;&gt;Node11</title>
<path fill="none" stroke="midnightblue" d="M455.655,-86C474.502,-86 494.678,-86 512.026,-86"/>
<polygon fill="midnightblue" stroke="midnightblue" points="512.425,-89.5001 522.425,-86 512.425,-82.5001 512.425,-89.5001"/>
</g>
</g>
</svg>
        <g id="navigator" transform="translate(0 0)" fill="#404254">
                <rect fill="#f2f5e9" fill-opacity="0.5" stroke="#606060" stroke-width=".5" x="0" y="0" width="60" height="60"/>
                <use id="zoomplus" xlink:href="#zoomPlus" x="17" y="9" onmousedown="handleZoom(evt,'in')"/>
                <use id="zoomminus" xlink:href="#zoomMin" x="42" y="9" onmousedown="handleZoom(evt,'out')"/>
                <use id="reset" xlink:href="#resetDef" x="30" y="36" onmousedown="handleReset()"/>
                <g id="arrowUp" xlink:href="#dirArrow" transform="translate(30 24)" onmousedown="handlePan(0,-1)">
                  <use xlink:href="#rim" fill="#404040">
                        <set attributeName="fill" to="#808080" begin="arrowUp.mouseover" end="arrowUp.mouseout"/>
                  </use>
                  <path fill="none" stroke="white" stroke-width="1.5" d="M0,-3.0v7 M-2.5,-0.5L0,-3.0L2.5,-0.5"/>
                </g>
                <g id="arrowRight" xlink:href="#dirArrow" transform="rotate(90) translate(36 -43)" onmousedown="handlePan(1,0)">
                  <use xlink:href="#rim" fill="#404040">
                        <set attributeName="fill" to="#808080" begin="arrowRight.mouseover" end="arrowRight.mouseout"/>
                  </use>
                  <path fill="none" stroke="white" stroke-width="1.5" d="M0,-3.0v7 M-2.5,-0.5L0,-3.0L2.5,-0.5"/>
                </g>
                <g id="arrowDown" xlink:href="#dirArrow" transform="rotate(180) translate(-30 -48)" onmousedown="handlePan(0,1)">
                  <use xlink:href="#rim" fill="#404040">
                        <set attributeName="fill" to="#808080" begin="arrowDown.mouseover" end="arrowDown.mouseout"/>
                  </use>
                  <path fill="none" stroke="white" stroke-width="1.5" d="M0,-3.0v7 M-2.5,-0.5L0,-3.0L2.5,-0.5"/>
                </g>
                <g id="arrowLeft" xlink:href="#dirArrow" transform="rotate(270) translate(-36 17)" onmousedown="handlePan(-1,0)">
                  <use xlink:href="#rim" fill="#404040">
                        <set attributeName="fill" to="#808080" begin="arrowLeft.mouseover" end="arrowLeft.mouseout"/>
                  </use>
                  <path fill="none" stroke="white" stroke-width="1.5" d="M0,-3.0v7 M-2.5,-0.5L0,-3.0L2.5,-0.5"/>
                </g>
        </g>
        <svg viewBox="0 0 15 15" width="100%" height="30px" preserveAspectRatio="xMaxYMin meet">
         <g id="arrow_out" transform="scale(0.3 0.3)">
          <a xlink:href="cipethernetlink_8c_ab1c2d006a08c187c70ab66bb0a777bd0_cgraph_org.svg" target="_base">
           <rect id="button" ry="5" rx="5" y="6" x="6" height="38" width="38"
                fill="#f2f5e9" fill-opacity="0.5" stroke="#606060" stroke-width="1.0"/>
           <path id="arrow"
             d="M 11.500037,31.436501 C 11.940474,20.09759 22.043105,11.32322 32.158766,21.979434 L 37.068811,17.246167 C 37.068811,17.246167 37.088388,32 37.088388,32 L 22.160133,31.978069 C 22.160133,31.978069 26.997745,27.140456 26.997745,27.140456 C 18.528582,18.264221 13.291696,25.230495 11.500037,31.436501 z"
             style="fill:#404040;"/>
          </a>
         </g>
        </svg>
</svg>
