<?xml version="1.0" encoding="UTF-8" standalone="no"?>
<!DOCTYPE svg PUBLIC "-//W3C//DTD SVG 1.1//EN"
 "http://www.w3.org/Graphics/SVG/1.1/DTD/svg11.dtd">
<!-- Generated by graphviz version 2.26.3 (20100126.1600)
 -->
<!-- Title: G Pages: 1 -->
<!--zoomable 267 -->
<svg id="main" version="1.1" xmlns="http://www.w3.org/2000/svg" xmlns:xlink="http://www.w3.org/1999/xlink" xml:space="preserve" onload="init(evt)">
        <defs>
                <circle id="rim" cx="0" cy="0" r="7"/>
                <circle id="rim2" cx="0" cy="0" r="3.5"/>
                <g id="zoomPlus">
                        <use xlink:href="#rim" fill="#404040">
                                <set attributeName="fill" to="#808080" begin="zoomplus.mouseover" end="zoomplus.mouseout"/>
                        </use>
                        <path d="M-4,0h8M0,-4v8" fill="none" stroke="white" stroke-width="1.5" pointer-events="none"/>
                </g>
                <g id="zoomMin">
                        <use xlink:href="#rim" fill="#404040">
                                <set attributeName="fill" to="#808080" begin="zoomminus.mouseover" end="zoomminus.mouseout"/>
                        </use>
                        <path d="M-4,0h8" fill="none" stroke="white" stroke-width="1.5" pointer-events="none"/>
                </g>
                <g id="dirArrow">
                        <path fill="none" stroke="white" stroke-width="1.5" d="M0,-3.0v7 M-2.5,-0.5L0,-3.0L2.5,-0.5"/>
                </g>
               <g id="resetDef">
                       <use xlink:href="#rim2" fill="#404040">
                               <set attributeName="fill" to="#808080" begin="reset.mouseover" end="reset.mouseout"/>
                       </use>
               </g>
        </defs>

<script type="text/javascript">
var viewWidth = 1054;
var viewHeight = 267;
var sectionId = 'dynsection-4';
</script>
<script xlink:href="../../svgpan.js"/>
<svg id="graph" class="graph">
<g id="viewport">
<title>G</title>
<!-- Node1 -->
<g id="node1" class="node"><title>Node1</title>
<polygon fill="#bfbfbf" stroke="black" points="0.5,-78.5 0.5,-99.5 77.5,-99.5 77.5,-78.5 0.5,-78.5"/>
<text text-anchor="middle" x="39" y="-86.5" font-family="Helvetica,sans-Serif" font-size="10.00">EncodeEPath</text>
</g>
<!-- Node2 -->
<g id="node3" class="node"><title>Node2</title>
<a xlink:href="../../d2/dc9/group__CIP__API.html#gaece1b7dd2aeec306cb33b86b2ee21980" target="_top" xlink:title="Produce the data according to CIP encoding onto the message buffer.">
<polygon fill="none" stroke="black" points="114.5,-78.5 114.5,-99.5 185.5,-99.5 185.5,-78.5 114.5,-78.5"/>
<text text-anchor="middle" x="150" y="-86.5" font-family="Helvetica,sans-Serif" font-size="10.00">EncodeData</text>
</a>
</g>
<!-- Node1&#45;&gt;Node2 -->
<g id="edge2" class="edge"><title>Node1&#45;&gt;Node2</title>
<path fill="none" stroke="midnightblue" d="M87.7671,-89C96.6423,-89 105.751,-89 114.166,-89"/>
<polygon fill="midnightblue" stroke="midnightblue" points="87.5109,-85.5001 77.5109,-89 87.5109,-92.5001 87.5109,-85.5001"/>
</g>
<!-- Node2&#45;&gt;Node2 -->
<g id="edge42" class="edge"><title>Node2&#45;&gt;Node2</title>
<path fill="none" stroke="midnightblue" d="M129.728,-109.427C131.292,-114.349 138.049,-118 150,-118 169.121,-118 174.947,-108.653 167.478,-99.7079"/>
<polygon fill="midnightblue" stroke="midnightblue" points="133.123,-110.286 132.522,-99.7079 126.395,-108.352 133.123,-110.286"/>
</g>
<!-- Node3 -->
<g id="node5" class="node"><title>Node3</title>
<a xlink:href="../../db/d14/cipcommon_8h.html#a92cbf8f0a7c9d1e251d22c046f0526bb" target="_top" xlink:title="Generic implementation of the GetAttributeSingle CIP service.">
<polygon fill="none" stroke="black" points="222,-98.5 222,-119.5 318,-119.5 318,-98.5 222,-98.5"/>
<text text-anchor="middle" x="270" y="-106.5" font-family="Helvetica,sans-Serif" font-size="10.00">GetAttributeSingle</text>
</a>
</g>
<!-- Node2&#45;&gt;Node3 -->
<g id="edge4" class="edge"><title>Node2&#45;&gt;Node3</title>
<path fill="none" stroke="midnightblue" d="M195.804,-96.634C204.31,-98.0516 213.219,-99.5365 221.794,-100.966"/>
<polygon fill="midnightblue" stroke="midnightblue" points="196.118,-93.1382 185.679,-94.9465 194.968,-100.043 196.118,-93.1382"/>
</g>
<!-- Node16 -->
<g id="node36" class="node"><title>Node16</title>
<a xlink:href="../../dd/d20/ciptcpipinterface_8c.html#ade73a247ea20e836a3336caee50caf41" target="_top" xlink:title="GetAttributeSingleTcpIpInterface">
<polygon fill="none" stroke="black" points="354.5,-59.5 354.5,-80.5 513.5,-80.5 513.5,-59.5 354.5,-59.5"/>
<text text-anchor="middle" x="434" y="-67.5" font-family="Helvetica,sans-Serif" font-size="10.00">GetAttributeSingleTcpIpInterface</text>
</a>
</g>
<!-- Node2&#45;&gt;Node16 -->
<g id="edge44" class="edge"><title>Node2&#45;&gt;Node16</title>
<path fill="none" stroke="midnightblue" d="M195.786,-85.9368C238.529,-83.0773 303.229,-78.7488 354.418,-75.3241"/>
<polygon fill="midnightblue" stroke="midnightblue" points="195.425,-82.4531 185.681,-86.6129 195.893,-89.4375 195.425,-82.4531"/>
</g>
<!-- Node4 -->
<g id="node7" class="node"><title>Node4</title>
<a xlink:href="../../d2/dc9/group__CIP__API.html#ga446b7f612fe7baaf40d7f87274832922" target="_top" xlink:title="Allocate memory for new CIP Class and attributes.">
<polygon fill="none" stroke="black" points="391,-99.5 391,-120.5 477,-120.5 477,-99.5 391,-99.5"/>
<text text-anchor="middle" x="434" y="-107.5" font-family="Helvetica,sans-Serif" font-size="10.00">CreateCipClass</text>
</a>
</g>
<!-- Node3&#45;&gt;Node4 -->
<g id="edge6" class="edge"><title>Node3&#45;&gt;Node4</title>
<path fill="none" stroke="midnightblue" d="M328.513,-109.357C349.044,-109.482 371.72,-109.62 390.77,-109.736"/>
<polygon fill="midnightblue" stroke="midnightblue" points="328.34,-105.856 318.318,-109.295 328.297,-112.856 328.34,-105.856"/>
</g>
<!-- Node3&#45;&gt;Node16 -->
<g id="edge40" class="edge"><title>Node3&#45;&gt;Node16</title>
<path fill="none" stroke="midnightblue" d="M324.217,-96.107C345.42,-91.0648 369.434,-85.3542 389.584,-80.5624"/>
<polygon fill="midnightblue" stroke="midnightblue" points="323.3,-92.7274 314.381,-98.446 324.919,-99.5375 323.3,-92.7274"/>
</g>
<!-- Node5 -->
<g id="node9" class="node"><title>Node5</title>
<a xlink:href="../../df/d2e/cipassembly_8c.html#a5973ef42110a1bdf6c7699e35e04b7d4" target="_top" xlink:title="Constructor for the assembly object class.">
<polygon fill="none" stroke="black" points="550.5,-197.5 550.5,-218.5 665.5,-218.5 665.5,-197.5 550.5,-197.5"/>
<text text-anchor="middle" x="608" y="-205.5" font-family="Helvetica,sans-Serif" font-size="10.00">CreateAssemblyClass</text>
</a>
</g>
<!-- Node4&#45;&gt;Node5 -->
<g id="edge8" class="edge"><title>Node4&#45;&gt;Node5</title>
<path fill="none" stroke="midnightblue" d="M458.211,-126.357C481.296,-141.632 517.294,-164.62 550,-182 560.427,-187.541 572.27,-192.992 582.524,-197.46"/>
<polygon fill="midnightblue" stroke="midnightblue" points="460.001,-123.344 449.738,-120.713 456.12,-129.17 460.001,-123.344"/>
</g>
<!-- Node11 -->
<g id="node21" class="node"><title>Node11</title>
<a xlink:href="../../d2/da3/cipconnectionmanager_8h.html#a5ab0de6894d23e8fe84a6b46797c2212" target="_top" xlink:title="Initialize the data of the connection manager object.">
<polygon fill="none" stroke="black" points="702.5,-157.5 702.5,-178.5 819.5,-178.5 819.5,-157.5 702.5,-157.5"/>
<text text-anchor="middle" x="761" y="-165.5" font-family="Helvetica,sans-Serif" font-size="10.00">ConnectionManagerInit</text>
</a>
</g>
<!-- Node4&#45;&gt;Node11 -->
<g id="edge20" class="edge"><title>Node4&#45;&gt;Node11</title>
<path fill="none" stroke="midnightblue" d="M487.2,-120.912C506.902,-124.857 529.445,-129.258 550,-133 601.328,-142.343 659.871,-151.973 702.249,-158.761"/>
<polygon fill="midnightblue" stroke="midnightblue" points="487.675,-117.437 477.181,-118.896 486.295,-124.3 487.675,-117.437"/>
</g>
<!-- Node12 -->
<g id="node24" class="node"><title>Node12</title>
<a xlink:href="../../dd/d4d/cipethernetlink_8h.html#ad6d2028b90ec96ad148d092a30acb7d6" target="_top" xlink:title="Initialize the Ethernet Link Objects data.">
<polygon fill="none" stroke="black" points="711,-117.5 711,-138.5 811,-138.5 811,-117.5 711,-117.5"/>
<text text-anchor="middle" x="761" y="-125.5" font-family="Helvetica,sans-Serif" font-size="10.00">CipEthernetLinkInit</text>
</a>
</g>
<!-- Node4&#45;&gt;Node12 -->
<g id="edge24" class="edge"><title>Node4&#45;&gt;Node12</title>
<path fill="none" stroke="midnightblue" d="M487.413,-112.94C549.276,-116.345 650.407,-121.912 710.849,-125.239"/>
<polygon fill="midnightblue" stroke="midnightblue" points="487.263,-109.427 477.086,-112.372 486.878,-116.416 487.263,-109.427"/>
</g>
<!-- Node13 -->
<g id="node27" class="node"><title>Node13</title>
<a xlink:href="../../dc/d72/cipidentity_8h.html#a5d5136e167300543aa046057b56ae813" target="_top" xlink:title="CIP Identity object constructor.">
<polygon fill="none" stroke="black" points="569.5,-80.5 569.5,-101.5 646.5,-101.5 646.5,-80.5 569.5,-80.5"/>
<text text-anchor="middle" x="608" y="-88.5" font-family="Helvetica,sans-Serif" font-size="10.00">CipIdentityInit</text>
</a>
</g>
<!-- Node4&#45;&gt;Node13 -->
<g id="edge28" class="edge"><title>Node4&#45;&gt;Node13</title>
<path fill="none" stroke="midnightblue" d="M487.271,-104.183C513.762,-101.29 545.19,-97.8586 569.338,-95.2217"/>
<polygon fill="midnightblue" stroke="midnightblue" points="486.572,-100.738 477.011,-105.303 487.332,-107.697 486.572,-100.738"/>
</g>
<!-- Node14 -->
<g id="node30" class="node"><title>Node14</title>
<a xlink:href="../../d2/d75/cipmessagerouter_8h.html#aa3456b75c1b2289296323b578fee2d3d" target="_top" xlink:title="Initialize the data structures of the message router.">
<polygon fill="none" stroke="black" points="551,-40.5 551,-61.5 665,-61.5 665,-40.5 551,-40.5"/>
<text text-anchor="middle" x="608" y="-48.5" font-family="Helvetica,sans-Serif" font-size="10.00">CipMessageRouterInit</text>
</a>
</g>
<!-- Node4&#45;&gt;Node14 -->
<g id="edge32" class="edge"><title>Node4&#45;&gt;Node14</title>
<path fill="none" stroke="midnightblue" d="M487.105,-98.6356C496.195,-96.1498 505.457,-93.2675 514,-90 530.898,-83.5371 533.399,-78.1923 550,-71 557.819,-67.6125 566.415,-64.3891 574.539,-61.558"/>
<polygon fill="midnightblue" stroke="midnightblue" points="486.146,-95.2685 477.352,-101.177 487.911,-102.042 486.146,-95.2685"/>
</g>
<!-- Node15 -->
<g id="node33" class="node"><title>Node15</title>
<a xlink:href="../../d1/dad/ciptcpipinterface_8h.html#a4c1f49654e48c5581513d990840933b0" target="_top" xlink:title="Initializing the data structures of the TCP/IP interface object.">
<polygon fill="none" stroke="black" points="554,-0.5 554,-21.5 662,-21.5 662,-0.5 554,-0.5"/>
<text text-anchor="middle" x="608" y="-8.5" font-family="Helvetica,sans-Serif" font-size="10.00">CipTcpIpInterfaceInit</text>
</a>
</g>
<!-- Node4&#45;&gt;Node15 -->
<g id="edge36" class="edge"><title>Node4&#45;&gt;Node15</title>
<path fill="none" stroke="midnightblue" d="M487.258,-102.85C496.758,-99.9146 506.124,-95.7903 514,-90 538.749,-71.8045 526.066,-50.2555 550,-31 554.73,-27.1943 560.23,-24.0918 565.921,-21.568"/>
<polygon fill="midnightblue" stroke="midnightblue" points="486.12,-99.531 477.365,-105.498 487.93,-106.293 486.12,-99.531"/>
</g>
<!-- Node6 -->
<g id="node11" class="node"><title>Node6</title>
<a xlink:href="../../de/df4/cipassembly_8h.html#a4dfbc2c7a8e9e77f05a0a7236210f5b4" target="_top" xlink:title="Setup the Assembly object.">
<polygon fill="none" stroke="black" points="705.5,-197.5 705.5,-218.5 816.5,-218.5 816.5,-197.5 705.5,-197.5"/>
<text text-anchor="middle" x="761" y="-205.5" font-family="Helvetica,sans-Serif" font-size="10.00">CipAssemblyInitialize</text>
</a>
</g>
<!-- Node5&#45;&gt;Node6 -->
<g id="edge10" class="edge"><title>Node5&#45;&gt;Node6</title>
<path fill="none" stroke="midnightblue" d="M675.98,-208C685.801,-208 695.811,-208 705.353,-208"/>
<polygon fill="midnightblue" stroke="midnightblue" points="675.843,-204.5 665.843,-208 675.843,-211.5 675.843,-204.5"/>
</g>
<!-- Node9 -->
<g id="node17" class="node"><title>Node9</title>
<a xlink:href="../../d2/dc9/group__CIP__API.html#gae61b613fed863d30428e78b2311bf593" target="_top" xlink:title="Create an instance of an assembly object.">
<polygon fill="none" stroke="black" points="702,-237.5 702,-258.5 820,-258.5 820,-237.5 702,-237.5"/>
<text text-anchor="middle" x="761" y="-245.5" font-family="Helvetica,sans-Serif" font-size="10.00">CreateAssemblyObject</text>
</a>
</g>
<!-- Node5&#45;&gt;Node9 -->
<g id="edge16" class="edge"><title>Node5&#45;&gt;Node9</title>
<path fill="none" stroke="midnightblue" d="M657.94,-221.056C678.312,-226.382 701.555,-232.459 720.804,-237.491"/>
<polygon fill="midnightblue" stroke="midnightblue" points="658.759,-217.653 648.199,-218.51 656.988,-224.425 658.759,-217.653"/>
</g>
<!-- Node7 -->
<g id="node13" class="node"><title>Node7</title>
<a xlink:href="../../d2/dc9/group__CIP__API.html#ga5d4979945d124e28668b264c3823db1c" target="_top" xlink:title="Initialize and setup the CIP&#45;stack.">
<polygon fill="none" stroke="black" points="878.5,-97.5 878.5,-118.5 949.5,-118.5 949.5,-97.5 878.5,-97.5"/>
<text text-anchor="middle" x="914" y="-105.5" font-family="Helvetica,sans-Serif" font-size="10.00">CipStackInit</text>
</a>
</g>
<!-- Node6&#45;&gt;Node7 -->
<g id="edge12" class="edge"><title>Node6&#45;&gt;Node7</title>
<path fill="none" stroke="midnightblue" d="M808.458,-193.712C812.448,-191.974 816.349,-190.071 820,-188 854.484,-168.44 888.217,-135.372 904.277,-118.534"/>
<polygon fill="midnightblue" stroke="midnightblue" points="807.047,-190.507 799.061,-197.469 809.646,-197.006 807.047,-190.507"/>
</g>
<!-- Node8 -->
<g id="node15" class="node"><title>Node8</title>
<a xlink:href="../../d9/dfb/POSIX_2main_8c.html#ad338a7dbc41dc40bcecd0479377ef207" target="_top" xlink:title="main">
<polygon fill="none" stroke="black" points="1008,-97.5 1008,-118.5 1046,-118.5 1046,-97.5 1008,-97.5"/>
<text text-anchor="middle" x="1027" y="-105.5" font-family="Helvetica,sans-Serif" font-size="10.00">main</text>
</a>
</g>
<!-- Node7&#45;&gt;Node8 -->
<g id="edge14" class="edge"><title>Node7&#45;&gt;Node8</title>
<path fill="none" stroke="midnightblue" d="M959.965,-108C976.72,-108 994.756,-108 1007.9,-108"/>
<polygon fill="midnightblue" stroke="midnightblue" points="959.754,-104.5 949.754,-108 959.754,-111.5 959.754,-104.5"/>
</g>
<!-- Node10 -->
<g id="node19" class="node"><title>Node10</title>
<a xlink:href="../../d5/dc5/group__CIP__CALLBACK__API.html#gae93106eb1647bff3ad56a7752799d878" target="_top" xlink:title="Callback for the application initialization.">
<polygon fill="none" stroke="black" points="856,-237.5 856,-258.5 972,-258.5 972,-237.5 856,-237.5"/>
<text text-anchor="middle" x="914" y="-245.5" font-family="Helvetica,sans-Serif" font-size="10.00">ApplicationInitialization</text>
</a>
</g>
<!-- Node9&#45;&gt;Node10 -->
<g id="edge18" class="edge"><title>Node9&#45;&gt;Node10</title>
<path fill="none" stroke="midnightblue" d="M830.405,-248C838.879,-248 847.471,-248 855.759,-248"/>
<polygon fill="midnightblue" stroke="midnightblue" points="830.154,-244.5 820.154,-248 830.154,-251.5 830.154,-244.5"/>
</g>
<!-- Node11&#45;&gt;Node7 -->
<g id="edge22" class="edge"><title>Node11&#45;&gt;Node7</title>
<path fill="none" stroke="midnightblue" d="M803.1,-154.163C808.804,-152.162 814.562,-150.075 820,-148 844.358,-138.704 871.736,-126.895 890.635,-118.524"/>
<polygon fill="midnightblue" stroke="midnightblue" points="801.929,-150.864 793.617,-157.434 804.212,-157.482 801.929,-150.864"/>
</g>
<!-- Node12&#45;&gt;Node7 -->
<g id="edge26" class="edge"><title>Node12&#45;&gt;Node7</title>
<path fill="none" stroke="midnightblue" d="M821.069,-120.148C840.446,-117.615 861.3,-114.889 878.333,-112.662"/>
<polygon fill="midnightblue" stroke="midnightblue" points="820.56,-116.685 811.098,-121.451 821.467,-123.625 820.56,-116.685"/>
</g>
<!-- Node13&#45;&gt;Node7 -->
<g id="edge30" class="edge"><title>Node13&#45;&gt;Node7</title>
<path fill="none" stroke="midnightblue" d="M657.038,-93.7243C718.878,-97.1599 823.713,-102.984 878.402,-106.022"/>
<polygon fill="midnightblue" stroke="midnightblue" points="656.934,-90.2132 646.755,-93.1531 656.546,-97.2025 656.934,-90.2132"/>
</g>
<!-- Node14&#45;&gt;Node7 -->
<g id="edge34" class="edge"><title>Node14&#45;&gt;Node7</title>
<path fill="none" stroke="midnightblue" d="M674.663,-63.4175C737.292,-75.0838 828.615,-92.0949 878.396,-101.368"/>
<polygon fill="midnightblue" stroke="midnightblue" points="674.954,-59.9116 664.482,-61.5211 673.672,-66.7932 674.954,-59.9116"/>
</g>
<!-- Node15&#45;&gt;Node7 -->
<g id="edge38" class="edge"><title>Node15&#45;&gt;Node7</title>
<path fill="none" stroke="midnightblue" d="M668.382,-23.8448C711.241,-33.6421 769.835,-48.4231 820,-66 845.809,-75.0432 874.345,-88.279 893.129,-97.4659"/>
<polygon fill="midnightblue" stroke="midnightblue" points="668.916,-20.3772 658.39,-21.5857 667.372,-27.2049 668.916,-20.3772"/>
</g>
</g>
</svg>
        <g id="navigator" transform="translate(0 0)" fill="#404254">
                <rect fill="#f2f5e9" fill-opacity="0.5" stroke="#606060" stroke-width=".5" x="0" y="0" width="60" height="60"/>
                <use id="zoomplus" xlink:href="#zoomPlus" x="17" y="9" onmousedown="handleZoom(evt,'in')"/>
                <use id="zoomminus" xlink:href="#zoomMin" x="42" y="9" onmousedown="handleZoom(evt,'out')"/>
                <use id="reset" xlink:href="#resetDef" x="30" y="36" onmousedown="handleReset()"/>
                <g id="arrowUp" xlink:href="#dirArrow" transform="translate(30 24)" onmousedown="handlePan(0,-1)">
                  <use xlink:href="#rim" fill="#404040">
                        <set attributeName="fill" to="#808080" begin="arrowUp.mouseover" end="arrowUp.mouseout"/>
                  </use>
                  <path fill="none" stroke="white" stroke-width="1.5" d="M0,-3.0v7 M-2.5,-0.5L0,-3.0L2.5,-0.5"/>
                </g>
                <g id="arrowRight" xlink:href="#dirArrow" transform="rotate(90) translate(36 -43)" onmousedown="handlePan(1,0)">
                  <use xlink:href="#rim" fill="#404040">
                        <set attributeName="fill" to="#808080" begin="arrowRight.mouseover" end="arrowRight.mouseout"/>
                  </use>
                  <path fill="none" stroke="white" stroke-width="1.5" d="M0,-3.0v7 M-2.5,-0.5L0,-3.0L2.5,-0.5"/>
                </g>
                <g id="arrowDown" xlink:href="#dirArrow" transform="rotate(180) translate(-30 -48)" onmousedown="handlePan(0,1)">
                  <use xlink:href="#rim" fill="#404040">
                        <set attributeName="fill" to="#808080" begin="arrowDown.mouseover" end="arrowDown.mouseout"/>
                  </use>
                  <path fill="none" stroke="white" stroke-width="1.5" d="M0,-3.0v7 M-2.5,-0.5L0,-3.0L2.5,-0.5"/>
                </g>
                <g id="arrowLeft" xlink:href="#dirArrow" transform="rotate(270) translate(-36 17)" onmousedown="handlePan(-1,0)">
                  <use xlink:href="#rim" fill="#404040">
                        <set attributeName="fill" to="#808080" begin="arrowLeft.mouseover" end="arrowLeft.mouseout"/>
                  </use>
                  <path fill="none" stroke="white" stroke-width="1.5" d="M0,-3.0v7 M-2.5,-0.5L0,-3.0L2.5,-0.5"/>
                </g>
        </g>
</svg>
