<?xml version="1.0" encoding="UTF-8" standalone="no"?>
<!DOCTYPE svg PUBLIC "-//W3C//DTD SVG 1.1//EN"
 "http://www.w3.org/Graphics/SVG/1.1/DTD/svg11.dtd">
<!-- Generated by graphviz version 2.26.3 (20100126.1600)
 -->
<!-- Title: G Pages: 1 -->
<!--zoomable 265 -->
<svg id="main" version="1.1" xmlns="http://www.w3.org/2000/svg" xmlns:xlink="http://www.w3.org/1999/xlink" xml:space="preserve" onload="init(evt)">
        <defs>
                <circle id="rim" cx="0" cy="0" r="7"/>
                <circle id="rim2" cx="0" cy="0" r="3.5"/>
                <g id="zoomPlus">
                        <use xlink:href="#rim" fill="#404040">
                                <set attributeName="fill" to="#808080" begin="zoomplus.mouseover" end="zoomplus.mouseout"/>
                        </use>
                        <path d="M-4,0h8M0,-4v8" fill="none" stroke="white" stroke-width="1.5" pointer-events="none"/>
                </g>
                <g id="zoomMin">
                        <use xlink:href="#rim" fill="#404040">
                                <set attributeName="fill" to="#808080" begin="zoomminus.mouseover" end="zoomminus.mouseout"/>
                        </use>
                        <path d="M-4,0h8" fill="none" stroke="white" stroke-width="1.5" pointer-events="none"/>
                </g>
                <g id="dirArrow">
                        <path fill="none" stroke="white" stroke-width="1.5" d="M0,-3.0v7 M-2.5,-0.5L0,-3.0L2.5,-0.5"/>
                </g>
               <g id="resetDef">
                       <use xlink:href="#rim2" fill="#404040">
                               <set attributeName="fill" to="#808080" begin="reset.mouseover" end="reset.mouseout"/>
                       </use>
               </g>
        </defs>

<script type="text/javascript">
var viewWidth = 1046;
var viewHeight = 265;
var sectionId = 'dynsection-4';
</script>
<script xlink:href="../../svgpan.js"/>
<svg id="graph" class="graph">
<g id="viewport">
<title>G</title>
<!-- Node1 -->
<g id="node1" class="node"><title>Node1</title>
<polygon fill="#bfbfbf" stroke="black" points="0.5,-78.5 0.5,-99.5 77.5,-99.5 77.5,-78.5 0.5,-78.5"/>
<text text-anchor="middle" x="39" y="-86.5" font-family="Helvetica,sans-Serif" font-size="10.00">EncodeEPath</text>
</g>
<!-- Node2 -->
<g id="node3" class="node"><title>Node2</title>
<a xlink:href="../../d2/dc9/group__CIP__API.html#gaece1b7dd2aeec306cb33b86b2ee21980" target="_top" xlink:title="Produce the data according to CIP encoding onto the message buffer.">
<polygon fill="none" stroke="black" points="114.5,-78.5 114.5,-99.5 185.5,-99.5 185.5,-78.5 114.5,-78.5"/>
<text text-anchor="middle" x="150" y="-86.5" font-family="Helvetica,sans-Serif" font-size="10.00">EncodeData</text>
</a>
</g>
<!-- Node1&#45;&gt;Node2 -->
<g id="edge2" class="edge"><title>Node1&#45;&gt;Node2</title>
<path fill="none" stroke="midnightblue" d="M87.7671,-89C96.6423,-89 105.751,-89 114.166,-89"/>
<polygon fill="midnightblue" stroke="midnightblue" points="87.5109,-85.5001 77.5109,-89 87.5109,-92.5001 87.5109,-85.5001"/>
</g>
<!-- Node2&#45;&gt;Node2 -->
<g id="edge50" class="edge"><title>Node2&#45;&gt;Node2</title>
<path fill="none" stroke="midnightblue" d="M129.728,-109.427C131.292,-114.349 138.049,-118 150,-118 169.121,-118 174.947,-108.653 167.478,-99.7079"/>
<polygon fill="midnightblue" stroke="midnightblue" points="133.123,-110.286 132.522,-99.7079 126.395,-108.352 133.123,-110.286"/>
</g>
<!-- Node3 -->
<g id="node5" class="node"><title>Node3</title>
<a xlink:href="../../db/d14/cipcommon_8h.html#ab0ed210dcfa6219a238c5a9f7a72aad1" target="_top" xlink:title="Generic implementation of the GetAttributeSingle CIP service.">
<polygon fill="none" stroke="black" points="254,-98.5 254,-119.5 350,-119.5 350,-98.5 254,-98.5"/>
<text text-anchor="middle" x="302" y="-106.5" font-family="Helvetica,sans-Serif" font-size="10.00">GetAttributeSingle</text>
</a>
</g>
<!-- Node2&#45;&gt;Node3 -->
<g id="edge4" class="edge"><title>Node2&#45;&gt;Node3</title>
<path fill="none" stroke="midnightblue" d="M195.8,-95.0263C214.165,-97.4427 235.339,-100.229 253.926,-102.674"/>
<polygon fill="midnightblue" stroke="midnightblue" points="196.008,-91.5237 185.637,-93.6891 195.095,-98.4638 196.008,-91.5237"/>
</g>
<!-- Node16 -->
<g id="node42" class="node"><title>Node16</title>
<a xlink:href="../../dd/d20/ciptcpipinterface_8c.html#a01cd6d59afe7613e1c690d8b21207ce6" target="_top" xlink:title="GetAttributeSingleTcpIpInterface">
<polygon fill="none" stroke="black" points="222.5,-58.5 222.5,-79.5 381.5,-79.5 381.5,-58.5 222.5,-58.5"/>
<text text-anchor="middle" x="302" y="-66.5" font-family="Helvetica,sans-Serif" font-size="10.00">GetAttributeSingleTcpIpInterface</text>
</a>
</g>
<!-- Node2&#45;&gt;Node16 -->
<g id="edge52" class="edge"><title>Node2&#45;&gt;Node16</title>
<path fill="none" stroke="midnightblue" d="M195.674,-82.9903C204.178,-81.8713 213.288,-80.6726 222.467,-79.4648"/>
<polygon fill="midnightblue" stroke="midnightblue" points="195.095,-79.5362 185.637,-84.3109 196.008,-86.4763 195.095,-79.5362"/>
</g>
<!-- Node4 -->
<g id="node7" class="node"><title>Node4</title>
<a xlink:href="../../df/d2e/cipassembly_8c.html#a5973ef42110a1bdf6c7699e35e04b7d4" target="_top" xlink:title="Constructor for the assembly object class.">
<polygon fill="none" stroke="black" points="541.5,-198.5 541.5,-219.5 656.5,-219.5 656.5,-198.5 541.5,-198.5"/>
<text text-anchor="middle" x="599" y="-206.5" font-family="Helvetica,sans-Serif" font-size="10.00">CreateAssemblyClass</text>
</a>
</g>
<!-- Node3&#45;&gt;Node4 -->
<g id="edge6" class="edge"><title>Node3&#45;&gt;Node4</title>
<path fill="none" stroke="midnightblue" d="M334.558,-123.627C357.602,-133.693 389.374,-147.001 418,-157 465.071,-173.442 520.291,-188.747 557.248,-198.436"/>
<polygon fill="midnightblue" stroke="midnightblue" points="335.813,-120.355 325.251,-119.53 332.993,-126.762 335.813,-120.355"/>
</g>
<!-- Node10 -->
<g id="node19" class="node"><title>Node10</title>
<a xlink:href="../../d2/dc9/group__CIP__API.html#ga3dfa07bc40e59ba348d713272d1cbfdb" target="_top" xlink:title="Allocate memory for new CIP Class and attributes.">
<polygon fill="none" stroke="black" points="418,-79.5 418,-100.5 504,-100.5 504,-79.5 418,-79.5"/>
<text text-anchor="middle" x="461" y="-87.5" font-family="Helvetica,sans-Serif" font-size="10.00">CreateCipClass</text>
</a>
</g>
<!-- Node3&#45;&gt;Node10 -->
<g id="edge18" class="edge"><title>Node3&#45;&gt;Node10</title>
<path fill="none" stroke="midnightblue" d="M360.223,-102.043C379.298,-99.7631 400.138,-97.2728 417.89,-95.1515"/>
<polygon fill="midnightblue" stroke="midnightblue" points="359.651,-98.5859 350.137,-103.248 360.481,-105.536 359.651,-98.5859"/>
</g>
<!-- Node11 -->
<g id="node22" class="node"><title>Node11</title>
<a xlink:href="../../d2/da3/cipconnectionmanager_8h.html#a5ab0de6894d23e8fe84a6b46797c2212" target="_top" xlink:title="Initialize the data of the connection manager object.">
<polygon fill="none" stroke="black" points="540.5,-0.5 540.5,-21.5 657.5,-21.5 657.5,-0.5 540.5,-0.5"/>
<text text-anchor="middle" x="599" y="-8.5" font-family="Helvetica,sans-Serif" font-size="10.00">ConnectionManagerInit</text>
</a>
</g>
<!-- Node3&#45;&gt;Node11 -->
<g id="edge42" class="edge"><title>Node3&#45;&gt;Node11</title>
<path fill="none" stroke="midnightblue" d="M360,-98.6963C367.674,-96.1419 375.22,-92.9604 382,-89 402.088,-77.2652 397.753,-62.4577 418,-51 455.531,-29.7617 503.363,-19.7977 540.43,-15.1244"/>
<polygon fill="midnightblue" stroke="midnightblue" points="358.839,-95.3903 350.261,-101.608 360.844,-102.097 358.839,-95.3903"/>
</g>
<!-- Node12 -->
<g id="node25" class="node"><title>Node12</title>
<a xlink:href="../../dd/d4d/cipethernetlink_8h.html#ad6d2028b90ec96ad148d092a30acb7d6" target="_top" xlink:title="Initialize the Ethernet Link Objects data.">
<polygon fill="none" stroke="black" points="549,-158.5 549,-179.5 649,-179.5 649,-158.5 549,-158.5"/>
<text text-anchor="middle" x="599" y="-166.5" font-family="Helvetica,sans-Serif" font-size="10.00">CipEthernetLinkInit</text>
</a>
</g>
<!-- Node3&#45;&gt;Node12 -->
<g id="edge44" class="edge"><title>Node3&#45;&gt;Node12</title>
<path fill="none" stroke="midnightblue" d="M359.468,-121.638C378.122,-125.673 398.923,-130.1 418,-134 462.057,-143.006 512.274,-152.669 548.619,-159.555"/>
<polygon fill="midnightblue" stroke="midnightblue" points="360.157,-118.206 349.642,-119.506 358.673,-125.047 360.157,-118.206"/>
</g>
<!-- Node13 -->
<g id="node28" class="node"><title>Node13</title>
<a xlink:href="../../dc/d72/cipidentity_8h.html#a5d5136e167300543aa046057b56ae813" target="_top" xlink:title="CIP Identity object constructor.">
<polygon fill="none" stroke="black" points="560.5,-118.5 560.5,-139.5 637.5,-139.5 637.5,-118.5 560.5,-118.5"/>
<text text-anchor="middle" x="599" y="-126.5" font-family="Helvetica,sans-Serif" font-size="10.00">CipIdentityInit</text>
</a>
</g>
<!-- Node3&#45;&gt;Node13 -->
<g id="edge46" class="edge"><title>Node3&#45;&gt;Node13</title>
<path fill="none" stroke="midnightblue" d="M360.371,-112.931C419.609,-116.92 509.624,-122.981 560.481,-126.406"/>
<polygon fill="midnightblue" stroke="midnightblue" points="360.261,-109.415 350.048,-112.236 359.79,-116.4 360.261,-109.415"/>
</g>
<!-- Node14 -->
<g id="node31" class="node"><title>Node14</title>
<a xlink:href="../../d2/d75/cipmessagerouter_8h.html#aa3456b75c1b2289296323b578fee2d3d" target="_top" xlink:title="Initialize the data structures of the message router.">
<polygon fill="none" stroke="black" points="542,-40.5 542,-61.5 656,-61.5 656,-40.5 542,-40.5"/>
<text text-anchor="middle" x="599" y="-48.5" font-family="Helvetica,sans-Serif" font-size="10.00">CipMessageRouterInit</text>
</a>
</g>
<!-- Node3&#45;&gt;Node14 -->
<g id="edge48" class="edge"><title>Node3&#45;&gt;Node14</title>
<path fill="none" stroke="midnightblue" d="M360.129,-96.2249C367.575,-94.0773 375.027,-91.667 382,-89 398.898,-82.5371 400.69,-75.2618 418,-70 458.206,-57.778 505.49,-53.1271 541.645,-51.4793"/>
<polygon fill="midnightblue" stroke="midnightblue" points="359.103,-92.877 350.384,-98.8963 360.954,-99.6279 359.103,-92.877"/>
</g>
<!-- Node5 -->
<g id="node9" class="node"><title>Node5</title>
<a xlink:href="../../de/df4/cipassembly_8h.html#a4dfbc2c7a8e9e77f05a0a7236210f5b4" target="_top" xlink:title="Setup the Assembly object.">
<polygon fill="none" stroke="black" points="697.5,-195.5 697.5,-216.5 808.5,-216.5 808.5,-195.5 697.5,-195.5"/>
<text text-anchor="middle" x="753" y="-203.5" font-family="Helvetica,sans-Serif" font-size="10.00">CipAssemblyInitialize</text>
</a>
</g>
<!-- Node4&#45;&gt;Node5 -->
<g id="edge8" class="edge"><title>Node4&#45;&gt;Node5</title>
<path fill="none" stroke="midnightblue" d="M666.894,-207.677C677.106,-207.478 687.534,-207.275 697.447,-207.082"/>
<polygon fill="midnightblue" stroke="midnightblue" points="666.712,-204.18 656.782,-207.874 666.848,-211.179 666.712,-204.18"/>
</g>
<!-- Node8 -->
<g id="node15" class="node"><title>Node8</title>
<a xlink:href="../../d2/dc9/group__CIP__API.html#gae61b613fed863d30428e78b2311bf593" target="_top" xlink:title="Create an instance of an assembly object.">
<polygon fill="none" stroke="black" points="694,-235.5 694,-256.5 812,-256.5 812,-235.5 694,-235.5"/>
<text text-anchor="middle" x="753" y="-243.5" font-family="Helvetica,sans-Serif" font-size="10.00">CreateAssemblyObject</text>
</a>
</g>
<!-- Node4&#45;&gt;Node8 -->
<g id="edge14" class="edge"><title>Node4&#45;&gt;Node8</title>
<path fill="none" stroke="midnightblue" d="M652.48,-221.849C670.997,-226.298 691.522,-231.229 709.172,-235.47"/>
<polygon fill="midnightblue" stroke="midnightblue" points="653.259,-218.437 642.718,-219.504 651.624,-225.243 653.259,-218.437"/>
</g>
<!-- Node6 -->
<g id="node11" class="node"><title>Node6</title>
<a xlink:href="../../d2/dc9/group__CIP__API.html#ga5d4979945d124e28668b264c3823db1c" target="_top" xlink:title="Initialize and setup the CIP&#45;stack.">
<polygon fill="none" stroke="black" points="870.5,-98.5 870.5,-119.5 941.5,-119.5 941.5,-98.5 870.5,-98.5"/>
<text text-anchor="middle" x="906" y="-106.5" font-family="Helvetica,sans-Serif" font-size="10.00">CipStackInit</text>
</a>
</g>
<!-- Node5&#45;&gt;Node6 -->
<g id="edge10" class="edge"><title>Node5&#45;&gt;Node6</title>
<path fill="none" stroke="midnightblue" d="M791.341,-191.425C798.368,-188.289 805.523,-184.771 812,-181 843.8,-162.487 877.087,-134.662 894.234,-119.598"/>
<polygon fill="midnightblue" stroke="midnightblue" points="789.734,-188.306 781.914,-195.454 792.485,-194.743 789.734,-188.306"/>
</g>
<!-- Node7 -->
<g id="node13" class="node"><title>Node7</title>
<a xlink:href="../../d9/dfb/POSIX_2main_8c.html#ad338a7dbc41dc40bcecd0479377ef207" target="_top" xlink:title="main">
<polygon fill="none" stroke="black" points="1000,-98.5 1000,-119.5 1038,-119.5 1038,-98.5 1000,-98.5"/>
<text text-anchor="middle" x="1019" y="-106.5" font-family="Helvetica,sans-Serif" font-size="10.00">main</text>
</a>
</g>
<!-- Node6&#45;&gt;Node7 -->
<g id="edge12" class="edge"><title>Node6&#45;&gt;Node7</title>
<path fill="none" stroke="midnightblue" d="M951.965,-109C968.72,-109 986.756,-109 999.895,-109"/>
<polygon fill="midnightblue" stroke="midnightblue" points="951.754,-105.5 941.754,-109 951.754,-112.5 951.754,-105.5"/>
</g>
<!-- Node9 -->
<g id="node17" class="node"><title>Node9</title>
<a xlink:href="../../d5/dc5/group__CIP__CALLBACK__API.html#gae93106eb1647bff3ad56a7752799d878" target="_top" xlink:title="Callback for the application initialization.">
<polygon fill="none" stroke="black" points="848,-235.5 848,-256.5 964,-256.5 964,-235.5 848,-235.5"/>
<text text-anchor="middle" x="906" y="-243.5" font-family="Helvetica,sans-Serif" font-size="10.00">ApplicationInitialization</text>
</a>
</g>
<!-- Node8&#45;&gt;Node9 -->
<g id="edge16" class="edge"><title>Node8&#45;&gt;Node9</title>
<path fill="none" stroke="midnightblue" d="M822.405,-246C830.879,-246 839.471,-246 847.759,-246"/>
<polygon fill="midnightblue" stroke="midnightblue" points="822.154,-242.5 812.154,-246 822.154,-249.5 822.154,-242.5"/>
</g>
<!-- Node10&#45;&gt;Node4 -->
<g id="edge20" class="edge"><title>Node10&#45;&gt;Node4</title>
<path fill="none" stroke="midnightblue" d="M471.84,-109.48C485.155,-131.72 509.743,-167.76 540,-189 545.4,-192.791 551.576,-195.91 557.852,-198.464"/>
<polygon fill="midnightblue" stroke="midnightblue" points="474.736,-107.496 466.688,-100.606 468.682,-111.011 474.736,-107.496"/>
</g>
<!-- Node10&#45;&gt;Node11 -->
<g id="edge22" class="edge"><title>Node10&#45;&gt;Node11</title>
<path fill="none" stroke="midnightblue" d="M480.515,-72.6662C495.827,-59.7746 518.14,-42.4959 540,-31 546.892,-27.3754 554.575,-24.2076 562.057,-21.5264"/>
<polygon fill="midnightblue" stroke="midnightblue" points="478.082,-70.1419 472.776,-79.3122 482.643,-75.4525 478.082,-70.1419"/>
</g>
<!-- Node10&#45;&gt;Node12 -->
<g id="edge26" class="edge"><title>Node10&#45;&gt;Node12</title>
<path fill="none" stroke="midnightblue" d="M480.515,-107.334C495.827,-120.225 518.14,-137.504 540,-149 546.892,-152.625 554.575,-155.792 562.057,-158.474"/>
<polygon fill="midnightblue" stroke="midnightblue" points="482.643,-104.548 472.776,-100.688 478.082,-109.858 482.643,-104.548"/>
</g>
<!-- Node10&#45;&gt;Node13 -->
<g id="edge30" class="edge"><title>Node10&#45;&gt;Node13</title>
<path fill="none" stroke="midnightblue" d="M508.324,-103.374C525.74,-108.296 545.207,-113.798 561.625,-118.438"/>
<polygon fill="midnightblue" stroke="midnightblue" points="508.92,-99.9055 498.345,-100.554 507.016,-106.642 508.92,-99.9055"/>
</g>
<!-- Node10&#45;&gt;Node14 -->
<g id="edge34" class="edge"><title>Node10&#45;&gt;Node14</title>
<path fill="none" stroke="midnightblue" d="M508.324,-76.6259C525.74,-71.7039 545.207,-66.2024 561.625,-61.5624"/>
<polygon fill="midnightblue" stroke="midnightblue" points="507.016,-73.3583 498.345,-79.446 508.92,-80.0945 507.016,-73.3583"/>
</g>
<!-- Node15 -->
<g id="node34" class="node"><title>Node15</title>
<a xlink:href="../../d1/dad/ciptcpipinterface_8h.html#a4c1f49654e48c5581513d990840933b0" target="_top" xlink:title="Initializing the data structures of the TCP/IP interface object.">
<polygon fill="none" stroke="black" points="699,-79.5 699,-100.5 807,-100.5 807,-79.5 699,-79.5"/>
<text text-anchor="middle" x="753" y="-87.5" font-family="Helvetica,sans-Serif" font-size="10.00">CipTcpIpInterfaceInit</text>
</a>
</g>
<!-- Node10&#45;&gt;Node15 -->
<g id="edge38" class="edge"><title>Node10&#45;&gt;Node15</title>
<path fill="none" stroke="midnightblue" d="M514.177,-90C566.53,-90 646.088,-90 698.793,-90"/>
<polygon fill="midnightblue" stroke="midnightblue" points="514.086,-86.5001 504.086,-90 514.086,-93.5001 514.086,-86.5001"/>
</g>
<!-- Node11&#45;&gt;Node6 -->
<g id="edge24" class="edge"><title>Node11&#45;&gt;Node6</title>
<path fill="none" stroke="midnightblue" d="M667.581,-16.8833C710.24,-22.1538 765.613,-31.9655 812,-50 843.247,-62.1485 875.443,-85.0392 892.863,-98.4571"/>
<polygon fill="midnightblue" stroke="midnightblue" points="667.919,-13.3989 657.577,-15.7013 667.098,-20.3506 667.919,-13.3989"/>
</g>
<!-- Node12&#45;&gt;Node6 -->
<g id="edge28" class="edge"><title>Node12&#45;&gt;Node6</title>
<path fill="none" stroke="midnightblue" d="M659.118,-160.195C701.922,-153.597 760.71,-143.863 812,-133 831.443,-128.882 852.934,-123.461 870.453,-118.814"/>
<polygon fill="midnightblue" stroke="midnightblue" points="658.499,-156.749 649.144,-161.721 659.558,-163.669 658.499,-156.749"/>
</g>
<!-- Node13&#45;&gt;Node6 -->
<g id="edge32" class="edge"><title>Node13&#45;&gt;Node6</title>
<path fill="none" stroke="midnightblue" d="M647.872,-125.816C709.84,-121.779 815.216,-114.914 870.204,-111.332"/>
<polygon fill="midnightblue" stroke="midnightblue" points="647.322,-122.344 637.571,-126.487 647.777,-129.33 647.322,-122.344"/>
</g>
<!-- Node14&#45;&gt;Node6 -->
<g id="edge36" class="edge"><title>Node14&#45;&gt;Node6</title>
<path fill="none" stroke="midnightblue" d="M666.468,-51.795C708.793,-53.5715 764.206,-58.2472 812,-70 838.422,-76.4974 867.072,-89.2908 885.707,-98.4541"/>
<polygon fill="midnightblue" stroke="midnightblue" points="666.401,-48.2901 656.277,-51.4123 666.139,-55.2852 666.401,-48.2901"/>
</g>
<!-- Node15&#45;&gt;Node6 -->
<g id="edge40" class="edge"><title>Node15&#45;&gt;Node6</title>
<path fill="none" stroke="midnightblue" d="M817.347,-97.9908C835.524,-100.248 854.64,-102.622 870.448,-104.585"/>
<polygon fill="midnightblue" stroke="midnightblue" points="817.728,-94.5113 807.373,-96.7522 816.865,-101.458 817.728,-94.5113"/>
</g>
</g>
</svg>
        <g id="navigator" transform="translate(0 0)" fill="#404254">
                <rect fill="#f2f5e9" fill-opacity="0.5" stroke="#606060" stroke-width=".5" x="0" y="0" width="60" height="60"/>
                <use id="zoomplus" xlink:href="#zoomPlus" x="17" y="9" onmousedown="handleZoom(evt,'in')"/>
                <use id="zoomminus" xlink:href="#zoomMin" x="42" y="9" onmousedown="handleZoom(evt,'out')"/>
                <use id="reset" xlink:href="#resetDef" x="30" y="36" onmousedown="handleReset()"/>
                <g id="arrowUp" xlink:href="#dirArrow" transform="translate(30 24)" onmousedown="handlePan(0,-1)">
                  <use xlink:href="#rim" fill="#404040">
                        <set attributeName="fill" to="#808080" begin="arrowUp.mouseover" end="arrowUp.mouseout"/>
                  </use>
                  <path fill="none" stroke="white" stroke-width="1.5" d="M0,-3.0v7 M-2.5,-0.5L0,-3.0L2.5,-0.5"/>
                </g>
                <g id="arrowRight" xlink:href="#dirArrow" transform="rotate(90) translate(36 -43)" onmousedown="handlePan(1,0)">
                  <use xlink:href="#rim" fill="#404040">
                        <set attributeName="fill" to="#808080" begin="arrowRight.mouseover" end="arrowRight.mouseout"/>
                  </use>
                  <path fill="none" stroke="white" stroke-width="1.5" d="M0,-3.0v7 M-2.5,-0.5L0,-3.0L2.5,-0.5"/>
                </g>
                <g id="arrowDown" xlink:href="#dirArrow" transform="rotate(180) translate(-30 -48)" onmousedown="handlePan(0,1)">
                  <use xlink:href="#rim" fill="#404040">
                        <set attributeName="fill" to="#808080" begin="arrowDown.mouseover" end="arrowDown.mouseout"/>
                  </use>
                  <path fill="none" stroke="white" stroke-width="1.5" d="M0,-3.0v7 M-2.5,-0.5L0,-3.0L2.5,-0.5"/>
                </g>
                <g id="arrowLeft" xlink:href="#dirArrow" transform="rotate(270) translate(-36 17)" onmousedown="handlePan(-1,0)">
                  <use xlink:href="#rim" fill="#404040">
                        <set attributeName="fill" to="#808080" begin="arrowLeft.mouseover" end="arrowLeft.mouseout"/>
                  </use>
                  <path fill="none" stroke="white" stroke-width="1.5" d="M0,-3.0v7 M-2.5,-0.5L0,-3.0L2.5,-0.5"/>
                </g>
        </g>
</svg>
