<?xml version="1.0" encoding="UTF-8" standalone="no"?>
<!DOCTYPE svg PUBLIC "-//W3C//DTD SVG 1.1//EN"
 "http://www.w3.org/Graphics/SVG/1.1/DTD/svg11.dtd">
<!-- Generated by graphviz version 2.36.0 (20140111.2315)
 -->
<!-- Title: GetAttributeSingle Pages: 1 -->
<svg width="544pt" height="179pt"
 viewBox="0.00 0.00 544.00 179.00" xmlns="http://www.w3.org/2000/svg" xmlns:xlink="http://www.w3.org/1999/xlink">
<g id="graph0" class="graph" transform="scale(1 1) rotate(0) translate(4 175)">
<title>GetAttributeSingle</title>
<!-- Node1 -->
<g id="node1" class="node"><title>Node1</title>
<polygon fill="#bfbfbf" stroke="black" points="0,-85.5 0,-104.5 96,-104.5 96,-85.5 0,-85.5"/>
<text text-anchor="middle" x="48" y="-92.5" font-family="Helvetica,sans-Serif" font-size="10.00">GetAttributeSingle</text>
</g>
<!-- Node2 -->
<g id="node2" class="node"><title>Node2</title>
<g id="a_node2"><a xlink:href="../../d5/dc5/group__CIP__CALLBACK__API.html#ga098272a8ae10facf3086c5c82a0080db" target="_top" xlink:title="Inform the application that the data of an assembly object will be sent. ">
<polygon fill="none" stroke="black" points="132,-151.5 132,-170.5 264,-170.5 264,-151.5 132,-151.5"/>
<text text-anchor="middle" x="198" y="-158.5" font-family="Helvetica,sans-Serif" font-size="10.00">BeforeAssemblyDataSend</text>
</a>
</g>
</g>
<!-- Node1&#45;&gt;Node2 -->
<g id="edge1" class="edge"><title>Node1&#45;&gt;Node2</title>
<path fill="none" stroke="midnightblue" d="M63.4663,-104.563C79.6269,-114.914 106.832,-131.364 132,-142 137.481,-144.316 143.335,-146.459 149.201,-148.407"/>
<polygon fill="midnightblue" stroke="midnightblue" points="148.43,-151.833 159.019,-151.496 150.531,-145.156 148.43,-151.833"/>
</g>
<!-- Node3 -->
<g id="node3" class="node"><title>Node3</title>
<g id="a_node3"><a xlink:href="../../d2/dc9/group__CIP__API.html#ga1eb3004bbf086b276500e1d6e7a2f677" target="_top" xlink:title="Calculates Byte&#45;Index of Attribute. ">
<polygon fill="none" stroke="black" points="157,-113.5 157,-132.5 239,-132.5 239,-113.5 157,-113.5"/>
<text text-anchor="middle" x="198" y="-120.5" font-family="Helvetica,sans-Serif" font-size="10.00">CalculateIndex</text>
</a>
</g>
</g>
<!-- Node1&#45;&gt;Node3 -->
<g id="edge2" class="edge"><title>Node1&#45;&gt;Node3</title>
<path fill="none" stroke="midnightblue" d="M96.235,-103.936C112.348,-106.985 130.418,-110.403 146.758,-113.495"/>
<polygon fill="midnightblue" stroke="midnightblue" points="146.2,-116.951 156.676,-115.371 147.501,-110.073 146.2,-116.951"/>
</g>
<!-- Node4 -->
<g id="node4" class="node"><title>Node4</title>
<g id="a_node4"><a xlink:href="../../d2/dc9/group__CIP__API.html#gaece1b7dd2aeec306cb33b86b2ee21980" target="_top" xlink:title="Produce the data according to CIP encoding onto the message buffer. ">
<polygon fill="none" stroke="black" points="162.5,-57.5 162.5,-76.5 233.5,-76.5 233.5,-57.5 162.5,-57.5"/>
<text text-anchor="middle" x="198" y="-64.5" font-family="Helvetica,sans-Serif" font-size="10.00">EncodeData</text>
</a>
</g>
</g>
<!-- Node1&#45;&gt;Node4 -->
<g id="edge3" class="edge"><title>Node1&#45;&gt;Node4</title>
<path fill="none" stroke="midnightblue" d="M96.235,-86.0636C114.197,-82.6654 134.591,-78.8071 152.31,-75.4548"/>
<polygon fill="midnightblue" stroke="midnightblue" points="153.22,-78.8448 162.395,-73.5468 151.919,-71.9668 153.22,-78.8448"/>
</g>
<!-- Node9 -->
<g id="node9" class="node"><title>Node9</title>
<g id="a_node9"><a xlink:href="../../d2/dc9/group__CIP__API.html#ga5a14c8d76acacb09312b709bb0a76265" target="_top" xlink:title="Get a pointer to an instance&#39;s attribute. ">
<polygon fill="none" stroke="black" points="156,-19.5 156,-38.5 240,-38.5 240,-19.5 156,-19.5"/>
<text text-anchor="middle" x="198" y="-26.5" font-family="Helvetica,sans-Serif" font-size="10.00">GetCipAttribute</text>
</a>
</g>
</g>
<!-- Node1&#45;&gt;Node9 -->
<g id="edge10" class="edge"><title>Node1&#45;&gt;Node9</title>
<path fill="none" stroke="midnightblue" d="M63.4663,-85.4373C79.6269,-75.086 106.832,-58.6356 132,-48 137.481,-45.6839 143.335,-43.541 149.201,-41.5934"/>
<polygon fill="midnightblue" stroke="midnightblue" points="150.531,-44.8441 159.019,-38.5038 148.43,-38.1668 150.531,-44.8441"/>
</g>
<!-- Node4&#45;&gt;Node4 -->
<g id="edge9" class="edge"><title>Node4&#45;&gt;Node4</title>
<path fill="none" stroke="midnightblue" d="M174.881,-76.7571C163.633,-85.5653 171.34,-95 198,-95 215.496,-95 224.829,-90.9368 225.999,-85.6539"/>
<polygon fill="midnightblue" stroke="midnightblue" points="228.997,-83.8417 221.119,-76.7571 222.86,-87.208 228.997,-83.8417"/>
</g>
<!-- Node5 -->
<g id="node5" class="node"><title>Node5</title>
<g id="a_node5"><a xlink:href="../../d4/d91/group__ENCAP.html#gae267a8684cc6ee1b3bd83df03260b7aa" target="_top" xlink:title="converts UINT8 data from host to little endian an writes it to buffer. ">
<polygon fill="none" stroke="black" points="301,-114.5 301,-133.5 403,-133.5 403,-114.5 301,-114.5"/>
<text text-anchor="middle" x="352" y="-121.5" font-family="Helvetica,sans-Serif" font-size="10.00">AddSintToMessage</text>
</a>
</g>
</g>
<!-- Node4&#45;&gt;Node5 -->
<g id="edge4" class="edge"><title>Node4&#45;&gt;Node5</title>
<path fill="none" stroke="midnightblue" d="M224.441,-76.5405C249.54,-85.9527 288.104,-100.414 316.066,-110.9"/>
<polygon fill="midnightblue" stroke="midnightblue" points="314.883,-114.194 325.476,-114.428 317.341,-107.64 314.883,-114.194"/>
</g>
<!-- Node6 -->
<g id="node6" class="node"><title>Node6</title>
<g id="a_node6"><a xlink:href="../../d4/d91/group__ENCAP.html#gae689aac2a85bf49fb356ec94c8800799" target="_top" xlink:title="converts UINT16 data from host to little endian an writes it to buffer. ">
<polygon fill="none" stroke="black" points="440,-38.5 440,-57.5 536,-57.5 536,-38.5 440,-38.5"/>
<text text-anchor="middle" x="488" y="-45.5" font-family="Helvetica,sans-Serif" font-size="10.00">AddIntToMessage</text>
</a>
</g>
</g>
<!-- Node4&#45;&gt;Node6 -->
<g id="edge5" class="edge"><title>Node4&#45;&gt;Node6</title>
<path fill="none" stroke="midnightblue" d="M233.591,-69.3599C274.452,-71.603 344.41,-73.7335 404,-67 416.981,-65.5332 430.891,-62.8148 443.542,-59.8838"/>
<polygon fill="midnightblue" stroke="midnightblue" points="444.477,-63.2585 453.375,-57.5074 442.833,-56.4544 444.477,-63.2585"/>
</g>
<!-- Node7 -->
<g id="node7" class="node"><title>Node7</title>
<g id="a_node7"><a xlink:href="../../d4/d91/group__ENCAP.html#gaafc3c9e3ff582c9b7e438ae2b1fdf822" target="_top" xlink:title="Converts UINT32 data from host to little endian and writes it to buffer. ">
<polygon fill="none" stroke="black" points="300.5,-38.5 300.5,-57.5 403.5,-57.5 403.5,-38.5 300.5,-38.5"/>
<text text-anchor="middle" x="352" y="-45.5" font-family="Helvetica,sans-Serif" font-size="10.00">AddDintToMessage</text>
</a>
</g>
</g>
<!-- Node4&#45;&gt;Node7 -->
<g id="edge6" class="edge"><title>Node4&#45;&gt;Node7</title>
<path fill="none" stroke="midnightblue" d="M233.872,-62.641C250.588,-60.5515 271.103,-57.9871 290.268,-55.5915"/>
<polygon fill="midnightblue" stroke="midnightblue" points="290.951,-59.0334 300.44,-54.32 290.083,-52.0875 290.951,-59.0334"/>
</g>
<!-- Node8 -->
<g id="node8" class="node"><title>Node8</title>
<g id="a_node8"><a xlink:href="../../d2/d3d/cipcommon_8c.html#a6eec1752e2cffbbab16bff95fa145bd3" target="_top" xlink:title="EncodeEPath">
<polygon fill="none" stroke="black" points="313.5,-0.5 313.5,-19.5 390.5,-19.5 390.5,-0.5 313.5,-0.5"/>
<text text-anchor="middle" x="352" y="-7.5" font-family="Helvetica,sans-Serif" font-size="10.00">EncodeEPath</text>
</a>
</g>
</g>
<!-- Node4&#45;&gt;Node8 -->
<g id="edge7" class="edge"><title>Node4&#45;&gt;Node8</title>
<path fill="none" stroke="midnightblue" d="M233.513,-58.3095C243.491,-55.4235 254.302,-51.9298 264,-48 280.767,-41.2054 283.489,-36.3956 300,-29 304.454,-27.0048 309.188,-25.0412 313.906,-23.1776"/>
<polygon fill="midnightblue" stroke="midnightblue" points="315.387,-26.3583 323.475,-19.515 312.885,-19.8208 315.387,-26.3583"/>
</g>
<!-- Node8&#45;&gt;Node6 -->
<g id="edge8" class="edge"><title>Node8&#45;&gt;Node6</title>
<path fill="none" stroke="midnightblue" d="M386.814,-19.589C404.033,-24.4719 425.164,-30.4643 443.573,-35.685"/>
<polygon fill="midnightblue" stroke="midnightblue" points="442.621,-39.053 453.197,-38.4141 444.531,-32.3185 442.621,-39.053"/>
</g>
</g>
</svg>
