<?xml version="1.0" encoding="UTF-8" standalone="no"?>
<!DOCTYPE svg PUBLIC "-//W3C//DTD SVG 1.1//EN"
 "http://www.w3.org/Graphics/SVG/1.1/DTD/svg11.dtd">
<!-- Generated by graphviz version 2.36.0 (20140111.2315)
 -->
<!-- Title: CloseSocketPlatform Pages: 1 -->
<svg width="1542pt" height="302pt"
 viewBox="0.00 0.00 1542.00 302.00" xmlns="http://www.w3.org/2000/svg" xmlns:xlink="http://www.w3.org/1999/xlink">
<g id="graph0" class="graph" transform="scale(1 1) rotate(0) translate(4 298)">
<title>CloseSocketPlatform</title>
<!-- Node1 -->
<g id="node1" class="node"><title>Node1</title>
<polygon fill="#bfbfbf" stroke="black" points="0,-110.5 0,-129.5 110,-129.5 110,-110.5 0,-110.5"/>
<text text-anchor="middle" x="55" y="-117.5" font-family="Helvetica,sans-Serif" font-size="10.00">CloseSocketPlatform</text>
</g>
<!-- Node2 -->
<g id="node2" class="node"><title>Node2</title>
<g id="a_node2"><a xlink:href="../../d5/dc5/group__CIP__CALLBACK__API.html#gaf4d26c1bca26c2e6e73481d57762df36" target="_top" xlink:title="Close the given socket and clean up the stack. ">
<polygon fill="none" stroke="black" points="146.5,-110.5 146.5,-129.5 219.5,-129.5 219.5,-110.5 146.5,-110.5"/>
<text text-anchor="middle" x="183" y="-117.5" font-family="Helvetica,sans-Serif" font-size="10.00">CloseSocket</text>
</a>
</g>
</g>
<!-- Node1&#45;&gt;Node2 -->
<g id="edge1" class="edge"><title>Node1&#45;&gt;Node2</title>
<path fill="none" stroke="midnightblue" d="M120.297,-120C129.292,-120 138.251,-120 146.441,-120"/>
<polygon fill="midnightblue" stroke="midnightblue" points="120.167,-116.5 110.167,-120 120.167,-123.5 120.167,-116.5"/>
</g>
<!-- Node3 -->
<g id="node3" class="node"><title>Node3</title>
<g id="a_node3"><a xlink:href="../../da/dc2/generic__networkhandler_8h.html#aab6e6c554aa10d27efe297ebef3ac1c9" target="_top" xlink:title="CloseUdpSocket">
<polygon fill="none" stroke="black" points="267.5,-224.5 267.5,-243.5 358.5,-243.5 358.5,-224.5 267.5,-224.5"/>
<text text-anchor="middle" x="313" y="-231.5" font-family="Helvetica,sans-Serif" font-size="10.00">CloseUdpSocket</text>
</a>
</g>
</g>
<!-- Node2&#45;&gt;Node3 -->
<g id="edge2" class="edge"><title>Node2&#45;&gt;Node3</title>
<path fill="none" stroke="midnightblue" d="M202.547,-136.519C229.649,-160.656 279.222,-204.807 301.114,-224.305"/>
<polygon fill="midnightblue" stroke="midnightblue" points="204.709,-133.757 194.913,-129.72 200.053,-138.984 204.709,-133.757"/>
</g>
<!-- Node13 -->
<g id="node13" class="node"><title>Node13</title>
<g id="a_node13"><a xlink:href="../../da/dc2/generic__networkhandler_8h.html#a1bfa5ef8e4802716459a56567ee16592" target="_top" xlink:title="CloseTcpSocket">
<polygon fill="none" stroke="black" points="639.5,-110.5 639.5,-129.5 728.5,-129.5 728.5,-110.5 639.5,-110.5"/>
<text text-anchor="middle" x="684" y="-117.5" font-family="Helvetica,sans-Serif" font-size="10.00">CloseTcpSocket</text>
</a>
</g>
</g>
<!-- Node2&#45;&gt;Node13 -->
<g id="edge13" class="edge"><title>Node2&#45;&gt;Node13</title>
<path fill="none" stroke="midnightblue" d="M230.137,-120C326.036,-120 545.748,-120 639.41,-120"/>
<polygon fill="midnightblue" stroke="midnightblue" points="229.887,-116.5 219.887,-120 229.887,-123.5 229.887,-116.5"/>
</g>
<!-- Node22 -->
<g id="node22" class="node"><title>Node22</title>
<g id="a_node22"><a xlink:href="../../da/dc2/generic__networkhandler_8h.html#aace33c0e7aa348969492ede822183bd5" target="_top" xlink:title="NetworkHandlerFinish">
<polygon fill="none" stroke="black" points="256.5,-31.5 256.5,-50.5 369.5,-50.5 369.5,-31.5 256.5,-31.5"/>
<text text-anchor="middle" x="313" y="-38.5" font-family="Helvetica,sans-Serif" font-size="10.00">NetworkHandlerFinish</text>
</a>
</g>
</g>
<!-- Node2&#45;&gt;Node22 -->
<g id="edge26" class="edge"><title>Node2&#45;&gt;Node22</title>
<path fill="none" stroke="midnightblue" d="M208.285,-105.012C234.227,-89.0007 274.563,-64.1053 296.505,-50.563"/>
<polygon fill="midnightblue" stroke="midnightblue" points="206.111,-102.24 199.44,-110.471 209.788,-108.197 206.111,-102.24"/>
</g>
<!-- Node4 -->
<g id="node4" class="node"><title>Node4</title>
<g id="a_node4"><a xlink:href="../../de/d45/cipioconnection_8h.html#a62fc61ed294b1d1543960582f0071b22" target="_top" xlink:title="close the communication channels of the given connection and remove it from the active connections li...">
<polygon fill="none" stroke="black" points="406.5,-263 406.5,-293 597.5,-293 597.5,-263 406.5,-263"/>
<text text-anchor="start" x="414.5" y="-281" font-family="Helvetica,sans-Serif" font-size="10.00">CloseCommunicationChannels</text>
<text text-anchor="middle" x="502" y="-270" font-family="Helvetica,sans-Serif" font-size="10.00">AndRemoveFromActiveConnectionsList</text>
</a>
</g>
</g>
<!-- Node3&#45;&gt;Node4 -->
<g id="edge3" class="edge"><title>Node3&#45;&gt;Node4</title>
<path fill="none" stroke="midnightblue" d="M364.507,-245.884C386.816,-251.133 413.298,-257.364 436.972,-262.935"/>
<polygon fill="midnightblue" stroke="midnightblue" points="365.112,-242.431 354.576,-243.547 363.509,-249.245 365.112,-242.431"/>
</g>
<!-- Node11 -->
<g id="node11" class="node"><title>Node11</title>
<g id="a_node11"><a xlink:href="../../d2/da3/cipconnectionmanager_8h.html#a9367d6d6edfd5bd276ead18619f4d74e" target="_top" xlink:title="Close the given connection. ">
<polygon fill="none" stroke="black" points="456,-224.5 456,-243.5 548,-243.5 548,-224.5 456,-224.5"/>
<text text-anchor="middle" x="502" y="-231.5" font-family="Helvetica,sans-Serif" font-size="10.00">CloseConnection</text>
</a>
</g>
</g>
<!-- Node3&#45;&gt;Node11 -->
<g id="edge10" class="edge"><title>Node3&#45;&gt;Node11</title>
<path fill="none" stroke="midnightblue" d="M369.096,-234C396.744,-234 429.815,-234 455.926,-234"/>
<polygon fill="midnightblue" stroke="midnightblue" points="368.791,-230.5 358.791,-234 368.791,-237.5 368.791,-230.5"/>
</g>
<!-- Node5 -->
<g id="node5" class="node"><title>Node5</title>
<g id="a_node5"><a xlink:href="../../df/d03/cipioconnection_8c.html#a730b410a0cdbc6a456973c0e51568968" target="_top" xlink:title="CloseIoConnection">
<polygon fill="none" stroke="black" points="634,-268.5 634,-287.5 734,-287.5 734,-268.5 634,-268.5"/>
<text text-anchor="middle" x="684" y="-275.5" font-family="Helvetica,sans-Serif" font-size="10.00">CloseIoConnection</text>
</a>
</g>
</g>
<!-- Node4&#45;&gt;Node5 -->
<g id="edge4" class="edge"><title>Node4&#45;&gt;Node5</title>
<path fill="none" stroke="midnightblue" d="M607.842,-278C616.728,-278 625.415,-278 633.544,-278"/>
<polygon fill="midnightblue" stroke="midnightblue" points="607.744,-274.5 597.744,-278 607.744,-281.5 607.744,-274.5"/>
</g>
<!-- Node6 -->
<g id="node6" class="node"><title>Node6</title>
<g id="a_node6"><a xlink:href="../../df/d03/cipioconnection_8c.html#ab3282f146a3ea91c90cf14c32206ee8c" target="_top" xlink:title="SetIoConnectionCallbacks">
<polygon fill="none" stroke="black" points="770.5,-268.5 770.5,-287.5 903.5,-287.5 903.5,-268.5 770.5,-268.5"/>
<text text-anchor="middle" x="837" y="-275.5" font-family="Helvetica,sans-Serif" font-size="10.00">SetIoConnectionCallbacks</text>
</a>
</g>
</g>
<!-- Node5&#45;&gt;Node6 -->
<g id="edge5" class="edge"><title>Node5&#45;&gt;Node6</title>
<path fill="none" stroke="midnightblue" d="M744.033,-278C752.702,-278 761.675,-278 770.465,-278"/>
<polygon fill="midnightblue" stroke="midnightblue" points="744.025,-274.5 734.025,-278 744.025,-281.5 744.025,-274.5"/>
</g>
<!-- Node7 -->
<g id="node7" class="node"><title>Node7</title>
<g id="a_node7"><a xlink:href="../../de/d45/cipioconnection_8h.html#a43e270b3f9b9f6296b12285c320c95aa" target="_top" xlink:title="Setup all data in order to establish an IO connection. ">
<polygon fill="none" stroke="black" points="960.5,-268.5 960.5,-287.5 1075.5,-287.5 1075.5,-268.5 960.5,-268.5"/>
<text text-anchor="middle" x="1018" y="-275.5" font-family="Helvetica,sans-Serif" font-size="10.00">EstablishIoConnection</text>
</a>
</g>
</g>
<!-- Node6&#45;&gt;Node7 -->
<g id="edge6" class="edge"><title>Node6&#45;&gt;Node7</title>
<path fill="none" stroke="midnightblue" d="M913.764,-278C929.33,-278 945.464,-278 960.221,-278"/>
<polygon fill="midnightblue" stroke="midnightblue" points="913.637,-274.5 903.637,-278 913.637,-281.5 913.637,-274.5"/>
</g>
<!-- Node8 -->
<g id="node8" class="node"><title>Node8</title>
<g id="a_node8"><a xlink:href="../../d2/da3/cipconnectionmanager_8h.html#a5ab0de6894d23e8fe84a6b46797c2212" target="_top" xlink:title="Initialize the data of the connection manager object. ">
<polygon fill="none" stroke="black" points="1146.5,-230.5 1146.5,-249.5 1263.5,-249.5 1263.5,-230.5 1146.5,-230.5"/>
<text text-anchor="middle" x="1205" y="-237.5" font-family="Helvetica,sans-Serif" font-size="10.00">ConnectionManagerInit</text>
</a>
</g>
</g>
<!-- Node7&#45;&gt;Node8 -->
<g id="edge7" class="edge"><title>Node7&#45;&gt;Node8</title>
<path fill="none" stroke="midnightblue" d="M1075.52,-266.39C1101.83,-260.986 1132.74,-254.636 1157.65,-249.52"/>
<polygon fill="midnightblue" stroke="midnightblue" points="1074.77,-262.97 1065.68,-268.411 1076.18,-269.827 1074.77,-262.97"/>
</g>
<!-- Node9 -->
<g id="node9" class="node"><title>Node9</title>
<g id="a_node9"><a xlink:href="../../d2/dc9/group__CIP__API.html#ga5d4979945d124e28668b264c3823db1c" target="_top" xlink:title="Initialize and setup the CIP&#45;stack. ">
<polygon fill="none" stroke="black" points="1351.5,-207.5 1351.5,-226.5 1422.5,-226.5 1422.5,-207.5 1351.5,-207.5"/>
<text text-anchor="middle" x="1387" y="-214.5" font-family="Helvetica,sans-Serif" font-size="10.00">CipStackInit</text>
</a>
</g>
</g>
<!-- Node8&#45;&gt;Node9 -->
<g id="edge8" class="edge"><title>Node8&#45;&gt;Node9</title>
<path fill="none" stroke="midnightblue" d="M1273.9,-231.324C1300.26,-227.955 1329.33,-224.242 1351.25,-221.44"/>
<polygon fill="midnightblue" stroke="midnightblue" points="1273.42,-227.857 1263.94,-232.596 1274.31,-234.8 1273.42,-227.857"/>
</g>
<!-- Node10 -->
<g id="node10" class="node"><title>Node10</title>
<g id="a_node10"><a xlink:href="../../d9/dfb/POSIX_2main_8c.html#ad338a7dbc41dc40bcecd0479377ef207" target="_top" xlink:title="main">
<polygon fill="none" stroke="black" points="1496,-106.5 1496,-125.5 1534,-125.5 1534,-106.5 1496,-106.5"/>
<text text-anchor="middle" x="1515" y="-113.5" font-family="Helvetica,sans-Serif" font-size="10.00">main</text>
</a>
</g>
</g>
<!-- Node9&#45;&gt;Node10 -->
<g id="edge9" class="edge"><title>Node9&#45;&gt;Node10</title>
<path fill="none" stroke="midnightblue" d="M1410.48,-201.727C1424.93,-191.68 1443.93,-178.026 1460,-165 1475.93,-152.086 1493.32,-135.894 1503.95,-125.744"/>
<polygon fill="midnightblue" stroke="midnightblue" points="1408.39,-198.919 1402.14,-207.478 1412.36,-204.682 1408.39,-198.919"/>
</g>
<!-- Node12 -->
<g id="node12" class="node"><title>Node12</title>
<g id="a_node12"><a xlink:href="../../d2/d11/cipclass3connection_8h.html#a45bd741b44137164c07a6ce09a7a9a9d" target="_top" xlink:title="Check if Class3 connection is available and if yes setup all data. ">
<polygon fill="none" stroke="black" points="949.5,-230.5 949.5,-249.5 1086.5,-249.5 1086.5,-230.5 949.5,-230.5"/>
<text text-anchor="middle" x="1018" y="-237.5" font-family="Helvetica,sans-Serif" font-size="10.00">EstablishClass3Connection</text>
</a>
</g>
</g>
<!-- Node11&#45;&gt;Node12 -->
<g id="edge11" class="edge"><title>Node11&#45;&gt;Node12</title>
<path fill="none" stroke="midnightblue" d="M558.41,-234.647C653.299,-235.754 846.58,-238.011 949.299,-239.21"/>
<polygon fill="midnightblue" stroke="midnightblue" points="558.204,-231.144 548.164,-234.527 558.122,-238.144 558.204,-231.144"/>
</g>
<!-- Node12&#45;&gt;Node8 -->
<g id="edge12" class="edge"><title>Node12&#45;&gt;Node8</title>
<path fill="none" stroke="midnightblue" d="M1096.81,-240C1113.42,-240 1130.67,-240 1146.36,-240"/>
<polygon fill="midnightblue" stroke="midnightblue" points="1096.57,-236.5 1086.57,-240 1096.57,-243.5 1096.57,-236.5"/>
</g>
<!-- Node14 -->
<g id="node14" class="node"><title>Node14</title>
<g id="a_node14"><a xlink:href="../../db/d4f/generic__networkhandler_8c.html#ab561fc66fe48a0cf95be3d152b297dd9" target="_top" xlink:title="CheckEncapsulationInactivity">
<polygon fill="none" stroke="black" points="1132,-67.5 1132,-86.5 1278,-86.5 1278,-67.5 1132,-67.5"/>
<text text-anchor="middle" x="1205" y="-74.5" font-family="Helvetica,sans-Serif" font-size="10.00">CheckEncapsulationInactivity</text>
</a>
</g>
</g>
<!-- Node13&#45;&gt;Node14 -->
<g id="edge14" class="edge"><title>Node13&#45;&gt;Node14</title>
<path fill="none" stroke="midnightblue" d="M721.258,-107.211C736.166,-102.513 753.724,-97.6894 770,-95 895.927,-74.1929 1045.05,-73.0306 1131.65,-74.6321"/>
<polygon fill="midnightblue" stroke="midnightblue" points="719.835,-103.993 711.408,-110.416 722.001,-110.65 719.835,-103.993"/>
</g>
<!-- Node15 -->
<g id="node15" class="node"><title>Node15</title>
<g id="a_node15"><a xlink:href="../../da/dc2/generic__networkhandler_8h.html#a2f01af81d3e5018d9980e2bc28c9078a" target="_top" xlink:title="NetworkHandlerProcessOnce">
<polygon fill="none" stroke="black" points="1314,-77.5 1314,-96.5 1460,-96.5 1460,-77.5 1314,-77.5"/>
<text text-anchor="middle" x="1387" y="-84.5" font-family="Helvetica,sans-Serif" font-size="10.00">NetworkHandlerProcessOnce</text>
</a>
</g>
</g>
<!-- Node13&#45;&gt;Node15 -->
<g id="edge25" class="edge"><title>Node13&#45;&gt;Node15</title>
<path fill="none" stroke="midnightblue" d="M708.199,-104.923C724.715,-95.0457 747.825,-82.9083 770,-77 988.319,-18.8311 1054.01,-28.45 1278,-58 1305.91,-61.6818 1336.85,-70.4965 1358.44,-77.4483"/>
<polygon fill="midnightblue" stroke="midnightblue" points="705.97,-102.186 699.294,-110.414 709.643,-108.145 705.97,-102.186"/>
</g>
<!-- Node16 -->
<g id="node16" class="node"><title>Node16</title>
<g id="a_node16"><a xlink:href="../../d2/dc9/group__CIP__API.html#gab9ff230d61fc6dedd90f8b95e9a27707" target="_top" xlink:title="Inform the encapsulation layer that the remote host has closed the connection. ">
<polygon fill="none" stroke="black" points="798.5,-192.5 798.5,-211.5 875.5,-211.5 875.5,-192.5 798.5,-192.5"/>
<text text-anchor="middle" x="837" y="-199.5" font-family="Helvetica,sans-Serif" font-size="10.00">CloseSession</text>
</a>
</g>
</g>
<!-- Node13&#45;&gt;Node16 -->
<g id="edge17" class="edge"><title>Node13&#45;&gt;Node16</title>
<path fill="none" stroke="midnightblue" d="M703.156,-136.499C719.555,-150.626 744.9,-170.593 770,-183 778.872,-187.385 788.929,-190.924 798.47,-193.705"/>
<polygon fill="midnightblue" stroke="midnightblue" points="705.264,-133.693 695.444,-129.716 700.641,-138.949 705.264,-133.693"/>
</g>
<!-- Node17 -->
<g id="node17" class="node"><title>Node17</title>
<g id="a_node17"><a xlink:href="../../d4/d91/group__ENCAP.html#ga1261bd2441f744c38d7a3f8d8c16c391" target="_top" xlink:title="Shutdown the encapsulation layer. ">
<polygon fill="none" stroke="black" points="775,-154.5 775,-173.5 899,-173.5 899,-154.5 775,-154.5"/>
<text text-anchor="middle" x="837" y="-161.5" font-family="Helvetica,sans-Serif" font-size="10.00">EncapsulationShutDown</text>
</a>
</g>
</g>
<!-- Node13&#45;&gt;Node17 -->
<g id="edge18" class="edge"><title>Node13&#45;&gt;Node17</title>
<path fill="none" stroke="midnightblue" d="M727.674,-132.435C751.667,-139.426 781.152,-148.018 803.299,-154.471"/>
<polygon fill="midnightblue" stroke="midnightblue" points="728.345,-128.985 717.765,-129.547 726.386,-135.705 728.345,-128.985"/>
</g>
<!-- Node19 -->
<g id="node19" class="node"><title>Node19</title>
<g id="a_node19"><a xlink:href="../../d2/dbd/encap_8c.html#ace57d7ca02ba16c620014fdd4f842949" target="_top" xlink:title="HandleReceivedUnregister\lSessionCommand">
<polygon fill="none" stroke="black" points="770,-105 770,-135 904,-135 904,-105 770,-105"/>
<text text-anchor="start" x="778" y="-123" font-family="Helvetica,sans-Serif" font-size="10.00">HandleReceivedUnregister</text>
<text text-anchor="middle" x="837" y="-112" font-family="Helvetica,sans-Serif" font-size="10.00">SessionCommand</text>
</a>
</g>
</g>
<!-- Node13&#45;&gt;Node19 -->
<g id="edge21" class="edge"><title>Node13&#45;&gt;Node19</title>
<path fill="none" stroke="midnightblue" d="M738.915,-120C748.966,-120 759.574,-120 769.941,-120"/>
<polygon fill="midnightblue" stroke="midnightblue" points="738.675,-116.5 728.675,-120 738.675,-123.5 738.675,-116.5"/>
</g>
<!-- Node14&#45;&gt;Node15 -->
<g id="edge15" class="edge"><title>Node14&#45;&gt;Node15</title>
<path fill="none" stroke="midnightblue" d="M1288.44,-81.5799C1296.91,-82.0504 1305.46,-82.5258 1313.81,-82.9893"/>
<polygon fill="midnightblue" stroke="midnightblue" points="1288.35,-78.0699 1278.18,-81.0098 1287.97,-85.0592 1288.35,-78.0699"/>
</g>
<!-- Node15&#45;&gt;Node10 -->
<g id="edge16" class="edge"><title>Node15&#45;&gt;Node10</title>
<path fill="none" stroke="midnightblue" d="M1439.58,-98.8725C1459.62,-103.484 1481.25,-108.462 1496,-111.856"/>
<polygon fill="midnightblue" stroke="midnightblue" points="1440.14,-95.4083 1429.61,-96.5761 1438.57,-102.23 1440.14,-95.4083"/>
</g>
<!-- Node18 -->
<g id="node18" class="node"><title>Node18</title>
<g id="a_node18"><a xlink:href="../../d2/dc9/group__CIP__API.html#gaa57b527530adc2acda6febc500fd6831" target="_top" xlink:title="Shutdown of the CIP stack. ">
<polygon fill="none" stroke="black" points="1336.5,-136.5 1336.5,-155.5 1437.5,-155.5 1437.5,-136.5 1336.5,-136.5"/>
<text text-anchor="middle" x="1387" y="-143.5" font-family="Helvetica,sans-Serif" font-size="10.00">ShutdownCipStack</text>
</a>
</g>
</g>
<!-- Node17&#45;&gt;Node18 -->
<g id="edge19" class="edge"><title>Node17&#45;&gt;Node18</title>
<path fill="none" stroke="midnightblue" d="M909.253,-161.66C1022.01,-157.956 1238.78,-150.836 1336.31,-147.632"/>
<polygon fill="midnightblue" stroke="midnightblue" points="908.883,-158.17 899.003,-161.996 909.113,-165.166 908.883,-158.17"/>
</g>
<!-- Node18&#45;&gt;Node10 -->
<g id="edge20" class="edge"><title>Node18&#45;&gt;Node10</title>
<path fill="none" stroke="midnightblue" d="M1438.05,-134.084C1458.47,-129.221 1480.79,-123.907 1495.92,-120.306"/>
<polygon fill="midnightblue" stroke="midnightblue" points="1437.13,-130.704 1428.21,-136.425 1438.75,-137.514 1437.13,-130.704"/>
</g>
<!-- Node20 -->
<g id="node20" class="node"><title>Node20</title>
<g id="a_node20"><a xlink:href="../../d2/dc9/group__CIP__API.html#gadeace7aa415ce7da686b522c85d131d1" target="_top" xlink:title="Notify the encapsulation layer that an explicit message has been received via TCP. ">
<polygon fill="none" stroke="black" points="940,-109.5 940,-128.5 1096,-128.5 1096,-109.5 940,-109.5"/>
<text text-anchor="middle" x="1018" y="-116.5" font-family="Helvetica,sans-Serif" font-size="10.00">HandleReceivedExplictTcpData</text>
</a>
</g>
</g>
<!-- Node19&#45;&gt;Node20 -->
<g id="edge22" class="edge"><title>Node19&#45;&gt;Node20</title>
<path fill="none" stroke="midnightblue" d="M914.37,-119.573C922.836,-119.526 931.462,-119.478 939.936,-119.431"/>
<polygon fill="midnightblue" stroke="midnightblue" points="914.125,-116.075 904.144,-119.63 914.164,-123.074 914.125,-116.075"/>
</g>
<!-- Node21 -->
<g id="node21" class="node"><title>Node21</title>
<g id="a_node21"><a xlink:href="../../db/d4f/generic__networkhandler_8c.html#aca5593b7dd39d7a7b437999a367102d6" target="_top" xlink:title="Handles data on an established TCP connection, processed connection is given by socket. ">
<polygon fill="none" stroke="black" points="1141,-108.5 1141,-127.5 1269,-127.5 1269,-108.5 1141,-108.5"/>
<text text-anchor="middle" x="1205" y="-115.5" font-family="Helvetica,sans-Serif" font-size="10.00">HandleDataOnTcpSocket</text>
</a>
</g>
</g>
<!-- Node20&#45;&gt;Node21 -->
<g id="edge23" class="edge"><title>Node20&#45;&gt;Node21</title>
<path fill="none" stroke="midnightblue" d="M1106.29,-118.528C1117.92,-118.465 1129.66,-118.402 1140.77,-118.342"/>
<polygon fill="midnightblue" stroke="midnightblue" points="1106.1,-115.029 1096.12,-118.583 1106.14,-122.029 1106.1,-115.029"/>
</g>
<!-- Node21&#45;&gt;Node15 -->
<g id="edge24" class="edge"><title>Node21&#45;&gt;Node15</title>
<path fill="none" stroke="midnightblue" d="M1271.47,-106.725C1290.9,-103.378 1311.99,-99.7466 1330.71,-96.5224"/>
<polygon fill="midnightblue" stroke="midnightblue" points="1270.74,-103.299 1261.47,-108.446 1271.92,-110.198 1270.74,-103.299"/>
</g>
<!-- Node22&#45;&gt;Node10 -->
<g id="edge27" class="edge"><title>Node22&#45;&gt;Node10</title>
<path fill="none" stroke="midnightblue" d="M376.321,-29.8169C449.498,-17.6769 574.652,-0 683,-0 683,-0 683,-0 1206,-0 1322.86,-0 1357.11,-12.577 1460,-68 1478.55,-77.9938 1496.01,-95.5426 1505.82,-106.427"/>
<polygon fill="midnightblue" stroke="midnightblue" points="375.631,-26.3838 366.348,-31.4907 376.789,-33.2872 375.631,-26.3838"/>
</g>
</g>
</svg>
