<?xml version="1.0" encoding="UTF-8" standalone="no"?>
<!DOCTYPE svg PUBLIC "-//W3C//DTD SVG 1.1//EN"
 "http://www.w3.org/Graphics/SVG/1.1/DTD/svg11.dtd">
<!-- Generated by graphviz version 2.36.0 (20140111.2315)
 -->
<!-- Title: SetSocketToNonBlocking Pages: 1 -->
<!--zoomable 357 -->
<svg id="main" version="1.1" xmlns="http://www.w3.org/2000/svg" xmlns:xlink="http://www.w3.org/1999/xlink" xml:space="preserve" onload="init(evt)">
<style type="text/css"><![CDATA[
.edge:hover path { stroke: red; }
.edge:hover polygon { stroke: red; fill: red; }
]]></style>
<script type="text/javascript"><![CDATA[
var edges = document.getElementsByTagName('g');
if (edges && edges.length) {
  for (var i=0;i<edges.length;i++) {
    if (edges[i].id.substr(0,4)=='edge') {
      edges[i].setAttribute('class','edge');
    }
  }
}
]]></script>
        <defs>
                <circle id="rim" cx="0" cy="0" r="7"/>
                <circle id="rim2" cx="0" cy="0" r="3.5"/>
                <g id="zoomPlus">
                        <use xlink:href="#rim" fill="#404040">
                                <set attributeName="fill" to="#808080" begin="zoomplus.mouseover" end="zoomplus.mouseout"/>
                        </use>
                        <path d="M-4,0h8M0,-4v8" fill="none" stroke="white" stroke-width="1.5" pointer-events="none"/>
                </g>
                <g id="zoomMin">
                        <use xlink:href="#rim" fill="#404040">
                                <set attributeName="fill" to="#808080" begin="zoomminus.mouseover" end="zoomminus.mouseout"/>
                        </use>
                        <path d="M-4,0h8" fill="none" stroke="white" stroke-width="1.5" pointer-events="none"/>
                </g>
                <g id="dirArrow">
                        <path fill="none" stroke="white" stroke-width="1.5" d="M0,-3.0v7 M-2.5,-0.5L0,-3.0L2.5,-0.5"/>
                </g>
               <g id="resetDef">
                       <use xlink:href="#rim2" fill="#404040">
                               <set attributeName="fill" to="#808080" begin="reset.mouseover" end="reset.mouseout"/>
                       </use>
               </g>
        </defs>

<script type="text/javascript">
var viewWidth = 1392;
var viewHeight = 357;
var sectionId = 'dynsection-9';
</script>
<script xlink:href="../../svgpan.js"/>
<svg id="graph" class="graph">
<g id="viewport">
<title>SetSocketToNonBlocking</title>
<!-- Node1 -->
<g id="node1" class="node"><title>Node1</title>
<polygon fill="#bfbfbf" stroke="black" points="0.5,-64.5 0.5,-83.5 129.5,-83.5 129.5,-64.5 0.5,-64.5"/>
<text text-anchor="middle" x="65" y="-71.5" font-family="Helvetica,sans-Serif" font-size="10.00">SetSocketToNonBlocking</text>
</g>
<!-- Node2 -->
<g id="node2" class="node"><title>Node2</title>
<g id="a_node2"><a xlink:href="../../d5/dc5/group__CIP__CALLBACK__API.html#ga5807bcc51621775c9aedbf58d3a7a6d3" target="_top" xlink:title="create a new UDP socket for the connection manager ">
<polygon fill="none" stroke="black" points="166.5,-152.5 166.5,-171.5 261.5,-171.5 261.5,-152.5 166.5,-152.5"/>
<text text-anchor="middle" x="214" y="-159.5" font-family="Helvetica,sans-Serif" font-size="10.00">CreateUdpSocket</text>
</a>
</g>
</g>
<!-- Node1&#45;&gt;Node2 -->
<g id="edge1" class="edge"><title>Node1&#45;&gt;Node2</title>
<path fill="none" stroke="midnightblue" d="M90.7103,-88.7925C120.984,-106.915 171.395,-137.094 197.008,-152.427"/>
<polygon fill="midnightblue" stroke="midnightblue" points="92.3892,-85.7184 82.0114,-83.5851 88.7938,-91.7245 92.3892,-85.7184"/>
</g>
<!-- Node17 -->
<g id="node17" class="node"><title>Node17</title>
<g id="a_node17"><a xlink:href="../../da/dc2/generic__networkhandler_8h.html#aa49065f73f4d0f0ab04fb0b35d791e5d" target="_top" xlink:title="The platform independent part of network handler initialization routine. ">
<polygon fill="none" stroke="black" points="924.5,-0.5 924.5,-19.5 1047.5,-19.5 1047.5,-0.5 924.5,-0.5"/>
<text text-anchor="middle" x="986" y="-7.5" font-family="Helvetica,sans-Serif" font-size="10.00">NetworkHandlerInitialize</text>
</a>
</g>
</g>
<!-- Node1&#45;&gt;Node17 -->
<g id="edge23" class="edge"><title>Node1&#45;&gt;Node17</title>
<path fill="none" stroke="midnightblue" d="M103.896,-61.2792C163.735,-42.3571 284.099,-9 389,-9 389,-9 389,-9 608,-9 719.595,-9 849.77,-9.44358 924.276,-9.73987"/>
<polygon fill="midnightblue" stroke="midnightblue" points="102.587,-58.0232 94.1332,-64.409 104.724,-64.6891 102.587,-58.0232"/>
</g>
<!-- Node3 -->
<g id="node3" class="node"><title>Node3</title>
<g id="a_node3"><a xlink:href="../../df/d03/cipioconnection_8c.html#add645b42730b2cea369523949c6b9745" target="_top" xlink:title="Open a Point2Point connection dependent on pa_direction. ">
<polygon fill="none" stroke="black" points="534,-319 534,-349 680,-349 680,-319 534,-319"/>
<text text-anchor="start" x="542" y="-337" font-family="Helvetica,sans-Serif" font-size="10.00">OpenConsumingPointToPoint</text>
<text text-anchor="middle" x="607" y="-326" font-family="Helvetica,sans-Serif" font-size="10.00">Connection</text>
</a>
</g>
</g>
<!-- Node2&#45;&gt;Node3 -->
<g id="edge2" class="edge"><title>Node2&#45;&gt;Node3</title>
<path fill="none" stroke="midnightblue" d="M223.039,-180.85C235.212,-206.947 260.899,-253.516 298,-277 369.451,-322.226 467.74,-333.54 533.901,-335.454"/>
<polygon fill="midnightblue" stroke="midnightblue" points="226.196,-179.335 218.911,-171.641 219.808,-182.198 226.196,-179.335"/>
</g>
<!-- Node5 -->
<g id="node5" class="node"><title>Node5</title>
<g id="a_node5"><a xlink:href="../../df/d03/cipioconnection_8c.html#aa3b58fd216ec6712abc29ef84b33006d" target="_top" xlink:title="OpenProducingPointToPoint\lConnection">
<polygon fill="none" stroke="black" points="537,-270 537,-300 677,-300 677,-270 537,-270"/>
<text text-anchor="start" x="545" y="-288" font-family="Helvetica,sans-Serif" font-size="10.00">OpenProducingPointToPoint</text>
<text text-anchor="middle" x="607" y="-277" font-family="Helvetica,sans-Serif" font-size="10.00">Connection</text>
</a>
</g>
</g>
<!-- Node2&#45;&gt;Node5 -->
<g id="edge4" class="edge"><title>Node2&#45;&gt;Node5</title>
<path fill="none" stroke="midnightblue" d="M228.072,-179.754C242.828,-198.343 268.637,-226.769 298,-241 373.949,-277.81 471.925,-286.077 536.747,-286.931"/>
<polygon fill="midnightblue" stroke="midnightblue" points="230.794,-177.552 221.923,-171.758 225.245,-181.819 230.794,-177.552"/>
</g>
<!-- Node6 -->
<g id="node6" class="node"><title>Node6</title>
<g id="a_node6"><a xlink:href="../../df/d03/cipioconnection_8c.html#a9e2ce4666173987646cf60ce3422d7b4" target="_top" xlink:title="OpenMulticastConnection">
<polygon fill="none" stroke="black" points="325.5,-212.5 325.5,-231.5 454.5,-231.5 454.5,-212.5 325.5,-212.5"/>
<text text-anchor="middle" x="390" y="-219.5" font-family="Helvetica,sans-Serif" font-size="10.00">OpenMulticastConnection</text>
</a>
</g>
</g>
<!-- Node2&#45;&gt;Node6 -->
<g id="edge6" class="edge"><title>Node2&#45;&gt;Node6</title>
<path fill="none" stroke="midnightblue" d="M243.999,-175.864C259.746,-183.063 279.687,-191.655 298,-198 313.901,-203.51 331.738,-208.471 347.379,-212.433"/>
<polygon fill="midnightblue" stroke="midnightblue" points="245.334,-172.625 234.789,-171.594 242.39,-178.976 245.334,-172.625"/>
</g>
<!-- Node8 -->
<g id="node8" class="node"><title>Node8</title>
<g id="a_node8"><a xlink:href="../../df/d03/cipioconnection_8c.html#aeb3ea12ff2e504792175536552f0b85a" target="_top" xlink:title="OpenProducingMulticastConnection2">
<polygon fill="none" stroke="black" points="518,-155.5 518,-174.5 696,-174.5 696,-155.5 518,-155.5"/>
<text text-anchor="middle" x="607" y="-162.5" font-family="Helvetica,sans-Serif" font-size="10.00">OpenProducingMulticastConnection2</text>
</a>
</g>
</g>
<!-- Node2&#45;&gt;Node8 -->
<g id="edge22" class="edge"><title>Node2&#45;&gt;Node8</title>
<path fill="none" stroke="midnightblue" d="M271.728,-163.524C280.523,-163.715 289.506,-163.884 298,-164 372.052,-165.012 456.129,-165.222 517.708,-165.201"/>
<polygon fill="midnightblue" stroke="midnightblue" points="271.606,-160.021 261.529,-163.292 271.446,-167.019 271.606,-160.021"/>
</g>
<!-- Node14 -->
<g id="node14" class="node"><title>Node14</title>
<g id="a_node14"><a xlink:href="../../df/d03/cipioconnection_8c.html#abadaf226b9a8603d441da66c826c8d01" target="_top" xlink:title="OpenConsumingPointToPoint\lConnection2">
<polygon fill="none" stroke="black" points="317,-125 317,-155 463,-155 463,-125 317,-125"/>
<text text-anchor="start" x="325" y="-143" font-family="Helvetica,sans-Serif" font-size="10.00">OpenConsumingPointToPoint</text>
<text text-anchor="middle" x="390" y="-132" font-family="Helvetica,sans-Serif" font-size="10.00">Connection2</text>
</a>
</g>
</g>
<!-- Node2&#45;&gt;Node14 -->
<g id="edge16" class="edge"><title>Node2&#45;&gt;Node14</title>
<path fill="none" stroke="midnightblue" d="M271.811,-154.817C286.133,-153.006 301.701,-151.038 316.673,-149.145"/>
<polygon fill="midnightblue" stroke="midnightblue" points="271.111,-151.378 261.629,-156.104 271.989,-158.322 271.111,-151.378"/>
</g>
<!-- Node15 -->
<g id="node15" class="node"><title>Node15</title>
<g id="a_node15"><a xlink:href="../../df/d03/cipioconnection_8c.html#a2d81164d758ab14b89a56106137d489f" target="_top" xlink:title="OpenProducingPointToPoint\lConnection2">
<polygon fill="none" stroke="black" points="320,-76 320,-106 460,-106 460,-76 320,-76"/>
<text text-anchor="start" x="328" y="-94" font-family="Helvetica,sans-Serif" font-size="10.00">OpenProducingPointToPoint</text>
<text text-anchor="middle" x="390" y="-83" font-family="Helvetica,sans-Serif" font-size="10.00">Connection2</text>
</a>
</g>
</g>
<!-- Node2&#45;&gt;Node15 -->
<g id="edge18" class="edge"><title>Node2&#45;&gt;Node15</title>
<path fill="none" stroke="midnightblue" d="M238.18,-146.724C254.392,-136.587 276.845,-123.611 298,-115 306.172,-111.674 314.945,-108.683 323.703,-106.034"/>
<polygon fill="midnightblue" stroke="midnightblue" points="235.966,-143.985 229.414,-152.31 239.728,-149.888 235.966,-143.985"/>
</g>
<!-- Node16 -->
<g id="node16" class="node"><title>Node16</title>
<g id="a_node16"><a xlink:href="../../df/d03/cipioconnection_8c.html#aa90ccc8c4124b8013429b65af9aed1e7" target="_top" xlink:title="OpenConsumingMulticastConnection2">
<polygon fill="none" stroke="black" points="298,-37.5 298,-56.5 482,-56.5 482,-37.5 298,-37.5"/>
<text text-anchor="middle" x="390" y="-44.5" font-family="Helvetica,sans-Serif" font-size="10.00">OpenConsumingMulticastConnection2</text>
</a>
</g>
</g>
<!-- Node2&#45;&gt;Node16 -->
<g id="edge20" class="edge"><title>Node2&#45;&gt;Node16</title>
<path fill="none" stroke="midnightblue" d="M225.7,-143.494C239.485,-121.408 265.58,-85.0769 298,-66 304.538,-62.1531 311.742,-59.0783 319.148,-56.6218"/>
<polygon fill="midnightblue" stroke="midnightblue" points="222.579,-141.891 220.407,-152.261 228.572,-145.508 222.579,-141.891"/>
</g>
<!-- Node4 -->
<g id="node4" class="node"><title>Node4</title>
<g id="a_node4"><a xlink:href="../../df/d03/cipioconnection_8c.html#a7e2d3b42cbbf6cca784c55d10ba7063e" target="_top" xlink:title="OpenCommunicationChannels1">
<polygon fill="none" stroke="black" points="732.5,-253.5 732.5,-272.5 887.5,-272.5 887.5,-253.5 732.5,-253.5"/>
<text text-anchor="middle" x="810" y="-260.5" font-family="Helvetica,sans-Serif" font-size="10.00">OpenCommunicationChannels1</text>
</a>
</g>
</g>
<!-- Node3&#45;&gt;Node4 -->
<g id="edge3" class="edge"><title>Node3&#45;&gt;Node4</title>
<path fill="none" stroke="midnightblue" d="M674.523,-315.943C681.806,-313.717 689.083,-311.382 696,-309 728.443,-297.826 765.077,-282.373 787.605,-272.532"/>
<polygon fill="midnightblue" stroke="midnightblue" points="673.197,-312.687 664.62,-318.907 675.204,-319.393 673.197,-312.687"/>
</g>
<!-- Node5&#45;&gt;Node4 -->
<g id="edge5" class="edge"><title>Node5&#45;&gt;Node4</title>
<path fill="none" stroke="midnightblue" d="M687.339,-276.316C702.196,-274.69 717.7,-272.993 732.471,-271.376"/>
<polygon fill="midnightblue" stroke="midnightblue" points="686.733,-272.862 677.173,-277.429 687.494,-279.82 686.733,-272.862"/>
</g>
<!-- Node6&#45;&gt;Node4 -->
<g id="edge7" class="edge"><title>Node6&#45;&gt;Node4</title>
<path fill="none" stroke="midnightblue" d="M465.274,-229.285C540.473,-236.661 656.227,-248.015 732.289,-255.476"/>
<polygon fill="midnightblue" stroke="midnightblue" points="465.234,-225.765 454.94,-228.272 464.551,-232.731 465.234,-225.765"/>
</g>
<!-- Node7 -->
<g id="node7" class="node"><title>Node7</title>
<g id="a_node7"><a xlink:href="../../df/d03/cipioconnection_8c.html#a5dea6fc1be0ed4ecf5d9e4f932d52106" target="_top" xlink:title="OpenProducingMulticastConnection">
<polygon fill="none" stroke="black" points="520.5,-193.5 520.5,-212.5 693.5,-212.5 693.5,-193.5 520.5,-193.5"/>
<text text-anchor="middle" x="607" y="-200.5" font-family="Helvetica,sans-Serif" font-size="10.00">OpenProducingMulticastConnection</text>
</a>
</g>
</g>
<!-- Node6&#45;&gt;Node7 -->
<g id="edge8" class="edge"><title>Node6&#45;&gt;Node7</title>
<path fill="none" stroke="midnightblue" d="M464.943,-215.466C482.748,-213.892 501.917,-212.198 520.212,-210.581"/>
<polygon fill="midnightblue" stroke="midnightblue" points="464.287,-212.01 454.634,-216.376 464.904,-218.983 464.287,-212.01"/>
</g>
<!-- Node6&#45;&gt;Node8 -->
<g id="edge10" class="edge"><title>Node6&#45;&gt;Node8</title>
<path fill="none" stroke="midnightblue" d="M441.139,-209.862C454.504,-206.332 468.875,-202.268 482,-198 498.326,-192.691 501.558,-188.938 518,-184 529.826,-180.448 542.733,-177.279 554.928,-174.595"/>
<polygon fill="midnightblue" stroke="midnightblue" points="439.952,-206.554 431.151,-212.453 441.709,-213.33 439.952,-206.554"/>
</g>
<!-- Node7&#45;&gt;Node4 -->
<g id="edge9" class="edge"><title>Node7&#45;&gt;Node4</title>
<path fill="none" stroke="midnightblue" d="M654.481,-215.283C667.911,-218.939 682.567,-223.03 696,-227 724.828,-235.519 757.528,-246.03 780.307,-253.491"/>
<polygon fill="midnightblue" stroke="midnightblue" points="655.057,-211.813 644.49,-212.582 653.23,-218.571 655.057,-211.813"/>
</g>
<!-- Node9 -->
<g id="node9" class="node"><title>Node9</title>
<g id="a_node9"><a xlink:href="../../de/d45/cipioconnection_8h.html#a53b85bce88b582414fc282c95f5626f4" target="_top" xlink:title="Take the data given in the connection object structure and open the necessary communication channels...">
<polygon fill="none" stroke="black" points="735.5,-79.5 735.5,-98.5 884.5,-98.5 884.5,-79.5 735.5,-79.5"/>
<text text-anchor="middle" x="810" y="-86.5" font-family="Helvetica,sans-Serif" font-size="10.00">OpenCommunicationChannels</text>
</a>
</g>
</g>
<!-- Node8&#45;&gt;Node9 -->
<g id="edge11" class="edge"><title>Node8&#45;&gt;Node9</title>
<path fill="none" stroke="midnightblue" d="M658.484,-152.767C670.877,-149.345 684.022,-145.356 696,-141 730.299,-128.528 768.559,-109.861 790.602,-98.6136"/>
<polygon fill="midnightblue" stroke="midnightblue" points="657.49,-149.41 648.742,-155.387 659.308,-156.17 657.49,-149.41"/>
</g>
<!-- Node10 -->
<g id="node10" class="node"><title>Node10</title>
<g id="a_node10"><a xlink:href="../../de/d45/cipioconnection_8h.html#a43e270b3f9b9f6296b12285c320c95aa" target="_top" xlink:title="Setup all data in order to establish an IO connection. ">
<polygon fill="none" stroke="black" points="928.5,-77.5 928.5,-96.5 1043.5,-96.5 1043.5,-77.5 928.5,-77.5"/>
<text text-anchor="middle" x="986" y="-84.5" font-family="Helvetica,sans-Serif" font-size="10.00">EstablishIoConnection</text>
</a>
</g>
</g>
<!-- Node9&#45;&gt;Node10 -->
<g id="edge12" class="edge"><title>Node9&#45;&gt;Node10</title>
<path fill="none" stroke="midnightblue" d="M894.56,-88.0395C906.01,-87.9079 917.539,-87.7754 928.352,-87.6511"/>
<polygon fill="midnightblue" stroke="midnightblue" points="894.499,-84.5399 884.539,-88.1547 894.579,-91.5395 894.499,-84.5399"/>
</g>
<!-- Node11 -->
<g id="node11" class="node"><title>Node11</title>
<g id="a_node11"><a xlink:href="../../d2/da3/cipconnectionmanager_8h.html#a5ab0de6894d23e8fe84a6b46797c2212" target="_top" xlink:title="Initialize the data of the connection manager object. ">
<polygon fill="none" stroke="black" points="1084.5,-67.5 1084.5,-86.5 1201.5,-86.5 1201.5,-67.5 1084.5,-67.5"/>
<text text-anchor="middle" x="1143" y="-74.5" font-family="Helvetica,sans-Serif" font-size="10.00">ConnectionManagerInit</text>
</a>
</g>
</g>
<!-- Node10&#45;&gt;Node11 -->
<g id="edge13" class="edge"><title>Node10&#45;&gt;Node11</title>
<path fill="none" stroke="midnightblue" d="M1053.89,-82.6848C1064.05,-82.0293 1074.45,-81.3579 1084.39,-80.7166"/>
<polygon fill="midnightblue" stroke="midnightblue" points="1053.59,-79.1965 1043.84,-83.3332 1054.04,-86.182 1053.59,-79.1965"/>
</g>
<!-- Node12 -->
<g id="node12" class="node"><title>Node12</title>
<g id="a_node12"><a xlink:href="../../d2/dc9/group__CIP__API.html#ga5d4979945d124e28668b264c3823db1c" target="_top" xlink:title="Initialize and setup the CIP&#45;stack. ">
<polygon fill="none" stroke="black" points="1238.5,-62.5 1238.5,-81.5 1309.5,-81.5 1309.5,-62.5 1238.5,-62.5"/>
<text text-anchor="middle" x="1274" y="-69.5" font-family="Helvetica,sans-Serif" font-size="10.00">CipStackInit</text>
</a>
</g>
</g>
<!-- Node11&#45;&gt;Node12 -->
<g id="edge14" class="edge"><title>Node11&#45;&gt;Node12</title>
<path fill="none" stroke="midnightblue" d="M1211.98,-74.365C1221.08,-74.0124 1230.09,-73.6633 1238.27,-73.346"/>
<polygon fill="midnightblue" stroke="midnightblue" points="1211.57,-70.8785 1201.71,-74.7632 1211.84,-77.8732 1211.57,-70.8785"/>
</g>
<!-- Node13 -->
<g id="node13" class="node"><title>Node13</title>
<g id="a_node13"><a xlink:href="../../d9/dfb/POSIX_2main_8c.html#ad338a7dbc41dc40bcecd0479377ef207" target="_top" xlink:title="main">
<polygon fill="none" stroke="black" points="1346,-41.5 1346,-60.5 1384,-60.5 1384,-41.5 1346,-41.5"/>
<text text-anchor="middle" x="1365" y="-48.5" font-family="Helvetica,sans-Serif" font-size="10.00">main</text>
</a>
</g>
</g>
<!-- Node12&#45;&gt;Node13 -->
<g id="edge15" class="edge"><title>Node12&#45;&gt;Node13</title>
<path fill="none" stroke="midnightblue" d="M1319.61,-61.4731C1328.85,-59.2938 1338.08,-57.1161 1345.71,-55.3154"/>
<polygon fill="midnightblue" stroke="midnightblue" points="1318.59,-58.1177 1309.66,-63.8207 1320.2,-64.9306 1318.59,-58.1177"/>
</g>
<!-- Node14&#45;&gt;Node9 -->
<g id="edge17" class="edge"><title>Node14&#45;&gt;Node9</title>
<path fill="none" stroke="midnightblue" d="M473.158,-130.629C534.57,-123.545 620.577,-113.457 696,-104 709.745,-102.277 724.423,-100.374 738.494,-98.5194"/>
<polygon fill="midnightblue" stroke="midnightblue" points="472.67,-127.162 463.137,-131.784 473.472,-134.116 472.67,-127.162"/>
</g>
<!-- Node15&#45;&gt;Node9 -->
<g id="edge19" class="edge"><title>Node15&#45;&gt;Node9</title>
<path fill="none" stroke="midnightblue" d="M470.059,-90.6217C546.332,-90.2568 660.88,-89.7087 735.296,-89.3527"/>
<polygon fill="midnightblue" stroke="midnightblue" points="470.007,-87.1218 460.024,-90.6697 470.041,-94.1218 470.007,-87.1218"/>
</g>
<!-- Node16&#45;&gt;Node9 -->
<g id="edge21" class="edge"><title>Node16&#45;&gt;Node9</title>
<path fill="none" stroke="midnightblue" d="M492.166,-57.165C567.226,-64.7069 667.844,-74.8169 735.371,-81.6019"/>
<polygon fill="midnightblue" stroke="midnightblue" points="492.515,-53.6826 482.215,-56.1652 491.815,-60.6475 492.515,-53.6826"/>
</g>
<!-- Node17&#45;&gt;Node13 -->
<g id="edge24" class="edge"><title>Node17&#45;&gt;Node13</title>
<path fill="none" stroke="midnightblue" d="M1057.61,-17.6787C1146.74,-27.3726 1294.64,-43.4568 1345.87,-49.0283"/>
<polygon fill="midnightblue" stroke="midnightblue" points="1057.89,-14.1891 1047.57,-16.5874 1057.13,-21.1481 1057.89,-14.1891"/>
</g>
</g>
</svg>
        <g id="navigator" transform="translate(0 0)" fill="#404254">
                <rect fill="#f2f5e9" fill-opacity="0.5" stroke="#606060" stroke-width=".5" x="0" y="0" width="60" height="60"/>
                <use id="zoomplus" xlink:href="#zoomPlus" x="17" y="9" onmousedown="handleZoom(evt,'in')"/>
                <use id="zoomminus" xlink:href="#zoomMin" x="42" y="9" onmousedown="handleZoom(evt,'out')"/>
                <use id="reset" xlink:href="#resetDef" x="30" y="36" onmousedown="handleReset()"/>
                <g id="arrowUp" xlink:href="#dirArrow" transform="translate(30 24)" onmousedown="handlePan(0,-1)">
                  <use xlink:href="#rim" fill="#404040">
                        <set attributeName="fill" to="#808080" begin="arrowUp.mouseover" end="arrowUp.mouseout"/>
                  </use>
                  <path fill="none" stroke="white" stroke-width="1.5" d="M0,-3.0v7 M-2.5,-0.5L0,-3.0L2.5,-0.5"/>
                </g>
                <g id="arrowRight" xlink:href="#dirArrow" transform="rotate(90) translate(36 -43)" onmousedown="handlePan(1,0)">
                  <use xlink:href="#rim" fill="#404040">
                        <set attributeName="fill" to="#808080" begin="arrowRight.mouseover" end="arrowRight.mouseout"/>
                  </use>
                  <path fill="none" stroke="white" stroke-width="1.5" d="M0,-3.0v7 M-2.5,-0.5L0,-3.0L2.5,-0.5"/>
                </g>
                <g id="arrowDown" xlink:href="#dirArrow" transform="rotate(180) translate(-30 -48)" onmousedown="handlePan(0,1)">
                  <use xlink:href="#rim" fill="#404040">
                        <set attributeName="fill" to="#808080" begin="arrowDown.mouseover" end="arrowDown.mouseout"/>
                  </use>
                  <path fill="none" stroke="white" stroke-width="1.5" d="M0,-3.0v7 M-2.5,-0.5L0,-3.0L2.5,-0.5"/>
                </g>
                <g id="arrowLeft" xlink:href="#dirArrow" transform="rotate(270) translate(-36 17)" onmousedown="handlePan(-1,0)">
                  <use xlink:href="#rim" fill="#404040">
                        <set attributeName="fill" to="#808080" begin="arrowLeft.mouseover" end="arrowLeft.mouseout"/>
                  </use>
                  <path fill="none" stroke="white" stroke-width="1.5" d="M0,-3.0v7 M-2.5,-0.5L0,-3.0L2.5,-0.5"/>
                </g>
        </g>
        <svg viewBox="0 0 15 15" width="100%" height="30px" preserveAspectRatio="xMaxYMin meet">
         <g id="arrow_out" transform="scale(0.3 0.3)">
          <a xlink:href="WIN32_2networkhandler_8h_a4af2b184144f7d807e8157ee8b474ecf_icgraph_org.svg" target="_base">
           <rect id="button" ry="5" rx="5" y="6" x="6" height="38" width="38"
                fill="#f2f5e9" fill-opacity="0.5" stroke="#606060" stroke-width="1.0"/>
           <path id="arrow"
             d="M 11.500037,31.436501 C 11.940474,20.09759 22.043105,11.32322 32.158766,21.979434 L 37.068811,17.246167 C 37.068811,17.246167 37.088388,32 37.088388,32 L 22.160133,31.978069 C 22.160133,31.978069 26.997745,27.140456 26.997745,27.140456 C 18.528582,18.264221 13.291696,25.230495 11.500037,31.436501 z"
             style="fill:#404040;"/>
          </a>
         </g>
        </svg>
</svg>
