<?xml version="1.0" encoding="UTF-8" standalone="no"?>
<!DOCTYPE svg PUBLIC "-//W3C//DTD SVG 1.1//EN"
 "http://www.w3.org/Graphics/SVG/1.1/DTD/svg11.dtd">
<!-- Generated by graphviz version 2.26.3 (20100126.1600)
 -->
<!-- Title: G Pages: 1 -->
<!--zoomable 262 -->
<svg id="main" version="1.1" xmlns="http://www.w3.org/2000/svg" xmlns:xlink="http://www.w3.org/1999/xlink" xml:space="preserve" onload="init(evt)">
        <defs>
                <circle id="rim" cx="0" cy="0" r="7"/>
                <circle id="rim2" cx="0" cy="0" r="3.5"/>
                <g id="zoomPlus">
                        <use xlink:href="#rim" fill="#404040">
                                <set attributeName="fill" to="#808080" begin="zoomplus.mouseover" end="zoomplus.mouseout"/>
                        </use>
                        <path d="M-4,0h8M0,-4v8" fill="none" stroke="white" stroke-width="1.5" pointer-events="none"/>
                </g>
                <g id="zoomMin">
                        <use xlink:href="#rim" fill="#404040">
                                <set attributeName="fill" to="#808080" begin="zoomminus.mouseover" end="zoomminus.mouseout"/>
                        </use>
                        <path d="M-4,0h8" fill="none" stroke="white" stroke-width="1.5" pointer-events="none"/>
                </g>
                <g id="dirArrow">
                        <path fill="none" stroke="white" stroke-width="1.5" d="M0,-3.0v7 M-2.5,-0.5L0,-3.0L2.5,-0.5"/>
                </g>
               <g id="resetDef">
                       <use xlink:href="#rim2" fill="#404040">
                               <set attributeName="fill" to="#808080" begin="reset.mouseover" end="reset.mouseout"/>
                       </use>
               </g>
        </defs>

<script type="text/javascript">
var viewWidth = 1948;
var viewHeight = 262;
var sectionId = 'dynsection-1';
</script>
<script xlink:href="../../svgpan.js"/>
<svg id="graph" class="graph">
<g id="viewport">
<title>G</title>
<!-- Node1 -->
<g id="node1" class="node"><title>Node1</title>
<polygon fill="#bfbfbf" stroke="black" points="122.509,-232.5 122.509,-253.5 385.509,-253.5 385.509,-232.5 122.509,-232.5"/>
<text text-anchor="middle" x="254.009" y="-240.5" font-family="Helvetica,sans-Serif" font-size="10.00">src/ports/WIN32/sample_application/opener_user_conf.h</text>
</g>
<!-- Node2 -->
<g id="node3" class="node"><title>Node2</title>
<a xlink:href="../../d2/da3/cipconnectionmanager_8h.html" target="_top" xlink:title="src/cip/cipconnectionmanager.h">
<polygon fill="none" stroke="black" points="487.509,-116.5 487.509,-137.5 642.509,-137.5 642.509,-116.5 487.509,-116.5"/>
<text text-anchor="middle" x="565.009" y="-124.5" font-family="Helvetica,sans-Serif" font-size="10.00">src/cip/cipconnectionmanager.h</text>
</a>
</g>
<!-- Node1&#45;&gt;Node2 -->
<g id="edge2" class="edge"><title>Node1&#45;&gt;Node2</title>
<path fill="none" stroke="midnightblue" d="M292.03,-228.819C355.279,-205.227 480.688,-158.451 536.764,-137.535"/>
<polygon fill="midnightblue" stroke="midnightblue" points="290.579,-225.624 282.432,-232.398 293.025,-232.183 290.579,-225.624"/>
</g>
<!-- Node5 -->
<g id="node9" class="node"><title>Node5</title>
<a xlink:href="../../d2/d3d/cipcommon_8c.html" target="_top" xlink:title="src/cip/cipcommon.c">
<polygon fill="none" stroke="black" points="398.509,-0.5 398.509,-21.5 505.509,-21.5 505.509,-0.5 398.509,-0.5"/>
<text text-anchor="middle" x="452.009" y="-8.5" font-family="Helvetica,sans-Serif" font-size="10.00">src/cip/cipcommon.c</text>
</a>
</g>
<!-- Node1&#45;&gt;Node5 -->
<g id="edge56" class="edge"><title>Node1&#45;&gt;Node5</title>
<path fill="none" stroke="midnightblue" d="M130.765,-230.937C86.2991,-223.829 43.6601,-212.813 30.0088,-196 -8.65186,-148.386 -11.1462,-103.476 30.0088,-58 56.9829,-28.194 350.189,-27.5152 390.009,-22 392.716,-21.625 395.486,-21.2184 398.28,-20.7899"/>
<polygon fill="midnightblue" stroke="midnightblue" points="130.459,-234.431 140.873,-232.484 131.517,-227.512 130.459,-234.431"/>
</g>
<!-- Node6 -->
<g id="node11" class="node"><title>Node6</title>
<a xlink:href="../../d5/d35/cipconnectionmanager_8c.html" target="_top" xlink:title="src/cip/cipconnectionmanager.c">
<polygon fill="none" stroke="black" points="686.509,-0.5 686.509,-21.5 841.509,-21.5 841.509,-0.5 686.509,-0.5"/>
<text text-anchor="middle" x="764.009" y="-8.5" font-family="Helvetica,sans-Serif" font-size="10.00">src/cip/cipconnectionmanager.c</text>
</a>
</g>
<!-- Node1&#45;&gt;Node6 -->
<g id="edge58" class="edge"><title>Node1&#45;&gt;Node6</title>
<path fill="none" stroke="midnightblue" d="M198.883,-229.812C127.312,-210.181 16.7174,-169.742 63.0088,-116 73.1734,-104.2 505.877,-45.3687 686.29,-21.2946"/>
<polygon fill="midnightblue" stroke="midnightblue" points="198.138,-233.236 208.703,-232.443 199.95,-226.474 198.138,-233.236"/>
</g>
<!-- Node19 -->
<g id="node49" class="node"><title>Node19</title>
<a xlink:href="../../dd/dc4/cipidentity_8c.html" target="_top" xlink:title="src/cip/cipidentity.c">
<polygon fill="none" stroke="black" points="71.5088,-116.5 71.5088,-137.5 172.509,-137.5 172.509,-116.5 71.5088,-116.5"/>
<text text-anchor="middle" x="122.009" y="-124.5" font-family="Helvetica,sans-Serif" font-size="10.00">src/cip/cipidentity.c</text>
</a>
</g>
<!-- Node1&#45;&gt;Node19 -->
<g id="edge60" class="edge"><title>Node1&#45;&gt;Node19</title>
<path fill="none" stroke="midnightblue" d="M234.315,-225.693C206.627,-201.362 157.025,-157.772 134.161,-137.679"/>
<polygon fill="midnightblue" stroke="midnightblue" points="232.005,-228.323 241.827,-232.295 236.626,-223.065 232.005,-228.323"/>
</g>
<!-- Node20 -->
<g id="node51" class="node"><title>Node20</title>
<a xlink:href="../../dd/d20/ciptcpipinterface_8c.html" target="_top" xlink:title="src/cip/ciptcpipinterface.c">
<polygon fill="none" stroke="black" points="190.009,-116.5 190.009,-137.5 318.009,-137.5 318.009,-116.5 190.009,-116.5"/>
<text text-anchor="middle" x="254.009" y="-124.5" font-family="Helvetica,sans-Serif" font-size="10.00">src/cip/ciptcpipinterface.c</text>
</a>
</g>
<!-- Node1&#45;&gt;Node20 -->
<g id="edge62" class="edge"><title>Node1&#45;&gt;Node20</title>
<path fill="none" stroke="midnightblue" d="M254.009,-222.123C254.009,-197.298 254.009,-156.824 254.009,-137.679"/>
<polygon fill="midnightblue" stroke="midnightblue" points="250.509,-222.295 254.009,-232.295 257.509,-222.295 250.509,-222.295"/>
</g>
<!-- Node21 -->
<g id="node53" class="node"><title>Node21</title>
<a xlink:href="../../d4/d38/opener__api_8h.html" target="_top" xlink:title="src/opener_api.h">
<polygon fill="none" stroke="black" points="713.509,-174.5 713.509,-195.5 802.509,-195.5 802.509,-174.5 713.509,-174.5"/>
<text text-anchor="middle" x="758.009" y="-182.5" font-family="Helvetica,sans-Serif" font-size="10.00">src/opener_api.h</text>
</a>
</g>
<!-- Node1&#45;&gt;Node21 -->
<g id="edge64" class="edge"><title>Node1&#45;&gt;Node21</title>
<path fill="none" stroke="midnightblue" d="M355.33,-231.34C464.558,-218.77 633.471,-199.332 713.301,-190.145"/>
<polygon fill="midnightblue" stroke="midnightblue" points="354.814,-227.876 345.279,-232.497 355.614,-234.83 354.814,-227.876"/>
</g>
<!-- Node26 -->
<g id="node77" class="node"><title>Node26</title>
<a xlink:href="../../d1/d1b/trace_8h.html" target="_top" xlink:title="Tracing infrastructure for OpENer.">
<polygon fill="none" stroke="black" points="1513.51,-116.5 1513.51,-137.5 1576.51,-137.5 1576.51,-116.5 1513.51,-116.5"/>
<text text-anchor="middle" x="1545.01" y="-124.5" font-family="Helvetica,sans-Serif" font-size="10.00">src/trace.h</text>
</a>
</g>
<!-- Node1&#45;&gt;Node26 -->
<g id="edge102" class="edge"><title>Node1&#45;&gt;Node26</title>
<path fill="none" stroke="midnightblue" d="M395.982,-238.227C628.192,-228.814 1103.12,-202.826 1500.01,-138 1504.29,-137.3 1508.78,-136.406 1513.18,-135.43"/>
<polygon fill="midnightblue" stroke="midnightblue" points="395.64,-234.738 385.788,-238.636 395.92,-241.732 395.64,-234.738"/>
</g>
<!-- Node3 -->
<g id="node5" class="node"><title>Node3</title>
<a xlink:href="../../d1/dc0/appcontype_8h.html" target="_top" xlink:title="src/cip/appcontype.h">
<polygon fill="none" stroke="black" points="651.509,-58.5 651.509,-79.5 758.509,-79.5 758.509,-58.5 651.509,-58.5"/>
<text text-anchor="middle" x="705.009" y="-66.5" font-family="Helvetica,sans-Serif" font-size="10.00">src/cip/appcontype.h</text>
</a>
</g>
<!-- Node2&#45;&gt;Node3 -->
<g id="edge4" class="edge"><title>Node2&#45;&gt;Node3</title>
<path fill="none" stroke="midnightblue" d="M599.73,-112.615C624.415,-102.389 657.024,-88.8796 679.371,-79.6212"/>
<polygon fill="midnightblue" stroke="midnightblue" points="598.261,-109.436 590.362,-116.497 600.94,-115.903 598.261,-109.436"/>
</g>
<!-- Node4 -->
<g id="node7" class="node"><title>Node4</title>
<a xlink:href="../../d1/dbc/appcontype_8c.html" target="_top" xlink:title="src/cip/appcontype.c">
<polygon fill="none" stroke="black" points="274.509,-0.5 274.509,-21.5 381.509,-21.5 381.509,-0.5 274.509,-0.5"/>
<text text-anchor="middle" x="328.009" y="-8.5" font-family="Helvetica,sans-Serif" font-size="10.00">src/cip/appcontype.c</text>
</a>
</g>
<!-- Node2&#45;&gt;Node4 -->
<g id="edge14" class="edge"><title>Node2&#45;&gt;Node4</title>
<path fill="none" stroke="midnightblue" d="M531.99,-112.412C511.691,-103.326 485.213,-91.2604 462.009,-80 421.047,-60.1219 373.863,-35.3893 347.838,-21.5845"/>
<polygon fill="midnightblue" stroke="midnightblue" points="530.573,-115.613 541.132,-116.49 533.425,-109.22 530.573,-115.613"/>
</g>
<!-- Node2&#45;&gt;Node5 -->
<g id="edge24" class="edge"><title>Node2&#45;&gt;Node5</title>
<path fill="none" stroke="midnightblue" d="M525.216,-112.355C509.103,-104.768 491.414,-94.0925 479.009,-80 463.88,-62.8131 456.736,-36.168 453.787,-21.5267"/>
<polygon fill="midnightblue" stroke="midnightblue" points="523.909,-115.604 534.469,-116.467 526.752,-109.207 523.909,-115.604"/>
</g>
<!-- Node2&#45;&gt;Node6 -->
<g id="edge26" class="edge"><title>Node2&#45;&gt;Node6</title>
<path fill="none" stroke="midnightblue" d="M652.806,-117.41C700.403,-110.205 752.429,-98.362 767.009,-80 780.281,-63.2854 773.646,-36.4558 768.371,-21.6583"/>
<polygon fill="midnightblue" stroke="midnightblue" points="652.122,-113.973 642.731,-118.878 653.131,-120.9 652.122,-113.973"/>
</g>
<!-- Node7 -->
<g id="node13" class="node"><title>Node7</title>
<a xlink:href="../../df/d03/cipioconnection_8c.html" target="_top" xlink:title="src/cip/cipioconnection.c">
<polygon fill="none" stroke="black" points="858.509,-0.5 858.509,-21.5 983.509,-21.5 983.509,-0.5 858.509,-0.5"/>
<text text-anchor="middle" x="921.009" y="-8.5" font-family="Helvetica,sans-Serif" font-size="10.00">src/cip/cipioconnection.c</text>
</a>
</g>
<!-- Node2&#45;&gt;Node7 -->
<g id="edge34" class="edge"><title>Node2&#45;&gt;Node7</title>
<path fill="none" stroke="midnightblue" d="M646.174,-114.68C688.046,-107.054 739.532,-95.6823 784.009,-80 828.966,-64.1485 878.033,-36.7297 903.484,-21.6697"/>
<polygon fill="midnightblue" stroke="midnightblue" points="645.527,-111.24 636.297,-116.442 646.757,-118.131 645.527,-111.24"/>
</g>
<!-- Node8 -->
<g id="node16" class="node"><title>Node8</title>
<a xlink:href="../../df/d2e/cipassembly_8c.html" target="_top" xlink:title="src/cip/cipassembly.c">
<polygon fill="none" stroke="black" points="1158.01,-58.5 1158.01,-79.5 1270.01,-79.5 1270.01,-58.5 1158.01,-58.5"/>
<text text-anchor="middle" x="1214.01" y="-66.5" font-family="Helvetica,sans-Serif" font-size="10.00">src/cip/cipassembly.c</text>
</a>
</g>
<!-- Node2&#45;&gt;Node8 -->
<g id="edge16" class="edge"><title>Node2&#45;&gt;Node8</title>
<path fill="none" stroke="midnightblue" d="M652.862,-119.093C665.003,-118.033 677.315,-116.976 689.009,-116 893.368,-98.9395 945.485,-105.134 1149.01,-80 1151.85,-79.6493 1154.75,-79.2622 1157.68,-78.8492"/>
<polygon fill="midnightblue" stroke="midnightblue" points="652.377,-115.622 642.72,-119.982 652.988,-122.595 652.377,-115.622"/>
</g>
<!-- Node9 -->
<g id="node18" class="node"><title>Node9</title>
<a xlink:href="../../d2/d11/cipclass3connection_8h.html" target="_top" xlink:title="CIP Class 3 connection.">
<polygon fill="none" stroke="black" points="488.009,-58.5 488.009,-79.5 634.009,-79.5 634.009,-58.5 488.009,-58.5"/>
<text text-anchor="middle" x="561.009" y="-66.5" font-family="Helvetica,sans-Serif" font-size="10.00">src/cip/cipclass3connection.h</text>
</a>
</g>
<!-- Node2&#45;&gt;Node9 -->
<g id="edge18" class="edge"><title>Node2&#45;&gt;Node9</title>
<path fill="none" stroke="midnightblue" d="M563.574,-106.191C562.951,-97.1684 562.25,-86.9941 561.738,-79.5707"/>
<polygon fill="midnightblue" stroke="midnightblue" points="560.095,-106.626 564.275,-116.362 567.079,-106.145 560.095,-106.626"/>
</g>
<!-- Node11 -->
<g id="node25" class="node"><title>Node11</title>
<a xlink:href="../../de/d45/cipioconnection_8h.html" target="_top" xlink:title="src/cip/cipioconnection.h">
<polygon fill="none" stroke="black" points="851.509,-58.5 851.509,-79.5 976.509,-79.5 976.509,-58.5 851.509,-58.5"/>
<text text-anchor="middle" x="914.009" y="-66.5" font-family="Helvetica,sans-Serif" font-size="10.00">src/cip/cipioconnection.h</text>
</a>
</g>
<!-- Node2&#45;&gt;Node11 -->
<g id="edge28" class="edge"><title>Node2&#45;&gt;Node11</title>
<path fill="none" stroke="midnightblue" d="M638.096,-114.854C701.198,-104.367 791.397,-89.3767 851.278,-79.4252"/>
<polygon fill="midnightblue" stroke="midnightblue" points="637.501,-111.405 628.21,-116.497 638.649,-118.31 637.501,-111.405"/>
</g>
<!-- Node12 -->
<g id="node30" class="node"><title>Node12</title>
<a xlink:href="../../d3/d98/cpf_8c.html" target="_top" xlink:title="src/enet_encap/cpf.c">
<polygon fill="none" stroke="black" points="1032.01,-58.5 1032.01,-79.5 1140.01,-79.5 1140.01,-58.5 1032.01,-58.5"/>
<text text-anchor="middle" x="1086.01" y="-66.5" font-family="Helvetica,sans-Serif" font-size="10.00">src/enet_encap/cpf.c</text>
</a>
</g>
<!-- Node2&#45;&gt;Node12 -->
<g id="edge36" class="edge"><title>Node2&#45;&gt;Node12</title>
<path fill="none" stroke="midnightblue" d="M653.087,-118.465C764.393,-107.573 949.696,-89.0616 1018.01,-80 1022.51,-79.4024 1027.18,-78.7399 1031.86,-78.0448"/>
<polygon fill="midnightblue" stroke="midnightblue" points="652.496,-115.006 642.884,-119.462 653.177,-121.972 652.496,-115.006"/>
</g>
<!-- Node13 -->
<g id="node32" class="node"><title>Node13</title>
<a xlink:href="../../d2/dbd/encap_8c.html" target="_top" xlink:title="src/enet_encap/encap.c">
<polygon fill="none" stroke="black" points="1173.51,-0.5 1173.51,-21.5 1294.51,-21.5 1294.51,-0.5 1173.51,-0.5"/>
<text text-anchor="middle" x="1234.01" y="-8.5" font-family="Helvetica,sans-Serif" font-size="10.00">src/enet_encap/encap.c</text>
</a>
</g>
<!-- Node2&#45;&gt;Node13 -->
<g id="edge38" class="edge"><title>Node2&#45;&gt;Node13</title>
<path fill="none" stroke="midnightblue" d="M652.613,-119.134C766.424,-108.615 954.271,-90.1221 985.009,-80 1003.54,-73.8961 1004.83,-65.093 1023.01,-58 1071.96,-38.903 1130.47,-26.637 1173.45,-19.4419"/>
<polygon fill="midnightblue" stroke="midnightblue" points="652.154,-115.661 642.517,-120.064 652.796,-122.632 652.154,-115.661"/>
</g>
<!-- Node14 -->
<g id="node34" class="node"><title>Node14</title>
<a xlink:href="../../da/dc2/generic__networkhandler_8h.html" target="_top" xlink:title="src/ports/generic_networkhandler.h">
<polygon fill="none" stroke="black" points="1439.51,-58.5 1439.51,-79.5 1608.51,-79.5 1608.51,-58.5 1439.51,-58.5"/>
<text text-anchor="middle" x="1524.01" y="-66.5" font-family="Helvetica,sans-Serif" font-size="10.00">src/ports/generic_networkhandler.h</text>
</a>
</g>
<!-- Node2&#45;&gt;Node14 -->
<g id="edge40" class="edge"><title>Node2&#45;&gt;Node14</title>
<path fill="none" stroke="midnightblue" d="M652.843,-118.854C664.987,-117.832 677.305,-116.848 689.009,-116 963.252,-96.123 1288.69,-79.9343 1439.5,-72.8543"/>
<polygon fill="midnightblue" stroke="midnightblue" points="652.366,-115.382 642.7,-119.721 652.962,-122.357 652.366,-115.382"/>
</g>
<!-- Node3&#45;&gt;Node4 -->
<g id="edge6" class="edge"><title>Node3&#45;&gt;Node4</title>
<path fill="none" stroke="midnightblue" d="M641.246,-57.7556C529.163,-40.0539 498.987,-39.4155 390.009,-22 387.31,-21.5687 384.547,-21.1168 381.758,-20.6523"/>
<polygon fill="midnightblue" stroke="midnightblue" points="640.834,-61.2339 651.259,-59.3477 641.933,-54.3207 640.834,-61.2339"/>
</g>
<!-- Node3&#45;&gt;Node5 -->
<g id="edge8" class="edge"><title>Node3&#45;&gt;Node5</title>
<path fill="none" stroke="midnightblue" d="M649.21,-56.2081C603.782,-45.7938 540.435,-31.2716 497.911,-21.5231"/>
<polygon fill="midnightblue" stroke="midnightblue" points="648.663,-59.6735 659.192,-58.4966 650.227,-52.8505 648.663,-59.6735"/>
</g>
<!-- Node3&#45;&gt;Node6 -->
<g id="edge10" class="edge"><title>Node3&#45;&gt;Node6</title>
<path fill="none" stroke="midnightblue" d="M723.199,-51.118C733.046,-41.4377 744.875,-29.8098 753.256,-21.5707"/>
<polygon fill="midnightblue" stroke="midnightblue" points="720.508,-48.8556 715.83,-58.3619 725.415,-53.8474 720.508,-48.8556"/>
</g>
<!-- Node3&#45;&gt;Node7 -->
<g id="edge12" class="edge"><title>Node3&#45;&gt;Node7</title>
<path fill="none" stroke="midnightblue" d="M754.122,-55.8123C792.793,-45.4285 845.972,-31.1487 881.819,-21.5231"/>
<polygon fill="midnightblue" stroke="midnightblue" points="752.875,-52.523 744.125,-58.4966 754.69,-59.2835 752.875,-52.523"/>
</g>
<!-- Node9&#45;&gt;Node6 -->
<g id="edge22" class="edge"><title>Node9&#45;&gt;Node6</title>
<path fill="none" stroke="midnightblue" d="M607.63,-55.6795C643.934,-45.307 693.632,-31.1078 727.178,-21.5231"/>
<polygon fill="midnightblue" stroke="midnightblue" points="606.424,-52.384 597.771,-58.4966 608.347,-59.1147 606.424,-52.384"/>
</g>
<!-- Node10 -->
<g id="node20" class="node"><title>Node10</title>
<a xlink:href="../../dc/d93/cipclass3connection_8c.html" target="_top" xlink:title="src/cip/cipclass3connection.c">
<polygon fill="none" stroke="black" points="523.009,-0.5 523.009,-21.5 669.009,-21.5 669.009,-0.5 523.009,-0.5"/>
<text text-anchor="middle" x="596.009" y="-8.5" font-family="Helvetica,sans-Serif" font-size="10.00">src/cip/cipclass3connection.c</text>
</a>
</g>
<!-- Node9&#45;&gt;Node10 -->
<g id="edge20" class="edge"><title>Node9&#45;&gt;Node10</title>
<path fill="none" stroke="midnightblue" d="M572.675,-49.6667C578.331,-40.2948 584.904,-29.4019 589.63,-21.5707"/>
<polygon fill="midnightblue" stroke="midnightblue" points="569.598,-47.9917 567.428,-58.3619 575.592,-51.6084 569.598,-47.9917"/>
</g>
<!-- Node11&#45;&gt;Node6 -->
<g id="edge30" class="edge"><title>Node11&#45;&gt;Node6</title>
<path fill="none" stroke="midnightblue" d="M877.477,-54.8742C850.858,-44.5819 815.376,-30.862 791.224,-21.5231"/>
<polygon fill="midnightblue" stroke="midnightblue" points="876.256,-58.1546 886.845,-58.4966 878.78,-51.6257 876.256,-58.1546"/>
</g>
<!-- Node11&#45;&gt;Node7 -->
<g id="edge32" class="edge"><title>Node11&#45;&gt;Node7</title>
<path fill="none" stroke="midnightblue" d="M916.52,-48.1906C917.609,-39.1684 918.837,-28.9941 919.733,-21.5707"/>
<polygon fill="midnightblue" stroke="midnightblue" points="913.016,-48.0145 915.293,-58.3619 919.966,-48.8533 913.016,-48.0145"/>
</g>
<!-- Node14&#45;&gt;Node6 -->
<g id="edge42" class="edge"><title>Node14&#45;&gt;Node6</title>
<path fill="none" stroke="midnightblue" d="M1429.45,-61.1813C1415.55,-60.0819 1401.41,-58.9903 1388.01,-58 1149.01,-40.3396 1088.53,-45.2129 850.009,-22 847.312,-21.7376 844.57,-21.4576 841.801,-21.164"/>
<polygon fill="midnightblue" stroke="midnightblue" points="1429.26,-64.6774 1439.5,-61.9818 1429.81,-57.6994 1429.26,-64.6774"/>
</g>
<!-- Node14&#45;&gt;Node7 -->
<g id="edge44" class="edge"><title>Node14&#45;&gt;Node7</title>
<path fill="none" stroke="midnightblue" d="M1429.29,-58.338C1428.19,-58.2242 1427.09,-58.1114 1426.01,-58 1266.81,-41.6586 1079.12,-24.8306 983.635,-16.4438"/>
<polygon fill="midnightblue" stroke="midnightblue" points="1428.98,-61.8255 1439.29,-59.3899 1429.72,-54.8639 1428.98,-61.8255"/>
</g>
<!-- Node14&#45;&gt;Node13 -->
<g id="edge46" class="edge"><title>Node14&#45;&gt;Node13</title>
<path fill="none" stroke="midnightblue" d="M1461.68,-56.5349C1409.51,-46.0994 1335.88,-31.374 1286.62,-21.5231"/>
<polygon fill="midnightblue" stroke="midnightblue" points="1461,-59.9674 1471.49,-58.4966 1462.37,-53.1034 1461,-59.9674"/>
</g>
<!-- Node15 -->
<g id="node39" class="node"><title>Node15</title>
<a xlink:href="../../db/d4f/generic__networkhandler_8c.html" target="_top" xlink:title="This file includes all platform&#45;independent functions of the network handler to reduce code duplicati...">
<polygon fill="none" stroke="black" points="1495.51,-0.5 1495.51,-21.5 1664.51,-21.5 1664.51,-0.5 1495.51,-0.5"/>
<text text-anchor="middle" x="1580.01" y="-8.5" font-family="Helvetica,sans-Serif" font-size="10.00">src/ports/generic_networkhandler.c</text>
</a>
</g>
<!-- Node14&#45;&gt;Node15 -->
<g id="edge48" class="edge"><title>Node14&#45;&gt;Node15</title>
<path fill="none" stroke="midnightblue" d="M1541.27,-51.118C1550.62,-41.4377 1561.85,-29.8098 1569.8,-21.5707"/>
<polygon fill="midnightblue" stroke="midnightblue" points="1538.71,-48.7368 1534.28,-58.3619 1543.74,-53.599 1538.71,-48.7368"/>
</g>
<!-- Node16 -->
<g id="node41" class="node"><title>Node16</title>
<a xlink:href="../../d9/dfb/POSIX_2main_8c.html" target="_top" xlink:title="src/ports/POSIX/main.c">
<polygon fill="none" stroke="black" points="1681.51,-0.5 1681.51,-21.5 1802.51,-21.5 1802.51,-0.5 1681.51,-0.5"/>
<text text-anchor="middle" x="1742.01" y="-8.5" font-family="Helvetica,sans-Serif" font-size="10.00">src/ports/POSIX/main.c</text>
</a>
</g>
<!-- Node14&#45;&gt;Node16 -->
<g id="edge50" class="edge"><title>Node14&#45;&gt;Node16</title>
<path fill="none" stroke="midnightblue" d="M1573.58,-55.8123C1612.61,-45.4285 1666.28,-31.1487 1702.46,-21.5231"/>
<polygon fill="midnightblue" stroke="midnightblue" points="1572.25,-52.5431 1563.49,-58.4966 1574.05,-59.3078 1572.25,-52.5431"/>
</g>
<!-- Node17 -->
<g id="node43" class="node"><title>Node17</title>
<a xlink:href="../../dc/db2/WIN32_2main_8c.html" target="_top" xlink:title="src/ports/WIN32/main.c">
<polygon fill="none" stroke="black" points="1819.51,-0.5 1819.51,-21.5 1940.51,-21.5 1940.51,-0.5 1819.51,-0.5"/>
<text text-anchor="middle" x="1880.01" y="-8.5" font-family="Helvetica,sans-Serif" font-size="10.00">src/ports/WIN32/main.c</text>
</a>
</g>
<!-- Node14&#45;&gt;Node17 -->
<g id="edge52" class="edge"><title>Node14&#45;&gt;Node17</title>
<path fill="none" stroke="midnightblue" d="M1598.74,-56.8249C1664.26,-46.1505 1758.31,-30.8268 1819.29,-20.893"/>
<polygon fill="midnightblue" stroke="midnightblue" points="1597.78,-53.4341 1588.48,-58.4966 1598.91,-60.343 1597.78,-53.4341"/>
</g>
<!-- Node18 -->
<g id="node45" class="node"><title>Node18</title>
<a xlink:href="../../d8/d6c/WIN32_2networkhandler_8c.html" target="_top" xlink:title="src/ports/WIN32/networkhandler.c">
<polygon fill="none" stroke="black" points="1312.01,-0.5 1312.01,-21.5 1478.01,-21.5 1478.01,-0.5 1312.01,-0.5"/>
<text text-anchor="middle" x="1395.01" y="-8.5" font-family="Helvetica,sans-Serif" font-size="10.00">src/ports/WIN32/networkhandler.c</text>
</a>
</g>
<!-- Node14&#45;&gt;Node18 -->
<g id="edge54" class="edge"><title>Node14&#45;&gt;Node18</title>
<path fill="none" stroke="midnightblue" d="M1491.41,-54.3431C1468.74,-44.1502 1439.04,-30.7977 1418.63,-21.6212"/>
<polygon fill="midnightblue" stroke="midnightblue" points="1490.09,-57.5881 1500.65,-58.4966 1492.96,-51.2037 1490.09,-57.5881"/>
</g>
<!-- Node21&#45;&gt;Node2 -->
<g id="edge66" class="edge"><title>Node21&#45;&gt;Node2</title>
<path fill="none" stroke="midnightblue" d="M713.241,-171.546C678.765,-161.186 631.783,-147.067 600.025,-137.523"/>
<polygon fill="midnightblue" stroke="midnightblue" points="712.474,-174.97 723.058,-174.497 714.488,-168.267 712.474,-174.97"/>
</g>
<!-- Node21&#45;&gt;Node4 -->
<g id="edge68" class="edge"><title>Node21&#45;&gt;Node4</title>
<path fill="none" stroke="midnightblue" d="M703.078,-181.432C624.423,-175.562 484.307,-162.051 440.009,-138 387.821,-109.665 348.259,-46.9736 333.89,-21.7863"/>
<polygon fill="midnightblue" stroke="midnightblue" points="703.058,-184.94 713.287,-182.177 703.568,-177.958 703.058,-184.94"/>
</g>
<!-- Node21&#45;&gt;Node5 -->
<g id="edge74" class="edge"><title>Node21&#45;&gt;Node5</title>
<path fill="none" stroke="midnightblue" d="M703.014,-180.174C620.651,-172.394 473.138,-156.11 457.009,-138 427.657,-105.045 441.116,-46.0674 448.408,-21.8418"/>
<polygon fill="midnightblue" stroke="midnightblue" points="702.928,-183.681 713.21,-181.125 703.578,-176.711 702.928,-183.681"/>
</g>
<!-- Node21&#45;&gt;Node6 -->
<g id="edge76" class="edge"><title>Node21&#45;&gt;Node6</title>
<path fill="none" stroke="midnightblue" d="M703.066,-179.884C623.49,-171.912 483.98,-155.603 469.009,-138 455.844,-122.522 458.785,-78.0767 479.009,-58 486.416,-50.6469 604.745,-32.9772 686.578,-21.521"/>
<polygon fill="midnightblue" stroke="midnightblue" points="703.11,-183.405 713.406,-180.906 703.799,-176.439 703.11,-183.405"/>
</g>
<!-- Node21&#45;&gt;Node8 -->
<g id="edge70" class="edge"><title>Node21&#45;&gt;Node8</title>
<path fill="none" stroke="midnightblue" d="M813.084,-183.168C969.769,-177.692 1408.1,-160.426 1429.01,-138 1435.68,-130.849 1435.14,-123.617 1429.01,-116 1423.95,-109.722 1332.14,-91.2983 1270.15,-79.4692"/>
<polygon fill="midnightblue" stroke="midnightblue" points="812.611,-179.683 802.738,-183.527 812.853,-186.678 812.611,-179.683"/>
</g>
<!-- Node21&#45;&gt;Node9 -->
<g id="edge72" class="edge"><title>Node21&#45;&gt;Node9</title>
<path fill="none" stroke="midnightblue" d="M703.435,-179.583C626.357,-171.374 493.332,-154.938 479.009,-138 458.886,-114.203 500.2,-92.0077 531.17,-79.5054"/>
<polygon fill="midnightblue" stroke="midnightblue" points="703.151,-183.072 713.463,-180.638 703.884,-176.111 703.151,-183.072"/>
</g>
<!-- Node21&#45;&gt;Node11 -->
<g id="edge78" class="edge"><title>Node21&#45;&gt;Node11</title>
<path fill="none" stroke="midnightblue" d="M724.765,-169.826C699.926,-156.401 672.832,-135.905 689.009,-116 699.312,-103.322 788.493,-87.6331 851.428,-77.9721"/>
<polygon fill="midnightblue" stroke="midnightblue" points="723.237,-172.976 733.73,-174.438 726.439,-166.751 723.237,-172.976"/>
</g>
<!-- Node21&#45;&gt;Node12 -->
<g id="edge88" class="edge"><title>Node21&#45;&gt;Node12</title>
<path fill="none" stroke="midnightblue" d="M782.077,-168.822C810.842,-149.591 856.212,-119.628 865.009,-116 894.654,-103.774 976.579,-87.9936 1031.91,-78.1858"/>
<polygon fill="midnightblue" stroke="midnightblue" points="780.103,-165.931 773.742,-174.404 783.999,-171.747 780.103,-165.931"/>
</g>
<!-- Node21&#45;&gt;Node13 -->
<g id="edge90" class="edge"><title>Node21&#45;&gt;Node13</title>
<path fill="none" stroke="midnightblue" d="M812.804,-183.271C971.82,-177.99 1423.51,-161.017 1445.01,-138 1451.68,-130.854 1450.16,-124.313 1445.01,-116 1411.29,-61.5604 1339.94,-34.4409 1289.58,-21.5837"/>
<polygon fill="midnightblue" stroke="midnightblue" points="812.64,-179.774 802.76,-183.602 812.87,-186.771 812.64,-179.774"/>
</g>
<!-- Node21&#45;&gt;Node14 -->
<g id="edge92" class="edge"><title>Node21&#45;&gt;Node14</title>
<path fill="none" stroke="midnightblue" d="M812.621,-183.935C992.799,-180.159 1558.46,-166.103 1585.01,-138 1604.01,-117.893 1569.47,-93.4511 1545.08,-79.7155"/>
<polygon fill="midnightblue" stroke="midnightblue" points="812.496,-180.437 802.571,-184.144 812.641,-187.435 812.496,-180.437"/>
</g>
<!-- Node21&#45;&gt;Node16 -->
<g id="edge94" class="edge"><title>Node21&#45;&gt;Node16</title>
<path fill="none" stroke="midnightblue" d="M812.678,-184.433C1029,-181.595 1816.6,-165.422 1883.01,-80 1889.01,-72.2807 1888.73,-65.9321 1883.01,-58 1872.18,-42.9808 1829.19,-30.0315 1793.49,-21.5508"/>
<polygon fill="midnightblue" stroke="midnightblue" points="812.47,-180.935 802.515,-184.562 812.559,-187.934 812.47,-180.935"/>
</g>
<!-- Node21&#45;&gt;Node17 -->
<g id="edge98" class="edge"><title>Node21&#45;&gt;Node17</title>
<path fill="none" stroke="midnightblue" d="M812.616,-183.485C1007.49,-177.931 1662.03,-157.973 1754.01,-138 1821.84,-123.271 1860.1,-137.475 1899.01,-80 1911.27,-61.8918 1897.69,-36.0691 1888.01,-21.6983"/>
<polygon fill="midnightblue" stroke="midnightblue" points="812.5,-179.987 802.603,-183.769 812.699,-186.984 812.5,-179.987"/>
</g>
<!-- Node21&#45;&gt;Node19 -->
<g id="edge82" class="edge"><title>Node21&#45;&gt;Node19</title>
<path fill="none" stroke="midnightblue" d="M703.182,-182.42C600.414,-177.166 371.949,-163.507 181.009,-138 178.324,-137.641 175.575,-137.242 172.804,-136.814"/>
<polygon fill="midnightblue" stroke="midnightblue" points="703.155,-185.923 713.319,-182.932 703.508,-178.932 703.155,-185.923"/>
</g>
<!-- Node21&#45;&gt;Node20 -->
<g id="edge86" class="edge"><title>Node21&#45;&gt;Node20</title>
<path fill="none" stroke="midnightblue" d="M703.516,-179.52C622.439,-171.247 465.287,-154.746 332.009,-138 327.531,-137.437 322.912,-136.837 318.261,-136.218"/>
<polygon fill="midnightblue" stroke="midnightblue" points="703.19,-183.005 713.493,-180.536 703.899,-176.041 703.19,-183.005"/>
</g>
<!-- Node22 -->
<g id="node62" class="node"><title>Node22</title>
<a xlink:href="../../d7/d65/cipethernetlink_8c.html" target="_top" xlink:title="src/cip/cipethernetlink.c">
<polygon fill="none" stroke="black" points="698.009,-116.5 698.009,-137.5 818.009,-137.5 818.009,-116.5 698.009,-116.5"/>
<text text-anchor="middle" x="758.009" y="-124.5" font-family="Helvetica,sans-Serif" font-size="10.00">src/cip/cipethernetlink.c</text>
</a>
</g>
<!-- Node21&#45;&gt;Node22 -->
<g id="edge80" class="edge"><title>Node21&#45;&gt;Node22</title>
<path fill="none" stroke="midnightblue" d="M758.009,-164.191C758.009,-155.168 758.009,-144.994 758.009,-137.571"/>
<polygon fill="midnightblue" stroke="midnightblue" points="754.509,-164.362 758.009,-174.362 761.509,-164.362 754.509,-164.362"/>
</g>
<!-- Node23 -->
<g id="node65" class="node"><title>Node23</title>
<a xlink:href="../../d9/d7d/cipmessagerouter_8c.html" target="_top" xlink:title="src/cip/cipmessagerouter.c">
<polygon fill="none" stroke="black" points="1740.01,-58.5 1740.01,-79.5 1874.01,-79.5 1874.01,-58.5 1740.01,-58.5"/>
<text text-anchor="middle" x="1807.01" y="-66.5" font-family="Helvetica,sans-Serif" font-size="10.00">src/cip/cipmessagerouter.c</text>
</a>
</g>
<!-- Node21&#45;&gt;Node23 -->
<g id="edge84" class="edge"><title>Node21&#45;&gt;Node23</title>
<path fill="none" stroke="midnightblue" d="M812.934,-183.853C974.968,-180.166 1449.14,-167.121 1601.01,-138 1668.61,-125.037 1744.52,-95.4899 1782.53,-79.5917"/>
<polygon fill="midnightblue" stroke="midnightblue" points="812.638,-180.359 802.719,-184.082 812.795,-187.357 812.638,-180.359"/>
</g>
<!-- Node24 -->
<g id="node72" class="node"><title>Node24</title>
<a xlink:href="../../d2/daa/POSIX_2sample__application_2sampleapplication_8c.html" target="_top" xlink:title="src/ports/POSIX/sample_application/sampleapplication.c">
<polygon fill="none" stroke="black" points="874.009,-116.5 874.009,-137.5 1138.01,-137.5 1138.01,-116.5 874.009,-116.5"/>
<text text-anchor="middle" x="1006.01" y="-124.5" font-family="Helvetica,sans-Serif" font-size="10.00">src/ports/POSIX/sample_application/sampleapplication.c</text>
</a>
</g>
<!-- Node21&#45;&gt;Node24 -->
<g id="edge96" class="edge"><title>Node21&#45;&gt;Node24</title>
<path fill="none" stroke="midnightblue" d="M812.412,-172.277C856.924,-161.867 919.132,-147.318 960.906,-137.548"/>
<polygon fill="midnightblue" stroke="midnightblue" points="811.573,-168.878 802.633,-174.564 813.167,-175.694 811.573,-168.878"/>
</g>
<!-- Node25 -->
<g id="node75" class="node"><title>Node25</title>
<a xlink:href="../../d5/dc8/WIN32_2sample__application_2sampleapplication_8c.html" target="_top" xlink:title="src/ports/WIN32/sample_application/sampleapplication.c">
<polygon fill="none" stroke="black" points="1156.01,-116.5 1156.01,-137.5 1420.01,-137.5 1420.01,-116.5 1156.01,-116.5"/>
<text text-anchor="middle" x="1288.01" y="-124.5" font-family="Helvetica,sans-Serif" font-size="10.00">src/ports/WIN32/sample_application/sampleapplication.c</text>
</a>
</g>
<!-- Node21&#45;&gt;Node25 -->
<g id="edge100" class="edge"><title>Node21&#45;&gt;Node25</title>
<path fill="none" stroke="midnightblue" d="M812.951,-178.987C902.528,-169.185 1081.15,-149.637 1192.03,-137.504"/>
<polygon fill="midnightblue" stroke="midnightblue" points="812.299,-175.538 802.74,-180.105 813.061,-182.496 812.299,-175.538"/>
</g>
<!-- Node26&#45;&gt;Node5 -->
<g id="edge106" class="edge"><title>Node26&#45;&gt;Node5</title>
<path fill="none" stroke="midnightblue" d="M1503.61,-117.831C1464,-108.867 1402.67,-94.4896 1350.01,-80 1318.16,-71.2362 1311.55,-63.7111 1279.01,-58 943.758,0.843477 852.279,-59.8085 514.009,-22 511.293,-21.6964 508.516,-21.3472 505.716,-20.9642"/>
<polygon fill="midnightblue" stroke="midnightblue" points="1502.92,-121.262 1513.44,-120.045 1504.45,-114.433 1502.92,-121.262"/>
</g>
<!-- Node26&#45;&gt;Node6 -->
<g id="edge108" class="edge"><title>Node26&#45;&gt;Node6</title>
<path fill="none" stroke="midnightblue" d="M1503.3,-117.354C1471.11,-109.237 1425.84,-96.3432 1388.01,-80 1370.09,-72.2599 1368.66,-63.7361 1350.01,-58 1137.05,7.48686 1071.7,-44.142 850.009,-22 847.313,-21.7307 844.571,-21.445 841.803,-21.1463"/>
<polygon fill="midnightblue" stroke="midnightblue" points="1502.72,-120.815 1513.27,-119.819 1504.4,-114.02 1502.72,-120.815"/>
</g>
<!-- Node26&#45;&gt;Node7 -->
<g id="edge110" class="edge"><title>Node26&#45;&gt;Node7</title>
<path fill="none" stroke="midnightblue" d="M1508.06,-112.655C1485.58,-103.712 1456.41,-91.7111 1431.01,-80 1411.51,-71.0124 1408.6,-64.0687 1388.01,-58 1313.85,-36.1447 1093.06,-20.8667 983.749,-14.4228"/>
<polygon fill="midnightblue" stroke="midnightblue" points="1506.97,-115.99 1517.56,-116.414 1509.55,-109.481 1506.97,-115.99"/>
</g>
<!-- Node26&#45;&gt;Node8 -->
<g id="edge104" class="edge"><title>Node26&#45;&gt;Node8</title>
<path fill="none" stroke="midnightblue" d="M1503.18,-119.67C1444.07,-109.314 1336,-90.3763 1270.03,-78.8156"/>
<polygon fill="midnightblue" stroke="midnightblue" points="1502.82,-123.16 1513.27,-121.439 1504.03,-116.265 1502.82,-123.16"/>
</g>
<!-- Node26&#45;&gt;Node12 -->
<g id="edge114" class="edge"><title>Node26&#45;&gt;Node12</title>
<path fill="none" stroke="midnightblue" d="M1503.29,-122.808C1431,-115.373 1277.79,-98.8712 1149.01,-80 1146.15,-79.5815 1143.23,-79.1345 1140.27,-78.6691"/>
<polygon fill="midnightblue" stroke="midnightblue" points="1503.06,-126.302 1513.36,-123.838 1503.77,-119.338 1503.06,-126.302"/>
</g>
<!-- Node26&#45;&gt;Node15 -->
<g id="edge116" class="edge"><title>Node26&#45;&gt;Node15</title>
<path fill="none" stroke="midnightblue" d="M1582.58,-111.753C1595.93,-104.29 1609.5,-93.8654 1617.01,-80 1628.2,-59.3209 1607.37,-35.08 1592.69,-21.535"/>
<polygon fill="midnightblue" stroke="midnightblue" points="1580.74,-108.764 1573.45,-116.453 1583.94,-114.989 1580.74,-108.764"/>
</g>
<!-- Node26&#45;&gt;Node16 -->
<g id="edge118" class="edge"><title>Node26&#45;&gt;Node16</title>
<path fill="none" stroke="midnightblue" d="M1574.51,-111.675C1591.48,-102.707 1613.11,-91.0151 1632.01,-80 1665.9,-60.2457 1704.54,-35.4686 1725.81,-21.6226"/>
<polygon fill="midnightblue" stroke="midnightblue" points="1572.83,-108.602 1565.61,-116.354 1576.09,-114.798 1572.83,-108.602"/>
</g>
<!-- Node26&#45;&gt;Node17 -->
<g id="edge120" class="edge"><title>Node26&#45;&gt;Node17</title>
<path fill="none" stroke="midnightblue" d="M1581.74,-112.76C1619.12,-98.4135 1678.82,-75.8984 1731.01,-58 1769.75,-44.7126 1814.63,-30.7481 1844.93,-21.5282"/>
<polygon fill="midnightblue" stroke="midnightblue" points="1580.35,-109.544 1572.27,-116.401 1582.86,-116.077 1580.35,-109.544"/>
</g>
<!-- Node26&#45;&gt;Node23 -->
<g id="edge112" class="edge"><title>Node26&#45;&gt;Node23</title>
<path fill="none" stroke="midnightblue" d="M1586.46,-117.825C1633.44,-107.425 1709.89,-90.4992 1759.31,-79.5586"/>
<polygon fill="midnightblue" stroke="midnightblue" points="1585.62,-114.425 1576.61,-120.004 1587.13,-121.26 1585.62,-114.425"/>
</g>
</g>
</svg>
        <g id="navigator" transform="translate(0 0)" fill="#404254">
                <rect fill="#f2f5e9" fill-opacity="0.5" stroke="#606060" stroke-width=".5" x="0" y="0" width="60" height="60"/>
                <use id="zoomplus" xlink:href="#zoomPlus" x="17" y="9" onmousedown="handleZoom(evt,'in')"/>
                <use id="zoomminus" xlink:href="#zoomMin" x="42" y="9" onmousedown="handleZoom(evt,'out')"/>
                <use id="reset" xlink:href="#resetDef" x="30" y="36" onmousedown="handleReset()"/>
                <g id="arrowUp" xlink:href="#dirArrow" transform="translate(30 24)" onmousedown="handlePan(0,-1)">
                  <use xlink:href="#rim" fill="#404040">
                        <set attributeName="fill" to="#808080" begin="arrowUp.mouseover" end="arrowUp.mouseout"/>
                  </use>
                  <path fill="none" stroke="white" stroke-width="1.5" d="M0,-3.0v7 M-2.5,-0.5L0,-3.0L2.5,-0.5"/>
                </g>
                <g id="arrowRight" xlink:href="#dirArrow" transform="rotate(90) translate(36 -43)" onmousedown="handlePan(1,0)">
                  <use xlink:href="#rim" fill="#404040">
                        <set attributeName="fill" to="#808080" begin="arrowRight.mouseover" end="arrowRight.mouseout"/>
                  </use>
                  <path fill="none" stroke="white" stroke-width="1.5" d="M0,-3.0v7 M-2.5,-0.5L0,-3.0L2.5,-0.5"/>
                </g>
                <g id="arrowDown" xlink:href="#dirArrow" transform="rotate(180) translate(-30 -48)" onmousedown="handlePan(0,1)">
                  <use xlink:href="#rim" fill="#404040">
                        <set attributeName="fill" to="#808080" begin="arrowDown.mouseover" end="arrowDown.mouseout"/>
                  </use>
                  <path fill="none" stroke="white" stroke-width="1.5" d="M0,-3.0v7 M-2.5,-0.5L0,-3.0L2.5,-0.5"/>
                </g>
                <g id="arrowLeft" xlink:href="#dirArrow" transform="rotate(270) translate(-36 17)" onmousedown="handlePan(-1,0)">
                  <use xlink:href="#rim" fill="#404040">
                        <set attributeName="fill" to="#808080" begin="arrowLeft.mouseover" end="arrowLeft.mouseout"/>
                  </use>
                  <path fill="none" stroke="white" stroke-width="1.5" d="M0,-3.0v7 M-2.5,-0.5L0,-3.0L2.5,-0.5"/>
                </g>
        </g>
</svg>
