<?xml version="1.0" encoding="UTF-8" standalone="no"?>
<!DOCTYPE svg PUBLIC "-//W3C//DTD SVG 1.1//EN"
 "http://www.w3.org/Graphics/SVG/1.1/DTD/svg11.dtd">
<!-- Generated by graphviz version 2.36.0 (20140111.2315)
 -->
<!-- Title: src/ports/WIN32/sample_application/opener_user_conf.h Pages: 1 -->
<svg width="4692pt" height="522pt"
 viewBox="0.00 0.00 4692.00 522.00" xmlns="http://www.w3.org/2000/svg" xmlns:xlink="http://www.w3.org/1999/xlink">
<g id="graph0" class="graph" transform="scale(1 1) rotate(0) translate(4 518)">
<title>src/ports/WIN32/sample_application/opener_user_conf.h</title>
<!-- Node1 -->
<g id="node1" class="node"><title>Node1</title>
<polygon fill="#bfbfbf" stroke="black" points="1799.5,-472.5 1799.5,-513.5 1924.5,-513.5 1924.5,-472.5 1799.5,-472.5"/>
<text text-anchor="start" x="1807.5" y="-501.5" font-family="Helvetica,sans-Serif" font-size="10.00">src/ports/WIN32/sample</text>
<text text-anchor="start" x="1807.5" y="-490.5" font-family="Helvetica,sans-Serif" font-size="10.00">_application/opener_user</text>
<text text-anchor="middle" x="1862" y="-479.5" font-family="Helvetica,sans-Serif" font-size="10.00">_conf.h</text>
</g>
<!-- Node2 -->
<g id="node2" class="node"><title>Node2</title>
<g id="a_node2"><a xlink:href="../../d2/da3/cipconnectionmanager_8h.html" target="_top" xlink:title="src/cip/cipconnectionmanager.h">
<polygon fill="none" stroke="black" points="1146.5,-180.5 1146.5,-199.5 1301.5,-199.5 1301.5,-180.5 1146.5,-180.5"/>
<text text-anchor="middle" x="1224" y="-187.5" font-family="Helvetica,sans-Serif" font-size="10.00">src/cip/cipconnectionmanager.h</text>
</a>
</g>
</g>
<!-- Node1&#45;&gt;Node2 -->
<g id="edge1" class="edge"><title>Node1&#45;&gt;Node2</title>
<path fill="none" stroke="midnightblue" d="M1789.33,-490.909C1558.02,-486.484 854,-465.273 854,-371 854,-371 854,-371 854,-313 854,-250.435 1047.23,-214.584 1154.41,-199.51"/>
<polygon fill="midnightblue" stroke="midnightblue" points="1789.26,-494.408 1799.33,-491.095 1789.39,-487.41 1789.26,-494.408"/>
</g>
<!-- Node5 -->
<g id="node5" class="node"><title>Node5</title>
<g id="a_node5"><a xlink:href="../../d2/d3d/cipcommon_8c.html" target="_top" xlink:title="src/cip/cipcommon.c">
<polygon fill="none" stroke="black" points="1523.5,-62.5 1523.5,-81.5 1630.5,-81.5 1630.5,-62.5 1523.5,-62.5"/>
<text text-anchor="middle" x="1577" y="-69.5" font-family="Helvetica,sans-Serif" font-size="10.00">src/cip/cipcommon.c</text>
</a>
</g>
</g>
<!-- Node1&#45;&gt;Node5 -->
<g id="edge150" class="edge"><title>Node1&#45;&gt;Node5</title>
<path fill="none" stroke="midnightblue" d="M1833.47,-464.936C1811.89,-443.391 1782.56,-411.69 1762,-380 1694.11,-275.363 1725.59,-220.855 1647,-124 1632.03,-105.552 1608.87,-90.4489 1593.34,-81.589"/>
<polygon fill="midnightblue" stroke="midnightblue" points="1831.17,-467.588 1840.75,-472.117 1836.09,-462.604 1831.17,-467.588"/>
</g>
<!-- Node6 -->
<g id="node6" class="node"><title>Node6</title>
<g id="a_node6"><a xlink:href="../../d5/d35/cipconnectionmanager_8c.html" target="_top" xlink:title="src/cip/cipconnectionmanager.c">
<polygon fill="none" stroke="black" points="1013.5,-0.5 1013.5,-19.5 1168.5,-19.5 1168.5,-0.5 1013.5,-0.5"/>
<text text-anchor="middle" x="1091" y="-7.5" font-family="Helvetica,sans-Serif" font-size="10.00">src/cip/cipconnectionmanager.c</text>
</a>
</g>
</g>
<!-- Node1&#45;&gt;Node6 -->
<g id="edge151" class="edge"><title>Node1&#45;&gt;Node6</title>
<path fill="none" stroke="midnightblue" d="M1788.97,-492.327C1474.83,-493.379 247.079,-493.73 85,-436 40.1994,-420.043 0,-418.558 0,-371 0,-371 0,-371 0,-133 0,-76.9066 47.3224,-75.2753 100,-56 184.71,-25.0036 794.458,-14.6025 1013.17,-11.8467"/>
<polygon fill="midnightblue" stroke="midnightblue" points="1789.33,-495.826 1799.32,-492.291 1789.31,-488.826 1789.33,-495.826"/>
</g>
<!-- Node10 -->
<g id="node10" class="node"><title>Node10</title>
<g id="a_node10"><a xlink:href="../../db/d4f/generic__networkhandler_8c.html" target="_top" xlink:title="This file includes all platform&#45;independent functions of the network handler to reduce code duplicati...">
<polygon fill="none" stroke="black" points="1355.5,-0.5 1355.5,-19.5 1524.5,-19.5 1524.5,-0.5 1355.5,-0.5"/>
<text text-anchor="middle" x="1440" y="-7.5" font-family="Helvetica,sans-Serif" font-size="10.00">src/ports/generic_networkhandler.c</text>
</a>
</g>
</g>
<!-- Node1&#45;&gt;Node10 -->
<g id="edge156" class="edge"><title>Node1&#45;&gt;Node10</title>
<path fill="none" stroke="midnightblue" d="M1788.96,-491.445C1523.94,-489.104 613.579,-478.113 326,-436 212.406,-419.365 76,-485.805 76,-371 76,-371 76,-371 76,-251 76,-157.323 79.1247,-109.53 156,-56 157.544,-54.9252 1069.52,-23.664 1355.37,-13.8908"/>
<polygon fill="midnightblue" stroke="midnightblue" points="1789.2,-494.947 1799.23,-491.534 1789.26,-487.948 1789.2,-494.947"/>
</g>
<!-- Node20 -->
<g id="node20" class="node"><title>Node20</title>
<g id="a_node20"><a xlink:href="../../dd/d34/cipqos_8c.html" target="_top" xlink:title="src/cip/cipqos.c">
<polygon fill="none" stroke="black" points="2467,-62.5 2467,-81.5 2553,-81.5 2553,-62.5 2467,-62.5"/>
<text text-anchor="middle" x="2510" y="-69.5" font-family="Helvetica,sans-Serif" font-size="10.00">src/cip/cipqos.c</text>
</a>
</g>
</g>
<!-- Node1&#45;&gt;Node20 -->
<g id="edge153" class="edge"><title>Node1&#45;&gt;Node20</title>
<path fill="none" stroke="midnightblue" d="M1934.88,-487.596C2120.59,-475.404 2597,-437.634 2597,-371 2597,-371 2597,-371 2597,-189 2597,-140.163 2547.04,-98.7282 2522.84,-81.5227"/>
<polygon fill="midnightblue" stroke="midnightblue" points="1934.42,-484.119 1924.67,-488.26 1934.87,-491.104 1934.42,-484.119"/>
</g>
<!-- Node24 -->
<g id="node24" class="node"><title>Node24</title>
<g id="a_node24"><a xlink:href="../../df/d28/ciptypes_8h.html" target="_top" xlink:title="src/cip/ciptypes.h">
<polygon fill="none" stroke="black" points="1771,-360.5 1771,-379.5 1865,-379.5 1865,-360.5 1771,-360.5"/>
<text text-anchor="middle" x="1818" y="-367.5" font-family="Helvetica,sans-Serif" font-size="10.00">src/cip/ciptypes.h</text>
</a>
</g>
</g>
<!-- Node1&#45;&gt;Node24 -->
<g id="edge37" class="edge"><title>Node1&#45;&gt;Node24</title>
<path fill="none" stroke="midnightblue" d="M1848.18,-463.06C1844.32,-454.451 1840.28,-444.931 1837,-436 1829.7,-416.136 1823.27,-392.071 1820.1,-379.533"/>
<polygon fill="midnightblue" stroke="midnightblue" points="1845.08,-464.682 1852.43,-472.314 1851.44,-461.765 1845.08,-464.682"/>
</g>
<!-- Node25 -->
<g id="node25" class="node"><title>Node25</title>
<g id="a_node25"><a xlink:href="../../d1/d6c/cipconnectionobject_8h.html" target="_top" xlink:title="src/cip/cipconnectionobject.h">
<polygon fill="none" stroke="black" points="682.5,-242.5 682.5,-261.5 825.5,-261.5 825.5,-242.5 682.5,-242.5"/>
<text text-anchor="middle" x="754" y="-249.5" font-family="Helvetica,sans-Serif" font-size="10.00">src/cip/cipconnectionobject.h</text>
</a>
</g>
</g>
<!-- Node1&#45;&gt;Node25 -->
<g id="edge149" class="edge"><title>Node1&#45;&gt;Node25</title>
<path fill="none" stroke="midnightblue" d="M1789.14,-492.271C1568.54,-492.504 918.143,-488.674 840,-436 777.125,-393.618 759.127,-292.475 755.038,-261.903"/>
<polygon fill="midnightblue" stroke="midnightblue" points="1789.32,-495.77 1799.32,-492.256 1789.31,-488.77 1789.32,-495.77"/>
</g>
<!-- Node28 -->
<g id="node28" class="node"><title>Node28</title>
<g id="a_node28"><a xlink:href="../../d2/d5e/POSIX_2networkhandler_8c.html" target="_top" xlink:title="src/ports/POSIX/networkhandler.c">
<polygon fill="none" stroke="black" points="180,-62.5 180,-81.5 346,-81.5 346,-62.5 180,-62.5"/>
<text text-anchor="middle" x="263" y="-69.5" font-family="Helvetica,sans-Serif" font-size="10.00">src/ports/POSIX/networkhandler.c</text>
</a>
</g>
</g>
<!-- Node1&#45;&gt;Node28 -->
<g id="edge157" class="edge"><title>Node1&#45;&gt;Node28</title>
<path fill="none" stroke="midnightblue" d="M1789.09,-490.718C1462.72,-484.508 152,-454.381 152,-371 152,-371 152,-371 152,-189 152,-136.04 213.143,-97.7948 244.671,-81.5947"/>
<polygon fill="midnightblue" stroke="midnightblue" points="1789.3,-494.222 1799.37,-490.912 1789.44,-487.224 1789.3,-494.222"/>
</g>
<!-- Node32 -->
<g id="node32" class="node"><title>Node32</title>
<g id="a_node32"><a xlink:href="../../dd/d20/ciptcpipinterface_8c.html" target="_top" xlink:title="src/cip/ciptcpipinterface.c">
<polygon fill="none" stroke="black" points="2571,-62.5 2571,-81.5 2699,-81.5 2699,-62.5 2571,-62.5"/>
<text text-anchor="middle" x="2635" y="-69.5" font-family="Helvetica,sans-Serif" font-size="10.00">src/cip/ciptcpipinterface.c</text>
</a>
</g>
</g>
<!-- Node1&#45;&gt;Node32 -->
<g id="edge154" class="edge"><title>Node1&#45;&gt;Node32</title>
<path fill="none" stroke="midnightblue" d="M1934.86,-488.53C2076.58,-481.278 2384.46,-462.924 2487,-436 2545.49,-420.643 2563.67,-417.632 2611,-380 2719.87,-293.443 2872.65,-236.598 2791,-124 2777.7,-105.662 2720.74,-90.4293 2679.49,-81.5189"/>
<polygon fill="midnightblue" stroke="midnightblue" points="1934.34,-485.052 1924.53,-489.054 1934.7,-492.043 1934.34,-485.052"/>
</g>
<!-- Node35 -->
<g id="node35" class="node"><title>Node35</title>
<g id="a_node35"><a xlink:href="../../dd/dc4/cipidentity_8c.html" target="_top" xlink:title="src/cip/cipidentity.c">
<polygon fill="none" stroke="black" points="2271.5,-62.5 2271.5,-81.5 2372.5,-81.5 2372.5,-62.5 2271.5,-62.5"/>
<text text-anchor="middle" x="2322" y="-69.5" font-family="Helvetica,sans-Serif" font-size="10.00">src/cip/cipidentity.c</text>
</a>
</g>
</g>
<!-- Node1&#45;&gt;Node35 -->
<g id="edge152" class="edge"><title>Node1&#45;&gt;Node35</title>
<path fill="none" stroke="midnightblue" d="M1934.75,-480.441C2032.19,-462.864 2193,-425.587 2193,-371 2193,-371 2193,-371 2193,-313 2193,-211.296 2283.99,-111.142 2313.13,-81.67"/>
<polygon fill="midnightblue" stroke="midnightblue" points="1933.88,-477.039 1924.65,-482.233 1935.11,-483.932 1933.88,-477.039"/>
</g>
<!-- Node44 -->
<g id="node44" class="node"><title>Node44</title>
<g id="a_node44"><a xlink:href="../../d4/d38/opener__api_8h.html" target="_top" xlink:title="src/opener_api.h">
<polygon fill="none" stroke="black" points="2300.5,-304.5 2300.5,-323.5 2389.5,-323.5 2389.5,-304.5 2300.5,-304.5"/>
<text text-anchor="middle" x="2345" y="-311.5" font-family="Helvetica,sans-Serif" font-size="10.00">src/opener_api.h</text>
</a>
</g>
</g>
<!-- Node1&#45;&gt;Node44 -->
<g id="edge155" class="edge"><title>Node1&#45;&gt;Node44</title>
<path fill="none" stroke="midnightblue" d="M1934.91,-491.71C2007.2,-488.83 2119.5,-477.235 2207,-436 2266.66,-407.883 2320.07,-346.124 2338.33,-323.512"/>
<polygon fill="midnightblue" stroke="midnightblue" points="1934.41,-488.225 1924.54,-492.074 1934.66,-495.221 1934.41,-488.225"/>
</g>
<!-- Node46 -->
<g id="node46" class="node"><title>Node46</title>
<g id="a_node46"><a xlink:href="../../d1/d1b/trace_8h.html" target="_top" xlink:title="Tracing infrastructure for OpENer. ">
<polygon fill="none" stroke="black" points="3077.5,-124.5 3077.5,-143.5 3140.5,-143.5 3140.5,-124.5 3077.5,-124.5"/>
<text text-anchor="middle" x="3109" y="-131.5" font-family="Helvetica,sans-Serif" font-size="10.00">src/trace.h</text>
</a>
</g>
</g>
<!-- Node1&#45;&gt;Node46 -->
<g id="edge158" class="edge"><title>Node1&#45;&gt;Node46</title>
<path fill="none" stroke="midnightblue" d="M1934.71,-492.356C2288.54,-493.791 3816.45,-496.46 3896,-436 3920.06,-417.71 3916,-401.225 3916,-371 3916,-371 3916,-371 3916,-313 3916,-239.044 3881.08,-215.12 3816,-180 3800.93,-171.869 3276.81,-143.818 3140.92,-136.669"/>
<polygon fill="midnightblue" stroke="midnightblue" points="1934.6,-488.856 1924.59,-492.314 1934.58,-495.855 1934.6,-488.856"/>
</g>
<!-- Node48 -->
<g id="node48" class="node"><title>Node48</title>
<g id="a_node48"><a xlink:href="../../d9/ddc/doublylinkedlist_8c.html" target="_top" xlink:title="src/utils/doublylinkedlist.c">
<polygon fill="none" stroke="black" points="3758.5,-416.5 3758.5,-435.5 3887.5,-435.5 3887.5,-416.5 3758.5,-416.5"/>
<text text-anchor="middle" x="3823" y="-423.5" font-family="Helvetica,sans-Serif" font-size="10.00">src/utils/doublylinkedlist.c</text>
</a>
</g>
</g>
<!-- Node1&#45;&gt;Node48 -->
<g id="edge182" class="edge"><title>Node1&#45;&gt;Node48</title>
<path fill="none" stroke="midnightblue" d="M1934.74,-492.023C2186.01,-491.638 3040.53,-486.448 3744,-436 3748.68,-435.664 3753.51,-435.259 3758.37,-434.809"/>
<polygon fill="midnightblue" stroke="midnightblue" points="1934.64,-488.524 1924.64,-492.037 1934.65,-495.523 1934.64,-488.524"/>
</g>
<!-- Node49 -->
<g id="node49" class="node"><title>Node49</title>
<g id="a_node49"><a xlink:href="../../d8/d2c/enipmessage_8h.html" target="_top" xlink:title="src/utils/enipmessage.h">
<polygon fill="none" stroke="black" points="1846,-416.5 1846,-435.5 1966,-435.5 1966,-416.5 1846,-416.5"/>
<text text-anchor="middle" x="1906" y="-423.5" font-family="Helvetica,sans-Serif" font-size="10.00">src/utils/enipmessage.h</text>
</a>
</g>
</g>
<!-- Node1&#45;&gt;Node49 -->
<g id="edge183" class="edge"><title>Node1&#45;&gt;Node49</title>
<path fill="none" stroke="midnightblue" d="M1880.88,-464.116C1887.82,-453.853 1895.19,-442.963 1900.14,-435.652"/>
<polygon fill="midnightblue" stroke="midnightblue" points="1877.91,-462.255 1875.2,-472.498 1883.71,-466.179 1877.91,-462.255"/>
</g>
<!-- Node3 -->
<g id="node3" class="node"><title>Node3</title>
<g id="a_node3"><a xlink:href="../../d1/dc0/appcontype_8h.html" target="_top" xlink:title="src/cip/appcontype.h">
<polygon fill="none" stroke="black" points="1328.5,-124.5 1328.5,-143.5 1435.5,-143.5 1435.5,-124.5 1328.5,-124.5"/>
<text text-anchor="middle" x="1382" y="-131.5" font-family="Helvetica,sans-Serif" font-size="10.00">src/cip/appcontype.h</text>
</a>
</g>
</g>
<!-- Node2&#45;&gt;Node3 -->
<g id="edge2" class="edge"><title>Node2&#45;&gt;Node3</title>
<path fill="none" stroke="midnightblue" d="M1258.61,-177.172C1288.36,-167.004 1330.55,-152.585 1357.08,-143.516"/>
<polygon fill="midnightblue" stroke="midnightblue" points="1257.37,-173.898 1249.04,-180.444 1259.63,-180.521 1257.37,-173.898"/>
</g>
<!-- Node4 -->
<g id="node4" class="node"><title>Node4</title>
<g id="a_node4"><a xlink:href="../../d1/dbc/appcontype_8c.html" target="_top" xlink:title="src/cip/appcontype.c">
<polygon fill="none" stroke="black" points="955.5,-62.5 955.5,-81.5 1062.5,-81.5 1062.5,-62.5 955.5,-62.5"/>
<text text-anchor="middle" x="1009" y="-69.5" font-family="Helvetica,sans-Serif" font-size="10.00">src/cip/appcontype.c</text>
</a>
</g>
</g>
<!-- Node2&#45;&gt;Node4 -->
<g id="edge17" class="edge"><title>Node2&#45;&gt;Node4</title>
<path fill="none" stroke="midnightblue" d="M1203.84,-174.528C1184.04,-160.654 1152.73,-139.579 1124,-124 1092.71,-107.029 1054.64,-90.9939 1031.11,-81.5827"/>
<polygon fill="midnightblue" stroke="midnightblue" points="1201.88,-177.433 1212.07,-180.35 1205.92,-171.718 1201.88,-177.433"/>
</g>
<!-- Node2&#45;&gt;Node5 -->
<g id="edge22" class="edge"><title>Node2&#45;&gt;Node5</title>
<path fill="none" stroke="midnightblue" d="M1300.93,-178.847C1343.85,-171.806 1397.82,-160.649 1444,-144 1468.01,-135.344 1532.61,-98.6795 1562.03,-81.6981"/>
<polygon fill="midnightblue" stroke="midnightblue" points="1300.15,-175.427 1290.82,-180.461 1301.25,-182.339 1300.15,-175.427"/>
</g>
<!-- Node2&#45;&gt;Node6 -->
<g id="edge28" class="edge"><title>Node2&#45;&gt;Node6</title>
<path fill="none" stroke="midnightblue" d="M1166.8,-178.639C1118.74,-169.814 1048.28,-156.596 987,-144 972.899,-141.101 743.013,-99.2255 734,-88 725.096,-76.9098 724.593,-66.667 734,-56 752.154,-35.4138 913.641,-21.8842 1013.1,-15.4248"/>
<polygon fill="midnightblue" stroke="midnightblue" points="1166.24,-182.094 1176.7,-180.454 1167.5,-175.209 1166.24,-182.094"/>
</g>
<!-- Node7 -->
<g id="node7" class="node"><title>Node7</title>
<g id="a_node7"><a xlink:href="../../df/d03/cipioconnection_8c.html" target="_top" xlink:title="src/cip/cipioconnection.c">
<polygon fill="none" stroke="black" points="1710.5,-0.5 1710.5,-19.5 1835.5,-19.5 1835.5,-0.5 1710.5,-0.5"/>
<text text-anchor="middle" x="1773" y="-7.5" font-family="Helvetica,sans-Serif" font-size="10.00">src/cip/cipioconnection.c</text>
</a>
</g>
</g>
<!-- Node2&#45;&gt;Node7 -->
<g id="edge33" class="edge"><title>Node2&#45;&gt;Node7</title>
<path fill="none" stroke="midnightblue" d="M1207.08,-173.51C1188.46,-155.197 1159.63,-122.783 1148,-88 1143.49,-74.5112 1138.31,-66.4115 1148,-56 1166.98,-35.605 1555.87,-19.0328 1710.45,-13.2271"/>
<polygon fill="midnightblue" stroke="midnightblue" points="1204.71,-176.083 1214.36,-180.461 1209.55,-171.022 1204.71,-176.083"/>
</g>
<!-- Node8 -->
<g id="node8" class="node"><title>Node8</title>
<g id="a_node8"><a xlink:href="../../da/dc2/generic__networkhandler_8h.html" target="_top" xlink:title="src/ports/generic_networkhandler.h">
<polygon fill="none" stroke="red" points="3891.5,-62.5 3891.5,-81.5 4060.5,-81.5 4060.5,-62.5 3891.5,-62.5"/>
<text text-anchor="middle" x="3976" y="-69.5" font-family="Helvetica,sans-Serif" font-size="10.00">src/ports/generic_networkhandler.h</text>
</a>
</g>
</g>
<!-- Node2&#45;&gt;Node8 -->
<g id="edge36" class="edge"><title>Node2&#45;&gt;Node8</title>
<path fill="none" stroke="midnightblue" d="M1311.9,-188.44C1667.07,-185.983 2997.21,-174.874 3417,-144 3429.21,-143.102 3764.36,-100.165 3909.75,-81.5072"/>
<polygon fill="midnightblue" stroke="midnightblue" points="1311.65,-184.941 1301.67,-188.51 1311.7,-191.941 1311.65,-184.941"/>
</g>
<!-- Node9 -->
<g id="node9" class="node"><title>Node9</title>
<g id="a_node9"><a xlink:href="../../d2/dbd/encap_8c.html" target="_top" xlink:title="src/enet_encap/encap.c">
<polygon fill="none" stroke="black" points="3178.5,-0.5 3178.5,-19.5 3299.5,-19.5 3299.5,-0.5 3178.5,-0.5"/>
<text text-anchor="middle" x="3239" y="-7.5" font-family="Helvetica,sans-Serif" font-size="10.00">src/enet_encap/encap.c</text>
</a>
</g>
</g>
<!-- Node2&#45;&gt;Node9 -->
<g id="edge35" class="edge"><title>Node2&#45;&gt;Node9</title>
<path fill="none" stroke="midnightblue" d="M1311.77,-187.883C1704.19,-182.807 3288.38,-161.405 3510,-144 3574.85,-138.907 3590.26,-130.423 3655,-124 3720.58,-117.493 4201.84,-135.991 4247,-88 4256.75,-77.6427 4256.83,-66.2784 4247,-56 4214.16,-21.66 3512.72,-13.2036 3299.77,-11.424"/>
<polygon fill="midnightblue" stroke="midnightblue" points="1311.56,-184.385 1301.61,-188.014 1311.66,-191.385 1311.56,-184.385"/>
</g>
<!-- Node16 -->
<g id="node16" class="node"><title>Node16</title>
<g id="a_node16"><a xlink:href="../../df/d2e/cipassembly_8c.html" target="_top" xlink:title="src/cip/cipassembly.c">
<polygon fill="none" stroke="black" points="2141,-62.5 2141,-81.5 2253,-81.5 2253,-62.5 2141,-62.5"/>
<text text-anchor="middle" x="2197" y="-69.5" font-family="Helvetica,sans-Serif" font-size="10.00">src/cip/cipassembly.c</text>
</a>
</g>
</g>
<!-- Node2&#45;&gt;Node16 -->
<g id="edge18" class="edge"><title>Node2&#45;&gt;Node16</title>
<path fill="none" stroke="midnightblue" d="M1311.9,-188.5C1494.84,-186.758 1910.9,-178.953 2048,-144 2101.31,-130.409 2158.47,-97.2669 2183.71,-81.5454"/>
<polygon fill="midnightblue" stroke="midnightblue" points="1311.75,-185.001 1301.78,-188.592 1311.81,-192.001 1311.75,-185.001"/>
</g>
<!-- Node17 -->
<g id="node17" class="node"><title>Node17</title>
<g id="a_node17"><a xlink:href="../../d2/d11/cipclass3connection_8h.html" target="_top" xlink:title="CIP Class 3 connection. ">
<polygon fill="none" stroke="black" points="343,-124.5 343,-143.5 489,-143.5 489,-124.5 343,-124.5"/>
<text text-anchor="middle" x="416" y="-131.5" font-family="Helvetica,sans-Serif" font-size="10.00">src/cip/cipclass3connection.h</text>
</a>
</g>
</g>
<!-- Node2&#45;&gt;Node17 -->
<g id="edge19" class="edge"><title>Node2&#45;&gt;Node17</title>
<path fill="none" stroke="midnightblue" d="M1135.84,-183.108C975.218,-172.373 637.794,-149.823 489.062,-139.883"/>
<polygon fill="midnightblue" stroke="midnightblue" points="1135.95,-186.623 1146.16,-183.798 1136.41,-179.639 1135.95,-186.623"/>
</g>
<!-- Node19 -->
<g id="node19" class="node"><title>Node19</title>
<g id="a_node19"><a xlink:href="../../d0/d3c/cipqos_8h.html" target="_top" xlink:title="Public interface of the QoS Object. ">
<polygon fill="none" stroke="black" points="996,-124.5 996,-143.5 1082,-143.5 1082,-124.5 996,-124.5"/>
<text text-anchor="middle" x="1039" y="-131.5" font-family="Helvetica,sans-Serif" font-size="10.00">src/cip/cipqos.h</text>
</a>
</g>
</g>
<!-- Node2&#45;&gt;Node19 -->
<g id="edge23" class="edge"><title>Node2&#45;&gt;Node19</title>
<path fill="none" stroke="midnightblue" d="M1184.83,-177.568C1149.93,-167.381 1099.65,-152.703 1068.18,-143.516"/>
<polygon fill="midnightblue" stroke="midnightblue" points="1184.11,-181.001 1194.69,-180.444 1186.07,-174.282 1184.11,-181.001"/>
</g>
<!-- Node21 -->
<g id="node21" class="node"><title>Node21</title>
<g id="a_node21"><a xlink:href="../../de/d45/cipioconnection_8h.html" target="_top" xlink:title="src/cip/cipioconnection.h">
<polygon fill="none" stroke="black" points="738.5,-124.5 738.5,-143.5 863.5,-143.5 863.5,-124.5 738.5,-124.5"/>
<text text-anchor="middle" x="801" y="-131.5" font-family="Helvetica,sans-Serif" font-size="10.00">src/cip/cipioconnection.h</text>
</a>
</g>
</g>
<!-- Node2&#45;&gt;Node21 -->
<g id="edge29" class="edge"><title>Node2&#45;&gt;Node21</title>
<path fill="none" stroke="midnightblue" d="M1146.79,-179.144C1065.45,-168.76 938.919,-152.607 863.575,-142.988"/>
<polygon fill="midnightblue" stroke="midnightblue" points="1146.61,-182.649 1156.97,-180.444 1147.5,-175.705 1146.61,-182.649"/>
</g>
<!-- Node22 -->
<g id="node22" class="node"><title>Node22</title>
<g id="a_node22"><a xlink:href="../../df/d91/cipconnectionobject_8c.html" target="_top" xlink:title="src/cip/cipconnectionobject.c">
<polygon fill="none" stroke="black" points="794.5,-62.5 794.5,-81.5 937.5,-81.5 937.5,-62.5 794.5,-62.5"/>
<text text-anchor="middle" x="866" y="-69.5" font-family="Helvetica,sans-Serif" font-size="10.00">src/cip/cipconnectionobject.c</text>
</a>
</g>
</g>
<!-- Node2&#45;&gt;Node22 -->
<g id="edge32" class="edge"><title>Node2&#45;&gt;Node22</title>
<path fill="none" stroke="midnightblue" d="M1193.69,-176.505C1173.62,-167.954 1146.88,-156.025 1124,-144 1108.82,-136.022 1106.9,-130.423 1091,-124 1058.88,-111.024 967.416,-92.2953 911.487,-81.5148"/>
<polygon fill="midnightblue" stroke="midnightblue" points="1192.39,-179.754 1202.96,-180.417 1195.11,-173.304 1192.39,-179.754"/>
</g>
<!-- Node23 -->
<g id="node23" class="node"><title>Node23</title>
<g id="a_node23"><a xlink:href="../../d3/d98/cpf_8c.html" target="_top" xlink:title="src/enet_encap/cpf.c">
<polygon fill="none" stroke="black" points="2015,-62.5 2015,-81.5 2123,-81.5 2123,-62.5 2015,-62.5"/>
<text text-anchor="middle" x="2069" y="-69.5" font-family="Helvetica,sans-Serif" font-size="10.00">src/enet_encap/cpf.c</text>
</a>
</g>
</g>
<!-- Node2&#45;&gt;Node23 -->
<g id="edge34" class="edge"><title>Node2&#45;&gt;Node23</title>
<path fill="none" stroke="midnightblue" d="M1311.76,-182.234C1403.74,-174.699 1552.35,-161.274 1680,-144 1698.16,-141.543 1987.05,-91.6476 2005,-88 2014.51,-86.0688 2024.76,-83.7663 2034.21,-81.5521"/>
<polygon fill="midnightblue" stroke="midnightblue" points="1311.34,-178.756 1301.66,-183.056 1311.91,-185.733 1311.34,-178.756"/>
</g>
<!-- Node3&#45;&gt;Node4 -->
<g id="edge3" class="edge"><title>Node3&#45;&gt;Node4</title>
<path fill="none" stroke="midnightblue" d="M1319.07,-122.877C1246.82,-111.255 1129.58,-92.3968 1061.86,-81.5034"/>
<polygon fill="midnightblue" stroke="midnightblue" points="1318.53,-126.335 1328.95,-124.467 1319.64,-119.423 1318.53,-126.335"/>
</g>
<!-- Node3&#45;&gt;Node5 -->
<g id="edge4" class="edge"><title>Node3&#45;&gt;Node5</title>
<path fill="none" stroke="midnightblue" d="M1419.6,-121.432C1457.49,-109.771 1515.11,-92.0436 1549.11,-81.5806"/>
<polygon fill="midnightblue" stroke="midnightblue" points="1418.47,-118.117 1409.94,-124.403 1420.53,-124.808 1418.47,-118.117"/>
</g>
<!-- Node3&#45;&gt;Node6 -->
<g id="edge5" class="edge"><title>Node3&#45;&gt;Node6</title>
<path fill="none" stroke="midnightblue" d="M1373.23,-115.038C1363.5,-97.1304 1346.09,-70.2934 1323,-56 1276.78,-27.3869 1216.25,-16.3379 1168.61,-12.3365"/>
<polygon fill="midnightblue" stroke="midnightblue" points="1370.24,-116.881 1377.94,-124.16 1376.46,-113.669 1370.24,-116.881"/>
</g>
<!-- Node3&#45;&gt;Node7 -->
<g id="edge6" class="edge"><title>Node3&#45;&gt;Node7</title>
<path fill="none" stroke="midnightblue" d="M1400.43,-118.026C1423.29,-100.281 1464.13,-71.208 1504,-56 1571.69,-30.1824 1654.55,-19.1512 1710.28,-14.4539"/>
<polygon fill="midnightblue" stroke="midnightblue" points="1398,-115.488 1392.32,-124.435 1402.34,-120.979 1398,-115.488"/>
</g>
<!-- Node3&#45;&gt;Node8 -->
<g id="edge7" class="edge"><title>Node3&#45;&gt;Node8</title>
<path fill="none" stroke="midnightblue" d="M1445.99,-128.203C1469.56,-126.609 1496.48,-124.99 1521,-124 2518.98,-83.7206 2770.17,-131.938 3768,-88 3808.6,-86.2122 3853.59,-83.1083 3891.31,-80.1862"/>
<polygon fill="midnightblue" stroke="midnightblue" points="1445.5,-124.728 1435.76,-128.907 1445.98,-131.712 1445.5,-124.728"/>
</g>
<!-- Node14 -->
<g id="node14" class="node"><title>Node14</title>
<g id="a_node14"><a xlink:href="../../d5/daa/MINGW_2sample__application_2sampleapplication_8c.html" target="_top" xlink:title="src/ports/MINGW/sample\l_application/sampleapplication.c">
<polygon fill="none" stroke="black" points="1157,-57 1157,-87 1315,-87 1315,-57 1157,-57"/>
<text text-anchor="start" x="1165" y="-75" font-family="Helvetica,sans-Serif" font-size="10.00">src/ports/MINGW/sample</text>
<text text-anchor="middle" x="1236" y="-64" font-family="Helvetica,sans-Serif" font-size="10.00">_application/sampleapplication.c</text>
</a>
</g>
</g>
<!-- Node3&#45;&gt;Node14 -->
<g id="edge15" class="edge"><title>Node3&#45;&gt;Node14</title>
<path fill="none" stroke="midnightblue" d="M1351.83,-120.602C1328.05,-110.828 1294.88,-97.1972 1270.13,-87.0253"/>
<polygon fill="midnightblue" stroke="midnightblue" points="1350.5,-123.84 1361.08,-124.403 1353.16,-117.365 1350.5,-123.84"/>
</g>
<!-- Node15 -->
<g id="node15" class="node"><title>Node15</title>
<g id="a_node15"><a xlink:href="../../d2/daa/POSIX_2sample__application_2sampleapplication_8c.html" target="_top" xlink:title="src/ports/POSIX/sample\l_application/sampleapplication.c">
<polygon fill="none" stroke="black" points="1839,-57 1839,-87 1997,-87 1997,-57 1839,-57"/>
<text text-anchor="start" x="1847" y="-75" font-family="Helvetica,sans-Serif" font-size="10.00">src/ports/POSIX/sample</text>
<text text-anchor="middle" x="1918" y="-64" font-family="Helvetica,sans-Serif" font-size="10.00">_application/sampleapplication.c</text>
</a>
</g>
</g>
<!-- Node3&#45;&gt;Node15 -->
<g id="edge16" class="edge"><title>Node3&#45;&gt;Node15</title>
<path fill="none" stroke="midnightblue" d="M1445.93,-125.844C1544.15,-114.849 1731.97,-93.824 1838.71,-81.8756"/>
<polygon fill="midnightblue" stroke="midnightblue" points="1445.4,-122.381 1435.85,-126.972 1446.18,-129.338 1445.4,-122.381"/>
</g>
<!-- Node8&#45;&gt;Node6 -->
<g id="edge8" class="edge"><title>Node8&#45;&gt;Node6</title>
<path fill="none" stroke="midnightblue" d="M3881.04,-61.5787C3855.41,-59.3734 3827.66,-57.2926 3802,-56 2711.71,-1.08409 2437.33,-47.2543 1346,-20 1286.44,-18.5125 1219.07,-16.1037 1168.55,-14.1523"/>
<polygon fill="midnightblue" stroke="midnightblue" points="3880.85,-65.0761 3891.12,-62.462 3881.47,-58.1028 3880.85,-65.0761"/>
</g>
<!-- Node8&#45;&gt;Node7 -->
<g id="edge9" class="edge"><title>Node8&#45;&gt;Node7</title>
<path fill="none" stroke="midnightblue" d="M3899.38,-61.3538C3880.03,-59.2474 3859.28,-57.2704 3840,-56 3435.72,-29.3567 2137.09,-14.7099 1835.83,-11.6204"/>
<polygon fill="midnightblue" stroke="midnightblue" points="3899.03,-64.8362 3909.35,-62.4641 3899.8,-57.8791 3899.03,-64.8362"/>
</g>
<!-- Node8&#45;&gt;Node9 -->
<g id="edge10" class="edge"><title>Node8&#45;&gt;Node9</title>
<path fill="none" stroke="midnightblue" d="M3915.31,-60.921C3902.98,-59.0973 3890.09,-57.3492 3878,-56 3666.34,-32.3887 3413.78,-18.9213 3299.94,-13.6338"/>
<polygon fill="midnightblue" stroke="midnightblue" points="3915.08,-64.427 3925.49,-62.4637 3916.13,-57.5059 3915.08,-64.427"/>
</g>
<!-- Node8&#45;&gt;Node10 -->
<g id="edge11" class="edge"><title>Node8&#45;&gt;Node10</title>
<path fill="none" stroke="midnightblue" d="M3881.03,-61.6214C3855.4,-59.4159 3827.66,-57.3244 3802,-56 2869.33,-7.86527 2634.6,-44.0933 1701,-20 1642.08,-18.4794 1575.69,-16.1823 1524.62,-14.2895"/>
<polygon fill="midnightblue" stroke="midnightblue" points="3880.85,-65.1188 3891.12,-62.5042 3881.46,-58.1454 3880.85,-65.1188"/>
</g>
<!-- Node11 -->
<g id="node11" class="node"><title>Node11</title>
<g id="a_node11"><a xlink:href="../../d5/dcb/MINGW_2main_8c.html" target="_top" xlink:title="src/ports/MINGW/main.c">
<polygon fill="none" stroke="black" points="4558,-0.5 4558,-19.5 4684,-19.5 4684,-0.5 4558,-0.5"/>
<text text-anchor="middle" x="4621" y="-7.5" font-family="Helvetica,sans-Serif" font-size="10.00">src/ports/MINGW/main.c</text>
</a>
</g>
</g>
<!-- Node8&#45;&gt;Node11 -->
<g id="edge12" class="edge"><title>Node8&#45;&gt;Node11</title>
<path fill="none" stroke="midnightblue" d="M4057.45,-61.3324C4073.85,-59.4823 4090.97,-57.6194 4107,-56 4269.21,-39.6159 4460.57,-23.7835 4557.64,-15.9994"/>
<polygon fill="midnightblue" stroke="midnightblue" points="4056.89,-57.8733 4047.35,-62.4803 4057.68,-64.8285 4056.89,-57.8733"/>
</g>
<!-- Node12 -->
<g id="node12" class="node"><title>Node12</title>
<g id="a_node12"><a xlink:href="../../d9/dfb/POSIX_2main_8c.html" target="_top" xlink:title="src/ports/POSIX/main.c">
<polygon fill="none" stroke="black" points="4218.5,-0.5 4218.5,-19.5 4339.5,-19.5 4339.5,-0.5 4218.5,-0.5"/>
<text text-anchor="middle" x="4279" y="-7.5" font-family="Helvetica,sans-Serif" font-size="10.00">src/ports/POSIX/main.c</text>
</a>
</g>
</g>
<!-- Node8&#45;&gt;Node12 -->
<g id="edge13" class="edge"><title>Node8&#45;&gt;Node12</title>
<path fill="none" stroke="midnightblue" d="M4028.93,-60.5181C4087.76,-48.87 4181.61,-30.2854 4236.06,-19.5034"/>
<polygon fill="midnightblue" stroke="midnightblue" points="4028.22,-57.0913 4019.09,-62.4672 4029.58,-63.958 4028.22,-57.0913"/>
</g>
<!-- Node13 -->
<g id="node13" class="node"><title>Node13</title>
<g id="a_node13"><a xlink:href="../../dc/db2/WIN32_2main_8c.html" target="_top" xlink:title="src/ports/WIN32/main.c">
<polygon fill="none" stroke="black" points="4357.5,-0.5 4357.5,-19.5 4478.5,-19.5 4478.5,-0.5 4357.5,-0.5"/>
<text text-anchor="middle" x="4418" y="-7.5" font-family="Helvetica,sans-Serif" font-size="10.00">src/ports/WIN32/main.c</text>
</a>
</g>
</g>
<!-- Node8&#45;&gt;Node13 -->
<g id="edge14" class="edge"><title>Node8&#45;&gt;Node13</title>
<path fill="none" stroke="midnightblue" d="M4048.83,-61.1136C4135.05,-49.4099 4277.05,-30.1339 4357.49,-19.2145"/>
<polygon fill="midnightblue" stroke="midnightblue" points="4048.3,-57.6538 4038.86,-62.4672 4049.24,-64.5902 4048.3,-57.6538"/>
</g>
<!-- Node17&#45;&gt;Node6 -->
<g id="edge21" class="edge"><title>Node17&#45;&gt;Node6</title>
<path fill="none" stroke="midnightblue" d="M402.536,-115.879C390.72,-98.6678 377.621,-72.4021 393,-56 434.684,-11.5416 840.219,-9.13776 1013.32,-10.171"/>
<polygon fill="midnightblue" stroke="midnightblue" points="400.042,-118.396 408.78,-124.388 405.686,-114.255 400.042,-118.396"/>
</g>
<!-- Node18 -->
<g id="node18" class="node"><title>Node18</title>
<g id="a_node18"><a xlink:href="../../dc/d93/cipclass3connection_8c.html" target="_top" xlink:title="src/cip/cipclass3connection.c">
<polygon fill="none" stroke="black" points="402,-62.5 402,-81.5 548,-81.5 548,-62.5 402,-62.5"/>
<text text-anchor="middle" x="475" y="-69.5" font-family="Helvetica,sans-Serif" font-size="10.00">src/cip/cipclass3connection.c</text>
</a>
</g>
</g>
<!-- Node17&#45;&gt;Node18 -->
<g id="edge20" class="edge"><title>Node17&#45;&gt;Node18</title>
<path fill="none" stroke="midnightblue" d="M431.544,-117.193C442.753,-105.793 457.456,-90.8414 466.562,-81.5806"/>
<polygon fill="midnightblue" stroke="midnightblue" points="428.969,-114.819 424.453,-124.403 433.96,-119.727 428.969,-114.819"/>
</g>
<!-- Node19&#45;&gt;Node5 -->
<g id="edge24" class="edge"><title>Node19&#45;&gt;Node5</title>
<path fill="none" stroke="midnightblue" d="M1092.28,-127.058C1195.22,-115.578 1420.35,-90.4699 1523.48,-78.9687"/>
<polygon fill="midnightblue" stroke="midnightblue" points="1091.67,-123.604 1082.12,-128.191 1092.44,-130.561 1091.67,-123.604"/>
</g>
<!-- Node19&#45;&gt;Node6 -->
<g id="edge25" class="edge"><title>Node19&#45;&gt;Node6</title>
<path fill="none" stroke="midnightblue" d="M985.8,-124.598C984.521,-124.396 983.253,-124.197 982,-124 876.697,-107.446 681.759,-136.181 752,-56 768.969,-36.6296 918.648,-22.8456 1013.36,-15.9731"/>
<polygon fill="midnightblue" stroke="midnightblue" points="985.318,-128.065 995.741,-126.163 986.407,-121.15 985.318,-128.065"/>
</g>
<!-- Node19&#45;&gt;Node10 -->
<g id="edge27" class="edge"><title>Node19&#45;&gt;Node10</title>
<path fill="none" stroke="midnightblue" d="M985.736,-124.436C912.211,-112.492 788.233,-91.8564 785,-88 775.863,-77.1014 775.294,-66.3956 785,-56 804.179,-35.4577 1182.66,-19.8557 1355.37,-13.7765"/>
<polygon fill="midnightblue" stroke="midnightblue" points="985.327,-127.916 995.758,-126.061 986.447,-121.006 985.327,-127.916"/>
</g>
<!-- Node19&#45;&gt;Node20 -->
<g id="edge26" class="edge"><title>Node19&#45;&gt;Node20</title>
<path fill="none" stroke="midnightblue" d="M1092.18,-131.277C1337.37,-123.323 2348.32,-90.4434 2381,-88 2409.67,-85.8563 2441.78,-82.1272 2466.79,-78.9236"/>
<polygon fill="midnightblue" stroke="midnightblue" points="1091.97,-127.781 1082.09,-131.604 1092.2,-134.778 1091.97,-127.781"/>
</g>
<!-- Node21&#45;&gt;Node6 -->
<g id="edge30" class="edge"><title>Node21&#45;&gt;Node6</title>
<path fill="none" stroke="midnightblue" d="M728.414,-123.052C671.077,-112.293 605.679,-91.6908 638,-56 662.669,-28.7595 890.626,-17.3477 1013.45,-13.1435"/>
<polygon fill="midnightblue" stroke="midnightblue" points="727.803,-126.498 738.264,-124.822 729.04,-119.609 727.803,-126.498"/>
</g>
<!-- Node21&#45;&gt;Node7 -->
<g id="edge31" class="edge"><title>Node21&#45;&gt;Node7</title>
<path fill="none" stroke="midnightblue" d="M789.78,-115.675C780.077,-98.3024 769.799,-71.9089 785,-56 789.015,-51.798 1493.68,-22.4856 1710.36,-13.568"/>
<polygon fill="midnightblue" stroke="midnightblue" points="786.796,-117.505 794.945,-124.275 792.796,-113.901 786.796,-117.505"/>
</g>
<!-- Node24&#45;&gt;Node2 -->
<g id="edge38" class="edge"><title>Node24&#45;&gt;Node2</title>
<path fill="none" stroke="midnightblue" d="M1760.67,-361.711C1709.96,-354.529 1634.25,-342.007 1570,-324 1441.42,-287.965 1293.96,-222.967 1242.71,-199.632"/>
<polygon fill="midnightblue" stroke="midnightblue" points="1760.4,-365.206 1770.78,-363.119 1761.36,-358.273 1760.4,-365.206"/>
</g>
<!-- Node24&#45;&gt;Node19 -->
<g id="edge121" class="edge"><title>Node24&#45;&gt;Node19</title>
<path fill="none" stroke="midnightblue" d="M1760.58,-363.52C1697.25,-356.84 1592.56,-343.915 1504,-324 1336.02,-286.226 1290.65,-277.677 1137,-200 1103.47,-183.052 1067.52,-156.887 1049.94,-143.511"/>
<polygon fill="midnightblue" stroke="midnightblue" points="1760.46,-367.026 1770.77,-364.578 1761.18,-360.063 1760.46,-367.026"/>
</g>
<!-- Node24&#45;&gt;Node25 -->
<g id="edge39" class="edge"><title>Node24&#45;&gt;Node25</title>
<path fill="none" stroke="midnightblue" d="M1760.73,-368.947C1587.87,-368.347 1073.29,-363.223 911,-324 855.171,-310.507 794.773,-277.316 768.063,-261.564"/>
<polygon fill="midnightblue" stroke="midnightblue" points="1760.88,-372.447 1770.89,-368.978 1760.9,-365.447 1760.88,-372.447"/>
</g>
<!-- Node27 -->
<g id="node27" class="node"><title>Node27</title>
<g id="a_node27"><a xlink:href="../../d0/dff/cpf_8h.html" target="_top" xlink:title="src/enet_encap/cpf.h">
<polygon fill="none" stroke="black" points="1530,-124.5 1530,-143.5 1638,-143.5 1638,-124.5 1530,-124.5"/>
<text text-anchor="middle" x="1584" y="-131.5" font-family="Helvetica,sans-Serif" font-size="10.00">src/enet_encap/cpf.h</text>
</a>
</g>
</g>
<!-- Node24&#45;&gt;Node27 -->
<g id="edge122" class="edge"><title>Node24&#45;&gt;Node27</title>
<path fill="none" stroke="midnightblue" d="M1802.19,-353.192C1756.97,-307.967 1628.06,-179.061 1592.93,-143.934"/>
<polygon fill="midnightblue" stroke="midnightblue" points="1799.85,-355.798 1809.39,-360.394 1804.8,-350.848 1799.85,-355.798"/>
</g>
<!-- Node29 -->
<g id="node29" class="node"><title>Node29</title>
<g id="a_node29"><a xlink:href="../../d1/d02/cipepath_8h.html" target="_top" xlink:title="src/cip/cipepath.h">
<polygon fill="none" stroke="black" points="920,-304.5 920,-323.5 1014,-323.5 1014,-304.5 920,-304.5"/>
<text text-anchor="middle" x="967" y="-311.5" font-family="Helvetica,sans-Serif" font-size="10.00">src/cip/cipepath.h</text>
</a>
</g>
</g>
<!-- Node24&#45;&gt;Node29 -->
<g id="edge61" class="edge"><title>Node24&#45;&gt;Node29</title>
<path fill="none" stroke="midnightblue" d="M1760.53,-367.491C1630.03,-363.678 1301.44,-351.903 1028,-324 1023.53,-323.544 1018.88,-322.995 1014.24,-322.396"/>
<polygon fill="midnightblue" stroke="midnightblue" points="1760.59,-370.994 1770.69,-367.783 1760.79,-363.997 1760.59,-370.994"/>
</g>
<!-- Node31 -->
<g id="node31" class="node"><title>Node31</title>
<g id="a_node31"><a xlink:href="../../de/df4/cipassembly_8h.html" target="_top" xlink:title="src/cip/cipassembly.h">
<polygon fill="none" stroke="black" points="1808,-124.5 1808,-143.5 1920,-143.5 1920,-124.5 1808,-124.5"/>
<text text-anchor="middle" x="1864" y="-131.5" font-family="Helvetica,sans-Serif" font-size="10.00">src/cip/cipassembly.h</text>
</a>
</g>
</g>
<!-- Node24&#45;&gt;Node31 -->
<g id="edge67" class="edge"><title>Node24&#45;&gt;Node31</title>
<path fill="none" stroke="midnightblue" d="M1818.37,-350.052C1819.48,-315.525 1823.95,-240.36 1842,-180 1845.99,-166.669 1853.58,-152.424 1858.72,-143.614"/>
<polygon fill="midnightblue" stroke="midnightblue" points="1814.86,-350.036 1818.1,-360.123 1821.86,-350.218 1814.86,-350.036"/>
</g>
<!-- Node33 -->
<g id="node33" class="node"><title>Node33</title>
<g id="a_node33"><a xlink:href="../../db/d14/cipcommon_8h.html" target="_top" xlink:title="src/cip/cipcommon.h">
<polygon fill="none" stroke="black" points="3301.5,-124.5 3301.5,-143.5 3408.5,-143.5 3408.5,-124.5 3301.5,-124.5"/>
<text text-anchor="middle" x="3355" y="-131.5" font-family="Helvetica,sans-Serif" font-size="10.00">src/cip/cipcommon.h</text>
</a>
</g>
</g>
<!-- Node24&#45;&gt;Node33 -->
<g id="edge73" class="edge"><title>Node24&#45;&gt;Node33</title>
<path fill="none" stroke="midnightblue" d="M1875.35,-359.982C2163.47,-329.818 2240.84,-363.754 2524,-324 2842.68,-279.26 3219.7,-174.116 3325.89,-143.503"/>
<polygon fill="midnightblue" stroke="midnightblue" points="1874.58,-356.543 1865.01,-361.082 1875.32,-363.504 1874.58,-356.543"/>
</g>
<!-- Node40 -->
<g id="node40" class="node"><title>Node40</title>
<g id="a_node40"><a xlink:href="../../dc/d72/cipidentity_8h.html" target="_top" xlink:title="src/cip/cipidentity.h">
<polygon fill="none" stroke="black" points="1938.5,-124.5 1938.5,-143.5 2039.5,-143.5 2039.5,-124.5 1938.5,-124.5"/>
<text text-anchor="middle" x="1989" y="-131.5" font-family="Helvetica,sans-Serif" font-size="10.00">src/cip/cipidentity.h</text>
</a>
</g>
</g>
<!-- Node24&#45;&gt;Node40 -->
<g id="edge91" class="edge"><title>Node24&#45;&gt;Node40</title>
<path fill="none" stroke="midnightblue" d="M1830.39,-352.051C1864.16,-305.838 1957.01,-178.77 1982.47,-143.934"/>
<polygon fill="midnightblue" stroke="midnightblue" points="1827.36,-350.255 1824.29,-360.394 1833.01,-354.385 1827.36,-350.255"/>
</g>
<!-- Node41 -->
<g id="node41" class="node"><title>Node41</title>
<g id="a_node41"><a xlink:href="../../d1/dad/ciptcpipinterface_8h.html" target="_top" xlink:title="Public interface of the TCP/IP Interface Object. ">
<polygon fill="none" stroke="black" points="2877,-124.5 2877,-143.5 3005,-143.5 3005,-124.5 2877,-124.5"/>
<text text-anchor="middle" x="2941" y="-131.5" font-family="Helvetica,sans-Serif" font-size="10.00">src/cip/ciptcpipinterface.h</text>
</a>
</g>
</g>
<!-- Node24&#45;&gt;Node41 -->
<g id="edge97" class="edge"><title>Node24&#45;&gt;Node41</title>
<path fill="none" stroke="midnightblue" d="M1875.32,-359.983C2140.07,-331.966 2213.33,-373.819 2471,-324 2548.27,-309.059 2565.57,-296.336 2639,-268 2748.84,-225.614 2876.94,-165.575 2923.2,-143.536"/>
<polygon fill="midnightblue" stroke="midnightblue" points="1874.57,-356.543 1865.01,-361.099 1875.33,-363.502 1874.57,-356.543"/>
</g>
<!-- Node42 -->
<g id="node42" class="node"><title>Node42</title>
<g id="a_node42"><a xlink:href="../../dd/d4d/cipethernetlink_8h.html" target="_top" xlink:title="src/cip/cipethernetlink.h">
<polygon fill="none" stroke="red" points="2663,-124.5 2663,-143.5 2783,-143.5 2783,-124.5 2663,-124.5"/>
<text text-anchor="middle" x="2723" y="-131.5" font-family="Helvetica,sans-Serif" font-size="10.00">src/cip/cipethernetlink.h</text>
</a>
</g>
</g>
<!-- Node24&#45;&gt;Node42 -->
<g id="edge105" class="edge"><title>Node24&#45;&gt;Node42</title>
<path fill="none" stroke="midnightblue" d="M1875.08,-360.035C2052.66,-341.845 2467.53,-352.267 2604,-268 2658.83,-234.141 2703.12,-167.502 2717.8,-143.703"/>
<polygon fill="midnightblue" stroke="midnightblue" points="1874.58,-356.569 1865.01,-361.127 1875.33,-363.528 1874.58,-356.569"/>
</g>
<!-- Node43 -->
<g id="node43" class="node"><title>Node43</title>
<g id="a_node43"><a xlink:href="../../d2/d75/cipmessagerouter_8h.html" target="_top" xlink:title="src/cip/cipmessagerouter.h">
<polygon fill="none" stroke="black" points="2349,-124.5 2349,-143.5 2483,-143.5 2483,-124.5 2349,-124.5"/>
<text text-anchor="middle" x="2416" y="-131.5" font-family="Helvetica,sans-Serif" font-size="10.00">src/cip/cipmessagerouter.h</text>
</a>
</g>
</g>
<!-- Node24&#45;&gt;Node43 -->
<g id="edge111" class="edge"><title>Node24&#45;&gt;Node43</title>
<path fill="none" stroke="midnightblue" d="M1849.58,-356.644C1956.51,-314.799 2303.4,-179.06 2394.12,-143.56"/>
<polygon fill="midnightblue" stroke="midnightblue" points="1848.03,-353.491 1839.99,-360.394 1850.58,-360.01 1848.03,-353.491"/>
</g>
<!-- Node24&#45;&gt;Node44 -->
<g id="edge123" class="edge"><title>Node24&#45;&gt;Node44</title>
<path fill="none" stroke="midnightblue" d="M1875.27,-359.981C1945.19,-351.935 2196.63,-328.65 2300.14,-319.12"/>
<polygon fill="midnightblue" stroke="midnightblue" points="1874.53,-356.545 1865.02,-361.219 1875.37,-363.494 1874.53,-356.545"/>
</g>
<!-- Node25&#45;&gt;Node2 -->
<g id="edge40" class="edge"><title>Node25&#45;&gt;Node2</title>
<path fill="none" stroke="midnightblue" d="M810.445,-240.69C820.282,-239.026 830.427,-237.395 840,-236 945.777,-220.59 1068.55,-206.938 1146.24,-198.821"/>
<polygon fill="midnightblue" stroke="midnightblue" points="809.604,-237.283 800.341,-242.427 810.79,-244.182 809.604,-237.283"/>
</g>
<!-- Node25&#45;&gt;Node4 -->
<g id="edge41" class="edge"><title>Node25&#45;&gt;Node4</title>
<path fill="none" stroke="midnightblue" d="M742.696,-233.766C726.733,-207.05 702.339,-155.448 729,-124 760.61,-86.7144 898.084,-97.6668 946,-88 955.478,-86.0878 965.698,-83.7676 975.092,-81.5292"/>
<polygon fill="midnightblue" stroke="midnightblue" points="739.821,-235.77 748.086,-242.399 745.759,-232.063 739.821,-235.77"/>
</g>
<!-- Node25&#45;&gt;Node6 -->
<g id="edge43" class="edge"><title>Node25&#45;&gt;Node6</title>
<path fill="none" stroke="midnightblue" d="M672.271,-250.123C475.359,-245.462 1.97698,-217.614 156,-56 185.396,-25.155 794.298,-14.6458 1013.35,-11.8553"/>
<polygon fill="midnightblue" stroke="midnightblue" points="672.211,-253.623 682.286,-250.346 672.367,-246.624 672.211,-253.623"/>
</g>
<!-- Node25&#45;&gt;Node12 -->
<g id="edge60" class="edge"><title>Node25&#45;&gt;Node12</title>
<path fill="none" stroke="midnightblue" d="M835.847,-249.775C1241.77,-243.417 3041.48,-211.833 3597,-144 3640.26,-138.717 3649.81,-129.83 3693,-124 3756,-115.496 4216.24,-129.95 4264,-88 4283.65,-70.7442 4282.26,-36.0596 4280.34,-19.7958"/>
<polygon fill="midnightblue" stroke="midnightblue" points="835.608,-246.278 825.664,-249.934 835.718,-253.277 835.608,-246.278"/>
</g>
<!-- Node25&#45;&gt;Node17 -->
<g id="edge42" class="edge"><title>Node25&#45;&gt;Node17</title>
<path fill="none" stroke="midnightblue" d="M692.961,-240.505C649.725,-232.084 590.799,-218.589 541,-200 498.606,-184.175 452.206,-157.277 429.729,-143.574"/>
<polygon fill="midnightblue" stroke="midnightblue" points="692.564,-243.993 703.044,-242.433 693.879,-237.117 692.564,-243.993"/>
</g>
<!-- Node25&#45;&gt;Node21 -->
<g id="edge44" class="edge"><title>Node25&#45;&gt;Node21</title>
<path fill="none" stroke="midnightblue" d="M761.41,-232.711C771.72,-207.267 789.976,-162.208 797.554,-143.505"/>
<polygon fill="midnightblue" stroke="midnightblue" points="758.044,-231.699 757.533,-242.281 764.532,-234.327 758.044,-231.699"/>
</g>
<!-- Node25&#45;&gt;Node22 -->
<g id="edge45" class="edge"><title>Node25&#45;&gt;Node22</title>
<path fill="none" stroke="midnightblue" d="M672.15,-246.394C612.841,-239.519 547.368,-222.43 574,-180 620.212,-106.376 723.79,-83.0363 794.302,-75.8526"/>
<polygon fill="midnightblue" stroke="midnightblue" points="672.047,-249.903 682.363,-247.487 672.792,-242.942 672.047,-249.903"/>
</g>
<!-- Node26 -->
<g id="node26" class="node"><title>Node26</title>
<g id="a_node26"><a xlink:href="../../d7/df9/encap_8h.html" target="_top" xlink:title="This file contains the public interface of the encapsulation layer. ">
<polygon fill="none" stroke="black" points="583.5,-180.5 583.5,-199.5 704.5,-199.5 704.5,-180.5 583.5,-180.5"/>
<text text-anchor="middle" x="644" y="-187.5" font-family="Helvetica,sans-Serif" font-size="10.00">src/enet_encap/encap.h</text>
</a>
</g>
</g>
<!-- Node25&#45;&gt;Node26 -->
<g id="edge46" class="edge"><title>Node25&#45;&gt;Node26</title>
<path fill="none" stroke="midnightblue" d="M729.434,-237.6C708.129,-225.98 677.934,-209.509 659.731,-199.581"/>
<polygon fill="midnightblue" stroke="midnightblue" points="727.785,-240.688 738.24,-242.403 731.137,-234.542 727.785,-240.688"/>
</g>
<!-- Node26&#45;&gt;Node5 -->
<g id="edge48" class="edge"><title>Node26&#45;&gt;Node5</title>
<path fill="none" stroke="midnightblue" d="M659.115,-172.837C674.875,-157.197 701.129,-134.378 729,-124 731.341,-123.128 1337.62,-87.1726 1523.48,-76.1675"/>
<polygon fill="midnightblue" stroke="midnightblue" points="656.355,-170.655 651.878,-180.258 661.366,-175.542 656.355,-170.655"/>
</g>
<!-- Node26&#45;&gt;Node6 -->
<g id="edge49" class="edge"><title>Node26&#45;&gt;Node6</title>
<path fill="none" stroke="midnightblue" d="M633.776,-171.055C619.174,-142.777 597.125,-87.8046 626,-56 651.488,-27.9269 887.856,-16.8555 1013.42,-12.9268"/>
<polygon fill="midnightblue" stroke="midnightblue" points="630.873,-173.044 638.711,-180.172 637.029,-169.712 630.873,-173.044"/>
</g>
<!-- Node26&#45;&gt;Node9 -->
<g id="edge57" class="edge"><title>Node26&#45;&gt;Node9</title>
<path fill="none" stroke="midnightblue" d="M714.801,-184.175C803.182,-177.624 958.823,-164.345 1091,-144 1280.79,-114.787 1323.26,-78.1481 1514,-56 1846.36,-17.4081 2912.06,-11.9025 3178.29,-11.1259"/>
<polygon fill="midnightblue" stroke="midnightblue" points="714.342,-180.699 704.625,-184.922 714.854,-187.68 714.342,-180.699"/>
</g>
<!-- Node26&#45;&gt;Node10 -->
<g id="edge58" class="edge"><title>Node26&#45;&gt;Node10</title>
<path fill="none" stroke="midnightblue" d="M573.075,-185.136C503.533,-180.063 395.005,-168.702 304,-144 235.596,-125.432 121.777,-106.999 171,-56 172.289,-54.664 1071.69,-23.6536 1355.36,-13.9052"/>
<polygon fill="midnightblue" stroke="midnightblue" points="573.247,-188.656 583.469,-185.868 573.74,-181.674 573.247,-188.656"/>
</g>
<!-- Node26&#45;&gt;Node18 -->
<g id="edge47" class="edge"><title>Node26&#45;&gt;Node18</title>
<path fill="none" stroke="midnightblue" d="M622.921,-174.532C587.271,-150.062 516.153,-101.247 487.445,-81.5423"/>
<polygon fill="midnightblue" stroke="midnightblue" points="621.348,-177.697 631.573,-180.47 625.309,-171.925 621.348,-177.697"/>
</g>
<!-- Node26&#45;&gt;Node23 -->
<g id="edge56" class="edge"><title>Node26&#45;&gt;Node23</title>
<path fill="none" stroke="midnightblue" d="M714.786,-187.85C928.602,-184.092 1558.59,-170.85 1647,-144 1663.41,-139.016 1663.76,-129.518 1680,-124 1817.6,-77.2388 1861.77,-112.626 2005,-88 2015.12,-86.2596 2026.04,-83.889 2035.94,-81.5464"/>
<polygon fill="midnightblue" stroke="midnightblue" points="714.558,-184.353 704.62,-188.027 714.68,-191.352 714.558,-184.353"/>
</g>
<!-- Node26&#45;&gt;Node27 -->
<g id="edge50" class="edge"><title>Node26&#45;&gt;Node27</title>
<path fill="none" stroke="midnightblue" d="M714.862,-185.205C854.432,-177.688 1174.76,-160.226 1444,-144 1472.32,-142.293 1503.86,-140.276 1529.82,-138.584"/>
<polygon fill="midnightblue" stroke="midnightblue" points="714.524,-181.718 704.727,-185.75 714.901,-188.708 714.524,-181.718"/>
</g>
<!-- Node26&#45;&gt;Node28 -->
<g id="edge59" class="edge"><title>Node26&#45;&gt;Node28</title>
<path fill="none" stroke="midnightblue" d="M573.041,-183.902C494.835,-177.377 374.71,-164.412 334,-144 304.392,-129.154 279.624,-97.2354 268.82,-81.764"/>
<polygon fill="midnightblue" stroke="midnightblue" points="573.058,-187.415 583.31,-184.742 573.629,-180.438 573.058,-187.415"/>
</g>
<!-- Node27&#45;&gt;Node5 -->
<g id="edge51" class="edge"><title>Node27&#45;&gt;Node5</title>
<path fill="none" stroke="midnightblue" d="M1581.8,-114.16C1580.53,-103.248 1578.99,-90.04 1578,-81.5806"/>
<polygon fill="midnightblue" stroke="midnightblue" points="1578.36,-114.876 1583,-124.403 1585.31,-114.065 1578.36,-114.876"/>
</g>
<!-- Node27&#45;&gt;Node6 -->
<g id="edge52" class="edge"><title>Node27&#45;&gt;Node6</title>
<path fill="none" stroke="midnightblue" d="M1552.61,-120.774C1508.75,-104.09 1426.36,-74.1896 1354,-56 1288.07,-39.4282 1211.31,-27.0684 1157.79,-19.5372"/>
<polygon fill="midnightblue" stroke="midnightblue" points="1551.54,-124.114 1562.13,-124.421 1554.04,-117.577 1551.54,-124.114"/>
</g>
<!-- Node27&#45;&gt;Node7 -->
<g id="edge53" class="edge"><title>Node27&#45;&gt;Node7</title>
<path fill="none" stroke="midnightblue" d="M1550.18,-119.964C1536.36,-112.764 1521.82,-102.321 1514,-88 1507.18,-75.517 1504.84,-66.8834 1514,-56 1538.61,-26.7506 1641.89,-16.5121 1710.36,-12.9287"/>
<polygon fill="midnightblue" stroke="midnightblue" points="1549,-123.281 1559.53,-124.438 1552.02,-116.966 1549,-123.281"/>
</g>
<!-- Node27&#45;&gt;Node9 -->
<g id="edge55" class="edge"><title>Node27&#45;&gt;Node9</title>
<path fill="none" stroke="midnightblue" d="M1613.18,-120.486C1657.09,-102.351 1743.2,-69.4628 1820,-56 2086.9,-9.21083 2942.1,-9.59897 3178.15,-10.6402"/>
<polygon fill="midnightblue" stroke="midnightblue" points="1611.59,-117.357 1603.71,-124.44 1614.29,-123.816 1611.59,-117.357"/>
</g>
<!-- Node27&#45;&gt;Node23 -->
<g id="edge54" class="edge"><title>Node27&#45;&gt;Node23</title>
<path fill="none" stroke="midnightblue" d="M1648.17,-124.454C1649.46,-124.299 1650.74,-124.148 1652,-124 1808.63,-105.652 1849.46,-114.047 2005,-88 2015.24,-86.2847 2026.29,-83.8936 2036.28,-81.5237"/>
<polygon fill="midnightblue" stroke="midnightblue" points="1647.67,-120.989 1638.17,-125.681 1648.52,-127.937 1647.67,-120.989"/>
</g>
<!-- Node29&#45;&gt;Node4 -->
<g id="edge63" class="edge"><title>Node29&#45;&gt;Node4</title>
<path fill="none" stroke="midnightblue" d="M954.17,-295.959C929.796,-261.336 882.129,-181.204 916,-124 928.947,-102.134 954.96,-89.0222 976.19,-81.5806"/>
<polygon fill="midnightblue" stroke="midnightblue" points="951.634,-298.424 960.34,-304.461 957.299,-294.312 951.634,-298.424"/>
</g>
<!-- Node29&#45;&gt;Node5 -->
<g id="edge64" class="edge"><title>Node29&#45;&gt;Node5</title>
<path fill="none" stroke="midnightblue" d="M1015.75,-302.152C1108.99,-280.281 1317.56,-225.892 1478,-144 1513.42,-125.923 1550.21,-96.1056 1567.25,-81.5408"/>
<polygon fill="midnightblue" stroke="midnightblue" points="1014.71,-298.801 1005.76,-304.474 1016.3,-305.619 1014.71,-298.801"/>
</g>
<!-- Node29&#45;&gt;Node6 -->
<g id="edge65" class="edge"><title>Node29&#45;&gt;Node6</title>
<path fill="none" stroke="midnightblue" d="M909.633,-313.051C684.913,-311.61 -111.54,-290.213 129,-56 160.501,-25.3274 789.884,-14.6776 1013.22,-11.8558"/>
<polygon fill="midnightblue" stroke="midnightblue" points="909.877,-316.552 919.895,-313.105 909.914,-309.552 909.877,-316.552"/>
</g>
<!-- Node29&#45;&gt;Node25 -->
<g id="edge62" class="edge"><title>Node29&#45;&gt;Node25</title>
<path fill="none" stroke="midnightblue" d="M926.724,-301.655C885.342,-289.998 821.842,-272.11 784.461,-261.581"/>
<polygon fill="midnightblue" stroke="midnightblue" points="925.908,-305.061 936.482,-304.403 927.806,-298.323 925.908,-305.061"/>
</g>
<!-- Node30 -->
<g id="node30" class="node"><title>Node30</title>
<g id="a_node30"><a xlink:href="../../de/ddc/cipepath_8c.html" target="_top" xlink:title="src/cip/cipepath.c">
<polygon fill="none" stroke="black" points="4484,-62.5 4484,-81.5 4578,-81.5 4578,-62.5 4484,-62.5"/>
<text text-anchor="middle" x="4531" y="-69.5" font-family="Helvetica,sans-Serif" font-size="10.00">src/cip/cipepath.c</text>
</a>
</g>
</g>
<!-- Node29&#45;&gt;Node30 -->
<g id="edge66" class="edge"><title>Node29&#45;&gt;Node30</title>
<path fill="none" stroke="midnightblue" d="M1024.49,-310.208C1262.21,-298.565 2191.63,-252.05 2955,-200 3268.15,-178.648 3347.21,-180.154 3659,-144 3717.5,-137.216 3731.44,-130.257 3790,-124 4049.46,-96.2813 4115.88,-108.57 4376,-88 4412.25,-85.1334 4453.19,-81.1385 4483.89,-77.9921"/>
<polygon fill="midnightblue" stroke="midnightblue" points="1024.17,-306.72 1014.35,-310.704 1024.51,-313.712 1024.17,-306.72"/>
</g>
<!-- Node31&#45;&gt;Node5 -->
<g id="edge69" class="edge"><title>Node31&#45;&gt;Node5</title>
<path fill="none" stroke="midnightblue" d="M1811.59,-122.452C1767.2,-113.465 1701.88,-100.117 1645,-88 1635.3,-85.9346 1624.84,-83.6533 1615.1,-81.5064"/>
<polygon fill="midnightblue" stroke="midnightblue" points="1811.07,-125.919 1821.57,-124.47 1812.46,-119.058 1811.07,-125.919"/>
</g>
<!-- Node31&#45;&gt;Node6 -->
<g id="edge70" class="edge"><title>Node31&#45;&gt;Node6</title>
<path fill="none" stroke="midnightblue" d="M1797.71,-122.864C1762.52,-115.933 1719.19,-104.873 1683,-88 1661.08,-77.783 1661.67,-64.4131 1639,-56 1596.04,-40.0576 1309.27,-22.7163 1168.57,-15.0421"/>
<polygon fill="midnightblue" stroke="midnightblue" points="1797.4,-126.368 1807.88,-124.798 1798.71,-119.491 1797.4,-126.368"/>
</g>
<!-- Node31&#45;&gt;Node7 -->
<g id="edge71" class="edge"><title>Node31&#45;&gt;Node7</title>
<path fill="none" stroke="midnightblue" d="M1835.68,-119.699C1822.26,-112.109 1807,-101.416 1797,-88 1781.26,-66.8971 1775.7,-35.2625 1773.85,-19.9455"/>
<polygon fill="midnightblue" stroke="midnightblue" points="1834.13,-122.837 1844.6,-124.453 1837.42,-116.66 1834.13,-122.837"/>
</g>
<!-- Node31&#45;&gt;Node16 -->
<g id="edge68" class="edge"><title>Node31&#45;&gt;Node16</title>
<path fill="none" stroke="midnightblue" d="M1930.33,-123.006C1984.69,-114.541 2063.54,-101.635 2132,-88 2141.65,-86.0773 2152.06,-83.7777 2161.66,-81.5635"/>
<polygon fill="midnightblue" stroke="midnightblue" points="1929.48,-119.596 1920.13,-124.586 1930.55,-126.513 1929.48,-119.596"/>
</g>
<!-- Node31&#45;&gt;Node32 -->
<g id="edge72" class="edge"><title>Node31&#45;&gt;Node32</title>
<path fill="none" stroke="midnightblue" d="M1930.41,-123.945C2211.2,-97.2964 2285.85,-124.028 2562,-88 2574.06,-86.4266 2587.11,-83.9862 2598.79,-81.5278"/>
<polygon fill="midnightblue" stroke="midnightblue" points="1929.96,-120.473 1920.34,-124.916 1930.63,-127.441 1929.96,-120.473"/>
</g>
<!-- Node33&#45;&gt;Node5 -->
<g id="edge75" class="edge"><title>Node33&#45;&gt;Node5</title>
<path fill="none" stroke="midnightblue" d="M3291.18,-129.942C3250.5,-128.059 3196.66,-125.691 3149,-124 2562.93,-103.201 2415.89,-113.357 1830,-88 1761.2,-85.0225 1681.97,-80.0796 1630.77,-76.6871"/>
<polygon fill="midnightblue" stroke="midnightblue" points="3291.07,-133.441 3301.23,-130.409 3291.4,-126.448 3291.07,-133.441"/>
</g>
<!-- Node33&#45;&gt;Node6 -->
<g id="edge76" class="edge"><title>Node33&#45;&gt;Node6</title>
<path fill="none" stroke="midnightblue" d="M3419.07,-128.254C3532.18,-119.566 3756.5,-100.821 3768,-88 3777.5,-77.4127 3777.98,-66.1311 3768,-56 3744.39,-32.035 1379.63,-20.8434 1346,-20 1286.44,-18.5064 1219.07,-16.0979 1168.55,-14.1482"/>
<polygon fill="midnightblue" stroke="midnightblue" points="3418.51,-124.786 3408.81,-129.038 3419.05,-131.766 3418.51,-124.786"/>
</g>
<!-- Node33&#45;&gt;Node7 -->
<g id="edge79" class="edge"><title>Node33&#45;&gt;Node7</title>
<path fill="none" stroke="midnightblue" d="M3419,-128.81C3539.54,-120.609 3789.32,-102.017 3802,-88 3811.54,-77.4517 3811.94,-66.1675 3802,-56 3766.77,-19.9775 2173.6,-12.3993 1835.6,-11.196"/>
<polygon fill="midnightblue" stroke="midnightblue" points="3418.54,-125.333 3408.8,-129.5 3419.02,-132.317 3418.54,-125.333"/>
</g>
<!-- Node33&#45;&gt;Node9 -->
<g id="edge84" class="edge"><title>Node33&#45;&gt;Node9</title>
<path fill="none" stroke="midnightblue" d="M3418.97,-128.182C3549.1,-118.232 3832.98,-95.7011 3840,-88 3849.58,-77.4891 3849.67,-66.4253 3840,-56 3803.77,-16.9556 3444.94,-11.5533 3299.63,-10.9771"/>
<polygon fill="midnightblue" stroke="midnightblue" points="3418.45,-124.711 3408.75,-128.962 3418.99,-131.691 3418.45,-124.711"/>
</g>
<!-- Node33&#45;&gt;Node11 -->
<g id="edge85" class="edge"><title>Node33&#45;&gt;Node11</title>
<path fill="none" stroke="midnightblue" d="M3418.88,-132.536C3664.69,-130.509 4538.32,-121.004 4587,-88 4610.47,-72.0922 4617.89,-36.0751 4620.11,-19.5624"/>
<polygon fill="midnightblue" stroke="midnightblue" points="3418.65,-129.037 3408.68,-132.618 3418.7,-136.037 3418.65,-129.037"/>
</g>
<!-- Node33&#45;&gt;Node12 -->
<g id="edge87" class="edge"><title>Node33&#45;&gt;Node12</title>
<path fill="none" stroke="midnightblue" d="M3418.74,-130.693C3620.06,-123.29 4230.07,-99.924 4247,-88 4269.96,-71.8271 4276.5,-35.9467 4278.32,-19.5158"/>
<polygon fill="midnightblue" stroke="midnightblue" points="3418.48,-127.2 3408.61,-131.064 3418.74,-134.195 3418.48,-127.2"/>
</g>
<!-- Node33&#45;&gt;Node13 -->
<g id="edge89" class="edge"><title>Node33&#45;&gt;Node13</title>
<path fill="none" stroke="midnightblue" d="M3418.84,-131.468C3613.35,-126.577 4190.39,-110.338 4272,-88 4325.9,-73.2471 4382.4,-36.2927 4406.26,-19.5193"/>
<polygon fill="midnightblue" stroke="midnightblue" points="3418.68,-127.971 3408.77,-131.72 3418.85,-134.969 3418.68,-127.971"/>
</g>
<!-- Node33&#45;&gt;Node16 -->
<g id="edge74" class="edge"><title>Node33&#45;&gt;Node16</title>
<path fill="none" stroke="midnightblue" d="M3291.17,-130.16C3250.48,-128.363 3196.64,-126.008 3149,-124 2754.8,-107.389 2653.03,-140.587 2262,-88 2250.98,-86.5181 2239.09,-84.0383 2228.52,-81.5174"/>
<polygon fill="midnightblue" stroke="midnightblue" points="3291.07,-133.659 3301.22,-130.605 3291.38,-126.666 3291.07,-133.659"/>
</g>
<!-- Node33&#45;&gt;Node20 -->
<g id="edge81" class="edge"><title>Node33&#45;&gt;Node20</title>
<path fill="none" stroke="midnightblue" d="M3291.1,-130.199C3115.32,-122.377 2632.93,-100.085 2562,-88 2553.2,-86.5008 2543.77,-84.0486 2535.39,-81.5572"/>
<polygon fill="midnightblue" stroke="midnightblue" points="3291.08,-133.701 3301.23,-130.649 3291.4,-126.708 3291.08,-133.701"/>
</g>
<!-- Node33&#45;&gt;Node23 -->
<g id="edge83" class="edge"><title>Node33&#45;&gt;Node23</title>
<path fill="none" stroke="midnightblue" d="M3291.17,-130.075C3250.49,-128.244 3196.65,-125.884 3149,-124 2697.07,-106.129 2580.19,-148.677 2132,-88 2121.3,-86.552 2109.77,-84.0806 2099.53,-81.557"/>
<polygon fill="midnightblue" stroke="midnightblue" points="3291.07,-133.574 3301.22,-130.528 3291.39,-126.581 3291.07,-133.574"/>
</g>
<!-- Node33&#45;&gt;Node32 -->
<g id="edge82" class="edge"><title>Node33&#45;&gt;Node32</title>
<path fill="none" stroke="midnightblue" d="M3291.16,-129.646C3150.88,-122.1 2819.42,-103.253 2708,-88 2696.08,-86.368 2683.18,-83.9422 2671.6,-81.5146"/>
<polygon fill="midnightblue" stroke="midnightblue" points="3291.15,-133.151 3301.32,-130.191 3291.52,-126.161 3291.15,-133.151"/>
</g>
<!-- Node34 -->
<g id="node34" class="node"><title>Node34</title>
<g id="a_node34"><a xlink:href="../../d7/d65/cipethernetlink_8c.html" target="_top" xlink:title="src/cip/cipethernetlink.c">
<polygon fill="none" stroke="black" points="2717,-62.5 2717,-81.5 2837,-81.5 2837,-62.5 2717,-62.5"/>
<text text-anchor="middle" x="2777" y="-69.5" font-family="Helvetica,sans-Serif" font-size="10.00">src/cip/cipethernetlink.c</text>
</a>
</g>
</g>
<!-- Node33&#45;&gt;Node34 -->
<g id="edge77" class="edge"><title>Node33&#45;&gt;Node34</title>
<path fill="none" stroke="midnightblue" d="M3291.23,-126.38C3178.77,-114.706 2946.75,-90.6211 2837.02,-79.2303"/>
<polygon fill="midnightblue" stroke="midnightblue" points="3291.09,-129.885 3301.4,-127.436 3291.82,-122.922 3291.09,-129.885"/>
</g>
<!-- Node33&#45;&gt;Node35 -->
<g id="edge78" class="edge"><title>Node33&#45;&gt;Node35</title>
<path fill="none" stroke="midnightblue" d="M3291.18,-130.02C3100.04,-121.063 2540.27,-94.5947 2458,-88 2429.7,-85.7319 2398.19,-82.3128 2372.63,-79.3114"/>
<polygon fill="midnightblue" stroke="midnightblue" points="3291.2,-133.524 3301.35,-130.496 3291.53,-126.532 3291.2,-133.524"/>
</g>
<!-- Node36 -->
<g id="node36" class="node"><title>Node36</title>
<g id="a_node36"><a xlink:href="../../d9/d7d/cipmessagerouter_8c.html" target="_top" xlink:title="src/cip/cipmessagerouter.c">
<polygon fill="none" stroke="black" points="3267,-62.5 3267,-81.5 3401,-81.5 3401,-62.5 3267,-62.5"/>
<text text-anchor="middle" x="3334" y="-69.5" font-family="Helvetica,sans-Serif" font-size="10.00">src/cip/cipmessagerouter.c</text>
</a>
</g>
</g>
<!-- Node33&#45;&gt;Node36 -->
<g id="edge80" class="edge"><title>Node33&#45;&gt;Node36</title>
<path fill="none" stroke="midnightblue" d="M3348.65,-114.846C3344.78,-103.806 3340.03,-90.2181 3337,-81.5806"/>
<polygon fill="midnightblue" stroke="midnightblue" points="3345.38,-116.121 3351.99,-124.403 3351.99,-113.809 3345.38,-116.121"/>
</g>
<!-- Node37 -->
<g id="node37" class="node"><title>Node37</title>
<g id="a_node37"><a xlink:href="../../dc/d2b/MINGW_2networkconfig_8c.html" target="_top" xlink:title="src/ports/MINGW/networkconfig.c">
<polygon fill="none" stroke="black" points="2931,-62.5 2931,-81.5 3097,-81.5 3097,-62.5 2931,-62.5"/>
<text text-anchor="middle" x="3014" y="-69.5" font-family="Helvetica,sans-Serif" font-size="10.00">src/ports/MINGW/networkconfig.c</text>
</a>
</g>
</g>
<!-- Node33&#45;&gt;Node37 -->
<g id="edge86" class="edge"><title>Node33&#45;&gt;Node37</title>
<path fill="none" stroke="midnightblue" d="M3296.65,-122.734C3230.54,-111.101 3123.99,-92.3522 3062.33,-81.5034"/>
<polygon fill="midnightblue" stroke="midnightblue" points="3296.05,-126.181 3306.51,-124.467 3297.26,-119.287 3296.05,-126.181"/>
</g>
<!-- Node38 -->
<g id="node38" class="node"><title>Node38</title>
<g id="a_node38"><a xlink:href="../../df/def/POSIX_2networkconfig_8c.html" target="_top" xlink:title="src/ports/POSIX/networkconfig.c">
<polygon fill="none" stroke="black" points="3419.5,-62.5 3419.5,-81.5 3580.5,-81.5 3580.5,-62.5 3419.5,-62.5"/>
<text text-anchor="middle" x="3500" y="-69.5" font-family="Helvetica,sans-Serif" font-size="10.00">src/ports/POSIX/networkconfig.c</text>
</a>
</g>
</g>
<!-- Node33&#45;&gt;Node38 -->
<g id="edge88" class="edge"><title>Node33&#45;&gt;Node38</title>
<path fill="none" stroke="midnightblue" d="M3385.14,-120.527C3413.31,-108.871 3454.62,-91.7764 3479.26,-81.5806"/>
<polygon fill="midnightblue" stroke="midnightblue" points="3383.68,-117.346 3375.77,-124.403 3386.35,-123.814 3383.68,-117.346"/>
</g>
<!-- Node39 -->
<g id="node39" class="node"><title>Node39</title>
<g id="a_node39"><a xlink:href="../../d2/d9c/WIN32_2networkconfig_8c.html" target="_top" xlink:title="src/ports/WIN32/networkconfig.c">
<polygon fill="none" stroke="black" points="3598.5,-62.5 3598.5,-81.5 3759.5,-81.5 3759.5,-62.5 3598.5,-62.5"/>
<text text-anchor="middle" x="3679" y="-69.5" font-family="Helvetica,sans-Serif" font-size="10.00">src/ports/WIN32/networkconfig.c</text>
</a>
</g>
</g>
<!-- Node33&#45;&gt;Node39 -->
<g id="edge90" class="edge"><title>Node33&#45;&gt;Node39</title>
<path fill="none" stroke="midnightblue" d="M3411.21,-122.59C3474.09,-110.947 3574.74,-92.3077 3633.08,-81.5034"/>
<polygon fill="midnightblue" stroke="midnightblue" points="3410.27,-119.205 3401.08,-124.467 3411.55,-126.088 3410.27,-119.205"/>
</g>
<!-- Node40&#45;&gt;Node5 -->
<g id="edge92" class="edge"><title>Node40&#45;&gt;Node5</title>
<path fill="none" stroke="midnightblue" d="M1928.32,-124.047C1928.21,-124.031 1928.11,-124.016 1928,-124 1822.59,-108.567 1699.36,-90.7017 1630.52,-80.7398"/>
<polygon fill="midnightblue" stroke="midnightblue" points="1928,-127.538 1938.41,-125.527 1929.02,-120.612 1928,-127.538"/>
</g>
<!-- Node40&#45;&gt;Node6 -->
<g id="edge93" class="edge"><title>Node40&#45;&gt;Node6</title>
<path fill="none" stroke="midnightblue" d="M1941.41,-122.213C1902.51,-113.306 1846.11,-100.193 1797,-88 1742.6,-74.4919 1730.28,-65.3019 1675,-56 1495.25,-25.753 1280.9,-15.8013 1168.53,-12.5529"/>
<polygon fill="midnightblue" stroke="midnightblue" points="1940.88,-125.68 1951.4,-124.496 1942.43,-118.856 1940.88,-125.68"/>
</g>
<!-- Node40&#45;&gt;Node9 -->
<g id="edge95" class="edge"><title>Node40&#45;&gt;Node9</title>
<path fill="none" stroke="midnightblue" d="M1928.21,-123.541C1888.61,-115.995 1842.12,-104.032 1830,-88 1821.42,-76.6564 1820.11,-66.2159 1830,-56 1877.54,-6.91342 2914.87,-9.22754 3178.5,-10.6146"/>
<polygon fill="midnightblue" stroke="midnightblue" points="1927.64,-126.994 1938.11,-125.364 1928.91,-120.11 1927.64,-126.994"/>
</g>
<!-- Node40&#45;&gt;Node15 -->
<g id="edge96" class="edge"><title>Node40&#45;&gt;Node15</title>
<path fill="none" stroke="midnightblue" d="M1971.01,-117.795C1959.86,-108.374 1945.64,-96.3562 1934.73,-87.1408"/>
<polygon fill="midnightblue" stroke="midnightblue" points="1968.93,-120.622 1978.83,-124.403 1973.45,-115.276 1968.93,-120.622"/>
</g>
<!-- Node40&#45;&gt;Node35 -->
<g id="edge94" class="edge"><title>Node40&#45;&gt;Node35</title>
<path fill="none" stroke="midnightblue" d="M2049.58,-124.348C2104.86,-116.127 2188.72,-102.842 2261,-88 2270.19,-86.1134 2280.09,-83.8015 2289.18,-81.563"/>
<polygon fill="midnightblue" stroke="midnightblue" points="2048.98,-120.898 2039.6,-125.823 2050,-127.823 2048.98,-120.898"/>
</g>
<!-- Node41&#45;&gt;Node5 -->
<g id="edge98" class="edge"><title>Node41&#45;&gt;Node5</title>
<path fill="none" stroke="midnightblue" d="M2866.63,-128.206C2842.51,-126.74 2815.62,-125.2 2791,-124 2364.1,-103.199 2256.91,-108.649 1830,-88 1761.22,-84.6731 1681.98,-79.8081 1630.78,-76.5288"/>
<polygon fill="midnightblue" stroke="midnightblue" points="2866.59,-131.71 2876.78,-128.829 2867.02,-124.723 2866.59,-131.71"/>
</g>
<!-- Node41&#45;&gt;Node7 -->
<g id="edge99" class="edge"><title>Node41&#45;&gt;Node7</title>
<path fill="none" stroke="midnightblue" d="M2932.42,-115.116C2922.44,-96.5982 2904.09,-68.6425 2879,-56 2785.9,-9.08443 2055.95,-9.37196 1835.7,-10.5484"/>
<polygon fill="midnightblue" stroke="midnightblue" points="2929.42,-116.955 2937.08,-124.275 2935.66,-113.776 2929.42,-116.955"/>
</g>
<!-- Node41&#45;&gt;Node10 -->
<g id="edge101" class="edge"><title>Node41&#45;&gt;Node10</title>
<path fill="none" stroke="midnightblue" d="M2920.05,-118.792C2907.8,-110.238 2892.19,-98.9195 2879,-88 2863.02,-74.7675 2864.17,-63.9523 2845,-56 2727.53,-7.26421 1828.1,-24.1914 1701,-20 1642.09,-18.0574 1575.71,-15.7669 1524.63,-13.9828"/>
<polygon fill="midnightblue" stroke="midnightblue" points="2918.08,-121.685 2928.3,-124.487 2922.06,-115.925 2918.08,-121.685"/>
</g>
<!-- Node41&#45;&gt;Node32 -->
<g id="edge100" class="edge"><title>Node41&#45;&gt;Node32</title>
<path fill="none" stroke="midnightblue" d="M2885.85,-122.539C2838.61,-113.534 2768.79,-100.116 2708,-88 2697.72,-85.9516 2686.64,-83.6978 2676.29,-81.5736"/>
<polygon fill="midnightblue" stroke="midnightblue" points="2885.39,-126.015 2895.87,-124.448 2886.7,-119.138 2885.39,-126.015"/>
</g>
<!-- Node41&#45;&gt;Node37 -->
<g id="edge102" class="edge"><title>Node41&#45;&gt;Node37</title>
<path fill="none" stroke="midnightblue" d="M2959.44,-117.846C2973.4,-106.371 2992.08,-91.0195 3003.56,-81.5806"/>
<polygon fill="midnightblue" stroke="midnightblue" points="2956.96,-115.35 2951.46,-124.403 2961.41,-120.758 2956.96,-115.35"/>
</g>
<!-- Node41&#45;&gt;Node38 -->
<g id="edge103" class="edge"><title>Node41&#45;&gt;Node38</title>
<path fill="none" stroke="midnightblue" d="M3015.38,-127.469C3108.02,-120.21 3271.05,-106.223 3410,-88 3423.82,-86.1874 3438.78,-83.8485 3452.45,-81.5593"/>
<polygon fill="midnightblue" stroke="midnightblue" points="3014.96,-123.99 3005.26,-128.256 3015.5,-130.969 3014.96,-123.99"/>
</g>
<!-- Node41&#45;&gt;Node39 -->
<g id="edge104" class="edge"><title>Node41&#45;&gt;Node39</title>
<path fill="none" stroke="midnightblue" d="M3015.32,-127.711C3032.61,-126.487 3050.95,-125.193 3068,-124 3299.54,-107.796 3358.48,-115.11 3589,-88 3603.32,-86.3163 3618.83,-83.9343 3632.87,-81.5631"/>
<polygon fill="midnightblue" stroke="midnightblue" points="3015.01,-124.224 3005.28,-128.423 3015.5,-131.207 3015.01,-124.224"/>
</g>
<!-- Node42&#45;&gt;Node5 -->
<g id="edge106" class="edge"><title>Node42&#45;&gt;Node5</title>
<path fill="none" stroke="midnightblue" d="M2652.85,-129.677C2502.18,-122.493 2136.44,-104.805 1830,-88 1761.24,-84.2294 1682,-79.4631 1630.79,-76.3277"/>
<polygon fill="midnightblue" stroke="midnightblue" points="2652.73,-133.175 2662.89,-130.155 2653.07,-126.183 2652.73,-133.175"/>
</g>
<!-- Node42&#45;&gt;Node20 -->
<g id="edge108" class="edge"><title>Node42&#45;&gt;Node20</title>
<path fill="none" stroke="midnightblue" d="M2682.07,-121.66C2649.51,-112.616 2602.81,-99.5895 2562,-88 2554.68,-85.921 2546.78,-83.6559 2539.41,-81.5306"/>
<polygon fill="midnightblue" stroke="midnightblue" points="2681.54,-125.146 2692.11,-124.449 2683.41,-118.402 2681.54,-125.146"/>
</g>
<!-- Node42&#45;&gt;Node32 -->
<g id="edge109" class="edge"><title>Node42&#45;&gt;Node32</title>
<path fill="none" stroke="midnightblue" d="M2701.72,-118.492C2684.8,-106.952 2661.69,-91.1976 2647.58,-81.5806"/>
<polygon fill="midnightblue" stroke="midnightblue" points="2700.16,-121.662 2710.39,-124.403 2704.1,-115.878 2700.16,-121.662"/>
</g>
<!-- Node42&#45;&gt;Node34 -->
<g id="edge107" class="edge"><title>Node42&#45;&gt;Node34</title>
<path fill="none" stroke="midnightblue" d="M2737.52,-116.863C2747.74,-105.506 2761.02,-90.7524 2769.28,-81.5806"/>
<polygon fill="midnightblue" stroke="midnightblue" points="2734.83,-114.629 2730.74,-124.403 2740.03,-119.312 2734.83,-114.629"/>
</g>
<!-- Node42&#45;&gt;Node37 -->
<g id="edge110" class="edge"><title>Node42&#45;&gt;Node37</title>
<path fill="none" stroke="midnightblue" d="M2774.19,-122.446C2830.7,-110.793 2920.57,-92.2631 2972.76,-81.5034"/>
<polygon fill="midnightblue" stroke="midnightblue" points="2773.47,-119.02 2764.38,-124.467 2774.88,-125.876 2773.47,-119.02"/>
</g>
<!-- Node43&#45;&gt;Node5 -->
<g id="edge112" class="edge"><title>Node43&#45;&gt;Node5</title>
<path fill="none" stroke="midnightblue" d="M2338.74,-127.475C2170.53,-115.445 1774.69,-87.1377 1630.63,-76.8353"/>
<polygon fill="midnightblue" stroke="midnightblue" points="2338.54,-130.969 2348.76,-128.191 2339.03,-123.987 2338.54,-130.969"/>
</g>
<!-- Node43&#45;&gt;Node6 -->
<g id="edge113" class="edge"><title>Node43&#45;&gt;Node6</title>
<path fill="none" stroke="midnightblue" d="M2413.21,-114.371C2409.39,-96.0942 2400.61,-69.1148 2381,-56 2333.18,-24.0153 1403.5,-22.0147 1346,-20 1286.46,-17.9136 1219.09,-15.5353 1168.56,-13.7476"/>
<polygon fill="midnightblue" stroke="midnightblue" points="2409.8,-115.194 2415,-124.425 2416.69,-113.966 2409.8,-115.194"/>
</g>
<!-- Node43&#45;&gt;Node9 -->
<g id="edge120" class="edge"><title>Node43&#45;&gt;Node9</title>
<path fill="none" stroke="midnightblue" d="M2420.46,-114.618C2425.96,-96.3292 2437.23,-69.1497 2458,-56 2518.24,-17.8532 3005.19,-12.0099 3178.25,-11.1417"/>
<polygon fill="midnightblue" stroke="midnightblue" points="2417.04,-113.852 2417.81,-124.419 2423.8,-115.682 2417.04,-113.852"/>
</g>
<!-- Node43&#45;&gt;Node20 -->
<g id="edge117" class="edge"><title>Node43&#45;&gt;Node20</title>
<path fill="none" stroke="midnightblue" d="M2438.23,-118.811C2456.35,-107.244 2481.35,-91.2867 2496.56,-81.5806"/>
<polygon fill="midnightblue" stroke="midnightblue" points="2436.01,-116.073 2429.47,-124.403 2439.78,-121.973 2436.01,-116.073"/>
</g>
<!-- Node43&#45;&gt;Node23 -->
<g id="edge119" class="edge"><title>Node43&#45;&gt;Node23</title>
<path fill="none" stroke="midnightblue" d="M2343.34,-123.052C2285.8,-114.798 2203.49,-102.153 2132,-88 2122.51,-86.1222 2112.29,-83.8133 2102.9,-81.5747"/>
<polygon fill="midnightblue" stroke="midnightblue" points="2343.03,-126.544 2353.43,-124.491 2344.02,-119.614 2343.03,-126.544"/>
</g>
<!-- Node43&#45;&gt;Node32 -->
<g id="edge118" class="edge"><title>Node43&#45;&gt;Node32</title>
<path fill="none" stroke="midnightblue" d="M2457.14,-121.729C2499.68,-110.073 2565.17,-92.1326 2603.68,-81.5806"/>
<polygon fill="midnightblue" stroke="midnightblue" points="2456.1,-118.385 2447.38,-124.403 2457.95,-125.137 2456.1,-118.385"/>
</g>
<!-- Node43&#45;&gt;Node34 -->
<g id="edge114" class="edge"><title>Node43&#45;&gt;Node34</title>
<path fill="none" stroke="midnightblue" d="M2488.56,-123.076C2547.77,-114.676 2633.51,-101.823 2708,-88 2718.37,-86.0764 2729.55,-83.7524 2739.84,-81.5142"/>
<polygon fill="midnightblue" stroke="midnightblue" points="2487.97,-119.624 2478.56,-124.488 2488.95,-126.555 2487.97,-119.624"/>
</g>
<!-- Node43&#45;&gt;Node35 -->
<g id="edge115" class="edge"><title>Node43&#45;&gt;Node35</title>
<path fill="none" stroke="midnightblue" d="M2393.77,-118.811C2375.65,-107.244 2350.65,-91.2867 2335.44,-81.5806"/>
<polygon fill="midnightblue" stroke="midnightblue" points="2392.22,-121.973 2402.53,-124.403 2395.99,-116.073 2392.22,-121.973"/>
</g>
<!-- Node43&#45;&gt;Node36 -->
<g id="edge116" class="edge"><title>Node43&#45;&gt;Node36</title>
<path fill="none" stroke="midnightblue" d="M2493.15,-127.983C2620.7,-119.685 2883.53,-102.573 3106,-88 3160.03,-84.4607 3221.27,-80.4311 3266.66,-77.4404"/>
<polygon fill="midnightblue" stroke="midnightblue" points="2492.85,-124.495 2483.09,-128.637 2493.3,-131.48 2492.85,-124.495"/>
</g>
<!-- Node44&#45;&gt;Node2 -->
<g id="edge124" class="edge"><title>Node44&#45;&gt;Node2</title>
<path fill="none" stroke="midnightblue" d="M2290.01,-311.775C2171.74,-308.635 1884.6,-298.285 1646,-268 1570.6,-258.429 1552.76,-249.741 1478,-236 1406.87,-222.925 1324.4,-208.437 1273.2,-199.524"/>
<polygon fill="midnightblue" stroke="midnightblue" points="2290.16,-315.281 2300.25,-312.041 2290.34,-308.283 2290.16,-315.281"/>
</g>
<!-- Node44&#45;&gt;Node4 -->
<g id="edge126" class="edge"><title>Node44&#45;&gt;Node4</title>
<path fill="none" stroke="midnightblue" d="M2290.09,-312.967C2152.25,-312.276 1780.74,-306.656 1474,-268 1322.4,-248.895 1283.92,-241.963 1137,-200 1068.58,-180.457 1027.58,-202.459 987,-144 973.314,-124.282 991.129,-95.7362 1001.9,-81.5996"/>
<polygon fill="midnightblue" stroke="midnightblue" points="2290.36,-316.468 2300.38,-313.011 2290.4,-309.468 2290.36,-316.468"/>
</g>
<!-- Node44&#45;&gt;Node5 -->
<g id="edge129" class="edge"><title>Node44&#45;&gt;Node5</title>
<path fill="none" stroke="midnightblue" d="M2307.53,-301.534C2218.99,-274.413 1989.94,-204.082 1799,-144 1728.36,-121.773 1645.27,-95.0427 1603.63,-81.6053"/>
<polygon fill="midnightblue" stroke="midnightblue" points="2306.54,-304.892 2317.13,-304.474 2308.59,-298.199 2306.54,-304.892"/>
</g>
<!-- Node44&#45;&gt;Node6 -->
<g id="edge130" class="edge"><title>Node44&#45;&gt;Node6</title>
<path fill="none" stroke="midnightblue" d="M2290.37,-309.595C2131.79,-298.594 1658.96,-257.855 1285,-144 1222.07,-124.841 1199.93,-128.372 1148,-88 1122.92,-68.5027 1103.53,-35.2365 1095.31,-19.6005"/>
<polygon fill="midnightblue" stroke="midnightblue" points="2290.14,-313.088 2300.35,-310.277 2290.61,-306.104 2290.14,-313.088"/>
</g>
<!-- Node44&#45;&gt;Node8 -->
<g id="edge139" class="edge"><title>Node44&#45;&gt;Node8</title>
<path fill="none" stroke="midnightblue" d="M2399.68,-310.061C2569.97,-300.875 3081.58,-273.017 3117,-268 3284.31,-244.298 3802.92,-116.194 3941.6,-81.6091"/>
<polygon fill="midnightblue" stroke="midnightblue" points="2399.47,-306.567 2389.68,-310.6 2399.85,-313.557 2399.47,-306.567"/>
</g>
<!-- Node44&#45;&gt;Node9 -->
<g id="edge138" class="edge"><title>Node44&#45;&gt;Node9</title>
<path fill="none" stroke="midnightblue" d="M2399.57,-310.193C2589.14,-300.439 3207.92,-268.577 3213,-268 3436.76,-242.567 3489.91,-217.297 3712,-180 3867.79,-153.837 3906.04,-141.876 4063,-124 4120.98,-117.396 4547.17,-130.657 4587,-88 4596.71,-77.6044 4596.89,-66.223 4587,-56 4541.72,-9.18759 3556.86,-9.75507 3299.88,-10.7052"/>
<polygon fill="midnightblue" stroke="midnightblue" points="2399.35,-306.7 2389.55,-310.709 2399.71,-313.69 2399.35,-306.7"/>
</g>
<!-- Node44&#45;&gt;Node11 -->
<g id="edge140" class="edge"><title>Node44&#45;&gt;Node11</title>
<path fill="none" stroke="midnightblue" d="M2399.92,-309.947C2434.39,-308.088 2479.79,-305.742 2520,-304 2974.08,-284.328 3089.72,-312.887 3542,-268 4033.66,-219.204 4319.17,-464.588 4639,-88 4655.89,-68.1185 4637.79,-35.3338 4627.34,-19.7506"/>
<polygon fill="midnightblue" stroke="midnightblue" points="2399.38,-306.471 2389.59,-310.508 2399.76,-313.461 2399.38,-306.471"/>
</g>
<!-- Node44&#45;&gt;Node12 -->
<g id="edge143" class="edge"><title>Node44&#45;&gt;Node12</title>
<path fill="none" stroke="midnightblue" d="M2399.92,-310.074C2434.4,-308.262 2479.79,-305.923 2520,-304 2881.72,-286.7 2974.52,-311.74 3334,-268 3486.54,-249.439 3523.24,-234.441 3673,-200 3707.46,-192.075 3715.26,-186.555 3750,-180 3853.14,-160.54 4114.63,-135.109 4219,-124 4261.72,-119.453 4575.07,-119.763 4604,-88 4613.58,-77.4856 4613.34,-66.7241 4604,-56 4601.84,-53.5169 4433.07,-31.1222 4339.63,-18.8912"/>
<polygon fill="midnightblue" stroke="midnightblue" points="2399.39,-306.597 2389.59,-310.618 2399.76,-313.587 2399.39,-306.597"/>
</g>
<!-- Node44&#45;&gt;Node13 -->
<g id="edge146" class="edge"><title>Node44&#45;&gt;Node13</title>
<path fill="none" stroke="midnightblue" d="M2399.92,-310.002C2434.4,-308.163 2479.79,-305.82 2520,-304 2929.23,-285.48 3034.4,-317.89 3441,-268 3631.6,-244.614 3674.56,-211.387 3864,-180 3963.85,-163.457 4215.52,-136.154 4316,-124 4383.75,-115.804 4575.66,-139.009 4621,-88 4664.95,-38.5582 4553.24,-20.7177 4478.63,-14.3865"/>
<polygon fill="midnightblue" stroke="midnightblue" points="2399.39,-306.525 2389.59,-310.555 2399.76,-313.515 2399.39,-306.525"/>
</g>
<!-- Node44&#45;&gt;Node14 -->
<g id="edge142" class="edge"><title>Node44&#45;&gt;Node14</title>
<path fill="none" stroke="midnightblue" d="M2290.21,-303.422C2162.08,-281.092 1832.77,-224.126 1557,-180 1451.36,-163.097 1416.29,-188.488 1319,-144 1289.68,-130.594 1262.7,-103.684 1247.88,-87.1158"/>
<polygon fill="midnightblue" stroke="midnightblue" points="2289.72,-306.889 2300.18,-305.159 2290.93,-299.993 2289.72,-306.889"/>
</g>
<!-- Node44&#45;&gt;Node15 -->
<g id="edge145" class="edge"><title>Node44&#45;&gt;Node15</title>
<path fill="none" stroke="midnightblue" d="M2315.83,-300.164C2297.43,-291.72 2273.37,-280.036 2253,-268 2157.14,-211.363 2146.08,-176.706 2048,-124 2020.24,-109.081 1987.15,-96.1623 1961.3,-87.0599"/>
<polygon fill="midnightblue" stroke="midnightblue" points="2314.6,-303.448 2325.15,-304.386 2317.48,-297.072 2314.6,-303.448"/>
</g>
<!-- Node44&#45;&gt;Node16 -->
<g id="edge127" class="edge"><title>Node44&#45;&gt;Node16</title>
<path fill="none" stroke="midnightblue" d="M2334.48,-295.936C2305.29,-248.598 2224.01,-116.806 2202.36,-81.6902"/>
<polygon fill="midnightblue" stroke="midnightblue" points="2331.5,-297.784 2339.73,-304.458 2337.46,-294.109 2331.5,-297.784"/>
</g>
<!-- Node44&#45;&gt;Node17 -->
<g id="edge128" class="edge"><title>Node44&#45;&gt;Node17</title>
<path fill="none" stroke="midnightblue" d="M2289.84,-312.619C2018.76,-310.601 834.266,-300.004 673,-268 589.933,-251.515 568.21,-242.571 495,-200 466.749,-183.572 438.297,-157.18 424.528,-143.634"/>
<polygon fill="midnightblue" stroke="midnightblue" points="2290.19,-316.122 2300.21,-312.696 2290.24,-309.122 2290.19,-316.122"/>
</g>
<!-- Node44&#45;&gt;Node20 -->
<g id="edge135" class="edge"><title>Node44&#45;&gt;Node20</title>
<path fill="none" stroke="midnightblue" d="M2356.7,-295.812C2367.8,-279.86 2385.23,-255.682 2402,-236 2439.1,-192.466 2464.01,-193.884 2492,-144 2503.45,-123.595 2507.74,-95.8434 2509.25,-81.8473"/>
<polygon fill="midnightblue" stroke="midnightblue" points="2353.74,-293.938 2350.95,-304.158 2359.51,-297.909 2353.74,-293.938"/>
</g>
<!-- Node44&#45;&gt;Node21 -->
<g id="edge131" class="edge"><title>Node44&#45;&gt;Node21</title>
<path fill="none" stroke="midnightblue" d="M2290.08,-312.229C2065.01,-308.904 1219.51,-294.731 1103,-268 985.459,-241.032 857.029,-168.49 815.09,-143.555"/>
<polygon fill="midnightblue" stroke="midnightblue" points="2290.28,-315.732 2300.33,-312.379 2290.38,-308.733 2290.28,-315.732"/>
</g>
<!-- Node44&#45;&gt;Node23 -->
<g id="edge137" class="edge"><title>Node44&#45;&gt;Node23</title>
<path fill="none" stroke="midnightblue" d="M2327.38,-297.675C2274.75,-251.915 2119.88,-117.246 2078.99,-81.6902"/>
<polygon fill="midnightblue" stroke="midnightblue" points="2325.33,-300.538 2335.18,-304.458 2329.93,-295.255 2325.33,-300.538"/>
</g>
<!-- Node44&#45;&gt;Node25 -->
<g id="edge125" class="edge"><title>Node44&#45;&gt;Node25</title>
<path fill="none" stroke="midnightblue" d="M2290.4,-311.335C2113.41,-305.885 1539.59,-287.787 1065,-268 982.906,-264.577 888.659,-259.931 825.632,-256.721"/>
<polygon fill="midnightblue" stroke="midnightblue" points="2290.39,-314.837 2300.5,-311.646 2290.61,-307.84 2290.39,-314.837"/>
</g>
<!-- Node44&#45;&gt;Node32 -->
<g id="edge136" class="edge"><title>Node44&#45;&gt;Node32</title>
<path fill="none" stroke="midnightblue" d="M2399.82,-308.867C2460.02,-303.233 2551.54,-291.092 2577,-268 2633.77,-216.51 2635.97,-112.2 2635.32,-81.6131"/>
<polygon fill="midnightblue" stroke="midnightblue" points="2399.35,-305.395 2389.71,-309.78 2399.98,-312.366 2399.35,-305.395"/>
</g>
<!-- Node44&#45;&gt;Node34 -->
<g id="edge132" class="edge"><title>Node44&#45;&gt;Node34</title>
<path fill="none" stroke="midnightblue" d="M2399.57,-310.052C2453.24,-305.662 2536.68,-294.795 2604,-268 2696.65,-231.124 2743.84,-231.865 2791,-144 2801.93,-123.632 2789.92,-95.8641 2782.29,-81.856"/>
<polygon fill="midnightblue" stroke="midnightblue" points="2399.28,-306.564 2389.58,-310.823 2399.82,-313.544 2399.28,-306.564"/>
</g>
<!-- Node44&#45;&gt;Node35 -->
<g id="edge133" class="edge"><title>Node44&#45;&gt;Node35</title>
<path fill="none" stroke="midnightblue" d="M2343.22,-294.426C2338.57,-245.857 2326.16,-116.439 2322.83,-81.6902"/>
<polygon fill="midnightblue" stroke="midnightblue" points="2339.74,-294.838 2344.18,-304.458 2346.71,-294.17 2339.74,-294.838"/>
</g>
<!-- Node44&#45;&gt;Node36 -->
<g id="edge134" class="edge"><title>Node44&#45;&gt;Node36</title>
<path fill="none" stroke="midnightblue" d="M2399.77,-311.461C2484.23,-308.191 2650.94,-298.168 2789,-268 2954.32,-231.873 2990.07,-202.121 3149,-144 3208.45,-122.259 3278.01,-95.0922 3312.44,-81.5303"/>
<polygon fill="midnightblue" stroke="midnightblue" points="2399.5,-307.968 2389.64,-311.836 2399.76,-314.963 2399.5,-307.968"/>
</g>
<!-- Node44&#45;&gt;Node37 -->
<g id="edge141" class="edge"><title>Node44&#45;&gt;Node37</title>
<path fill="none" stroke="midnightblue" d="M2399.94,-308.475C2463.47,-302.486 2570.87,-290.021 2661,-268 2822.54,-228.533 2917.86,-279.675 3014,-144 3027.26,-125.294 3021.25,-96.2895 3016.97,-81.8266"/>
<polygon fill="midnightblue" stroke="midnightblue" points="2399.38,-305.012 2389.75,-309.416 2400.03,-311.982 2399.38,-305.012"/>
</g>
<!-- Node44&#45;&gt;Node38 -->
<g id="edge144" class="edge"><title>Node44&#45;&gt;Node38</title>
<path fill="none" stroke="midnightblue" d="M2399.91,-310.662C2494.93,-306.077 2696.01,-293.997 2864,-268 3112.92,-229.479 3191.76,-256.748 3417,-144 3449.22,-127.873 3479.33,-96.5745 3492.72,-81.5084"/>
<polygon fill="midnightblue" stroke="midnightblue" points="2399.5,-307.178 2389.67,-311.147 2399.83,-314.17 2399.5,-307.178"/>
</g>
<!-- Node44&#45;&gt;Node39 -->
<g id="edge147" class="edge"><title>Node44&#45;&gt;Node39</title>
<path fill="none" stroke="midnightblue" d="M2400.06,-312.007C2514.66,-309.344 2786.99,-299.911 3013,-268 3154.39,-248.037 3189.76,-239.429 3327,-200 3455.32,-163.135 3604.45,-103.619 3658.29,-81.5727"/>
<polygon fill="midnightblue" stroke="midnightblue" points="2399.71,-308.514 2389.79,-312.237 2399.87,-315.512 2399.71,-308.514"/>
</g>
<!-- Node45 -->
<g id="node45" class="node"><title>Node45</title>
<g id="a_node45"><a xlink:href="../../d5/dc8/WIN32_2sample__application_2sampleapplication_8c.html" target="_top" xlink:title="src/ports/WIN32/sample\l_application/sampleapplication.c">
<polygon fill="none" stroke="black" points="2411,-237 2411,-267 2569,-267 2569,-237 2411,-237"/>
<text text-anchor="start" x="2419" y="-255" font-family="Helvetica,sans-Serif" font-size="10.00">src/ports/WIN32/sample</text>
<text text-anchor="middle" x="2490" y="-244" font-family="Helvetica,sans-Serif" font-size="10.00">_application/sampleapplication.c</text>
</a>
</g>
</g>
<!-- Node44&#45;&gt;Node45 -->
<g id="edge148" class="edge"><title>Node44&#45;&gt;Node45</title>
<path fill="none" stroke="midnightblue" d="M2375.28,-300.472C2398.87,-290.707 2431.63,-277.152 2456.11,-267.025"/>
<polygon fill="midnightblue" stroke="midnightblue" points="2373.68,-297.346 2365.77,-304.403 2376.35,-303.814 2373.68,-297.346"/>
</g>
<!-- Node46&#45;&gt;Node4 -->
<g id="edge159" class="edge"><title>Node46&#45;&gt;Node4</title>
<path fill="none" stroke="midnightblue" d="M3066.96,-128.332C3050.47,-126.681 3031.37,-124.989 3014,-124 2185.85,-76.8503 1975.82,-140.549 1148,-88 1119.78,-86.2086 1088.46,-82.9412 1062.7,-79.9122"/>
<polygon fill="midnightblue" stroke="midnightblue" points="3067.07,-131.862 3077.38,-129.404 3067.79,-124.899 3067.07,-131.862"/>
</g>
<!-- Node46&#45;&gt;Node5 -->
<g id="edge161" class="edge"><title>Node46&#45;&gt;Node5</title>
<path fill="none" stroke="midnightblue" d="M3066.96,-128.433C3050.46,-126.794 3031.36,-125.085 3014,-124 2488.56,-91.1565 2355.94,-111.582 1830,-88 1761.21,-84.9155 1681.97,-79.9965 1630.77,-76.6386"/>
<polygon fill="midnightblue" stroke="midnightblue" points="3067.07,-131.962 3077.37,-129.492 3067.78,-124.998 3067.07,-131.962"/>
</g>
<!-- Node46&#45;&gt;Node6 -->
<g id="edge162" class="edge"><title>Node46&#45;&gt;Node6</title>
<path fill="none" stroke="midnightblue" d="M3114.57,-114.631C3118.66,-96.9958 3121.18,-70.9014 3106,-56 3071.1,-21.7442 1394.88,-21.3624 1346,-20 1286.44,-18.3399 1219.08,-15.9399 1168.55,-14.0357"/>
<polygon fill="midnightblue" stroke="midnightblue" points="3111.18,-113.777 3111.97,-124.343 3117.94,-115.59 3111.18,-113.777"/>
</g>
<!-- Node46&#45;&gt;Node7 -->
<g id="edge166" class="edge"><title>Node46&#45;&gt;Node7</title>
<path fill="none" stroke="midnightblue" d="M3141.59,-119.897C3155.1,-112.648 3169.38,-102.185 3177,-88 3183.73,-75.4721 3186.89,-66.2164 3177,-56 3129.76,-7.22161 2101.75,-9.25937 1835.51,-10.6116"/>
<polygon fill="midnightblue" stroke="midnightblue" points="3139.87,-116.844 3132.45,-124.408 3142.97,-123.121 3139.87,-116.844"/>
</g>
<!-- Node46&#45;&gt;Node9 -->
<g id="edge171" class="edge"><title>Node46&#45;&gt;Node9</title>
<path fill="none" stroke="midnightblue" d="M3150.3,-124.38C3172.26,-117.822 3198.13,-106.636 3215,-88 3232.86,-68.2771 3237.43,-35.4155 3238.6,-19.7822"/>
<polygon fill="midnightblue" stroke="midnightblue" points="3149.24,-121.041 3140.53,-127.077 3151.1,-127.789 3149.24,-121.041"/>
</g>
<!-- Node46&#45;&gt;Node10 -->
<g id="edge172" class="edge"><title>Node46&#45;&gt;Node10</title>
<path fill="none" stroke="midnightblue" d="M3124.17,-116.884C3138.47,-99.7537 3155.44,-72.8587 3139,-56 3111.1,-27.3948 1740.94,-21.1885 1701,-20 1642.08,-18.2468 1575.7,-15.9533 1524.63,-14.1204"/>
<polygon fill="midnightblue" stroke="midnightblue" points="3121.51,-114.607 3117.52,-124.423 3126.76,-119.237 3121.51,-114.607"/>
</g>
<!-- Node46&#45;&gt;Node11 -->
<g id="edge173" class="edge"><title>Node46&#45;&gt;Node11</title>
<path fill="none" stroke="midnightblue" d="M3151.15,-130.776C3188.24,-128.855 3243.7,-126.07 3292,-124 3729.67,-105.24 3842.53,-144.081 4277,-88 4395.05,-72.7616 4532.29,-36.2306 4591.42,-19.5581"/>
<polygon fill="midnightblue" stroke="midnightblue" points="3150.54,-127.303 3140.73,-131.318 3150.9,-134.294 3150.54,-127.303"/>
</g>
<!-- Node46&#45;&gt;Node12 -->
<g id="edge175" class="edge"><title>Node46&#45;&gt;Node12</title>
<path fill="none" stroke="midnightblue" d="M3151.16,-130.893C3188.25,-129.047 3243.71,-126.306 3292,-124 3378.33,-119.877 3988.52,-119.502 4069,-88 4089.56,-79.952 4087.39,-66.1546 4107,-56 4142.63,-37.5457 4186.43,-26.2297 4220.91,-19.5611"/>
<polygon fill="midnightblue" stroke="midnightblue" points="3150.55,-127.418 3140.74,-131.412 3150.9,-134.41 3150.55,-127.418"/>
</g>
<!-- Node46&#45;&gt;Node13 -->
<g id="edge180" class="edge"><title>Node46&#45;&gt;Node13</title>
<path fill="none" stroke="midnightblue" d="M3151.15,-130.789C3188.24,-128.877 3243.7,-126.098 3292,-124 3398.09,-119.392 4149.36,-129.727 4247,-88 4265.79,-79.9719 4262.5,-66.5496 4280,-56 4309.56,-38.1726 4347.01,-26.5385 4375.43,-19.5745"/>
<polygon fill="midnightblue" stroke="midnightblue" points="3150.54,-127.317 3140.73,-131.329 3150.9,-134.307 3150.54,-127.317"/>
</g>
<!-- Node46&#45;&gt;Node15 -->
<g id="edge178" class="edge"><title>Node46&#45;&gt;Node15</title>
<path fill="none" stroke="midnightblue" d="M3066.95,-128.481C3050.46,-126.849 3031.36,-125.131 3014,-124 2566.66,-94.8475 2451.94,-133.764 2006,-88 2003.07,-87.6994 2000.09,-87.3608 1997.09,-86.9915"/>
<polygon fill="midnightblue" stroke="midnightblue" points="3067.07,-132.01 3077.37,-129.534 3067.77,-125.046 3067.07,-132.01"/>
</g>
<!-- Node46&#45;&gt;Node16 -->
<g id="edge160" class="edge"><title>Node46&#45;&gt;Node16</title>
<path fill="none" stroke="midnightblue" d="M3066.95,-128.591C3050.45,-126.973 3031.35,-125.237 3014,-124 2680.24,-100.214 2593.46,-133.803 2262,-88 2251.1,-86.4939 2239.34,-84.04 2228.86,-81.5491"/>
<polygon fill="midnightblue" stroke="midnightblue" points="3067.07,-132.12 3077.36,-129.631 3067.76,-125.155 3067.07,-132.12"/>
</g>
<!-- Node46&#45;&gt;Node20 -->
<g id="edge168" class="edge"><title>Node46&#45;&gt;Node20</title>
<path fill="none" stroke="midnightblue" d="M3066.92,-128.877C3050.43,-127.296 3031.33,-125.511 3014,-124 2813.24,-106.496 2760.26,-124.11 2562,-88 2553.31,-86.4174 2543.99,-83.9746 2535.68,-81.5168"/>
<polygon fill="midnightblue" stroke="midnightblue" points="3067.05,-132.406 3077.34,-129.881 3067.73,-125.438 3067.05,-132.406"/>
</g>
<!-- Node46&#45;&gt;Node22 -->
<g id="edge163" class="edge"><title>Node46&#45;&gt;Node22</title>
<path fill="none" stroke="midnightblue" d="M3066.96,-128.315C3050.47,-126.661 3031.37,-124.972 3014,-124 2555.09,-98.3063 1403.27,-134.516 946,-88 932.363,-86.6128 917.575,-84.1233 904.466,-81.566"/>
<polygon fill="midnightblue" stroke="midnightblue" points="3067.07,-131.845 3077.38,-129.389 3067.79,-124.882 3067.07,-131.845"/>
</g>
<!-- Node46&#45;&gt;Node23 -->
<g id="edge170" class="edge"><title>Node46&#45;&gt;Node23</title>
<path fill="none" stroke="midnightblue" d="M3066.95,-128.527C3050.46,-126.901 3031.36,-125.175 3014,-124 2622.57,-97.4894 2520.64,-141.685 2132,-88 2121.31,-86.523 2109.78,-84.0444 2099.54,-81.5231"/>
<polygon fill="midnightblue" stroke="midnightblue" points="3067.07,-132.056 3077.37,-129.575 3067.77,-125.092 3067.07,-132.056"/>
</g>
<!-- Node46&#45;&gt;Node28 -->
<g id="edge177" class="edge"><title>Node46&#45;&gt;Node28</title>
<path fill="none" stroke="midnightblue" d="M3066.96,-128.282C3050.47,-126.624 3031.37,-124.941 3014,-124 1850.71,-61.0105 1555.59,-162.864 393,-88 371.008,-86.5838 347.018,-84.0873 325.701,-81.5325"/>
<polygon fill="midnightblue" stroke="midnightblue" points="3067.07,-131.812 3077.38,-129.36 3067.79,-124.849 3067.07,-131.812"/>
</g>
<!-- Node46&#45;&gt;Node30 -->
<g id="edge164" class="edge"><title>Node46&#45;&gt;Node30</title>
<path fill="none" stroke="midnightblue" d="M3151.15,-130.704C3188.23,-128.738 3243.69,-125.926 3292,-124 3553.69,-113.567 4210.51,-123.466 4470,-88 4480.48,-86.5675 4491.78,-84.067 4501.77,-81.5135"/>
<polygon fill="midnightblue" stroke="midnightblue" points="3150.53,-127.232 3140.73,-131.26 3150.9,-134.222 3150.53,-127.232"/>
</g>
<!-- Node46&#45;&gt;Node32 -->
<g id="edge169" class="edge"><title>Node46&#45;&gt;Node32</title>
<path fill="none" stroke="midnightblue" d="M3067.06,-128.783C2978.82,-119.829 2776.48,-98.8555 2708,-88 2696.63,-86.1972 2684.34,-83.8349 2673.15,-81.5201"/>
<polygon fill="midnightblue" stroke="midnightblue" points="3066.94,-132.288 3077.24,-129.814 3067.64,-125.324 3066.94,-132.288"/>
</g>
<!-- Node46&#45;&gt;Node34 -->
<g id="edge165" class="edge"><title>Node46&#45;&gt;Node34</title>
<path fill="none" stroke="midnightblue" d="M3067.27,-125.458C3005.27,-114.254 2889.17,-93.2722 2824.17,-81.5246"/>
<polygon fill="midnightblue" stroke="midnightblue" points="3067,-128.967 3077.47,-127.301 3068.25,-122.079 3067,-128.967"/>
</g>
<!-- Node46&#45;&gt;Node36 -->
<g id="edge167" class="edge"><title>Node46&#45;&gt;Node36</title>
<path fill="none" stroke="midnightblue" d="M3150.52,-121.928C3194.28,-110.258 3262.27,-92.1275 3302.04,-81.5231"/>
<polygon fill="midnightblue" stroke="midnightblue" points="3149.52,-118.572 3140.76,-124.531 3151.32,-125.336 3149.52,-118.572"/>
</g>
<!-- Node46&#45;&gt;Node37 -->
<g id="edge174" class="edge"><title>Node46&#45;&gt;Node37</title>
<path fill="none" stroke="midnightblue" d="M3086.79,-118.97C3068.45,-107.391 3043.02,-91.3312 3027.59,-81.5806"/>
<polygon fill="midnightblue" stroke="midnightblue" points="3085.06,-122.023 3095.39,-124.403 3088.8,-116.104 3085.06,-122.023"/>
</g>
<!-- Node46&#45;&gt;Node38 -->
<g id="edge176" class="edge"><title>Node46&#45;&gt;Node38</title>
<path fill="none" stroke="midnightblue" d="M3150.56,-127.011C3208.66,-118.587 3317.44,-102.631 3410,-88 3422.83,-85.9719 3436.67,-83.7041 3449.57,-81.5582"/>
<polygon fill="midnightblue" stroke="midnightblue" points="3150.06,-123.548 3140.66,-128.445 3151.06,-130.475 3150.06,-123.548"/>
</g>
<!-- Node46&#45;&gt;Node39 -->
<g id="edge181" class="edge"><title>Node46&#45;&gt;Node39</title>
<path fill="none" stroke="midnightblue" d="M3150.62,-130.107C3234.01,-124.089 3427.42,-109.011 3589,-88 3602.98,-86.182 3618.12,-83.8151 3631.92,-81.5007"/>
<polygon fill="midnightblue" stroke="midnightblue" points="3150.26,-126.624 3140.54,-130.83 3150.76,-133.606 3150.26,-126.624"/>
</g>
<!-- Node47 -->
<g id="node47" class="node"><title>Node47</title>
<g id="a_node47"><a xlink:href="../../d4/df6/socket__timer_8c.html" target="_top" xlink:title="src/ports/socket_timer.c">
<polygon fill="none" stroke="black" points="4116,-62.5 4116,-81.5 4238,-81.5 4238,-62.5 4116,-62.5"/>
<text text-anchor="middle" x="4177" y="-69.5" font-family="Helvetica,sans-Serif" font-size="10.00">src/ports/socket_timer.c</text>
</a>
</g>
</g>
<!-- Node46&#45;&gt;Node47 -->
<g id="edge179" class="edge"><title>Node46&#45;&gt;Node47</title>
<path fill="none" stroke="midnightblue" d="M3151.16,-130.87C3188.25,-129.01 3243.7,-126.261 3292,-124 3651.96,-107.149 3744.28,-131.463 4102,-88 4114.52,-86.4785 4128.08,-84.0206 4140.18,-81.5308"/>
<polygon fill="midnightblue" stroke="midnightblue" points="3150.55,-127.396 3140.74,-131.394 3150.9,-134.387 3150.55,-127.396"/>
</g>
<!-- Node49&#45;&gt;Node24 -->
<g id="edge184" class="edge"><title>Node49&#45;&gt;Node24</title>
<path fill="none" stroke="midnightblue" d="M1883.02,-410.901C1866.89,-400.999 1845.82,-388.071 1832.1,-379.655"/>
<polygon fill="midnightblue" stroke="midnightblue" points="1881.51,-414.077 1891.86,-416.324 1885.17,-408.111 1881.51,-414.077"/>
</g>
<!-- Node50 -->
<g id="node50" class="node"><title>Node50</title>
<g id="a_node50"><a xlink:href="../../da/de0/enipmessage_8c.html" target="_top" xlink:title="src/utils/enipmessage.c">
<polygon fill="none" stroke="black" points="1883,-360.5 1883,-379.5 2003,-379.5 2003,-360.5 1883,-360.5"/>
<text text-anchor="middle" x="1943" y="-367.5" font-family="Helvetica,sans-Serif" font-size="10.00">src/utils/enipmessage.c</text>
</a>
</g>
</g>
<!-- Node49&#45;&gt;Node50 -->
<g id="edge185" class="edge"><title>Node49&#45;&gt;Node50</title>
<path fill="none" stroke="midnightblue" d="M1917.95,-407.566C1924.31,-398.275 1931.87,-387.248 1937,-379.751"/>
<polygon fill="midnightblue" stroke="midnightblue" points="1914.87,-405.855 1912.11,-416.083 1920.65,-409.812 1914.87,-405.855"/>
</g>
</g>
</svg>
