<?xml version="1.0" encoding="UTF-8" standalone="no"?>
<!DOCTYPE svg PUBLIC "-//W3C//DTD SVG 1.1//EN"
 "http://www.w3.org/Graphics/SVG/1.1/DTD/svg11.dtd">
<!-- Generated by graphviz version 2.26.3 (20100126.1600)
 -->
<!-- Title: G Pages: 1 -->
<!--zoomable 320 -->
<svg id="main" version="1.1" xmlns="http://www.w3.org/2000/svg" xmlns:xlink="http://www.w3.org/1999/xlink" xml:space="preserve" onload="init(evt)">
        <defs>
                <circle id="rim" cx="0" cy="0" r="7"/>
                <circle id="rim2" cx="0" cy="0" r="3.5"/>
                <g id="zoomPlus">
                        <use xlink:href="#rim" fill="#404040">
                                <set attributeName="fill" to="#808080" begin="zoomplus.mouseover" end="zoomplus.mouseout"/>
                        </use>
                        <path d="M-4,0h8M0,-4v8" fill="none" stroke="white" stroke-width="1.5" pointer-events="none"/>
                </g>
                <g id="zoomMin">
                        <use xlink:href="#rim" fill="#404040">
                                <set attributeName="fill" to="#808080" begin="zoomminus.mouseover" end="zoomminus.mouseout"/>
                        </use>
                        <path d="M-4,0h8" fill="none" stroke="white" stroke-width="1.5" pointer-events="none"/>
                </g>
                <g id="dirArrow">
                        <path fill="none" stroke="white" stroke-width="1.5" d="M0,-3.0v7 M-2.5,-0.5L0,-3.0L2.5,-0.5"/>
                </g>
               <g id="resetDef">
                       <use xlink:href="#rim2" fill="#404040">
                               <set attributeName="fill" to="#808080" begin="reset.mouseover" end="reset.mouseout"/>
                       </use>
               </g>
        </defs>

<script type="text/javascript">
var viewWidth = 1920;
var viewHeight = 320;
var sectionId = 'dynsection-1';
</script>
<script xlink:href="../../svgpan.js"/>
<svg id="graph" class="graph">
<g id="viewport">
<title>G</title>
<!-- Node1 -->
<g id="node1" class="node"><title>Node1</title>
<polygon fill="#bfbfbf" stroke="black" points="249.754,-290.5 249.754,-311.5 512.754,-311.5 512.754,-290.5 249.754,-290.5"/>
<text text-anchor="middle" x="381.254" y="-298.5" font-family="Helvetica,sans-Serif" font-size="10.00">src/ports/WIN32/sample_application/opener_user_conf.h</text>
</g>
<!-- Node2 -->
<g id="node3" class="node"><title>Node2</title>
<a xlink:href="../../d2/da3/cipconnectionmanager_8h.html" target="_top" xlink:title="src/cip/cipconnectionmanager.h">
<polygon fill="none" stroke="black" points="303.754,-174.5 303.754,-195.5 458.754,-195.5 458.754,-174.5 303.754,-174.5"/>
<text text-anchor="middle" x="381.254" y="-182.5" font-family="Helvetica,sans-Serif" font-size="10.00">src/cip/cipconnectionmanager.h</text>
</a>
</g>
<!-- Node1&#45;&gt;Node2 -->
<g id="edge2" class="edge"><title>Node1&#45;&gt;Node2</title>
<path fill="none" stroke="midnightblue" d="M381.254,-280.123C381.254,-255.298 381.254,-214.824 381.254,-195.679"/>
<polygon fill="midnightblue" stroke="midnightblue" points="377.754,-280.295 381.254,-290.295 384.754,-280.295 377.754,-280.295"/>
</g>
<!-- Node5 -->
<g id="node9" class="node"><title>Node5</title>
<a xlink:href="../../d2/d3d/cipcommon_8c.html" target="_top" xlink:title="src/cip/cipcommon.c">
<polygon fill="none" stroke="black" points="215.754,-58.5 215.754,-79.5 322.754,-79.5 322.754,-58.5 215.754,-58.5"/>
<text text-anchor="middle" x="269.254" y="-66.5" font-family="Helvetica,sans-Serif" font-size="10.00">src/cip/cipcommon.c</text>
</a>
</g>
<!-- Node1&#45;&gt;Node5 -->
<g id="edge60" class="edge"><title>Node1&#45;&gt;Node5</title>
<path fill="none" stroke="midnightblue" d="M311.331,-288.544C224.775,-271.516 85.096,-238.207 55.2543,-196 9.67383,-131.533 138.226,-94.3878 215.524,-78.4089"/>
<polygon fill="midnightblue" stroke="midnightblue" points="310.869,-292.02 321.352,-290.49 312.203,-285.148 310.869,-292.02"/>
</g>
<!-- Node6 -->
<g id="node11" class="node"><title>Node6</title>
<a xlink:href="../../d5/d35/cipconnectionmanager_8c.html" target="_top" xlink:title="src/cip/cipconnectionmanager.c">
<polygon fill="none" stroke="black" points="386.754,-0.5 386.754,-21.5 541.754,-21.5 541.754,-0.5 386.754,-0.5"/>
<text text-anchor="middle" x="464.254" y="-8.5" font-family="Helvetica,sans-Serif" font-size="10.00">src/cip/cipconnectionmanager.c</text>
</a>
</g>
<!-- Node1&#45;&gt;Node6 -->
<g id="edge62" class="edge"><title>Node1&#45;&gt;Node6</title>
<path fill="none" stroke="midnightblue" d="M274.679,-289.166C210.142,-280.787 134.763,-268.488 105.254,-254 21.0944,-212.681 -35.568,-127.595 27.2543,-58 53.5239,-28.8983 339.307,-26.4874 378.254,-22 380.946,-21.6899 383.684,-21.369 386.449,-21.0404"/>
<polygon fill="midnightblue" stroke="midnightblue" points="274.573,-292.68 284.936,-290.476 275.46,-285.737 274.573,-292.68"/>
</g>
<!-- Node20 -->
<g id="node52" class="node"><title>Node20</title>
<a xlink:href="../../dd/dc4/cipidentity_8c.html" target="_top" xlink:title="src/cip/cipidentity.c">
<polygon fill="none" stroke="black" points="63.7543,-174.5 63.7543,-195.5 164.754,-195.5 164.754,-174.5 63.7543,-174.5"/>
<text text-anchor="middle" x="114.254" y="-182.5" font-family="Helvetica,sans-Serif" font-size="10.00">src/cip/cipidentity.c</text>
</a>
</g>
<!-- Node1&#45;&gt;Node20 -->
<g id="edge64" class="edge"><title>Node1&#45;&gt;Node20</title>
<path fill="none" stroke="midnightblue" d="M347.342,-286.267C292.628,-262.496 186.192,-216.254 138.449,-195.512"/>
<polygon fill="midnightblue" stroke="midnightblue" points="346.048,-289.52 356.614,-290.295 348.837,-283.1 346.048,-289.52"/>
</g>
<!-- Node21 -->
<g id="node54" class="node"><title>Node21</title>
<a xlink:href="../../dd/d20/ciptcpipinterface_8c.html" target="_top" xlink:title="src/cip/ciptcpipinterface.c">
<polygon fill="none" stroke="black" points="1784.25,-116.5 1784.25,-137.5 1912.25,-137.5 1912.25,-116.5 1784.25,-116.5"/>
<text text-anchor="middle" x="1848.25" y="-124.5" font-family="Helvetica,sans-Serif" font-size="10.00">src/cip/ciptcpipinterface.c</text>
</a>
</g>
<!-- Node1&#45;&gt;Node21 -->
<g id="edge66" class="edge"><title>Node1&#45;&gt;Node21</title>
<path fill="none" stroke="midnightblue" d="M523.215,-297.435C860.788,-287.976 1691.43,-258.571 1800.25,-196 1823.28,-182.762 1837.83,-153.472 1844.31,-137.645"/>
<polygon fill="midnightblue" stroke="midnightblue" points="522.782,-293.945 512.884,-297.722 522.977,-300.943 522.782,-293.945"/>
</g>
<!-- Node22 -->
<g id="node56" class="node"><title>Node22</title>
<a xlink:href="../../d4/d38/opener__api_8h.html" target="_top" xlink:title="src/opener_api.h">
<polygon fill="none" stroke="black" points="899.754,-232.5 899.754,-253.5 988.754,-253.5 988.754,-232.5 899.754,-232.5"/>
<text text-anchor="middle" x="944.254" y="-240.5" font-family="Helvetica,sans-Serif" font-size="10.00">src/opener_api.h</text>
</a>
</g>
<!-- Node1&#45;&gt;Node22 -->
<g id="edge68" class="edge"><title>Node1&#45;&gt;Node22</title>
<path fill="none" stroke="midnightblue" d="M493.16,-289.472C617.585,-276.653 812.488,-256.574 899.592,-247.601"/>
<polygon fill="midnightblue" stroke="midnightblue" points="492.798,-285.99 483.209,-290.497 493.515,-292.953 492.798,-285.99"/>
</g>
<!-- Node26 -->
<g id="node79" class="node"><title>Node26</title>
<a xlink:href="../../d1/d1b/trace_8h.html" target="_top" xlink:title="Tracing infrastructure for OpENer.">
<polygon fill="none" stroke="black" points="1365.75,-174.5 1365.75,-195.5 1428.75,-195.5 1428.75,-174.5 1365.75,-174.5"/>
<text text-anchor="middle" x="1397.25" y="-182.5" font-family="Helvetica,sans-Serif" font-size="10.00">src/trace.h</text>
</a>
</g>
<!-- Node1&#45;&gt;Node26 -->
<g id="edge106" class="edge"><title>Node1&#45;&gt;Node26</title>
<path fill="none" stroke="midnightblue" d="M522.92,-294.009C648.019,-286.927 835.2,-274.114 997.254,-254 1135.2,-236.879 1298.04,-205.178 1365.52,-191.529"/>
<polygon fill="midnightblue" stroke="midnightblue" points="522.683,-290.517 512.895,-294.572 523.075,-297.506 522.683,-290.517"/>
</g>
<!-- Node3 -->
<g id="node5" class="node"><title>Node3</title>
<a xlink:href="../../d1/dc0/appcontype_8h.html" target="_top" xlink:title="src/cip/appcontype.h">
<polygon fill="none" stroke="black" points="405.754,-116.5 405.754,-137.5 512.754,-137.5 512.754,-116.5 405.754,-116.5"/>
<text text-anchor="middle" x="459.254" y="-124.5" font-family="Helvetica,sans-Serif" font-size="10.00">src/cip/appcontype.h</text>
</a>
</g>
<!-- Node2&#45;&gt;Node3 -->
<g id="edge4" class="edge"><title>Node2&#45;&gt;Node3</title>
<path fill="none" stroke="midnightblue" d="M403.768,-168.259C417.075,-158.364 433.519,-146.136 445.039,-137.571"/>
<polygon fill="midnightblue" stroke="midnightblue" points="401.497,-165.586 395.561,-174.362 405.674,-171.203 401.497,-165.586"/>
</g>
<!-- Node4 -->
<g id="node7" class="node"><title>Node4</title>
<a xlink:href="../../d1/dbc/appcontype_8c.html" target="_top" xlink:title="src/cip/appcontype.c">
<polygon fill="none" stroke="black" points="1013.75,-58.5 1013.75,-79.5 1120.75,-79.5 1120.75,-58.5 1013.75,-58.5"/>
<text text-anchor="middle" x="1067.25" y="-66.5" font-family="Helvetica,sans-Serif" font-size="10.00">src/cip/appcontype.c</text>
</a>
</g>
<!-- Node2&#45;&gt;Node4 -->
<g id="edge32" class="edge"><title>Node2&#45;&gt;Node4</title>
<path fill="none" stroke="midnightblue" d="M469.03,-173.402C564.845,-160.644 706.343,-141.479 718.254,-138 740.78,-131.421 743.775,-122.738 766.254,-116 867.048,-85.7895 896.336,-96.5239 1000.25,-80 1004.56,-79.3151 1009.02,-78.5984 1013.51,-77.8734"/>
<polygon fill="midnightblue" stroke="midnightblue" points="468.488,-169.943 459.036,-174.731 469.411,-176.882 468.488,-169.943"/>
</g>
<!-- Node2&#45;&gt;Node5 -->
<g id="edge42" class="edge"><title>Node2&#45;&gt;Node5</title>
<path fill="none" stroke="midnightblue" d="M334.667,-170.472C317.918,-163.147 300.225,-152.63 288.254,-138 274.248,-120.883 270.534,-94.2109 269.57,-79.5463"/>
<polygon fill="midnightblue" stroke="midnightblue" points="333.788,-173.892 344.369,-174.422 336.428,-167.409 333.788,-173.892"/>
</g>
<!-- Node2&#45;&gt;Node6 -->
<g id="edge44" class="edge"><title>Node2&#45;&gt;Node6</title>
<path fill="none" stroke="midnightblue" d="M384.164,-164.291C386.585,-150.281 390.712,-131.564 397.254,-116 412.923,-78.722 441.451,-39.8785 455.691,-21.6475"/>
<polygon fill="midnightblue" stroke="midnightblue" points="380.676,-163.945 382.575,-174.368 387.59,-165.036 380.676,-163.945"/>
</g>
<!-- Node7 -->
<g id="node13" class="node"><title>Node7</title>
<a xlink:href="../../df/d03/cipioconnection_8c.html" target="_top" xlink:title="src/cip/cipioconnection.c">
<polygon fill="none" stroke="black" points="244.754,-0.5 244.754,-21.5 369.754,-21.5 369.754,-0.5 244.754,-0.5"/>
<text text-anchor="middle" x="307.254" y="-8.5" font-family="Helvetica,sans-Serif" font-size="10.00">src/cip/cipioconnection.c</text>
</a>
</g>
<!-- Node2&#45;&gt;Node7 -->
<g id="edge52" class="edge"><title>Node2&#45;&gt;Node7</title>
<path fill="none" stroke="midnightblue" d="M301.624,-172.73C207.566,-156.405 59.7256,-124.355 27.2543,-80 21.4785,-72.1105 20.9385,-65.4643 27.2543,-58 41.1639,-41.561 166.554,-25.6647 244.746,-17.2302"/>
<polygon fill="midnightblue" stroke="midnightblue" points="301.236,-176.215 311.683,-174.452 302.417,-169.315 301.236,-176.215"/>
</g>
<!-- Node8 -->
<g id="node15" class="node"><title>Node8</title>
<a xlink:href="../../da/dc2/generic__networkhandler_8h.html" target="_top" xlink:title="src/ports/generic_networkhandler.h">
<polygon fill="none" stroke="black" points="1175.75,-58.5 1175.75,-79.5 1344.75,-79.5 1344.75,-58.5 1175.75,-58.5"/>
<text text-anchor="middle" x="1260.25" y="-66.5" font-family="Helvetica,sans-Serif" font-size="10.00">src/ports/generic_networkhandler.h</text>
</a>
</g>
<!-- Node2&#45;&gt;Node8 -->
<g id="edge58" class="edge"><title>Node2&#45;&gt;Node8</title>
<path fill="none" stroke="midnightblue" d="M469.284,-173.789C597.6,-158.68 635.679,-175.089 756.254,-138 776.773,-131.688 778.667,-122.082 799.254,-116 817,-110.758 1047.39,-88.7709 1175.58,-76.818"/>
<polygon fill="midnightblue" stroke="midnightblue" points="468.571,-170.35 459.069,-175.035 469.419,-177.298 468.571,-170.35"/>
</g>
<!-- Node9 -->
<g id="node19" class="node"><title>Node9</title>
<a xlink:href="../../d2/dbd/encap_8c.html" target="_top" xlink:title="src/enet_encap/encap.c">
<polygon fill="none" stroke="black" points="1233.75,-0.5 1233.75,-21.5 1354.75,-21.5 1354.75,-0.5 1233.75,-0.5"/>
<text text-anchor="middle" x="1294.25" y="-8.5" font-family="Helvetica,sans-Serif" font-size="10.00">src/enet_encap/encap.c</text>
</a>
</g>
<!-- Node2&#45;&gt;Node9 -->
<g id="edge56" class="edge"><title>Node2&#45;&gt;Node9</title>
<path fill="none" stroke="midnightblue" d="M468.928,-173.409C551.467,-162.178 665.334,-145.742 685.254,-138 701.684,-131.614 701.793,-122.305 718.254,-116 822.674,-76.0041 861.623,-116.676 967.254,-80 985.69,-73.599 986.876,-64.5633 1005.25,-58 1007.95,-57.0383 1149.73,-34.1929 1233.68,-20.7132"/>
<polygon fill="midnightblue" stroke="midnightblue" points="468.212,-169.974 458.773,-174.786 469.153,-176.911 468.212,-169.974"/>
</g>
<!-- Node15 -->
<g id="node32" class="node"><title>Node15</title>
<a xlink:href="../../df/d2e/cipassembly_8c.html" target="_top" xlink:title="src/cip/cipassembly.c">
<polygon fill="none" stroke="black" points="972.254,-116.5 972.254,-137.5 1084.25,-137.5 1084.25,-116.5 972.254,-116.5"/>
<text text-anchor="middle" x="1028.25" y="-124.5" font-family="Helvetica,sans-Serif" font-size="10.00">src/cip/cipassembly.c</text>
</a>
</g>
<!-- Node2&#45;&gt;Node15 -->
<g id="edge34" class="edge"><title>Node2&#45;&gt;Node15</title>
<path fill="none" stroke="midnightblue" d="M469.142,-173.841C672.061,-153.158 725.218,-156.54 925.254,-138 940.475,-136.589 956.944,-134.903 972.153,-133.279"/>
<polygon fill="midnightblue" stroke="midnightblue" points="468.641,-170.374 459.05,-174.877 469.355,-177.337 468.641,-170.374"/>
</g>
<!-- Node16 -->
<g id="node34" class="node"><title>Node16</title>
<a xlink:href="../../d2/d11/cipclass3connection_8h.html" target="_top" xlink:title="CIP Class 3 connection.">
<polygon fill="none" stroke="black" points="530.254,-116.5 530.254,-137.5 676.254,-137.5 676.254,-116.5 530.254,-116.5"/>
<text text-anchor="middle" x="603.254" y="-124.5" font-family="Helvetica,sans-Serif" font-size="10.00">src/cip/cipclass3connection.h</text>
</a>
</g>
<!-- Node2&#45;&gt;Node16 -->
<g id="edge36" class="edge"><title>Node2&#45;&gt;Node16</title>
<path fill="none" stroke="midnightblue" d="M431.225,-171.945C471.011,-161.55 525.977,-147.19 562.976,-137.523"/>
<polygon fill="midnightblue" stroke="midnightblue" points="430.247,-168.582 421.457,-174.497 432.017,-175.355 430.247,-168.582"/>
</g>
<!-- Node18 -->
<g id="node41" class="node"><title>Node18</title>
<a xlink:href="../../de/d45/cipioconnection_8h.html" target="_top" xlink:title="src/cip/cipioconnection.h">
<polygon fill="none" stroke="black" points="35.7543,-58.5 35.7543,-79.5 160.754,-79.5 160.754,-58.5 35.7543,-58.5"/>
<text text-anchor="middle" x="98.2543" y="-66.5" font-family="Helvetica,sans-Serif" font-size="10.00">src/cip/cipioconnection.h</text>
</a>
</g>
<!-- Node2&#45;&gt;Node18 -->
<g id="edge46" class="edge"><title>Node2&#45;&gt;Node18</title>
<path fill="none" stroke="midnightblue" d="M345.669,-170.414C287.784,-146.687 174.608,-100.297 123.899,-79.5117"/>
<polygon fill="midnightblue" stroke="midnightblue" points="344.557,-173.741 355.138,-174.295 347.212,-167.264 344.557,-173.741"/>
</g>
<!-- Node19 -->
<g id="node46" class="node"><title>Node19</title>
<a xlink:href="../../d3/d98/cpf_8c.html" target="_top" xlink:title="src/enet_encap/cpf.c">
<polygon fill="none" stroke="black" points="808.254,-116.5 808.254,-137.5 916.254,-137.5 916.254,-116.5 808.254,-116.5"/>
<text text-anchor="middle" x="862.254" y="-124.5" font-family="Helvetica,sans-Serif" font-size="10.00">src/enet_encap/cpf.c</text>
</a>
</g>
<!-- Node2&#45;&gt;Node19 -->
<g id="edge54" class="edge"><title>Node2&#45;&gt;Node19</title>
<path fill="none" stroke="midnightblue" d="M469.224,-173.784C614.155,-156.757 652.628,-157.238 794.254,-138 798.757,-137.388 803.422,-136.716 808.101,-136.014"/>
<polygon fill="midnightblue" stroke="midnightblue" points="468.582,-170.335 459.062,-174.986 469.404,-177.287 468.582,-170.335"/>
</g>
<!-- Node3&#45;&gt;Node4 -->
<g id="edge6" class="edge"><title>Node3&#45;&gt;Node4</title>
<path fill="none" stroke="midnightblue" d="M523.084,-115.853C720.22,-90.8684 772.572,-98.5607 967.254,-80 982.294,-78.5661 998.587,-76.8454 1013.57,-75.1953"/>
<polygon fill="midnightblue" stroke="midnightblue" points="522.45,-112.406 512.975,-117.147 523.338,-119.349 522.45,-112.406"/>
</g>
<!-- Node3&#45;&gt;Node5 -->
<g id="edge8" class="edge"><title>Node3&#45;&gt;Node5</title>
<path fill="none" stroke="midnightblue" d="M415.182,-113.546C381.242,-103.186 334.99,-89.0668 303.726,-79.5231"/>
<polygon fill="midnightblue" stroke="midnightblue" points="414.261,-116.924 424.847,-116.497 416.304,-110.229 414.261,-116.924"/>
</g>
<!-- Node3&#45;&gt;Node6 -->
<g id="edge10" class="edge"><title>Node3&#45;&gt;Node6</title>
<path fill="none" stroke="midnightblue" d="M460.154,-106.123C461.224,-81.2984 462.969,-40.8235 463.794,-21.6792"/>
<polygon fill="midnightblue" stroke="midnightblue" points="456.65,-106.153 459.716,-116.295 463.643,-106.455 456.65,-106.153"/>
</g>
<!-- Node3&#45;&gt;Node7 -->
<g id="edge12" class="edge"><title>Node3&#45;&gt;Node7</title>
<path fill="none" stroke="midnightblue" d="M436.986,-110.006C405.185,-85.7364 347.689,-41.8584 321.248,-21.6792"/>
<polygon fill="midnightblue" stroke="midnightblue" points="435.154,-113.01 445.227,-116.295 439.401,-107.446 435.154,-113.01"/>
</g>
<!-- Node3&#45;&gt;Node8 -->
<g id="edge14" class="edge"><title>Node3&#45;&gt;Node8</title>
<path fill="none" stroke="midnightblue" d="M523.022,-115.897C791.806,-84.6639 862.546,-99.0908 1129.25,-80 1144.28,-78.9245 1160.26,-77.6725 1175.72,-76.4063"/>
<polygon fill="midnightblue" stroke="midnightblue" points="522.49,-112.435 512.966,-117.076 523.306,-119.388 522.49,-112.435"/>
</g>
<!-- Node14 -->
<g id="node29" class="node"><title>Node14</title>
<a xlink:href="../../d2/daa/POSIX_2sample__application_2sampleapplication_8c.html" target="_top" xlink:title="src/ports/POSIX/sample_application/sampleapplication.c">
<polygon fill="none" stroke="black" points="694.254,-58.5 694.254,-79.5 958.254,-79.5 958.254,-58.5 694.254,-58.5"/>
<text text-anchor="middle" x="826.254" y="-66.5" font-family="Helvetica,sans-Serif" font-size="10.00">src/ports/POSIX/sample_application/sampleapplication.c</text>
</a>
</g>
<!-- Node3&#45;&gt;Node14 -->
<g id="edge30" class="edge"><title>Node3&#45;&gt;Node14</title>
<path fill="none" stroke="midnightblue" d="M523.101,-115.717C608.158,-101.691 695.499,-88.399 755.002,-79.5125"/>
<polygon fill="midnightblue" stroke="midnightblue" points="522.305,-112.301 513.01,-117.386 523.447,-119.207 522.305,-112.301"/>
</g>
<!-- Node8&#45;&gt;Node6 -->
<g id="edge16" class="edge"><title>Node8&#45;&gt;Node6</title>
<path fill="none" stroke="midnightblue" d="M1165.53,-58.2984C1164.44,-58.1971 1163.34,-58.0976 1162.25,-58 937.252,-37.8072 670.737,-22.1461 541.809,-15.0912"/>
<polygon fill="midnightblue" stroke="midnightblue" points="1165.27,-61.7886 1175.55,-59.2548 1165.93,-54.8203 1165.27,-61.7886"/>
</g>
<!-- Node8&#45;&gt;Node7 -->
<g id="edge18" class="edge"><title>Node8&#45;&gt;Node7</title>
<path fill="none" stroke="midnightblue" d="M1165.52,-60.6402C1153.32,-59.6828 1141,-58.7742 1129.25,-58 795.817,-36.016 710.719,-55.6276 378.254,-22 375.524,-21.7238 372.739,-21.4139 369.928,-21.0781"/>
<polygon fill="midnightblue" stroke="midnightblue" points="1165.48,-64.1477 1175.72,-61.4541 1166.03,-57.1698 1165.48,-64.1477"/>
</g>
<!-- Node8&#45;&gt;Node9 -->
<g id="edge20" class="edge"><title>Node8&#45;&gt;Node9</title>
<path fill="none" stroke="midnightblue" d="M1271.59,-49.6667C1277.08,-40.2948 1283.47,-29.4019 1288.06,-21.5707"/>
<polygon fill="midnightblue" stroke="midnightblue" points="1268.53,-47.9649 1266.49,-58.3619 1274.57,-51.5049 1268.53,-47.9649"/>
</g>
<!-- Node10 -->
<g id="node21" class="node"><title>Node10</title>
<a xlink:href="../../db/d4f/generic__networkhandler_8c.html" target="_top" xlink:title="This file includes all platform&#45;independent functions of the network handler to reduce code duplicati...">
<polygon fill="none" stroke="black" points="1371.75,-0.5 1371.75,-21.5 1540.75,-21.5 1540.75,-0.5 1371.75,-0.5"/>
<text text-anchor="middle" x="1456.25" y="-8.5" font-family="Helvetica,sans-Serif" font-size="10.00">src/ports/generic_networkhandler.c</text>
</a>
</g>
<!-- Node8&#45;&gt;Node10 -->
<g id="edge22" class="edge"><title>Node8&#45;&gt;Node10</title>
<path fill="none" stroke="midnightblue" d="M1305.72,-55.5464C1340.73,-45.1857 1388.44,-31.0668 1420.69,-21.5231"/>
<polygon fill="midnightblue" stroke="midnightblue" points="1304.34,-52.3029 1295.75,-58.4966 1306.33,-59.0152 1304.34,-52.3029"/>
</g>
<!-- Node11 -->
<g id="node23" class="node"><title>Node11</title>
<a xlink:href="../../d9/dfb/POSIX_2main_8c.html" target="_top" xlink:title="src/ports/POSIX/main.c">
<polygon fill="none" stroke="black" points="1557.75,-0.5 1557.75,-21.5 1678.75,-21.5 1678.75,-0.5 1557.75,-0.5"/>
<text text-anchor="middle" x="1618.25" y="-8.5" font-family="Helvetica,sans-Serif" font-size="10.00">src/ports/POSIX/main.c</text>
</a>
</g>
<!-- Node8&#45;&gt;Node11 -->
<g id="edge24" class="edge"><title>Node8&#45;&gt;Node11</title>
<path fill="none" stroke="midnightblue" d="M1335.01,-56.8882C1401.02,-46.1941 1496.06,-30.7972 1557.49,-20.8451"/>
<polygon fill="midnightblue" stroke="midnightblue" points="1334.4,-53.4423 1325.09,-58.4966 1335.52,-60.3522 1334.4,-53.4423"/>
</g>
<!-- Node12 -->
<g id="node25" class="node"><title>Node12</title>
<a xlink:href="../../dc/db2/WIN32_2main_8c.html" target="_top" xlink:title="src/ports/WIN32/main.c">
<polygon fill="none" stroke="black" points="1695.75,-0.5 1695.75,-21.5 1816.75,-21.5 1816.75,-0.5 1695.75,-0.5"/>
<text text-anchor="middle" x="1756.25" y="-8.5" font-family="Helvetica,sans-Serif" font-size="10.00">src/ports/WIN32/main.c</text>
</a>
</g>
<!-- Node8&#45;&gt;Node12 -->
<g id="edge26" class="edge"><title>Node8&#45;&gt;Node12</title>
<path fill="none" stroke="midnightblue" d="M1355.14,-59.8865C1441.78,-51.2494 1573.32,-37.3429 1687.25,-22 1690.02,-21.6276 1692.84,-21.2334 1695.7,-20.8242"/>
<polygon fill="midnightblue" stroke="midnightblue" points="1354.67,-56.416 1345.06,-60.8875 1355.36,-63.3817 1354.67,-56.416"/>
</g>
<!-- Node13 -->
<g id="node27" class="node"><title>Node13</title>
<a xlink:href="../../d8/d6c/WIN32_2networkhandler_8c.html" target="_top" xlink:title="src/ports/WIN32/networkhandler.c">
<polygon fill="none" stroke="black" points="1050.25,-0.5 1050.25,-21.5 1216.25,-21.5 1216.25,-0.5 1050.25,-0.5"/>
<text text-anchor="middle" x="1133.25" y="-8.5" font-family="Helvetica,sans-Serif" font-size="10.00">src/ports/WIN32/networkhandler.c</text>
</a>
</g>
<!-- Node8&#45;&gt;Node13 -->
<g id="edge28" class="edge"><title>Node8&#45;&gt;Node13</title>
<path fill="none" stroke="midnightblue" d="M1227.86,-54.2064C1205.58,-44.031 1176.51,-30.7567 1156.51,-21.6212"/>
<polygon fill="midnightblue" stroke="midnightblue" points="1226.71,-57.5261 1237.26,-58.4966 1229.61,-51.1587 1226.71,-57.5261"/>
</g>
<!-- Node16&#45;&gt;Node6 -->
<g id="edge40" class="edge"><title>Node16&#45;&gt;Node6</title>
<path fill="none" stroke="midnightblue" d="M570.979,-111.95C555.122,-103.726 536.251,-92.6423 521.254,-80 500.345,-62.3743 481.245,-36.3706 471.349,-21.8396"/>
<polygon fill="midnightblue" stroke="midnightblue" points="569.409,-115.078 579.915,-116.452 572.559,-108.827 569.409,-115.078"/>
</g>
<!-- Node17 -->
<g id="node36" class="node"><title>Node17</title>
<a xlink:href="../../dc/d93/cipclass3connection_8c.html" target="_top" xlink:title="src/cip/cipclass3connection.c">
<polygon fill="none" stroke="black" points="530.254,-58.5 530.254,-79.5 676.254,-79.5 676.254,-58.5 530.254,-58.5"/>
<text text-anchor="middle" x="603.254" y="-66.5" font-family="Helvetica,sans-Serif" font-size="10.00">src/cip/cipclass3connection.c</text>
</a>
</g>
<!-- Node16&#45;&gt;Node17 -->
<g id="edge38" class="edge"><title>Node16&#45;&gt;Node17</title>
<path fill="none" stroke="midnightblue" d="M603.254,-106.191C603.254,-97.1684 603.254,-86.9941 603.254,-79.5707"/>
<polygon fill="midnightblue" stroke="midnightblue" points="599.754,-106.362 603.254,-116.362 606.754,-106.362 599.754,-106.362"/>
</g>
<!-- Node18&#45;&gt;Node6 -->
<g id="edge48" class="edge"><title>Node18&#45;&gt;Node6</title>
<path fill="none" stroke="midnightblue" d="M170.692,-57.5208C236.849,-47.0369 333.844,-31.6661 397.99,-21.5009"/>
<polygon fill="midnightblue" stroke="midnightblue" points="170.085,-54.0732 160.756,-59.0953 171.181,-60.987 170.085,-54.0732"/>
</g>
<!-- Node18&#45;&gt;Node7 -->
<g id="edge50" class="edge"><title>Node18&#45;&gt;Node7</title>
<path fill="none" stroke="midnightblue" d="M145.775,-55.8123C183.193,-45.4285 234.649,-31.1487 269.335,-21.5231"/>
<polygon fill="midnightblue" stroke="midnightblue" points="144.802,-52.45 136.103,-58.4966 146.674,-59.195 144.802,-52.45"/>
</g>
<!-- Node22&#45;&gt;Node2 -->
<g id="edge70" class="edge"><title>Node22&#45;&gt;Node2</title>
<path fill="none" stroke="midnightblue" d="M889.383,-238.115C800.597,-230.093 619.964,-213.286 467.254,-196 464.562,-195.695 461.823,-195.379 459.058,-195.054"/>
<polygon fill="midnightblue" stroke="midnightblue" points="889.216,-241.614 899.49,-239.026 889.844,-234.642 889.216,-241.614"/>
</g>
<!-- Node22&#45;&gt;Node4 -->
<g id="edge72" class="edge"><title>Node22&#45;&gt;Node4</title>
<path fill="none" stroke="midnightblue" d="M982.678,-228.536C1018.88,-212.556 1070.83,-182.974 1093.25,-138 1103.2,-118.067 1087.61,-93.354 1076.61,-79.5675"/>
<polygon fill="midnightblue" stroke="midnightblue" points="981.21,-225.357 973.381,-232.495 983.953,-231.797 981.21,-225.357"/>
</g>
<!-- Node22&#45;&gt;Node5 -->
<g id="edge78" class="edge"><title>Node22&#45;&gt;Node5</title>
<path fill="none" stroke="midnightblue" d="M889.374,-242.327C741.489,-240.056 342.626,-230.742 295.254,-196 258.413,-168.981 263.651,-104.955 267.399,-79.6022"/>
<polygon fill="midnightblue" stroke="midnightblue" points="889.529,-245.829 899.58,-242.478 889.633,-238.83 889.529,-245.829"/>
</g>
<!-- Node22&#45;&gt;Node6 -->
<g id="edge80" class="edge"><title>Node22&#45;&gt;Node6</title>
<path fill="none" stroke="midnightblue" d="M889.275,-242.127C738.075,-239.312 323.803,-228.674 272.254,-196 214.992,-159.704 163.841,-110.073 207.254,-58 213.308,-50.7383 320.515,-32.9956 394.531,-21.5068"/>
<polygon fill="midnightblue" stroke="midnightblue" points="889.636,-245.634 899.698,-242.316 889.763,-238.635 889.636,-245.634"/>
</g>
<!-- Node22&#45;&gt;Node8 -->
<g id="edge96" class="edge"><title>Node22&#45;&gt;Node8</title>
<path fill="none" stroke="midnightblue" d="M989.526,-229.302C1013.64,-221.16 1043.37,-209.74 1068.25,-196 1119.93,-167.475 1124.67,-148.016 1174.25,-116 1195.55,-102.248 1221.19,-88.5825 1238.9,-79.5614"/>
<polygon fill="midnightblue" stroke="midnightblue" points="988.306,-226.019 979.908,-232.478 990.501,-232.666 988.306,-226.019"/>
</g>
<!-- Node22&#45;&gt;Node9 -->
<g id="edge94" class="edge"><title>Node22&#45;&gt;Node9</title>
<path fill="none" stroke="midnightblue" d="M993.99,-229.772C1031.62,-219.402 1079.85,-205.228 1098.25,-196 1125.11,-182.535 1180.04,-128.728 1207.25,-116 1267.79,-87.6878 1312.04,-132.611 1353.25,-80 1369.97,-58.659 1337.59,-34.8473 1314.54,-21.5185"/>
<polygon fill="midnightblue" stroke="midnightblue" points="992.908,-226.44 984.186,-232.455 994.755,-233.191 992.908,-226.44"/>
</g>
<!-- Node22&#45;&gt;Node11 -->
<g id="edge98" class="edge"><title>Node22&#45;&gt;Node11</title>
<path fill="none" stroke="midnightblue" d="M998.951,-241.012C1090.4,-236.971 1279.8,-225.528 1437.25,-196 1530.32,-178.547 1580.71,-209.956 1642.25,-138 1665.45,-110.877 1659.51,-92.1853 1649.25,-58 1645.1,-44.1438 1635.38,-30.6001 1627.93,-21.6387"/>
<polygon fill="midnightblue" stroke="midnightblue" points="998.663,-237.521 988.822,-241.447 998.963,-244.515 998.663,-237.521"/>
</g>
<!-- Node22&#45;&gt;Node12 -->
<g id="edge102" class="edge"><title>Node22&#45;&gt;Node12</title>
<path fill="none" stroke="midnightblue" d="M998.973,-240.82C1124.71,-235.454 1431.1,-220.254 1531.25,-196 1631.13,-171.814 1675.02,-166.004 1731.25,-80 1743.53,-61.2317 1750.74,-35.6565 1754.05,-21.5049"/>
<polygon fill="midnightblue" stroke="midnightblue" points="998.649,-237.33 988.805,-241.249 998.944,-244.324 998.649,-237.33"/>
</g>
<!-- Node22&#45;&gt;Node14 -->
<g id="edge100" class="edge"><title>Node22&#45;&gt;Node14</title>
<path fill="none" stroke="midnightblue" d="M947.105,-222.365C949.698,-194.941 949.963,-146.418 925.254,-116 910.739,-98.131 887.828,-86.6538 867.701,-79.5182"/>
<polygon fill="midnightblue" stroke="midnightblue" points="943.617,-222.063 945.96,-232.396 950.572,-222.857 943.617,-222.063"/>
</g>
<!-- Node22&#45;&gt;Node15 -->
<g id="edge74" class="edge"><title>Node22&#45;&gt;Node15</title>
<path fill="none" stroke="midnightblue" d="M966.891,-225.982C976.801,-217.721 988.02,-207.174 996.254,-196 1010.04,-177.291 1020,-151.693 1024.87,-137.522"/>
<polygon fill="midnightblue" stroke="midnightblue" points="964.572,-223.355 958.968,-232.347 968.956,-228.812 964.572,-223.355"/>
</g>
<!-- Node22&#45;&gt;Node16 -->
<g id="edge76" class="edge"><title>Node22&#45;&gt;Node16</title>
<path fill="none" stroke="midnightblue" d="M933.398,-223.251C923.529,-207.284 907.44,-185.616 887.254,-174 852.277,-153.872 748.404,-140.434 676.482,-133.257"/>
<polygon fill="midnightblue" stroke="midnightblue" points="930.639,-225.464 938.72,-232.315 936.675,-221.92 930.639,-225.464"/>
</g>
<!-- Node22&#45;&gt;Node18 -->
<g id="edge82" class="edge"><title>Node22&#45;&gt;Node18</title>
<path fill="none" stroke="midnightblue" d="M889.705,-241.796C730.94,-237.971 276.534,-224.621 216.254,-196 161.063,-169.795 119.203,-105.292 104.236,-79.7068"/>
<polygon fill="midnightblue" stroke="midnightblue" points="889.647,-245.296 899.727,-242.035 889.813,-238.298 889.647,-245.296"/>
</g>
<!-- Node22&#45;&gt;Node19 -->
<g id="edge92" class="edge"><title>Node22&#45;&gt;Node19</title>
<path fill="none" stroke="midnightblue" d="M940.242,-222.365C936.702,-207.874 930.477,-188.557 920.254,-174 909.603,-158.833 892.753,-145.945 879.954,-137.523"/>
<polygon fill="midnightblue" stroke="midnightblue" points="936.872,-223.338 942.446,-232.348 943.707,-221.829 936.872,-223.338"/>
</g>
<!-- Node22&#45;&gt;Node20 -->
<g id="edge86" class="edge"><title>Node22&#45;&gt;Node20</title>
<path fill="none" stroke="midnightblue" d="M889.48,-241.687C763.531,-238.22 443.751,-226.868 178.254,-196 173.887,-195.492 169.365,-194.884 164.836,-194.217"/>
<polygon fill="midnightblue" stroke="midnightblue" points="889.546,-245.19 899.637,-241.961 889.735,-238.192 889.546,-245.19"/>
</g>
<!-- Node22&#45;&gt;Node21 -->
<g id="edge90" class="edge"><title>Node22&#45;&gt;Node21</title>
<path fill="none" stroke="midnightblue" d="M999.098,-241.958C1172.14,-238.382 1699.36,-225.188 1770.25,-196 1800.85,-183.404 1827.56,-153.557 1840.31,-137.56"/>
<polygon fill="midnightblue" stroke="midnightblue" points="998.87,-238.462 988.943,-242.165 999.013,-245.46 998.87,-238.462"/>
</g>
<!-- Node23 -->
<g id="node65" class="node"><title>Node23</title>
<a xlink:href="../../d7/d65/cipethernetlink_8c.html" target="_top" xlink:title="src/cip/cipethernetlink.c">
<polygon fill="none" stroke="black" points="476.254,-174.5 476.254,-195.5 596.254,-195.5 596.254,-174.5 476.254,-174.5"/>
<text text-anchor="middle" x="536.254" y="-182.5" font-family="Helvetica,sans-Serif" font-size="10.00">src/cip/cipethernetlink.c</text>
</a>
</g>
<!-- Node22&#45;&gt;Node23 -->
<g id="edge84" class="edge"><title>Node22&#45;&gt;Node23</title>
<path fill="none" stroke="midnightblue" d="M889.599,-235.77C822.554,-226.821 705.453,-210.931 605.254,-196 602.375,-195.571 599.429,-195.126 596.454,-194.671"/>
<polygon fill="midnightblue" stroke="midnightblue" points="889.144,-239.241 899.519,-237.092 890.069,-232.302 889.144,-239.241"/>
</g>
<!-- Node24 -->
<g id="node68" class="node"><title>Node24</title>
<a xlink:href="../../d9/d7d/cipmessagerouter_8c.html" target="_top" xlink:title="src/cip/cipmessagerouter.c">
<polygon fill="none" stroke="black" points="1216.25,-116.5 1216.25,-137.5 1350.25,-137.5 1350.25,-116.5 1216.25,-116.5"/>
<text text-anchor="middle" x="1283.25" y="-124.5" font-family="Helvetica,sans-Serif" font-size="10.00">src/cip/cipmessagerouter.c</text>
</a>
</g>
<!-- Node22&#45;&gt;Node24 -->
<g id="edge88" class="edge"><title>Node22&#45;&gt;Node24</title>
<path fill="none" stroke="midnightblue" d="M998.954,-236.428C1063.67,-228.066 1167.06,-212.691 1202.25,-196 1232.46,-181.671 1260.45,-153.112 1274.25,-137.607"/>
<polygon fill="midnightblue" stroke="midnightblue" points="998.392,-232.971 988.916,-237.709 999.279,-239.915 998.392,-232.971"/>
</g>
<!-- Node25 -->
<g id="node77" class="node"><title>Node25</title>
<a xlink:href="../../d5/dc8/WIN32_2sample__application_2sampleapplication_8c.html" target="_top" xlink:title="src/ports/WIN32/sample_application/sampleapplication.c">
<polygon fill="none" stroke="black" points="614.254,-174.5 614.254,-195.5 878.254,-195.5 878.254,-174.5 614.254,-174.5"/>
<text text-anchor="middle" x="746.254" y="-182.5" font-family="Helvetica,sans-Serif" font-size="10.00">src/ports/WIN32/sample_application/sampleapplication.c</text>
</a>
</g>
<!-- Node22&#45;&gt;Node25 -->
<g id="edge104" class="edge"><title>Node22&#45;&gt;Node25</title>
<path fill="none" stroke="midnightblue" d="M898.781,-229.68C863.371,-219.307 814.898,-205.108 782.178,-195.523"/>
<polygon fill="midnightblue" stroke="midnightblue" points="897.817,-233.044 908.398,-232.497 899.785,-226.327 897.817,-233.044"/>
</g>
<!-- Node26&#45;&gt;Node4 -->
<g id="edge108" class="edge"><title>Node26&#45;&gt;Node4</title>
<path fill="none" stroke="midnightblue" d="M1391.4,-164.436C1385.79,-148.618 1375.7,-127.571 1359.25,-116 1276.42,-57.7337 1234.22,-96.2036 1134.25,-80 1129.95,-79.3022 1125.49,-78.5763 1121.01,-77.845"/>
<polygon fill="midnightblue" stroke="midnightblue" points="1388.2,-165.919 1394.59,-174.37 1394.87,-163.779 1388.2,-165.919"/>
</g>
<!-- Node26&#45;&gt;Node5 -->
<g id="edge112" class="edge"><title>Node26&#45;&gt;Node5</title>
<path fill="none" stroke="midnightblue" d="M1355.47,-183.77C1168.01,-178.169 411.729,-154.624 364.254,-138 329.047,-125.672 295.63,-95.7099 279.435,-79.6248"/>
<polygon fill="midnightblue" stroke="midnightblue" points="1355.63,-187.277 1365.73,-184.076 1355.84,-180.28 1355.63,-187.277"/>
</g>
<!-- Node26&#45;&gt;Node6 -->
<g id="edge114" class="edge"><title>Node26&#45;&gt;Node6</title>
<path fill="none" stroke="midnightblue" d="M1398.5,-164.199C1398.22,-148.726 1395.11,-128.25 1382.25,-116 1312.12,-49.1607 1258.42,-112.798 1167.25,-80 1148.89,-73.3936 1147.91,-63.7238 1129.25,-58 1021.58,-24.9659 693.264,-14.995 542.029,-12.1129"/>
<polygon fill="midnightblue" stroke="midnightblue" points="1394.99,-164.325 1398.3,-174.392 1401.99,-164.462 1394.99,-164.325"/>
</g>
<!-- Node26&#45;&gt;Node7 -->
<g id="edge118" class="edge"><title>Node26&#45;&gt;Node7</title>
<path fill="none" stroke="midnightblue" d="M1355.45,-184.056C1171.32,-179.767 439.882,-161.322 397.254,-138 372.717,-124.575 329.017,-49.8253 313.187,-21.7018"/>
<polygon fill="midnightblue" stroke="midnightblue" points="1355.46,-187.557 1365.54,-184.289 1355.63,-180.559 1355.46,-187.557"/>
</g>
<!-- Node26&#45;&gt;Node9 -->
<g id="edge126" class="edge"><title>Node26&#45;&gt;Node9</title>
<path fill="none" stroke="midnightblue" d="M1414.91,-166.418C1425.64,-152.816 1436.21,-133.718 1430.25,-116 1419.94,-85.3326 1411.06,-78.7713 1386.25,-58 1367.28,-42.1106 1342.02,-29.6943 1322.78,-21.6239"/>
<polygon fill="midnightblue" stroke="midnightblue" points="1412.18,-164.231 1408.36,-174.115 1417.51,-168.768 1412.18,-164.231"/>
</g>
<!-- Node26&#45;&gt;Node10 -->
<g id="edge128" class="edge"><title>Node26&#45;&gt;Node10</title>
<path fill="none" stroke="midnightblue" d="M1434.32,-169.638C1447.49,-162.16 1460.86,-151.754 1468.25,-138 1489.01,-99.3717 1470.48,-44.5244 1461.02,-21.6546"/>
<polygon fill="midnightblue" stroke="midnightblue" points="1432.55,-166.614 1425.31,-174.353 1435.79,-172.816 1432.55,-166.614"/>
</g>
<!-- Node26&#45;&gt;Node11 -->
<g id="edge130" class="edge"><title>Node26&#45;&gt;Node11</title>
<path fill="none" stroke="midnightblue" d="M1438.99,-182.444C1497.8,-177.873 1600.47,-166.008 1623.25,-138 1651.1,-103.765 1632.39,-45.5074 1622.87,-21.658"/>
<polygon fill="midnightblue" stroke="midnightblue" points="1438.61,-178.963 1428.89,-183.191 1439.13,-185.944 1438.61,-178.963"/>
</g>
<!-- Node26&#45;&gt;Node12 -->
<g id="edge132" class="edge"><title>Node26&#45;&gt;Node12</title>
<path fill="none" stroke="midnightblue" d="M1439.2,-180.231C1499.75,-172.8 1608.13,-157.288 1642.25,-138 1694.36,-108.553 1735.21,-46.5042 1750.13,-21.6378"/>
<polygon fill="midnightblue" stroke="midnightblue" points="1438.71,-176.765 1429.2,-181.438 1439.55,-183.715 1438.71,-176.765"/>
</g>
<!-- Node26&#45;&gt;Node15 -->
<g id="edge110" class="edge"><title>Node26&#45;&gt;Node15</title>
<path fill="none" stroke="midnightblue" d="M1355.36,-178.415C1288.84,-167.959 1158.97,-147.546 1084.44,-135.831"/>
<polygon fill="midnightblue" stroke="midnightblue" points="1355.05,-181.909 1365.47,-180.005 1356.14,-174.994 1355.05,-181.909"/>
</g>
<!-- Node26&#45;&gt;Node19 -->
<g id="edge124" class="edge"><title>Node26&#45;&gt;Node19</title>
<path fill="none" stroke="midnightblue" d="M1355.38,-180.473C1277.95,-172.102 1107.17,-153.63 963.254,-138 948.086,-136.353 931.637,-134.563 916.505,-132.915"/>
<polygon fill="midnightblue" stroke="midnightblue" points="1355.35,-183.991 1365.67,-181.586 1356.1,-177.032 1355.35,-183.991"/>
</g>
<!-- Node26&#45;&gt;Node21 -->
<g id="edge122" class="edge"><title>Node26&#45;&gt;Node21</title>
<path fill="none" stroke="midnightblue" d="M1439.05,-179.625C1518.17,-169.45 1690.29,-147.315 1784.12,-135.248"/>
<polygon fill="midnightblue" stroke="midnightblue" points="1438.44,-176.175 1428.97,-180.922 1439.33,-183.117 1438.44,-176.175"/>
</g>
<!-- Node26&#45;&gt;Node24 -->
<g id="edge120" class="edge"><title>Node26&#45;&gt;Node24</title>
<path fill="none" stroke="midnightblue" d="M1367.64,-169.932C1347.71,-159.793 1321.93,-146.675 1304.13,-137.621"/>
<polygon fill="midnightblue" stroke="midnightblue" points="1366.11,-173.081 1376.61,-174.497 1369.28,-166.843 1366.11,-173.081"/>
</g>
<!-- Node27 -->
<g id="node85" class="node"><title>Node27</title>
<a xlink:href="../../de/ddc/cipepath_8c.html" target="_top" xlink:title="src/cip/cipepath.c">
<polygon fill="none" stroke="black" points="1520.25,-116.5 1520.25,-137.5 1614.25,-137.5 1614.25,-116.5 1520.25,-116.5"/>
<text text-anchor="middle" x="1567.25" y="-124.5" font-family="Helvetica,sans-Serif" font-size="10.00">src/cip/cipepath.c</text>
</a>
</g>
<!-- Node26&#45;&gt;Node27 -->
<g id="edge116" class="edge"><title>Node26&#45;&gt;Node27</title>
<path fill="none" stroke="midnightblue" d="M1437.87,-171.144C1468.12,-160.823 1508.8,-146.944 1536.41,-137.523"/>
<polygon fill="midnightblue" stroke="midnightblue" points="1436.37,-167.955 1428.04,-174.497 1438.63,-174.58 1436.37,-167.955"/>
</g>
</g>
</svg>
        <g id="navigator" transform="translate(0 0)" fill="#404254">
                <rect fill="#f2f5e9" fill-opacity="0.5" stroke="#606060" stroke-width=".5" x="0" y="0" width="60" height="60"/>
                <use id="zoomplus" xlink:href="#zoomPlus" x="17" y="9" onmousedown="handleZoom(evt,'in')"/>
                <use id="zoomminus" xlink:href="#zoomMin" x="42" y="9" onmousedown="handleZoom(evt,'out')"/>
                <use id="reset" xlink:href="#resetDef" x="30" y="36" onmousedown="handleReset()"/>
                <g id="arrowUp" xlink:href="#dirArrow" transform="translate(30 24)" onmousedown="handlePan(0,-1)">
                  <use xlink:href="#rim" fill="#404040">
                        <set attributeName="fill" to="#808080" begin="arrowUp.mouseover" end="arrowUp.mouseout"/>
                  </use>
                  <path fill="none" stroke="white" stroke-width="1.5" d="M0,-3.0v7 M-2.5,-0.5L0,-3.0L2.5,-0.5"/>
                </g>
                <g id="arrowRight" xlink:href="#dirArrow" transform="rotate(90) translate(36 -43)" onmousedown="handlePan(1,0)">
                  <use xlink:href="#rim" fill="#404040">
                        <set attributeName="fill" to="#808080" begin="arrowRight.mouseover" end="arrowRight.mouseout"/>
                  </use>
                  <path fill="none" stroke="white" stroke-width="1.5" d="M0,-3.0v7 M-2.5,-0.5L0,-3.0L2.5,-0.5"/>
                </g>
                <g id="arrowDown" xlink:href="#dirArrow" transform="rotate(180) translate(-30 -48)" onmousedown="handlePan(0,1)">
                  <use xlink:href="#rim" fill="#404040">
                        <set attributeName="fill" to="#808080" begin="arrowDown.mouseover" end="arrowDown.mouseout"/>
                  </use>
                  <path fill="none" stroke="white" stroke-width="1.5" d="M0,-3.0v7 M-2.5,-0.5L0,-3.0L2.5,-0.5"/>
                </g>
                <g id="arrowLeft" xlink:href="#dirArrow" transform="rotate(270) translate(-36 17)" onmousedown="handlePan(-1,0)">
                  <use xlink:href="#rim" fill="#404040">
                        <set attributeName="fill" to="#808080" begin="arrowLeft.mouseover" end="arrowLeft.mouseout"/>
                  </use>
                  <path fill="none" stroke="white" stroke-width="1.5" d="M0,-3.0v7 M-2.5,-0.5L0,-3.0L2.5,-0.5"/>
                </g>
        </g>
</svg>
