<?xml version="1.0" encoding="UTF-8" standalone="no"?>
<!DOCTYPE svg PUBLIC "-//W3C//DTD SVG 1.1//EN"
 "http://www.w3.org/Graphics/SVG/1.1/DTD/svg11.dtd">
<!-- Generated by graphviz version 2.36.0 (20140111.2315)
 -->
<!-- Title: src/cip/cipmessagerouter.c Pages: 1 -->
<svg width="579pt" height="252pt"
 viewBox="0.00 0.00 579.00 252.00" xmlns="http://www.w3.org/2000/svg" xmlns:xlink="http://www.w3.org/1999/xlink">
<g id="graph0" class="graph" transform="scale(1 1) rotate(0) translate(4 248)">
<title>src/cip/cipmessagerouter.c</title>
<!-- Node1 -->
<g id="node1" class="node"><title>Node1</title>
<polygon fill="#bfbfbf" stroke="black" points="243,-224.5 243,-243.5 377,-243.5 377,-224.5 243,-224.5"/>
<text text-anchor="middle" x="310" y="-231.5" font-family="Helvetica,sans-Serif" font-size="10.00">src/cip/cipmessagerouter.c</text>
</g>
<!-- Node2 -->
<g id="node2" class="node"><title>Node2</title>
<g id="a_node2"><a xlink:href="../../d4/d38/opener__api_8h.html" target="_top" xlink:title="opener_api.h">
<polygon fill="none" stroke="black" points="157,-168.5 157,-187.5 229,-187.5 229,-168.5 157,-168.5"/>
<text text-anchor="middle" x="193" y="-175.5" font-family="Helvetica,sans-Serif" font-size="10.00">opener_api.h</text>
</a>
</g>
</g>
<!-- Node1&#45;&gt;Node2 -->
<g id="edge1" class="edge"><title>Node1&#45;&gt;Node2</title>
<path fill="none" stroke="midnightblue" d="M291.461,-224.444C272.377,-215.636 242.425,-201.812 220.564,-191.722"/>
<polygon fill="midnightblue" stroke="midnightblue" points="221.999,-188.529 211.452,-187.516 219.065,-194.885 221.999,-188.529"/>
</g>
<!-- Node10 -->
<g id="node10" class="node"><title>Node10</title>
<g id="a_node10"><a xlink:href="../../d6/d52/ciperror_8h.html" target="_top" xlink:title="ciperror.h">
<polygon fill="none" stroke="black" points="-0.5,-112.5 -0.5,-131.5 56.5,-131.5 56.5,-112.5 -0.5,-112.5"/>
<text text-anchor="middle" x="28" y="-119.5" font-family="Helvetica,sans-Serif" font-size="10.00">ciperror.h</text>
</a>
</g>
</g>
<!-- Node1&#45;&gt;Node10 -->
<g id="edge21" class="edge"><title>Node1&#45;&gt;Node10</title>
<path fill="none" stroke="midnightblue" d="M269.556,-224.443C236.269,-216.77 188.195,-204.227 148,-188 112.312,-173.593 73.5991,-151.299 50.0691,-136.927"/>
<polygon fill="midnightblue" stroke="midnightblue" points="51.8908,-133.939 41.5439,-131.66 48.2114,-139.894 51.8908,-133.939"/>
</g>
<!-- Node12 -->
<g id="node12" class="node"><title>Node12</title>
<g id="a_node12"><a xlink:href="../../db/d14/cipcommon_8h.html" target="_top" xlink:title="cipcommon.h">
<polygon fill="none" stroke="black" points="312.5,-168.5 312.5,-187.5 387.5,-187.5 387.5,-168.5 312.5,-168.5"/>
<text text-anchor="middle" x="350" y="-175.5" font-family="Helvetica,sans-Serif" font-size="10.00">cipcommon.h</text>
</a>
</g>
</g>
<!-- Node1&#45;&gt;Node12 -->
<g id="edge13" class="edge"><title>Node1&#45;&gt;Node12</title>
<path fill="none" stroke="midnightblue" d="M316.605,-224.083C322.255,-216.455 330.545,-205.264 337.451,-195.941"/>
<polygon fill="midnightblue" stroke="midnightblue" points="340.378,-197.87 343.518,-187.751 334.753,-193.703 340.378,-197.87"/>
</g>
<!-- Node13 -->
<g id="node13" class="node"><title>Node13</title>
<g id="a_node13"><a xlink:href="../../d2/d75/cipmessagerouter_8h.html" target="_top" xlink:title="cipmessagerouter.h">
<polygon fill="none" stroke="black" points="405,-168.5 405,-187.5 507,-187.5 507,-168.5 405,-168.5"/>
<text text-anchor="middle" x="456" y="-175.5" font-family="Helvetica,sans-Serif" font-size="10.00">cipmessagerouter.h</text>
</a>
</g>
</g>
<!-- Node1&#45;&gt;Node13 -->
<g id="edge16" class="edge"><title>Node1&#45;&gt;Node13</title>
<path fill="none" stroke="midnightblue" d="M333.134,-224.444C357.482,-215.438 396.007,-201.189 423.423,-191.049"/>
<polygon fill="midnightblue" stroke="midnightblue" points="424.809,-194.268 432.974,-187.516 422.381,-187.703 424.809,-194.268"/>
</g>
<!-- Node14 -->
<g id="node14" class="node"><title>Node14</title>
<g id="a_node14"><a xlink:href="../../d0/dec/endianconv_8h.html" target="_top" xlink:title="Responsible for Endianess conversion. ">
<polygon fill="none" stroke="black" points="497,-112.5 497,-131.5 571,-131.5 571,-112.5 497,-112.5"/>
<text text-anchor="middle" x="534" y="-119.5" font-family="Helvetica,sans-Serif" font-size="10.00">endianconv.h</text>
</a>
</g>
</g>
<!-- Node1&#45;&gt;Node14 -->
<g id="edge19" class="edge"><title>Node1&#45;&gt;Node14</title>
<path fill="none" stroke="midnightblue" d="M377.104,-225.698C428.97,-218.733 495.161,-206.529 515,-188 527.611,-176.222 532.007,-156.585 533.462,-141.971"/>
<polygon fill="midnightblue" stroke="midnightblue" points="536.981,-141.77 534.1,-131.574 529.994,-141.341 536.981,-141.77"/>
</g>
<!-- Node15 -->
<g id="node15" class="node"><title>Node15</title>
<g id="a_node15"><a xlink:href="../../d1/d1b/trace_8h.html" target="_top" xlink:title="Tracing infrastructure for OpENer. ">
<polygon fill="none" stroke="black" points="247.5,-168.5 247.5,-187.5 294.5,-187.5 294.5,-168.5 247.5,-168.5"/>
<text text-anchor="middle" x="271" y="-175.5" font-family="Helvetica,sans-Serif" font-size="10.00">trace.h</text>
</a>
</g>
</g>
<!-- Node1&#45;&gt;Node15 -->
<g id="edge22" class="edge"><title>Node1&#45;&gt;Node15</title>
<path fill="none" stroke="midnightblue" d="M303.56,-224.083C298.051,-216.455 289.969,-205.264 283.235,-195.941"/>
<polygon fill="midnightblue" stroke="midnightblue" points="286.013,-193.809 277.32,-187.751 280.338,-197.907 286.013,-193.809"/>
</g>
<!-- Node3 -->
<g id="node3" class="node"><title>Node3</title>
<polygon fill="none" stroke="#bfbfbf" points="75,-112.5 75,-131.5 127,-131.5 127,-112.5 75,-112.5"/>
<text text-anchor="middle" x="101" y="-119.5" font-family="Helvetica,sans-Serif" font-size="10.00">assert.h</text>
</g>
<!-- Node2&#45;&gt;Node3 -->
<g id="edge2" class="edge"><title>Node2&#45;&gt;Node3</title>
<path fill="none" stroke="midnightblue" d="M178.219,-168.324C163.733,-159.822 141.427,-146.729 124.507,-136.797"/>
<polygon fill="midnightblue" stroke="midnightblue" points="126.141,-133.698 115.745,-131.655 122.597,-139.735 126.141,-133.698"/>
</g>
<!-- Node4 -->
<g id="node4" class="node"><title>Node4</title>
<polygon fill="none" stroke="#bfbfbf" points="229,-0.5 229,-19.5 285,-19.5 285,-0.5 229,-0.5"/>
<text text-anchor="middle" x="257" y="-7.5" font-family="Helvetica,sans-Serif" font-size="10.00">stdbool.h</text>
</g>
<!-- Node2&#45;&gt;Node4 -->
<g id="edge3" class="edge"><title>Node2&#45;&gt;Node4</title>
<path fill="none" stroke="midnightblue" d="M192.075,-168.36C191.01,-155.688 190.093,-131.457 196,-112 205.863,-79.5107 228.525,-46.7527 243.279,-27.6937"/>
<polygon fill="midnightblue" stroke="midnightblue" points="246.13,-29.7315 249.611,-19.7247 240.649,-25.3767 246.13,-29.7315"/>
</g>
<!-- Node5 -->
<g id="node5" class="node"><title>Node5</title>
<g id="a_node5"><a xlink:href="../../d7/d69/typedefs_8h.html" target="_top" xlink:title="typedefs.h">
<polygon fill="none" stroke="black" points="400,-56.5 400,-75.5 462,-75.5 462,-56.5 400,-56.5"/>
<text text-anchor="middle" x="431" y="-63.5" font-family="Helvetica,sans-Serif" font-size="10.00">typedefs.h</text>
</a>
</g>
</g>
<!-- Node2&#45;&gt;Node5 -->
<g id="edge4" class="edge"><title>Node2&#45;&gt;Node5</title>
<path fill="none" stroke="midnightblue" d="M192.873,-168.396C193.163,-154.403 195.895,-126.793 212,-112 269.119,-59.5316 307.901,-90.0361 389.504,-75.888"/>
<polygon fill="midnightblue" stroke="midnightblue" points="390.513,-79.2582 399.672,-73.9326 389.191,-72.3841 390.513,-79.2582"/>
</g>
<!-- Node8 -->
<g id="node8" class="node"><title>Node8</title>
<g id="a_node8"><a xlink:href="../../df/d28/ciptypes_8h.html" target="_top" xlink:title="ciptypes.h">
<polygon fill="none" stroke="black" points="341,-112.5 341,-131.5 403,-131.5 403,-112.5 341,-112.5"/>
<text text-anchor="middle" x="372" y="-119.5" font-family="Helvetica,sans-Serif" font-size="10.00">ciptypes.h</text>
</a>
</g>
</g>
<!-- Node2&#45;&gt;Node8 -->
<g id="edge8" class="edge"><title>Node2&#45;&gt;Node8</title>
<path fill="none" stroke="midnightblue" d="M221.363,-168.444C251.738,-159.28 300.11,-144.688 333.816,-134.519"/>
<polygon fill="midnightblue" stroke="midnightblue" points="335.207,-137.756 343.77,-131.516 333.185,-131.054 335.207,-137.756"/>
</g>
<!-- Node2&#45;&gt;Node10 -->
<g id="edge11" class="edge"><title>Node2&#45;&gt;Node10</title>
<path fill="none" stroke="midnightblue" d="M166.855,-168.444C138.977,-159.32 94.6516,-144.813 63.6,-134.651"/>
<polygon fill="midnightblue" stroke="midnightblue" points="64.6151,-131.3 54.0224,-131.516 62.4377,-137.953 64.6151,-131.3"/>
</g>
<!-- Node11 -->
<g id="node11" class="node"><title>Node11</title>
<polygon fill="none" stroke="#bfbfbf" points="221,-112.5 221,-131.5 323,-131.5 323,-112.5 221,-112.5"/>
<text text-anchor="middle" x="272" y="-119.5" font-family="Helvetica,sans-Serif" font-size="10.00">opener_user_conf.h</text>
</g>
<!-- Node2&#45;&gt;Node11 -->
<g id="edge12" class="edge"><title>Node2&#45;&gt;Node11</title>
<path fill="none" stroke="midnightblue" d="M205.693,-168.324C217.901,-159.979 236.578,-147.212 251.003,-137.352"/>
<polygon fill="midnightblue" stroke="midnightblue" points="253.058,-140.187 259.339,-131.655 249.108,-134.408 253.058,-140.187"/>
</g>
<!-- Node5&#45;&gt;Node4 -->
<g id="edge7" class="edge"><title>Node5&#45;&gt;Node4</title>
<path fill="none" stroke="midnightblue" d="M403.429,-56.4435C373.903,-47.2801 326.882,-32.6876 294.117,-22.5192"/>
<polygon fill="midnightblue" stroke="midnightblue" points="295.03,-19.1378 284.442,-19.5164 292.955,-25.8232 295.03,-19.1378"/>
</g>
<!-- Node6 -->
<g id="node6" class="node"><title>Node6</title>
<polygon fill="none" stroke="#bfbfbf" points="438.5,-0.5 438.5,-19.5 497.5,-19.5 497.5,-0.5 438.5,-0.5"/>
<text text-anchor="middle" x="468" y="-7.5" font-family="Helvetica,sans-Serif" font-size="10.00">inttypes.h</text>
</g>
<!-- Node5&#45;&gt;Node6 -->
<g id="edge5" class="edge"><title>Node5&#45;&gt;Node6</title>
<path fill="none" stroke="midnightblue" d="M437.11,-56.083C442.282,-48.5341 449.846,-37.4948 456.194,-28.2298"/>
<polygon fill="midnightblue" stroke="midnightblue" points="459.239,-29.9787 462.004,-19.7511 453.464,-26.0221 459.239,-29.9787"/>
</g>
<!-- Node7 -->
<g id="node7" class="node"><title>Node7</title>
<polygon fill="none" stroke="#bfbfbf" points="368,-0.5 368,-19.5 420,-19.5 420,-0.5 368,-0.5"/>
<text text-anchor="middle" x="394" y="-7.5" font-family="Helvetica,sans-Serif" font-size="10.00">stddef.h</text>
</g>
<!-- Node5&#45;&gt;Node7 -->
<g id="edge6" class="edge"><title>Node5&#45;&gt;Node7</title>
<path fill="none" stroke="midnightblue" d="M424.89,-56.083C419.718,-48.5341 412.154,-37.4948 405.806,-28.2298"/>
<polygon fill="midnightblue" stroke="midnightblue" points="408.536,-26.0221 399.996,-19.7511 402.761,-29.9787 408.536,-26.0221"/>
</g>
<!-- Node8&#45;&gt;Node5 -->
<g id="edge9" class="edge"><title>Node8&#45;&gt;Node5</title>
<path fill="none" stroke="midnightblue" d="M381.479,-112.324C390.201,-104.341 403.343,-92.3128 413.898,-82.6529"/>
<polygon fill="midnightblue" stroke="midnightblue" points="416.334,-85.1674 421.348,-75.8339 411.608,-80.0036 416.334,-85.1674"/>
</g>
<!-- Node9 -->
<g id="node9" class="node"><title>Node9</title>
<polygon fill="none" stroke="#bfbfbf" points="290.5,-56.5 290.5,-75.5 381.5,-75.5 381.5,-56.5 290.5,-56.5"/>
<text text-anchor="middle" x="336" y="-63.5" font-family="Helvetica,sans-Serif" font-size="10.00">networkhandler.h</text>
</g>
<!-- Node8&#45;&gt;Node9 -->
<g id="edge10" class="edge"><title>Node8&#45;&gt;Node9</title>
<path fill="none" stroke="midnightblue" d="M366.055,-112.083C361.023,-104.534 353.663,-93.4948 347.487,-84.2298"/>
<polygon fill="midnightblue" stroke="midnightblue" points="350.293,-82.1301 341.834,-75.7511 344.469,-86.0131 350.293,-82.1301"/>
</g>
<!-- Node12&#45;&gt;Node5 -->
<g id="edge14" class="edge"><title>Node12&#45;&gt;Node5</title>
<path fill="none" stroke="midnightblue" d="M367.117,-168.37C380.854,-160.615 399.657,-147.995 411,-132 420.711,-118.306 425.805,-99.772 428.414,-85.9988"/>
<polygon fill="midnightblue" stroke="midnightblue" points="431.929,-86.1902 430.069,-75.7599 425.018,-85.0735 431.929,-86.1902"/>
</g>
<!-- Node12&#45;&gt;Node8 -->
<g id="edge15" class="edge"><title>Node12&#45;&gt;Node8</title>
<path fill="none" stroke="midnightblue" d="M353.633,-168.083C356.612,-160.77 360.926,-150.181 364.625,-141.103"/>
<polygon fill="midnightblue" stroke="midnightblue" points="367.903,-142.333 368.435,-131.751 361.42,-139.691 367.903,-142.333"/>
</g>
<!-- Node13&#45;&gt;Node5 -->
<g id="edge17" class="edge"><title>Node13&#45;&gt;Node5</title>
<path fill="none" stroke="midnightblue" d="M454.878,-168.093C453.204,-155.499 449.736,-131.814 445,-112 442.857,-103.036 439.89,-93.2487 437.238,-85.0975"/>
<polygon fill="midnightblue" stroke="midnightblue" points="440.528,-83.8998 434.03,-75.5317 433.891,-86.1256 440.528,-83.8998"/>
</g>
<!-- Node13&#45;&gt;Node8 -->
<g id="edge18" class="edge"><title>Node13&#45;&gt;Node8</title>
<path fill="none" stroke="midnightblue" d="M442.504,-168.324C429.4,-159.9 409.288,-146.971 393.893,-137.074"/>
<polygon fill="midnightblue" stroke="midnightblue" points="395.767,-134.118 385.463,-131.655 391.982,-140.006 395.767,-134.118"/>
</g>
<!-- Node14&#45;&gt;Node5 -->
<g id="edge20" class="edge"><title>Node14&#45;&gt;Node5</title>
<path fill="none" stroke="midnightblue" d="M517.451,-112.324C501.008,-103.703 475.565,-90.3643 456.532,-80.3855"/>
<polygon fill="midnightblue" stroke="midnightblue" points="457.989,-77.198 447.508,-75.6545 454.739,-83.3977 457.989,-77.198"/>
</g>
<!-- Node15&#45;&gt;Node11 -->
<g id="edge23" class="edge"><title>Node15&#45;&gt;Node11</title>
<path fill="none" stroke="midnightblue" d="M271.165,-168.083C271.296,-161.006 271.484,-150.861 271.648,-141.986"/>
<polygon fill="midnightblue" stroke="midnightblue" points="275.152,-141.814 271.838,-131.751 268.153,-141.685 275.152,-141.814"/>
</g>
</g>
</svg>
