<?xml version="1.0" encoding="UTF-8" standalone="no"?>
<!DOCTYPE svg PUBLIC "-//W3C//DTD SVG 1.1//EN"
 "http://www.w3.org/Graphics/SVG/1.1/DTD/svg11.dtd">
<!-- Generated by graphviz version 2.26.3 (20100126.1600)
 -->
<!-- Title: G Pages: 1 -->
<!--zoomable 262 -->
<svg id="main" version="1.1" xmlns="http://www.w3.org/2000/svg" xmlns:xlink="http://www.w3.org/1999/xlink" xml:space="preserve" onload="init(evt)">
        <defs>
                <circle id="rim" cx="0" cy="0" r="7"/>
                <circle id="rim2" cx="0" cy="0" r="3.5"/>
                <g id="zoomPlus">
                        <use xlink:href="#rim" fill="#404040">
                                <set attributeName="fill" to="#808080" begin="zoomplus.mouseover" end="zoomplus.mouseout"/>
                        </use>
                        <path d="M-4,0h8M0,-4v8" fill="none" stroke="white" stroke-width="1.5" pointer-events="none"/>
                </g>
                <g id="zoomMin">
                        <use xlink:href="#rim" fill="#404040">
                                <set attributeName="fill" to="#808080" begin="zoomminus.mouseover" end="zoomminus.mouseout"/>
                        </use>
                        <path d="M-4,0h8" fill="none" stroke="white" stroke-width="1.5" pointer-events="none"/>
                </g>
                <g id="dirArrow">
                        <path fill="none" stroke="white" stroke-width="1.5" d="M0,-3.0v7 M-2.5,-0.5L0,-3.0L2.5,-0.5"/>
                </g>
               <g id="resetDef">
                       <use xlink:href="#rim2" fill="#404040">
                               <set attributeName="fill" to="#808080" begin="reset.mouseover" end="reset.mouseout"/>
                       </use>
               </g>
        </defs>

<script type="text/javascript">
var viewWidth = 554;
var viewHeight = 262;
var sectionId = 'dynsection-0';
</script>
<script xlink:href="../../svgpan.js"/>
<svg id="graph" class="graph">
<g id="viewport">
<title>G</title>
<!-- Node1 -->
<g id="node1" class="node"><title>Node1</title>
<polygon fill="#bfbfbf" stroke="black" points="214,-232.5 214,-253.5 348,-253.5 348,-232.5 214,-232.5"/>
<text text-anchor="middle" x="281" y="-240.5" font-family="Helvetica,sans-Serif" font-size="10.00">src/cip/cipmessagerouter.c</text>
</g>
<!-- Node2 -->
<g id="node3" class="node"><title>Node2</title>
<a xlink:href="../../d4/d38/opener__api_8h.html" target="_top" xlink:title="opener_api.h">
<polygon fill="none" stroke="black" points="213,-174.5 213,-195.5 285,-195.5 285,-174.5 213,-174.5"/>
<text text-anchor="middle" x="249" y="-182.5" font-family="Helvetica,sans-Serif" font-size="10.00">opener_api.h</text>
</a>
</g>
<!-- Node1&#45;&gt;Node2 -->
<g id="edge2" class="edge"><title>Node1&#45;&gt;Node2</title>
<path fill="none" stroke="midnightblue" d="M275.131,-232.362C270.845,-224.595 264.913,-213.843 259.784,-204.546"/>
<polygon fill="midnightblue" stroke="midnightblue" points="262.727,-202.636 254.832,-195.571 256.598,-206.017 262.727,-202.636"/>
</g>
<!-- Node10 -->
<g id="node20" class="node"><title>Node10</title>
<a xlink:href="../../d6/d52/ciperror_8h.html" target="_top" xlink:title="ciperror.h">
<polygon fill="none" stroke="black" points="277.5,-116.5 277.5,-137.5 334.5,-137.5 334.5,-116.5 277.5,-116.5"/>
<text text-anchor="middle" x="306" y="-124.5" font-family="Helvetica,sans-Serif" font-size="10.00">ciperror.h</text>
</a>
</g>
<!-- Node1&#45;&gt;Node10 -->
<g id="edge40" class="edge"><title>Node1&#45;&gt;Node10</title>
<path fill="none" stroke="midnightblue" d="M284.297,-232.248C287.125,-222.771 291.179,-208.555 294,-196 297.618,-179.899 300.772,-161.477 302.938,-147.72"/>
<polygon fill="midnightblue" stroke="midnightblue" points="306.4,-148.235 304.453,-137.821 299.48,-147.176 306.4,-148.235"/>
</g>
<!-- Node12 -->
<g id="node24" class="node"><title>Node12</title>
<a xlink:href="../../db/d14/cipcommon_8h.html" target="_top" xlink:title="cipcommon.h">
<polygon fill="none" stroke="black" points="-0.5,-174.5 -0.5,-195.5 74.5,-195.5 74.5,-174.5 -0.5,-174.5"/>
<text text-anchor="middle" x="37" y="-182.5" font-family="Helvetica,sans-Serif" font-size="10.00">cipcommon.h</text>
</a>
</g>
<!-- Node1&#45;&gt;Node12 -->
<g id="edge24" class="edge"><title>Node1&#45;&gt;Node12</title>
<path fill="none" stroke="midnightblue" d="M236.565,-232.474C198.627,-223.483 142.33,-210.129 84.6716,-196.396"/>
<polygon fill="midnightblue" stroke="midnightblue" points="85.1932,-192.922 74.6543,-194.01 83.571,-199.732 85.1932,-192.922"/>
</g>
<!-- Node13 -->
<g id="node28" class="node"><title>Node13</title>
<a xlink:href="../../d2/d75/cipmessagerouter_8h.html" target="_top" xlink:title="cipmessagerouter.h">
<polygon fill="none" stroke="black" points="92,-174.5 92,-195.5 194,-195.5 194,-174.5 92,-174.5"/>
<text text-anchor="middle" x="143" y="-182.5" font-family="Helvetica,sans-Serif" font-size="10.00">cipmessagerouter.h</text>
</a>
</g>
<!-- Node1&#45;&gt;Node13 -->
<g id="edge30" class="edge"><title>Node1&#45;&gt;Node13</title>
<path fill="none" stroke="midnightblue" d="M256.009,-232.497C234.067,-223.275 201.934,-209.769 177.536,-199.515"/>
<polygon fill="midnightblue" stroke="midnightblue" points="178.846,-196.269 168.271,-195.621 176.134,-202.722 178.846,-196.269"/>
</g>
<!-- Node14 -->
<g id="node32" class="node"><title>Node14</title>
<a xlink:href="../../d0/dec/endianconv_8h.html" target="_top" xlink:title="Responsible for Endianess conversion.">
<polygon fill="none" stroke="black" points="472,-116.5 472,-137.5 546,-137.5 546,-116.5 472,-116.5"/>
<text text-anchor="middle" x="509" y="-124.5" font-family="Helvetica,sans-Serif" font-size="10.00">endianconv.h</text>
</a>
</g>
<!-- Node1&#45;&gt;Node14 -->
<g id="edge36" class="edge"><title>Node1&#45;&gt;Node14</title>
<path fill="none" stroke="midnightblue" d="M321.311,-232.458C348.864,-224.424 385.729,-212.017 416,-196 443.183,-181.617 471.086,-159.786 489.143,-144.544"/>
<polygon fill="midnightblue" stroke="midnightblue" points="491.862,-146.822 497.17,-137.652 487.302,-141.511 491.862,-146.822"/>
</g>
<!-- Node15 -->
<g id="node36" class="node"><title>Node15</title>
<a xlink:href="../../d1/d1b/trace_8h.html" target="_top" xlink:title="Tracing infrastructure for OpENer.">
<polygon fill="none" stroke="black" points="360.5,-174.5 360.5,-195.5 407.5,-195.5 407.5,-174.5 360.5,-174.5"/>
<text text-anchor="middle" x="384" y="-182.5" font-family="Helvetica,sans-Serif" font-size="10.00">trace.h</text>
</a>
</g>
<!-- Node1&#45;&gt;Node15 -->
<g id="edge42" class="edge"><title>Node1&#45;&gt;Node15</title>
<path fill="none" stroke="midnightblue" d="M299.892,-232.362C315.718,-223.45 338.523,-210.609 356.395,-200.545"/>
<polygon fill="midnightblue" stroke="midnightblue" points="358.232,-203.527 365.228,-195.571 354.797,-197.428 358.232,-203.527"/>
</g>
<!-- Node3 -->
<g id="node5" class="node"><title>Node3</title>
<polygon fill="none" stroke="#bfbfbf" points="170,-116.5 170,-137.5 222,-137.5 222,-116.5 170,-116.5"/>
<text text-anchor="middle" x="196" y="-124.5" font-family="Helvetica,sans-Serif" font-size="10.00">assert.h</text>
</g>
<!-- Node2&#45;&gt;Node3 -->
<g id="edge4" class="edge"><title>Node2&#45;&gt;Node3</title>
<path fill="none" stroke="midnightblue" d="M239.279,-174.362C231.808,-166.186 221.314,-154.702 212.531,-145.091"/>
<polygon fill="midnightblue" stroke="midnightblue" points="214.989,-142.592 205.659,-137.571 209.821,-147.314 214.989,-142.592"/>
</g>
<!-- Node4 -->
<g id="node7" class="node"><title>Node4</title>
<a xlink:href="../../d7/d69/typedefs_8h.html" target="_top" xlink:title="typedefs.h">
<polygon fill="none" stroke="black" points="128,-58.5 128,-79.5 190,-79.5 190,-58.5 128,-58.5"/>
<text text-anchor="middle" x="159" y="-66.5" font-family="Helvetica,sans-Serif" font-size="10.00">typedefs.h</text>
</a>
</g>
<!-- Node2&#45;&gt;Node4 -->
<g id="edge6" class="edge"><title>Node2&#45;&gt;Node4</title>
<path fill="none" stroke="midnightblue" d="M248.554,-174.178C247.463,-159.666 243.728,-133.685 231,-116 221.435,-102.71 206.849,-92.1806 193.3,-84.4855"/>
<polygon fill="midnightblue" stroke="midnightblue" points="194.631,-81.2287 184.16,-79.6119 191.337,-87.4055 194.631,-81.2287"/>
</g>
<!-- Node8 -->
<g id="node15" class="node"><title>Node8</title>
<a xlink:href="../../df/d28/ciptypes_8h.html" target="_top" xlink:title="ciptypes.h">
<polygon fill="none" stroke="black" points="52,-116.5 52,-137.5 114,-137.5 114,-116.5 52,-116.5"/>
<text text-anchor="middle" x="83" y="-124.5" font-family="Helvetica,sans-Serif" font-size="10.00">ciptypes.h</text>
</a>
</g>
<!-- Node2&#45;&gt;Node8 -->
<g id="edge14" class="edge"><title>Node2&#45;&gt;Node8</title>
<path fill="none" stroke="midnightblue" d="M218.939,-174.497C191.993,-165.082 152.272,-151.204 122.718,-140.877"/>
<polygon fill="midnightblue" stroke="midnightblue" points="123.713,-137.517 113.118,-137.523 121.404,-144.126 123.713,-137.517"/>
</g>
<!-- Node2&#45;&gt;Node10 -->
<g id="edge20" class="edge"><title>Node2&#45;&gt;Node10</title>
<path fill="none" stroke="midnightblue" d="M259.455,-174.362C267.57,-166.104 279.001,-154.472 288.504,-144.803"/>
<polygon fill="midnightblue" stroke="midnightblue" points="291.099,-147.156 295.612,-137.571 286.106,-142.25 291.099,-147.156"/>
</g>
<!-- Node11 -->
<g id="node22" class="node"><title>Node11</title>
<polygon fill="none" stroke="#bfbfbf" points="352,-116.5 352,-137.5 454,-137.5 454,-116.5 352,-116.5"/>
<text text-anchor="middle" x="403" y="-124.5" font-family="Helvetica,sans-Serif" font-size="10.00">opener_user_conf.h</text>
</g>
<!-- Node2&#45;&gt;Node11 -->
<g id="edge22" class="edge"><title>Node2&#45;&gt;Node11</title>
<path fill="none" stroke="midnightblue" d="M276.888,-174.497C301.668,-165.164 338.095,-151.445 365.436,-141.147"/>
<polygon fill="midnightblue" stroke="midnightblue" points="366.935,-144.323 375.059,-137.523 364.468,-137.772 366.935,-144.323"/>
</g>
<!-- Node5 -->
<g id="node9" class="node"><title>Node5</title>
<polygon fill="none" stroke="#bfbfbf" points="56.5,-0.5 56.5,-21.5 115.5,-21.5 115.5,-0.5 56.5,-0.5"/>
<text text-anchor="middle" x="86" y="-8.5" font-family="Helvetica,sans-Serif" font-size="10.00">inttypes.h</text>
</g>
<!-- Node4&#45;&gt;Node5 -->
<g id="edge8" class="edge"><title>Node4&#45;&gt;Node5</title>
<path fill="none" stroke="midnightblue" d="M145.611,-58.3619C134.909,-49.859 119.704,-37.7785 107.329,-27.9466"/>
<polygon fill="midnightblue" stroke="midnightblue" points="109.311,-25.0511 99.3044,-21.5707 104.957,-30.5318 109.311,-25.0511"/>
</g>
<!-- Node6 -->
<g id="node11" class="node"><title>Node6</title>
<polygon fill="none" stroke="#bfbfbf" points="133,-0.5 133,-21.5 185,-21.5 185,-0.5 133,-0.5"/>
<text text-anchor="middle" x="159" y="-8.5" font-family="Helvetica,sans-Serif" font-size="10.00">stddef.h</text>
</g>
<!-- Node4&#45;&gt;Node6 -->
<g id="edge10" class="edge"><title>Node4&#45;&gt;Node6</title>
<path fill="none" stroke="midnightblue" d="M159,-58.3619C159,-50.9219 159,-40.7427 159,-31.7276"/>
<polygon fill="midnightblue" stroke="midnightblue" points="162.5,-31.5706 159,-21.5707 155.5,-31.5707 162.5,-31.5706"/>
</g>
<!-- Node7 -->
<g id="node13" class="node"><title>Node7</title>
<polygon fill="none" stroke="#bfbfbf" points="203,-0.5 203,-21.5 259,-21.5 259,-0.5 203,-0.5"/>
<text text-anchor="middle" x="231" y="-8.5" font-family="Helvetica,sans-Serif" font-size="10.00">stdbool.h</text>
</g>
<!-- Node4&#45;&gt;Node7 -->
<g id="edge12" class="edge"><title>Node4&#45;&gt;Node7</title>
<path fill="none" stroke="midnightblue" d="M172.206,-58.3619C182.761,-49.859 197.758,-37.7785 209.963,-27.9466"/>
<polygon fill="midnightblue" stroke="midnightblue" points="212.286,-30.5696 217.878,-21.5707 207.895,-25.1183 212.286,-30.5696"/>
</g>
<!-- Node8&#45;&gt;Node4 -->
<g id="edge16" class="edge"><title>Node8&#45;&gt;Node4</title>
<path fill="none" stroke="midnightblue" d="M96.9396,-116.362C108.188,-107.777 124.216,-95.5459 137.165,-85.6636"/>
<polygon fill="midnightblue" stroke="midnightblue" points="139.323,-88.4198 145.149,-79.5707 135.076,-82.8551 139.323,-88.4198"/>
</g>
<!-- Node9 -->
<g id="node18" class="node"><title>Node9</title>
<polygon fill="none" stroke="#bfbfbf" points="19.5,-58.5 19.5,-79.5 110.5,-79.5 110.5,-58.5 19.5,-58.5"/>
<text text-anchor="middle" x="65" y="-66.5" font-family="Helvetica,sans-Serif" font-size="10.00">networkhandler.h</text>
</g>
<!-- Node8&#45;&gt;Node9 -->
<g id="edge18" class="edge"><title>Node8&#45;&gt;Node9</title>
<path fill="none" stroke="midnightblue" d="M79.6985,-116.362C77.3388,-108.758 74.0912,-98.294 71.2488,-89.1349"/>
<polygon fill="midnightblue" stroke="midnightblue" points="74.5873,-88.0839 68.2805,-79.5707 67.9019,-90.1587 74.5873,-88.0839"/>
</g>
<!-- Node12&#45;&gt;Node4 -->
<g id="edge26" class="edge"><title>Node12&#45;&gt;Node4</title>
<path fill="none" stroke="midnightblue" d="M34.7895,-174.481C32.3491,-159.849 30.2818,-133.215 43,-116 52.3963,-103.281 88.6041,-89.8327 118.099,-80.5951"/>
<polygon fill="midnightblue" stroke="midnightblue" points="119.256,-83.9015 127.796,-77.631 117.21,-77.2072 119.256,-83.9015"/>
</g>
<!-- Node12&#45;&gt;Node8 -->
<g id="edge28" class="edge"><title>Node12&#45;&gt;Node8</title>
<path fill="none" stroke="midnightblue" d="M45.4371,-174.362C51.7917,-166.35 60.6658,-155.161 68.1931,-145.67"/>
<polygon fill="midnightblue" stroke="midnightblue" points="71.1446,-147.581 74.6164,-137.571 65.6601,-143.231 71.1446,-147.581"/>
</g>
<!-- Node13&#45;&gt;Node4 -->
<g id="edge32" class="edge"><title>Node13&#45;&gt;Node4</title>
<path fill="none" stroke="midnightblue" d="M144.477,-174.295C147.12,-155.131 152.703,-114.654 156.125,-89.8434"/>
<polygon fill="midnightblue" stroke="midnightblue" points="159.628,-90.0637 157.527,-79.6792 152.693,-89.1072 159.628,-90.0637"/>
</g>
<!-- Node13&#45;&gt;Node8 -->
<g id="edge34" class="edge"><title>Node13&#45;&gt;Node8</title>
<path fill="none" stroke="midnightblue" d="M131.995,-174.362C123.453,-166.104 111.42,-154.472 101.417,-144.803"/>
<polygon fill="midnightblue" stroke="midnightblue" points="103.558,-142.004 93.9352,-137.571 98.6925,-147.037 103.558,-142.004"/>
</g>
<!-- Node14&#45;&gt;Node4 -->
<g id="edge38" class="edge"><title>Node14&#45;&gt;Node4</title>
<path fill="none" stroke="midnightblue" d="M471.9,-117.854C468.895,-117.197 465.901,-116.57 463,-116 369.569,-97.638 258.822,-82.055 200.198,-74.2868"/>
<polygon fill="midnightblue" stroke="midnightblue" points="200.589,-70.8081 190.218,-72.9732 199.675,-77.7482 200.589,-70.8081"/>
</g>
<!-- Node15&#45;&gt;Node11 -->
<g id="edge44" class="edge"><title>Node15&#45;&gt;Node11</title>
<path fill="none" stroke="midnightblue" d="M387.485,-174.362C389.976,-166.758 393.404,-156.294 396.404,-147.135"/>
<polygon fill="midnightblue" stroke="midnightblue" points="399.75,-148.163 399.537,-137.571 393.098,-145.984 399.75,-148.163"/>
</g>
</g>
</svg>
        <g id="navigator" transform="translate(0 0)" fill="#404254">
                <rect fill="#f2f5e9" fill-opacity="0.5" stroke="#606060" stroke-width=".5" x="0" y="0" width="60" height="60"/>
                <use id="zoomplus" xlink:href="#zoomPlus" x="17" y="9" onmousedown="handleZoom(evt,'in')"/>
                <use id="zoomminus" xlink:href="#zoomMin" x="42" y="9" onmousedown="handleZoom(evt,'out')"/>
                <use id="reset" xlink:href="#resetDef" x="30" y="36" onmousedown="handleReset()"/>
                <g id="arrowUp" xlink:href="#dirArrow" transform="translate(30 24)" onmousedown="handlePan(0,-1)">
                  <use xlink:href="#rim" fill="#404040">
                        <set attributeName="fill" to="#808080" begin="arrowUp.mouseover" end="arrowUp.mouseout"/>
                  </use>
                  <path fill="none" stroke="white" stroke-width="1.5" d="M0,-3.0v7 M-2.5,-0.5L0,-3.0L2.5,-0.5"/>
                </g>
                <g id="arrowRight" xlink:href="#dirArrow" transform="rotate(90) translate(36 -43)" onmousedown="handlePan(1,0)">
                  <use xlink:href="#rim" fill="#404040">
                        <set attributeName="fill" to="#808080" begin="arrowRight.mouseover" end="arrowRight.mouseout"/>
                  </use>
                  <path fill="none" stroke="white" stroke-width="1.5" d="M0,-3.0v7 M-2.5,-0.5L0,-3.0L2.5,-0.5"/>
                </g>
                <g id="arrowDown" xlink:href="#dirArrow" transform="rotate(180) translate(-30 -48)" onmousedown="handlePan(0,1)">
                  <use xlink:href="#rim" fill="#404040">
                        <set attributeName="fill" to="#808080" begin="arrowDown.mouseover" end="arrowDown.mouseout"/>
                  </use>
                  <path fill="none" stroke="white" stroke-width="1.5" d="M0,-3.0v7 M-2.5,-0.5L0,-3.0L2.5,-0.5"/>
                </g>
                <g id="arrowLeft" xlink:href="#dirArrow" transform="rotate(270) translate(-36 17)" onmousedown="handlePan(-1,0)">
                  <use xlink:href="#rim" fill="#404040">
                        <set attributeName="fill" to="#808080" begin="arrowLeft.mouseover" end="arrowLeft.mouseout"/>
                  </use>
                  <path fill="none" stroke="white" stroke-width="1.5" d="M0,-3.0v7 M-2.5,-0.5L0,-3.0L2.5,-0.5"/>
                </g>
        </g>
</svg>
