<?xml version="1.0" encoding="UTF-8" standalone="no"?>
<!DOCTYPE svg PUBLIC "-//W3C//DTD SVG 1.1//EN"
 "http://www.w3.org/Graphics/SVG/1.1/DTD/svg11.dtd">
<!-- Generated by graphviz version 2.36.0 (20140111.2315)
 -->
<!-- Title: src/cip/cipioconnection.c Pages: 1 -->
<svg width="1260pt" height="476pt"
 viewBox="0.00 0.00 1260.00 476.00" xmlns="http://www.w3.org/2000/svg" xmlns:xlink="http://www.w3.org/1999/xlink">
<g id="graph0" class="graph" transform="scale(1 1) rotate(0) translate(4 472)">
<title>src/cip/cipioconnection.c</title>
<!-- Node1 -->
<g id="node1" class="node"><title>Node1</title>
<polygon fill="#bfbfbf" stroke="black" points="564.5,-448.5 564.5,-467.5 689.5,-467.5 689.5,-448.5 564.5,-448.5"/>
<text text-anchor="middle" x="627" y="-455.5" font-family="Helvetica,sans-Serif" font-size="10.00">src/cip/cipioconnection.c</text>
</g>
<!-- Node2 -->
<g id="node2" class="node"><title>Node2</title>
<polygon fill="none" stroke="#bfbfbf" points="461.5,-336.5 461.5,-355.5 510.5,-355.5 510.5,-336.5 461.5,-336.5"/>
<text text-anchor="middle" x="486" y="-343.5" font-family="Helvetica,sans-Serif" font-size="10.00">string.h</text>
</g>
<!-- Node1&#45;&gt;Node2 -->
<g id="edge1" class="edge"><title>Node1&#45;&gt;Node2</title>
<path fill="none" stroke="midnightblue" d="M615.936,-448.368C591.946,-429.653 534.902,-385.151 505.012,-361.832"/>
<polygon fill="midnightblue" stroke="midnightblue" points="507.05,-358.983 497.013,-355.591 502.744,-364.502 507.05,-358.983"/>
</g>
<!-- Node3 -->
<g id="node3" class="node"><title>Node3</title>
<polygon fill="none" stroke="#bfbfbf" points="156,-0.5 156,-19.5 212,-19.5 212,-0.5 156,-0.5"/>
<text text-anchor="middle" x="184" y="-7.5" font-family="Helvetica,sans-Serif" font-size="10.00">stdbool.h</text>
</g>
<!-- Node1&#45;&gt;Node3 -->
<g id="edge2" class="edge"><title>Node1&#45;&gt;Node3</title>
<path fill="none" stroke="midnightblue" d="M564.3,-452.542C405.504,-440.416 0,-403.882 0,-347 0,-347 0,-347 0,-121 0,-53.6939 91.8226,-26.5872 145.736,-16.4724"/>
<polygon fill="midnightblue" stroke="midnightblue" points="146.414,-19.907 155.653,-14.7223 145.197,-13.0136 146.414,-19.907"/>
</g>
<!-- Node4 -->
<g id="node4" class="node"><title>Node4</title>
<g id="a_node4"><a xlink:href="../../de/d45/cipioconnection_8h.html" target="_top" xlink:title="cipioconnection.h">
<polygon fill="none" stroke="black" points="313,-336.5 313,-355.5 405,-355.5 405,-336.5 313,-336.5"/>
<text text-anchor="middle" x="359" y="-343.5" font-family="Helvetica,sans-Serif" font-size="10.00">cipioconnection.h</text>
</a>
</g>
</g>
<!-- Node1&#45;&gt;Node4 -->
<g id="edge3" class="edge"><title>Node1&#45;&gt;Node4</title>
<path fill="none" stroke="midnightblue" d="M564.313,-453.362C521.077,-448.56 463.587,-437.483 419,-412 398.462,-400.262 380.918,-379.118 370.199,-364.136"/>
<polygon fill="midnightblue" stroke="midnightblue" points="372.985,-362.009 364.442,-355.743 367.213,-365.969 372.985,-362.009"/>
</g>
<!-- Node15 -->
<g id="node15" class="node"><title>Node15</title>
<g id="a_node15"><a xlink:href="../../d2/da3/cipconnectionmanager_8h.html" target="_top" xlink:title="cipconnectionmanager.h">
<polygon fill="none" stroke="black" points="424,-280.5 424,-299.5 546,-299.5 546,-280.5 424,-280.5"/>
<text text-anchor="middle" x="485" y="-287.5" font-family="Helvetica,sans-Serif" font-size="10.00">cipconnectionmanager.h</text>
</a>
</g>
</g>
<!-- Node1&#45;&gt;Node15 -->
<g id="edge53" class="edge"><title>Node1&#45;&gt;Node15</title>
<path fill="none" stroke="midnightblue" d="M591.85,-448.489C549.651,-436.143 480.95,-408.737 452,-356 442.922,-339.463 455.604,-320.146 467.784,-306.894"/>
<polygon fill="midnightblue" stroke="midnightblue" points="470.552,-309.072 475.103,-299.505 465.579,-304.146 470.552,-309.072"/>
</g>
<!-- Node20 -->
<g id="node20" class="node"><title>Node20</title>
<g id="a_node20"><a xlink:href="../../da/dc2/generic__networkhandler_8h.html" target="_top" xlink:title="generic_networkhandler.h">
<polygon fill="none" stroke="black" points="830,-392.5 830,-411.5 958,-411.5 958,-392.5 830,-392.5"/>
<text text-anchor="middle" x="894" y="-399.5" font-family="Helvetica,sans-Serif" font-size="10.00">generic_networkhandler.h</text>
</a>
</g>
</g>
<!-- Node1&#45;&gt;Node20 -->
<g id="edge38" class="edge"><title>Node1&#45;&gt;Node20</title>
<path fill="none" stroke="midnightblue" d="M669.307,-448.444C716.08,-438.984 791.46,-423.738 841.85,-413.547"/>
<polygon fill="midnightblue" stroke="midnightblue" points="842.783,-416.929 851.891,-411.516 841.396,-410.068 842.783,-416.929"/>
</g>
<!-- Node24 -->
<g id="node24" class="node"><title>Node24</title>
<g id="a_node24"><a xlink:href="../../d0/dec/endianconv_8h.html" target="_top" xlink:title="Responsible for Endianess conversion. ">
<polygon fill="none" stroke="black" points="1178,-336.5 1178,-355.5 1252,-355.5 1252,-336.5 1178,-336.5"/>
<text text-anchor="middle" x="1215" y="-343.5" font-family="Helvetica,sans-Serif" font-size="10.00">endianconv.h</text>
</a>
</g>
</g>
<!-- Node1&#45;&gt;Node24 -->
<g id="edge72" class="edge"><title>Node1&#45;&gt;Node24</title>
<path fill="none" stroke="midnightblue" d="M689.668,-454.555C822.404,-448.973 1123.11,-434.05 1164,-412 1183.47,-401.501 1197.99,-380.062 1206.46,-364.675"/>
<polygon fill="midnightblue" stroke="midnightblue" points="1209.66,-366.104 1211.14,-355.613 1203.44,-362.891 1209.66,-366.104"/>
</g>
<!-- Node25 -->
<g id="node25" class="node"><title>Node25</title>
<g id="a_node25"><a xlink:href="../../d1/dc0/appcontype_8h.html" target="_top" xlink:title="appcontype.h">
<polygon fill="none" stroke="black" points="528.5,-336.5 528.5,-355.5 603.5,-355.5 603.5,-336.5 528.5,-336.5"/>
<text text-anchor="middle" x="566" y="-343.5" font-family="Helvetica,sans-Serif" font-size="10.00">appcontype.h</text>
</a>
</g>
</g>
<!-- Node1&#45;&gt;Node25 -->
<g id="edge63" class="edge"><title>Node1&#45;&gt;Node25</title>
<path fill="none" stroke="midnightblue" d="M622.213,-448.368C612.236,-430.376 589.042,-388.55 575.775,-364.627"/>
<polygon fill="midnightblue" stroke="midnightblue" points="578.675,-362.639 570.764,-355.591 572.553,-366.034 578.675,-362.639"/>
</g>
<!-- Node27 -->
<g id="node27" class="node"><title>Node27</title>
<g id="a_node27"><a xlink:href="../../de/df4/cipassembly_8h.html" target="_top" xlink:title="cipassembly.h">
<polygon fill="none" stroke="black" points="688,-168.5 688,-187.5 768,-187.5 768,-168.5 688,-168.5"/>
<text text-anchor="middle" x="728" y="-175.5" font-family="Helvetica,sans-Serif" font-size="10.00">cipassembly.h</text>
</a>
</g>
</g>
<!-- Node1&#45;&gt;Node27 -->
<g id="edge54" class="edge"><title>Node1&#45;&gt;Node27</title>
<path fill="none" stroke="midnightblue" d="M644.37,-448.454C671.778,-433.869 724.09,-401.293 745,-356 769.752,-302.383 748.019,-230.062 735.453,-196.93"/>
<polygon fill="midnightblue" stroke="midnightblue" points="738.703,-195.631 731.765,-187.623 732.195,-198.209 738.703,-195.631"/>
</g>
<!-- Node28 -->
<g id="node28" class="node"><title>Node28</title>
<g id="a_node28"><a xlink:href="../../d1/dad/ciptcpipinterface_8h.html" target="_top" xlink:title="Public interface of the TCP/IP Interface Object. ">
<polygon fill="none" stroke="black" points="824,-168.5 824,-187.5 920,-187.5 920,-168.5 824,-168.5"/>
<text text-anchor="middle" x="872" y="-175.5" font-family="Helvetica,sans-Serif" font-size="10.00">ciptcpipinterface.h</text>
</a>
</g>
</g>
<!-- Node1&#45;&gt;Node28 -->
<g id="edge57" class="edge"><title>Node1&#45;&gt;Node28</title>
<path fill="none" stroke="midnightblue" d="M655.13,-448.415C675.785,-441.111 703.669,-429.07 724,-412 798.435,-349.505 847.82,-239.792 865.128,-196.901"/>
<polygon fill="midnightblue" stroke="midnightblue" points="868.421,-198.092 868.833,-187.505 861.909,-195.524 868.421,-198.092"/>
</g>
<!-- Node29 -->
<g id="node29" class="node"><title>Node29</title>
<g id="a_node29"><a xlink:href="../../db/d14/cipcommon_8h.html" target="_top" xlink:title="cipcommon.h">
<polygon fill="none" stroke="black" points="1111.5,-168.5 1111.5,-187.5 1186.5,-187.5 1186.5,-168.5 1111.5,-168.5"/>
<text text-anchor="middle" x="1149" y="-175.5" font-family="Helvetica,sans-Serif" font-size="10.00">cipcommon.h</text>
</a>
</g>
</g>
<!-- Node1&#45;&gt;Node29 -->
<g id="edge60" class="edge"><title>Node1&#45;&gt;Node29</title>
<path fill="none" stroke="midnightblue" d="M689.567,-456.855C828.388,-454.843 1150,-440.133 1150,-347 1150,-347 1150,-347 1150,-289 1150,-256.947 1149.57,-219.642 1149.27,-197.748"/>
<polygon fill="midnightblue" stroke="midnightblue" points="1152.77,-197.507 1149.13,-187.558 1145.77,-197.606 1152.77,-197.507"/>
</g>
<!-- Node30 -->
<g id="node30" class="node"><title>Node30</title>
<g id="a_node30"><a xlink:href="../../d0/dff/cpf_8h.html" target="_top" xlink:title="cpf.h">
<polygon fill="none" stroke="black" points="698,-336.5 698,-355.5 736,-355.5 736,-336.5 698,-336.5"/>
<text text-anchor="middle" x="717" y="-343.5" font-family="Helvetica,sans-Serif" font-size="10.00">cpf.h</text>
</a>
</g>
</g>
<!-- Node1&#45;&gt;Node30 -->
<g id="edge64" class="edge"><title>Node1&#45;&gt;Node30</title>
<path fill="none" stroke="midnightblue" d="M634.062,-448.368C649.046,-430.055 684.233,-387.049 703.613,-363.362"/>
<polygon fill="midnightblue" stroke="midnightblue" points="706.347,-365.547 709.971,-355.591 700.929,-361.115 706.347,-365.547"/>
</g>
<!-- Node32 -->
<g id="node32" class="node"><title>Node32</title>
<g id="a_node32"><a xlink:href="../../d1/d1b/trace_8h.html" target="_top" xlink:title="Tracing infrastructure for OpENer. ">
<polygon fill="none" stroke="black" points="28.5,-224.5 28.5,-243.5 75.5,-243.5 75.5,-224.5 28.5,-224.5"/>
<text text-anchor="middle" x="52" y="-231.5" font-family="Helvetica,sans-Serif" font-size="10.00">trace.h</text>
</a>
</g>
</g>
<!-- Node1&#45;&gt;Node32 -->
<g id="edge70" class="edge"><title>Node1&#45;&gt;Node32</title>
<path fill="none" stroke="midnightblue" d="M564.337,-450.131C516.013,-443.629 448.023,-431.838 391,-412 263.816,-367.753 125.371,-282.515 73.3424,-249.012"/>
<polygon fill="midnightblue" stroke="midnightblue" points="75.2216,-246.059 64.9264,-243.557 71.4141,-251.933 75.2216,-246.059"/>
</g>
<!-- Node5 -->
<g id="node5" class="node"><title>Node5</title>
<g id="a_node5"><a xlink:href="../../d4/d38/opener__api_8h.html" target="_top" xlink:title="opener_api.h">
<polygon fill="none" stroke="black" points="142,-168.5 142,-187.5 214,-187.5 214,-168.5 142,-168.5"/>
<text text-anchor="middle" x="178" y="-175.5" font-family="Helvetica,sans-Serif" font-size="10.00">opener_api.h</text>
</a>
</g>
</g>
<!-- Node4&#45;&gt;Node5 -->
<g id="edge4" class="edge"><title>Node4&#45;&gt;Node5</title>
<path fill="none" stroke="midnightblue" d="M349.269,-336.075C319.914,-309.153 231.988,-228.514 194.85,-194.453"/>
<polygon fill="midnightblue" stroke="midnightblue" points="197.078,-191.748 187.342,-187.568 192.347,-196.907 197.078,-191.748"/>
</g>
<!-- Node4&#45;&gt;Node15 -->
<g id="edge19" class="edge"><title>Node4&#45;&gt;Node15</title>
<path fill="none" stroke="midnightblue" d="M378.965,-336.444C399.609,-327.596 432.063,-313.687 455.632,-303.586"/>
<polygon fill="midnightblue" stroke="midnightblue" points="457.316,-306.673 465.128,-299.516 454.558,-300.239 457.316,-306.673"/>
</g>
<!-- Node16 -->
<g id="node16" class="node"><title>Node16</title>
<g id="a_node16"><a xlink:href="../../d1/d6c/cipconnectionobject_8h.html" target="_top" xlink:title="cipconnectionobject.h">
<polygon fill="none" stroke="black" points="429.5,-224.5 429.5,-243.5 540.5,-243.5 540.5,-224.5 429.5,-224.5"/>
<text text-anchor="middle" x="485" y="-231.5" font-family="Helvetica,sans-Serif" font-size="10.00">cipconnectionobject.h</text>
</a>
</g>
</g>
<!-- Node4&#45;&gt;Node16 -->
<g id="edge37" class="edge"><title>Node4&#45;&gt;Node16</title>
<path fill="none" stroke="midnightblue" d="M365.203,-336.304C374.867,-323.134 394.539,-297.783 415,-280 428.733,-268.065 445.895,-256.982 459.788,-248.801"/>
<polygon fill="midnightblue" stroke="midnightblue" points="461.872,-251.641 468.803,-243.627 458.387,-245.57 461.872,-251.641"/>
</g>
<!-- Node5&#45;&gt;Node3 -->
<g id="edge6" class="edge"><title>Node5&#45;&gt;Node3</title>
<path fill="none" stroke="midnightblue" d="M164.936,-168.436C154.086,-160.471 139.427,-147.515 133,-132 129.598,-123.788 130.941,-120.647 133,-112 140.548,-80.306 159.723,-47.2847 172.291,-27.9598"/>
<polygon fill="midnightblue" stroke="midnightblue" points="175.205,-29.8985 177.85,-19.6391 169.384,-26.0098 175.205,-29.8985"/>
</g>
<!-- Node6 -->
<g id="node6" class="node"><title>Node6</title>
<polygon fill="none" stroke="#bfbfbf" points="142,-112.5 142,-131.5 194,-131.5 194,-112.5 142,-112.5"/>
<text text-anchor="middle" x="168" y="-119.5" font-family="Helvetica,sans-Serif" font-size="10.00">assert.h</text>
</g>
<!-- Node5&#45;&gt;Node6 -->
<g id="edge5" class="edge"><title>Node5&#45;&gt;Node6</title>
<path fill="none" stroke="midnightblue" d="M176.349,-168.083C175.024,-160.927 173.118,-150.635 171.461,-141.691"/>
<polygon fill="midnightblue" stroke="midnightblue" points="174.883,-140.947 169.621,-131.751 168,-142.221 174.883,-140.947"/>
</g>
<!-- Node7 -->
<g id="node7" class="node"><title>Node7</title>
<g id="a_node7"><a xlink:href="../../d7/d69/typedefs_8h.html" target="_top" xlink:title="typedefs.h">
<polygon fill="none" stroke="black" points="755,-56.5 755,-75.5 817,-75.5 817,-56.5 755,-56.5"/>
<text text-anchor="middle" x="786" y="-63.5" font-family="Helvetica,sans-Serif" font-size="10.00">typedefs.h</text>
</a>
</g>
</g>
<!-- Node5&#45;&gt;Node7 -->
<g id="edge7" class="edge"><title>Node5&#45;&gt;Node7</title>
<path fill="none" stroke="midnightblue" d="M201.172,-168.409C240.184,-154.307 321.711,-126.383 393,-112 543.254,-81.6856 584.247,-97.5918 736,-76 738.865,-75.5923 741.817,-75.1413 744.787,-74.6647"/>
<polygon fill="midnightblue" stroke="midnightblue" points="745.57,-78.0823 754.851,-72.9719 744.409,-71.1793 745.57,-78.0823"/>
</g>
<!-- Node10 -->
<g id="node10" class="node"><title>Node10</title>
<g id="a_node10"><a xlink:href="../../df/d28/ciptypes_8h.html" target="_top" xlink:title="ciptypes.h">
<polygon fill="none" stroke="black" points="554,-112.5 554,-131.5 616,-131.5 616,-112.5 554,-112.5"/>
<text text-anchor="middle" x="585" y="-119.5" font-family="Helvetica,sans-Serif" font-size="10.00">ciptypes.h</text>
</a>
</g>
</g>
<!-- Node5&#45;&gt;Node10 -->
<g id="edge11" class="edge"><title>Node5&#45;&gt;Node10</title>
<path fill="none" stroke="midnightblue" d="M214.308,-169.5C217.244,-168.966 220.169,-168.458 223,-168 283.952,-158.13 462.077,-137.188 543.511,-127.767"/>
<polygon fill="midnightblue" stroke="midnightblue" points="544.343,-131.194 553.875,-126.57 543.539,-124.24 544.343,-131.194"/>
</g>
<!-- Node13 -->
<g id="node13" class="node"><title>Node13</title>
<polygon fill="none" stroke="#bfbfbf" points="332,-0.5 332,-19.5 434,-19.5 434,-0.5 332,-0.5"/>
<text text-anchor="middle" x="383" y="-7.5" font-family="Helvetica,sans-Serif" font-size="10.00">opener_user_conf.h</text>
</g>
<!-- Node5&#45;&gt;Node13 -->
<g id="edge18" class="edge"><title>Node5&#45;&gt;Node13</title>
<path fill="none" stroke="midnightblue" d="M205.169,-168.402C226.307,-160.891 255.697,-148.587 278,-132 318.371,-101.975 354.115,-53.9678 371.614,-28.3819"/>
<polygon fill="midnightblue" stroke="midnightblue" points="374.735,-30.0123 377.399,-19.7579 368.921,-26.1128 374.735,-30.0123"/>
</g>
<!-- Node14 -->
<g id="node14" class="node"><title>Node14</title>
<g id="a_node14"><a xlink:href="../../d6/d52/ciperror_8h.html" target="_top" xlink:title="ciperror.h">
<polygon fill="none" stroke="black" points="212.5,-112.5 212.5,-131.5 269.5,-131.5 269.5,-112.5 212.5,-112.5"/>
<text text-anchor="middle" x="241" y="-119.5" font-family="Helvetica,sans-Serif" font-size="10.00">ciperror.h</text>
</a>
</g>
</g>
<!-- Node5&#45;&gt;Node14 -->
<g id="edge17" class="edge"><title>Node5&#45;&gt;Node14</title>
<path fill="none" stroke="midnightblue" d="M188.122,-168.324C197.526,-160.263 211.744,-148.077 223.069,-138.369"/>
<polygon fill="midnightblue" stroke="midnightblue" points="225.379,-140.999 230.694,-131.834 220.823,-135.684 225.379,-140.999"/>
</g>
<!-- Node7&#45;&gt;Node3 -->
<g id="edge10" class="edge"><title>Node7&#45;&gt;Node3</title>
<path fill="none" stroke="midnightblue" d="M754.866,-58.9155C748.635,-57.8334 742.122,-56.7986 736,-56 636.232,-42.9853 330.677,-21.1757 222.474,-13.6488"/>
<polygon fill="midnightblue" stroke="midnightblue" points="222.555,-10.146 212.336,-12.9452 222.07,-17.1292 222.555,-10.146"/>
</g>
<!-- Node8 -->
<g id="node8" class="node"><title>Node8</title>
<polygon fill="none" stroke="#bfbfbf" points="719.5,-0.5 719.5,-19.5 778.5,-19.5 778.5,-0.5 719.5,-0.5"/>
<text text-anchor="middle" x="749" y="-7.5" font-family="Helvetica,sans-Serif" font-size="10.00">inttypes.h</text>
</g>
<!-- Node7&#45;&gt;Node8 -->
<g id="edge8" class="edge"><title>Node7&#45;&gt;Node8</title>
<path fill="none" stroke="midnightblue" d="M779.89,-56.083C774.718,-48.5341 767.154,-37.4948 760.806,-28.2298"/>
<polygon fill="midnightblue" stroke="midnightblue" points="763.536,-26.0221 754.996,-19.7511 757.761,-29.9787 763.536,-26.0221"/>
</g>
<!-- Node9 -->
<g id="node9" class="node"><title>Node9</title>
<polygon fill="none" stroke="#bfbfbf" points="797,-0.5 797,-19.5 849,-19.5 849,-0.5 797,-0.5"/>
<text text-anchor="middle" x="823" y="-7.5" font-family="Helvetica,sans-Serif" font-size="10.00">stddef.h</text>
</g>
<!-- Node7&#45;&gt;Node9 -->
<g id="edge9" class="edge"><title>Node7&#45;&gt;Node9</title>
<path fill="none" stroke="midnightblue" d="M792.11,-56.083C797.282,-48.5341 804.846,-37.4948 811.194,-28.2298"/>
<polygon fill="midnightblue" stroke="midnightblue" points="814.239,-29.9787 817.004,-19.7511 808.464,-26.0221 814.239,-29.9787"/>
</g>
<!-- Node10&#45;&gt;Node7 -->
<g id="edge12" class="edge"><title>Node10&#45;&gt;Node7</title>
<path fill="none" stroke="midnightblue" d="M616.406,-112.562C651.07,-103.25 706.988,-88.2271 745.062,-77.9981"/>
<polygon fill="midnightblue" stroke="midnightblue" points="746.065,-81.353 754.814,-75.3783 744.249,-74.5927 746.065,-81.353"/>
</g>
<!-- Node11 -->
<g id="node11" class="node"><title>Node11</title>
<polygon fill="none" stroke="#bfbfbf" points="636.5,-56.5 636.5,-75.5 727.5,-75.5 727.5,-56.5 636.5,-56.5"/>
<text text-anchor="middle" x="682" y="-63.5" font-family="Helvetica,sans-Serif" font-size="10.00">networkhandler.h</text>
</g>
<!-- Node10&#45;&gt;Node11 -->
<g id="edge13" class="edge"><title>Node10&#45;&gt;Node11</title>
<path fill="none" stroke="midnightblue" d="M600.585,-112.324C615.999,-103.743 639.812,-90.486 657.71,-80.5224"/>
<polygon fill="midnightblue" stroke="midnightblue" points="659.419,-83.5767 666.454,-75.6545 656.014,-77.4606 659.419,-83.5767"/>
</g>
<!-- Node12 -->
<g id="node12" class="node"><title>Node12</title>
<g id="a_node12"><a xlink:href="../../d8/d2c/enipmessage_8h.html" target="_top" xlink:title="enipmessage.h">
<polygon fill="none" stroke="black" points="496.5,-56.5 496.5,-75.5 579.5,-75.5 579.5,-56.5 496.5,-56.5"/>
<text text-anchor="middle" x="538" y="-63.5" font-family="Helvetica,sans-Serif" font-size="10.00">enipmessage.h</text>
</a>
</g>
</g>
<!-- Node10&#45;&gt;Node12 -->
<g id="edge14" class="edge"><title>Node10&#45;&gt;Node12</title>
<path fill="none" stroke="midnightblue" d="M577.239,-112.083C570.463,-104.298 560.457,-92.8015 552.245,-83.3665"/>
<polygon fill="midnightblue" stroke="midnightblue" points="554.822,-80.9963 545.617,-75.7511 549.542,-85.592 554.822,-80.9963"/>
</g>
<!-- Node10&#45;&gt;Node13 -->
<g id="edge16" class="edge"><title>Node10&#45;&gt;Node13</title>
<path fill="none" stroke="midnightblue" d="M588.67,-112.311C593.778,-98.69 601.027,-72.1971 588,-56 570.193,-33.8603 498.007,-21.9953 444.302,-16.1027"/>
<polygon fill="midnightblue" stroke="midnightblue" points="444.48,-12.6021 434.168,-15.0366 443.747,-19.5637 444.48,-12.6021"/>
</g>
<!-- Node12&#45;&gt;Node13 -->
<g id="edge15" class="edge"><title>Node12&#45;&gt;Node13</title>
<path fill="none" stroke="midnightblue" d="M513.44,-56.4435C487.477,-47.3986 446.332,-33.064 417.203,-22.9158"/>
<polygon fill="midnightblue" stroke="midnightblue" points="418.04,-19.5013 407.445,-19.5164 415.737,-26.1116 418.04,-19.5013"/>
</g>
<!-- Node15&#45;&gt;Node5 -->
<g id="edge21" class="edge"><title>Node15&#45;&gt;Node5</title>
<path fill="none" stroke="midnightblue" d="M461.166,-280.46C406.984,-261.047 274.429,-213.551 211.813,-191.115"/>
<polygon fill="midnightblue" stroke="midnightblue" points="212.625,-187.689 202.031,-187.61 210.264,-194.278 212.625,-187.689"/>
</g>
<!-- Node15&#45;&gt;Node7 -->
<g id="edge22" class="edge"><title>Node15&#45;&gt;Node7</title>
<path fill="none" stroke="midnightblue" d="M503.275,-280.48C520.691,-272.069 547.388,-258.408 569,-244 648.392,-191.071 733.597,-115.264 769.037,-82.7682"/>
<polygon fill="midnightblue" stroke="midnightblue" points="771.592,-85.1733 776.572,-75.8221 766.847,-80.0264 771.592,-85.1733"/>
</g>
<!-- Node15&#45;&gt;Node10 -->
<g id="edge23" class="edge"><title>Node15&#45;&gt;Node10</title>
<path fill="none" stroke="midnightblue" d="M503.293,-280.444C517.705,-272.81 537.261,-260.319 549,-244 571.53,-212.679 580.098,-167.217 583.252,-141.873"/>
<polygon fill="midnightblue" stroke="midnightblue" points="586.749,-142.087 584.351,-131.767 579.79,-141.33 586.749,-142.087"/>
</g>
<!-- Node15&#45;&gt;Node13 -->
<g id="edge20" class="edge"><title>Node15&#45;&gt;Node13</title>
<path fill="none" stroke="midnightblue" d="M423.754,-280.558C332.271,-266.526 167.014,-235.192 133,-188 113.25,-160.598 114.111,-140.003 133,-112 156.978,-76.4522 274.666,-40.0584 339.663,-22.234"/>
<polygon fill="midnightblue" stroke="midnightblue" points="340.884,-25.5296 349.62,-19.5357 339.053,-18.7733 340.884,-25.5296"/>
</g>
<!-- Node15&#45;&gt;Node16 -->
<g id="edge24" class="edge"><title>Node15&#45;&gt;Node16</title>
<path fill="none" stroke="midnightblue" d="M485,-280.083C485,-273.006 485,-262.861 485,-253.986"/>
<polygon fill="midnightblue" stroke="midnightblue" points="488.5,-253.751 485,-243.751 481.5,-253.751 488.5,-253.751"/>
</g>
<!-- Node16&#45;&gt;Node5 -->
<g id="edge28" class="edge"><title>Node16&#45;&gt;Node5</title>
<path fill="none" stroke="midnightblue" d="M432.73,-224.454C381.965,-216.056 302.454,-202.648 224.345,-188.213"/>
<polygon fill="midnightblue" stroke="midnightblue" points="224.804,-184.738 214.333,-186.355 223.527,-191.621 224.804,-184.738"/>
</g>
<!-- Node16&#45;&gt;Node7 -->
<g id="edge25" class="edge"><title>Node16&#45;&gt;Node7</title>
<path fill="none" stroke="midnightblue" d="M500.759,-224.309C550.03,-197.136 701.437,-113.636 761.286,-80.6297"/>
<polygon fill="midnightblue" stroke="midnightblue" points="763.33,-83.4992 770.397,-75.6051 759.95,-77.3696 763.33,-83.4992"/>
</g>
<!-- Node16&#45;&gt;Node10 -->
<g id="edge26" class="edge"><title>Node16&#45;&gt;Node10</title>
<path fill="none" stroke="midnightblue" d="M490.467,-224.081C498.658,-211.061 514.979,-186.401 532,-168 542.117,-157.062 554.8,-146.21 565.222,-137.904"/>
<polygon fill="midnightblue" stroke="midnightblue" points="567.602,-140.487 573.339,-131.58 563.3,-134.965 567.602,-140.487"/>
</g>
<!-- Node16&#45;&gt;Node13 -->
<g id="edge27" class="edge"><title>Node16&#45;&gt;Node13</title>
<path fill="none" stroke="midnightblue" d="M489.866,-224.317C500.691,-203.763 524.409,-150.936 506,-112 486.391,-70.526 440.48,-40.3651 410.632,-24.2881"/>
<polygon fill="midnightblue" stroke="midnightblue" points="412.045,-21.0782 401.559,-19.5667 408.814,-27.2877 412.045,-21.0782"/>
</g>
<!-- Node17 -->
<g id="node17" class="node"><title>Node17</title>
<g id="a_node17"><a xlink:href="../../d9/d31/doublylinkedlist_8h.html" target="_top" xlink:title="doublylinkedlist.h">
<polygon fill="none" stroke="black" points="232,-168.5 232,-187.5 324,-187.5 324,-168.5 232,-168.5"/>
<text text-anchor="middle" x="278" y="-175.5" font-family="Helvetica,sans-Serif" font-size="10.00">doublylinkedlist.h</text>
</a>
</g>
</g>
<!-- Node16&#45;&gt;Node17 -->
<g id="edge29" class="edge"><title>Node16&#45;&gt;Node17</title>
<path fill="none" stroke="midnightblue" d="M452.2,-224.444C416.62,-215.162 359.686,-200.309 320.653,-190.127"/>
<polygon fill="midnightblue" stroke="midnightblue" points="321.206,-186.654 310.646,-187.516 319.439,-193.427 321.206,-186.654"/>
</g>
<!-- Node18 -->
<g id="node18" class="node"><title>Node18</title>
<g id="a_node18"><a xlink:href="../../d0/d23/cipelectronickey_8h.html" target="_top" xlink:title="cipelectronickey.h">
<polygon fill="none" stroke="black" points="402.5,-112.5 402.5,-131.5 497.5,-131.5 497.5,-112.5 402.5,-112.5"/>
<text text-anchor="middle" x="450" y="-119.5" font-family="Helvetica,sans-Serif" font-size="10.00">cipelectronickey.h</text>
</a>
</g>
</g>
<!-- Node16&#45;&gt;Node18 -->
<g id="edge30" class="edge"><title>Node16&#45;&gt;Node18</title>
<path fill="none" stroke="midnightblue" d="M477.61,-224.368C470.714,-215.77 460.79,-201.882 456,-188 450.854,-173.086 449.53,-155.169 449.394,-141.927"/>
<polygon fill="midnightblue" stroke="midnightblue" points="452.896,-141.726 449.513,-131.686 445.897,-141.645 452.896,-141.726"/>
</g>
<!-- Node19 -->
<g id="node19" class="node"><title>Node19</title>
<g id="a_node19"><a xlink:href="../../d1/d02/cipepath_8h.html" target="_top" xlink:title="cipepath.h">
<polygon fill="none" stroke="black" points="342,-168.5 342,-187.5 404,-187.5 404,-168.5 342,-168.5"/>
<text text-anchor="middle" x="373" y="-175.5" font-family="Helvetica,sans-Serif" font-size="10.00">cipepath.h</text>
</a>
</g>
</g>
<!-- Node16&#45;&gt;Node19 -->
<g id="edge33" class="edge"><title>Node16&#45;&gt;Node19</title>
<path fill="none" stroke="midnightblue" d="M467.005,-224.324C448.962,-215.625 420.953,-202.12 400.197,-192.113"/>
<polygon fill="midnightblue" stroke="midnightblue" points="401.478,-188.845 390.95,-187.655 398.438,-195.15 401.478,-188.845"/>
</g>
<!-- Node18&#45;&gt;Node3 -->
<g id="edge31" class="edge"><title>Node18&#45;&gt;Node3</title>
<path fill="none" stroke="midnightblue" d="M429.127,-112.368C382.316,-93.0105 268.792,-46.0645 214.245,-23.5074"/>
<polygon fill="midnightblue" stroke="midnightblue" points="215.354,-20.1786 204.776,-19.5914 212.679,-26.6473 215.354,-20.1786"/>
</g>
<!-- Node18&#45;&gt;Node7 -->
<g id="edge32" class="edge"><title>Node18&#45;&gt;Node7</title>
<path fill="none" stroke="midnightblue" d="M497.621,-113.835C554.427,-105.213 652.237,-90.1266 736,-76 738.854,-75.5187 741.797,-75.0129 744.761,-74.4969"/>
<polygon fill="midnightblue" stroke="midnightblue" points="745.573,-77.9078 754.812,-72.7232 744.356,-71.0143 745.573,-77.9078"/>
</g>
<!-- Node19&#45;&gt;Node3 -->
<g id="edge34" class="edge"><title>Node19&#45;&gt;Node3</title>
<path fill="none" stroke="midnightblue" d="M363.105,-168.309C332.741,-141.64 240.604,-60.7157 201.669,-26.5186"/>
<polygon fill="midnightblue" stroke="midnightblue" points="203.621,-23.5745 193.797,-19.6051 199.001,-28.834 203.621,-23.5745"/>
</g>
<!-- Node19&#45;&gt;Node10 -->
<g id="edge35" class="edge"><title>Node19&#45;&gt;Node10</title>
<path fill="none" stroke="midnightblue" d="M404.281,-169.032C441.338,-159.593 503.183,-143.84 544.031,-133.436"/>
<polygon fill="midnightblue" stroke="midnightblue" points="545.109,-136.773 553.936,-130.913 543.381,-129.989 545.109,-136.773"/>
</g>
<!-- Node19&#45;&gt;Node18 -->
<g id="edge36" class="edge"><title>Node19&#45;&gt;Node18</title>
<path fill="none" stroke="midnightblue" d="M385.371,-168.324C397.158,-160.058 415.132,-147.453 429.136,-137.632"/>
<polygon fill="midnightblue" stroke="midnightblue" points="431.482,-140.262 437.659,-131.655 427.462,-134.531 431.482,-140.262"/>
</g>
<!-- Node20&#45;&gt;Node2 -->
<g id="edge40" class="edge"><title>Node20&#45;&gt;Node2</title>
<path fill="none" stroke="midnightblue" d="M829.856,-396.188C756.955,-390.072 634.309,-377.831 520.685,-356.1"/>
<polygon fill="midnightblue" stroke="midnightblue" points="521.258,-352.646 510.774,-354.176 519.924,-359.518 521.258,-352.646"/>
</g>
<!-- Node20&#45;&gt;Node5 -->
<g id="edge43" class="edge"><title>Node20&#45;&gt;Node5</title>
<path fill="none" stroke="midnightblue" d="M832.509,-392.45C791.046,-385.497 735.613,-373.866 689,-356 657.034,-343.748 586.686,-292.96 555,-280 497.525,-256.491 479.973,-260.101 420,-244 387.096,-235.166 378.899,-232.852 346,-224 303.06,-212.447 253.929,-199.294 219.939,-190.206"/>
<polygon fill="midnightblue" stroke="midnightblue" points="220.465,-186.723 209.9,-187.522 218.657,-193.486 220.465,-186.723"/>
</g>
<!-- Node20&#45;&gt;Node7 -->
<g id="edge44" class="edge"><title>Node20&#45;&gt;Node7</title>
<path fill="none" stroke="midnightblue" d="M956.686,-392.449C1001.14,-385.066 1055.54,-372.908 1071,-356 1093.95,-330.895 1084.99,-313.645 1080,-280 1068.4,-201.865 1083.56,-161.494 1022,-112 992.561,-88.3315 886.641,-75.6286 827.201,-70.2226"/>
<polygon fill="midnightblue" stroke="midnightblue" points="827.292,-66.7171 817.024,-69.3269 826.678,-73.6902 827.292,-66.7171"/>
</g>
<!-- Node20&#45;&gt;Node11 -->
<g id="edge48" class="edge"><title>Node20&#45;&gt;Node11</title>
<path fill="none" stroke="midnightblue" d="M884.444,-392.45C875.912,-384.12 864.011,-370.604 859,-356 856.115,-347.592 857.052,-344.673 859,-336 876.723,-257.077 974.092,-235.155 929,-168 905.343,-132.769 789.053,-96.2384 724.825,-78.3108"/>
<polygon fill="midnightblue" stroke="midnightblue" points="725.557,-74.8819 714.986,-75.5962 723.695,-81.6298 725.557,-74.8819"/>
</g>
<!-- Node20&#45;&gt;Node15 -->
<g id="edge47" class="edge"><title>Node20&#45;&gt;Node15</title>
<path fill="none" stroke="midnightblue" d="M829.838,-393.124C781.344,-386.155 713.527,-374.221 656,-356 635.522,-349.514 631.92,-344.039 612,-336 581.743,-323.789 546.755,-311.526 521.174,-302.892"/>
<polygon fill="midnightblue" stroke="midnightblue" points="522.111,-299.514 511.517,-299.654 519.885,-306.151 522.111,-299.514"/>
</g>
<!-- Node21 -->
<g id="node21" class="node"><title>Node21</title>
<polygon fill="none" stroke="#bfbfbf" points="868,-336.5 868,-355.5 914,-355.5 914,-336.5 868,-336.5"/>
<text text-anchor="middle" x="891" y="-343.5" font-family="Helvetica,sans-Serif" font-size="10.00">stdio.h</text>
</g>
<!-- Node20&#45;&gt;Node21 -->
<g id="edge39" class="edge"><title>Node20&#45;&gt;Node21</title>
<path fill="none" stroke="midnightblue" d="M893.505,-392.083C893.111,-385.006 892.548,-374.861 892.055,-365.986"/>
<polygon fill="midnightblue" stroke="midnightblue" points="895.536,-365.542 891.486,-355.751 888.546,-365.93 895.536,-365.542"/>
</g>
<!-- Node22 -->
<g id="node22" class="node"><title>Node22</title>
<polygon fill="none" stroke="#bfbfbf" points="932,-336.5 932,-355.5 980,-355.5 980,-336.5 932,-336.5"/>
<text text-anchor="middle" x="956" y="-343.5" font-family="Helvetica,sans-Serif" font-size="10.00">stdlib.h</text>
</g>
<!-- Node20&#45;&gt;Node22 -->
<g id="edge41" class="edge"><title>Node20&#45;&gt;Node22</title>
<path fill="none" stroke="midnightblue" d="M903.961,-392.324C913.127,-384.341 926.937,-372.313 938.028,-362.653"/>
<polygon fill="midnightblue" stroke="midnightblue" points="940.615,-365.041 945.857,-355.834 936.018,-359.762 940.615,-365.041"/>
</g>
<!-- Node23 -->
<g id="node23" class="node"><title>Node23</title>
<polygon fill="none" stroke="#bfbfbf" points="998.5,-336.5 998.5,-355.5 1045.5,-355.5 1045.5,-336.5 998.5,-336.5"/>
<text text-anchor="middle" x="1022" y="-343.5" font-family="Helvetica,sans-Serif" font-size="10.00">errno.h</text>
</g>
<!-- Node20&#45;&gt;Node23 -->
<g id="edge42" class="edge"><title>Node20&#45;&gt;Node23</title>
<path fill="none" stroke="midnightblue" d="M914.282,-392.444C935.347,-383.557 968.517,-369.563 992.486,-359.451"/>
<polygon fill="midnightblue" stroke="midnightblue" points="993.96,-362.628 1001.81,-355.516 991.239,-356.179 993.96,-362.628"/>
</g>
<!-- Node20&#45;&gt;Node24 -->
<g id="edge45" class="edge"><title>Node20&#45;&gt;Node24</title>
<path fill="none" stroke="midnightblue" d="M944.863,-392.444C1006.19,-382.126 1108.44,-364.926 1167.99,-354.908"/>
<polygon fill="midnightblue" stroke="midnightblue" points="1168.6,-358.354 1177.88,-353.244 1167.44,-351.451 1168.6,-358.354"/>
</g>
<!-- Node20&#45;&gt;Node25 -->
<g id="edge49" class="edge"><title>Node20&#45;&gt;Node25</title>
<path fill="none" stroke="midnightblue" d="M840.806,-392.485C785.207,-383.548 695.443,-369.015 618,-356 616.704,-355.782 615.39,-355.561 614.064,-355.336"/>
<polygon fill="midnightblue" stroke="midnightblue" points="614.212,-351.811 603.766,-353.581 613.036,-358.712 614.212,-351.811"/>
</g>
<!-- Node26 -->
<g id="node26" class="node"><title>Node26</title>
<g id="a_node26"><a xlink:href="../../d1/d84/socket__timer_8h.html" target="_top" xlink:title="socket_timer.h">
<polygon fill="none" stroke="black" points="990.5,-280.5 990.5,-299.5 1071.5,-299.5 1071.5,-280.5 990.5,-280.5"/>
<text text-anchor="middle" x="1031" y="-287.5" font-family="Helvetica,sans-Serif" font-size="10.00">socket_timer.h</text>
</a>
</g>
</g>
<!-- Node20&#45;&gt;Node26 -->
<g id="edge51" class="edge"><title>Node20&#45;&gt;Node26</title>
<path fill="none" stroke="midnightblue" d="M950.611,-392.438C991.372,-384.982 1041.32,-372.733 1054,-356 1064.79,-341.755 1055.17,-322.018 1045.28,-308.039"/>
<polygon fill="midnightblue" stroke="midnightblue" points="1047.82,-305.599 1038.95,-299.801 1042.27,-309.863 1047.82,-305.599"/>
</g>
<!-- Node24&#45;&gt;Node7 -->
<g id="edge46" class="edge"><title>Node24&#45;&gt;Node7</title>
<path fill="none" stroke="midnightblue" d="M1215,-336.442C1215,-317.936 1215,-272.812 1215,-235 1215,-235 1215,-235 1215,-177 1215,-97.4736 934.885,-74.6458 827.35,-68.8124"/>
<polygon fill="midnightblue" stroke="midnightblue" points="827.366,-65.3086 817.198,-68.2847 827.003,-72.2992 827.366,-65.3086"/>
</g>
<!-- Node25&#45;&gt;Node15 -->
<g id="edge50" class="edge"><title>Node25&#45;&gt;Node15</title>
<path fill="none" stroke="midnightblue" d="M552.986,-336.324C540.468,-327.979 521.318,-315.212 506.529,-305.352"/>
<polygon fill="midnightblue" stroke="midnightblue" points="508.244,-302.289 497.982,-299.655 504.361,-308.114 508.244,-302.289"/>
</g>
<!-- Node26&#45;&gt;Node7 -->
<g id="edge52" class="edge"><title>Node26&#45;&gt;Node7</title>
<path fill="none" stroke="midnightblue" d="M1032.52,-280.147C1036.89,-251.436 1046.4,-160 1000,-112 976.574,-87.7667 882.698,-75.5015 827.367,-70.2602"/>
<polygon fill="midnightblue" stroke="midnightblue" points="827.454,-66.7538 817.178,-69.333 826.82,-73.725 827.454,-66.7538"/>
</g>
<!-- Node27&#45;&gt;Node7 -->
<g id="edge55" class="edge"><title>Node27&#45;&gt;Node7</title>
<path fill="none" stroke="midnightblue" d="M732.551,-168.368C742.038,-150.376 764.092,-108.55 776.706,-84.6267"/>
<polygon fill="midnightblue" stroke="midnightblue" points="779.902,-86.0696 781.47,-75.5914 773.71,-82.8047 779.902,-86.0696"/>
</g>
<!-- Node27&#45;&gt;Node10 -->
<g id="edge56" class="edge"><title>Node27&#45;&gt;Node10</title>
<path fill="none" stroke="midnightblue" d="M705.341,-168.444C681.598,-159.478 644.091,-145.314 617.262,-135.183"/>
<polygon fill="midnightblue" stroke="midnightblue" points="618.144,-131.775 607.553,-131.516 615.671,-138.324 618.144,-131.775"/>
</g>
<!-- Node28&#45;&gt;Node7 -->
<g id="edge58" class="edge"><title>Node28&#45;&gt;Node7</title>
<path fill="none" stroke="midnightblue" d="M865.252,-168.368C850.996,-150.135 817.606,-107.426 799.037,-83.6752"/>
<polygon fill="midnightblue" stroke="midnightblue" points="801.634,-81.3138 792.717,-75.5914 796.119,-85.6253 801.634,-81.3138"/>
</g>
<!-- Node28&#45;&gt;Node10 -->
<g id="edge59" class="edge"><title>Node28&#45;&gt;Node10</title>
<path fill="none" stroke="midnightblue" d="M826.524,-168.444C771.401,-158.072 679.313,-140.745 626.193,-130.751"/>
<polygon fill="midnightblue" stroke="midnightblue" points="626.585,-127.263 616.111,-128.854 625.291,-134.142 626.585,-127.263"/>
</g>
<!-- Node29&#45;&gt;Node7 -->
<g id="edge61" class="edge"><title>Node29&#45;&gt;Node7</title>
<path fill="none" stroke="midnightblue" d="M1144.7,-168.073C1137.21,-153.616 1120.33,-125.353 1097,-112 1051.82,-86.1365 901.134,-73.8249 827.381,-69.2342"/>
<polygon fill="midnightblue" stroke="midnightblue" points="827.272,-65.7213 817.079,-68.6122 826.85,-72.7086 827.272,-65.7213"/>
</g>
<!-- Node29&#45;&gt;Node10 -->
<g id="edge62" class="edge"><title>Node29&#45;&gt;Node10</title>
<path fill="none" stroke="midnightblue" d="M1111.12,-173.373C1009.64,-163.657 732.198,-137.093 626.578,-126.981"/>
<polygon fill="midnightblue" stroke="midnightblue" points="626.606,-123.468 616.318,-125.999 625.939,-130.436 626.606,-123.468"/>
</g>
<!-- Node30&#45;&gt;Node7 -->
<g id="edge65" class="edge"><title>Node30&#45;&gt;Node7</title>
<path fill="none" stroke="midnightblue" d="M736.088,-337.889C779.978,-320.36 887.478,-270.417 929,-188 955.269,-135.857 874.364,-97.3399 823.687,-78.9816"/>
<polygon fill="midnightblue" stroke="midnightblue" points="824.59,-75.5893 813.995,-75.5807 822.272,-82.1945 824.59,-75.5893"/>
</g>
<!-- Node30&#45;&gt;Node10 -->
<g id="edge66" class="edge"><title>Node30&#45;&gt;Node10</title>
<path fill="none" stroke="midnightblue" d="M708.844,-336.479C700.719,-327.742 688.167,-313.552 679,-300 641.884,-245.129 607.982,-173.972 593.043,-141.104"/>
<polygon fill="midnightblue" stroke="midnightblue" points="596.174,-139.532 588.879,-131.848 589.79,-142.403 596.174,-139.532"/>
</g>
<!-- Node31 -->
<g id="node31" class="node"><title>Node31</title>
<g id="a_node31"><a xlink:href="../../d7/df9/encap_8h.html" target="_top" xlink:title="This file contains the public interface of the encapsulation layer. ">
<polygon fill="none" stroke="black" points="688.5,-280.5 688.5,-299.5 739.5,-299.5 739.5,-280.5 688.5,-280.5"/>
<text text-anchor="middle" x="714" y="-287.5" font-family="Helvetica,sans-Serif" font-size="10.00">encap.h</text>
</a>
</g>
</g>
<!-- Node30&#45;&gt;Node31 -->
<g id="edge67" class="edge"><title>Node30&#45;&gt;Node31</title>
<path fill="none" stroke="midnightblue" d="M716.505,-336.083C716.111,-329.006 715.548,-318.861 715.055,-309.986"/>
<polygon fill="midnightblue" stroke="midnightblue" points="718.536,-309.542 714.486,-299.751 711.546,-309.93 718.536,-309.542"/>
</g>
<!-- Node31&#45;&gt;Node7 -->
<g id="edge68" class="edge"><title>Node31&#45;&gt;Node7</title>
<path fill="none" stroke="midnightblue" d="M721.532,-280.29C735.397,-263.67 764.67,-225.715 777,-188 788.358,-153.258 788.454,-110.022 787.336,-85.7685"/>
<polygon fill="midnightblue" stroke="midnightblue" points="790.83,-85.5619 786.754,-75.7827 783.842,-85.9695 790.83,-85.5619"/>
</g>
<!-- Node31&#45;&gt;Node16 -->
<g id="edge69" class="edge"><title>Node31&#45;&gt;Node16</title>
<path fill="none" stroke="midnightblue" d="M688.176,-282.91C650.144,-273.942 578.479,-257.043 531.235,-245.903"/>
<polygon fill="midnightblue" stroke="midnightblue" points="531.79,-242.437 521.253,-243.549 530.183,-249.251 531.79,-242.437"/>
</g>
<!-- Node32&#45;&gt;Node13 -->
<g id="edge71" class="edge"><title>Node32&#45;&gt;Node13</title>
<path fill="none" stroke="midnightblue" d="M53.0334,-224.385C56.0932,-202.569 67.0543,-144.572 100,-112 160.355,-52.3292 258.296,-27.7099 321.673,-17.6905"/>
<polygon fill="midnightblue" stroke="midnightblue" points="322.555,-21.0972 331.924,-16.1493 321.514,-14.175 322.555,-21.0972"/>
</g>
</g>
</svg>
