<?xml version="1.0" encoding="UTF-8" standalone="no"?>
<!DOCTYPE svg PUBLIC "-//W3C//DTD SVG 1.1//EN"
 "http://www.w3.org/Graphics/SVG/1.1/DTD/svg11.dtd">
<!-- Generated by graphviz version 2.26.3 (20100126.1600)
 -->
<!-- Title: G Pages: 1 -->
<!--zoomable 436 -->
<svg id="main" version="1.1" xmlns="http://www.w3.org/2000/svg" xmlns:xlink="http://www.w3.org/1999/xlink" xml:space="preserve" onload="init(evt)">
        <defs>
                <circle id="rim" cx="0" cy="0" r="7"/>
                <circle id="rim2" cx="0" cy="0" r="3.5"/>
                <g id="zoomPlus">
                        <use xlink:href="#rim" fill="#404040">
                                <set attributeName="fill" to="#808080" begin="zoomplus.mouseover" end="zoomplus.mouseout"/>
                        </use>
                        <path d="M-4,0h8M0,-4v8" fill="none" stroke="white" stroke-width="1.5" pointer-events="none"/>
                </g>
                <g id="zoomMin">
                        <use xlink:href="#rim" fill="#404040">
                                <set attributeName="fill" to="#808080" begin="zoomminus.mouseover" end="zoomminus.mouseout"/>
                        </use>
                        <path d="M-4,0h8" fill="none" stroke="white" stroke-width="1.5" pointer-events="none"/>
                </g>
                <g id="dirArrow">
                        <path fill="none" stroke="white" stroke-width="1.5" d="M0,-3.0v7 M-2.5,-0.5L0,-3.0L2.5,-0.5"/>
                </g>
               <g id="resetDef">
                       <use xlink:href="#rim2" fill="#404040">
                               <set attributeName="fill" to="#808080" begin="reset.mouseover" end="reset.mouseout"/>
                       </use>
               </g>
        </defs>

<script type="text/javascript">
var viewWidth = 1014;
var viewHeight = 436;
var sectionId = 'dynsection-0';
</script>
<script xlink:href="../../svgpan.js"/>
<svg id="graph" class="graph">
<g id="viewport">
<title>G</title>
<!-- Node1 -->
<g id="node1" class="node"><title>Node1</title>
<polygon fill="#bfbfbf" stroke="black" points="662.814,-406.5 662.814,-427.5 787.814,-427.5 787.814,-406.5 662.814,-406.5"/>
<text text-anchor="middle" x="725.314" y="-414.5" font-family="Helvetica,sans-Serif" font-size="10.00">src/cip/cipioconnection.c</text>
</g>
<!-- Node2 -->
<g id="node3" class="node"><title>Node2</title>
<polygon fill="none" stroke="#bfbfbf" points="104.814,-290.5 104.814,-311.5 153.814,-311.5 153.814,-290.5 104.814,-290.5"/>
<text text-anchor="middle" x="129.314" y="-298.5" font-family="Helvetica,sans-Serif" font-size="10.00">string.h</text>
</g>
<!-- Node1&#45;&gt;Node2 -->
<g id="edge2" class="edge"><title>Node1&#45;&gt;Node2</title>
<path fill="none" stroke="midnightblue" d="M662.504,-415.092C579.596,-411.416 429.601,-400.749 305.314,-370 252.605,-356.959 194.515,-331.955 160.015,-315.898"/>
<polygon fill="midnightblue" stroke="midnightblue" points="161.472,-312.715 150.933,-311.623 158.491,-319.049 161.472,-312.715"/>
</g>
<!-- Node3 -->
<g id="node5" class="node"><title>Node3</title>
<a xlink:href="../../de/d45/cipioconnection_8h.html" target="_top" xlink:title="cipioconnection.h">
<polygon fill="none" stroke="black" points="679.314,-290.5 679.314,-311.5 771.314,-311.5 771.314,-290.5 679.314,-290.5"/>
<text text-anchor="middle" x="725.314" y="-298.5" font-family="Helvetica,sans-Serif" font-size="10.00">cipioconnection.h</text>
</a>
</g>
<!-- Node1&#45;&gt;Node3 -->
<g id="edge4" class="edge"><title>Node1&#45;&gt;Node3</title>
<path fill="none" stroke="midnightblue" d="M725.314,-406.295C725.314,-387.131 725.314,-346.654 725.314,-321.843"/>
<polygon fill="midnightblue" stroke="midnightblue" points="728.815,-321.679 725.314,-311.679 721.815,-321.679 728.815,-321.679"/>
</g>
<!-- Node12 -->
<g id="node24" class="node"><title>Node12</title>
<a xlink:href="../../d2/da3/cipconnectionmanager_8h.html" target="_top" xlink:title="cipconnectionmanager.h">
<polygon fill="none" stroke="black" points="546.314,-232.5 546.314,-253.5 668.314,-253.5 668.314,-232.5 546.314,-232.5"/>
<text text-anchor="middle" x="607.314" y="-240.5" font-family="Helvetica,sans-Serif" font-size="10.00">cipconnectionmanager.h</text>
</a>
</g>
<!-- Node1&#45;&gt;Node12 -->
<g id="edge60" class="edge"><title>Node1&#45;&gt;Node12</title>
<path fill="none" stroke="midnightblue" d="M736.954,-406.217C760.507,-383.097 809.21,-327.793 780.314,-290 767.583,-273.348 720.352,-261.207 678.453,-253.441"/>
<polygon fill="midnightblue" stroke="midnightblue" points="678.959,-249.976 668.499,-251.657 677.725,-256.866 678.959,-249.976"/>
</g>
<!-- Node13 -->
<g id="node30" class="node"><title>Node13</title>
<a xlink:href="../../da/dc2/generic__networkhandler_8h.html" target="_top" xlink:title="generic_networkhandler.h">
<polygon fill="none" stroke="black" points="314.314,-348.5 314.314,-369.5 442.314,-369.5 442.314,-348.5 314.314,-348.5"/>
<text text-anchor="middle" x="378.314" y="-356.5" font-family="Helvetica,sans-Serif" font-size="10.00">generic_networkhandler.h</text>
</a>
</g>
<!-- Node1&#45;&gt;Node13 -->
<g id="edge34" class="edge"><title>Node1&#45;&gt;Node13</title>
<path fill="none" stroke="midnightblue" d="M662.475,-406.497C603.089,-396.57 514.015,-381.682 451.462,-371.226"/>
<polygon fill="midnightblue" stroke="midnightblue" points="451.712,-367.72 441.271,-369.523 450.557,-374.624 451.712,-367.72"/>
</g>
<!-- Node17 -->
<g id="node41" class="node"><title>Node17</title>
<a xlink:href="../../d0/dec/endianconv_8h.html" target="_top" xlink:title="Responsible for Endianess conversion.">
<polygon fill="none" stroke="black" points="13.3144,-290.5 13.3144,-311.5 87.3144,-311.5 87.3144,-290.5 13.3144,-290.5"/>
<text text-anchor="middle" x="50.3144" y="-298.5" font-family="Helvetica,sans-Serif" font-size="10.00">endianconv.h</text>
</a>
</g>
<!-- Node1&#45;&gt;Node17 -->
<g id="edge96" class="edge"><title>Node1&#45;&gt;Node17</title>
<path fill="none" stroke="midnightblue" d="M662.782,-413.156C548.839,-405.802 311.746,-388.793 231.314,-370 176.986,-357.306 117.057,-332.086 81.6038,-315.907"/>
<polygon fill="midnightblue" stroke="midnightblue" points="82.8243,-312.616 72.2781,-311.601 79.89,-318.971 82.8243,-312.616"/>
</g>
<!-- Node19 -->
<g id="node47" class="node"><title>Node19</title>
<a xlink:href="../../d1/dc0/appcontype_8h.html" target="_top" xlink:title="appcontype.h">
<polygon fill="none" stroke="black" points="586.814,-290.5 586.814,-311.5 661.814,-311.5 661.814,-290.5 586.814,-290.5"/>
<text text-anchor="middle" x="624.314" y="-298.5" font-family="Helvetica,sans-Serif" font-size="10.00">appcontype.h</text>
</a>
</g>
<!-- Node1&#45;&gt;Node19 -->
<g id="edge80" class="edge"><title>Node1&#45;&gt;Node19</title>
<path fill="none" stroke="midnightblue" d="M715.994,-406.295C698.707,-386.441 661.501,-343.709 640.182,-319.224"/>
<polygon fill="midnightblue" stroke="midnightblue" points="642.819,-316.923 633.613,-311.679 637.54,-321.519 642.819,-316.923"/>
</g>
<!-- Node20 -->
<g id="node51" class="node"><title>Node20</title>
<a xlink:href="../../de/df4/cipassembly_8h.html" target="_top" xlink:title="cipassembly.h">
<polygon fill="none" stroke="black" points="664.314,-174.5 664.314,-195.5 744.314,-195.5 744.314,-174.5 664.314,-174.5"/>
<text text-anchor="middle" x="704.314" y="-182.5" font-family="Helvetica,sans-Serif" font-size="10.00">cipassembly.h</text>
</a>
</g>
<!-- Node1&#45;&gt;Node20 -->
<g id="edge62" class="edge"><title>Node1&#45;&gt;Node20</title>
<path fill="none" stroke="midnightblue" d="M746.854,-406.479C760.929,-398.455 778.467,-386.051 788.314,-370 807.052,-339.458 811.108,-323.471 798.314,-290 784.077,-252.751 749.867,-220.372 726.887,-201.76"/>
<polygon fill="midnightblue" stroke="midnightblue" points="729.009,-198.976 718.986,-195.542 724.68,-204.477 729.009,-198.976"/>
</g>
<!-- Node21 -->
<g id="node55" class="node"><title>Node21</title>
<a xlink:href="../../d1/dad/ciptcpipinterface_8h.html" target="_top" xlink:title="Public interface of the TCP/IP Interface Object.">
<polygon fill="none" stroke="black" points="762.314,-174.5 762.314,-195.5 858.314,-195.5 858.314,-174.5 762.314,-174.5"/>
<text text-anchor="middle" x="810.314" y="-182.5" font-family="Helvetica,sans-Serif" font-size="10.00">ciptcpipinterface.h</text>
</a>
</g>
<!-- Node1&#45;&gt;Node21 -->
<g id="edge68" class="edge"><title>Node1&#45;&gt;Node21</title>
<path fill="none" stroke="midnightblue" d="M757.914,-406.383C775.384,-398.975 795.656,-387.273 807.314,-370 841.351,-319.57 826.665,-242.493 816.721,-205.805"/>
<polygon fill="midnightblue" stroke="midnightblue" points="819.969,-204.437 813.846,-195.79 813.241,-206.368 819.969,-204.437"/>
</g>
<!-- Node22 -->
<g id="node59" class="node"><title>Node22</title>
<a xlink:href="../../db/d14/cipcommon_8h.html" target="_top" xlink:title="cipcommon.h">
<polygon fill="none" stroke="black" points="875.814,-174.5 875.814,-195.5 950.814,-195.5 950.814,-174.5 875.814,-174.5"/>
<text text-anchor="middle" x="913.314" y="-182.5" font-family="Helvetica,sans-Serif" font-size="10.00">cipcommon.h</text>
</a>
</g>
<!-- Node1&#45;&gt;Node22 -->
<g id="edge74" class="edge"><title>Node1&#45;&gt;Node22</title>
<path fill="none" stroke="midnightblue" d="M763.149,-406.428C783.918,-399.036 808.911,-387.333 826.314,-370 874.173,-322.334 898.956,-243.297 908.523,-205.875"/>
<polygon fill="midnightblue" stroke="midnightblue" points="912.041,-206.223 911.012,-195.678 905.24,-204.563 912.041,-206.223"/>
</g>
<!-- Node23 -->
<g id="node64" class="node"><title>Node23</title>
<a xlink:href="../../d0/dff/cpf_8h.html" target="_top" xlink:title="cpf.h">
<polygon fill="none" stroke="black" points="968.314,-174.5 968.314,-195.5 1006.31,-195.5 1006.31,-174.5 968.314,-174.5"/>
<text text-anchor="middle" x="987.314" y="-182.5" font-family="Helvetica,sans-Serif" font-size="10.00">cpf.h</text>
</a>
</g>
<!-- Node1&#45;&gt;Node23 -->
<g id="edge82" class="edge"><title>Node1&#45;&gt;Node23</title>
<path fill="none" stroke="midnightblue" d="M770.849,-406.461C795.753,-399.124 826.153,-387.465 849.314,-370 910.726,-323.691 957.63,-242.817 977.255,-205.249"/>
<polygon fill="midnightblue" stroke="midnightblue" points="980.617,-206.362 982.056,-195.866 974.385,-203.174 980.617,-206.362"/>
</g>
<!-- Node25 -->
<g id="node71" class="node"><title>Node25</title>
<a xlink:href="../../d1/d1b/trace_8h.html" target="_top" xlink:title="Tracing infrastructure for OpENer.">
<polygon fill="none" stroke="black" points="15.8144,-232.5 15.8144,-253.5 62.8144,-253.5 62.8144,-232.5 15.8144,-232.5"/>
<text text-anchor="middle" x="39.3144" y="-240.5" font-family="Helvetica,sans-Serif" font-size="10.00">trace.h</text>
</a>
</g>
<!-- Node1&#45;&gt;Node25 -->
<g id="edge92" class="edge"><title>Node1&#45;&gt;Node25</title>
<path fill="none" stroke="midnightblue" d="M662.667,-414.083C535.355,-407.787 250.423,-391.718 155.314,-370 85.2269,-353.996 45.028,-371.252 4.31441,-312 -6.91764,-295.654 6.45093,-275.209 19.7784,-260.832"/>
<polygon fill="midnightblue" stroke="midnightblue" points="22.4618,-263.097 27.0218,-253.533 17.4933,-258.166 22.4618,-263.097"/>
</g>
<!-- Node4 -->
<g id="node7" class="node"><title>Node4</title>
<a xlink:href="../../d4/d38/opener__api_8h.html" target="_top" xlink:title="opener_api.h">
<polygon fill="none" stroke="black" points="490.314,-174.5 490.314,-195.5 562.314,-195.5 562.314,-174.5 490.314,-174.5"/>
<text text-anchor="middle" x="526.314" y="-182.5" font-family="Helvetica,sans-Serif" font-size="10.00">opener_api.h</text>
</a>
</g>
<!-- Node3&#45;&gt;Node4 -->
<g id="edge6" class="edge"><title>Node3&#45;&gt;Node4</title>
<path fill="none" stroke="midnightblue" d="M720.737,-290.472C713.625,-275.331 698.502,-247.525 677.314,-232 646.439,-209.376 604.411,-197.455 572.533,-191.288"/>
<polygon fill="midnightblue" stroke="midnightblue" points="573.03,-187.822 562.567,-189.482 571.782,-194.709 573.03,-187.822"/>
</g>
<!-- Node3&#45;&gt;Node12 -->
<g id="edge24" class="edge"><title>Node3&#45;&gt;Node12</title>
<path fill="none" stroke="midnightblue" d="M703.946,-290.497C685.515,-281.438 658.677,-268.246 637.959,-258.063"/>
<polygon fill="midnightblue" stroke="midnightblue" points="639.442,-254.891 628.923,-253.621 636.354,-261.174 639.442,-254.891"/>
</g>
<!-- Node5 -->
<g id="node9" class="node"><title>Node5</title>
<polygon fill="none" stroke="#bfbfbf" points="442.314,-116.5 442.314,-137.5 494.314,-137.5 494.314,-116.5 442.314,-116.5"/>
<text text-anchor="middle" x="468.314" y="-124.5" font-family="Helvetica,sans-Serif" font-size="10.00">assert.h</text>
</g>
<!-- Node4&#45;&gt;Node5 -->
<g id="edge8" class="edge"><title>Node4&#45;&gt;Node5</title>
<path fill="none" stroke="midnightblue" d="M515.676,-174.362C507.419,-166.104 495.787,-154.472 486.117,-144.803"/>
<polygon fill="midnightblue" stroke="midnightblue" points="488.431,-142.167 478.885,-137.571 483.481,-147.117 488.431,-142.167"/>
</g>
<!-- Node6 -->
<g id="node11" class="node"><title>Node6</title>
<a xlink:href="../../d7/d69/typedefs_8h.html" target="_top" xlink:title="typedefs.h">
<polygon fill="none" stroke="black" points="690.314,-58.5 690.314,-79.5 752.314,-79.5 752.314,-58.5 690.314,-58.5"/>
<text text-anchor="middle" x="721.314" y="-66.5" font-family="Helvetica,sans-Serif" font-size="10.00">typedefs.h</text>
</a>
</g>
<!-- Node4&#45;&gt;Node6 -->
<g id="edge10" class="edge"><title>Node4&#45;&gt;Node6</title>
<path fill="none" stroke="midnightblue" d="M525.446,-174.325C524.842,-159.26 526.122,-131.834 541.314,-116 560.272,-96.242 633.081,-82.0385 680.09,-74.6992"/>
<polygon fill="midnightblue" stroke="midnightblue" points="680.629,-78.1575 689.99,-73.195 679.577,-71.237 680.629,-78.1575"/>
</g>
<!-- Node9 -->
<g id="node17" class="node"><title>Node9</title>
<a xlink:href="../../df/d28/ciptypes_8h.html" target="_top" xlink:title="ciptypes.h">
<polygon fill="none" stroke="black" points="720.314,-116.5 720.314,-137.5 782.314,-137.5 782.314,-116.5 720.314,-116.5"/>
<text text-anchor="middle" x="751.314" y="-124.5" font-family="Helvetica,sans-Serif" font-size="10.00">ciptypes.h</text>
</a>
</g>
<!-- Node4&#45;&gt;Node9 -->
<g id="edge16" class="edge"><title>Node4&#45;&gt;Node9</title>
<path fill="none" stroke="midnightblue" d="M562.465,-175.681C602.831,-165.276 668.028,-148.469 710.278,-137.578"/>
<polygon fill="midnightblue" stroke="midnightblue" points="711.162,-140.965 719.972,-135.079 709.415,-134.186 711.162,-140.965"/>
</g>
<!-- Node10 -->
<g id="node20" class="node"><title>Node10</title>
<a xlink:href="../../d6/d52/ciperror_8h.html" target="_top" xlink:title="ciperror.h">
<polygon fill="none" stroke="black" points="549.814,-116.5 549.814,-137.5 606.814,-137.5 606.814,-116.5 549.814,-116.5"/>
<text text-anchor="middle" x="578.314" y="-124.5" font-family="Helvetica,sans-Serif" font-size="10.00">ciperror.h</text>
</a>
</g>
<!-- Node4&#45;&gt;Node10 -->
<g id="edge20" class="edge"><title>Node4&#45;&gt;Node10</title>
<path fill="none" stroke="midnightblue" d="M535.852,-174.362C543.182,-166.186 553.478,-154.702 562.095,-145.091"/>
<polygon fill="midnightblue" stroke="midnightblue" points="564.768,-147.353 568.837,-137.571 559.556,-142.68 564.768,-147.353"/>
</g>
<!-- Node11 -->
<g id="node22" class="node"><title>Node11</title>
<polygon fill="none" stroke="#bfbfbf" points="322.314,-116.5 322.314,-137.5 424.314,-137.5 424.314,-116.5 322.314,-116.5"/>
<text text-anchor="middle" x="373.314" y="-124.5" font-family="Helvetica,sans-Serif" font-size="10.00">opener_user_conf.h</text>
</g>
<!-- Node4&#45;&gt;Node11 -->
<g id="edge22" class="edge"><title>Node4&#45;&gt;Node11</title>
<path fill="none" stroke="midnightblue" d="M498.607,-174.497C473.988,-165.164 437.798,-151.445 410.634,-141.147"/>
<polygon fill="midnightblue" stroke="midnightblue" points="411.665,-137.795 401.074,-137.523 409.184,-144.341 411.665,-137.795"/>
</g>
<!-- Node7 -->
<g id="node13" class="node"><title>Node7</title>
<polygon fill="none" stroke="#bfbfbf" points="655.814,-0.5 655.814,-21.5 714.814,-21.5 714.814,-0.5 655.814,-0.5"/>
<text text-anchor="middle" x="685.314" y="-8.5" font-family="Helvetica,sans-Serif" font-size="10.00">inttypes.h</text>
</g>
<!-- Node6&#45;&gt;Node7 -->
<g id="edge12" class="edge"><title>Node6&#45;&gt;Node7</title>
<path fill="none" stroke="midnightblue" d="M714.711,-58.3619C709.84,-50.5131 703.076,-39.6159 697.264,-30.2527"/>
<polygon fill="midnightblue" stroke="midnightblue" points="700.123,-28.2213 691.876,-21.5707 694.175,-31.9129 700.123,-28.2213"/>
</g>
<!-- Node8 -->
<g id="node15" class="node"><title>Node8</title>
<polygon fill="none" stroke="#bfbfbf" points="732.314,-0.5 732.314,-21.5 784.314,-21.5 784.314,-0.5 732.314,-0.5"/>
<text text-anchor="middle" x="758.314" y="-8.5" font-family="Helvetica,sans-Serif" font-size="10.00">stddef.h</text>
</g>
<!-- Node6&#45;&gt;Node8 -->
<g id="edge14" class="edge"><title>Node6&#45;&gt;Node8</title>
<path fill="none" stroke="midnightblue" d="M728.101,-58.3619C733.108,-50.5131 740.059,-39.6159 746.032,-30.2527"/>
<polygon fill="midnightblue" stroke="midnightblue" points="749.144,-31.8837 751.571,-21.5707 743.242,-28.1189 749.144,-31.8837"/>
</g>
<!-- Node9&#45;&gt;Node6 -->
<g id="edge18" class="edge"><title>Node9&#45;&gt;Node6</title>
<path fill="none" stroke="midnightblue" d="M745.812,-116.362C741.795,-108.595 736.233,-97.8426 731.424,-88.5458"/>
<polygon fill="midnightblue" stroke="midnightblue" points="734.485,-86.8448 726.782,-79.5707 728.268,-90.0608 734.485,-86.8448"/>
</g>
<!-- Node12&#45;&gt;Node4 -->
<g id="edge28" class="edge"><title>Node12&#45;&gt;Node4</title>
<path fill="none" stroke="midnightblue" d="M592.458,-232.362C580.469,-223.777 563.387,-211.546 549.586,-201.664"/>
<polygon fill="midnightblue" stroke="midnightblue" points="551.245,-198.547 541.077,-195.571 547.17,-204.238 551.245,-198.547"/>
</g>
<!-- Node12&#45;&gt;Node6 -->
<g id="edge30" class="edge"><title>Node12&#45;&gt;Node6</title>
<path fill="none" stroke="midnightblue" d="M609.534,-232.173C612.721,-218.106 619.437,-193.09 630.314,-174 649.924,-139.585 681.817,-106.12 702.168,-86.5451"/>
<polygon fill="midnightblue" stroke="midnightblue" points="704.743,-88.9272 709.606,-79.5144 699.934,-83.8399 704.743,-88.9272"/>
</g>
<!-- Node12&#45;&gt;Node9 -->
<g id="edge32" class="edge"><title>Node12&#45;&gt;Node9</title>
<path fill="none" stroke="midnightblue" d="M612.477,-232.397C620.096,-217.666 635.601,-190.914 655.314,-174 671.43,-160.172 692.321,-149.315 710.497,-141.536"/>
<polygon fill="midnightblue" stroke="midnightblue" points="712.067,-144.675 719.99,-137.641 709.41,-138.199 712.067,-144.675"/>
</g>
<!-- Node12&#45;&gt;Node11 -->
<g id="edge26" class="edge"><title>Node12&#45;&gt;Node11</title>
<path fill="none" stroke="midnightblue" d="M573.071,-232.413C547.254,-223.914 511.294,-210.957 481.314,-196 450.479,-180.616 417.425,-158.592 396.123,-143.593"/>
<polygon fill="midnightblue" stroke="midnightblue" points="397.93,-140.583 387.754,-137.634 393.87,-146.285 397.93,-140.583"/>
</g>
<!-- Node13&#45;&gt;Node2 -->
<g id="edge38" class="edge"><title>Node13&#45;&gt;Node2</title>
<path fill="none" stroke="midnightblue" d="M321.969,-348.465C280.456,-340.311 222.481,-328.107 163.883,-312.258"/>
<polygon fill="midnightblue" stroke="midnightblue" points="164.662,-308.843 154.093,-309.577 162.814,-315.594 164.662,-308.843"/>
</g>
<!-- Node13&#45;&gt;Node4 -->
<g id="edge44" class="edge"><title>Node13&#45;&gt;Node4</title>
<path fill="none" stroke="midnightblue" d="M367.046,-348.43C353.767,-334.64 334.871,-309.924 346.314,-290 374.9,-240.231 437.181,-211.823 480.418,-197.414"/>
<polygon fill="midnightblue" stroke="midnightblue" points="481.694,-200.68 490.151,-194.298 479.56,-194.014 481.694,-200.68"/>
</g>
<!-- Node13&#45;&gt;Node6 -->
<g id="edge46" class="edge"><title>Node13&#45;&gt;Node6</title>
<path fill="none" stroke="midnightblue" d="M361.99,-348.314C336.297,-330.055 289.314,-290.213 289.314,-243 289.314,-243 289.314,-243 289.314,-185 289.314,-152.531 287.973,-136.299 313.314,-116 341.57,-93.366 581.794,-77.0631 679.868,-71.2919"/>
<polygon fill="midnightblue" stroke="midnightblue" points="680.225,-74.7772 690.006,-70.7032 679.82,-67.7889 680.225,-74.7772"/>
</g>
<!-- Node13&#45;&gt;Node12 -->
<g id="edge52" class="edge"><title>Node13&#45;&gt;Node12</title>
<path fill="none" stroke="midnightblue" d="M386.164,-348.492C397.998,-333.376 421.856,-305.602 448.314,-290 475.263,-274.109 507.988,-263.239 536.728,-255.992"/>
<polygon fill="midnightblue" stroke="midnightblue" points="537.814,-259.33 546.711,-253.577 536.169,-252.526 537.814,-259.33"/>
</g>
<!-- Node14 -->
<g id="node32" class="node"><title>Node14</title>
<polygon fill="none" stroke="#bfbfbf" points="355.314,-290.5 355.314,-311.5 401.314,-311.5 401.314,-290.5 355.314,-290.5"/>
<text text-anchor="middle" x="378.314" y="-298.5" font-family="Helvetica,sans-Serif" font-size="10.00">stdio.h</text>
</g>
<!-- Node13&#45;&gt;Node14 -->
<g id="edge36" class="edge"><title>Node13&#45;&gt;Node14</title>
<path fill="none" stroke="midnightblue" d="M378.314,-348.362C378.314,-340.922 378.314,-330.743 378.314,-321.728"/>
<polygon fill="midnightblue" stroke="midnightblue" points="381.815,-321.571 378.314,-311.571 374.815,-321.571 381.815,-321.571"/>
</g>
<!-- Node15 -->
<g id="node35" class="node"><title>Node15</title>
<polygon fill="none" stroke="#bfbfbf" points="457.314,-290.5 457.314,-311.5 505.314,-311.5 505.314,-290.5 457.314,-290.5"/>
<text text-anchor="middle" x="481.314" y="-298.5" font-family="Helvetica,sans-Serif" font-size="10.00">stdlib.h</text>
</g>
<!-- Node13&#45;&gt;Node15 -->
<g id="edge40" class="edge"><title>Node13&#45;&gt;Node15</title>
<path fill="none" stroke="midnightblue" d="M397.206,-348.362C413.032,-339.45 435.837,-326.609 453.709,-316.545"/>
<polygon fill="midnightblue" stroke="midnightblue" points="455.546,-319.527 462.542,-311.571 452.112,-313.428 455.546,-319.527"/>
</g>
<!-- Node16 -->
<g id="node37" class="node"><title>Node16</title>
<polygon fill="none" stroke="#bfbfbf" points="522.814,-290.5 522.814,-311.5 569.814,-311.5 569.814,-290.5 522.814,-290.5"/>
<text text-anchor="middle" x="546.314" y="-298.5" font-family="Helvetica,sans-Serif" font-size="10.00">errno.h</text>
</g>
<!-- Node13&#45;&gt;Node16 -->
<g id="edge42" class="edge"><title>Node13&#45;&gt;Node16</title>
<path fill="none" stroke="midnightblue" d="M408.738,-348.497C438.132,-338.349 482.547,-323.015 512.908,-312.533"/>
<polygon fill="midnightblue" stroke="midnightblue" points="514.314,-315.751 522.624,-309.179 512.029,-309.134 514.314,-315.751"/>
</g>
<!-- Node13&#45;&gt;Node17 -->
<g id="edge48" class="edge"><title>Node13&#45;&gt;Node17</title>
<path fill="none" stroke="midnightblue" d="M314.242,-349.622C259.284,-341.281 177.763,-328.209 97.6868,-312.181"/>
<polygon fill="midnightblue" stroke="midnightblue" points="97.9173,-308.657 87.4223,-310.108 96.5317,-315.518 97.9173,-308.657"/>
</g>
<!-- Node18 -->
<g id="node45" class="node"><title>Node18</title>
<polygon fill="none" stroke="#bfbfbf" points="170.814,-290.5 170.814,-311.5 261.814,-311.5 261.814,-290.5 170.814,-290.5"/>
<text text-anchor="middle" x="216.314" y="-298.5" font-family="Helvetica,sans-Serif" font-size="10.00">networkhandler.h</text>
</g>
<!-- Node13&#45;&gt;Node18 -->
<g id="edge54" class="edge"><title>Node13&#45;&gt;Node18</title>
<path fill="none" stroke="midnightblue" d="M348.977,-348.497C322.796,-339.123 284.255,-325.324 255.452,-315.012"/>
<polygon fill="midnightblue" stroke="midnightblue" points="256.301,-311.599 245.706,-311.523 253.941,-318.189 256.301,-311.599"/>
</g>
<!-- Node13&#45;&gt;Node19 -->
<g id="edge56" class="edge"><title>Node13&#45;&gt;Node19</title>
<path fill="none" stroke="midnightblue" d="M423.602,-348.411C461.929,-339.437 518.596,-326.141 576.587,-312.404"/>
<polygon fill="midnightblue" stroke="midnightblue" points="577.738,-315.728 586.662,-310.017 576.124,-308.917 577.738,-315.728"/>
</g>
<!-- Node17&#45;&gt;Node6 -->
<g id="edge50" class="edge"><title>Node17&#45;&gt;Node6</title>
<path fill="none" stroke="midnightblue" d="M59.2058,-290.153C87.0178,-257.106 176.424,-157.411 275.314,-116 347.911,-85.5999 584.003,-73.9029 680.079,-70.3279"/>
<polygon fill="midnightblue" stroke="midnightblue" points="680.411,-73.8183 690.278,-69.9595 680.158,-66.8229 680.411,-73.8183"/>
</g>
<!-- Node19&#45;&gt;Node12 -->
<g id="edge58" class="edge"><title>Node19&#45;&gt;Node12</title>
<path fill="none" stroke="midnightblue" d="M621.196,-290.362C618.992,-282.84 615.966,-272.519 613.303,-263.431"/>
<polygon fill="midnightblue" stroke="midnightblue" points="616.584,-262.182 610.413,-253.571 609.867,-264.151 616.584,-262.182"/>
</g>
<!-- Node20&#45;&gt;Node6 -->
<g id="edge64" class="edge"><title>Node20&#45;&gt;Node6</title>
<path fill="none" stroke="midnightblue" d="M705.046,-174.197C706.051,-160.575 708.11,-136.46 711.314,-116 712.679,-107.289 714.621,-97.7604 716.431,-89.5733"/>
<polygon fill="midnightblue" stroke="midnightblue" points="719.857,-90.2942 718.676,-79.7654 713.033,-88.7327 719.857,-90.2942"/>
</g>
<!-- Node20&#45;&gt;Node9 -->
<g id="edge66" class="edge"><title>Node20&#45;&gt;Node9</title>
<path fill="none" stroke="midnightblue" d="M712.935,-174.362C719.494,-166.268 728.68,-154.932 736.421,-145.38"/>
<polygon fill="midnightblue" stroke="midnightblue" points="739.172,-147.544 742.749,-137.571 733.733,-143.136 739.172,-147.544"/>
</g>
<!-- Node21&#45;&gt;Node6 -->
<g id="edge70" class="edge"><title>Node21&#45;&gt;Node6</title>
<path fill="none" stroke="midnightblue" d="M809.652,-174.196C808.282,-159.704 804.093,-133.746 791.314,-116 781.862,-102.874 767.528,-92.3229 754.287,-84.5691"/>
<polygon fill="midnightblue" stroke="midnightblue" points="755.816,-81.4151 745.369,-79.6508 752.435,-87.5448 755.816,-81.4151"/>
</g>
<!-- Node21&#45;&gt;Node9 -->
<g id="edge72" class="edge"><title>Node21&#45;&gt;Node9</title>
<path fill="none" stroke="midnightblue" d="M799.493,-174.362C791.093,-166.104 779.261,-154.472 769.424,-144.803"/>
<polygon fill="midnightblue" stroke="midnightblue" points="771.652,-142.085 762.067,-137.571 766.745,-147.077 771.652,-142.085"/>
</g>
<!-- Node22&#45;&gt;Node6 -->
<g id="edge76" class="edge"><title>Node22&#45;&gt;Node6</title>
<path fill="none" stroke="midnightblue" d="M898.619,-174.445C878.914,-160.459 842.659,-135.303 810.314,-116 791.324,-104.667 769.358,-93.052 752,-84.204"/>
<polygon fill="midnightblue" stroke="midnightblue" points="753.382,-80.981 742.878,-79.5925 750.223,-87.228 753.382,-80.981"/>
</g>
<!-- Node22&#45;&gt;Node9 -->
<g id="edge78" class="edge"><title>Node22&#45;&gt;Node9</title>
<path fill="none" stroke="midnightblue" d="M883.977,-174.497C857.796,-165.123 819.255,-151.324 790.452,-141.012"/>
<polygon fill="midnightblue" stroke="midnightblue" points="791.301,-137.599 780.706,-137.523 788.941,-144.189 791.301,-137.599"/>
</g>
<!-- Node23&#45;&gt;Node6 -->
<g id="edge84" class="edge"><title>Node23&#45;&gt;Node6</title>
<path fill="none" stroke="midnightblue" d="M968.14,-175.425C940.412,-161.696 887.391,-135.884 841.314,-116 814.231,-104.313 783.218,-92.198 759.505,-83.1959"/>
<polygon fill="midnightblue" stroke="midnightblue" points="760.74,-79.9212 750.149,-79.6615 758.267,-86.4696 760.74,-79.9212"/>
</g>
<!-- Node23&#45;&gt;Node9 -->
<g id="edge86" class="edge"><title>Node23&#45;&gt;Node9</title>
<path fill="none" stroke="midnightblue" d="M968.171,-177.036C965.231,-175.942 962.21,-174.89 959.314,-174 902.268,-156.461 834.587,-142.374 792.286,-134.346"/>
<polygon fill="midnightblue" stroke="midnightblue" points="792.834,-130.888 782.36,-132.485 791.544,-137.768 792.834,-130.888"/>
</g>
<!-- Node24 -->
<g id="node68" class="node"><title>Node24</title>
<a xlink:href="../../d7/df9/encap_8h.html" target="_top" xlink:title="This file contains the public interface of the encapsulation layer.">
<polygon fill="none" stroke="black" points="937.814,-116.5 937.814,-137.5 988.814,-137.5 988.814,-116.5 937.814,-116.5"/>
<text text-anchor="middle" x="963.314" y="-124.5" font-family="Helvetica,sans-Serif" font-size="10.00">encap.h</text>
</a>
</g>
<!-- Node23&#45;&gt;Node24 -->
<g id="edge88" class="edge"><title>Node23&#45;&gt;Node24</title>
<path fill="none" stroke="midnightblue" d="M982.912,-174.362C979.732,-166.677 975.343,-156.069 971.524,-146.84"/>
<polygon fill="midnightblue" stroke="midnightblue" points="974.746,-145.473 967.688,-137.571 968.278,-148.149 974.746,-145.473"/>
</g>
<!-- Node24&#45;&gt;Node6 -->
<g id="edge90" class="edge"><title>Node24&#45;&gt;Node6</title>
<path fill="none" stroke="midnightblue" d="M937.62,-120.693C931.308,-119.151 924.569,-117.51 918.314,-116 864.392,-102.977 802.112,-88.1553 762.255,-78.6977"/>
<polygon fill="midnightblue" stroke="midnightblue" points="762.914,-75.2571 752.377,-76.3546 761.299,-82.0681 762.914,-75.2571"/>
</g>
<!-- Node25&#45;&gt;Node11 -->
<g id="edge94" class="edge"><title>Node25&#45;&gt;Node11</title>
<path fill="none" stroke="midnightblue" d="M63.0671,-234.751C119.602,-215.116 262.67,-165.427 333.012,-140.997"/>
<polygon fill="midnightblue" stroke="midnightblue" points="334.545,-144.17 342.843,-137.583 332.248,-137.557 334.545,-144.17"/>
</g>
</g>
</svg>
        <g id="navigator" transform="translate(0 0)" fill="#404254">
                <rect fill="#f2f5e9" fill-opacity="0.5" stroke="#606060" stroke-width=".5" x="0" y="0" width="60" height="60"/>
                <use id="zoomplus" xlink:href="#zoomPlus" x="17" y="9" onmousedown="handleZoom(evt,'in')"/>
                <use id="zoomminus" xlink:href="#zoomMin" x="42" y="9" onmousedown="handleZoom(evt,'out')"/>
                <use id="reset" xlink:href="#resetDef" x="30" y="36" onmousedown="handleReset()"/>
                <g id="arrowUp" xlink:href="#dirArrow" transform="translate(30 24)" onmousedown="handlePan(0,-1)">
                  <use xlink:href="#rim" fill="#404040">
                        <set attributeName="fill" to="#808080" begin="arrowUp.mouseover" end="arrowUp.mouseout"/>
                  </use>
                  <path fill="none" stroke="white" stroke-width="1.5" d="M0,-3.0v7 M-2.5,-0.5L0,-3.0L2.5,-0.5"/>
                </g>
                <g id="arrowRight" xlink:href="#dirArrow" transform="rotate(90) translate(36 -43)" onmousedown="handlePan(1,0)">
                  <use xlink:href="#rim" fill="#404040">
                        <set attributeName="fill" to="#808080" begin="arrowRight.mouseover" end="arrowRight.mouseout"/>
                  </use>
                  <path fill="none" stroke="white" stroke-width="1.5" d="M0,-3.0v7 M-2.5,-0.5L0,-3.0L2.5,-0.5"/>
                </g>
                <g id="arrowDown" xlink:href="#dirArrow" transform="rotate(180) translate(-30 -48)" onmousedown="handlePan(0,1)">
                  <use xlink:href="#rim" fill="#404040">
                        <set attributeName="fill" to="#808080" begin="arrowDown.mouseover" end="arrowDown.mouseout"/>
                  </use>
                  <path fill="none" stroke="white" stroke-width="1.5" d="M0,-3.0v7 M-2.5,-0.5L0,-3.0L2.5,-0.5"/>
                </g>
                <g id="arrowLeft" xlink:href="#dirArrow" transform="rotate(270) translate(-36 17)" onmousedown="handlePan(-1,0)">
                  <use xlink:href="#rim" fill="#404040">
                        <set attributeName="fill" to="#808080" begin="arrowLeft.mouseover" end="arrowLeft.mouseout"/>
                  </use>
                  <path fill="none" stroke="white" stroke-width="1.5" d="M0,-3.0v7 M-2.5,-0.5L0,-3.0L2.5,-0.5"/>
                </g>
        </g>
</svg>
