<?xml version="1.0" encoding="UTF-8" standalone="no"?>
<!DOCTYPE svg PUBLIC "-//W3C//DTD SVG 1.1//EN"
 "http://www.w3.org/Graphics/SVG/1.1/DTD/svg11.dtd">
<!-- Generated by graphviz version 2.26.3 (20100126.1600)
 -->
<!-- Title: G Pages: 1 -->
<!--zoomable 436 -->
<svg id="main" version="1.1" xmlns="http://www.w3.org/2000/svg" xmlns:xlink="http://www.w3.org/1999/xlink" xml:space="preserve" onload="init(evt)">
        <defs>
                <circle id="rim" cx="0" cy="0" r="7"/>
                <circle id="rim2" cx="0" cy="0" r="3.5"/>
                <g id="zoomPlus">
                        <use xlink:href="#rim" fill="#404040">
                                <set attributeName="fill" to="#808080" begin="zoomplus.mouseover" end="zoomplus.mouseout"/>
                        </use>
                        <path d="M-4,0h8M0,-4v8" fill="none" stroke="white" stroke-width="1.5" pointer-events="none"/>
                </g>
                <g id="zoomMin">
                        <use xlink:href="#rim" fill="#404040">
                                <set attributeName="fill" to="#808080" begin="zoomminus.mouseover" end="zoomminus.mouseout"/>
                        </use>
                        <path d="M-4,0h8" fill="none" stroke="white" stroke-width="1.5" pointer-events="none"/>
                </g>
                <g id="dirArrow">
                        <path fill="none" stroke="white" stroke-width="1.5" d="M0,-3.0v7 M-2.5,-0.5L0,-3.0L2.5,-0.5"/>
                </g>
               <g id="resetDef">
                       <use xlink:href="#rim2" fill="#404040">
                               <set attributeName="fill" to="#808080" begin="reset.mouseover" end="reset.mouseout"/>
                       </use>
               </g>
        </defs>

<script type="text/javascript">
var viewWidth = 1082;
var viewHeight = 436;
var sectionId = 'dynsection-0';
</script>
<script xlink:href="../../svgpan.js"/>
<svg id="graph" class="graph">
<g id="viewport">
<title>G</title>
<!-- Node1 -->
<g id="node1" class="node"><title>Node1</title>
<polygon fill="#bfbfbf" stroke="black" points="587.5,-406.5 587.5,-427.5 712.5,-427.5 712.5,-406.5 587.5,-406.5"/>
<text text-anchor="middle" x="650" y="-414.5" font-family="Helvetica,sans-Serif" font-size="10.00">src/cip/cipioconnection.c</text>
</g>
<!-- Node2 -->
<g id="node3" class="node"><title>Node2</title>
<polygon fill="none" stroke="#bfbfbf" points="23.5,-290.5 23.5,-311.5 72.5,-311.5 72.5,-290.5 23.5,-290.5"/>
<text text-anchor="middle" x="48" y="-298.5" font-family="Helvetica,sans-Serif" font-size="10.00">string.h</text>
</g>
<!-- Node1&#45;&gt;Node2 -->
<g id="edge2" class="edge"><title>Node1&#45;&gt;Node2</title>
<path fill="none" stroke="midnightblue" d="M587.275,-413.645C508.274,-408.497 368.74,-396.332 252,-370 190.808,-356.197 122.199,-330.849 82.1798,-315.017"/>
<polygon fill="midnightblue" stroke="midnightblue" points="83.2284,-311.667 72.6434,-311.21 80.633,-318.168 83.2284,-311.667"/>
</g>
<!-- Node3 -->
<g id="node5" class="node"><title>Node3</title>
<a xlink:href="../../de/d45/cipioconnection_8h.html" target="_top" xlink:title="cipioconnection.h">
<polygon fill="none" stroke="black" points="604,-290.5 604,-311.5 696,-311.5 696,-290.5 604,-290.5"/>
<text text-anchor="middle" x="650" y="-298.5" font-family="Helvetica,sans-Serif" font-size="10.00">cipioconnection.h</text>
</a>
</g>
<!-- Node1&#45;&gt;Node3 -->
<g id="edge4" class="edge"><title>Node1&#45;&gt;Node3</title>
<path fill="none" stroke="midnightblue" d="M650,-406.295C650,-387.131 650,-346.654 650,-321.843"/>
<polygon fill="midnightblue" stroke="midnightblue" points="653.5,-321.679 650,-311.679 646.5,-321.679 653.5,-321.679"/>
</g>
<!-- Node14 -->
<g id="node28" class="node"><title>Node14</title>
<a xlink:href="../../d2/da3/cipconnectionmanager_8h.html" target="_top" xlink:title="cipconnectionmanager.h">
<polygon fill="none" stroke="black" points="498,-232.5 498,-253.5 620,-253.5 620,-232.5 498,-232.5"/>
<text text-anchor="middle" x="559" y="-240.5" font-family="Helvetica,sans-Serif" font-size="10.00">cipconnectionmanager.h</text>
</a>
</g>
<!-- Node1&#45;&gt;Node14 -->
<g id="edge68" class="edge"><title>Node1&#45;&gt;Node14</title>
<path fill="none" stroke="midnightblue" d="M644.373,-406.271C634.41,-387.273 613.019,-346.468 595,-312 586.336,-295.427 576.518,-276.606 569.325,-262.811"/>
<polygon fill="midnightblue" stroke="midnightblue" points="572.333,-261.009 564.607,-253.759 566.126,-264.245 572.333,-261.009"/>
</g>
<!-- Node15 -->
<g id="node34" class="node"><title>Node15</title>
<a xlink:href="../../da/dc2/generic__networkhandler_8h.html" target="_top" xlink:title="generic_networkhandler.h">
<polygon fill="none" stroke="black" points="261,-348.5 261,-369.5 389,-369.5 389,-348.5 261,-348.5"/>
<text text-anchor="middle" x="325" y="-356.5" font-family="Helvetica,sans-Serif" font-size="10.00">generic_networkhandler.h</text>
</a>
</g>
<!-- Node1&#45;&gt;Node15 -->
<g id="edge38" class="edge"><title>Node1&#45;&gt;Node15</title>
<path fill="none" stroke="midnightblue" d="M591.145,-406.497C535.638,-396.591 452.441,-381.743 393.873,-371.291"/>
<polygon fill="midnightblue" stroke="midnightblue" points="394.425,-367.834 383.965,-369.523 393.195,-374.726 394.425,-367.834"/>
</g>
<!-- Node19 -->
<g id="node45" class="node"><title>Node19</title>
<a xlink:href="../../d0/dec/endianconv_8h.html" target="_top" xlink:title="Responsible for Endianess conversion.">
<polygon fill="none" stroke="black" points="714,-290.5 714,-311.5 788,-311.5 788,-290.5 714,-290.5"/>
<text text-anchor="middle" x="751" y="-298.5" font-family="Helvetica,sans-Serif" font-size="10.00">endianconv.h</text>
</a>
</g>
<!-- Node1&#45;&gt;Node19 -->
<g id="edge104" class="edge"><title>Node1&#45;&gt;Node19</title>
<path fill="none" stroke="midnightblue" d="M659.321,-406.295C676.608,-386.441 713.814,-343.709 735.133,-319.224"/>
<polygon fill="midnightblue" stroke="midnightblue" points="737.775,-321.519 741.702,-311.679 732.495,-316.923 737.775,-321.519"/>
</g>
<!-- Node20 -->
<g id="node50" class="node"><title>Node20</title>
<a xlink:href="../../d1/dc0/appcontype_8h.html" target="_top" xlink:title="appcontype.h">
<polygon fill="none" stroke="black" points="473.5,-290.5 473.5,-311.5 548.5,-311.5 548.5,-290.5 473.5,-290.5"/>
<text text-anchor="middle" x="511" y="-298.5" font-family="Helvetica,sans-Serif" font-size="10.00">appcontype.h</text>
</a>
</g>
<!-- Node1&#45;&gt;Node20 -->
<g id="edge88" class="edge"><title>Node1&#45;&gt;Node20</title>
<path fill="none" stroke="midnightblue" d="M623.075,-406.383C604.598,-398.241 580.22,-385.737 562,-370 545.724,-355.942 531.586,-335.795 522.35,-320.897"/>
<polygon fill="midnightblue" stroke="midnightblue" points="525.154,-318.767 517.016,-311.983 519.147,-322.361 525.154,-318.767"/>
</g>
<!-- Node22 -->
<g id="node57" class="node"><title>Node22</title>
<a xlink:href="../../de/df4/cipassembly_8h.html" target="_top" xlink:title="cipassembly.h">
<polygon fill="none" stroke="black" points="732,-174.5 732,-195.5 812,-195.5 812,-174.5 732,-174.5"/>
<text text-anchor="middle" x="772" y="-182.5" font-family="Helvetica,sans-Serif" font-size="10.00">cipassembly.h</text>
</a>
</g>
<!-- Node1&#45;&gt;Node22 -->
<g id="edge70" class="edge"><title>Node1&#45;&gt;Node22</title>
<path fill="none" stroke="midnightblue" d="M678.203,-406.389C713.431,-391.414 772.101,-360.383 797,-312 815.053,-276.919 796.585,-230.222 783.199,-204.342"/>
<polygon fill="midnightblue" stroke="midnightblue" points="786.251,-202.629 778.404,-195.511 780.099,-205.969 786.251,-202.629"/>
</g>
<!-- Node23 -->
<g id="node61" class="node"><title>Node23</title>
<a xlink:href="../../d1/dad/ciptcpipinterface_8h.html" target="_top" xlink:title="Public interface of the TCP/IP Interface Object.">
<polygon fill="none" stroke="black" points="830,-174.5 830,-195.5 926,-195.5 926,-174.5 830,-174.5"/>
<text text-anchor="middle" x="878" y="-182.5" font-family="Helvetica,sans-Serif" font-size="10.00">ciptcpipinterface.h</text>
</a>
</g>
<!-- Node1&#45;&gt;Node23 -->
<g id="edge76" class="edge"><title>Node1&#45;&gt;Node23</title>
<path fill="none" stroke="midnightblue" d="M693.875,-406.448C718.287,-399.062 748.244,-387.359 771,-370 827.652,-326.784 859.522,-244.297 871.91,-205.779"/>
<polygon fill="midnightblue" stroke="midnightblue" points="875.404,-206.325 875.014,-195.738 868.716,-204.258 875.404,-206.325"/>
</g>
<!-- Node24 -->
<g id="node65" class="node"><title>Node24</title>
<a xlink:href="../../db/d14/cipcommon_8h.html" target="_top" xlink:title="cipcommon.h">
<polygon fill="none" stroke="black" points="943.5,-174.5 943.5,-195.5 1018.5,-195.5 1018.5,-174.5 943.5,-174.5"/>
<text text-anchor="middle" x="981" y="-182.5" font-family="Helvetica,sans-Serif" font-size="10.00">cipcommon.h</text>
</a>
</g>
<!-- Node1&#45;&gt;Node24 -->
<g id="edge82" class="edge"><title>Node1&#45;&gt;Node24</title>
<path fill="none" stroke="midnightblue" d="M702.561,-406.481C731.553,-399.151 767.369,-387.492 796,-370 871.396,-323.938 939.023,-241.067 967.159,-203.917"/>
<polygon fill="midnightblue" stroke="midnightblue" points="970.261,-205.614 973.442,-195.508 964.653,-201.424 970.261,-205.614"/>
</g>
<!-- Node25 -->
<g id="node70" class="node"><title>Node25</title>
<a xlink:href="../../d0/dff/cpf_8h.html" target="_top" xlink:title="cpf.h">
<polygon fill="none" stroke="black" points="1036,-174.5 1036,-195.5 1074,-195.5 1074,-174.5 1036,-174.5"/>
<text text-anchor="middle" x="1055" y="-182.5" font-family="Helvetica,sans-Serif" font-size="10.00">cpf.h</text>
</a>
</g>
<!-- Node1&#45;&gt;Node25 -->
<g id="edge90" class="edge"><title>Node1&#45;&gt;Node25</title>
<path fill="none" stroke="midnightblue" d="M712.657,-406.577C746.817,-399.319 789.119,-387.698 824,-370 913.881,-324.395 1001.65,-240.056 1037.77,-203.121"/>
<polygon fill="midnightblue" stroke="midnightblue" points="1040.62,-205.212 1045.06,-195.592 1035.59,-200.344 1040.62,-205.212"/>
</g>
<!-- Node27 -->
<g id="node77" class="node"><title>Node27</title>
<a xlink:href="../../d1/d1b/trace_8h.html" target="_top" xlink:title="Tracing infrastructure for OpENer.">
<polygon fill="none" stroke="black" points="-0.5,-232.5 -0.5,-253.5 46.5,-253.5 46.5,-232.5 -0.5,-232.5"/>
<text text-anchor="middle" x="23" y="-240.5" font-family="Helvetica,sans-Serif" font-size="10.00">trace.h</text>
</a>
</g>
<!-- Node1&#45;&gt;Node27 -->
<g id="edge100" class="edge"><title>Node1&#45;&gt;Node27</title>
<path fill="none" stroke="midnightblue" d="M587.474,-412.817C476.673,-405.076 250.263,-387.685 173,-370 100.082,-353.31 57.8216,-373.335 15,-312 5.22306,-297.996 8.71221,-278.369 13.7815,-263.626"/>
<polygon fill="midnightblue" stroke="midnightblue" points="17.2008,-264.493 17.585,-253.905 10.682,-261.942 17.2008,-264.493"/>
</g>
<!-- Node4 -->
<g id="node7" class="node"><title>Node4</title>
<a xlink:href="../../d4/d38/opener__api_8h.html" target="_top" xlink:title="opener_api.h">
<polygon fill="none" stroke="black" points="522,-174.5 522,-195.5 594,-195.5 594,-174.5 522,-174.5"/>
<text text-anchor="middle" x="558" y="-182.5" font-family="Helvetica,sans-Serif" font-size="10.00">opener_api.h</text>
</a>
</g>
<!-- Node3&#45;&gt;Node4 -->
<g id="edge6" class="edge"><title>Node3&#45;&gt;Node4</title>
<path fill="none" stroke="midnightblue" d="M648.989,-290.172C647.16,-275.655 642.174,-249.667 629,-232 619.163,-218.809 604.458,-208.203 590.977,-200.429"/>
<polygon fill="midnightblue" stroke="midnightblue" points="592.371,-197.203 581.914,-195.501 589.028,-203.353 592.371,-197.203"/>
</g>
<!-- Node3&#45;&gt;Node14 -->
<g id="edge28" class="edge"><title>Node3&#45;&gt;Node14</title>
<path fill="none" stroke="midnightblue" d="M633.309,-290.362C619.584,-281.614 599.916,-269.079 584.263,-259.101"/>
<polygon fill="midnightblue" stroke="midnightblue" points="585.899,-255.994 575.585,-253.571 582.137,-261.897 585.899,-255.994"/>
</g>
<!-- Node5 -->
<g id="node9" class="node"><title>Node5</title>
<polygon fill="none" stroke="#bfbfbf" points="604,-116.5 604,-137.5 656,-137.5 656,-116.5 604,-116.5"/>
<text text-anchor="middle" x="630" y="-124.5" font-family="Helvetica,sans-Serif" font-size="10.00">assert.h</text>
</g>
<!-- Node4&#45;&gt;Node5 -->
<g id="edge8" class="edge"><title>Node4&#45;&gt;Node5</title>
<path fill="none" stroke="midnightblue" d="M571.206,-174.362C581.761,-165.859 596.758,-153.779 608.963,-143.947"/>
<polygon fill="midnightblue" stroke="midnightblue" points="611.286,-146.57 616.878,-137.571 606.895,-141.118 611.286,-146.57"/>
</g>
<!-- Node6 -->
<g id="node11" class="node"><title>Node6</title>
<a xlink:href="../../d7/d69/typedefs_8h.html" target="_top" xlink:title="typedefs.h">
<polygon fill="none" stroke="black" points="729,-58.5 729,-79.5 791,-79.5 791,-58.5 729,-58.5"/>
<text text-anchor="middle" x="760" y="-66.5" font-family="Helvetica,sans-Serif" font-size="10.00">typedefs.h</text>
</a>
</g>
<!-- Node4&#45;&gt;Node6 -->
<g id="edge10" class="edge"><title>Node4&#45;&gt;Node6</title>
<path fill="none" stroke="midnightblue" d="M544.966,-174.41C528.99,-160.161 505.803,-134.476 521,-116 545.568,-86.1298 657.047,-74.9499 718.694,-71.0011"/>
<polygon fill="midnightblue" stroke="midnightblue" points="719.096,-74.4833 728.867,-70.3862 718.674,-67.4961 719.096,-74.4833"/>
</g>
<!-- Node10 -->
<g id="node19" class="node"><title>Node10</title>
<a xlink:href="../../df/d28/ciptypes_8h.html" target="_top" xlink:title="ciptypes.h">
<polygon fill="none" stroke="black" points="788,-116.5 788,-137.5 850,-137.5 850,-116.5 788,-116.5"/>
<text text-anchor="middle" x="819" y="-124.5" font-family="Helvetica,sans-Serif" font-size="10.00">ciptypes.h</text>
</a>
</g>
<!-- Node4&#45;&gt;Node10 -->
<g id="edge18" class="edge"><title>Node4&#45;&gt;Node10</title>
<path fill="none" stroke="midnightblue" d="M594.017,-176.996C642.162,-166.297 727.286,-147.381 777.889,-136.136"/>
<polygon fill="midnightblue" stroke="midnightblue" points="778.831,-139.512 787.833,-133.926 777.312,-132.679 778.831,-139.512"/>
</g>
<!-- Node12 -->
<g id="node24" class="node"><title>Node12</title>
<a xlink:href="../../d6/d52/ciperror_8h.html" target="_top" xlink:title="ciperror.h">
<polygon fill="none" stroke="black" points="529.5,-116.5 529.5,-137.5 586.5,-137.5 586.5,-116.5 529.5,-116.5"/>
<text text-anchor="middle" x="558" y="-124.5" font-family="Helvetica,sans-Serif" font-size="10.00">ciperror.h</text>
</a>
</g>
<!-- Node4&#45;&gt;Node12 -->
<g id="edge24" class="edge"><title>Node4&#45;&gt;Node12</title>
<path fill="none" stroke="midnightblue" d="M558,-174.362C558,-166.922 558,-156.743 558,-147.728"/>
<polygon fill="midnightblue" stroke="midnightblue" points="561.5,-147.571 558,-137.571 554.5,-147.571 561.5,-147.571"/>
</g>
<!-- Node13 -->
<g id="node26" class="node"><title>Node13</title>
<polygon fill="none" stroke="#bfbfbf" points="372,-116.5 372,-137.5 474,-137.5 474,-116.5 372,-116.5"/>
<text text-anchor="middle" x="423" y="-124.5" font-family="Helvetica,sans-Serif" font-size="10.00">opener_user_conf.h</text>
</g>
<!-- Node4&#45;&gt;Node13 -->
<g id="edge26" class="edge"><title>Node4&#45;&gt;Node13</title>
<path fill="none" stroke="midnightblue" d="M533.553,-174.497C512.182,-165.315 480.931,-151.889 457.103,-141.652"/>
<polygon fill="midnightblue" stroke="midnightblue" points="458.291,-138.353 447.722,-137.621 455.528,-144.784 458.291,-138.353"/>
</g>
<!-- Node7 -->
<g id="node13" class="node"><title>Node7</title>
<polygon fill="none" stroke="#bfbfbf" points="657.5,-0.5 657.5,-21.5 716.5,-21.5 716.5,-0.5 657.5,-0.5"/>
<text text-anchor="middle" x="687" y="-8.5" font-family="Helvetica,sans-Serif" font-size="10.00">inttypes.h</text>
</g>
<!-- Node6&#45;&gt;Node7 -->
<g id="edge12" class="edge"><title>Node6&#45;&gt;Node7</title>
<path fill="none" stroke="midnightblue" d="M746.611,-58.3619C735.909,-49.859 720.704,-37.7785 708.329,-27.9466"/>
<polygon fill="midnightblue" stroke="midnightblue" points="710.311,-25.0511 700.304,-21.5707 705.957,-30.5318 710.311,-25.0511"/>
</g>
<!-- Node8 -->
<g id="node15" class="node"><title>Node8</title>
<polygon fill="none" stroke="#bfbfbf" points="734,-0.5 734,-21.5 786,-21.5 786,-0.5 734,-0.5"/>
<text text-anchor="middle" x="760" y="-8.5" font-family="Helvetica,sans-Serif" font-size="10.00">stddef.h</text>
</g>
<!-- Node6&#45;&gt;Node8 -->
<g id="edge14" class="edge"><title>Node6&#45;&gt;Node8</title>
<path fill="none" stroke="midnightblue" d="M760,-58.3619C760,-50.9219 760,-40.7427 760,-31.7276"/>
<polygon fill="midnightblue" stroke="midnightblue" points="763.5,-31.5706 760,-21.5707 756.5,-31.5707 763.5,-31.5706"/>
</g>
<!-- Node9 -->
<g id="node17" class="node"><title>Node9</title>
<polygon fill="none" stroke="#bfbfbf" points="804,-0.5 804,-21.5 860,-21.5 860,-0.5 804,-0.5"/>
<text text-anchor="middle" x="832" y="-8.5" font-family="Helvetica,sans-Serif" font-size="10.00">stdbool.h</text>
</g>
<!-- Node6&#45;&gt;Node9 -->
<g id="edge16" class="edge"><title>Node6&#45;&gt;Node9</title>
<path fill="none" stroke="midnightblue" d="M773.206,-58.3619C783.761,-49.859 798.758,-37.7785 810.963,-27.9466"/>
<polygon fill="midnightblue" stroke="midnightblue" points="813.286,-30.5696 818.878,-21.5707 808.895,-25.1183 813.286,-30.5696"/>
</g>
<!-- Node10&#45;&gt;Node6 -->
<g id="edge20" class="edge"><title>Node10&#45;&gt;Node6</title>
<path fill="none" stroke="midnightblue" d="M808.178,-116.362C799.779,-108.104 787.946,-96.4725 778.11,-86.8029"/>
<polygon fill="midnightblue" stroke="midnightblue" points="780.338,-84.0851 770.753,-79.5707 775.431,-89.077 780.338,-84.0851"/>
</g>
<!-- Node11 -->
<g id="node22" class="node"><title>Node11</title>
<polygon fill="none" stroke="#bfbfbf" points="440.5,-58.5 440.5,-79.5 531.5,-79.5 531.5,-58.5 440.5,-58.5"/>
<text text-anchor="middle" x="486" y="-66.5" font-family="Helvetica,sans-Serif" font-size="10.00">networkhandler.h</text>
</g>
<!-- Node10&#45;&gt;Node11 -->
<g id="edge22" class="edge"><title>Node10&#45;&gt;Node11</title>
<path fill="none" stroke="midnightblue" d="M787.971,-121.596C731.724,-111.799 612.221,-90.9844 541.581,-78.6807"/>
<polygon fill="midnightblue" stroke="midnightblue" points="541.978,-75.1974 531.526,-76.9295 540.777,-82.0936 541.978,-75.1974"/>
</g>
<!-- Node14&#45;&gt;Node4 -->
<g id="edge32" class="edge"><title>Node14&#45;&gt;Node4</title>
<path fill="none" stroke="midnightblue" d="M558.817,-232.362C558.688,-224.922 558.513,-214.743 558.357,-205.728"/>
<polygon fill="midnightblue" stroke="midnightblue" points="561.854,-205.509 558.182,-195.571 554.855,-205.63 561.854,-205.509"/>
</g>
<!-- Node14&#45;&gt;Node6 -->
<g id="edge34" class="edge"><title>Node14&#45;&gt;Node6</title>
<path fill="none" stroke="midnightblue" d="M571.271,-232.377C604.842,-203.316 698.447,-122.284 739.856,-86.4381"/>
<polygon fill="midnightblue" stroke="midnightblue" points="742.364,-88.8959 747.634,-79.7046 737.783,-83.6034 742.364,-88.8959"/>
</g>
<!-- Node14&#45;&gt;Node10 -->
<g id="edge36" class="edge"><title>Node14&#45;&gt;Node10</title>
<path fill="none" stroke="midnightblue" d="M582.994,-232.295C629.741,-211.438 733.074,-165.336 786.141,-141.66"/>
<polygon fill="midnightblue" stroke="midnightblue" points="787.733,-144.782 795.439,-137.512 784.881,-138.39 787.733,-144.782"/>
</g>
<!-- Node14&#45;&gt;Node13 -->
<g id="edge30" class="edge"><title>Node14&#45;&gt;Node13</title>
<path fill="none" stroke="midnightblue" d="M546.449,-232.295C522.868,-212.182 471.761,-168.59 443.254,-144.275"/>
<polygon fill="midnightblue" stroke="midnightblue" points="445.4,-141.506 435.52,-137.679 440.857,-146.832 445.4,-141.506"/>
</g>
<!-- Node15&#45;&gt;Node2 -->
<g id="edge42" class="edge"><title>Node15&#45;&gt;Node2</title>
<path fill="none" stroke="midnightblue" d="M263.775,-348.486C215.299,-339.795 146,-326.554 86,-312 84.9321,-311.741 83.8492,-311.471 82.7574,-311.193"/>
<polygon fill="midnightblue" stroke="midnightblue" points="83.4197,-307.747 72.854,-308.533 81.6034,-314.508 83.4197,-307.747"/>
</g>
<!-- Node15&#45;&gt;Node4 -->
<g id="edge48" class="edge"><title>Node15&#45;&gt;Node4</title>
<path fill="none" stroke="midnightblue" d="M320.991,-348.326C312.781,-324.444 297.071,-266.125 325,-232 348.101,-203.774 450.397,-192.119 511.502,-187.608"/>
<polygon fill="midnightblue" stroke="midnightblue" points="511.939,-191.086 521.67,-186.895 511.45,-184.103 511.939,-191.086"/>
</g>
<!-- Node15&#45;&gt;Node6 -->
<g id="edge50" class="edge"><title>Node15&#45;&gt;Node6</title>
<path fill="none" stroke="midnightblue" d="M260.863,-351.61C208.218,-344.27 139.179,-331.303 119,-312 96.0147,-290.013 100,-274.808 100,-243 100,-243 100,-243 100,-185 100,-121.937 573.455,-82.4855 718.362,-71.8877"/>
<polygon fill="midnightblue" stroke="midnightblue" points="718.889,-75.3588 728.611,-71.1464 718.384,-68.377 718.889,-75.3588"/>
</g>
<!-- Node15&#45;&gt;Node11 -->
<g id="edge58" class="edge"><title>Node15&#45;&gt;Node11</title>
<path fill="none" stroke="midnightblue" d="M322.031,-348.222C316.688,-327.841 306,-282.182 306,-243 306,-243 306,-243 306,-185 306,-149.328 319.27,-138.44 347,-116 370.897,-96.6611 403.153,-85.1106 430.576,-78.3031"/>
<polygon fill="midnightblue" stroke="midnightblue" points="431.492,-81.6835 440.436,-76.0041 429.903,-74.8663 431.492,-81.6835"/>
</g>
<!-- Node15&#45;&gt;Node14 -->
<g id="edge56" class="edge"><title>Node15&#45;&gt;Node14</title>
<path fill="none" stroke="midnightblue" d="M333.948,-348.278C347.125,-333.155 373.209,-305.66 401,-290 428.879,-274.29 462.547,-263.338 491.628,-255.983"/>
<polygon fill="midnightblue" stroke="midnightblue" points="492.817,-259.296 501.706,-253.53 491.162,-252.495 492.817,-259.296"/>
</g>
<!-- Node16 -->
<g id="node36" class="node"><title>Node16</title>
<polygon fill="none" stroke="#bfbfbf" points="410,-290.5 410,-311.5 456,-311.5 456,-290.5 410,-290.5"/>
<text text-anchor="middle" x="433" y="-298.5" font-family="Helvetica,sans-Serif" font-size="10.00">stdio.h</text>
</g>
<!-- Node15&#45;&gt;Node16 -->
<g id="edge40" class="edge"><title>Node15&#45;&gt;Node16</title>
<path fill="none" stroke="midnightblue" d="M344.558,-348.497C361.198,-339.56 385.327,-326.602 404.18,-316.477"/>
<polygon fill="midnightblue" stroke="midnightblue" points="406.069,-319.436 413.223,-311.621 402.757,-313.269 406.069,-319.436"/>
</g>
<!-- Node17 -->
<g id="node39" class="node"><title>Node17</title>
<polygon fill="none" stroke="#bfbfbf" points="128,-290.5 128,-311.5 176,-311.5 176,-290.5 128,-290.5"/>
<text text-anchor="middle" x="152" y="-298.5" font-family="Helvetica,sans-Serif" font-size="10.00">stdlib.h</text>
</g>
<!-- Node15&#45;&gt;Node17 -->
<g id="edge44" class="edge"><title>Node15&#45;&gt;Node17</title>
<path fill="none" stroke="midnightblue" d="M293.671,-348.497C263.183,-338.275 217.001,-322.792 185.722,-312.306"/>
<polygon fill="midnightblue" stroke="midnightblue" points="186.723,-308.95 176.13,-309.09 184.498,-315.587 186.723,-308.95"/>
</g>
<!-- Node18 -->
<g id="node41" class="node"><title>Node18</title>
<polygon fill="none" stroke="#bfbfbf" points="193.5,-290.5 193.5,-311.5 240.5,-311.5 240.5,-290.5 193.5,-290.5"/>
<text text-anchor="middle" x="217" y="-298.5" font-family="Helvetica,sans-Serif" font-size="10.00">errno.h</text>
</g>
<!-- Node15&#45;&gt;Node18 -->
<g id="edge46" class="edge"><title>Node15&#45;&gt;Node18</title>
<path fill="none" stroke="midnightblue" d="M305.442,-348.497C288.802,-339.56 264.673,-326.602 245.82,-316.477"/>
<polygon fill="midnightblue" stroke="midnightblue" points="247.243,-313.269 236.777,-311.621 243.931,-319.436 247.243,-313.269"/>
</g>
<!-- Node15&#45;&gt;Node19 -->
<g id="edge52" class="edge"><title>Node15&#45;&gt;Node19</title>
<path fill="none" stroke="midnightblue" d="M389.203,-353.266C462.877,-346.193 587.471,-332.722 703.772,-312.067"/>
<polygon fill="midnightblue" stroke="midnightblue" points="704.695,-315.458 713.918,-310.243 703.456,-308.568 704.695,-315.458"/>
</g>
<!-- Node15&#45;&gt;Node20 -->
<g id="edge60" class="edge"><title>Node15&#45;&gt;Node20</title>
<path fill="none" stroke="midnightblue" d="M358.683,-348.497C389.137,-339 434.157,-324.962 467.358,-314.609"/>
<polygon fill="midnightblue" stroke="midnightblue" points="468.749,-317.841 477.254,-311.523 466.665,-311.159 468.749,-317.841"/>
</g>
<!-- Node21 -->
<g id="node53" class="node"><title>Node21</title>
<a xlink:href="../../d1/d84/socket__timer_8h.html" target="_top" xlink:title="socket_timer.h">
<polygon fill="none" stroke="black" points="333.5,-232.5 333.5,-253.5 414.5,-253.5 414.5,-232.5 333.5,-232.5"/>
<text text-anchor="middle" x="374" y="-240.5" font-family="Helvetica,sans-Serif" font-size="10.00">socket_timer.h</text>
</a>
</g>
<!-- Node15&#45;&gt;Node21 -->
<g id="edge64" class="edge"><title>Node15&#45;&gt;Node21</title>
<path fill="none" stroke="midnightblue" d="M329.522,-348.295C337.69,-328.959 355.024,-287.923 365.477,-263.177"/>
<polygon fill="midnightblue" stroke="midnightblue" points="368.822,-264.253 369.489,-253.679 362.374,-261.529 368.822,-264.253"/>
</g>
<!-- Node19&#45;&gt;Node6 -->
<g id="edge54" class="edge"><title>Node19&#45;&gt;Node6</title>
<path fill="none" stroke="midnightblue" d="M745.724,-290.196C735.709,-268.369 715.578,-217.397 723,-174 728.24,-143.36 741.5,-109.777 750.634,-89.0418"/>
<polygon fill="midnightblue" stroke="midnightblue" points="753.923,-90.2624 754.852,-79.7084 747.544,-87.3797 753.923,-90.2624"/>
</g>
<!-- Node20&#45;&gt;Node14 -->
<g id="edge62" class="edge"><title>Node20&#45;&gt;Node14</title>
<path fill="none" stroke="midnightblue" d="M519.804,-290.362C526.502,-282.268 535.884,-270.932 543.789,-261.38"/>
<polygon fill="midnightblue" stroke="midnightblue" points="546.573,-263.506 550.252,-253.571 541.18,-259.043 546.573,-263.506"/>
</g>
<!-- Node21&#45;&gt;Node6 -->
<g id="edge66" class="edge"><title>Node21&#45;&gt;Node6</title>
<path fill="none" stroke="midnightblue" d="M368.431,-232.177C356.851,-207.99 333.599,-149.087 363,-116 386.38,-89.6885 621.992,-75.5639 718.803,-70.8336"/>
<polygon fill="midnightblue" stroke="midnightblue" points="718.995,-74.3286 728.816,-70.3539 718.66,-67.3366 718.995,-74.3286"/>
</g>
<!-- Node22&#45;&gt;Node6 -->
<g id="edge72" class="edge"><title>Node22&#45;&gt;Node6</title>
<path fill="none" stroke="midnightblue" d="M770.893,-174.295C768.91,-155.131 764.723,-114.654 762.156,-89.8434"/>
<polygon fill="midnightblue" stroke="midnightblue" points="765.615,-89.2659 761.105,-79.6792 758.652,-89.9863 765.615,-89.2659"/>
</g>
<!-- Node22&#45;&gt;Node10 -->
<g id="edge74" class="edge"><title>Node22&#45;&gt;Node10</title>
<path fill="none" stroke="midnightblue" d="M780.621,-174.362C787.18,-166.268 796.366,-154.932 804.106,-145.38"/>
<polygon fill="midnightblue" stroke="midnightblue" points="806.858,-147.544 810.434,-137.571 801.419,-143.136 806.858,-147.544"/>
</g>
<!-- Node23&#45;&gt;Node6 -->
<g id="edge78" class="edge"><title>Node23&#45;&gt;Node6</title>
<path fill="none" stroke="midnightblue" d="M877.743,-174.405C876.849,-159.683 873.216,-132.942 859,-116 844.076,-98.2141 820.884,-86.705 800.699,-79.5301"/>
<polygon fill="midnightblue" stroke="midnightblue" points="801.673,-76.166 791.08,-76.3475 799.474,-82.8117 801.673,-76.166"/>
</g>
<!-- Node23&#45;&gt;Node10 -->
<g id="edge80" class="edge"><title>Node23&#45;&gt;Node10</title>
<path fill="none" stroke="midnightblue" d="M867.178,-174.362C858.779,-166.104 846.946,-154.472 837.11,-144.803"/>
<polygon fill="midnightblue" stroke="midnightblue" points="839.338,-142.085 829.753,-137.571 834.431,-147.077 839.338,-142.085"/>
</g>
<!-- Node24&#45;&gt;Node6 -->
<g id="edge84" class="edge"><title>Node24&#45;&gt;Node6</title>
<path fill="none" stroke="midnightblue" d="M967.258,-174.414C948.044,-159.939 911.71,-133.749 878,-116 853.159,-102.921 823.841,-91.2261 800.644,-82.774"/>
<polygon fill="midnightblue" stroke="midnightblue" points="801.702,-79.4354 791.108,-79.3556 799.34,-86.0248 801.702,-79.4354"/>
</g>
<!-- Node24&#45;&gt;Node10 -->
<g id="edge86" class="edge"><title>Node24&#45;&gt;Node10</title>
<path fill="none" stroke="midnightblue" d="M951.663,-174.497C925.481,-165.123 886.94,-151.324 858.137,-141.012"/>
<polygon fill="midnightblue" stroke="midnightblue" points="858.987,-137.599 848.392,-137.523 856.627,-144.189 858.987,-137.599"/>
</g>
<!-- Node25&#45;&gt;Node6 -->
<g id="edge92" class="edge"><title>Node25&#45;&gt;Node6</title>
<path fill="none" stroke="midnightblue" d="M1053.88,-174.491C1051.66,-159.111 1045.2,-130.709 1027,-116 992.949,-88.4771 867.372,-76.135 801.286,-71.445"/>
<polygon fill="midnightblue" stroke="midnightblue" points="801.429,-67.9467 791.214,-70.7569 800.952,-74.9304 801.429,-67.9467"/>
</g>
<!-- Node25&#45;&gt;Node10 -->
<g id="edge94" class="edge"><title>Node25&#45;&gt;Node10</title>
<path fill="none" stroke="midnightblue" d="M1035.86,-177.036C1032.92,-175.942 1029.9,-174.89 1027,-174 969.954,-156.461 902.272,-142.374 859.971,-134.346"/>
<polygon fill="midnightblue" stroke="midnightblue" points="860.519,-130.888 850.046,-132.485 859.229,-137.768 860.519,-130.888"/>
</g>
<!-- Node26 -->
<g id="node74" class="node"><title>Node26</title>
<a xlink:href="../../d7/df9/encap_8h.html" target="_top" xlink:title="This file contains the public interface of the encapsulation layer.">
<polygon fill="none" stroke="black" points="967.5,-116.5 967.5,-137.5 1018.5,-137.5 1018.5,-116.5 967.5,-116.5"/>
<text text-anchor="middle" x="993" y="-124.5" font-family="Helvetica,sans-Serif" font-size="10.00">encap.h</text>
</a>
</g>
<!-- Node25&#45;&gt;Node26 -->
<g id="edge96" class="edge"><title>Node25&#45;&gt;Node26</title>
<path fill="none" stroke="midnightblue" d="M1043.63,-174.362C1034.71,-166.023 1022.12,-154.242 1011.72,-144.516"/>
<polygon fill="midnightblue" stroke="midnightblue" points="1013.99,-141.846 1004.3,-137.571 1009.21,-146.958 1013.99,-141.846"/>
</g>
<!-- Node26&#45;&gt;Node6 -->
<g id="edge98" class="edge"><title>Node26&#45;&gt;Node6</title>
<path fill="none" stroke="midnightblue" d="M967.175,-120.571C926.91,-110.548 848.828,-91.1116 800.866,-79.1728"/>
<polygon fill="midnightblue" stroke="midnightblue" points="801.663,-75.7643 791.114,-76.7451 799.972,-82.557 801.663,-75.7643"/>
</g>
<!-- Node27&#45;&gt;Node13 -->
<g id="edge102" class="edge"><title>Node27&#45;&gt;Node13</title>
<path fill="none" stroke="midnightblue" d="M46.5285,-236.177C111.044,-217.467 291.614,-165.102 377.066,-140.321"/>
<polygon fill="midnightblue" stroke="midnightblue" points="378.127,-143.658 386.756,-137.511 376.177,-136.935 378.127,-143.658"/>
</g>
</g>
</svg>
        <g id="navigator" transform="translate(0 0)" fill="#404254">
                <rect fill="#f2f5e9" fill-opacity="0.5" stroke="#606060" stroke-width=".5" x="0" y="0" width="60" height="60"/>
                <use id="zoomplus" xlink:href="#zoomPlus" x="17" y="9" onmousedown="handleZoom(evt,'in')"/>
                <use id="zoomminus" xlink:href="#zoomMin" x="42" y="9" onmousedown="handleZoom(evt,'out')"/>
                <use id="reset" xlink:href="#resetDef" x="30" y="36" onmousedown="handleReset()"/>
                <g id="arrowUp" xlink:href="#dirArrow" transform="translate(30 24)" onmousedown="handlePan(0,-1)">
                  <use xlink:href="#rim" fill="#404040">
                        <set attributeName="fill" to="#808080" begin="arrowUp.mouseover" end="arrowUp.mouseout"/>
                  </use>
                  <path fill="none" stroke="white" stroke-width="1.5" d="M0,-3.0v7 M-2.5,-0.5L0,-3.0L2.5,-0.5"/>
                </g>
                <g id="arrowRight" xlink:href="#dirArrow" transform="rotate(90) translate(36 -43)" onmousedown="handlePan(1,0)">
                  <use xlink:href="#rim" fill="#404040">
                        <set attributeName="fill" to="#808080" begin="arrowRight.mouseover" end="arrowRight.mouseout"/>
                  </use>
                  <path fill="none" stroke="white" stroke-width="1.5" d="M0,-3.0v7 M-2.5,-0.5L0,-3.0L2.5,-0.5"/>
                </g>
                <g id="arrowDown" xlink:href="#dirArrow" transform="rotate(180) translate(-30 -48)" onmousedown="handlePan(0,1)">
                  <use xlink:href="#rim" fill="#404040">
                        <set attributeName="fill" to="#808080" begin="arrowDown.mouseover" end="arrowDown.mouseout"/>
                  </use>
                  <path fill="none" stroke="white" stroke-width="1.5" d="M0,-3.0v7 M-2.5,-0.5L0,-3.0L2.5,-0.5"/>
                </g>
                <g id="arrowLeft" xlink:href="#dirArrow" transform="rotate(270) translate(-36 17)" onmousedown="handlePan(-1,0)">
                  <use xlink:href="#rim" fill="#404040">
                        <set attributeName="fill" to="#808080" begin="arrowLeft.mouseover" end="arrowLeft.mouseout"/>
                  </use>
                  <path fill="none" stroke="white" stroke-width="1.5" d="M0,-3.0v7 M-2.5,-0.5L0,-3.0L2.5,-0.5"/>
                </g>
        </g>
</svg>
