<?xml version="1.0" encoding="UTF-8" standalone="no"?>
<!DOCTYPE svg PUBLIC "-//W3C//DTD SVG 1.1//EN"
 "http://www.w3.org/Graphics/SVG/1.1/DTD/svg11.dtd">
<!-- Generated by graphviz version 2.36.0 (20140111.2315)
 -->
<!-- Title: src/enet_encap/endianconv.c Pages: 1 -->
<svg width="517pt" height="196pt"
 viewBox="0.00 0.00 517.00 196.00" xmlns="http://www.w3.org/2000/svg" xmlns:xlink="http://www.w3.org/1999/xlink">
<g id="graph0" class="graph" transform="scale(1 1) rotate(0) translate(4 192)">
<title>src/enet_encap/endianconv.c</title>
<!-- Node1 -->
<g id="node1" class="node"><title>Node1</title>
<polygon fill="#bfbfbf" stroke="black" points="157,-168.5 157,-187.5 301,-187.5 301,-168.5 157,-168.5"/>
<text text-anchor="middle" x="229" y="-175.5" font-family="Helvetica,sans-Serif" font-size="10.00">src/enet_encap/endianconv.c</text>
</g>
<!-- Node2 -->
<g id="node2" class="node"><title>Node2</title>
<polygon fill="none" stroke="#bfbfbf" points="-0.5,-112.5 -0.5,-131.5 64.5,-131.5 64.5,-112.5 -0.5,-112.5"/>
<text text-anchor="middle" x="32" y="-119.5" font-family="Helvetica,sans-Serif" font-size="10.00">netinet/in.h</text>
</g>
<!-- Node1&#45;&gt;Node2 -->
<g id="edge1" class="edge"><title>Node1&#45;&gt;Node2</title>
<path fill="none" stroke="midnightblue" d="M197.785,-168.444C164.067,-159.201 110.2,-144.436 73.0679,-134.257"/>
<polygon fill="midnightblue" stroke="midnightblue" points="73.6387,-130.785 63.0692,-131.516 71.7882,-137.536 73.6387,-130.785"/>
</g>
<!-- Node3 -->
<g id="node3" class="node"><title>Node3</title>
<polygon fill="none" stroke="#bfbfbf" points="82.5,-112.5 82.5,-131.5 155.5,-131.5 155.5,-112.5 82.5,-112.5"/>
<text text-anchor="middle" x="119" y="-119.5" font-family="Helvetica,sans-Serif" font-size="10.00">sys/socket.h</text>
</g>
<!-- Node1&#45;&gt;Node3 -->
<g id="edge2" class="edge"><title>Node1&#45;&gt;Node3</title>
<path fill="none" stroke="midnightblue" d="M211.327,-168.324C193.606,-159.625 166.097,-146.12 145.712,-136.113"/>
<polygon fill="midnightblue" stroke="midnightblue" points="147.149,-132.919 136.63,-131.655 144.064,-139.203 147.149,-132.919"/>
</g>
<!-- Node4 -->
<g id="node4" class="node"><title>Node4</title>
<polygon fill="none" stroke="#bfbfbf" points="174,-112.5 174,-131.5 220,-131.5 220,-112.5 174,-112.5"/>
<text text-anchor="middle" x="197" y="-119.5" font-family="Helvetica,sans-Serif" font-size="10.00">stdio.h</text>
</g>
<!-- Node1&#45;&gt;Node4 -->
<g id="edge3" class="edge"><title>Node1&#45;&gt;Node4</title>
<path fill="none" stroke="midnightblue" d="M223.716,-168.083C219.289,-160.613 212.837,-149.724 207.382,-140.52"/>
<polygon fill="midnightblue" stroke="midnightblue" points="210.295,-138.57 202.186,-131.751 204.273,-142.138 210.295,-138.57"/>
</g>
<!-- Node5 -->
<g id="node5" class="node"><title>Node5</title>
<polygon fill="none" stroke="#bfbfbf" points="238,-112.5 238,-131.5 286,-131.5 286,-112.5 238,-112.5"/>
<text text-anchor="middle" x="262" y="-119.5" font-family="Helvetica,sans-Serif" font-size="10.00">stdlib.h</text>
</g>
<!-- Node1&#45;&gt;Node5 -->
<g id="edge4" class="edge"><title>Node1&#45;&gt;Node5</title>
<path fill="none" stroke="midnightblue" d="M234.449,-168.083C239.014,-160.613 245.668,-149.724 251.293,-140.52"/>
<polygon fill="midnightblue" stroke="midnightblue" points="254.424,-142.109 256.652,-131.751 248.451,-138.459 254.424,-142.109"/>
</g>
<!-- Node6 -->
<g id="node6" class="node"><title>Node6</title>
<polygon fill="none" stroke="#bfbfbf" points="304.5,-112.5 304.5,-131.5 353.5,-131.5 353.5,-112.5 304.5,-112.5"/>
<text text-anchor="middle" x="329" y="-119.5" font-family="Helvetica,sans-Serif" font-size="10.00">string.h</text>
</g>
<!-- Node1&#45;&gt;Node6 -->
<g id="edge5" class="edge"><title>Node1&#45;&gt;Node6</title>
<path fill="none" stroke="midnightblue" d="M245.067,-168.324C260.958,-159.743 285.507,-146.486 303.958,-136.522"/>
<polygon fill="midnightblue" stroke="midnightblue" points="305.837,-139.486 312.973,-131.655 302.511,-133.326 305.837,-139.486"/>
</g>
<!-- Node7 -->
<g id="node7" class="node"><title>Node7</title>
<g id="a_node7"><a xlink:href="../../d0/dec/endianconv_8h.html" target="_top" xlink:title="Responsible for Endianess conversion. ">
<polygon fill="none" stroke="black" points="372,-112.5 372,-131.5 446,-131.5 446,-112.5 372,-112.5"/>
<text text-anchor="middle" x="409" y="-119.5" font-family="Helvetica,sans-Serif" font-size="10.00">endianconv.h</text>
</a>
</g>
</g>
<!-- Node1&#45;&gt;Node7 -->
<g id="edge6" class="edge"><title>Node1&#45;&gt;Node7</title>
<path fill="none" stroke="midnightblue" d="M257.522,-168.444C288.066,-159.28 336.708,-144.688 370.603,-134.519"/>
<polygon fill="midnightblue" stroke="midnightblue" points="372.039,-137.742 380.612,-131.516 370.028,-131.038 372.039,-137.742"/>
</g>
<!-- Node8 -->
<g id="node8" class="node"><title>Node8</title>
<g id="a_node8"><a xlink:href="../../d7/d69/typedefs_8h.html" target="_top" xlink:title="typedefs.h">
<polygon fill="none" stroke="black" points="378,-56.5 378,-75.5 440,-75.5 440,-56.5 378,-56.5"/>
<text text-anchor="middle" x="409" y="-63.5" font-family="Helvetica,sans-Serif" font-size="10.00">typedefs.h</text>
</a>
</g>
</g>
<!-- Node7&#45;&gt;Node8 -->
<g id="edge7" class="edge"><title>Node7&#45;&gt;Node8</title>
<path fill="none" stroke="midnightblue" d="M409,-112.083C409,-105.006 409,-94.8611 409,-85.9865"/>
<polygon fill="midnightblue" stroke="midnightblue" points="412.5,-85.751 409,-75.7511 405.5,-85.7511 412.5,-85.751"/>
</g>
<!-- Node9 -->
<g id="node9" class="node"><title>Node9</title>
<polygon fill="none" stroke="#bfbfbf" points="305.5,-0.5 305.5,-19.5 364.5,-19.5 364.5,-0.5 305.5,-0.5"/>
<text text-anchor="middle" x="335" y="-7.5" font-family="Helvetica,sans-Serif" font-size="10.00">inttypes.h</text>
</g>
<!-- Node8&#45;&gt;Node9 -->
<g id="edge8" class="edge"><title>Node8&#45;&gt;Node9</title>
<path fill="none" stroke="midnightblue" d="M397.111,-56.324C385.85,-48.1066 368.713,-35.6017 355.291,-25.8069"/>
<polygon fill="midnightblue" stroke="midnightblue" points="357.247,-22.9014 347.106,-19.8339 353.12,-28.5559 357.247,-22.9014"/>
</g>
<!-- Node10 -->
<g id="node10" class="node"><title>Node10</title>
<polygon fill="none" stroke="#bfbfbf" points="383,-0.5 383,-19.5 435,-19.5 435,-0.5 383,-0.5"/>
<text text-anchor="middle" x="409" y="-7.5" font-family="Helvetica,sans-Serif" font-size="10.00">stddef.h</text>
</g>
<!-- Node8&#45;&gt;Node10 -->
<g id="edge9" class="edge"><title>Node8&#45;&gt;Node10</title>
<path fill="none" stroke="midnightblue" d="M409,-56.083C409,-49.0059 409,-38.8611 409,-29.9865"/>
<polygon fill="midnightblue" stroke="midnightblue" points="412.5,-29.751 409,-19.7511 405.5,-29.7511 412.5,-29.751"/>
</g>
<!-- Node11 -->
<g id="node11" class="node"><title>Node11</title>
<polygon fill="none" stroke="#bfbfbf" points="453,-0.5 453,-19.5 509,-19.5 509,-0.5 453,-0.5"/>
<text text-anchor="middle" x="481" y="-7.5" font-family="Helvetica,sans-Serif" font-size="10.00">stdbool.h</text>
</g>
<!-- Node8&#45;&gt;Node11 -->
<g id="edge10" class="edge"><title>Node8&#45;&gt;Node11</title>
<path fill="none" stroke="midnightblue" d="M420.568,-56.324C431.42,-48.1849 447.881,-35.8395 460.883,-26.0874"/>
<polygon fill="midnightblue" stroke="midnightblue" points="463.321,-28.6339 469.221,-19.8339 459.121,-23.0339 463.321,-28.6339"/>
</g>
</g>
</svg>
