<?xml version="1.0" encoding="UTF-8" standalone="no"?>
<!DOCTYPE svg PUBLIC "-//W3C//DTD SVG 1.1//EN"
 "http://www.w3.org/Graphics/SVG/1.1/DTD/svg11.dtd">
<!-- Generated by graphviz version 2.36.0 (20140111.2315)
 -->
<!-- Title: src/cip/ciptcpipinterface.c Pages: 1 -->
<svg width="882pt" height="252pt"
 viewBox="0.00 0.00 882.00 252.00" xmlns="http://www.w3.org/2000/svg" xmlns:xlink="http://www.w3.org/1999/xlink">
<g id="graph0" class="graph" transform="scale(1 1) rotate(0) translate(4 248)">
<title>src/cip/ciptcpipinterface.c</title>
<!-- Node1 -->
<g id="node1" class="node"><title>Node1</title>
<polygon fill="#bfbfbf" stroke="black" points="397,-224.5 397,-243.5 525,-243.5 525,-224.5 397,-224.5"/>
<text text-anchor="middle" x="461" y="-231.5" font-family="Helvetica,sans-Serif" font-size="10.00">src/cip/ciptcpipinterface.c</text>
</g>
<!-- Node2 -->
<g id="node2" class="node"><title>Node2</title>
<polygon fill="none" stroke="#bfbfbf" points="-0.5,-168.5 -0.5,-187.5 48.5,-187.5 48.5,-168.5 -0.5,-168.5"/>
<text text-anchor="middle" x="24" y="-175.5" font-family="Helvetica,sans-Serif" font-size="10.00">string.h</text>
</g>
<!-- Node1&#45;&gt;Node2 -->
<g id="edge1" class="edge"><title>Node1&#45;&gt;Node2</title>
<path fill="none" stroke="midnightblue" d="M396.921,-228.024C318.005,-221.374 180.03,-208.052 63,-188 61.5446,-187.751 60.0621,-187.481 58.567,-187.195"/>
<polygon fill="midnightblue" stroke="midnightblue" points="59.1742,-183.747 48.6716,-185.141 57.7515,-190.601 59.1742,-183.747"/>
</g>
<!-- Node3 -->
<g id="node3" class="node"><title>Node3</title>
<g id="a_node3"><a xlink:href="../../d1/dad/ciptcpipinterface_8h.html" target="_top" xlink:title="Public interface of the TCP/IP Interface Object. ">
<polygon fill="none" stroke="black" points="309,-168.5 309,-187.5 405,-187.5 405,-168.5 309,-168.5"/>
<text text-anchor="middle" x="357" y="-175.5" font-family="Helvetica,sans-Serif" font-size="10.00">ciptcpipinterface.h</text>
</a>
</g>
</g>
<!-- Node1&#45;&gt;Node3 -->
<g id="edge2" class="edge"><title>Node1&#45;&gt;Node3</title>
<path fill="none" stroke="midnightblue" d="M444.291,-224.324C427.688,-215.703 401.998,-202.364 382.78,-192.386"/>
<polygon fill="midnightblue" stroke="midnightblue" points="384.156,-189.156 373.668,-187.655 380.93,-195.369 384.156,-189.156"/>
</g>
<!-- Node10 -->
<g id="node10" class="node"><title>Node10</title>
<polygon fill="none" stroke="#bfbfbf" points="697,-112.5 697,-131.5 799,-131.5 799,-112.5 697,-112.5"/>
<text text-anchor="middle" x="748" y="-119.5" font-family="Helvetica,sans-Serif" font-size="10.00">opener_user_conf.h</text>
</g>
<!-- Node1&#45;&gt;Node10 -->
<g id="edge10" class="edge"><title>Node1&#45;&gt;Node10</title>
<path fill="none" stroke="midnightblue" d="M525.216,-233.518C609.174,-232.666 749.412,-225.475 782,-188 794.833,-173.243 780.036,-152.801 766.139,-138.805"/>
<polygon fill="midnightblue" stroke="midnightblue" points="768.365,-136.093 758.693,-131.769 763.558,-141.181 768.365,-136.093"/>
</g>
<!-- Node11 -->
<g id="node11" class="node"><title>Node11</title>
<g id="a_node11"><a xlink:href="../../db/d14/cipcommon_8h.html" target="_top" xlink:title="cipcommon.h">
<polygon fill="none" stroke="black" points="423.5,-168.5 423.5,-187.5 498.5,-187.5 498.5,-168.5 423.5,-168.5"/>
<text text-anchor="middle" x="461" y="-175.5" font-family="Helvetica,sans-Serif" font-size="10.00">cipcommon.h</text>
</a>
</g>
</g>
<!-- Node1&#45;&gt;Node11 -->
<g id="edge11" class="edge"><title>Node1&#45;&gt;Node11</title>
<path fill="none" stroke="midnightblue" d="M461,-224.083C461,-217.006 461,-206.861 461,-197.986"/>
<polygon fill="midnightblue" stroke="midnightblue" points="464.5,-197.751 461,-187.751 457.5,-197.751 464.5,-197.751"/>
</g>
<!-- Node12 -->
<g id="node12" class="node"><title>Node12</title>
<g id="a_node12"><a xlink:href="../../d2/d75/cipmessagerouter_8h.html" target="_top" xlink:title="cipmessagerouter.h">
<polygon fill="none" stroke="black" points="516,-168.5 516,-187.5 618,-187.5 618,-168.5 516,-168.5"/>
<text text-anchor="middle" x="567" y="-175.5" font-family="Helvetica,sans-Serif" font-size="10.00">cipmessagerouter.h</text>
</a>
</g>
</g>
<!-- Node1&#45;&gt;Node12 -->
<g id="edge14" class="edge"><title>Node1&#45;&gt;Node12</title>
<path fill="none" stroke="midnightblue" d="M478.031,-224.324C495.03,-215.664 521.376,-202.242 540.993,-192.249"/>
<polygon fill="midnightblue" stroke="midnightblue" points="542.69,-195.312 550.012,-187.655 539.512,-189.075 542.69,-195.312"/>
</g>
<!-- Node13 -->
<g id="node13" class="node"><title>Node13</title>
<g id="a_node13"><a xlink:href="../../d6/d52/ciperror_8h.html" target="_top" xlink:title="ciperror.h">
<polygon fill="none" stroke="black" points="817.5,-112.5 817.5,-131.5 874.5,-131.5 874.5,-112.5 817.5,-112.5"/>
<text text-anchor="middle" x="846" y="-119.5" font-family="Helvetica,sans-Serif" font-size="10.00">ciperror.h</text>
</a>
</g>
</g>
<!-- Node1&#45;&gt;Node13 -->
<g id="edge17" class="edge"><title>Node1&#45;&gt;Node13</title>
<path fill="none" stroke="midnightblue" d="M525.34,-230.343C609.955,-225.85 753.154,-214.501 798,-188 816.251,-177.214 829.682,-156.511 837.622,-141.358"/>
<polygon fill="midnightblue" stroke="midnightblue" points="840.978,-142.465 842.235,-131.944 834.692,-139.385 840.978,-142.465"/>
</g>
<!-- Node14 -->
<g id="node14" class="node"><title>Node14</title>
<g id="a_node14"><a xlink:href="../../d0/dec/endianconv_8h.html" target="_top" xlink:title="Responsible for Endianess conversion. ">
<polygon fill="none" stroke="black" points="58,-112.5 58,-131.5 132,-131.5 132,-112.5 58,-112.5"/>
<text text-anchor="middle" x="95" y="-119.5" font-family="Helvetica,sans-Serif" font-size="10.00">endianconv.h</text>
</a>
</g>
</g>
<!-- Node1&#45;&gt;Node14 -->
<g id="edge18" class="edge"><title>Node1&#45;&gt;Node14</title>
<path fill="none" stroke="midnightblue" d="M396.899,-229.606C297.559,-223.687 115.731,-209.97 96,-188 84.9429,-175.688 86.2237,-156.157 89.3366,-141.714"/>
<polygon fill="midnightblue" stroke="midnightblue" points="92.768,-142.425 91.9001,-131.866 85.9938,-140.662 92.768,-142.425"/>
</g>
<!-- Node15 -->
<g id="node15" class="node"><title>Node15</title>
<g id="a_node15"><a xlink:href="../../dd/d4d/cipethernetlink_8h.html" target="_top" xlink:title="cipethernetlink.h">
<polygon fill="none" stroke="black" points="105,-168.5 105,-187.5 193,-187.5 193,-168.5 105,-168.5"/>
<text text-anchor="middle" x="149" y="-175.5" font-family="Helvetica,sans-Serif" font-size="10.00">cipethernetlink.h</text>
</a>
</g>
</g>
<!-- Node1&#45;&gt;Node15 -->
<g id="edge20" class="edge"><title>Node1&#45;&gt;Node15</title>
<path fill="none" stroke="midnightblue" d="M411.563,-224.444C354.829,-214.624 262.078,-198.571 203.356,-188.408"/>
<polygon fill="midnightblue" stroke="midnightblue" points="203.612,-184.9 193.161,-186.643 202.418,-191.798 203.612,-184.9"/>
</g>
<!-- Node16 -->
<g id="node16" class="node"><title>Node16</title>
<g id="a_node16"><a xlink:href="../../d4/d38/opener__api_8h.html" target="_top" xlink:title="opener_api.h">
<polygon fill="none" stroke="black" points="636,-168.5 636,-187.5 708,-187.5 708,-168.5 636,-168.5"/>
<text text-anchor="middle" x="672" y="-175.5" font-family="Helvetica,sans-Serif" font-size="10.00">opener_api.h</text>
</a>
</g>
</g>
<!-- Node1&#45;&gt;Node16 -->
<g id="edge23" class="edge"><title>Node1&#45;&gt;Node16</title>
<path fill="none" stroke="midnightblue" d="M494.434,-224.444C530.856,-215.122 589.23,-200.183 629.029,-189.997"/>
<polygon fill="midnightblue" stroke="midnightblue" points="629.903,-193.387 638.723,-187.516 628.167,-186.605 629.903,-193.387"/>
</g>
<!-- Node18 -->
<g id="node18" class="node"><title>Node18</title>
<g id="a_node18"><a xlink:href="../../d1/d1b/trace_8h.html" target="_top" xlink:title="Tracing infrastructure for OpENer. ">
<polygon fill="none" stroke="black" points="726.5,-168.5 726.5,-187.5 773.5,-187.5 773.5,-168.5 726.5,-168.5"/>
<text text-anchor="middle" x="750" y="-175.5" font-family="Helvetica,sans-Serif" font-size="10.00">trace.h</text>
</a>
</g>
</g>
<!-- Node1&#45;&gt;Node18 -->
<g id="edge30" class="edge"><title>Node1&#45;&gt;Node18</title>
<path fill="none" stroke="midnightblue" d="M518.238,-224.488C568.08,-216.725 642.455,-204.299 716.327,-187.975"/>
<polygon fill="midnightblue" stroke="midnightblue" points="717.276,-191.349 726.272,-185.752 715.75,-184.518 717.276,-191.349"/>
</g>
<!-- Node19 -->
<g id="node19" class="node"><title>Node19</title>
<g id="a_node19"><a xlink:href="../../de/df4/cipassembly_8h.html" target="_top" xlink:title="cipassembly.h">
<polygon fill="none" stroke="black" points="211,-168.5 211,-187.5 291,-187.5 291,-168.5 211,-168.5"/>
<text text-anchor="middle" x="251" y="-175.5" font-family="Helvetica,sans-Serif" font-size="10.00">cipassembly.h</text>
</a>
</g>
</g>
<!-- Node1&#45;&gt;Node19 -->
<g id="edge32" class="edge"><title>Node1&#45;&gt;Node19</title>
<path fill="none" stroke="midnightblue" d="M427.725,-224.444C391.552,-215.142 333.623,-200.246 294.019,-190.062"/>
<polygon fill="midnightblue" stroke="midnightblue" points="294.676,-186.617 284.119,-187.516 292.933,-193.397 294.676,-186.617"/>
</g>
<!-- Node4 -->
<g id="node4" class="node"><title>Node4</title>
<g id="a_node4"><a xlink:href="../../d7/d69/typedefs_8h.html" target="_top" xlink:title="typedefs.h">
<polygon fill="none" stroke="black" points="343,-56.5 343,-75.5 405,-75.5 405,-56.5 343,-56.5"/>
<text text-anchor="middle" x="374" y="-63.5" font-family="Helvetica,sans-Serif" font-size="10.00">typedefs.h</text>
</a>
</g>
</g>
<!-- Node3&#45;&gt;Node4 -->
<g id="edge3" class="edge"><title>Node3&#45;&gt;Node4</title>
<path fill="none" stroke="midnightblue" d="M357.641,-168.126C358.618,-155.573 360.722,-131.935 364,-112 365.446,-103.205 367.527,-93.5449 369.416,-85.4376"/>
<polygon fill="midnightblue" stroke="midnightblue" points="372.853,-86.1134 371.796,-75.5714 366.049,-84.4717 372.853,-86.1134"/>
</g>
<!-- Node8 -->
<g id="node8" class="node"><title>Node8</title>
<g id="a_node8"><a xlink:href="../../df/d28/ciptypes_8h.html" target="_top" xlink:title="ciptypes.h">
<polygon fill="none" stroke="black" points="373,-112.5 373,-131.5 435,-131.5 435,-112.5 373,-112.5"/>
<text text-anchor="middle" x="404" y="-119.5" font-family="Helvetica,sans-Serif" font-size="10.00">ciptypes.h</text>
</a>
</g>
</g>
<!-- Node3&#45;&gt;Node8 -->
<g id="edge7" class="edge"><title>Node3&#45;&gt;Node8</title>
<path fill="none" stroke="midnightblue" d="M364.761,-168.083C371.537,-160.298 381.543,-148.801 389.755,-139.367"/>
<polygon fill="midnightblue" stroke="midnightblue" points="392.458,-141.592 396.383,-131.751 387.178,-136.996 392.458,-141.592"/>
</g>
<!-- Node5 -->
<g id="node5" class="node"><title>Node5</title>
<polygon fill="none" stroke="#bfbfbf" points="381.5,-0.5 381.5,-19.5 440.5,-19.5 440.5,-0.5 381.5,-0.5"/>
<text text-anchor="middle" x="411" y="-7.5" font-family="Helvetica,sans-Serif" font-size="10.00">inttypes.h</text>
</g>
<!-- Node4&#45;&gt;Node5 -->
<g id="edge4" class="edge"><title>Node4&#45;&gt;Node5</title>
<path fill="none" stroke="midnightblue" d="M380.11,-56.083C385.282,-48.5341 392.846,-37.4948 399.194,-28.2298"/>
<polygon fill="midnightblue" stroke="midnightblue" points="402.239,-29.9787 405.004,-19.7511 396.464,-26.0221 402.239,-29.9787"/>
</g>
<!-- Node6 -->
<g id="node6" class="node"><title>Node6</title>
<polygon fill="none" stroke="#bfbfbf" points="311,-0.5 311,-19.5 363,-19.5 363,-0.5 311,-0.5"/>
<text text-anchor="middle" x="337" y="-7.5" font-family="Helvetica,sans-Serif" font-size="10.00">stddef.h</text>
</g>
<!-- Node4&#45;&gt;Node6 -->
<g id="edge5" class="edge"><title>Node4&#45;&gt;Node6</title>
<path fill="none" stroke="midnightblue" d="M367.89,-56.083C362.718,-48.5341 355.154,-37.4948 348.806,-28.2298"/>
<polygon fill="midnightblue" stroke="midnightblue" points="351.536,-26.0221 342.996,-19.7511 345.761,-29.9787 351.536,-26.0221"/>
</g>
<!-- Node7 -->
<g id="node7" class="node"><title>Node7</title>
<polygon fill="none" stroke="#bfbfbf" points="513,-0.5 513,-19.5 569,-19.5 569,-0.5 513,-0.5"/>
<text text-anchor="middle" x="541" y="-7.5" font-family="Helvetica,sans-Serif" font-size="10.00">stdbool.h</text>
</g>
<!-- Node4&#45;&gt;Node7 -->
<g id="edge6" class="edge"><title>Node4&#45;&gt;Node7</title>
<path fill="none" stroke="midnightblue" d="M400.462,-56.4435C428.678,-47.3196 473.54,-32.8133 504.968,-22.6509"/>
<polygon fill="midnightblue" stroke="midnightblue" points="506.224,-25.9234 514.662,-19.5164 504.07,-19.263 506.224,-25.9234"/>
</g>
<!-- Node8&#45;&gt;Node4 -->
<g id="edge8" class="edge"><title>Node8&#45;&gt;Node4</title>
<path fill="none" stroke="midnightblue" d="M399.046,-112.083C394.896,-104.613 388.847,-93.7244 383.733,-84.5199"/>
<polygon fill="midnightblue" stroke="midnightblue" points="386.778,-82.7929 378.862,-75.7511 380.659,-86.1924 386.778,-82.7929"/>
</g>
<!-- Node9 -->
<g id="node9" class="node"><title>Node9</title>
<polygon fill="none" stroke="#bfbfbf" points="423.5,-56.5 423.5,-75.5 514.5,-75.5 514.5,-56.5 423.5,-56.5"/>
<text text-anchor="middle" x="469" y="-63.5" font-family="Helvetica,sans-Serif" font-size="10.00">networkhandler.h</text>
</g>
<!-- Node8&#45;&gt;Node9 -->
<g id="edge9" class="edge"><title>Node8&#45;&gt;Node9</title>
<path fill="none" stroke="midnightblue" d="M414.443,-112.324C424.146,-104.263 438.815,-92.0765 450.5,-82.3695"/>
<polygon fill="midnightblue" stroke="midnightblue" points="452.911,-84.9163 458.367,-75.8339 448.438,-79.532 452.911,-84.9163"/>
</g>
<!-- Node11&#45;&gt;Node4 -->
<g id="edge12" class="edge"><title>Node11&#45;&gt;Node4</title>
<path fill="none" stroke="midnightblue" d="M460.511,-168.158C459.372,-154.797 455.582,-129.201 443,-112 433.053,-98.4006 417.648,-87.7878 403.915,-80.2928"/>
<polygon fill="midnightblue" stroke="midnightblue" points="405.258,-77.0485 394.762,-75.6037 402.066,-83.2784 405.258,-77.0485"/>
</g>
<!-- Node11&#45;&gt;Node8 -->
<g id="edge13" class="edge"><title>Node11&#45;&gt;Node8</title>
<path fill="none" stroke="midnightblue" d="M451.842,-168.324C443.499,-160.42 430.968,-148.548 420.823,-138.938"/>
<polygon fill="midnightblue" stroke="midnightblue" points="422.991,-136.171 413.325,-131.834 418.177,-141.252 422.991,-136.171"/>
</g>
<!-- Node12&#45;&gt;Node4 -->
<g id="edge15" class="edge"><title>Node12&#45;&gt;Node4</title>
<path fill="none" stroke="midnightblue" d="M553.947,-168.44C534.294,-155.662 495.801,-131.062 462,-112 441.822,-100.621 418.454,-88.7287 400.871,-80.0295"/>
<polygon fill="midnightblue" stroke="midnightblue" points="402.273,-76.8189 391.755,-75.5485 399.185,-83.101 402.273,-76.8189"/>
</g>
<!-- Node12&#45;&gt;Node8 -->
<g id="edge16" class="edge"><title>Node12&#45;&gt;Node8</title>
<path fill="none" stroke="midnightblue" d="M541.172,-168.444C513.751,-159.359 470.223,-144.939 439.568,-134.783"/>
<polygon fill="midnightblue" stroke="midnightblue" points="440.3,-131.339 429.707,-131.516 438.099,-137.984 440.3,-131.339"/>
</g>
<!-- Node14&#45;&gt;Node4 -->
<g id="edge19" class="edge"><title>Node14&#45;&gt;Node4</title>
<path fill="none" stroke="midnightblue" d="M132.049,-113.829C184.13,-103.749 278.672,-85.4506 332.872,-74.9603"/>
<polygon fill="midnightblue" stroke="midnightblue" points="333.674,-78.3702 342.826,-73.0336 332.343,-71.4977 333.674,-78.3702"/>
</g>
<!-- Node15&#45;&gt;Node4 -->
<g id="edge21" class="edge"><title>Node15&#45;&gt;Node4</title>
<path fill="none" stroke="midnightblue" d="M166.655,-168.368C205.923,-149.171 300.687,-102.842 347.258,-80.074"/>
<polygon fill="midnightblue" stroke="midnightblue" points="348.98,-83.1279 356.427,-75.5914 345.906,-76.8392 348.98,-83.1279"/>
</g>
<!-- Node15&#45;&gt;Node8 -->
<g id="edge22" class="edge"><title>Node15&#45;&gt;Node8</title>
<path fill="none" stroke="midnightblue" d="M189.406,-168.444C236.768,-158.414 314.844,-141.88 362.622,-131.762"/>
<polygon fill="midnightblue" stroke="midnightblue" points="363.568,-135.14 372.626,-129.644 362.118,-128.292 363.568,-135.14"/>
</g>
<!-- Node16&#45;&gt;Node4 -->
<g id="edge26" class="edge"><title>Node16&#45;&gt;Node4</title>
<path fill="none" stroke="midnightblue" d="M648.616,-168.368C595.847,-148.89 467.407,-101.479 406.75,-79.089"/>
<polygon fill="midnightblue" stroke="midnightblue" points="407.868,-75.7709 397.275,-75.5914 405.444,-82.3378 407.868,-75.7709"/>
</g>
<!-- Node16&#45;&gt;Node7 -->
<g id="edge25" class="edge"><title>Node16&#45;&gt;Node7</title>
<path fill="none" stroke="midnightblue" d="M659.474,-168.309C647.875,-159.878 630.573,-146.295 618,-132 588.66,-98.6414 562.815,-53.0074 549.845,-28.4119"/>
<polygon fill="midnightblue" stroke="midnightblue" points="552.951,-26.7986 545.242,-19.531 546.737,-30.0199 552.951,-26.7986"/>
</g>
<!-- Node16&#45;&gt;Node8 -->
<g id="edge27" class="edge"><title>Node16&#45;&gt;Node8</title>
<path fill="none" stroke="midnightblue" d="M635.856,-169.717C586.162,-159.704 496.988,-141.736 444.906,-131.242"/>
<polygon fill="midnightblue" stroke="midnightblue" points="445.501,-127.792 435.007,-129.248 444.118,-134.654 445.501,-127.792"/>
</g>
<!-- Node16&#45;&gt;Node10 -->
<g id="edge29" class="edge"><title>Node16&#45;&gt;Node10</title>
<path fill="none" stroke="midnightblue" d="M684.211,-168.324C695.776,-160.107 713.375,-147.602 727.161,-137.807"/>
<polygon fill="midnightblue" stroke="midnightblue" points="729.443,-140.479 735.567,-131.834 725.388,-134.773 729.443,-140.479"/>
</g>
<!-- Node16&#45;&gt;Node13 -->
<g id="edge28" class="edge"><title>Node16&#45;&gt;Node13</title>
<path fill="none" stroke="midnightblue" d="M699.571,-168.444C729.097,-159.28 776.118,-144.688 808.883,-134.519"/>
<polygon fill="midnightblue" stroke="midnightblue" points="810.045,-137.823 818.558,-131.516 807.97,-131.138 810.045,-137.823"/>
</g>
<!-- Node17 -->
<g id="node17" class="node"><title>Node17</title>
<polygon fill="none" stroke="#bfbfbf" points="627,-112.5 627,-131.5 679,-131.5 679,-112.5 627,-112.5"/>
<text text-anchor="middle" x="653" y="-119.5" font-family="Helvetica,sans-Serif" font-size="10.00">assert.h</text>
</g>
<!-- Node16&#45;&gt;Node17 -->
<g id="edge24" class="edge"><title>Node16&#45;&gt;Node17</title>
<path fill="none" stroke="midnightblue" d="M668.863,-168.083C666.317,-160.849 662.644,-150.409 659.473,-141.397"/>
<polygon fill="midnightblue" stroke="midnightblue" points="662.7,-140.023 656.079,-131.751 656.097,-142.346 662.7,-140.023"/>
</g>
<!-- Node18&#45;&gt;Node10 -->
<g id="edge31" class="edge"><title>Node18&#45;&gt;Node10</title>
<path fill="none" stroke="midnightblue" d="M749.67,-168.083C749.408,-161.006 749.032,-150.861 748.703,-141.986"/>
<polygon fill="midnightblue" stroke="midnightblue" points="752.192,-141.615 748.324,-131.751 745.197,-141.874 752.192,-141.615"/>
</g>
<!-- Node19&#45;&gt;Node4 -->
<g id="edge33" class="edge"><title>Node19&#45;&gt;Node4</title>
<path fill="none" stroke="midnightblue" d="M260.652,-168.368C281.399,-149.814 330.488,-105.913 356.738,-82.4376"/>
<polygon fill="midnightblue" stroke="midnightblue" points="359.272,-84.8665 364.393,-75.5914 354.606,-79.6487 359.272,-84.8665"/>
</g>
<!-- Node19&#45;&gt;Node8 -->
<g id="edge34" class="edge"><title>Node19&#45;&gt;Node8</title>
<path fill="none" stroke="midnightblue" d="M275.243,-168.444C300.871,-159.399 341.485,-145.064 370.238,-134.916"/>
<polygon fill="midnightblue" stroke="midnightblue" points="371.605,-138.145 379.87,-131.516 369.275,-131.544 371.605,-138.145"/>
</g>
</g>
</svg>
