<?xml version="1.0" encoding="UTF-8" standalone="no"?>
<!DOCTYPE svg PUBLIC "-//W3C//DTD SVG 1.1//EN"
 "http://www.w3.org/Graphics/SVG/1.1/DTD/svg11.dtd">
<!-- Generated by graphviz version 2.38.0 (20140413.2041)
 -->
<!-- Title: src/ports/WIN32/networkhandler.h Pages: 1 -->
<svg width="436pt" height="106pt"
 viewBox="0.00 0.00 436.00 106.00" xmlns="http://www.w3.org/2000/svg" xmlns:xlink="http://www.w3.org/1999/xlink">
<g id="graph0" class="graph" transform="scale(1 1) rotate(0) translate(4 102)">
<title>src/ports/WIN32/networkhandler.h</title>
<!-- Node1 -->
<g id="node1" class="node"><title>Node1</title>
<polygon fill="#bfbfbf" stroke="black" points="100,-78.5 100,-97.5 266,-97.5 266,-78.5 100,-78.5"/>
<text text-anchor="middle" x="183" y="-85.5" font-family="Helvetica,sans-Serif" font-size="10.00">src/ports/WIN32/networkhandler.h</text>
</g>
<!-- Node2 -->
<g id="node2" class="node"><title>Node2</title>
<g id="a_node2"><a xlink:href="../../d0/d17/LM3S8962_2sample__application_2main_8c.html" target="_top" xlink:title="src/ports/LM3S8962\l/sample_application\l/main.c">
<polygon fill="none" stroke="black" points="0,-0.5 0,-41.5 104,-41.5 104,-0.5 0,-0.5"/>
<text text-anchor="start" x="8" y="-29.5" font-family="Helvetica,sans-Serif" font-size="10.00">src/ports/LM3S8962</text>
<text text-anchor="start" x="8" y="-18.5" font-family="Helvetica,sans-Serif" font-size="10.00">/sample_application</text>
<text text-anchor="middle" x="52" y="-7.5" font-family="Helvetica,sans-Serif" font-size="10.00">/main.c</text>
</a>
</g>
</g>
<!-- Node1&#45;&gt;Node2 -->
<g id="edge1" class="edge"><title>Node1&#45;&gt;Node2</title>
<path fill="none" stroke="midnightblue" d="M156.516,-73.8589C137.868,-64.6063 112.582,-52.0599 91.5528,-41.6254"/>
<polygon fill="midnightblue" stroke="midnightblue" points="155.091,-77.059 165.604,-78.3685 158.202,-70.7884 155.091,-77.059"/>
</g>
<!-- Node3 -->
<g id="node3" class="node"><title>Node3</title>
<g id="a_node3"><a xlink:href="../../dc/db2/WIN32_2main_8c.html" target="_top" xlink:title="src/ports/WIN32/main.c">
<polygon fill="none" stroke="black" points="122.5,-11.5 122.5,-30.5 243.5,-30.5 243.5,-11.5 122.5,-11.5"/>
<text text-anchor="middle" x="183" y="-18.5" font-family="Helvetica,sans-Serif" font-size="10.00">src/ports/WIN32/main.c</text>
</a>
</g>
</g>
<!-- Node1&#45;&gt;Node3 -->
<g id="edge2" class="edge"><title>Node1&#45;&gt;Node3</title>
<path fill="none" stroke="midnightblue" d="M183,-68.037C183,-55.6703 183,-40.1198 183,-30.6273"/>
<polygon fill="midnightblue" stroke="midnightblue" points="179.5,-68.2338 183,-78.2338 186.5,-68.2338 179.5,-68.2338"/>
</g>
<!-- Node4 -->
<g id="node4" class="node"><title>Node4</title>
<g id="a_node4"><a xlink:href="../../d8/d6c/WIN32_2networkhandler_8c.html" target="_top" xlink:title="src/ports/WIN32/networkhandler.c">
<polygon fill="none" stroke="black" points="262,-11.5 262,-30.5 428,-30.5 428,-11.5 262,-11.5"/>
<text text-anchor="middle" x="345" y="-18.5" font-family="Helvetica,sans-Serif" font-size="10.00">src/ports/WIN32/networkhandler.c</text>
</a>
</g>
</g>
<!-- Node1&#45;&gt;Node4 -->
<g id="edge3" class="edge"><title>Node1&#45;&gt;Node4</title>
<path fill="none" stroke="midnightblue" d="M213.894,-74.6041C246.059,-61.6984 295.585,-41.8272 323.657,-30.5637"/>
<polygon fill="midnightblue" stroke="midnightblue" points="212.49,-71.3964 204.512,-78.3685 215.097,-77.8929 212.49,-71.3964"/>
</g>
</g>
</svg>
