<?xml version="1.0" encoding="UTF-8" standalone="no"?>
<!DOCTYPE svg PUBLIC "-//W3C//DTD SVG 1.1//EN"
 "http://www.w3.org/Graphics/SVG/1.1/DTD/svg11.dtd">
<!-- Generated by graphviz version 2.26.3 (20100126.1600)
 -->
<!-- Title: G Pages: 1 -->
<!--zoomable 550 -->
<svg id="main" version="1.1" xmlns="http://www.w3.org/2000/svg" xmlns:xlink="http://www.w3.org/1999/xlink" xml:space="preserve" onload="init(evt)">
        <defs>
                <circle id="rim" cx="0" cy="0" r="7"/>
                <circle id="rim2" cx="0" cy="0" r="3.5"/>
                <g id="zoomPlus">
                        <use xlink:href="#rim" fill="#404040">
                                <set attributeName="fill" to="#808080" begin="zoomplus.mouseover" end="zoomplus.mouseout"/>
                        </use>
                        <path d="M-4,0h8M0,-4v8" fill="none" stroke="white" stroke-width="1.5" pointer-events="none"/>
                </g>
                <g id="zoomMin">
                        <use xlink:href="#rim" fill="#404040">
                                <set attributeName="fill" to="#808080" begin="zoomminus.mouseover" end="zoomminus.mouseout"/>
                        </use>
                        <path d="M-4,0h8" fill="none" stroke="white" stroke-width="1.5" pointer-events="none"/>
                </g>
                <g id="dirArrow">
                        <path fill="none" stroke="white" stroke-width="1.5" d="M0,-3.0v7 M-2.5,-0.5L0,-3.0L2.5,-0.5"/>
                </g>
               <g id="resetDef">
                       <use xlink:href="#rim2" fill="#404040">
                               <set attributeName="fill" to="#808080" begin="reset.mouseover" end="reset.mouseout"/>
                       </use>
               </g>
        </defs>

<script type="text/javascript">
var viewWidth = 1082;
var viewHeight = 550;
var sectionId = 'dynsection-3';
</script>
<script xlink:href="../../svgpan.js"/>
<svg id="graph" class="graph">
<g id="viewport">
<title>G</title>
<!-- Node1 -->
<g id="node1" class="node"><title>Node1</title>
<polygon fill="#bfbfbf" stroke="black" points="0.5,-220.5 0.5,-241.5 137.5,-241.5 137.5,-220.5 0.5,-220.5"/>
<text text-anchor="middle" x="69" y="-228.5" font-family="Helvetica,sans-Serif" font-size="10.00">EstablishClass3Connection</text>
</g>
<!-- Node2 -->
<g id="node3" class="node"><title>Node2</title>
<a xlink:href="../../d5/d35/cipconnectionmanager_8c.html#aac2c0397cf54cb8356126c0d71d744ff" target="_top" xlink:title="Insert the given connection object to the list of currently active and managed connections.">
<polygon fill="none" stroke="black" points="201.5,-480.5 201.5,-501.5 332.5,-501.5 332.5,-480.5 201.5,-480.5"/>
<text text-anchor="middle" x="267" y="-488.5" font-family="Helvetica,sans-Serif" font-size="10.00">AddNewActiveConnection</text>
</a>
</g>
<!-- Node1&#45;&gt;Node2 -->
<g id="edge2" class="edge"><title>Node1&#45;&gt;Node2</title>
<path fill="none" stroke="midnightblue" d="M72.4169,-241.706C83.0404,-273.663 118.166,-369.93 174,-431 191.159,-449.768 215.431,-465.166 234.876,-475.663"/>
<polygon fill="midnightblue" stroke="midnightblue" points="233.498,-478.891 243.982,-480.416 236.737,-472.686 233.498,-478.891"/>
</g>
<!-- Node6 -->
<g id="node11" class="node"><title>Node6</title>
<a xlink:href="../../d5/d35/cipconnectionmanager_8c.html#a9367d6d6edfd5bd276ead18619f4d74e" target="_top" xlink:title="Close the given connection.">
<polygon fill="none" stroke="black" points="221,-400.5 221,-421.5 313,-421.5 313,-400.5 221,-400.5"/>
<text text-anchor="middle" x="267" y="-408.5" font-family="Helvetica,sans-Serif" font-size="10.00">CloseConnection</text>
</a>
</g>
<!-- Node1&#45;&gt;Node6 -->
<g id="edge10" class="edge"><title>Node1&#45;&gt;Node6</title>
<path fill="none" stroke="midnightblue" d="M80.7928,-241.721C113.739,-271.672 206.997,-356.452 247.652,-393.411"/>
<polygon fill="midnightblue" stroke="midnightblue" points="245.515,-396.198 255.269,-400.335 250.224,-391.019 245.515,-396.198"/>
</g>
<!-- Node14 -->
<g id="node28" class="node"><title>Node14</title>
<a xlink:href="../../df/d91/cipconnectionobject_8c.html#afaa08a457cbae921463403f0f00dd38e" target="_top" xlink:title="Copy the given connection data from source to destination.">
<polygon fill="none" stroke="black" points="196.5,-240.5 196.5,-261.5 337.5,-261.5 337.5,-240.5 196.5,-240.5"/>
<text text-anchor="middle" x="267" y="-248.5" font-family="Helvetica,sans-Serif" font-size="10.00">ConnectionObjectDeepCopy</text>
</a>
</g>
<!-- Node1&#45;&gt;Node14 -->
<g id="edge28" class="edge"><title>Node1&#45;&gt;Node14</title>
<path fill="none" stroke="midnightblue" d="M137.695,-237.939C153.419,-239.527 170.273,-241.23 186.445,-242.863"/>
<polygon fill="midnightblue" stroke="midnightblue" points="186.109,-246.347 196.411,-243.87 186.813,-239.382 186.109,-246.347"/>
</g>
<!-- Node15 -->
<g id="node30" class="node"><title>Node15</title>
<a xlink:href="../../df/d91/cipconnectionobject_8c.html#a65b85bb4b72c902af06e054e24d6292c" target="_top" xlink:title="Generate the ConnectionIDs and set the general configuration parameter in the given connection object...">
<polygon fill="none" stroke="black" points="174,-200.5 174,-221.5 360,-221.5 360,-200.5 174,-200.5"/>
<text text-anchor="middle" x="267" y="-208.5" font-family="Helvetica,sans-Serif" font-size="10.00">ConnectionObjectGeneralConfiguration</text>
</a>
</g>
<!-- Node1&#45;&gt;Node15 -->
<g id="edge30" class="edge"><title>Node1&#45;&gt;Node15</title>
<path fill="none" stroke="midnightblue" d="M137.695,-224.061C146.135,-223.209 154.9,-222.323 163.71,-221.433"/>
<polygon fill="midnightblue" stroke="midnightblue" points="164.064,-224.915 173.662,-220.428 163.361,-217.951 164.064,-224.915"/>
</g>
<!-- Node25 -->
<g id="node51" class="node"><title>Node25</title>
<a xlink:href="../../df/d91/cipconnectionobject_8c.html#a49bbc4004eb23be25b6d3620ece5a7a7" target="_top" xlink:title="ConnectionObjectSetInstanceType">
<polygon fill="none" stroke="black" points="182.5,-160.5 182.5,-181.5 351.5,-181.5 351.5,-160.5 182.5,-160.5"/>
<text text-anchor="middle" x="267" y="-168.5" font-family="Helvetica,sans-Serif" font-size="10.00">ConnectionObjectSetInstanceType</text>
</a>
</g>
<!-- Node1&#45;&gt;Node25 -->
<g id="edge52" class="edge"><title>Node1&#45;&gt;Node25</title>
<path fill="none" stroke="midnightblue" d="M93.6675,-220.379C114.717,-211.613 145.944,-199.308 174,-191 182.722,-188.417 191.995,-186.02 201.18,-183.848"/>
<polygon fill="midnightblue" stroke="midnightblue" points="202.114,-187.225 211.08,-181.582 200.552,-180.401 202.114,-187.225"/>
</g>
<!-- Node26 -->
<g id="node53" class="node"><title>Node26</title>
<a xlink:href="../../dc/d93/cipclass3connection_8c.html#a5557c2c7143958acb9d125e2e11296f3" target="_top" xlink:title="Searches and returns a free explicit connection slot.">
<polygon fill="none" stroke="black" points="200,-60.5 200,-81.5 334,-81.5 334,-60.5 200,-60.5"/>
<text text-anchor="middle" x="267" y="-68.5" font-family="Helvetica,sans-Serif" font-size="10.00">GetFreeExplicitConnection</text>
</a>
</g>
<!-- Node1&#45;&gt;Node26 -->
<g id="edge54" class="edge"><title>Node1&#45;&gt;Node26</title>
<path fill="none" stroke="midnightblue" d="M82.2988,-220.254C115.974,-193.041 204.836,-121.234 245.785,-88.1432"/>
<polygon fill="midnightblue" stroke="midnightblue" points="248.181,-90.7072 253.759,-81.6997 243.781,-85.2627 248.181,-90.7072"/>
</g>
<!-- Node3 -->
<g id="node5" class="node"><title>Node3</title>
<a xlink:href="../../d9/ddc/doublylinkedlist_8c.html#abca57475d14f9dffff53bea22eaf7b2f" target="_top" xlink:title="DoublyLinkedListInsertAtHead">
<polygon fill="none" stroke="black" points="458.5,-520.5 458.5,-541.5 607.5,-541.5 607.5,-520.5 458.5,-520.5"/>
<text text-anchor="middle" x="533" y="-528.5" font-family="Helvetica,sans-Serif" font-size="10.00">DoublyLinkedListInsertAtHead</text>
</a>
</g>
<!-- Node2&#45;&gt;Node3 -->
<g id="edge4" class="edge"><title>Node2&#45;&gt;Node3</title>
<path fill="none" stroke="midnightblue" d="M332.608,-501.287C352.923,-504.441 375.382,-507.897 396,-511 413.386,-513.617 432.021,-516.371 449.772,-518.97"/>
<polygon fill="midnightblue" stroke="midnightblue" points="449.704,-522.497 460.105,-520.481 450.717,-515.571 449.704,-522.497"/>
</g>
<!-- Node5 -->
<g id="node9" class="node"><title>Node5</title>
<a xlink:href="../../df/d91/cipconnectionobject_8c.html#ace0a978d1b7fe59261b1024b5ba1cd15" target="_top" xlink:title="ConnectionObjectSetState">
<polygon fill="none" stroke="black" points="466.5,-480.5 466.5,-501.5 599.5,-501.5 599.5,-480.5 466.5,-480.5"/>
<text text-anchor="middle" x="533" y="-488.5" font-family="Helvetica,sans-Serif" font-size="10.00">ConnectionObjectSetState</text>
</a>
</g>
<!-- Node2&#45;&gt;Node5 -->
<g id="edge8" class="edge"><title>Node2&#45;&gt;Node5</title>
<path fill="none" stroke="midnightblue" d="M332.753,-491C370.037,-491 416.889,-491 455.898,-491"/>
<polygon fill="midnightblue" stroke="midnightblue" points="456.156,-494.5 466.156,-491 456.156,-487.5 456.156,-494.5"/>
</g>
<!-- Node4 -->
<g id="node7" class="node"><title>Node4</title>
<a xlink:href="../../d9/ddc/doublylinkedlist_8c.html#a973d3b25eae020e7b5e5927c8785106c" target="_top" xlink:title="DoublyLinkedListNodeCreate">
<polygon fill="none" stroke="black" points="725,-520.5 725,-541.5 869,-541.5 869,-520.5 725,-520.5"/>
<text text-anchor="middle" x="797" y="-528.5" font-family="Helvetica,sans-Serif" font-size="10.00">DoublyLinkedListNodeCreate</text>
</a>
</g>
<!-- Node3&#45;&gt;Node4 -->
<g id="edge6" class="edge"><title>Node3&#45;&gt;Node4</title>
<path fill="none" stroke="midnightblue" d="M607.593,-531C640.895,-531 680.251,-531 714.436,-531"/>
<polygon fill="midnightblue" stroke="midnightblue" points="714.867,-534.5 724.867,-531 714.867,-527.5 714.867,-534.5"/>
</g>
<!-- Node6&#45;&gt;Node5 -->
<g id="edge12" class="edge"><title>Node6&#45;&gt;Node5</title>
<path fill="none" stroke="midnightblue" d="M285.132,-421.505C309.509,-435.136 354.582,-458.633 396,-471 415.211,-476.736 436.446,-480.857 456.348,-483.807"/>
<polygon fill="midnightblue" stroke="midnightblue" points="455.915,-487.281 466.305,-485.204 456.888,-480.349 455.915,-487.281"/>
</g>
<!-- Node7 -->
<g id="node14" class="node"><title>Node7</title>
<a xlink:href="../../df/d91/cipconnectionobject_8c.html#a0f3d8e6f21712dbef3fb2e1da42f35ba" target="_top" xlink:title="ConnectionObjectGetTransportClassTriggerTransportClass">
<polygon fill="none" stroke="black" points="396,-440.5 396,-461.5 670,-461.5 670,-440.5 396,-440.5"/>
<text text-anchor="middle" x="533" y="-448.5" font-family="Helvetica,sans-Serif" font-size="10.00">ConnectionObjectGetTransportClassTriggerTransportClass</text>
</a>
</g>
<!-- Node6&#45;&gt;Node7 -->
<g id="edge14" class="edge"><title>Node6&#45;&gt;Node7</title>
<path fill="none" stroke="midnightblue" d="M313.257,-418.273C337.829,-422.111 368.547,-426.868 396,-431 413.386,-433.617 432.021,-436.371 449.772,-438.97"/>
<polygon fill="midnightblue" stroke="midnightblue" points="449.704,-442.497 460.105,-440.481 450.717,-435.571 449.704,-442.497"/>
</g>
<!-- Node8 -->
<g id="node16" class="node"><title>Node8</title>
<a xlink:href="../../db/d4f/generic__networkhandler_8c.html#aab6e6c554aa10d27efe297ebef3ac1c9" target="_top" xlink:title="CloseUdpSocket">
<polygon fill="none" stroke="black" points="487.5,-400.5 487.5,-421.5 578.5,-421.5 578.5,-400.5 487.5,-400.5"/>
<text text-anchor="middle" x="533" y="-408.5" font-family="Helvetica,sans-Serif" font-size="10.00">CloseUdpSocket</text>
</a>
</g>
<!-- Node6&#45;&gt;Node8 -->
<g id="edge16" class="edge"><title>Node6&#45;&gt;Node8</title>
<path fill="none" stroke="midnightblue" d="M313.03,-411C358.564,-411 428.316,-411 477.029,-411"/>
<polygon fill="midnightblue" stroke="midnightblue" points="477.088,-414.5 487.088,-411 477.088,-407.5 477.088,-414.5"/>
</g>
<!-- Node11 -->
<g id="node22" class="node"><title>Node11</title>
<a xlink:href="../../d5/d35/cipconnectionmanager_8c.html#a144782b4e2a5afc89ec32854511bbea7" target="_top" xlink:title="Removes connection from the list of active connections.">
<polygon fill="none" stroke="black" points="454,-360.5 454,-381.5 612,-381.5 612,-360.5 454,-360.5"/>
<text text-anchor="middle" x="533" y="-368.5" font-family="Helvetica,sans-Serif" font-size="10.00">RemoveFromActiveConnections</text>
</a>
</g>
<!-- Node6&#45;&gt;Node11 -->
<g id="edge22" class="edge"><title>Node6&#45;&gt;Node11</title>
<path fill="none" stroke="midnightblue" d="M313.257,-403.727C337.829,-399.889 368.547,-395.132 396,-391 413.386,-388.383 432.021,-385.629 449.772,-383.03"/>
<polygon fill="midnightblue" stroke="midnightblue" points="450.717,-386.429 460.105,-381.519 449.704,-379.503 450.717,-386.429"/>
</g>
<!-- Node9 -->
<g id="node18" class="node"><title>Node9</title>
<a xlink:href="../../d5/dc5/group__CIP__CALLBACK__API.html#gaf4d26c1bca26c2e6e73481d57762df36" target="_top" xlink:title="Close the given socket and clean up the stack.">
<polygon fill="none" stroke="black" points="760.5,-400.5 760.5,-421.5 833.5,-421.5 833.5,-400.5 760.5,-400.5"/>
<text text-anchor="middle" x="797" y="-408.5" font-family="Helvetica,sans-Serif" font-size="10.00">CloseSocket</text>
</a>
</g>
<!-- Node8&#45;&gt;Node9 -->
<g id="edge18" class="edge"><title>Node8&#45;&gt;Node9</title>
<path fill="none" stroke="midnightblue" d="M578.684,-411C626.668,-411 701.751,-411 750.163,-411"/>
<polygon fill="midnightblue" stroke="midnightblue" points="750.368,-414.5 760.368,-411 750.368,-407.5 750.368,-414.5"/>
</g>
<!-- Node10 -->
<g id="node20" class="node"><title>Node10</title>
<a xlink:href="../../d2/d5e/POSIX_2networkhandler_8c.html#a2812ba0ecd1fd9a5549fbca397d76e3e" target="_top" xlink:title="Platform dependent code to close a socket.">
<polygon fill="none" stroke="black" points="944,-400.5 944,-421.5 1054,-421.5 1054,-400.5 944,-400.5"/>
<text text-anchor="middle" x="999" y="-408.5" font-family="Helvetica,sans-Serif" font-size="10.00">CloseSocketPlatform</text>
</a>
</g>
<!-- Node9&#45;&gt;Node10 -->
<g id="edge20" class="edge"><title>Node9&#45;&gt;Node10</title>
<path fill="none" stroke="midnightblue" d="M833.581,-411C861.4,-411 900.41,-411 933.561,-411"/>
<polygon fill="midnightblue" stroke="midnightblue" points="933.642,-414.5 943.642,-411 933.642,-407.5 933.642,-414.5"/>
</g>
<!-- Node12 -->
<g id="node24" class="node"><title>Node12</title>
<a xlink:href="../../d9/ddc/doublylinkedlist_8c.html#a341e2f6faf7227650ed6e38e90cd047e" target="_top" xlink:title="DoublyLinkedListRemoveNode">
<polygon fill="none" stroke="black" points="721,-360.5 721,-381.5 873,-381.5 873,-360.5 721,-360.5"/>
<text text-anchor="middle" x="797" y="-368.5" font-family="Helvetica,sans-Serif" font-size="10.00">DoublyLinkedListRemoveNode</text>
</a>
</g>
<!-- Node11&#45;&gt;Node12 -->
<g id="edge24" class="edge"><title>Node11&#45;&gt;Node12</title>
<path fill="none" stroke="midnightblue" d="M612.209,-371C643.182,-371 678.797,-371 710.444,-371"/>
<polygon fill="midnightblue" stroke="midnightblue" points="710.568,-374.5 720.568,-371 710.568,-367.5 710.568,-374.5"/>
</g>
<!-- Node13 -->
<g id="node26" class="node"><title>Node13</title>
<a xlink:href="../../d9/ddc/doublylinkedlist_8c.html#a87710acb9f42fba14822fb824814105c" target="_top" xlink:title="DoublyLinkedListNodeDestroy">
<polygon fill="none" stroke="black" points="924.5,-360.5 924.5,-381.5 1073.5,-381.5 1073.5,-360.5 924.5,-360.5"/>
<text text-anchor="middle" x="999" y="-368.5" font-family="Helvetica,sans-Serif" font-size="10.00">DoublyLinkedListNodeDestroy</text>
</a>
</g>
<!-- Node12&#45;&gt;Node13 -->
<g id="edge26" class="edge"><title>Node12&#45;&gt;Node13</title>
<path fill="none" stroke="midnightblue" d="M873.08,-371C886.448,-371 900.437,-371 914.029,-371"/>
<polygon fill="midnightblue" stroke="midnightblue" points="914.329,-374.5 924.329,-371 914.329,-367.5 914.329,-374.5"/>
</g>
<!-- Node16 -->
<g id="node32" class="node"><title>Node16</title>
<a xlink:href="../../df/d91/cipconnectionobject_8c.html#aa896ebb7d03c6e75027402b3e0d6dc6e" target="_top" xlink:title="ConnectionObjectGetOToTConnectionType">
<polygon fill="none" stroke="black" points="430,-320.5 430,-341.5 636,-341.5 636,-320.5 430,-320.5"/>
<text text-anchor="middle" x="533" y="-328.5" font-family="Helvetica,sans-Serif" font-size="10.00">ConnectionObjectGetOToTConnectionType</text>
</a>
</g>
<!-- Node15&#45;&gt;Node16 -->
<g id="edge32" class="edge"><title>Node15&#45;&gt;Node16</title>
<path fill="none" stroke="midnightblue" d="M344.756,-221.643C350.214,-224.18 355.377,-227.262 360,-231 390.32,-255.513 364.877,-287.514 396,-311 403.327,-316.529 411.516,-320.854 420.148,-324.21"/>
<polygon fill="midnightblue" stroke="midnightblue" points="419.073,-327.542 429.668,-327.483 421.35,-320.922 419.073,-327.542"/>
</g>
<!-- Node18 -->
<g id="node36" class="node"><title>Node18</title>
<a xlink:href="../../df/d91/cipconnectionobject_8c.html#ac3ccaa3dc2b635564c622af574f70dc4" target="_top" xlink:title="ConnectionObjectSetCipConsumedConnectionID">
<polygon fill="none" stroke="black" points="417,-280.5 417,-301.5 649,-301.5 649,-280.5 417,-280.5"/>
<text text-anchor="middle" x="533" y="-288.5" font-family="Helvetica,sans-Serif" font-size="10.00">ConnectionObjectSetCipConsumedConnectionID</text>
</a>
</g>
<!-- Node15&#45;&gt;Node18 -->
<g id="edge36" class="edge"><title>Node15&#45;&gt;Node18</title>
<path fill="none" stroke="midnightblue" d="M338.799,-221.609C346.212,-224.108 353.426,-227.193 360,-231 380.698,-242.986 374.913,-259.713 396,-271 400.043,-273.164 404.244,-275.117 408.558,-276.877"/>
<polygon fill="midnightblue" stroke="midnightblue" points="407.569,-280.244 418.162,-280.433 409.999,-273.679 407.569,-280.244"/>
</g>
<!-- Node19 -->
<g id="node38" class="node"><title>Node19</title>
<a xlink:href="../../d5/d35/cipconnectionmanager_8c.html#ad93407280191a97626d71b0347724eda" target="_top" xlink:title="Generate a new connection Id utilizing the Incarnation Id as described in the EIP specs...">
<polygon fill="none" stroke="black" points="488,-240.5 488,-261.5 578,-261.5 578,-240.5 488,-240.5"/>
<text text-anchor="middle" x="533" y="-248.5" font-family="Helvetica,sans-Serif" font-size="10.00">GetConnectionId</text>
</a>
</g>
<!-- Node15&#45;&gt;Node19 -->
<g id="edge38" class="edge"><title>Node15&#45;&gt;Node19</title>
<path fill="none" stroke="midnightblue" d="M334.269,-221.545C354.142,-224.629 375.942,-227.981 396,-231 422.949,-235.056 452.9,-239.442 477.907,-243.071"/>
<polygon fill="midnightblue" stroke="midnightblue" points="477.543,-246.554 487.941,-244.525 478.547,-239.627 477.543,-246.554"/>
</g>
<!-- Node20 -->
<g id="node40" class="node"><title>Node20</title>
<a xlink:href="../../df/d91/cipconnectionobject_8c.html#ad61ad2b2c18480a141e5df346e32be02" target="_top" xlink:title="ConnectionObjectGetTToOConnectionType">
<polygon fill="none" stroke="black" points="430,-200.5 430,-221.5 636,-221.5 636,-200.5 430,-200.5"/>
<text text-anchor="middle" x="533" y="-208.5" font-family="Helvetica,sans-Serif" font-size="10.00">ConnectionObjectGetTToOConnectionType</text>
</a>
</g>
<!-- Node15&#45;&gt;Node20 -->
<g id="edge40" class="edge"><title>Node15&#45;&gt;Node20</title>
<path fill="none" stroke="midnightblue" d="M360.034,-211C379.259,-211 399.711,-211 419.569,-211"/>
<polygon fill="midnightblue" stroke="midnightblue" points="419.574,-214.5 429.574,-211 419.574,-207.5 419.574,-214.5"/>
</g>
<!-- Node21 -->
<g id="node43" class="node"><title>Node21</title>
<a xlink:href="../../df/d91/cipconnectionobject_8c.html#af7cb76f073d6f32b45e37c06109770b7" target="_top" xlink:title="ConnectionObjectSetCipProducedConnectionID">
<polygon fill="none" stroke="black" points="420,-160.5 420,-181.5 646,-181.5 646,-160.5 420,-160.5"/>
<text text-anchor="middle" x="533" y="-168.5" font-family="Helvetica,sans-Serif" font-size="10.00">ConnectionObjectSetCipProducedConnectionID</text>
</a>
</g>
<!-- Node15&#45;&gt;Node21 -->
<g id="edge44" class="edge"><title>Node15&#45;&gt;Node21</title>
<path fill="none" stroke="midnightblue" d="M334.269,-200.455C354.142,-197.371 375.942,-194.019 396,-191 413.386,-188.383 432.021,-185.629 449.772,-183.03"/>
<polygon fill="midnightblue" stroke="midnightblue" points="450.717,-186.429 460.105,-181.519 449.704,-179.503 450.717,-186.429"/>
</g>
<!-- Node22 -->
<g id="node45" class="node"><title>Node22</title>
<a xlink:href="../../df/d91/cipconnectionobject_8c.html#af58aabbdd4f37e3e5601a52f0a698936" target="_top" xlink:title="ConnectionObjectResetSequenceCounts">
<polygon fill="none" stroke="black" points="435,-120.5 435,-141.5 631,-141.5 631,-120.5 435,-120.5"/>
<text text-anchor="middle" x="533" y="-128.5" font-family="Helvetica,sans-Serif" font-size="10.00">ConnectionObjectResetSequenceCounts</text>
</a>
</g>
<!-- Node15&#45;&gt;Node22 -->
<g id="edge46" class="edge"><title>Node15&#45;&gt;Node22</title>
<path fill="none" stroke="midnightblue" d="M338.799,-200.391C346.212,-197.892 353.426,-194.807 360,-191 380.698,-179.014 374.913,-162.287 396,-151 405.074,-146.143 414.944,-142.351 425.092,-139.404"/>
<polygon fill="midnightblue" stroke="midnightblue" points="426.106,-142.757 434.889,-136.831 424.327,-135.987 426.106,-142.757"/>
</g>
<!-- Node23 -->
<g id="node47" class="node"><title>Node23</title>
<a xlink:href="../../df/d91/cipconnectionobject_8c.html#a9bf4e569cc43263943c0c8c8b138f5c4" target="_top" xlink:title="ConnectionObjectSetWatchdogTimeoutAction">
<polygon fill="none" stroke="black" points="424.5,-80.5 424.5,-101.5 641.5,-101.5 641.5,-80.5 424.5,-80.5"/>
<text text-anchor="middle" x="533" y="-88.5" font-family="Helvetica,sans-Serif" font-size="10.00">ConnectionObjectSetWatchdogTimeoutAction</text>
</a>
</g>
<!-- Node15&#45;&gt;Node23 -->
<g id="edge48" class="edge"><title>Node15&#45;&gt;Node23</title>
<path fill="none" stroke="midnightblue" d="M344.756,-200.357C350.214,-197.82 355.377,-194.738 360,-191 390.32,-166.487 364.877,-134.486 396,-111 401.87,-106.57 408.294,-102.914 415.055,-99.909"/>
<polygon fill="midnightblue" stroke="midnightblue" points="416.441,-103.125 424.463,-96.2038 413.876,-96.6115 416.441,-103.125"/>
</g>
<!-- Node24 -->
<g id="node49" class="node"><title>Node24</title>
<a xlink:href="../../df/d91/cipconnectionobject_8c.html#a6636b4aeeb4208417d057d48ed87a490" target="_top" xlink:title="ConnectionObjectResetProductionInhibitTimer">
<polygon fill="none" stroke="black" points="424,-40.5 424,-61.5 642,-61.5 642,-40.5 424,-40.5"/>
<text text-anchor="middle" x="533" y="-48.5" font-family="Helvetica,sans-Serif" font-size="10.00">ConnectionObjectResetProductionInhibitTimer</text>
</a>
</g>
<!-- Node15&#45;&gt;Node24 -->
<g id="edge50" class="edge"><title>Node15&#45;&gt;Node24</title>
<path fill="none" stroke="midnightblue" d="M346.647,-200.328C351.479,-197.774 355.996,-194.697 360,-191 400.909,-153.226 353.851,-107.386 396,-71 401.629,-66.1406 407.898,-62.1636 414.571,-58.9267"/>
<polygon fill="midnightblue" stroke="midnightblue" points="416.067,-62.0941 423.898,-54.9582 413.326,-55.6529 416.067,-62.0941"/>
</g>
<!-- Node17 -->
<g id="node34" class="node"><title>Node17</title>
<a xlink:href="../../df/d91/cipconnectionobject_8c.html#a0da85deed56477da3ec500cec51aa46e" target="_top" xlink:title="ConnectionObjectGetConnectionType">
<polygon fill="none" stroke="black" points="706,-260.5 706,-281.5 888,-281.5 888,-260.5 706,-260.5"/>
<text text-anchor="middle" x="797" y="-268.5" font-family="Helvetica,sans-Serif" font-size="10.00">ConnectionObjectGetConnectionType</text>
</a>
</g>
<!-- Node16&#45;&gt;Node17 -->
<g id="edge34" class="edge"><title>Node16&#45;&gt;Node17</title>
<path fill="none" stroke="midnightblue" d="M619.993,-320.443C636.68,-317.814 653.95,-314.674 670,-311 700.237,-304.078 733.669,-293.423 758.639,-284.849"/>
<polygon fill="midnightblue" stroke="midnightblue" points="759.811,-288.147 768.108,-281.559 757.513,-281.535 759.811,-288.147"/>
</g>
<!-- Node20&#45;&gt;Node17 -->
<g id="edge42" class="edge"><title>Node20&#45;&gt;Node17</title>
<path fill="none" stroke="midnightblue" d="M619.993,-221.557C636.68,-224.186 653.95,-227.326 670,-231 700.237,-237.922 733.669,-248.577 758.639,-257.151"/>
<polygon fill="midnightblue" stroke="midnightblue" points="757.513,-260.465 768.108,-260.441 759.811,-253.853 757.513,-260.465"/>
</g>
<!-- Node27 -->
<g id="node55" class="node"><title>Node27</title>
<a xlink:href="../../df/d91/cipconnectionobject_8c.html#a9c381240583828bec2cda2d54dc94d3b" target="_top" xlink:title="ConnectionObjectGetState">
<polygon fill="none" stroke="black" points="466,-0.5 466,-21.5 600,-21.5 600,-0.5 466,-0.5"/>
<text text-anchor="middle" x="533" y="-8.5" font-family="Helvetica,sans-Serif" font-size="10.00">ConnectionObjectGetState</text>
</a>
</g>
<!-- Node26&#45;&gt;Node27 -->
<g id="edge56" class="edge"><title>Node26&#45;&gt;Node27</title>
<path fill="none" stroke="midnightblue" d="M296.362,-60.4586C322.28,-51.5007 361.24,-38.8759 396,-31 415.164,-26.6577 436.06,-23.0492 455.626,-20.1487"/>
<polygon fill="midnightblue" stroke="midnightblue" points="456.321,-23.5848 465.721,-18.6963 455.324,-16.6562 456.321,-23.5848"/>
</g>
</g>
</svg>
        <g id="navigator" transform="translate(0 0)" fill="#404254">
                <rect fill="#f2f5e9" fill-opacity="0.5" stroke="#606060" stroke-width=".5" x="0" y="0" width="60" height="60"/>
                <use id="zoomplus" xlink:href="#zoomPlus" x="17" y="9" onmousedown="handleZoom(evt,'in')"/>
                <use id="zoomminus" xlink:href="#zoomMin" x="42" y="9" onmousedown="handleZoom(evt,'out')"/>
                <use id="reset" xlink:href="#resetDef" x="30" y="36" onmousedown="handleReset()"/>
                <g id="arrowUp" xlink:href="#dirArrow" transform="translate(30 24)" onmousedown="handlePan(0,-1)">
                  <use xlink:href="#rim" fill="#404040">
                        <set attributeName="fill" to="#808080" begin="arrowUp.mouseover" end="arrowUp.mouseout"/>
                  </use>
                  <path fill="none" stroke="white" stroke-width="1.5" d="M0,-3.0v7 M-2.5,-0.5L0,-3.0L2.5,-0.5"/>
                </g>
                <g id="arrowRight" xlink:href="#dirArrow" transform="rotate(90) translate(36 -43)" onmousedown="handlePan(1,0)">
                  <use xlink:href="#rim" fill="#404040">
                        <set attributeName="fill" to="#808080" begin="arrowRight.mouseover" end="arrowRight.mouseout"/>
                  </use>
                  <path fill="none" stroke="white" stroke-width="1.5" d="M0,-3.0v7 M-2.5,-0.5L0,-3.0L2.5,-0.5"/>
                </g>
                <g id="arrowDown" xlink:href="#dirArrow" transform="rotate(180) translate(-30 -48)" onmousedown="handlePan(0,1)">
                  <use xlink:href="#rim" fill="#404040">
                        <set attributeName="fill" to="#808080" begin="arrowDown.mouseover" end="arrowDown.mouseout"/>
                  </use>
                  <path fill="none" stroke="white" stroke-width="1.5" d="M0,-3.0v7 M-2.5,-0.5L0,-3.0L2.5,-0.5"/>
                </g>
                <g id="arrowLeft" xlink:href="#dirArrow" transform="rotate(270) translate(-36 17)" onmousedown="handlePan(-1,0)">
                  <use xlink:href="#rim" fill="#404040">
                        <set attributeName="fill" to="#808080" begin="arrowLeft.mouseover" end="arrowLeft.mouseout"/>
                  </use>
                  <path fill="none" stroke="white" stroke-width="1.5" d="M0,-3.0v7 M-2.5,-0.5L0,-3.0L2.5,-0.5"/>
                </g>
        </g>
</svg>
