<?xml version="1.0" encoding="UTF-8" standalone="no"?>
<!DOCTYPE svg PUBLIC "-//W3C//DTD SVG 1.1//EN"
 "http://www.w3.org/Graphics/SVG/1.1/DTD/svg11.dtd">
<!-- Generated by graphviz version 2.36.0 (20140111.2315)
 -->
<!-- Title: src/cip/cipassembly.c Pages: 1 -->
<svg width="855pt" height="364pt"
 viewBox="0.00 0.00 855.00 364.00" xmlns="http://www.w3.org/2000/svg" xmlns:xlink="http://www.w3.org/1999/xlink">
<g id="graph0" class="graph" transform="scale(1 1) rotate(0) translate(4 360)">
<title>src/cip/cipassembly.c</title>
<!-- Node1 -->
<g id="node1" class="node"><title>Node1</title>
<polygon fill="#bfbfbf" stroke="black" points="219,-336.5 219,-355.5 331,-355.5 331,-336.5 219,-336.5"/>
<text text-anchor="middle" x="275" y="-343.5" font-family="Helvetica,sans-Serif" font-size="10.00">src/cip/cipassembly.c</text>
</g>
<!-- Node2 -->
<g id="node2" class="node"><title>Node2</title>
<polygon fill="none" stroke="#bfbfbf" points="-0.5,-280.5 -0.5,-299.5 48.5,-299.5 48.5,-280.5 -0.5,-280.5"/>
<text text-anchor="middle" x="24" y="-287.5" font-family="Helvetica,sans-Serif" font-size="10.00">string.h</text>
</g>
<!-- Node1&#45;&gt;Node2 -->
<g id="edge1" class="edge"><title>Node1&#45;&gt;Node2</title>
<path fill="none" stroke="midnightblue" d="M233.518,-336.421C190.747,-327.521 122.144,-313.1 63,-300 61.5583,-299.681 60.0873,-299.352 58.6016,-299.019"/>
<polygon fill="midnightblue" stroke="midnightblue" points="59.2696,-295.581 48.7427,-296.779 57.7189,-302.407 59.2696,-295.581"/>
</g>
<!-- Node3 -->
<g id="node3" class="node"><title>Node3</title>
<polygon fill="none" stroke="#bfbfbf" points="532,-0.5 532,-19.5 588,-19.5 588,-0.5 532,-0.5"/>
<text text-anchor="middle" x="560" y="-7.5" font-family="Helvetica,sans-Serif" font-size="10.00">stdbool.h</text>
</g>
<!-- Node1&#45;&gt;Node3 -->
<g id="edge2" class="edge"><title>Node1&#45;&gt;Node3</title>
<path fill="none" stroke="midnightblue" d="M331.149,-340.084C475.268,-326.715 847,-287.174 847,-235 847,-235 847,-235 847,-121 847,-94.6362 675.961,-43.4222 597.961,-21.4373"/>
<polygon fill="midnightblue" stroke="midnightblue" points="598.615,-17.9858 588.041,-18.6577 596.726,-24.7262 598.615,-17.9858"/>
</g>
<!-- Node4 -->
<g id="node4" class="node"><title>Node4</title>
<g id="a_node4"><a xlink:href="../../de/df4/cipassembly_8h.html" target="_top" xlink:title="cipassembly.h">
<polygon fill="none" stroke="black" points="739,-168.5 739,-187.5 819,-187.5 819,-168.5 739,-168.5"/>
<text text-anchor="middle" x="779" y="-175.5" font-family="Helvetica,sans-Serif" font-size="10.00">cipassembly.h</text>
</a>
</g>
</g>
<!-- Node1&#45;&gt;Node4 -->
<g id="edge3" class="edge"><title>Node1&#45;&gt;Node4</title>
<path fill="none" stroke="midnightblue" d="M301.036,-336.425C384.847,-308.82 647.741,-222.232 743.587,-190.664"/>
<polygon fill="midnightblue" stroke="midnightblue" points="744.717,-193.977 753.12,-187.524 742.527,-187.328 744.717,-193.977"/>
</g>
<!-- Node12 -->
<g id="node12" class="node"><title>Node12</title>
<g id="a_node12"><a xlink:href="../../db/d14/cipcommon_8h.html" target="_top" xlink:title="cipcommon.h">
<polygon fill="none" stroke="black" points="607.5,-168.5 607.5,-187.5 682.5,-187.5 682.5,-168.5 607.5,-168.5"/>
<text text-anchor="middle" x="645" y="-175.5" font-family="Helvetica,sans-Serif" font-size="10.00">cipcommon.h</text>
</a>
</g>
</g>
<!-- Node1&#45;&gt;Node12 -->
<g id="edge14" class="edge"><title>Node1&#45;&gt;Node12</title>
<path fill="none" stroke="midnightblue" d="M294.114,-336.425C354.887,-309.159 543.923,-224.348 616.357,-191.851"/>
<polygon fill="midnightblue" stroke="midnightblue" points="618.087,-194.91 625.779,-187.624 615.222,-188.524 618.087,-194.91"/>
</g>
<!-- Node13 -->
<g id="node13" class="node"><title>Node13</title>
<g id="a_node13"><a xlink:href="../../d4/d38/opener__api_8h.html" target="_top" xlink:title="opener_api.h">
<polygon fill="none" stroke="black" points="175,-168.5 175,-187.5 247,-187.5 247,-168.5 175,-168.5"/>
<text text-anchor="middle" x="211" y="-175.5" font-family="Helvetica,sans-Serif" font-size="10.00">opener_api.h</text>
</a>
</g>
</g>
<!-- Node1&#45;&gt;Node13 -->
<g id="edge17" class="edge"><title>Node1&#45;&gt;Node13</title>
<path fill="none" stroke="midnightblue" d="M250.531,-336.438C234.433,-329.378 214.623,-317.626 205,-300 187.178,-267.356 196.84,-222.076 204.52,-197.193"/>
<polygon fill="midnightblue" stroke="midnightblue" points="207.878,-198.186 207.704,-187.593 201.234,-195.982 207.878,-198.186"/>
</g>
<!-- Node16 -->
<g id="node16" class="node"><title>Node16</title>
<g id="a_node16"><a xlink:href="../../d1/d1b/trace_8h.html" target="_top" xlink:title="Tracing infrastructure for OpENer. ">
<polygon fill="none" stroke="black" points="22.5,-224.5 22.5,-243.5 69.5,-243.5 69.5,-224.5 22.5,-224.5"/>
<text text-anchor="middle" x="46" y="-231.5" font-family="Helvetica,sans-Serif" font-size="10.00">trace.h</text>
</a>
</g>
</g>
<!-- Node1&#45;&gt;Node16 -->
<g id="edge24" class="edge"><title>Node1&#45;&gt;Node16</title>
<path fill="none" stroke="midnightblue" d="M218.637,-339.296C182.764,-333.609 136.539,-322.321 101,-300 81.9,-288.004 66.0301,-267.218 56.3248,-252.381"/>
<polygon fill="midnightblue" stroke="midnightblue" points="59.1321,-250.268 50.8652,-243.642 53.1954,-253.977 59.1321,-250.268"/>
</g>
<!-- Node17 -->
<g id="node17" class="node"><title>Node17</title>
<g id="a_node17"><a xlink:href="../../d2/da3/cipconnectionmanager_8h.html" target="_top" xlink:title="cipconnectionmanager.h">
<polygon fill="none" stroke="black" points="214,-280.5 214,-299.5 336,-299.5 336,-280.5 214,-280.5"/>
<text text-anchor="middle" x="275" y="-287.5" font-family="Helvetica,sans-Serif" font-size="10.00">cipconnectionmanager.h</text>
</a>
</g>
</g>
<!-- Node1&#45;&gt;Node17 -->
<g id="edge26" class="edge"><title>Node1&#45;&gt;Node17</title>
<path fill="none" stroke="midnightblue" d="M275,-336.083C275,-329.006 275,-318.861 275,-309.986"/>
<polygon fill="midnightblue" stroke="midnightblue" points="278.5,-309.751 275,-299.751 271.5,-309.751 278.5,-309.751"/>
</g>
<!-- Node5 -->
<g id="node5" class="node"><title>Node5</title>
<g id="a_node5"><a xlink:href="../../d7/d69/typedefs_8h.html" target="_top" xlink:title="typedefs.h">
<polygon fill="none" stroke="black" points="602,-56.5 602,-75.5 664,-75.5 664,-56.5 602,-56.5"/>
<text text-anchor="middle" x="633" y="-63.5" font-family="Helvetica,sans-Serif" font-size="10.00">typedefs.h</text>
</a>
</g>
</g>
<!-- Node4&#45;&gt;Node5 -->
<g id="edge4" class="edge"><title>Node4&#45;&gt;Node5</title>
<path fill="none" stroke="midnightblue" d="M773.624,-168.426C764.834,-154.964 746.222,-128.684 725,-112 707.464,-98.2139 685.021,-87.1329 666.692,-79.4163"/>
<polygon fill="midnightblue" stroke="midnightblue" points="667.843,-76.106 657.261,-75.5857 665.209,-82.5915 667.843,-76.106"/>
</g>
<!-- Node8 -->
<g id="node8" class="node"><title>Node8</title>
<g id="a_node8"><a xlink:href="../../df/d28/ciptypes_8h.html" target="_top" xlink:title="ciptypes.h">
<polygon fill="none" stroke="black" points="393,-112.5 393,-131.5 455,-131.5 455,-112.5 393,-112.5"/>
<text text-anchor="middle" x="424" y="-119.5" font-family="Helvetica,sans-Serif" font-size="10.00">ciptypes.h</text>
</a>
</g>
</g>
<!-- Node4&#45;&gt;Node8 -->
<g id="edge8" class="edge"><title>Node4&#45;&gt;Node8</title>
<path fill="none" stroke="midnightblue" d="M738.967,-170.91C671.011,-160.574 533.79,-139.7 465.11,-129.253"/>
<polygon fill="midnightblue" stroke="midnightblue" points="465.506,-125.773 455.093,-127.73 464.453,-132.694 465.506,-125.773"/>
</g>
<!-- Node5&#45;&gt;Node3 -->
<g id="edge7" class="edge"><title>Node5&#45;&gt;Node3</title>
<path fill="none" stroke="midnightblue" d="M621.271,-56.324C610.163,-48.1066 593.258,-35.6017 580.017,-25.8069"/>
<polygon fill="midnightblue" stroke="midnightblue" points="582.063,-22.9671 571.942,-19.8339 577.9,-28.5948 582.063,-22.9671"/>
</g>
<!-- Node6 -->
<g id="node6" class="node"><title>Node6</title>
<polygon fill="none" stroke="#bfbfbf" points="676.5,-0.5 676.5,-19.5 735.5,-19.5 735.5,-0.5 676.5,-0.5"/>
<text text-anchor="middle" x="706" y="-7.5" font-family="Helvetica,sans-Serif" font-size="10.00">inttypes.h</text>
</g>
<!-- Node5&#45;&gt;Node6 -->
<g id="edge5" class="edge"><title>Node5&#45;&gt;Node6</title>
<path fill="none" stroke="midnightblue" d="M644.729,-56.324C655.837,-48.1066 672.742,-35.6017 685.983,-25.8069"/>
<polygon fill="midnightblue" stroke="midnightblue" points="688.1,-28.5948 694.058,-19.8339 683.937,-22.9671 688.1,-28.5948"/>
</g>
<!-- Node7 -->
<g id="node7" class="node"><title>Node7</title>
<polygon fill="none" stroke="#bfbfbf" points="606,-0.5 606,-19.5 658,-19.5 658,-0.5 606,-0.5"/>
<text text-anchor="middle" x="632" y="-7.5" font-family="Helvetica,sans-Serif" font-size="10.00">stddef.h</text>
</g>
<!-- Node5&#45;&gt;Node7 -->
<g id="edge6" class="edge"><title>Node5&#45;&gt;Node7</title>
<path fill="none" stroke="midnightblue" d="M632.835,-56.083C632.704,-49.0059 632.516,-38.8611 632.352,-29.9865"/>
<polygon fill="midnightblue" stroke="midnightblue" points="635.847,-29.6845 632.162,-19.7511 628.848,-29.8142 635.847,-29.6845"/>
</g>
<!-- Node8&#45;&gt;Node5 -->
<g id="edge9" class="edge"><title>Node8&#45;&gt;Node5</title>
<path fill="none" stroke="midnightblue" d="M455.289,-112.916C491.717,-103.504 551.996,-87.9292 592.103,-77.5666"/>
<polygon fill="midnightblue" stroke="midnightblue" points="593.032,-80.9417 601.838,-75.0513 591.281,-74.1642 593.032,-80.9417"/>
</g>
<!-- Node9 -->
<g id="node9" class="node"><title>Node9</title>
<polygon fill="none" stroke="#bfbfbf" points="402.5,-56.5 402.5,-75.5 493.5,-75.5 493.5,-56.5 402.5,-56.5"/>
<text text-anchor="middle" x="448" y="-63.5" font-family="Helvetica,sans-Serif" font-size="10.00">networkhandler.h</text>
</g>
<!-- Node8&#45;&gt;Node9 -->
<g id="edge10" class="edge"><title>Node8&#45;&gt;Node9</title>
<path fill="none" stroke="midnightblue" d="M427.963,-112.083C431.213,-104.77 435.919,-94.1814 439.954,-85.1034"/>
<polygon fill="midnightblue" stroke="midnightblue" points="443.248,-86.3107 444.111,-75.7511 436.851,-83.4677 443.248,-86.3107"/>
</g>
<!-- Node10 -->
<g id="node10" class="node"><title>Node10</title>
<g id="a_node10"><a xlink:href="../../d8/d2c/enipmessage_8h.html" target="_top" xlink:title="enipmessage.h">
<polygon fill="none" stroke="black" points="262.5,-56.5 262.5,-75.5 345.5,-75.5 345.5,-56.5 262.5,-56.5"/>
<text text-anchor="middle" x="304" y="-63.5" font-family="Helvetica,sans-Serif" font-size="10.00">enipmessage.h</text>
</a>
</g>
</g>
<!-- Node8&#45;&gt;Node10 -->
<g id="edge11" class="edge"><title>Node8&#45;&gt;Node10</title>
<path fill="none" stroke="midnightblue" d="M404.986,-112.444C385.412,-103.636 354.692,-89.8116 332.271,-79.722"/>
<polygon fill="midnightblue" stroke="midnightblue" points="333.481,-76.4284 322.925,-75.5164 330.608,-82.8119 333.481,-76.4284"/>
</g>
<!-- Node11 -->
<g id="node11" class="node"><title>Node11</title>
<polygon fill="none" stroke="#bfbfbf" points="73,-0.5 73,-19.5 175,-19.5 175,-0.5 73,-0.5"/>
<text text-anchor="middle" x="124" y="-7.5" font-family="Helvetica,sans-Serif" font-size="10.00">opener_user_conf.h</text>
</g>
<!-- Node8&#45;&gt;Node11 -->
<g id="edge13" class="edge"><title>Node8&#45;&gt;Node11</title>
<path fill="none" stroke="midnightblue" d="M417.327,-112.216C405.986,-97.9648 381.491,-69.9918 354,-56 300.85,-28.9487 233.165,-18.1223 185.011,-13.8093"/>
<polygon fill="midnightblue" stroke="midnightblue" points="185.299,-10.3213 175.045,-12.9844 184.722,-17.2975 185.299,-10.3213"/>
</g>
<!-- Node10&#45;&gt;Node11 -->
<g id="edge12" class="edge"><title>Node10&#45;&gt;Node11</title>
<path fill="none" stroke="midnightblue" d="M275.478,-56.4435C244.934,-47.2801 196.292,-32.6876 162.397,-22.5192"/>
<polygon fill="midnightblue" stroke="midnightblue" points="162.972,-19.0376 152.388,-19.5164 160.961,-25.7424 162.972,-19.0376"/>
</g>
<!-- Node12&#45;&gt;Node5 -->
<g id="edge15" class="edge"><title>Node12&#45;&gt;Node5</title>
<path fill="none" stroke="midnightblue" d="M646.84,-168.098C649.151,-155.51 652.421,-131.832 649,-112 647.432,-102.91 644.205,-93.2219 641.057,-85.1726"/>
<polygon fill="midnightblue" stroke="midnightblue" points="644.194,-83.6018 637.111,-75.7229 637.735,-86.2993 644.194,-83.6018"/>
</g>
<!-- Node12&#45;&gt;Node8 -->
<g id="edge16" class="edge"><title>Node12&#45;&gt;Node8</title>
<path fill="none" stroke="midnightblue" d="M609.982,-168.444C570.628,-158.828 506.806,-143.233 465.116,-133.046"/>
<polygon fill="midnightblue" stroke="midnightblue" points="465.826,-129.617 455.281,-130.643 464.164,-136.417 465.826,-129.617"/>
</g>
<!-- Node13&#45;&gt;Node3 -->
<g id="edge19" class="edge"><title>Node13&#45;&gt;Node3</title>
<path fill="none" stroke="midnightblue" d="M247.094,-170.126C268.468,-163.999 293.867,-152.66 307,-132 331.673,-93.1852 253.668,-77.2486 253,-76 248.806,-68.1629 247.188,-62.7258 253,-56 287.283,-16.3259 446.959,-10.9694 521.492,-10.6797"/>
<polygon fill="midnightblue" stroke="midnightblue" points="521.849,-14.1795 531.846,-10.6703 521.843,-7.17948 521.849,-14.1795"/>
</g>
<!-- Node13&#45;&gt;Node5 -->
<g id="edge20" class="edge"><title>Node13&#45;&gt;Node5</title>
<path fill="none" stroke="midnightblue" d="M238.187,-168.485C264.696,-159.973 306.017,-146.147 341,-132 360.54,-124.098 363.909,-118.371 384,-112 455.151,-89.4379 541.545,-77.0019 591.603,-71.1895"/>
<polygon fill="midnightblue" stroke="midnightblue" points="592.171,-74.6478 601.715,-70.0485 591.386,-67.6919 592.171,-74.6478"/>
</g>
<!-- Node13&#45;&gt;Node8 -->
<g id="edge21" class="edge"><title>Node13&#45;&gt;Node8</title>
<path fill="none" stroke="midnightblue" d="M244.75,-168.444C282.275,-158.93 342.882,-143.565 383.079,-133.374"/>
<polygon fill="midnightblue" stroke="midnightblue" points="384,-136.752 392.833,-130.902 382.279,-129.966 384,-136.752"/>
</g>
<!-- Node13&#45;&gt;Node11 -->
<g id="edge23" class="edge"><title>Node13&#45;&gt;Node11</title>
<path fill="none" stroke="midnightblue" d="M198.406,-168.411C187.334,-160.247 171.54,-147.012 162,-132 141.21,-99.2858 131.044,-54.3468 126.721,-29.4653"/>
<polygon fill="midnightblue" stroke="midnightblue" points="130.172,-28.8784 125.129,-19.5606 123.261,-29.9893 130.172,-28.8784"/>
</g>
<!-- Node14 -->
<g id="node14" class="node"><title>Node14</title>
<polygon fill="none" stroke="#bfbfbf" points="171,-112.5 171,-131.5 223,-131.5 223,-112.5 171,-112.5"/>
<text text-anchor="middle" x="197" y="-119.5" font-family="Helvetica,sans-Serif" font-size="10.00">assert.h</text>
</g>
<!-- Node13&#45;&gt;Node14 -->
<g id="edge18" class="edge"><title>Node13&#45;&gt;Node14</title>
<path fill="none" stroke="midnightblue" d="M208.688,-168.083C206.833,-160.927 204.165,-150.635 201.846,-141.691"/>
<polygon fill="midnightblue" stroke="midnightblue" points="205.166,-140.553 199.269,-131.751 198.391,-142.309 205.166,-140.553"/>
</g>
<!-- Node15 -->
<g id="node15" class="node"><title>Node15</title>
<g id="a_node15"><a xlink:href="../../d6/d52/ciperror_8h.html" target="_top" xlink:title="ciperror.h">
<polygon fill="none" stroke="black" points="241.5,-112.5 241.5,-131.5 298.5,-131.5 298.5,-112.5 241.5,-112.5"/>
<text text-anchor="middle" x="270" y="-119.5" font-family="Helvetica,sans-Serif" font-size="10.00">ciperror.h</text>
</a>
</g>
</g>
<!-- Node13&#45;&gt;Node15 -->
<g id="edge22" class="edge"><title>Node13&#45;&gt;Node15</title>
<path fill="none" stroke="midnightblue" d="M220.479,-168.324C229.201,-160.341 242.343,-148.313 252.898,-138.653"/>
<polygon fill="midnightblue" stroke="midnightblue" points="255.334,-141.167 260.348,-131.834 250.608,-136.004 255.334,-141.167"/>
</g>
<!-- Node16&#45;&gt;Node11 -->
<g id="edge25" class="edge"><title>Node16&#45;&gt;Node11</title>
<path fill="none" stroke="midnightblue" d="M43.6648,-224.118C37.011,-196.804 20.4518,-112.491 53,-56 61.2282,-41.7191 76.0147,-31.2805 89.9717,-24.0735"/>
<polygon fill="midnightblue" stroke="midnightblue" points="91.8779,-27.043 99.4108,-19.5927 88.876,-20.7193 91.8779,-27.043"/>
</g>
<!-- Node17&#45;&gt;Node5 -->
<g id="edge29" class="edge"><title>Node17&#45;&gt;Node5</title>
<path fill="none" stroke="midnightblue" d="M336.233,-283.257C440.988,-272.026 647.533,-243.284 691,-188 717.375,-154.455 676.311,-106.965 650.813,-82.6605"/>
<polygon fill="midnightblue" stroke="midnightblue" points="652.912,-79.8352 643.187,-75.6312 648.168,-84.9823 652.912,-79.8352"/>
</g>
<!-- Node17&#45;&gt;Node8 -->
<g id="edge30" class="edge"><title>Node17&#45;&gt;Node8</title>
<path fill="none" stroke="midnightblue" d="M276.308,-280.497C280.04,-258.945 292.629,-201.516 325,-168 340.708,-151.736 363.387,-140.84 383.076,-133.85"/>
<polygon fill="midnightblue" stroke="midnightblue" points="384.365,-137.11 392.751,-130.634 382.158,-130.467 384.365,-137.11"/>
</g>
<!-- Node17&#45;&gt;Node11 -->
<g id="edge27" class="edge"><title>Node17&#45;&gt;Node11</title>
<path fill="none" stroke="midnightblue" d="M259.487,-280.4C233.056,-265.041 179.047,-230.486 147,-188 110.829,-140.046 114.022,-115.934 118,-56 118.575,-47.3406 119.765,-37.8054 120.935,-29.7496"/>
<polygon fill="midnightblue" stroke="midnightblue" points="124.436,-30.0109 122.509,-19.5928 117.519,-28.9388 124.436,-30.0109"/>
</g>
<!-- Node17&#45;&gt;Node13 -->
<g id="edge28" class="edge"><title>Node17&#45;&gt;Node13</title>
<path fill="none" stroke="midnightblue" d="M269.978,-280.368C259.463,-262.296 234.957,-220.176 221.07,-196.307"/>
<polygon fill="midnightblue" stroke="midnightblue" points="224.053,-194.475 215.999,-187.591 218.002,-197.995 224.053,-194.475"/>
</g>
<!-- Node18 -->
<g id="node18" class="node"><title>Node18</title>
<g id="a_node18"><a xlink:href="../../d1/d6c/cipconnectionobject_8h.html" target="_top" xlink:title="cipconnectionobject.h">
<polygon fill="none" stroke="black" points="317.5,-224.5 317.5,-243.5 428.5,-243.5 428.5,-224.5 317.5,-224.5"/>
<text text-anchor="middle" x="373" y="-231.5" font-family="Helvetica,sans-Serif" font-size="10.00">cipconnectionobject.h</text>
</a>
</g>
</g>
<!-- Node17&#45;&gt;Node18 -->
<g id="edge31" class="edge"><title>Node17&#45;&gt;Node18</title>
<path fill="none" stroke="midnightblue" d="M290.745,-280.324C306.319,-271.743 330.377,-258.486 348.459,-248.522"/>
<polygon fill="midnightblue" stroke="midnightblue" points="350.224,-251.546 357.294,-243.655 346.846,-245.415 350.224,-251.546"/>
</g>
<!-- Node18&#45;&gt;Node5 -->
<g id="edge32" class="edge"><title>Node18&#45;&gt;Node5</title>
<path fill="none" stroke="midnightblue" d="M427.05,-224.453C461.481,-217.637 506.34,-206.159 543,-188 579.327,-170.006 592.447,-165.687 615,-132 624.262,-118.165 628.789,-99.6465 630.982,-85.9151"/>
<polygon fill="midnightblue" stroke="midnightblue" points="634.49,-86.0868 632.329,-75.7146 627.55,-85.1703 634.49,-86.0868"/>
</g>
<!-- Node18&#45;&gt;Node8 -->
<g id="edge33" class="edge"><title>Node18&#45;&gt;Node8</title>
<path fill="none" stroke="midnightblue" d="M360.672,-224.395C344.439,-211.967 319.356,-188.261 332,-168 343.223,-150.017 363.945,-139.024 382.885,-132.41"/>
<polygon fill="midnightblue" stroke="midnightblue" points="384.095,-135.699 392.568,-129.337 381.977,-129.027 384.095,-135.699"/>
</g>
<!-- Node18&#45;&gt;Node11 -->
<g id="edge34" class="edge"><title>Node18&#45;&gt;Node11</title>
<path fill="none" stroke="midnightblue" d="M317.23,-227.129C263.732,-220.42 187.936,-207.745 166,-188 120.461,-147.008 119.823,-66.4942 122.184,-29.9018"/>
<polygon fill="midnightblue" stroke="midnightblue" points="125.694,-29.9177 123.003,-19.6702 118.716,-29.359 125.694,-29.9177"/>
</g>
<!-- Node18&#45;&gt;Node13 -->
<g id="edge35" class="edge"><title>Node18&#45;&gt;Node13</title>
<path fill="none" stroke="midnightblue" d="M347.331,-224.444C320.077,-215.359 276.816,-200.939 246.349,-190.783"/>
<polygon fill="midnightblue" stroke="midnightblue" points="247.143,-187.358 236.549,-187.516 244.929,-193.999 247.143,-187.358"/>
</g>
<!-- Node19 -->
<g id="node19" class="node"><title>Node19</title>
<g id="a_node19"><a xlink:href="../../d9/d31/doublylinkedlist_8h.html" target="_top" xlink:title="doublylinkedlist.h">
<polygon fill="none" stroke="black" points="341,-168.5 341,-187.5 433,-187.5 433,-168.5 341,-168.5"/>
<text text-anchor="middle" x="387" y="-175.5" font-family="Helvetica,sans-Serif" font-size="10.00">doublylinkedlist.h</text>
</a>
</g>
</g>
<!-- Node18&#45;&gt;Node19 -->
<g id="edge36" class="edge"><title>Node18&#45;&gt;Node19</title>
<path fill="none" stroke="midnightblue" d="M375.312,-224.083C377.167,-216.927 379.835,-206.635 382.154,-197.691"/>
<polygon fill="midnightblue" stroke="midnightblue" points="385.609,-198.309 384.731,-187.751 378.834,-196.553 385.609,-198.309"/>
</g>
<!-- Node20 -->
<g id="node20" class="node"><title>Node20</title>
<g id="a_node20"><a xlink:href="../../d0/d23/cipelectronickey_8h.html" target="_top" xlink:title="cipelectronickey.h">
<polygon fill="none" stroke="black" points="511.5,-112.5 511.5,-131.5 606.5,-131.5 606.5,-112.5 511.5,-112.5"/>
<text text-anchor="middle" x="559" y="-119.5" font-family="Helvetica,sans-Serif" font-size="10.00">cipelectronickey.h</text>
</a>
</g>
</g>
<!-- Node18&#45;&gt;Node20 -->
<g id="edge37" class="edge"><title>Node18&#45;&gt;Node20</title>
<path fill="none" stroke="midnightblue" d="M428.548,-226.126C458.465,-220.112 494.55,-208.889 521,-188 536.354,-175.874 546.743,-155.709 552.725,-141.049"/>
<polygon fill="midnightblue" stroke="midnightblue" points="556.057,-142.134 556.31,-131.542 549.507,-139.664 556.057,-142.134"/>
</g>
<!-- Node21 -->
<g id="node21" class="node"><title>Node21</title>
<g id="a_node21"><a xlink:href="../../d1/d02/cipepath_8h.html" target="_top" xlink:title="cipepath.h">
<polygon fill="none" stroke="black" points="451,-168.5 451,-187.5 513,-187.5 513,-168.5 451,-168.5"/>
<text text-anchor="middle" x="482" y="-175.5" font-family="Helvetica,sans-Serif" font-size="10.00">cipepath.h</text>
</a>
</g>
</g>
<!-- Node18&#45;&gt;Node21 -->
<g id="edge40" class="edge"><title>Node18&#45;&gt;Node21</title>
<path fill="none" stroke="midnightblue" d="M390.513,-224.324C408.072,-215.625 435.331,-202.12 455.531,-192.113"/>
<polygon fill="midnightblue" stroke="midnightblue" points="457.124,-195.23 464.531,-187.655 454.016,-188.958 457.124,-195.23"/>
</g>
<!-- Node20&#45;&gt;Node3 -->
<g id="edge38" class="edge"><title>Node20&#45;&gt;Node3</title>
<path fill="none" stroke="midnightblue" d="M559.078,-112.368C559.24,-94.617 559.612,-53.6664 559.831,-29.5974"/>
<polygon fill="midnightblue" stroke="midnightblue" points="563.331,-29.6229 559.922,-19.5914 556.331,-29.5592 563.331,-29.6229"/>
</g>
<!-- Node20&#45;&gt;Node5 -->
<g id="edge39" class="edge"><title>Node20&#45;&gt;Node5</title>
<path fill="none" stroke="midnightblue" d="M570.889,-112.324C582.15,-104.107 599.287,-91.6017 612.709,-81.8069"/>
<polygon fill="midnightblue" stroke="midnightblue" points="614.88,-84.5559 620.894,-75.8339 610.753,-78.9014 614.88,-84.5559"/>
</g>
<!-- Node21&#45;&gt;Node3 -->
<g id="edge41" class="edge"><title>Node21&#45;&gt;Node3</title>
<path fill="none" stroke="midnightblue" d="M484.002,-168.369C487.084,-155.708 493.531,-131.492 502,-112 515.434,-81.0814 535.969,-47.5978 548.659,-28.0034"/>
<polygon fill="midnightblue" stroke="midnightblue" points="551.632,-29.8527 554.193,-19.5721 545.78,-26.0118 551.632,-29.8527"/>
</g>
<!-- Node21&#45;&gt;Node8 -->
<g id="edge42" class="edge"><title>Node21&#45;&gt;Node8</title>
<path fill="none" stroke="midnightblue" d="M472.681,-168.324C464.107,-160.341 451.188,-148.313 440.812,-138.653"/>
<polygon fill="midnightblue" stroke="midnightblue" points="443.192,-136.086 433.488,-131.834 438.422,-141.21 443.192,-136.086"/>
</g>
<!-- Node21&#45;&gt;Node20 -->
<g id="edge43" class="edge"><title>Node21&#45;&gt;Node20</title>
<path fill="none" stroke="midnightblue" d="M494.371,-168.324C506.158,-160.058 524.132,-147.453 538.136,-137.632"/>
<polygon fill="midnightblue" stroke="midnightblue" points="540.482,-140.262 546.659,-131.655 536.462,-134.531 540.482,-140.262"/>
</g>
</g>
</svg>
