<?xml version="1.0" encoding="UTF-8" standalone="no"?>
<!DOCTYPE svg PUBLIC "-//W3C//DTD SVG 1.1//EN"
 "http://www.w3.org/Graphics/SVG/1.1/DTD/svg11.dtd">
<!-- Generated by graphviz version 2.26.3 (20100126.1600)
 -->
<!-- Title: G Pages: 1 -->
<!--zoomable 320 -->
<svg id="main" version="1.1" xmlns="http://www.w3.org/2000/svg" xmlns:xlink="http://www.w3.org/1999/xlink" xml:space="preserve" onload="init(evt)">
        <defs>
                <circle id="rim" cx="0" cy="0" r="7"/>
                <circle id="rim2" cx="0" cy="0" r="3.5"/>
                <g id="zoomPlus">
                        <use xlink:href="#rim" fill="#404040">
                                <set attributeName="fill" to="#808080" begin="zoomplus.mouseover" end="zoomplus.mouseout"/>
                        </use>
                        <path d="M-4,0h8M0,-4v8" fill="none" stroke="white" stroke-width="1.5" pointer-events="none"/>
                </g>
                <g id="zoomMin">
                        <use xlink:href="#rim" fill="#404040">
                                <set attributeName="fill" to="#808080" begin="zoomminus.mouseover" end="zoomminus.mouseout"/>
                        </use>
                        <path d="M-4,0h8" fill="none" stroke="white" stroke-width="1.5" pointer-events="none"/>
                </g>
                <g id="dirArrow">
                        <path fill="none" stroke="white" stroke-width="1.5" d="M0,-3.0v7 M-2.5,-0.5L0,-3.0L2.5,-0.5"/>
                </g>
               <g id="resetDef">
                       <use xlink:href="#rim2" fill="#404040">
                               <set attributeName="fill" to="#808080" begin="reset.mouseover" end="reset.mouseout"/>
                       </use>
               </g>
        </defs>

<script type="text/javascript">
var viewWidth = 684;
var viewHeight = 320;
var sectionId = 'dynsection-0';
</script>
<script xlink:href="../../svgpan.js"/>
<svg id="graph" class="graph">
<g id="viewport">
<title>G</title>
<!-- Node1 -->
<g id="node1" class="node"><title>Node1</title>
<polygon fill="#bfbfbf" stroke="black" points="180,-290.5 180,-311.5 292,-311.5 292,-290.5 180,-290.5"/>
<text text-anchor="middle" x="236" y="-298.5" font-family="Helvetica,sans-Serif" font-size="10.00">src/cip/cipassembly.c</text>
</g>
<!-- Node2 -->
<g id="node3" class="node"><title>Node2</title>
<polygon fill="none" stroke="#bfbfbf" points="-0.5,-232.5 -0.5,-253.5 48.5,-253.5 48.5,-232.5 -0.5,-232.5"/>
<text text-anchor="middle" x="24" y="-240.5" font-family="Helvetica,sans-Serif" font-size="10.00">string.h</text>
</g>
<!-- Node1&#45;&gt;Node2 -->
<g id="edge2" class="edge"><title>Node1&#45;&gt;Node2</title>
<path fill="none" stroke="midnightblue" d="M196.208,-290.469C160.904,-281.074 107.954,-266.857 62,-254 60.7723,-253.657 59.5228,-253.305 58.2611,-252.948"/>
<polygon fill="midnightblue" stroke="midnightblue" points="59.0879,-249.545 48.5113,-250.165 57.1665,-256.276 59.0879,-249.545"/>
</g>
<!-- Node3 -->
<g id="node5" class="node"><title>Node3</title>
<polygon fill="none" stroke="#bfbfbf" points="118,-0.5 118,-21.5 174,-21.5 174,-0.5 118,-0.5"/>
<text text-anchor="middle" x="146" y="-8.5" font-family="Helvetica,sans-Serif" font-size="10.00">stdbool.h</text>
</g>
<!-- Node1&#45;&gt;Node3 -->
<g id="edge4" class="edge"><title>Node1&#45;&gt;Node3</title>
<path fill="none" stroke="midnightblue" d="M194.38,-290.401C146.972,-275.53 76,-243.499 76,-185 76,-185 76,-185 76,-127 76,-87.4066 106.264,-49.7286 126.994,-28.5654"/>
<polygon fill="midnightblue" stroke="midnightblue" points="129.456,-31.0528 134.125,-21.5426 124.544,-26.065 129.456,-31.0528"/>
</g>
<!-- Node4 -->
<g id="node7" class="node"><title>Node4</title>
<a xlink:href="../../de/df4/cipassembly_8h.html" target="_top" xlink:title="cipassembly.h">
<polygon fill="none" stroke="black" points="104,-174.5 104,-195.5 184,-195.5 184,-174.5 104,-174.5"/>
<text text-anchor="middle" x="144" y="-182.5" font-family="Helvetica,sans-Serif" font-size="10.00">cipassembly.h</text>
</a>
</g>
<!-- Node1&#45;&gt;Node4 -->
<g id="edge6" class="edge"><title>Node1&#45;&gt;Node4</title>
<path fill="none" stroke="midnightblue" d="M227.51,-290.295C211.832,-270.527 178.167,-228.08 158.708,-203.544"/>
<polygon fill="midnightblue" stroke="midnightblue" points="161.426,-201.339 152.47,-195.679 155.941,-205.689 161.426,-201.339"/>
</g>
<!-- Node10 -->
<g id="node21" class="node"><title>Node10</title>
<a xlink:href="../../db/d14/cipcommon_8h.html" target="_top" xlink:title="cipcommon.h">
<polygon fill="none" stroke="black" points="201.5,-174.5 201.5,-195.5 276.5,-195.5 276.5,-174.5 201.5,-174.5"/>
<text text-anchor="middle" x="239" y="-182.5" font-family="Helvetica,sans-Serif" font-size="10.00">cipcommon.h</text>
</a>
</g>
<!-- Node1&#45;&gt;Node10 -->
<g id="edge22" class="edge"><title>Node1&#45;&gt;Node10</title>
<path fill="none" stroke="midnightblue" d="M236.277,-290.295C236.772,-271.131 237.819,-230.654 238.461,-205.843"/>
<polygon fill="midnightblue" stroke="midnightblue" points="241.964,-205.766 238.724,-195.679 234.966,-205.585 241.964,-205.766"/>
</g>
<!-- Node11 -->
<g id="node25" class="node"><title>Node11</title>
<a xlink:href="../../d4/d38/opener__api_8h.html" target="_top" xlink:title="opener_api.h">
<polygon fill="none" stroke="black" points="375,-174.5 375,-195.5 447,-195.5 447,-174.5 375,-174.5"/>
<text text-anchor="middle" x="411" y="-182.5" font-family="Helvetica,sans-Serif" font-size="10.00">opener_api.h</text>
</a>
</g>
<!-- Node1&#45;&gt;Node11 -->
<g id="edge28" class="edge"><title>Node1&#45;&gt;Node11</title>
<path fill="none" stroke="midnightblue" d="M292.097,-290.633C331.918,-282.16 380.739,-269.137 395,-254 407.146,-241.108 410.689,-220.88 411.465,-205.652"/>
<polygon fill="midnightblue" stroke="midnightblue" points="414.965,-205.678 411.625,-195.624 407.966,-205.567 414.965,-205.678"/>
</g>
<!-- Node15 -->
<g id="node36" class="node"><title>Node15</title>
<a xlink:href="../../d1/d1b/trace_8h.html" target="_top" xlink:title="Tracing infrastructure for OpENer.">
<polygon fill="none" stroke="black" points="498.5,-232.5 498.5,-253.5 545.5,-253.5 545.5,-232.5 498.5,-232.5"/>
<text text-anchor="middle" x="522" y="-240.5" font-family="Helvetica,sans-Serif" font-size="10.00">trace.h</text>
</a>
</g>
<!-- Node1&#45;&gt;Node15 -->
<g id="edge42" class="edge"><title>Node1&#45;&gt;Node15</title>
<path fill="none" stroke="midnightblue" d="M287.792,-290.497C346.102,-278.672 439.135,-259.805 488.573,-249.779"/>
<polygon fill="midnightblue" stroke="midnightblue" points="489.327,-253.197 498.432,-247.78 487.936,-246.337 489.327,-253.197"/>
</g>
<!-- Node16 -->
<g id="node39" class="node"><title>Node16</title>
<a xlink:href="../../d2/da3/cipconnectionmanager_8h.html" target="_top" xlink:title="cipconnectionmanager.h">
<polygon fill="none" stroke="black" points="264,-232.5 264,-253.5 386,-253.5 386,-232.5 264,-232.5"/>
<text text-anchor="middle" x="325" y="-240.5" font-family="Helvetica,sans-Serif" font-size="10.00">cipconnectionmanager.h</text>
</a>
</g>
<!-- Node1&#45;&gt;Node16 -->
<g id="edge46" class="edge"><title>Node1&#45;&gt;Node16</title>
<path fill="none" stroke="midnightblue" d="M252.324,-290.362C265.748,-281.614 284.983,-269.079 300.293,-259.101"/>
<polygon fill="midnightblue" stroke="midnightblue" points="302.312,-261.963 308.78,-253.571 298.491,-256.098 302.312,-261.963"/>
</g>
<!-- Node5 -->
<g id="node9" class="node"><title>Node5</title>
<a xlink:href="../../d7/d69/typedefs_8h.html" target="_top" xlink:title="typedefs.h">
<polygon fill="none" stroke="black" points="190,-58.5 190,-79.5 252,-79.5 252,-58.5 190,-58.5"/>
<text text-anchor="middle" x="221" y="-66.5" font-family="Helvetica,sans-Serif" font-size="10.00">typedefs.h</text>
</a>
</g>
<!-- Node4&#45;&gt;Node5 -->
<g id="edge8" class="edge"><title>Node4&#45;&gt;Node5</title>
<path fill="none" stroke="midnightblue" d="M151.106,-174.295C164.113,-154.7 191.913,-112.82 208.261,-88.1913"/>
<polygon fill="midnightblue" stroke="midnightblue" points="211.297,-89.9464 213.911,-79.6792 205.465,-86.0751 211.297,-89.9464"/>
</g>
<!-- Node8 -->
<g id="node16" class="node"><title>Node8</title>
<a xlink:href="../../df/d28/ciptypes_8h.html" target="_top" xlink:title="ciptypes.h">
<polygon fill="none" stroke="black" points="236,-116.5 236,-137.5 298,-137.5 298,-116.5 236,-116.5"/>
<text text-anchor="middle" x="267" y="-124.5" font-family="Helvetica,sans-Serif" font-size="10.00">ciptypes.h</text>
</a>
</g>
<!-- Node4&#45;&gt;Node8 -->
<g id="edge16" class="edge"><title>Node4&#45;&gt;Node8</title>
<path fill="none" stroke="midnightblue" d="M166.274,-174.497C185.572,-165.397 213.713,-152.127 235.348,-141.925"/>
<polygon fill="midnightblue" stroke="midnightblue" points="236.924,-145.052 244.476,-137.621 233.938,-138.721 236.924,-145.052"/>
</g>
<!-- Node5&#45;&gt;Node3 -->
<g id="edge14" class="edge"><title>Node5&#45;&gt;Node3</title>
<path fill="none" stroke="midnightblue" d="M207.244,-58.3619C196.249,-49.859 180.627,-37.7785 167.914,-27.9466"/>
<polygon fill="midnightblue" stroke="midnightblue" points="169.721,-24.9195 159.669,-21.5707 165.438,-30.4569 169.721,-24.9195"/>
</g>
<!-- Node6 -->
<g id="node11" class="node"><title>Node6</title>
<polygon fill="none" stroke="#bfbfbf" points="191.5,-0.5 191.5,-21.5 250.5,-21.5 250.5,-0.5 191.5,-0.5"/>
<text text-anchor="middle" x="221" y="-8.5" font-family="Helvetica,sans-Serif" font-size="10.00">inttypes.h</text>
</g>
<!-- Node5&#45;&gt;Node6 -->
<g id="edge10" class="edge"><title>Node5&#45;&gt;Node6</title>
<path fill="none" stroke="midnightblue" d="M221,-58.3619C221,-50.9219 221,-40.7427 221,-31.7276"/>
<polygon fill="midnightblue" stroke="midnightblue" points="224.5,-31.5706 221,-21.5707 217.5,-31.5707 224.5,-31.5706"/>
</g>
<!-- Node7 -->
<g id="node13" class="node"><title>Node7</title>
<polygon fill="none" stroke="#bfbfbf" points="268,-0.5 268,-21.5 320,-21.5 320,-0.5 268,-0.5"/>
<text text-anchor="middle" x="294" y="-8.5" font-family="Helvetica,sans-Serif" font-size="10.00">stddef.h</text>
</g>
<!-- Node5&#45;&gt;Node7 -->
<g id="edge12" class="edge"><title>Node5&#45;&gt;Node7</title>
<path fill="none" stroke="midnightblue" d="M234.389,-58.3619C245.091,-49.859 260.296,-37.7785 272.671,-27.9466"/>
<polygon fill="midnightblue" stroke="midnightblue" points="275.043,-30.5318 280.696,-21.5707 270.689,-25.0511 275.043,-30.5318"/>
</g>
<!-- Node8&#45;&gt;Node5 -->
<g id="edge18" class="edge"><title>Node8&#45;&gt;Node5</title>
<path fill="none" stroke="midnightblue" d="M258.563,-116.362C252.208,-108.35 243.334,-97.1605 235.807,-87.6696"/>
<polygon fill="midnightblue" stroke="midnightblue" points="238.34,-85.2308 229.384,-79.5707 232.855,-89.5805 238.34,-85.2308"/>
</g>
<!-- Node9 -->
<g id="node19" class="node"><title>Node9</title>
<polygon fill="none" stroke="#bfbfbf" points="269.5,-58.5 269.5,-79.5 360.5,-79.5 360.5,-58.5 269.5,-58.5"/>
<text text-anchor="middle" x="315" y="-66.5" font-family="Helvetica,sans-Serif" font-size="10.00">networkhandler.h</text>
</g>
<!-- Node8&#45;&gt;Node9 -->
<g id="edge20" class="edge"><title>Node8&#45;&gt;Node9</title>
<path fill="none" stroke="midnightblue" d="M275.804,-116.362C282.502,-108.268 291.884,-96.9318 299.789,-87.3796"/>
<polygon fill="midnightblue" stroke="midnightblue" points="302.573,-89.5061 306.252,-79.5707 297.18,-85.0431 302.573,-89.5061"/>
</g>
<!-- Node10&#45;&gt;Node5 -->
<g id="edge24" class="edge"><title>Node10&#45;&gt;Node5</title>
<path fill="none" stroke="midnightblue" d="M235.73,-174.28C232.973,-164.823 229.145,-150.62 227,-138 224.293,-122.071 222.774,-103.853 221.943,-90.1382"/>
<polygon fill="midnightblue" stroke="midnightblue" points="225.421,-89.626 221.395,-79.8258 218.43,-89.9975 225.421,-89.626"/>
</g>
<!-- Node10&#45;&gt;Node8 -->
<g id="edge26" class="edge"><title>Node10&#45;&gt;Node8</title>
<path fill="none" stroke="midnightblue" d="M244.136,-174.362C247.846,-166.677 252.967,-156.069 257.422,-146.84"/>
<polygon fill="midnightblue" stroke="midnightblue" points="260.701,-148.098 261.897,-137.571 254.397,-145.055 260.701,-148.098"/>
</g>
<!-- Node11&#45;&gt;Node3 -->
<g id="edge32" class="edge"><title>Node11&#45;&gt;Node3</title>
<path fill="none" stroke="midnightblue" d="M410.871,-174.201C409.954,-149.537 404.053,-88.8245 369,-58 308.116,-4.46059 267.858,-39.2116 184.087,-21.9321"/>
<polygon fill="midnightblue" stroke="midnightblue" points="184.73,-18.4891 174.204,-19.6944 183.184,-25.3163 184.73,-18.4891"/>
</g>
<!-- Node11&#45;&gt;Node5 -->
<g id="edge34" class="edge"><title>Node11&#45;&gt;Node5</title>
<path fill="none" stroke="midnightblue" d="M402.4,-174.311C389.985,-159.477 365.698,-132.604 340,-116 315.92,-100.442 285.874,-88.6254 261.998,-80.7319"/>
<polygon fill="midnightblue" stroke="midnightblue" points="262.77,-77.304 252.179,-77.5897 260.636,-83.9709 262.77,-77.304"/>
</g>
<!-- Node11&#45;&gt;Node8 -->
<g id="edge36" class="edge"><title>Node11&#45;&gt;Node8</title>
<path fill="none" stroke="midnightblue" d="M384.923,-174.497C361.925,-165.234 328.2,-151.65 302.7,-141.379"/>
<polygon fill="midnightblue" stroke="midnightblue" points="303.953,-138.111 293.37,-137.621 301.338,-144.604 303.953,-138.111"/>
</g>
<!-- Node12 -->
<g id="node27" class="node"><title>Node12</title>
<polygon fill="none" stroke="#bfbfbf" points="430,-116.5 430,-137.5 482,-137.5 482,-116.5 430,-116.5"/>
<text text-anchor="middle" x="456" y="-124.5" font-family="Helvetica,sans-Serif" font-size="10.00">assert.h</text>
</g>
<!-- Node11&#45;&gt;Node12 -->
<g id="edge30" class="edge"><title>Node11&#45;&gt;Node12</title>
<path fill="none" stroke="midnightblue" d="M419.254,-174.362C425.47,-166.35 434.151,-155.161 441.515,-145.67"/>
<polygon fill="midnightblue" stroke="midnightblue" points="444.434,-147.617 447.799,-137.571 438.903,-143.326 444.434,-147.617"/>
</g>
<!-- Node13 -->
<g id="node32" class="node"><title>Node13</title>
<a xlink:href="../../d6/d52/ciperror_8h.html" target="_top" xlink:title="ciperror.h">
<polygon fill="none" stroke="black" points="499.5,-116.5 499.5,-137.5 556.5,-137.5 556.5,-116.5 499.5,-116.5"/>
<text text-anchor="middle" x="528" y="-124.5" font-family="Helvetica,sans-Serif" font-size="10.00">ciperror.h</text>
</a>
</g>
<!-- Node11&#45;&gt;Node13 -->
<g id="edge38" class="edge"><title>Node11&#45;&gt;Node13</title>
<path fill="none" stroke="midnightblue" d="M432.188,-174.497C450.462,-165.438 477.072,-152.246 497.615,-142.063"/>
<polygon fill="midnightblue" stroke="midnightblue" points="499.169,-145.199 506.574,-137.621 496.06,-138.927 499.169,-145.199"/>
</g>
<!-- Node14 -->
<g id="node34" class="node"><title>Node14</title>
<polygon fill="none" stroke="#bfbfbf" points="574,-116.5 574,-137.5 676,-137.5 676,-116.5 574,-116.5"/>
<text text-anchor="middle" x="625" y="-124.5" font-family="Helvetica,sans-Serif" font-size="10.00">opener_user_conf.h</text>
</g>
<!-- Node11&#45;&gt;Node14 -->
<g id="edge40" class="edge"><title>Node11&#45;&gt;Node14</title>
<path fill="none" stroke="midnightblue" d="M447.302,-175.161C482.735,-165.558 536.889,-150.88 576.102,-140.253"/>
<polygon fill="midnightblue" stroke="midnightblue" points="577.244,-143.569 585.98,-137.575 575.413,-136.813 577.244,-143.569"/>
</g>
<!-- Node15&#45;&gt;Node14 -->
<g id="edge44" class="edge"><title>Node15&#45;&gt;Node14</title>
<path fill="none" stroke="midnightblue" d="M531.505,-232.295C549.134,-212.441 587.077,-169.709 608.818,-145.224"/>
<polygon fill="midnightblue" stroke="midnightblue" points="611.495,-147.481 615.518,-137.679 606.261,-142.833 611.495,-147.481"/>
</g>
<!-- Node16&#45;&gt;Node5 -->
<g id="edge52" class="edge"><title>Node16&#45;&gt;Node5</title>
<path fill="none" stroke="midnightblue" d="M326.473,-232.334C329.112,-208.965 332.231,-152.431 307,-116 296.149,-100.332 278.328,-89.3763 261.715,-82.0095"/>
<polygon fill="midnightblue" stroke="midnightblue" points="262.714,-78.6366 252.134,-78.0782 260.057,-85.1125 262.714,-78.6366"/>
</g>
<!-- Node16&#45;&gt;Node8 -->
<g id="edge54" class="edge"><title>Node16&#45;&gt;Node8</title>
<path fill="none" stroke="midnightblue" d="M319.647,-232.295C309.936,-212.872 289.278,-171.556 276.923,-146.846"/>
<polygon fill="midnightblue" stroke="midnightblue" points="279.942,-145.058 272.34,-137.679 273.681,-148.189 279.942,-145.058"/>
</g>
<!-- Node16&#45;&gt;Node11 -->
<g id="edge50" class="edge"><title>Node16&#45;&gt;Node11</title>
<path fill="none" stroke="midnightblue" d="M340.774,-232.362C353.624,-223.696 371.985,-211.313 386.71,-201.382"/>
<polygon fill="midnightblue" stroke="midnightblue" points="388.993,-204.064 395.326,-195.571 385.079,-198.26 388.993,-204.064"/>
</g>
<!-- Node16&#45;&gt;Node14 -->
<g id="edge48" class="edge"><title>Node16&#45;&gt;Node14</title>
<path fill="none" stroke="midnightblue" d="M355.578,-232.449C382.215,-223.157 421.819,-209.102 456,-196 502.999,-177.984 556.729,-155.765 590.748,-141.491"/>
<polygon fill="midnightblue" stroke="midnightblue" points="592.359,-144.611 600.221,-137.509 589.646,-138.158 592.359,-144.611"/>
</g>
</g>
</svg>
        <g id="navigator" transform="translate(0 0)" fill="#404254">
                <rect fill="#f2f5e9" fill-opacity="0.5" stroke="#606060" stroke-width=".5" x="0" y="0" width="60" height="60"/>
                <use id="zoomplus" xlink:href="#zoomPlus" x="17" y="9" onmousedown="handleZoom(evt,'in')"/>
                <use id="zoomminus" xlink:href="#zoomMin" x="42" y="9" onmousedown="handleZoom(evt,'out')"/>
                <use id="reset" xlink:href="#resetDef" x="30" y="36" onmousedown="handleReset()"/>
                <g id="arrowUp" xlink:href="#dirArrow" transform="translate(30 24)" onmousedown="handlePan(0,-1)">
                  <use xlink:href="#rim" fill="#404040">
                        <set attributeName="fill" to="#808080" begin="arrowUp.mouseover" end="arrowUp.mouseout"/>
                  </use>
                  <path fill="none" stroke="white" stroke-width="1.5" d="M0,-3.0v7 M-2.5,-0.5L0,-3.0L2.5,-0.5"/>
                </g>
                <g id="arrowRight" xlink:href="#dirArrow" transform="rotate(90) translate(36 -43)" onmousedown="handlePan(1,0)">
                  <use xlink:href="#rim" fill="#404040">
                        <set attributeName="fill" to="#808080" begin="arrowRight.mouseover" end="arrowRight.mouseout"/>
                  </use>
                  <path fill="none" stroke="white" stroke-width="1.5" d="M0,-3.0v7 M-2.5,-0.5L0,-3.0L2.5,-0.5"/>
                </g>
                <g id="arrowDown" xlink:href="#dirArrow" transform="rotate(180) translate(-30 -48)" onmousedown="handlePan(0,1)">
                  <use xlink:href="#rim" fill="#404040">
                        <set attributeName="fill" to="#808080" begin="arrowDown.mouseover" end="arrowDown.mouseout"/>
                  </use>
                  <path fill="none" stroke="white" stroke-width="1.5" d="M0,-3.0v7 M-2.5,-0.5L0,-3.0L2.5,-0.5"/>
                </g>
                <g id="arrowLeft" xlink:href="#dirArrow" transform="rotate(270) translate(-36 17)" onmousedown="handlePan(-1,0)">
                  <use xlink:href="#rim" fill="#404040">
                        <set attributeName="fill" to="#808080" begin="arrowLeft.mouseover" end="arrowLeft.mouseout"/>
                  </use>
                  <path fill="none" stroke="white" stroke-width="1.5" d="M0,-3.0v7 M-2.5,-0.5L0,-3.0L2.5,-0.5"/>
                </g>
        </g>
</svg>
