<?xml version="1.0" encoding="UTF-8" standalone="no"?>
<!DOCTYPE svg PUBLIC "-//W3C//DTD SVG 1.1//EN"
 "http://www.w3.org/Graphics/SVG/1.1/DTD/svg11.dtd">
<!-- Generated by graphviz version 2.26.3 (20100126.1600)
 -->
<!-- Title: G Pages: 1 -->
<svg width="172pt" height="204pt"
 viewBox="0.00 0.00 172.00 204.00" xmlns="http://www.w3.org/2000/svg" xmlns:xlink="http://www.w3.org/1999/xlink">
<g id="graph1" class="graph" transform="scale(1 1) rotate(0) translate(4 200)">
<title>G</title>
<!-- Node1 -->
<g id="node1" class="node"><title>Node1</title>
<polygon fill="#bfbfbf" stroke="black" points="11,-174.5 11,-195.5 119,-195.5 119,-174.5 11,-174.5"/>
<text text-anchor="middle" x="65" y="-182.5" font-family="Helvetica,sans-Serif" font-size="10.00">src/enet_encap/cpf.h</text>
</g>
<!-- Node2 -->
<g id="node3" class="node"><title>Node2</title>
<a xlink:href="../../d7/d69/typedefs_8h.html" target="_top" xlink:title="typedefs.h">
<polygon fill="none" stroke="black" points="34,-58.5 34,-79.5 96,-79.5 96,-58.5 34,-58.5"/>
<text text-anchor="middle" x="65" y="-66.5" font-family="Helvetica,sans-Serif" font-size="10.00">typedefs.h</text>
</a>
</g>
<!-- Node1&#45;&gt;Node2 -->
<g id="edge2" class="edge"><title>Node1&#45;&gt;Node2</title>
<path fill="none" stroke="midnightblue" d="M51.7897,-174.198C42.318,-165.541 30.3277,-152.48 25,-138 21.6238,-128.824 21.6238,-125.176 25,-116 28.9958,-105.14 36.7392,-95.0779 44.3571,-87.0736"/>
<polygon fill="midnightblue" stroke="midnightblue" points="47.0894,-89.297 51.7897,-79.8019 42.1941,-84.2934 47.0894,-89.297"/>
</g>
<!-- Node5 -->
<g id="node9" class="node"><title>Node5</title>
<a xlink:href="../../df/d28/ciptypes_8h.html" target="_top" xlink:title="ciptypes.h">
<polygon fill="none" stroke="black" points="34,-116.5 34,-137.5 96,-137.5 96,-116.5 34,-116.5"/>
<text text-anchor="middle" x="65" y="-124.5" font-family="Helvetica,sans-Serif" font-size="10.00">ciptypes.h</text>
</a>
</g>
<!-- Node1&#45;&gt;Node5 -->
<g id="edge8" class="edge"><title>Node1&#45;&gt;Node5</title>
<path fill="none" stroke="midnightblue" d="M65,-174.362C65,-166.922 65,-156.743 65,-147.728"/>
<polygon fill="midnightblue" stroke="midnightblue" points="68.5001,-147.571 65,-137.571 61.5001,-147.571 68.5001,-147.571"/>
</g>
<!-- Node6 -->
<g id="node12" class="node"><title>Node6</title>
<a xlink:href="../../d7/df9/encap_8h.html" target="_top" xlink:title="This file contains the public interface of the encapsulation layer.">
<polygon fill="none" stroke="black" points="113.5,-116.5 113.5,-137.5 164.5,-137.5 164.5,-116.5 113.5,-116.5"/>
<text text-anchor="middle" x="139" y="-124.5" font-family="Helvetica,sans-Serif" font-size="10.00">encap.h</text>
</a>
</g>
<!-- Node1&#45;&gt;Node6 -->
<g id="edge12" class="edge"><title>Node1&#45;&gt;Node6</title>
<path fill="none" stroke="midnightblue" d="M78.5727,-174.362C89.4212,-165.859 104.834,-153.779 117.379,-143.947"/>
<polygon fill="midnightblue" stroke="midnightblue" points="119.802,-146.494 125.513,-137.571 115.484,-140.985 119.802,-146.494"/>
</g>
<!-- Node3 -->
<g id="node5" class="node"><title>Node3</title>
<polygon fill="none" stroke="#bfbfbf" points="-0.5,-0.5 -0.5,-21.5 58.5,-21.5 58.5,-0.5 -0.5,-0.5"/>
<text text-anchor="middle" x="29" y="-8.5" font-family="Helvetica,sans-Serif" font-size="10.00">inttypes.h</text>
</g>
<!-- Node2&#45;&gt;Node3 -->
<g id="edge4" class="edge"><title>Node2&#45;&gt;Node3</title>
<path fill="none" stroke="midnightblue" d="M58.397,-58.3619C53.5254,-50.5131 46.7616,-39.6159 40.95,-30.2527"/>
<polygon fill="midnightblue" stroke="midnightblue" points="43.8085,-28.2213 35.5611,-21.5707 37.861,-31.9129 43.8085,-28.2213"/>
</g>
<!-- Node4 -->
<g id="node7" class="node"><title>Node4</title>
<polygon fill="none" stroke="#bfbfbf" points="76,-0.5 76,-21.5 128,-21.5 128,-0.5 76,-0.5"/>
<text text-anchor="middle" x="102" y="-8.5" font-family="Helvetica,sans-Serif" font-size="10.00">stddef.h</text>
</g>
<!-- Node2&#45;&gt;Node4 -->
<g id="edge6" class="edge"><title>Node2&#45;&gt;Node4</title>
<path fill="none" stroke="midnightblue" d="M71.7864,-58.3619C76.7934,-50.5131 83.745,-39.6159 89.7181,-30.2527"/>
<polygon fill="midnightblue" stroke="midnightblue" points="92.8292,-31.8837 95.2567,-21.5707 86.9277,-28.1189 92.8292,-31.8837"/>
</g>
<!-- Node5&#45;&gt;Node2 -->
<g id="edge10" class="edge"><title>Node5&#45;&gt;Node2</title>
<path fill="none" stroke="midnightblue" d="M65,-116.362C65,-108.922 65,-98.7427 65,-89.7276"/>
<polygon fill="midnightblue" stroke="midnightblue" points="68.5001,-89.5706 65,-79.5707 61.5001,-89.5707 68.5001,-89.5706"/>
</g>
<!-- Node6&#45;&gt;Node2 -->
<g id="edge14" class="edge"><title>Node6&#45;&gt;Node2</title>
<path fill="none" stroke="midnightblue" d="M125.427,-116.362C114.579,-107.859 99.1657,-95.7785 86.6215,-85.9466"/>
<polygon fill="midnightblue" stroke="midnightblue" points="88.5164,-82.9848 78.4867,-79.5707 84.1982,-88.4942 88.5164,-82.9848"/>
</g>
</g>
</svg>
