<?xml version="1.0" encoding="UTF-8" standalone="no"?>
<!DOCTYPE svg PUBLIC "-//W3C//DTD SVG 1.1//EN"
 "http://www.w3.org/Graphics/SVG/1.1/DTD/svg11.dtd">
<!-- Generated by graphviz version 2.36.0 (20140111.2315)
 -->
<!-- Title: GetAttributeSingleEthernetLink Pages: 1 -->
<!--zoomable 240 -->
<svg id="main" version="1.1" xmlns="http://www.w3.org/2000/svg" xmlns:xlink="http://www.w3.org/1999/xlink" xml:space="preserve" onload="init(evt)">
<style type="text/css"><![CDATA[
.edge:hover path { stroke: red; }
.edge:hover polygon { stroke: red; fill: red; }
]]></style>
<script type="text/javascript"><![CDATA[
var edges = document.getElementsByTagName('g');
if (edges && edges.length) {
  for (var i=0;i<edges.length;i++) {
    if (edges[i].id.substr(0,4)=='edge') {
      edges[i].setAttribute('class','edge');
    }
  }
}
]]></script>
        <defs>
                <circle id="rim" cx="0" cy="0" r="7"/>
                <circle id="rim2" cx="0" cy="0" r="3.5"/>
                <g id="zoomPlus">
                        <use xlink:href="#rim" fill="#404040">
                                <set attributeName="fill" to="#808080" begin="zoomplus.mouseover" end="zoomplus.mouseout"/>
                        </use>
                        <path d="M-4,0h8M0,-4v8" fill="none" stroke="white" stroke-width="1.5" pointer-events="none"/>
                </g>
                <g id="zoomMin">
                        <use xlink:href="#rim" fill="#404040">
                                <set attributeName="fill" to="#808080" begin="zoomminus.mouseover" end="zoomminus.mouseout"/>
                        </use>
                        <path d="M-4,0h8" fill="none" stroke="white" stroke-width="1.5" pointer-events="none"/>
                </g>
                <g id="dirArrow">
                        <path fill="none" stroke="white" stroke-width="1.5" d="M0,-3.0v7 M-2.5,-0.5L0,-3.0L2.5,-0.5"/>
                </g>
               <g id="resetDef">
                       <use xlink:href="#rim2" fill="#404040">
                               <set attributeName="fill" to="#808080" begin="reset.mouseover" end="reset.mouseout"/>
                       </use>
               </g>
        </defs>

<script type="text/javascript">
var viewWidth = 768;
var viewHeight = 240;
var sectionId = 'dynsection-12';
</script>
<script xlink:href="../../svgpan.js"/>
<svg id="graph" class="graph">
<g id="viewport">
<title>GetAttributeSingleEthernetLink</title>
<!-- Node1 -->
<g id="node1" class="node"><title>Node1</title>
<polygon fill="#bfbfbf" stroke="black" points="0.5,-98.2443 0.5,-117.244 151.5,-117.244 151.5,-98.2443 0.5,-98.2443"/>
<text text-anchor="middle" x="76" y="-105.244" font-family="Helvetica,sans-Serif" font-size="10.00">GetAttributeSingleEthernetLink</text>
</g>
<!-- Node2 -->
<g id="node2" class="node"><title>Node2</title>
<g id="a_node2"><a xlink:href="../../d2/dc9/group__CIP__API.html#ga1eb3004bbf086b276500e1d6e7a2f677" target="_top" xlink:title="Calculates Byte&#45;Index of Attribute. ">
<polygon fill="none" stroke="black" points="381,-212.244 381,-231.244 463,-231.244 463,-212.244 381,-212.244"/>
<text text-anchor="middle" x="422" y="-219.244" font-family="Helvetica,sans-Serif" font-size="10.00">CalculateIndex</text>
</a>
</g>
</g>
<!-- Node1&#45;&gt;Node2 -->
<g id="edge1" class="edge"><title>Node1&#45;&gt;Node2</title>
<path fill="none" stroke="midnightblue" d="M84.6195,-117.495C101.006,-137.632 141.871,-183.533 188,-202.744 247.164,-227.384 321.995,-228.856 370.652,-226.366"/>
<polygon fill="midnightblue" stroke="midnightblue" points="371.146,-229.843 380.923,-225.761 370.735,-222.855 371.146,-229.843"/>
</g>
<!-- Node3 -->
<g id="node3" class="node"><title>Node3</title>
<g id="a_node3"><a xlink:href="../../d7/d65/cipethernetlink_8c.html#a5b19ab196dbce19ecc33cc387cfdcdd4" target="_top" xlink:title="EncodeInterfaceCapability">
<polygon fill="none" stroke="black" points="188.5,-98.2443 188.5,-117.244 319.5,-117.244 319.5,-98.2443 188.5,-98.2443"/>
<text text-anchor="middle" x="254" y="-105.244" font-family="Helvetica,sans-Serif" font-size="10.00">EncodeInterfaceCapability</text>
</a>
</g>
</g>
<!-- Node1&#45;&gt;Node3 -->
<g id="edge2" class="edge"><title>Node1&#45;&gt;Node3</title>
<path fill="none" stroke="midnightblue" d="M151.64,-107.744C160.394,-107.744 169.329,-107.744 178.086,-107.744"/>
<polygon fill="midnightblue" stroke="midnightblue" points="178.265,-111.244 188.265,-107.744 178.265,-104.244 178.265,-111.244"/>
</g>
<!-- Node9 -->
<g id="node9" class="node"><title>Node9</title>
<g id="a_node9"><a xlink:href="../../d7/d65/cipethernetlink_8c.html#afd1fc559145db95d7dfd4992ff38edd5" target="_top" xlink:title="EncodeInterfaceControl">
<polygon fill="none" stroke="black" points="194.5,-60.2443 194.5,-79.2443 313.5,-79.2443 313.5,-60.2443 194.5,-60.2443"/>
<text text-anchor="middle" x="254" y="-67.2443" font-family="Helvetica,sans-Serif" font-size="10.00">EncodeInterfaceControl</text>
</a>
</g>
</g>
<!-- Node1&#45;&gt;Node9 -->
<g id="edge10" class="edge"><title>Node1&#45;&gt;Node9</title>
<path fill="none" stroke="midnightblue" d="M121.412,-98.1553C144.951,-93.073 174.057,-86.7889 198.905,-81.424"/>
<polygon fill="midnightblue" stroke="midnightblue" points="199.871,-84.7961 208.907,-79.2644 198.394,-77.9537 199.871,-84.7961"/>
</g>
<!-- Node10 -->
<g id="node10" class="node"><title>Node10</title>
<g id="a_node10"><a xlink:href="../../d7/d65/cipethernetlink_8c.html#a841bea27e0f777e8b8beaa35fbaa80c7" target="_top" xlink:title="EncodeInterfaceCounters">
<polygon fill="none" stroke="black" points="190,-22.2443 190,-41.2443 318,-41.2443 318,-22.2443 190,-22.2443"/>
<text text-anchor="middle" x="254" y="-29.2443" font-family="Helvetica,sans-Serif" font-size="10.00">EncodeInterfaceCounters</text>
</a>
</g>
</g>
<!-- Node1&#45;&gt;Node10 -->
<g id="edge12" class="edge"><title>Node1&#45;&gt;Node10</title>
<path fill="none" stroke="midnightblue" d="M93.0928,-98.2431C114.29,-86.0201 152.987,-64.7045 188,-50.7443 193.805,-48.4297 200.002,-46.2572 206.178,-44.2675"/>
<polygon fill="midnightblue" stroke="midnightblue" points="207.282,-47.5898 215.805,-41.2971 205.218,-40.9009 207.282,-47.5898"/>
</g>
<!-- Node11 -->
<g id="node11" class="node"><title>Node11</title>
<g id="a_node11"><a xlink:href="../../d7/d65/cipethernetlink_8c.html#ad7df5a954d504d818bf33ef2f2ae909d" target="_top" xlink:title="EncodeMediaCounters">
<polygon fill="none" stroke="black" points="196,-136.244 196,-155.244 312,-155.244 312,-136.244 196,-136.244"/>
<text text-anchor="middle" x="254" y="-143.244" font-family="Helvetica,sans-Serif" font-size="10.00">EncodeMediaCounters</text>
</a>
</g>
</g>
<!-- Node1&#45;&gt;Node11 -->
<g id="edge14" class="edge"><title>Node1&#45;&gt;Node11</title>
<path fill="none" stroke="midnightblue" d="M121.412,-117.333C144.951,-122.416 174.057,-128.7 198.905,-134.065"/>
<polygon fill="midnightblue" stroke="midnightblue" points="198.394,-137.535 208.907,-136.224 199.871,-130.693 198.394,-137.535"/>
</g>
<!-- Node12 -->
<g id="node12" class="node"><title>Node12</title>
<g id="a_node12"><a xlink:href="../../d2/d3d/cipcommon_8c.html#a4d2d00f2e1252b192ef73aa388898e7d" target="_top" xlink:title="Generic implementation of the GetAttributeSingle CIP service. ">
<polygon fill="none" stroke="black" points="206,-174.244 206,-193.244 302,-193.244 302,-174.244 206,-174.244"/>
<text text-anchor="middle" x="254" y="-181.244" font-family="Helvetica,sans-Serif" font-size="10.00">GetAttributeSingle</text>
</a>
</g>
</g>
<!-- Node1&#45;&gt;Node12 -->
<g id="edge16" class="edge"><title>Node1&#45;&gt;Node12</title>
<path fill="none" stroke="midnightblue" d="M93.0928,-117.245C114.29,-129.468 152.987,-150.784 188,-164.744 193.805,-167.059 200.002,-169.231 206.178,-171.221"/>
<polygon fill="midnightblue" stroke="midnightblue" points="205.218,-174.588 215.805,-174.191 207.282,-167.899 205.218,-174.588"/>
</g>
<!-- Node14 -->
<g id="node14" class="node"><title>Node14</title>
<g id="a_node14"><a xlink:href="../../d2/dc9/group__CIP__API.html#ga5a14c8d76acacb09312b709bb0a76265" target="_top" xlink:title="Get a pointer to an instance&#39;s attribute. ">
<polygon fill="none" stroke="black" points="380,-22.2443 380,-41.2443 464,-41.2443 464,-22.2443 380,-22.2443"/>
<text text-anchor="middle" x="422" y="-29.2443" font-family="Helvetica,sans-Serif" font-size="10.00">GetCipAttribute</text>
</a>
</g>
</g>
<!-- Node1&#45;&gt;Node14 -->
<g id="edge21" class="edge"><title>Node1&#45;&gt;Node14</title>
<path fill="none" stroke="midnightblue" d="M84.2568,-98.0053C100.253,-77.4614 140.89,-30.1514 188,-12.7443 253.615,11.5005 336.491,-5.5128 383.645,-19.2192"/>
<polygon fill="midnightblue" stroke="midnightblue" points="382.842,-22.6327 393.427,-22.1653 384.861,-15.9301 382.842,-22.6327"/>
</g>
<!-- Node4 -->
<g id="node4" class="node"><title>Node4</title>
<g id="a_node4"><a xlink:href="../../d2/dc9/group__CIP__API.html#gaece1b7dd2aeec306cb33b86b2ee21980" target="_top" xlink:title="Produce the data according to CIP encoding onto the message buffer. ">
<polygon fill="none" stroke="black" points="386.5,-98.2443 386.5,-117.244 457.5,-117.244 457.5,-98.2443 386.5,-98.2443"/>
<text text-anchor="middle" x="422" y="-105.244" font-family="Helvetica,sans-Serif" font-size="10.00">EncodeData</text>
</a>
</g>
</g>
<!-- Node3&#45;&gt;Node4 -->
<g id="edge3" class="edge"><title>Node3&#45;&gt;Node4</title>
<path fill="none" stroke="midnightblue" d="M319.655,-107.744C338.502,-107.744 358.678,-107.744 376.026,-107.744"/>
<polygon fill="midnightblue" stroke="midnightblue" points="376.425,-111.244 386.425,-107.744 376.425,-104.244 376.425,-111.244"/>
</g>
<!-- Node4&#45;&gt;Node4 -->
<g id="edge9" class="edge"><title>Node4&#45;&gt;Node4</title>
<path fill="none" stroke="midnightblue" d="M398.264,-117.501C386.717,-126.31 394.629,-135.744 422,-135.744 439.962,-135.744 449.544,-131.681 450.746,-126.398"/>
<polygon fill="midnightblue" stroke="midnightblue" points="453.692,-124.498 445.736,-117.501 447.593,-127.932 453.692,-124.498"/>
</g>
<!-- Node5 -->
<g id="node5" class="node"><title>Node5</title>
<g id="a_node5"><a xlink:href="../../d4/d91/group__ENCAP.html#gae267a8684cc6ee1b3bd83df03260b7aa" target="_top" xlink:title="converts UINT8 data from host to little endian an writes it to buffer. ">
<polygon fill="none" stroke="black" points="525,-155.244 525,-174.244 627,-174.244 627,-155.244 525,-155.244"/>
<text text-anchor="middle" x="576" y="-162.244" font-family="Helvetica,sans-Serif" font-size="10.00">AddSintToMessage</text>
</a>
</g>
</g>
<!-- Node4&#45;&gt;Node5 -->
<g id="edge4" class="edge"><title>Node4&#45;&gt;Node5</title>
<path fill="none" stroke="midnightblue" d="M448.441,-117.285C473.54,-126.697 512.104,-141.158 540.066,-151.644"/>
<polygon fill="midnightblue" stroke="midnightblue" points="538.883,-154.939 549.476,-155.173 541.341,-148.384 538.883,-154.939"/>
</g>
<!-- Node6 -->
<g id="node6" class="node"><title>Node6</title>
<g id="a_node6"><a xlink:href="../../d4/d91/group__ENCAP.html#gae689aac2a85bf49fb356ec94c8800799" target="_top" xlink:title="converts UINT16 data from host to little endian an writes it to buffer. ">
<polygon fill="none" stroke="black" points="664,-98.2443 664,-117.244 760,-117.244 760,-98.2443 664,-98.2443"/>
<text text-anchor="middle" x="712" y="-105.244" font-family="Helvetica,sans-Serif" font-size="10.00">AddIntToMessage</text>
</a>
</g>
</g>
<!-- Node4&#45;&gt;Node6 -->
<g id="edge5" class="edge"><title>Node4&#45;&gt;Node6</title>
<path fill="none" stroke="midnightblue" d="M457.74,-107.744C506.36,-107.744 595.295,-107.744 653.778,-107.744"/>
<polygon fill="midnightblue" stroke="midnightblue" points="653.967,-111.244 663.967,-107.744 653.967,-104.244 653.967,-111.244"/>
</g>
<!-- Node7 -->
<g id="node7" class="node"><title>Node7</title>
<g id="a_node7"><a xlink:href="../../d4/d91/group__ENCAP.html#gaafc3c9e3ff582c9b7e438ae2b1fdf822" target="_top" xlink:title="Converts UINT32 data from host to little endian and writes it to buffer. ">
<polygon fill="none" stroke="black" points="524.5,-41.2443 524.5,-60.2443 627.5,-60.2443 627.5,-41.2443 524.5,-41.2443"/>
<text text-anchor="middle" x="576" y="-48.2443" font-family="Helvetica,sans-Serif" font-size="10.00">AddDintToMessage</text>
</a>
</g>
</g>
<!-- Node4&#45;&gt;Node7 -->
<g id="edge6" class="edge"><title>Node4&#45;&gt;Node7</title>
<path fill="none" stroke="midnightblue" d="M448.311,-98.1954C468.734,-90.4968 498.208,-79.4005 524,-69.7443 529.143,-67.8187 534.58,-65.788 539.912,-63.7992"/>
<polygon fill="midnightblue" stroke="midnightblue" points="541.163,-67.0685 549.311,-60.2964 538.718,-60.5092 541.163,-67.0685"/>
</g>
<!-- Node8 -->
<g id="node8" class="node"><title>Node8</title>
<g id="a_node8"><a xlink:href="../../d2/d3d/cipcommon_8c.html#a6eec1752e2cffbbab16bff95fa145bd3" target="_top" xlink:title="EncodeEPath">
<polygon fill="none" stroke="black" points="537.5,-79.2443 537.5,-98.2443 614.5,-98.2443 614.5,-79.2443 537.5,-79.2443"/>
<text text-anchor="middle" x="576" y="-86.2443" font-family="Helvetica,sans-Serif" font-size="10.00">EncodeEPath</text>
</a>
</g>
</g>
<!-- Node4&#45;&gt;Node8 -->
<g id="edge7" class="edge"><title>Node4&#45;&gt;Node8</title>
<path fill="none" stroke="midnightblue" d="M457.872,-103.385C478.47,-100.811 504.835,-97.5149 527.334,-94.7025"/>
<polygon fill="midnightblue" stroke="midnightblue" points="527.877,-98.1621 537.365,-93.4487 527.008,-91.2161 527.877,-98.1621"/>
</g>
<!-- Node8&#45;&gt;Node6 -->
<g id="edge8" class="edge"><title>Node8&#45;&gt;Node6</title>
<path fill="none" stroke="midnightblue" d="M614.683,-94.0874C626.774,-95.8017 640.451,-97.741 653.621,-99.6085"/>
<polygon fill="midnightblue" stroke="midnightblue" points="653.167,-103.079 663.559,-101.018 654.15,-96.1483 653.167,-103.079"/>
</g>
<!-- Node9&#45;&gt;Node4 -->
<g id="edge11" class="edge"><title>Node9&#45;&gt;Node4</title>
<path fill="none" stroke="midnightblue" d="M296.889,-79.3333C321.201,-84.8987 351.809,-91.9053 376.545,-97.5678"/>
<polygon fill="midnightblue" stroke="midnightblue" points="375.874,-101.005 386.403,-99.8245 377.436,-94.1813 375.874,-101.005"/>
</g>
<!-- Node10&#45;&gt;Node4 -->
<g id="edge13" class="edge"><title>Node10&#45;&gt;Node4</title>
<path fill="none" stroke="midnightblue" d="M292.977,-41.2569C301.976,-43.9442 311.442,-47.1352 320,-50.7443 347.867,-62.4966 377.805,-80.0818 397.789,-92.6086"/>
<polygon fill="midnightblue" stroke="midnightblue" points="396.17,-95.7266 406.487,-98.1364 399.924,-89.8187 396.17,-95.7266"/>
</g>
<!-- Node11&#45;&gt;Node4 -->
<g id="edge15" class="edge"><title>Node11&#45;&gt;Node4</title>
<path fill="none" stroke="midnightblue" d="M296.889,-136.155C321.201,-130.59 351.809,-123.583 376.545,-117.921"/>
<polygon fill="midnightblue" stroke="midnightblue" points="377.436,-121.307 386.403,-115.664 375.874,-114.484 377.436,-121.307"/>
</g>
<!-- Node12&#45;&gt;Node2 -->
<g id="edge18" class="edge"><title>Node12&#45;&gt;Node2</title>
<path fill="none" stroke="midnightblue" d="M296.889,-193.333C319.412,-198.489 347.338,-204.882 370.994,-210.297"/>
<polygon fill="midnightblue" stroke="midnightblue" points="370.314,-213.732 380.842,-212.552 371.876,-206.908 370.314,-213.732"/>
</g>
<!-- Node12&#45;&gt;Node4 -->
<g id="edge19" class="edge"><title>Node12&#45;&gt;Node4</title>
<path fill="none" stroke="midnightblue" d="M292.977,-174.232C301.976,-171.544 311.442,-168.353 320,-164.744 347.867,-152.992 377.805,-135.407 397.789,-122.88"/>
<polygon fill="midnightblue" stroke="midnightblue" points="399.924,-125.67 406.487,-117.352 396.17,-119.762 399.924,-125.67"/>
</g>
<!-- Node13 -->
<g id="node13" class="node"><title>Node13</title>
<g id="a_node13"><a xlink:href="../../d5/dc5/group__CIP__CALLBACK__API.html#ga098272a8ae10facf3086c5c82a0080db" target="_top" xlink:title="Inform the application that the data of an assembly object will be sent. ">
<polygon fill="none" stroke="black" points="356,-174.244 356,-193.244 488,-193.244 488,-174.244 356,-174.244"/>
<text text-anchor="middle" x="422" y="-181.244" font-family="Helvetica,sans-Serif" font-size="10.00">BeforeAssemblyDataSend</text>
</a>
</g>
</g>
<!-- Node12&#45;&gt;Node13 -->
<g id="edge17" class="edge"><title>Node12&#45;&gt;Node13</title>
<path fill="none" stroke="midnightblue" d="M302.125,-183.744C315.676,-183.744 330.807,-183.744 345.613,-183.744"/>
<polygon fill="midnightblue" stroke="midnightblue" points="345.787,-187.244 355.787,-183.744 345.787,-180.244 345.787,-187.244"/>
</g>
<!-- Node12&#45;&gt;Node14 -->
<g id="edge20" class="edge"><title>Node12&#45;&gt;Node14</title>
<path fill="none" stroke="midnightblue" d="M302.193,-175.172C308.639,-172.566 314.813,-169.171 320,-164.744 348.432,-140.484 333.481,-118.575 356,-88.7443 368.017,-72.8253 385.074,-58.0738 398.699,-47.5673"/>
<polygon fill="midnightblue" stroke="midnightblue" points="401.158,-50.0987 407.07,-41.3065 396.966,-44.4931 401.158,-50.0987"/>
</g>
</g>
</svg>
        <g id="navigator" transform="translate(0 0)" fill="#404254">
                <rect fill="#f2f5e9" fill-opacity="0.5" stroke="#606060" stroke-width=".5" x="0" y="0" width="60" height="60"/>
                <use id="zoomplus" xlink:href="#zoomPlus" x="17" y="9" onmousedown="handleZoom(evt,'in')"/>
                <use id="zoomminus" xlink:href="#zoomMin" x="42" y="9" onmousedown="handleZoom(evt,'out')"/>
                <use id="reset" xlink:href="#resetDef" x="30" y="36" onmousedown="handleReset()"/>
                <g id="arrowUp" xlink:href="#dirArrow" transform="translate(30 24)" onmousedown="handlePan(0,-1)">
                  <use xlink:href="#rim" fill="#404040">
                        <set attributeName="fill" to="#808080" begin="arrowUp.mouseover" end="arrowUp.mouseout"/>
                  </use>
                  <path fill="none" stroke="white" stroke-width="1.5" d="M0,-3.0v7 M-2.5,-0.5L0,-3.0L2.5,-0.5"/>
                </g>
                <g id="arrowRight" xlink:href="#dirArrow" transform="rotate(90) translate(36 -43)" onmousedown="handlePan(1,0)">
                  <use xlink:href="#rim" fill="#404040">
                        <set attributeName="fill" to="#808080" begin="arrowRight.mouseover" end="arrowRight.mouseout"/>
                  </use>
                  <path fill="none" stroke="white" stroke-width="1.5" d="M0,-3.0v7 M-2.5,-0.5L0,-3.0L2.5,-0.5"/>
                </g>
                <g id="arrowDown" xlink:href="#dirArrow" transform="rotate(180) translate(-30 -48)" onmousedown="handlePan(0,1)">
                  <use xlink:href="#rim" fill="#404040">
                        <set attributeName="fill" to="#808080" begin="arrowDown.mouseover" end="arrowDown.mouseout"/>
                  </use>
                  <path fill="none" stroke="white" stroke-width="1.5" d="M0,-3.0v7 M-2.5,-0.5L0,-3.0L2.5,-0.5"/>
                </g>
                <g id="arrowLeft" xlink:href="#dirArrow" transform="rotate(270) translate(-36 17)" onmousedown="handlePan(-1,0)">
                  <use xlink:href="#rim" fill="#404040">
                        <set attributeName="fill" to="#808080" begin="arrowLeft.mouseover" end="arrowLeft.mouseout"/>
                  </use>
                  <path fill="none" stroke="white" stroke-width="1.5" d="M0,-3.0v7 M-2.5,-0.5L0,-3.0L2.5,-0.5"/>
                </g>
        </g>
        <svg viewBox="0 0 15 15" width="100%" height="30px" preserveAspectRatio="xMaxYMin meet">
         <g id="arrow_out" transform="scale(0.3 0.3)">
          <a xlink:href="cipethernetlink_8h_ab32c3ac78db693933538f44ed0b1fb42_cgraph_org.svg" target="_base">
           <rect id="button" ry="5" rx="5" y="6" x="6" height="38" width="38"
                fill="#f2f5e9" fill-opacity="0.5" stroke="#606060" stroke-width="1.0"/>
           <path id="arrow"
             d="M 11.500037,31.436501 C 11.940474,20.09759 22.043105,11.32322 32.158766,21.979434 L 37.068811,17.246167 C 37.068811,17.246167 37.088388,32 37.088388,32 L 22.160133,31.978069 C 22.160133,31.978069 26.997745,27.140456 26.997745,27.140456 C 18.528582,18.264221 13.291696,25.230495 11.500037,31.436501 z"
             style="fill:#404040;"/>
          </a>
         </g>
        </svg>
</svg>
