<?xml version="1.0" encoding="UTF-8" standalone="no"?>
<!DOCTYPE svg PUBLIC "-//W3C//DTD SVG 1.1//EN"
 "http://www.w3.org/Graphics/SVG/1.1/DTD/svg11.dtd">
<!-- Generated by graphviz version 2.26.3 (20100126.1600)
 -->
<!-- Title: G Pages: 1 -->
<!--zoomable 464 -->
<svg id="main" version="1.1" xmlns="http://www.w3.org/2000/svg" xmlns:xlink="http://www.w3.org/1999/xlink" xml:space="preserve" onload="init(evt)">
        <defs>
                <circle id="rim" cx="0" cy="0" r="7"/>
                <circle id="rim2" cx="0" cy="0" r="3.5"/>
                <g id="zoomPlus">
                        <use xlink:href="#rim" fill="#404040">
                                <set attributeName="fill" to="#808080" begin="zoomplus.mouseover" end="zoomplus.mouseout"/>
                        </use>
                        <path d="M-4,0h8M0,-4v8" fill="none" stroke="white" stroke-width="1.5" pointer-events="none"/>
                </g>
                <g id="zoomMin">
                        <use xlink:href="#rim" fill="#404040">
                                <set attributeName="fill" to="#808080" begin="zoomminus.mouseover" end="zoomminus.mouseout"/>
                        </use>
                        <path d="M-4,0h8" fill="none" stroke="white" stroke-width="1.5" pointer-events="none"/>
                </g>
                <g id="dirArrow">
                        <path fill="none" stroke="white" stroke-width="1.5" d="M0,-3.0v7 M-2.5,-0.5L0,-3.0L2.5,-0.5"/>
                </g>
               <g id="resetDef">
                       <use xlink:href="#rim2" fill="#404040">
                               <set attributeName="fill" to="#808080" begin="reset.mouseover" end="reset.mouseout"/>
                       </use>
               </g>
        </defs>

<script type="text/javascript">
var viewWidth = 932;
var viewHeight = 464;
var sectionId = 'dynsection-1';
</script>
<script xlink:href="../../svgpan.js"/>
<svg id="graph" class="graph">
<g id="viewport">
<title>G</title>
<!-- Node1 -->
<g id="node1" class="node"><title>Node1</title>
<polygon fill="#bfbfbf" stroke="black" points="0,-118.5 0,-139.5 108,-139.5 108,-118.5 0,-118.5"/>
<text text-anchor="middle" x="54" y="-126.5" font-family="Helvetica,sans-Serif" font-size="10.00">CipTcpIpInterfaceInit</text>
</g>
<!-- Node2 -->
<g id="node3" class="node"><title>Node2</title>
<a xlink:href="../../d2/dc9/group__CIP__API.html#ga446b7f612fe7baaf40d7f87274832922" target="_top" xlink:title="Allocate memory for new CIP Class and attributes.">
<polygon fill="none" stroke="black" points="173,-276.5 173,-297.5 259,-297.5 259,-276.5 173,-276.5"/>
<text text-anchor="middle" x="216" y="-284.5" font-family="Helvetica,sans-Serif" font-size="10.00">CreateCipClass</text>
</a>
</g>
<!-- Node1&#45;&gt;Node2 -->
<g id="edge2" class="edge"><title>Node1&#45;&gt;Node2</title>
<path fill="none" stroke="midnightblue" d="M64.0748,-139.67C80.525,-157.007 114.3,-192.249 144,-221 161.476,-237.917 181.972,-256.597 196.617,-269.753"/>
<polygon fill="midnightblue" stroke="midnightblue" points="194.31,-272.385 204.095,-276.448 198.979,-267.17 194.31,-272.385"/>
</g>
<!-- Node8 -->
<g id="node17" class="node"><title>Node8</title>
<a xlink:href="../../d2/dc9/group__CIP__API.html#gac207feb53c1f98b45f3934bbea63d618" target="_top" xlink:title="Insert an attribute in an instance of a CIP class.">
<polygon fill="none" stroke="black" points="365,-196.5 365,-217.5 443,-217.5 443,-196.5 365,-196.5"/>
<text text-anchor="middle" x="404" y="-204.5" font-family="Helvetica,sans-Serif" font-size="10.00">InsertAttribute</text>
</a>
</g>
<!-- Node1&#45;&gt;Node8 -->
<g id="edge52" class="edge"><title>Node1&#45;&gt;Node8</title>
<path fill="none" stroke="midnightblue" d="M73.431,-139.504C91.2746,-148.692 118.706,-161.681 144,-169 215.688,-189.744 301.929,-199.494 354.849,-203.829"/>
<polygon fill="midnightblue" stroke="midnightblue" points="354.73,-207.331 364.974,-204.626 355.279,-200.352 354.73,-207.331"/>
</g>
<!-- Node9 -->
<g id="node19" class="node"><title>Node9</title>
<a xlink:href="../../d2/dc9/group__CIP__API.html#ga35f639b135ec3c3903f49fd65daed307" target="_top" xlink:title="Insert a service in an instance of a CIP object.">
<polygon fill="none" stroke="black" points="367,-156.5 367,-177.5 441,-177.5 441,-156.5 367,-156.5"/>
<text text-anchor="middle" x="404" y="-164.5" font-family="Helvetica,sans-Serif" font-size="10.00">InsertService</text>
</a>
</g>
<!-- Node1&#45;&gt;Node9 -->
<g id="edge54" class="edge"><title>Node1&#45;&gt;Node9</title>
<path fill="none" stroke="midnightblue" d="M95.4316,-139.568C110.617,-143.08 128.001,-146.682 144,-149 217.732,-159.683 304.177,-164.07 356.478,-165.841"/>
<polygon fill="midnightblue" stroke="midnightblue" points="356.68,-169.349 366.787,-166.171 356.904,-162.353 356.68,-169.349"/>
</g>
<!-- Node19 -->
<g id="node41" class="node"><title>Node19</title>
<a xlink:href="../../dd/d20/ciptcpipinterface_8c.html#afe7be65662a3542da6008a2ca78270e3" target="_top" xlink:title="GetAttributeAllTcpIpInterface">
<polygon fill="none" stroke="black" points="144.5,-40.5 144.5,-61.5 287.5,-61.5 287.5,-40.5 144.5,-40.5"/>
<text text-anchor="middle" x="216" y="-48.5" font-family="Helvetica,sans-Serif" font-size="10.00">GetAttributeAllTcpIpInterface</text>
</a>
</g>
<!-- Node1&#45;&gt;Node19 -->
<g id="edge44" class="edge"><title>Node1&#45;&gt;Node19</title>
<path fill="none" stroke="midnightblue" d="M69.7377,-118.431C87.3062,-106.946 116.844,-88.5596 144,-76 152.735,-71.9599 162.319,-68.1975 171.564,-64.881"/>
<polygon fill="midnightblue" stroke="midnightblue" points="172.728,-68.1818 181.025,-61.5935 170.431,-61.5696 172.728,-68.1818"/>
</g>
<!-- Node20 -->
<g id="node43" class="node"><title>Node20</title>
<a xlink:href="../../dd/d20/ciptcpipinterface_8c.html#a35086299e6713b99a218e37f982ce676" target="_top" xlink:title="GetAttributeSingleTcpIpInterface">
<polygon fill="none" stroke="black" points="324.5,-59.5 324.5,-80.5 483.5,-80.5 483.5,-59.5 324.5,-59.5"/>
<text text-anchor="middle" x="404" y="-67.5" font-family="Helvetica,sans-Serif" font-size="10.00">GetAttributeSingleTcpIpInterface</text>
</a>
</g>
<!-- Node1&#45;&gt;Node20 -->
<g id="edge48" class="edge"><title>Node1&#45;&gt;Node20</title>
<path fill="none" stroke="midnightblue" d="M98.7371,-118.413C113.144,-115.176 129.208,-111.75 144,-109 200.362,-98.5236 264.003,-88.9396 314.213,-81.894"/>
<polygon fill="midnightblue" stroke="midnightblue" points="314.972,-85.3221 324.393,-80.4745 314.005,-78.3892 314.972,-85.3221"/>
</g>
<!-- Node21 -->
<g id="node46" class="node"><title>Node21</title>
<a xlink:href="../../d2/dc9/group__CIP__API.html#gaa50395aca91b378c297d6ad919df210e" target="_top" xlink:title="Get a pointer to an instance.">
<polygon fill="none" stroke="black" points="173.5,-0.5 173.5,-21.5 258.5,-21.5 258.5,-0.5 173.5,-0.5"/>
<text text-anchor="middle" x="216" y="-8.5" font-family="Helvetica,sans-Serif" font-size="10.00">GetCipInstance</text>
</a>
</g>
<!-- Node1&#45;&gt;Node21 -->
<g id="edge50" class="edge"><title>Node1&#45;&gt;Node21</title>
<path fill="none" stroke="midnightblue" d="M60.7611,-118.346C74.1327,-98.1596 105.979,-54.2816 144,-31 149.947,-27.3586 156.57,-24.3646 163.325,-21.9067"/>
<polygon fill="midnightblue" stroke="midnightblue" points="164.824,-25.0994 173.25,-18.6762 162.658,-18.4431 164.824,-25.0994"/>
</g>
<!-- Node22 -->
<g id="node50" class="node"><title>Node22</title>
<a xlink:href="../../dd/d20/ciptcpipinterface_8c.html#a3ce93313245a6e9c12c9958c176e9008" target="_top" xlink:title="SetAttributeSingleTcp">
<polygon fill="none" stroke="black" points="160,-118.5 160,-139.5 272,-139.5 272,-118.5 160,-118.5"/>
<text text-anchor="middle" x="216" y="-126.5" font-family="Helvetica,sans-Serif" font-size="10.00">SetAttributeSingleTcp</text>
</a>
</g>
<!-- Node1&#45;&gt;Node22 -->
<g id="edge56" class="edge"><title>Node1&#45;&gt;Node22</title>
<path fill="none" stroke="midnightblue" d="M108.394,-129C121.579,-129 135.822,-129 149.495,-129"/>
<polygon fill="midnightblue" stroke="midnightblue" points="149.813,-132.5 159.813,-129 149.813,-125.5 149.813,-132.5"/>
</g>
<!-- Node3 -->
<g id="node5" class="node"><title>Node3</title>
<a xlink:href="../../d2/dc9/group__CIP__API.html#ga98bd609c80ece316406363575b4a89ea" target="_top" xlink:title="Get a pointer to a CIP object with given class code.">
<polygon fill="none" stroke="black" points="367.5,-434.5 367.5,-455.5 440.5,-455.5 440.5,-434.5 367.5,-434.5"/>
<text text-anchor="middle" x="404" y="-442.5" font-family="Helvetica,sans-Serif" font-size="10.00">GetCipClass</text>
</a>
</g>
<!-- Node2&#45;&gt;Node3 -->
<g id="edge4" class="edge"><title>Node2&#45;&gt;Node3</title>
<path fill="none" stroke="midnightblue" d="M221.751,-297.756C235.777,-322.967 274.27,-386.282 324,-420 334.068,-426.826 346.091,-431.86 357.719,-435.544"/>
<polygon fill="midnightblue" stroke="midnightblue" points="356.762,-438.911 367.341,-438.331 358.71,-432.188 356.762,-438.911"/>
</g>
<!-- Node5 -->
<g id="node9" class="node"><title>Node5</title>
<a xlink:href="../../d5/dc5/group__CIP__CALLBACK__API.html#ga438b4350c32d6181990b1f0c83f2e343" target="_top" xlink:title="Allocate memory for the CIP stack.">
<polygon fill="none" stroke="black" points="556.5,-356.5 556.5,-377.5 615.5,-377.5 615.5,-356.5 556.5,-356.5"/>
<text text-anchor="middle" x="586" y="-364.5" font-family="Helvetica,sans-Serif" font-size="10.00">CipCalloc</text>
</a>
</g>
<!-- Node2&#45;&gt;Node5 -->
<g id="edge8" class="edge"><title>Node2&#45;&gt;Node5</title>
<path fill="none" stroke="midnightblue" d="M223.097,-297.56C238.441,-319.316 277.13,-368.633 324,-387 398.617,-416.24 494.206,-395.93 546.845,-380.307"/>
<polygon fill="midnightblue" stroke="midnightblue" points="547.933,-383.634 556.47,-377.359 545.883,-376.941 547.933,-383.634"/>
</g>
<!-- Node6 -->
<g id="node11" class="node"><title>Node6</title>
<a xlink:href="../../d2/dc9/group__CIP__API.html#ga39dafca98f844a12511af11b1273d0a8" target="_top" xlink:title="Add a number of CIP instances to a given CIP class.">
<polygon fill="none" stroke="black" points="358,-356.5 358,-377.5 450,-377.5 450,-356.5 358,-356.5"/>
<text text-anchor="middle" x="404" y="-364.5" font-family="Helvetica,sans-Serif" font-size="10.00">AddCipInstances</text>
</a>
</g>
<!-- Node2&#45;&gt;Node6 -->
<g id="edge10" class="edge"><title>Node2&#45;&gt;Node6</title>
<path fill="none" stroke="midnightblue" d="M231.812,-297.534C252.298,-310.763 289.486,-333.373 324,-347 331.573,-349.99 339.73,-352.639 347.838,-354.95"/>
<polygon fill="midnightblue" stroke="midnightblue" points="347.093,-358.375 357.66,-357.603 348.918,-351.617 347.093,-358.375"/>
</g>
<!-- Node7 -->
<g id="node14" class="node"><title>Node7</title>
<a xlink:href="../../d9/d7d/cipmessagerouter_8c.html#ae00f521e394d00fd5fd99271a6983116" target="_top" xlink:title="Register an Class to the message router.">
<polygon fill="none" stroke="black" points="357,-316.5 357,-337.5 451,-337.5 451,-316.5 357,-316.5"/>
<text text-anchor="middle" x="404" y="-324.5" font-family="Helvetica,sans-Serif" font-size="10.00">RegisterCipClass</text>
</a>
</g>
<!-- Node2&#45;&gt;Node7 -->
<g id="edge14" class="edge"><title>Node2&#45;&gt;Node7</title>
<path fill="none" stroke="midnightblue" d="M259.131,-296.177C285.103,-301.703 318.489,-308.806 346.663,-314.801"/>
<polygon fill="midnightblue" stroke="midnightblue" points="346.275,-318.296 356.784,-316.954 347.732,-311.45 346.275,-318.296"/>
</g>
<!-- Node2&#45;&gt;Node8 -->
<g id="edge18" class="edge"><title>Node2&#45;&gt;Node8</title>
<path fill="none" stroke="midnightblue" d="M231.812,-276.466C252.298,-263.237 289.486,-240.627 324,-227 333.788,-223.135 344.551,-219.841 354.922,-217.108"/>
<polygon fill="midnightblue" stroke="midnightblue" points="355.85,-220.484 364.701,-214.66 354.15,-213.694 355.85,-220.484"/>
</g>
<!-- Node2&#45;&gt;Node9 -->
<g id="edge20" class="edge"><title>Node2&#45;&gt;Node9</title>
<path fill="none" stroke="midnightblue" d="M224.264,-276.396C240.859,-255.855 280.4,-210.591 324,-187 334.026,-181.575 345.554,-177.59 356.681,-174.674"/>
<polygon fill="midnightblue" stroke="midnightblue" points="357.811,-178.003 366.731,-172.286 356.193,-171.193 357.811,-178.003"/>
</g>
<!-- Node10 -->
<g id="node21" class="node"><title>Node10</title>
<a xlink:href="../../d2/d3d/cipcommon_8c.html#a8aa8e5e3dc4c505af8ba8ca4e37d9d3e" target="_top" xlink:title="Generic implementation of the GetAttributeAll CIP service.">
<polygon fill="none" stroke="black" points="364,-276.5 364,-297.5 444,-297.5 444,-276.5 364,-276.5"/>
<text text-anchor="middle" x="404" y="-284.5" font-family="Helvetica,sans-Serif" font-size="10.00">GetAttributeAll</text>
</a>
</g>
<!-- Node2&#45;&gt;Node10 -->
<g id="edge22" class="edge"><title>Node2&#45;&gt;Node10</title>
<path fill="none" stroke="midnightblue" d="M259.131,-287C287.35,-287 324.322,-287 353.852,-287"/>
<polygon fill="midnightblue" stroke="midnightblue" points="353.96,-290.5 363.96,-287 353.96,-283.5 353.96,-290.5"/>
</g>
<!-- Node11 -->
<g id="node23" class="node"><title>Node11</title>
<a xlink:href="../../d2/d3d/cipcommon_8c.html#a92cbf8f0a7c9d1e251d22c046f0526bb" target="_top" xlink:title="Generic implementation of the GetAttributeSingle CIP service.">
<polygon fill="none" stroke="black" points="356,-236.5 356,-257.5 452,-257.5 452,-236.5 356,-236.5"/>
<text text-anchor="middle" x="404" y="-244.5" font-family="Helvetica,sans-Serif" font-size="10.00">GetAttributeSingle</text>
</a>
</g>
<!-- Node2&#45;&gt;Node11 -->
<g id="edge24" class="edge"><title>Node2&#45;&gt;Node11</title>
<path fill="none" stroke="midnightblue" d="M259.131,-277.823C284.813,-272.359 317.745,-265.352 345.719,-259.4"/>
<polygon fill="midnightblue" stroke="midnightblue" points="346.725,-262.765 355.778,-257.26 345.269,-255.918 346.725,-262.765"/>
</g>
<!-- Node4 -->
<g id="node7" class="node"><title>Node4</title>
<a xlink:href="../../d9/d7d/cipmessagerouter_8c.html#a7a9f44f2d6f010b6f6ee922d378d9bb1" target="_top" xlink:title="Get the registered MessageRouter object corresponding to ClassID. given a class ID, return a pointer to the registration node for that object.">
<polygon fill="none" stroke="black" points="532,-434.5 532,-455.5 640,-455.5 640,-434.5 532,-434.5"/>
<text text-anchor="middle" x="586" y="-442.5" font-family="Helvetica,sans-Serif" font-size="10.00">GetRegisteredObject</text>
</a>
</g>
<!-- Node3&#45;&gt;Node4 -->
<g id="edge6" class="edge"><title>Node3&#45;&gt;Node4</title>
<path fill="none" stroke="midnightblue" d="M440.83,-445C464.04,-445 494.642,-445 521.763,-445"/>
<polygon fill="midnightblue" stroke="midnightblue" points="521.964,-448.5 531.964,-445 521.964,-441.5 521.964,-448.5"/>
</g>
<!-- Node6&#45;&gt;Node5 -->
<g id="edge12" class="edge"><title>Node6&#45;&gt;Node5</title>
<path fill="none" stroke="midnightblue" d="M450.397,-367C479.907,-367 517.731,-367 545.931,-367"/>
<polygon fill="midnightblue" stroke="midnightblue" points="546.23,-370.5 556.23,-367 546.23,-363.5 546.23,-370.5"/>
</g>
<!-- Node7&#45;&gt;Node5 -->
<g id="edge16" class="edge"><title>Node7&#45;&gt;Node5</title>
<path fill="none" stroke="midnightblue" d="M451.343,-337.405C480.892,-343.899 518.488,-352.162 546.441,-358.306"/>
<polygon fill="midnightblue" stroke="midnightblue" points="545.752,-361.738 556.27,-360.466 547.255,-354.901 545.752,-361.738"/>
</g>
<!-- Node12 -->
<g id="node25" class="node"><title>Node12</title>
<a xlink:href="../../d5/dc5/group__CIP__CALLBACK__API.html#ga098272a8ae10facf3086c5c82a0080db" target="_top" xlink:title="Inform the application that the data of an assembly object will be sent.">
<polygon fill="none" stroke="black" points="520,-265.5 520,-286.5 652,-286.5 652,-265.5 520,-265.5"/>
<text text-anchor="middle" x="586" y="-273.5" font-family="Helvetica,sans-Serif" font-size="10.00">BeforeAssemblyDataSend</text>
</a>
</g>
<!-- Node11&#45;&gt;Node12 -->
<g id="edge26" class="edge"><title>Node11&#45;&gt;Node12</title>
<path fill="none" stroke="midnightblue" d="M452.295,-254.695C469.961,-257.51 490.405,-260.768 509.909,-263.876"/>
<polygon fill="midnightblue" stroke="midnightblue" points="509.577,-267.367 520.003,-265.484 510.679,-260.454 509.577,-267.367"/>
</g>
<!-- Node13 -->
<g id="node27" class="node"><title>Node13</title>
<a xlink:href="../../d2/dc9/group__CIP__API.html#gaece1b7dd2aeec306cb33b86b2ee21980" target="_top" xlink:title="Produce the data according to CIP encoding onto the message buffer.">
<polygon fill="none" stroke="black" points="550.5,-207.5 550.5,-228.5 621.5,-228.5 621.5,-207.5 550.5,-207.5"/>
<text text-anchor="middle" x="586" y="-215.5" font-family="Helvetica,sans-Serif" font-size="10.00">EncodeData</text>
</a>
</g>
<!-- Node11&#45;&gt;Node13 -->
<g id="edge28" class="edge"><title>Node11&#45;&gt;Node13</title>
<path fill="none" stroke="midnightblue" d="M452.295,-239.305C479.655,-234.945 513.676,-229.524 540.553,-225.241"/>
<polygon fill="midnightblue" stroke="midnightblue" points="541.151,-228.691 550.476,-223.66 540.049,-221.778 541.151,-228.691"/>
</g>
<!-- Node18 -->
<g id="node39" class="node"><title>Node18</title>
<a xlink:href="../../d2/dc9/group__CIP__API.html#ga5a14c8d76acacb09312b709bb0a76265" target="_top" xlink:title="Get a pointer to an instance&#39;s attribute.">
<polygon fill="none" stroke="black" points="544,-157.5 544,-178.5 628,-178.5 628,-157.5 544,-157.5"/>
<text text-anchor="middle" x="586" y="-165.5" font-family="Helvetica,sans-Serif" font-size="10.00">GetCipAttribute</text>
</a>
</g>
<!-- Node11&#45;&gt;Node18 -->
<g id="edge42" class="edge"><title>Node11&#45;&gt;Node18</title>
<path fill="none" stroke="midnightblue" d="M452.164,-238.54C462.96,-235.675 474.13,-231.909 484,-227 502.396,-217.85 502.51,-208.78 520,-198 529.256,-192.295 539.782,-187.023 549.665,-182.543"/>
<polygon fill="midnightblue" stroke="midnightblue" points="551.129,-185.723 558.882,-178.502 548.318,-179.312 551.129,-185.723"/>
</g>
<!-- Node13&#45;&gt;Node13 -->
<g id="edge40" class="edge"><title>Node13&#45;&gt;Node13</title>
<path fill="none" stroke="midnightblue" d="M561.531,-228.708C551.074,-237.653 559.23,-247 586,-247 603.149,-247 612.66,-243.164 614.531,-238.055"/>
<polygon fill="midnightblue" stroke="midnightblue" points="617.665,-236.484 610.469,-228.708 611.245,-239.274 617.665,-236.484"/>
</g>
<!-- Node14 -->
<g id="node29" class="node"><title>Node14</title>
<a xlink:href="../../d4/d91/group__ENCAP.html#gae267a8684cc6ee1b3bd83df03260b7aa" target="_top" xlink:title="converts UINT8 data from host to little endian an writes it to buffer.">
<polygon fill="none" stroke="black" points="689,-266.5 689,-287.5 791,-287.5 791,-266.5 689,-266.5"/>
<text text-anchor="middle" x="740" y="-274.5" font-family="Helvetica,sans-Serif" font-size="10.00">AddSintToMessage</text>
</a>
</g>
<!-- Node13&#45;&gt;Node14 -->
<g id="edge30" class="edge"><title>Node13&#45;&gt;Node14</title>
<path fill="none" stroke="midnightblue" d="M613.532,-228.548C638.42,-238.083 675.265,-252.199 702.774,-262.738"/>
<polygon fill="midnightblue" stroke="midnightblue" points="701.857,-266.135 712.447,-266.444 704.361,-259.598 701.857,-266.135"/>
</g>
<!-- Node15 -->
<g id="node31" class="node"><title>Node15</title>
<a xlink:href="../../d4/d91/group__ENCAP.html#gae689aac2a85bf49fb356ec94c8800799" target="_top" xlink:title="converts UINT16 data from host to little endian an writes it to buffer.">
<polygon fill="none" stroke="black" points="828,-207.5 828,-228.5 924,-228.5 924,-207.5 828,-207.5"/>
<text text-anchor="middle" x="876" y="-215.5" font-family="Helvetica,sans-Serif" font-size="10.00">AddIntToMessage</text>
</a>
</g>
<!-- Node13&#45;&gt;Node15 -->
<g id="edge32" class="edge"><title>Node13&#45;&gt;Node15</title>
<path fill="none" stroke="midnightblue" d="M621.875,-218.438C641.424,-218.654 666.041,-218.892 688,-219 734.222,-219.227 745.779,-219.275 792,-219 800.191,-218.951 808.831,-218.876 817.329,-218.788"/>
<polygon fill="midnightblue" stroke="midnightblue" points="817.623,-222.285 827.584,-218.675 817.546,-215.285 817.623,-222.285"/>
</g>
<!-- Node16 -->
<g id="node33" class="node"><title>Node16</title>
<a xlink:href="../../d4/d91/group__ENCAP.html#gaafc3c9e3ff582c9b7e438ae2b1fdf822" target="_top" xlink:title="Converts UINT32 data from host to little endian and writes it to buffer.">
<polygon fill="none" stroke="black" points="688.5,-148.5 688.5,-169.5 791.5,-169.5 791.5,-148.5 688.5,-148.5"/>
<text text-anchor="middle" x="740" y="-156.5" font-family="Helvetica,sans-Serif" font-size="10.00">AddDintToMessage</text>
</a>
</g>
<!-- Node13&#45;&gt;Node16 -->
<g id="edge34" class="edge"><title>Node13&#45;&gt;Node16</title>
<path fill="none" stroke="midnightblue" d="M613.532,-207.452C638.42,-197.917 675.265,-183.801 702.774,-173.262"/>
<polygon fill="midnightblue" stroke="midnightblue" points="704.361,-176.402 712.447,-169.556 701.857,-169.865 704.361,-176.402"/>
</g>
<!-- Node17 -->
<g id="node35" class="node"><title>Node17</title>
<a xlink:href="../../d2/d3d/cipcommon_8c.html#a6eec1752e2cffbbab16bff95fa145bd3" target="_top" xlink:title="EncodeEPath">
<polygon fill="none" stroke="black" points="701.5,-188.5 701.5,-209.5 778.5,-209.5 778.5,-188.5 701.5,-188.5"/>
<text text-anchor="middle" x="740" y="-196.5" font-family="Helvetica,sans-Serif" font-size="10.00">EncodeEPath</text>
</a>
</g>
<!-- Node13&#45;&gt;Node17 -->
<g id="edge36" class="edge"><title>Node13&#45;&gt;Node17</title>
<path fill="none" stroke="midnightblue" d="M621.718,-213.593C642.368,-211.046 668.642,-207.804 691.18,-205.023"/>
<polygon fill="midnightblue" stroke="midnightblue" points="691.743,-208.48 701.239,-203.782 690.885,-201.533 691.743,-208.48"/>
</g>
<!-- Node17&#45;&gt;Node15 -->
<g id="edge38" class="edge"><title>Node17&#45;&gt;Node15</title>
<path fill="none" stroke="midnightblue" d="M778.608,-204.394C790.749,-206.09 804.437,-208.002 817.631,-209.846"/>
<polygon fill="midnightblue" stroke="midnightblue" points="817.203,-213.32 827.591,-211.237 818.171,-206.387 817.203,-213.32"/>
</g>
<!-- Node19&#45;&gt;Node20 -->
<g id="edge46" class="edge"><title>Node19&#45;&gt;Node20</title>
<path fill="none" stroke="midnightblue" d="M287.611,-58.2373C296.357,-59.1212 305.377,-60.0328 314.344,-60.939"/>
<polygon fill="midnightblue" stroke="midnightblue" points="314.127,-64.4349 324.429,-61.9582 314.831,-57.4703 314.127,-64.4349"/>
</g>
<!-- Node22&#45;&gt;Node18 -->
<g id="edge58" class="edge"><title>Node22&#45;&gt;Node18</title>
<path fill="none" stroke="midnightblue" d="M272.173,-130.552C326.554,-132.577 411.222,-137.111 484,-147 500.166,-149.197 517.608,-152.454 533.418,-155.751"/>
<polygon fill="midnightblue" stroke="midnightblue" points="533.032,-159.247 543.542,-157.913 534.494,-152.402 533.032,-159.247"/>
</g>
</g>
</svg>
        <g id="navigator" transform="translate(0 0)" fill="#404254">
                <rect fill="#f2f5e9" fill-opacity="0.5" stroke="#606060" stroke-width=".5" x="0" y="0" width="60" height="60"/>
                <use id="zoomplus" xlink:href="#zoomPlus" x="17" y="9" onmousedown="handleZoom(evt,'in')"/>
                <use id="zoomminus" xlink:href="#zoomMin" x="42" y="9" onmousedown="handleZoom(evt,'out')"/>
                <use id="reset" xlink:href="#resetDef" x="30" y="36" onmousedown="handleReset()"/>
                <g id="arrowUp" xlink:href="#dirArrow" transform="translate(30 24)" onmousedown="handlePan(0,-1)">
                  <use xlink:href="#rim" fill="#404040">
                        <set attributeName="fill" to="#808080" begin="arrowUp.mouseover" end="arrowUp.mouseout"/>
                  </use>
                  <path fill="none" stroke="white" stroke-width="1.5" d="M0,-3.0v7 M-2.5,-0.5L0,-3.0L2.5,-0.5"/>
                </g>
                <g id="arrowRight" xlink:href="#dirArrow" transform="rotate(90) translate(36 -43)" onmousedown="handlePan(1,0)">
                  <use xlink:href="#rim" fill="#404040">
                        <set attributeName="fill" to="#808080" begin="arrowRight.mouseover" end="arrowRight.mouseout"/>
                  </use>
                  <path fill="none" stroke="white" stroke-width="1.5" d="M0,-3.0v7 M-2.5,-0.5L0,-3.0L2.5,-0.5"/>
                </g>
                <g id="arrowDown" xlink:href="#dirArrow" transform="rotate(180) translate(-30 -48)" onmousedown="handlePan(0,1)">
                  <use xlink:href="#rim" fill="#404040">
                        <set attributeName="fill" to="#808080" begin="arrowDown.mouseover" end="arrowDown.mouseout"/>
                  </use>
                  <path fill="none" stroke="white" stroke-width="1.5" d="M0,-3.0v7 M-2.5,-0.5L0,-3.0L2.5,-0.5"/>
                </g>
                <g id="arrowLeft" xlink:href="#dirArrow" transform="rotate(270) translate(-36 17)" onmousedown="handlePan(-1,0)">
                  <use xlink:href="#rim" fill="#404040">
                        <set attributeName="fill" to="#808080" begin="arrowLeft.mouseover" end="arrowLeft.mouseout"/>
                  </use>
                  <path fill="none" stroke="white" stroke-width="1.5" d="M0,-3.0v7 M-2.5,-0.5L0,-3.0L2.5,-0.5"/>
                </g>
        </g>
</svg>
