<?xml version="1.0" encoding="UTF-8" standalone="no"?>
<!DOCTYPE svg PUBLIC "-//W3C//DTD SVG 1.1//EN"
 "http://www.w3.org/Graphics/SVG/1.1/DTD/svg11.dtd">
<!-- Generated by graphviz version 2.36.0 (20140111.2315)
 -->
<!-- Title: GetNextNonControlMasterConnection Pages: 1 -->
<svg width="650pt" height="115pt"
 viewBox="0.00 0.00 650.00 115.00" xmlns="http://www.w3.org/2000/svg" xmlns:xlink="http://www.w3.org/1999/xlink">
<g id="graph0" class="graph" transform="scale(1 1) rotate(0) translate(4 111)">
<title>GetNextNonControlMasterConnection</title>
<!-- Node1 -->
<g id="node1" class="node"><title>Node1</title>
<polygon fill="#bfbfbf" stroke="black" points="0,-49.5 0,-68.5 182,-68.5 182,-49.5 0,-49.5"/>
<text text-anchor="middle" x="91" y="-56.5" font-family="Helvetica,sans-Serif" font-size="10.00">GetNextNonControlMasterConnection</text>
</g>
<!-- Node2 -->
<g id="node2" class="node"><title>Node2</title>
<g id="a_node2"><a xlink:href="../../df/d91/cipconnectionobject_8c.html#a9c381240583828bec2cda2d54dc94d3b" target="_top" xlink:title="ConnectionObjectGetState">
<polygon fill="none" stroke="black" points="254,-87.5 254,-106.5 388,-106.5 388,-87.5 254,-87.5"/>
<text text-anchor="middle" x="321" y="-94.5" font-family="Helvetica,sans-Serif" font-size="10.00">ConnectionObjectGetState</text>
</a>
</g>
</g>
<!-- Node1&#45;&gt;Node2 -->
<g id="edge1" class="edge"><title>Node1&#45;&gt;Node2</title>
<path fill="none" stroke="midnightblue" d="M149.24,-68.54C180.68,-73.7799 219.853,-80.3088 252.746,-85.7909"/>
<polygon fill="midnightblue" stroke="midnightblue" points="252.297,-89.2644 262.737,-87.4561 253.448,-82.3597 252.297,-89.2644"/>
</g>
<!-- Node3 -->
<g id="node3" class="node"><title>Node3</title>
<g id="a_node3"><a xlink:href="../../df/d91/cipconnectionobject_8c.html#ad61ad2b2c18480a141e5df346e32be02" target="_top" xlink:title="ConnectionObjectGetTToOConnectionType">
<polygon fill="none" stroke="black" points="218,-49.5 218,-68.5 424,-68.5 424,-49.5 218,-49.5"/>
<text text-anchor="middle" x="321" y="-56.5" font-family="Helvetica,sans-Serif" font-size="10.00">ConnectionObjectGetTToOConnectionType</text>
</a>
</g>
</g>
<!-- Node1&#45;&gt;Node3 -->
<g id="edge2" class="edge"><title>Node1&#45;&gt;Node3</title>
<path fill="none" stroke="midnightblue" d="M182.112,-59C190.521,-59 199.113,-59 207.691,-59"/>
<polygon fill="midnightblue" stroke="midnightblue" points="207.744,-62.5001 217.744,-59 207.744,-55.5001 207.744,-62.5001"/>
</g>
<!-- Node5 -->
<g id="node5" class="node"><title>Node5</title>
<g id="a_node5"><a xlink:href="../../df/d91/cipconnectionobject_8c.html#a73b6fcd755b28c09a7fe893ba573d934" target="_top" xlink:title="ConnectionObjectIsTypeNon\lLOIOConnection">
<polygon fill="none" stroke="black" points="249.5,-0 249.5,-30 392.5,-30 392.5,-0 249.5,-0"/>
<text text-anchor="start" x="257.5" y="-18" font-family="Helvetica,sans-Serif" font-size="10.00">ConnectionObjectIsTypeNon</text>
<text text-anchor="middle" x="321" y="-7" font-family="Helvetica,sans-Serif" font-size="10.00">LOIOConnection</text>
</a>
</g>
</g>
<!-- Node1&#45;&gt;Node5 -->
<g id="edge4" class="edge"><title>Node1&#45;&gt;Node5</title>
<path fill="none" stroke="midnightblue" d="M141.473,-49.4527C170.077,-43.9325 206.764,-36.8526 239.432,-30.5482"/>
<polygon fill="midnightblue" stroke="midnightblue" points="240.272,-33.9507 249.428,-28.6191 238.946,-27.0775 240.272,-33.9507"/>
</g>
<!-- Node4 -->
<g id="node4" class="node"><title>Node4</title>
<g id="a_node4"><a xlink:href="../../df/d91/cipconnectionobject_8c.html#a0da85deed56477da3ec500cec51aa46e" target="_top" xlink:title="ConnectionObjectGetConnectionType">
<polygon fill="none" stroke="black" points="460,-49.5 460,-68.5 642,-68.5 642,-49.5 460,-49.5"/>
<text text-anchor="middle" x="551" y="-56.5" font-family="Helvetica,sans-Serif" font-size="10.00">ConnectionObjectGetConnectionType</text>
</a>
</g>
</g>
<!-- Node3&#45;&gt;Node4 -->
<g id="edge3" class="edge"><title>Node3&#45;&gt;Node4</title>
<path fill="none" stroke="midnightblue" d="M424.329,-59C432.745,-59 441.247,-59 449.649,-59"/>
<polygon fill="midnightblue" stroke="midnightblue" points="449.835,-62.5001 459.835,-59 449.835,-55.5001 449.835,-62.5001"/>
</g>
</g>
</svg>
