<?xml version="1.0" encoding="UTF-8" standalone="no"?>
<!DOCTYPE svg PUBLIC "-//W3C//DTD SVG 1.1//EN"
 "http://www.w3.org/Graphics/SVG/1.1/DTD/svg11.dtd">
<!-- Generated by graphviz version 2.36.0 (20140111.2315)
 -->
<!-- Title: ConnectionObjectGetTransportClassTriggerTransportClass Pages: 1 -->
<!--zoomable 442 -->
<svg id="main" version="1.1" xmlns="http://www.w3.org/2000/svg" xmlns:xlink="http://www.w3.org/1999/xlink" xml:space="preserve" onload="init(evt)">
<style type="text/css"><![CDATA[
.edge:hover path { stroke: red; }
.edge:hover polygon { stroke: red; fill: red; }
]]></style>
<script type="text/javascript"><![CDATA[
var edges = document.getElementsByTagName('g');
if (edges && edges.length) {
  for (var i=0;i<edges.length;i++) {
    if (edges[i].id.substr(0,4)=='edge') {
      edges[i].setAttribute('class','edge');
    }
  }
}
]]></script>
        <defs>
                <circle id="rim" cx="0" cy="0" r="7"/>
                <circle id="rim2" cx="0" cy="0" r="3.5"/>
                <g id="zoomPlus">
                        <use xlink:href="#rim" fill="#404040">
                                <set attributeName="fill" to="#808080" begin="zoomplus.mouseover" end="zoomplus.mouseout"/>
                        </use>
                        <path d="M-4,0h8M0,-4v8" fill="none" stroke="white" stroke-width="1.5" pointer-events="none"/>
                </g>
                <g id="zoomMin">
                        <use xlink:href="#rim" fill="#404040">
                                <set attributeName="fill" to="#808080" begin="zoomminus.mouseover" end="zoomminus.mouseout"/>
                        </use>
                        <path d="M-4,0h8" fill="none" stroke="white" stroke-width="1.5" pointer-events="none"/>
                </g>
                <g id="dirArrow">
                        <path fill="none" stroke="white" stroke-width="1.5" d="M0,-3.0v7 M-2.5,-0.5L0,-3.0L2.5,-0.5"/>
                </g>
               <g id="resetDef">
                       <use xlink:href="#rim2" fill="#404040">
                               <set attributeName="fill" to="#808080" begin="reset.mouseover" end="reset.mouseout"/>
                       </use>
               </g>
        </defs>

<script type="text/javascript">
var viewWidth = 1614;
var viewHeight = 442;
var sectionId = 'dynsection-22';
</script>
<script xlink:href="../../svgpan.js"/>
<svg id="graph" class="graph">
<g id="viewport">
<title>ConnectionObjectGetTransportClassTriggerTransportClass</title>
<!-- Node1 -->
<g id="node1" class="node"><title>Node1</title>
<polygon fill="#bfbfbf" stroke="black" points="0,-158 0,-188 152,-188 152,-158 0,-158"/>
<text text-anchor="start" x="8" y="-176" font-family="Helvetica,sans-Serif" font-size="10.00">ConnectionObjectGetTransport</text>
<text text-anchor="middle" x="76" y="-165" font-family="Helvetica,sans-Serif" font-size="10.00">ClassTriggerTransportClass</text>
</g>
<!-- Node2 -->
<g id="node2" class="node"><title>Node2</title>
<g id="a_node2"><a xlink:href="../../d7/df9/encap_8h.html#aef8228e92ac17473e762d8144daca74e" target="_top" xlink:title="CloseClass3ConnectionBased\lOnSession">
<polygon fill="none" stroke="black" points="188,-322 188,-352 338,-352 338,-322 188,-322"/>
<text text-anchor="start" x="196" y="-340" font-family="Helvetica,sans-Serif" font-size="10.00">CloseClass3ConnectionBased</text>
<text text-anchor="middle" x="263" y="-329" font-family="Helvetica,sans-Serif" font-size="10.00">OnSession</text>
</a>
</g>
</g>
<!-- Node1&#45;&gt;Node2 -->
<g id="edge1" class="edge"><title>Node1&#45;&gt;Node2</title>
<path fill="none" stroke="midnightblue" d="M101.665,-194.866C139.801,-228.672 212.099,-292.763 244.969,-321.902"/>
<polygon fill="midnightblue" stroke="midnightblue" points="103.878,-192.149 94.0728,-188.135 99.234,-197.387 103.878,-192.149"/>
</g>
<!-- Node17 -->
<g id="node17" class="node"><title>Node17</title>
<g id="a_node17"><a xlink:href="../../d2/da3/cipconnectionmanager_8h.html#a9367d6d6edfd5bd276ead18619f4d74e" target="_top" xlink:title="Close the given connection. ">
<polygon fill="none" stroke="black" points="217,-87.5 217,-106.5 309,-106.5 309,-87.5 217,-87.5"/>
<text text-anchor="middle" x="263" y="-94.5" font-family="Helvetica,sans-Serif" font-size="10.00">CloseConnection</text>
</a>
</g>
</g>
<!-- Node1&#45;&gt;Node17 -->
<g id="edge21" class="edge"><title>Node1&#45;&gt;Node17</title>
<path fill="none" stroke="midnightblue" d="M115.963,-153.293C137.016,-143.016 163.624,-130.619 188,-121 201.443,-115.695 216.576,-110.632 229.638,-106.535"/>
<polygon fill="midnightblue" stroke="midnightblue" points="114.135,-150.291 106.709,-157.848 117.226,-156.572 114.135,-150.291"/>
</g>
<!-- Node20 -->
<g id="node20" class="node"><title>Node20</title>
<g id="a_node20"><a xlink:href="../../df/d03/cipioconnection_8c.html#a73bfd5fa3bc96e11219d0b24d70b88c7" target="_top" xlink:title="HandleReceivedIoConnectionData">
<polygon fill="none" stroke="black" points="768.5,-239.5 768.5,-258.5 935.5,-258.5 935.5,-239.5 768.5,-239.5"/>
<text text-anchor="middle" x="852" y="-246.5" font-family="Helvetica,sans-Serif" font-size="10.00">HandleReceivedIoConnectionData</text>
</a>
</g>
</g>
<!-- Node1&#45;&gt;Node20 -->
<g id="edge26" class="edge"><title>Node1&#45;&gt;Node20</title>
<path fill="none" stroke="midnightblue" d="M127.67,-191.18C146.417,-197.32 167.981,-203.7 188,-208 393.209,-252.08 641.738,-254.206 768.272,-251.753"/>
<polygon fill="midnightblue" stroke="midnightblue" points="128.739,-187.847 118.145,-188.004 126.524,-194.488 128.739,-187.847"/>
</g>
<!-- Node21 -->
<g id="node21" class="node"><title>Node21</title>
<g id="a_node21"><a xlink:href="../../d5/d35/cipconnectionmanager_8c.html#ad7b34359aea58ef8d4e77008ea53098f" target="_top" xlink:title="Parse the connection path of a forward open request. ">
<polygon fill="none" stroke="black" points="207,-27.5 207,-46.5 319,-46.5 319,-27.5 207,-27.5"/>
<text text-anchor="middle" x="263" y="-34.5" font-family="Helvetica,sans-Serif" font-size="10.00">ParseConnectionPath</text>
</a>
</g>
</g>
<!-- Node1&#45;&gt;Node21 -->
<g id="edge28" class="edge"><title>Node1&#45;&gt;Node21</title>
<path fill="none" stroke="midnightblue" d="M100.133,-150.765C121.84,-130.508 155.712,-100.419 188,-78 205.493,-65.8537 226.91,-54.3134 242.194,-46.5894"/>
<polygon fill="midnightblue" stroke="midnightblue" points="97.5937,-148.348 92.7113,-157.751 102.392,-153.445 97.5937,-148.348"/>
</g>
<!-- Node23 -->
<g id="node23" class="node"><title>Node23</title>
<g id="a_node23"><a xlink:href="../../df/d03/cipioconnection_8c.html#a20f1bc1c4cc4470cf371f94d51814de2" target="_top" xlink:title="Send the data from the produced CIP Object of the connection via the socket of the connection object ...">
<polygon fill="none" stroke="black" points="403.5,-201.5 403.5,-220.5 510.5,-220.5 510.5,-201.5 403.5,-201.5"/>
<text text-anchor="middle" x="457" y="-208.5" font-family="Helvetica,sans-Serif" font-size="10.00">SendConnectedData</text>
</a>
</g>
</g>
<!-- Node1&#45;&gt;Node23 -->
<g id="edge30" class="edge"><title>Node1&#45;&gt;Node23</title>
<path fill="none" stroke="midnightblue" d="M162.336,-184.08C171,-185.11 179.672,-186.102 188,-187 262.66,-195.049 349.229,-202.452 403.313,-206.848"/>
<polygon fill="midnightblue" stroke="midnightblue" points="162.537,-180.579 152.19,-182.857 161.699,-187.528 162.537,-180.579"/>
</g>
<!-- Node24 -->
<g id="node24" class="node"><title>Node24</title>
<g id="a_node24"><a xlink:href="../../df/d03/cipioconnection_8c.html#ac00a39ab755db54e4abf917618ff9849" target="_top" xlink:title="SetupIoConnectionOriginator\lToTargetConnectionPoint">
<polygon fill="none" stroke="black" points="974,-172 974,-202 1116,-202 1116,-172 974,-172"/>
<text text-anchor="start" x="982" y="-190" font-family="Helvetica,sans-Serif" font-size="10.00">SetupIoConnectionOriginator</text>
<text text-anchor="middle" x="1045" y="-179" font-family="Helvetica,sans-Serif" font-size="10.00">ToTargetConnectionPoint</text>
</a>
</g>
</g>
<!-- Node1&#45;&gt;Node24 -->
<g id="edge32" class="edge"><title>Node1&#45;&gt;Node24</title>
<path fill="none" stroke="midnightblue" d="M162.25,-173C239.063,-173 355.088,-173 456,-173 456,-173 456,-173 655,-173 766.504,-173 895.871,-178.816 973.754,-182.951"/>
<polygon fill="midnightblue" stroke="midnightblue" points="162.146,-169.5 152.146,-173 162.146,-176.5 162.146,-169.5"/>
</g>
<!-- Node25 -->
<g id="node25" class="node"><title>Node25</title>
<g id="a_node25"><a xlink:href="../../df/d03/cipioconnection_8c.html#a4efa3b0cf11b363c8c5f4f8c8070b43f" target="_top" xlink:title="SetupIoConnectionTargetTo\lOriginatorConnectionPoint">
<polygon fill="none" stroke="black" points="975.5,-123 975.5,-153 1114.5,-153 1114.5,-123 975.5,-123"/>
<text text-anchor="start" x="983.5" y="-141" font-family="Helvetica,sans-Serif" font-size="10.00">SetupIoConnectionTargetTo</text>
<text text-anchor="middle" x="1045" y="-130" font-family="Helvetica,sans-Serif" font-size="10.00">OriginatorConnectionPoint</text>
</a>
</g>
</g>
<!-- Node1&#45;&gt;Node25 -->
<g id="edge34" class="edge"><title>Node1&#45;&gt;Node25</title>
<path fill="none" stroke="midnightblue" d="M162.365,-159.522C239.019,-148.596 354.741,-135 456,-135 456,-135 456,-135 655,-135 767.28,-135 897.784,-136.265 975.489,-137.152"/>
<polygon fill="midnightblue" stroke="midnightblue" points="161.679,-156.085 152.281,-160.977 162.678,-163.013 161.679,-156.085"/>
</g>
<!-- Node3 -->
<g id="node3" class="node"><title>Node3</title>
<g id="a_node3"><a xlink:href="../../d2/dbd/encap_8c.html#a601cd19c88f03fd742f098a1bf5b9e85" target="_top" xlink:title="HandleReceivedUnregister\lSessionCommand">
<polygon fill="none" stroke="black" points="390,-404 390,-434 524,-434 524,-404 390,-404"/>
<text text-anchor="start" x="398" y="-422" font-family="Helvetica,sans-Serif" font-size="10.00">HandleReceivedUnregister</text>
<text text-anchor="middle" x="457" y="-411" font-family="Helvetica,sans-Serif" font-size="10.00">SessionCommand</text>
</a>
</g>
</g>
<!-- Node2&#45;&gt;Node3 -->
<g id="edge2" class="edge"><title>Node2&#45;&gt;Node3</title>
<path fill="none" stroke="midnightblue" d="M303.183,-356.585C324.011,-366.725 350.172,-379.033 374,-389 386.307,-394.148 399.842,-399.301 412.307,-403.848"/>
<polygon fill="midnightblue" stroke="midnightblue" points="304.535,-353.35 294.015,-352.095 301.456,-359.637 304.535,-353.35"/>
</g>
<!-- Node8 -->
<g id="node8" class="node"><title>Node8</title>
<g id="a_node8"><a xlink:href="../../d2/dc9/group__CIP__API.html#ga00a23c1c86472edf2ed679089ae8efc1" target="_top" xlink:title="Inform the encapsulation layer that the remote host has closed the connection. ">
<polygon fill="none" stroke="black" points="418.5,-286.5 418.5,-305.5 495.5,-305.5 495.5,-286.5 418.5,-286.5"/>
<text text-anchor="middle" x="457" y="-293.5" font-family="Helvetica,sans-Serif" font-size="10.00">CloseSession</text>
</a>
</g>
</g>
<!-- Node2&#45;&gt;Node8 -->
<g id="edge7" class="edge"><title>Node2&#45;&gt;Node8</title>
<path fill="none" stroke="midnightblue" d="M344.187,-319.877C369.956,-314.374 397.288,-308.538 418.478,-304.012"/>
<polygon fill="midnightblue" stroke="midnightblue" points="343.452,-316.455 334.403,-321.966 344.914,-323.3 343.452,-316.455"/>
</g>
<!-- Node15 -->
<g id="node15" class="node"><title>Node15</title>
<g id="a_node15"><a xlink:href="../../d7/df9/encap_8h.html#a86c98c2665f4c058e9c5afb60690a81b" target="_top" xlink:title="RemoveSession">
<polygon fill="none" stroke="black" points="609.5,-365.5 609.5,-384.5 698.5,-384.5 698.5,-365.5 609.5,-365.5"/>
<text text-anchor="middle" x="654" y="-372.5" font-family="Helvetica,sans-Serif" font-size="10.00">RemoveSession</text>
</a>
</g>
</g>
<!-- Node2&#45;&gt;Node15 -->
<g id="edge15" class="edge"><title>Node2&#45;&gt;Node15</title>
<path fill="none" stroke="midnightblue" d="M348.348,-348.091C357.006,-349.123 365.676,-350.113 374,-351 457.149,-359.864 554.512,-367.651 609.454,-371.807"/>
<polygon fill="midnightblue" stroke="midnightblue" points="348.559,-344.591 338.21,-346.864 347.717,-351.54 348.559,-344.591"/>
</g>
<!-- Node16 -->
<g id="node16" class="node"><title>Node16</title>
<g id="a_node16"><a xlink:href="../../db/d4f/generic__networkhandler_8c.html#ab561fc66fe48a0cf95be3d152b297dd9" target="_top" xlink:title="CheckEncapsulationInactivity">
<polygon fill="none" stroke="black" points="779,-327.5 779,-346.5 925,-346.5 925,-327.5 779,-327.5"/>
<text text-anchor="middle" x="852" y="-334.5" font-family="Helvetica,sans-Serif" font-size="10.00">CheckEncapsulationInactivity</text>
</a>
</g>
</g>
<!-- Node2&#45;&gt;Node16 -->
<g id="edge20" class="edge"><title>Node2&#45;&gt;Node16</title>
<path fill="none" stroke="midnightblue" d="M348.258,-337C463.821,-337 669.544,-337 778.555,-337"/>
<polygon fill="midnightblue" stroke="midnightblue" points="348.047,-333.5 338.047,-337 348.047,-340.5 348.047,-333.5"/>
</g>
<!-- Node4 -->
<g id="node4" class="node"><title>Node4</title>
<g id="a_node4"><a xlink:href="../../d2/dc9/group__CIP__API.html#ga16eaeeb12ba23b5a75c8e5902a33d70a" target="_top" xlink:title="Notify the encapsulation layer that an explicit message has been received via TCP. ">
<polygon fill="none" stroke="black" points="576,-406.5 576,-425.5 732,-425.5 732,-406.5 576,-406.5"/>
<text text-anchor="middle" x="654" y="-413.5" font-family="Helvetica,sans-Serif" font-size="10.00">HandleReceivedExplictTcpData</text>
</a>
</g>
</g>
<!-- Node3&#45;&gt;Node4 -->
<g id="edge3" class="edge"><title>Node3&#45;&gt;Node4</title>
<path fill="none" stroke="midnightblue" d="M534.336,-417.826C548.003,-417.615 562.253,-417.396 575.94,-417.186"/>
<polygon fill="midnightblue" stroke="midnightblue" points="533.963,-414.331 524.018,-417.984 534.071,-421.33 533.963,-414.331"/>
</g>
<!-- Node5 -->
<g id="node5" class="node"><title>Node5</title>
<g id="a_node5"><a xlink:href="../../db/d4f/generic__networkhandler_8c.html#aca5593b7dd39d7a7b437999a367102d6" target="_top" xlink:title="Handles data on an established TCP connection, processed connection is given by socket. ">
<polygon fill="none" stroke="black" points="788,-403.5 788,-422.5 916,-422.5 916,-403.5 788,-403.5"/>
<text text-anchor="middle" x="852" y="-410.5" font-family="Helvetica,sans-Serif" font-size="10.00">HandleDataOnTcpSocket</text>
</a>
</g>
</g>
<!-- Node4&#45;&gt;Node5 -->
<g id="edge4" class="edge"><title>Node4&#45;&gt;Node5</title>
<path fill="none" stroke="midnightblue" d="M742.199,-414.665C757.544,-414.43 773.246,-414.19 787.777,-413.968"/>
<polygon fill="midnightblue" stroke="midnightblue" points="742.128,-411.166 732.183,-414.819 742.235,-418.165 742.128,-411.166"/>
</g>
<!-- Node6 -->
<g id="node6" class="node"><title>Node6</title>
<g id="a_node6"><a xlink:href="../../da/dc2/generic__networkhandler_8h.html#a2f01af81d3e5018d9980e2bc28c9078a" target="_top" xlink:title="NetworkHandlerProcessOnce">
<polygon fill="none" stroke="black" points="972,-346.5 972,-365.5 1118,-365.5 1118,-346.5 972,-346.5"/>
<text text-anchor="middle" x="1045" y="-353.5" font-family="Helvetica,sans-Serif" font-size="10.00">NetworkHandlerProcessOnce</text>
</a>
</g>
</g>
<!-- Node5&#45;&gt;Node6 -->
<g id="edge5" class="edge"><title>Node5&#45;&gt;Node6</title>
<path fill="none" stroke="midnightblue" d="M896.473,-400.563C909.222,-396.88 923.18,-392.812 936,-389 962.122,-381.233 991.717,-372.172 1013.31,-365.511"/>
<polygon fill="midnightblue" stroke="midnightblue" points="895.192,-397.29 886.553,-403.422 897.131,-404.016 895.192,-397.29"/>
</g>
<!-- Node7 -->
<g id="node7" class="node"><title>Node7</title>
<g id="a_node7"><a xlink:href="../../d9/dfb/POSIX_2main_8c.html#ad338a7dbc41dc40bcecd0479377ef207" target="_top" xlink:title="main">
<polygon fill="none" stroke="black" points="1568,-254.5 1568,-273.5 1606,-273.5 1606,-254.5 1568,-254.5"/>
<text text-anchor="middle" x="1587" y="-261.5" font-family="Helvetica,sans-Serif" font-size="10.00">main</text>
</a>
</g>
</g>
<!-- Node6&#45;&gt;Node7 -->
<g id="edge6" class="edge"><title>Node6&#45;&gt;Node7</title>
<path fill="none" stroke="midnightblue" d="M1112.11,-344.737C1235.78,-323.668 1496.08,-279.319 1567.52,-267.148"/>
<polygon fill="midnightblue" stroke="midnightblue" points="1111.28,-341.328 1102.01,-346.458 1112.45,-348.229 1111.28,-341.328"/>
</g>
<!-- Node9 -->
<g id="node9" class="node"><title>Node9</title>
<g id="a_node9"><a xlink:href="../../d7/df9/encap_8h.html#a0101714be726ab1b21125b6a82ac7a56" target="_top" xlink:title="CloseEncapsulationSession\lBySockAddr">
<polygon fill="none" stroke="black" points="584.5,-278 584.5,-308 723.5,-308 723.5,-278 584.5,-278"/>
<text text-anchor="start" x="592.5" y="-296" font-family="Helvetica,sans-Serif" font-size="10.00">CloseEncapsulationSession</text>
<text text-anchor="middle" x="654" y="-285" font-family="Helvetica,sans-Serif" font-size="10.00">BySockAddr</text>
</a>
</g>
</g>
<!-- Node8&#45;&gt;Node9 -->
<g id="edge8" class="edge"><title>Node8&#45;&gt;Node9</title>
<path fill="none" stroke="midnightblue" d="M505.718,-295.266C529.366,-294.902 558.352,-294.456 584.336,-294.056"/>
<polygon fill="midnightblue" stroke="midnightblue" points="505.543,-291.768 495.598,-295.422 505.651,-298.767 505.543,-291.768"/>
</g>
<!-- Node10 -->
<g id="node10" class="node"><title>Node10</title>
<g id="a_node10"><a xlink:href="../../df/d03/cipioconnection_8c.html#a7e4923f4b027d489d9933b52f6fd7007" target="_top" xlink:title="HandleIoConnectionTimeOut">
<polygon fill="none" stroke="black" points="780.5,-280.5 780.5,-299.5 923.5,-299.5 923.5,-280.5 780.5,-280.5"/>
<text text-anchor="middle" x="852" y="-287.5" font-family="Helvetica,sans-Serif" font-size="10.00">HandleIoConnectionTimeOut</text>
</a>
</g>
</g>
<!-- Node9&#45;&gt;Node10 -->
<g id="edge9" class="edge"><title>Node9&#45;&gt;Node10</title>
<path fill="none" stroke="midnightblue" d="M733.62,-291.797C749.117,-291.559 765.286,-291.312 780.495,-291.079"/>
<polygon fill="midnightblue" stroke="midnightblue" points="733.497,-288.298 723.551,-291.951 733.604,-295.297 733.497,-288.298"/>
</g>
<!-- Node11 -->
<g id="node11" class="node"><title>Node11</title>
<g id="a_node11"><a xlink:href="../../df/d03/cipioconnection_8c.html#ab3282f146a3ea91c90cf14c32206ee8c" target="_top" xlink:title="SetIoConnectionCallbacks">
<polygon fill="none" stroke="black" points="978.5,-230.5 978.5,-249.5 1111.5,-249.5 1111.5,-230.5 978.5,-230.5"/>
<text text-anchor="middle" x="1045" y="-237.5" font-family="Helvetica,sans-Serif" font-size="10.00">SetIoConnectionCallbacks</text>
</a>
</g>
</g>
<!-- Node10&#45;&gt;Node11 -->
<g id="edge10" class="edge"><title>Node10&#45;&gt;Node11</title>
<path fill="none" stroke="midnightblue" d="M899.308,-277.877C932.53,-269.18 976.678,-257.623 1007.44,-249.572"/>
<polygon fill="midnightblue" stroke="midnightblue" points="898.163,-274.559 889.375,-280.478 899.936,-281.331 898.163,-274.559"/>
</g>
<!-- Node12 -->
<g id="node12" class="node"><title>Node12</title>
<g id="a_node12"><a xlink:href="../../de/d45/cipioconnection_8h.html#a43e270b3f9b9f6296b12285c320c95aa" target="_top" xlink:title="Setup all data in order to establish an IO connection. ">
<polygon fill="none" stroke="black" points="1154.5,-177.5 1154.5,-196.5 1269.5,-196.5 1269.5,-177.5 1154.5,-177.5"/>
<text text-anchor="middle" x="1212" y="-184.5" font-family="Helvetica,sans-Serif" font-size="10.00">EstablishIoConnection</text>
</a>
</g>
</g>
<!-- Node11&#45;&gt;Node12 -->
<g id="edge11" class="edge"><title>Node11&#45;&gt;Node12</title>
<path fill="none" stroke="midnightblue" d="M1085.45,-227.329C1114.91,-217.865 1154.55,-205.134 1181.34,-196.526"/>
<polygon fill="midnightblue" stroke="midnightblue" points="1084.33,-224.011 1075.88,-230.402 1086.47,-230.676 1084.33,-224.011"/>
</g>
<!-- Node13 -->
<g id="node13" class="node"><title>Node13</title>
<g id="a_node13"><a xlink:href="../../d2/da3/cipconnectionmanager_8h.html#a5ab0de6894d23e8fe84a6b46797c2212" target="_top" xlink:title="Initialize the data of the connection manager object. ">
<polygon fill="none" stroke="black" points="1306.5,-177.5 1306.5,-196.5 1423.5,-196.5 1423.5,-177.5 1306.5,-177.5"/>
<text text-anchor="middle" x="1365" y="-184.5" font-family="Helvetica,sans-Serif" font-size="10.00">ConnectionManagerInit</text>
</a>
</g>
</g>
<!-- Node12&#45;&gt;Node13 -->
<g id="edge12" class="edge"><title>Node12&#45;&gt;Node13</title>
<path fill="none" stroke="midnightblue" d="M1279.88,-187C1288.68,-187 1297.64,-187 1306.27,-187"/>
<polygon fill="midnightblue" stroke="midnightblue" points="1279.66,-183.5 1269.66,-187 1279.66,-190.5 1279.66,-183.5"/>
</g>
<!-- Node14 -->
<g id="node14" class="node"><title>Node14</title>
<g id="a_node14"><a xlink:href="../../d2/dc9/group__CIP__API.html#ga5d4979945d124e28668b264c3823db1c" target="_top" xlink:title="Initialize and setup the CIP&#45;stack. ">
<polygon fill="none" stroke="black" points="1460.5,-203.5 1460.5,-222.5 1531.5,-222.5 1531.5,-203.5 1460.5,-203.5"/>
<text text-anchor="middle" x="1496" y="-210.5" font-family="Helvetica,sans-Serif" font-size="10.00">CipStackInit</text>
</a>
</g>
</g>
<!-- Node13&#45;&gt;Node14 -->
<g id="edge13" class="edge"><title>Node13&#45;&gt;Node14</title>
<path fill="none" stroke="midnightblue" d="M1423.29,-198.546C1435.88,-201.084 1448.84,-203.697 1460.23,-205.992"/>
<polygon fill="midnightblue" stroke="midnightblue" points="1423.8,-195.079 1413.3,-196.534 1422.41,-201.941 1423.8,-195.079"/>
</g>
<!-- Node14&#45;&gt;Node7 -->
<g id="edge14" class="edge"><title>Node14&#45;&gt;Node7</title>
<path fill="none" stroke="midnightblue" d="M1522.56,-227.649C1537.6,-236.264 1556.18,-246.911 1569.33,-254.45"/>
<polygon fill="midnightblue" stroke="midnightblue" points="1524.16,-224.528 1513.74,-222.593 1520.68,-230.601 1524.16,-224.528"/>
</g>
<!-- Node15&#45;&gt;Node5 -->
<g id="edge17" class="edge"><title>Node15&#45;&gt;Node5</title>
<path fill="none" stroke="midnightblue" d="M708.982,-385.466C738.076,-391.107 773.704,-398.014 801.996,-403.499"/>
<polygon fill="midnightblue" stroke="midnightblue" points="709.47,-381.995 698.986,-383.528 708.137,-388.867 709.47,-381.995"/>
</g>
<!-- Node15&#45;&gt;Node6 -->
<g id="edge16" class="edge"><title>Node15&#45;&gt;Node6</title>
<path fill="none" stroke="midnightblue" d="M709.007,-372.362C777.489,-369.017 895.792,-363.239 971.925,-359.52"/>
<polygon fill="midnightblue" stroke="midnightblue" points="708.684,-368.874 698.867,-372.857 709.026,-375.865 708.684,-368.874"/>
</g>
<!-- Node15&#45;&gt;Node16 -->
<g id="edge18" class="edge"><title>Node15&#45;&gt;Node16</title>
<path fill="none" stroke="midnightblue" d="M708.982,-364.534C738.076,-358.893 773.704,-351.986 801.996,-346.501"/>
<polygon fill="midnightblue" stroke="midnightblue" points="708.137,-361.133 698.986,-366.472 709.47,-368.005 708.137,-361.133"/>
</g>
<!-- Node16&#45;&gt;Node6 -->
<g id="edge19" class="edge"><title>Node16&#45;&gt;Node6</title>
<path fill="none" stroke="midnightblue" d="M935.295,-345.186C947.404,-346.391 959.802,-347.624 971.689,-348.807"/>
<polygon fill="midnightblue" stroke="midnightblue" points="935.506,-341.69 925.209,-344.183 934.813,-348.656 935.506,-341.69"/>
</g>
<!-- Node18 -->
<g id="node18" class="node"><title>Node18</title>
<g id="a_node18"><a xlink:href="../../dc/d93/cipclass3connection_8c.html#a6053ab7004c1419bd80faf9aca54bfd3" target="_top" xlink:title="Class3ConnectionTimeoutHandler">
<polygon fill="none" stroke="black" points="374,-49.5 374,-68.5 540,-68.5 540,-49.5 374,-49.5"/>
<text text-anchor="middle" x="457" y="-56.5" font-family="Helvetica,sans-Serif" font-size="10.00">Class3ConnectionTimeoutHandler</text>
</a>
</g>
</g>
<!-- Node17&#45;&gt;Node18 -->
<g id="edge22" class="edge"><title>Node17&#45;&gt;Node18</title>
<path fill="none" stroke="midnightblue" d="M319.068,-86.101C347.123,-80.5487 380.915,-73.8606 407.91,-68.5178"/>
<polygon fill="midnightblue" stroke="midnightblue" points="318.146,-82.7157 309.015,-88.0907 319.505,-89.5825 318.146,-82.7157"/>
</g>
<!-- Node19 -->
<g id="node19" class="node"><title>Node19</title>
<g id="a_node19"><a xlink:href="../../d2/d11/cipclass3connection_8h.html#a45bd741b44137164c07a6ce09a7a9a9d" target="_top" xlink:title="Check if Class3 connection is available and if yes setup all data. ">
<polygon fill="none" stroke="black" points="585.5,-84.5 585.5,-103.5 722.5,-103.5 722.5,-84.5 585.5,-84.5"/>
<text text-anchor="middle" x="654" y="-91.5" font-family="Helvetica,sans-Serif" font-size="10.00">EstablishClass3Connection</text>
</a>
</g>
</g>
<!-- Node17&#45;&gt;Node19 -->
<g id="edge25" class="edge"><title>Node17&#45;&gt;Node19</title>
<path fill="none" stroke="midnightblue" d="M319.374,-96.573C389.39,-96.033 509.876,-95.1038 585.29,-94.5222"/>
<polygon fill="midnightblue" stroke="midnightblue" points="318.976,-93.0758 309.003,-96.6529 319.03,-100.076 318.976,-93.0758"/>
</g>
<!-- Node18&#45;&gt;Node19 -->
<g id="edge23" class="edge"><title>Node18&#45;&gt;Node19</title>
<path fill="none" stroke="midnightblue" d="M520.971,-70.3026C546.472,-74.8796 575.592,-80.1062 599.984,-84.4842"/>
<polygon fill="midnightblue" stroke="midnightblue" points="521.488,-66.8394 511.027,-68.5177 520.251,-73.7293 521.488,-66.8394"/>
</g>
<!-- Node19&#45;&gt;Node13 -->
<g id="edge24" class="edge"><title>Node19&#45;&gt;Node13</title>
<path fill="none" stroke="midnightblue" d="M732.755,-91.2767C825.246,-89.3956 983.988,-90.4636 1118,-113 1201.34,-127.016 1296.09,-160.83 1339.7,-177.451"/>
<polygon fill="midnightblue" stroke="midnightblue" points="732.558,-87.7801 722.638,-91.4997 732.713,-94.7784 732.558,-87.7801"/>
</g>
<!-- Node20&#45;&gt;Node11 -->
<g id="edge27" class="edge"><title>Node20&#45;&gt;Node11</title>
<path fill="none" stroke="midnightblue" d="M945.778,-244.628C956.825,-244.108 967.92,-243.585 978.471,-243.088"/>
<polygon fill="midnightblue" stroke="midnightblue" points="945.489,-241.138 935.665,-245.105 945.818,-248.13 945.489,-241.138"/>
</g>
<!-- Node22 -->
<g id="node22" class="node"><title>Node22</title>
<g id="a_node22"><a xlink:href="../../d5/d35/cipconnectionmanager_8c.html#af379a4b383c738a07d8e1ab0a4ac7510" target="_top" xlink:title="Handles a Non Null Non Matching Forward Open Request. ">
<polygon fill="none" stroke="black" points="387,-0 387,-30 527,-30 527,-0 387,-0"/>
<text text-anchor="start" x="395" y="-18" font-family="Helvetica,sans-Serif" font-size="10.00">HandleNonNullNonMatching</text>
<text text-anchor="middle" x="457" y="-7" font-family="Helvetica,sans-Serif" font-size="10.00">ForwardOpenRequest</text>
</a>
</g>
</g>
<!-- Node21&#45;&gt;Node22 -->
<g id="edge29" class="edge"><title>Node21&#45;&gt;Node22</title>
<path fill="none" stroke="midnightblue" d="M329.16,-29.5338C347.769,-27.4014 368.109,-25.0708 386.943,-22.9128"/>
<polygon fill="midnightblue" stroke="midnightblue" points="328.556,-26.08 319.019,-30.6957 329.353,-33.0345 328.556,-26.08"/>
</g>
<!-- Node23&#45;&gt;Node11 -->
<g id="edge31" class="edge"><title>Node23&#45;&gt;Node11</title>
<path fill="none" stroke="midnightblue" d="M520.94,-212.447C612.407,-214.79 787.381,-220.173 936,-230 949.716,-230.907 964.392,-232.11 978.364,-233.366"/>
<polygon fill="midnightblue" stroke="midnightblue" points="520.828,-208.943 510.743,-212.19 520.651,-215.941 520.828,-208.943"/>
</g>
<!-- Node24&#45;&gt;Node12 -->
<g id="edge33" class="edge"><title>Node24&#45;&gt;Node12</title>
<path fill="none" stroke="midnightblue" d="M1126.63,-187C1136.05,-187 1145.5,-187 1154.48,-187"/>
<polygon fill="midnightblue" stroke="midnightblue" points="1126.45,-183.5 1116.45,-187 1126.45,-190.5 1126.45,-183.5"/>
</g>
<!-- Node25&#45;&gt;Node12 -->
<g id="edge35" class="edge"><title>Node25&#45;&gt;Node12</title>
<path fill="none" stroke="midnightblue" d="M1106.76,-156.043C1131.16,-163.289 1158.29,-171.347 1178.76,-177.425"/>
<polygon fill="midnightblue" stroke="midnightblue" points="1107.43,-152.593 1096.85,-153.101 1105.44,-159.304 1107.43,-152.593"/>
</g>
</g>
</svg>
        <g id="navigator" transform="translate(0 0)" fill="#404254">
                <rect fill="#f2f5e9" fill-opacity="0.5" stroke="#606060" stroke-width=".5" x="0" y="0" width="60" height="60"/>
                <use id="zoomplus" xlink:href="#zoomPlus" x="17" y="9" onmousedown="handleZoom(evt,'in')"/>
                <use id="zoomminus" xlink:href="#zoomMin" x="42" y="9" onmousedown="handleZoom(evt,'out')"/>
                <use id="reset" xlink:href="#resetDef" x="30" y="36" onmousedown="handleReset()"/>
                <g id="arrowUp" xlink:href="#dirArrow" transform="translate(30 24)" onmousedown="handlePan(0,-1)">
                  <use xlink:href="#rim" fill="#404040">
                        <set attributeName="fill" to="#808080" begin="arrowUp.mouseover" end="arrowUp.mouseout"/>
                  </use>
                  <path fill="none" stroke="white" stroke-width="1.5" d="M0,-3.0v7 M-2.5,-0.5L0,-3.0L2.5,-0.5"/>
                </g>
                <g id="arrowRight" xlink:href="#dirArrow" transform="rotate(90) translate(36 -43)" onmousedown="handlePan(1,0)">
                  <use xlink:href="#rim" fill="#404040">
                        <set attributeName="fill" to="#808080" begin="arrowRight.mouseover" end="arrowRight.mouseout"/>
                  </use>
                  <path fill="none" stroke="white" stroke-width="1.5" d="M0,-3.0v7 M-2.5,-0.5L0,-3.0L2.5,-0.5"/>
                </g>
                <g id="arrowDown" xlink:href="#dirArrow" transform="rotate(180) translate(-30 -48)" onmousedown="handlePan(0,1)">
                  <use xlink:href="#rim" fill="#404040">
                        <set attributeName="fill" to="#808080" begin="arrowDown.mouseover" end="arrowDown.mouseout"/>
                  </use>
                  <path fill="none" stroke="white" stroke-width="1.5" d="M0,-3.0v7 M-2.5,-0.5L0,-3.0L2.5,-0.5"/>
                </g>
                <g id="arrowLeft" xlink:href="#dirArrow" transform="rotate(270) translate(-36 17)" onmousedown="handlePan(-1,0)">
                  <use xlink:href="#rim" fill="#404040">
                        <set attributeName="fill" to="#808080" begin="arrowLeft.mouseover" end="arrowLeft.mouseout"/>
                  </use>
                  <path fill="none" stroke="white" stroke-width="1.5" d="M0,-3.0v7 M-2.5,-0.5L0,-3.0L2.5,-0.5"/>
                </g>
        </g>
        <svg viewBox="0 0 15 15" width="100%" height="30px" preserveAspectRatio="xMaxYMin meet">
         <g id="arrow_out" transform="scale(0.3 0.3)">
          <a xlink:href="cipconnectionobject_8h_a0f3d8e6f21712dbef3fb2e1da42f35ba_icgraph_org.svg" target="_base">
           <rect id="button" ry="5" rx="5" y="6" x="6" height="38" width="38"
                fill="#f2f5e9" fill-opacity="0.5" stroke="#606060" stroke-width="1.0"/>
           <path id="arrow"
             d="M 11.500037,31.436501 C 11.940474,20.09759 22.043105,11.32322 32.158766,21.979434 L 37.068811,17.246167 C 37.068811,17.246167 37.088388,32 37.088388,32 L 22.160133,31.978069 C 22.160133,31.978069 26.997745,27.140456 26.997745,27.140456 C 18.528582,18.264221 13.291696,25.230495 11.500037,31.436501 z"
             style="fill:#404040;"/>
          </a>
         </g>
        </svg>
</svg>
