<?xml version="1.0" encoding="UTF-8" standalone="no"?>
<!DOCTYPE svg PUBLIC "-//W3C//DTD SVG 1.1//EN"
 "http://www.w3.org/Graphics/SVG/1.1/DTD/svg11.dtd">
<!-- Generated by graphviz version 2.26.3 (20100126.1600)
 -->
<!-- Title: G Pages: 1 -->
<!--zoomable 190 -->
<svg id="main" version="1.1" xmlns="http://www.w3.org/2000/svg" xmlns:xlink="http://www.w3.org/1999/xlink" xml:space="preserve" onload="init(evt)">
        <defs>
                <circle id="rim" cx="0" cy="0" r="7"/>
                <circle id="rim2" cx="0" cy="0" r="3.5"/>
                <g id="zoomPlus">
                        <use xlink:href="#rim" fill="#404040">
                                <set attributeName="fill" to="#808080" begin="zoomplus.mouseover" end="zoomplus.mouseout"/>
                        </use>
                        <path d="M-4,0h8M0,-4v8" fill="none" stroke="white" stroke-width="1.5" pointer-events="none"/>
                </g>
                <g id="zoomMin">
                        <use xlink:href="#rim" fill="#404040">
                                <set attributeName="fill" to="#808080" begin="zoomminus.mouseover" end="zoomminus.mouseout"/>
                        </use>
                        <path d="M-4,0h8" fill="none" stroke="white" stroke-width="1.5" pointer-events="none"/>
                </g>
                <g id="dirArrow">
                        <path fill="none" stroke="white" stroke-width="1.5" d="M0,-3.0v7 M-2.5,-0.5L0,-3.0L2.5,-0.5"/>
                </g>
               <g id="resetDef">
                       <use xlink:href="#rim2" fill="#404040">
                               <set attributeName="fill" to="#808080" begin="reset.mouseover" end="reset.mouseout"/>
                       </use>
               </g>
        </defs>

<script type="text/javascript">
var viewWidth = 1338;
var viewHeight = 190;
var sectionId = 'dynsection-32';
</script>
<script xlink:href="../../svgpan.js"/>
<svg id="graph" class="graph">
<g id="viewport">
<title>G</title>
<!-- Node1 -->
<g id="node1" class="node"><title>Node1</title>
<polygon fill="#bfbfbf" stroke="black" points="0.5,-60.5 0.5,-81.5 185.5,-81.5 185.5,-60.5 0.5,-60.5"/>
<text text-anchor="middle" x="93" y="-68.5" font-family="Helvetica,sans-Serif" font-size="10.00">ConnectionObjectIsTypeIOConnection</text>
</g>
<!-- Node2 -->
<g id="node3" class="node"><title>Node2</title>
<a xlink:href="../../d1/dc0/appcontype_8h.html#ac568876f2c5ba2da91a0e62e17e27432" target="_top" xlink:title="Check if there exists already an exclusive owner or listen only connection which produces the input a...">
<polygon fill="none" stroke="black" points="222,-120.5 222,-141.5 418,-141.5 418,-120.5 222,-120.5"/>
<text text-anchor="middle" x="320" y="-128.5" font-family="Helvetica,sans-Serif" font-size="10.00">GetExistingProducerMulticastConnection</text>
</a>
</g>
<!-- Node1&#45;&gt;Node2 -->
<g id="edge2" class="edge"><title>Node1&#45;&gt;Node2</title>
<path fill="none" stroke="midnightblue" d="M142.654,-84.1245C183.953,-95.0405 241.967,-110.374 280.246,-120.492"/>
<polygon fill="midnightblue" stroke="midnightblue" points="143.363,-80.6916 132.8,-81.5199 141.574,-87.4591 143.363,-80.6916"/>
</g>
<!-- Node11 -->
<g id="node22" class="node"><title>Node11</title>
<a xlink:href="../../d1/dc0/appcontype_8h.html#acda34462cc2d60ebb7b48a633bfe3c49" target="_top" xlink:title="check if there exists an producing multicast exclusive owner or listen only connection that should pr...">
<polygon fill="none" stroke="black" points="229,-60.5 229,-81.5 411,-81.5 411,-60.5 229,-60.5"/>
<text text-anchor="middle" x="320" y="-68.5" font-family="Helvetica,sans-Serif" font-size="10.00">GetNextNonControlMasterConnection</text>
</a>
</g>
<!-- Node1&#45;&gt;Node11 -->
<g id="edge22" class="edge"><title>Node1&#45;&gt;Node11</title>
<path fill="none" stroke="midnightblue" d="M195.719,-71C206.729,-71 217.877,-71 228.741,-71"/>
<polygon fill="midnightblue" stroke="midnightblue" points="195.657,-67.5001 185.657,-71 195.657,-74.5001 195.657,-67.5001"/>
</g>
<!-- Node15 -->
<g id="node32" class="node"><title>Node15</title>
<a xlink:href="../../d2/da3/cipconnectionmanager_8h.html#a2ca3eb3dc7fe805b410d849612720b4c" target="_top" xlink:title="IsConnectedOutputAssembly">
<polygon fill="none" stroke="black" points="247.5,-20.5 247.5,-41.5 392.5,-41.5 392.5,-20.5 247.5,-20.5"/>
<text text-anchor="middle" x="320" y="-28.5" font-family="Helvetica,sans-Serif" font-size="10.00">IsConnectedOutputAssembly</text>
</a>
</g>
<!-- Node1&#45;&gt;Node15 -->
<g id="edge34" class="edge"><title>Node1&#45;&gt;Node15</title>
<path fill="none" stroke="midnightblue" d="M162.593,-58.737C193.857,-53.2279 230.375,-46.7929 260.363,-41.5087"/>
<polygon fill="midnightblue" stroke="midnightblue" points="161.882,-55.3081 152.642,-60.4905 163.097,-62.2019 161.882,-55.3081"/>
</g>
<!-- Node3 -->
<g id="node5" class="node"><title>Node3</title>
<a xlink:href="../../d1/dbc/appcontype_8c.html#ae76893528b0e064cf220f6eb19ac5bdf" target="_top" xlink:title="Takes an ConnectionObject and searches and returns an Listen Only Connection based on the ConnectionO...">
<polygon fill="none" stroke="black" points="477,-160.5 477,-181.5 605,-181.5 605,-160.5 477,-160.5"/>
<text text-anchor="middle" x="541" y="-168.5" font-family="Helvetica,sans-Serif" font-size="10.00">GetListenOnlyConnection</text>
</a>
</g>
<!-- Node2&#45;&gt;Node3 -->
<g id="edge4" class="edge"><title>Node2&#45;&gt;Node3</title>
<path fill="none" stroke="midnightblue" d="M388.149,-143.335C418.498,-148.828 453.871,-155.23 482.939,-160.491"/>
<polygon fill="midnightblue" stroke="midnightblue" points="388.529,-139.847 378.065,-141.51 387.282,-146.735 388.529,-139.847"/>
</g>
<!-- Node9 -->
<g id="node17" class="node"><title>Node9</title>
<a xlink:href="../../df/d03/cipioconnection_8c.html#a5dea6fc1be0ed4ecf5d9e4f932d52106" target="_top" xlink:title="OpenProducingMulticastConnection">
<polygon fill="none" stroke="black" points="454.5,-120.5 454.5,-141.5 627.5,-141.5 627.5,-120.5 454.5,-120.5"/>
<text text-anchor="middle" x="541" y="-128.5" font-family="Helvetica,sans-Serif" font-size="10.00">OpenProducingMulticastConnection</text>
</a>
</g>
<!-- Node2&#45;&gt;Node9 -->
<g id="edge16" class="edge"><title>Node2&#45;&gt;Node9</title>
<path fill="none" stroke="midnightblue" d="M428.37,-131C437.034,-131 445.715,-131 454.2,-131"/>
<polygon fill="midnightblue" stroke="midnightblue" points="428.221,-127.5 418.221,-131 428.221,-134.5 428.221,-127.5"/>
</g>
<!-- Node4 -->
<g id="node7" class="node"><title>Node4</title>
<a xlink:href="../../d1/dc0/appcontype_8h.html#ab3a019a2217375c098345317da123323" target="_top" xlink:title="check if for the given connection data received in a forward_open request a suitable connection is av...">
<polygon fill="none" stroke="black" points="664.5,-160.5 664.5,-181.5 839.5,-181.5 839.5,-160.5 664.5,-160.5"/>
<text text-anchor="middle" x="752" y="-168.5" font-family="Helvetica,sans-Serif" font-size="10.00">GetIoConnectionForConnectionData</text>
</a>
</g>
<!-- Node3&#45;&gt;Node4 -->
<g id="edge6" class="edge"><title>Node3&#45;&gt;Node4</title>
<path fill="none" stroke="midnightblue" d="M615.413,-171C631.257,-171 648.129,-171 664.413,-171"/>
<polygon fill="midnightblue" stroke="midnightblue" points="615.166,-167.5 605.166,-171 615.166,-174.5 615.166,-167.5"/>
</g>
<!-- Node5 -->
<g id="node9" class="node"><title>Node5</title>
<a xlink:href="../../de/d45/cipioconnection_8h.html#a43e270b3f9b9f6296b12285c320c95aa" target="_top" xlink:title="Setup all data in order to establish an IO connection.">
<polygon fill="none" stroke="black" points="877.5,-117.5 877.5,-138.5 992.5,-138.5 992.5,-117.5 877.5,-117.5"/>
<text text-anchor="middle" x="935" y="-125.5" font-family="Helvetica,sans-Serif" font-size="10.00">EstablishIoConnection</text>
</a>
</g>
<!-- Node4&#45;&gt;Node5 -->
<g id="edge8" class="edge"><title>Node4&#45;&gt;Node5</title>
<path fill="none" stroke="midnightblue" d="M808.866,-158.199C819.231,-155.831 829.944,-153.36 840,-151 857.016,-147.007 875.718,-142.503 891.995,-138.547"/>
<polygon fill="midnightblue" stroke="midnightblue" points="808.041,-154.797 799.068,-160.431 809.596,-161.622 808.041,-154.797"/>
</g>
<!-- Node6 -->
<g id="node11" class="node"><title>Node6</title>
<a xlink:href="../../d2/da3/cipconnectionmanager_8h.html#a5ab0de6894d23e8fe84a6b46797c2212" target="_top" xlink:title="Initialize the data of the connection manager object.">
<polygon fill="none" stroke="black" points="1030.5,-107.5 1030.5,-128.5 1147.5,-128.5 1147.5,-107.5 1030.5,-107.5"/>
<text text-anchor="middle" x="1089" y="-115.5" font-family="Helvetica,sans-Serif" font-size="10.00">ConnectionManagerInit</text>
</a>
</g>
<!-- Node5&#45;&gt;Node6 -->
<g id="edge10" class="edge"><title>Node5&#45;&gt;Node6</title>
<path fill="none" stroke="midnightblue" d="M1002.99,-123.585C1012.13,-122.992 1021.43,-122.388 1030.38,-121.806"/>
<polygon fill="midnightblue" stroke="midnightblue" points="1002.53,-120.107 992.782,-124.248 1002.99,-127.092 1002.53,-120.107"/>
</g>
<!-- Node7 -->
<g id="node13" class="node"><title>Node7</title>
<a xlink:href="../../d2/dc9/group__CIP__API.html#ga5d4979945d124e28668b264c3823db1c" target="_top" xlink:title="Initialize and setup the CIP&#45;stack.">
<polygon fill="none" stroke="black" points="1184.5,-86.5 1184.5,-107.5 1255.5,-107.5 1255.5,-86.5 1184.5,-86.5"/>
<text text-anchor="middle" x="1220" y="-94.5" font-family="Helvetica,sans-Serif" font-size="10.00">CipStackInit</text>
</a>
</g>
<!-- Node6&#45;&gt;Node7 -->
<g id="edge12" class="edge"><title>Node6&#45;&gt;Node7</title>
<path fill="none" stroke="midnightblue" d="M1157.63,-106.998C1166.87,-105.517 1176.03,-104.049 1184.37,-102.712"/>
<polygon fill="midnightblue" stroke="midnightblue" points="1156.92,-103.567 1147.6,-108.606 1158.03,-110.479 1156.92,-103.567"/>
</g>
<!-- Node8 -->
<g id="node15" class="node"><title>Node8</title>
<a xlink:href="../../d9/dfb/POSIX_2main_8c.html#ad338a7dbc41dc40bcecd0479377ef207" target="_top" xlink:title="main">
<polygon fill="none" stroke="black" points="1292,-86.5 1292,-107.5 1330,-107.5 1330,-86.5 1292,-86.5"/>
<text text-anchor="middle" x="1311" y="-94.5" font-family="Helvetica,sans-Serif" font-size="10.00">main</text>
</a>
</g>
<!-- Node7&#45;&gt;Node8 -->
<g id="edge14" class="edge"><title>Node7&#45;&gt;Node8</title>
<path fill="none" stroke="midnightblue" d="M1265.98,-97C1275.14,-97 1284.28,-97 1291.91,-97"/>
<polygon fill="midnightblue" stroke="midnightblue" points="1265.7,-93.5001 1255.7,-97 1265.7,-100.5 1265.7,-93.5001"/>
</g>
<!-- Node10 -->
<g id="node19" class="node"><title>Node10</title>
<a xlink:href="../../de/d45/cipioconnection_8h.html#a53b85bce88b582414fc282c95f5626f4" target="_top" xlink:title="Take the data given in the connection object structure and open the necessary communication channels...">
<polygon fill="none" stroke="black" points="677.5,-120.5 677.5,-141.5 826.5,-141.5 826.5,-120.5 677.5,-120.5"/>
<text text-anchor="middle" x="752" y="-128.5" font-family="Helvetica,sans-Serif" font-size="10.00">OpenCommunicationChannels</text>
</a>
</g>
<!-- Node9&#45;&gt;Node10 -->
<g id="edge18" class="edge"><title>Node9&#45;&gt;Node10</title>
<path fill="none" stroke="midnightblue" d="M637.843,-131C651.126,-131 664.593,-131 677.394,-131"/>
<polygon fill="midnightblue" stroke="midnightblue" points="637.735,-127.5 627.735,-131 637.735,-134.5 637.735,-127.5"/>
</g>
<!-- Node10&#45;&gt;Node5 -->
<g id="edge20" class="edge"><title>Node10&#45;&gt;Node5</title>
<path fill="none" stroke="midnightblue" d="M837.073,-129.605C850.718,-129.382 864.553,-129.155 877.359,-128.945"/>
<polygon fill="midnightblue" stroke="midnightblue" points="836.638,-126.112 826.697,-129.775 836.753,-133.111 836.638,-126.112"/>
</g>
<!-- Node12 -->
<g id="node24" class="node"><title>Node12</title>
<a xlink:href="../../df/d03/cipioconnection_8c.html#a730b410a0cdbc6a456973c0e51568968" target="_top" xlink:title="CloseIoConnection">
<polygon fill="none" stroke="black" points="491,-80.5 491,-101.5 591,-101.5 591,-80.5 491,-80.5"/>
<text text-anchor="middle" x="541" y="-88.5" font-family="Helvetica,sans-Serif" font-size="10.00">CloseIoConnection</text>
</a>
</g>
<!-- Node11&#45;&gt;Node12 -->
<g id="edge24" class="edge"><title>Node11&#45;&gt;Node12</title>
<path fill="none" stroke="midnightblue" d="M421.438,-80.1799C445.522,-82.3595 470.184,-84.5913 490.806,-86.4576"/>
<polygon fill="midnightblue" stroke="midnightblue" points="421.44,-76.6659 411.165,-79.2502 420.809,-83.6374 421.44,-76.6659"/>
</g>
<!-- Node14 -->
<g id="node29" class="node"><title>Node14</title>
<a xlink:href="../../df/d03/cipioconnection_8c.html#a7e4923f4b027d489d9933b52f6fd7007" target="_top" xlink:title="HandleIoConnectionTimeOut">
<polygon fill="none" stroke="black" points="469.5,-40.5 469.5,-61.5 612.5,-61.5 612.5,-40.5 469.5,-40.5"/>
<text text-anchor="middle" x="541" y="-48.5" font-family="Helvetica,sans-Serif" font-size="10.00">HandleIoConnectionTimeOut</text>
</a>
</g>
<!-- Node11&#45;&gt;Node14 -->
<g id="edge30" class="edge"><title>Node11&#45;&gt;Node14</title>
<path fill="none" stroke="midnightblue" d="M421.218,-61.84C437.44,-60.3719 453.931,-58.8795 469.279,-57.4906"/>
<polygon fill="midnightblue" stroke="midnightblue" points="420.809,-58.3626 411.165,-62.7498 421.44,-65.3341 420.809,-58.3626"/>
</g>
<!-- Node13 -->
<g id="node26" class="node"><title>Node13</title>
<a xlink:href="../../df/d03/cipioconnection_8c.html#ab3282f146a3ea91c90cf14c32206ee8c" target="_top" xlink:title="SetIoConnectionCallbacks">
<polygon fill="none" stroke="black" points="685.5,-80.5 685.5,-101.5 818.5,-101.5 818.5,-80.5 685.5,-80.5"/>
<text text-anchor="middle" x="752" y="-88.5" font-family="Helvetica,sans-Serif" font-size="10.00">SetIoConnectionCallbacks</text>
</a>
</g>
<!-- Node12&#45;&gt;Node13 -->
<g id="edge26" class="edge"><title>Node12&#45;&gt;Node13</title>
<path fill="none" stroke="midnightblue" d="M601.185,-91C627.412,-91 658.251,-91 685.186,-91"/>
<polygon fill="midnightblue" stroke="midnightblue" points="601.004,-87.5001 591.004,-91 601.004,-94.5001 601.004,-87.5001"/>
</g>
<!-- Node13&#45;&gt;Node5 -->
<g id="edge28" class="edge"><title>Node13&#45;&gt;Node5</title>
<path fill="none" stroke="midnightblue" d="M814.033,-103.542C836.429,-108.07 861.462,-113.132 882.919,-117.47"/>
<polygon fill="midnightblue" stroke="midnightblue" points="814.446,-100.055 803.951,-101.504 813.059,-106.916 814.446,-100.055"/>
</g>
<!-- Node14&#45;&gt;Node13 -->
<g id="edge32" class="edge"><title>Node14&#45;&gt;Node13</title>
<path fill="none" stroke="midnightblue" d="M606.443,-63.4063C635.335,-68.8834 668.934,-75.2528 696.567,-80.4913"/>
<polygon fill="midnightblue" stroke="midnightblue" points="606.915,-59.9334 596.438,-61.5095 605.611,-66.8109 606.915,-59.9334"/>
</g>
<!-- Node16 -->
<g id="node34" class="node"><title>Node16</title>
<a xlink:href="../../df/d2e/cipassembly_8c.html#a92838d437910f316c6fd7b57cfda9e56" target="_top" xlink:title="Implementation of the SetAttributeSingle CIP service for Assembly Objects. Currently only supports At...">
<polygon fill="none" stroke="black" points="471.5,-0.5 471.5,-21.5 610.5,-21.5 610.5,-0.5 471.5,-0.5"/>
<text text-anchor="middle" x="541" y="-8.5" font-family="Helvetica,sans-Serif" font-size="10.00">SetAssemblyAttributeSingle</text>
</a>
</g>
<!-- Node15&#45;&gt;Node16 -->
<g id="edge36" class="edge"><title>Node15&#45;&gt;Node16</title>
<path fill="none" stroke="midnightblue" d="M402.89,-23.4987C425.415,-21.4602 449.576,-19.2737 471.292,-17.3084"/>
<polygon fill="midnightblue" stroke="midnightblue" points="402.314,-20.0364 392.67,-24.4236 402.945,-27.0079 402.314,-20.0364"/>
</g>
<!-- Node17 -->
<g id="node36" class="node"><title>Node17</title>
<a xlink:href="../../df/d2e/cipassembly_8c.html#a5973ef42110a1bdf6c7699e35e04b7d4" target="_top" xlink:title="Constructor for the assembly object class.">
<polygon fill="none" stroke="black" points="694.5,-20.5 694.5,-41.5 809.5,-41.5 809.5,-20.5 694.5,-20.5"/>
<text text-anchor="middle" x="752" y="-28.5" font-family="Helvetica,sans-Serif" font-size="10.00">CreateAssemblyClass</text>
</a>
</g>
<!-- Node16&#45;&gt;Node17 -->
<g id="edge38" class="edge"><title>Node16&#45;&gt;Node17</title>
<path fill="none" stroke="midnightblue" d="M620.672,-18.5519C645.17,-20.8739 671.648,-23.3837 694.367,-25.5372"/>
<polygon fill="midnightblue" stroke="midnightblue" points="620.96,-15.0635 610.674,-17.6042 620.299,-22.0323 620.96,-15.0635"/>
</g>
<!-- Node18 -->
<g id="node38" class="node"><title>Node18</title>
<a xlink:href="../../de/df4/cipassembly_8h.html#a4dfbc2c7a8e9e77f05a0a7236210f5b4" target="_top" xlink:title="Setup the Assembly object.">
<polygon fill="none" stroke="black" points="1033.5,-65.5 1033.5,-86.5 1144.5,-86.5 1144.5,-65.5 1033.5,-65.5"/>
<text text-anchor="middle" x="1089" y="-73.5" font-family="Helvetica,sans-Serif" font-size="10.00">CipAssemblyInitialize</text>
</a>
</g>
<!-- Node17&#45;&gt;Node18 -->
<g id="edge40" class="edge"><title>Node17&#45;&gt;Node18</title>
<path fill="none" stroke="midnightblue" d="M819.625,-42.4485C837.899,-45.3943 857.686,-48.4495 876,-51 929.287,-58.4211 990.282,-65.4296 1033.3,-70.127"/>
<polygon fill="midnightblue" stroke="midnightblue" points="820.079,-38.9765 809.648,-40.8272 818.957,-45.8859 820.079,-38.9765"/>
</g>
<!-- Node19 -->
<g id="node41" class="node"><title>Node19</title>
<a xlink:href="../../d2/dc9/group__CIP__API.html#gae61b613fed863d30428e78b2311bf593" target="_top" xlink:title="Create an instance of an assembly object.">
<polygon fill="none" stroke="black" points="876,-20.5 876,-41.5 994,-41.5 994,-20.5 876,-20.5"/>
<text text-anchor="middle" x="935" y="-28.5" font-family="Helvetica,sans-Serif" font-size="10.00">CreateAssemblyObject</text>
</a>
</g>
<!-- Node17&#45;&gt;Node19 -->
<g id="edge44" class="edge"><title>Node17&#45;&gt;Node19</title>
<path fill="none" stroke="midnightblue" d="M819.705,-31C838.096,-31 857.864,-31 875.748,-31"/>
<polygon fill="midnightblue" stroke="midnightblue" points="819.651,-27.5001 809.651,-31 819.651,-34.5001 819.651,-27.5001"/>
</g>
<!-- Node18&#45;&gt;Node7 -->
<g id="edge42" class="edge"><title>Node18&#45;&gt;Node7</title>
<path fill="none" stroke="midnightblue" d="M1154.45,-86.4925C1164.81,-88.1531 1175.17,-89.8139 1184.5,-91.3089"/>
<polygon fill="midnightblue" stroke="midnightblue" points="1154.98,-83.0329 1144.56,-84.9059 1153.88,-89.9447 1154.98,-83.0329"/>
</g>
<!-- Node20 -->
<g id="node43" class="node"><title>Node20</title>
<a xlink:href="../../d5/dc5/group__CIP__CALLBACK__API.html#gae93106eb1647bff3ad56a7752799d878" target="_top" xlink:title="Callback for the application initialization.">
<polygon fill="none" stroke="black" points="1031,-20.5 1031,-41.5 1147,-41.5 1147,-20.5 1031,-20.5"/>
<text text-anchor="middle" x="1089" y="-28.5" font-family="Helvetica,sans-Serif" font-size="10.00">ApplicationInitialization</text>
</a>
</g>
<!-- Node19&#45;&gt;Node20 -->
<g id="edge46" class="edge"><title>Node19&#45;&gt;Node20</title>
<path fill="none" stroke="midnightblue" d="M1004.38,-31C1013.22,-31 1022.19,-31 1030.82,-31"/>
<polygon fill="midnightblue" stroke="midnightblue" points="1004.1,-27.5001 994.1,-31 1004.1,-34.5001 1004.1,-27.5001"/>
</g>
</g>
</svg>
        <g id="navigator" transform="translate(0 0)" fill="#404254">
                <rect fill="#f2f5e9" fill-opacity="0.5" stroke="#606060" stroke-width=".5" x="0" y="0" width="60" height="60"/>
                <use id="zoomplus" xlink:href="#zoomPlus" x="17" y="9" onmousedown="handleZoom(evt,'in')"/>
                <use id="zoomminus" xlink:href="#zoomMin" x="42" y="9" onmousedown="handleZoom(evt,'out')"/>
                <use id="reset" xlink:href="#resetDef" x="30" y="36" onmousedown="handleReset()"/>
                <g id="arrowUp" xlink:href="#dirArrow" transform="translate(30 24)" onmousedown="handlePan(0,-1)">
                  <use xlink:href="#rim" fill="#404040">
                        <set attributeName="fill" to="#808080" begin="arrowUp.mouseover" end="arrowUp.mouseout"/>
                  </use>
                  <path fill="none" stroke="white" stroke-width="1.5" d="M0,-3.0v7 M-2.5,-0.5L0,-3.0L2.5,-0.5"/>
                </g>
                <g id="arrowRight" xlink:href="#dirArrow" transform="rotate(90) translate(36 -43)" onmousedown="handlePan(1,0)">
                  <use xlink:href="#rim" fill="#404040">
                        <set attributeName="fill" to="#808080" begin="arrowRight.mouseover" end="arrowRight.mouseout"/>
                  </use>
                  <path fill="none" stroke="white" stroke-width="1.5" d="M0,-3.0v7 M-2.5,-0.5L0,-3.0L2.5,-0.5"/>
                </g>
                <g id="arrowDown" xlink:href="#dirArrow" transform="rotate(180) translate(-30 -48)" onmousedown="handlePan(0,1)">
                  <use xlink:href="#rim" fill="#404040">
                        <set attributeName="fill" to="#808080" begin="arrowDown.mouseover" end="arrowDown.mouseout"/>
                  </use>
                  <path fill="none" stroke="white" stroke-width="1.5" d="M0,-3.0v7 M-2.5,-0.5L0,-3.0L2.5,-0.5"/>
                </g>
                <g id="arrowLeft" xlink:href="#dirArrow" transform="rotate(270) translate(-36 17)" onmousedown="handlePan(-1,0)">
                  <use xlink:href="#rim" fill="#404040">
                        <set attributeName="fill" to="#808080" begin="arrowLeft.mouseover" end="arrowLeft.mouseout"/>
                  </use>
                  <path fill="none" stroke="white" stroke-width="1.5" d="M0,-3.0v7 M-2.5,-0.5L0,-3.0L2.5,-0.5"/>
                </g>
        </g>
</svg>
