<?xml version="1.0" encoding="UTF-8" standalone="no"?>
<!DOCTYPE svg PUBLIC "-//W3C//DTD SVG 1.1//EN"
 "http://www.w3.org/Graphics/SVG/1.1/DTD/svg11.dtd">
<!-- Generated by graphviz version 2.38.0 (20140413.2041)
 -->
<!-- Title: OpenConsumingPointToPointConnection Pages: 1 -->
<svg width="810pt" height="39pt"
 viewBox="0.00 0.00 810.00 39.00" xmlns="http://www.w3.org/2000/svg" xmlns:xlink="http://www.w3.org/1999/xlink">
<g id="graph0" class="graph" transform="scale(1 1) rotate(0) translate(4 35)">
<title>OpenConsumingPointToPointConnection</title>
<!-- Node1 -->
<g id="node1" class="node"><title>Node1</title>
<polygon fill="#bfbfbf" stroke="black" points="0,-0.5 0,-30.5 146,-30.5 146,-0.5 0,-0.5"/>
<text text-anchor="start" x="8" y="-18.5" font-family="Helvetica,sans-Serif" font-size="10.00">OpenConsumingPointToPoint</text>
<text text-anchor="middle" x="73" y="-7.5" font-family="Helvetica,sans-Serif" font-size="10.00">Connection</text>
</g>
<!-- Node2 -->
<g id="node2" class="node"><title>Node2</title>
<g id="a_node2"><a xlink:href="../../de/d45/cipioconnection_8h.html#a667690c04e476a38fa3b8e555a812e44" target="_top" xlink:title="Take the data given in the connection object structure and open the necessary communication channels...">
<polygon fill="none" stroke="black" points="182,-6 182,-25 329,-25 329,-6 182,-6"/>
<text text-anchor="middle" x="255.5" y="-13" font-family="Helvetica,sans-Serif" font-size="10.00">openCommunicationChannels</text>
</a>
</g>
</g>
<!-- Node1&#45;&gt;Node2 -->
<g id="edge1" class="edge"><title>Node1&#45;&gt;Node2</title>
<path fill="none" stroke="midnightblue" d="M156.142,-15.5C164.737,-15.5 173.431,-15.5 181.909,-15.5"/>
<polygon fill="midnightblue" stroke="midnightblue" points="156.117,-12.0001 146.117,-15.5 156.117,-19.0001 156.117,-12.0001"/>
</g>
<!-- Node3 -->
<g id="node3" class="node"><title>Node3</title>
<g id="a_node3"><a xlink:href="../../de/d45/cipioconnection_8h.html#ae83037a608b08d325fc34869395f37a3" target="_top" xlink:title="Setup all data in order to establish an IO connection. ">
<polygon fill="none" stroke="black" points="365,-6 365,-25 475,-25 475,-6 365,-6"/>
<text text-anchor="middle" x="420" y="-13" font-family="Helvetica,sans-Serif" font-size="10.00">establishIOConnction</text>
</a>
</g>
</g>
<!-- Node2&#45;&gt;Node3 -->
<g id="edge2" class="edge"><title>Node2&#45;&gt;Node3</title>
<path fill="none" stroke="midnightblue" d="M339.356,-15.5C348.022,-15.5 356.663,-15.5 364.886,-15.5"/>
<polygon fill="midnightblue" stroke="midnightblue" points="339.195,-12.0001 329.195,-15.5 339.195,-19.0001 339.195,-12.0001"/>
</g>
<!-- Node4 -->
<g id="node4" class="node"><title>Node4</title>
<g id="a_node4"><a xlink:href="../../d2/da3/cipconnectionmanager_8h.html#abbdafd9e83df08856ba6de13890cf40f" target="_top" xlink:title="Connection_Manager_Init">
<polygon fill="none" stroke="black" points="511,-6 511,-25 639,-25 639,-6 511,-6"/>
<text text-anchor="middle" x="575" y="-13" font-family="Helvetica,sans-Serif" font-size="10.00">Connection_Manager_Init</text>
</a>
</g>
</g>
<!-- Node3&#45;&gt;Node4 -->
<g id="edge3" class="edge"><title>Node3&#45;&gt;Node4</title>
<path fill="none" stroke="midnightblue" d="M485.509,-15.5C493.922,-15.5 502.534,-15.5 510.924,-15.5"/>
<polygon fill="midnightblue" stroke="midnightblue" points="485.373,-12.0001 475.373,-15.5 485.373,-19.0001 485.373,-12.0001"/>
</g>
<!-- Node5 -->
<g id="node5" class="node"><title>Node5</title>
<g id="a_node5"><a xlink:href="../../d2/dc9/group__CIP__API.html#ga8fe857c3e88bf986fda82fbac6702c9f" target="_top" xlink:title="Initialize and setup the CIP&#45;stack. ">
<polygon fill="none" stroke="black" points="675,-6 675,-25 728,-25 728,-6 675,-6"/>
<text text-anchor="middle" x="701.5" y="-13" font-family="Helvetica,sans-Serif" font-size="10.00">CIP_Init</text>
</a>
</g>
</g>
<!-- Node4&#45;&gt;Node5 -->
<g id="edge4" class="edge"><title>Node4&#45;&gt;Node5</title>
<path fill="none" stroke="midnightblue" d="M649.345,-15.5C658.478,-15.5 667.282,-15.5 674.936,-15.5"/>
<polygon fill="midnightblue" stroke="midnightblue" points="649.344,-12.0001 639.344,-15.5 649.344,-19.0001 649.344,-12.0001"/>
</g>
<!-- Node6 -->
<g id="node6" class="node"><title>Node6</title>
<g id="a_node6"><a xlink:href="../../d0/d17/LM3S8962_2sample__application_2main_8c.html#a840291bc02cba5474a4cb46a9b9566fe" target="_top" xlink:title="main">
<polygon fill="none" stroke="black" points="764,-6 764,-25 802,-25 802,-6 764,-6"/>
<text text-anchor="middle" x="783" y="-13" font-family="Helvetica,sans-Serif" font-size="10.00">main</text>
</a>
</g>
</g>
<!-- Node5&#45;&gt;Node6 -->
<g id="edge5" class="edge"><title>Node5&#45;&gt;Node6</title>
<path fill="none" stroke="midnightblue" d="M738.231,-15.5C747.063,-15.5 756.162,-15.5 763.761,-15.5"/>
<polygon fill="midnightblue" stroke="midnightblue" points="738.092,-12.0001 728.092,-15.5 738.092,-19.0001 738.092,-12.0001"/>
</g>
</g>
</svg>
