<?xml version="1.0" encoding="UTF-8" standalone="no"?>
<!DOCTYPE svg PUBLIC "-//W3C//DTD SVG 1.1//EN"
 "http://www.w3.org/Graphics/SVG/1.1/DTD/svg11.dtd">
<!-- Generated by graphviz version 2.36.0 (20140111.2315)
 -->
<!-- Title: OpenProducingPointToPointConnection Pages: 1 -->
<svg width="674pt" height="294pt"
 viewBox="0.00 0.00 674.00 294.00" xmlns="http://www.w3.org/2000/svg" xmlns:xlink="http://www.w3.org/1999/xlink">
<g id="graph0" class="graph" transform="scale(1 1) rotate(0) translate(4 290)">
<title>OpenProducingPointToPointConnection</title>
<!-- Node1 -->
<g id="node1" class="node"><title>Node1</title>
<polygon fill="#bfbfbf" stroke="black" points="0,-175 0,-205 140,-205 140,-175 0,-175"/>
<text text-anchor="start" x="8" y="-193" font-family="Helvetica,sans-Serif" font-size="10.00">OpenProducingPointToPoint</text>
<text text-anchor="middle" x="70" y="-182" font-family="Helvetica,sans-Serif" font-size="10.00">Connection</text>
</g>
<!-- Node2 -->
<g id="node2" class="node"><title>Node2</title>
<g id="a_node2"><a xlink:href="../../df/d91/cipconnectionobject_8c.html#aeee7026822ffa05ebabab57a0eed1665" target="_top" xlink:title="ConnectionObjectGetTToOPriority">
<polygon fill="none" stroke="black" points="176,-228.5 176,-247.5 342,-247.5 342,-228.5 176,-228.5"/>
<text text-anchor="middle" x="259" y="-235.5" font-family="Helvetica,sans-Serif" font-size="10.00">ConnectionObjectGetTToOPriority</text>
</a>
</g>
</g>
<!-- Node1&#45;&gt;Node2 -->
<g id="edge1" class="edge"><title>Node1&#45;&gt;Node2</title>
<path fill="none" stroke="midnightblue" d="M129.655,-205.056C155.826,-211.774 186.247,-219.582 210.902,-225.911"/>
<polygon fill="midnightblue" stroke="midnightblue" points="210.182,-229.339 220.739,-228.436 211.923,-222.559 210.182,-229.339"/>
</g>
<!-- Node4 -->
<g id="node4" class="node"><title>Node4</title>
<g id="a_node4"><a xlink:href="../../d5/dc5/group__CIP__CALLBACK__API.html#ga5807bcc51621775c9aedbf58d3a7a6d3" target="_top" xlink:title="create a producing or consuming UDP socket ">
<polygon fill="none" stroke="black" points="211.5,-133.5 211.5,-152.5 306.5,-152.5 306.5,-133.5 211.5,-133.5"/>
<text text-anchor="middle" x="259" y="-140.5" font-family="Helvetica,sans-Serif" font-size="10.00">CreateUdpSocket</text>
</a>
</g>
</g>
<!-- Node1&#45;&gt;Node4 -->
<g id="edge3" class="edge"><title>Node1&#45;&gt;Node4</title>
<path fill="none" stroke="midnightblue" d="M130.682,-175C156.309,-168.559 185.852,-161.133 210.025,-155.058"/>
<polygon fill="midnightblue" stroke="midnightblue" points="211.184,-158.376 220.029,-152.543 209.478,-151.587 211.184,-158.376"/>
</g>
<!-- Node3 -->
<g id="node3" class="node"><title>Node3</title>
<g id="a_node3"><a xlink:href="../../df/d91/cipconnectionobject_8c.html#a54694d088a9b468aa4531a1801bbc490" target="_top" xlink:title="ConnectionObjectGetPriority">
<polygon fill="none" stroke="black" points="378.5,-266.5 378.5,-285.5 519.5,-285.5 519.5,-266.5 378.5,-266.5"/>
<text text-anchor="middle" x="449" y="-273.5" font-family="Helvetica,sans-Serif" font-size="10.00">ConnectionObjectGetPriority</text>
</a>
</g>
</g>
<!-- Node2&#45;&gt;Node3 -->
<g id="edge2" class="edge"><title>Node2&#45;&gt;Node3</title>
<path fill="none" stroke="midnightblue" d="M307.44,-247.589C332.808,-252.716 364.227,-259.067 390.923,-264.463"/>
<polygon fill="midnightblue" stroke="midnightblue" points="390.406,-267.929 400.901,-266.48 391.792,-261.068 390.406,-267.929"/>
</g>
<!-- Node5 -->
<g id="node5" class="node"><title>Node5</title>
<g id="a_node5"><a xlink:href="../../d8/d60/MINGW_2opener__error_8c.html#afbc52bcd5256264e75ba063f2e361e24" target="_top" xlink:title="Gets the error number or equivalent. ">
<polygon fill="none" stroke="black" points="389.5,-228.5 389.5,-247.5 508.5,-247.5 508.5,-228.5 389.5,-228.5"/>
<text text-anchor="middle" x="449" y="-235.5" font-family="Helvetica,sans-Serif" font-size="10.00">GetSocketErrorNumber</text>
</a>
</g>
</g>
<!-- Node4&#45;&gt;Node5 -->
<g id="edge4" class="edge"><title>Node4&#45;&gt;Node5</title>
<path fill="none" stroke="midnightblue" d="M272.023,-152.55C292.594,-168.463 336.367,-200.477 378,-219 383.38,-221.394 389.131,-223.547 394.937,-225.468"/>
<polygon fill="midnightblue" stroke="midnightblue" points="394.118,-228.878 404.705,-228.482 396.182,-222.189 394.118,-228.878"/>
</g>
<!-- Node6 -->
<g id="node6" class="node"><title>Node6</title>
<g id="a_node6"><a xlink:href="../../d8/d60/MINGW_2opener__error_8c.html#a0df2625909cb28076bc7df8e6c9cfcae" target="_top" xlink:title="Returns a human readable message for the given error number. ">
<polygon fill="none" stroke="black" points="402.5,-190.5 402.5,-209.5 495.5,-209.5 495.5,-190.5 402.5,-190.5"/>
<text text-anchor="middle" x="449" y="-197.5" font-family="Helvetica,sans-Serif" font-size="10.00">GetErrorMessage</text>
</a>
</g>
</g>
<!-- Node4&#45;&gt;Node6 -->
<g id="edge5" class="edge"><title>Node4&#45;&gt;Node6</title>
<path fill="none" stroke="midnightblue" d="M288.498,-152.588C312.326,-160.505 347.255,-171.882 378,-181 385.64,-183.266 393.78,-185.572 401.706,-187.761"/>
<polygon fill="midnightblue" stroke="midnightblue" points="401.009,-191.199 411.578,-190.458 402.854,-184.446 401.009,-191.199"/>
</g>
<!-- Node7 -->
<g id="node7" class="node"><title>Node7</title>
<g id="a_node7"><a xlink:href="../../d8/d60/MINGW_2opener__error_8c.html#a99f5295ad12a2b986bab4b89a24cfc20" target="_top" xlink:title="Frees the space of the error message generated by GetErrorMessage(int) ">
<polygon fill="none" stroke="black" points="400.5,-152.5 400.5,-171.5 497.5,-171.5 497.5,-152.5 400.5,-152.5"/>
<text text-anchor="middle" x="449" y="-159.5" font-family="Helvetica,sans-Serif" font-size="10.00">FreeErrorMessage</text>
</a>
</g>
</g>
<!-- Node4&#45;&gt;Node7 -->
<g id="edge6" class="edge"><title>Node4&#45;&gt;Node7</title>
<path fill="none" stroke="midnightblue" d="M306.955,-147.745C332.222,-150.299 363.599,-153.47 390.339,-156.173"/>
<polygon fill="midnightblue" stroke="midnightblue" points="390.036,-159.66 400.338,-157.183 390.74,-152.695 390.036,-159.66"/>
</g>
<!-- Node8 -->
<g id="node8" class="node"><title>Node8</title>
<g id="a_node8"><a xlink:href="../../d3/de3/MINGW_2networkhandler_8c.html#a4af2b184144f7d807e8157ee8b474ecf" target="_top" xlink:title="SetSocketToNonBlocking">
<polygon fill="none" stroke="black" points="384.5,-114.5 384.5,-133.5 513.5,-133.5 513.5,-114.5 384.5,-114.5"/>
<text text-anchor="middle" x="449" y="-121.5" font-family="Helvetica,sans-Serif" font-size="10.00">SetSocketToNonBlocking</text>
</a>
</g>
</g>
<!-- Node4&#45;&gt;Node8 -->
<g id="edge7" class="edge"><title>Node4&#45;&gt;Node8</title>
<path fill="none" stroke="midnightblue" d="M306.955,-138.255C327.233,-136.205 351.446,-133.758 374.039,-131.475"/>
<polygon fill="midnightblue" stroke="midnightblue" points="374.688,-134.927 384.285,-130.439 373.984,-127.963 374.688,-134.927"/>
</g>
<!-- Node9 -->
<g id="node9" class="node"><title>Node9</title>
<g id="a_node9"><a xlink:href="../../d5/dc5/group__CIP__CALLBACK__API.html#gae04e2a3e9937e910cbcdbff0b8d6ad2b" target="_top" xlink:title="Close the given socket and clean up the stack. ">
<polygon fill="none" stroke="black" points="412.5,-76.5 412.5,-95.5 485.5,-95.5 485.5,-76.5 412.5,-76.5"/>
<text text-anchor="middle" x="449" y="-83.5" font-family="Helvetica,sans-Serif" font-size="10.00">CloseSocket</text>
</a>
</g>
</g>
<!-- Node4&#45;&gt;Node9 -->
<g id="edge8" class="edge"><title>Node4&#45;&gt;Node9</title>
<path fill="none" stroke="midnightblue" d="M288.498,-133.412C312.326,-125.495 347.255,-114.118 378,-105 385.896,-102.658 394.327,-100.273 402.504,-98.019"/>
<polygon fill="midnightblue" stroke="midnightblue" points="403.572,-101.355 412.299,-95.3467 401.73,-94.6023 403.572,-101.355"/>
</g>
<!-- Node11 -->
<g id="node11" class="node"><title>Node11</title>
<g id="a_node11"><a xlink:href="../../d3/de3/MINGW_2networkhandler_8c.html#a20a53fded2d3f1e17272dbc7185988fd" target="_top" xlink:title="SetQosOnSocket">
<polygon fill="none" stroke="black" points="402.5,-38.5 402.5,-57.5 495.5,-57.5 495.5,-38.5 402.5,-38.5"/>
<text text-anchor="middle" x="449" y="-45.5" font-family="Helvetica,sans-Serif" font-size="10.00">SetQosOnSocket</text>
</a>
</g>
</g>
<!-- Node4&#45;&gt;Node11 -->
<g id="edge10" class="edge"><title>Node4&#45;&gt;Node11</title>
<path fill="none" stroke="midnightblue" d="M272.023,-133.45C292.594,-117.537 336.367,-85.523 378,-67 383.38,-64.6061 389.131,-62.4529 394.937,-60.5321"/>
<polygon fill="midnightblue" stroke="midnightblue" points="396.182,-63.811 404.705,-57.5178 394.118,-57.1222 396.182,-63.811"/>
</g>
<!-- Node12 -->
<g id="node12" class="node"><title>Node12</title>
<g id="a_node12"><a xlink:href="../../dd/d34/cipqos_8c.html#a6fa85e635fcd14e9797254ec3a5bb95e" target="_top" xlink:title="Initializing the data structures of the TCP/IP interface object. ">
<polygon fill="none" stroke="black" points="395,-0.5 395,-19.5 503,-19.5 503,-0.5 395,-0.5"/>
<text text-anchor="middle" x="449" y="-7.5" font-family="Helvetica,sans-Serif" font-size="10.00">GetPriorityForSocket</text>
</a>
</g>
</g>
<!-- Node4&#45;&gt;Node12 -->
<g id="edge11" class="edge"><title>Node4&#45;&gt;Node12</title>
<path fill="none" stroke="midnightblue" d="M267.106,-133.391C283.865,-111.429 328.217,-57.2797 378,-29 381.925,-26.7706 386.122,-24.793 390.44,-23.0404"/>
<polygon fill="midnightblue" stroke="midnightblue" points="391.824,-26.2615 400.024,-19.5528 389.43,-19.6835 391.824,-26.2615"/>
</g>
<!-- Node10 -->
<g id="node10" class="node"><title>Node10</title>
<g id="a_node10"><a xlink:href="../../d3/de3/MINGW_2networkhandler_8c.html#a2812ba0ecd1fd9a5549fbca397d76e3e" target="_top" xlink:title="Platform dependent code to close a socket. ">
<polygon fill="none" stroke="black" points="556,-76.5 556,-95.5 666,-95.5 666,-76.5 556,-76.5"/>
<text text-anchor="middle" x="611" y="-83.5" font-family="Helvetica,sans-Serif" font-size="10.00">CloseSocketPlatform</text>
</a>
</g>
</g>
<!-- Node9&#45;&gt;Node10 -->
<g id="edge9" class="edge"><title>Node9&#45;&gt;Node10</title>
<path fill="none" stroke="midnightblue" d="M485.509,-86C503.151,-86 525.026,-86 545.493,-86"/>
<polygon fill="midnightblue" stroke="midnightblue" points="545.72,-89.5001 555.72,-86 545.72,-82.5001 545.72,-89.5001"/>
</g>
</g>
</svg>
