<?xml version="1.0" encoding="UTF-8" standalone="no"?>
<!DOCTYPE svg PUBLIC "-//W3C//DTD SVG 1.1//EN"
 "http://www.w3.org/Graphics/SVG/1.1/DTD/svg11.dtd">
<!-- Generated by graphviz version 2.26.3 (20100126.1600)
 -->
<!-- Title: G Pages: 1 -->
<!--zoomable 308 -->
<svg id="main" version="1.1" xmlns="http://www.w3.org/2000/svg" xmlns:xlink="http://www.w3.org/1999/xlink" xml:space="preserve" onload="init(evt)">
        <defs>
                <circle id="rim" cx="0" cy="0" r="7"/>
                <circle id="rim2" cx="0" cy="0" r="3.5"/>
                <g id="zoomPlus">
                        <use xlink:href="#rim" fill="#404040">
                                <set attributeName="fill" to="#808080" begin="zoomplus.mouseover" end="zoomplus.mouseout"/>
                        </use>
                        <path d="M-4,0h8M0,-4v8" fill="none" stroke="white" stroke-width="1.5" pointer-events="none"/>
                </g>
                <g id="zoomMin">
                        <use xlink:href="#rim" fill="#404040">
                                <set attributeName="fill" to="#808080" begin="zoomminus.mouseover" end="zoomminus.mouseout"/>
                        </use>
                        <path d="M-4,0h8" fill="none" stroke="white" stroke-width="1.5" pointer-events="none"/>
                </g>
                <g id="dirArrow">
                        <path fill="none" stroke="white" stroke-width="1.5" d="M0,-3.0v7 M-2.5,-0.5L0,-3.0L2.5,-0.5"/>
                </g>
               <g id="resetDef">
                       <use xlink:href="#rim2" fill="#404040">
                               <set attributeName="fill" to="#808080" begin="reset.mouseover" end="reset.mouseout"/>
                       </use>
               </g>
        </defs>

<script type="text/javascript">
var viewWidth = 1116;
var viewHeight = 308;
var sectionId = 'dynsection-4';
</script>
<script xlink:href="../../svgpan.js"/>
<svg id="graph" class="graph">
<g id="viewport">
<title>G</title>
<!-- Node1 -->
<g id="node1" class="node"><title>Node1</title>
<polygon fill="#bfbfbf" stroke="black" points="0,-160.5 0,-181.5 100,-181.5 100,-160.5 0,-160.5"/>
<text text-anchor="middle" x="50" y="-168.5" font-family="Helvetica,sans-Serif" font-size="10.00">CloseIoConnection</text>
</g>
<!-- Node2 -->
<g id="node3" class="node"><title>Node2</title>
<a xlink:href="../../df/d03/cipioconnection_8c.html#ae93b44443f59189ac1379d539b8e2a23" target="_top" xlink:title="CheckForDeadConnectionsInActiveConnectionList">
<polygon fill="none" stroke="black" points="179.5,-278.5 179.5,-299.5 418.5,-299.5 418.5,-278.5 179.5,-278.5"/>
<text text-anchor="middle" x="299" y="-286.5" font-family="Helvetica,sans-Serif" font-size="10.00">CheckForDeadConnectionsInActiveConnectionList</text>
</a>
</g>
<!-- Node1&#45;&gt;Node2 -->
<g id="edge2" class="edge"><title>Node1&#45;&gt;Node2</title>
<path fill="none" stroke="midnightblue" d="M56.2516,-181.507C68.6717,-201.341 98.5181,-244.088 136,-264 146.469,-269.562 157.815,-273.978 169.482,-277.474"/>
<polygon fill="midnightblue" stroke="midnightblue" points="168.773,-280.91 179.345,-280.2 170.638,-274.163 168.773,-280.91"/>
</g>
<!-- Node3 -->
<g id="node5" class="node"><title>Node3</title>
<a xlink:href="../../d5/dc5/group__CIP__CALLBACK__API.html#gac9c9ad2c2254b783e7b447bd84eba8c0" target="_top" xlink:title="Inform the application on changes occurred for a connection.">
<polygon fill="none" stroke="black" points="537,-240.5 537,-261.5 665,-261.5 665,-240.5 537,-240.5"/>
<text text-anchor="middle" x="601" y="-248.5" font-family="Helvetica,sans-Serif" font-size="10.00">CheckIoConnectionEvent</text>
</a>
</g>
<!-- Node1&#45;&gt;Node3 -->
<g id="edge4" class="edge"><title>Node1&#45;&gt;Node3</title>
<path fill="none" stroke="midnightblue" d="M60.794,-181.666C76.0485,-195.947 105.475,-220.678 136,-231 268.016,-275.64 433.202,-269.21 526.948,-260.26"/>
<polygon fill="midnightblue" stroke="midnightblue" points="527.299,-263.743 536.906,-259.275 526.609,-256.777 527.299,-263.743"/>
</g>
<!-- Node4 -->
<g id="node7" class="node"><title>Node4</title>
<a xlink:href="../../d1/dbc/appcontype_8c.html#a1181149fe4f853e43552e0b50e2f4d23" target="_top" xlink:title="Close all connection producing the same input and have the same type (i.e., listen only or input only...">
<polygon fill="none" stroke="black" points="193,-200.5 193,-221.5 405,-221.5 405,-200.5 193,-200.5"/>
<text text-anchor="middle" x="299" y="-208.5" font-family="Helvetica,sans-Serif" font-size="10.00">CloseAllConnectionsForInputWithSameType</text>
</a>
</g>
<!-- Node1&#45;&gt;Node4 -->
<g id="edge6" class="edge"><title>Node1&#45;&gt;Node4</title>
<path fill="none" stroke="midnightblue" d="M91.3718,-181.561C105.466,-184.907 121.359,-188.407 136,-191 153.014,-194.013 171.108,-196.721 188.817,-199.099"/>
<polygon fill="midnightblue" stroke="midnightblue" points="188.817,-202.629 199.188,-200.46 189.729,-195.688 188.817,-202.629"/>
</g>
<!-- Node5 -->
<g id="node10" class="node"><title>Node5</title>
<a xlink:href="../../df/d03/cipioconnection_8c.html#a62fc61ed294b1d1543960582f0071b22" target="_top" xlink:title="close the communication channels of the given connection and remove it from the active connections li...">
<polygon fill="none" stroke="black" points="136,-160.5 136,-181.5 462,-181.5 462,-160.5 136,-160.5"/>
<text text-anchor="middle" x="299" y="-168.5" font-family="Helvetica,sans-Serif" font-size="10.00">CloseCommunicationChannelsAndRemoveFromActiveConnectionsList</text>
</a>
</g>
<!-- Node1&#45;&gt;Node5 -->
<g id="edge10" class="edge"><title>Node1&#45;&gt;Node5</title>
<path fill="none" stroke="midnightblue" d="M100.089,-171C108.12,-171 116.803,-171 125.896,-171"/>
<polygon fill="midnightblue" stroke="midnightblue" points="125.913,-174.5 135.913,-171 125.913,-167.5 125.913,-174.5"/>
</g>
<!-- Node14 -->
<g id="node28" class="node"><title>Node14</title>
<a xlink:href="../../df/d91/cipconnectionobject_8c.html#a64d3a78bd3f520b632b04697bd0b2767" target="_top" xlink:title="ConnectionObjectGetInstanceType">
<polygon fill="none" stroke="black" points="214,-120.5 214,-141.5 384,-141.5 384,-120.5 214,-120.5"/>
<text text-anchor="middle" x="299" y="-128.5" font-family="Helvetica,sans-Serif" font-size="10.00">ConnectionObjectGetInstanceType</text>
</a>
</g>
<!-- Node1&#45;&gt;Node14 -->
<g id="edge28" class="edge"><title>Node1&#45;&gt;Node14</title>
<path fill="none" stroke="midnightblue" d="M91.3718,-160.439C105.466,-157.093 121.359,-153.593 136,-151 157.789,-147.141 181.349,-143.783 203.602,-140.978"/>
<polygon fill="midnightblue" stroke="midnightblue" points="204.228,-144.428 213.724,-139.728 203.37,-137.48 204.228,-144.428"/>
</g>
<!-- Node15 -->
<g id="node30" class="node"><title>Node15</title>
<a xlink:href="../../df/d91/cipconnectionobject_8c.html#ad61ad2b2c18480a141e5df346e32be02" target="_top" xlink:title="ConnectionObjectGetTToOConnectionType">
<polygon fill="none" stroke="black" points="498,-80.5 498,-101.5 704,-101.5 704,-80.5 498,-80.5"/>
<text text-anchor="middle" x="601" y="-88.5" font-family="Helvetica,sans-Serif" font-size="10.00">ConnectionObjectGetTToOConnectionType</text>
</a>
</g>
<!-- Node1&#45;&gt;Node15 -->
<g id="edge30" class="edge"><title>Node1&#45;&gt;Node15</title>
<path fill="none" stroke="midnightblue" d="M60.794,-160.334C76.0485,-146.053 105.475,-121.322 136,-111 257.43,-69.9393 406.923,-72.0871 503.071,-79.6602"/>
<polygon fill="midnightblue" stroke="midnightblue" points="502.822,-83.1514 513.075,-80.4829 503.396,-76.1749 502.822,-83.1514"/>
</g>
<!-- Node17 -->
<g id="node34" class="node"><title>Node17</title>
<a xlink:href="../../d1/dbc/appcontype_8c.html#acda34462cc2d60ebb7b48a633bfe3c49" target="_top" xlink:title="check if there exists an producing multicast exclusive owner or listen only connection that should pr...">
<polygon fill="none" stroke="black" points="208,-40.5 208,-61.5 390,-61.5 390,-40.5 208,-40.5"/>
<text text-anchor="middle" x="299" y="-48.5" font-family="Helvetica,sans-Serif" font-size="10.00">GetNextNonControlMasterConnection</text>
</a>
</g>
<!-- Node1&#45;&gt;Node17 -->
<g id="edge34" class="edge"><title>Node1&#45;&gt;Node17</title>
<path fill="none" stroke="midnightblue" d="M56.2327,-160.401C68.6205,-140.39 98.4142,-97.2411 136,-77 154.84,-66.8538 176.559,-60.4146 197.873,-56.383"/>
<polygon fill="midnightblue" stroke="midnightblue" points="198.696,-59.7927 207.956,-54.6435 197.506,-52.8946 198.696,-59.7927"/>
</g>
<!-- Node4&#45;&gt;Node3 -->
<g id="edge8" class="edge"><title>Node4&#45;&gt;Node3</title>
<path fill="none" stroke="midnightblue" d="M378.347,-221.51C424.327,-227.6 481.846,-235.218 526.903,-241.186"/>
<polygon fill="midnightblue" stroke="midnightblue" points="526.529,-244.667 536.902,-242.51 527.448,-237.727 526.529,-244.667"/>
</g>
<!-- Node6 -->
<g id="node12" class="node"><title>Node6</title>
<a xlink:href="../../db/d4f/generic__networkhandler_8c.html#aab6e6c554aa10d27efe297ebef3ac1c9" target="_top" xlink:title="CloseUdpSocket">
<polygon fill="none" stroke="black" points="555.5,-200.5 555.5,-221.5 646.5,-221.5 646.5,-200.5 555.5,-200.5"/>
<text text-anchor="middle" x="601" y="-208.5" font-family="Helvetica,sans-Serif" font-size="10.00">CloseUdpSocket</text>
</a>
</g>
<!-- Node5&#45;&gt;Node6 -->
<g id="edge12" class="edge"><title>Node5&#45;&gt;Node6</title>
<path fill="none" stroke="midnightblue" d="M387.445,-181.512C411.632,-184.479 437.837,-187.78 462,-191 489.4,-194.652 519.794,-198.992 545.156,-202.694"/>
<polygon fill="midnightblue" stroke="midnightblue" points="544.93,-206.198 555.332,-204.185 545.945,-199.272 544.93,-206.198"/>
</g>
<!-- Node9 -->
<g id="node18" class="node"><title>Node9</title>
<a xlink:href="../../df/d91/cipconnectionobject_8c.html#a8f507fa4e57499d8b96c8adb2ad8a549" target="_top" xlink:title="ConnectionObjectInitializeEmpty">
<polygon fill="none" stroke="black" points="521.5,-160.5 521.5,-181.5 680.5,-181.5 680.5,-160.5 521.5,-160.5"/>
<text text-anchor="middle" x="601" y="-168.5" font-family="Helvetica,sans-Serif" font-size="10.00">ConnectionObjectInitializeEmpty</text>
</a>
</g>
<!-- Node5&#45;&gt;Node9 -->
<g id="edge18" class="edge"><title>Node5&#45;&gt;Node9</title>
<path fill="none" stroke="midnightblue" d="M462.374,-171C479.133,-171 495.688,-171 511.204,-171"/>
<polygon fill="midnightblue" stroke="midnightblue" points="511.243,-174.5 521.243,-171 511.243,-167.5 511.243,-174.5"/>
</g>
<!-- Node11 -->
<g id="node22" class="node"><title>Node11</title>
<a xlink:href="../../d5/d35/cipconnectionmanager_8c.html#a144782b4e2a5afc89ec32854511bbea7" target="_top" xlink:title="Removes connection from the list of active connections.">
<polygon fill="none" stroke="black" points="522,-120.5 522,-141.5 680,-141.5 680,-120.5 522,-120.5"/>
<text text-anchor="middle" x="601" y="-128.5" font-family="Helvetica,sans-Serif" font-size="10.00">RemoveFromActiveConnections</text>
</a>
</g>
<!-- Node5&#45;&gt;Node11 -->
<g id="edge22" class="edge"><title>Node5&#45;&gt;Node11</title>
<path fill="none" stroke="midnightblue" d="M387.445,-160.488C411.632,-157.521 437.837,-154.22 462,-151 480.744,-148.502 500.889,-145.682 519.866,-142.964"/>
<polygon fill="midnightblue" stroke="midnightblue" points="520.57,-146.399 529.97,-141.511 519.573,-139.47 520.57,-146.399"/>
</g>
<!-- Node7 -->
<g id="node14" class="node"><title>Node7</title>
<a xlink:href="../../d5/dc5/group__CIP__CALLBACK__API.html#gaf4d26c1bca26c2e6e73481d57762df36" target="_top" xlink:title="Close the given socket and clean up the stack.">
<polygon fill="none" stroke="black" points="794.5,-200.5 794.5,-221.5 867.5,-221.5 867.5,-200.5 794.5,-200.5"/>
<text text-anchor="middle" x="831" y="-208.5" font-family="Helvetica,sans-Serif" font-size="10.00">CloseSocket</text>
</a>
</g>
<!-- Node6&#45;&gt;Node7 -->
<g id="edge14" class="edge"><title>Node6&#45;&gt;Node7</title>
<path fill="none" stroke="midnightblue" d="M646.716,-211C686.606,-211 744.228,-211 784.383,-211"/>
<polygon fill="midnightblue" stroke="midnightblue" points="784.449,-214.5 794.449,-211 784.449,-207.5 784.449,-214.5"/>
</g>
<!-- Node8 -->
<g id="node16" class="node"><title>Node8</title>
<a xlink:href="../../d2/d5e/POSIX_2networkhandler_8c.html#a2812ba0ecd1fd9a5549fbca397d76e3e" target="_top" xlink:title="Platform dependent code to close a socket.">
<polygon fill="none" stroke="black" points="978,-200.5 978,-221.5 1088,-221.5 1088,-200.5 978,-200.5"/>
<text text-anchor="middle" x="1033" y="-208.5" font-family="Helvetica,sans-Serif" font-size="10.00">CloseSocketPlatform</text>
</a>
</g>
<!-- Node7&#45;&gt;Node8 -->
<g id="edge16" class="edge"><title>Node7&#45;&gt;Node8</title>
<path fill="none" stroke="midnightblue" d="M867.581,-211C895.4,-211 934.41,-211 967.561,-211"/>
<polygon fill="midnightblue" stroke="midnightblue" points="967.642,-214.5 977.642,-211 967.642,-207.5 967.642,-214.5"/>
</g>
<!-- Node10 -->
<g id="node20" class="node"><title>Node10</title>
<a xlink:href="../../df/d91/cipconnectionobject_8c.html#ace0a978d1b7fe59261b1024b5ba1cd15" target="_top" xlink:title="ConnectionObjectSetState">
<polygon fill="none" stroke="black" points="764.5,-160.5 764.5,-181.5 897.5,-181.5 897.5,-160.5 764.5,-160.5"/>
<text text-anchor="middle" x="831" y="-168.5" font-family="Helvetica,sans-Serif" font-size="10.00">ConnectionObjectSetState</text>
</a>
</g>
<!-- Node9&#45;&gt;Node10 -->
<g id="edge20" class="edge"><title>Node9&#45;&gt;Node10</title>
<path fill="none" stroke="midnightblue" d="M680.797,-171C704.532,-171 730.48,-171 754.03,-171"/>
<polygon fill="midnightblue" stroke="midnightblue" points="754.313,-174.5 764.313,-171 754.313,-167.5 754.313,-174.5"/>
</g>
<!-- Node12 -->
<g id="node24" class="node"><title>Node12</title>
<a xlink:href="../../d9/ddc/doublylinkedlist_8c.html#a341e2f6faf7227650ed6e38e90cd047e" target="_top" xlink:title="DoublyLinkedListRemoveNode">
<polygon fill="none" stroke="black" points="755,-120.5 755,-141.5 907,-141.5 907,-120.5 755,-120.5"/>
<text text-anchor="middle" x="831" y="-128.5" font-family="Helvetica,sans-Serif" font-size="10.00">DoublyLinkedListRemoveNode</text>
</a>
</g>
<!-- Node11&#45;&gt;Node12 -->
<g id="edge24" class="edge"><title>Node11&#45;&gt;Node12</title>
<path fill="none" stroke="midnightblue" d="M680.153,-131C700.924,-131 723.428,-131 744.558,-131"/>
<polygon fill="midnightblue" stroke="midnightblue" points="744.808,-134.5 754.808,-131 744.808,-127.5 744.808,-134.5"/>
</g>
<!-- Node13 -->
<g id="node26" class="node"><title>Node13</title>
<a xlink:href="../../d9/ddc/doublylinkedlist_8c.html#a87710acb9f42fba14822fb824814105c" target="_top" xlink:title="DoublyLinkedListNodeDestroy">
<polygon fill="none" stroke="black" points="958.5,-120.5 958.5,-141.5 1107.5,-141.5 1107.5,-120.5 958.5,-120.5"/>
<text text-anchor="middle" x="1033" y="-128.5" font-family="Helvetica,sans-Serif" font-size="10.00">DoublyLinkedListNodeDestroy</text>
</a>
</g>
<!-- Node12&#45;&gt;Node13 -->
<g id="edge26" class="edge"><title>Node12&#45;&gt;Node13</title>
<path fill="none" stroke="midnightblue" d="M907.08,-131C920.448,-131 934.437,-131 948.029,-131"/>
<polygon fill="midnightblue" stroke="midnightblue" points="948.329,-134.5 958.329,-131 948.329,-127.5 948.329,-134.5"/>
</g>
<!-- Node16 -->
<g id="node32" class="node"><title>Node16</title>
<a xlink:href="../../df/d91/cipconnectionobject_8c.html#a0da85deed56477da3ec500cec51aa46e" target="_top" xlink:title="ConnectionObjectGetConnectionType">
<polygon fill="none" stroke="black" points="740,-80.5 740,-101.5 922,-101.5 922,-80.5 740,-80.5"/>
<text text-anchor="middle" x="831" y="-88.5" font-family="Helvetica,sans-Serif" font-size="10.00">ConnectionObjectGetConnectionType</text>
</a>
</g>
<!-- Node15&#45;&gt;Node16 -->
<g id="edge32" class="edge"><title>Node15&#45;&gt;Node16</title>
<path fill="none" stroke="midnightblue" d="M704.226,-91C712.632,-91 721.122,-91 729.514,-91"/>
<polygon fill="midnightblue" stroke="midnightblue" points="729.691,-94.5001 739.691,-91 729.691,-87.5001 729.691,-94.5001"/>
</g>
<!-- Node17&#45;&gt;Node15 -->
<g id="edge38" class="edge"><title>Node17&#45;&gt;Node15</title>
<path fill="none" stroke="midnightblue" d="M378.347,-61.5095C419.28,-66.9311 469.358,-73.5639 511.647,-79.1652"/>
<polygon fill="midnightblue" stroke="midnightblue" points="511.286,-82.6479 521.659,-80.4913 512.205,-75.7085 511.286,-82.6479"/>
</g>
<!-- Node18 -->
<g id="node36" class="node"><title>Node18</title>
<a xlink:href="../../df/d91/cipconnectionobject_8c.html#a9c381240583828bec2cda2d54dc94d3b" target="_top" xlink:title="ConnectionObjectGetState">
<polygon fill="none" stroke="black" points="534,-40.5 534,-61.5 668,-61.5 668,-40.5 534,-40.5"/>
<text text-anchor="middle" x="601" y="-48.5" font-family="Helvetica,sans-Serif" font-size="10.00">ConnectionObjectGetState</text>
</a>
</g>
<!-- Node17&#45;&gt;Node18 -->
<g id="edge36" class="edge"><title>Node17&#45;&gt;Node18</title>
<path fill="none" stroke="midnightblue" d="M390.02,-51C432.608,-51 482.798,-51 523.538,-51"/>
<polygon fill="midnightblue" stroke="midnightblue" points="523.682,-54.5001 533.682,-51 523.682,-47.5001 523.682,-54.5001"/>
</g>
<!-- Node19 -->
<g id="node39" class="node"><title>Node19</title>
<a xlink:href="../../df/d91/cipconnectionobject_8c.html#a4c3d0e8258e857f80e5b7111519f7daa" target="_top" xlink:title="ConnectionObjectIsTypeIOConnection">
<polygon fill="none" stroke="black" points="508.5,-0.5 508.5,-21.5 693.5,-21.5 693.5,-0.5 508.5,-0.5"/>
<text text-anchor="middle" x="601" y="-8.5" font-family="Helvetica,sans-Serif" font-size="10.00">ConnectionObjectIsTypeIOConnection</text>
</a>
</g>
<!-- Node17&#45;&gt;Node19 -->
<g id="edge40" class="edge"><title>Node17&#45;&gt;Node19</title>
<path fill="none" stroke="midnightblue" d="M378.347,-40.4905C419.28,-35.0689 469.358,-28.4361 511.647,-22.8348"/>
<polygon fill="midnightblue" stroke="midnightblue" points="512.205,-26.2915 521.659,-21.5087 511.286,-19.3521 512.205,-26.2915"/>
</g>
</g>
</svg>
        <g id="navigator" transform="translate(0 0)" fill="#404254">
                <rect fill="#f2f5e9" fill-opacity="0.5" stroke="#606060" stroke-width=".5" x="0" y="0" width="60" height="60"/>
                <use id="zoomplus" xlink:href="#zoomPlus" x="17" y="9" onmousedown="handleZoom(evt,'in')"/>
                <use id="zoomminus" xlink:href="#zoomMin" x="42" y="9" onmousedown="handleZoom(evt,'out')"/>
                <use id="reset" xlink:href="#resetDef" x="30" y="36" onmousedown="handleReset()"/>
                <g id="arrowUp" xlink:href="#dirArrow" transform="translate(30 24)" onmousedown="handlePan(0,-1)">
                  <use xlink:href="#rim" fill="#404040">
                        <set attributeName="fill" to="#808080" begin="arrowUp.mouseover" end="arrowUp.mouseout"/>
                  </use>
                  <path fill="none" stroke="white" stroke-width="1.5" d="M0,-3.0v7 M-2.5,-0.5L0,-3.0L2.5,-0.5"/>
                </g>
                <g id="arrowRight" xlink:href="#dirArrow" transform="rotate(90) translate(36 -43)" onmousedown="handlePan(1,0)">
                  <use xlink:href="#rim" fill="#404040">
                        <set attributeName="fill" to="#808080" begin="arrowRight.mouseover" end="arrowRight.mouseout"/>
                  </use>
                  <path fill="none" stroke="white" stroke-width="1.5" d="M0,-3.0v7 M-2.5,-0.5L0,-3.0L2.5,-0.5"/>
                </g>
                <g id="arrowDown" xlink:href="#dirArrow" transform="rotate(180) translate(-30 -48)" onmousedown="handlePan(0,1)">
                  <use xlink:href="#rim" fill="#404040">
                        <set attributeName="fill" to="#808080" begin="arrowDown.mouseover" end="arrowDown.mouseout"/>
                  </use>
                  <path fill="none" stroke="white" stroke-width="1.5" d="M0,-3.0v7 M-2.5,-0.5L0,-3.0L2.5,-0.5"/>
                </g>
                <g id="arrowLeft" xlink:href="#dirArrow" transform="rotate(270) translate(-36 17)" onmousedown="handlePan(-1,0)">
                  <use xlink:href="#rim" fill="#404040">
                        <set attributeName="fill" to="#808080" begin="arrowLeft.mouseover" end="arrowLeft.mouseout"/>
                  </use>
                  <path fill="none" stroke="white" stroke-width="1.5" d="M0,-3.0v7 M-2.5,-0.5L0,-3.0L2.5,-0.5"/>
                </g>
        </g>
</svg>
