<?xml version="1.0" encoding="UTF-8" standalone="no"?>
<!DOCTYPE svg PUBLIC "-//W3C//DTD SVG 1.1//EN"
 "http://www.w3.org/Graphics/SVG/1.1/DTD/svg11.dtd">
<!-- Generated by graphviz version 2.26.3 (20100126.1600)
 -->
<!-- Title: G Pages: 1 -->
<svg width="496pt" height="230pt"
 viewBox="0.00 0.00 496.00 230.00" xmlns="http://www.w3.org/2000/svg" xmlns:xlink="http://www.w3.org/1999/xlink">
<g id="graph1" class="graph" transform="scale(1 1) rotate(0) translate(4 226)">
<title>G</title>
<!-- Node1 -->
<g id="node1" class="node"><title>Node1</title>
<polygon fill="#bfbfbf" stroke="black" points="0.5,-70.5 0.5,-91.5 189.5,-91.5 189.5,-70.5 0.5,-70.5"/>
<text text-anchor="middle" x="95" y="-78.5" font-family="Helvetica,sans-Serif" font-size="10.00">OpenProducingPointToPointConnection</text>
</g>
<!-- Node2 -->
<g id="node3" class="node"><title>Node2</title>
<a xlink:href="../../d5/dc5/group__CIP__CALLBACK__API.html#ga5807bcc51621775c9aedbf58d3a7a6d3" target="_top" xlink:title="create a producing or consuming UDP socket">
<polygon fill="none" stroke="black" points="226.5,-100.5 226.5,-121.5 321.5,-121.5 321.5,-100.5 226.5,-100.5"/>
<text text-anchor="middle" x="274" y="-108.5" font-family="Helvetica,sans-Serif" font-size="10.00">CreateUdpSocket</text>
</a>
</g>
<!-- Node1&#45;&gt;Node2 -->
<g id="edge2" class="edge"><title>Node1&#45;&gt;Node2</title>
<path fill="none" stroke="midnightblue" d="M157.857,-91.5347C176.811,-94.7114 197.52,-98.182 216.133,-101.302"/>
<polygon fill="midnightblue" stroke="midnightblue" points="215.793,-104.793 226.234,-102.994 216.95,-97.8896 215.793,-104.793"/>
</g>
<!-- Node8 -->
<g id="node15" class="node"><title>Node8</title>
<a xlink:href="../../d5/d35/cipconnectionmanager_8c.html#a3483de0add18746a97785ed4f21ad2b1" target="_top" xlink:title="GetPriorityForQos">
<polygon fill="none" stroke="black" points="226.5,-40.5 226.5,-61.5 321.5,-61.5 321.5,-40.5 226.5,-40.5"/>
<text text-anchor="middle" x="274" y="-48.5" font-family="Helvetica,sans-Serif" font-size="10.00">GetPriorityForQos</text>
</a>
</g>
<!-- Node1&#45;&gt;Node8 -->
<g id="edge14" class="edge"><title>Node1&#45;&gt;Node8</title>
<path fill="none" stroke="midnightblue" d="M157.857,-70.4653C176.811,-67.2886 197.52,-63.818 216.133,-60.6984"/>
<polygon fill="midnightblue" stroke="midnightblue" points="216.95,-64.1104 226.234,-59.0055 215.793,-57.2067 216.95,-64.1104"/>
</g>
<!-- Node3 -->
<g id="node5" class="node"><title>Node3</title>
<a xlink:href="../../df/d94/opener__error_8h.html#afbc52bcd5256264e75ba063f2e361e24" target="_top" xlink:title="Gets the error number or equivalent.">
<polygon fill="none" stroke="black" points="363.5,-200.5 363.5,-221.5 482.5,-221.5 482.5,-200.5 363.5,-200.5"/>
<text text-anchor="middle" x="423" y="-208.5" font-family="Helvetica,sans-Serif" font-size="10.00">GetSocketErrorNumber</text>
</a>
</g>
<!-- Node2&#45;&gt;Node3 -->
<g id="edge4" class="edge"><title>Node2&#45;&gt;Node3</title>
<path fill="none" stroke="midnightblue" d="M282.381,-121.703C296.299,-138.778 325.85,-172.173 358,-191 361.611,-193.114 365.467,-195.026 369.432,-196.752"/>
<polygon fill="midnightblue" stroke="midnightblue" points="368.23,-200.04 378.817,-200.447 370.794,-193.527 368.23,-200.04"/>
</g>
<!-- Node4 -->
<g id="node7" class="node"><title>Node4</title>
<a xlink:href="../../df/d94/opener__error_8h.html#a0df2625909cb28076bc7df8e6c9cfcae" target="_top" xlink:title="Returns a human readable message for the given error number.">
<polygon fill="none" stroke="black" points="376.5,-160.5 376.5,-181.5 469.5,-181.5 469.5,-160.5 376.5,-160.5"/>
<text text-anchor="middle" x="423" y="-168.5" font-family="Helvetica,sans-Serif" font-size="10.00">GetErrorMessage</text>
</a>
</g>
<!-- Node2&#45;&gt;Node4 -->
<g id="edge6" class="edge"><title>Node2&#45;&gt;Node4</title>
<path fill="none" stroke="midnightblue" d="M294.004,-121.544C310.798,-130.147 335.574,-142.264 358,-151 363.568,-153.169 369.475,-155.262 375.369,-157.224"/>
<polygon fill="midnightblue" stroke="midnightblue" points="374.622,-160.661 385.214,-160.394 376.768,-153.998 374.622,-160.661"/>
</g>
<!-- Node5 -->
<g id="node9" class="node"><title>Node5</title>
<a xlink:href="../../df/d94/opener__error_8h.html#a99f5295ad12a2b986bab4b89a24cfc20" target="_top" xlink:title="Frees the space of the error message generated by GetErrorMessage(int)">
<polygon fill="none" stroke="black" points="374.5,-120.5 374.5,-141.5 471.5,-141.5 471.5,-120.5 374.5,-120.5"/>
<text text-anchor="middle" x="423" y="-128.5" font-family="Helvetica,sans-Serif" font-size="10.00">FreeErrorMessage</text>
</a>
</g>
<!-- Node2&#45;&gt;Node5 -->
<g id="edge8" class="edge"><title>Node2&#45;&gt;Node5</title>
<path fill="none" stroke="midnightblue" d="M321.554,-117.383C335.124,-119.205 350.072,-121.211 364.226,-123.111"/>
<polygon fill="midnightblue" stroke="midnightblue" points="363.985,-126.61 374.362,-124.471 364.916,-119.672 363.985,-126.61"/>
</g>
<!-- Node6 -->
<g id="node11" class="node"><title>Node6</title>
<a xlink:href="../../d2/d5e/POSIX_2networkhandler_8c.html#a4af2b184144f7d807e8157ee8b474ecf" target="_top" xlink:title="SetSocketToNonBlocking">
<polygon fill="none" stroke="black" points="358.5,-80.5 358.5,-101.5 487.5,-101.5 487.5,-80.5 358.5,-80.5"/>
<text text-anchor="middle" x="423" y="-88.5" font-family="Helvetica,sans-Serif" font-size="10.00">SetSocketToNonBlocking</text>
</a>
</g>
<!-- Node2&#45;&gt;Node6 -->
<g id="edge10" class="edge"><title>Node2&#45;&gt;Node6</title>
<path fill="none" stroke="midnightblue" d="M321.554,-104.617C330.032,-103.479 339.047,-102.269 348.071,-101.058"/>
<polygon fill="midnightblue" stroke="midnightblue" points="348.789,-104.493 358.235,-99.6933 347.858,-97.5549 348.789,-104.493"/>
</g>
<!-- Node7 -->
<g id="node13" class="node"><title>Node7</title>
<a xlink:href="../../d2/d5e/POSIX_2networkhandler_8c.html#a0db6c2ead1606d25fb6d9151e5c08d09" target="_top" xlink:title="SetQosOnSocket">
<polygon fill="none" stroke="black" points="376.5,-40.5 376.5,-61.5 469.5,-61.5 469.5,-40.5 376.5,-40.5"/>
<text text-anchor="middle" x="423" y="-48.5" font-family="Helvetica,sans-Serif" font-size="10.00">SetQosOnSocket</text>
</a>
</g>
<!-- Node2&#45;&gt;Node7 -->
<g id="edge12" class="edge"><title>Node2&#45;&gt;Node7</title>
<path fill="none" stroke="midnightblue" d="M294.004,-100.456C310.798,-91.8529 335.574,-79.7357 358,-71 363.568,-68.8311 369.475,-66.7381 375.369,-64.7757"/>
<polygon fill="midnightblue" stroke="midnightblue" points="376.768,-68.0024 385.214,-61.6063 374.622,-61.3391 376.768,-68.0024"/>
</g>
<!-- Node9 -->
<g id="node17" class="node"><title>Node9</title>
<a xlink:href="../../dd/d34/cipqos_8c.html#a55b61b74431c08421a73941bda44702f" target="_top" xlink:title="Initializing the data structures of the TCP/IP interface object.">
<polygon fill="none" stroke="black" points="369,-0.5 369,-21.5 477,-21.5 477,-0.5 369,-0.5"/>
<text text-anchor="middle" x="423" y="-8.5" font-family="Helvetica,sans-Serif" font-size="10.00">GetPriorityForSocket</text>
</a>
</g>
<!-- Node8&#45;&gt;Node9 -->
<g id="edge16" class="edge"><title>Node8&#45;&gt;Node9</title>
<path fill="none" stroke="midnightblue" d="M313.148,-40.4905C331.81,-35.4807 354.324,-29.4366 374.099,-24.1279"/>
<polygon fill="midnightblue" stroke="midnightblue" points="375.105,-27.4819 383.855,-21.5087 373.29,-20.7212 375.105,-27.4819"/>
</g>
</g>
</svg>
