<?xml version="1.0" encoding="UTF-8" standalone="no"?>
<!DOCTYPE svg PUBLIC "-//W3C//DTD SVG 1.1//EN"
 "http://www.w3.org/Graphics/SVG/1.1/DTD/svg11.dtd">
<!-- Generated by graphviz version 2.26.3 (20100126.1600)
 -->
<!-- Title: G Pages: 1 -->
<svg width="436pt" height="230pt"
 viewBox="0.00 0.00 436.00 230.00" xmlns="http://www.w3.org/2000/svg" xmlns:xlink="http://www.w3.org/1999/xlink">
<g id="graph1" class="graph" transform="scale(1 1) rotate(0) translate(4 226)">
<title>G</title>
<!-- Node1 -->
<g id="node1" class="node"><title>Node1</title>
<polygon fill="#bfbfbf" stroke="black" points="0.5,-70.5 0.5,-91.5 129.5,-91.5 129.5,-70.5 0.5,-70.5"/>
<text text-anchor="middle" x="65" y="-78.5" font-family="Helvetica,sans-Serif" font-size="10.00">OpenMulticastConnection</text>
</g>
<!-- Node2 -->
<g id="node3" class="node"><title>Node2</title>
<a xlink:href="../../d5/dc5/group__CIP__CALLBACK__API.html#ga5807bcc51621775c9aedbf58d3a7a6d3" target="_top" xlink:title="create a producing or consuming UDP socket">
<polygon fill="none" stroke="black" points="166.5,-100.5 166.5,-121.5 261.5,-121.5 261.5,-100.5 166.5,-100.5"/>
<text text-anchor="middle" x="214" y="-108.5" font-family="Helvetica,sans-Serif" font-size="10.00">CreateUdpSocket</text>
</a>
</g>
<!-- Node1&#45;&gt;Node2 -->
<g id="edge2" class="edge"><title>Node1&#45;&gt;Node2</title>
<path fill="none" stroke="midnightblue" d="M117.532,-91.5769C130.093,-94.106 143.569,-96.8193 156.348,-99.3922"/>
<polygon fill="midnightblue" stroke="midnightblue" points="155.921,-102.876 166.415,-101.419 157.303,-96.0142 155.921,-102.876"/>
</g>
<!-- Node8 -->
<g id="node15" class="node"><title>Node8</title>
<a xlink:href="../../d5/d35/cipconnectionmanager_8c.html#a3483de0add18746a97785ed4f21ad2b1" target="_top" xlink:title="GetPriorityForQos">
<polygon fill="none" stroke="black" points="166.5,-40.5 166.5,-61.5 261.5,-61.5 261.5,-40.5 166.5,-40.5"/>
<text text-anchor="middle" x="214" y="-48.5" font-family="Helvetica,sans-Serif" font-size="10.00">GetPriorityForQos</text>
</a>
</g>
<!-- Node1&#45;&gt;Node8 -->
<g id="edge14" class="edge"><title>Node1&#45;&gt;Node8</title>
<path fill="none" stroke="midnightblue" d="M117.532,-70.4231C130.093,-67.894 143.569,-65.1807 156.348,-62.6078"/>
<polygon fill="midnightblue" stroke="midnightblue" points="157.303,-65.9858 166.415,-60.5808 155.921,-59.1235 157.303,-65.9858"/>
</g>
<!-- Node3 -->
<g id="node5" class="node"><title>Node3</title>
<a xlink:href="../../df/d94/opener__error_8h.html#afbc52bcd5256264e75ba063f2e361e24" target="_top" xlink:title="Gets the error number or equivalent.">
<polygon fill="none" stroke="black" points="303.5,-200.5 303.5,-221.5 422.5,-221.5 422.5,-200.5 303.5,-200.5"/>
<text text-anchor="middle" x="363" y="-208.5" font-family="Helvetica,sans-Serif" font-size="10.00">GetSocketErrorNumber</text>
</a>
</g>
<!-- Node2&#45;&gt;Node3 -->
<g id="edge4" class="edge"><title>Node2&#45;&gt;Node3</title>
<path fill="none" stroke="midnightblue" d="M222.381,-121.703C236.299,-138.778 265.85,-172.173 298,-191 301.611,-193.114 305.467,-195.026 309.432,-196.752"/>
<polygon fill="midnightblue" stroke="midnightblue" points="308.23,-200.04 318.817,-200.447 310.794,-193.527 308.23,-200.04"/>
</g>
<!-- Node4 -->
<g id="node7" class="node"><title>Node4</title>
<a xlink:href="../../df/d94/opener__error_8h.html#a0df2625909cb28076bc7df8e6c9cfcae" target="_top" xlink:title="Returns a human readable message for the given error number.">
<polygon fill="none" stroke="black" points="316.5,-160.5 316.5,-181.5 409.5,-181.5 409.5,-160.5 316.5,-160.5"/>
<text text-anchor="middle" x="363" y="-168.5" font-family="Helvetica,sans-Serif" font-size="10.00">GetErrorMessage</text>
</a>
</g>
<!-- Node2&#45;&gt;Node4 -->
<g id="edge6" class="edge"><title>Node2&#45;&gt;Node4</title>
<path fill="none" stroke="midnightblue" d="M234.004,-121.544C250.798,-130.147 275.574,-142.264 298,-151 303.568,-153.169 309.475,-155.262 315.369,-157.224"/>
<polygon fill="midnightblue" stroke="midnightblue" points="314.622,-160.661 325.214,-160.394 316.768,-153.998 314.622,-160.661"/>
</g>
<!-- Node5 -->
<g id="node9" class="node"><title>Node5</title>
<a xlink:href="../../df/d94/opener__error_8h.html#a99f5295ad12a2b986bab4b89a24cfc20" target="_top" xlink:title="Frees the space of the error message generated by GetErrorMessage(int)">
<polygon fill="none" stroke="black" points="314.5,-120.5 314.5,-141.5 411.5,-141.5 411.5,-120.5 314.5,-120.5"/>
<text text-anchor="middle" x="363" y="-128.5" font-family="Helvetica,sans-Serif" font-size="10.00">FreeErrorMessage</text>
</a>
</g>
<!-- Node2&#45;&gt;Node5 -->
<g id="edge8" class="edge"><title>Node2&#45;&gt;Node5</title>
<path fill="none" stroke="midnightblue" d="M261.554,-117.383C275.124,-119.205 290.072,-121.211 304.226,-123.111"/>
<polygon fill="midnightblue" stroke="midnightblue" points="303.985,-126.61 314.362,-124.471 304.916,-119.672 303.985,-126.61"/>
</g>
<!-- Node6 -->
<g id="node11" class="node"><title>Node6</title>
<a xlink:href="../../d2/d5e/POSIX_2networkhandler_8c.html#a4af2b184144f7d807e8157ee8b474ecf" target="_top" xlink:title="SetSocketToNonBlocking">
<polygon fill="none" stroke="black" points="298.5,-80.5 298.5,-101.5 427.5,-101.5 427.5,-80.5 298.5,-80.5"/>
<text text-anchor="middle" x="363" y="-88.5" font-family="Helvetica,sans-Serif" font-size="10.00">SetSocketToNonBlocking</text>
</a>
</g>
<!-- Node2&#45;&gt;Node6 -->
<g id="edge10" class="edge"><title>Node2&#45;&gt;Node6</title>
<path fill="none" stroke="midnightblue" d="M261.554,-104.617C270.032,-103.479 279.047,-102.269 288.071,-101.058"/>
<polygon fill="midnightblue" stroke="midnightblue" points="288.789,-104.493 298.235,-99.6933 287.858,-97.5549 288.789,-104.493"/>
</g>
<!-- Node7 -->
<g id="node13" class="node"><title>Node7</title>
<a xlink:href="../../d2/d5e/POSIX_2networkhandler_8c.html#a0db6c2ead1606d25fb6d9151e5c08d09" target="_top" xlink:title="SetQosOnSocket">
<polygon fill="none" stroke="black" points="316.5,-40.5 316.5,-61.5 409.5,-61.5 409.5,-40.5 316.5,-40.5"/>
<text text-anchor="middle" x="363" y="-48.5" font-family="Helvetica,sans-Serif" font-size="10.00">SetQosOnSocket</text>
</a>
</g>
<!-- Node2&#45;&gt;Node7 -->
<g id="edge12" class="edge"><title>Node2&#45;&gt;Node7</title>
<path fill="none" stroke="midnightblue" d="M234.004,-100.456C250.798,-91.8529 275.574,-79.7357 298,-71 303.568,-68.8311 309.475,-66.7381 315.369,-64.7757"/>
<polygon fill="midnightblue" stroke="midnightblue" points="316.768,-68.0024 325.214,-61.6063 314.622,-61.3391 316.768,-68.0024"/>
</g>
<!-- Node9 -->
<g id="node17" class="node"><title>Node9</title>
<a xlink:href="../../dd/d34/cipqos_8c.html#a55b61b74431c08421a73941bda44702f" target="_top" xlink:title="Initializing the data structures of the TCP/IP interface object.">
<polygon fill="none" stroke="black" points="309,-0.5 309,-21.5 417,-21.5 417,-0.5 309,-0.5"/>
<text text-anchor="middle" x="363" y="-8.5" font-family="Helvetica,sans-Serif" font-size="10.00">GetPriorityForSocket</text>
</a>
</g>
<!-- Node8&#45;&gt;Node9 -->
<g id="edge16" class="edge"><title>Node8&#45;&gt;Node9</title>
<path fill="none" stroke="midnightblue" d="M253.148,-40.4905C271.81,-35.4807 294.324,-29.4366 314.099,-24.1279"/>
<polygon fill="midnightblue" stroke="midnightblue" points="315.105,-27.4819 323.855,-21.5087 313.29,-20.7212 315.105,-27.4819"/>
</g>
</g>
</svg>
