<?xml version="1.0" encoding="UTF-8" standalone="no"?>
<!DOCTYPE svg PUBLIC "-//W3C//DTD SVG 1.1//EN"
 "http://www.w3.org/Graphics/SVG/1.1/DTD/svg11.dtd">
<!-- Generated by graphviz version 2.36.0 (20140111.2315)
 -->
<!-- Title: HandleIoConnectionTimeOut Pages: 1 -->
<!--zoomable 418 -->
<svg id="main" version="1.1" xmlns="http://www.w3.org/2000/svg" xmlns:xlink="http://www.w3.org/1999/xlink" xml:space="preserve" onload="init(evt)">
<style type="text/css"><![CDATA[
.edge:hover path { stroke: red; }
.edge:hover polygon { stroke: red; fill: red; }
]]></style>
<script type="text/javascript"><![CDATA[
var edges = document.getElementsByTagName('g');
if (edges && edges.length) {
  for (var i=0;i<edges.length;i++) {
    if (edges[i].id.substr(0,4)=='edge') {
      edges[i].setAttribute('class','edge');
    }
  }
}
]]></script>
        <defs>
                <circle id="rim" cx="0" cy="0" r="7"/>
                <circle id="rim2" cx="0" cy="0" r="3.5"/>
                <g id="zoomPlus">
                        <use xlink:href="#rim" fill="#404040">
                                <set attributeName="fill" to="#808080" begin="zoomplus.mouseover" end="zoomplus.mouseout"/>
                        </use>
                        <path d="M-4,0h8M0,-4v8" fill="none" stroke="white" stroke-width="1.5" pointer-events="none"/>
                </g>
                <g id="zoomMin">
                        <use xlink:href="#rim" fill="#404040">
                                <set attributeName="fill" to="#808080" begin="zoomminus.mouseover" end="zoomminus.mouseout"/>
                        </use>
                        <path d="M-4,0h8" fill="none" stroke="white" stroke-width="1.5" pointer-events="none"/>
                </g>
                <g id="dirArrow">
                        <path fill="none" stroke="white" stroke-width="1.5" d="M0,-3.0v7 M-2.5,-0.5L0,-3.0L2.5,-0.5"/>
                </g>
               <g id="resetDef">
                       <use xlink:href="#rim2" fill="#404040">
                               <set attributeName="fill" to="#808080" begin="reset.mouseover" end="reset.mouseout"/>
                       </use>
               </g>
        </defs>

<script type="text/javascript">
var viewWidth = 1318;
var viewHeight = 418;
var sectionId = 'dynsection-9';
</script>
<script xlink:href="../../svgpan.js"/>
<svg id="graph" class="graph">
<g id="viewport">
<title>HandleIoConnectionTimeOut</title>
<!-- Node1 -->
<g id="node1" class="node"><title>Node1</title>
<polygon fill="#bfbfbf" stroke="black" points="0.5,-126.5 0.5,-145.5 143.5,-145.5 143.5,-126.5 0.5,-126.5"/>
<text text-anchor="middle" x="72" y="-133.5" font-family="Helvetica,sans-Serif" font-size="10.00">HandleIoConnectionTimeOut</text>
</g>
<!-- Node2 -->
<g id="node2" class="node"><title>Node2</title>
<g id="a_node2"><a xlink:href="../../d5/d35/cipconnectionmanager_8c.html#a17f02ee599fad222d6c2a97da7020f1e" target="_top" xlink:title="CheckForTimedOutConnections\lAndCloseTCPConnections">
<polygon fill="none" stroke="black" points="192.5,-257 192.5,-287 349.5,-287 349.5,-257 192.5,-257"/>
<text text-anchor="start" x="200.5" y="-275" font-family="Helvetica,sans-Serif" font-size="10.00">CheckForTimedOutConnections</text>
<text text-anchor="middle" x="271" y="-264" font-family="Helvetica,sans-Serif" font-size="10.00">AndCloseTCPConnections</text>
</a>
</g>
</g>
<!-- Node1&#45;&gt;Node2 -->
<g id="edge1" class="edge"><title>Node1&#45;&gt;Node2</title>
<path fill="none" stroke="midnightblue" d="M81.9493,-145.678C99.4037,-164.136 139.812,-204.855 180,-231 192.629,-239.216 207.175,-246.617 220.84,-252.796"/>
<polygon fill="midnightblue" stroke="midnightblue" points="219.561,-256.057 230.124,-256.874 222.376,-249.648 219.561,-256.057"/>
</g>
<!-- Node13 -->
<g id="node13" class="node"><title>Node13</title>
<g id="a_node13"><a xlink:href="../../d5/dc5/group__CIP__CALLBACK__API.html#gac9c9ad2c2254b783e7b447bd84eba8c0" target="_top" xlink:title="Inform the application on changes occurred for a connection. ">
<polygon fill="none" stroke="black" points="437,-104.5 437,-123.5 565,-123.5 565,-104.5 437,-104.5"/>
<text text-anchor="middle" x="501" y="-111.5" font-family="Helvetica,sans-Serif" font-size="10.00">CheckIoConnectionEvent</text>
</a>
</g>
</g>
<!-- Node1&#45;&gt;Node13 -->
<g id="edge12" class="edge"><title>Node1&#45;&gt;Node13</title>
<path fill="none" stroke="midnightblue" d="M143.51,-132.367C221.607,-128.343 346.946,-121.886 426.302,-117.797"/>
<polygon fill="midnightblue" stroke="midnightblue" points="426.897,-121.271 436.704,-117.261 426.537,-114.28 426.897,-121.271"/>
</g>
<!-- Node14 -->
<g id="node14" class="node"><title>Node14</title>
<g id="a_node14"><a xlink:href="../../d1/dbc/appcontype_8c.html#a1181149fe4f853e43552e0b50e2f4d23" target="_top" xlink:title="Close all connection producing the same input and have the same type (i.e., listen only or input only...">
<polygon fill="none" stroke="black" points="199,-77 199,-107 343,-107 343,-77 199,-77"/>
<text text-anchor="start" x="207" y="-95" font-family="Helvetica,sans-Serif" font-size="10.00">CloseAllConnectionsForInput</text>
<text text-anchor="middle" x="271" y="-84" font-family="Helvetica,sans-Serif" font-size="10.00">WithSameType</text>
</a>
</g>
</g>
<!-- Node1&#45;&gt;Node14 -->
<g id="edge13" class="edge"><title>Node1&#45;&gt;Node14</title>
<path fill="none" stroke="midnightblue" d="M115.746,-126.453C138.223,-121.432 166.475,-115.122 192.639,-109.279"/>
<polygon fill="midnightblue" stroke="midnightblue" points="193.552,-112.661 202.548,-107.065 192.026,-105.829 193.552,-112.661"/>
</g>
<!-- Node15 -->
<g id="node15" class="node"><title>Node15</title>
<g id="a_node15"><a xlink:href="../../df/d91/cipconnectionobject_8c.html#a64d3a78bd3f520b632b04697bd0b2767" target="_top" xlink:title="ConnectionObjectGetInstanceType">
<polygon fill="none" stroke="black" points="186,-38.5 186,-57.5 356,-57.5 356,-38.5 186,-38.5"/>
<text text-anchor="middle" x="271" y="-45.5" font-family="Helvetica,sans-Serif" font-size="10.00">ConnectionObjectGetInstanceType</text>
</a>
</g>
</g>
<!-- Node1&#45;&gt;Node15 -->
<g id="edge15" class="edge"><title>Node1&#45;&gt;Node15</title>
<path fill="none" stroke="midnightblue" d="M85.0608,-126.323C104.097,-111.533 142.783,-83.4028 180,-68 187.36,-64.9539 195.26,-62.3364 203.211,-60.0958"/>
<polygon fill="midnightblue" stroke="midnightblue" points="204.122,-63.4753 212.903,-57.5463 202.341,-56.7056 204.122,-63.4753"/>
</g>
<!-- Node16 -->
<g id="node16" class="node"><title>Node16</title>
<g id="a_node16"><a xlink:href="../../df/d91/cipconnectionobject_8c.html#ad61ad2b2c18480a141e5df346e32be02" target="_top" xlink:title="ConnectionObjectGetTToOConnectionType">
<polygon fill="none" stroke="black" points="398,-164.5 398,-183.5 604,-183.5 604,-164.5 398,-164.5"/>
<text text-anchor="middle" x="501" y="-171.5" font-family="Helvetica,sans-Serif" font-size="10.00">ConnectionObjectGetTToOConnectionType</text>
</a>
</g>
</g>
<!-- Node1&#45;&gt;Node16 -->
<g id="edge16" class="edge"><title>Node1&#45;&gt;Node16</title>
<path fill="none" stroke="midnightblue" d="M143.51,-142.275C209.819,-148.176 310.185,-157.108 387.545,-163.992"/>
<polygon fill="midnightblue" stroke="midnightblue" points="387.549,-167.506 397.82,-164.907 388.17,-160.534 387.549,-167.506"/>
</g>
<!-- Node18 -->
<g id="node18" class="node"><title>Node18</title>
<g id="a_node18"><a xlink:href="../../df/d91/cipconnectionobject_8c.html#ace0a978d1b7fe59261b1024b5ba1cd15" target="_top" xlink:title="ConnectionObjectSetState">
<polygon fill="none" stroke="black" points="204.5,-0.5 204.5,-19.5 337.5,-19.5 337.5,-0.5 204.5,-0.5"/>
<text text-anchor="middle" x="271" y="-7.5" font-family="Helvetica,sans-Serif" font-size="10.00">ConnectionObjectSetState</text>
</a>
</g>
</g>
<!-- Node1&#45;&gt;Node18 -->
<g id="edge18" class="edge"><title>Node1&#45;&gt;Node18</title>
<path fill="none" stroke="midnightblue" d="M79.4892,-126.474C94.4833,-105.262 133.808,-54.0389 180,-29 184.62,-26.4958 189.539,-24.3214 194.604,-22.4334"/>
<polygon fill="midnightblue" stroke="midnightblue" points="196.102,-25.6237 204.485,-19.1445 193.891,-18.982 196.102,-25.6237"/>
</g>
<!-- Node19 -->
<g id="node19" class="node"><title>Node19</title>
<g id="a_node19"><a xlink:href="../../d1/dbc/appcontype_8c.html#acda34462cc2d60ebb7b48a633bfe3c49" target="_top" xlink:title="check if there exists an producing multicast exclusive owner or listen only connection that should pr...">
<polygon fill="none" stroke="black" points="180,-202.5 180,-221.5 362,-221.5 362,-202.5 180,-202.5"/>
<text text-anchor="middle" x="271" y="-209.5" font-family="Helvetica,sans-Serif" font-size="10.00">GetNextNonControlMasterConnection</text>
</a>
</g>
</g>
<!-- Node1&#45;&gt;Node19 -->
<g id="edge19" class="edge"><title>Node1&#45;&gt;Node19</title>
<path fill="none" stroke="midnightblue" d="M89.9729,-145.514C110.708,-156.836 147.096,-175.747 180,-188 191.958,-192.453 205.094,-196.441 217.547,-199.828"/>
<polygon fill="midnightblue" stroke="midnightblue" points="216.79,-203.248 227.352,-202.412 218.574,-196.479 216.79,-203.248"/>
</g>
<!-- Node3 -->
<g id="node3" class="node"><title>Node3</title>
<g id="a_node3"><a xlink:href="../../d2/dbd/encap_8c.html#a0101714be726ab1b21125b6a82ac7a56" target="_top" xlink:title="CloseEncapsulationSession\lBySockAddr">
<polygon fill="none" stroke="black" points="431.5,-317 431.5,-347 570.5,-347 570.5,-317 431.5,-317"/>
<text text-anchor="start" x="439.5" y="-335" font-family="Helvetica,sans-Serif" font-size="10.00">CloseEncapsulationSession</text>
<text text-anchor="middle" x="501" y="-324" font-family="Helvetica,sans-Serif" font-size="10.00">BySockAddr</text>
</a>
</g>
</g>
<!-- Node2&#45;&gt;Node3 -->
<g id="edge2" class="edge"><title>Node2&#45;&gt;Node3</title>
<path fill="none" stroke="midnightblue" d="M324.625,-287.005C347.177,-293.335 373.838,-300.685 398,-307 407.526,-309.49 417.571,-312.041 427.493,-314.518"/>
<polygon fill="midnightblue" stroke="midnightblue" points="426.802,-317.953 437.35,-316.965 428.488,-311.159 426.802,-317.953"/>
</g>
<!-- Node11 -->
<g id="node11" class="node"><title>Node11</title>
<g id="a_node11"><a xlink:href="../../df/d91/cipconnectionobject_8c.html#a308afe67f0cfd50cc772ad276257d6f2" target="_top" xlink:title="ConnectionObjectEqualOriginator">
<polygon fill="none" stroke="black" points="420.5,-278.5 420.5,-297.5 581.5,-297.5 581.5,-278.5 420.5,-278.5"/>
<text text-anchor="middle" x="501" y="-285.5" font-family="Helvetica,sans-Serif" font-size="10.00">ConnectionObjectEqualOriginator</text>
</a>
</g>
</g>
<!-- Node2&#45;&gt;Node11 -->
<g id="edge10" class="edge"><title>Node2&#45;&gt;Node11</title>
<path fill="none" stroke="midnightblue" d="M349.509,-277.439C369.056,-278.811 390.204,-280.295 410.296,-281.705"/>
<polygon fill="midnightblue" stroke="midnightblue" points="410.156,-285.204 420.376,-282.412 410.646,-278.221 410.156,-285.204"/>
</g>
<!-- Node12 -->
<g id="node12" class="node"><title>Node12</title>
<g id="a_node12"><a xlink:href="../../df/d91/cipconnectionobject_8c.html#a9c381240583828bec2cda2d54dc94d3b" target="_top" xlink:title="ConnectionObjectGetState">
<polygon fill="none" stroke="black" points="434,-240.5 434,-259.5 568,-259.5 568,-240.5 434,-240.5"/>
<text text-anchor="middle" x="501" y="-247.5" font-family="Helvetica,sans-Serif" font-size="10.00">ConnectionObjectGetState</text>
</a>
</g>
</g>
<!-- Node2&#45;&gt;Node12 -->
<g id="edge11" class="edge"><title>Node2&#45;&gt;Node12</title>
<path fill="none" stroke="midnightblue" d="M349.509,-264.521C373.456,-262.21 399.805,-259.668 423.672,-257.365"/>
<polygon fill="midnightblue" stroke="midnightblue" points="424.117,-260.838 433.735,-256.394 423.445,-253.871 424.117,-260.838"/>
</g>
<!-- Node4 -->
<g id="node4" class="node"><title>Node4</title>
<g id="a_node4"><a xlink:href="../../d2/dc9/group__CIP__API.html#gab9ff230d61fc6dedd90f8b95e9a27707" target="_top" xlink:title="Inform the encapsulation layer that the remote host has closed the connection. ">
<polygon fill="none" stroke="black" points="692.5,-322.5 692.5,-341.5 769.5,-341.5 769.5,-322.5 692.5,-322.5"/>
<text text-anchor="middle" x="731" y="-329.5" font-family="Helvetica,sans-Serif" font-size="10.00">CloseSession</text>
</a>
</g>
</g>
<!-- Node3&#45;&gt;Node4 -->
<g id="edge3" class="edge"><title>Node3&#45;&gt;Node4</title>
<path fill="none" stroke="midnightblue" d="M570.717,-332C606.684,-332 649.833,-332 682.144,-332"/>
<polygon fill="midnightblue" stroke="midnightblue" points="682.231,-335.5 692.231,-332 682.231,-328.5 682.231,-335.5"/>
</g>
<!-- Node5 -->
<g id="node5" class="node"><title>Node5</title>
<g id="a_node5"><a xlink:href="../../db/d4f/generic__networkhandler_8c.html#a1bfa5ef8e4802716459a56567ee16592" target="_top" xlink:title="CloseTcpSocket">
<polygon fill="none" stroke="black" points="858.5,-322.5 858.5,-341.5 947.5,-341.5 947.5,-322.5 858.5,-322.5"/>
<text text-anchor="middle" x="903" y="-329.5" font-family="Helvetica,sans-Serif" font-size="10.00">CloseTcpSocket</text>
</a>
</g>
</g>
<!-- Node4&#45;&gt;Node5 -->
<g id="edge4" class="edge"><title>Node4&#45;&gt;Node5</title>
<path fill="none" stroke="midnightblue" d="M769.729,-332C792.769,-332 822.605,-332 848.108,-332"/>
<polygon fill="midnightblue" stroke="midnightblue" points="848.373,-335.5 858.373,-332 848.373,-328.5 848.373,-335.5"/>
</g>
<!-- Node6 -->
<g id="node6" class="node"><title>Node6</title>
<g id="a_node6"><a xlink:href="../../db/d4f/generic__networkhandler_8c.html#aea539a75995234e379a1c25019ba378f" target="_top" xlink:title="RemoveSocketTimerFromList">
<polygon fill="none" stroke="black" points="984.5,-341.5 984.5,-360.5 1131.5,-360.5 1131.5,-341.5 984.5,-341.5"/>
<text text-anchor="middle" x="1058" y="-348.5" font-family="Helvetica,sans-Serif" font-size="10.00">RemoveSocketTimerFromList</text>
</a>
</g>
</g>
<!-- Node5&#45;&gt;Node6 -->
<g id="edge5" class="edge"><title>Node5&#45;&gt;Node6</title>
<path fill="none" stroke="midnightblue" d="M947.844,-337.445C956.12,-338.472 965.024,-339.578 974.049,-340.699"/>
<polygon fill="midnightblue" stroke="midnightblue" points="973.907,-344.208 984.262,-341.967 974.77,-337.261 973.907,-344.208"/>
</g>
<!-- Node9 -->
<g id="node9" class="node"><title>Node9</title>
<g id="a_node9"><a xlink:href="../../d5/dc5/group__CIP__CALLBACK__API.html#gaf4d26c1bca26c2e6e73481d57762df36" target="_top" xlink:title="Close the given socket and clean up the stack. ">
<polygon fill="none" stroke="black" points="1021.5,-303.5 1021.5,-322.5 1094.5,-322.5 1094.5,-303.5 1021.5,-303.5"/>
<text text-anchor="middle" x="1058" y="-310.5" font-family="Helvetica,sans-Serif" font-size="10.00">CloseSocket</text>
</a>
</g>
</g>
<!-- Node5&#45;&gt;Node9 -->
<g id="edge8" class="edge"><title>Node5&#45;&gt;Node9</title>
<path fill="none" stroke="midnightblue" d="M947.844,-326.555C967.695,-324.09 991.159,-321.176 1011.23,-318.683"/>
<polygon fill="midnightblue" stroke="midnightblue" points="1011.9,-322.128 1021.39,-317.422 1011.03,-315.182 1011.9,-322.128"/>
</g>
<!-- Node7 -->
<g id="node7" class="node"><title>Node7</title>
<g id="a_node7"><a xlink:href="../../d4/df6/socket__timer_8c.html#abe7542fdec4d4e4893a8c712192529ca" target="_top" xlink:title="Get the Socket Timer entry with the spezified socket value. ">
<polygon fill="none" stroke="black" points="1168,-380 1168,-410 1310,-410 1310,-380 1168,-380"/>
<text text-anchor="start" x="1176" y="-398" font-family="Helvetica,sans-Serif" font-size="10.00">SocketTimerArrayGetSocket</text>
<text text-anchor="middle" x="1239" y="-387" font-family="Helvetica,sans-Serif" font-size="10.00">Timer</text>
</a>
</g>
</g>
<!-- Node6&#45;&gt;Node7 -->
<g id="edge6" class="edge"><title>Node6&#45;&gt;Node7</title>
<path fill="none" stroke="midnightblue" d="M1097.84,-360.547C1117.99,-365.501 1143.26,-371.711 1166.76,-377.49"/>
<polygon fill="midnightblue" stroke="midnightblue" points="1166.16,-380.946 1176.71,-379.935 1167.84,-374.149 1166.16,-380.946"/>
</g>
<!-- Node8 -->
<g id="node8" class="node"><title>Node8</title>
<g id="a_node8"><a xlink:href="../../d4/df6/socket__timer_8c.html#a6130830815ae46fe4e6d45cf89bc3506" target="_top" xlink:title="Clears a Socket Timer entry. ">
<polygon fill="none" stroke="black" points="1191.5,-341.5 1191.5,-360.5 1286.5,-360.5 1286.5,-341.5 1191.5,-341.5"/>
<text text-anchor="middle" x="1239" y="-348.5" font-family="Helvetica,sans-Serif" font-size="10.00">SocketTimerClear</text>
</a>
</g>
</g>
<!-- Node6&#45;&gt;Node8 -->
<g id="edge7" class="edge"><title>Node6&#45;&gt;Node8</title>
<path fill="none" stroke="midnightblue" d="M1131.55,-351C1148.08,-351 1165.42,-351 1181.19,-351"/>
<polygon fill="midnightblue" stroke="midnightblue" points="1181.3,-354.5 1191.3,-351 1181.3,-347.5 1181.3,-354.5"/>
</g>
<!-- Node10 -->
<g id="node10" class="node"><title>Node10</title>
<g id="a_node10"><a xlink:href="../../d2/d5e/POSIX_2networkhandler_8c.html#a2812ba0ecd1fd9a5549fbca397d76e3e" target="_top" xlink:title="Platform dependent code to close a socket. ">
<polygon fill="none" stroke="black" points="1184,-303.5 1184,-322.5 1294,-322.5 1294,-303.5 1184,-303.5"/>
<text text-anchor="middle" x="1239" y="-310.5" font-family="Helvetica,sans-Serif" font-size="10.00">CloseSocketPlatform</text>
</a>
</g>
</g>
<!-- Node9&#45;&gt;Node10 -->
<g id="edge9" class="edge"><title>Node9&#45;&gt;Node10</title>
<path fill="none" stroke="midnightblue" d="M1094.79,-313C1117.41,-313 1147.29,-313 1173.9,-313"/>
<polygon fill="midnightblue" stroke="midnightblue" points="1173.92,-316.5 1183.92,-313 1173.92,-309.5 1173.92,-316.5"/>
</g>
<!-- Node14&#45;&gt;Node13 -->
<g id="edge14" class="edge"><title>Node14&#45;&gt;Node13</title>
<path fill="none" stroke="midnightblue" d="M343.203,-98.8704C369.734,-101.431 399.884,-104.34 426.608,-106.918"/>
<polygon fill="midnightblue" stroke="midnightblue" points="426.379,-110.412 436.669,-107.889 427.051,-103.445 426.379,-110.412"/>
</g>
<!-- Node17 -->
<g id="node17" class="node"><title>Node17</title>
<g id="a_node17"><a xlink:href="../../df/d91/cipconnectionobject_8c.html#a0da85deed56477da3ec500cec51aa46e" target="_top" xlink:title="ConnectionObjectGetConnectionType">
<polygon fill="none" stroke="black" points="640,-164.5 640,-183.5 822,-183.5 822,-164.5 640,-164.5"/>
<text text-anchor="middle" x="731" y="-171.5" font-family="Helvetica,sans-Serif" font-size="10.00">ConnectionObjectGetConnectionType</text>
</a>
</g>
</g>
<!-- Node16&#45;&gt;Node17 -->
<g id="edge17" class="edge"><title>Node16&#45;&gt;Node17</title>
<path fill="none" stroke="midnightblue" d="M604.329,-174C612.745,-174 621.247,-174 629.649,-174"/>
<polygon fill="midnightblue" stroke="midnightblue" points="629.835,-177.5 639.835,-174 629.835,-170.5 629.835,-177.5"/>
</g>
<!-- Node19&#45;&gt;Node12 -->
<g id="edge20" class="edge"><title>Node19&#45;&gt;Node12</title>
<path fill="none" stroke="midnightblue" d="M329.24,-221.54C360.68,-226.78 399.853,-233.309 432.746,-238.791"/>
<polygon fill="midnightblue" stroke="midnightblue" points="432.297,-242.264 442.737,-240.456 433.448,-235.36 432.297,-242.264"/>
</g>
<!-- Node19&#45;&gt;Node16 -->
<g id="edge21" class="edge"><title>Node19&#45;&gt;Node16</title>
<path fill="none" stroke="midnightblue" d="M329.24,-202.46C360.68,-197.22 399.853,-190.691 432.746,-185.209"/>
<polygon fill="midnightblue" stroke="midnightblue" points="433.448,-188.64 442.737,-183.544 432.297,-181.736 433.448,-188.64"/>
</g>
<!-- Node20 -->
<g id="node20" class="node"><title>Node20</title>
<g id="a_node20"><a xlink:href="../../df/d91/cipconnectionobject_8c.html#a4c3d0e8258e857f80e5b7111519f7daa" target="_top" xlink:title="ConnectionObjectIsTypeIOConnection">
<polygon fill="none" stroke="black" points="408.5,-202.5 408.5,-221.5 593.5,-221.5 593.5,-202.5 408.5,-202.5"/>
<text text-anchor="middle" x="501" y="-209.5" font-family="Helvetica,sans-Serif" font-size="10.00">ConnectionObjectIsTypeIOConnection</text>
</a>
</g>
</g>
<!-- Node19&#45;&gt;Node20 -->
<g id="edge22" class="edge"><title>Node19&#45;&gt;Node20</title>
<path fill="none" stroke="midnightblue" d="M362.112,-212C373.975,-212 386.201,-212 398.241,-212"/>
<polygon fill="midnightblue" stroke="midnightblue" points="398.301,-215.5 408.301,-212 398.3,-208.5 398.301,-215.5"/>
</g>
</g>
</svg>
        <g id="navigator" transform="translate(0 0)" fill="#404254">
                <rect fill="#f2f5e9" fill-opacity="0.5" stroke="#606060" stroke-width=".5" x="0" y="0" width="60" height="60"/>
                <use id="zoomplus" xlink:href="#zoomPlus" x="17" y="9" onmousedown="handleZoom(evt,'in')"/>
                <use id="zoomminus" xlink:href="#zoomMin" x="42" y="9" onmousedown="handleZoom(evt,'out')"/>
                <use id="reset" xlink:href="#resetDef" x="30" y="36" onmousedown="handleReset()"/>
                <g id="arrowUp" xlink:href="#dirArrow" transform="translate(30 24)" onmousedown="handlePan(0,-1)">
                  <use xlink:href="#rim" fill="#404040">
                        <set attributeName="fill" to="#808080" begin="arrowUp.mouseover" end="arrowUp.mouseout"/>
                  </use>
                  <path fill="none" stroke="white" stroke-width="1.5" d="M0,-3.0v7 M-2.5,-0.5L0,-3.0L2.5,-0.5"/>
                </g>
                <g id="arrowRight" xlink:href="#dirArrow" transform="rotate(90) translate(36 -43)" onmousedown="handlePan(1,0)">
                  <use xlink:href="#rim" fill="#404040">
                        <set attributeName="fill" to="#808080" begin="arrowRight.mouseover" end="arrowRight.mouseout"/>
                  </use>
                  <path fill="none" stroke="white" stroke-width="1.5" d="M0,-3.0v7 M-2.5,-0.5L0,-3.0L2.5,-0.5"/>
                </g>
                <g id="arrowDown" xlink:href="#dirArrow" transform="rotate(180) translate(-30 -48)" onmousedown="handlePan(0,1)">
                  <use xlink:href="#rim" fill="#404040">
                        <set attributeName="fill" to="#808080" begin="arrowDown.mouseover" end="arrowDown.mouseout"/>
                  </use>
                  <path fill="none" stroke="white" stroke-width="1.5" d="M0,-3.0v7 M-2.5,-0.5L0,-3.0L2.5,-0.5"/>
                </g>
                <g id="arrowLeft" xlink:href="#dirArrow" transform="rotate(270) translate(-36 17)" onmousedown="handlePan(-1,0)">
                  <use xlink:href="#rim" fill="#404040">
                        <set attributeName="fill" to="#808080" begin="arrowLeft.mouseover" end="arrowLeft.mouseout"/>
                  </use>
                  <path fill="none" stroke="white" stroke-width="1.5" d="M0,-3.0v7 M-2.5,-0.5L0,-3.0L2.5,-0.5"/>
                </g>
        </g>
        <svg viewBox="0 0 15 15" width="100%" height="30px" preserveAspectRatio="xMaxYMin meet">
         <g id="arrow_out" transform="scale(0.3 0.3)">
          <a xlink:href="cipioconnection_8c_a7e4923f4b027d489d9933b52f6fd7007_cgraph_org.svg" target="_base">
           <rect id="button" ry="5" rx="5" y="6" x="6" height="38" width="38"
                fill="#f2f5e9" fill-opacity="0.5" stroke="#606060" stroke-width="1.0"/>
           <path id="arrow"
             d="M 11.500037,31.436501 C 11.940474,20.09759 22.043105,11.32322 32.158766,21.979434 L 37.068811,17.246167 C 37.068811,17.246167 37.088388,32 37.088388,32 L 22.160133,31.978069 C 22.160133,31.978069 26.997745,27.140456 26.997745,27.140456 C 18.528582,18.264221 13.291696,25.230495 11.500037,31.436501 z"
             style="fill:#404040;"/>
          </a>
         </g>
        </svg>
</svg>
