<?xml version="1.0" encoding="UTF-8" standalone="no"?>
<!DOCTYPE svg PUBLIC "-//W3C//DTD SVG 1.1//EN"
 "http://www.w3.org/Graphics/SVG/1.1/DTD/svg11.dtd">
<!-- Generated by graphviz version 2.26.3 (20100126.1600)
 -->
<!-- Title: G Pages: 1 -->
<!--zoomable 270 -->
<svg id="main" version="1.1" xmlns="http://www.w3.org/2000/svg" xmlns:xlink="http://www.w3.org/1999/xlink" xml:space="preserve" onload="init(evt)">
        <defs>
                <circle id="rim" cx="0" cy="0" r="7"/>
                <circle id="rim2" cx="0" cy="0" r="3.5"/>
                <g id="zoomPlus">
                        <use xlink:href="#rim" fill="#404040">
                                <set attributeName="fill" to="#808080" begin="zoomplus.mouseover" end="zoomplus.mouseout"/>
                        </use>
                        <path d="M-4,0h8M0,-4v8" fill="none" stroke="white" stroke-width="1.5" pointer-events="none"/>
                </g>
                <g id="zoomMin">
                        <use xlink:href="#rim" fill="#404040">
                                <set attributeName="fill" to="#808080" begin="zoomminus.mouseover" end="zoomminus.mouseout"/>
                        </use>
                        <path d="M-4,0h8" fill="none" stroke="white" stroke-width="1.5" pointer-events="none"/>
                </g>
                <g id="dirArrow">
                        <path fill="none" stroke="white" stroke-width="1.5" d="M0,-3.0v7 M-2.5,-0.5L0,-3.0L2.5,-0.5"/>
                </g>
               <g id="resetDef">
                       <use xlink:href="#rim2" fill="#404040">
                               <set attributeName="fill" to="#808080" begin="reset.mouseover" end="reset.mouseout"/>
                       </use>
               </g>
        </defs>

<script type="text/javascript">
var viewWidth = 584;
var viewHeight = 270;
var sectionId = 'dynsection-16';
</script>
<script xlink:href="../../svgpan.js"/>
<svg id="graph" class="graph">
<g id="viewport">
<title>G</title>
<!-- Node1 -->
<g id="node1" class="node"><title>Node1</title>
<polygon fill="#bfbfbf" stroke="black" points="0.5,-160.5 0.5,-181.5 195.5,-181.5 195.5,-160.5 0.5,-160.5"/>
<text text-anchor="middle" x="98" y="-168.5" font-family="Helvetica,sans-Serif" font-size="10.00">OpenConsumingPointToPointConnection</text>
</g>
<!-- Node2 -->
<g id="node3" class="node"><title>Node2</title>
<a xlink:href="../../df/d91/cipconnectionobject_8c.html#aeee7026822ffa05ebabab57a0eed1665" target="_top" xlink:title="ConnectionObjectGetTToOPriority">
<polygon fill="none" stroke="black" points="232,-200.5 232,-221.5 398,-221.5 398,-200.5 232,-200.5"/>
<text text-anchor="middle" x="315" y="-208.5" font-family="Helvetica,sans-Serif" font-size="10.00">ConnectionObjectGetTToOPriority</text>
</a>
</g>
<!-- Node1&#45;&gt;Node2 -->
<g id="edge2" class="edge"><title>Node1&#45;&gt;Node2</title>
<path fill="none" stroke="midnightblue" d="M155.014,-181.51C183.558,-186.771 218.289,-193.173 248.089,-198.666"/>
<polygon fill="midnightblue" stroke="midnightblue" points="247.521,-202.12 257.99,-200.491 248.79,-195.236 247.521,-202.12"/>
</g>
<!-- Node4 -->
<g id="node7" class="node"><title>Node4</title>
<a xlink:href="../../d5/dc5/group__CIP__CALLBACK__API.html#ga5807bcc51621775c9aedbf58d3a7a6d3" target="_top" xlink:title="create a producing or consuming UDP socket">
<polygon fill="none" stroke="black" points="267.5,-120.5 267.5,-141.5 362.5,-141.5 362.5,-120.5 267.5,-120.5"/>
<text text-anchor="middle" x="315" y="-128.5" font-family="Helvetica,sans-Serif" font-size="10.00">CreateUdpSocket</text>
</a>
</g>
<!-- Node1&#45;&gt;Node4 -->
<g id="edge6" class="edge"><title>Node1&#45;&gt;Node4</title>
<path fill="none" stroke="midnightblue" d="M155.014,-160.49C186.514,-154.684 225.552,-147.488 257.179,-141.658"/>
<polygon fill="midnightblue" stroke="midnightblue" points="257.969,-145.072 267.169,-139.817 256.7,-138.188 257.969,-145.072"/>
</g>
<!-- Node3 -->
<g id="node5" class="node"><title>Node3</title>
<a xlink:href="../../df/d91/cipconnectionobject_8c.html#a54694d088a9b468aa4531a1801bbc490" target="_top" xlink:title="ConnectionObjectGetPriority">
<polygon fill="none" stroke="black" points="434.5,-240.5 434.5,-261.5 575.5,-261.5 575.5,-240.5 434.5,-240.5"/>
<text text-anchor="middle" x="505" y="-248.5" font-family="Helvetica,sans-Serif" font-size="10.00">ConnectionObjectGetPriority</text>
</a>
</g>
<!-- Node2&#45;&gt;Node3 -->
<g id="edge4" class="edge"><title>Node2&#45;&gt;Node3</title>
<path fill="none" stroke="midnightblue" d="M364.92,-221.51C389.477,-226.679 419.266,-232.951 445.049,-238.379"/>
<polygon fill="midnightblue" stroke="midnightblue" points="444.577,-241.856 455.084,-240.491 446.019,-235.006 444.577,-241.856"/>
</g>
<!-- Node5 -->
<g id="node9" class="node"><title>Node5</title>
<a xlink:href="../../df/d94/opener__error_8h.html#afbc52bcd5256264e75ba063f2e361e24" target="_top" xlink:title="Gets the error number or equivalent.">
<polygon fill="none" stroke="black" points="445.5,-200.5 445.5,-221.5 564.5,-221.5 564.5,-200.5 445.5,-200.5"/>
<text text-anchor="middle" x="505" y="-208.5" font-family="Helvetica,sans-Serif" font-size="10.00">GetSocketErrorNumber</text>
</a>
</g>
<!-- Node4&#45;&gt;Node5 -->
<g id="edge8" class="edge"><title>Node4&#45;&gt;Node5</title>
<path fill="none" stroke="midnightblue" d="M333.449,-141.71C356.416,-154.709 397.124,-176.664 434,-191 439.953,-193.314 446.281,-195.486 452.613,-197.483"/>
<polygon fill="midnightblue" stroke="midnightblue" points="451.926,-200.932 462.511,-200.472 453.95,-194.231 451.926,-200.932"/>
</g>
<!-- Node6 -->
<g id="node11" class="node"><title>Node6</title>
<a xlink:href="../../df/d94/opener__error_8h.html#a0df2625909cb28076bc7df8e6c9cfcae" target="_top" xlink:title="Returns a human readable message for the given error number.">
<polygon fill="none" stroke="black" points="458.5,-160.5 458.5,-181.5 551.5,-181.5 551.5,-160.5 458.5,-160.5"/>
<text text-anchor="middle" x="505" y="-168.5" font-family="Helvetica,sans-Serif" font-size="10.00">GetErrorMessage</text>
</a>
</g>
<!-- Node4&#45;&gt;Node6 -->
<g id="edge10" class="edge"><title>Node4&#45;&gt;Node6</title>
<path fill="none" stroke="midnightblue" d="M362.945,-141.094C388.989,-146.577 421.345,-153.388 448.596,-159.126"/>
<polygon fill="midnightblue" stroke="midnightblue" points="447.877,-162.551 458.384,-161.186 449.32,-155.701 447.877,-162.551"/>
</g>
<!-- Node7 -->
<g id="node13" class="node"><title>Node7</title>
<a xlink:href="../../df/d94/opener__error_8h.html#a99f5295ad12a2b986bab4b89a24cfc20" target="_top" xlink:title="Frees the space of the error message generated by GetErrorMessage(int)">
<polygon fill="none" stroke="black" points="456.5,-120.5 456.5,-141.5 553.5,-141.5 553.5,-120.5 456.5,-120.5"/>
<text text-anchor="middle" x="505" y="-128.5" font-family="Helvetica,sans-Serif" font-size="10.00">FreeErrorMessage</text>
</a>
</g>
<!-- Node4&#45;&gt;Node7 -->
<g id="edge12" class="edge"><title>Node4&#45;&gt;Node7</title>
<path fill="none" stroke="midnightblue" d="M362.945,-131C388.29,-131 419.613,-131 446.391,-131"/>
<polygon fill="midnightblue" stroke="midnightblue" points="446.409,-134.5 456.409,-131 446.409,-127.5 446.409,-134.5"/>
</g>
<!-- Node8 -->
<g id="node15" class="node"><title>Node8</title>
<a xlink:href="../../d2/d5e/POSIX_2networkhandler_8c.html#a4af2b184144f7d807e8157ee8b474ecf" target="_top" xlink:title="SetSocketToNonBlocking">
<polygon fill="none" stroke="black" points="440.5,-80.5 440.5,-101.5 569.5,-101.5 569.5,-80.5 440.5,-80.5"/>
<text text-anchor="middle" x="505" y="-88.5" font-family="Helvetica,sans-Serif" font-size="10.00">SetSocketToNonBlocking</text>
</a>
</g>
<!-- Node4&#45;&gt;Node8 -->
<g id="edge14" class="edge"><title>Node4&#45;&gt;Node8</title>
<path fill="none" stroke="midnightblue" d="M362.945,-120.906C387.9,-115.653 418.65,-109.179 445.152,-103.6"/>
<polygon fill="midnightblue" stroke="midnightblue" points="446.015,-106.995 455.08,-101.51 444.573,-100.145 446.015,-106.995"/>
</g>
<!-- Node9 -->
<g id="node17" class="node"><title>Node9</title>
<a xlink:href="../../d2/d5e/POSIX_2networkhandler_8c.html#a0db6c2ead1606d25fb6d9151e5c08d09" target="_top" xlink:title="SetQosOnSocket">
<polygon fill="none" stroke="black" points="458.5,-40.5 458.5,-61.5 551.5,-61.5 551.5,-40.5 458.5,-40.5"/>
<text text-anchor="middle" x="505" y="-48.5" font-family="Helvetica,sans-Serif" font-size="10.00">SetQosOnSocket</text>
</a>
</g>
<!-- Node4&#45;&gt;Node9 -->
<g id="edge16" class="edge"><title>Node4&#45;&gt;Node9</title>
<path fill="none" stroke="midnightblue" d="M333.449,-120.29C356.416,-107.291 397.124,-85.3363 434,-71 439.953,-68.6856 446.281,-66.5139 452.613,-64.5172"/>
<polygon fill="midnightblue" stroke="midnightblue" points="453.95,-67.7695 462.511,-61.528 451.926,-61.0684 453.95,-67.7695"/>
</g>
<!-- Node10 -->
<g id="node19" class="node"><title>Node10</title>
<a xlink:href="../../dd/d34/cipqos_8c.html#a6fa85e635fcd14e9797254ec3a5bb95e" target="_top" xlink:title="Initializing the data structures of the TCP/IP interface object.">
<polygon fill="none" stroke="black" points="451,-0.5 451,-21.5 559,-21.5 559,-0.5 451,-0.5"/>
<text text-anchor="middle" x="505" y="-8.5" font-family="Helvetica,sans-Serif" font-size="10.00">GetPriorityForSocket</text>
</a>
</g>
<!-- Node4&#45;&gt;Node10 -->
<g id="edge18" class="edge"><title>Node4&#45;&gt;Node10</title>
<path fill="none" stroke="midnightblue" d="M324.71,-120.238C343.706,-99.8273 387.966,-55.3604 434,-31 438.234,-28.7595 442.747,-26.7467 447.366,-24.9429"/>
<polygon fill="midnightblue" stroke="midnightblue" points="448.699,-28.1835 456.943,-21.5281 446.348,-21.5901 448.699,-28.1835"/>
</g>
</g>
</svg>
        <g id="navigator" transform="translate(0 0)" fill="#404254">
                <rect fill="#f2f5e9" fill-opacity="0.5" stroke="#606060" stroke-width=".5" x="0" y="0" width="60" height="60"/>
                <use id="zoomplus" xlink:href="#zoomPlus" x="17" y="9" onmousedown="handleZoom(evt,'in')"/>
                <use id="zoomminus" xlink:href="#zoomMin" x="42" y="9" onmousedown="handleZoom(evt,'out')"/>
                <use id="reset" xlink:href="#resetDef" x="30" y="36" onmousedown="handleReset()"/>
                <g id="arrowUp" xlink:href="#dirArrow" transform="translate(30 24)" onmousedown="handlePan(0,-1)">
                  <use xlink:href="#rim" fill="#404040">
                        <set attributeName="fill" to="#808080" begin="arrowUp.mouseover" end="arrowUp.mouseout"/>
                  </use>
                  <path fill="none" stroke="white" stroke-width="1.5" d="M0,-3.0v7 M-2.5,-0.5L0,-3.0L2.5,-0.5"/>
                </g>
                <g id="arrowRight" xlink:href="#dirArrow" transform="rotate(90) translate(36 -43)" onmousedown="handlePan(1,0)">
                  <use xlink:href="#rim" fill="#404040">
                        <set attributeName="fill" to="#808080" begin="arrowRight.mouseover" end="arrowRight.mouseout"/>
                  </use>
                  <path fill="none" stroke="white" stroke-width="1.5" d="M0,-3.0v7 M-2.5,-0.5L0,-3.0L2.5,-0.5"/>
                </g>
                <g id="arrowDown" xlink:href="#dirArrow" transform="rotate(180) translate(-30 -48)" onmousedown="handlePan(0,1)">
                  <use xlink:href="#rim" fill="#404040">
                        <set attributeName="fill" to="#808080" begin="arrowDown.mouseover" end="arrowDown.mouseout"/>
                  </use>
                  <path fill="none" stroke="white" stroke-width="1.5" d="M0,-3.0v7 M-2.5,-0.5L0,-3.0L2.5,-0.5"/>
                </g>
                <g id="arrowLeft" xlink:href="#dirArrow" transform="rotate(270) translate(-36 17)" onmousedown="handlePan(-1,0)">
                  <use xlink:href="#rim" fill="#404040">
                        <set attributeName="fill" to="#808080" begin="arrowLeft.mouseover" end="arrowLeft.mouseout"/>
                  </use>
                  <path fill="none" stroke="white" stroke-width="1.5" d="M0,-3.0v7 M-2.5,-0.5L0,-3.0L2.5,-0.5"/>
                </g>
        </g>
</svg>
